<svg xmlns="http://www.w3.org/2000/svg" xmlns:xlink="http://www.w3.org/1999/xlink" width="91.54000091552734" height="315.1000061035156" style="width:91.54000091552734px;height:315.1000061035156px;font-family:Asana-Math, Asana;background:#FFF;"><g><g><g><g transform="matrix(1,0,0,1,2,18.039993286132812)"><path transform="matrix(0.017,0,0,-0.017,0,0)" d="M45 284C45 90 152 -18 343 -18C439 -18 510 5 600 67C600 67 610 103 610 103C610 103 600 110 600 110C506 53 454 35 376 35C219 35 133 131 133 309C133 447 190 653 418 653C489 653 541 639 597 603L597 519L624 519C629 576 637 619 651 665C575 694 518 706 456 706C276 706 45 578 45 284ZM1179 473L1172 482L1104 465L1094 414C1079 336 1054 268 1023 221C964 130 886 59 846 59C838 59 833 68 833 85C833 99 835 112 840 137L897 408C900 424 902 438 902 451C902 470 893 482 879 482C859 482 821 461 747 408L719 388L726 368L758 389C786 407 797 412 806 412C815 412 823 403 823 392C823 388 822 378 821 374L758 77C756 68 754 44 754 30C754 7 769 -11 789 -11C852 -11 973 101 1057 239L1020 97C1013 73 1009 46 1009 31C1009 6 1020 -9 1039 -9C1065 -9 1101 12 1199 85L1189 103L1163 86C1139 70 1113 59 1102 59C1094 59 1089 66 1089 76C1089 112 1164 416 1179 473ZM1513 204L1484 77C1480 60 1478 42 1478 26C1478 4 1487 -9 1502 -9C1525 -9 1566 17 1648 85L1641 106C1617 86 1588 59 1566 59C1557 59 1551 68 1551 82C1551 87 1551 90 1552 93L1644 472L1634 481L1601 463C1560 478 1543 482 1516 482C1488 482 1468 477 1441 464C1379 433 1346 403 1321 354C1277 265 1246 145 1246 67C1246 23 1261 -11 1280 -11C1317 -11 1397 41 1513 204ZM1561 414C1539 305 1520 253 1486 201C1429 117 1368 59 1336 59C1324 59 1318 72 1318 99C1318 163 1346 280 1381 360C1405 415 1428 433 1476 433C1499 433 1517 429 1561 414ZM2053 365C2056 403 2061 435 2069 476C2058 481 2054 482 2049 482C2018 482 1987 458 1951 407C1912 351 1873 291 1857 256L1889 408C1893 425 1895 438 1895 450C1895 470 1887 482 1872 482C1851 482 1813 461 1739 408L1711 388L1718 368L1750 389C1778 407 1789 412 1798 412C1808 412 1815 403 1815 390C1815 332 1772 126 1732 -2L1742 -9C1757 -4 1773 -1 1796 4L1809 6L1835 126C1853 209 1876 262 1920 319C1954 363 1981 384 2003 384C2018 384 2028 379 2039 365ZM2198 390L2142 107C2141 99 2129 61 2129 31C2129 6 2140 -9 2159 -9C2194 -9 2229 11 2307 74L2338 99L2328 117L2283 86C2254 66 2234 56 2223 56C2214 56 2209 64 2209 76C2209 102 2223 183 2252 328L2265 390L2372 390L2383 440C2345 436 2311 434 2273 434C2289 528 2300 577 2318 631L2307 646C2287 634 2260 622 2229 610L2204 440C2160 419 2134 408 2116 403L2114 390ZM2439 388L2446 368L2478 389C2515 412 2518 414 2525 414C2535 414 2543 404 2543 391C2543 384 2539 361 2535 347L2469 107C2461 76 2456 49 2456 30C2456 6 2467 -9 2486 -9C2512 -9 2548 12 2646 85L2636 103L2610 86C2581 67 2558 56 2549 56C2542 56 2536 66 2536 76C2536 86 2538 95 2543 116L2620 420C2624 437 2626 448 2626 456C2626 473 2617 482 2601 482C2579 482 2542 461 2467 408ZM2633 712C2604 712 2575 679 2575 645C2575 620 2590 604 2614 604C2645 604 2669 633 2669 671C2669 695 2654 712 2633 712ZM2933 722L2921 733C2869 707 2833 698 2761 691L2757 670L2805 670C2829 670 2839 663 2839 648C2839 645 2839 640 2836 622C2825 567 2752 182 2737 132C2724 82 2718 52 2718 31C2718 6 2729 -9 2748 -9C2774 -9 2810 12 2908 85L2898 103L2872 86C2843 67 2821 56 2811 56C2804 56 2798 66 2798 76C2798 82 2799 89 2802 104ZM3287 111L3263 94C3210 56 3162 36 3126 36C3079 36 3050 73 3050 133C3050 158 3053 185 3058 214C3075 218 3184 248 3209 259C3294 296 3333 342 3333 404C3333 451 3299 482 3249 482C3181 496 3071 423 3034 349C3004 299 2974 180 2974 113C2974 35 3018 -11 3090 -11C3147 -11 3203 17 3295 92ZM3072 274C3089 343 3109 386 3138 412C3156 428 3187 440 3211 440C3240 440 3259 420 3259 388C3259 344 3224 297 3172 272C3144 258 3108 247 3063 237ZM3378 148C3373 97 3367 62 3356 16C3394 -2 3428 -11 3463 -11C3512 -11 3558 7 3609 47C3660 87 3681 124 3681 174C3681 228 3649 257 3575 271L3532 279C3472 290 3453 307 3453 348C3453 401 3498 442 3555 442C3596 442 3634 424 3650 397L3650 342L3673 342C3677 377 3681 404 3692 455C3653 474 3625 482 3592 482C3540 482 3479 452 3431 404C3405 377 3394 352 3394 316C3394 260 3425 228 3491 215L3554 203C3598 195 3614 177 3614 138C3614 73 3568 29 3497 29C3462 29 3431 40 3403 64L3403 148Z" stroke="rgb(0,0,0)" stroke-opacity="1" stroke-width="8" fill="rgb(0,0,0)" fill-opacity="1"></path></g></g></g><g><g><g transform="matrix(1,0,0,1,2,50.36499786376953)"><path transform="matrix(0.017,0,0,-0.017,0,0)" d="M151 -172C151 -95 175 -59 228 -59C257 -59 285 -67 324 -88L469 -164C529 -195 547 -201 587 -201C662 -201 698 -158 708 -61L683 -61C677 -115 655 -140 615 -140C598 -140 579 -135 553 -125L317 -29C292 -19 274 -15 251 -15C177 -15 126 -66 126 -142C126 -144 126 -151 127 -159ZM748 425C748 603 644 706 464 706C227 706 53 523 53 272C53 83 147 -18 323 -18C595 -18 748 207 748 425ZM660 409C660 221 571 24 360 24C216 24 141 110 141 277C141 425 199 664 433 664C549 664 660 610 660 409Z" stroke="rgb(0,0,0)" stroke-opacity="1" stroke-width="8" fill="rgb(0,0,0)" fill-opacity="1"></path></g></g><g><g><g><g><g transform="matrix(1,0,0,1,15.725006103515625,54.32500305175781)"><path transform="matrix(0.0119,0,0,-0.0119,0,0)" d="M34 388L41 368L73 389C110 412 113 414 120 414C130 414 138 404 138 391C138 384 134 361 130 347L64 107C56 76 51 49 51 30C51 6 62 -9 81 -9C107 -9 143 12 241 85L231 103L205 86C176 67 153 56 144 56C137 56 131 66 131 76C131 86 133 95 138 116L215 420C219 437 221 448 221 456C221 473 212 482 196 482C174 482 137 461 62 408ZM228 712C199 712 170 679 170 645C170 620 185 604 209 604C240 604 264 633 264 671C264 695 249 712 228 712Z" stroke="rgb(0,0,0)" stroke-opacity="1" stroke-width="8" fill="rgb(0,0,0)" fill-opacity="1"></path></g></g></g></g></g><g><g transform="matrix(1,0,0,1,25.14501953125,50.36499786376953)"><path transform="matrix(0.017,0,0,-0.017,0,0)" d="M604 347L604 406L65 406L65 347ZM604 134L604 193L65 193L65 134Z" stroke="rgb(0,0,0)" stroke-opacity="1" stroke-width="8" fill="rgb(0,0,0)" fill-opacity="1"></path></g></g><g><g transform="matrix(1,0,0,1,41.600006103515625,50.36499786376953)"><path transform="matrix(0.017,0,0,-0.017,0,0)" d="M34 388L41 368L73 389C110 412 113 414 120 414C130 414 138 404 138 391C138 384 134 361 130 347L64 107C56 76 51 49 51 30C51 6 62 -9 81 -9C107 -9 143 12 241 85L231 103L205 86C176 67 153 56 144 56C137 56 131 66 131 76C131 86 133 95 138 116L215 420C219 437 221 448 221 456C221 473 212 482 196 482C174 482 137 461 62 408ZM228 712C199 712 170 679 170 645C170 620 185 604 209 604C240 604 264 633 264 671C264 695 249 712 228 712Z" stroke="rgb(0,0,0)" stroke-opacity="1" stroke-width="8" fill="rgb(0,0,0)" fill-opacity="1"></path></g></g><g><g><g><g><g transform="matrix(1,0,0,1,48.0050048828125,38.19999694824219)"><path transform="matrix(0.017,0,0,-0.017,0,0)" d="M582 103L237 692L75 692L70 664L105 662C150 660 184 615 185 606L92 102C80 40 74 32 38 28L7 25L2 -3L113 0C125 0 126 0 223 -3L228 25L186 28C146 31 137 39 137 72C137 80 138 91 140 102L220 566L558 -11L608 -11L702 542C723 655 725 659 762 662L799 664L802 691L589 692L584 664L631 662C657 661 667 654 667 638C667 631 584 116 582 103Z" stroke="rgb(0,0,0)" stroke-opacity="1" stroke-width="8" fill="rgb(0,0,0)" fill-opacity="1"></path></g></g><g><g transform="matrix(1,0,0,1,64.61001586914062,38.19999694824219)"><path transform="matrix(0.017,0,0,-0.017,0,0)" d="M604 241L604 300L364 300L364 538L305 538L305 300L65 300L65 241L305 241L305 0L364 0L364 241Z" stroke="rgb(0,0,0)" stroke-opacity="1" stroke-width="8" fill="rgb(0,0,0)" fill-opacity="1"></path></g></g><g><g transform="matrix(1,0,0,1,79.35501098632812,38.19999694824219)"><path transform="matrix(0.017,0,0,-0.017,0,0)" d="M418 -3L418 27L366 30C311 33 301 44 301 96L301 700L60 598L67 548L217 614L217 96C217 44 206 33 152 30L96 27L96 -3C250 0 250 0 261 0C292 0 402 -3 418 -3Z" stroke="rgb(0,0,0)" stroke-opacity="1" stroke-width="8" fill="rgb(0,0,0)" fill-opacity="1"></path></g></g></g></g><g><g><g><g transform="matrix(1,0,0,1,63.680023193359375,63.535003662109375)"><path transform="matrix(0.017,0,0,-0.017,0,0)" d="M280 181L280 106C280 46 269 32 220 30L158 27L158 -3C291 0 291 0 315 0C339 0 339 0 472 -3L472 27L424 30C375 33 364 46 364 106L364 181C423 181 444 180 472 177L472 248L364 245L365 697L285 667L2 204L2 181ZM280 245L65 245L280 597Z" stroke="rgb(0,0,0)" stroke-opacity="1" stroke-width="8" fill="rgb(0,0,0)" fill-opacity="1"></path></g></g></g></g><line style="fill:none;stroke-width:0.99px;stroke:rgb(0, 0, 0);" x1="48.0050048828125" y1="46.40000367164612" x2="87.84500503540039" y2="46.40000367164612"></line></g></g><g></g><g><g><g transform="matrix(1,0,0,1,2,100.85499572753906)"><path transform="matrix(0.017,0,0,-0.017,0,0)" d="M151 -172C151 -95 175 -59 228 -59C257 -59 285 -67 324 -88L469 -164C529 -195 547 -201 587 -201C662 -201 698 -158 708 -61L683 -61C677 -115 655 -140 615 -140C598 -140 579 -135 553 -125L317 -29C292 -19 274 -15 251 -15C177 -15 126 -66 126 -142C126 -144 126 -151 127 -159ZM748 425C748 603 644 706 464 706C227 706 53 523 53 272C53 83 147 -18 323 -18C595 -18 748 207 748 425ZM660 409C660 221 571 24 360 24C216 24 141 110 141 277C141 425 199 664 433 664C549 664 660 610 660 409ZM1269 473L1262 482L1194 465L1184 414C1169 336 1144 268 1113 221C1054 130 976 59 936 59C928 59 923 68 923 85C923 99 925 112 930 137L987 408C990 424 992 438 992 451C992 470 983 482 969 482C949 482 911 461 837 408L809 388L816 368L848 389C876 407 887 412 896 412C905 412 913 403 913 392C913 388 912 378 911 374L848 77C846 68 844 44 844 30C844 7 859 -11 879 -11C942 -11 1063 101 1147 239L1110 97C1103 73 1099 46 1099 31C1099 6 1110 -9 1129 -9C1155 -9 1191 12 1289 85L1279 103L1253 86C1229 70 1203 59 1192 59C1184 59 1179 66 1179 76C1179 112 1254 416 1269 473ZM1366 388L1373 368L1405 389C1442 412 1445 414 1452 414C1462 414 1470 404 1470 391C1470 384 1466 361 1462 347L1396 107C1388 76 1383 49 1383 30C1383 6 1394 -9 1413 -9C1439 -9 1475 12 1573 85L1563 103L1537 86C1508 67 1485 56 1476 56C1469 56 1463 66 1463 76C1463 86 1465 95 1470 116L1547 420C1551 437 1553 448 1553 456C1553 473 1544 482 1528 482C1506 482 1469 461 1394 408ZM1560 712C1531 712 1502 679 1502 645C1502 620 1517 604 1541 604C1572 604 1596 633 1596 671C1596 695 1581 712 1560 712ZM1633 388L1640 368L1672 389C1709 412 1712 414 1719 414C1730 414 1737 404 1737 389C1737 338 1696 145 1655 2L1662 -9C1687 -2 1710 4 1732 8C1751 134 1772 199 1818 268C1872 352 1947 414 1992 414C2003 414 2009 405 2009 390C2009 372 2006 351 1998 319L1946 107C1937 70 1933 47 1933 31C1933 6 1944 -9 1963 -9C1989 -9 2025 12 2123 85L2113 103L2087 86C2058 67 2036 56 2026 56C2019 56 2013 65 2013 76C2013 81 2014 92 2015 96L2081 372C2088 401 2092 429 2092 446C2092 469 2081 482 2061 482C2019 482 1950 444 1891 389C1853 354 1825 320 1773 247L1811 408C1815 426 1817 438 1817 449C1817 470 1809 482 1794 482C1773 482 1734 460 1661 408ZM2289 390L2233 107C2232 99 2220 61 2220 31C2220 6 2231 -9 2250 -9C2285 -9 2320 11 2398 74L2429 99L2419 117L2374 86C2345 66 2325 56 2314 56C2305 56 2300 64 2300 76C2300 102 2314 183 2343 328L2356 390L2463 390L2474 440C2436 436 2402 434 2364 434C2380 528 2391 577 2409 631L2398 646C2378 634 2351 622 2320 610L2295 440C2251 419 2225 408 2207 403L2205 390ZM2530 388L2537 368L2569 389C2606 412 2609 414 2616 414C2626 414 2634 404 2634 391C2634 384 2630 361 2626 347L2560 107C2552 76 2547 49 2547 30C2547 6 2558 -9 2577 -9C2603 -9 2639 12 2737 85L2727 103L2701 86C2672 67 2649 56 2640 56C2633 56 2627 66 2627 76C2627 86 2629 95 2634 116L2711 420C2715 437 2717 448 2717 456C2717 473 2708 482 2692 482C2670 482 2633 461 2558 408ZM2724 712C2695 712 2666 679 2666 645C2666 620 2681 604 2705 604C2736 604 2760 633 2760 671C2760 695 2745 712 2724 712ZM3024 722L3012 733C2960 707 2924 698 2852 691L2848 670L2896 670C2920 670 2930 663 2930 648C2930 645 2930 640 2927 622C2916 567 2843 182 2828 132C2815 82 2809 52 2809 31C2809 6 2820 -9 2839 -9C2865 -9 2901 12 2999 85L2989 103L2963 86C2934 67 2912 56 2902 56C2895 56 2889 66 2889 76C2889 82 2890 89 2893 104ZM3378 111L3354 94C3301 56 3253 36 3217 36C3170 36 3141 73 3141 133C3141 158 3144 185 3149 214C3166 218 3275 248 3300 259C3385 296 3424 342 3424 404C3424 451 3390 482 3340 482C3272 496 3162 423 3125 349C3095 299 3065 180 3065 113C3065 35 3109 -11 3181 -11C3238 -11 3294 17 3386 92ZM3163 274C3180 343 3200 386 3229 412C3247 428 3278 440 3302 440C3331 440 3350 420 3350 388C3350 344 3315 297 3263 272C3235 258 3199 247 3154 237ZM3469 148C3464 97 3458 62 3447 16C3485 -2 3519 -11 3554 -11C3603 -11 3649 7 3700 47C3751 87 3772 124 3772 174C3772 228 3740 257 3666 271L3623 279C3563 290 3544 307 3544 348C3544 401 3589 442 3646 442C3687 442 3725 424 3741 397L3741 342L3764 342C3768 377 3772 404 3783 455C3744 474 3716 482 3683 482C3631 482 3570 452 3522 404C3496 377 3485 352 3485 316C3485 260 3516 228 3582 215L3645 203C3689 195 3705 177 3705 138C3705 73 3659 29 3588 29C3553 29 3522 40 3494 64L3494 148Z" stroke="rgb(0,0,0)" stroke-opacity="1" stroke-width="8" fill="rgb(0,0,0)" fill-opacity="1"></path></g></g></g><g><g><g transform="matrix(1,0,0,1,2,133.1800079345703)"><path transform="matrix(0.017,0,0,-0.017,0,0)" d="M371 664L374 692L350 692L260 689C244 689 226 689 183 690L119 692L116 664L163 662C187 661 198 653 198 635C198 621 195 592 189 559L116 125C99 33 98 32 58 28L17 25L13 -3L55 -2C103 -1 126 0 145 0L242 -3L268 -3L271 25L222 28C195 30 186 37 186 57C186 63 187 74 188 78L231 340C381 169 404 140 509 -3L578 0C614 -1 620 -2 646 -3L646 27L626 27C603 27 583 39 562 65L316 367L608 640C624 655 645 665 662 665L683 665L683 692L660 691C639 690 623 689 615 689C605 689 589 690 568 691L548 692L548 663C548 655 538 642 510 614C466 569 297 403 233 353L278 613C285 651 292 658 329 661Z" stroke="rgb(0,0,0)" stroke-opacity="1" stroke-width="8" fill="rgb(0,0,0)" fill-opacity="1"></path></g></g><g><g><g><g><g transform="matrix(1,0,0,1,13.83502197265625,137.14000549316407)"><path transform="matrix(0.0119,0,0,-0.0119,0,0)" d="M34 388L41 368L73 389C110 412 113 414 120 414C130 414 138 404 138 391C138 384 134 361 130 347L64 107C56 76 51 49 51 30C51 6 62 -9 81 -9C107 -9 143 12 241 85L231 103L205 86C176 67 153 56 144 56C137 56 131 66 131 76C131 86 133 95 138 116L215 420C219 437 221 448 221 456C221 473 212 482 196 482C174 482 137 461 62 408ZM228 712C199 712 170 679 170 645C170 620 185 604 209 604C240 604 264 633 264 671C264 695 249 712 228 712Z" stroke="rgb(0,0,0)" stroke-opacity="1" stroke-width="8" fill="rgb(0,0,0)" fill-opacity="1"></path></g></g></g></g></g><g><g transform="matrix(1,0,0,1,23.2550048828125,133.1800079345703)"><path transform="matrix(0.017,0,0,-0.017,0,0)" d="M604 347L604 406L65 406L65 347ZM604 134L604 193L65 193L65 134Z" stroke="rgb(0,0,0)" stroke-opacity="1" stroke-width="8" fill="rgb(0,0,0)" fill-opacity="1"></path></g></g><g><g transform="matrix(1,0,0,1,39.71002197265625,133.1800079345703)"><path transform="matrix(0.017,0,0,-0.017,0,0)" d="M34 388L41 368L73 389C110 412 113 414 120 414C130 414 138 404 138 391C138 384 134 361 130 347L64 107C56 76 51 49 51 30C51 6 62 -9 81 -9C107 -9 143 12 241 85L231 103L205 86C176 67 153 56 144 56C137 56 131 66 131 76C131 86 133 95 138 116L215 420C219 437 221 448 221 456C221 473 212 482 196 482C174 482 137 461 62 408ZM228 712C199 712 170 679 170 645C170 620 185 604 209 604C240 604 264 633 264 671C264 695 249 712 228 712Z" stroke="rgb(0,0,0)" stroke-opacity="1" stroke-width="8" fill="rgb(0,0,0)" fill-opacity="1"></path></g></g><g><g><g><g><g transform="matrix(1,0,0,1,46.115020751953125,121.01499938964844)"><path transform="matrix(0.017,0,0,-0.017,0,0)" d="M582 103L237 692L75 692L70 664L105 662C150 660 184 615 185 606L92 102C80 40 74 32 38 28L7 25L2 -3L113 0C125 0 126 0 223 -3L228 25L186 28C146 31 137 39 137 72C137 80 138 91 140 102L220 566L558 -11L608 -11L702 542C723 655 725 659 762 662L799 664L802 691L589 692L584 664L631 662C657 661 667 654 667 638C667 631 584 116 582 103Z" stroke="rgb(0,0,0)" stroke-opacity="1" stroke-width="8" fill="rgb(0,0,0)" fill-opacity="1"></path></g></g><g><g transform="matrix(1,0,0,1,62.720001220703125,121.01499938964844)"><path transform="matrix(0.017,0,0,-0.017,0,0)" d="M604 241L604 300L364 300L364 538L305 538L305 300L65 300L65 241L305 241L305 0L364 0L364 241Z" stroke="rgb(0,0,0)" stroke-opacity="1" stroke-width="8" fill="rgb(0,0,0)" fill-opacity="1"></path></g></g><g><g transform="matrix(1,0,0,1,77.46499633789062,121.01499938964844)"><path transform="matrix(0.017,0,0,-0.017,0,0)" d="M418 -3L418 27L366 30C311 33 301 44 301 96L301 700L60 598L67 548L217 614L217 96C217 44 206 33 152 30L96 27L96 -3C250 0 250 0 261 0C292 0 402 -3 418 -3Z" stroke="rgb(0,0,0)" stroke-opacity="1" stroke-width="8" fill="rgb(0,0,0)" fill-opacity="1"></path></g></g></g></g><g><g><g><g transform="matrix(1,0,0,1,61.790008544921875,146.35000610351562)"><path transform="matrix(0.017,0,0,-0.017,0,0)" d="M459 253C459 366 378 446 264 446C216 446 180 443 127 396L127 605L432 604L432 689L75 690L75 322L95 316C142 363 169 377 218 377C314 377 374 309 374 201C374 90 310 25 201 25C147 25 97 43 83 69L37 151L13 137C36 80 48 48 62 4C90 -11 130 -20 173 -20C301 -20 459 89 459 253Z" stroke="rgb(0,0,0)" stroke-opacity="1" stroke-width="8" fill="rgb(0,0,0)" fill-opacity="1"></path></g></g></g></g><line style="fill:none;stroke-width:0.99px;stroke:rgb(0, 0, 0);" x1="46.115020751953125" y1="129.21500611305237" x2="85.95502090454102" y2="129.21500611305237"></line></g></g><g></g><g><g><g transform="matrix(1,0,0,1,2,183.6699981689453)"><path transform="matrix(0.017,0,0,-0.017,0,0)" d="M316 -3C388 -3 437 8 489 34C645 114 741 265 741 431C741 529 711 599 650 642C604 675 519 693 424 692L220 689L210 689C201 689 198 689 97 692L94 664L147 662C171 661 182 653 182 635C182 621 178 589 173 559L86 55C81 31 56 29 33 23L28 -3L121 0L176 0C211 0 282 -3 316 -3ZM384 655C566 655 649 579 649 415C649 225 549 41 329 41C285 41 236 46 168 56C168 68 169 75 172 93L268 650C291 650 349 655 384 655ZM1105 111L1081 94C1028 56 980 36 944 36C897 36 868 73 868 133C868 158 871 185 876 214C893 218 1002 248 1027 259C1112 296 1151 342 1151 404C1151 451 1117 482 1067 482C999 496 889 423 852 349C822 299 792 180 792 113C792 35 836 -11 908 -11C965 -11 1021 17 1113 92ZM890 274C907 343 927 386 956 412C974 428 1005 440 1029 440C1058 440 1077 420 1077 388C1077 344 1042 297 990 272C962 258 926 247 881 237ZM1507 330L1530 330C1538 395 1545 432 1554 458C1530 473 1495 482 1458 482C1413 483 1340 463 1283 400C1229 352 1190 241 1190 136C1190 40 1232 -11 1312 -11C1366 -11 1414 9 1469 54L1519 95L1511 115L1496 105C1424 57 1386 40 1351 40C1295 40 1266 80 1266 159C1266 267 1301 371 1350 409C1371 425 1395 433 1426 433C1471 433 1507 414 1507 390ZM1605 388L1612 368L1644 389C1681 412 1684 414 1691 414C1701 414 1709 404 1709 391C1709 384 1705 361 1701 347L1635 107C1627 76 1622 49 1622 30C1622 6 1633 -9 1652 -9C1678 -9 1714 12 1812 85L1802 103L1776 86C1747 67 1724 56 1715 56C1708 56 1702 66 1702 76C1702 86 1704 95 1709 116L1786 420C1790 437 1792 448 1792 456C1792 473 1783 482 1767 482C1745 482 1708 461 1633 408ZM1799 712C1770 712 1741 679 1741 645C1741 620 1756 604 1780 604C1811 604 1835 633 1835 671C1835 695 1820 712 1799 712ZM2099 722L2087 733C2035 707 1999 698 1927 691L1923 670L1971 670C1995 670 2005 663 2005 648C2005 645 2005 640 2002 622C1991 567 1918 182 1903 132C1890 82 1884 52 1884 31C1884 6 1895 -9 1914 -9C1940 -9 1976 12 2074 85L2064 103L2038 86C2009 67 1987 56 1977 56C1970 56 1964 66 1964 76C1964 82 1965 89 1968 104Z" stroke="rgb(0,0,0)" stroke-opacity="1" stroke-width="8" fill="rgb(0,0,0)" fill-opacity="1"></path></g></g></g><g><g><g transform="matrix(1,0,0,1,2,215.99501037597656)"><path transform="matrix(0.017,0,0,-0.017,0,0)" d="M316 -3C388 -3 437 8 489 34C645 114 741 265 741 431C741 529 711 599 650 642C604 675 519 693 424 692L220 689L210 689C201 689 198 689 97 692L94 664L147 662C171 661 182 653 182 635C182 621 178 589 173 559L86 55C81 31 56 29 33 23L28 -3L121 0L176 0C211 0 282 -3 316 -3ZM384 655C566 655 649 579 649 415C649 225 549 41 329 41C285 41 236 46 168 56C168 68 169 75 172 93L268 650C291 650 349 655 384 655Z" stroke="rgb(0,0,0)" stroke-opacity="1" stroke-width="8" fill="rgb(0,0,0)" fill-opacity="1"></path></g></g><g><g><g><g><g transform="matrix(1,0,0,1,15.725006103515625,219.95500793457032)"><path transform="matrix(0.0119,0,0,-0.0119,0,0)" d="M34 388L41 368L73 389C110 412 113 414 120 414C130 414 138 404 138 391C138 384 134 361 130 347L64 107C56 76 51 49 51 30C51 6 62 -9 81 -9C107 -9 143 12 241 85L231 103L205 86C176 67 153 56 144 56C137 56 131 66 131 76C131 86 133 95 138 116L215 420C219 437 221 448 221 456C221 473 212 482 196 482C174 482 137 461 62 408ZM228 712C199 712 170 679 170 645C170 620 185 604 209 604C240 604 264 633 264 671C264 695 249 712 228 712Z" stroke="rgb(0,0,0)" stroke-opacity="1" stroke-width="8" fill="rgb(0,0,0)" fill-opacity="1"></path></g></g></g></g></g><g><g transform="matrix(1,0,0,1,25.14501953125,215.99501037597656)"><path transform="matrix(0.017,0,0,-0.017,0,0)" d="M604 347L604 406L65 406L65 347ZM604 134L604 193L65 193L65 134Z" stroke="rgb(0,0,0)" stroke-opacity="1" stroke-width="8" fill="rgb(0,0,0)" fill-opacity="1"></path></g></g><g><g transform="matrix(1,0,0,1,41.600006103515625,215.99501037597656)"><path transform="matrix(0.017,0,0,-0.017,0,0)" d="M34 388L41 368L73 389C110 412 113 414 120 414C130 414 138 404 138 391C138 384 134 361 130 347L64 107C56 76 51 49 51 30C51 6 62 -9 81 -9C107 -9 143 12 241 85L231 103L205 86C176 67 153 56 144 56C137 56 131 66 131 76C131 86 133 95 138 116L215 420C219 437 221 448 221 456C221 473 212 482 196 482C174 482 137 461 62 408ZM228 712C199 712 170 679 170 645C170 620 185 604 209 604C240 604 264 633 264 671C264 695 249 712 228 712Z" stroke="rgb(0,0,0)" stroke-opacity="1" stroke-width="8" fill="rgb(0,0,0)" fill-opacity="1"></path></g></g><g><g><g><g><g transform="matrix(1,0,0,1,48.0050048828125,203.8300018310547)"><path transform="matrix(0.017,0,0,-0.017,0,0)" d="M582 103L237 692L75 692L70 664L105 662C150 660 184 615 185 606L92 102C80 40 74 32 38 28L7 25L2 -3L113 0C125 0 126 0 223 -3L228 25L186 28C146 31 137 39 137 72C137 80 138 91 140 102L220 566L558 -11L608 -11L702 542C723 655 725 659 762 662L799 664L802 691L589 692L584 664L631 662C657 661 667 654 667 638C667 631 584 116 582 103Z" stroke="rgb(0,0,0)" stroke-opacity="1" stroke-width="8" fill="rgb(0,0,0)" fill-opacity="1"></path></g></g><g><g transform="matrix(1,0,0,1,64.61001586914062,203.8300018310547)"><path transform="matrix(0.017,0,0,-0.017,0,0)" d="M604 241L604 300L364 300L364 538L305 538L305 300L65 300L65 241L305 241L305 0L364 0L364 241Z" stroke="rgb(0,0,0)" stroke-opacity="1" stroke-width="8" fill="rgb(0,0,0)" fill-opacity="1"></path></g></g><g><g transform="matrix(1,0,0,1,79.35501098632812,203.8300018310547)"><path transform="matrix(0.017,0,0,-0.017,0,0)" d="M418 -3L418 27L366 30C311 33 301 44 301 96L301 700L60 598L67 548L217 614L217 96C217 44 206 33 152 30L96 27L96 -3C250 0 250 0 261 0C292 0 402 -3 418 -3Z" stroke="rgb(0,0,0)" stroke-opacity="1" stroke-width="8" fill="rgb(0,0,0)" fill-opacity="1"></path></g></g></g></g><g><g><g><g transform="matrix(1,0,0,1,59.435028076171875,229.1649932861328)"><path transform="matrix(0.017,0,0,-0.017,0,0)" d="M418 -3L418 27L366 30C311 33 301 44 301 96L301 700L60 598L67 548L217 614L217 96C217 44 206 33 152 30L96 27L96 -3C250 0 250 0 261 0C292 0 402 -3 418 -3ZM762 689C607 689 528 566 528 324C528 207 549 106 584 57C619 8 675 -20 737 -20C888 -20 964 110 964 366C964 585 899 689 762 689ZM744 654C841 654 880 556 880 316C880 103 842 15 750 15C653 15 612 116 612 360C612 571 649 654 744 654Z" stroke="rgb(0,0,0)" stroke-opacity="1" stroke-width="8" fill="rgb(0,0,0)" fill-opacity="1"></path></g></g></g></g><line style="fill:none;stroke-width:0.99px;stroke:rgb(0, 0, 0);" x1="48.0050048828125" y1="212.02999329566956" x2="87.84500503540039" y2="212.02999329566956"></line></g></g><g></g><g><g><g transform="matrix(1,0,0,1,2,266.48500061035156)"><path transform="matrix(0.017,0,0,-0.017,0,0)" d="M105 664L160 662C184 661 195 653 195 635L112 125C95 34 94 31 54 28L13 25L9 -3L51 -2C92 -1 123 0 141 0C158 0 187 -1 227 -2L280 -3L283 25L218 28C192 29 182 37 182 58C182 67 183 74 186 93L284 648C320 654 336 656 355 656C457 656 506 612 506 519C506 411 434 323 346 323C324 323 304 328 267 342L269 311C306 293 326 288 355 288C484 288 594 405 594 541C594 642 531 695 412 692L108 692ZM938 111L914 94C861 56 813 36 777 36C730 36 701 73 701 133C701 158 704 185 709 214C726 218 835 248 860 259C945 296 984 342 984 404C984 451 950 482 900 482C832 496 722 423 685 349C655 299 625 180 625 113C625 35 669 -11 741 -11C798 -11 854 17 946 92ZM723 274C740 343 760 386 789 412C807 428 838 440 862 440C891 440 910 420 910 388C910 344 875 297 823 272C795 258 759 247 714 237ZM1366 365C1369 403 1374 435 1382 476C1371 481 1367 482 1362 482C1331 482 1300 458 1264 407C1225 351 1186 291 1170 256L1202 408C1206 425 1208 438 1208 450C1208 470 1200 482 1185 482C1164 482 1126 461 1052 408L1024 388L1031 368L1063 389C1091 407 1102 412 1111 412C1121 412 1128 403 1128 390C1128 332 1085 126 1045 -2L1055 -9C1070 -4 1086 -1 1109 4L1122 6L1148 126C1166 209 1189 262 1233 319C1267 363 1294 384 1316 384C1331 384 1341 379 1352 365ZM1728 330L1751 330C1759 395 1766 432 1775 458C1751 473 1716 482 1679 482C1634 483 1561 463 1504 400C1450 352 1411 241 1411 136C1411 40 1453 -11 1533 -11C1587 -11 1635 9 1690 54L1740 95L1732 115L1717 105C1645 57 1607 40 1572 40C1516 40 1487 80 1487 159C1487 267 1522 371 1571 409C1592 425 1616 433 1647 433C1692 433 1728 414 1728 390ZM2120 111L2096 94C2043 56 1995 36 1959 36C1912 36 1883 73 1883 133C1883 158 1886 185 1891 214C1908 218 2017 248 2042 259C2127 296 2166 342 2166 404C2166 451 2132 482 2082 482C2014 496 1904 423 1867 349C1837 299 1807 180 1807 113C1807 35 1851 -11 1923 -11C1980 -11 2036 17 2128 92ZM1905 274C1922 343 1942 386 1971 412C1989 428 2020 440 2044 440C2073 440 2092 420 2092 388C2092 344 2057 297 2005 272C1977 258 1941 247 1896 237ZM2204 388L2211 368L2243 389C2280 412 2283 414 2290 414C2301 414 2308 404 2308 389C2308 338 2267 145 2226 2L2233 -9C2258 -2 2281 4 2303 8C2322 134 2343 199 2389 268C2443 352 2518 414 2563 414C2574 414 2580 405 2580 390C2580 372 2577 351 2569 319L2517 107C2508 70 2504 47 2504 31C2504 6 2515 -9 2534 -9C2560 -9 2596 12 2694 85L2684 103L2658 86C2629 67 2607 56 2597 56C2590 56 2584 65 2584 76C2584 81 2585 92 2586 96L2652 372C2659 401 2663 429 2663 446C2663 469 2652 482 2632 482C2590 482 2521 444 2462 389C2424 354 2396 320 2344 247L2382 408C2386 426 2388 438 2388 449C2388 470 2380 482 2365 482C2344 482 2305 460 2232 408ZM2860 390L2804 107C2803 99 2791 61 2791 31C2791 6 2802 -9 2821 -9C2856 -9 2891 11 2969 74L3000 99L2990 117L2945 86C2916 66 2896 56 2885 56C2876 56 2871 64 2871 76C2871 102 2885 183 2914 328L2927 390L3034 390L3045 440C3007 436 2973 434 2935 434C2951 528 2962 577 2980 631L2969 646C2949 634 2922 622 2891 610L2866 440C2822 419 2796 408 2778 403L2776 390ZM3101 388L3108 368L3140 389C3177 412 3180 414 3187 414C3197 414 3205 404 3205 391C3205 384 3201 361 3197 347L3131 107C3123 76 3118 49 3118 30C3118 6 3129 -9 3148 -9C3174 -9 3210 12 3308 85L3298 103L3272 86C3243 67 3220 56 3211 56C3204 56 3198 66 3198 76C3198 86 3200 95 3205 116L3282 420C3286 437 3288 448 3288 456C3288 473 3279 482 3263 482C3241 482 3204 461 3129 408ZM3295 712C3266 712 3237 679 3237 645C3237 620 3252 604 3276 604C3307 604 3331 633 3331 671C3331 695 3316 712 3295 712ZM3595 722L3583 733C3531 707 3495 698 3423 691L3419 670L3467 670C3491 670 3501 663 3501 648C3501 645 3501 640 3498 622C3487 567 3414 182 3399 132C3386 82 3380 52 3380 31C3380 6 3391 -9 3410 -9C3436 -9 3472 12 3570 85L3560 103L3534 86C3505 67 3483 56 3473 56C3466 56 3460 66 3460 76C3460 82 3461 89 3464 104Z" stroke="rgb(0,0,0)" stroke-opacity="1" stroke-width="8" fill="rgb(0,0,0)" fill-opacity="1"></path></g></g></g><g><g><g transform="matrix(1,0,0,1,2,298.8100128173828)"><path transform="matrix(0.017,0,0,-0.017,0,0)" d="M105 664L160 662C184 661 195 653 195 635L112 125C95 34 94 31 54 28L13 25L9 -3L51 -2C92 -1 123 0 141 0C158 0 187 -1 227 -2L280 -3L283 25L218 28C192 29 182 37 182 58C182 67 183 74 186 93L284 648C320 654 336 656 355 656C457 656 506 612 506 519C506 411 434 323 346 323C324 323 304 328 267 342L269 311C306 293 326 288 355 288C484 288 594 405 594 541C594 642 531 695 412 692L108 692Z" stroke="rgb(0,0,0)" stroke-opacity="1" stroke-width="8" fill="rgb(0,0,0)" fill-opacity="1"></path></g></g><g><g><g><g><g transform="matrix(1,0,0,1,12.8900146484375,302.77001037597654)"><path transform="matrix(0.0119,0,0,-0.0119,0,0)" d="M34 388L41 368L73 389C110 412 113 414 120 414C130 414 138 404 138 391C138 384 134 361 130 347L64 107C56 76 51 49 51 30C51 6 62 -9 81 -9C107 -9 143 12 241 85L231 103L205 86C176 67 153 56 144 56C137 56 131 66 131 76C131 86 133 95 138 116L215 420C219 437 221 448 221 456C221 473 212 482 196 482C174 482 137 461 62 408ZM228 712C199 712 170 679 170 645C170 620 185 604 209 604C240 604 264 633 264 671C264 695 249 712 228 712Z" stroke="rgb(0,0,0)" stroke-opacity="1" stroke-width="8" fill="rgb(0,0,0)" fill-opacity="1"></path></g></g></g></g></g><g><g transform="matrix(1,0,0,1,22.310028076171875,298.8100128173828)"><path transform="matrix(0.017,0,0,-0.017,0,0)" d="M604 347L604 406L65 406L65 347ZM604 134L604 193L65 193L65 134Z" stroke="rgb(0,0,0)" stroke-opacity="1" stroke-width="8" fill="rgb(0,0,0)" fill-opacity="1"></path></g></g><g><g transform="matrix(1,0,0,1,38.7650146484375,298.8100128173828)"><path transform="matrix(0.017,0,0,-0.017,0,0)" d="M34 388L41 368L73 389C110 412 113 414 120 414C130 414 138 404 138 391C138 384 134 361 130 347L64 107C56 76 51 49 51 30C51 6 62 -9 81 -9C107 -9 143 12 241 85L231 103L205 86C176 67 153 56 144 56C137 56 131 66 131 76C131 86 133 95 138 116L215 420C219 437 221 448 221 456C221 473 212 482 196 482C174 482 137 461 62 408ZM228 712C199 712 170 679 170 645C170 620 185 604 209 604C240 604 264 633 264 671C264 695 249 712 228 712Z" stroke="rgb(0,0,0)" stroke-opacity="1" stroke-width="8" fill="rgb(0,0,0)" fill-opacity="1"></path></g></g><g><g><g><g><g transform="matrix(1,0,0,1,45.170013427734375,286.64500427246094)"><path transform="matrix(0.017,0,0,-0.017,0,0)" d="M582 103L237 692L75 692L70 664L105 662C150 660 184 615 185 606L92 102C80 40 74 32 38 28L7 25L2 -3L113 0C125 0 126 0 223 -3L228 25L186 28C146 31 137 39 137 72C137 80 138 91 140 102L220 566L558 -11L608 -11L702 542C723 655 725 659 762 662L799 664L802 691L589 692L584 664L631 662C657 661 667 654 667 638C667 631 584 116 582 103Z" stroke="rgb(0,0,0)" stroke-opacity="1" stroke-width="8" fill="rgb(0,0,0)" fill-opacity="1"></path></g></g><g><g transform="matrix(1,0,0,1,61.774993896484375,286.64500427246094)"><path transform="matrix(0.017,0,0,-0.017,0,0)" d="M604 241L604 300L364 300L364 538L305 538L305 300L65 300L65 241L305 241L305 0L364 0L364 241Z" stroke="rgb(0,0,0)" stroke-opacity="1" stroke-width="8" fill="rgb(0,0,0)" fill-opacity="1"></path></g></g><g><g transform="matrix(1,0,0,1,76.51998901367188,286.64500427246094)"><path transform="matrix(0.017,0,0,-0.017,0,0)" d="M418 -3L418 27L366 30C311 33 301 44 301 96L301 700L60 598L67 548L217 614L217 96C217 44 206 33 152 30L96 27L96 -3C250 0 250 0 261 0C292 0 402 -3 418 -3Z" stroke="rgb(0,0,0)" stroke-opacity="1" stroke-width="8" fill="rgb(0,0,0)" fill-opacity="1"></path></g></g></g></g><g><g><g><g transform="matrix(1,0,0,1,52.370025634765625,311.97999572753906)"><path transform="matrix(0.017,0,0,-0.017,0,0)" d="M418 -3L418 27L366 30C311 33 301 44 301 96L301 700L60 598L67 548L217 614L217 96C217 44 206 33 152 30L96 27L96 -3C250 0 250 0 261 0C292 0 402 -3 418 -3ZM762 689C607 689 528 566 528 324C528 207 549 106 584 57C619 8 675 -20 737 -20C888 -20 964 110 964 366C964 585 899 689 762 689ZM744 654C841 654 880 556 880 316C880 103 842 15 750 15C653 15 612 116 612 360C612 571 649 654 744 654ZM1261 689C1106 689 1027 566 1027 324C1027 207 1048 106 1083 57C1118 8 1174 -20 1236 -20C1387 -20 1463 110 1463 366C1463 585 1398 689 1261 689ZM1243 654C1340 654 1379 556 1379 316C1379 103 1341 15 1249 15C1152 15 1111 116 1111 360C1111 571 1148 654 1243 654Z" stroke="rgb(0,0,0)" stroke-opacity="1" stroke-width="8" fill="rgb(0,0,0)" fill-opacity="1"></path></g></g></g></g><line style="fill:none;stroke-width:0.99px;stroke:rgb(0, 0, 0);" x1="45.170013427734375" y1="294.8449957370758" x2="85.01001358032227" y2="294.8449957370758"></line></g></g></g></svg>