<svg xmlns="http://www.w3.org/2000/svg" xmlns:xlink="http://www.w3.org/1999/xlink" width="225.010009765625" height="321.20501708984375" style="width:225.010009765625px;height:321.20501708984375px;font-family:Asana-Math, Asana;background:#FFF;"><g><g><g><g transform="matrix(1,0,0,1,2,18.039993286132812)"><path transform="matrix(0.017,0,0,-0.017,0,0)" d="M434 653C511 653 565 639 621 603L621 519L648 519C653 576 661 619 675 665C592 695 535 706 466 706C374 706 301 683 229 632C112 548 50 424 50 274C50 87 159 -18 355 -18C412 -21 559 6 608 37C628 193 632 216 633 219C635 228 647 238 660 240L692 246L694 274C655 270 620 269 569 269C518 269 482 270 440 274L435 246L469 244C544 240 553 236 553 212C553 197 533 84 528 60C483 36 444 27 390 27C224 27 138 120 138 297C138 443 197 653 434 653ZM1049 111L1025 94C972 56 924 36 888 36C841 36 812 73 812 133C812 158 815 185 820 214C837 218 946 248 971 259C1056 296 1095 342 1095 404C1095 451 1061 482 1011 482C943 496 833 423 796 349C766 299 736 180 736 113C736 35 780 -11 852 -11C909 -11 965 17 1057 92ZM834 274C851 343 871 386 900 412C918 428 949 440 973 440C1002 440 1021 420 1021 388C1021 344 986 297 934 272C906 258 870 247 825 237ZM1133 388L1140 368L1172 389C1209 412 1212 414 1219 414C1230 414 1237 404 1237 389C1237 338 1196 145 1155 2L1162 -9C1187 -2 1210 4 1232 8C1251 134 1272 199 1318 268C1372 352 1447 414 1492 414C1503 414 1509 405 1509 390C1509 372 1506 351 1498 319L1446 107C1437 70 1433 47 1433 31C1433 6 1444 -9 1463 -9C1489 -9 1525 12 1623 85L1613 103L1587 86C1558 67 1536 56 1526 56C1519 56 1513 65 1513 76C1513 81 1514 92 1515 96L1581 372C1588 401 1592 429 1592 446C1592 469 1581 482 1561 482C1519 482 1450 444 1391 389C1353 354 1325 320 1273 247L1311 408C1315 426 1317 438 1317 449C1317 470 1309 482 1294 482C1273 482 1234 460 1161 408ZM1992 111L1968 94C1915 56 1867 36 1831 36C1784 36 1755 73 1755 133C1755 158 1758 185 1763 214C1780 218 1889 248 1914 259C1999 296 2038 342 2038 404C2038 451 2004 482 1954 482C1886 496 1776 423 1739 349C1709 299 1679 180 1679 113C1679 35 1723 -11 1795 -11C1852 -11 1908 17 2000 92ZM1777 274C1794 343 1814 386 1843 412C1861 428 1892 440 1916 440C1945 440 1964 420 1964 388C1964 344 1929 297 1877 272C1849 258 1813 247 1768 237ZM2420 365C2423 403 2428 435 2436 476C2425 481 2421 482 2416 482C2385 482 2354 458 2318 407C2279 351 2240 291 2224 256L2256 408C2260 425 2262 438 2262 450C2262 470 2254 482 2239 482C2218 482 2180 461 2106 408L2078 388L2085 368L2117 389C2145 407 2156 412 2165 412C2175 412 2182 403 2182 390C2182 332 2139 126 2099 -2L2109 -9C2124 -4 2140 -1 2163 4L2176 6L2202 126C2220 209 2243 262 2287 319C2321 363 2348 384 2370 384C2385 384 2395 379 2406 365ZM2711 204L2682 77C2678 60 2676 42 2676 26C2676 4 2685 -9 2700 -9C2723 -9 2764 17 2846 85L2839 106C2815 86 2786 59 2764 59C2755 59 2749 68 2749 82C2749 87 2749 90 2750 93L2842 472L2832 481L2799 463C2758 478 2741 482 2714 482C2686 482 2666 477 2639 464C2577 433 2544 403 2519 354C2475 265 2444 145 2444 67C2444 23 2459 -11 2478 -11C2515 -11 2595 41 2711 204ZM2759 414C2737 305 2718 253 2684 201C2627 117 2566 59 2534 59C2522 59 2516 72 2516 99C2516 163 2544 280 2579 360C2603 415 2626 433 2674 433C2697 433 2715 429 2759 414ZM3134 722L3122 733C3070 707 3034 698 2962 691L2958 670L3006 670C3030 670 3040 663 3040 648C3040 645 3040 640 3037 622C3026 567 2953 182 2938 132C2925 82 2919 52 2919 31C2919 6 2930 -9 2949 -9C2975 -9 3011 12 3109 85L3099 103L3073 86C3044 67 3022 56 3012 56C3005 56 2999 66 2999 76C2999 82 3000 89 3003 104Z" stroke="rgb(0,0,0)" stroke-opacity="1" stroke-width="8" fill="rgb(0,0,0)" fill-opacity="1"></path></g></g></g><g><g><g><g><g><g transform="matrix(1,0,0,1,2.839996337890625,51.7449951171875)"><path transform="matrix(0.017,0,0,-0.017,0,0)" d="M9 1C24 -7 40 -11 52 -11C85 -11 124 18 155 65L231 182L242 113C255 28 278 -11 314 -11C336 -11 368 6 400 35L449 79L440 98C404 68 379 53 363 53C348 53 335 63 325 83C316 102 305 139 300 168L282 269L317 318C364 383 391 406 422 406C438 406 450 398 455 383L469 387L484 472C472 479 463 482 454 482C414 482 374 446 312 354L275 299L269 347C257 446 230 482 171 482C145 482 123 474 114 461L56 378L73 368C103 402 123 416 142 416C175 416 197 375 214 277L225 215L185 153C142 86 108 54 80 54C65 54 54 58 52 63L41 91L21 88C21 53 13 27 9 1Z" stroke="rgb(0,0,0)" stroke-opacity="1" stroke-width="8" fill="rgb(0,0,0)" fill-opacity="1"></path></g></g></g></g><svg xmlns="http://www.w3.org/2000/svg" x="2.839996337890625" y="37.69999694824219" height="6" width="8.49000072479248"><defs><clipPath id="ccp0.7906076897535061"><rect x="-0.5" y="-0.5" width="8.99000072479248" height="6.5"></rect></clipPath></defs><g clip-path="url(#ccp0.7906076897535061)"><svg xmlns="http://www.w3.org/2000/svg" x="0" y="0" height="20.15999984741211" width="16.9950008392334"><defs><clipPath id="ccp0.06695012267655764"><rect x="-0.5" y="-0.5" width="17.4950008392334" height="20.65999984741211"></rect></clipPath></defs><g clip-path="url(#ccp0.06695012267655764)"><g><g transform="matrix(1,0,0,1,0,17)"><path transform="matrix(0.017,0,0,-0.017,0,0)" d="M-877 790L1877 790L1877 850L-877 850Z" stroke="rgb(0,0,0)" stroke-opacity="1" stroke-width="8" fill="rgb(0,0,0)" fill-opacity="1"></path></g></g></g></svg></g></svg></g><g><g transform="matrix(1,0,0,1,17.269989013671875,51.7449951171875)"><path transform="matrix(0.017,0,0,-0.017,0,0)" d="M604 347L604 406L65 406L65 347ZM604 134L604 193L65 193L65 134Z" stroke="rgb(0,0,0)" stroke-opacity="1" stroke-width="8" fill="rgb(0,0,0)" fill-opacity="1"></path></g></g><g><g><g><g><g transform="matrix(1,0,0,1,35.41998291015625,38.19999694824219)"><path transform="matrix(0.017,0,0,-0.017,0,0)" d="M9 1C24 -7 40 -11 52 -11C85 -11 124 18 155 65L231 182L242 113C255 28 278 -11 314 -11C336 -11 368 6 400 35L449 79L440 98C404 68 379 53 363 53C348 53 335 63 325 83C316 102 305 139 300 168L282 269L317 318C364 383 391 406 422 406C438 406 450 398 455 383L469 387L484 472C472 479 463 482 454 482C414 482 374 446 312 354L275 299L269 347C257 446 230 482 171 482C145 482 123 474 114 461L56 378L73 368C103 402 123 416 142 416C175 416 197 375 214 277L225 215L185 153C142 86 108 54 80 54C65 54 54 58 52 63L41 91L21 88C21 53 13 27 9 1Z" stroke="rgb(0,0,0)" stroke-opacity="1" stroke-width="8" fill="rgb(0,0,0)" fill-opacity="1"></path></g></g><g><g><g><g><g transform="matrix(1,0,0,1,44.41998291015625,42.159994506835936)"><path transform="matrix(0.0119,0,0,-0.0119,0,0)" d="M418 -3L418 27L366 30C311 33 301 44 301 96L301 700L60 598L67 548L217 614L217 96C217 44 206 33 152 30L96 27L96 -3C250 0 250 0 261 0C292 0 402 -3 418 -3Z" stroke="rgb(0,0,0)" stroke-opacity="1" stroke-width="8" fill="rgb(0,0,0)" fill-opacity="1"></path></g></g></g></g></g><g><g transform="matrix(1,0,0,1,54.769989013671875,38.19999694824219)"><path transform="matrix(0.017,0,0,-0.017,0,0)" d="M604 241L604 300L364 300L364 538L305 538L305 300L65 300L65 241L305 241L305 0L364 0L364 241Z" stroke="rgb(0,0,0)" stroke-opacity="1" stroke-width="8" fill="rgb(0,0,0)" fill-opacity="1"></path></g></g><g><g transform="matrix(1,0,0,1,69.51498413085938,38.19999694824219)"><path transform="matrix(0.017,0,0,-0.017,0,0)" d="M9 1C24 -7 40 -11 52 -11C85 -11 124 18 155 65L231 182L242 113C255 28 278 -11 314 -11C336 -11 368 6 400 35L449 79L440 98C404 68 379 53 363 53C348 53 335 63 325 83C316 102 305 139 300 168L282 269L317 318C364 383 391 406 422 406C438 406 450 398 455 383L469 387L484 472C472 479 463 482 454 482C414 482 374 446 312 354L275 299L269 347C257 446 230 482 171 482C145 482 123 474 114 461L56 378L73 368C103 402 123 416 142 416C175 416 197 375 214 277L225 215L185 153C142 86 108 54 80 54C65 54 54 58 52 63L41 91L21 88C21 53 13 27 9 1Z" stroke="rgb(0,0,0)" stroke-opacity="1" stroke-width="8" fill="rgb(0,0,0)" fill-opacity="1"></path></g></g><g><g><g><g><g transform="matrix(1,0,0,1,78.51498413085938,42.159994506835936)"><path transform="matrix(0.0119,0,0,-0.0119,0,0)" d="M16 23L16 -3C203 -3 203 0 239 0C275 0 275 -3 468 -3L468 82C353 77 307 81 122 77L304 270C401 373 431 428 431 503C431 618 353 689 226 689C154 689 105 669 56 619L39 483L68 483L81 529C97 587 133 612 200 612C286 612 341 558 341 473C341 398 299 324 186 204Z" stroke="rgb(0,0,0)" stroke-opacity="1" stroke-width="8" fill="rgb(0,0,0)" fill-opacity="1"></path></g></g></g></g></g><g><g transform="matrix(1,0,0,1,88.864990234375,38.19999694824219)"><path transform="matrix(0.017,0,0,-0.017,0,0)" d="M604 241L604 300L364 300L364 538L305 538L305 300L65 300L65 241L305 241L305 0L364 0L364 241Z" stroke="rgb(0,0,0)" stroke-opacity="1" stroke-width="8" fill="rgb(0,0,0)" fill-opacity="1"></path></g></g><g><g transform="matrix(1,0,0,1,103.6099853515625,38.19999694824219)"><path transform="matrix(0.017,0,0,-0.017,0,0)" d="M124 111C94 111 67 83 67 53C67 23 94 -5 123 -5C155 -5 183 22 183 53C183 83 155 111 124 111ZM373 111C343 111 316 83 316 53C316 23 343 -5 372 -5C404 -5 432 22 432 53C432 83 404 111 373 111ZM622 111C592 111 565 83 565 53C565 23 592 -5 621 -5C653 -5 681 22 681 53C681 83 653 111 622 111Z" stroke="rgb(0,0,0)" stroke-opacity="1" stroke-width="8" fill="rgb(0,0,0)" fill-opacity="1"></path></g></g><g><g transform="matrix(1,0,0,1,123.09500122070312,38.19999694824219)"><path transform="matrix(0.017,0,0,-0.017,0,0)" d="M604 241L604 300L364 300L364 538L305 538L305 300L65 300L65 241L305 241L305 0L364 0L364 241Z" stroke="rgb(0,0,0)" stroke-opacity="1" stroke-width="8" fill="rgb(0,0,0)" fill-opacity="1"></path></g></g><g><g transform="matrix(1,0,0,1,137.83999633789062,38.19999694824219)"><path transform="matrix(0.017,0,0,-0.017,0,0)" d="M9 1C24 -7 40 -11 52 -11C85 -11 124 18 155 65L231 182L242 113C255 28 278 -11 314 -11C336 -11 368 6 400 35L449 79L440 98C404 68 379 53 363 53C348 53 335 63 325 83C316 102 305 139 300 168L282 269L317 318C364 383 391 406 422 406C438 406 450 398 455 383L469 387L484 472C472 479 463 482 454 482C414 482 374 446 312 354L275 299L269 347C257 446 230 482 171 482C145 482 123 474 114 461L56 378L73 368C103 402 123 416 142 416C175 416 197 375 214 277L225 215L185 153C142 86 108 54 80 54C65 54 54 58 52 63L41 91L21 88C21 53 13 27 9 1Z" stroke="rgb(0,0,0)" stroke-opacity="1" stroke-width="8" fill="rgb(0,0,0)" fill-opacity="1"></path></g></g><g><g><g><g><g transform="matrix(1,0,0,1,146.83999633789062,42.159994506835936)"><path transform="matrix(0.0119,0,0,-0.0119,0,0)" d="M24 388L31 368L63 389C100 412 103 414 110 414C121 414 128 404 128 389C128 338 87 145 46 2L53 -9C78 -2 101 4 123 8C142 134 163 199 209 268C263 352 338 414 383 414C394 414 400 405 400 390C400 372 397 351 389 319L337 107C328 70 324 47 324 31C324 6 335 -9 354 -9C380 -9 416 12 514 85L504 103L478 86C449 67 427 56 417 56C410 56 404 65 404 76C404 81 405 92 406 96L472 372C479 401 483 429 483 446C483 469 472 482 452 482C410 482 341 444 282 389C244 354 216 320 164 247L202 408C206 426 208 438 208 449C208 470 200 482 185 482C164 482 125 460 52 408Z" stroke="rgb(0,0,0)" stroke-opacity="1" stroke-width="8" fill="rgb(0,0,0)" fill-opacity="1"></path></g></g></g></g></g></g></g><g><g><g><g transform="matrix(1,0,0,1,90.23001098632812,64.91499328613281)"><path transform="matrix(0.017,0,0,-0.017,0,0)" d="M24 388L31 368L63 389C100 412 103 414 110 414C121 414 128 404 128 389C128 338 87 145 46 2L53 -9C78 -2 101 4 123 8C142 134 163 199 209 268C263 352 338 414 383 414C394 414 400 405 400 390C400 372 397 351 389 319L337 107C328 70 324 47 324 31C324 6 335 -9 354 -9C380 -9 416 12 514 85L504 103L478 86C449 67 427 56 417 56C410 56 404 65 404 76C404 81 405 92 406 96L472 372C479 401 483 429 483 446C483 469 472 482 452 482C410 482 341 444 282 389C244 354 216 320 164 247L202 408C206 426 208 438 208 449C208 470 200 482 185 482C164 482 125 460 52 408Z" stroke="rgb(0,0,0)" stroke-opacity="1" stroke-width="8" fill="rgb(0,0,0)" fill-opacity="1"></path></g></g></g></g><line style="fill:none;stroke-width:0.99px;stroke:rgb(0, 0, 0);" x1="35.41998291015625" y1="47.779993295669556" x2="154.47499084472656" y2="47.779993295669556"></line></g></g><g><g><g transform="matrix(1,0,0,1,2,82.07499694824219)"><path transform="matrix(0.017,0,0,-0.017,0,0)" d="M9 1C24 -7 40 -11 52 -11C85 -11 124 18 155 65L231 182L242 113C255 28 278 -11 314 -11C336 -11 368 6 400 35L449 79L440 98C404 68 379 53 363 53C348 53 335 63 325 83C316 102 305 139 300 168L282 269L317 318C364 383 391 406 422 406C438 406 450 398 455 383L469 387L484 472C472 479 463 482 454 482C414 482 374 446 312 354L275 299L269 347C257 446 230 482 171 482C145 482 123 474 114 461L56 378L73 368C103 402 123 416 142 416C175 416 197 375 214 277L225 215L185 153C142 86 108 54 80 54C65 54 54 58 52 63L41 91L21 88C21 53 13 27 9 1Z" stroke="rgb(0,0,0)" stroke-opacity="1" stroke-width="8" fill="rgb(0,0,0)" fill-opacity="1"></path></g></g><g><g><g><g><g transform="matrix(1,0,0,1,11,86.03499450683594)"><path transform="matrix(0.0119,0,0,-0.0119,0,0)" d="M24 388L31 368L63 389C100 412 103 414 110 414C121 414 128 404 128 389C128 338 87 145 46 2L53 -9C78 -2 101 4 123 8C142 134 163 199 209 268C263 352 338 414 383 414C394 414 400 405 400 390C400 372 397 351 389 319L337 107C328 70 324 47 324 31C324 6 335 -9 354 -9C380 -9 416 12 514 85L504 103L478 86C449 67 427 56 417 56C410 56 404 65 404 76C404 81 405 92 406 96L472 372C479 401 483 429 483 446C483 469 472 482 452 482C410 482 341 444 282 389C244 354 216 320 164 247L202 408C206 426 208 438 208 449C208 470 200 482 185 482C164 482 125 460 52 408Z" stroke="rgb(0,0,0)" stroke-opacity="1" stroke-width="8" fill="rgb(0,0,0)" fill-opacity="1"></path></g></g></g></g></g><g><g transform="matrix(1,0,0,1,22.024993896484375,82.07499694824219)"><path transform="matrix(0.017,0,0,-0.017,0,0)" d="M123 111C93 111 66 83 66 53C66 23 93 -5 122 -5C154 -5 182 22 182 53C182 83 154 111 123 111ZM123 456C93 456 66 428 66 398C66 368 93 340 122 340C154 340 182 367 182 397C182 428 154 456 123 456Z" stroke="rgb(0,0,0)" stroke-opacity="1" stroke-width="8" fill="rgb(0,0,0)" fill-opacity="1"></path></g></g><g><g transform="matrix(1,0,0,1,29.660003662109375,82.07499694824219)"><path transform="matrix(0.017,0,0,-0.017,0,0)" d="M483 722L471 733C419 707 383 698 311 691L307 670L355 670C379 670 389 663 389 646C389 638 388 629 387 622L359 468C329 477 302 482 277 482C208 482 114 410 68 323C37 265 17 170 17 86C17 21 32 -11 61 -11C88 -11 125 6 159 33C213 77 246 116 313 217L290 126C279 82 274 50 274 24C274 3 283 -9 300 -9C317 -9 341 3 375 28L456 88L446 107L402 76C388 66 372 59 363 59C355 59 349 68 349 82C349 90 350 99 357 128ZM114 59C98 59 89 73 89 98C89 224 135 380 184 418C197 428 216 433 243 433C287 433 316 427 349 410L337 351C300 171 159 59 114 59ZM770 204L741 77C737 60 735 42 735 26C735 4 744 -9 759 -9C782 -9 823 17 905 85L898 106C874 86 845 59 823 59C814 59 808 68 808 82C808 87 808 90 809 93L901 472L891 481L858 463C817 478 800 482 773 482C745 482 725 477 698 464C636 433 603 403 578 354C534 265 503 145 503 67C503 23 518 -11 537 -11C574 -11 654 41 770 204ZM818 414C796 305 777 253 743 201C686 117 625 59 593 59C581 59 575 72 575 99C575 163 603 280 638 360C662 415 685 433 733 433C756 433 774 429 818 414ZM1067 390L1011 107C1010 99 998 61 998 31C998 6 1009 -9 1028 -9C1063 -9 1098 11 1176 74L1207 99L1197 117L1152 86C1123 66 1103 56 1092 56C1083 56 1078 64 1078 76C1078 102 1092 183 1121 328L1134 390L1241 390L1252 440C1214 436 1180 434 1142 434C1158 528 1169 577 1187 631L1176 646C1156 634 1129 622 1098 610L1073 440C1029 419 1003 408 985 403L983 390ZM1291 152C1291 46 1336 -11 1419 -11C1474 -11 1534 15 1579 57C1641 116 1685 230 1685 331C1685 425 1635 482 1552 482C1448 482 1291 382 1291 152ZM1515 444C1576 444 1609 399 1609 315C1609 219 1578 113 1534 60C1516 39 1490 27 1459 27C1401 27 1367 72 1367 151C1367 264 1406 387 1455 427C1468 438 1491 444 1515 444Z" stroke="rgb(0,0,0)" stroke-opacity="1" stroke-width="8" fill="rgb(0,0,0)" fill-opacity="1"></path></g></g></g><g><g><g transform="matrix(1,0,0,1,2,103.61500549316406)"><path transform="matrix(0.017,0,0,-0.017,0,0)" d="M24 388L31 368L63 389C100 412 103 414 110 414C121 414 128 404 128 389C128 338 87 145 46 2L53 -9C78 -2 101 4 123 8C142 134 163 199 209 268C263 352 338 414 383 414C394 414 400 405 400 390C400 372 397 351 389 319L337 107C328 70 324 47 324 31C324 6 335 -9 354 -9C380 -9 416 12 514 85L504 103L478 86C449 67 427 56 417 56C410 56 404 65 404 76C404 81 405 92 406 96L472 372C479 401 483 429 483 446C483 469 472 482 452 482C410 482 341 444 282 389C244 354 216 320 164 247L202 408C206 426 208 438 208 449C208 470 200 482 185 482C164 482 125 460 52 408Z" stroke="rgb(0,0,0)" stroke-opacity="1" stroke-width="8" fill="rgb(0,0,0)" fill-opacity="1"></path></g></g><g><g transform="matrix(1,0,0,1,14.824981689453125,103.61500549316406)"><path transform="matrix(0.017,0,0,-0.017,0,0)" d="M123 111C93 111 66 83 66 53C66 23 93 -5 122 -5C154 -5 182 22 182 53C182 83 154 111 123 111ZM123 456C93 456 66 428 66 398C66 368 93 340 122 340C154 340 182 367 182 397C182 428 154 456 123 456Z" stroke="rgb(0,0,0)" stroke-opacity="1" stroke-width="8" fill="rgb(0,0,0)" fill-opacity="1"></path></g></g><g><g transform="matrix(1,0,0,1,22.459991455078125,103.61500549316406)"><path transform="matrix(0.017,0,0,-0.017,0,0)" d="M125 390L69 107C68 99 56 61 56 31C56 6 67 -9 86 -9C121 -9 156 11 234 74L265 99L255 117L210 86C181 66 161 56 150 56C141 56 136 64 136 76C136 102 150 183 179 328L192 390L299 390L310 440C272 436 238 434 200 434C216 528 227 577 245 631L234 646C214 634 187 622 156 610L131 440C87 419 61 408 43 403L41 390ZM349 152C349 46 394 -11 477 -11C532 -11 592 15 637 57C699 116 743 230 743 331C743 425 693 482 610 482C506 482 349 382 349 152ZM573 444C634 444 667 399 667 315C667 219 636 113 592 60C574 39 548 27 517 27C459 27 425 72 425 151C425 264 464 387 513 427C526 438 549 444 573 444ZM900 390L844 107C843 99 831 61 831 31C831 6 842 -9 861 -9C896 -9 931 11 1009 74L1040 99L1030 117L985 86C956 66 936 56 925 56C916 56 911 64 911 76C911 102 925 183 954 328L967 390L1074 390L1085 440C1047 436 1013 434 975 434C991 528 1002 577 1020 631L1009 646C989 634 962 622 931 610L906 440C862 419 836 408 818 403L816 390ZM1378 204L1349 77C1345 60 1343 42 1343 26C1343 4 1352 -9 1367 -9C1390 -9 1431 17 1513 85L1506 106C1482 86 1453 59 1431 59C1422 59 1416 68 1416 82C1416 87 1416 90 1417 93L1509 472L1499 481L1466 463C1425 478 1408 482 1381 482C1353 482 1333 477 1306 464C1244 433 1211 403 1186 354C1142 265 1111 145 1111 67C1111 23 1126 -11 1145 -11C1182 -11 1262 41 1378 204ZM1426 414C1404 305 1385 253 1351 201C1294 117 1233 59 1201 59C1189 59 1183 72 1183 99C1183 163 1211 280 1246 360C1270 415 1293 433 1341 433C1364 433 1382 429 1426 414ZM1801 722L1789 733C1737 707 1701 698 1629 691L1625 670L1673 670C1697 670 1707 663 1707 648C1707 645 1707 640 1704 622C1693 567 1620 182 1605 132C1592 82 1586 52 1586 31C1586 6 1597 -9 1616 -9C1642 -9 1678 12 1776 85L1766 103L1740 86C1711 67 1689 56 1679 56C1672 56 1666 66 1666 76C1666 82 1667 89 1670 104ZM2559 722L2547 733C2495 707 2459 698 2387 691L2383 670L2431 670C2455 670 2465 663 2465 646C2465 638 2464 629 2463 622L2435 468C2405 477 2378 482 2353 482C2284 482 2190 410 2144 323C2113 265 2093 170 2093 86C2093 21 2108 -11 2137 -11C2164 -11 2201 6 2235 33C2289 77 2322 116 2389 217L2366 126C2355 82 2350 50 2350 24C2350 3 2359 -9 2376 -9C2393 -9 2417 3 2451 28L2532 88L2522 107L2478 76C2464 66 2448 59 2439 59C2431 59 2425 68 2425 82C2425 90 2426 99 2433 128ZM2190 59C2174 59 2165 73 2165 98C2165 224 2211 380 2260 418C2273 428 2292 433 2319 433C2363 433 2392 427 2425 410L2413 351C2376 171 2235 59 2190 59ZM2903 111L2879 94C2826 56 2778 36 2742 36C2695 36 2666 73 2666 133C2666 158 2669 185 2674 214C2691 218 2800 248 2825 259C2910 296 2949 342 2949 404C2949 451 2915 482 2865 482C2797 496 2687 423 2650 349C2620 299 2590 180 2590 113C2590 35 2634 -11 2706 -11C2763 -11 2819 17 2911 92ZM2688 274C2705 343 2725 386 2754 412C2772 428 2803 440 2827 440C2856 440 2875 420 2875 388C2875 344 2840 297 2788 272C2760 258 2724 247 2679 237ZM3695 722L3683 733C3631 707 3595 698 3523 691L3519 670L3567 670C3591 670 3601 663 3601 646C3601 638 3600 629 3599 622L3571 468C3541 477 3514 482 3489 482C3420 482 3326 410 3280 323C3249 265 3229 170 3229 86C3229 21 3244 -11 3273 -11C3300 -11 3337 6 3371 33C3425 77 3458 116 3525 217L3502 126C3491 82 3486 50 3486 24C3486 3 3495 -9 3512 -9C3529 -9 3553 3 3587 28L3668 88L3658 107L3614 76C3600 66 3584 59 3575 59C3567 59 3561 68 3561 82C3561 90 3562 99 3569 128ZM3326 59C3310 59 3301 73 3301 98C3301 224 3347 380 3396 418C3409 428 3428 433 3455 433C3499 433 3528 427 3561 410L3549 351C3512 171 3371 59 3326 59ZM3982 204L3953 77C3949 60 3947 42 3947 26C3947 4 3956 -9 3971 -9C3994 -9 4035 17 4117 85L4110 106C4086 86 4057 59 4035 59C4026 59 4020 68 4020 82C4020 87 4020 90 4021 93L4113 472L4103 481L4070 463C4029 478 4012 482 3985 482C3957 482 3937 477 3910 464C3848 433 3815 403 3790 354C3746 265 3715 145 3715 67C3715 23 3730 -11 3749 -11C3786 -11 3866 41 3982 204ZM4030 414C4008 305 3989 253 3955 201C3898 117 3837 59 3805 59C3793 59 3787 72 3787 99C3787 163 3815 280 3850 360C3874 415 3897 433 3945 433C3968 433 3986 429 4030 414ZM4279 390L4223 107C4222 99 4210 61 4210 31C4210 6 4221 -9 4240 -9C4275 -9 4310 11 4388 74L4419 99L4409 117L4364 86C4335 66 4315 56 4304 56C4295 56 4290 64 4290 76C4290 102 4304 183 4333 328L4346 390L4453 390L4464 440C4426 436 4392 434 4354 434C4370 528 4381 577 4399 631L4388 646C4368 634 4341 622 4310 610L4285 440C4241 419 4215 408 4197 403L4195 390ZM4503 152C4503 46 4548 -11 4631 -11C4686 -11 4746 15 4791 57C4853 116 4897 230 4897 331C4897 425 4847 482 4764 482C4660 482 4503 382 4503 152ZM4727 444C4788 444 4821 399 4821 315C4821 219 4790 113 4746 60C4728 39 4702 27 4671 27C4613 27 4579 72 4579 151C4579 264 4618 387 4667 427C4680 438 4703 444 4727 444ZM4960 148C4955 97 4949 62 4938 16C4976 -2 5010 -11 5045 -11C5094 -11 5140 7 5191 47C5242 87 5263 124 5263 174C5263 228 5231 257 5157 271L5114 279C5054 290 5035 307 5035 348C5035 401 5080 442 5137 442C5178 442 5216 424 5232 397L5232 342L5255 342C5259 377 5263 404 5274 455C5235 474 5207 482 5174 482C5122 482 5061 452 5013 404C4987 377 4976 352 4976 316C4976 260 5007 228 5073 215L5136 203C5180 195 5196 177 5196 138C5196 73 5150 29 5079 29C5044 29 5013 40 4985 64L4985 148Z" stroke="rgb(0,0,0)" stroke-opacity="1" stroke-width="8" fill="rgb(0,0,0)" fill-opacity="1"></path></g></g></g><g></g><g><g><g transform="matrix(1,0,0,1,2,143.93499755859375)"><path transform="matrix(0.017,0,0,-0.017,0,0)" d="M390 646L463 646C541 646 577 641 580 629C583 621 585 602 584 592L580 528L608 528L635 692L544 691C456 690 388 689 353 689C316 689 252 690 166 691L71 692L53 528L82 528L97 588C102 610 109 626 115 633C121 640 159 646 196 646L308 646L222 125C206 34 204 31 164 28L113 25L109 -3L166 -2C206 -1 235 0 251 0C270 0 301 -1 340 -2L384 -3L387 25L328 28C302 29 292 37 292 58C292 67 293 74 296 93ZM881 204L852 77C848 60 846 42 846 26C846 4 855 -9 870 -9C893 -9 934 17 1016 85L1009 106C985 86 956 59 934 59C925 59 919 68 919 82C919 87 919 90 920 93L1012 472L1002 481L969 463C928 478 911 482 884 482C856 482 836 477 809 464C747 433 714 403 689 354C645 265 614 145 614 67C614 23 629 -11 648 -11C685 -11 765 41 881 204ZM929 414C907 305 888 253 854 201C797 117 736 59 704 59C692 59 686 72 686 99C686 163 714 280 749 360C773 415 796 433 844 433C867 433 885 429 929 414ZM1288 722L1276 733C1224 707 1188 698 1116 691L1112 670L1160 670C1184 670 1194 663 1194 646C1194 639 1193 628 1192 622L1091 71C1090 68 1090 64 1090 61C1090 22 1138 -11 1193 -11C1230 -11 1281 8 1324 39C1420 107 1486 244 1486 376C1486 414 1477 453 1465 468C1458 477 1445 482 1430 482C1406 482 1376 474 1348 460C1297 433 1264 403 1202 324ZM1375 424C1401 424 1414 401 1414 352C1414 288 1393 202 1363 137C1330 68 1290 36 1236 36C1190 36 1165 59 1165 101C1165 135 1180 276 1261 361C1294 395 1346 424 1375 424ZM1766 722L1754 733C1702 707 1666 698 1594 691L1590 670L1638 670C1662 670 1672 663 1672 648C1672 645 1672 640 1669 622C1658 567 1585 182 1570 132C1557 82 1551 52 1551 31C1551 6 1562 -9 1581 -9C1607 -9 1643 12 1741 85L1731 103L1705 86C1676 67 1654 56 1644 56C1637 56 1631 66 1631 76C1631 82 1632 89 1635 104ZM2063 204L2034 77C2030 60 2028 42 2028 26C2028 4 2037 -9 2052 -9C2075 -9 2116 17 2198 85L2191 106C2167 86 2138 59 2116 59C2107 59 2101 68 2101 82C2101 87 2101 90 2102 93L2194 472L2184 481L2151 463C2110 478 2093 482 2066 482C2038 482 2018 477 1991 464C1929 433 1896 403 1871 354C1827 265 1796 145 1796 67C1796 23 1811 -11 1830 -11C1867 -11 1947 41 2063 204ZM2111 414C2089 305 2070 253 2036 201C1979 117 1918 59 1886 59C1874 59 1868 72 1868 99C1868 163 1896 280 1931 360C1955 415 1978 433 2026 433C2049 433 2067 429 2111 414ZM2967 722L2955 733C2903 707 2867 698 2795 691L2791 670L2839 670C2863 670 2873 663 2873 646C2873 638 2872 629 2871 622L2843 468C2813 477 2786 482 2761 482C2692 482 2598 410 2552 323C2521 265 2501 170 2501 86C2501 21 2516 -11 2545 -11C2572 -11 2609 6 2643 33C2697 77 2730 116 2797 217L2774 126C2763 82 2758 50 2758 24C2758 3 2767 -9 2784 -9C2801 -9 2825 3 2859 28L2940 88L2930 107L2886 76C2872 66 2856 59 2847 59C2839 59 2833 68 2833 82C2833 90 2834 99 2841 128ZM2598 59C2582 59 2573 73 2573 98C2573 224 2619 380 2668 418C2681 428 2700 433 2727 433C2771 433 2800 427 2833 410L2821 351C2784 171 2643 59 2598 59ZM3311 111L3287 94C3234 56 3186 36 3150 36C3103 36 3074 73 3074 133C3074 158 3077 185 3082 214C3099 218 3208 248 3233 259C3318 296 3357 342 3357 404C3357 451 3323 482 3273 482C3205 496 3095 423 3058 349C3028 299 2998 180 2998 113C2998 35 3042 -11 3114 -11C3171 -11 3227 17 3319 92ZM3096 274C3113 343 3133 386 3162 412C3180 428 3211 440 3235 440C3264 440 3283 420 3283 388C3283 344 3248 297 3196 272C3168 258 3132 247 3087 237ZM3906 646L4012 650C4074 650 4114 641 4115 626L4123 537L4147 537C4150 600 4157 651 4168 689C4146 691 4118 692 4101 692L4060 691L3895 689L3866 689C3841 689 3801 690 3763 691L3714 692L3711 664L3767 662C3791 661 3802 652 3802 635C3802 621 3798 589 3793 559L3718 125C3701 33 3701 32 3660 28L3624 25L3620 -3L3654 -2C3694 -1 3726 0 3747 0C3765 0 3794 -1 3833 -2L3885 -3L3888 25L3824 28C3797 29 3788 37 3788 57C3788 63 3789 74 3790 78L3826 301L3943 301C3970 301 4001 300 4049 298L4075 297L4094 342L4090 349C4009 345 3949 343 3871 343L3834 343L3880 614C3883 630 3884 635 3889 646ZM4543 365C4546 403 4551 435 4559 476C4548 481 4544 482 4539 482C4508 482 4477 458 4441 407C4402 351 4363 291 4347 256L4379 408C4383 425 4385 438 4385 450C4385 470 4377 482 4362 482C4341 482 4303 461 4229 408L4201 388L4208 368L4240 389C4268 407 4279 412 4288 412C4298 412 4305 403 4305 390C4305 332 4262 126 4222 -2L4232 -9C4247 -4 4263 -1 4286 4L4299 6L4325 126C4343 209 4366 262 4410 319C4444 363 4471 384 4493 384C4508 384 4518 379 4529 365ZM4891 111L4867 94C4814 56 4766 36 4730 36C4683 36 4654 73 4654 133C4654 158 4657 185 4662 214C4679 218 4788 248 4813 259C4898 296 4937 342 4937 404C4937 451 4903 482 4853 482C4785 496 4675 423 4638 349C4608 299 4578 180 4578 113C4578 35 4622 -11 4694 -11C4751 -11 4807 17 4899 92ZM4676 274C4693 343 4713 386 4742 412C4760 428 4791 440 4815 440C4844 440 4863 420 4863 388C4863 344 4828 297 4776 272C4748 258 4712 247 4667 237ZM5293 330L5316 330C5324 395 5331 432 5340 458C5316 473 5281 482 5244 482C5199 483 5126 463 5069 400C5015 352 4976 241 4976 136C4976 40 5018 -11 5098 -11C5152 -11 5200 9 5255 54L5305 95L5297 115L5282 105C5210 57 5172 40 5137 40C5081 40 5052 80 5052 159C5052 267 5087 371 5136 409C5157 425 5181 433 5212 433C5257 433 5293 414 5293 390ZM5849 473L5842 482L5774 465L5764 414C5749 336 5724 268 5693 221C5634 130 5556 59 5516 59C5508 59 5503 68 5503 85C5503 99 5505 112 5510 137L5567 408C5570 424 5572 438 5572 451C5572 470 5563 482 5549 482C5529 482 5491 461 5417 408L5389 388L5396 368L5428 389C5456 407 5467 412 5476 412C5485 412 5493 403 5493 392C5493 388 5492 378 5491 374L5428 77C5426 68 5424 44 5424 30C5424 7 5439 -11 5459 -11C5522 -11 5643 101 5727 239L5690 97C5683 73 5679 46 5679 31C5679 6 5690 -9 5709 -9C5735 -9 5771 12 5869 85L5859 103L5833 86C5809 70 5783 59 5772 59C5764 59 5759 66 5759 76C5759 112 5834 416 5849 473ZM6240 111L6216 94C6163 56 6115 36 6079 36C6032 36 6003 73 6003 133C6003 158 6006 185 6011 214C6028 218 6137 248 6162 259C6247 296 6286 342 6286 404C6286 451 6252 482 6202 482C6134 496 6024 423 5987 349C5957 299 5927 180 5927 113C5927 35 5971 -11 6043 -11C6100 -11 6156 17 6248 92ZM6025 274C6042 343 6062 386 6091 412C6109 428 6140 440 6164 440C6193 440 6212 420 6212 388C6212 344 6177 297 6125 272C6097 258 6061 247 6016 237ZM6324 388L6331 368L6363 389C6400 412 6403 414 6410 414C6421 414 6428 404 6428 389C6428 338 6387 145 6346 2L6353 -9C6378 -2 6401 4 6423 8C6442 134 6463 199 6509 268C6563 352 6638 414 6683 414C6694 414 6700 405 6700 390C6700 372 6697 351 6689 319L6637 107C6628 70 6624 47 6624 31C6624 6 6635 -9 6654 -9C6680 -9 6716 12 6814 85L6804 103L6778 86C6749 67 6727 56 6717 56C6710 56 6704 65 6704 76C6704 81 6705 92 6706 96L6772 372C6779 401 6783 429 6783 446C6783 469 6772 482 6752 482C6710 482 6641 444 6582 389C6544 354 6516 320 6464 247L6502 408C6506 426 6508 438 6508 449C6508 470 6500 482 6485 482C6464 482 6425 460 6352 408ZM7197 330L7220 330C7228 395 7235 432 7244 458C7220 473 7185 482 7148 482C7103 483 7030 463 6973 400C6919 352 6880 241 6880 136C6880 40 6922 -11 7002 -11C7056 -11 7104 9 7159 54L7209 95L7201 115L7186 105C7114 57 7076 40 7041 40C6985 40 6956 80 6956 159C6956 267 6991 371 7040 409C7061 425 7085 433 7116 433C7161 433 7197 414 7197 390ZM7295 388L7302 368L7334 389C7371 412 7374 414 7381 414C7391 414 7399 404 7399 391C7399 384 7395 361 7391 347L7325 107C7317 76 7312 49 7312 30C7312 6 7323 -9 7342 -9C7368 -9 7404 12 7502 85L7492 103L7466 86C7437 67 7414 56 7405 56C7398 56 7392 66 7392 76C7392 86 7394 95 7399 116L7476 420C7480 437 7482 448 7482 456C7482 473 7473 482 7457 482C7435 482 7398 461 7323 408ZM7489 712C7460 712 7431 679 7431 645C7431 620 7446 604 7470 604C7501 604 7525 633 7525 671C7525 695 7510 712 7489 712ZM7809 204L7780 77C7776 60 7774 42 7774 26C7774 4 7783 -9 7798 -9C7821 -9 7862 17 7944 85L7937 106C7913 86 7884 59 7862 59C7853 59 7847 68 7847 82C7847 87 7847 90 7848 93L7940 472L7930 481L7897 463C7856 478 7839 482 7812 482C7784 482 7764 477 7737 464C7675 433 7642 403 7617 354C7573 265 7542 145 7542 67C7542 23 7557 -11 7576 -11C7613 -11 7693 41 7809 204ZM7857 414C7835 305 7816 253 7782 201C7725 117 7664 59 7632 59C7620 59 7614 72 7614 99C7614 163 7642 280 7677 360C7701 415 7724 433 7772 433C7795 433 7813 429 7857 414ZM8012 148C8007 97 8001 62 7990 16C8028 -2 8062 -11 8097 -11C8146 -11 8192 7 8243 47C8294 87 8315 124 8315 174C8315 228 8283 257 8209 271L8166 279C8106 290 8087 307 8087 348C8087 401 8132 442 8189 442C8230 442 8268 424 8284 397L8284 342L8307 342C8311 377 8315 404 8326 455C8287 474 8259 482 8226 482C8174 482 8113 452 8065 404C8039 377 8028 352 8028 316C8028 260 8059 228 8125 215L8188 203C8232 195 8248 177 8248 138C8248 73 8202 29 8131 29C8096 29 8065 40 8037 64L8037 148Z" stroke="rgb(0,0,0)" stroke-opacity="1" stroke-width="8" fill="rgb(0,0,0)" fill-opacity="1"></path></g></g></g><g><g><g><g><g><g transform="matrix(1,0,0,1,2.839996337890625,177.63999938964844)"><path transform="matrix(0.017,0,0,-0.017,0,0)" d="M9 1C24 -7 40 -11 52 -11C85 -11 124 18 155 65L231 182L242 113C255 28 278 -11 314 -11C336 -11 368 6 400 35L449 79L440 98C404 68 379 53 363 53C348 53 335 63 325 83C316 102 305 139 300 168L282 269L317 318C364 383 391 406 422 406C438 406 450 398 455 383L469 387L484 472C472 479 463 482 454 482C414 482 374 446 312 354L275 299L269 347C257 446 230 482 171 482C145 482 123 474 114 461L56 378L73 368C103 402 123 416 142 416C175 416 197 375 214 277L225 215L185 153C142 86 108 54 80 54C65 54 54 58 52 63L41 91L21 88C21 53 13 27 9 1Z" stroke="rgb(0,0,0)" stroke-opacity="1" stroke-width="8" fill="rgb(0,0,0)" fill-opacity="1"></path></g></g></g></g><svg xmlns="http://www.w3.org/2000/svg" x="2.839996337890625" y="163.59500122070312" height="6" width="8.49000072479248"><defs><clipPath id="ccp0.2919474060740752"><rect x="-0.5" y="-0.5" width="8.99000072479248" height="6.5"></rect></clipPath></defs><g clip-path="url(#ccp0.2919474060740752)"><svg xmlns="http://www.w3.org/2000/svg" x="0" y="0" height="20.15999984741211" width="16.9950008392334"><defs><clipPath id="ccp0.4705038110951205"><rect x="-0.5" y="-0.5" width="17.4950008392334" height="20.65999984741211"></rect></clipPath></defs><g clip-path="url(#ccp0.4705038110951205)"><g><g transform="matrix(1,0,0,1,0,17)"><path transform="matrix(0.017,0,0,-0.017,0,0)" d="M-877 790L1877 790L1877 850L-877 850Z" stroke="rgb(0,0,0)" stroke-opacity="1" stroke-width="8" fill="rgb(0,0,0)" fill-opacity="1"></path></g></g></g></svg></g></svg></g><g><g transform="matrix(1,0,0,1,17.269989013671875,177.63999938964844)"><path transform="matrix(0.017,0,0,-0.017,0,0)" d="M604 347L604 406L65 406L65 347ZM604 134L604 193L65 193L65 134Z" stroke="rgb(0,0,0)" stroke-opacity="1" stroke-width="8" fill="rgb(0,0,0)" fill-opacity="1"></path></g></g><g><g><g><g><g transform="matrix(1,0,0,1,35.41998291015625,164.09500122070312)"><path transform="matrix(0.017,0,0,-0.017,0,0)" d="M9 1C24 -7 40 -11 52 -11C85 -11 124 18 155 65L231 182L242 113C255 28 278 -11 314 -11C336 -11 368 6 400 35L449 79L440 98C404 68 379 53 363 53C348 53 335 63 325 83C316 102 305 139 300 168L282 269L317 318C364 383 391 406 422 406C438 406 450 398 455 383L469 387L484 472C472 479 463 482 454 482C414 482 374 446 312 354L275 299L269 347C257 446 230 482 171 482C145 482 123 474 114 461L56 378L73 368C103 402 123 416 142 416C175 416 197 375 214 277L225 215L185 153C142 86 108 54 80 54C65 54 54 58 52 63L41 91L21 88C21 53 13 27 9 1Z" stroke="rgb(0,0,0)" stroke-opacity="1" stroke-width="8" fill="rgb(0,0,0)" fill-opacity="1"></path></g></g><g><g><g><g><g transform="matrix(1,0,0,1,44.41998291015625,168.05499877929688)"><path transform="matrix(0.0119,0,0,-0.0119,0,0)" d="M418 -3L418 27L366 30C311 33 301 44 301 96L301 700L60 598L67 548L217 614L217 96C217 44 206 33 152 30L96 27L96 -3C250 0 250 0 261 0C292 0 402 -3 418 -3Z" stroke="rgb(0,0,0)" stroke-opacity="1" stroke-width="8" fill="rgb(0,0,0)" fill-opacity="1"></path></g></g></g></g></g><g><g transform="matrix(1,0,0,1,51.3800048828125,164.09500122070312)"><path transform="matrix(0.017,0,0,-0.017,0,0)" d="M345 437L329 437L350 549C366 635 394 673 440 673C470 673 497 658 512 634L522 638C527 654 537 685 545 705L550 720C534 727 503 733 480 733C469 733 453 730 445 726C421 715 339 654 316 630C294 608 282 578 271 521L256 442C215 422 195 414 170 405L165 383L246 383L237 327C207 132 170 -54 148 -123C130 -182 100 -213 64 -213C41 -213 30 -206 12 -184L-2 -188C-6 -211 -20 -259 -25 -268C-16 -273 -1 -276 10 -276C51 -276 105 -245 144 -198C215 -114 235 -18 319 383L423 383C427 402 434 425 440 439L436 446C407 439 408 437 345 437Z" stroke="rgb(0,0,0)" stroke-opacity="1" stroke-width="8" fill="rgb(0,0,0)" fill-opacity="1"></path></g></g><g><g><g><g><g transform="matrix(1,0,0,1,61.25,168.05499877929688)"><path transform="matrix(0.0119,0,0,-0.0119,0,0)" d="M418 -3L418 27L366 30C311 33 301 44 301 96L301 700L60 598L67 548L217 614L217 96C217 44 206 33 152 30L96 27L96 -3C250 0 250 0 261 0C292 0 402 -3 418 -3Z" stroke="rgb(0,0,0)" stroke-opacity="1" stroke-width="8" fill="rgb(0,0,0)" fill-opacity="1"></path></g></g></g></g></g><g><g transform="matrix(1,0,0,1,71.60000610351562,164.09500122070312)"><path transform="matrix(0.017,0,0,-0.017,0,0)" d="M604 241L604 300L364 300L364 538L305 538L305 300L65 300L65 241L305 241L305 0L364 0L364 241Z" stroke="rgb(0,0,0)" stroke-opacity="1" stroke-width="8" fill="rgb(0,0,0)" fill-opacity="1"></path></g></g><g><g transform="matrix(1,0,0,1,86.34500122070312,164.09500122070312)"><path transform="matrix(0.017,0,0,-0.017,0,0)" d="M9 1C24 -7 40 -11 52 -11C85 -11 124 18 155 65L231 182L242 113C255 28 278 -11 314 -11C336 -11 368 6 400 35L449 79L440 98C404 68 379 53 363 53C348 53 335 63 325 83C316 102 305 139 300 168L282 269L317 318C364 383 391 406 422 406C438 406 450 398 455 383L469 387L484 472C472 479 463 482 454 482C414 482 374 446 312 354L275 299L269 347C257 446 230 482 171 482C145 482 123 474 114 461L56 378L73 368C103 402 123 416 142 416C175 416 197 375 214 277L225 215L185 153C142 86 108 54 80 54C65 54 54 58 52 63L41 91L21 88C21 53 13 27 9 1Z" stroke="rgb(0,0,0)" stroke-opacity="1" stroke-width="8" fill="rgb(0,0,0)" fill-opacity="1"></path></g></g><g><g><g><g><g transform="matrix(1,0,0,1,95.34500122070312,168.05499877929688)"><path transform="matrix(0.0119,0,0,-0.0119,0,0)" d="M16 23L16 -3C203 -3 203 0 239 0C275 0 275 -3 468 -3L468 82C353 77 307 81 122 77L304 270C401 373 431 428 431 503C431 618 353 689 226 689C154 689 105 669 56 619L39 483L68 483L81 529C97 587 133 612 200 612C286 612 341 558 341 473C341 398 299 324 186 204Z" stroke="rgb(0,0,0)" stroke-opacity="1" stroke-width="8" fill="rgb(0,0,0)" fill-opacity="1"></path></g></g></g></g></g><g><g transform="matrix(1,0,0,1,102.30499267578125,164.09500122070312)"><path transform="matrix(0.017,0,0,-0.017,0,0)" d="M345 437L329 437L350 549C366 635 394 673 440 673C470 673 497 658 512 634L522 638C527 654 537 685 545 705L550 720C534 727 503 733 480 733C469 733 453 730 445 726C421 715 339 654 316 630C294 608 282 578 271 521L256 442C215 422 195 414 170 405L165 383L246 383L237 327C207 132 170 -54 148 -123C130 -182 100 -213 64 -213C41 -213 30 -206 12 -184L-2 -188C-6 -211 -20 -259 -25 -268C-16 -273 -1 -276 10 -276C51 -276 105 -245 144 -198C215 -114 235 -18 319 383L423 383C427 402 434 425 440 439L436 446C407 439 408 437 345 437Z" stroke="rgb(0,0,0)" stroke-opacity="1" stroke-width="8" fill="rgb(0,0,0)" fill-opacity="1"></path></g></g><g><g><g><g><g transform="matrix(1,0,0,1,112.17498779296875,168.05499877929688)"><path transform="matrix(0.0119,0,0,-0.0119,0,0)" d="M16 23L16 -3C203 -3 203 0 239 0C275 0 275 -3 468 -3L468 82C353 77 307 81 122 77L304 270C401 373 431 428 431 503C431 618 353 689 226 689C154 689 105 669 56 619L39 483L68 483L81 529C97 587 133 612 200 612C286 612 341 558 341 473C341 398 299 324 186 204Z" stroke="rgb(0,0,0)" stroke-opacity="1" stroke-width="8" fill="rgb(0,0,0)" fill-opacity="1"></path></g></g></g></g></g><g><g transform="matrix(1,0,0,1,122.52499389648438,164.09500122070312)"><path transform="matrix(0.017,0,0,-0.017,0,0)" d="M604 241L604 300L364 300L364 538L305 538L305 300L65 300L65 241L305 241L305 0L364 0L364 241Z" stroke="rgb(0,0,0)" stroke-opacity="1" stroke-width="8" fill="rgb(0,0,0)" fill-opacity="1"></path></g></g><g><g transform="matrix(1,0,0,1,137.26998901367188,164.09500122070312)"><path transform="matrix(0.017,0,0,-0.017,0,0)" d="M124 111C94 111 67 83 67 53C67 23 94 -5 123 -5C155 -5 183 22 183 53C183 83 155 111 124 111ZM373 111C343 111 316 83 316 53C316 23 343 -5 372 -5C404 -5 432 22 432 53C432 83 404 111 373 111ZM622 111C592 111 565 83 565 53C565 23 592 -5 621 -5C653 -5 681 22 681 53C681 83 653 111 622 111Z" stroke="rgb(0,0,0)" stroke-opacity="1" stroke-width="8" fill="rgb(0,0,0)" fill-opacity="1"></path></g></g><g><g transform="matrix(1,0,0,1,156.75497436523438,164.09500122070312)"><path transform="matrix(0.017,0,0,-0.017,0,0)" d="M604 241L604 300L364 300L364 538L305 538L305 300L65 300L65 241L305 241L305 0L364 0L364 241Z" stroke="rgb(0,0,0)" stroke-opacity="1" stroke-width="8" fill="rgb(0,0,0)" fill-opacity="1"></path></g></g><g><g transform="matrix(1,0,0,1,171.50003051757812,164.09500122070312)"><path transform="matrix(0.017,0,0,-0.017,0,0)" d="M9 1C24 -7 40 -11 52 -11C85 -11 124 18 155 65L231 182L242 113C255 28 278 -11 314 -11C336 -11 368 6 400 35L449 79L440 98C404 68 379 53 363 53C348 53 335 63 325 83C316 102 305 139 300 168L282 269L317 318C364 383 391 406 422 406C438 406 450 398 455 383L469 387L484 472C472 479 463 482 454 482C414 482 374 446 312 354L275 299L269 347C257 446 230 482 171 482C145 482 123 474 114 461L56 378L73 368C103 402 123 416 142 416C175 416 197 375 214 277L225 215L185 153C142 86 108 54 80 54C65 54 54 58 52 63L41 91L21 88C21 53 13 27 9 1Z" stroke="rgb(0,0,0)" stroke-opacity="1" stroke-width="8" fill="rgb(0,0,0)" fill-opacity="1"></path></g></g><g><g><g><g><g transform="matrix(1,0,0,1,180.50003051757812,168.05499877929688)"><path transform="matrix(0.0119,0,0,-0.0119,0,0)" d="M24 388L31 368L63 389C100 412 103 414 110 414C121 414 128 404 128 389C128 338 87 145 46 2L53 -9C78 -2 101 4 123 8C142 134 163 199 209 268C263 352 338 414 383 414C394 414 400 405 400 390C400 372 397 351 389 319L337 107C328 70 324 47 324 31C324 6 335 -9 354 -9C380 -9 416 12 514 85L504 103L478 86C449 67 427 56 417 56C410 56 404 65 404 76C404 81 405 92 406 96L472 372C479 401 483 429 483 446C483 469 472 482 452 482C410 482 341 444 282 389C244 354 216 320 164 247L202 408C206 426 208 438 208 449C208 470 200 482 185 482C164 482 125 460 52 408Z" stroke="rgb(0,0,0)" stroke-opacity="1" stroke-width="8" fill="rgb(0,0,0)" fill-opacity="1"></path></g></g></g></g></g><g><g transform="matrix(1,0,0,1,188.13497924804688,164.09500122070312)"><path transform="matrix(0.017,0,0,-0.017,0,0)" d="M345 437L329 437L350 549C366 635 394 673 440 673C470 673 497 658 512 634L522 638C527 654 537 685 545 705L550 720C534 727 503 733 480 733C469 733 453 730 445 726C421 715 339 654 316 630C294 608 282 578 271 521L256 442C215 422 195 414 170 405L165 383L246 383L237 327C207 132 170 -54 148 -123C130 -182 100 -213 64 -213C41 -213 30 -206 12 -184L-2 -188C-6 -211 -20 -259 -25 -268C-16 -273 -1 -276 10 -276C51 -276 105 -245 144 -198C215 -114 235 -18 319 383L423 383C427 402 434 425 440 439L436 446C407 439 408 437 345 437Z" stroke="rgb(0,0,0)" stroke-opacity="1" stroke-width="8" fill="rgb(0,0,0)" fill-opacity="1"></path></g></g><g><g><g><g><g transform="matrix(1,0,0,1,198.00497436523438,168.05499877929688)"><path transform="matrix(0.0119,0,0,-0.0119,0,0)" d="M24 388L31 368L63 389C100 412 103 414 110 414C121 414 128 404 128 389C128 338 87 145 46 2L53 -9C78 -2 101 4 123 8C142 134 163 199 209 268C263 352 338 414 383 414C394 414 400 405 400 390C400 372 397 351 389 319L337 107C328 70 324 47 324 31C324 6 335 -9 354 -9C380 -9 416 12 514 85L504 103L478 86C449 67 427 56 417 56C410 56 404 65 404 76C404 81 405 92 406 96L472 372C479 401 483 429 483 446C483 469 472 482 452 482C410 482 341 444 282 389C244 354 216 320 164 247L202 408C206 426 208 438 208 449C208 470 200 482 185 482C164 482 125 460 52 408Z" stroke="rgb(0,0,0)" stroke-opacity="1" stroke-width="8" fill="rgb(0,0,0)" fill-opacity="1"></path></g></g></g></g></g></g></g><g><g><g><g transform="matrix(1,0,0,1,115.80499267578125,190.8100128173828)"><path transform="matrix(0.017,0,0,-0.017,0,0)" d="M24 388L31 368L63 389C100 412 103 414 110 414C121 414 128 404 128 389C128 338 87 145 46 2L53 -9C78 -2 101 4 123 8C142 134 163 199 209 268C263 352 338 414 383 414C394 414 400 405 400 390C400 372 397 351 389 319L337 107C328 70 324 47 324 31C324 6 335 -9 354 -9C380 -9 416 12 514 85L504 103L478 86C449 67 427 56 417 56C410 56 404 65 404 76C404 81 405 92 406 96L472 372C479 401 483 429 483 446C483 469 472 482 452 482C410 482 341 444 282 389C244 354 216 320 164 247L202 408C206 426 208 438 208 449C208 470 200 482 185 482C164 482 125 460 52 408Z" stroke="rgb(0,0,0)" stroke-opacity="1" stroke-width="8" fill="rgb(0,0,0)" fill-opacity="1"></path></g></g></g></g><line style="fill:none;stroke-width:0.99px;stroke:rgb(0, 0, 0);" x1="35.41998291015625" y1="173.67501282691956" x2="205.63998413085938" y2="173.67501282691956"></line></g></g><g><g><g transform="matrix(1,0,0,1,2,207.9700164794922)"><path transform="matrix(0.017,0,0,-0.017,0,0)" d="M345 437L329 437L350 549C366 635 394 673 440 673C470 673 497 658 512 634L522 638C527 654 537 685 545 705L550 720C534 727 503 733 480 733C469 733 453 730 445 726C421 715 339 654 316 630C294 608 282 578 271 521L256 442C215 422 195 414 170 405L165 383L246 383L237 327C207 132 170 -54 148 -123C130 -182 100 -213 64 -213C41 -213 30 -206 12 -184L-2 -188C-6 -211 -20 -259 -25 -268C-16 -273 -1 -276 10 -276C51 -276 105 -245 144 -198C215 -114 235 -18 319 383L423 383C427 402 434 425 440 439L436 446C407 439 408 437 345 437Z" stroke="rgb(0,0,0)" stroke-opacity="1" stroke-width="8" fill="rgb(0,0,0)" fill-opacity="1"></path></g></g><g><g><g><g><g transform="matrix(1,0,0,1,11.8699951171875,211.93001403808594)"><path transform="matrix(0.0119,0,0,-0.0119,0,0)" d="M24 388L31 368L63 389C100 412 103 414 110 414C121 414 128 404 128 389C128 338 87 145 46 2L53 -9C78 -2 101 4 123 8C142 134 163 199 209 268C263 352 338 414 383 414C394 414 400 405 400 390C400 372 397 351 389 319L337 107C328 70 324 47 324 31C324 6 335 -9 354 -9C380 -9 416 12 514 85L504 103L478 86C449 67 427 56 417 56C410 56 404 65 404 76C404 81 405 92 406 96L472 372C479 401 483 429 483 446C483 469 472 482 452 482C410 482 341 444 282 389C244 354 216 320 164 247L202 408C206 426 208 438 208 449C208 470 200 482 185 482C164 482 125 460 52 408Z" stroke="rgb(0,0,0)" stroke-opacity="1" stroke-width="8" fill="rgb(0,0,0)" fill-opacity="1"></path></g></g></g></g></g><g><g transform="matrix(1,0,0,1,22.894989013671875,207.9700164794922)"><path transform="matrix(0.017,0,0,-0.017,0,0)" d="M123 111C93 111 66 83 66 53C66 23 93 -5 122 -5C154 -5 182 22 182 53C182 83 154 111 123 111ZM123 456C93 456 66 428 66 398C66 368 93 340 122 340C154 340 182 367 182 397C182 428 154 456 123 456Z" stroke="rgb(0,0,0)" stroke-opacity="1" stroke-width="8" fill="rgb(0,0,0)" fill-opacity="1"></path></g></g><g><g transform="matrix(1,0,0,1,30.529998779296875,207.9700164794922)"><path transform="matrix(0.017,0,0,-0.017,0,0)" d="M345 437L329 437L350 549C366 635 394 673 440 673C470 673 497 658 512 634L522 638C527 654 537 685 545 705L550 720C534 727 503 733 480 733C469 733 453 730 445 726C421 715 339 654 316 630C294 608 282 578 271 521L256 442C215 422 195 414 170 405L165 383L246 383L237 327C207 132 170 -54 148 -123C130 -182 100 -213 64 -213C41 -213 30 -206 12 -184L-2 -188C-6 -211 -20 -259 -25 -268C-16 -273 -1 -276 10 -276C51 -276 105 -245 144 -198C215 -114 235 -18 319 383L423 383C427 402 434 425 440 439L436 446C407 439 408 437 345 437ZM918 365C921 403 926 435 934 476C923 481 919 482 914 482C883 482 852 458 816 407C777 351 738 291 722 256L754 408C758 425 760 438 760 450C760 470 752 482 737 482C716 482 678 461 604 408L576 388L583 368L615 389C643 407 654 412 663 412C673 412 680 403 680 390C680 332 637 126 597 -2L607 -9C622 -4 638 -1 661 4L674 6L700 126C718 209 741 262 785 319C819 363 846 384 868 384C883 384 893 379 904 365ZM1266 111L1242 94C1189 56 1141 36 1105 36C1058 36 1029 73 1029 133C1029 158 1032 185 1037 214C1054 218 1163 248 1188 259C1273 296 1312 342 1312 404C1312 451 1278 482 1228 482C1160 496 1050 423 1013 349C983 299 953 180 953 113C953 35 997 -11 1069 -11C1126 -11 1182 17 1274 92ZM1051 274C1068 343 1088 386 1117 412C1135 428 1166 440 1190 440C1219 440 1238 420 1238 388C1238 344 1203 297 1151 272C1123 258 1087 247 1042 237ZM1668 330L1691 330C1699 395 1706 432 1715 458C1691 473 1656 482 1619 482C1574 483 1501 463 1444 400C1390 352 1351 241 1351 136C1351 40 1393 -11 1473 -11C1527 -11 1575 9 1630 54L1680 95L1672 115L1657 105C1585 57 1547 40 1512 40C1456 40 1427 80 1427 159C1427 267 1462 371 1511 409C1532 425 1556 433 1587 433C1632 433 1668 414 1668 390ZM2224 473L2217 482L2149 465L2139 414C2124 336 2099 268 2068 221C2009 130 1931 59 1891 59C1883 59 1878 68 1878 85C1878 99 1880 112 1885 137L1942 408C1945 424 1947 438 1947 451C1947 470 1938 482 1924 482C1904 482 1866 461 1792 408L1764 388L1771 368L1803 389C1831 407 1842 412 1851 412C1860 412 1868 403 1868 392C1868 388 1867 378 1866 374L1803 77C1801 68 1799 44 1799 30C1799 7 1814 -11 1834 -11C1897 -11 2018 101 2102 239L2065 97C2058 73 2054 46 2054 31C2054 6 2065 -9 2084 -9C2110 -9 2146 12 2244 85L2234 103L2208 86C2184 70 2158 59 2147 59C2139 59 2134 66 2134 76C2134 112 2209 416 2224 473ZM2615 111L2591 94C2538 56 2490 36 2454 36C2407 36 2378 73 2378 133C2378 158 2381 185 2386 214C2403 218 2512 248 2537 259C2622 296 2661 342 2661 404C2661 451 2627 482 2577 482C2509 496 2399 423 2362 349C2332 299 2302 180 2302 113C2302 35 2346 -11 2418 -11C2475 -11 2531 17 2623 92ZM2400 274C2417 343 2437 386 2466 412C2484 428 2515 440 2539 440C2568 440 2587 420 2587 388C2587 344 2552 297 2500 272C2472 258 2436 247 2391 237ZM2699 388L2706 368L2738 389C2775 412 2778 414 2785 414C2796 414 2803 404 2803 389C2803 338 2762 145 2721 2L2728 -9C2753 -2 2776 4 2798 8C2817 134 2838 199 2884 268C2938 352 3013 414 3058 414C3069 414 3075 405 3075 390C3075 372 3072 351 3064 319L3012 107C3003 70 2999 47 2999 31C2999 6 3010 -9 3029 -9C3055 -9 3091 12 3189 85L3179 103L3153 86C3124 67 3102 56 3092 56C3085 56 3079 65 3079 76C3079 81 3080 92 3081 96L3147 372C3154 401 3158 429 3158 446C3158 469 3147 482 3127 482C3085 482 3016 444 2957 389C2919 354 2891 320 2839 247L2877 408C2881 426 2883 438 2883 449C2883 470 2875 482 2860 482C2839 482 2800 460 2727 408ZM3572 330L3595 330C3603 395 3610 432 3619 458C3595 473 3560 482 3523 482C3478 483 3405 463 3348 400C3294 352 3255 241 3255 136C3255 40 3297 -11 3377 -11C3431 -11 3479 9 3534 54L3584 95L3576 115L3561 105C3489 57 3451 40 3416 40C3360 40 3331 80 3331 159C3331 267 3366 371 3415 409C3436 425 3460 433 3491 433C3536 433 3572 414 3572 390ZM3670 388L3677 368L3709 389C3746 412 3749 414 3756 414C3766 414 3774 404 3774 391C3774 384 3770 361 3766 347L3700 107C3692 76 3687 49 3687 30C3687 6 3698 -9 3717 -9C3743 -9 3779 12 3877 85L3867 103L3841 86C3812 67 3789 56 3780 56C3773 56 3767 66 3767 76C3767 86 3769 95 3774 116L3851 420C3855 437 3857 448 3857 456C3857 473 3848 482 3832 482C3810 482 3773 461 3698 408ZM3864 712C3835 712 3806 679 3806 645C3806 620 3821 604 3845 604C3876 604 3900 633 3900 671C3900 695 3885 712 3864 712ZM4184 204L4155 77C4151 60 4149 42 4149 26C4149 4 4158 -9 4173 -9C4196 -9 4237 17 4319 85L4312 106C4288 86 4259 59 4237 59C4228 59 4222 68 4222 82C4222 87 4222 90 4223 93L4315 472L4305 481L4272 463C4231 478 4214 482 4187 482C4159 482 4139 477 4112 464C4050 433 4017 403 3992 354C3948 265 3917 145 3917 67C3917 23 3932 -11 3951 -11C3988 -11 4068 41 4184 204ZM4232 414C4210 305 4191 253 4157 201C4100 117 4039 59 4007 59C3995 59 3989 72 3989 99C3989 163 4017 280 4052 360C4076 415 4099 433 4147 433C4170 433 4188 429 4232 414ZM4876 204L4847 77C4843 60 4841 42 4841 26C4841 4 4850 -9 4865 -9C4888 -9 4929 17 5011 85L5004 106C4980 86 4951 59 4929 59C4920 59 4914 68 4914 82C4914 87 4914 90 4915 93L5007 472L4997 481L4964 463C4923 478 4906 482 4879 482C4851 482 4831 477 4804 464C4742 433 4709 403 4684 354C4640 265 4609 145 4609 67C4609 23 4624 -11 4643 -11C4680 -11 4760 41 4876 204ZM4924 414C4902 305 4883 253 4849 201C4792 117 4731 59 4699 59C4687 59 4681 72 4681 99C4681 163 4709 280 4744 360C4768 415 4791 433 4839 433C4862 433 4880 429 4924 414ZM5283 722L5271 733C5219 707 5183 698 5111 691L5107 670L5155 670C5179 670 5189 663 5189 646C5189 639 5188 628 5187 622L5086 71C5085 68 5085 64 5085 61C5085 22 5133 -11 5188 -11C5225 -11 5276 8 5319 39C5415 107 5481 244 5481 376C5481 414 5472 453 5460 468C5453 477 5440 482 5425 482C5401 482 5371 474 5343 460C5292 433 5259 403 5197 324ZM5370 424C5396 424 5409 401 5409 352C5409 288 5388 202 5358 137C5325 68 5285 36 5231 36C5185 36 5160 59 5160 101C5160 135 5175 276 5256 361C5289 395 5341 424 5370 424ZM5541 148C5536 97 5530 62 5519 16C5557 -2 5591 -11 5626 -11C5675 -11 5721 7 5772 47C5823 87 5844 124 5844 174C5844 228 5812 257 5738 271L5695 279C5635 290 5616 307 5616 348C5616 401 5661 442 5718 442C5759 442 5797 424 5813 397L5813 342L5836 342C5840 377 5844 404 5855 455C5816 474 5788 482 5755 482C5703 482 5642 452 5594 404C5568 377 5557 352 5557 316C5557 260 5588 228 5654 215L5717 203C5761 195 5777 177 5777 138C5777 73 5731 29 5660 29C5625 29 5594 40 5566 64L5566 148ZM5915 152C5915 46 5960 -11 6043 -11C6098 -11 6158 15 6203 57C6265 116 6309 230 6309 331C6309 425 6259 482 6176 482C6072 482 5915 382 5915 152ZM6139 444C6200 444 6233 399 6233 315C6233 219 6202 113 6158 60C6140 39 6114 27 6083 27C6025 27 5991 72 5991 151C5991 264 6030 387 6079 427C6092 438 6115 444 6139 444ZM6592 722L6580 733C6528 707 6492 698 6420 691L6416 670L6464 670C6488 670 6498 663 6498 648C6498 645 6498 640 6495 622C6484 567 6411 182 6396 132C6383 82 6377 52 6377 31C6377 6 6388 -9 6407 -9C6433 -9 6469 12 6567 85L6557 103L6531 86C6502 67 6480 56 6470 56C6463 56 6457 66 6457 76C6457 82 6458 89 6461 104ZM7110 473L7103 482L7035 465L7025 414C7010 336 6985 268 6954 221C6895 130 6817 59 6777 59C6769 59 6764 68 6764 85C6764 99 6766 112 6771 137L6828 408C6831 424 6833 438 6833 451C6833 470 6824 482 6810 482C6790 482 6752 461 6678 408L6650 388L6657 368L6689 389C6717 407 6728 412 6737 412C6746 412 6754 403 6754 392C6754 388 6753 378 6752 374L6689 77C6687 68 6685 44 6685 30C6685 7 6700 -11 6720 -11C6783 -11 6904 101 6988 239L6951 97C6944 73 6940 46 6940 31C6940 6 6951 -9 6970 -9C6996 -9 7032 12 7130 85L7120 103L7094 86C7070 70 7044 59 7033 59C7025 59 7020 66 7020 76C7020 112 7095 416 7110 473ZM7298 390L7242 107C7241 99 7229 61 7229 31C7229 6 7240 -9 7259 -9C7294 -9 7329 11 7407 74L7438 99L7428 117L7383 86C7354 66 7334 56 7323 56C7314 56 7309 64 7309 76C7309 102 7323 183 7352 328L7365 390L7472 390L7483 440C7445 436 7411 434 7373 434C7389 528 7400 577 7418 631L7407 646C7387 634 7360 622 7329 610L7304 440C7260 419 7234 408 7216 403L7214 390ZM7776 204L7747 77C7743 60 7741 42 7741 26C7741 4 7750 -9 7765 -9C7788 -9 7829 17 7911 85L7904 106C7880 86 7851 59 7829 59C7820 59 7814 68 7814 82C7814 87 7814 90 7815 93L7907 472L7897 481L7864 463C7823 478 7806 482 7779 482C7751 482 7731 477 7704 464C7642 433 7609 403 7584 354C7540 265 7509 145 7509 67C7509 23 7524 -11 7543 -11C7580 -11 7660 41 7776 204ZM7824 414C7802 305 7783 253 7749 201C7692 117 7631 59 7599 59C7587 59 7581 72 7581 99C7581 163 7609 280 7644 360C7668 415 7691 433 7739 433C7762 433 7780 429 7824 414ZM8680 722L8668 733C8616 707 8580 698 8508 691L8504 670L8552 670C8576 670 8586 663 8586 646C8586 638 8585 629 8584 622L8556 468C8526 477 8499 482 8474 482C8405 482 8311 410 8265 323C8234 265 8214 170 8214 86C8214 21 8229 -11 8258 -11C8285 -11 8322 6 8356 33C8410 77 8443 116 8510 217L8487 126C8476 82 8471 50 8471 24C8471 3 8480 -9 8497 -9C8514 -9 8538 3 8572 28L8653 88L8643 107L8599 76C8585 66 8569 59 8560 59C8552 59 8546 68 8546 82C8546 90 8547 99 8554 128ZM8311 59C8295 59 8286 73 8286 98C8286 224 8332 380 8381 418C8394 428 8413 433 8440 433C8484 433 8513 427 8546 410L8534 351C8497 171 8356 59 8311 59ZM9024 111L9000 94C8947 56 8899 36 8863 36C8816 36 8787 73 8787 133C8787 158 8790 185 8795 214C8812 218 8921 248 8946 259C9031 296 9070 342 9070 404C9070 451 9036 482 8986 482C8918 496 8808 423 8771 349C8741 299 8711 180 8711 113C8711 35 8755 -11 8827 -11C8884 -11 8940 17 9032 92ZM8809 274C8826 343 8846 386 8875 412C8893 428 8924 440 8948 440C8977 440 8996 420 8996 388C8996 344 8961 297 8909 272C8881 258 8845 247 8800 237ZM9335 722L9323 733C9271 707 9235 698 9163 691L9159 670L9207 670C9231 670 9241 663 9241 648C9241 645 9241 640 9238 622C9227 567 9154 182 9139 132C9126 82 9120 52 9120 31C9120 6 9131 -9 9150 -9C9176 -9 9212 12 9310 85L9300 103L9274 86C9245 67 9223 56 9213 56C9206 56 9200 66 9200 76C9200 82 9201 89 9204 104ZM10093 722L10081 733C10029 707 9993 698 9921 691L9917 670L9965 670C9989 670 9999 663 9999 646C9999 638 9998 629 9997 622L9969 468C9939 477 9912 482 9887 482C9818 482 9724 410 9678 323C9647 265 9627 170 9627 86C9627 21 9642 -11 9671 -11C9698 -11 9735 6 9769 33C9823 77 9856 116 9923 217L9900 126C9889 82 9884 50 9884 24C9884 3 9893 -9 9910 -9C9927 -9 9951 3 9985 28L10066 88L10056 107L10012 76C9998 66 9982 59 9973 59C9965 59 9959 68 9959 82C9959 90 9960 99 9967 128ZM9724 59C9708 59 9699 73 9699 98C9699 224 9745 380 9794 418C9807 428 9826 433 9853 433C9897 433 9926 427 9959 410L9947 351C9910 171 9769 59 9724 59ZM10380 204L10351 77C10347 60 10345 42 10345 26C10345 4 10354 -9 10369 -9C10392 -9 10433 17 10515 85L10508 106C10484 86 10455 59 10433 59C10424 59 10418 68 10418 82C10418 87 10418 90 10419 93L10511 472L10501 481L10468 463C10427 478 10410 482 10383 482C10355 482 10335 477 10308 464C10246 433 10213 403 10188 354C10144 265 10113 145 10113 67C10113 23 10128 -11 10147 -11C10184 -11 10264 41 10380 204ZM10428 414C10406 305 10387 253 10353 201C10296 117 10235 59 10203 59C10191 59 10185 72 10185 99C10185 163 10213 280 10248 360C10272 415 10295 433 10343 433C10366 433 10384 429 10428 414ZM10677 390L10621 107C10620 99 10608 61 10608 31C10608 6 10619 -9 10638 -9C10673 -9 10708 11 10786 74L10817 99L10807 117L10762 86C10733 66 10713 56 10702 56C10693 56 10688 64 10688 76C10688 102 10702 183 10731 328L10744 390L10851 390L10862 440C10824 436 10790 434 10752 434C10768 528 10779 577 10797 631L10786 646C10766 634 10739 622 10708 610L10683 440C10639 419 10613 408 10595 403L10593 390ZM10901 152C10901 46 10946 -11 11029 -11C11084 -11 11144 15 11189 57C11251 116 11295 230 11295 331C11295 425 11245 482 11162 482C11058 482 10901 382 10901 152ZM11125 444C11186 444 11219 399 11219 315C11219 219 11188 113 11144 60C11126 39 11100 27 11069 27C11011 27 10977 72 10977 151C10977 264 11016 387 11065 427C11078 438 11101 444 11125 444Z" stroke="rgb(0,0,0)" stroke-opacity="1" stroke-width="8" fill="rgb(0,0,0)" fill-opacity="1"></path></g></g></g><g></g><g><g><g transform="matrix(1,0,0,1,2,249.6699981689453)"><path transform="matrix(0.017,0,0,-0.017,0,0)" d="M567 55C567 39 552 30 524 28L480 25L480 -3C582 0 582 0 602 0C622 0 622 0 724 -3L724 25L698 28C651 35 650 35 642 80L555 705L509 705L136 112C100 56 82 40 48 32L28 27L28 -3C120 0 120 0 140 0C159 0 161 0 247 -3L247 25L195 28C179 29 164 38 164 47C164 55 171 69 190 102L292 277L538 277L563 89L563 86C563 84 567 69 567 55ZM496 601L533 313L317 313ZM1026 482C959 482 806 419 806 259C806 182 851 136 928 136C936 136 947 136 958 137L917 99C901 84 890 66 890 52C890 42 897 31 911 19C842 -4 714 -48 714 -159C714 -230 784 -276 893 -276C1022 -276 1135 -204 1135 -121C1135 -85 1114 -49 1071 -14L1011 35C977 62 964 81 964 100C964 114 979 128 991 146C1089 170 1160 253 1160 342C1160 357 1157 376 1156 380C1173 378 1181 378 1190 378C1207 378 1217 379 1240 382L1249 427L1246 433C1218 426 1198 424 1144 424C1144 425 1120 482 1026 482ZM927 1L1004 -58C1050 -94 1069 -121 1069 -154C1069 -206 1000 -248 917 -248C835 -248 778 -206 778 -145C778 -43 888 -11 927 1ZM1001 448C1059 448 1088 412 1088 341C1088 238 1040 168 970 168C909 168 877 209 877 288C877 383 928 448 1001 448ZM1618 365C1621 403 1626 435 1634 476C1623 481 1619 482 1614 482C1583 482 1552 458 1516 407C1477 351 1438 291 1422 256L1454 408C1458 425 1460 438 1460 450C1460 470 1452 482 1437 482C1416 482 1378 461 1304 408L1276 388L1283 368L1315 389C1343 407 1354 412 1363 412C1373 412 1380 403 1380 390C1380 332 1337 126 1297 -2L1307 -9C1322 -4 1338 -1 1361 4L1374 6L1400 126C1418 209 1441 262 1485 319C1519 363 1546 384 1568 384C1583 384 1593 379 1604 365ZM2130 473L2123 482L2055 465L2045 414C2030 336 2005 268 1974 221C1915 130 1837 59 1797 59C1789 59 1784 68 1784 85C1784 99 1786 112 1791 137L1848 408C1851 424 1853 438 1853 451C1853 470 1844 482 1830 482C1810 482 1772 461 1698 408L1670 388L1677 368L1709 389C1737 407 1748 412 1757 412C1766 412 1774 403 1774 392C1774 388 1773 378 1772 374L1709 77C1707 68 1705 44 1705 30C1705 7 1720 -11 1740 -11C1803 -11 1924 101 2008 239L1971 97C1964 73 1960 46 1960 31C1960 6 1971 -9 1990 -9C2016 -9 2052 12 2150 85L2140 103L2114 86C2090 70 2064 59 2053 59C2045 59 2040 66 2040 76C2040 112 2115 416 2130 473ZM2369 -11C2425 -11 2540 62 2583 125C2624 186 2658 296 2658 371C2658 438 2635 482 2599 482C2557 482 2504 456 2452 409C2411 374 2391 348 2355 289L2379 408C2382 425 2384 440 2384 452C2384 471 2376 482 2362 482C2341 482 2303 461 2229 408L2201 388L2208 368L2240 389C2268 407 2279 412 2288 412C2298 412 2305 403 2305 389C2305 381 2303 361 2301 351L2243 8C2233 -52 2214 -143 2194 -233L2186 -270L2193 -276C2214 -269 2234 -264 2266 -259L2308 3C2329 -4 2351 -11 2369 -11ZM2336 165C2358 293 2465 424 2548 424C2574 424 2586 402 2586 356C2586 275 2546 156 2493 80C2473 51 2441 36 2400 36C2369 36 2344 43 2318 59ZM2963 204L2934 77C2930 60 2928 42 2928 26C2928 4 2937 -9 2952 -9C2975 -9 3016 17 3098 85L3091 106C3067 86 3038 59 3016 59C3007 59 3001 68 3001 82C3001 87 3001 90 3002 93L3094 472L3084 481L3051 463C3010 478 2993 482 2966 482C2938 482 2918 477 2891 464C2829 433 2796 403 2771 354C2727 265 2696 145 2696 67C2696 23 2711 -11 2730 -11C2767 -11 2847 41 2963 204ZM3011 414C2989 305 2970 253 2936 201C2879 117 2818 59 2786 59C2774 59 2768 72 2768 99C2768 163 2796 280 2831 360C2855 415 2878 433 2926 433C2949 433 2967 429 3011 414ZM3618 722L3606 733C3554 707 3518 698 3446 691L3442 670L3490 670C3514 670 3524 663 3524 646C3524 638 3523 629 3522 622L3494 468C3464 477 3437 482 3412 482C3343 482 3249 410 3203 323C3172 265 3152 170 3152 86C3152 21 3167 -11 3196 -11C3223 -11 3260 6 3294 33C3348 77 3381 116 3448 217L3425 126C3414 82 3409 50 3409 24C3409 3 3418 -9 3435 -9C3452 -9 3476 3 3510 28L3591 88L3581 107L3537 76C3523 66 3507 59 3498 59C3490 59 3484 68 3484 82C3484 90 3485 99 3492 128ZM3249 59C3233 59 3224 73 3224 98C3224 224 3270 380 3319 418C3332 428 3351 433 3378 433C3422 433 3451 427 3484 410L3472 351C3435 171 3294 59 3249 59ZM3651 152C3651 46 3696 -11 3779 -11C3834 -11 3894 15 3939 57C4001 116 4045 230 4045 331C4045 425 3995 482 3912 482C3808 482 3651 382 3651 152ZM3875 444C3936 444 3969 399 3969 315C3969 219 3938 113 3894 60C3876 39 3850 27 3819 27C3761 27 3727 72 3727 151C3727 264 3766 387 3815 427C3828 438 3851 444 3875 444ZM4108 148C4103 97 4097 62 4086 16C4124 -2 4158 -11 4193 -11C4242 -11 4288 7 4339 47C4390 87 4411 124 4411 174C4411 228 4379 257 4305 271L4262 279C4202 290 4183 307 4183 348C4183 401 4228 442 4285 442C4326 442 4364 424 4380 397L4380 342L4403 342C4407 377 4411 404 4422 455C4383 474 4355 482 4322 482C4270 482 4209 452 4161 404C4135 377 4124 352 4124 316C4124 260 4155 228 4221 215L4284 203C4328 195 4344 177 4344 138C4344 73 4298 29 4227 29C4192 29 4161 40 4133 64L4133 148ZM5042 111L5018 94C4965 56 4917 36 4881 36C4834 36 4805 73 4805 133C4805 158 4808 185 4813 214C4830 218 4939 248 4964 259C5049 296 5088 342 5088 404C5088 451 5054 482 5004 482C4936 496 4826 423 4789 349C4759 299 4729 180 4729 113C4729 35 4773 -11 4845 -11C4902 -11 4958 17 5050 92ZM4827 274C4844 343 4864 386 4893 412C4911 428 4942 440 4966 440C4995 440 5014 420 5014 388C5014 344 4979 297 4927 272C4899 258 4863 247 4818 237ZM5126 388L5133 368L5165 389C5202 412 5205 414 5212 414C5223 414 5230 404 5230 389C5230 338 5189 145 5148 2L5155 -9C5180 -2 5203 4 5225 8C5244 134 5265 199 5311 268C5365 352 5440 414 5485 414C5496 414 5502 405 5502 390C5502 372 5499 351 5491 319L5439 107C5430 70 5426 47 5426 31C5426 6 5437 -9 5456 -9C5482 -9 5518 12 5616 85L5606 103L5580 86C5551 67 5529 56 5519 56C5512 56 5506 65 5506 76C5506 81 5507 92 5508 96L5574 372C5581 401 5585 429 5585 446C5585 469 5574 482 5554 482C5512 482 5443 444 5384 389C5346 354 5318 320 5266 247L5304 408C5308 426 5310 438 5310 449C5310 470 5302 482 5287 482C5266 482 5227 460 5154 408ZM6009 664L6056 662C6080 661 6091 653 6091 636C6091 629 6085 576 6082 559L6010 125C5995 36 5992 31 5952 28L5916 25L5913 -3L5945 -3L6039 0L6133 -3L6165 -3L6168 25L6116 28C6090 30 6080 37 6080 57C6080 63 6081 74 6082 78L6171 613C6178 652 6183 657 6222 661L6257 664L6260 692L6154 689C6137 689 6119 689 6076 690L6012 692ZM6262 388L6269 368L6301 389C6338 412 6341 414 6348 414C6359 414 6366 404 6366 389C6366 338 6325 145 6284 2L6291 -9C6316 -2 6339 4 6361 8C6380 134 6401 199 6447 268C6501 352 6576 414 6621 414C6632 414 6638 405 6638 390C6638 372 6635 351 6627 319L6575 107C6566 70 6562 47 6562 31C6562 6 6573 -9 6592 -9C6618 -9 6654 12 6752 85L6742 103L6716 86C6687 67 6665 56 6655 56C6648 56 6642 65 6642 76C6642 81 6643 92 6644 96L6710 372C6717 401 6721 429 6721 446C6721 469 6710 482 6690 482C6648 482 6579 444 6520 389C6482 354 6454 320 6402 247L6440 408C6444 426 6446 438 6446 449C6446 470 6438 482 6423 482C6402 482 6363 460 6290 408ZM6918 390L6862 107C6861 99 6849 61 6849 31C6849 6 6860 -9 6879 -9C6914 -9 6949 11 7027 74L7058 99L7048 117L7003 86C6974 66 6954 56 6943 56C6934 56 6929 64 6929 76C6929 102 6943 183 6972 328L6985 390L7092 390L7103 440C7065 436 7031 434 6993 434C7009 528 7020 577 7038 631L7027 646C7007 634 6980 622 6949 610L6924 440C6880 419 6854 408 6836 403L6834 390ZM7453 111L7429 94C7376 56 7328 36 7292 36C7245 36 7216 73 7216 133C7216 158 7219 185 7224 214C7241 218 7350 248 7375 259C7460 296 7499 342 7499 404C7499 451 7465 482 7415 482C7347 496 7237 423 7200 349C7170 299 7140 180 7140 113C7140 35 7184 -11 7256 -11C7313 -11 7369 17 7461 92ZM7238 274C7255 343 7275 386 7304 412C7322 428 7353 440 7377 440C7406 440 7425 420 7425 388C7425 344 7390 297 7338 272C7310 258 7274 247 7229 237ZM7881 365C7884 403 7889 435 7897 476C7886 481 7882 482 7877 482C7846 482 7815 458 7779 407C7740 351 7701 291 7685 256L7717 408C7721 425 7723 438 7723 450C7723 470 7715 482 7700 482C7679 482 7641 461 7567 408L7539 388L7546 368L7578 389C7606 407 7617 412 7626 412C7636 412 7643 403 7643 390C7643 332 7600 126 7560 -2L7570 -9C7585 -4 7601 -1 7624 4L7637 6L7663 126C7681 209 7704 262 7748 319C7782 363 7809 384 7831 384C7846 384 7856 379 7867 365ZM8067 420C8088 420 8104 421 8130 424C8019 304 7977 221 7977 121C7977 44 8023 -11 8087 -11C8225 -11 8378 236 8378 384C8378 441 8352 482 8316 482C8303 482 8291 478 8283 470L8233 423L8244 404C8253 410 8262 413 8271 413C8298 413 8314 390 8314 350C8314 202 8217 39 8129 39C8080 39 8049 81 8049 146C8049 251 8088 342 8186 464L8176 482C8156 473 8143 470 8115 470C8087 470 8045 472 8016 475L8004 476C7998 477 7993 477 7992 477C7980 477 7971 475 7960 470C7946 443 7935 407 7922 352L7944 352L7961 394C7968 411 7988 422 8012 422C8045 422 8029 420 8067 420ZM8671 204L8642 77C8638 60 8636 42 8636 26C8636 4 8645 -9 8660 -9C8683 -9 8724 17 8806 85L8799 106C8775 86 8746 59 8724 59C8715 59 8709 68 8709 82C8709 87 8709 90 8710 93L8802 472L8792 481L8759 463C8718 478 8701 482 8674 482C8646 482 8626 477 8599 464C8537 433 8504 403 8479 354C8435 265 8404 145 8404 67C8404 23 8419 -11 8438 -11C8475 -11 8555 41 8671 204ZM8719 414C8697 305 8678 253 8644 201C8587 117 8526 59 8494 59C8482 59 8476 72 8476 99C8476 163 8504 280 8539 360C8563 415 8586 433 8634 433C8657 433 8675 429 8719 414ZM9094 722L9082 733C9030 707 8994 698 8922 691L8918 670L8966 670C8990 670 9000 663 9000 648C9000 645 9000 640 8997 622C8986 567 8913 182 8898 132C8885 82 8879 52 8879 31C8879 6 8890 -9 8909 -9C8935 -9 8971 12 9069 85L9059 103L9033 86C9004 67 8982 56 8972 56C8965 56 8959 66 8959 76C8959 82 8960 89 8963 104ZM9137 152C9137 46 9182 -11 9265 -11C9320 -11 9380 15 9425 57C9487 116 9531 230 9531 331C9531 425 9481 482 9398 482C9294 482 9137 382 9137 152ZM9361 444C9422 444 9455 399 9455 315C9455 219 9424 113 9380 60C9362 39 9336 27 9305 27C9247 27 9213 72 9213 151C9213 264 9252 387 9301 427C9314 438 9337 444 9361 444ZM9594 148C9589 97 9583 62 9572 16C9610 -2 9644 -11 9679 -11C9728 -11 9774 7 9825 47C9876 87 9897 124 9897 174C9897 228 9865 257 9791 271L9748 279C9688 290 9669 307 9669 348C9669 401 9714 442 9771 442C9812 442 9850 424 9866 397L9866 342L9889 342C9893 377 9897 404 9908 455C9869 474 9841 482 9808 482C9756 482 9695 452 9647 404C9621 377 9610 352 9610 316C9610 260 9641 228 9707 215L9770 203C9814 195 9830 177 9830 138C9830 73 9784 29 9713 29C9678 29 9647 40 9619 64L9619 148Z" stroke="rgb(0,0,0)" stroke-opacity="1" stroke-width="8" fill="rgb(0,0,0)" fill-opacity="1"></path></g></g></g><g><g><g><g><g><g transform="matrix(1,0,0,1,2.839996337890625,283.37501525878906)"><path transform="matrix(0.017,0,0,-0.017,0,0)" d="M9 1C24 -7 40 -11 52 -11C85 -11 124 18 155 65L231 182L242 113C255 28 278 -11 314 -11C336 -11 368 6 400 35L449 79L440 98C404 68 379 53 363 53C348 53 335 63 325 83C316 102 305 139 300 168L282 269L317 318C364 383 391 406 422 406C438 406 450 398 455 383L469 387L484 472C472 479 463 482 454 482C414 482 374 446 312 354L275 299L269 347C257 446 230 482 171 482C145 482 123 474 114 461L56 378L73 368C103 402 123 416 142 416C175 416 197 375 214 277L225 215L185 153C142 86 108 54 80 54C65 54 54 58 52 63L41 91L21 88C21 53 13 27 9 1Z" stroke="rgb(0,0,0)" stroke-opacity="1" stroke-width="8" fill="rgb(0,0,0)" fill-opacity="1"></path></g></g></g></g><svg xmlns="http://www.w3.org/2000/svg" x="2.839996337890625" y="269.3300018310547" height="6" width="8.49000072479248"><defs><clipPath id="ccp0.8605151104877815"><rect x="-0.5" y="-0.5" width="8.99000072479248" height="6.5"></rect></clipPath></defs><g clip-path="url(#ccp0.8605151104877815)"><svg xmlns="http://www.w3.org/2000/svg" x="0" y="0" height="20.15999984741211" width="16.9950008392334"><defs><clipPath id="ccp0.8689664523834331"><rect x="-0.5" y="-0.5" width="17.4950008392334" height="20.65999984741211"></rect></clipPath></defs><g clip-path="url(#ccp0.8689664523834331)"><g><g transform="matrix(1,0,0,1,0,17)"><path transform="matrix(0.017,0,0,-0.017,0,0)" d="M-877 790L1877 790L1877 850L-877 850Z" stroke="rgb(0,0,0)" stroke-opacity="1" stroke-width="8" fill="rgb(0,0,0)" fill-opacity="1"></path></g></g></g></svg></g></svg></g><g><g transform="matrix(1,0,0,1,17.269989013671875,283.37501525878906)"><path transform="matrix(0.017,0,0,-0.017,0,0)" d="M604 347L604 406L65 406L65 347ZM604 134L604 193L65 193L65 134Z" stroke="rgb(0,0,0)" stroke-opacity="1" stroke-width="8" fill="rgb(0,0,0)" fill-opacity="1"></path></g></g><g><g><g><g><g transform="matrix(1,0,0,1,35.41998291015625,269.8300018310547)"><path transform="matrix(0.017,0,0,-0.017,0,0)" d="M342 330L365 330C373 395 380 432 389 458C365 473 330 482 293 482C248 483 175 463 118 400C64 352 25 241 25 136C25 40 67 -11 147 -11C201 -11 249 9 304 54L354 95L346 115L331 105C259 57 221 40 186 40C130 40 101 80 101 159C101 267 136 371 185 409C206 425 230 433 261 433C306 433 342 414 342 390Z" stroke="rgb(0,0,0)" stroke-opacity="1" stroke-width="8" fill="rgb(0,0,0)" fill-opacity="1"></path></g></g><g><g><g><g><g transform="matrix(1,0,0,1,42.829986572265625,273.7899993896484)"><path transform="matrix(0.0119,0,0,-0.0119,0,0)" d="M418 -3L418 27L366 30C311 33 301 44 301 96L301 700L60 598L67 548L217 614L217 96C217 44 206 33 152 30L96 27L96 -3C250 0 250 0 261 0C292 0 402 -3 418 -3Z" stroke="rgb(0,0,0)" stroke-opacity="1" stroke-width="8" fill="rgb(0,0,0)" fill-opacity="1"></path></g></g></g></g></g><g><g transform="matrix(1,0,0,1,49.790008544921875,269.8300018310547)"><path transform="matrix(0.017,0,0,-0.017,0,0)" d="M345 437L329 437L350 549C366 635 394 673 440 673C470 673 497 658 512 634L522 638C527 654 537 685 545 705L550 720C534 727 503 733 480 733C469 733 453 730 445 726C421 715 339 654 316 630C294 608 282 578 271 521L256 442C215 422 195 414 170 405L165 383L246 383L237 327C207 132 170 -54 148 -123C130 -182 100 -213 64 -213C41 -213 30 -206 12 -184L-2 -188C-6 -211 -20 -259 -25 -268C-16 -273 -1 -276 10 -276C51 -276 105 -245 144 -198C215 -114 235 -18 319 383L423 383C427 402 434 425 440 439L436 446C407 439 408 437 345 437Z" stroke="rgb(0,0,0)" stroke-opacity="1" stroke-width="8" fill="rgb(0,0,0)" fill-opacity="1"></path></g></g><g><g><g><g><g transform="matrix(1,0,0,1,59.660003662109375,273.7899993896484)"><path transform="matrix(0.0119,0,0,-0.0119,0,0)" d="M418 -3L418 27L366 30C311 33 301 44 301 96L301 700L60 598L67 548L217 614L217 96C217 44 206 33 152 30L96 27L96 -3C250 0 250 0 261 0C292 0 402 -3 418 -3Z" stroke="rgb(0,0,0)" stroke-opacity="1" stroke-width="8" fill="rgb(0,0,0)" fill-opacity="1"></path></g></g></g></g></g><g><g transform="matrix(1,0,0,1,70.010009765625,269.8300018310547)"><path transform="matrix(0.017,0,0,-0.017,0,0)" d="M604 241L604 300L364 300L364 538L305 538L305 300L65 300L65 241L305 241L305 0L364 0L364 241Z" stroke="rgb(0,0,0)" stroke-opacity="1" stroke-width="8" fill="rgb(0,0,0)" fill-opacity="1"></path></g></g><g><g transform="matrix(1,0,0,1,84.7550048828125,269.8300018310547)"><path transform="matrix(0.017,0,0,-0.017,0,0)" d="M342 330L365 330C373 395 380 432 389 458C365 473 330 482 293 482C248 483 175 463 118 400C64 352 25 241 25 136C25 40 67 -11 147 -11C201 -11 249 9 304 54L354 95L346 115L331 105C259 57 221 40 186 40C130 40 101 80 101 159C101 267 136 371 185 409C206 425 230 433 261 433C306 433 342 414 342 390Z" stroke="rgb(0,0,0)" stroke-opacity="1" stroke-width="8" fill="rgb(0,0,0)" fill-opacity="1"></path></g></g><g><g><g><g><g transform="matrix(1,0,0,1,92.16500854492188,273.7899993896484)"><path transform="matrix(0.0119,0,0,-0.0119,0,0)" d="M16 23L16 -3C203 -3 203 0 239 0C275 0 275 -3 468 -3L468 82C353 77 307 81 122 77L304 270C401 373 431 428 431 503C431 618 353 689 226 689C154 689 105 669 56 619L39 483L68 483L81 529C97 587 133 612 200 612C286 612 341 558 341 473C341 398 299 324 186 204Z" stroke="rgb(0,0,0)" stroke-opacity="1" stroke-width="8" fill="rgb(0,0,0)" fill-opacity="1"></path></g></g></g></g></g><g><g transform="matrix(1,0,0,1,99.125,269.8300018310547)"><path transform="matrix(0.017,0,0,-0.017,0,0)" d="M345 437L329 437L350 549C366 635 394 673 440 673C470 673 497 658 512 634L522 638C527 654 537 685 545 705L550 720C534 727 503 733 480 733C469 733 453 730 445 726C421 715 339 654 316 630C294 608 282 578 271 521L256 442C215 422 195 414 170 405L165 383L246 383L237 327C207 132 170 -54 148 -123C130 -182 100 -213 64 -213C41 -213 30 -206 12 -184L-2 -188C-6 -211 -20 -259 -25 -268C-16 -273 -1 -276 10 -276C51 -276 105 -245 144 -198C215 -114 235 -18 319 383L423 383C427 402 434 425 440 439L436 446C407 439 408 437 345 437Z" stroke="rgb(0,0,0)" stroke-opacity="1" stroke-width="8" fill="rgb(0,0,0)" fill-opacity="1"></path></g></g><g><g><g><g><g transform="matrix(1,0,0,1,108.9949951171875,273.7899993896484)"><path transform="matrix(0.0119,0,0,-0.0119,0,0)" d="M16 23L16 -3C203 -3 203 0 239 0C275 0 275 -3 468 -3L468 82C353 77 307 81 122 77L304 270C401 373 431 428 431 503C431 618 353 689 226 689C154 689 105 669 56 619L39 483L68 483L81 529C97 587 133 612 200 612C286 612 341 558 341 473C341 398 299 324 186 204Z" stroke="rgb(0,0,0)" stroke-opacity="1" stroke-width="8" fill="rgb(0,0,0)" fill-opacity="1"></path></g></g></g></g></g><g><g transform="matrix(1,0,0,1,119.34500122070312,269.8300018310547)"><path transform="matrix(0.017,0,0,-0.017,0,0)" d="M604 241L604 300L364 300L364 538L305 538L305 300L65 300L65 241L305 241L305 0L364 0L364 241Z" stroke="rgb(0,0,0)" stroke-opacity="1" stroke-width="8" fill="rgb(0,0,0)" fill-opacity="1"></path></g></g><g><g transform="matrix(1,0,0,1,134.08999633789062,269.8300018310547)"><path transform="matrix(0.017,0,0,-0.017,0,0)" d="M124 111C94 111 67 83 67 53C67 23 94 -5 123 -5C155 -5 183 22 183 53C183 83 155 111 124 111ZM373 111C343 111 316 83 316 53C316 23 343 -5 372 -5C404 -5 432 22 432 53C432 83 404 111 373 111ZM622 111C592 111 565 83 565 53C565 23 592 -5 621 -5C653 -5 681 22 681 53C681 83 653 111 622 111Z" stroke="rgb(0,0,0)" stroke-opacity="1" stroke-width="8" fill="rgb(0,0,0)" fill-opacity="1"></path></g></g><g><g transform="matrix(1,0,0,1,153.57498168945312,269.8300018310547)"><path transform="matrix(0.017,0,0,-0.017,0,0)" d="M604 241L604 300L364 300L364 538L305 538L305 300L65 300L65 241L305 241L305 0L364 0L364 241Z" stroke="rgb(0,0,0)" stroke-opacity="1" stroke-width="8" fill="rgb(0,0,0)" fill-opacity="1"></path></g></g><g><g transform="matrix(1,0,0,1,168.31997680664062,269.8300018310547)"><path transform="matrix(0.017,0,0,-0.017,0,0)" d="M342 330L365 330C373 395 380 432 389 458C365 473 330 482 293 482C248 483 175 463 118 400C64 352 25 241 25 136C25 40 67 -11 147 -11C201 -11 249 9 304 54L354 95L346 115L331 105C259 57 221 40 186 40C130 40 101 80 101 159C101 267 136 371 185 409C206 425 230 433 261 433C306 433 342 414 342 390Z" stroke="rgb(0,0,0)" stroke-opacity="1" stroke-width="8" fill="rgb(0,0,0)" fill-opacity="1"></path></g></g><g><g><g><g><g transform="matrix(1,0,0,1,175.73001098632812,273.7899993896484)"><path transform="matrix(0.0119,0,0,-0.0119,0,0)" d="M24 388L31 368L63 389C100 412 103 414 110 414C121 414 128 404 128 389C128 338 87 145 46 2L53 -9C78 -2 101 4 123 8C142 134 163 199 209 268C263 352 338 414 383 414C394 414 400 405 400 390C400 372 397 351 389 319L337 107C328 70 324 47 324 31C324 6 335 -9 354 -9C380 -9 416 12 514 85L504 103L478 86C449 67 427 56 417 56C410 56 404 65 404 76C404 81 405 92 406 96L472 372C479 401 483 429 483 446C483 469 472 482 452 482C410 482 341 444 282 389C244 354 216 320 164 247L202 408C206 426 208 438 208 449C208 470 200 482 185 482C164 482 125 460 52 408Z" stroke="rgb(0,0,0)" stroke-opacity="1" stroke-width="8" fill="rgb(0,0,0)" fill-opacity="1"></path></g></g></g></g></g><g><g transform="matrix(1,0,0,1,183.36502075195312,269.8300018310547)"><path transform="matrix(0.017,0,0,-0.017,0,0)" d="M345 437L329 437L350 549C366 635 394 673 440 673C470 673 497 658 512 634L522 638C527 654 537 685 545 705L550 720C534 727 503 733 480 733C469 733 453 730 445 726C421 715 339 654 316 630C294 608 282 578 271 521L256 442C215 422 195 414 170 405L165 383L246 383L237 327C207 132 170 -54 148 -123C130 -182 100 -213 64 -213C41 -213 30 -206 12 -184L-2 -188C-6 -211 -20 -259 -25 -268C-16 -273 -1 -276 10 -276C51 -276 105 -245 144 -198C215 -114 235 -18 319 383L423 383C427 402 434 425 440 439L436 446C407 439 408 437 345 437Z" stroke="rgb(0,0,0)" stroke-opacity="1" stroke-width="8" fill="rgb(0,0,0)" fill-opacity="1"></path></g></g><g><g><g><g><g transform="matrix(1,0,0,1,193.23501586914062,273.7899993896484)"><path transform="matrix(0.0119,0,0,-0.0119,0,0)" d="M24 388L31 368L63 389C100 412 103 414 110 414C121 414 128 404 128 389C128 338 87 145 46 2L53 -9C78 -2 101 4 123 8C142 134 163 199 209 268C263 352 338 414 383 414C394 414 400 405 400 390C400 372 397 351 389 319L337 107C328 70 324 47 324 31C324 6 335 -9 354 -9C380 -9 416 12 514 85L504 103L478 86C449 67 427 56 417 56C410 56 404 65 404 76C404 81 405 92 406 96L472 372C479 401 483 429 483 446C483 469 472 482 452 482C410 482 341 444 282 389C244 354 216 320 164 247L202 408C206 426 208 438 208 449C208 470 200 482 185 482C164 482 125 460 52 408Z" stroke="rgb(0,0,0)" stroke-opacity="1" stroke-width="8" fill="rgb(0,0,0)" fill-opacity="1"></path></g></g></g></g></g></g></g><g><g><g><g transform="matrix(1,0,0,1,113.42001342773438,296.5449981689453)"><path transform="matrix(0.017,0,0,-0.017,0,0)" d="M24 388L31 368L63 389C100 412 103 414 110 414C121 414 128 404 128 389C128 338 87 145 46 2L53 -9C78 -2 101 4 123 8C142 134 163 199 209 268C263 352 338 414 383 414C394 414 400 405 400 390C400 372 397 351 389 319L337 107C328 70 324 47 324 31C324 6 335 -9 354 -9C380 -9 416 12 514 85L504 103L478 86C449 67 427 56 417 56C410 56 404 65 404 76C404 81 405 92 406 96L472 372C479 401 483 429 483 446C483 469 472 482 452 482C410 482 341 444 282 389C244 354 216 320 164 247L202 408C206 426 208 438 208 449C208 470 200 482 185 482C164 482 125 460 52 408Z" stroke="rgb(0,0,0)" stroke-opacity="1" stroke-width="8" fill="rgb(0,0,0)" fill-opacity="1"></path></g></g></g></g><line style="fill:none;stroke-width:0.99px;stroke:rgb(0, 0, 0);" x1="35.41998291015625" y1="279.40999817848206" x2="200.8699951171875" y2="279.40999817848206"></line></g></g><g><g><g transform="matrix(1,0,0,1,2,313.7050018310547)"><path transform="matrix(0.017,0,0,-0.017,0,0)" d="M342 330L365 330C373 395 380 432 389 458C365 473 330 482 293 482C248 483 175 463 118 400C64 352 25 241 25 136C25 40 67 -11 147 -11C201 -11 249 9 304 54L354 95L346 115L331 105C259 57 221 40 186 40C130 40 101 80 101 159C101 267 136 371 185 409C206 425 230 433 261 433C306 433 342 414 342 390Z" stroke="rgb(0,0,0)" stroke-opacity="1" stroke-width="8" fill="rgb(0,0,0)" fill-opacity="1"></path></g></g><g><g><g><g><g transform="matrix(1,0,0,1,9.410003662109375,317.6649993896484)"><path transform="matrix(0.0119,0,0,-0.0119,0,0)" d="M24 388L31 368L63 389C100 412 103 414 110 414C121 414 128 404 128 389C128 338 87 145 46 2L53 -9C78 -2 101 4 123 8C142 134 163 199 209 268C263 352 338 414 383 414C394 414 400 405 400 390C400 372 397 351 389 319L337 107C328 70 324 47 324 31C324 6 335 -9 354 -9C380 -9 416 12 514 85L504 103L478 86C449 67 427 56 417 56C410 56 404 65 404 76C404 81 405 92 406 96L472 372C479 401 483 429 483 446C483 469 472 482 452 482C410 482 341 444 282 389C244 354 216 320 164 247L202 408C206 426 208 438 208 449C208 470 200 482 185 482C164 482 125 460 52 408Z" stroke="rgb(0,0,0)" stroke-opacity="1" stroke-width="8" fill="rgb(0,0,0)" fill-opacity="1"></path></g></g></g></g></g><g><g transform="matrix(1,0,0,1,20.43499755859375,313.7050018310547)"><path transform="matrix(0.017,0,0,-0.017,0,0)" d="M123 111C93 111 66 83 66 53C66 23 93 -5 122 -5C154 -5 182 22 182 53C182 83 154 111 123 111ZM123 456C93 456 66 428 66 398C66 368 93 340 122 340C154 340 182 367 182 397C182 428 154 456 123 456Z" stroke="rgb(0,0,0)" stroke-opacity="1" stroke-width="8" fill="rgb(0,0,0)" fill-opacity="1"></path></g></g><g><g transform="matrix(1,0,0,1,28.07000732421875,313.7050018310547)"><path transform="matrix(0.017,0,0,-0.017,0,0)" d="M730 103L704 86C675 67 653 56 643 56C636 56 630 65 630 76C630 86 632 95 637 116L712 413C716 430 719 446 719 454C719 471 709 482 693 482C664 482 626 464 565 421C502 376 467 341 418 272L448 409C452 429 455 444 455 451C455 470 445 482 429 482C399 482 353 460 298 418C254 384 234 363 169 275L202 408C206 424 208 439 208 451C208 470 199 482 185 482C164 482 126 461 52 408L24 388L31 368C68 391 103 414 110 414C121 414 128 404 128 389C128 338 87 145 46 2L49 -9L117 6L139 108C163 219 190 278 245 338C287 384 332 414 360 414C367 414 371 406 371 393C371 358 349 244 308 69L292 2L297 -9L366 6L387 113C403 194 437 269 481 318C536 379 586 414 618 414C626 414 631 405 631 389C631 365 628 351 606 264C566 105 550 84 550 31C550 6 561 -9 580 -9C606 -9 642 12 740 85ZM1048 204L1019 77C1015 60 1013 42 1013 26C1013 4 1022 -9 1037 -9C1060 -9 1101 17 1183 85L1176 106C1152 86 1123 59 1101 59C1092 59 1086 68 1086 82C1086 87 1086 90 1087 93L1179 472L1169 481L1136 463C1095 478 1078 482 1051 482C1023 482 1003 477 976 464C914 433 881 403 856 354C812 265 781 145 781 67C781 23 796 -11 815 -11C852 -11 932 41 1048 204ZM1096 414C1074 305 1055 253 1021 201C964 117 903 59 871 59C859 59 853 72 853 99C853 163 881 280 916 360C940 415 963 433 1011 433C1034 433 1052 429 1096 414ZM1588 365C1591 403 1596 435 1604 476C1593 481 1589 482 1584 482C1553 482 1522 458 1486 407C1447 351 1408 291 1392 256L1424 408C1428 425 1430 438 1430 450C1430 470 1422 482 1407 482C1386 482 1348 461 1274 408L1246 388L1253 368L1285 389C1313 407 1324 412 1333 412C1343 412 1350 403 1350 390C1350 332 1307 126 1267 -2L1277 -9C1292 -4 1308 -1 1331 4L1344 6L1370 126C1388 209 1411 262 1455 319C1489 363 1516 384 1538 384C1553 384 1563 379 1574 365ZM1950 330L1973 330C1981 395 1988 432 1997 458C1973 473 1938 482 1901 482C1856 483 1783 463 1726 400C1672 352 1633 241 1633 136C1633 40 1675 -11 1755 -11C1809 -11 1857 9 1912 54L1962 95L1954 115L1939 105C1867 57 1829 40 1794 40C1738 40 1709 80 1709 159C1709 267 1744 371 1793 409C1814 425 1838 433 1869 433C1914 433 1950 414 1950 390ZM2285 204L2256 77C2252 60 2250 42 2250 26C2250 4 2259 -9 2274 -9C2297 -9 2338 17 2420 85L2413 106C2389 86 2360 59 2338 59C2329 59 2323 68 2323 82C2323 87 2323 90 2324 93L2416 472L2406 481L2373 463C2332 478 2315 482 2288 482C2260 482 2240 477 2213 464C2151 433 2118 403 2093 354C2049 265 2018 145 2018 67C2018 23 2033 -11 2052 -11C2089 -11 2169 41 2285 204ZM2333 414C2311 305 2292 253 2258 201C2201 117 2140 59 2108 59C2096 59 2090 72 2090 99C2090 163 2118 280 2153 360C2177 415 2200 433 2248 433C2271 433 2289 429 2333 414ZM3189 722L3177 733C3125 707 3089 698 3017 691L3013 670L3061 670C3085 670 3095 663 3095 646C3095 638 3094 629 3093 622L3065 468C3035 477 3008 482 2983 482C2914 482 2820 410 2774 323C2743 265 2723 170 2723 86C2723 21 2738 -11 2767 -11C2794 -11 2831 6 2865 33C2919 77 2952 116 3019 217L2996 126C2985 82 2980 50 2980 24C2980 3 2989 -9 3006 -9C3023 -9 3047 3 3081 28L3162 88L3152 107L3108 76C3094 66 3078 59 3069 59C3061 59 3055 68 3055 82C3055 90 3056 99 3063 128ZM2820 59C2804 59 2795 73 2795 98C2795 224 2841 380 2890 418C2903 428 2922 433 2949 433C2993 433 3022 427 3055 410L3043 351C3006 171 2865 59 2820 59ZM3533 111L3509 94C3456 56 3408 36 3372 36C3325 36 3296 73 3296 133C3296 158 3299 185 3304 214C3321 218 3430 248 3455 259C3540 296 3579 342 3579 404C3579 451 3545 482 3495 482C3427 496 3317 423 3280 349C3250 299 3220 180 3220 113C3220 35 3264 -11 3336 -11C3393 -11 3449 17 3541 92ZM3318 274C3335 343 3355 386 3384 412C3402 428 3433 440 3457 440C3486 440 3505 420 3505 388C3505 344 3470 297 3418 272C3390 258 3354 247 3309 237ZM4184 330L4207 330C4215 395 4222 432 4231 458C4207 473 4172 482 4135 482C4090 483 4017 463 3960 400C3906 352 3867 241 3867 136C3867 40 3909 -11 3989 -11C4043 -11 4091 9 4146 54L4196 95L4188 115L4173 105C4101 57 4063 40 4028 40C3972 40 3943 80 3943 159C3943 267 3978 371 4027 409C4048 425 4072 433 4103 433C4148 433 4184 414 4184 390ZM4499 722L4487 733C4435 707 4399 698 4327 691L4323 670L4371 670C4395 670 4405 663 4405 648C4405 645 4405 640 4402 622C4391 567 4318 182 4303 132C4290 82 4284 52 4284 31C4284 6 4295 -9 4314 -9C4340 -9 4376 12 4474 85L4464 103L4438 86C4409 67 4387 56 4377 56C4370 56 4364 66 4364 76C4364 82 4365 89 4368 104ZM4796 204L4767 77C4763 60 4761 42 4761 26C4761 4 4770 -9 4785 -9C4808 -9 4849 17 4931 85L4924 106C4900 86 4871 59 4849 59C4840 59 4834 68 4834 82C4834 87 4834 90 4835 93L4927 472L4917 481L4884 463C4843 478 4826 482 4799 482C4771 482 4751 477 4724 464C4662 433 4629 403 4604 354C4560 265 4529 145 4529 67C4529 23 4544 -11 4563 -11C4600 -11 4680 41 4796 204ZM4844 414C4822 305 4803 253 4769 201C4712 117 4651 59 4619 59C4607 59 4601 72 4601 99C4601 163 4629 280 4664 360C4688 415 4711 433 4759 433C4782 433 4800 429 4844 414ZM4999 148C4994 97 4988 62 4977 16C5015 -2 5049 -11 5084 -11C5133 -11 5179 7 5230 47C5281 87 5302 124 5302 174C5302 228 5270 257 5196 271L5153 279C5093 290 5074 307 5074 348C5074 401 5119 442 5176 442C5217 442 5255 424 5271 397L5271 342L5294 342C5298 377 5302 404 5313 455C5274 474 5246 482 5213 482C5161 482 5100 452 5052 404C5026 377 5015 352 5015 316C5015 260 5046 228 5112 215L5175 203C5219 195 5235 177 5235 138C5235 73 5189 29 5118 29C5083 29 5052 40 5024 64L5024 148ZM5684 111L5660 94C5607 56 5559 36 5523 36C5476 36 5447 73 5447 133C5447 158 5450 185 5455 214C5472 218 5581 248 5606 259C5691 296 5730 342 5730 404C5730 451 5696 482 5646 482C5578 496 5468 423 5431 349C5401 299 5371 180 5371 113C5371 35 5415 -11 5487 -11C5544 -11 5600 17 5692 92ZM5469 274C5486 343 5506 386 5535 412C5553 428 5584 440 5608 440C5637 440 5656 420 5656 388C5656 344 5621 297 5569 272C5541 258 5505 247 5460 237Z" stroke="rgb(0,0,0)" stroke-opacity="1" stroke-width="8" fill="rgb(0,0,0)" fill-opacity="1"></path></g></g></g></g></svg>