<svg xmlns="http://www.w3.org/2000/svg" xmlns:xlink="http://www.w3.org/1999/xlink" width="266.5150146484375" height="266.0950012207031" style="width:266.5150146484375px;height:266.0950012207031px;font-family:Asana-Math, Asana;background:#FFF;"><g><g><g><g transform="matrix(1,0,0,1,2,18.039993286132812)"><path transform="matrix(0.017,0,0,-0.017,0,0)" d="M434 653C511 653 565 639 621 603L621 519L648 519C653 576 661 619 675 665C592 695 535 706 466 706C374 706 301 683 229 632C112 548 50 424 50 274C50 87 159 -18 355 -18C412 -21 559 6 608 37C628 193 632 216 633 219C635 228 647 238 660 240L692 246L694 274C655 270 620 269 569 269C518 269 482 270 440 274L435 246L469 244C544 240 553 236 553 212C553 197 533 84 528 60C483 36 444 27 390 27C224 27 138 120 138 297C138 443 197 653 434 653ZM1049 111L1025 94C972 56 924 36 888 36C841 36 812 73 812 133C812 158 815 185 820 214C837 218 946 248 971 259C1056 296 1095 342 1095 404C1095 451 1061 482 1011 482C943 496 833 423 796 349C766 299 736 180 736 113C736 35 780 -11 852 -11C909 -11 965 17 1057 92ZM834 274C851 343 871 386 900 412C918 428 949 440 973 440C1002 440 1021 420 1021 388C1021 344 986 297 934 272C906 258 870 247 825 237ZM1133 388L1140 368L1172 389C1209 412 1212 414 1219 414C1230 414 1237 404 1237 389C1237 338 1196 145 1155 2L1162 -9C1187 -2 1210 4 1232 8C1251 134 1272 199 1318 268C1372 352 1447 414 1492 414C1503 414 1509 405 1509 390C1509 372 1506 351 1498 319L1446 107C1437 70 1433 47 1433 31C1433 6 1444 -9 1463 -9C1489 -9 1525 12 1623 85L1613 103L1587 86C1558 67 1536 56 1526 56C1519 56 1513 65 1513 76C1513 81 1514 92 1515 96L1581 372C1588 401 1592 429 1592 446C1592 469 1581 482 1561 482C1519 482 1450 444 1391 389C1353 354 1325 320 1273 247L1311 408C1315 426 1317 438 1317 449C1317 470 1309 482 1294 482C1273 482 1234 460 1161 408ZM1992 111L1968 94C1915 56 1867 36 1831 36C1784 36 1755 73 1755 133C1755 158 1758 185 1763 214C1780 218 1889 248 1914 259C1999 296 2038 342 2038 404C2038 451 2004 482 1954 482C1886 496 1776 423 1739 349C1709 299 1679 180 1679 113C1679 35 1723 -11 1795 -11C1852 -11 1908 17 2000 92ZM1777 274C1794 343 1814 386 1843 412C1861 428 1892 440 1916 440C1945 440 1964 420 1964 388C1964 344 1929 297 1877 272C1849 258 1813 247 1768 237ZM2420 365C2423 403 2428 435 2436 476C2425 481 2421 482 2416 482C2385 482 2354 458 2318 407C2279 351 2240 291 2224 256L2256 408C2260 425 2262 438 2262 450C2262 470 2254 482 2239 482C2218 482 2180 461 2106 408L2078 388L2085 368L2117 389C2145 407 2156 412 2165 412C2175 412 2182 403 2182 390C2182 332 2139 126 2099 -2L2109 -9C2124 -4 2140 -1 2163 4L2176 6L2202 126C2220 209 2243 262 2287 319C2321 363 2348 384 2370 384C2385 384 2395 379 2406 365ZM2711 204L2682 77C2678 60 2676 42 2676 26C2676 4 2685 -9 2700 -9C2723 -9 2764 17 2846 85L2839 106C2815 86 2786 59 2764 59C2755 59 2749 68 2749 82C2749 87 2749 90 2750 93L2842 472L2832 481L2799 463C2758 478 2741 482 2714 482C2686 482 2666 477 2639 464C2577 433 2544 403 2519 354C2475 265 2444 145 2444 67C2444 23 2459 -11 2478 -11C2515 -11 2595 41 2711 204ZM2759 414C2737 305 2718 253 2684 201C2627 117 2566 59 2534 59C2522 59 2516 72 2516 99C2516 163 2544 280 2579 360C2603 415 2626 433 2674 433C2697 433 2715 429 2759 414ZM3134 722L3122 733C3070 707 3034 698 2962 691L2958 670L3006 670C3030 670 3040 663 3040 648C3040 645 3040 640 3037 622C3026 567 2953 182 2938 132C2925 82 2919 52 2919 31C2919 6 2930 -9 2949 -9C2975 -9 3011 12 3109 85L3099 103L3073 86C3044 67 3022 56 3012 56C3005 56 2999 66 2999 76C2999 82 3000 89 3003 104Z" stroke="rgb(0,0,0)" stroke-opacity="1" stroke-width="8" fill="rgb(0,0,0)" fill-opacity="1"></path></g></g><g><g transform="matrix(1,0,0,1,59.92999267578125,19)"><path transform="matrix(0.017,0,0,-0.017,0,0)" d="M146 266C146 526 243 632 301 700L282 726C225 675 60 542 60 266C60 159 85 58 133 -32C168 -99 200 -138 282 -215L301 -194C255 -137 146 -15 146 266Z" stroke="rgb(0,0,0)" stroke-opacity="1" stroke-width="8" fill="rgb(0,0,0)" fill-opacity="1"></path></g></g><g><g transform="matrix(1,0,0,1,65.58499145507812,18.039993286132812)"><path transform="matrix(0.017,0,0,-0.017,0,0)" d="M105 664L160 662C184 661 195 653 195 635L112 125C95 34 94 31 54 28L13 25L9 -3L51 -2C92 -1 123 0 141 0C158 0 187 -1 227 -2L280 -3L283 25L218 28C192 29 182 37 182 58C182 67 183 74 186 93L284 648C320 654 336 656 355 656C457 656 506 612 506 519C506 411 434 323 346 323C324 323 304 328 267 342L269 311C306 293 326 288 355 288C484 288 594 405 594 541C594 642 531 695 412 692L108 692ZM627 152C627 46 672 -11 755 -11C810 -11 870 15 915 57C977 116 1021 230 1021 331C1021 425 971 482 888 482C784 482 627 382 627 152ZM851 444C912 444 945 399 945 315C945 219 914 113 870 60C852 39 826 27 795 27C737 27 703 72 703 151C703 264 742 387 791 427C804 438 827 444 851 444ZM1084 148C1079 97 1073 62 1062 16C1100 -2 1134 -11 1169 -11C1218 -11 1264 7 1315 47C1366 87 1387 124 1387 174C1387 228 1355 257 1281 271L1238 279C1178 290 1159 307 1159 348C1159 401 1204 442 1261 442C1302 442 1340 424 1356 397L1356 342L1379 342C1383 377 1387 404 1398 455C1359 474 1331 482 1298 482C1246 482 1185 452 1137 404C1111 377 1100 352 1100 316C1100 260 1131 228 1197 215L1260 203C1304 195 1320 177 1320 138C1320 73 1274 29 1203 29C1168 29 1137 40 1109 64L1109 148ZM1475 388L1482 368L1514 389C1551 412 1554 414 1561 414C1571 414 1579 404 1579 391C1579 384 1575 361 1571 347L1505 107C1497 76 1492 49 1492 30C1492 6 1503 -9 1522 -9C1548 -9 1584 12 1682 85L1672 103L1646 86C1617 67 1594 56 1585 56C1578 56 1572 66 1572 76C1572 86 1574 95 1579 116L1656 420C1660 437 1662 448 1662 456C1662 473 1653 482 1637 482C1615 482 1578 461 1503 408ZM1669 712C1640 712 1611 679 1611 645C1611 620 1626 604 1650 604C1681 604 1705 633 1705 671C1705 695 1690 712 1669 712ZM2060 330L2083 330C2091 395 2098 432 2107 458C2083 473 2048 482 2011 482C1966 483 1893 463 1836 400C1782 352 1743 241 1743 136C1743 40 1785 -11 1865 -11C1919 -11 1967 9 2022 54L2072 95L2064 115L2049 105C1977 57 1939 40 1904 40C1848 40 1819 80 1819 159C1819 267 1854 371 1903 409C1924 425 1948 433 1979 433C2024 433 2060 414 2060 390ZM2158 388L2165 368L2197 389C2234 412 2237 414 2244 414C2254 414 2262 404 2262 391C2262 384 2258 361 2254 347L2188 107C2180 76 2175 49 2175 30C2175 6 2186 -9 2205 -9C2231 -9 2267 12 2365 85L2355 103L2329 86C2300 67 2277 56 2268 56C2261 56 2255 66 2255 76C2255 86 2257 95 2262 116L2339 420C2343 437 2345 448 2345 456C2345 473 2336 482 2320 482C2298 482 2261 461 2186 408ZM2352 712C2323 712 2294 679 2294 645C2294 620 2309 604 2333 604C2364 604 2388 633 2388 671C2388 695 2373 712 2352 712ZM2680 469C2534 469 2433 366 2433 217C2433 76 2522 -20 2651 -20C2805 -20 2915 87 2915 237C2915 372 2817 469 2680 469ZM2662 436C2754 436 2822 336 2822 200C2822 85 2771 13 2690 13C2592 13 2526 109 2526 251C2526 371 2574 436 2662 436ZM2580 506L2620 506L2764 596C2797 617 2804 625 2804 643C2804 662 2790 677 2773 677C2758 677 2740 666 2718 644ZM2970 388L2977 368L3009 389C3046 412 3049 414 3056 414C3067 414 3074 404 3074 389C3074 338 3033 145 2992 2L2999 -9C3024 -2 3047 4 3069 8C3088 134 3109 199 3155 268C3209 352 3284 414 3329 414C3340 414 3346 405 3346 390C3346 372 3343 351 3335 319L3283 107C3274 70 3270 47 3270 31C3270 6 3281 -9 3300 -9C3326 -9 3362 12 3460 85L3450 103L3424 86C3395 67 3373 56 3363 56C3356 56 3350 65 3350 76C3350 81 3351 92 3352 96L3418 372C3425 401 3429 429 3429 446C3429 469 3418 482 3398 482C3356 482 3287 444 3228 389C3190 354 3162 320 3110 247L3148 408C3152 426 3154 438 3154 449C3154 470 3146 482 3131 482C3110 482 3071 460 2998 408Z" stroke="rgb(0,0,0)" stroke-opacity="1" stroke-width="8" fill="rgb(0,0,0)" fill-opacity="1"></path></g></g><g><g transform="matrix(1,0,0,1,125.07501220703125,19)"><path transform="matrix(0.017,0,0,-0.017,0,0)" d="M51 726L32 700C87 636 187 526 187 266C187 -10 83 -131 32 -194L51 -215C104 -165 273 -23 273 265C273 542 108 675 51 726Z" stroke="rgb(0,0,0)" stroke-opacity="1" stroke-width="8" fill="rgb(0,0,0)" fill-opacity="1"></path></g></g></g><g><g><g transform="matrix(1,0,0,1,2,50.36499786376953)"><path transform="matrix(0.017,0,0,-0.017,0,0)" d="M937 664L950 695C922 699 775 701 773 692L688 536L442 114L292 692C269 686 146 690 125 692L122 664L148 662C200 658 218 648 218 622C218 616 72 100 70 93C54 41 39 28 -16 23L-19 -3L20 -2C54 -1 79 0 93 0C107 0 133 -1 168 -2L203 -3L206 25L168 28C136 30 119 40 119 55C119 65 121 78 126 96L250 560L399 -18L422 -18L479 86L718 500L770 587L733 67C729 39 717 32 666 28L635 25L632 -3L679 -2C721 -1 751 0 766 0C782 0 812 -1 853 -2L899 -3L902 25L865 28C829 31 811 42 811 63L812 100L853 631C855 650 870 660 899 662ZM1281 111L1257 94C1204 56 1156 36 1120 36C1073 36 1044 73 1044 133C1044 158 1047 185 1052 214C1069 218 1178 248 1203 259C1288 296 1327 342 1327 404C1327 451 1293 482 1243 482C1175 496 1065 423 1028 349C998 299 968 180 968 113C968 35 1012 -11 1084 -11C1141 -11 1197 17 1289 92ZM1066 274C1083 343 1103 386 1132 412C1150 428 1181 440 1205 440C1234 440 1253 420 1253 388C1253 344 1218 297 1166 272C1138 258 1102 247 1057 237Z" stroke="rgb(0,0,0)" stroke-opacity="1" stroke-width="8" fill="rgb(0,0,0)" fill-opacity="1"></path></g></g><g><g transform="matrix(1,0,0,1,29.899993896484375,50.36499786376953)"><path transform="matrix(0.017,0,0,-0.017,0,0)" d="M604 347L604 406L65 406L65 347ZM604 134L604 193L65 193L65 134Z" stroke="rgb(0,0,0)" stroke-opacity="1" stroke-width="8" fill="rgb(0,0,0)" fill-opacity="1"></path></g></g><g><g><g><g><g transform="matrix(1,0,0,1,48.050018310546875,38.19999694824219)"><path transform="matrix(0.017,0,0,-0.017,0,0)" d="M24 388L31 368L63 389C100 412 103 414 110 414C121 414 128 404 128 389C128 338 87 145 46 2L53 -9C78 -2 101 4 123 8C142 134 163 199 209 268C263 352 338 414 383 414C394 414 400 405 400 390C400 372 397 351 389 319L337 107C328 70 324 47 324 31C324 6 335 -9 354 -9C380 -9 416 12 514 85L504 103L478 86C449 67 427 56 417 56C410 56 404 65 404 76C404 81 405 92 406 96L472 372C479 401 483 429 483 446C483 469 472 482 452 482C410 482 341 444 282 389C244 354 216 320 164 247L202 408C206 426 208 438 208 449C208 470 200 482 185 482C164 482 125 460 52 408Z" stroke="rgb(0,0,0)" stroke-opacity="1" stroke-width="8" fill="rgb(0,0,0)" fill-opacity="1"></path></g></g><g><g transform="matrix(1,0,0,1,60.875,38.19999694824219)"><path transform="matrix(0.017,0,0,-0.017,0,0)" d="M604 241L604 300L364 300L364 538L305 538L305 300L65 300L65 241L305 241L305 0L364 0L364 241Z" stroke="rgb(0,0,0)" stroke-opacity="1" stroke-width="8" fill="rgb(0,0,0)" fill-opacity="1"></path></g></g><g><g transform="matrix(1,0,0,1,75.6199951171875,38.19999694824219)"><path transform="matrix(0.017,0,0,-0.017,0,0)" d="M418 -3L418 27L366 30C311 33 301 44 301 96L301 700L60 598L67 548L217 614L217 96C217 44 206 33 152 30L96 27L96 -3C250 0 250 0 261 0C292 0 402 -3 418 -3Z" stroke="rgb(0,0,0)" stroke-opacity="1" stroke-width="8" fill="rgb(0,0,0)" fill-opacity="1"></path></g></g></g></g><g><g><g><g transform="matrix(1,0,0,1,61.834991455078125,63.535003662109375)"><path transform="matrix(0.017,0,0,-0.017,0,0)" d="M16 23L16 -3C203 -3 203 0 239 0C275 0 275 -3 468 -3L468 82C353 77 307 81 122 77L304 270C401 373 431 428 431 503C431 618 353 689 226 689C154 689 105 669 56 619L39 483L68 483L81 529C97 587 133 612 200 612C286 612 341 558 341 473C341 398 299 324 186 204Z" stroke="rgb(0,0,0)" stroke-opacity="1" stroke-width="8" fill="rgb(0,0,0)" fill-opacity="1"></path></g></g></g></g><line style="fill:none;stroke-width:0.99px;stroke:rgb(0, 0, 0);" x1="48.050018310546875" y1="46.40000367164612" x2="84.11001968383789" y2="46.40000367164612"></line></g></g><g><g><g transform="matrix(1,0,0,1,2,80.69499206542969)"><path transform="matrix(0.017,0,0,-0.017,0,0)" d="M24 388L31 368L63 389C100 412 103 414 110 414C121 414 128 404 128 389C128 338 87 145 46 2L53 -9C78 -2 101 4 123 8C142 134 163 199 209 268C263 352 338 414 383 414C394 414 400 405 400 390C400 372 397 351 389 319L337 107C328 70 324 47 324 31C324 6 335 -9 354 -9C380 -9 416 12 514 85L504 103L478 86C449 67 427 56 417 56C410 56 404 65 404 76C404 81 405 92 406 96L472 372C479 401 483 429 483 446C483 469 472 482 452 482C410 482 341 444 282 389C244 354 216 320 164 247L202 408C206 426 208 438 208 449C208 470 200 482 185 482C164 482 125 460 52 408Z" stroke="rgb(0,0,0)" stroke-opacity="1" stroke-width="8" fill="rgb(0,0,0)" fill-opacity="1"></path></g></g><g><g transform="matrix(1,0,0,1,14.82501220703125,80.69499206542969)"><path transform="matrix(0.017,0,0,-0.017,0,0)" d="M123 111C93 111 66 83 66 53C66 23 93 -5 122 -5C154 -5 182 22 182 53C182 83 154 111 123 111ZM123 456C93 456 66 428 66 398C66 368 93 340 122 340C154 340 182 367 182 397C182 428 154 456 123 456Z" stroke="rgb(0,0,0)" stroke-opacity="1" stroke-width="8" fill="rgb(0,0,0)" fill-opacity="1"></path></g></g><g><g transform="matrix(1,0,0,1,22.459991455078125,80.69499206542969)"><path transform="matrix(0.017,0,0,-0.017,0,0)" d="M125 390L69 107C68 99 56 61 56 31C56 6 67 -9 86 -9C121 -9 156 11 234 74L265 99L255 117L210 86C181 66 161 56 150 56C141 56 136 64 136 76C136 102 150 183 179 328L192 390L299 390L310 440C272 436 238 434 200 434C216 528 227 577 245 631L234 646C214 634 187 622 156 610L131 440C87 419 61 408 43 403L41 390ZM349 152C349 46 394 -11 477 -11C532 -11 592 15 637 57C699 116 743 230 743 331C743 425 693 482 610 482C506 482 349 382 349 152ZM573 444C634 444 667 399 667 315C667 219 636 113 592 60C574 39 548 27 517 27C459 27 425 72 425 151C425 264 464 387 513 427C526 438 549 444 573 444ZM900 390L844 107C843 99 831 61 831 31C831 6 842 -9 861 -9C896 -9 931 11 1009 74L1040 99L1030 117L985 86C956 66 936 56 925 56C916 56 911 64 911 76C911 102 925 183 954 328L967 390L1074 390L1085 440C1047 436 1013 434 975 434C991 528 1002 577 1020 631L1009 646C989 634 962 622 931 610L906 440C862 419 836 408 818 403L816 390ZM1378 204L1349 77C1345 60 1343 42 1343 26C1343 4 1352 -9 1367 -9C1390 -9 1431 17 1513 85L1506 106C1482 86 1453 59 1431 59C1422 59 1416 68 1416 82C1416 87 1416 90 1417 93L1509 472L1499 481L1466 463C1425 478 1408 482 1381 482C1353 482 1333 477 1306 464C1244 433 1211 403 1186 354C1142 265 1111 145 1111 67C1111 23 1126 -11 1145 -11C1182 -11 1262 41 1378 204ZM1426 414C1404 305 1385 253 1351 201C1294 117 1233 59 1201 59C1189 59 1183 72 1183 99C1183 163 1211 280 1246 360C1270 415 1293 433 1341 433C1364 433 1382 429 1426 414ZM1801 722L1789 733C1737 707 1701 698 1629 691L1625 670L1673 670C1697 670 1707 663 1707 648C1707 645 1707 640 1704 622C1693 567 1620 182 1605 132C1592 82 1586 52 1586 31C1586 6 1597 -9 1616 -9C1642 -9 1678 12 1776 85L1766 103L1740 86C1711 67 1689 56 1679 56C1672 56 1666 66 1666 76C1666 82 1667 89 1670 104ZM2559 722L2547 733C2495 707 2459 698 2387 691L2383 670L2431 670C2455 670 2465 663 2465 646C2465 638 2464 629 2463 622L2435 468C2405 477 2378 482 2353 482C2284 482 2190 410 2144 323C2113 265 2093 170 2093 86C2093 21 2108 -11 2137 -11C2164 -11 2201 6 2235 33C2289 77 2322 116 2389 217L2366 126C2355 82 2350 50 2350 24C2350 3 2359 -9 2376 -9C2393 -9 2417 3 2451 28L2532 88L2522 107L2478 76C2464 66 2448 59 2439 59C2431 59 2425 68 2425 82C2425 90 2426 99 2433 128ZM2190 59C2174 59 2165 73 2165 98C2165 224 2211 380 2260 418C2273 428 2292 433 2319 433C2363 433 2392 427 2425 410L2413 351C2376 171 2235 59 2190 59ZM2903 111L2879 94C2826 56 2778 36 2742 36C2695 36 2666 73 2666 133C2666 158 2669 185 2674 214C2691 218 2800 248 2825 259C2910 296 2949 342 2949 404C2949 451 2915 482 2865 482C2797 496 2687 423 2650 349C2620 299 2590 180 2590 113C2590 35 2634 -11 2706 -11C2763 -11 2819 17 2911 92ZM2688 274C2705 343 2725 386 2754 412C2772 428 2803 440 2827 440C2856 440 2875 420 2875 388C2875 344 2840 297 2788 272C2760 258 2724 247 2679 237ZM3695 722L3683 733C3631 707 3595 698 3523 691L3519 670L3567 670C3591 670 3601 663 3601 646C3601 638 3600 629 3599 622L3571 468C3541 477 3514 482 3489 482C3420 482 3326 410 3280 323C3249 265 3229 170 3229 86C3229 21 3244 -11 3273 -11C3300 -11 3337 6 3371 33C3425 77 3458 116 3525 217L3502 126C3491 82 3486 50 3486 24C3486 3 3495 -9 3512 -9C3529 -9 3553 3 3587 28L3668 88L3658 107L3614 76C3600 66 3584 59 3575 59C3567 59 3561 68 3561 82C3561 90 3562 99 3569 128ZM3326 59C3310 59 3301 73 3301 98C3301 224 3347 380 3396 418C3409 428 3428 433 3455 433C3499 433 3528 427 3561 410L3549 351C3512 171 3371 59 3326 59ZM3982 204L3953 77C3949 60 3947 42 3947 26C3947 4 3956 -9 3971 -9C3994 -9 4035 17 4117 85L4110 106C4086 86 4057 59 4035 59C4026 59 4020 68 4020 82C4020 87 4020 90 4021 93L4113 472L4103 481L4070 463C4029 478 4012 482 3985 482C3957 482 3937 477 3910 464C3848 433 3815 403 3790 354C3746 265 3715 145 3715 67C3715 23 3730 -11 3749 -11C3786 -11 3866 41 3982 204ZM4030 414C4008 305 3989 253 3955 201C3898 117 3837 59 3805 59C3793 59 3787 72 3787 99C3787 163 3815 280 3850 360C3874 415 3897 433 3945 433C3968 433 3986 429 4030 414ZM4279 390L4223 107C4222 99 4210 61 4210 31C4210 6 4221 -9 4240 -9C4275 -9 4310 11 4388 74L4419 99L4409 117L4364 86C4335 66 4315 56 4304 56C4295 56 4290 64 4290 76C4290 102 4304 183 4333 328L4346 390L4453 390L4464 440C4426 436 4392 434 4354 434C4370 528 4381 577 4399 631L4388 646C4368 634 4341 622 4310 610L4285 440C4241 419 4215 408 4197 403L4195 390ZM4503 152C4503 46 4548 -11 4631 -11C4686 -11 4746 15 4791 57C4853 116 4897 230 4897 331C4897 425 4847 482 4764 482C4660 482 4503 382 4503 152ZM4727 444C4788 444 4821 399 4821 315C4821 219 4790 113 4746 60C4728 39 4702 27 4671 27C4613 27 4579 72 4579 151C4579 264 4618 387 4667 427C4680 438 4703 444 4727 444ZM4960 148C4955 97 4949 62 4938 16C4976 -2 5010 -11 5045 -11C5094 -11 5140 7 5191 47C5242 87 5263 124 5263 174C5263 228 5231 257 5157 271L5114 279C5054 290 5035 307 5035 348C5035 401 5080 442 5137 442C5178 442 5216 424 5232 397L5232 342L5255 342C5259 377 5263 404 5274 455C5235 474 5207 482 5174 482C5122 482 5061 452 5013 404C4987 377 4976 352 4976 316C4976 260 5007 228 5073 215L5136 203C5180 195 5196 177 5196 138C5196 73 5150 29 5079 29C5044 29 5013 40 4985 64L4985 148Z" stroke="rgb(0,0,0)" stroke-opacity="1" stroke-width="8" fill="rgb(0,0,0)" fill-opacity="1"></path></g></g></g><g></g><g><g><g transform="matrix(1,0,0,1,2,121.01499938964844)"><path transform="matrix(0.017,0,0,-0.017,0,0)" d="M316 -3C388 -3 437 8 489 34C645 114 741 265 741 431C741 529 711 599 650 642C604 675 519 693 424 692L220 689L210 689C201 689 198 689 97 692L94 664L147 662C171 661 182 653 182 635C182 621 178 589 173 559L86 55C81 31 56 29 33 23L28 -3L121 0L176 0C211 0 282 -3 316 -3ZM384 655C566 655 649 579 649 415C649 225 549 41 329 41C285 41 236 46 168 56C168 68 169 75 172 93L268 650C291 650 349 655 384 655ZM1048 204L1019 77C1015 60 1013 42 1013 26C1013 4 1022 -9 1037 -9C1060 -9 1101 17 1183 85L1176 106C1152 86 1123 59 1101 59C1092 59 1086 68 1086 82C1086 87 1086 90 1087 93L1179 472L1169 481L1136 463C1095 478 1078 482 1051 482C1023 482 1003 477 976 464C914 433 881 403 856 354C812 265 781 145 781 67C781 23 796 -11 815 -11C852 -11 932 41 1048 204ZM1096 414C1074 305 1055 253 1021 201C964 117 903 59 871 59C859 59 853 72 853 99C853 163 881 280 916 360C940 415 963 433 1011 433C1034 433 1052 429 1096 414ZM1345 390L1289 107C1288 99 1276 61 1276 31C1276 6 1287 -9 1306 -9C1341 -9 1376 11 1454 74L1485 99L1475 117L1430 86C1401 66 1381 56 1370 56C1361 56 1356 64 1356 76C1356 102 1370 183 1399 328L1412 390L1519 390L1530 440C1492 436 1458 434 1420 434C1436 528 1447 577 1465 631L1454 646C1434 634 1407 622 1376 610L1351 440C1307 419 1281 408 1263 403L1261 390ZM1569 152C1569 46 1614 -11 1697 -11C1752 -11 1812 15 1857 57C1919 116 1963 230 1963 331C1963 425 1913 482 1830 482C1726 482 1569 382 1569 152ZM1793 444C1854 444 1887 399 1887 315C1887 219 1856 113 1812 60C1794 39 1768 27 1737 27C1679 27 1645 72 1645 151C1645 264 1684 387 1733 427C1746 438 1769 444 1793 444ZM2026 148C2021 97 2015 62 2004 16C2042 -2 2076 -11 2111 -11C2160 -11 2206 7 2257 47C2308 87 2329 124 2329 174C2329 228 2297 257 2223 271L2180 279C2120 290 2101 307 2101 348C2101 401 2146 442 2203 442C2244 442 2282 424 2298 397L2298 342L2321 342C2325 377 2329 404 2340 455C2301 474 2273 482 2240 482C2188 482 2127 452 2079 404C2053 377 2042 352 2042 316C2042 260 2073 228 2139 215L2202 203C2246 195 2262 177 2262 138C2262 73 2216 29 2145 29C2110 29 2079 40 2051 64L2051 148ZM3199 55C3199 39 3184 30 3156 28L3112 25L3112 -3C3214 0 3214 0 3234 0C3254 0 3254 0 3356 -3L3356 25L3330 28C3283 35 3282 35 3274 80L3187 705L3141 705L2768 112C2732 56 2714 40 2680 32L2660 27L2660 -3C2752 0 2752 0 2772 0C2791 0 2793 0 2879 -3L2879 25L2827 28C2811 29 2796 38 2796 47C2796 55 2803 69 2822 102L2924 277L3170 277L3195 89L3195 86C3195 84 3199 69 3199 55ZM3128 601L3165 313L2949 313ZM3658 482C3591 482 3438 419 3438 259C3438 182 3483 136 3560 136C3568 136 3579 136 3590 137L3549 99C3533 84 3522 66 3522 52C3522 42 3529 31 3543 19C3474 -4 3346 -48 3346 -159C3346 -230 3416 -276 3525 -276C3654 -276 3767 -204 3767 -121C3767 -85 3746 -49 3703 -14L3643 35C3609 62 3596 81 3596 100C3596 114 3611 128 3623 146C3721 170 3792 253 3792 342C3792 357 3789 376 3788 380C3805 378 3813 378 3822 378C3839 378 3849 379 3872 382L3881 427L3878 433C3850 426 3830 424 3776 424C3776 425 3752 482 3658 482ZM3559 1L3636 -58C3682 -94 3701 -121 3701 -154C3701 -206 3632 -248 3549 -248C3467 -248 3410 -206 3410 -145C3410 -43 3520 -11 3559 1ZM3633 448C3691 448 3720 412 3720 341C3720 238 3672 168 3602 168C3541 168 3509 209 3509 288C3509 383 3560 448 3633 448ZM4250 365C4253 403 4258 435 4266 476C4255 481 4251 482 4246 482C4215 482 4184 458 4148 407C4109 351 4070 291 4054 256L4086 408C4090 425 4092 438 4092 450C4092 470 4084 482 4069 482C4048 482 4010 461 3936 408L3908 388L3915 368L3947 389C3975 407 3986 412 3995 412C4005 412 4012 403 4012 390C4012 332 3969 126 3929 -2L3939 -9C3954 -4 3970 -1 3993 4L4006 6L4032 126C4050 209 4073 262 4117 319C4151 363 4178 384 4200 384C4215 384 4225 379 4236 365ZM4762 473L4755 482L4687 465L4677 414C4662 336 4637 268 4606 221C4547 130 4469 59 4429 59C4421 59 4416 68 4416 85C4416 99 4418 112 4423 137L4480 408C4483 424 4485 438 4485 451C4485 470 4476 482 4462 482C4442 482 4404 461 4330 408L4302 388L4309 368L4341 389C4369 407 4380 412 4389 412C4398 412 4406 403 4406 392C4406 388 4405 378 4404 374L4341 77C4339 68 4337 44 4337 30C4337 7 4352 -11 4372 -11C4435 -11 4556 101 4640 239L4603 97C4596 73 4592 46 4592 31C4592 6 4603 -9 4622 -9C4648 -9 4684 12 4782 85L4772 103L4746 86C4722 70 4696 59 4685 59C4677 59 4672 66 4672 76C4672 112 4747 416 4762 473ZM5001 -11C5057 -11 5172 62 5215 125C5256 186 5290 296 5290 371C5290 438 5267 482 5231 482C5189 482 5136 456 5084 409C5043 374 5023 348 4987 289L5011 408C5014 425 5016 440 5016 452C5016 471 5008 482 4994 482C4973 482 4935 461 4861 408L4833 388L4840 368L4872 389C4900 407 4911 412 4920 412C4930 412 4937 403 4937 389C4937 381 4935 361 4933 351L4875 8C4865 -52 4846 -143 4826 -233L4818 -270L4825 -276C4846 -269 4866 -264 4898 -259L4940 3C4961 -4 4983 -11 5001 -11ZM4968 165C4990 293 5097 424 5180 424C5206 424 5218 402 5218 356C5218 275 5178 156 5125 80C5105 51 5073 36 5032 36C5001 36 4976 43 4950 59ZM5595 204L5566 77C5562 60 5560 42 5560 26C5560 4 5569 -9 5584 -9C5607 -9 5648 17 5730 85L5723 106C5699 86 5670 59 5648 59C5639 59 5633 68 5633 82C5633 87 5633 90 5634 93L5726 472L5716 481L5683 463C5642 478 5625 482 5598 482C5570 482 5550 477 5523 464C5461 433 5428 403 5403 354C5359 265 5328 145 5328 67C5328 23 5343 -11 5362 -11C5399 -11 5479 41 5595 204ZM5643 414C5621 305 5602 253 5568 201C5511 117 5450 59 5418 59C5406 59 5400 72 5400 99C5400 163 5428 280 5463 360C5487 415 5510 433 5558 433C5581 433 5599 429 5643 414ZM6250 722L6238 733C6186 707 6150 698 6078 691L6074 670L6122 670C6146 670 6156 663 6156 646C6156 638 6155 629 6154 622L6126 468C6096 477 6069 482 6044 482C5975 482 5881 410 5835 323C5804 265 5784 170 5784 86C5784 21 5799 -11 5828 -11C5855 -11 5892 6 5926 33C5980 77 6013 116 6080 217L6057 126C6046 82 6041 50 6041 24C6041 3 6050 -9 6067 -9C6084 -9 6108 3 6142 28L6223 88L6213 107L6169 76C6155 66 6139 59 6130 59C6122 59 6116 68 6116 82C6116 90 6117 99 6124 128ZM5881 59C5865 59 5856 73 5856 98C5856 224 5902 380 5951 418C5964 428 5983 433 6010 433C6054 433 6083 427 6116 410L6104 351C6067 171 5926 59 5881 59ZM6283 152C6283 46 6328 -11 6411 -11C6466 -11 6526 15 6571 57C6633 116 6677 230 6677 331C6677 425 6627 482 6544 482C6440 482 6283 382 6283 152ZM6507 444C6568 444 6601 399 6601 315C6601 219 6570 113 6526 60C6508 39 6482 27 6451 27C6393 27 6359 72 6359 151C6359 264 6398 387 6447 427C6460 438 6483 444 6507 444ZM6740 148C6735 97 6729 62 6718 16C6756 -2 6790 -11 6825 -11C6874 -11 6920 7 6971 47C7022 87 7043 124 7043 174C7043 228 7011 257 6937 271L6894 279C6834 290 6815 307 6815 348C6815 401 6860 442 6917 442C6958 442 6996 424 7012 397L7012 342L7035 342C7039 377 7043 404 7054 455C7015 474 6987 482 6954 482C6902 482 6841 452 6793 404C6767 377 6756 352 6756 316C6756 260 6787 228 6853 215L6916 203C6960 195 6976 177 6976 138C6976 73 6930 29 6859 29C6824 29 6793 40 6765 64L6765 148Z" stroke="rgb(0,0,0)" stroke-opacity="1" stroke-width="8" fill="rgb(0,0,0)" fill-opacity="1"></path></g></g><g><g transform="matrix(1,0,0,1,126.83001708984375,121.97500610351562)"><path transform="matrix(0.017,0,0,-0.017,0,0)" d="M146 266C146 526 243 632 301 700L282 726C225 675 60 542 60 266C60 159 85 58 133 -32C168 -99 200 -138 282 -215L301 -194C255 -137 146 -15 146 266Z" stroke="rgb(0,0,0)" stroke-opacity="1" stroke-width="8" fill="rgb(0,0,0)" fill-opacity="1"></path></g></g><g><g transform="matrix(1,0,0,1,132.48501586914062,121.01499938964844)"><path transform="matrix(0.017,0,0,-0.017,0,0)" d="M221 334L338 334L470 330L489 375L485 382C404 378 344 376 266 376L229 376L276 646C308 647 391 650 413 650C475 650 516 641 517 626L525 537L549 537C552 601 559 651 570 689C549 691 519 692 501 692C498 692 487 692 463 691L343 690C334 689 160 691 150 691L105 692L102 664L156 662C180 661 191 653 191 635C191 621 187 589 182 559L95 55C91 37 79 30 35 23L30 -3L71 -2C102 -1 164 0 184 0L409 -3C423 -3 448 -2 481 -1L514 0L518 36C520 56 525 86 534 135L539 161L512 161L496 101C486 65 477 53 455 48C435 44 362 39 308 39C267 39 240 40 171 46ZM641 148C636 97 630 62 619 16C657 -2 691 -11 726 -11C775 -11 821 7 872 47C923 87 944 124 944 174C944 228 912 257 838 271L795 279C735 290 716 307 716 348C716 401 761 442 818 442C859 442 897 424 913 397L913 342L936 342C940 377 944 404 955 455C916 474 888 482 855 482C803 482 742 452 694 404C668 377 657 352 657 316C657 260 688 228 754 215L817 203C861 195 877 177 877 138C877 73 831 29 760 29C725 29 694 40 666 64L666 148ZM1123 390L1067 107C1066 99 1054 61 1054 31C1054 6 1065 -9 1084 -9C1119 -9 1154 11 1232 74L1263 99L1253 117L1208 86C1179 66 1159 56 1148 56C1139 56 1134 64 1134 76C1134 102 1148 183 1177 328L1190 390L1297 390L1308 440C1270 436 1236 434 1198 434C1214 528 1225 577 1243 631L1232 646C1212 634 1185 622 1154 610L1129 440C1085 419 1059 408 1041 403L1039 390ZM1364 388L1371 368L1403 389C1440 412 1443 414 1450 414C1460 414 1468 404 1468 391C1468 384 1464 361 1460 347L1394 107C1386 76 1381 49 1381 30C1381 6 1392 -9 1411 -9C1437 -9 1473 12 1571 85L1561 103L1535 86C1506 67 1483 56 1474 56C1467 56 1461 66 1461 76C1461 86 1463 95 1468 116L1545 420C1549 437 1551 448 1551 456C1551 473 1542 482 1526 482C1504 482 1467 461 1392 408ZM1558 712C1529 712 1500 679 1500 645C1500 620 1515 604 1539 604C1570 604 1594 633 1594 671C1594 695 1579 712 1558 712ZM2337 103L2311 86C2282 67 2260 56 2250 56C2243 56 2237 65 2237 76C2237 86 2239 95 2244 116L2319 413C2323 430 2326 446 2326 454C2326 471 2316 482 2300 482C2271 482 2233 464 2172 421C2109 376 2074 341 2025 272L2055 409C2059 429 2062 444 2062 451C2062 470 2052 482 2036 482C2006 482 1960 460 1905 418C1861 384 1841 363 1776 275L1809 408C1813 424 1815 439 1815 451C1815 470 1806 482 1792 482C1771 482 1733 461 1659 408L1631 388L1638 368C1675 391 1710 414 1717 414C1728 414 1735 404 1735 389C1735 338 1694 145 1653 2L1656 -9L1724 6L1746 108C1770 219 1797 278 1852 338C1894 384 1939 414 1967 414C1974 414 1978 406 1978 393C1978 358 1956 244 1915 69L1899 2L1904 -9L1973 6L1994 113C2010 194 2044 269 2088 318C2143 379 2193 414 2225 414C2233 414 2238 405 2238 389C2238 365 2235 351 2213 264C2173 105 2157 84 2157 31C2157 6 2168 -9 2187 -9C2213 -9 2249 12 2347 85ZM2655 204L2626 77C2622 60 2620 42 2620 26C2620 4 2629 -9 2644 -9C2667 -9 2708 17 2790 85L2783 106C2759 86 2730 59 2708 59C2699 59 2693 68 2693 82C2693 87 2693 90 2694 93L2786 472L2776 481L2743 463C2702 478 2685 482 2658 482C2630 482 2610 477 2583 464C2521 433 2488 403 2463 354C2419 265 2388 145 2388 67C2388 23 2403 -11 2422 -11C2459 -11 2539 41 2655 204ZM2703 414C2681 305 2662 253 2628 201C2571 117 2510 59 2478 59C2466 59 2460 72 2460 99C2460 163 2488 280 2523 360C2547 415 2570 433 2618 433C2641 433 2659 429 2703 414ZM3169 330L3192 330C3200 395 3207 432 3216 458C3192 473 3157 482 3120 482C3075 483 3002 463 2945 400C2891 352 2852 241 2852 136C2852 40 2894 -11 2974 -11C3028 -11 3076 9 3131 54L3181 95L3173 115L3158 105C3086 57 3048 40 3013 40C2957 40 2928 80 2928 159C2928 267 2963 371 3012 409C3033 425 3057 433 3088 433C3133 433 3169 414 3169 390ZM3267 388L3274 368L3306 389C3343 412 3346 414 3353 414C3363 414 3371 404 3371 391C3371 384 3367 361 3363 347L3297 107C3289 76 3284 49 3284 30C3284 6 3295 -9 3314 -9C3340 -9 3376 12 3474 85L3464 103L3438 86C3409 67 3386 56 3377 56C3370 56 3364 66 3364 76C3364 86 3366 95 3371 116L3448 420C3452 437 3454 448 3454 456C3454 473 3445 482 3429 482C3407 482 3370 461 3295 408ZM3461 712C3432 712 3403 679 3403 645C3403 620 3418 604 3442 604C3473 604 3497 633 3497 671C3497 695 3482 712 3461 712ZM3527 152C3527 46 3572 -11 3655 -11C3710 -11 3770 15 3815 57C3877 116 3921 230 3921 331C3921 425 3871 482 3788 482C3684 482 3527 382 3527 152ZM3751 444C3812 444 3845 399 3845 315C3845 219 3814 113 3770 60C3752 39 3726 27 3695 27C3637 27 3603 72 3603 151C3603 264 3642 387 3691 427C3704 438 3727 444 3751 444ZM3977 388L3984 368L4016 389C4053 412 4056 414 4063 414C4074 414 4081 404 4081 389C4081 338 4040 145 3999 2L4006 -9C4031 -2 4054 4 4076 8C4095 134 4116 199 4162 268C4216 352 4291 414 4336 414C4347 414 4353 405 4353 390C4353 372 4350 351 4342 319L4290 107C4281 70 4277 47 4277 31C4277 6 4288 -9 4307 -9C4333 -9 4369 12 4467 85L4457 103L4431 86C4402 67 4380 56 4370 56C4363 56 4357 65 4357 76C4357 81 4358 92 4359 96L4425 372C4432 401 4436 429 4436 446C4436 469 4425 482 4405 482C4363 482 4294 444 4235 389C4197 354 4169 320 4117 247L4155 408C4159 426 4161 438 4161 449C4161 470 4153 482 4138 482C4117 482 4078 460 4005 408Z" stroke="rgb(0,0,0)" stroke-opacity="1" stroke-width="8" fill="rgb(0,0,0)" fill-opacity="1"></path></g></g><g><g transform="matrix(1,0,0,1,209.08999633789062,121.97500610351562)"><path transform="matrix(0.017,0,0,-0.017,0,0)" d="M51 726L32 700C87 636 187 526 187 266C187 -10 83 -131 32 -194L51 -215C104 -165 273 -23 273 265C273 542 108 675 51 726Z" stroke="rgb(0,0,0)" stroke-opacity="1" stroke-width="8" fill="rgb(0,0,0)" fill-opacity="1"></path></g></g></g><g><g><g transform="matrix(1,0,0,1,2,160.64500427246094)"><path transform="matrix(0.017,0,0,-0.017,0,0)" d="M937 664L950 695C922 699 775 701 773 692L688 536L442 114L292 692C269 686 146 690 125 692L122 664L148 662C200 658 218 648 218 622C218 616 72 100 70 93C54 41 39 28 -16 23L-19 -3L20 -2C54 -1 79 0 93 0C107 0 133 -1 168 -2L203 -3L206 25L168 28C136 30 119 40 119 55C119 65 121 78 126 96L250 560L399 -18L422 -18L479 86L718 500L770 587L733 67C729 39 717 32 666 28L635 25L632 -3L679 -2C721 -1 751 0 766 0C782 0 812 -1 853 -2L899 -3L902 25L865 28C829 31 811 42 811 63L812 100L853 631C855 650 870 660 899 662ZM1281 111L1257 94C1204 56 1156 36 1120 36C1073 36 1044 73 1044 133C1044 158 1047 185 1052 214C1069 218 1178 248 1203 259C1288 296 1327 342 1327 404C1327 451 1293 482 1243 482C1175 496 1065 423 1028 349C998 299 968 180 968 113C968 35 1012 -11 1084 -11C1141 -11 1197 17 1289 92ZM1066 274C1083 343 1103 386 1132 412C1150 428 1181 440 1205 440C1234 440 1253 420 1253 388C1253 344 1218 297 1166 272C1138 258 1102 247 1057 237Z" stroke="rgb(0,0,0)" stroke-opacity="1" stroke-width="8" fill="rgb(0,0,0)" fill-opacity="1"></path></g></g><g><g transform="matrix(1,0,0,1,29.899993896484375,160.64500427246094)"><path transform="matrix(0.017,0,0,-0.017,0,0)" d="M604 347L604 406L65 406L65 347ZM604 134L604 193L65 193L65 134Z" stroke="rgb(0,0,0)" stroke-opacity="1" stroke-width="8" fill="rgb(0,0,0)" fill-opacity="1"></path></g></g><g><g transform="matrix(1,0,0,1,46.355010986328125,160.64500427246094)"><path transform="matrix(0.017,0,0,-0.017,0,0)" d="M349 664L352 692L238 689C222 689 204 689 161 690L97 692L94 664L141 662C165 661 176 653 176 635L81 55C77 37 65 30 21 23L16 -3L57 -2C88 -1 150 0 170 0C170 0 467 -1 467 -1C467 -1 500 0 500 0C499 25 510 103 523 165L492 165L475 103C466 71 457 54 448 49C435 44 371 39 304 39C255 39 228 40 162 46C165 64 256 605 256 613C263 651 270 658 307 661Z" stroke="rgb(0,0,0)" stroke-opacity="1" stroke-width="8" fill="rgb(0,0,0)" fill-opacity="1"></path></g></g><g><g><g><g><g transform="matrix(1,0,0,1,56.300018310546875,164.6050018310547)"><path transform="matrix(0.0119,0,0,-0.0119,0,0)" d="M34 388L41 368L73 389C110 412 113 414 120 414C130 414 138 404 138 391C138 384 134 361 130 347L64 107C56 76 51 49 51 30C51 6 62 -9 81 -9C107 -9 143 12 241 85L231 103L205 86C176 67 153 56 144 56C137 56 131 66 131 76C131 86 133 95 138 116L215 420C219 437 221 448 221 456C221 473 212 482 196 482C174 482 137 461 62 408ZM228 712C199 712 170 679 170 645C170 620 185 604 209 604C240 604 264 633 264 671C264 695 249 712 228 712Z" stroke="rgb(0,0,0)" stroke-opacity="1" stroke-width="8" fill="rgb(0,0,0)" fill-opacity="1"></path></g></g></g></g></g><g><g transform="matrix(1,0,0,1,64.010009765625,160.64500427246094)"><path transform="matrix(0.017,0,0,-0.017,0,0)" d="M604 241L604 300L364 300L364 538L305 538L305 300L65 300L65 241L305 241L305 0L364 0L364 241Z" stroke="rgb(0,0,0)" stroke-opacity="1" stroke-width="8" fill="rgb(0,0,0)" fill-opacity="1"></path></g></g><g><g><g><g><g><g><g><g transform="matrix(1,0,0,1,81.72500610351562,134.6750030517578)"><path transform="matrix(0.01275,0,0,-0.01275,0,0)" d="M24 388L31 368L63 389C100 412 103 414 110 414C121 414 128 404 128 389C128 338 87 145 46 2L53 -9C78 -2 101 4 123 8C142 134 163 199 209 268C263 352 338 414 383 414C394 414 400 405 400 390C400 372 397 351 389 319L337 107C328 70 324 47 324 31C324 6 335 -9 354 -9C380 -9 416 12 514 85L504 103L478 86C449 67 427 56 417 56C410 56 404 65 404 76C404 81 405 92 406 96L472 372C479 401 483 429 483 446C483 469 472 482 452 482C410 482 341 444 282 389C244 354 216 320 164 247L202 408C206 426 208 438 208 449C208 470 200 482 185 482C164 482 125 460 52 408Z" stroke="rgb(0,0,0)" stroke-opacity="1" stroke-width="8" fill="rgb(0,0,0)" fill-opacity="1"></path></g></g></g></g><g><g><g><g transform="matrix(1,0,0,1,82.07000732421875,150.74000549316406)"><path transform="matrix(0.01275,0,0,-0.01275,0,0)" d="M16 23L16 -3C203 -3 203 0 239 0C275 0 275 -3 468 -3L468 82C353 77 307 81 122 77L304 270C401 373 431 428 431 503C431 618 353 689 226 689C154 689 105 669 56 619L39 483L68 483L81 529C97 587 133 612 200 612C286 612 341 558 341 473C341 398 299 324 186 204Z" stroke="rgb(0,0,0)" stroke-opacity="1" stroke-width="8" fill="rgb(0,0,0)" fill-opacity="1"></path></g></g></g></g><line style="fill:none;stroke-width:0.99px;stroke:rgb(0, 0, 0);" x1="81.72500610351562" y1="139.1000006198883" x2="88.80500650405884" y2="139.1000006198883"></line></g><g><g transform="matrix(1,0,0,1,93.47000122070312,143.27500915527344)"><path transform="matrix(0.017,0,0,-0.017,0,0)" d="M555 243L555 299L51 299L51 243Z" stroke="rgb(0,0,0)" stroke-opacity="1" stroke-width="8" fill="rgb(0,0,0)" fill-opacity="1"></path></g></g><g><g transform="matrix(1,0,0,1,107.14999389648438,143.27500915527344)"><path transform="matrix(0.017,0,0,-0.017,0,0)" d="M286 646L392 650C454 650 494 641 495 626L503 537L527 537C530 600 537 651 548 689C526 691 498 692 481 692L440 691L275 689L246 689C221 689 181 690 143 691L94 692L91 664L147 662C171 661 182 652 182 635C182 621 178 589 173 559L98 125C81 33 81 32 40 28L4 25L0 -3L34 -2C74 -1 106 0 127 0C145 0 174 -1 213 -2L265 -3L268 25L204 28C177 29 168 37 168 57C168 63 169 74 170 78L206 301L323 301C350 301 381 300 429 298L455 297L474 342L470 349C389 345 329 343 251 343L214 343L260 614C263 630 264 635 269 646Z" stroke="rgb(0,0,0)" stroke-opacity="1" stroke-width="8" fill="rgb(0,0,0)" fill-opacity="1"></path></g></g><g><g><g><g><g transform="matrix(1,0,0,1,117.09500122070312,147.2350067138672)"><path transform="matrix(0.0119,0,0,-0.0119,0,0)" d="M34 388L41 368L73 389C110 412 113 414 120 414C130 414 138 404 138 391C138 384 134 361 130 347L64 107C56 76 51 49 51 30C51 6 62 -9 81 -9C107 -9 143 12 241 85L231 103L205 86C176 67 153 56 144 56C137 56 131 66 131 76C131 86 133 95 138 116L215 420C219 437 221 448 221 456C221 473 212 482 196 482C174 482 137 461 62 408ZM228 712C199 712 170 679 170 645C170 620 185 604 209 604C240 604 264 633 264 671C264 695 249 712 228 712ZM832 243L832 299L328 299L328 243ZM1300 -3L1300 27L1248 30C1193 33 1183 44 1183 96L1183 700L942 598L949 548L1099 614L1099 96C1099 44 1088 33 1034 30L978 27L978 -3C1132 0 1132 0 1143 0C1174 0 1284 -3 1300 -3Z" stroke="rgb(0,0,0)" stroke-opacity="1" stroke-width="8" fill="rgb(0,0,0)" fill-opacity="1"></path></g></g></g></g></g></g></g><g><g><g><g transform="matrix(1,0,0,1,100.39999389648438,173.81500244140625)"><path transform="matrix(0.017,0,0,-0.017,0,0)" d="M345 437L329 437L350 549C366 635 394 673 440 673C470 673 497 658 512 634L522 638C527 654 537 685 545 705L550 720C534 727 503 733 480 733C469 733 453 730 445 726C421 715 339 654 316 630C294 608 282 578 271 521L256 442C215 422 195 414 170 405L165 383L246 383L237 327C207 132 170 -54 148 -123C130 -182 100 -213 64 -213C41 -213 30 -206 12 -184L-2 -188C-6 -211 -20 -259 -25 -268C-16 -273 -1 -276 10 -276C51 -276 105 -245 144 -198C215 -114 235 -18 319 383L423 383C427 402 434 425 440 439L436 446C407 439 408 437 345 437Z" stroke="rgb(0,0,0)" stroke-opacity="1" stroke-width="8" fill="rgb(0,0,0)" fill-opacity="1"></path></g></g><g><g><g><g><g transform="matrix(1,0,0,1,110.27001953125,177.775)"><path transform="matrix(0.0119,0,0,-0.0119,0,0)" d="M34 388L41 368L73 389C110 412 113 414 120 414C130 414 138 404 138 391C138 384 134 361 130 347L64 107C56 76 51 49 51 30C51 6 62 -9 81 -9C107 -9 143 12 241 85L231 103L205 86C176 67 153 56 144 56C137 56 131 66 131 76C131 86 133 95 138 116L215 420C219 437 221 448 221 456C221 473 212 482 196 482C174 482 137 461 62 408ZM228 712C199 712 170 679 170 645C170 620 185 604 209 604C240 604 264 633 264 671C264 695 249 712 228 712Z" stroke="rgb(0,0,0)" stroke-opacity="1" stroke-width="8" fill="rgb(0,0,0)" fill-opacity="1"></path></g></g></g></g></g></g></g><line style="fill:none;stroke-width:0.99px;stroke:rgb(0, 0, 0);" x1="80.45001220703125" y1="156.680002450943" x2="134.55501556396484" y2="156.680002450943"></line></g><g><g transform="matrix(1,0,0,1,136.25,160.64500427246094)"><path transform="matrix(0.017,0,0,-0.017,0,0)" d="M417 267L286 213L281 204L317 153L327 153L433 241L451 99L461 95L529 121L529 131L461 253L599 233L608 241L608 303L602 307L463 283L532 408L529 423L467 442L458 438L432 295L337 393L327 393L283 341L286 331ZM1157 204L1128 77C1124 60 1122 42 1122 26C1122 4 1131 -9 1146 -9C1169 -9 1210 17 1292 85L1285 106C1261 86 1232 59 1210 59C1201 59 1195 68 1195 82C1195 87 1195 90 1196 93L1288 472L1278 481L1245 463C1204 478 1187 482 1160 482C1132 482 1112 477 1085 464C1023 433 990 403 965 354C921 265 890 145 890 67C890 23 905 -11 924 -11C961 -11 1041 41 1157 204ZM1205 414C1183 305 1164 253 1130 201C1073 117 1012 59 980 59C968 59 962 72 962 99C962 163 990 280 1025 360C1049 415 1072 433 1120 433C1143 433 1161 429 1205 414Z" stroke="rgb(0,0,0)" stroke-opacity="1" stroke-width="8" fill="rgb(0,0,0)" fill-opacity="1"></path></g></g></g><g><g><g transform="matrix(1,0,0,1,2,195.35499572753906)"><path transform="matrix(0.017,0,0,-0.017,0,0)" d="M349 664L352 692L238 689C222 689 204 689 161 690L97 692L94 664L141 662C165 661 176 653 176 635L81 55C77 37 65 30 21 23L16 -3L57 -2C88 -1 150 0 170 0C170 0 467 -1 467 -1C467 -1 500 0 500 0C499 25 510 103 523 165L492 165L475 103C466 71 457 54 448 49C435 44 371 39 304 39C255 39 228 40 162 46C165 64 256 605 256 613C263 651 270 658 307 661Z" stroke="rgb(0,0,0)" stroke-opacity="1" stroke-width="8" fill="rgb(0,0,0)" fill-opacity="1"></path></g></g><g><g><g><g><g transform="matrix(1,0,0,1,11.94500732421875,199.31499328613282)"><path transform="matrix(0.0119,0,0,-0.0119,0,0)" d="M34 388L41 368L73 389C110 412 113 414 120 414C130 414 138 404 138 391C138 384 134 361 130 347L64 107C56 76 51 49 51 30C51 6 62 -9 81 -9C107 -9 143 12 241 85L231 103L205 86C176 67 153 56 144 56C137 56 131 66 131 76C131 86 133 95 138 116L215 420C219 437 221 448 221 456C221 473 212 482 196 482C174 482 137 461 62 408ZM228 712C199 712 170 679 170 645C170 620 185 604 209 604C240 604 264 633 264 671C264 695 249 712 228 712Z" stroke="rgb(0,0,0)" stroke-opacity="1" stroke-width="8" fill="rgb(0,0,0)" fill-opacity="1"></path></g></g></g></g></g><g><g transform="matrix(1,0,0,1,19.654998779296875,195.35499572753906)"><path transform="matrix(0.017,0,0,-0.017,0,0)" d="M123 111C93 111 66 83 66 53C66 23 93 -5 122 -5C154 -5 182 22 182 53C182 83 154 111 123 111ZM123 456C93 456 66 428 66 398C66 368 93 340 122 340C154 340 182 367 182 397C182 428 154 456 123 456Z" stroke="rgb(0,0,0)" stroke-opacity="1" stroke-width="8" fill="rgb(0,0,0)" fill-opacity="1"></path></g></g><g><g transform="matrix(1,0,0,1,27.290008544921875,195.35499572753906)"><path transform="matrix(0.017,0,0,-0.017,0,0)" d="M349 664L352 692L238 689C222 689 204 689 161 690L97 692L94 664L141 662C165 661 176 653 176 635L81 55C77 37 65 30 21 23L16 -3L57 -2C88 -1 150 0 170 0C170 0 467 -1 467 -1C467 -1 500 0 500 0C499 25 510 103 523 165L492 165L475 103C466 71 457 54 448 49C435 44 371 39 304 39C255 39 228 40 162 46C165 64 256 605 256 613C263 651 270 658 307 661ZM589 388L596 368L628 389C665 412 668 414 675 414C685 414 693 404 693 391C693 384 689 361 685 347L619 107C611 76 606 49 606 30C606 6 617 -9 636 -9C662 -9 698 12 796 85L786 103L760 86C731 67 708 56 699 56C692 56 686 66 686 76C686 86 688 95 693 116L770 420C774 437 776 448 776 456C776 473 767 482 751 482C729 482 692 461 617 408ZM783 712C754 712 725 679 725 645C725 620 740 604 764 604C795 604 819 633 819 671C819 695 804 712 783 712ZM1562 103L1536 86C1507 67 1485 56 1475 56C1468 56 1462 65 1462 76C1462 86 1464 95 1469 116L1544 413C1548 430 1551 446 1551 454C1551 471 1541 482 1525 482C1496 482 1458 464 1397 421C1334 376 1299 341 1250 272L1280 409C1284 429 1287 444 1287 451C1287 470 1277 482 1261 482C1231 482 1185 460 1130 418C1086 384 1066 363 1001 275L1034 408C1038 424 1040 439 1040 451C1040 470 1031 482 1017 482C996 482 958 461 884 408L856 388L863 368C900 391 935 414 942 414C953 414 960 404 960 389C960 338 919 145 878 2L881 -9L949 6L971 108C995 219 1022 278 1077 338C1119 384 1164 414 1192 414C1199 414 1203 406 1203 393C1203 358 1181 244 1140 69L1124 2L1129 -9L1198 6L1219 113C1235 194 1269 269 1313 318C1368 379 1418 414 1450 414C1458 414 1463 405 1463 389C1463 365 1460 351 1438 264C1398 105 1382 84 1382 31C1382 6 1393 -9 1412 -9C1438 -9 1474 12 1572 85ZM1643 388L1650 368L1682 389C1719 412 1722 414 1729 414C1739 414 1747 404 1747 391C1747 384 1743 361 1739 347L1673 107C1665 76 1660 49 1660 30C1660 6 1671 -9 1690 -9C1716 -9 1752 12 1850 85L1840 103L1814 86C1785 67 1762 56 1753 56C1746 56 1740 66 1740 76C1740 86 1742 95 1747 116L1824 420C1828 437 1830 448 1830 456C1830 473 1821 482 1805 482C1783 482 1746 461 1671 408ZM1837 712C1808 712 1779 679 1779 645C1779 620 1794 604 1818 604C1849 604 1873 633 1873 671C1873 695 1858 712 1837 712ZM2011 390L1955 107C1954 99 1942 61 1942 31C1942 6 1953 -9 1972 -9C2007 -9 2042 11 2120 74L2151 99L2141 117L2096 86C2067 66 2047 56 2036 56C2027 56 2022 64 2022 76C2022 102 2036 183 2065 328L2078 390L2185 390L2196 440C2158 436 2124 434 2086 434C2102 528 2113 577 2131 631L2120 646C2100 634 2073 622 2042 610L2017 440C1973 419 1947 408 1929 403L1927 390ZM2546 111L2522 94C2469 56 2421 36 2385 36C2338 36 2309 73 2309 133C2309 158 2312 185 2317 214C2334 218 2443 248 2468 259C2553 296 2592 342 2592 404C2592 451 2558 482 2508 482C2440 496 2330 423 2293 349C2263 299 2233 180 2233 113C2233 35 2277 -11 2349 -11C2406 -11 2462 17 2554 92ZM2331 274C2348 343 2368 386 2397 412C2415 428 2446 440 2470 440C2499 440 2518 420 2518 388C2518 344 2483 297 2431 272C2403 258 2367 247 2322 237ZM2889 388L2896 368L2928 389C2965 412 2968 414 2975 414C2985 414 2993 404 2993 391C2993 384 2989 361 2985 347L2919 107C2911 76 2906 49 2906 30C2906 6 2917 -9 2936 -9C2962 -9 2998 12 3096 85L3086 103L3060 86C3031 67 3008 56 2999 56C2992 56 2986 66 2986 76C2986 86 2988 95 2993 116L3070 420C3074 437 3076 448 3076 456C3076 473 3067 482 3051 482C3029 482 2992 461 2917 408ZM3083 712C3054 712 3025 679 3025 645C3025 620 3040 604 3064 604C3095 604 3119 633 3119 671C3119 695 3104 712 3083 712ZM3156 388L3163 368L3195 389C3232 412 3235 414 3242 414C3253 414 3260 404 3260 389C3260 338 3219 145 3178 2L3185 -9C3210 -2 3233 4 3255 8C3274 134 3295 199 3341 268C3395 352 3470 414 3515 414C3526 414 3532 405 3532 390C3532 372 3529 351 3521 319L3469 107C3460 70 3456 47 3456 31C3456 6 3467 -9 3486 -9C3512 -9 3548 12 3646 85L3636 103L3610 86C3581 67 3559 56 3549 56C3542 56 3536 65 3536 76C3536 81 3537 92 3538 96L3604 372C3611 401 3615 429 3615 446C3615 469 3604 482 3584 482C3542 482 3473 444 3414 389C3376 354 3348 320 3296 247L3334 408C3338 426 3340 438 3340 449C3340 470 3332 482 3317 482C3296 482 3257 460 3184 408ZM4032 437L4016 437L4037 549C4053 635 4081 673 4127 673C4157 673 4184 658 4199 634L4209 638C4214 654 4224 685 4232 705L4237 720C4221 727 4190 733 4167 733C4156 733 4140 730 4132 726C4108 715 4026 654 4003 630C3981 608 3969 578 3958 521L3943 442C3902 422 3882 414 3857 405L3852 383L3933 383L3924 327C3894 132 3857 -54 3835 -123C3817 -182 3787 -213 3751 -213C3728 -213 3717 -206 3699 -184L3685 -188C3681 -211 3667 -259 3662 -268C3671 -273 3686 -276 3697 -276C3738 -276 3792 -245 3831 -198C3902 -114 3922 -18 4006 383L4110 383C4114 402 4121 425 4127 439L4123 446C4094 439 4095 437 4032 437ZM4565 111L4541 94C4488 56 4440 36 4404 36C4357 36 4328 73 4328 133C4328 158 4331 185 4336 214C4353 218 4462 248 4487 259C4572 296 4611 342 4611 404C4611 451 4577 482 4527 482C4459 496 4349 423 4312 349C4282 299 4252 180 4252 113C4252 35 4296 -11 4368 -11C4425 -11 4481 17 4573 92ZM4350 274C4367 343 4387 386 4416 412C4434 428 4465 440 4489 440C4518 440 4537 420 4537 388C4537 344 4502 297 4450 272C4422 258 4386 247 4341 237ZM4993 365C4996 403 5001 435 5009 476C4998 481 4994 482 4989 482C4958 482 4927 458 4891 407C4852 351 4813 291 4797 256L4829 408C4833 425 4835 438 4835 450C4835 470 4827 482 4812 482C4791 482 4753 461 4679 408L4651 388L4658 368L4690 389C4718 407 4729 412 4738 412C4748 412 4755 403 4755 390C4755 332 4712 126 4672 -2L4682 -9C4697 -4 4713 -1 4736 4L4749 6L4775 126C4793 209 4816 262 4860 319C4894 363 4921 384 4943 384C4958 384 4968 379 4979 365ZM5047 388L5054 368L5086 389C5123 412 5126 414 5133 414C5143 414 5151 404 5151 391C5151 384 5147 361 5143 347L5077 107C5069 76 5064 49 5064 30C5064 6 5075 -9 5094 -9C5120 -9 5156 12 5254 85L5244 103L5218 86C5189 67 5166 56 5157 56C5150 56 5144 66 5144 76C5144 86 5146 95 5151 116L5228 420C5232 437 5234 448 5234 456C5234 473 5225 482 5209 482C5187 482 5150 461 5075 408ZM5241 712C5212 712 5183 679 5183 645C5183 620 5198 604 5222 604C5253 604 5277 633 5277 671C5277 695 5262 712 5241 712ZM5307 152C5307 46 5352 -11 5435 -11C5490 -11 5550 15 5595 57C5657 116 5701 230 5701 331C5701 425 5651 482 5568 482C5464 482 5307 382 5307 152ZM5531 444C5592 444 5625 399 5625 315C5625 219 5594 113 5550 60C5532 39 5506 27 5475 27C5417 27 5383 72 5383 151C5383 264 5422 387 5471 427C5484 438 5507 444 5531 444ZM6101 365C6104 403 6109 435 6117 476C6106 481 6102 482 6097 482C6066 482 6035 458 5999 407C5960 351 5921 291 5905 256L5937 408C5941 425 5943 438 5943 450C5943 470 5935 482 5920 482C5899 482 5861 461 5787 408L5759 388L5766 368L5798 389C5826 407 5837 412 5846 412C5856 412 5863 403 5863 390C5863 332 5820 126 5780 -2L5790 -9C5805 -4 5821 -1 5844 4L5857 6L5883 126C5901 209 5924 262 5968 319C6002 363 6029 384 6051 384C6066 384 6076 379 6087 365ZM6853 722L6841 733C6789 707 6753 698 6681 691L6677 670L6725 670C6749 670 6759 663 6759 646C6759 638 6758 629 6757 622L6729 468C6699 477 6672 482 6647 482C6578 482 6484 410 6438 323C6407 265 6387 170 6387 86C6387 21 6402 -11 6431 -11C6458 -11 6495 6 6529 33C6583 77 6616 116 6683 217L6660 126C6649 82 6644 50 6644 24C6644 3 6653 -9 6670 -9C6687 -9 6711 3 6745 28L6826 88L6816 107L6772 76C6758 66 6742 59 6733 59C6725 59 6719 68 6719 82C6719 90 6720 99 6727 128ZM6484 59C6468 59 6459 73 6459 98C6459 224 6505 380 6554 418C6567 428 6586 433 6613 433C6657 433 6686 427 6719 410L6707 351C6670 171 6529 59 6484 59ZM7197 111L7173 94C7120 56 7072 36 7036 36C6989 36 6960 73 6960 133C6960 158 6963 185 6968 214C6985 218 7094 248 7119 259C7204 296 7243 342 7243 404C7243 451 7209 482 7159 482C7091 496 6981 423 6944 349C6914 299 6884 180 6884 113C6884 35 6928 -11 7000 -11C7057 -11 7113 17 7205 92ZM6982 274C6999 343 7019 386 7048 412C7066 428 7097 440 7121 440C7150 440 7169 420 7169 388C7169 344 7134 297 7082 272C7054 258 7018 247 6973 237ZM7508 722L7496 733C7444 707 7408 698 7336 691L7332 670L7380 670C7404 670 7414 663 7414 648C7414 645 7414 640 7411 622C7400 567 7327 182 7312 132C7299 82 7293 52 7293 31C7293 6 7304 -9 7323 -9C7349 -9 7385 12 7483 85L7473 103L7447 86C7418 67 7396 56 7386 56C7379 56 7373 66 7373 76C7373 82 7374 89 7377 104ZM7817 388L7824 368L7856 389C7893 412 7896 414 7903 414C7913 414 7921 404 7921 391C7921 384 7917 361 7913 347L7847 107C7839 76 7834 49 7834 30C7834 6 7845 -9 7864 -9C7890 -9 7926 12 8024 85L8014 103L7988 86C7959 67 7936 56 7927 56C7920 56 7914 66 7914 76C7914 86 7916 95 7921 116L7998 420C8002 437 8004 448 8004 456C8004 473 7995 482 7979 482C7957 482 7920 461 7845 408ZM8011 712C7982 712 7953 679 7953 645C7953 620 7968 604 7992 604C8023 604 8047 633 8047 671C8047 695 8032 712 8011 712ZM9039 103L9013 86C8984 67 8962 56 8952 56C8945 56 8939 65 8939 76C8939 86 8941 95 8946 116L9021 413C9025 430 9028 446 9028 454C9028 471 9018 482 9002 482C8973 482 8935 464 8874 421C8811 376 8776 341 8727 272L8757 409C8761 429 8764 444 8764 451C8764 470 8754 482 8738 482C8708 482 8662 460 8607 418C8563 384 8543 363 8478 275L8511 408C8515 424 8517 439 8517 451C8517 470 8508 482 8494 482C8473 482 8435 461 8361 408L8333 388L8340 368C8377 391 8412 414 8419 414C8430 414 8437 404 8437 389C8437 338 8396 145 8355 2L8358 -9L8426 6L8448 108C8472 219 8499 278 8554 338C8596 384 8641 414 8669 414C8676 414 8680 406 8680 393C8680 358 8658 244 8617 69L8601 2L8606 -9L8675 6L8696 113C8712 194 8746 269 8790 318C8845 379 8895 414 8927 414C8935 414 8940 405 8940 389C8940 365 8937 351 8915 264C8875 105 8859 84 8859 31C8859 6 8870 -9 8889 -9C8915 -9 8951 12 9049 85ZM9103 152C9103 46 9148 -11 9231 -11C9286 -11 9346 15 9391 57C9453 116 9497 230 9497 331C9497 425 9447 482 9364 482C9260 482 9103 382 9103 152ZM9327 444C9388 444 9421 399 9421 315C9421 219 9390 113 9346 60C9328 39 9302 27 9271 27C9213 27 9179 72 9179 151C9179 264 9218 387 9267 427C9280 438 9303 444 9327 444ZM10012 722L10000 733C9948 707 9912 698 9840 691L9836 670L9884 670C9908 670 9918 663 9918 646C9918 638 9917 629 9916 622L9888 468C9858 477 9831 482 9806 482C9737 482 9643 410 9597 323C9566 265 9546 170 9546 86C9546 21 9561 -11 9590 -11C9617 -11 9654 6 9688 33C9742 77 9775 116 9842 217L9819 126C9808 82 9803 50 9803 24C9803 3 9812 -9 9829 -9C9846 -9 9870 3 9904 28L9985 88L9975 107L9931 76C9917 66 9901 59 9892 59C9884 59 9878 68 9878 82C9878 90 9879 99 9886 128ZM9643 59C9627 59 9618 73 9618 98C9618 224 9664 380 9713 418C9726 428 9745 433 9772 433C9816 433 9845 427 9878 410L9866 351C9829 171 9688 59 9643 59ZM10299 204L10270 77C10266 60 10264 42 10264 26C10264 4 10273 -9 10288 -9C10311 -9 10352 17 10434 85L10427 106C10403 86 10374 59 10352 59C10343 59 10337 68 10337 82C10337 87 10337 90 10338 93L10430 472L10420 481L10387 463C10346 478 10329 482 10302 482C10274 482 10254 477 10227 464C10165 433 10132 403 10107 354C10063 265 10032 145 10032 67C10032 23 10047 -11 10066 -11C10103 -11 10183 41 10299 204ZM10347 414C10325 305 10306 253 10272 201C10215 117 10154 59 10122 59C10110 59 10104 72 10104 99C10104 163 10132 280 10167 360C10191 415 10214 433 10262 433C10285 433 10303 429 10347 414ZM10722 722L10710 733C10658 707 10622 698 10550 691L10546 670L10594 670C10618 670 10628 663 10628 648C10628 645 10628 640 10625 622C10614 567 10541 182 10526 132C10513 82 10507 52 10507 31C10507 6 10518 -9 10537 -9C10563 -9 10599 12 10697 85L10687 103L10661 86C10632 67 10610 56 10600 56C10593 56 10587 66 10587 76C10587 82 10588 89 10591 104Z" stroke="rgb(0,0,0)" stroke-opacity="1" stroke-width="8" fill="rgb(0,0,0)" fill-opacity="1"></path></g></g></g><g><g><g transform="matrix(1,0,0,1,2,216.89500427246094)"><path transform="matrix(0.017,0,0,-0.017,0,0)" d="M271 204L242 77C238 60 236 42 236 26C236 4 245 -9 260 -9C283 -9 324 17 406 85L399 106C375 86 346 59 324 59C315 59 309 68 309 82C309 87 309 90 310 93L402 472L392 481L359 463C318 478 301 482 274 482C246 482 226 477 199 464C137 433 104 403 79 354C35 265 4 145 4 67C4 23 19 -11 38 -11C75 -11 155 41 271 204ZM319 414C297 305 278 253 244 201C187 117 126 59 94 59C82 59 76 72 76 99C76 163 104 280 139 360C163 415 186 433 234 433C257 433 275 429 319 414Z" stroke="rgb(0,0,0)" stroke-opacity="1" stroke-width="8" fill="rgb(0,0,0)" fill-opacity="1"></path></g></g><g><g transform="matrix(1,0,0,1,12.920013427734375,216.89500427246094)"><path transform="matrix(0.017,0,0,-0.017,0,0)" d="M123 111C93 111 66 83 66 53C66 23 93 -5 122 -5C154 -5 182 22 182 53C182 83 154 111 123 111ZM123 456C93 456 66 428 66 398C66 368 93 340 122 340C154 340 182 367 182 397C182 428 154 456 123 456Z" stroke="rgb(0,0,0)" stroke-opacity="1" stroke-width="8" fill="rgb(0,0,0)" fill-opacity="1"></path></g></g><g><g transform="matrix(1,0,0,1,20.55499267578125,216.89500427246094)"><path transform="matrix(0.017,0,0,-0.017,0,0)" d="M567 55C567 39 552 30 524 28L480 25L480 -3C582 0 582 0 602 0C622 0 622 0 724 -3L724 25L698 28C651 35 650 35 642 80L555 705L509 705L136 112C100 56 82 40 48 32L28 27L28 -3C120 0 120 0 140 0C159 0 161 0 247 -3L247 25L195 28C179 29 164 38 164 47C164 55 171 69 190 102L292 277L538 277L563 89L563 86C563 84 567 69 567 55ZM496 601L533 313L317 313ZM1481 103L1455 86C1426 67 1404 56 1394 56C1387 56 1381 65 1381 76C1381 86 1383 95 1388 116L1463 413C1467 430 1470 446 1470 454C1470 471 1460 482 1444 482C1415 482 1377 464 1316 421C1253 376 1218 341 1169 272L1199 409C1203 429 1206 444 1206 451C1206 470 1196 482 1180 482C1150 482 1104 460 1049 418C1005 384 985 363 920 275L953 408C957 424 959 439 959 451C959 470 950 482 936 482C915 482 877 461 803 408L775 388L782 368C819 391 854 414 861 414C872 414 879 404 879 389C879 338 838 145 797 2L800 -9L868 6L890 108C914 219 941 278 996 338C1038 384 1083 414 1111 414C1118 414 1122 406 1122 393C1122 358 1100 244 1059 69L1043 2L1048 -9L1117 6L1138 113C1154 194 1188 269 1232 318C1287 379 1337 414 1369 414C1377 414 1382 405 1382 389C1382 365 1379 351 1357 264C1317 105 1301 84 1301 31C1301 6 1312 -9 1331 -9C1357 -9 1393 12 1491 85ZM1704 -11C1760 -11 1875 62 1918 125C1959 186 1993 296 1993 371C1993 438 1970 482 1934 482C1892 482 1839 456 1787 409C1746 374 1726 348 1690 289L1714 408C1717 425 1719 440 1719 452C1719 471 1711 482 1697 482C1676 482 1638 461 1564 408L1536 388L1543 368L1575 389C1603 407 1614 412 1623 412C1633 412 1640 403 1640 389C1640 381 1638 361 1636 351L1578 8C1568 -52 1549 -143 1529 -233L1521 -270L1528 -276C1549 -269 1569 -264 1601 -259L1643 3C1664 -4 1686 -11 1704 -11ZM1671 165C1693 293 1800 424 1883 424C1909 424 1921 402 1921 356C1921 275 1881 156 1828 80C1808 51 1776 36 1735 36C1704 36 1679 43 1653 59ZM2278 722L2266 733C2214 707 2178 698 2106 691L2102 670L2150 670C2174 670 2184 663 2184 648C2184 645 2184 640 2181 622C2170 567 2097 182 2082 132C2069 82 2063 52 2063 31C2063 6 2074 -9 2093 -9C2119 -9 2155 12 2253 85L2243 103L2217 86C2188 67 2166 56 2156 56C2149 56 2143 66 2143 76C2143 82 2144 89 2147 104ZM2338 388L2345 368L2377 389C2414 412 2417 414 2424 414C2434 414 2442 404 2442 391C2442 384 2438 361 2434 347L2368 107C2360 76 2355 49 2355 30C2355 6 2366 -9 2385 -9C2411 -9 2447 12 2545 85L2535 103L2509 86C2480 67 2457 56 2448 56C2441 56 2435 66 2435 76C2435 86 2437 95 2442 116L2519 420C2523 437 2525 448 2525 456C2525 473 2516 482 2500 482C2478 482 2441 461 2366 408ZM2532 712C2503 712 2474 679 2474 645C2474 620 2489 604 2513 604C2544 604 2568 633 2568 671C2568 695 2553 712 2532 712ZM2706 390L2650 107C2649 99 2637 61 2637 31C2637 6 2648 -9 2667 -9C2702 -9 2737 11 2815 74L2846 99L2836 117L2791 86C2762 66 2742 56 2731 56C2722 56 2717 64 2717 76C2717 102 2731 183 2760 328L2773 390L2880 390L2891 440C2853 436 2819 434 2781 434C2797 528 2808 577 2826 631L2815 646C2795 634 2768 622 2737 610L2712 440C2668 419 2642 408 2624 403L2622 390ZM3405 473L3398 482L3330 465L3320 414C3305 336 3280 268 3249 221C3190 130 3112 59 3072 59C3064 59 3059 68 3059 85C3059 99 3061 112 3066 137L3123 408C3126 424 3128 438 3128 451C3128 470 3119 482 3105 482C3085 482 3047 461 2973 408L2945 388L2952 368L2984 389C3012 407 3023 412 3032 412C3041 412 3049 403 3049 392C3049 388 3048 378 3047 374L2984 77C2982 68 2980 44 2980 30C2980 7 2995 -11 3015 -11C3078 -11 3199 101 3283 239L3246 97C3239 73 3235 46 3235 31C3235 6 3246 -9 3265 -9C3291 -9 3327 12 3425 85L3415 103L3389 86C3365 70 3339 59 3328 59C3320 59 3315 66 3315 76C3315 112 3390 416 3405 473ZM3951 722L3939 733C3887 707 3851 698 3779 691L3775 670L3823 670C3847 670 3857 663 3857 646C3857 638 3856 629 3855 622L3827 468C3797 477 3770 482 3745 482C3676 482 3582 410 3536 323C3505 265 3485 170 3485 86C3485 21 3500 -11 3529 -11C3556 -11 3593 6 3627 33C3681 77 3714 116 3781 217L3758 126C3747 82 3742 50 3742 24C3742 3 3751 -9 3768 -9C3785 -9 3809 3 3843 28L3924 88L3914 107L3870 76C3856 66 3840 59 3831 59C3823 59 3817 68 3817 82C3817 90 3818 99 3825 128ZM3582 59C3566 59 3557 73 3557 98C3557 224 3603 380 3652 418C3665 428 3684 433 3711 433C3755 433 3784 427 3817 410L3805 351C3768 171 3627 59 3582 59ZM4699 722L4687 733C4635 707 4599 698 4527 691L4523 670L4571 670C4595 670 4605 663 4605 646C4605 638 4604 629 4603 622L4575 468C4545 477 4518 482 4493 482C4424 482 4330 410 4284 323C4253 265 4233 170 4233 86C4233 21 4248 -11 4277 -11C4304 -11 4341 6 4375 33C4429 77 4462 116 4529 217L4506 126C4495 82 4490 50 4490 24C4490 3 4499 -9 4516 -9C4533 -9 4557 3 4591 28L4672 88L4662 107L4618 76C4604 66 4588 59 4579 59C4571 59 4565 68 4565 82C4565 90 4566 99 4573 128ZM4330 59C4314 59 4305 73 4305 98C4305 224 4351 380 4400 418C4413 428 4432 433 4459 433C4503 433 4532 427 4565 410L4553 351C4516 171 4375 59 4330 59ZM5043 111L5019 94C4966 56 4918 36 4882 36C4835 36 4806 73 4806 133C4806 158 4809 185 4814 214C4831 218 4940 248 4965 259C5050 296 5089 342 5089 404C5089 451 5055 482 5005 482C4937 496 4827 423 4790 349C4760 299 4730 180 4730 113C4730 35 4774 -11 4846 -11C4903 -11 4959 17 5051 92ZM4828 274C4845 343 4865 386 4894 412C4912 428 4943 440 4967 440C4996 440 5015 420 5015 388C5015 344 4980 297 4928 272C4900 258 4864 247 4819 237ZM5603 722L5591 733C5539 707 5503 698 5431 691L5427 670L5475 670C5499 670 5509 663 5509 648C5509 645 5509 640 5506 622C5495 567 5422 182 5407 132C5394 82 5388 52 5388 31C5388 6 5399 -9 5418 -9C5444 -9 5480 12 5578 85L5568 103L5542 86C5513 67 5491 56 5481 56C5474 56 5468 66 5468 76C5468 82 5469 89 5472 104ZM5646 152C5646 46 5691 -11 5774 -11C5829 -11 5889 15 5934 57C5996 116 6040 230 6040 331C6040 425 5990 482 5907 482C5803 482 5646 382 5646 152ZM5870 444C5931 444 5964 399 5964 315C5964 219 5933 113 5889 60C5871 39 5845 27 5814 27C5756 27 5722 72 5722 151C5722 264 5761 387 5810 427C5823 438 5846 444 5870 444ZM6103 148C6098 97 6092 62 6081 16C6119 -2 6153 -11 6188 -11C6237 -11 6283 7 6334 47C6385 87 6406 124 6406 174C6406 228 6374 257 6300 271L6257 279C6197 290 6178 307 6178 348C6178 401 6223 442 6280 442C6321 442 6359 424 6375 397L6375 342L6398 342C6402 377 6406 404 6417 455C6378 474 6350 482 6317 482C6265 482 6204 452 6156 404C6130 377 6119 352 6119 316C6119 260 6150 228 6216 215L6279 203C6323 195 6339 177 6339 138C6339 73 6293 29 6222 29C6187 29 6156 40 6128 64L6128 148ZM6743 388L6750 368L6782 389C6819 412 6822 414 6829 414C6839 414 6847 404 6847 391C6847 384 6843 361 6839 347L6773 107C6765 76 6760 49 6760 30C6760 6 6771 -9 6790 -9C6816 -9 6852 12 6950 85L6940 103L6914 86C6885 67 6862 56 6853 56C6846 56 6840 66 6840 76C6840 86 6842 95 6847 116L6924 420C6928 437 6930 448 6930 456C6930 473 6921 482 6905 482C6883 482 6846 461 6771 408ZM6937 712C6908 712 6879 679 6879 645C6879 620 6894 604 6918 604C6949 604 6973 633 6973 671C6973 695 6958 712 6937 712Z" stroke="rgb(0,0,0)" stroke-opacity="1" stroke-width="8" fill="rgb(0,0,0)" fill-opacity="1"></path></g></g></g><g><g><g transform="matrix(1,0,0,1,2,237.0550079345703)"><path transform="matrix(0.017,0,0,-0.017,0,0)" d="M286 646L392 650C454 650 494 641 495 626L503 537L527 537C530 600 537 651 548 689C526 691 498 692 481 692L440 691L275 689L246 689C221 689 181 690 143 691L94 692L91 664L147 662C171 661 182 652 182 635C182 621 178 589 173 559L98 125C81 33 81 32 40 28L4 25L0 -3L34 -2C74 -1 106 0 127 0C145 0 174 -1 213 -2L265 -3L268 25L204 28C177 29 168 37 168 57C168 63 169 74 170 78L206 301L323 301C350 301 381 300 429 298L455 297L474 342L470 349C389 345 329 343 251 343L214 343L260 614C263 630 264 635 269 646Z" stroke="rgb(0,0,0)" stroke-opacity="1" stroke-width="8" fill="rgb(0,0,0)" fill-opacity="1"></path></g></g><g><g><g><g><g transform="matrix(1,0,0,1,11.94500732421875,241.01500549316407)"><path transform="matrix(0.0119,0,0,-0.0119,0,0)" d="M34 388L41 368L73 389C110 412 113 414 120 414C130 414 138 404 138 391C138 384 134 361 130 347L64 107C56 76 51 49 51 30C51 6 62 -9 81 -9C107 -9 143 12 241 85L231 103L205 86C176 67 153 56 144 56C137 56 131 66 131 76C131 86 133 95 138 116L215 420C219 437 221 448 221 456C221 473 212 482 196 482C174 482 137 461 62 408ZM228 712C199 712 170 679 170 645C170 620 185 604 209 604C240 604 264 633 264 671C264 695 249 712 228 712ZM832 243L832 299L328 299L328 243ZM1300 -3L1300 27L1248 30C1193 33 1183 44 1183 96L1183 700L942 598L949 548L1099 614L1099 96C1099 44 1088 33 1034 30L978 27L978 -3C1132 0 1132 0 1143 0C1174 0 1284 -3 1300 -3Z" stroke="rgb(0,0,0)" stroke-opacity="1" stroke-width="8" fill="rgb(0,0,0)" fill-opacity="1"></path></g></g></g></g></g><g><g transform="matrix(1,0,0,1,32.795013427734375,237.0550079345703)"><path transform="matrix(0.017,0,0,-0.017,0,0)" d="M123 111C93 111 66 83 66 53C66 23 93 -5 122 -5C154 -5 182 22 182 53C182 83 154 111 123 111ZM123 456C93 456 66 428 66 398C66 368 93 340 122 340C154 340 182 367 182 397C182 428 154 456 123 456Z" stroke="rgb(0,0,0)" stroke-opacity="1" stroke-width="8" fill="rgb(0,0,0)" fill-opacity="1"></path></g></g><g><g transform="matrix(1,0,0,1,40.42999267578125,237.0550079345703)"><path transform="matrix(0.017,0,0,-0.017,0,0)" d="M286 646L392 650C454 650 494 641 495 626L503 537L527 537C530 600 537 651 548 689C526 691 498 692 481 692L440 691L275 689L246 689C221 689 181 690 143 691L94 692L91 664L147 662C171 661 182 652 182 635C182 621 178 589 173 559L98 125C81 33 81 32 40 28L4 25L0 -3L34 -2C74 -1 106 0 127 0C145 0 174 -1 213 -2L265 -3L268 25L204 28C177 29 168 37 168 57C168 63 169 74 170 78L206 301L323 301C350 301 381 300 429 298L455 297L474 342L470 349C389 345 329 343 251 343L214 343L260 614C263 630 264 635 269 646Z" stroke="rgb(0,0,0)" stroke-opacity="1" stroke-width="8" fill="rgb(0,0,0)" fill-opacity="1"></path></g></g><g><g transform="matrix(1,0,0,1,49.865020751953125,237.0550079345703)"><path transform="matrix(0.017,0,0,-0.017,0,0)" d="M124 111C94 111 67 83 67 53C67 23 94 -5 123 -5C155 -5 183 22 183 53C183 83 155 111 124 111Z" stroke="rgb(0,0,0)" stroke-opacity="1" stroke-width="8" fill="rgb(0,0,0)" fill-opacity="1"></path></g></g><g><g transform="matrix(1,0,0,1,57.5,237.0550079345703)"><path transform="matrix(0.017,0,0,-0.017,0,0)" d="M271 204L242 77C238 60 236 42 236 26C236 4 245 -9 260 -9C283 -9 324 17 406 85L399 106C375 86 346 59 324 59C315 59 309 68 309 82C309 87 309 90 310 93L402 472L392 481L359 463C318 478 301 482 274 482C246 482 226 477 199 464C137 433 104 403 79 354C35 265 4 145 4 67C4 23 19 -11 38 -11C75 -11 155 41 271 204ZM319 414C297 305 278 253 244 201C187 117 126 59 94 59C82 59 76 72 76 99C76 163 104 280 139 360C163 415 186 433 234 433C257 433 275 429 319 414ZM785 330L808 330C816 395 823 432 832 458C808 473 773 482 736 482C691 483 618 463 561 400C507 352 468 241 468 136C468 40 510 -11 590 -11C644 -11 692 9 747 54L797 95L789 115L774 105C702 57 664 40 629 40C573 40 544 80 544 159C544 267 579 371 628 409C649 425 673 433 704 433C749 433 785 414 785 390ZM1341 473L1334 482L1266 465L1256 414C1241 336 1216 268 1185 221C1126 130 1048 59 1008 59C1000 59 995 68 995 85C995 99 997 112 1002 137L1059 408C1062 424 1064 438 1064 451C1064 470 1055 482 1041 482C1021 482 983 461 909 408L881 388L888 368L920 389C948 407 959 412 968 412C977 412 985 403 985 392C985 388 984 378 983 374L920 77C918 68 916 44 916 30C916 7 931 -11 951 -11C1014 -11 1135 101 1219 239L1182 97C1175 73 1171 46 1171 31C1171 6 1182 -9 1201 -9C1227 -9 1263 12 1361 85L1351 103L1325 86C1301 70 1275 59 1264 59C1256 59 1251 66 1251 76C1251 112 1326 416 1341 473ZM2134 103L2108 86C2079 67 2057 56 2047 56C2040 56 2034 65 2034 76C2034 86 2036 95 2041 116L2116 413C2120 430 2123 446 2123 454C2123 471 2113 482 2097 482C2068 482 2030 464 1969 421C1906 376 1871 341 1822 272L1852 409C1856 429 1859 444 1859 451C1859 470 1849 482 1833 482C1803 482 1757 460 1702 418C1658 384 1638 363 1573 275L1606 408C1610 424 1612 439 1612 451C1612 470 1603 482 1589 482C1568 482 1530 461 1456 408L1428 388L1435 368C1472 391 1507 414 1514 414C1525 414 1532 404 1532 389C1532 338 1491 145 1450 2L1453 -9L1521 6L1543 108C1567 219 1594 278 1649 338C1691 384 1736 414 1764 414C1771 414 1775 406 1775 393C1775 358 1753 244 1712 69L1696 2L1701 -9L1770 6L1791 113C1807 194 1841 269 1885 318C1940 379 1990 414 2022 414C2030 414 2035 405 2035 389C2035 365 2032 351 2010 264C1970 105 1954 84 1954 31C1954 6 1965 -9 1984 -9C2010 -9 2046 12 2144 85ZM2913 722L2901 733C2849 707 2813 698 2741 691L2737 670L2785 670C2809 670 2819 663 2819 646C2819 638 2818 629 2817 622L2789 468C2759 477 2732 482 2707 482C2638 482 2544 410 2498 323C2467 265 2447 170 2447 86C2447 21 2462 -11 2491 -11C2518 -11 2555 6 2589 33C2643 77 2676 116 2743 217L2720 126C2709 82 2704 50 2704 24C2704 3 2713 -9 2730 -9C2747 -9 2771 3 2805 28L2886 88L2876 107L2832 76C2818 66 2802 59 2793 59C2785 59 2779 68 2779 82C2779 90 2780 99 2787 128ZM2544 59C2528 59 2519 73 2519 98C2519 224 2565 380 2614 418C2627 428 2646 433 2673 433C2717 433 2746 427 2779 410L2767 351C2730 171 2589 59 2544 59ZM3257 111L3233 94C3180 56 3132 36 3096 36C3049 36 3020 73 3020 133C3020 158 3023 185 3028 214C3045 218 3154 248 3179 259C3264 296 3303 342 3303 404C3303 451 3269 482 3219 482C3151 496 3041 423 3004 349C2974 299 2944 180 2944 113C2944 35 2988 -11 3060 -11C3117 -11 3173 17 3265 92ZM3042 274C3059 343 3079 386 3108 412C3126 428 3157 440 3181 440C3210 440 3229 420 3229 388C3229 344 3194 297 3142 272C3114 258 3078 247 3033 237ZM3568 722L3556 733C3504 707 3468 698 3396 691L3392 670L3440 670C3464 670 3474 663 3474 648C3474 645 3474 640 3471 622C3460 567 3387 182 3372 132C3359 82 3353 52 3353 31C3353 6 3364 -9 3383 -9C3409 -9 3445 12 3543 85L3533 103L3507 86C3478 67 3456 56 3446 56C3439 56 3433 66 3433 76C3433 82 3434 89 3437 104ZM3877 388L3884 368L3916 389C3953 412 3956 414 3963 414C3973 414 3981 404 3981 391C3981 384 3977 361 3973 347L3907 107C3899 76 3894 49 3894 30C3894 6 3905 -9 3924 -9C3950 -9 3986 12 4084 85L4074 103L4048 86C4019 67 3996 56 3987 56C3980 56 3974 66 3974 76C3974 86 3976 95 3981 116L4058 420C4062 437 4064 448 4064 456C4064 473 4055 482 4039 482C4017 482 3980 461 3905 408ZM4071 712C4042 712 4013 679 4013 645C4013 620 4028 604 4052 604C4083 604 4107 633 4107 671C4107 695 4092 712 4071 712ZM4640 204L4611 77C4607 60 4605 42 4605 26C4605 4 4614 -9 4629 -9C4652 -9 4693 17 4775 85L4768 106C4744 86 4715 59 4693 59C4684 59 4678 68 4678 82C4678 87 4678 90 4679 93L4771 472L4761 481L4728 463C4687 478 4670 482 4643 482C4615 482 4595 477 4568 464C4506 433 4473 403 4448 354C4404 265 4373 145 4373 67C4373 23 4388 -11 4407 -11C4444 -11 4524 41 4640 204ZM4688 414C4666 305 4647 253 4613 201C4556 117 4495 59 4463 59C4451 59 4445 72 4445 99C4445 163 4473 280 4508 360C4532 415 4555 433 4603 433C4626 433 4644 429 4688 414ZM4836 388L4843 368L4875 389C4912 412 4915 414 4922 414C4933 414 4940 404 4940 389C4940 338 4899 145 4858 2L4865 -9C4890 -2 4913 4 4935 8C4954 134 4975 199 5021 268C5075 352 5150 414 5195 414C5206 414 5212 405 5212 390C5212 372 5209 351 5201 319L5149 107C5140 70 5136 47 5136 31C5136 6 5147 -9 5166 -9C5192 -9 5228 12 5326 85L5316 103L5290 86C5261 67 5239 56 5229 56C5222 56 5216 65 5216 76C5216 81 5217 92 5218 96L5284 372C5291 401 5295 429 5295 446C5295 469 5284 482 5264 482C5222 482 5153 444 5094 389C5056 354 5028 320 4976 247L5014 408C5018 426 5020 438 5020 449C5020 470 5012 482 4997 482C4976 482 4937 460 4864 408ZM5492 390L5436 107C5435 99 5423 61 5423 31C5423 6 5434 -9 5453 -9C5488 -9 5523 11 5601 74L5632 99L5622 117L5577 86C5548 66 5528 56 5517 56C5508 56 5503 64 5503 76C5503 102 5517 183 5546 328L5559 390L5666 390L5677 440C5639 436 5605 434 5567 434C5583 528 5594 577 5612 631L5601 646C5581 634 5554 622 5523 610L5498 440C5454 419 5428 408 5410 403L5408 390ZM6027 111L6003 94C5950 56 5902 36 5866 36C5819 36 5790 73 5790 133C5790 158 5793 185 5798 214C5815 218 5924 248 5949 259C6034 296 6073 342 6073 404C6073 451 6039 482 5989 482C5921 496 5811 423 5774 349C5744 299 5714 180 5714 113C5714 35 5758 -11 5830 -11C5887 -11 5943 17 6035 92ZM5812 274C5829 343 5849 386 5878 412C5896 428 5927 440 5951 440C5980 440 5999 420 5999 388C5999 344 5964 297 5912 272C5884 258 5848 247 5803 237ZM6455 365C6458 403 6463 435 6471 476C6460 481 6456 482 6451 482C6420 482 6389 458 6353 407C6314 351 6275 291 6259 256L6291 408C6295 425 6297 438 6297 450C6297 470 6289 482 6274 482C6253 482 6215 461 6141 408L6113 388L6120 368L6152 389C6180 407 6191 412 6200 412C6210 412 6217 403 6217 390C6217 332 6174 126 6134 -2L6144 -9C6159 -4 6175 -1 6198 4L6211 6L6237 126C6255 209 6278 262 6322 319C6356 363 6383 384 6405 384C6420 384 6430 379 6441 365ZM6509 388L6516 368L6548 389C6585 412 6588 414 6595 414C6605 414 6613 404 6613 391C6613 384 6609 361 6605 347L6539 107C6531 76 6526 49 6526 30C6526 6 6537 -9 6556 -9C6582 -9 6618 12 6716 85L6706 103L6680 86C6651 67 6628 56 6619 56C6612 56 6606 66 6606 76C6606 86 6608 95 6613 116L6690 420C6694 437 6696 448 6696 456C6696 473 6687 482 6671 482C6649 482 6612 461 6537 408ZM6703 712C6674 712 6645 679 6645 645C6645 620 6660 604 6684 604C6715 604 6739 633 6739 671C6739 695 6724 712 6703 712ZM6769 152C6769 46 6814 -11 6897 -11C6952 -11 7012 15 7057 57C7119 116 7163 230 7163 331C7163 425 7113 482 7030 482C6926 482 6769 382 6769 152ZM6993 444C7054 444 7087 399 7087 315C7087 219 7056 113 7012 60C6994 39 6968 27 6937 27C6879 27 6845 72 6845 151C6845 264 6884 387 6933 427C6946 438 6969 444 6993 444ZM7563 365C7566 403 7571 435 7579 476C7568 481 7564 482 7559 482C7528 482 7497 458 7461 407C7422 351 7383 291 7367 256L7399 408C7403 425 7405 438 7405 450C7405 470 7397 482 7382 482C7361 482 7323 461 7249 408L7221 388L7228 368L7260 389C7288 407 7299 412 7308 412C7318 412 7325 403 7325 390C7325 332 7282 126 7242 -2L7252 -9C7267 -4 7283 -1 7306 4L7319 6L7345 126C7363 209 7386 262 7430 319C7464 363 7491 384 7513 384C7528 384 7538 379 7549 365ZM8103 204L8074 77C8070 60 8068 42 8068 26C8068 4 8077 -9 8092 -9C8115 -9 8156 17 8238 85L8231 106C8207 86 8178 59 8156 59C8147 59 8141 68 8141 82C8141 87 8141 90 8142 93L8234 472L8224 481L8191 463C8150 478 8133 482 8106 482C8078 482 8058 477 8031 464C7969 433 7936 403 7911 354C7867 265 7836 145 7836 67C7836 23 7851 -11 7870 -11C7907 -11 7987 41 8103 204ZM8151 414C8129 305 8110 253 8076 201C8019 117 7958 59 7926 59C7914 59 7908 72 7908 99C7908 163 7936 280 7971 360C7995 415 8018 433 8066 433C8089 433 8107 429 8151 414ZM8526 722L8514 733C8462 707 8426 698 8354 691L8350 670L8398 670C8422 670 8432 663 8432 648C8432 645 8432 640 8429 622C8418 567 8345 182 8330 132C8317 82 8311 52 8311 31C8311 6 8322 -9 8341 -9C8367 -9 8403 12 8501 85L8491 103L8465 86C8436 67 8414 56 8404 56C8397 56 8391 66 8391 76C8391 82 8392 89 8395 104ZM9531 103L9505 86C9476 67 9454 56 9444 56C9437 56 9431 65 9431 76C9431 86 9433 95 9438 116L9513 413C9517 430 9520 446 9520 454C9520 471 9510 482 9494 482C9465 482 9427 464 9366 421C9303 376 9268 341 9219 272L9249 409C9253 429 9256 444 9256 451C9256 470 9246 482 9230 482C9200 482 9154 460 9099 418C9055 384 9035 363 8970 275L9003 408C9007 424 9009 439 9009 451C9009 470 9000 482 8986 482C8965 482 8927 461 8853 408L8825 388L8832 368C8869 391 8904 414 8911 414C8922 414 8929 404 8929 389C8929 338 8888 145 8847 2L8850 -9L8918 6L8940 108C8964 219 8991 278 9046 338C9088 384 9133 414 9161 414C9168 414 9172 406 9172 393C9172 358 9150 244 9109 69L9093 2L9098 -9L9167 6L9188 113C9204 194 9238 269 9282 318C9337 379 9387 414 9419 414C9427 414 9432 405 9432 389C9432 365 9429 351 9407 264C9367 105 9351 84 9351 31C9351 6 9362 -9 9381 -9C9407 -9 9443 12 9541 85ZM9906 111L9882 94C9829 56 9781 36 9745 36C9698 36 9669 73 9669 133C9669 158 9672 185 9677 214C9694 218 9803 248 9828 259C9913 296 9952 342 9952 404C9952 451 9918 482 9868 482C9800 496 9690 423 9653 349C9623 299 9593 180 9593 113C9593 35 9637 -11 9709 -11C9766 -11 9822 17 9914 92ZM9691 274C9708 343 9728 386 9757 412C9775 428 9806 440 9830 440C9859 440 9878 420 9878 388C9878 344 9843 297 9791 272C9763 258 9727 247 9682 237ZM10449 722L10437 733C10385 707 10349 698 10277 691L10273 670L10321 670C10345 670 10355 663 10355 646C10355 638 10354 629 10353 622L10325 468C10295 477 10268 482 10243 482C10174 482 10080 410 10034 323C10003 265 9983 170 9983 86C9983 21 9998 -11 10027 -11C10054 -11 10091 6 10125 33C10179 77 10212 116 10279 217L10256 126C10245 82 10240 50 10240 24C10240 3 10249 -9 10266 -9C10283 -9 10307 3 10341 28L10422 88L10412 107L10368 76C10354 66 10338 59 10329 59C10321 59 10315 68 10315 82C10315 90 10316 99 10323 128ZM10080 59C10064 59 10055 73 10055 98C10055 224 10101 380 10150 418C10163 428 10182 433 10209 433C10253 433 10282 427 10315 410L10303 351C10266 171 10125 59 10080 59ZM10499 388L10506 368L10538 389C10575 412 10578 414 10585 414C10595 414 10603 404 10603 391C10603 384 10599 361 10595 347L10529 107C10521 76 10516 49 10516 30C10516 6 10527 -9 10546 -9C10572 -9 10608 12 10706 85L10696 103L10670 86C10641 67 10618 56 10609 56C10602 56 10596 66 10596 76C10596 86 10598 95 10603 116L10680 420C10684 437 10686 448 10686 456C10686 473 10677 482 10661 482C10639 482 10602 461 10527 408ZM10693 712C10664 712 10635 679 10635 645C10635 620 10650 604 10674 604C10705 604 10729 633 10729 671C10729 695 10714 712 10693 712ZM11013 204L10984 77C10980 60 10978 42 10978 26C10978 4 10987 -9 11002 -9C11025 -9 11066 17 11148 85L11141 106C11117 86 11088 59 11066 59C11057 59 11051 68 11051 82C11051 87 11051 90 11052 93L11144 472L11134 481L11101 463C11060 478 11043 482 11016 482C10988 482 10968 477 10941 464C10879 433 10846 403 10821 354C10777 265 10746 145 10746 67C10746 23 10761 -11 10780 -11C10817 -11 10897 41 11013 204ZM11061 414C11039 305 11020 253 10986 201C10929 117 10868 59 10836 59C10824 59 10818 72 10818 99C10818 163 10846 280 10881 360C10905 415 10928 433 10976 433C10999 433 11017 429 11061 414ZM11209 388L11216 368L11248 389C11285 412 11288 414 11295 414C11306 414 11313 404 11313 389C11313 338 11272 145 11231 2L11238 -9C11263 -2 11286 4 11308 8C11327 134 11348 199 11394 268C11448 352 11523 414 11568 414C11579 414 11585 405 11585 390C11585 372 11582 351 11574 319L11522 107C11513 70 11509 47 11509 31C11509 6 11520 -9 11539 -9C11565 -9 11601 12 11699 85L11689 103L11663 86C11634 67 11612 56 11602 56C11595 56 11589 65 11589 76C11589 81 11590 92 11591 96L11657 372C11664 401 11668 429 11668 446C11668 469 11657 482 11637 482C11595 482 11526 444 11467 389C11429 354 11401 320 11349 247L11387 408C11391 426 11393 438 11393 449C11393 470 11385 482 11370 482C11349 482 11310 460 11237 408ZM11757 152C11757 46 11802 -11 11885 -11C11940 -11 12000 15 12045 57C12107 116 12151 230 12151 331C12151 425 12101 482 12018 482C11914 482 11757 382 11757 152ZM11981 444C12042 444 12075 399 12075 315C12075 219 12044 113 12000 60C11982 39 11956 27 11925 27C11867 27 11833 72 11833 151C11833 264 11872 387 11921 427C11934 438 11957 444 11981 444Z" stroke="rgb(0,0,0)" stroke-opacity="1" stroke-width="8" fill="rgb(0,0,0)" fill-opacity="1"></path></g></g></g><g><g><g transform="matrix(1,0,0,1,2,258.5950164794922)"><path transform="matrix(0.017,0,0,-0.017,0,0)" d="M345 437L329 437L350 549C366 635 394 673 440 673C470 673 497 658 512 634L522 638C527 654 537 685 545 705L550 720C534 727 503 733 480 733C469 733 453 730 445 726C421 715 339 654 316 630C294 608 282 578 271 521L256 442C215 422 195 414 170 405L165 383L246 383L237 327C207 132 170 -54 148 -123C130 -182 100 -213 64 -213C41 -213 30 -206 12 -184L-2 -188C-6 -211 -20 -259 -25 -268C-16 -273 -1 -276 10 -276C51 -276 105 -245 144 -198C215 -114 235 -18 319 383L423 383C427 402 434 425 440 439L436 446C407 439 408 437 345 437Z" stroke="rgb(0,0,0)" stroke-opacity="1" stroke-width="8" fill="rgb(0,0,0)" fill-opacity="1"></path></g></g><g><g><g><g><g transform="matrix(1,0,0,1,11.8699951171875,262.5550140380859)"><path transform="matrix(0.0119,0,0,-0.0119,0,0)" d="M34 388L41 368L73 389C110 412 113 414 120 414C130 414 138 404 138 391C138 384 134 361 130 347L64 107C56 76 51 49 51 30C51 6 62 -9 81 -9C107 -9 143 12 241 85L231 103L205 86C176 67 153 56 144 56C137 56 131 66 131 76C131 86 133 95 138 116L215 420C219 437 221 448 221 456C221 473 212 482 196 482C174 482 137 461 62 408ZM228 712C199 712 170 679 170 645C170 620 185 604 209 604C240 604 264 633 264 671C264 695 249 712 228 712Z" stroke="rgb(0,0,0)" stroke-opacity="1" stroke-width="8" fill="rgb(0,0,0)" fill-opacity="1"></path></g></g></g></g></g><g><g transform="matrix(1,0,0,1,19.58001708984375,258.5950164794922)"><path transform="matrix(0.017,0,0,-0.017,0,0)" d="M123 111C93 111 66 83 66 53C66 23 93 -5 122 -5C154 -5 182 22 182 53C182 83 154 111 123 111ZM123 456C93 456 66 428 66 398C66 368 93 340 122 340C154 340 182 367 182 397C182 428 154 456 123 456Z" stroke="rgb(0,0,0)" stroke-opacity="1" stroke-width="8" fill="rgb(0,0,0)" fill-opacity="1"></path></g></g><g><g transform="matrix(1,0,0,1,27.214996337890625,258.5950164794922)"><path transform="matrix(0.017,0,0,-0.017,0,0)" d="M286 646L392 650C454 650 494 641 495 626L503 537L527 537C530 600 537 651 548 689C526 691 498 692 481 692L440 691L275 689L246 689C221 689 181 690 143 691L94 692L91 664L147 662C171 661 182 652 182 635C182 621 178 589 173 559L98 125C81 33 81 32 40 28L4 25L0 -3L34 -2C74 -1 106 0 127 0C145 0 174 -1 213 -2L265 -3L268 25L204 28C177 29 168 37 168 57C168 63 169 74 170 78L206 301L323 301C350 301 381 300 429 298L455 297L474 342L470 349C389 345 329 343 251 343L214 343L260 614C263 630 264 635 269 646Z" stroke="rgb(0,0,0)" stroke-opacity="1" stroke-width="8" fill="rgb(0,0,0)" fill-opacity="1"></path></g></g><g><g transform="matrix(1,0,0,1,36.649993896484375,258.5950164794922)"><path transform="matrix(0.017,0,0,-0.017,0,0)" d="M124 111C94 111 67 83 67 53C67 23 94 -5 123 -5C155 -5 183 22 183 53C183 83 155 111 124 111Z" stroke="rgb(0,0,0)" stroke-opacity="1" stroke-width="8" fill="rgb(0,0,0)" fill-opacity="1"></path></g></g><g><g transform="matrix(1,0,0,1,44.285003662109375,258.5950164794922)"><path transform="matrix(0.017,0,0,-0.017,0,0)" d="M271 204L242 77C238 60 236 42 236 26C236 4 245 -9 260 -9C283 -9 324 17 406 85L399 106C375 86 346 59 324 59C315 59 309 68 309 82C309 87 309 90 310 93L402 472L392 481L359 463C318 478 301 482 274 482C246 482 226 477 199 464C137 433 104 403 79 354C35 265 4 145 4 67C4 23 19 -11 38 -11C75 -11 155 41 271 204ZM319 414C297 305 278 253 244 201C187 117 126 59 94 59C82 59 76 72 76 99C76 163 104 280 139 360C163 415 186 433 234 433C257 433 275 429 319 414ZM678 722L666 733C614 707 578 698 506 691L502 670L550 670C574 670 584 663 584 646C584 639 583 628 582 622L481 71C480 68 480 64 480 61C480 22 528 -11 583 -11C620 -11 671 8 714 39C810 107 876 244 876 376C876 414 867 453 855 468C848 477 835 482 820 482C796 482 766 474 738 460C687 433 654 403 592 324ZM765 424C791 424 804 401 804 352C804 288 783 202 753 137C720 68 680 36 626 36C580 36 555 59 555 101C555 135 570 276 651 361C684 395 736 424 765 424ZM936 148C931 97 925 62 914 16C952 -2 986 -11 1021 -11C1070 -11 1116 7 1167 47C1218 87 1239 124 1239 174C1239 228 1207 257 1133 271L1090 279C1030 290 1011 307 1011 348C1011 401 1056 442 1113 442C1154 442 1192 424 1208 397L1208 342L1231 342C1235 377 1239 404 1250 455C1211 474 1183 482 1150 482C1098 482 1037 452 989 404C963 377 952 352 952 316C952 260 983 228 1049 215L1112 203C1156 195 1172 177 1172 138C1172 73 1126 29 1055 29C1020 29 989 40 961 64L961 148ZM2025 722L2013 733C1961 707 1925 698 1853 691L1849 670L1897 670C1921 670 1931 663 1931 646C1931 638 1930 629 1929 622L1901 468C1871 477 1844 482 1819 482C1750 482 1656 410 1610 323C1579 265 1559 170 1559 86C1559 21 1574 -11 1603 -11C1630 -11 1667 6 1701 33C1755 77 1788 116 1855 217L1832 126C1821 82 1816 50 1816 24C1816 3 1825 -9 1842 -9C1859 -9 1883 3 1917 28L1998 88L1988 107L1944 76C1930 66 1914 59 1905 59C1897 59 1891 68 1891 82C1891 90 1892 99 1899 128ZM1656 59C1640 59 1631 73 1631 98C1631 224 1677 380 1726 418C1739 428 1758 433 1785 433C1829 433 1858 427 1891 410L1879 351C1842 171 1701 59 1656 59ZM2369 111L2345 94C2292 56 2244 36 2208 36C2161 36 2132 73 2132 133C2132 158 2135 185 2140 214C2157 218 2266 248 2291 259C2376 296 2415 342 2415 404C2415 451 2381 482 2331 482C2263 496 2153 423 2116 349C2086 299 2056 180 2056 113C2056 35 2100 -11 2172 -11C2229 -11 2285 17 2377 92ZM2154 274C2171 343 2191 386 2220 412C2238 428 2269 440 2293 440C2322 440 2341 420 2341 388C2341 344 2306 297 2254 272C2226 258 2190 247 2145 237ZM2680 722L2668 733C2616 707 2580 698 2508 691L2504 670L2552 670C2576 670 2586 663 2586 648C2586 645 2586 640 2583 622C2572 567 2499 182 2484 132C2471 82 2465 52 2465 31C2465 6 2476 -9 2495 -9C2521 -9 2557 12 2655 85L2645 103L2619 86C2590 67 2568 56 2558 56C2551 56 2545 66 2545 76C2545 82 2546 89 2549 104ZM2989 388L2996 368L3028 389C3065 412 3068 414 3075 414C3085 414 3093 404 3093 391C3093 384 3089 361 3085 347L3019 107C3011 76 3006 49 3006 30C3006 6 3017 -9 3036 -9C3062 -9 3098 12 3196 85L3186 103L3160 86C3131 67 3108 56 3099 56C3092 56 3086 66 3086 76C3086 86 3088 95 3093 116L3170 420C3174 437 3176 448 3176 456C3176 473 3167 482 3151 482C3129 482 3092 461 3017 408ZM3183 712C3154 712 3125 679 3125 645C3125 620 3140 604 3164 604C3195 604 3219 633 3219 671C3219 695 3204 712 3183 712ZM4211 103L4185 86C4156 67 4134 56 4124 56C4117 56 4111 65 4111 76C4111 86 4113 95 4118 116L4193 413C4197 430 4200 446 4200 454C4200 471 4190 482 4174 482C4145 482 4107 464 4046 421C3983 376 3948 341 3899 272L3929 409C3933 429 3936 444 3936 451C3936 470 3926 482 3910 482C3880 482 3834 460 3779 418C3735 384 3715 363 3650 275L3683 408C3687 424 3689 439 3689 451C3689 470 3680 482 3666 482C3645 482 3607 461 3533 408L3505 388L3512 368C3549 391 3584 414 3591 414C3602 414 3609 404 3609 389C3609 338 3568 145 3527 2L3530 -9L3598 6L3620 108C3644 219 3671 278 3726 338C3768 384 3813 414 3841 414C3848 414 3852 406 3852 393C3852 358 3830 244 3789 69L3773 2L3778 -9L3847 6L3868 113C3884 194 3918 269 3962 318C4017 379 4067 414 4099 414C4107 414 4112 405 4112 389C4112 365 4109 351 4087 264C4047 105 4031 84 4031 31C4031 6 4042 -9 4061 -9C4087 -9 4123 12 4221 85ZM4586 111L4562 94C4509 56 4461 36 4425 36C4378 36 4349 73 4349 133C4349 158 4352 185 4357 214C4374 218 4483 248 4508 259C4593 296 4632 342 4632 404C4632 451 4598 482 4548 482C4480 496 4370 423 4333 349C4303 299 4273 180 4273 113C4273 35 4317 -11 4389 -11C4446 -11 4502 17 4594 92ZM4371 274C4388 343 4408 386 4437 412C4455 428 4486 440 4510 440C4539 440 4558 420 4558 388C4558 344 4523 297 4471 272C4443 258 4407 247 4362 237ZM5129 722L5117 733C5065 707 5029 698 4957 691L4953 670L5001 670C5025 670 5035 663 5035 646C5035 638 5034 629 5033 622L5005 468C4975 477 4948 482 4923 482C4854 482 4760 410 4714 323C4683 265 4663 170 4663 86C4663 21 4678 -11 4707 -11C4734 -11 4771 6 4805 33C4859 77 4892 116 4959 217L4936 126C4925 82 4920 50 4920 24C4920 3 4929 -9 4946 -9C4963 -9 4987 3 5021 28L5102 88L5092 107L5048 76C5034 66 5018 59 5009 59C5001 59 4995 68 4995 82C4995 90 4996 99 5003 128ZM4760 59C4744 59 4735 73 4735 98C4735 224 4781 380 4830 418C4843 428 4862 433 4889 433C4933 433 4962 427 4995 410L4983 351C4946 171 4805 59 4760 59ZM5179 388L5186 368L5218 389C5255 412 5258 414 5265 414C5275 414 5283 404 5283 391C5283 384 5279 361 5275 347L5209 107C5201 76 5196 49 5196 30C5196 6 5207 -9 5226 -9C5252 -9 5288 12 5386 85L5376 103L5350 86C5321 67 5298 56 5289 56C5282 56 5276 66 5276 76C5276 86 5278 95 5283 116L5360 420C5364 437 5366 448 5366 456C5366 473 5357 482 5341 482C5319 482 5282 461 5207 408ZM5373 712C5344 712 5315 679 5315 645C5315 620 5330 604 5354 604C5385 604 5409 633 5409 671C5409 695 5394 712 5373 712ZM5693 204L5664 77C5660 60 5658 42 5658 26C5658 4 5667 -9 5682 -9C5705 -9 5746 17 5828 85L5821 106C5797 86 5768 59 5746 59C5737 59 5731 68 5731 82C5731 87 5731 90 5732 93L5824 472L5814 481L5781 463C5740 478 5723 482 5696 482C5668 482 5648 477 5621 464C5559 433 5526 403 5501 354C5457 265 5426 145 5426 67C5426 23 5441 -11 5460 -11C5497 -11 5577 41 5693 204ZM5741 414C5719 305 5700 253 5666 201C5609 117 5548 59 5516 59C5504 59 5498 72 5498 99C5498 163 5526 280 5561 360C5585 415 5608 433 5656 433C5679 433 5697 429 5741 414ZM5889 388L5896 368L5928 389C5965 412 5968 414 5975 414C5986 414 5993 404 5993 389C5993 338 5952 145 5911 2L5918 -9C5943 -2 5966 4 5988 8C6007 134 6028 199 6074 268C6128 352 6203 414 6248 414C6259 414 6265 405 6265 390C6265 372 6262 351 6254 319L6202 107C6193 70 6189 47 6189 31C6189 6 6200 -9 6219 -9C6245 -9 6281 12 6379 85L6369 103L6343 86C6314 67 6292 56 6282 56C6275 56 6269 65 6269 76C6269 81 6270 92 6271 96L6337 372C6344 401 6348 429 6348 446C6348 469 6337 482 6317 482C6275 482 6206 444 6147 389C6109 354 6081 320 6029 247L6067 408C6071 426 6073 438 6073 449C6073 470 6065 482 6050 482C6029 482 5990 460 5917 408ZM6437 152C6437 46 6482 -11 6565 -11C6620 -11 6680 15 6725 57C6787 116 6831 230 6831 331C6831 425 6781 482 6698 482C6594 482 6437 382 6437 152ZM6661 444C6722 444 6755 399 6755 315C6755 219 6724 113 6680 60C6662 39 6636 27 6605 27C6547 27 6513 72 6513 151C6513 264 6552 387 6601 427C6614 438 6637 444 6661 444Z" stroke="rgb(0,0,0)" stroke-opacity="1" stroke-width="8" fill="rgb(0,0,0)" fill-opacity="1"></path></g></g></g></g></svg>