<svg xmlns="http://www.w3.org/2000/svg" xmlns:xlink="http://www.w3.org/1999/xlink" width="266.3500061035156" height="198.89500427246094" style="width:266.3500061035156px;height:198.89500427246094px;font-family:Asana-Math, Asana;background:#FFF;"><g><g><g><g transform="matrix(1,0,0,1,2,18.039993286132812)"><path transform="matrix(0.017,0,0,-0.017,0,0)" d="M316 -3C388 -3 437 8 489 34C645 114 741 265 741 431C741 529 711 599 650 642C604 675 519 693 424 692L220 689L210 689C201 689 198 689 97 692L94 664L147 662C171 661 182 653 182 635C182 621 178 589 173 559L86 55C81 31 56 29 33 23L28 -3L121 0L176 0C211 0 282 -3 316 -3ZM384 655C566 655 649 579 649 415C649 225 549 41 329 41C285 41 236 46 168 56C168 68 169 75 172 93L268 650C291 650 349 655 384 655ZM1048 204L1019 77C1015 60 1013 42 1013 26C1013 4 1022 -9 1037 -9C1060 -9 1101 17 1183 85L1176 106C1152 86 1123 59 1101 59C1092 59 1086 68 1086 82C1086 87 1086 90 1087 93L1179 472L1169 481L1136 463C1095 478 1078 482 1051 482C1023 482 1003 477 976 464C914 433 881 403 856 354C812 265 781 145 781 67C781 23 796 -11 815 -11C852 -11 932 41 1048 204ZM1096 414C1074 305 1055 253 1021 201C964 117 903 59 871 59C859 59 853 72 853 99C853 163 881 280 916 360C940 415 963 433 1011 433C1034 433 1052 429 1096 414ZM1345 390L1289 107C1288 99 1276 61 1276 31C1276 6 1287 -9 1306 -9C1341 -9 1376 11 1454 74L1485 99L1475 117L1430 86C1401 66 1381 56 1370 56C1361 56 1356 64 1356 76C1356 102 1370 183 1399 328L1412 390L1519 390L1530 440C1492 436 1458 434 1420 434C1436 528 1447 577 1465 631L1454 646C1434 634 1407 622 1376 610L1351 440C1307 419 1281 408 1263 403L1261 390ZM1569 152C1569 46 1614 -11 1697 -11C1752 -11 1812 15 1857 57C1919 116 1963 230 1963 331C1963 425 1913 482 1830 482C1726 482 1569 382 1569 152ZM1793 444C1854 444 1887 399 1887 315C1887 219 1856 113 1812 60C1794 39 1768 27 1737 27C1679 27 1645 72 1645 151C1645 264 1684 387 1733 427C1746 438 1769 444 1793 444ZM2026 148C2021 97 2015 62 2004 16C2042 -2 2076 -11 2111 -11C2160 -11 2206 7 2257 47C2308 87 2329 124 2329 174C2329 228 2297 257 2223 271L2180 279C2120 290 2101 307 2101 348C2101 401 2146 442 2203 442C2244 442 2282 424 2298 397L2298 342L2321 342C2325 377 2329 404 2340 455C2301 474 2273 482 2240 482C2188 482 2127 452 2079 404C2053 377 2042 352 2042 316C2042 260 2073 228 2139 215L2202 203C2246 195 2262 177 2262 138C2262 73 2216 29 2145 29C2110 29 2079 40 2051 64L2051 148ZM3199 55C3199 39 3184 30 3156 28L3112 25L3112 -3C3214 0 3214 0 3234 0C3254 0 3254 0 3356 -3L3356 25L3330 28C3283 35 3282 35 3274 80L3187 705L3141 705L2768 112C2732 56 2714 40 2680 32L2660 27L2660 -3C2752 0 2752 0 2772 0C2791 0 2793 0 2879 -3L2879 25L2827 28C2811 29 2796 38 2796 47C2796 55 2803 69 2822 102L2924 277L3170 277L3195 89L3195 86C3195 84 3199 69 3199 55ZM3128 601L3165 313L2949 313ZM3658 482C3591 482 3438 419 3438 259C3438 182 3483 136 3560 136C3568 136 3579 136 3590 137L3549 99C3533 84 3522 66 3522 52C3522 42 3529 31 3543 19C3474 -4 3346 -48 3346 -159C3346 -230 3416 -276 3525 -276C3654 -276 3767 -204 3767 -121C3767 -85 3746 -49 3703 -14L3643 35C3609 62 3596 81 3596 100C3596 114 3611 128 3623 146C3721 170 3792 253 3792 342C3792 357 3789 376 3788 380C3805 378 3813 378 3822 378C3839 378 3849 379 3872 382L3881 427L3878 433C3850 426 3830 424 3776 424C3776 425 3752 482 3658 482ZM3559 1L3636 -58C3682 -94 3701 -121 3701 -154C3701 -206 3632 -248 3549 -248C3467 -248 3410 -206 3410 -145C3410 -43 3520 -11 3559 1ZM3633 448C3691 448 3720 412 3720 341C3720 238 3672 168 3602 168C3541 168 3509 209 3509 288C3509 383 3560 448 3633 448ZM4250 365C4253 403 4258 435 4266 476C4255 481 4251 482 4246 482C4215 482 4184 458 4148 407C4109 351 4070 291 4054 256L4086 408C4090 425 4092 438 4092 450C4092 470 4084 482 4069 482C4048 482 4010 461 3936 408L3908 388L3915 368L3947 389C3975 407 3986 412 3995 412C4005 412 4012 403 4012 390C4012 332 3969 126 3929 -2L3939 -9C3954 -4 3970 -1 3993 4L4006 6L4032 126C4050 209 4073 262 4117 319C4151 363 4178 384 4200 384C4215 384 4225 379 4236 365ZM4762 473L4755 482L4687 465L4677 414C4662 336 4637 268 4606 221C4547 130 4469 59 4429 59C4421 59 4416 68 4416 85C4416 99 4418 112 4423 137L4480 408C4483 424 4485 438 4485 451C4485 470 4476 482 4462 482C4442 482 4404 461 4330 408L4302 388L4309 368L4341 389C4369 407 4380 412 4389 412C4398 412 4406 403 4406 392C4406 388 4405 378 4404 374L4341 77C4339 68 4337 44 4337 30C4337 7 4352 -11 4372 -11C4435 -11 4556 101 4640 239L4603 97C4596 73 4592 46 4592 31C4592 6 4603 -9 4622 -9C4648 -9 4684 12 4782 85L4772 103L4746 86C4722 70 4696 59 4685 59C4677 59 4672 66 4672 76C4672 112 4747 416 4762 473ZM5001 -11C5057 -11 5172 62 5215 125C5256 186 5290 296 5290 371C5290 438 5267 482 5231 482C5189 482 5136 456 5084 409C5043 374 5023 348 4987 289L5011 408C5014 425 5016 440 5016 452C5016 471 5008 482 4994 482C4973 482 4935 461 4861 408L4833 388L4840 368L4872 389C4900 407 4911 412 4920 412C4930 412 4937 403 4937 389C4937 381 4935 361 4933 351L4875 8C4865 -52 4846 -143 4826 -233L4818 -270L4825 -276C4846 -269 4866 -264 4898 -259L4940 3C4961 -4 4983 -11 5001 -11ZM4968 165C4990 293 5097 424 5180 424C5206 424 5218 402 5218 356C5218 275 5178 156 5125 80C5105 51 5073 36 5032 36C5001 36 4976 43 4950 59ZM5595 204L5566 77C5562 60 5560 42 5560 26C5560 4 5569 -9 5584 -9C5607 -9 5648 17 5730 85L5723 106C5699 86 5670 59 5648 59C5639 59 5633 68 5633 82C5633 87 5633 90 5634 93L5726 472L5716 481L5683 463C5642 478 5625 482 5598 482C5570 482 5550 477 5523 464C5461 433 5428 403 5403 354C5359 265 5328 145 5328 67C5328 23 5343 -11 5362 -11C5399 -11 5479 41 5595 204ZM5643 414C5621 305 5602 253 5568 201C5511 117 5450 59 5418 59C5406 59 5400 72 5400 99C5400 163 5428 280 5463 360C5487 415 5510 433 5558 433C5581 433 5599 429 5643 414ZM6250 722L6238 733C6186 707 6150 698 6078 691L6074 670L6122 670C6146 670 6156 663 6156 646C6156 638 6155 629 6154 622L6126 468C6096 477 6069 482 6044 482C5975 482 5881 410 5835 323C5804 265 5784 170 5784 86C5784 21 5799 -11 5828 -11C5855 -11 5892 6 5926 33C5980 77 6013 116 6080 217L6057 126C6046 82 6041 50 6041 24C6041 3 6050 -9 6067 -9C6084 -9 6108 3 6142 28L6223 88L6213 107L6169 76C6155 66 6139 59 6130 59C6122 59 6116 68 6116 82C6116 90 6117 99 6124 128ZM5881 59C5865 59 5856 73 5856 98C5856 224 5902 380 5951 418C5964 428 5983 433 6010 433C6054 433 6083 427 6116 410L6104 351C6067 171 5926 59 5881 59ZM6283 152C6283 46 6328 -11 6411 -11C6466 -11 6526 15 6571 57C6633 116 6677 230 6677 331C6677 425 6627 482 6544 482C6440 482 6283 382 6283 152ZM6507 444C6568 444 6601 399 6601 315C6601 219 6570 113 6526 60C6508 39 6482 27 6451 27C6393 27 6359 72 6359 151C6359 264 6398 387 6447 427C6460 438 6483 444 6507 444ZM6740 148C6735 97 6729 62 6718 16C6756 -2 6790 -11 6825 -11C6874 -11 6920 7 6971 47C7022 87 7043 124 7043 174C7043 228 7011 257 6937 271L6894 279C6834 290 6815 307 6815 348C6815 401 6860 442 6917 442C6958 442 6996 424 7012 397L7012 342L7035 342C7039 377 7043 404 7054 455C7015 474 6987 482 6954 482C6902 482 6841 452 6793 404C6767 377 6756 352 6756 316C6756 260 6787 228 6853 215L6916 203C6960 195 6976 177 6976 138C6976 73 6930 29 6859 29C6824 29 6793 40 6765 64L6765 148Z" stroke="rgb(0,0,0)" stroke-opacity="1" stroke-width="8" fill="rgb(0,0,0)" fill-opacity="1"></path></g></g></g><g><g><g transform="matrix(1,0,0,1,2,51.7449951171875)"><path transform="matrix(0.017,0,0,-0.017,0,0)" d="M937 664L950 695C922 699 775 701 773 692L688 536L442 114L292 692C269 686 146 690 125 692L122 664L148 662C200 658 218 648 218 622C218 616 72 100 70 93C54 41 39 28 -16 23L-19 -3L20 -2C54 -1 79 0 93 0C107 0 133 -1 168 -2L203 -3L206 25L168 28C136 30 119 40 119 55C119 65 121 78 126 96L250 560L399 -18L422 -18L479 86L718 500L770 587L733 67C729 39 717 32 666 28L635 25L632 -3L679 -2C721 -1 751 0 766 0C782 0 812 -1 853 -2L899 -3L902 25L865 28C829 31 811 42 811 63L812 100L853 631C855 650 870 660 899 662ZM970 152C970 46 1015 -11 1098 -11C1153 -11 1213 15 1258 57C1320 116 1364 230 1364 331C1364 425 1314 482 1231 482C1127 482 970 382 970 152ZM1194 444C1255 444 1288 399 1288 315C1288 219 1257 113 1213 60C1195 39 1169 27 1138 27C1080 27 1046 72 1046 151C1046 264 1085 387 1134 427C1147 438 1170 444 1194 444Z" stroke="rgb(0,0,0)" stroke-opacity="1" stroke-width="8" fill="rgb(0,0,0)" fill-opacity="1"></path></g></g><g><g transform="matrix(1,0,0,1,30.83001708984375,51.7449951171875)"><path transform="matrix(0.017,0,0,-0.017,0,0)" d="M604 347L604 406L65 406L65 347ZM604 134L604 193L65 193L65 134Z" stroke="rgb(0,0,0)" stroke-opacity="1" stroke-width="8" fill="rgb(0,0,0)" fill-opacity="1"></path></g></g><g><g transform="matrix(1,0,0,1,47.285003662109375,51.7449951171875)"><path transform="matrix(0.017,0,0,-0.017,0,0)" d="M349 664L352 692L238 689C222 689 204 689 161 690L97 692L94 664L141 662C165 661 176 653 176 635L81 55C77 37 65 30 21 23L16 -3L57 -2C88 -1 150 0 170 0C170 0 467 -1 467 -1C467 -1 500 0 500 0C499 25 510 103 523 165L492 165L475 103C466 71 457 54 448 49C435 44 371 39 304 39C255 39 228 40 162 46C165 64 256 605 256 613C263 651 270 658 307 661Z" stroke="rgb(0,0,0)" stroke-opacity="1" stroke-width="8" fill="rgb(0,0,0)" fill-opacity="1"></path></g></g><g><g><g><g><g transform="matrix(1,0,0,1,57.230010986328125,55.70499267578125)"><path transform="matrix(0.0119,0,0,-0.0119,0,0)" d="M34 388L41 368L73 389C110 412 113 414 120 414C130 414 138 404 138 391C138 384 134 361 130 347L64 107C56 76 51 49 51 30C51 6 62 -9 81 -9C107 -9 143 12 241 85L231 103L205 86C176 67 153 56 144 56C137 56 131 66 131 76C131 86 133 95 138 116L215 420C219 437 221 448 221 456C221 473 212 482 196 482C174 482 137 461 62 408ZM228 712C199 712 170 679 170 645C170 620 185 604 209 604C240 604 264 633 264 671C264 695 249 712 228 712Z" stroke="rgb(0,0,0)" stroke-opacity="1" stroke-width="8" fill="rgb(0,0,0)" fill-opacity="1"></path></g></g></g></g></g><g><g transform="matrix(1,0,0,1,64.94000244140625,51.7449951171875)"><path transform="matrix(0.017,0,0,-0.017,0,0)" d="M604 241L604 300L364 300L364 538L305 538L305 300L65 300L65 241L305 241L305 0L364 0L364 241Z" stroke="rgb(0,0,0)" stroke-opacity="1" stroke-width="8" fill="rgb(0,0,0)" fill-opacity="1"></path></g></g><g><g><g><g><g transform="matrix(1,0,0,1,131.42001342773438,38.19999694824219)"><path transform="matrix(0.017,0,0,-0.017,0,0)" d="M345 437L329 437L350 549C366 635 394 673 440 673C470 673 497 658 512 634L522 638C527 654 537 685 545 705L550 720C534 727 503 733 480 733C469 733 453 730 445 726C421 715 339 654 316 630C294 608 282 578 271 521L256 442C215 422 195 414 170 405L165 383L246 383L237 327C207 132 170 -54 148 -123C130 -182 100 -213 64 -213C41 -213 30 -206 12 -184L-2 -188C-6 -211 -20 -259 -25 -268C-16 -273 -1 -276 10 -276C51 -276 105 -245 144 -198C215 -114 235 -18 319 383L423 383C427 402 434 425 440 439L436 446C407 439 408 437 345 437Z" stroke="rgb(0,0,0)" stroke-opacity="1" stroke-width="8" fill="rgb(0,0,0)" fill-opacity="1"></path></g></g><g><g><g><g><g transform="matrix(1,0,0,1,141.2900390625,42.159994506835936)"><path transform="matrix(0.0119,0,0,-0.0119,0,0)" d="M34 388L41 368L73 389C110 412 113 414 120 414C130 414 138 404 138 391C138 384 134 361 130 347L64 107C56 76 51 49 51 30C51 6 62 -9 81 -9C107 -9 143 12 241 85L231 103L205 86C176 67 153 56 144 56C137 56 131 66 131 76C131 86 133 95 138 116L215 420C219 437 221 448 221 456C221 473 212 482 196 482C174 482 137 461 62 408ZM228 712C199 712 170 679 170 645C170 620 185 604 209 604C240 604 264 633 264 671C264 695 249 712 228 712Z" stroke="rgb(0,0,0)" stroke-opacity="1" stroke-width="8" fill="rgb(0,0,0)" fill-opacity="1"></path></g></g></g></g></g><g><g transform="matrix(1,0,0,1,149,38.19999694824219)"><path transform="matrix(0.017,0,0,-0.017,0,0)" d="M555 243L555 299L51 299L51 243Z" stroke="rgb(0,0,0)" stroke-opacity="1" stroke-width="8" fill="rgb(0,0,0)" fill-opacity="1"></path></g></g><g><g transform="matrix(1,0,0,1,162.67999267578125,38.19999694824219)"><path transform="matrix(0.017,0,0,-0.017,0,0)" d="M345 437L329 437L350 549C366 635 394 673 440 673C470 673 497 658 512 634L522 638C527 654 537 685 545 705L550 720C534 727 503 733 480 733C469 733 453 730 445 726C421 715 339 654 316 630C294 608 282 578 271 521L256 442C215 422 195 414 170 405L165 383L246 383L237 327C207 132 170 -54 148 -123C130 -182 100 -213 64 -213C41 -213 30 -206 12 -184L-2 -188C-6 -211 -20 -259 -25 -268C-16 -273 -1 -276 10 -276C51 -276 105 -245 144 -198C215 -114 235 -18 319 383L423 383C427 402 434 425 440 439L436 446C407 439 408 437 345 437Z" stroke="rgb(0,0,0)" stroke-opacity="1" stroke-width="8" fill="rgb(0,0,0)" fill-opacity="1"></path></g></g><g><g><g><g><g transform="matrix(1,0,0,1,172.54998779296875,42.159994506835936)"><path transform="matrix(0.0119,0,0,-0.0119,0,0)" d="M34 388L41 368L73 389C110 412 113 414 120 414C130 414 138 404 138 391C138 384 134 361 130 347L64 107C56 76 51 49 51 30C51 6 62 -9 81 -9C107 -9 143 12 241 85L231 103L205 86C176 67 153 56 144 56C137 56 131 66 131 76C131 86 133 95 138 116L215 420C219 437 221 448 221 456C221 473 212 482 196 482C174 482 137 461 62 408ZM228 712C199 712 170 679 170 645C170 620 185 604 209 604C240 604 264 633 264 671C264 695 249 712 228 712ZM832 243L832 299L328 299L328 243ZM1300 -3L1300 27L1248 30C1193 33 1183 44 1183 96L1183 700L942 598L949 548L1099 614L1099 96C1099 44 1088 33 1034 30L978 27L978 -3C1132 0 1132 0 1143 0C1174 0 1284 -3 1300 -3Z" stroke="rgb(0,0,0)" stroke-opacity="1" stroke-width="8" fill="rgb(0,0,0)" fill-opacity="1"></path></g></g></g></g></g></g></g><g><g><g><g transform="matrix(1,0,0,1,81.3800048828125,65.875)"><path transform="matrix(0.017,0,0,-0.017,0,0)" d="M146 266C146 526 243 632 301 700L282 726C225 675 60 542 60 266C60 159 85 58 133 -32C168 -99 200 -138 282 -215L301 -194C255 -137 146 -15 146 266Z" stroke="rgb(0,0,0)" stroke-opacity="1" stroke-width="8" fill="rgb(0,0,0)" fill-opacity="1"></path></g></g><g><g transform="matrix(1,0,0,1,87.03500366210938,64.91499328613281)"><path transform="matrix(0.017,0,0,-0.017,0,0)" d="M345 437L329 437L350 549C366 635 394 673 440 673C470 673 497 658 512 634L522 638C527 654 537 685 545 705L550 720C534 727 503 733 480 733C469 733 453 730 445 726C421 715 339 654 316 630C294 608 282 578 271 521L256 442C215 422 195 414 170 405L165 383L246 383L237 327C207 132 170 -54 148 -123C130 -182 100 -213 64 -213C41 -213 30 -206 12 -184L-2 -188C-6 -211 -20 -259 -25 -268C-16 -273 -1 -276 10 -276C51 -276 105 -245 144 -198C215 -114 235 -18 319 383L423 383C427 402 434 425 440 439L436 446C407 439 408 437 345 437Z" stroke="rgb(0,0,0)" stroke-opacity="1" stroke-width="8" fill="rgb(0,0,0)" fill-opacity="1"></path></g></g><g><g><g><g><g transform="matrix(1,0,0,1,96.90499877929688,68.87500610351563)"><path transform="matrix(0.0119,0,0,-0.0119,0,0)" d="M34 388L41 368L73 389C110 412 113 414 120 414C130 414 138 404 138 391C138 384 134 361 130 347L64 107C56 76 51 49 51 30C51 6 62 -9 81 -9C107 -9 143 12 241 85L231 103L205 86C176 67 153 56 144 56C137 56 131 66 131 76C131 86 133 95 138 116L215 420C219 437 221 448 221 456C221 473 212 482 196 482C174 482 137 461 62 408ZM228 712C199 712 170 679 170 645C170 620 185 604 209 604C240 604 264 633 264 671C264 695 249 712 228 712Z" stroke="rgb(0,0,0)" stroke-opacity="1" stroke-width="8" fill="rgb(0,0,0)" fill-opacity="1"></path></g></g></g></g></g><g><g transform="matrix(1,0,0,1,104.61502075195312,64.91499328613281)"><path transform="matrix(0.017,0,0,-0.017,0,0)" d="M555 243L555 299L51 299L51 243Z" stroke="rgb(0,0,0)" stroke-opacity="1" stroke-width="8" fill="rgb(0,0,0)" fill-opacity="1"></path></g></g><g><g transform="matrix(1,0,0,1,118.29501342773438,64.91499328613281)"><path transform="matrix(0.017,0,0,-0.017,0,0)" d="M345 437L329 437L350 549C366 635 394 673 440 673C470 673 497 658 512 634L522 638C527 654 537 685 545 705L550 720C534 727 503 733 480 733C469 733 453 730 445 726C421 715 339 654 316 630C294 608 282 578 271 521L256 442C215 422 195 414 170 405L165 383L246 383L237 327C207 132 170 -54 148 -123C130 -182 100 -213 64 -213C41 -213 30 -206 12 -184L-2 -188C-6 -211 -20 -259 -25 -268C-16 -273 -1 -276 10 -276C51 -276 105 -245 144 -198C215 -114 235 -18 319 383L423 383C427 402 434 425 440 439L436 446C407 439 408 437 345 437Z" stroke="rgb(0,0,0)" stroke-opacity="1" stroke-width="8" fill="rgb(0,0,0)" fill-opacity="1"></path></g></g><g><g><g><g><g transform="matrix(1,0,0,1,128.16500854492188,68.87500610351563)"><path transform="matrix(0.0119,0,0,-0.0119,0,0)" d="M34 388L41 368L73 389C110 412 113 414 120 414C130 414 138 404 138 391C138 384 134 361 130 347L64 107C56 76 51 49 51 30C51 6 62 -9 81 -9C107 -9 143 12 241 85L231 103L205 86C176 67 153 56 144 56C137 56 131 66 131 76C131 86 133 95 138 116L215 420C219 437 221 448 221 456C221 473 212 482 196 482C174 482 137 461 62 408ZM228 712C199 712 170 679 170 645C170 620 185 604 209 604C240 604 264 633 264 671C264 695 249 712 228 712ZM832 243L832 299L328 299L328 243ZM1300 -3L1300 27L1248 30C1193 33 1183 44 1183 96L1183 700L942 598L949 548L1099 614L1099 96C1099 44 1088 33 1034 30L978 27L978 -3C1132 0 1132 0 1143 0C1174 0 1284 -3 1300 -3Z" stroke="rgb(0,0,0)" stroke-opacity="1" stroke-width="8" fill="rgb(0,0,0)" fill-opacity="1"></path></g></g></g></g></g><g><g transform="matrix(1,0,0,1,145.625,65.875)"><path transform="matrix(0.017,0,0,-0.017,0,0)" d="M51 726L32 700C87 636 187 526 187 266C187 -10 83 -131 32 -194L51 -215C104 -165 273 -23 273 265C273 542 108 675 51 726Z" stroke="rgb(0,0,0)" stroke-opacity="1" stroke-width="8" fill="rgb(0,0,0)" fill-opacity="1"></path></g></g><g><g transform="matrix(1,0,0,1,154.6700439453125,64.91499328613281)"><path transform="matrix(0.017,0,0,-0.017,0,0)" d="M604 241L604 300L364 300L364 538L305 538L305 300L65 300L65 241L305 241L305 0L364 0L364 241Z" stroke="rgb(0,0,0)" stroke-opacity="1" stroke-width="8" fill="rgb(0,0,0)" fill-opacity="1"></path></g></g><g><g transform="matrix(1,0,0,1,169.4150390625,65.875)"><path transform="matrix(0.017,0,0,-0.017,0,0)" d="M146 266C146 526 243 632 301 700L282 726C225 675 60 542 60 266C60 159 85 58 133 -32C168 -99 200 -138 282 -215L301 -194C255 -137 146 -15 146 266Z" stroke="rgb(0,0,0)" stroke-opacity="1" stroke-width="8" fill="rgb(0,0,0)" fill-opacity="1"></path></g></g><g><g transform="matrix(1,0,0,1,175.07000732421875,64.91499328613281)"><path transform="matrix(0.017,0,0,-0.017,0,0)" d="M345 437L329 437L350 549C366 635 394 673 440 673C470 673 497 658 512 634L522 638C527 654 537 685 545 705L550 720C534 727 503 733 480 733C469 733 453 730 445 726C421 715 339 654 316 630C294 608 282 578 271 521L256 442C215 422 195 414 170 405L165 383L246 383L237 327C207 132 170 -54 148 -123C130 -182 100 -213 64 -213C41 -213 30 -206 12 -184L-2 -188C-6 -211 -20 -259 -25 -268C-16 -273 -1 -276 10 -276C51 -276 105 -245 144 -198C215 -114 235 -18 319 383L423 383C427 402 434 425 440 439L436 446C407 439 408 437 345 437Z" stroke="rgb(0,0,0)" stroke-opacity="1" stroke-width="8" fill="rgb(0,0,0)" fill-opacity="1"></path></g></g><g><g><g><g><g transform="matrix(1,0,0,1,184.94000244140625,68.87500610351563)"><path transform="matrix(0.0119,0,0,-0.0119,0,0)" d="M34 388L41 368L73 389C110 412 113 414 120 414C130 414 138 404 138 391C138 384 134 361 130 347L64 107C56 76 51 49 51 30C51 6 62 -9 81 -9C107 -9 143 12 241 85L231 103L205 86C176 67 153 56 144 56C137 56 131 66 131 76C131 86 133 95 138 116L215 420C219 437 221 448 221 456C221 473 212 482 196 482C174 482 137 461 62 408ZM228 712C199 712 170 679 170 645C170 620 185 604 209 604C240 604 264 633 264 671C264 695 249 712 228 712Z" stroke="rgb(0,0,0)" stroke-opacity="1" stroke-width="8" fill="rgb(0,0,0)" fill-opacity="1"></path></g></g></g></g></g><g><g transform="matrix(1,0,0,1,192.6500244140625,64.91499328613281)"><path transform="matrix(0.017,0,0,-0.017,0,0)" d="M555 243L555 299L51 299L51 243Z" stroke="rgb(0,0,0)" stroke-opacity="1" stroke-width="8" fill="rgb(0,0,0)" fill-opacity="1"></path></g></g><g><g transform="matrix(1,0,0,1,206.33001708984375,64.91499328613281)"><path transform="matrix(0.017,0,0,-0.017,0,0)" d="M345 437L329 437L350 549C366 635 394 673 440 673C470 673 497 658 512 634L522 638C527 654 537 685 545 705L550 720C534 727 503 733 480 733C469 733 453 730 445 726C421 715 339 654 316 630C294 608 282 578 271 521L256 442C215 422 195 414 170 405L165 383L246 383L237 327C207 132 170 -54 148 -123C130 -182 100 -213 64 -213C41 -213 30 -206 12 -184L-2 -188C-6 -211 -20 -259 -25 -268C-16 -273 -1 -276 10 -276C51 -276 105 -245 144 -198C215 -114 235 -18 319 383L423 383C427 402 434 425 440 439L436 446C407 439 408 437 345 437Z" stroke="rgb(0,0,0)" stroke-opacity="1" stroke-width="8" fill="rgb(0,0,0)" fill-opacity="1"></path></g></g><g><g><g><g><g transform="matrix(1,0,0,1,216.20001220703125,68.87500610351563)"><path transform="matrix(0.0119,0,0,-0.0119,0,0)" d="M34 388L41 368L73 389C110 412 113 414 120 414C130 414 138 404 138 391C138 384 134 361 130 347L64 107C56 76 51 49 51 30C51 6 62 -9 81 -9C107 -9 143 12 241 85L231 103L205 86C176 67 153 56 144 56C137 56 131 66 131 76C131 86 133 95 138 116L215 420C219 437 221 448 221 456C221 473 212 482 196 482C174 482 137 461 62 408ZM228 712C199 712 170 679 170 645C170 620 185 604 209 604C240 604 264 633 264 671C264 695 249 712 228 712ZM881 241L881 300L641 300L641 538L582 538L582 300L342 300L342 241L582 241L582 0L641 0L641 241ZM1363 -3L1363 27L1311 30C1256 33 1246 44 1246 96L1246 700L1005 598L1012 548L1162 614L1162 96C1162 44 1151 33 1097 30L1041 27L1041 -3C1195 0 1195 0 1206 0C1237 0 1347 -3 1363 -3Z" stroke="rgb(0,0,0)" stroke-opacity="1" stroke-width="8" fill="rgb(0,0,0)" fill-opacity="1"></path></g></g></g></g></g><g><g transform="matrix(1,0,0,1,234.4100341796875,65.875)"><path transform="matrix(0.017,0,0,-0.017,0,0)" d="M51 726L32 700C87 636 187 526 187 266C187 -10 83 -131 32 -194L51 -215C104 -165 273 -23 273 265C273 542 108 675 51 726Z" stroke="rgb(0,0,0)" stroke-opacity="1" stroke-width="8" fill="rgb(0,0,0)" fill-opacity="1"></path></g></g></g></g><line style="fill:none;stroke-width:0.99px;stroke:rgb(0, 0, 0);" x1="81.3800048828125" y1="47.779993295669556" x2="240.0650177001953" y2="47.779993295669556"></line></g><g><g transform="matrix(1,0,0,1,241.760009765625,51.7449951171875)"><path transform="matrix(0.017,0,0,-0.017,0,0)" d="M417 267L286 213L281 204L317 153L327 153L433 241L451 99L461 95L529 121L529 131L461 253L599 233L608 241L608 303L602 307L463 283L532 408L529 423L467 442L458 438L432 295L337 393L327 393L283 341L286 331ZM1157 204L1128 77C1124 60 1122 42 1122 26C1122 4 1131 -9 1146 -9C1169 -9 1210 17 1292 85L1285 106C1261 86 1232 59 1210 59C1201 59 1195 68 1195 82C1195 87 1195 90 1196 93L1288 472L1278 481L1245 463C1204 478 1187 482 1160 482C1132 482 1112 477 1085 464C1023 433 990 403 965 354C921 265 890 145 890 67C890 23 905 -11 924 -11C961 -11 1041 41 1157 204ZM1205 414C1183 305 1164 253 1130 201C1073 117 1012 59 980 59C968 59 962 72 962 99C962 163 990 280 1025 360C1049 415 1072 433 1120 433C1143 433 1161 429 1205 414Z" stroke="rgb(0,0,0)" stroke-opacity="1" stroke-width="8" fill="rgb(0,0,0)" fill-opacity="1"></path></g></g></g><g></g><g><g><g transform="matrix(1,0,0,1,2,106.61500549316406)"><path transform="matrix(0.017,0,0,-0.017,0,0)" d="M349 664L352 692L238 689C222 689 204 689 161 690L97 692L94 664L141 662C165 661 176 653 176 635L81 55C77 37 65 30 21 23L16 -3L57 -2C88 -1 150 0 170 0C170 0 467 -1 467 -1C467 -1 500 0 500 0C499 25 510 103 523 165L492 165L475 103C466 71 457 54 448 49C435 44 371 39 304 39C255 39 228 40 162 46C165 64 256 605 256 613C263 651 270 658 307 661Z" stroke="rgb(0,0,0)" stroke-opacity="1" stroke-width="8" fill="rgb(0,0,0)" fill-opacity="1"></path></g></g><g><g><g><g><g transform="matrix(1,0,0,1,11.94500732421875,110.57500305175782)"><path transform="matrix(0.0119,0,0,-0.0119,0,0)" d="M34 388L41 368L73 389C110 412 113 414 120 414C130 414 138 404 138 391C138 384 134 361 130 347L64 107C56 76 51 49 51 30C51 6 62 -9 81 -9C107 -9 143 12 241 85L231 103L205 86C176 67 153 56 144 56C137 56 131 66 131 76C131 86 133 95 138 116L215 420C219 437 221 448 221 456C221 473 212 482 196 482C174 482 137 461 62 408ZM228 712C199 712 170 679 170 645C170 620 185 604 209 604C240 604 264 633 264 671C264 695 249 712 228 712Z" stroke="rgb(0,0,0)" stroke-opacity="1" stroke-width="8" fill="rgb(0,0,0)" fill-opacity="1"></path></g></g></g></g></g><g><g transform="matrix(1,0,0,1,19.654998779296875,106.61500549316406)"><path transform="matrix(0.017,0,0,-0.017,0,0)" d="M123 111C93 111 66 83 66 53C66 23 93 -5 122 -5C154 -5 182 22 182 53C182 83 154 111 123 111ZM123 456C93 456 66 428 66 398C66 368 93 340 122 340C154 340 182 367 182 397C182 428 154 456 123 456Z" stroke="rgb(0,0,0)" stroke-opacity="1" stroke-width="8" fill="rgb(0,0,0)" fill-opacity="1"></path></g></g><g><g transform="matrix(1,0,0,1,27.290008544921875,106.61500549316406)"><path transform="matrix(0.017,0,0,-0.017,0,0)" d="M349 664L352 692L238 689C222 689 204 689 161 690L97 692L94 664L141 662C165 661 176 653 176 635L81 55C77 37 65 30 21 23L16 -3L57 -2C88 -1 150 0 170 0C170 0 467 -1 467 -1C467 -1 500 0 500 0C499 25 510 103 523 165L492 165L475 103C466 71 457 54 448 49C435 44 371 39 304 39C255 39 228 40 162 46C165 64 256 605 256 613C263 651 270 658 307 661ZM589 388L596 368L628 389C665 412 668 414 675 414C685 414 693 404 693 391C693 384 689 361 685 347L619 107C611 76 606 49 606 30C606 6 617 -9 636 -9C662 -9 698 12 796 85L786 103L760 86C731 67 708 56 699 56C692 56 686 66 686 76C686 86 688 95 693 116L770 420C774 437 776 448 776 456C776 473 767 482 751 482C729 482 692 461 617 408ZM783 712C754 712 725 679 725 645C725 620 740 604 764 604C795 604 819 633 819 671C819 695 804 712 783 712ZM1562 103L1536 86C1507 67 1485 56 1475 56C1468 56 1462 65 1462 76C1462 86 1464 95 1469 116L1544 413C1548 430 1551 446 1551 454C1551 471 1541 482 1525 482C1496 482 1458 464 1397 421C1334 376 1299 341 1250 272L1280 409C1284 429 1287 444 1287 451C1287 470 1277 482 1261 482C1231 482 1185 460 1130 418C1086 384 1066 363 1001 275L1034 408C1038 424 1040 439 1040 451C1040 470 1031 482 1017 482C996 482 958 461 884 408L856 388L863 368C900 391 935 414 942 414C953 414 960 404 960 389C960 338 919 145 878 2L881 -9L949 6L971 108C995 219 1022 278 1077 338C1119 384 1164 414 1192 414C1199 414 1203 406 1203 393C1203 358 1181 244 1140 69L1124 2L1129 -9L1198 6L1219 113C1235 194 1269 269 1313 318C1368 379 1418 414 1450 414C1458 414 1463 405 1463 389C1463 365 1460 351 1438 264C1398 105 1382 84 1382 31C1382 6 1393 -9 1412 -9C1438 -9 1474 12 1572 85ZM1643 388L1650 368L1682 389C1719 412 1722 414 1729 414C1739 414 1747 404 1747 391C1747 384 1743 361 1739 347L1673 107C1665 76 1660 49 1660 30C1660 6 1671 -9 1690 -9C1716 -9 1752 12 1850 85L1840 103L1814 86C1785 67 1762 56 1753 56C1746 56 1740 66 1740 76C1740 86 1742 95 1747 116L1824 420C1828 437 1830 448 1830 456C1830 473 1821 482 1805 482C1783 482 1746 461 1671 408ZM1837 712C1808 712 1779 679 1779 645C1779 620 1794 604 1818 604C1849 604 1873 633 1873 671C1873 695 1858 712 1837 712ZM2011 390L1955 107C1954 99 1942 61 1942 31C1942 6 1953 -9 1972 -9C2007 -9 2042 11 2120 74L2151 99L2141 117L2096 86C2067 66 2047 56 2036 56C2027 56 2022 64 2022 76C2022 102 2036 183 2065 328L2078 390L2185 390L2196 440C2158 436 2124 434 2086 434C2102 528 2113 577 2131 631L2120 646C2100 634 2073 622 2042 610L2017 440C1973 419 1947 408 1929 403L1927 390ZM2546 111L2522 94C2469 56 2421 36 2385 36C2338 36 2309 73 2309 133C2309 158 2312 185 2317 214C2334 218 2443 248 2468 259C2553 296 2592 342 2592 404C2592 451 2558 482 2508 482C2440 496 2330 423 2293 349C2263 299 2233 180 2233 113C2233 35 2277 -11 2349 -11C2406 -11 2462 17 2554 92ZM2331 274C2348 343 2368 386 2397 412C2415 428 2446 440 2470 440C2499 440 2518 420 2518 388C2518 344 2483 297 2431 272C2403 258 2367 247 2322 237ZM2889 388L2896 368L2928 389C2965 412 2968 414 2975 414C2985 414 2993 404 2993 391C2993 384 2989 361 2985 347L2919 107C2911 76 2906 49 2906 30C2906 6 2917 -9 2936 -9C2962 -9 2998 12 3096 85L3086 103L3060 86C3031 67 3008 56 2999 56C2992 56 2986 66 2986 76C2986 86 2988 95 2993 116L3070 420C3074 437 3076 448 3076 456C3076 473 3067 482 3051 482C3029 482 2992 461 2917 408ZM3083 712C3054 712 3025 679 3025 645C3025 620 3040 604 3064 604C3095 604 3119 633 3119 671C3119 695 3104 712 3083 712ZM3156 388L3163 368L3195 389C3232 412 3235 414 3242 414C3253 414 3260 404 3260 389C3260 338 3219 145 3178 2L3185 -9C3210 -2 3233 4 3255 8C3274 134 3295 199 3341 268C3395 352 3470 414 3515 414C3526 414 3532 405 3532 390C3532 372 3529 351 3521 319L3469 107C3460 70 3456 47 3456 31C3456 6 3467 -9 3486 -9C3512 -9 3548 12 3646 85L3636 103L3610 86C3581 67 3559 56 3549 56C3542 56 3536 65 3536 76C3536 81 3537 92 3538 96L3604 372C3611 401 3615 429 3615 446C3615 469 3604 482 3584 482C3542 482 3473 444 3414 389C3376 354 3348 320 3296 247L3334 408C3338 426 3340 438 3340 449C3340 470 3332 482 3317 482C3296 482 3257 460 3184 408ZM4032 437L4016 437L4037 549C4053 635 4081 673 4127 673C4157 673 4184 658 4199 634L4209 638C4214 654 4224 685 4232 705L4237 720C4221 727 4190 733 4167 733C4156 733 4140 730 4132 726C4108 715 4026 654 4003 630C3981 608 3969 578 3958 521L3943 442C3902 422 3882 414 3857 405L3852 383L3933 383L3924 327C3894 132 3857 -54 3835 -123C3817 -182 3787 -213 3751 -213C3728 -213 3717 -206 3699 -184L3685 -188C3681 -211 3667 -259 3662 -268C3671 -273 3686 -276 3697 -276C3738 -276 3792 -245 3831 -198C3902 -114 3922 -18 4006 383L4110 383C4114 402 4121 425 4127 439L4123 446C4094 439 4095 437 4032 437ZM4565 111L4541 94C4488 56 4440 36 4404 36C4357 36 4328 73 4328 133C4328 158 4331 185 4336 214C4353 218 4462 248 4487 259C4572 296 4611 342 4611 404C4611 451 4577 482 4527 482C4459 496 4349 423 4312 349C4282 299 4252 180 4252 113C4252 35 4296 -11 4368 -11C4425 -11 4481 17 4573 92ZM4350 274C4367 343 4387 386 4416 412C4434 428 4465 440 4489 440C4518 440 4537 420 4537 388C4537 344 4502 297 4450 272C4422 258 4386 247 4341 237ZM4993 365C4996 403 5001 435 5009 476C4998 481 4994 482 4989 482C4958 482 4927 458 4891 407C4852 351 4813 291 4797 256L4829 408C4833 425 4835 438 4835 450C4835 470 4827 482 4812 482C4791 482 4753 461 4679 408L4651 388L4658 368L4690 389C4718 407 4729 412 4738 412C4748 412 4755 403 4755 390C4755 332 4712 126 4672 -2L4682 -9C4697 -4 4713 -1 4736 4L4749 6L4775 126C4793 209 4816 262 4860 319C4894 363 4921 384 4943 384C4958 384 4968 379 4979 365ZM5047 388L5054 368L5086 389C5123 412 5126 414 5133 414C5143 414 5151 404 5151 391C5151 384 5147 361 5143 347L5077 107C5069 76 5064 49 5064 30C5064 6 5075 -9 5094 -9C5120 -9 5156 12 5254 85L5244 103L5218 86C5189 67 5166 56 5157 56C5150 56 5144 66 5144 76C5144 86 5146 95 5151 116L5228 420C5232 437 5234 448 5234 456C5234 473 5225 482 5209 482C5187 482 5150 461 5075 408ZM5241 712C5212 712 5183 679 5183 645C5183 620 5198 604 5222 604C5253 604 5277 633 5277 671C5277 695 5262 712 5241 712ZM5307 152C5307 46 5352 -11 5435 -11C5490 -11 5550 15 5595 57C5657 116 5701 230 5701 331C5701 425 5651 482 5568 482C5464 482 5307 382 5307 152ZM5531 444C5592 444 5625 399 5625 315C5625 219 5594 113 5550 60C5532 39 5506 27 5475 27C5417 27 5383 72 5383 151C5383 264 5422 387 5471 427C5484 438 5507 444 5531 444ZM6101 365C6104 403 6109 435 6117 476C6106 481 6102 482 6097 482C6066 482 6035 458 5999 407C5960 351 5921 291 5905 256L5937 408C5941 425 5943 438 5943 450C5943 470 5935 482 5920 482C5899 482 5861 461 5787 408L5759 388L5766 368L5798 389C5826 407 5837 412 5846 412C5856 412 5863 403 5863 390C5863 332 5820 126 5780 -2L5790 -9C5805 -4 5821 -1 5844 4L5857 6L5883 126C5901 209 5924 262 5968 319C6002 363 6029 384 6051 384C6066 384 6076 379 6087 365ZM6853 722L6841 733C6789 707 6753 698 6681 691L6677 670L6725 670C6749 670 6759 663 6759 646C6759 638 6758 629 6757 622L6729 468C6699 477 6672 482 6647 482C6578 482 6484 410 6438 323C6407 265 6387 170 6387 86C6387 21 6402 -11 6431 -11C6458 -11 6495 6 6529 33C6583 77 6616 116 6683 217L6660 126C6649 82 6644 50 6644 24C6644 3 6653 -9 6670 -9C6687 -9 6711 3 6745 28L6826 88L6816 107L6772 76C6758 66 6742 59 6733 59C6725 59 6719 68 6719 82C6719 90 6720 99 6727 128ZM6484 59C6468 59 6459 73 6459 98C6459 224 6505 380 6554 418C6567 428 6586 433 6613 433C6657 433 6686 427 6719 410L6707 351C6670 171 6529 59 6484 59ZM7197 111L7173 94C7120 56 7072 36 7036 36C6989 36 6960 73 6960 133C6960 158 6963 185 6968 214C6985 218 7094 248 7119 259C7204 296 7243 342 7243 404C7243 451 7209 482 7159 482C7091 496 6981 423 6944 349C6914 299 6884 180 6884 113C6884 35 6928 -11 7000 -11C7057 -11 7113 17 7205 92ZM6982 274C6999 343 7019 386 7048 412C7066 428 7097 440 7121 440C7150 440 7169 420 7169 388C7169 344 7134 297 7082 272C7054 258 7018 247 6973 237ZM7508 722L7496 733C7444 707 7408 698 7336 691L7332 670L7380 670C7404 670 7414 663 7414 648C7414 645 7414 640 7411 622C7400 567 7327 182 7312 132C7299 82 7293 52 7293 31C7293 6 7304 -9 7323 -9C7349 -9 7385 12 7483 85L7473 103L7447 86C7418 67 7396 56 7386 56C7379 56 7373 66 7373 76C7373 82 7374 89 7377 104ZM7817 388L7824 368L7856 389C7893 412 7896 414 7903 414C7913 414 7921 404 7921 391C7921 384 7917 361 7913 347L7847 107C7839 76 7834 49 7834 30C7834 6 7845 -9 7864 -9C7890 -9 7926 12 8024 85L8014 103L7988 86C7959 67 7936 56 7927 56C7920 56 7914 66 7914 76C7914 86 7916 95 7921 116L7998 420C8002 437 8004 448 8004 456C8004 473 7995 482 7979 482C7957 482 7920 461 7845 408ZM8011 712C7982 712 7953 679 7953 645C7953 620 7968 604 7992 604C8023 604 8047 633 8047 671C8047 695 8032 712 8011 712ZM9039 103L9013 86C8984 67 8962 56 8952 56C8945 56 8939 65 8939 76C8939 86 8941 95 8946 116L9021 413C9025 430 9028 446 9028 454C9028 471 9018 482 9002 482C8973 482 8935 464 8874 421C8811 376 8776 341 8727 272L8757 409C8761 429 8764 444 8764 451C8764 470 8754 482 8738 482C8708 482 8662 460 8607 418C8563 384 8543 363 8478 275L8511 408C8515 424 8517 439 8517 451C8517 470 8508 482 8494 482C8473 482 8435 461 8361 408L8333 388L8340 368C8377 391 8412 414 8419 414C8430 414 8437 404 8437 389C8437 338 8396 145 8355 2L8358 -9L8426 6L8448 108C8472 219 8499 278 8554 338C8596 384 8641 414 8669 414C8676 414 8680 406 8680 393C8680 358 8658 244 8617 69L8601 2L8606 -9L8675 6L8696 113C8712 194 8746 269 8790 318C8845 379 8895 414 8927 414C8935 414 8940 405 8940 389C8940 365 8937 351 8915 264C8875 105 8859 84 8859 31C8859 6 8870 -9 8889 -9C8915 -9 8951 12 9049 85ZM9103 152C9103 46 9148 -11 9231 -11C9286 -11 9346 15 9391 57C9453 116 9497 230 9497 331C9497 425 9447 482 9364 482C9260 482 9103 382 9103 152ZM9327 444C9388 444 9421 399 9421 315C9421 219 9390 113 9346 60C9328 39 9302 27 9271 27C9213 27 9179 72 9179 151C9179 264 9218 387 9267 427C9280 438 9303 444 9327 444ZM10012 722L10000 733C9948 707 9912 698 9840 691L9836 670L9884 670C9908 670 9918 663 9918 646C9918 638 9917 629 9916 622L9888 468C9858 477 9831 482 9806 482C9737 482 9643 410 9597 323C9566 265 9546 170 9546 86C9546 21 9561 -11 9590 -11C9617 -11 9654 6 9688 33C9742 77 9775 116 9842 217L9819 126C9808 82 9803 50 9803 24C9803 3 9812 -9 9829 -9C9846 -9 9870 3 9904 28L9985 88L9975 107L9931 76C9917 66 9901 59 9892 59C9884 59 9878 68 9878 82C9878 90 9879 99 9886 128ZM9643 59C9627 59 9618 73 9618 98C9618 224 9664 380 9713 418C9726 428 9745 433 9772 433C9816 433 9845 427 9878 410L9866 351C9829 171 9688 59 9643 59ZM10299 204L10270 77C10266 60 10264 42 10264 26C10264 4 10273 -9 10288 -9C10311 -9 10352 17 10434 85L10427 106C10403 86 10374 59 10352 59C10343 59 10337 68 10337 82C10337 87 10337 90 10338 93L10430 472L10420 481L10387 463C10346 478 10329 482 10302 482C10274 482 10254 477 10227 464C10165 433 10132 403 10107 354C10063 265 10032 145 10032 67C10032 23 10047 -11 10066 -11C10103 -11 10183 41 10299 204ZM10347 414C10325 305 10306 253 10272 201C10215 117 10154 59 10122 59C10110 59 10104 72 10104 99C10104 163 10132 280 10167 360C10191 415 10214 433 10262 433C10285 433 10303 429 10347 414ZM10722 722L10710 733C10658 707 10622 698 10550 691L10546 670L10594 670C10618 670 10628 663 10628 648C10628 645 10628 640 10625 622C10614 567 10541 182 10526 132C10513 82 10507 52 10507 31C10507 6 10518 -9 10537 -9C10563 -9 10599 12 10697 85L10687 103L10661 86C10632 67 10610 56 10600 56C10593 56 10587 66 10587 76C10587 82 10588 89 10591 104Z" stroke="rgb(0,0,0)" stroke-opacity="1" stroke-width="8" fill="rgb(0,0,0)" fill-opacity="1"></path></g></g></g><g><g><g transform="matrix(1,0,0,1,2,128.15499877929688)"><path transform="matrix(0.017,0,0,-0.017,0,0)" d="M271 204L242 77C238 60 236 42 236 26C236 4 245 -9 260 -9C283 -9 324 17 406 85L399 106C375 86 346 59 324 59C315 59 309 68 309 82C309 87 309 90 310 93L402 472L392 481L359 463C318 478 301 482 274 482C246 482 226 477 199 464C137 433 104 403 79 354C35 265 4 145 4 67C4 23 19 -11 38 -11C75 -11 155 41 271 204ZM319 414C297 305 278 253 244 201C187 117 126 59 94 59C82 59 76 72 76 99C76 163 104 280 139 360C163 415 186 433 234 433C257 433 275 429 319 414Z" stroke="rgb(0,0,0)" stroke-opacity="1" stroke-width="8" fill="rgb(0,0,0)" fill-opacity="1"></path></g></g><g><g transform="matrix(1,0,0,1,12.920013427734375,128.15499877929688)"><path transform="matrix(0.017,0,0,-0.017,0,0)" d="M123 111C93 111 66 83 66 53C66 23 93 -5 122 -5C154 -5 182 22 182 53C182 83 154 111 123 111ZM123 456C93 456 66 428 66 398C66 368 93 340 122 340C154 340 182 367 182 397C182 428 154 456 123 456Z" stroke="rgb(0,0,0)" stroke-opacity="1" stroke-width="8" fill="rgb(0,0,0)" fill-opacity="1"></path></g></g><g><g transform="matrix(1,0,0,1,20.555023193359375,128.15499877929688)"><path transform="matrix(0.017,0,0,-0.017,0,0)" d="M567 55C567 39 552 30 524 28L480 25L480 -3C582 0 582 0 602 0C622 0 622 0 724 -3L724 25L698 28C651 35 650 35 642 80L555 705L509 705L136 112C100 56 82 40 48 32L28 27L28 -3C120 0 120 0 140 0C159 0 161 0 247 -3L247 25L195 28C179 29 164 38 164 47C164 55 171 69 190 102L292 277L538 277L563 89L563 86C563 84 567 69 567 55ZM496 601L533 313L317 313ZM1481 103L1455 86C1426 67 1404 56 1394 56C1387 56 1381 65 1381 76C1381 86 1383 95 1388 116L1463 413C1467 430 1470 446 1470 454C1470 471 1460 482 1444 482C1415 482 1377 464 1316 421C1253 376 1218 341 1169 272L1199 409C1203 429 1206 444 1206 451C1206 470 1196 482 1180 482C1150 482 1104 460 1049 418C1005 384 985 363 920 275L953 408C957 424 959 439 959 451C959 470 950 482 936 482C915 482 877 461 803 408L775 388L782 368C819 391 854 414 861 414C872 414 879 404 879 389C879 338 838 145 797 2L800 -9L868 6L890 108C914 219 941 278 996 338C1038 384 1083 414 1111 414C1118 414 1122 406 1122 393C1122 358 1100 244 1059 69L1043 2L1048 -9L1117 6L1138 113C1154 194 1188 269 1232 318C1287 379 1337 414 1369 414C1377 414 1382 405 1382 389C1382 365 1379 351 1357 264C1317 105 1301 84 1301 31C1301 6 1312 -9 1331 -9C1357 -9 1393 12 1491 85ZM1704 -11C1760 -11 1875 62 1918 125C1959 186 1993 296 1993 371C1993 438 1970 482 1934 482C1892 482 1839 456 1787 409C1746 374 1726 348 1690 289L1714 408C1717 425 1719 440 1719 452C1719 471 1711 482 1697 482C1676 482 1638 461 1564 408L1536 388L1543 368L1575 389C1603 407 1614 412 1623 412C1633 412 1640 403 1640 389C1640 381 1638 361 1636 351L1578 8C1568 -52 1549 -143 1529 -233L1521 -270L1528 -276C1549 -269 1569 -264 1601 -259L1643 3C1664 -4 1686 -11 1704 -11ZM1671 165C1693 293 1800 424 1883 424C1909 424 1921 402 1921 356C1921 275 1881 156 1828 80C1808 51 1776 36 1735 36C1704 36 1679 43 1653 59ZM2278 722L2266 733C2214 707 2178 698 2106 691L2102 670L2150 670C2174 670 2184 663 2184 648C2184 645 2184 640 2181 622C2170 567 2097 182 2082 132C2069 82 2063 52 2063 31C2063 6 2074 -9 2093 -9C2119 -9 2155 12 2253 85L2243 103L2217 86C2188 67 2166 56 2156 56C2149 56 2143 66 2143 76C2143 82 2144 89 2147 104ZM2338 388L2345 368L2377 389C2414 412 2417 414 2424 414C2434 414 2442 404 2442 391C2442 384 2438 361 2434 347L2368 107C2360 76 2355 49 2355 30C2355 6 2366 -9 2385 -9C2411 -9 2447 12 2545 85L2535 103L2509 86C2480 67 2457 56 2448 56C2441 56 2435 66 2435 76C2435 86 2437 95 2442 116L2519 420C2523 437 2525 448 2525 456C2525 473 2516 482 2500 482C2478 482 2441 461 2366 408ZM2532 712C2503 712 2474 679 2474 645C2474 620 2489 604 2513 604C2544 604 2568 633 2568 671C2568 695 2553 712 2532 712ZM2706 390L2650 107C2649 99 2637 61 2637 31C2637 6 2648 -9 2667 -9C2702 -9 2737 11 2815 74L2846 99L2836 117L2791 86C2762 66 2742 56 2731 56C2722 56 2717 64 2717 76C2717 102 2731 183 2760 328L2773 390L2880 390L2891 440C2853 436 2819 434 2781 434C2797 528 2808 577 2826 631L2815 646C2795 634 2768 622 2737 610L2712 440C2668 419 2642 408 2624 403L2622 390ZM3405 473L3398 482L3330 465L3320 414C3305 336 3280 268 3249 221C3190 130 3112 59 3072 59C3064 59 3059 68 3059 85C3059 99 3061 112 3066 137L3123 408C3126 424 3128 438 3128 451C3128 470 3119 482 3105 482C3085 482 3047 461 2973 408L2945 388L2952 368L2984 389C3012 407 3023 412 3032 412C3041 412 3049 403 3049 392C3049 388 3048 378 3047 374L2984 77C2982 68 2980 44 2980 30C2980 7 2995 -11 3015 -11C3078 -11 3199 101 3283 239L3246 97C3239 73 3235 46 3235 31C3235 6 3246 -9 3265 -9C3291 -9 3327 12 3425 85L3415 103L3389 86C3365 70 3339 59 3328 59C3320 59 3315 66 3315 76C3315 112 3390 416 3405 473ZM3951 722L3939 733C3887 707 3851 698 3779 691L3775 670L3823 670C3847 670 3857 663 3857 646C3857 638 3856 629 3855 622L3827 468C3797 477 3770 482 3745 482C3676 482 3582 410 3536 323C3505 265 3485 170 3485 86C3485 21 3500 -11 3529 -11C3556 -11 3593 6 3627 33C3681 77 3714 116 3781 217L3758 126C3747 82 3742 50 3742 24C3742 3 3751 -9 3768 -9C3785 -9 3809 3 3843 28L3924 88L3914 107L3870 76C3856 66 3840 59 3831 59C3823 59 3817 68 3817 82C3817 90 3818 99 3825 128ZM3582 59C3566 59 3557 73 3557 98C3557 224 3603 380 3652 418C3665 428 3684 433 3711 433C3755 433 3784 427 3817 410L3805 351C3768 171 3627 59 3582 59ZM4699 722L4687 733C4635 707 4599 698 4527 691L4523 670L4571 670C4595 670 4605 663 4605 646C4605 638 4604 629 4603 622L4575 468C4545 477 4518 482 4493 482C4424 482 4330 410 4284 323C4253 265 4233 170 4233 86C4233 21 4248 -11 4277 -11C4304 -11 4341 6 4375 33C4429 77 4462 116 4529 217L4506 126C4495 82 4490 50 4490 24C4490 3 4499 -9 4516 -9C4533 -9 4557 3 4591 28L4672 88L4662 107L4618 76C4604 66 4588 59 4579 59C4571 59 4565 68 4565 82C4565 90 4566 99 4573 128ZM4330 59C4314 59 4305 73 4305 98C4305 224 4351 380 4400 418C4413 428 4432 433 4459 433C4503 433 4532 427 4565 410L4553 351C4516 171 4375 59 4330 59ZM5043 111L5019 94C4966 56 4918 36 4882 36C4835 36 4806 73 4806 133C4806 158 4809 185 4814 214C4831 218 4940 248 4965 259C5050 296 5089 342 5089 404C5089 451 5055 482 5005 482C4937 496 4827 423 4790 349C4760 299 4730 180 4730 113C4730 35 4774 -11 4846 -11C4903 -11 4959 17 5051 92ZM4828 274C4845 343 4865 386 4894 412C4912 428 4943 440 4967 440C4996 440 5015 420 5015 388C5015 344 4980 297 4928 272C4900 258 4864 247 4819 237ZM5603 722L5591 733C5539 707 5503 698 5431 691L5427 670L5475 670C5499 670 5509 663 5509 648C5509 645 5509 640 5506 622C5495 567 5422 182 5407 132C5394 82 5388 52 5388 31C5388 6 5399 -9 5418 -9C5444 -9 5480 12 5578 85L5568 103L5542 86C5513 67 5491 56 5481 56C5474 56 5468 66 5468 76C5468 82 5469 89 5472 104ZM5646 152C5646 46 5691 -11 5774 -11C5829 -11 5889 15 5934 57C5996 116 6040 230 6040 331C6040 425 5990 482 5907 482C5803 482 5646 382 5646 152ZM5870 444C5931 444 5964 399 5964 315C5964 219 5933 113 5889 60C5871 39 5845 27 5814 27C5756 27 5722 72 5722 151C5722 264 5761 387 5810 427C5823 438 5846 444 5870 444ZM6103 148C6098 97 6092 62 6081 16C6119 -2 6153 -11 6188 -11C6237 -11 6283 7 6334 47C6385 87 6406 124 6406 174C6406 228 6374 257 6300 271L6257 279C6197 290 6178 307 6178 348C6178 401 6223 442 6280 442C6321 442 6359 424 6375 397L6375 342L6398 342C6402 377 6406 404 6417 455C6378 474 6350 482 6317 482C6265 482 6204 452 6156 404C6130 377 6119 352 6119 316C6119 260 6150 228 6216 215L6279 203C6323 195 6339 177 6339 138C6339 73 6293 29 6222 29C6187 29 6156 40 6128 64L6128 148ZM6743 388L6750 368L6782 389C6819 412 6822 414 6829 414C6839 414 6847 404 6847 391C6847 384 6843 361 6839 347L6773 107C6765 76 6760 49 6760 30C6760 6 6771 -9 6790 -9C6816 -9 6852 12 6950 85L6940 103L6914 86C6885 67 6862 56 6853 56C6846 56 6840 66 6840 76C6840 86 6842 95 6847 116L6924 420C6928 437 6930 448 6930 456C6930 473 6921 482 6905 482C6883 482 6846 461 6771 408ZM6937 712C6908 712 6879 679 6879 645C6879 620 6894 604 6918 604C6949 604 6973 633 6973 671C6973 695 6958 712 6937 712Z" stroke="rgb(0,0,0)" stroke-opacity="1" stroke-width="8" fill="rgb(0,0,0)" fill-opacity="1"></path></g></g></g><g><g><g transform="matrix(1,0,0,1,2,148.31500244140625)"><path transform="matrix(0.017,0,0,-0.017,0,0)" d="M345 437L329 437L350 549C366 635 394 673 440 673C470 673 497 658 512 634L522 638C527 654 537 685 545 705L550 720C534 727 503 733 480 733C469 733 453 730 445 726C421 715 339 654 316 630C294 608 282 578 271 521L256 442C215 422 195 414 170 405L165 383L246 383L237 327C207 132 170 -54 148 -123C130 -182 100 -213 64 -213C41 -213 30 -206 12 -184L-2 -188C-6 -211 -20 -259 -25 -268C-16 -273 -1 -276 10 -276C51 -276 105 -245 144 -198C215 -114 235 -18 319 383L423 383C427 402 434 425 440 439L436 446C407 439 408 437 345 437Z" stroke="rgb(0,0,0)" stroke-opacity="1" stroke-width="8" fill="rgb(0,0,0)" fill-opacity="1"></path></g></g><g><g><g><g><g transform="matrix(1,0,0,1,11.8699951171875,152.275)"><path transform="matrix(0.0119,0,0,-0.0119,0,0)" d="M34 388L41 368L73 389C110 412 113 414 120 414C130 414 138 404 138 391C138 384 134 361 130 347L64 107C56 76 51 49 51 30C51 6 62 -9 81 -9C107 -9 143 12 241 85L231 103L205 86C176 67 153 56 144 56C137 56 131 66 131 76C131 86 133 95 138 116L215 420C219 437 221 448 221 456C221 473 212 482 196 482C174 482 137 461 62 408ZM228 712C199 712 170 679 170 645C170 620 185 604 209 604C240 604 264 633 264 671C264 695 249 712 228 712Z" stroke="rgb(0,0,0)" stroke-opacity="1" stroke-width="8" fill="rgb(0,0,0)" fill-opacity="1"></path></g></g></g></g></g><g><g transform="matrix(1,0,0,1,19.58001708984375,148.31500244140625)"><path transform="matrix(0.017,0,0,-0.017,0,0)" d="M123 111C93 111 66 83 66 53C66 23 93 -5 122 -5C154 -5 182 22 182 53C182 83 154 111 123 111ZM123 456C93 456 66 428 66 398C66 368 93 340 122 340C154 340 182 367 182 397C182 428 154 456 123 456Z" stroke="rgb(0,0,0)" stroke-opacity="1" stroke-width="8" fill="rgb(0,0,0)" fill-opacity="1"></path></g></g><g><g transform="matrix(1,0,0,1,27.214996337890625,148.31500244140625)"><path transform="matrix(0.017,0,0,-0.017,0,0)" d="M286 646L392 650C454 650 494 641 495 626L503 537L527 537C530 600 537 651 548 689C526 691 498 692 481 692L440 691L275 689L246 689C221 689 181 690 143 691L94 692L91 664L147 662C171 661 182 652 182 635C182 621 178 589 173 559L98 125C81 33 81 32 40 28L4 25L0 -3L34 -2C74 -1 106 0 127 0C145 0 174 -1 213 -2L265 -3L268 25L204 28C177 29 168 37 168 57C168 63 169 74 170 78L206 301L323 301C350 301 381 300 429 298L455 297L474 342L470 349C389 345 329 343 251 343L214 343L260 614C263 630 264 635 269 646Z" stroke="rgb(0,0,0)" stroke-opacity="1" stroke-width="8" fill="rgb(0,0,0)" fill-opacity="1"></path></g></g><g><g transform="matrix(1,0,0,1,36.649993896484375,148.31500244140625)"><path transform="matrix(0.017,0,0,-0.017,0,0)" d="M124 111C94 111 67 83 67 53C67 23 94 -5 123 -5C155 -5 183 22 183 53C183 83 155 111 124 111Z" stroke="rgb(0,0,0)" stroke-opacity="1" stroke-width="8" fill="rgb(0,0,0)" fill-opacity="1"></path></g></g><g><g transform="matrix(1,0,0,1,44.285003662109375,148.31500244140625)"><path transform="matrix(0.017,0,0,-0.017,0,0)" d="M271 204L242 77C238 60 236 42 236 26C236 4 245 -9 260 -9C283 -9 324 17 406 85L399 106C375 86 346 59 324 59C315 59 309 68 309 82C309 87 309 90 310 93L402 472L392 481L359 463C318 478 301 482 274 482C246 482 226 477 199 464C137 433 104 403 79 354C35 265 4 145 4 67C4 23 19 -11 38 -11C75 -11 155 41 271 204ZM319 414C297 305 278 253 244 201C187 117 126 59 94 59C82 59 76 72 76 99C76 163 104 280 139 360C163 415 186 433 234 433C257 433 275 429 319 414ZM678 722L666 733C614 707 578 698 506 691L502 670L550 670C574 670 584 663 584 646C584 639 583 628 582 622L481 71C480 68 480 64 480 61C480 22 528 -11 583 -11C620 -11 671 8 714 39C810 107 876 244 876 376C876 414 867 453 855 468C848 477 835 482 820 482C796 482 766 474 738 460C687 433 654 403 592 324ZM765 424C791 424 804 401 804 352C804 288 783 202 753 137C720 68 680 36 626 36C580 36 555 59 555 101C555 135 570 276 651 361C684 395 736 424 765 424ZM936 148C931 97 925 62 914 16C952 -2 986 -11 1021 -11C1070 -11 1116 7 1167 47C1218 87 1239 124 1239 174C1239 228 1207 257 1133 271L1090 279C1030 290 1011 307 1011 348C1011 401 1056 442 1113 442C1154 442 1192 424 1208 397L1208 342L1231 342C1235 377 1239 404 1250 455C1211 474 1183 482 1150 482C1098 482 1037 452 989 404C963 377 952 352 952 316C952 260 983 228 1049 215L1112 203C1156 195 1172 177 1172 138C1172 73 1126 29 1055 29C1020 29 989 40 961 64L961 148ZM2025 722L2013 733C1961 707 1925 698 1853 691L1849 670L1897 670C1921 670 1931 663 1931 646C1931 638 1930 629 1929 622L1901 468C1871 477 1844 482 1819 482C1750 482 1656 410 1610 323C1579 265 1559 170 1559 86C1559 21 1574 -11 1603 -11C1630 -11 1667 6 1701 33C1755 77 1788 116 1855 217L1832 126C1821 82 1816 50 1816 24C1816 3 1825 -9 1842 -9C1859 -9 1883 3 1917 28L1998 88L1988 107L1944 76C1930 66 1914 59 1905 59C1897 59 1891 68 1891 82C1891 90 1892 99 1899 128ZM1656 59C1640 59 1631 73 1631 98C1631 224 1677 380 1726 418C1739 428 1758 433 1785 433C1829 433 1858 427 1891 410L1879 351C1842 171 1701 59 1656 59ZM2369 111L2345 94C2292 56 2244 36 2208 36C2161 36 2132 73 2132 133C2132 158 2135 185 2140 214C2157 218 2266 248 2291 259C2376 296 2415 342 2415 404C2415 451 2381 482 2331 482C2263 496 2153 423 2116 349C2086 299 2056 180 2056 113C2056 35 2100 -11 2172 -11C2229 -11 2285 17 2377 92ZM2154 274C2171 343 2191 386 2220 412C2238 428 2269 440 2293 440C2322 440 2341 420 2341 388C2341 344 2306 297 2254 272C2226 258 2190 247 2145 237ZM2680 722L2668 733C2616 707 2580 698 2508 691L2504 670L2552 670C2576 670 2586 663 2586 648C2586 645 2586 640 2583 622C2572 567 2499 182 2484 132C2471 82 2465 52 2465 31C2465 6 2476 -9 2495 -9C2521 -9 2557 12 2655 85L2645 103L2619 86C2590 67 2568 56 2558 56C2551 56 2545 66 2545 76C2545 82 2546 89 2549 104ZM2989 388L2996 368L3028 389C3065 412 3068 414 3075 414C3085 414 3093 404 3093 391C3093 384 3089 361 3085 347L3019 107C3011 76 3006 49 3006 30C3006 6 3017 -9 3036 -9C3062 -9 3098 12 3196 85L3186 103L3160 86C3131 67 3108 56 3099 56C3092 56 3086 66 3086 76C3086 86 3088 95 3093 116L3170 420C3174 437 3176 448 3176 456C3176 473 3167 482 3151 482C3129 482 3092 461 3017 408ZM3183 712C3154 712 3125 679 3125 645C3125 620 3140 604 3164 604C3195 604 3219 633 3219 671C3219 695 3204 712 3183 712ZM4211 103L4185 86C4156 67 4134 56 4124 56C4117 56 4111 65 4111 76C4111 86 4113 95 4118 116L4193 413C4197 430 4200 446 4200 454C4200 471 4190 482 4174 482C4145 482 4107 464 4046 421C3983 376 3948 341 3899 272L3929 409C3933 429 3936 444 3936 451C3936 470 3926 482 3910 482C3880 482 3834 460 3779 418C3735 384 3715 363 3650 275L3683 408C3687 424 3689 439 3689 451C3689 470 3680 482 3666 482C3645 482 3607 461 3533 408L3505 388L3512 368C3549 391 3584 414 3591 414C3602 414 3609 404 3609 389C3609 338 3568 145 3527 2L3530 -9L3598 6L3620 108C3644 219 3671 278 3726 338C3768 384 3813 414 3841 414C3848 414 3852 406 3852 393C3852 358 3830 244 3789 69L3773 2L3778 -9L3847 6L3868 113C3884 194 3918 269 3962 318C4017 379 4067 414 4099 414C4107 414 4112 405 4112 389C4112 365 4109 351 4087 264C4047 105 4031 84 4031 31C4031 6 4042 -9 4061 -9C4087 -9 4123 12 4221 85ZM4275 152C4275 46 4320 -11 4403 -11C4458 -11 4518 15 4563 57C4625 116 4669 230 4669 331C4669 425 4619 482 4536 482C4432 482 4275 382 4275 152ZM4499 444C4560 444 4593 399 4593 315C4593 219 4562 113 4518 60C4500 39 4474 27 4443 27C4385 27 4351 72 4351 151C4351 264 4390 387 4439 427C4452 438 4475 444 4499 444ZM5184 722L5172 733C5120 707 5084 698 5012 691L5008 670L5056 670C5080 670 5090 663 5090 646C5090 638 5089 629 5088 622L5060 468C5030 477 5003 482 4978 482C4909 482 4815 410 4769 323C4738 265 4718 170 4718 86C4718 21 4733 -11 4762 -11C4789 -11 4826 6 4860 33C4914 77 4947 116 5014 217L4991 126C4980 82 4975 50 4975 24C4975 3 4984 -9 5001 -9C5018 -9 5042 3 5076 28L5157 88L5147 107L5103 76C5089 66 5073 59 5064 59C5056 59 5050 68 5050 82C5050 90 5051 99 5058 128ZM4815 59C4799 59 4790 73 4790 98C4790 224 4836 380 4885 418C4898 428 4917 433 4944 433C4988 433 5017 427 5050 410L5038 351C5001 171 4860 59 4815 59ZM5471 204L5442 77C5438 60 5436 42 5436 26C5436 4 5445 -9 5460 -9C5483 -9 5524 17 5606 85L5599 106C5575 86 5546 59 5524 59C5515 59 5509 68 5509 82C5509 87 5509 90 5510 93L5602 472L5592 481L5559 463C5518 478 5501 482 5474 482C5446 482 5426 477 5399 464C5337 433 5304 403 5279 354C5235 265 5204 145 5204 67C5204 23 5219 -11 5238 -11C5275 -11 5355 41 5471 204ZM5519 414C5497 305 5478 253 5444 201C5387 117 5326 59 5294 59C5282 59 5276 72 5276 99C5276 163 5304 280 5339 360C5363 415 5386 433 5434 433C5457 433 5475 429 5519 414ZM5894 722L5882 733C5830 707 5794 698 5722 691L5718 670L5766 670C5790 670 5800 663 5800 648C5800 645 5800 640 5797 622C5786 567 5713 182 5698 132C5685 82 5679 52 5679 31C5679 6 5690 -9 5709 -9C5735 -9 5771 12 5869 85L5859 103L5833 86C5804 67 5782 56 5772 56C5765 56 5759 66 5759 76C5759 82 5760 89 5763 104Z" stroke="rgb(0,0,0)" stroke-opacity="1" stroke-width="8" fill="rgb(0,0,0)" fill-opacity="1"></path></g></g></g><g><g><g transform="matrix(1,0,0,1,2,169.85499572753906)"><path transform="matrix(0.017,0,0,-0.017,0,0)" d="M345 437L329 437L350 549C366 635 394 673 440 673C470 673 497 658 512 634L522 638C527 654 537 685 545 705L550 720C534 727 503 733 480 733C469 733 453 730 445 726C421 715 339 654 316 630C294 608 282 578 271 521L256 442C215 422 195 414 170 405L165 383L246 383L237 327C207 132 170 -54 148 -123C130 -182 100 -213 64 -213C41 -213 30 -206 12 -184L-2 -188C-6 -211 -20 -259 -25 -268C-16 -273 -1 -276 10 -276C51 -276 105 -245 144 -198C215 -114 235 -18 319 383L423 383C427 402 434 425 440 439L436 446C407 439 408 437 345 437Z" stroke="rgb(0,0,0)" stroke-opacity="1" stroke-width="8" fill="rgb(0,0,0)" fill-opacity="1"></path></g></g><g><g><g><g><g transform="matrix(1,0,0,1,11.8699951171875,173.81500854492188)"><path transform="matrix(0.0119,0,0,-0.0119,0,0)" d="M34 388L41 368L73 389C110 412 113 414 120 414C130 414 138 404 138 391C138 384 134 361 130 347L64 107C56 76 51 49 51 30C51 6 62 -9 81 -9C107 -9 143 12 241 85L231 103L205 86C176 67 153 56 144 56C137 56 131 66 131 76C131 86 133 95 138 116L215 420C219 437 221 448 221 456C221 473 212 482 196 482C174 482 137 461 62 408ZM228 712C199 712 170 679 170 645C170 620 185 604 209 604C240 604 264 633 264 671C264 695 249 712 228 712ZM832 243L832 299L328 299L328 243ZM1300 -3L1300 27L1248 30C1193 33 1183 44 1183 96L1183 700L942 598L949 548L1099 614L1099 96C1099 44 1088 33 1034 30L978 27L978 -3C1132 0 1132 0 1143 0C1174 0 1284 -3 1300 -3Z" stroke="rgb(0,0,0)" stroke-opacity="1" stroke-width="8" fill="rgb(0,0,0)" fill-opacity="1"></path></g></g></g></g></g><g><g transform="matrix(1,0,0,1,32.720001220703125,169.85499572753906)"><path transform="matrix(0.017,0,0,-0.017,0,0)" d="M123 111C93 111 66 83 66 53C66 23 93 -5 122 -5C154 -5 182 22 182 53C182 83 154 111 123 111ZM123 456C93 456 66 428 66 398C66 368 93 340 122 340C154 340 182 367 182 397C182 428 154 456 123 456Z" stroke="rgb(0,0,0)" stroke-opacity="1" stroke-width="8" fill="rgb(0,0,0)" fill-opacity="1"></path></g></g><g><g transform="matrix(1,0,0,1,40.355010986328125,169.85499572753906)"><path transform="matrix(0.017,0,0,-0.017,0,0)" d="M286 646L392 650C454 650 494 641 495 626L503 537L527 537C530 600 537 651 548 689C526 691 498 692 481 692L440 691L275 689L246 689C221 689 181 690 143 691L94 692L91 664L147 662C171 661 182 652 182 635C182 621 178 589 173 559L98 125C81 33 81 32 40 28L4 25L0 -3L34 -2C74 -1 106 0 127 0C145 0 174 -1 213 -2L265 -3L268 25L204 28C177 29 168 37 168 57C168 63 169 74 170 78L206 301L323 301C350 301 381 300 429 298L455 297L474 342L470 349C389 345 329 343 251 343L214 343L260 614C263 630 264 635 269 646Z" stroke="rgb(0,0,0)" stroke-opacity="1" stroke-width="8" fill="rgb(0,0,0)" fill-opacity="1"></path></g></g><g><g transform="matrix(1,0,0,1,49.790008544921875,169.85499572753906)"><path transform="matrix(0.017,0,0,-0.017,0,0)" d="M124 111C94 111 67 83 67 53C67 23 94 -5 123 -5C155 -5 183 22 183 53C183 83 155 111 124 111Z" stroke="rgb(0,0,0)" stroke-opacity="1" stroke-width="8" fill="rgb(0,0,0)" fill-opacity="1"></path></g></g><g><g transform="matrix(1,0,0,1,57.425018310546875,169.85499572753906)"><path transform="matrix(0.017,0,0,-0.017,0,0)" d="M271 204L242 77C238 60 236 42 236 26C236 4 245 -9 260 -9C283 -9 324 17 406 85L399 106C375 86 346 59 324 59C315 59 309 68 309 82C309 87 309 90 310 93L402 472L392 481L359 463C318 478 301 482 274 482C246 482 226 477 199 464C137 433 104 403 79 354C35 265 4 145 4 67C4 23 19 -11 38 -11C75 -11 155 41 271 204ZM319 414C297 305 278 253 244 201C187 117 126 59 94 59C82 59 76 72 76 99C76 163 104 280 139 360C163 415 186 433 234 433C257 433 275 429 319 414ZM678 722L666 733C614 707 578 698 506 691L502 670L550 670C574 670 584 663 584 646C584 639 583 628 582 622L481 71C480 68 480 64 480 61C480 22 528 -11 583 -11C620 -11 671 8 714 39C810 107 876 244 876 376C876 414 867 453 855 468C848 477 835 482 820 482C796 482 766 474 738 460C687 433 654 403 592 324ZM765 424C791 424 804 401 804 352C804 288 783 202 753 137C720 68 680 36 626 36C580 36 555 59 555 101C555 135 570 276 651 361C684 395 736 424 765 424ZM936 148C931 97 925 62 914 16C952 -2 986 -11 1021 -11C1070 -11 1116 7 1167 47C1218 87 1239 124 1239 174C1239 228 1207 257 1133 271L1090 279C1030 290 1011 307 1011 348C1011 401 1056 442 1113 442C1154 442 1192 424 1208 397L1208 342L1231 342C1235 377 1239 404 1250 455C1211 474 1183 482 1150 482C1098 482 1037 452 989 404C963 377 952 352 952 316C952 260 983 228 1049 215L1112 203C1156 195 1172 177 1172 138C1172 73 1126 29 1055 29C1020 29 989 40 961 64L961 148ZM2025 722L2013 733C1961 707 1925 698 1853 691L1849 670L1897 670C1921 670 1931 663 1931 646C1931 638 1930 629 1929 622L1901 468C1871 477 1844 482 1819 482C1750 482 1656 410 1610 323C1579 265 1559 170 1559 86C1559 21 1574 -11 1603 -11C1630 -11 1667 6 1701 33C1755 77 1788 116 1855 217L1832 126C1821 82 1816 50 1816 24C1816 3 1825 -9 1842 -9C1859 -9 1883 3 1917 28L1998 88L1988 107L1944 76C1930 66 1914 59 1905 59C1897 59 1891 68 1891 82C1891 90 1892 99 1899 128ZM1656 59C1640 59 1631 73 1631 98C1631 224 1677 380 1726 418C1739 428 1758 433 1785 433C1829 433 1858 427 1891 410L1879 351C1842 171 1701 59 1656 59ZM2369 111L2345 94C2292 56 2244 36 2208 36C2161 36 2132 73 2132 133C2132 158 2135 185 2140 214C2157 218 2266 248 2291 259C2376 296 2415 342 2415 404C2415 451 2381 482 2331 482C2263 496 2153 423 2116 349C2086 299 2056 180 2056 113C2056 35 2100 -11 2172 -11C2229 -11 2285 17 2377 92ZM2154 274C2171 343 2191 386 2220 412C2238 428 2269 440 2293 440C2322 440 2341 420 2341 388C2341 344 2306 297 2254 272C2226 258 2190 247 2145 237ZM2680 722L2668 733C2616 707 2580 698 2508 691L2504 670L2552 670C2576 670 2586 663 2586 648C2586 645 2586 640 2583 622C2572 567 2499 182 2484 132C2471 82 2465 52 2465 31C2465 6 2476 -9 2495 -9C2521 -9 2557 12 2655 85L2645 103L2619 86C2590 67 2568 56 2558 56C2551 56 2545 66 2545 76C2545 82 2546 89 2549 104ZM2989 388L2996 368L3028 389C3065 412 3068 414 3075 414C3085 414 3093 404 3093 391C3093 384 3089 361 3085 347L3019 107C3011 76 3006 49 3006 30C3006 6 3017 -9 3036 -9C3062 -9 3098 12 3196 85L3186 103L3160 86C3131 67 3108 56 3099 56C3092 56 3086 66 3086 76C3086 86 3088 95 3093 116L3170 420C3174 437 3176 448 3176 456C3176 473 3167 482 3151 482C3129 482 3092 461 3017 408ZM3183 712C3154 712 3125 679 3125 645C3125 620 3140 604 3164 604C3195 604 3219 633 3219 671C3219 695 3204 712 3183 712ZM3752 204L3723 77C3719 60 3717 42 3717 26C3717 4 3726 -9 3741 -9C3764 -9 3805 17 3887 85L3880 106C3856 86 3827 59 3805 59C3796 59 3790 68 3790 82C3790 87 3790 90 3791 93L3883 472L3873 481L3840 463C3799 478 3782 482 3755 482C3727 482 3707 477 3680 464C3618 433 3585 403 3560 354C3516 265 3485 145 3485 67C3485 23 3500 -11 3519 -11C3556 -11 3636 41 3752 204ZM3800 414C3778 305 3759 253 3725 201C3668 117 3607 59 3575 59C3563 59 3557 72 3557 99C3557 163 3585 280 3620 360C3644 415 3667 433 3715 433C3738 433 3756 429 3800 414ZM3948 388L3955 368L3987 389C4024 412 4027 414 4034 414C4045 414 4052 404 4052 389C4052 338 4011 145 3970 2L3977 -9C4002 -2 4025 4 4047 8C4066 134 4087 199 4133 268C4187 352 4262 414 4307 414C4318 414 4324 405 4324 390C4324 372 4321 351 4313 319L4261 107C4252 70 4248 47 4248 31C4248 6 4259 -9 4278 -9C4304 -9 4340 12 4438 85L4428 103L4402 86C4373 67 4351 56 4341 56C4334 56 4328 65 4328 76C4328 81 4329 92 4330 96L4396 372C4403 401 4407 429 4407 446C4407 469 4396 482 4376 482C4334 482 4265 444 4206 389C4168 354 4140 320 4088 247L4126 408C4130 426 4132 438 4132 449C4132 470 4124 482 4109 482C4088 482 4049 460 3976 408ZM4604 390L4548 107C4547 99 4535 61 4535 31C4535 6 4546 -9 4565 -9C4600 -9 4635 11 4713 74L4744 99L4734 117L4689 86C4660 66 4640 56 4629 56C4620 56 4615 64 4615 76C4615 102 4629 183 4658 328L4671 390L4778 390L4789 440C4751 436 4717 434 4679 434C4695 528 4706 577 4724 631L4713 646C4693 634 4666 622 4635 610L4610 440C4566 419 4540 408 4522 403L4520 390ZM5139 111L5115 94C5062 56 5014 36 4978 36C4931 36 4902 73 4902 133C4902 158 4905 185 4910 214C4927 218 5036 248 5061 259C5146 296 5185 342 5185 404C5185 451 5151 482 5101 482C5033 496 4923 423 4886 349C4856 299 4826 180 4826 113C4826 35 4870 -11 4942 -11C4999 -11 5055 17 5147 92ZM4924 274C4941 343 4961 386 4990 412C5008 428 5039 440 5063 440C5092 440 5111 420 5111 388C5111 344 5076 297 5024 272C4996 258 4960 247 4915 237ZM5567 365C5570 403 5575 435 5583 476C5572 481 5568 482 5563 482C5532 482 5501 458 5465 407C5426 351 5387 291 5371 256L5403 408C5407 425 5409 438 5409 450C5409 470 5401 482 5386 482C5365 482 5327 461 5253 408L5225 388L5232 368L5264 389C5292 407 5303 412 5312 412C5322 412 5329 403 5329 390C5329 332 5286 126 5246 -2L5256 -9C5271 -4 5287 -1 5310 4L5323 6L5349 126C5367 209 5390 262 5434 319C5468 363 5495 384 5517 384C5532 384 5542 379 5553 365ZM5621 388L5628 368L5660 389C5697 412 5700 414 5707 414C5717 414 5725 404 5725 391C5725 384 5721 361 5717 347L5651 107C5643 76 5638 49 5638 30C5638 6 5649 -9 5668 -9C5694 -9 5730 12 5828 85L5818 103L5792 86C5763 67 5740 56 5731 56C5724 56 5718 66 5718 76C5718 86 5720 95 5725 116L5802 420C5806 437 5808 448 5808 456C5808 473 5799 482 5783 482C5761 482 5724 461 5649 408ZM5815 712C5786 712 5757 679 5757 645C5757 620 5772 604 5796 604C5827 604 5851 633 5851 671C5851 695 5836 712 5815 712ZM5881 152C5881 46 5926 -11 6009 -11C6064 -11 6124 15 6169 57C6231 116 6275 230 6275 331C6275 425 6225 482 6142 482C6038 482 5881 382 5881 152ZM6105 444C6166 444 6199 399 6199 315C6199 219 6168 113 6124 60C6106 39 6080 27 6049 27C5991 27 5957 72 5957 151C5957 264 5996 387 6045 427C6058 438 6081 444 6105 444ZM6675 365C6678 403 6683 435 6691 476C6680 481 6676 482 6671 482C6640 482 6609 458 6573 407C6534 351 6495 291 6479 256L6511 408C6515 425 6517 438 6517 450C6517 470 6509 482 6494 482C6473 482 6435 461 6361 408L6333 388L6340 368L6372 389C6400 407 6411 412 6420 412C6430 412 6437 403 6437 390C6437 332 6394 126 6354 -2L6364 -9C6379 -4 6395 -1 6418 4L6431 6L6457 126C6475 209 6498 262 6542 319C6576 363 6603 384 6625 384C6640 384 6650 379 6661 365ZM7215 204L7186 77C7182 60 7180 42 7180 26C7180 4 7189 -9 7204 -9C7227 -9 7268 17 7350 85L7343 106C7319 86 7290 59 7268 59C7259 59 7253 68 7253 82C7253 87 7253 90 7254 93L7346 472L7336 481L7303 463C7262 478 7245 482 7218 482C7190 482 7170 477 7143 464C7081 433 7048 403 7023 354C6979 265 6948 145 6948 67C6948 23 6963 -11 6982 -11C7019 -11 7099 41 7215 204ZM7263 414C7241 305 7222 253 7188 201C7131 117 7070 59 7038 59C7026 59 7020 72 7020 99C7020 163 7048 280 7083 360C7107 415 7130 433 7178 433C7201 433 7219 429 7263 414ZM7638 722L7626 733C7574 707 7538 698 7466 691L7462 670L7510 670C7534 670 7544 663 7544 648C7544 645 7544 640 7541 622C7530 567 7457 182 7442 132C7429 82 7423 52 7423 31C7423 6 7434 -9 7453 -9C7479 -9 7515 12 7613 85L7603 103L7577 86C7548 67 7526 56 7516 56C7509 56 7503 66 7503 76C7503 82 7504 89 7507 104ZM8643 103L8617 86C8588 67 8566 56 8556 56C8549 56 8543 65 8543 76C8543 86 8545 95 8550 116L8625 413C8629 430 8632 446 8632 454C8632 471 8622 482 8606 482C8577 482 8539 464 8478 421C8415 376 8380 341 8331 272L8361 409C8365 429 8368 444 8368 451C8368 470 8358 482 8342 482C8312 482 8266 460 8211 418C8167 384 8147 363 8082 275L8115 408C8119 424 8121 439 8121 451C8121 470 8112 482 8098 482C8077 482 8039 461 7965 408L7937 388L7944 368C7981 391 8016 414 8023 414C8034 414 8041 404 8041 389C8041 338 8000 145 7959 2L7962 -9L8030 6L8052 108C8076 219 8103 278 8158 338C8200 384 8245 414 8273 414C8280 414 8284 406 8284 393C8284 358 8262 244 8221 69L8205 2L8210 -9L8279 6L8300 113C8316 194 8350 269 8394 318C8449 379 8499 414 8531 414C8539 414 8544 405 8544 389C8544 365 8541 351 8519 264C8479 105 8463 84 8463 31C8463 6 8474 -9 8493 -9C8519 -9 8555 12 8653 85ZM8707 152C8707 46 8752 -11 8835 -11C8890 -11 8950 15 8995 57C9057 116 9101 230 9101 331C9101 425 9051 482 8968 482C8864 482 8707 382 8707 152ZM8931 444C8992 444 9025 399 9025 315C9025 219 8994 113 8950 60C8932 39 8906 27 8875 27C8817 27 8783 72 8783 151C8783 264 8822 387 8871 427C8884 438 8907 444 8931 444ZM9616 722L9604 733C9552 707 9516 698 9444 691L9440 670L9488 670C9512 670 9522 663 9522 646C9522 638 9521 629 9520 622L9492 468C9462 477 9435 482 9410 482C9341 482 9247 410 9201 323C9170 265 9150 170 9150 86C9150 21 9165 -11 9194 -11C9221 -11 9258 6 9292 33C9346 77 9379 116 9446 217L9423 126C9412 82 9407 50 9407 24C9407 3 9416 -9 9433 -9C9450 -9 9474 3 9508 28L9589 88L9579 107L9535 76C9521 66 9505 59 9496 59C9488 59 9482 68 9482 82C9482 90 9483 99 9490 128ZM9247 59C9231 59 9222 73 9222 98C9222 224 9268 380 9317 418C9330 428 9349 433 9376 433C9420 433 9449 427 9482 410L9470 351C9433 171 9292 59 9247 59ZM9903 204L9874 77C9870 60 9868 42 9868 26C9868 4 9877 -9 9892 -9C9915 -9 9956 17 10038 85L10031 106C10007 86 9978 59 9956 59C9947 59 9941 68 9941 82C9941 87 9941 90 9942 93L10034 472L10024 481L9991 463C9950 478 9933 482 9906 482C9878 482 9858 477 9831 464C9769 433 9736 403 9711 354C9667 265 9636 145 9636 67C9636 23 9651 -11 9670 -11C9707 -11 9787 41 9903 204ZM9951 414C9929 305 9910 253 9876 201C9819 117 9758 59 9726 59C9714 59 9708 72 9708 99C9708 163 9736 280 9771 360C9795 415 9818 433 9866 433C9889 433 9907 429 9951 414ZM10326 722L10314 733C10262 707 10226 698 10154 691L10150 670L10198 670C10222 670 10232 663 10232 648C10232 645 10232 640 10229 622C10218 567 10145 182 10130 132C10117 82 10111 52 10111 31C10111 6 10122 -9 10141 -9C10167 -9 10203 12 10301 85L10291 103L10265 86C10236 67 10214 56 10204 56C10197 56 10191 66 10191 76C10191 82 10192 89 10195 104Z" stroke="rgb(0,0,0)" stroke-opacity="1" stroke-width="8" fill="rgb(0,0,0)" fill-opacity="1"></path></g></g></g><g><g><g transform="matrix(1,0,0,1,2,191.39500427246094)"><path transform="matrix(0.017,0,0,-0.017,0,0)" d="M345 437L329 437L350 549C366 635 394 673 440 673C470 673 497 658 512 634L522 638C527 654 537 685 545 705L550 720C534 727 503 733 480 733C469 733 453 730 445 726C421 715 339 654 316 630C294 608 282 578 271 521L256 442C215 422 195 414 170 405L165 383L246 383L237 327C207 132 170 -54 148 -123C130 -182 100 -213 64 -213C41 -213 30 -206 12 -184L-2 -188C-6 -211 -20 -259 -25 -268C-16 -273 -1 -276 10 -276C51 -276 105 -245 144 -198C215 -114 235 -18 319 383L423 383C427 402 434 425 440 439L436 446C407 439 408 437 345 437Z" stroke="rgb(0,0,0)" stroke-opacity="1" stroke-width="8" fill="rgb(0,0,0)" fill-opacity="1"></path></g></g><g><g><g><g><g transform="matrix(1,0,0,1,11.8699951171875,195.3550018310547)"><path transform="matrix(0.0119,0,0,-0.0119,0,0)" d="M34 388L41 368L73 389C110 412 113 414 120 414C130 414 138 404 138 391C138 384 134 361 130 347L64 107C56 76 51 49 51 30C51 6 62 -9 81 -9C107 -9 143 12 241 85L231 103L205 86C176 67 153 56 144 56C137 56 131 66 131 76C131 86 133 95 138 116L215 420C219 437 221 448 221 456C221 473 212 482 196 482C174 482 137 461 62 408ZM228 712C199 712 170 679 170 645C170 620 185 604 209 604C240 604 264 633 264 671C264 695 249 712 228 712ZM832 243L832 299L328 299L328 243ZM1300 -3L1300 27L1248 30C1193 33 1183 44 1183 96L1183 700L942 598L949 548L1099 614L1099 96C1099 44 1088 33 1034 30L978 27L978 -3C1132 0 1132 0 1143 0C1174 0 1284 -3 1300 -3Z" stroke="rgb(0,0,0)" stroke-opacity="1" stroke-width="8" fill="rgb(0,0,0)" fill-opacity="1"></path></g></g></g></g></g><g><g transform="matrix(1,0,0,1,32.720001220703125,191.39500427246094)"><path transform="matrix(0.017,0,0,-0.017,0,0)" d="M123 111C93 111 66 83 66 53C66 23 93 -5 122 -5C154 -5 182 22 182 53C182 83 154 111 123 111ZM123 456C93 456 66 428 66 398C66 368 93 340 122 340C154 340 182 367 182 397C182 428 154 456 123 456Z" stroke="rgb(0,0,0)" stroke-opacity="1" stroke-width="8" fill="rgb(0,0,0)" fill-opacity="1"></path></g></g><g><g transform="matrix(1,0,0,1,40.355010986328125,191.39500427246094)"><path transform="matrix(0.017,0,0,-0.017,0,0)" d="M286 646L392 650C454 650 494 641 495 626L503 537L527 537C530 600 537 651 548 689C526 691 498 692 481 692L440 691L275 689L246 689C221 689 181 690 143 691L94 692L91 664L147 662C171 661 182 652 182 635C182 621 178 589 173 559L98 125C81 33 81 32 40 28L4 25L0 -3L34 -2C74 -1 106 0 127 0C145 0 174 -1 213 -2L265 -3L268 25L204 28C177 29 168 37 168 57C168 63 169 74 170 78L206 301L323 301C350 301 381 300 429 298L455 297L474 342L470 349C389 345 329 343 251 343L214 343L260 614C263 630 264 635 269 646Z" stroke="rgb(0,0,0)" stroke-opacity="1" stroke-width="8" fill="rgb(0,0,0)" fill-opacity="1"></path></g></g><g><g transform="matrix(1,0,0,1,49.790008544921875,191.39500427246094)"><path transform="matrix(0.017,0,0,-0.017,0,0)" d="M124 111C94 111 67 83 67 53C67 23 94 -5 123 -5C155 -5 183 22 183 53C183 83 155 111 124 111Z" stroke="rgb(0,0,0)" stroke-opacity="1" stroke-width="8" fill="rgb(0,0,0)" fill-opacity="1"></path></g></g><g><g transform="matrix(1,0,0,1,57.425018310546875,191.39500427246094)"><path transform="matrix(0.017,0,0,-0.017,0,0)" d="M271 204L242 77C238 60 236 42 236 26C236 4 245 -9 260 -9C283 -9 324 17 406 85L399 106C375 86 346 59 324 59C315 59 309 68 309 82C309 87 309 90 310 93L402 472L392 481L359 463C318 478 301 482 274 482C246 482 226 477 199 464C137 433 104 403 79 354C35 265 4 145 4 67C4 23 19 -11 38 -11C75 -11 155 41 271 204ZM319 414C297 305 278 253 244 201C187 117 126 59 94 59C82 59 76 72 76 99C76 163 104 280 139 360C163 415 186 433 234 433C257 433 275 429 319 414ZM678 722L666 733C614 707 578 698 506 691L502 670L550 670C574 670 584 663 584 646C584 639 583 628 582 622L481 71C480 68 480 64 480 61C480 22 528 -11 583 -11C620 -11 671 8 714 39C810 107 876 244 876 376C876 414 867 453 855 468C848 477 835 482 820 482C796 482 766 474 738 460C687 433 654 403 592 324ZM765 424C791 424 804 401 804 352C804 288 783 202 753 137C720 68 680 36 626 36C580 36 555 59 555 101C555 135 570 276 651 361C684 395 736 424 765 424ZM936 148C931 97 925 62 914 16C952 -2 986 -11 1021 -11C1070 -11 1116 7 1167 47C1218 87 1239 124 1239 174C1239 228 1207 257 1133 271L1090 279C1030 290 1011 307 1011 348C1011 401 1056 442 1113 442C1154 442 1192 424 1208 397L1208 342L1231 342C1235 377 1239 404 1250 455C1211 474 1183 482 1150 482C1098 482 1037 452 989 404C963 377 952 352 952 316C952 260 983 228 1049 215L1112 203C1156 195 1172 177 1172 138C1172 73 1126 29 1055 29C1020 29 989 40 961 64L961 148ZM2025 722L2013 733C1961 707 1925 698 1853 691L1849 670L1897 670C1921 670 1931 663 1931 646C1931 638 1930 629 1929 622L1901 468C1871 477 1844 482 1819 482C1750 482 1656 410 1610 323C1579 265 1559 170 1559 86C1559 21 1574 -11 1603 -11C1630 -11 1667 6 1701 33C1755 77 1788 116 1855 217L1832 126C1821 82 1816 50 1816 24C1816 3 1825 -9 1842 -9C1859 -9 1883 3 1917 28L1998 88L1988 107L1944 76C1930 66 1914 59 1905 59C1897 59 1891 68 1891 82C1891 90 1892 99 1899 128ZM1656 59C1640 59 1631 73 1631 98C1631 224 1677 380 1726 418C1739 428 1758 433 1785 433C1829 433 1858 427 1891 410L1879 351C1842 171 1701 59 1656 59ZM2369 111L2345 94C2292 56 2244 36 2208 36C2161 36 2132 73 2132 133C2132 158 2135 185 2140 214C2157 218 2266 248 2291 259C2376 296 2415 342 2415 404C2415 451 2381 482 2331 482C2263 496 2153 423 2116 349C2086 299 2056 180 2056 113C2056 35 2100 -11 2172 -11C2229 -11 2285 17 2377 92ZM2154 274C2171 343 2191 386 2220 412C2238 428 2269 440 2293 440C2322 440 2341 420 2341 388C2341 344 2306 297 2254 272C2226 258 2190 247 2145 237ZM2680 722L2668 733C2616 707 2580 698 2508 691L2504 670L2552 670C2576 670 2586 663 2586 648C2586 645 2586 640 2583 622C2572 567 2499 182 2484 132C2471 82 2465 52 2465 31C2465 6 2476 -9 2495 -9C2521 -9 2557 12 2655 85L2645 103L2619 86C2590 67 2568 56 2558 56C2551 56 2545 66 2545 76C2545 82 2546 89 2549 104ZM2989 388L2996 368L3028 389C3065 412 3068 414 3075 414C3085 414 3093 404 3093 391C3093 384 3089 361 3085 347L3019 107C3011 76 3006 49 3006 30C3006 6 3017 -9 3036 -9C3062 -9 3098 12 3196 85L3186 103L3160 86C3131 67 3108 56 3099 56C3092 56 3086 66 3086 76C3086 86 3088 95 3093 116L3170 420C3174 437 3176 448 3176 456C3176 473 3167 482 3151 482C3129 482 3092 461 3017 408ZM3183 712C3154 712 3125 679 3125 645C3125 620 3140 604 3164 604C3195 604 3219 633 3219 671C3219 695 3204 712 3183 712ZM3657 -11C3713 -11 3828 62 3871 125C3912 186 3946 296 3946 371C3946 438 3923 482 3887 482C3845 482 3792 456 3740 409C3699 374 3679 348 3643 289L3667 408C3670 425 3672 440 3672 452C3672 471 3664 482 3650 482C3629 482 3591 461 3517 408L3489 388L3496 368L3528 389C3556 407 3567 412 3576 412C3586 412 3593 403 3593 389C3593 381 3591 361 3589 351L3531 8C3521 -52 3502 -143 3482 -233L3474 -270L3481 -276C3502 -269 3522 -264 3554 -259L3596 3C3617 -4 3639 -11 3657 -11ZM3624 165C3646 293 3753 424 3836 424C3862 424 3874 402 3874 356C3874 275 3834 156 3781 80C3761 51 3729 36 3688 36C3657 36 3632 43 3606 59ZM3997 152C3997 46 4042 -11 4125 -11C4180 -11 4240 15 4285 57C4347 116 4391 230 4391 331C4391 425 4341 482 4258 482C4154 482 3997 382 3997 152ZM4221 444C4282 444 4315 399 4315 315C4315 219 4284 113 4240 60C4222 39 4196 27 4165 27C4107 27 4073 72 4073 151C4073 264 4112 387 4161 427C4174 438 4197 444 4221 444ZM4454 148C4449 97 4443 62 4432 16C4470 -2 4504 -11 4539 -11C4588 -11 4634 7 4685 47C4736 87 4757 124 4757 174C4757 228 4725 257 4651 271L4608 279C4548 290 4529 307 4529 348C4529 401 4574 442 4631 442C4672 442 4710 424 4726 397L4726 342L4749 342C4753 377 4757 404 4768 455C4729 474 4701 482 4668 482C4616 482 4555 452 4507 404C4481 377 4470 352 4470 316C4470 260 4501 228 4567 215L4630 203C4674 195 4690 177 4690 138C4690 73 4644 29 4573 29C4538 29 4507 40 4479 64L4479 148ZM4936 390L4880 107C4879 99 4867 61 4867 31C4867 6 4878 -9 4897 -9C4932 -9 4967 11 5045 74L5076 99L5066 117L5021 86C4992 66 4972 56 4961 56C4952 56 4947 64 4947 76C4947 102 4961 183 4990 328L5003 390L5110 390L5121 440C5083 436 5049 434 5011 434C5027 528 5038 577 5056 631L5045 646C5025 634 4998 622 4967 610L4942 440C4898 419 4872 408 4854 403L4852 390ZM5471 111L5447 94C5394 56 5346 36 5310 36C5263 36 5234 73 5234 133C5234 158 5237 185 5242 214C5259 218 5368 248 5393 259C5478 296 5517 342 5517 404C5517 451 5483 482 5433 482C5365 496 5255 423 5218 349C5188 299 5158 180 5158 113C5158 35 5202 -11 5274 -11C5331 -11 5387 17 5479 92ZM5256 274C5273 343 5293 386 5322 412C5340 428 5371 440 5395 440C5424 440 5443 420 5443 388C5443 344 5408 297 5356 272C5328 258 5292 247 5247 237ZM5899 365C5902 403 5907 435 5915 476C5904 481 5900 482 5895 482C5864 482 5833 458 5797 407C5758 351 5719 291 5703 256L5735 408C5739 425 5741 438 5741 450C5741 470 5733 482 5718 482C5697 482 5659 461 5585 408L5557 388L5564 368L5596 389C5624 407 5635 412 5644 412C5654 412 5661 403 5661 390C5661 332 5618 126 5578 -2L5588 -9C5603 -4 5619 -1 5642 4L5655 6L5681 126C5699 209 5722 262 5766 319C5800 363 5827 384 5849 384C5864 384 5874 379 5885 365ZM5953 388L5960 368L5992 389C6029 412 6032 414 6039 414C6049 414 6057 404 6057 391C6057 384 6053 361 6049 347L5983 107C5975 76 5970 49 5970 30C5970 6 5981 -9 6000 -9C6026 -9 6062 12 6160 85L6150 103L6124 86C6095 67 6072 56 6063 56C6056 56 6050 66 6050 76C6050 86 6052 95 6057 116L6134 420C6138 437 6140 448 6140 456C6140 473 6131 482 6115 482C6093 482 6056 461 5981 408ZM6147 712C6118 712 6089 679 6089 645C6089 620 6104 604 6128 604C6159 604 6183 633 6183 671C6183 695 6168 712 6147 712ZM6213 152C6213 46 6258 -11 6341 -11C6396 -11 6456 15 6501 57C6563 116 6607 230 6607 331C6607 425 6557 482 6474 482C6370 482 6213 382 6213 152ZM6437 444C6498 444 6531 399 6531 315C6531 219 6500 113 6456 60C6438 39 6412 27 6381 27C6323 27 6289 72 6289 151C6289 264 6328 387 6377 427C6390 438 6413 444 6437 444ZM7007 365C7010 403 7015 435 7023 476C7012 481 7008 482 7003 482C6972 482 6941 458 6905 407C6866 351 6827 291 6811 256L6843 408C6847 425 6849 438 6849 450C6849 470 6841 482 6826 482C6805 482 6767 461 6693 408L6665 388L6672 368L6704 389C6732 407 6743 412 6752 412C6762 412 6769 403 6769 390C6769 332 6726 126 6686 -2L6696 -9C6711 -4 6727 -1 6750 4L6763 6L6789 126C6807 209 6830 262 6874 319C6908 363 6935 384 6957 384C6972 384 6982 379 6993 365ZM7547 204L7518 77C7514 60 7512 42 7512 26C7512 4 7521 -9 7536 -9C7559 -9 7600 17 7682 85L7675 106C7651 86 7622 59 7600 59C7591 59 7585 68 7585 82C7585 87 7585 90 7586 93L7678 472L7668 481L7635 463C7594 478 7577 482 7550 482C7522 482 7502 477 7475 464C7413 433 7380 403 7355 354C7311 265 7280 145 7280 67C7280 23 7295 -11 7314 -11C7351 -11 7431 41 7547 204ZM7595 414C7573 305 7554 253 7520 201C7463 117 7402 59 7370 59C7358 59 7352 72 7352 99C7352 163 7380 280 7415 360C7439 415 7462 433 7510 433C7533 433 7551 429 7595 414ZM7970 722L7958 733C7906 707 7870 698 7798 691L7794 670L7842 670C7866 670 7876 663 7876 648C7876 645 7876 640 7873 622C7862 567 7789 182 7774 132C7761 82 7755 52 7755 31C7755 6 7766 -9 7785 -9C7811 -9 7847 12 7945 85L7935 103L7909 86C7880 67 7858 56 7848 56C7841 56 7835 66 7835 76C7835 82 7836 89 7839 104ZM8975 103L8949 86C8920 67 8898 56 8888 56C8881 56 8875 65 8875 76C8875 86 8877 95 8882 116L8957 413C8961 430 8964 446 8964 454C8964 471 8954 482 8938 482C8909 482 8871 464 8810 421C8747 376 8712 341 8663 272L8693 409C8697 429 8700 444 8700 451C8700 470 8690 482 8674 482C8644 482 8598 460 8543 418C8499 384 8479 363 8414 275L8447 408C8451 424 8453 439 8453 451C8453 470 8444 482 8430 482C8409 482 8371 461 8297 408L8269 388L8276 368C8313 391 8348 414 8355 414C8366 414 8373 404 8373 389C8373 338 8332 145 8291 2L8294 -9L8362 6L8384 108C8408 219 8435 278 8490 338C8532 384 8577 414 8605 414C8612 414 8616 406 8616 393C8616 358 8594 244 8553 69L8537 2L8542 -9L8611 6L8632 113C8648 194 8682 269 8726 318C8781 379 8831 414 8863 414C8871 414 8876 405 8876 389C8876 365 8873 351 8851 264C8811 105 8795 84 8795 31C8795 6 8806 -9 8825 -9C8851 -9 8887 12 8985 85ZM9039 152C9039 46 9084 -11 9167 -11C9222 -11 9282 15 9327 57C9389 116 9433 230 9433 331C9433 425 9383 482 9300 482C9196 482 9039 382 9039 152ZM9263 444C9324 444 9357 399 9357 315C9357 219 9326 113 9282 60C9264 39 9238 27 9207 27C9149 27 9115 72 9115 151C9115 264 9154 387 9203 427C9216 438 9239 444 9263 444ZM9948 722L9936 733C9884 707 9848 698 9776 691L9772 670L9820 670C9844 670 9854 663 9854 646C9854 638 9853 629 9852 622L9824 468C9794 477 9767 482 9742 482C9673 482 9579 410 9533 323C9502 265 9482 170 9482 86C9482 21 9497 -11 9526 -11C9553 -11 9590 6 9624 33C9678 77 9711 116 9778 217L9755 126C9744 82 9739 50 9739 24C9739 3 9748 -9 9765 -9C9782 -9 9806 3 9840 28L9921 88L9911 107L9867 76C9853 66 9837 59 9828 59C9820 59 9814 68 9814 82C9814 90 9815 99 9822 128ZM9579 59C9563 59 9554 73 9554 98C9554 224 9600 380 9649 418C9662 428 9681 433 9708 433C9752 433 9781 427 9814 410L9802 351C9765 171 9624 59 9579 59ZM10235 204L10206 77C10202 60 10200 42 10200 26C10200 4 10209 -9 10224 -9C10247 -9 10288 17 10370 85L10363 106C10339 86 10310 59 10288 59C10279 59 10273 68 10273 82C10273 87 10273 90 10274 93L10366 472L10356 481L10323 463C10282 478 10265 482 10238 482C10210 482 10190 477 10163 464C10101 433 10068 403 10043 354C9999 265 9968 145 9968 67C9968 23 9983 -11 10002 -11C10039 -11 10119 41 10235 204ZM10283 414C10261 305 10242 253 10208 201C10151 117 10090 59 10058 59C10046 59 10040 72 10040 99C10040 163 10068 280 10103 360C10127 415 10150 433 10198 433C10221 433 10239 429 10283 414ZM10658 722L10646 733C10594 707 10558 698 10486 691L10482 670L10530 670C10554 670 10564 663 10564 648C10564 645 10564 640 10561 622C10550 567 10477 182 10462 132C10449 82 10443 52 10443 31C10443 6 10454 -9 10473 -9C10499 -9 10535 12 10633 85L10623 103L10597 86C10568 67 10546 56 10536 56C10529 56 10523 66 10523 76C10523 82 10524 89 10527 104Z" stroke="rgb(0,0,0)" stroke-opacity="1" stroke-width="8" fill="rgb(0,0,0)" fill-opacity="1"></path></g></g></g></g></svg>