<svg xmlns="http://www.w3.org/2000/svg" xmlns:xlink="http://www.w3.org/1999/xlink" width="168.760009765625" height="24.15999984741211" style="width:168.760009765625px;height:24.15999984741211px;font-family:Asana-Math, Asana;background:#FFF;"><g><g><g><g transform="matrix(1,0,0,1,2,18.040000915527344)"><path transform="matrix(0.017,0,0,-0.017,0,0)" d="M105 664L161 662C185 661 196 653 196 635C196 621 192 589 187 559L112 125C96 34 94 32 54 28L13 25L9 -3L51 -2C98 0 117 0 141 0L238 -3L264 -3L267 25L218 28C191 30 182 38 182 58C182 67 183 76 186 93L287 648C316 654 336 656 363 656C450 656 496 617 496 543C496 448 418 378 314 378L270 378L267 367C401 172 432 124 507 -3C507 -3 592 0 592 0C593 0 607 -1 626 -3L639 -3L639 24C599 29 588 37 559 79L375 354C430 364 459 376 495 402C553 444 584 499 584 560C584 646 520 693 409 691L108 691Z" stroke="rgb(0,0,0)" stroke-opacity="1" stroke-width="8" fill="rgb(0,0,0)" fill-opacity="1"></path></g></g><g><g transform="matrix(1,0,0,1,18.42498779296875,18.040000915527344)"><path transform="matrix(0.017,0,0,-0.017,0,0)" d="M604 347L604 406L65 406L65 347ZM604 134L604 193L65 193L65 134Z" stroke="rgb(0,0,0)" stroke-opacity="1" stroke-width="8" fill="rgb(0,0,0)" fill-opacity="1"></path></g></g><g><g transform="matrix(1,0,0,1,34.8800048828125,18.040000915527344)"><path transform="matrix(0.017,0,0,-0.017,0,0)" d="M483 722L471 733C419 707 383 698 311 691L307 670L355 670C379 670 389 663 389 646C389 638 388 629 387 622L359 468C329 477 302 482 277 482C208 482 114 410 68 323C37 265 17 170 17 86C17 21 32 -11 61 -11C88 -11 125 6 159 33C213 77 246 116 313 217L290 126C279 82 274 50 274 24C274 3 283 -9 300 -9C317 -9 341 3 375 28L456 88L446 107L402 76C388 66 372 59 363 59C355 59 349 68 349 82C349 90 350 99 357 128ZM114 59C98 59 89 73 89 98C89 224 135 380 184 418C197 428 216 433 243 433C287 433 316 427 349 410L337 351C300 171 159 59 114 59ZM770 204L741 77C737 60 735 42 735 26C735 4 744 -9 759 -9C782 -9 823 17 905 85L898 106C874 86 845 59 823 59C814 59 808 68 808 82C808 87 808 90 809 93L901 472L891 481L858 463C817 478 800 482 773 482C745 482 725 477 698 464C636 433 603 403 578 354C534 265 503 145 503 67C503 23 518 -11 537 -11C574 -11 654 41 770 204ZM818 414C796 305 777 253 743 201C686 117 625 59 593 59C581 59 575 72 575 99C575 163 603 280 638 360C662 415 685 433 733 433C756 433 774 429 818 414ZM1067 390L1011 107C1010 99 998 61 998 31C998 6 1009 -9 1028 -9C1063 -9 1098 11 1176 74L1207 99L1197 117L1152 86C1123 66 1103 56 1092 56C1083 56 1078 64 1078 76C1078 102 1092 183 1121 328L1134 390L1241 390L1252 440C1214 436 1180 434 1142 434C1158 528 1169 577 1187 631L1176 646C1156 634 1129 622 1098 610L1073 440C1029 419 1003 408 985 403L983 390ZM1291 152C1291 46 1336 -11 1419 -11C1474 -11 1534 15 1579 57C1641 116 1685 230 1685 331C1685 425 1635 482 1552 482C1448 482 1291 382 1291 152ZM1515 444C1576 444 1609 399 1609 315C1609 219 1578 113 1534 60C1516 39 1490 27 1459 27C1401 27 1367 72 1367 151C1367 264 1406 387 1455 427C1468 438 1491 444 1515 444ZM1997 148C1992 97 1986 62 1975 16C2013 -2 2047 -11 2082 -11C2131 -11 2177 7 2228 47C2279 87 2300 124 2300 174C2300 228 2268 257 2194 271L2151 279C2091 290 2072 307 2072 348C2072 401 2117 442 2174 442C2215 442 2253 424 2269 397L2269 342L2292 342C2296 377 2300 404 2311 455C2272 474 2244 482 2211 482C2159 482 2098 452 2050 404C2024 377 2013 352 2013 316C2013 260 2044 228 2110 215L2173 203C2217 195 2233 177 2233 138C2233 73 2187 29 2116 29C2081 29 2050 40 2022 64L2022 148ZM2846 473L2839 482L2771 465L2761 414C2746 336 2721 268 2690 221C2631 130 2553 59 2513 59C2505 59 2500 68 2500 85C2500 99 2502 112 2507 137L2564 408C2567 424 2569 438 2569 451C2569 470 2560 482 2546 482C2526 482 2488 461 2414 408L2386 388L2393 368L2425 389C2453 407 2464 412 2473 412C2482 412 2490 403 2490 392C2490 388 2489 378 2488 374L2425 77C2423 68 2421 44 2421 30C2421 7 2436 -11 2456 -11C2519 -11 2640 101 2724 239L2687 97C2680 73 2676 46 2676 31C2676 6 2687 -9 2706 -9C2732 -9 2768 12 2866 85L2856 103L2830 86C2806 70 2780 59 2769 59C2761 59 2756 66 2756 76C2756 112 2831 416 2846 473ZM3085 -11C3141 -11 3256 62 3299 125C3340 186 3374 296 3374 371C3374 438 3351 482 3315 482C3273 482 3220 456 3168 409C3127 374 3107 348 3071 289L3095 408C3098 425 3100 440 3100 452C3100 471 3092 482 3078 482C3057 482 3019 461 2945 408L2917 388L2924 368L2956 389C2984 407 2995 412 3004 412C3014 412 3021 403 3021 389C3021 381 3019 361 3017 351L2959 8C2949 -52 2930 -143 2910 -233L2902 -270L2909 -276C2930 -269 2950 -264 2982 -259L3024 3C3045 -4 3067 -11 3085 -11ZM3052 165C3074 293 3181 424 3264 424C3290 424 3302 402 3302 356C3302 275 3262 156 3209 80C3189 51 3157 36 3116 36C3085 36 3060 43 3034 59Z" stroke="rgb(0,0,0)" stroke-opacity="1" stroke-width="8" fill="rgb(0,0,0)" fill-opacity="1"></path></g></g><g><g transform="matrix(1,0,0,1,96.18502807617188,18.040000915527344)"><path transform="matrix(0.017,0,0,-0.017,0,0)" d="M555 243L555 299L51 299L51 243Z" stroke="rgb(0,0,0)" stroke-opacity="1" stroke-width="8" fill="rgb(0,0,0)" fill-opacity="1"></path></g></g><g><g transform="matrix(1,0,0,1,109.86502075195312,18.040000915527344)"><path transform="matrix(0.017,0,0,-0.017,0,0)" d="M483 722L471 733C419 707 383 698 311 691L307 670L355 670C379 670 389 663 389 646C389 638 388 629 387 622L359 468C329 477 302 482 277 482C208 482 114 410 68 323C37 265 17 170 17 86C17 21 32 -11 61 -11C88 -11 125 6 159 33C213 77 246 116 313 217L290 126C279 82 274 50 274 24C274 3 283 -9 300 -9C317 -9 341 3 375 28L456 88L446 107L402 76C388 66 372 59 363 59C355 59 349 68 349 82C349 90 350 99 357 128ZM114 59C98 59 89 73 89 98C89 224 135 380 184 418C197 428 216 433 243 433C287 433 316 427 349 410L337 351C300 171 159 59 114 59ZM770 204L741 77C737 60 735 42 735 26C735 4 744 -9 759 -9C782 -9 823 17 905 85L898 106C874 86 845 59 823 59C814 59 808 68 808 82C808 87 808 90 809 93L901 472L891 481L858 463C817 478 800 482 773 482C745 482 725 477 698 464C636 433 603 403 578 354C534 265 503 145 503 67C503 23 518 -11 537 -11C574 -11 654 41 770 204ZM818 414C796 305 777 253 743 201C686 117 625 59 593 59C581 59 575 72 575 99C575 163 603 280 638 360C662 415 685 433 733 433C756 433 774 429 818 414ZM1067 390L1011 107C1010 99 998 61 998 31C998 6 1009 -9 1028 -9C1063 -9 1098 11 1176 74L1207 99L1197 117L1152 86C1123 66 1103 56 1092 56C1083 56 1078 64 1078 76C1078 102 1092 183 1121 328L1134 390L1241 390L1252 440C1214 436 1180 434 1142 434C1158 528 1169 577 1187 631L1176 646C1156 634 1129 622 1098 610L1073 440C1029 419 1003 408 985 403L983 390ZM1291 152C1291 46 1336 -11 1419 -11C1474 -11 1534 15 1579 57C1641 116 1685 230 1685 331C1685 425 1635 482 1552 482C1448 482 1291 382 1291 152ZM1515 444C1576 444 1609 399 1609 315C1609 219 1578 113 1534 60C1516 39 1490 27 1459 27C1401 27 1367 72 1367 151C1367 264 1406 387 1455 427C1468 438 1491 444 1515 444ZM2000 388L2007 368L2039 389C2076 412 2079 414 2086 414C2096 414 2104 404 2104 391C2104 384 2100 361 2096 347L2030 107C2022 76 2017 49 2017 30C2017 6 2028 -9 2047 -9C2073 -9 2109 12 2207 85L2197 103L2171 86C2142 67 2119 56 2110 56C2103 56 2097 66 2097 76C2097 86 2099 95 2104 116L2181 420C2185 437 2187 448 2187 456C2187 473 2178 482 2162 482C2140 482 2103 461 2028 408ZM2194 712C2165 712 2136 679 2136 645C2136 620 2151 604 2175 604C2206 604 2230 633 2230 671C2230 695 2215 712 2194 712ZM2267 388L2274 368L2306 389C2343 412 2346 414 2353 414C2364 414 2371 404 2371 389C2371 338 2330 145 2289 2L2296 -9C2321 -2 2344 4 2366 8C2385 134 2406 199 2452 268C2506 352 2581 414 2626 414C2637 414 2643 405 2643 390C2643 372 2640 351 2632 319L2580 107C2571 70 2567 47 2567 31C2567 6 2578 -9 2597 -9C2623 -9 2659 12 2757 85L2747 103L2721 86C2692 67 2670 56 2660 56C2653 56 2647 65 2647 76C2647 81 2648 92 2649 96L2715 372C2722 401 2726 429 2726 446C2726 469 2715 482 2695 482C2653 482 2584 444 2525 389C2487 354 2459 320 2407 247L2445 408C2449 426 2451 438 2451 449C2451 470 2443 482 2428 482C2407 482 2368 460 2295 408ZM3143 437L3127 437L3148 549C3164 635 3192 673 3238 673C3268 673 3295 658 3310 634L3320 638C3325 654 3335 685 3343 705L3348 720C3332 727 3301 733 3278 733C3267 733 3251 730 3243 726C3219 715 3137 654 3114 630C3092 608 3080 578 3069 521L3054 442C3013 422 2993 414 2968 405L2963 383L3044 383L3035 327C3005 132 2968 -54 2946 -123C2928 -182 2898 -213 2862 -213C2839 -213 2828 -206 2810 -184L2796 -188C2792 -211 2778 -259 2773 -268C2782 -273 2797 -276 2808 -276C2849 -276 2903 -245 2942 -198C3013 -114 3033 -18 3117 383L3221 383C3225 402 3232 425 3238 439L3234 446C3205 439 3206 437 3143 437Z" stroke="rgb(0,0,0)" stroke-opacity="1" stroke-width="8" fill="rgb(0,0,0)" fill-opacity="1"></path></g></g></g></g></svg>