<svg xmlns="http://www.w3.org/2000/svg" xmlns:xlink="http://www.w3.org/1999/xlink" width="154.85501098632812" height="87.4000015258789" style="width:154.85501098632812px;height:87.4000015258789px;font-family:Asana-Math, Asana;background:#FFF;"><g><g><g><g transform="matrix(1,0,0,1,2,18.040000915527344)"><path transform="matrix(0.017,0,0,-0.017,0,0)" d="M2586 437L2570 437L2591 549C2607 635 2635 673 2681 673C2711 673 2738 658 2753 634L2763 638C2768 654 2778 685 2786 705L2791 720C2775 727 2744 733 2721 733C2710 733 2694 730 2686 726C2662 715 2580 654 2557 630C2535 608 2523 578 2512 521L2497 442C2456 422 2436 414 2411 405L2406 383L2487 383L2478 327C2448 132 2411 -54 2389 -123C2371 -182 2341 -213 2305 -213C2282 -213 2271 -206 2253 -184L2239 -188C2235 -211 2221 -259 2216 -268C2225 -273 2240 -276 2251 -276C2292 -276 2346 -245 2385 -198C2456 -114 2476 -18 2560 383L2664 383C2668 402 2675 425 2681 439L2677 446C2648 439 2649 437 2586 437Z" stroke="rgb(0,0,0)" stroke-opacity="1" stroke-width="8" fill="rgb(0,0,0)" fill-opacity="1"></path></g></g><g><g><g><g><g transform="matrix(1,0,0,1,49.94000244140625,22.000006103515624)"><path transform="matrix(0.0119,0,0,-0.0119,0,0)" d="M342 330L365 330C373 395 380 432 389 458C365 473 330 482 293 482C248 483 175 463 118 400C64 352 25 241 25 136C25 40 67 -11 147 -11C201 -11 249 9 304 54L354 95L346 115L331 105C259 57 221 40 186 40C130 40 101 80 101 159C101 267 136 371 185 409C206 425 230 433 261 433C306 433 342 414 342 390Z" stroke="rgb(0,0,0)" stroke-opacity="1" stroke-width="8" fill="rgb(0,0,0)" fill-opacity="1"></path></g></g></g></g></g><g><g transform="matrix(1,0,0,1,60.8900146484375,18.040000915527344)"><path transform="matrix(0.017,0,0,-0.017,0,0)" d="M604 347L604 406L65 406L65 347ZM604 134L604 193L65 193L65 134Z" stroke="rgb(0,0,0)" stroke-opacity="1" stroke-width="8" fill="rgb(0,0,0)" fill-opacity="1"></path></g></g><g><g transform="matrix(1,0,0,1,77.34500122070312,18.040000915527344)"><path transform="matrix(0.017,0,0,-0.017,0,0)" d="M409 -15C458 -15 530 43 565 74L565 81C562 86 558 90 553 92C531 76 472 25 461 77C461 151 506 393 533 463L533 473C511 465 488 459 465 456L455 445C453 381 421 203 395 146C372 97 311 42 254 42C199 42 184 90 185 137C188 248 238 356 241 467C213 462 187 457 161 453C179 227 9 -91 53 -286C76 -285 109 -281 131 -273L131 -261C81 -173 121 -38 138 36L138 35C204 -77 344 37 395 104L395 101C387 65 354 -15 409 -15Z" stroke="rgb(0,0,0)" stroke-opacity="1" stroke-width="8" fill="rgb(0,0,0)" fill-opacity="1"></path></g></g><g><g><g><g><g transform="matrix(1,0,0,1,88.23501586914062,22.000006103515624)"><path transform="matrix(0.0119,0,0,-0.0119,0,0)" d="M342 330L365 330C373 395 380 432 389 458C365 473 330 482 293 482C248 483 175 463 118 400C64 352 25 241 25 136C25 40 67 -11 147 -11C201 -11 249 9 304 54L354 95L346 115L331 105C259 57 221 40 186 40C130 40 101 80 101 159C101 267 136 371 185 409C206 425 230 433 261 433C306 433 342 414 342 390Z" stroke="rgb(0,0,0)" stroke-opacity="1" stroke-width="8" fill="rgb(0,0,0)" fill-opacity="1"></path></g></g></g></g></g><g><g transform="matrix(1,0,0,1,94.08502197265625,18.040000915527344)"><path transform="matrix(0.017,0,0,-0.017,0,0)" d="M582 103L237 692L75 692L70 664L105 662C150 660 184 615 185 606L92 102C80 40 74 32 38 28L7 25L2 -3L113 0C125 0 126 0 223 -3L228 25L186 28C146 31 137 39 137 72C137 80 138 91 140 102L220 566L558 -11L608 -11L702 542C723 655 725 659 762 662L799 664L802 691L589 692L584 664L631 662C657 661 667 654 667 638C667 631 584 116 582 103Z" stroke="rgb(0,0,0)" stroke-opacity="1" stroke-width="8" fill="rgb(0,0,0)" fill-opacity="1"></path></g></g></g><g></g><g><g><g transform="matrix(1,0,0,1,2,59.73999786376953)"><path transform="matrix(0.017,0,0,-0.017,0,0)" d="M582 103L237 692L75 692L70 664L105 662C150 660 184 615 185 606L92 102C80 40 74 32 38 28L7 25L2 -3L113 0C125 0 126 0 223 -3L228 25L186 28C146 31 137 39 137 72C137 80 138 91 140 102L220 566L558 -11L608 -11L702 542C723 655 725 659 762 662L799 664L802 691L589 692L584 664L631 662C657 661 667 654 667 638C667 631 584 116 582 103Z" stroke="rgb(0,0,0)" stroke-opacity="1" stroke-width="8" fill="rgb(0,0,0)" fill-opacity="1"></path></g></g><g><g transform="matrix(1,0,0,1,18.605010986328125,59.73999786376953)"><path transform="matrix(0.017,0,0,-0.017,0,0)" d="M123 111C93 111 66 83 66 53C66 23 93 -5 122 -5C154 -5 182 22 182 53C182 83 154 111 123 111ZM123 456C93 456 66 428 66 398C66 368 93 340 122 340C154 340 182 367 182 397C182 428 154 456 123 456Z" stroke="rgb(0,0,0)" stroke-opacity="1" stroke-width="8" fill="rgb(0,0,0)" fill-opacity="1"></path></g></g><g><g transform="matrix(1,0,0,1,26.240005493164062,59.73999786376953)"><path transform="matrix(0.017,0,0,-0.017,0,0)" d="M24 388L31 368L63 389C100 412 103 414 110 414C121 414 128 404 128 389C128 338 87 145 46 2L53 -9C78 -2 101 4 123 8C142 134 163 199 209 268C263 352 338 414 383 414C394 414 400 405 400 390C400 372 397 351 389 319L337 107C328 70 324 47 324 31C324 6 335 -9 354 -9C380 -9 416 12 514 85L504 103L478 86C449 67 427 56 417 56C410 56 404 65 404 76C404 81 405 92 406 96L472 372C479 401 483 429 483 446C483 469 472 482 452 482C410 482 341 444 282 389C244 354 216 320 164 247L202 408C206 426 208 438 208 449C208 470 200 482 185 482C164 482 125 460 52 408ZM572 152C572 46 617 -11 700 -11C755 -11 815 15 860 57C922 116 966 230 966 331C966 425 916 482 833 482C729 482 572 382 572 152ZM796 444C857 444 890 399 890 315C890 219 859 113 815 60C797 39 771 27 740 27C682 27 648 72 648 151C648 264 687 387 736 427C749 438 772 444 796 444ZM1366 365C1369 403 1374 435 1382 476C1371 481 1367 482 1362 482C1331 482 1300 458 1264 407C1225 351 1186 291 1170 256L1202 408C1206 425 1208 438 1208 450C1208 470 1200 482 1185 482C1164 482 1126 461 1052 408L1024 388L1031 368L1063 389C1091 407 1102 412 1111 412C1121 412 1128 403 1128 390C1128 332 1085 126 1045 -2L1055 -9C1070 -4 1086 -1 1109 4L1122 6L1148 126C1166 209 1189 262 1233 319C1267 363 1294 384 1316 384C1331 384 1341 379 1352 365ZM2116 103L2090 86C2061 67 2039 56 2029 56C2022 56 2016 65 2016 76C2016 86 2018 95 2023 116L2098 413C2102 430 2105 446 2105 454C2105 471 2095 482 2079 482C2050 482 2012 464 1951 421C1888 376 1853 341 1804 272L1834 409C1838 429 1841 444 1841 451C1841 470 1831 482 1815 482C1785 482 1739 460 1684 418C1640 384 1620 363 1555 275L1588 408C1592 424 1594 439 1594 451C1594 470 1585 482 1571 482C1550 482 1512 461 1438 408L1410 388L1417 368C1454 391 1489 414 1496 414C1507 414 1514 404 1514 389C1514 338 1473 145 1432 2L1435 -9L1503 6L1525 108C1549 219 1576 278 1631 338C1673 384 1718 414 1746 414C1753 414 1757 406 1757 393C1757 358 1735 244 1694 69L1678 2L1683 -9L1752 6L1773 113C1789 194 1823 269 1867 318C1922 379 1972 414 2004 414C2012 414 2017 405 2017 389C2017 365 2014 351 1992 264C1952 105 1936 84 1936 31C1936 6 1947 -9 1966 -9C1992 -9 2028 12 2126 85ZM2434 204L2405 77C2401 60 2399 42 2399 26C2399 4 2408 -9 2423 -9C2446 -9 2487 17 2569 85L2562 106C2538 86 2509 59 2487 59C2478 59 2472 68 2472 82C2472 87 2472 90 2473 93L2565 472L2555 481L2522 463C2481 478 2464 482 2437 482C2409 482 2389 477 2362 464C2300 433 2267 403 2242 354C2198 265 2167 145 2167 67C2167 23 2182 -11 2201 -11C2238 -11 2318 41 2434 204ZM2482 414C2460 305 2441 253 2407 201C2350 117 2289 59 2257 59C2245 59 2239 72 2239 99C2239 163 2267 280 2302 360C2326 415 2349 433 2397 433C2420 433 2438 429 2482 414ZM2857 722L2845 733C2793 707 2757 698 2685 691L2681 670L2729 670C2753 670 2763 663 2763 648C2763 645 2763 640 2760 622C2749 567 2676 182 2661 132C2648 82 2642 52 2642 31C2642 6 2653 -9 2672 -9C2698 -9 2734 12 2832 85L2822 103L2796 86C2767 67 2745 56 2735 56C2728 56 2722 66 2722 76C2722 82 2723 89 2726 104Z" stroke="rgb(0,0,0)" stroke-opacity="1" stroke-width="8" fill="rgb(0,0,0)" fill-opacity="1"></path></g></g></g><g><g><g transform="matrix(1,0,0,1,2,79.9000015258789)"><path transform="matrix(0.017,0,0,-0.017,0,0)" d="M409 -15C458 -15 530 43 565 74L565 81C562 86 558 90 553 92C531 76 472 25 461 77C461 151 506 393 533 463L533 473C511 465 488 459 465 456L455 445C453 381 421 203 395 146C372 97 311 42 254 42C199 42 184 90 185 137C188 248 238 356 241 467C213 462 187 457 161 453C179 227 9 -91 53 -286C76 -285 109 -281 131 -273L131 -261C81 -173 121 -38 138 36L138 35C204 -77 344 37 395 104L395 101C387 65 354 -15 409 -15Z" stroke="rgb(0,0,0)" stroke-opacity="1" stroke-width="8" fill="rgb(0,0,0)" fill-opacity="1"></path></g></g><g><g><g><g><g transform="matrix(1,0,0,1,12.889999389648438,83.85999908447266)"><path transform="matrix(0.0119,0,0,-0.0119,0,0)" d="M328 111L304 94C251 56 203 36 167 36C120 36 91 73 91 133C91 158 94 185 99 214C116 218 225 248 250 259C335 296 374 342 374 404C374 451 340 482 290 482C222 496 112 423 75 349C45 299 15 180 15 113C15 35 59 -11 131 -11C188 -11 244 17 336 92ZM113 274C130 343 150 386 179 412C197 428 228 440 252 440C281 440 300 420 300 388C300 344 265 297 213 272C185 258 149 247 104 237Z" stroke="rgb(0,0,0)" stroke-opacity="1" stroke-width="8" fill="rgb(0,0,0)" fill-opacity="1"></path></g></g></g></g></g><g><g transform="matrix(1,0,0,1,21.920013427734375,79.9000015258789)"><path transform="matrix(0.017,0,0,-0.017,0,0)" d="M123 111C93 111 66 83 66 53C66 23 93 -5 122 -5C154 -5 182 22 182 53C182 83 154 111 123 111ZM123 456C93 456 66 428 66 398C66 368 93 340 122 340C154 340 182 367 182 397C182 428 154 456 123 456Z" stroke="rgb(0,0,0)" stroke-opacity="1" stroke-width="8" fill="rgb(0,0,0)" fill-opacity="1"></path></g></g><g><g transform="matrix(1,0,0,1,29.555007934570312,79.9000015258789)"><path transform="matrix(0.017,0,0,-0.017,0,0)" d="M342 330L365 330C373 395 380 432 389 458C365 473 330 482 293 482C248 483 175 463 118 400C64 352 25 241 25 136C25 40 67 -11 147 -11C201 -11 249 9 304 54L354 95L346 115L331 105C259 57 221 40 186 40C130 40 101 80 101 159C101 267 136 371 185 409C206 425 230 433 261 433C306 433 342 414 342 390ZM423 152C423 46 468 -11 551 -11C606 -11 666 15 711 57C773 116 817 230 817 331C817 425 767 482 684 482C580 482 423 382 423 152ZM647 444C708 444 741 399 741 315C741 219 710 113 666 60C648 39 622 27 591 27C533 27 499 72 499 151C499 264 538 387 587 427C600 438 623 444 647 444ZM1177 111L1153 94C1100 56 1052 36 1016 36C969 36 940 73 940 133C940 158 943 185 948 214C965 218 1074 248 1099 259C1184 296 1223 342 1223 404C1223 451 1189 482 1139 482C1071 496 961 423 924 349C894 299 864 180 864 113C864 35 908 -11 980 -11C1037 -11 1093 17 1185 92ZM962 274C979 343 999 386 1028 412C1046 428 1077 440 1101 440C1130 440 1149 420 1149 388C1149 344 1114 297 1062 272C1034 258 998 247 953 237ZM1582 437L1566 437L1587 549C1603 635 1631 673 1677 673C1707 673 1734 658 1749 634L1759 638C1764 654 1774 685 1782 705L1787 720C1771 727 1740 733 1717 733C1706 733 1690 730 1682 726C1658 715 1576 654 1553 630C1531 608 1519 578 1508 521L1493 442C1452 422 1432 414 1407 405L1402 383L1483 383L1474 327C1444 132 1407 -54 1385 -123C1367 -182 1337 -213 1301 -213C1278 -213 1267 -206 1249 -184L1235 -188C1231 -211 1217 -259 1212 -268C1221 -273 1236 -276 1247 -276C1288 -276 1342 -245 1381 -198C1452 -114 1472 -18 1556 383L1660 383C1664 402 1671 425 1677 439L1673 446C1644 439 1645 437 1582 437ZM2519 722L2507 733C2455 707 2419 698 2347 691L2343 670L2391 670C2415 670 2425 663 2425 646C2425 638 2424 629 2423 622L2395 468C2365 477 2338 482 2313 482C2244 482 2150 410 2104 323C2073 265 2053 170 2053 86C2053 21 2068 -11 2097 -11C2124 -11 2161 6 2195 33C2249 77 2282 116 2349 217L2326 126C2315 82 2310 50 2310 24C2310 3 2319 -9 2336 -9C2353 -9 2377 3 2411 28L2492 88L2482 107L2438 76C2424 66 2408 59 2399 59C2391 59 2385 68 2385 82C2385 90 2386 99 2393 128ZM2150 59C2134 59 2125 73 2125 98C2125 224 2171 380 2220 418C2233 428 2252 433 2279 433C2323 433 2352 427 2385 410L2373 351C2336 171 2195 59 2150 59ZM2863 111L2839 94C2786 56 2738 36 2702 36C2655 36 2626 73 2626 133C2626 158 2629 185 2634 214C2651 218 2760 248 2785 259C2870 296 2909 342 2909 404C2909 451 2875 482 2825 482C2757 496 2647 423 2610 349C2580 299 2550 180 2550 113C2550 35 2594 -11 2666 -11C2723 -11 2779 17 2871 92ZM2648 274C2665 343 2685 386 2714 412C2732 428 2763 440 2787 440C2816 440 2835 420 2835 388C2835 344 2800 297 2748 272C2720 258 2684 247 2639 237ZM3517 437L3501 437L3522 549C3538 635 3566 673 3612 673C3642 673 3669 658 3684 634L3694 638C3699 654 3709 685 3717 705L3722 720C3706 727 3675 733 3652 733C3641 733 3625 730 3617 726C3593 715 3511 654 3488 630C3466 608 3454 578 3443 521L3428 442C3387 422 3367 414 3342 405L3337 383L3418 383L3409 327C3379 132 3342 -54 3320 -123C3302 -182 3272 -213 3236 -213C3213 -213 3202 -206 3184 -184L3170 -188C3166 -211 3152 -259 3147 -268C3156 -273 3171 -276 3182 -276C3223 -276 3277 -245 3316 -198C3387 -114 3407 -18 3491 383L3595 383C3599 402 3606 425 3612 439L3608 446C3579 439 3580 437 3517 437Z" stroke="rgb(0,0,0)" stroke-opacity="1" stroke-width="8" fill="rgb(0,0,0)" fill-opacity="1"></path></g></g><g><g transform="matrix(1,0,0,1,92.80999755859375,79.9000015258789)"><path transform="matrix(0.017,0,0,-0.017,0,0)" d="M124 111C94 111 67 83 67 53C67 23 94 -5 123 -5C155 -5 183 22 183 53C183 83 155 111 124 111Z" stroke="rgb(0,0,0)" stroke-opacity="1" stroke-width="8" fill="rgb(0,0,0)" fill-opacity="1"></path></g></g><g><g transform="matrix(1,0,0,1,100.44500732421875,79.9000015258789)"><path transform="matrix(0.017,0,0,-0.017,0,0)" d="M342 330L365 330C373 395 380 432 389 458C365 473 330 482 293 482C248 483 175 463 118 400C64 352 25 241 25 136C25 40 67 -11 147 -11C201 -11 249 9 304 54L354 95L346 115L331 105C259 57 221 40 186 40C130 40 101 80 101 159C101 267 136 371 185 409C206 425 230 433 261 433C306 433 342 414 342 390ZM440 388L447 368L479 389C516 412 519 414 526 414C536 414 544 404 544 391C544 384 540 361 536 347L470 107C462 76 457 49 457 30C457 6 468 -9 487 -9C513 -9 549 12 647 85L637 103L611 86C582 67 559 56 550 56C543 56 537 66 537 76C537 86 539 95 544 116L621 420C625 437 627 448 627 456C627 473 618 482 602 482C580 482 543 461 468 408ZM634 712C605 712 576 679 576 645C576 620 591 604 615 604C646 604 670 633 670 671C670 695 655 712 634 712ZM707 388L714 368L746 389C783 412 786 414 793 414C804 414 811 404 811 389C811 338 770 145 729 2L736 -9C761 -2 784 4 806 8C825 134 846 199 892 268C946 352 1021 414 1066 414C1077 414 1083 405 1083 390C1083 372 1080 351 1072 319L1020 107C1011 70 1007 47 1007 31C1007 6 1018 -9 1037 -9C1063 -9 1099 12 1197 85L1187 103L1161 86C1132 67 1110 56 1100 56C1093 56 1087 65 1087 76C1087 81 1088 92 1089 96L1155 372C1162 401 1166 429 1166 446C1166 469 1155 482 1135 482C1093 482 1024 444 965 389C927 354 899 320 847 247L885 408C889 426 891 438 891 449C891 470 883 482 868 482C847 482 808 460 735 408ZM1566 111L1542 94C1489 56 1441 36 1405 36C1358 36 1329 73 1329 133C1329 158 1332 185 1337 214C1354 218 1463 248 1488 259C1573 296 1612 342 1612 404C1612 451 1578 482 1528 482C1460 496 1350 423 1313 349C1283 299 1253 180 1253 113C1253 35 1297 -11 1369 -11C1426 -11 1482 17 1574 92ZM1351 274C1368 343 1388 386 1417 412C1435 428 1466 440 1490 440C1519 440 1538 420 1538 388C1538 344 1503 297 1451 272C1423 258 1387 247 1342 237ZM1751 390L1695 107C1694 99 1682 61 1682 31C1682 6 1693 -9 1712 -9C1747 -9 1782 11 1860 74L1891 99L1881 117L1836 86C1807 66 1787 56 1776 56C1767 56 1762 64 1762 76C1762 102 1776 183 1805 328L1818 390L1925 390L1936 440C1898 436 1864 434 1826 434C1842 528 1853 577 1871 631L1860 646C1840 634 1813 622 1782 610L1757 440C1713 419 1687 408 1669 403L1667 390ZM1992 388L1999 368L2031 389C2068 412 2071 414 2078 414C2088 414 2096 404 2096 391C2096 384 2092 361 2088 347L2022 107C2014 76 2009 49 2009 30C2009 6 2020 -9 2039 -9C2065 -9 2101 12 2199 85L2189 103L2163 86C2134 67 2111 56 2102 56C2095 56 2089 66 2089 76C2089 86 2091 95 2096 116L2173 420C2177 437 2179 448 2179 456C2179 473 2170 482 2154 482C2132 482 2095 461 2020 408ZM2186 712C2157 712 2128 679 2128 645C2128 620 2143 604 2167 604C2198 604 2222 633 2222 671C2222 695 2207 712 2186 712ZM2577 330L2600 330C2608 395 2615 432 2624 458C2600 473 2565 482 2528 482C2483 483 2410 463 2353 400C2299 352 2260 241 2260 136C2260 40 2302 -11 2382 -11C2436 -11 2484 9 2539 54L2589 95L2581 115L2566 105C2494 57 2456 40 2421 40C2365 40 2336 80 2336 159C2336 267 2371 371 2420 409C2441 425 2465 433 2496 433C2541 433 2577 414 2577 390ZM2912 204L2883 77C2879 60 2877 42 2877 26C2877 4 2886 -9 2901 -9C2924 -9 2965 17 3047 85L3040 106C3016 86 2987 59 2965 59C2956 59 2950 68 2950 82C2950 87 2950 90 2951 93L3043 472L3033 481L3000 463C2959 478 2942 482 2915 482C2887 482 2867 477 2840 464C2778 433 2745 403 2720 354C2676 265 2645 145 2645 67C2645 23 2660 -11 2679 -11C2716 -11 2796 41 2912 204ZM2960 414C2938 305 2919 253 2885 201C2828 117 2767 59 2735 59C2723 59 2717 72 2717 99C2717 163 2745 280 2780 360C2804 415 2827 433 2875 433C2898 433 2916 429 2960 414Z" stroke="rgb(0,0,0)" stroke-opacity="1" stroke-width="8" fill="rgb(0,0,0)" fill-opacity="1"></path></g></g></g></g></svg>