<svg xmlns="http://www.w3.org/2000/svg" xmlns:xlink="http://www.w3.org/1999/xlink" width="165.4600067138672" height="86.02000427246094" style="width:165.4600067138672px;height:86.02000427246094px;font-family:Asana-Math, Asana;background:#FFF;"><g><g><g><g transform="matrix(1,0,0,1,2,18.040000915527344)"><path transform="matrix(0.017,0,0,-0.017,0,0)" d="M2278 646L2384 650C2446 650 2486 641 2487 626L2495 537L2519 537C2522 600 2529 651 2540 689C2518 691 2490 692 2473 692L2432 691L2267 689L2238 689C2213 689 2173 690 2135 691L2086 692L2083 664L2139 662C2163 661 2174 652 2174 635C2174 621 2170 589 2165 559L2090 125C2073 33 2073 32 2032 28L1996 25L1992 -3L2026 -2C2066 -1 2098 0 2119 0C2137 0 2166 -1 2205 -2L2257 -3L2260 25L2196 28C2169 29 2160 37 2160 57C2160 63 2161 74 2162 78L2198 301L2315 301C2342 301 2373 300 2421 298L2447 297L2466 342L2462 349C2381 345 2321 343 2243 343L2206 343L2252 614C2255 630 2256 635 2261 646Z" stroke="rgb(0,0,0)" stroke-opacity="1" stroke-width="8" fill="rgb(0,0,0)" fill-opacity="1"></path></g></g><g><g><g><g><g transform="matrix(1,0,0,1,45.80000305175781,22.000006103515624)"><path transform="matrix(0.0119,0,0,-0.0119,0,0)" d="M328 111L304 94C251 56 203 36 167 36C120 36 91 73 91 133C91 158 94 185 99 214C116 218 225 248 250 259C335 296 374 342 374 404C374 451 340 482 290 482C222 496 112 423 75 349C45 299 15 180 15 113C15 35 59 -11 131 -11C188 -11 244 17 336 92ZM113 274C130 343 150 386 179 412C197 428 228 440 252 440C281 440 300 420 300 388C300 344 265 297 213 272C185 258 149 247 104 237Z" stroke="rgb(0,0,0)" stroke-opacity="1" stroke-width="8" fill="rgb(0,0,0)" fill-opacity="1"></path></g></g></g></g></g><g><g transform="matrix(1,0,0,1,56.540008544921875,18.040000915527344)"><path transform="matrix(0.017,0,0,-0.017,0,0)" d="M604 347L604 406L65 406L65 347ZM604 134L604 193L65 193L65 134Z" stroke="rgb(0,0,0)" stroke-opacity="1" stroke-width="8" fill="rgb(0,0,0)" fill-opacity="1"></path></g></g><g><g transform="matrix(1,0,0,1,76.385009765625,18.040000915527344)"><path transform="matrix(0.017,0,0,-0.017,0,0)" d="M555 243L555 299L51 299L51 243Z" stroke="rgb(0,0,0)" stroke-opacity="1" stroke-width="8" fill="rgb(0,0,0)" fill-opacity="1"></path></g></g><g><g transform="matrix(1,0,0,1,90.06500244140625,18.040000915527344)"><path transform="matrix(0.017,0,0,-0.017,0,0)" d="M240 722L228 733C176 707 140 698 68 691L64 670L112 670C136 670 146 663 146 646C146 638 145 629 144 622L96 354C82 279 66 210 14 1L23 -9L90 8L113 132C122 180 146 225 180 259C249 59 281 -9 306 -9C319 -9 343 4 387 35L433 67L425 86L382 62C368 54 361 52 353 52C343 52 336 58 327 75C292 139 270 193 231 316L245 330C306 391 352 416 402 416C410 416 421 414 438 410L455 473C437 479 419 482 407 482C341 482 258 405 133 230Z" stroke="rgb(0,0,0)" stroke-opacity="1" stroke-width="8" fill="rgb(0,0,0)" fill-opacity="1"></path></g></g><g><g transform="matrix(1,0,0,1,98.03001403808594,18.040000915527344)"><path transform="matrix(0.017,0,0,-0.017,0,0)" d="M662 6L655 -4C549 0 443 0 336 0C235 0 134 -1 33 -4L27 6C88 116 136 238 186 354C235 466 288 580 327 697L352 697C395 590 597 128 662 6ZM584 37C518 215 447 389 371 564L364 564C289 391 217 215 152 37Z" stroke="rgb(0,0,0)" stroke-opacity="1" stroke-width="8" fill="rgb(0,0,0)" fill-opacity="1"></path></g></g><g><g transform="matrix(1,0,0,1,109.72999572753906,18.040000915527344)"><path transform="matrix(0.017,0,0,-0.017,0,0)" d="M416 25L416 -3C464 -1 509 0 551 0C591 0 636 -1 684 -3L684 25L659 27C618 30 605 37 591 61L420 368L641 620C671 653 680 659 706 662L734 664L734 692L620 689C608 689 594 689 505 692L505 664L538 662C570 660 583 655 583 643C583 632 578 623 560 601L399 405L295 604C286 622 281 634 281 642C281 654 294 660 324 662L361 664L361 692L315 691C274 690 244 689 228 689C211 689 181 690 140 691L95 692L95 664L121 662C170 657 182 650 202 613L348 343L110 61C95 43 72 31 48 28L20 25L20 -3C69 -1 110 0 145 0C181 0 221 -1 264 -3L264 25L232 28C194 32 177 38 177 50C177 58 181 67 187 75L369 306L488 80C497 62 502 49 502 40C502 32 495 29 470 29L454 28Z" stroke="rgb(0,0,0)" stroke-opacity="1" stroke-width="8" fill="rgb(0,0,0)" fill-opacity="1"></path></g></g></g><g></g><g><g><g transform="matrix(1,0,0,1,2,59.73999786376953)"><path transform="matrix(0.017,0,0,-0.017,0,0)" d="M240 722L228 733C176 707 140 698 68 691L64 670L112 670C136 670 146 663 146 646C146 638 145 629 144 622L96 354C82 279 66 210 14 1L23 -9L90 8L113 132C122 180 146 225 180 259C249 59 281 -9 306 -9C319 -9 343 4 387 35L433 67L425 86L382 62C368 54 361 52 353 52C343 52 336 58 327 75C292 139 270 193 231 316L245 330C306 391 352 416 402 416C410 416 421 414 438 410L455 473C437 479 419 482 407 482C341 482 258 405 133 230Z" stroke="rgb(0,0,0)" stroke-opacity="1" stroke-width="8" fill="rgb(0,0,0)" fill-opacity="1"></path></g></g><g><g transform="matrix(1,0,0,1,13.355010986328125,59.73999786376953)"><path transform="matrix(0.017,0,0,-0.017,0,0)" d="M123 111C93 111 66 83 66 53C66 23 93 -5 122 -5C154 -5 182 22 182 53C182 83 154 111 123 111ZM123 456C93 456 66 428 66 398C66 368 93 340 122 340C154 340 182 367 182 397C182 428 154 456 123 456Z" stroke="rgb(0,0,0)" stroke-opacity="1" stroke-width="8" fill="rgb(0,0,0)" fill-opacity="1"></path></g></g><g><g transform="matrix(1,0,0,1,20.990005493164062,59.73999786376953)"><path transform="matrix(0.017,0,0,-0.017,0,0)" d="M342 330L365 330C373 395 380 432 389 458C365 473 330 482 293 482C248 483 175 463 118 400C64 352 25 241 25 136C25 40 67 -11 147 -11C201 -11 249 9 304 54L354 95L346 115L331 105C259 57 221 40 186 40C130 40 101 80 101 159C101 267 136 371 185 409C206 425 230 433 261 433C306 433 342 414 342 390ZM423 152C423 46 468 -11 551 -11C606 -11 666 15 711 57C773 116 817 230 817 331C817 425 767 482 684 482C580 482 423 382 423 152ZM647 444C708 444 741 399 741 315C741 219 710 113 666 60C648 39 622 27 591 27C533 27 499 72 499 151C499 264 538 387 587 427C600 438 623 444 647 444ZM873 388L880 368L912 389C949 412 952 414 959 414C970 414 977 404 977 389C977 338 936 145 895 2L902 -9C927 -2 950 4 972 8C991 134 1012 199 1058 268C1112 352 1187 414 1232 414C1243 414 1249 405 1249 390C1249 372 1246 351 1238 319L1186 107C1177 70 1173 47 1173 31C1173 6 1184 -9 1203 -9C1229 -9 1265 12 1363 85L1353 103L1327 86C1298 67 1276 56 1266 56C1259 56 1253 65 1253 76C1253 81 1254 92 1255 96L1321 372C1328 401 1332 429 1332 446C1332 469 1321 482 1301 482C1259 482 1190 444 1131 389C1093 354 1065 320 1013 247L1051 408C1055 426 1057 438 1057 449C1057 470 1049 482 1034 482C1013 482 974 460 901 408ZM1435 148C1430 97 1424 62 1413 16C1451 -2 1485 -11 1520 -11C1569 -11 1615 7 1666 47C1717 87 1738 124 1738 174C1738 228 1706 257 1632 271L1589 279C1529 290 1510 307 1510 348C1510 401 1555 442 1612 442C1653 442 1691 424 1707 397L1707 342L1730 342C1734 377 1738 404 1749 455C1710 474 1682 482 1649 482C1597 482 1536 452 1488 404C1462 377 1451 352 1451 316C1451 260 1482 228 1548 215L1611 203C1655 195 1671 177 1671 138C1671 73 1625 29 1554 29C1519 29 1488 40 1460 64L1460 148ZM1917 390L1861 107C1860 99 1848 61 1848 31C1848 6 1859 -9 1878 -9C1913 -9 1948 11 2026 74L2057 99L2047 117L2002 86C1973 66 1953 56 1942 56C1933 56 1928 64 1928 76C1928 102 1942 183 1971 328L1984 390L2091 390L2102 440C2064 436 2030 434 1992 434C2008 528 2019 577 2037 631L2026 646C2006 634 1979 622 1948 610L1923 440C1879 419 1853 408 1835 403L1833 390ZM2395 204L2366 77C2362 60 2360 42 2360 26C2360 4 2369 -9 2384 -9C2407 -9 2448 17 2530 85L2523 106C2499 86 2470 59 2448 59C2439 59 2433 68 2433 82C2433 87 2433 90 2434 93L2526 472L2516 481L2483 463C2442 478 2425 482 2398 482C2370 482 2350 477 2323 464C2261 433 2228 403 2203 354C2159 265 2128 145 2128 67C2128 23 2143 -11 2162 -11C2199 -11 2279 41 2395 204ZM2443 414C2421 305 2402 253 2368 201C2311 117 2250 59 2218 59C2206 59 2200 72 2200 99C2200 163 2228 280 2263 360C2287 415 2310 433 2358 433C2381 433 2399 429 2443 414ZM2591 388L2598 368L2630 389C2667 412 2670 414 2677 414C2688 414 2695 404 2695 389C2695 338 2654 145 2613 2L2620 -9C2645 -2 2668 4 2690 8C2709 134 2730 199 2776 268C2830 352 2905 414 2950 414C2961 414 2967 405 2967 390C2967 372 2964 351 2956 319L2904 107C2895 70 2891 47 2891 31C2891 6 2902 -9 2921 -9C2947 -9 2983 12 3081 85L3071 103L3045 86C3016 67 2994 56 2984 56C2977 56 2971 65 2971 76C2971 81 2972 92 2973 96L3039 372C3046 401 3050 429 3050 446C3050 469 3039 482 3019 482C2977 482 2908 444 2849 389C2811 354 2783 320 2731 247L2769 408C2773 426 2775 438 2775 449C2775 470 2767 482 2752 482C2731 482 2692 460 2619 408ZM3247 390L3191 107C3190 99 3178 61 3178 31C3178 6 3189 -9 3208 -9C3243 -9 3278 11 3356 74L3387 99L3377 117L3332 86C3303 66 3283 56 3272 56C3263 56 3258 64 3258 76C3258 102 3272 183 3301 328L3314 390L3421 390L3432 440C3394 436 3360 434 3322 434C3338 528 3349 577 3367 631L3356 646C3336 634 3309 622 3278 610L3253 440C3209 419 3183 408 3165 403L3163 390ZM3782 111L3758 94C3705 56 3657 36 3621 36C3574 36 3545 73 3545 133C3545 158 3548 185 3553 214C3570 218 3679 248 3704 259C3789 296 3828 342 3828 404C3828 451 3794 482 3744 482C3676 496 3566 423 3529 349C3499 299 3469 180 3469 113C3469 35 3513 -11 3585 -11C3642 -11 3698 17 3790 92ZM3567 274C3584 343 3604 386 3633 412C3651 428 3682 440 3706 440C3735 440 3754 420 3754 388C3754 344 3719 297 3667 272C3639 258 3603 247 3558 237ZM4419 111L4395 94C4342 56 4294 36 4258 36C4211 36 4182 73 4182 133C4182 158 4185 185 4190 214C4207 218 4316 248 4341 259C4426 296 4465 342 4465 404C4465 451 4431 482 4381 482C4313 496 4203 423 4166 349C4136 299 4106 180 4106 113C4106 35 4150 -11 4222 -11C4279 -11 4335 17 4427 92ZM4204 274C4221 343 4241 386 4270 412C4288 428 4319 440 4343 440C4372 440 4391 420 4391 388C4391 344 4356 297 4304 272C4276 258 4240 247 4195 237ZM4730 722L4718 733C4666 707 4630 698 4558 691L4554 670L4602 670C4626 670 4636 663 4636 648C4636 645 4636 640 4633 622C4622 567 4549 182 4534 132C4521 82 4515 52 4515 31C4515 6 4526 -9 4545 -9C4571 -9 4607 12 4705 85L4695 103L4669 86C4640 67 4618 56 4608 56C4601 56 4595 66 4595 76C4595 82 4596 89 4599 104ZM5027 204L4998 77C4994 60 4992 42 4992 26C4992 4 5001 -9 5016 -9C5039 -9 5080 17 5162 85L5155 106C5131 86 5102 59 5080 59C5071 59 5065 68 5065 82C5065 87 5065 90 5066 93L5158 472L5148 481L5115 463C5074 478 5057 482 5030 482C5002 482 4982 477 4955 464C4893 433 4860 403 4835 354C4791 265 4760 145 4760 67C4760 23 4775 -11 4794 -11C4831 -11 4911 41 5027 204ZM5075 414C5053 305 5034 253 5000 201C4943 117 4882 59 4850 59C4838 59 4832 72 4832 99C4832 163 4860 280 4895 360C4919 415 4942 433 4990 433C5013 433 5031 429 5075 414ZM5230 148C5225 97 5219 62 5208 16C5246 -2 5280 -11 5315 -11C5364 -11 5410 7 5461 47C5512 87 5533 124 5533 174C5533 228 5501 257 5427 271L5384 279C5324 290 5305 307 5305 348C5305 401 5350 442 5407 442C5448 442 5486 424 5502 397L5502 342L5525 342C5529 377 5533 404 5544 455C5505 474 5477 482 5444 482C5392 482 5331 452 5283 404C5257 377 5246 352 5246 316C5246 260 5277 228 5343 215L5406 203C5450 195 5466 177 5466 138C5466 73 5420 29 5349 29C5314 29 5283 40 5255 64L5255 148ZM5712 390L5656 107C5655 99 5643 61 5643 31C5643 6 5654 -9 5673 -9C5708 -9 5743 11 5821 74L5852 99L5842 117L5797 86C5768 66 5748 56 5737 56C5728 56 5723 64 5723 76C5723 102 5737 183 5766 328L5779 390L5886 390L5897 440C5859 436 5825 434 5787 434C5803 528 5814 577 5832 631L5821 646C5801 634 5774 622 5743 610L5718 440C5674 419 5648 408 5630 403L5628 390ZM5953 388L5960 368L5992 389C6029 412 6032 414 6039 414C6049 414 6057 404 6057 391C6057 384 6053 361 6049 347L5983 107C5975 76 5970 49 5970 30C5970 6 5981 -9 6000 -9C6026 -9 6062 12 6160 85L6150 103L6124 86C6095 67 6072 56 6063 56C6056 56 6050 66 6050 76C6050 86 6052 95 6057 116L6134 420C6138 437 6140 448 6140 456C6140 473 6131 482 6115 482C6093 482 6056 461 5981 408ZM6147 712C6118 712 6089 679 6089 645C6089 620 6104 604 6128 604C6159 604 6183 633 6183 671C6183 695 6168 712 6147 712ZM6538 330L6561 330C6569 395 6576 432 6585 458C6561 473 6526 482 6489 482C6444 483 6371 463 6314 400C6260 352 6221 241 6221 136C6221 40 6263 -11 6343 -11C6397 -11 6445 9 6500 54L6550 95L6542 115L6527 105C6455 57 6417 40 6382 40C6326 40 6297 80 6297 159C6297 267 6332 371 6381 409C6402 425 6426 433 6457 433C6502 433 6538 414 6538 390ZM6873 204L6844 77C6840 60 6838 42 6838 26C6838 4 6847 -9 6862 -9C6885 -9 6926 17 7008 85L7001 106C6977 86 6948 59 6926 59C6917 59 6911 68 6911 82C6911 87 6911 90 6912 93L7004 472L6994 481L6961 463C6920 478 6903 482 6876 482C6848 482 6828 477 6801 464C6739 433 6706 403 6681 354C6637 265 6606 145 6606 67C6606 23 6621 -11 6640 -11C6677 -11 6757 41 6873 204ZM6921 414C6899 305 6880 253 6846 201C6789 117 6728 59 6696 59C6684 59 6678 72 6678 99C6678 163 6706 280 6741 360C6765 415 6788 433 6836 433C6859 433 6877 429 6921 414Z" stroke="rgb(0,0,0)" stroke-opacity="1" stroke-width="8" fill="rgb(0,0,0)" fill-opacity="1"></path></g></g></g><g><g><g transform="matrix(1,0,0,1,2,79.9000015258789)"><path transform="matrix(0.017,0,0,-0.017,0,0)" d="M662 6L655 -4C549 0 443 0 336 0C235 0 134 -1 33 -4L27 6C88 116 136 238 186 354C235 466 288 580 327 697L352 697C395 590 597 128 662 6ZM584 37C518 215 447 389 371 564L364 564C289 391 217 215 152 37Z" stroke="rgb(0,0,0)" stroke-opacity="1" stroke-width="8" fill="rgb(0,0,0)" fill-opacity="1"></path></g></g><g><g transform="matrix(1,0,0,1,13.699996948242188,79.9000015258789)"><path transform="matrix(0.017,0,0,-0.017,0,0)" d="M416 25L416 -3C464 -1 509 0 551 0C591 0 636 -1 684 -3L684 25L659 27C618 30 605 37 591 61L420 368L641 620C671 653 680 659 706 662L734 664L734 692L620 689C608 689 594 689 505 692L505 664L538 662C570 660 583 655 583 643C583 632 578 623 560 601L399 405L295 604C286 622 281 634 281 642C281 654 294 660 324 662L361 664L361 692L315 691C274 690 244 689 228 689C211 689 181 690 140 691L95 692L95 664L121 662C170 657 182 650 202 613L348 343L110 61C95 43 72 31 48 28L20 25L20 -3C69 -1 110 0 145 0C181 0 221 -1 264 -3L264 25L232 28C194 32 177 38 177 50C177 58 181 67 187 75L369 306L488 80C497 62 502 49 502 40C502 32 495 29 470 29L454 28Z" stroke="rgb(0,0,0)" stroke-opacity="1" stroke-width="8" fill="rgb(0,0,0)" fill-opacity="1"></path></g></g><g><g transform="matrix(1,0,0,1,29.345001220703125,79.9000015258789)"><path transform="matrix(0.017,0,0,-0.017,0,0)" d="M123 111C93 111 66 83 66 53C66 23 93 -5 122 -5C154 -5 182 22 182 53C182 83 154 111 123 111ZM123 456C93 456 66 428 66 398C66 368 93 340 122 340C154 340 182 367 182 397C182 428 154 456 123 456Z" stroke="rgb(0,0,0)" stroke-opacity="1" stroke-width="8" fill="rgb(0,0,0)" fill-opacity="1"></path></g></g><g><g transform="matrix(1,0,0,1,36.980010986328125,79.9000015258789)"><path transform="matrix(0.017,0,0,-0.017,0,0)" d="M166 420C187 420 203 421 229 424C118 304 76 221 76 121C76 44 122 -11 186 -11C324 -11 477 236 477 384C477 441 451 482 415 482C402 482 390 478 382 470L332 423L343 404C352 410 361 413 370 413C397 413 413 390 413 350C413 202 316 39 228 39C179 39 148 81 148 146C148 251 187 342 285 464L275 482C255 473 242 470 214 470C186 470 144 472 115 475L103 476C97 477 92 477 91 477C79 477 70 475 59 470C45 443 34 407 21 352L43 352L60 394C67 411 87 422 111 422C144 422 128 420 166 420ZM770 204L741 77C737 60 735 42 735 26C735 4 744 -9 759 -9C782 -9 823 17 905 85L898 106C874 86 845 59 823 59C814 59 808 68 808 82C808 87 808 90 809 93L901 472L891 481L858 463C817 478 800 482 773 482C745 482 725 477 698 464C636 433 603 403 578 354C534 265 503 145 503 67C503 23 518 -11 537 -11C574 -11 654 41 770 204ZM818 414C796 305 777 253 743 201C686 117 625 59 593 59C581 59 575 72 575 99C575 163 603 280 638 360C662 415 685 433 733 433C756 433 774 429 818 414ZM1310 365C1313 403 1318 435 1326 476C1315 481 1311 482 1306 482C1275 482 1244 458 1208 407C1169 351 1130 291 1114 256L1146 408C1150 425 1152 438 1152 450C1152 470 1144 482 1129 482C1108 482 1070 461 996 408L968 388L975 368L1007 389C1035 407 1046 412 1055 412C1065 412 1072 403 1072 390C1072 332 1029 126 989 -2L999 -9C1014 -4 1030 -1 1053 4L1066 6L1092 126C1110 209 1133 262 1177 319C1211 363 1238 384 1260 384C1275 384 1285 379 1296 365ZM1364 388L1371 368L1403 389C1440 412 1443 414 1450 414C1460 414 1468 404 1468 391C1468 384 1464 361 1460 347L1394 107C1386 76 1381 49 1381 30C1381 6 1392 -9 1411 -9C1437 -9 1473 12 1571 85L1561 103L1535 86C1506 67 1483 56 1474 56C1467 56 1461 66 1461 76C1461 86 1463 95 1468 116L1545 420C1549 437 1551 448 1551 456C1551 473 1542 482 1526 482C1504 482 1467 461 1392 408ZM1558 712C1529 712 1500 679 1500 645C1500 620 1515 604 1539 604C1570 604 1594 633 1594 671C1594 695 1579 712 1558 712ZM1878 204L1849 77C1845 60 1843 42 1843 26C1843 4 1852 -9 1867 -9C1890 -9 1931 17 2013 85L2006 106C1982 86 1953 59 1931 59C1922 59 1916 68 1916 82C1916 87 1916 90 1917 93L2009 472L1999 481L1966 463C1925 478 1908 482 1881 482C1853 482 1833 477 1806 464C1744 433 1711 403 1686 354C1642 265 1611 145 1611 67C1611 23 1626 -11 1645 -11C1682 -11 1762 41 1878 204ZM1926 414C1904 305 1885 253 1851 201C1794 117 1733 59 1701 59C1689 59 1683 72 1683 99C1683 163 1711 280 1746 360C1770 415 1793 433 1841 433C1864 433 1882 429 1926 414ZM2392 330L2415 330C2423 395 2430 432 2439 458C2415 473 2380 482 2343 482C2298 483 2225 463 2168 400C2114 352 2075 241 2075 136C2075 40 2117 -11 2197 -11C2251 -11 2299 9 2354 54L2404 95L2396 115L2381 105C2309 57 2271 40 2236 40C2180 40 2151 80 2151 159C2151 267 2186 371 2235 409C2256 425 2280 433 2311 433C2356 433 2392 414 2392 390ZM2490 388L2497 368L2529 389C2566 412 2569 414 2576 414C2586 414 2594 404 2594 391C2594 384 2590 361 2586 347L2520 107C2512 76 2507 49 2507 30C2507 6 2518 -9 2537 -9C2563 -9 2599 12 2697 85L2687 103L2661 86C2632 67 2609 56 2600 56C2593 56 2587 66 2587 76C2587 86 2589 95 2594 116L2671 420C2675 437 2677 448 2677 456C2677 473 2668 482 2652 482C2630 482 2593 461 2518 408ZM2684 712C2655 712 2626 679 2626 645C2626 620 2641 604 2665 604C2696 604 2720 633 2720 671C2720 695 2705 712 2684 712ZM2750 152C2750 46 2795 -11 2878 -11C2933 -11 2993 15 3038 57C3100 116 3144 230 3144 331C3144 425 3094 482 3011 482C2907 482 2750 382 2750 152ZM2974 444C3035 444 3068 399 3068 315C3068 219 3037 113 2993 60C2975 39 2949 27 2918 27C2860 27 2826 72 2826 151C2826 264 2865 387 2914 427C2927 438 2950 444 2974 444ZM3200 388L3207 368L3239 389C3276 412 3279 414 3286 414C3297 414 3304 404 3304 389C3304 338 3263 145 3222 2L3229 -9C3254 -2 3277 4 3299 8C3318 134 3339 199 3385 268C3439 352 3514 414 3559 414C3570 414 3576 405 3576 390C3576 372 3573 351 3565 319L3513 107C3504 70 3500 47 3500 31C3500 6 3511 -9 3530 -9C3556 -9 3592 12 3690 85L3680 103L3654 86C3625 67 3603 56 3593 56C3586 56 3580 65 3580 76C3580 81 3581 92 3582 96L3648 372C3655 401 3659 429 3659 446C3659 469 3648 482 3628 482C3586 482 3517 444 3458 389C3420 354 3392 320 3340 247L3378 408C3382 426 3384 438 3384 449C3384 470 3376 482 3361 482C3340 482 3301 460 3228 408ZM4463 722L4451 733C4399 707 4363 698 4291 691L4287 670L4335 670C4359 670 4369 663 4369 646C4369 638 4368 629 4367 622L4339 468C4309 477 4282 482 4257 482C4188 482 4094 410 4048 323C4017 265 3997 170 3997 86C3997 21 4012 -11 4041 -11C4068 -11 4105 6 4139 33C4193 77 4226 116 4293 217L4270 126C4259 82 4254 50 4254 24C4254 3 4263 -9 4280 -9C4297 -9 4321 3 4355 28L4436 88L4426 107L4382 76C4368 66 4352 59 4343 59C4335 59 4329 68 4329 82C4329 90 4330 99 4337 128ZM4094 59C4078 59 4069 73 4069 98C4069 224 4115 380 4164 418C4177 428 4196 433 4223 433C4267 433 4296 427 4329 410L4317 351C4280 171 4139 59 4094 59ZM4807 111L4783 94C4730 56 4682 36 4646 36C4599 36 4570 73 4570 133C4570 158 4573 185 4578 214C4595 218 4704 248 4729 259C4814 296 4853 342 4853 404C4853 451 4819 482 4769 482C4701 496 4591 423 4554 349C4524 299 4494 180 4494 113C4494 35 4538 -11 4610 -11C4667 -11 4723 17 4815 92ZM4592 274C4609 343 4629 386 4658 412C4676 428 4707 440 4731 440C4760 440 4779 420 4779 388C4779 344 4744 297 4692 272C4664 258 4628 247 4583 237ZM5118 722L5106 733C5054 707 5018 698 4946 691L4942 670L4990 670C5014 670 5024 663 5024 648C5024 645 5024 640 5021 622C5010 567 4937 182 4922 132C4909 82 4903 52 4903 31C4903 6 4914 -9 4933 -9C4959 -9 4995 12 5093 85L5083 103L5057 86C5028 67 5006 56 4996 56C4989 56 4983 66 4983 76C4983 82 4984 89 4987 104ZM5644 722L5632 733C5580 707 5544 698 5472 691L5468 670L5516 670C5540 670 5550 663 5550 648C5550 645 5550 640 5547 622C5536 567 5463 182 5448 132C5435 82 5429 52 5429 31C5429 6 5440 -9 5459 -9C5485 -9 5521 12 5619 85L5609 103L5583 86C5554 67 5532 56 5522 56C5515 56 5509 66 5509 76C5509 82 5510 89 5513 104ZM5941 204L5912 77C5908 60 5906 42 5906 26C5906 4 5915 -9 5930 -9C5953 -9 5994 17 6076 85L6069 106C6045 86 6016 59 5994 59C5985 59 5979 68 5979 82C5979 87 5979 90 5980 93L6072 472L6062 481L6029 463C5988 478 5971 482 5944 482C5916 482 5896 477 5869 464C5807 433 5774 403 5749 354C5705 265 5674 145 5674 67C5674 23 5689 -11 5708 -11C5745 -11 5825 41 5941 204ZM5989 414C5967 305 5948 253 5914 201C5857 117 5796 59 5764 59C5752 59 5746 72 5746 99C5746 163 5774 280 5809 360C5833 415 5856 433 5904 433C5927 433 5945 429 5989 414ZM6481 365C6484 403 6489 435 6497 476C6486 481 6482 482 6477 482C6446 482 6415 458 6379 407C6340 351 6301 291 6285 256L6317 408C6321 425 6323 438 6323 450C6323 470 6315 482 6300 482C6279 482 6241 461 6167 408L6139 388L6146 368L6178 389C6206 407 6217 412 6226 412C6236 412 6243 403 6243 390C6243 332 6200 126 6160 -2L6170 -9C6185 -4 6201 -1 6224 4L6237 6L6263 126C6281 209 6304 262 6348 319C6382 363 6409 384 6431 384C6446 384 6456 379 6467 365ZM6776 482C6709 482 6556 419 6556 259C6556 182 6601 136 6678 136C6686 136 6697 136 6708 137L6667 99C6651 84 6640 66 6640 52C6640 42 6647 31 6661 19C6592 -4 6464 -48 6464 -159C6464 -230 6534 -276 6643 -276C6772 -276 6885 -204 6885 -121C6885 -85 6864 -49 6821 -14L6761 35C6727 62 6714 81 6714 100C6714 114 6729 128 6741 146C6839 170 6910 253 6910 342C6910 357 6907 376 6906 380C6923 378 6931 378 6940 378C6957 378 6967 379 6990 382L6999 427L6996 433C6968 426 6948 424 6894 424C6894 425 6870 482 6776 482ZM6677 1L6754 -58C6800 -94 6819 -121 6819 -154C6819 -206 6750 -248 6667 -248C6585 -248 6528 -206 6528 -145C6528 -43 6638 -11 6677 1ZM6751 448C6809 448 6838 412 6838 341C6838 238 6790 168 6720 168C6659 168 6627 209 6627 288C6627 383 6678 448 6751 448ZM7017 152C7017 46 7062 -11 7145 -11C7200 -11 7260 15 7305 57C7367 116 7411 230 7411 331C7411 425 7361 482 7278 482C7174 482 7017 382 7017 152ZM7241 444C7302 444 7335 399 7335 315C7335 219 7304 113 7260 60C7242 39 7216 27 7185 27C7127 27 7093 72 7093 151C7093 264 7132 387 7181 427C7194 438 7217 444 7241 444Z" stroke="rgb(0,0,0)" stroke-opacity="1" stroke-width="8" fill="rgb(0,0,0)" fill-opacity="1"></path></g></g></g></g></svg>