<svg xmlns="http://www.w3.org/2000/svg" xmlns:xlink="http://www.w3.org/1999/xlink" width="153.5800018310547" height="87.4000015258789" style="width:153.5800018310547px;height:87.4000015258789px;font-family:Asana-Math, Asana;background:#FFF;"><g><g><g><g transform="matrix(1,0,0,1,2,18.040000915527344)"><path transform="matrix(0.017,0,0,-0.017,0,0)" d="M2337 437L2321 437L2342 549C2358 635 2386 673 2432 673C2462 673 2489 658 2504 634L2514 638C2519 654 2529 685 2537 705L2542 720C2526 727 2495 733 2472 733C2461 733 2445 730 2437 726C2413 715 2331 654 2308 630C2286 608 2274 578 2263 521L2248 442C2207 422 2187 414 2162 405L2157 383L2238 383L2229 327C2199 132 2162 -54 2140 -123C2122 -182 2092 -213 2056 -213C2033 -213 2022 -206 2004 -184L1990 -188C1986 -211 1972 -259 1967 -268C1976 -273 1991 -276 2002 -276C2043 -276 2097 -245 2136 -198C2207 -114 2227 -18 2311 383L2415 383C2419 402 2426 425 2432 439L2428 446C2399 439 2400 437 2337 437Z" stroke="rgb(0,0,0)" stroke-opacity="1" stroke-width="8" fill="rgb(0,0,0)" fill-opacity="1"></path></g></g><g><g><g><g><g transform="matrix(1,0,0,1,45.71000671386719,22.000006103515624)"><path transform="matrix(0.0119,0,0,-0.0119,0,0)" d="M328 111L304 94C251 56 203 36 167 36C120 36 91 73 91 133C91 158 94 185 99 214C116 218 225 248 250 259C335 296 374 342 374 404C374 451 340 482 290 482C222 496 112 423 75 349C45 299 15 180 15 113C15 35 59 -11 131 -11C188 -11 244 17 336 92ZM113 274C130 343 150 386 179 412C197 428 228 440 252 440C281 440 300 420 300 388C300 344 265 297 213 272C185 258 149 247 104 237Z" stroke="rgb(0,0,0)" stroke-opacity="1" stroke-width="8" fill="rgb(0,0,0)" fill-opacity="1"></path></g></g></g></g></g><g><g transform="matrix(1,0,0,1,56.44999694824219,18.040000915527344)"><path transform="matrix(0.017,0,0,-0.017,0,0)" d="M604 347L604 406L65 406L65 347ZM604 134L604 193L65 193L65 134Z" stroke="rgb(0,0,0)" stroke-opacity="1" stroke-width="8" fill="rgb(0,0,0)" fill-opacity="1"></path></g></g><g><g transform="matrix(1,0,0,1,72.90499877929688,18.040000915527344)"><path transform="matrix(0.017,0,0,-0.017,0,0)" d="M409 -15C458 -15 530 43 565 74L565 81C562 86 558 90 553 92C531 76 472 25 461 77C461 151 506 393 533 463L533 473C511 465 488 459 465 456L455 445C453 381 421 203 395 146C372 97 311 42 254 42C199 42 184 90 185 137C188 248 238 356 241 467C213 462 187 457 161 453C179 227 9 -91 53 -286C76 -285 109 -281 131 -273L131 -261C81 -173 121 -38 138 36L138 35C204 -77 344 37 395 104L395 101C387 65 354 -15 409 -15Z" stroke="rgb(0,0,0)" stroke-opacity="1" stroke-width="8" fill="rgb(0,0,0)" fill-opacity="1"></path></g></g><g><g><g><g><g transform="matrix(1,0,0,1,83.79499816894531,22.000006103515624)"><path transform="matrix(0.0119,0,0,-0.0119,0,0)" d="M328 111L304 94C251 56 203 36 167 36C120 36 91 73 91 133C91 158 94 185 99 214C116 218 225 248 250 259C335 296 374 342 374 404C374 451 340 482 290 482C222 496 112 423 75 349C45 299 15 180 15 113C15 35 59 -11 131 -11C188 -11 244 17 336 92ZM113 274C130 343 150 386 179 412C197 428 228 440 252 440C281 440 300 420 300 388C300 344 265 297 213 272C185 258 149 247 104 237Z" stroke="rgb(0,0,0)" stroke-opacity="1" stroke-width="8" fill="rgb(0,0,0)" fill-opacity="1"></path></g></g></g></g></g><g><g transform="matrix(1,0,0,1,89.43499755859375,18.040000915527344)"><path transform="matrix(0.017,0,0,-0.017,0,0)" d="M582 103L237 692L75 692L70 664L105 662C150 660 184 615 185 606L92 102C80 40 74 32 38 28L7 25L2 -3L113 0C125 0 126 0 223 -3L228 25L186 28C146 31 137 39 137 72C137 80 138 91 140 102L220 566L558 -11L608 -11L702 542C723 655 725 659 762 662L799 664L802 691L589 692L584 664L631 662C657 661 667 654 667 638C667 631 584 116 582 103Z" stroke="rgb(0,0,0)" stroke-opacity="1" stroke-width="8" fill="rgb(0,0,0)" fill-opacity="1"></path></g></g></g><g></g><g><g><g transform="matrix(1,0,0,1,2,59.73999786376953)"><path transform="matrix(0.017,0,0,-0.017,0,0)" d="M582 103L237 692L75 692L70 664L105 662C150 660 184 615 185 606L92 102C80 40 74 32 38 28L7 25L2 -3L113 0C125 0 126 0 223 -3L228 25L186 28C146 31 137 39 137 72C137 80 138 91 140 102L220 566L558 -11L608 -11L702 542C723 655 725 659 762 662L799 664L802 691L589 692L584 664L631 662C657 661 667 654 667 638C667 631 584 116 582 103Z" stroke="rgb(0,0,0)" stroke-opacity="1" stroke-width="8" fill="rgb(0,0,0)" fill-opacity="1"></path></g></g><g><g transform="matrix(1,0,0,1,18.604995727539062,59.73999786376953)"><path transform="matrix(0.017,0,0,-0.017,0,0)" d="M123 111C93 111 66 83 66 53C66 23 93 -5 122 -5C154 -5 182 22 182 53C182 83 154 111 123 111ZM123 456C93 456 66 428 66 398C66 368 93 340 122 340C154 340 182 367 182 397C182 428 154 456 123 456Z" stroke="rgb(0,0,0)" stroke-opacity="1" stroke-width="8" fill="rgb(0,0,0)" fill-opacity="1"></path></g></g><g><g transform="matrix(1,0,0,1,26.240005493164062,59.73999786376953)"><path transform="matrix(0.017,0,0,-0.017,0,0)" d="M24 388L31 368L63 389C100 412 103 414 110 414C121 414 128 404 128 389C128 338 87 145 46 2L53 -9C78 -2 101 4 123 8C142 134 163 199 209 268C263 352 338 414 383 414C394 414 400 405 400 390C400 372 397 351 389 319L337 107C328 70 324 47 324 31C324 6 335 -9 354 -9C380 -9 416 12 514 85L504 103L478 86C449 67 427 56 417 56C410 56 404 65 404 76C404 81 405 92 406 96L472 372C479 401 483 429 483 446C483 469 472 482 452 482C410 482 341 444 282 389C244 354 216 320 164 247L202 408C206 426 208 438 208 449C208 470 200 482 185 482C164 482 125 460 52 408ZM572 152C572 46 617 -11 700 -11C755 -11 815 15 860 57C922 116 966 230 966 331C966 425 916 482 833 482C729 482 572 382 572 152ZM796 444C857 444 890 399 890 315C890 219 859 113 815 60C797 39 771 27 740 27C682 27 648 72 648 151C648 264 687 387 736 427C749 438 772 444 796 444ZM1366 365C1369 403 1374 435 1382 476C1371 481 1367 482 1362 482C1331 482 1300 458 1264 407C1225 351 1186 291 1170 256L1202 408C1206 425 1208 438 1208 450C1208 470 1200 482 1185 482C1164 482 1126 461 1052 408L1024 388L1031 368L1063 389C1091 407 1102 412 1111 412C1121 412 1128 403 1128 390C1128 332 1085 126 1045 -2L1055 -9C1070 -4 1086 -1 1109 4L1122 6L1148 126C1166 209 1189 262 1233 319C1267 363 1294 384 1316 384C1331 384 1341 379 1352 365ZM2116 103L2090 86C2061 67 2039 56 2029 56C2022 56 2016 65 2016 76C2016 86 2018 95 2023 116L2098 413C2102 430 2105 446 2105 454C2105 471 2095 482 2079 482C2050 482 2012 464 1951 421C1888 376 1853 341 1804 272L1834 409C1838 429 1841 444 1841 451C1841 470 1831 482 1815 482C1785 482 1739 460 1684 418C1640 384 1620 363 1555 275L1588 408C1592 424 1594 439 1594 451C1594 470 1585 482 1571 482C1550 482 1512 461 1438 408L1410 388L1417 368C1454 391 1489 414 1496 414C1507 414 1514 404 1514 389C1514 338 1473 145 1432 2L1435 -9L1503 6L1525 108C1549 219 1576 278 1631 338C1673 384 1718 414 1746 414C1753 414 1757 406 1757 393C1757 358 1735 244 1694 69L1678 2L1683 -9L1752 6L1773 113C1789 194 1823 269 1867 318C1922 379 1972 414 2004 414C2012 414 2017 405 2017 389C2017 365 2014 351 1992 264C1952 105 1936 84 1936 31C1936 6 1947 -9 1966 -9C1992 -9 2028 12 2126 85ZM2434 204L2405 77C2401 60 2399 42 2399 26C2399 4 2408 -9 2423 -9C2446 -9 2487 17 2569 85L2562 106C2538 86 2509 59 2487 59C2478 59 2472 68 2472 82C2472 87 2472 90 2473 93L2565 472L2555 481L2522 463C2481 478 2464 482 2437 482C2409 482 2389 477 2362 464C2300 433 2267 403 2242 354C2198 265 2167 145 2167 67C2167 23 2182 -11 2201 -11C2238 -11 2318 41 2434 204ZM2482 414C2460 305 2441 253 2407 201C2350 117 2289 59 2257 59C2245 59 2239 72 2239 99C2239 163 2267 280 2302 360C2326 415 2349 433 2397 433C2420 433 2438 429 2482 414ZM2857 722L2845 733C2793 707 2757 698 2685 691L2681 670L2729 670C2753 670 2763 663 2763 648C2763 645 2763 640 2760 622C2749 567 2676 182 2661 132C2648 82 2642 52 2642 31C2642 6 2653 -9 2672 -9C2698 -9 2734 12 2832 85L2822 103L2796 86C2767 67 2745 56 2735 56C2728 56 2722 66 2722 76C2722 82 2723 89 2726 104Z" stroke="rgb(0,0,0)" stroke-opacity="1" stroke-width="8" fill="rgb(0,0,0)" fill-opacity="1"></path></g></g></g><g><g><g transform="matrix(1,0,0,1,2,79.9000015258789)"><path transform="matrix(0.017,0,0,-0.017,0,0)" d="M409 -15C458 -15 530 43 565 74L565 81C562 86 558 90 553 92C531 76 472 25 461 77C461 151 506 393 533 463L533 473C511 465 488 459 465 456L455 445C453 381 421 203 395 146C372 97 311 42 254 42C199 42 184 90 185 137C188 248 238 356 241 467C213 462 187 457 161 453C179 227 9 -91 53 -286C76 -285 109 -281 131 -273L131 -261C81 -173 121 -38 138 36L138 35C204 -77 344 37 395 104L395 101C387 65 354 -15 409 -15Z" stroke="rgb(0,0,0)" stroke-opacity="1" stroke-width="8" fill="rgb(0,0,0)" fill-opacity="1"></path></g></g><g><g><g><g><g transform="matrix(1,0,0,1,12.889999389648438,83.85999908447266)"><path transform="matrix(0.0119,0,0,-0.0119,0,0)" d="M328 111L304 94C251 56 203 36 167 36C120 36 91 73 91 133C91 158 94 185 99 214C116 218 225 248 250 259C335 296 374 342 374 404C374 451 340 482 290 482C222 496 112 423 75 349C45 299 15 180 15 113C15 35 59 -11 131 -11C188 -11 244 17 336 92ZM113 274C130 343 150 386 179 412C197 428 228 440 252 440C281 440 300 420 300 388C300 344 265 297 213 272C185 258 149 247 104 237Z" stroke="rgb(0,0,0)" stroke-opacity="1" stroke-width="8" fill="rgb(0,0,0)" fill-opacity="1"></path></g></g></g></g></g><g><g transform="matrix(1,0,0,1,21.919998168945312,79.9000015258789)"><path transform="matrix(0.017,0,0,-0.017,0,0)" d="M123 111C93 111 66 83 66 53C66 23 93 -5 122 -5C154 -5 182 22 182 53C182 83 154 111 123 111ZM123 456C93 456 66 428 66 398C66 368 93 340 122 340C154 340 182 367 182 397C182 428 154 456 123 456Z" stroke="rgb(0,0,0)" stroke-opacity="1" stroke-width="8" fill="rgb(0,0,0)" fill-opacity="1"></path></g></g><g><g transform="matrix(1,0,0,1,29.555007934570312,79.9000015258789)"><path transform="matrix(0.017,0,0,-0.017,0,0)" d="M342 330L365 330C373 395 380 432 389 458C365 473 330 482 293 482C248 483 175 463 118 400C64 352 25 241 25 136C25 40 67 -11 147 -11C201 -11 249 9 304 54L354 95L346 115L331 105C259 57 221 40 186 40C130 40 101 80 101 159C101 267 136 371 185 409C206 425 230 433 261 433C306 433 342 414 342 390ZM423 152C423 46 468 -11 551 -11C606 -11 666 15 711 57C773 116 817 230 817 331C817 425 767 482 684 482C580 482 423 382 423 152ZM647 444C708 444 741 399 741 315C741 219 710 113 666 60C648 39 622 27 591 27C533 27 499 72 499 151C499 264 538 387 587 427C600 438 623 444 647 444ZM1177 111L1153 94C1100 56 1052 36 1016 36C969 36 940 73 940 133C940 158 943 185 948 214C965 218 1074 248 1099 259C1184 296 1223 342 1223 404C1223 451 1189 482 1139 482C1071 496 961 423 924 349C894 299 864 180 864 113C864 35 908 -11 980 -11C1037 -11 1093 17 1185 92ZM962 274C979 343 999 386 1028 412C1046 428 1077 440 1101 440C1130 440 1149 420 1149 388C1149 344 1114 297 1062 272C1034 258 998 247 953 237ZM1582 437L1566 437L1587 549C1603 635 1631 673 1677 673C1707 673 1734 658 1749 634L1759 638C1764 654 1774 685 1782 705L1787 720C1771 727 1740 733 1717 733C1706 733 1690 730 1682 726C1658 715 1576 654 1553 630C1531 608 1519 578 1508 521L1493 442C1452 422 1432 414 1407 405L1402 383L1483 383L1474 327C1444 132 1407 -54 1385 -123C1367 -182 1337 -213 1301 -213C1278 -213 1267 -206 1249 -184L1235 -188C1231 -211 1217 -259 1212 -268C1221 -273 1236 -276 1247 -276C1288 -276 1342 -245 1381 -198C1452 -114 1472 -18 1556 383L1660 383C1664 402 1671 425 1677 439L1673 446C1644 439 1645 437 1582 437ZM2519 722L2507 733C2455 707 2419 698 2347 691L2343 670L2391 670C2415 670 2425 663 2425 646C2425 638 2424 629 2423 622L2395 468C2365 477 2338 482 2313 482C2244 482 2150 410 2104 323C2073 265 2053 170 2053 86C2053 21 2068 -11 2097 -11C2124 -11 2161 6 2195 33C2249 77 2282 116 2349 217L2326 126C2315 82 2310 50 2310 24C2310 3 2319 -9 2336 -9C2353 -9 2377 3 2411 28L2492 88L2482 107L2438 76C2424 66 2408 59 2399 59C2391 59 2385 68 2385 82C2385 90 2386 99 2393 128ZM2150 59C2134 59 2125 73 2125 98C2125 224 2171 380 2220 418C2233 428 2252 433 2279 433C2323 433 2352 427 2385 410L2373 351C2336 171 2195 59 2150 59ZM2863 111L2839 94C2786 56 2738 36 2702 36C2655 36 2626 73 2626 133C2626 158 2629 185 2634 214C2651 218 2760 248 2785 259C2870 296 2909 342 2909 404C2909 451 2875 482 2825 482C2757 496 2647 423 2610 349C2580 299 2550 180 2550 113C2550 35 2594 -11 2666 -11C2723 -11 2779 17 2871 92ZM2648 274C2665 343 2685 386 2714 412C2732 428 2763 440 2787 440C2816 440 2835 420 2835 388C2835 344 2800 297 2748 272C2720 258 2684 247 2639 237ZM3517 437L3501 437L3522 549C3538 635 3566 673 3612 673C3642 673 3669 658 3684 634L3694 638C3699 654 3709 685 3717 705L3722 720C3706 727 3675 733 3652 733C3641 733 3625 730 3617 726C3593 715 3511 654 3488 630C3466 608 3454 578 3443 521L3428 442C3387 422 3367 414 3342 405L3337 383L3418 383L3409 327C3379 132 3342 -54 3320 -123C3302 -182 3272 -213 3236 -213C3213 -213 3202 -206 3184 -184L3170 -188C3166 -211 3152 -259 3147 -268C3156 -273 3171 -276 3182 -276C3223 -276 3277 -245 3316 -198C3387 -114 3407 -18 3491 383L3595 383C3599 402 3606 425 3612 439L3608 446C3579 439 3580 437 3517 437Z" stroke="rgb(0,0,0)" stroke-opacity="1" stroke-width="8" fill="rgb(0,0,0)" fill-opacity="1"></path></g></g><g><g transform="matrix(1,0,0,1,92.81001281738281,79.9000015258789)"><path transform="matrix(0.017,0,0,-0.017,0,0)" d="M124 111C94 111 67 83 67 53C67 23 94 -5 123 -5C155 -5 183 22 183 53C183 83 155 111 124 111Z" stroke="rgb(0,0,0)" stroke-opacity="1" stroke-width="8" fill="rgb(0,0,0)" fill-opacity="1"></path></g></g><g><g transform="matrix(1,0,0,1,100.44499206542969,79.9000015258789)"><path transform="matrix(0.017,0,0,-0.017,0,0)" d="M328 111L304 94C251 56 203 36 167 36C120 36 91 73 91 133C91 158 94 185 99 214C116 218 225 248 250 259C335 296 374 342 374 404C374 451 340 482 290 482C222 496 112 423 75 349C45 299 15 180 15 113C15 35 59 -11 131 -11C188 -11 244 17 336 92ZM113 274C130 343 150 386 179 412C197 428 228 440 252 440C281 440 300 420 300 388C300 344 265 297 213 272C185 258 149 247 104 237ZM419 148C414 97 408 62 397 16C435 -2 469 -11 504 -11C553 -11 599 7 650 47C701 87 722 124 722 174C722 228 690 257 616 271L573 279C513 290 494 307 494 348C494 401 539 442 596 442C637 442 675 424 691 397L691 342L714 342C718 377 722 404 733 455C694 474 666 482 633 482C581 482 520 452 472 404C446 377 435 352 435 316C435 260 466 228 532 215L595 203C639 195 655 177 655 138C655 73 609 29 538 29C503 29 472 40 444 64L444 148ZM901 390L845 107C844 99 832 61 832 31C832 6 843 -9 862 -9C897 -9 932 11 1010 74L1041 99L1031 117L986 86C957 66 937 56 926 56C917 56 912 64 912 76C912 102 926 183 955 328L968 390L1075 390L1086 440C1048 436 1014 434 976 434C992 528 1003 577 1021 631L1010 646C990 634 963 622 932 610L907 440C863 419 837 408 819 403L817 390ZM1379 204L1350 77C1346 60 1344 42 1344 26C1344 4 1353 -9 1368 -9C1391 -9 1432 17 1514 85L1507 106C1483 86 1454 59 1432 59C1423 59 1417 68 1417 82C1417 87 1417 90 1418 93L1510 472L1500 481L1467 463C1426 478 1409 482 1382 482C1354 482 1334 477 1307 464C1245 433 1212 403 1187 354C1143 265 1112 145 1112 67C1112 23 1127 -11 1146 -11C1183 -11 1263 41 1379 204ZM1427 414C1405 305 1386 253 1352 201C1295 117 1234 59 1202 59C1190 59 1184 72 1184 99C1184 163 1212 280 1247 360C1271 415 1294 433 1342 433C1365 433 1383 429 1427 414ZM1676 390L1620 107C1619 99 1607 61 1607 31C1607 6 1618 -9 1637 -9C1672 -9 1707 11 1785 74L1816 99L1806 117L1761 86C1732 66 1712 56 1701 56C1692 56 1687 64 1687 76C1687 102 1701 183 1730 328L1743 390L1850 390L1861 440C1823 436 1789 434 1751 434C1767 528 1778 577 1796 631L1785 646C1765 634 1738 622 1707 610L1682 440C1638 419 1612 408 1594 403L1592 390ZM1917 388L1924 368L1956 389C1993 412 1996 414 2003 414C2013 414 2021 404 2021 391C2021 384 2017 361 2013 347L1947 107C1939 76 1934 49 1934 30C1934 6 1945 -9 1964 -9C1990 -9 2026 12 2124 85L2114 103L2088 86C2059 67 2036 56 2027 56C2020 56 2014 66 2014 76C2014 86 2016 95 2021 116L2098 420C2102 437 2104 448 2104 456C2104 473 2095 482 2079 482C2057 482 2020 461 1945 408ZM2111 712C2082 712 2053 679 2053 645C2053 620 2068 604 2092 604C2123 604 2147 633 2147 671C2147 695 2132 712 2111 712ZM2502 330L2525 330C2533 395 2540 432 2549 458C2525 473 2490 482 2453 482C2408 483 2335 463 2278 400C2224 352 2185 241 2185 136C2185 40 2227 -11 2307 -11C2361 -11 2409 9 2464 54L2514 95L2506 115L2491 105C2419 57 2381 40 2346 40C2290 40 2261 80 2261 159C2261 267 2296 371 2345 409C2366 425 2390 433 2421 433C2466 433 2502 414 2502 390ZM2837 204L2808 77C2804 60 2802 42 2802 26C2802 4 2811 -9 2826 -9C2849 -9 2890 17 2972 85L2965 106C2941 86 2912 59 2890 59C2881 59 2875 68 2875 82C2875 87 2875 90 2876 93L2968 472L2958 481L2925 463C2884 478 2867 482 2840 482C2812 482 2792 477 2765 464C2703 433 2670 403 2645 354C2601 265 2570 145 2570 67C2570 23 2585 -11 2604 -11C2641 -11 2721 41 2837 204ZM2885 414C2863 305 2844 253 2810 201C2753 117 2692 59 2660 59C2648 59 2642 72 2642 99C2642 163 2670 280 2705 360C2729 415 2752 433 2800 433C2823 433 2841 429 2885 414Z" stroke="rgb(0,0,0)" stroke-opacity="1" stroke-width="8" fill="rgb(0,0,0)" fill-opacity="1"></path></g></g></g></g></svg>