<svg xmlns="http://www.w3.org/2000/svg" xmlns:xlink="http://www.w3.org/1999/xlink" width="97.57000732421875" height="84.63999938964844" style="width:97.57000732421875px;height:84.63999938964844px;font-family:Asana-Math, Asana;background:#FFF;"><g><g><g><g transform="matrix(1,0,0,1,2,18.040000915527344)"><path transform="matrix(0.017,0,0,-0.017,0,0)" d="M1033 646L1139 650C1201 650 1241 641 1242 626L1250 537L1274 537C1277 600 1284 651 1295 689C1273 691 1245 692 1228 692L1187 691L1022 689L993 689C968 689 928 690 890 691L841 692L838 664L894 662C918 661 929 652 929 635C929 621 925 589 920 559L845 125C828 33 828 32 787 28L751 25L747 -3L781 -2C821 -1 853 0 874 0C892 0 921 -1 960 -2L1012 -3L1015 25L951 28C924 29 915 37 915 57C915 63 916 74 917 78L953 301L1070 301C1097 301 1128 300 1176 298L1202 297L1221 342L1217 349C1136 345 1076 343 998 343L961 343L1007 614C1010 630 1011 635 1016 646Z" stroke="rgb(0,0,0)" stroke-opacity="1" stroke-width="8" fill="rgb(0,0,0)" fill-opacity="1"></path></g></g><g><g transform="matrix(1,0,0,1,29.224990844726562,18.040000915527344)"><path transform="matrix(0.017,0,0,-0.017,0,0)" d="M604 347L604 406L65 406L65 347ZM604 134L604 193L65 193L65 134Z" stroke="rgb(0,0,0)" stroke-opacity="1" stroke-width="8" fill="rgb(0,0,0)" fill-opacity="1"></path></g></g><g><g transform="matrix(1,0,0,1,45.67999267578125,18.040000915527344)"><path transform="matrix(0.017,0,0,-0.017,0,0)" d="M730 103L704 86C675 67 653 56 643 56C636 56 630 65 630 76C630 86 632 95 637 116L712 413C716 430 719 446 719 454C719 471 709 482 693 482C664 482 626 464 565 421C502 376 467 341 418 272L448 409C452 429 455 444 455 451C455 470 445 482 429 482C399 482 353 460 298 418C254 384 234 363 169 275L202 408C206 424 208 439 208 451C208 470 199 482 185 482C164 482 126 461 52 408L24 388L31 368C68 391 103 414 110 414C121 414 128 404 128 389C128 338 87 145 46 2L49 -9L117 6L139 108C163 219 190 278 245 338C287 384 332 414 360 414C367 414 371 406 371 393C371 358 349 244 308 69L292 2L297 -9L366 6L387 113C403 194 437 269 481 318C536 379 586 414 618 414C626 414 631 405 631 389C631 365 628 351 606 264C566 105 550 84 550 31C550 6 561 -9 580 -9C606 -9 642 12 740 85ZM1048 204L1019 77C1015 60 1013 42 1013 26C1013 4 1022 -9 1037 -9C1060 -9 1101 17 1183 85L1176 106C1152 86 1123 59 1101 59C1092 59 1086 68 1086 82C1086 87 1086 90 1087 93L1179 472L1169 481L1136 463C1095 478 1078 482 1051 482C1023 482 1003 477 976 464C914 433 881 403 856 354C812 265 781 145 781 67C781 23 796 -11 815 -11C852 -11 932 41 1048 204ZM1096 414C1074 305 1055 253 1021 201C964 117 903 59 871 59C859 59 853 72 853 99C853 163 881 280 916 360C940 415 963 433 1011 433C1034 433 1052 429 1096 414Z" stroke="rgb(0,0,0)" stroke-opacity="1" stroke-width="8" fill="rgb(0,0,0)" fill-opacity="1"></path></g></g></g><g></g><g><g><g transform="matrix(1,0,0,1,2,58.360008239746094)"><path transform="matrix(0.017,0,0,-0.017,0,0)" d="M730 103L704 86C675 67 653 56 643 56C636 56 630 65 630 76C630 86 632 95 637 116L712 413C716 430 719 446 719 454C719 471 709 482 693 482C664 482 626 464 565 421C502 376 467 341 418 272L448 409C452 429 455 444 455 451C455 470 445 482 429 482C399 482 353 460 298 418C254 384 234 363 169 275L202 408C206 424 208 439 208 451C208 470 199 482 185 482C164 482 126 461 52 408L24 388L31 368C68 391 103 414 110 414C121 414 128 404 128 389C128 338 87 145 46 2L49 -9L117 6L139 108C163 219 190 278 245 338C287 384 332 414 360 414C367 414 371 406 371 393C371 358 349 244 308 69L292 2L297 -9L366 6L387 113C403 194 437 269 481 318C536 379 586 414 618 414C626 414 631 405 631 389C631 365 628 351 606 264C566 105 550 84 550 31C550 6 561 -9 580 -9C606 -9 642 12 740 85Z" stroke="rgb(0,0,0)" stroke-opacity="1" stroke-width="8" fill="rgb(0,0,0)" fill-opacity="1"></path></g></g><g><g transform="matrix(1,0,0,1,18.604995727539062,58.360008239746094)"><path transform="matrix(0.017,0,0,-0.017,0,0)" d="M123 111C93 111 66 83 66 53C66 23 93 -5 122 -5C154 -5 182 22 182 53C182 83 154 111 123 111ZM123 456C93 456 66 428 66 398C66 368 93 340 122 340C154 340 182 367 182 397C182 428 154 456 123 456Z" stroke="rgb(0,0,0)" stroke-opacity="1" stroke-width="8" fill="rgb(0,0,0)" fill-opacity="1"></path></g></g><g><g transform="matrix(1,0,0,1,26.240005493164062,58.360008239746094)"><path transform="matrix(0.017,0,0,-0.017,0,0)" d="M730 103L704 86C675 67 653 56 643 56C636 56 630 65 630 76C630 86 632 95 637 116L712 413C716 430 719 446 719 454C719 471 709 482 693 482C664 482 626 464 565 421C502 376 467 341 418 272L448 409C452 429 455 444 455 451C455 470 445 482 429 482C399 482 353 460 298 418C254 384 234 363 169 275L202 408C206 424 208 439 208 451C208 470 199 482 185 482C164 482 126 461 52 408L24 388L31 368C68 391 103 414 110 414C121 414 128 404 128 389C128 338 87 145 46 2L49 -9L117 6L139 108C163 219 190 278 245 338C287 384 332 414 360 414C367 414 371 406 371 393C371 358 349 244 308 69L292 2L297 -9L366 6L387 113C403 194 437 269 481 318C536 379 586 414 618 414C626 414 631 405 631 389C631 365 628 351 606 264C566 105 550 84 550 31C550 6 561 -9 580 -9C606 -9 642 12 740 85ZM1048 204L1019 77C1015 60 1013 42 1013 26C1013 4 1022 -9 1037 -9C1060 -9 1101 17 1183 85L1176 106C1152 86 1123 59 1101 59C1092 59 1086 68 1086 82C1086 87 1086 90 1087 93L1179 472L1169 481L1136 463C1095 478 1078 482 1051 482C1023 482 1003 477 976 464C914 433 881 403 856 354C812 265 781 145 781 67C781 23 796 -11 815 -11C852 -11 932 41 1048 204ZM1096 414C1074 305 1055 253 1021 201C964 117 903 59 871 59C859 59 853 72 853 99C853 163 881 280 916 360C940 415 963 433 1011 433C1034 433 1052 429 1096 414ZM1251 148C1246 97 1240 62 1229 16C1267 -2 1301 -11 1336 -11C1385 -11 1431 7 1482 47C1533 87 1554 124 1554 174C1554 228 1522 257 1448 271L1405 279C1345 290 1326 307 1326 348C1326 401 1371 442 1428 442C1469 442 1507 424 1523 397L1523 342L1546 342C1550 377 1554 404 1565 455C1526 474 1498 482 1465 482C1413 482 1352 452 1304 404C1278 377 1267 352 1267 316C1267 260 1298 228 1364 215L1427 203C1471 195 1487 177 1487 138C1487 73 1441 29 1370 29C1335 29 1304 40 1276 64L1276 148ZM1879 204L1850 77C1846 60 1844 42 1844 26C1844 4 1853 -9 1868 -9C1891 -9 1932 17 2014 85L2007 106C1983 86 1954 59 1932 59C1923 59 1917 68 1917 82C1917 87 1917 90 1918 93L2010 472L2000 481L1967 463C1926 478 1909 482 1882 482C1854 482 1834 477 1807 464C1745 433 1712 403 1687 354C1643 265 1612 145 1612 67C1612 23 1627 -11 1646 -11C1683 -11 1763 41 1879 204ZM1927 414C1905 305 1886 253 1852 201C1795 117 1734 59 1702 59C1690 59 1684 72 1684 99C1684 163 1712 280 1747 360C1771 415 1794 433 1842 433C1865 433 1883 429 1927 414Z" stroke="rgb(0,0,0)" stroke-opacity="1" stroke-width="8" fill="rgb(0,0,0)" fill-opacity="1"></path></g></g></g><g><g><g transform="matrix(1,0,0,1,2,78.52001190185547)"><path transform="matrix(0.017,0,0,-0.017,0,0)" d="M271 204L242 77C238 60 236 42 236 26C236 4 245 -9 260 -9C283 -9 324 17 406 85L399 106C375 86 346 59 324 59C315 59 309 68 309 82C309 87 309 90 310 93L402 472L392 481L359 463C318 478 301 482 274 482C246 482 226 477 199 464C137 433 104 403 79 354C35 265 4 145 4 67C4 23 19 -11 38 -11C75 -11 155 41 271 204ZM319 414C297 305 278 253 244 201C187 117 126 59 94 59C82 59 76 72 76 99C76 163 104 280 139 360C163 415 186 433 234 433C257 433 275 429 319 414Z" stroke="rgb(0,0,0)" stroke-opacity="1" stroke-width="8" fill="rgb(0,0,0)" fill-opacity="1"></path></g></g><g><g transform="matrix(1,0,0,1,12.919998168945312,78.52001190185547)"><path transform="matrix(0.017,0,0,-0.017,0,0)" d="M123 111C93 111 66 83 66 53C66 23 93 -5 122 -5C154 -5 182 22 182 53C182 83 154 111 123 111ZM123 456C93 456 66 428 66 398C66 368 93 340 122 340C154 340 182 367 182 397C182 428 154 456 123 456Z" stroke="rgb(0,0,0)" stroke-opacity="1" stroke-width="8" fill="rgb(0,0,0)" fill-opacity="1"></path></g></g><g><g transform="matrix(1,0,0,1,20.55499267578125,78.52001190185547)"><path transform="matrix(0.017,0,0,-0.017,0,0)" d="M271 204L242 77C238 60 236 42 236 26C236 4 245 -9 260 -9C283 -9 324 17 406 85L399 106C375 86 346 59 324 59C315 59 309 68 309 82C309 87 309 90 310 93L402 472L392 481L359 463C318 478 301 482 274 482C246 482 226 477 199 464C137 433 104 403 79 354C35 265 4 145 4 67C4 23 19 -11 38 -11C75 -11 155 41 271 204ZM319 414C297 305 278 253 244 201C187 117 126 59 94 59C82 59 76 72 76 99C76 163 104 280 139 360C163 415 186 433 234 433C257 433 275 429 319 414ZM785 330L808 330C816 395 823 432 832 458C808 473 773 482 736 482C691 483 618 463 561 400C507 352 468 241 468 136C468 40 510 -11 590 -11C644 -11 692 9 747 54L797 95L789 115L774 105C702 57 664 40 629 40C573 40 544 80 544 159C544 267 579 371 628 409C649 425 673 433 704 433C749 433 785 414 785 390ZM1177 111L1153 94C1100 56 1052 36 1016 36C969 36 940 73 940 133C940 158 943 185 948 214C965 218 1074 248 1099 259C1184 296 1223 342 1223 404C1223 451 1189 482 1139 482C1071 496 961 423 924 349C894 299 864 180 864 113C864 35 908 -11 980 -11C1037 -11 1093 17 1185 92ZM962 274C979 343 999 386 1028 412C1046 428 1077 440 1101 440C1130 440 1149 420 1149 388C1149 344 1114 297 1062 272C1034 258 998 247 953 237ZM1488 722L1476 733C1424 707 1388 698 1316 691L1312 670L1360 670C1384 670 1394 663 1394 648C1394 645 1394 640 1391 622C1380 567 1307 182 1292 132C1279 82 1273 52 1273 31C1273 6 1284 -9 1303 -9C1329 -9 1365 12 1463 85L1453 103L1427 86C1398 67 1376 56 1366 56C1359 56 1353 66 1353 76C1353 82 1354 89 1357 104ZM1842 111L1818 94C1765 56 1717 36 1681 36C1634 36 1605 73 1605 133C1605 158 1608 185 1613 214C1630 218 1739 248 1764 259C1849 296 1888 342 1888 404C1888 451 1854 482 1804 482C1736 496 1626 423 1589 349C1559 299 1529 180 1529 113C1529 35 1573 -11 1645 -11C1702 -11 1758 17 1850 92ZM1627 274C1644 343 1664 386 1693 412C1711 428 1742 440 1766 440C1795 440 1814 420 1814 388C1814 344 1779 297 1727 272C1699 258 1663 247 1618 237ZM2270 365C2273 403 2278 435 2286 476C2275 481 2271 482 2266 482C2235 482 2204 458 2168 407C2129 351 2090 291 2074 256L2106 408C2110 425 2112 438 2112 450C2112 470 2104 482 2089 482C2068 482 2030 461 1956 408L1928 388L1935 368L1967 389C1995 407 2006 412 2015 412C2025 412 2032 403 2032 390C2032 332 1989 126 1949 -2L1959 -9C1974 -4 1990 -1 2013 4L2026 6L2052 126C2070 209 2093 262 2137 319C2171 363 2198 384 2220 384C2235 384 2245 379 2256 365ZM2561 204L2532 77C2528 60 2526 42 2526 26C2526 4 2535 -9 2550 -9C2573 -9 2614 17 2696 85L2689 106C2665 86 2636 59 2614 59C2605 59 2599 68 2599 82C2599 87 2599 90 2600 93L2692 472L2682 481L2649 463C2608 478 2591 482 2564 482C2536 482 2516 477 2489 464C2427 433 2394 403 2369 354C2325 265 2294 145 2294 67C2294 23 2309 -11 2328 -11C2365 -11 2445 41 2561 204ZM2609 414C2587 305 2568 253 2534 201C2477 117 2416 59 2384 59C2372 59 2366 72 2366 99C2366 163 2394 280 2429 360C2453 415 2476 433 2524 433C2547 433 2565 429 2609 414ZM3075 330L3098 330C3106 395 3113 432 3122 458C3098 473 3063 482 3026 482C2981 483 2908 463 2851 400C2797 352 2758 241 2758 136C2758 40 2800 -11 2880 -11C2934 -11 2982 9 3037 54L3087 95L3079 115L3064 105C2992 57 2954 40 2919 40C2863 40 2834 80 2834 159C2834 267 2869 371 2918 409C2939 425 2963 433 2994 433C3039 433 3075 414 3075 390ZM3173 388L3180 368L3212 389C3249 412 3252 414 3259 414C3269 414 3277 404 3277 391C3277 384 3273 361 3269 347L3203 107C3195 76 3190 49 3190 30C3190 6 3201 -9 3220 -9C3246 -9 3282 12 3380 85L3370 103L3344 86C3315 67 3292 56 3283 56C3276 56 3270 66 3270 76C3270 86 3272 95 3277 116L3354 420C3358 437 3360 448 3360 456C3360 473 3351 482 3335 482C3313 482 3276 461 3201 408ZM3367 712C3338 712 3309 679 3309 645C3309 620 3324 604 3348 604C3379 604 3403 633 3403 671C3403 695 3388 712 3367 712ZM3433 152C3433 46 3478 -11 3561 -11C3616 -11 3676 15 3721 57C3783 116 3827 230 3827 331C3827 425 3777 482 3694 482C3590 482 3433 382 3433 152ZM3657 444C3718 444 3751 399 3751 315C3751 219 3720 113 3676 60C3658 39 3632 27 3601 27C3543 27 3509 72 3509 151C3509 264 3548 387 3597 427C3610 438 3633 444 3657 444ZM3883 388L3890 368L3922 389C3959 412 3962 414 3969 414C3980 414 3987 404 3987 389C3987 338 3946 145 3905 2L3912 -9C3937 -2 3960 4 3982 8C4001 134 4022 199 4068 268C4122 352 4197 414 4242 414C4253 414 4259 405 4259 390C4259 372 4256 351 4248 319L4196 107C4187 70 4183 47 4183 31C4183 6 4194 -9 4213 -9C4239 -9 4275 12 4373 85L4363 103L4337 86C4308 67 4286 56 4276 56C4269 56 4263 65 4263 76C4263 81 4264 92 4265 96L4331 372C4338 401 4342 429 4342 446C4342 469 4331 482 4311 482C4269 482 4200 444 4141 389C4103 354 4075 320 4023 247L4061 408C4065 426 4067 438 4067 449C4067 470 4059 482 4044 482C4023 482 3984 460 3911 408Z" stroke="rgb(0,0,0)" stroke-opacity="1" stroke-width="8" fill="rgb(0,0,0)" fill-opacity="1"></path></g></g></g></g></svg>