<svg xmlns="http://www.w3.org/2000/svg" xmlns:xlink="http://www.w3.org/1999/xlink" width="112.34500122070312" height="47.08000183105469" style="width:112.34500122070312px;height:47.08000183105469px;font-family:Asana-Math, Asana;background:#FFF;"><g><g><g><g transform="matrix(1,0,0,1,2,18.040000915527344)"><path transform="matrix(0.017,0,0,-0.017,0,0)" d="M522 388L529 368L561 389C598 412 601 414 608 414C619 414 626 404 626 389C626 338 585 145 544 2L551 -9C576 -2 599 4 621 8C640 134 661 199 707 268C761 352 836 414 881 414C892 414 898 405 898 390C898 372 895 351 887 319L835 107C826 70 822 47 822 31C822 6 833 -9 852 -9C878 -9 914 12 1012 85L1002 103L976 86C947 67 925 56 915 56C908 56 902 65 902 76C902 81 903 92 904 96L970 372C977 401 981 429 981 446C981 469 970 482 950 482C908 482 839 444 780 389C742 354 714 320 662 247L700 408C704 426 706 438 706 449C706 470 698 482 683 482C662 482 623 460 550 408Z" stroke="rgb(0,0,0)" stroke-opacity="1" stroke-width="8" fill="rgb(0,0,0)" fill-opacity="1"></path></g></g><g><g><g><g><g transform="matrix(1,0,0,1,20.404998779296875,21.999998474121092)"><path transform="matrix(0.0119,0,0,-0.0119,0,0)" d="M31 148C26 97 20 62 9 16C47 -2 81 -11 116 -11C165 -11 211 7 262 47C313 87 334 124 334 174C334 228 302 257 228 271L185 279C125 290 106 307 106 348C106 401 151 442 208 442C249 442 287 424 303 397L303 342L326 342C330 377 334 404 345 455C306 474 278 482 245 482C193 482 132 452 84 404C58 377 47 352 47 316C47 260 78 228 144 215L207 203C251 195 267 177 267 138C267 73 221 29 150 29C115 29 84 40 56 64L56 148ZM513 390L457 107C456 99 444 61 444 31C444 6 455 -9 474 -9C509 -9 544 11 622 74L653 99L643 117L598 86C569 66 549 56 538 56C529 56 524 64 524 76C524 102 538 183 567 328L580 390L687 390L698 440C660 436 626 434 588 434C604 528 615 577 633 631L622 646C602 634 575 622 544 610L519 440C475 419 449 408 431 403L429 390ZM737 152C737 46 782 -11 865 -11C920 -11 980 15 1025 57C1087 116 1131 230 1131 331C1131 425 1081 482 998 482C894 482 737 382 737 152ZM961 444C1022 444 1055 399 1055 315C1055 219 1024 113 980 60C962 39 936 27 905 27C847 27 813 72 813 151C813 264 852 387 901 427C914 438 937 444 961 444ZM1830 -3L1830 27L1778 30C1723 33 1713 44 1713 96L1713 700L1472 598L1479 548L1629 614L1629 96C1629 44 1618 33 1564 30L1508 27L1508 -3C1662 0 1662 0 1673 0C1704 0 1814 -3 1830 -3Z" stroke="rgb(0,0,0)" stroke-opacity="1" stroke-width="8" fill="rgb(0,0,0)" fill-opacity="1"></path></g></g></g></g></g><g><g transform="matrix(1,0,0,1,49.26499938964844,18.040000915527344)"><path transform="matrix(0.017,0,0,-0.017,0,0)" d="M604 347L604 406L65 406L65 347ZM604 134L604 193L65 193L65 134Z" stroke="rgb(0,0,0)" stroke-opacity="1" stroke-width="8" fill="rgb(0,0,0)" fill-opacity="1"></path></g></g><g><g transform="matrix(1,0,0,1,65.72000122070312,18.040000915527344)"><path transform="matrix(0.017,0,0,-0.017,0,0)" d="M24 388L31 368L63 389C100 412 103 414 110 414C121 414 128 404 128 389C128 338 87 145 46 2L53 -9C78 -2 101 4 123 8C142 134 163 199 209 268C263 352 338 414 383 414C394 414 400 405 400 390C400 372 397 351 389 319L337 107C328 70 324 47 324 31C324 6 335 -9 354 -9C380 -9 416 12 514 85L504 103L478 86C449 67 427 56 417 56C410 56 404 65 404 76C404 81 405 92 406 96L472 372C479 401 483 429 483 446C483 469 472 482 452 482C410 482 341 444 282 389C244 354 216 320 164 247L202 408C206 426 208 438 208 449C208 470 200 482 185 482C164 482 125 460 52 408Z" stroke="rgb(0,0,0)" stroke-opacity="1" stroke-width="8" fill="rgb(0,0,0)" fill-opacity="1"></path></g></g><g><g><g><g><g transform="matrix(1,0,0,1,75.66500854492188,21.999998474121092)"><path transform="matrix(0.0119,0,0,-0.0119,0,0)" d="M31 148C26 97 20 62 9 16C47 -2 81 -11 116 -11C165 -11 211 7 262 47C313 87 334 124 334 174C334 228 302 257 228 271L185 279C125 290 106 307 106 348C106 401 151 442 208 442C249 442 287 424 303 397L303 342L326 342C330 377 334 404 345 455C306 474 278 482 245 482C193 482 132 452 84 404C58 377 47 352 47 316C47 260 78 228 144 215L207 203C251 195 267 177 267 138C267 73 221 29 150 29C115 29 84 40 56 64L56 148ZM513 390L457 107C456 99 444 61 444 31C444 6 455 -9 474 -9C509 -9 544 11 622 74L653 99L643 117L598 86C569 66 549 56 538 56C529 56 524 64 524 76C524 102 538 183 567 328L580 390L687 390L698 440C660 436 626 434 588 434C604 528 615 577 633 631L622 646C602 634 575 622 544 610L519 440C475 419 449 408 431 403L429 390ZM737 152C737 46 782 -11 865 -11C920 -11 980 15 1025 57C1087 116 1131 230 1131 331C1131 425 1081 482 998 482C894 482 737 382 737 152ZM961 444C1022 444 1055 399 1055 315C1055 219 1024 113 980 60C962 39 936 27 905 27C847 27 813 72 813 151C813 264 852 387 901 427C914 438 937 444 961 444ZM1428 23L1428 -3C1615 -3 1615 0 1651 0C1687 0 1687 -3 1880 -3L1880 82C1765 77 1719 81 1534 77L1716 270C1813 373 1843 428 1843 503C1843 618 1765 689 1638 689C1566 689 1517 669 1468 619L1451 483L1480 483L1493 529C1509 587 1545 612 1612 612C1698 612 1753 558 1753 473C1753 398 1711 324 1598 204Z" stroke="rgb(0,0,0)" stroke-opacity="1" stroke-width="8" fill="rgb(0,0,0)" fill-opacity="1"></path></g></g></g></g></g></g><g><g><g transform="matrix(1,0,0,1,2,39.58000183105469)"><path transform="matrix(0.017,0,0,-0.017,0,0)" d="M937 664L950 695C922 699 775 701 773 692L688 536L442 114L292 692C269 686 146 690 125 692L122 664L148 662C200 658 218 648 218 622C218 616 72 100 70 93C54 41 39 28 -16 23L-19 -3L20 -2C54 -1 79 0 93 0C107 0 133 -1 168 -2L203 -3L206 25L168 28C136 30 119 40 119 55C119 65 121 78 126 96L250 560L399 -18L422 -18L479 86L718 500L770 587L733 67C729 39 717 32 666 28L635 25L632 -3L679 -2C721 -1 751 0 766 0C782 0 812 -1 853 -2L899 -3L902 25L865 28C829 31 811 42 811 63L812 100L853 631C855 650 870 660 899 662Z" stroke="rgb(0,0,0)" stroke-opacity="1" stroke-width="8" fill="rgb(0,0,0)" fill-opacity="1"></path></g></g><g><g><g><g><g transform="matrix(1,0,0,1,18.710006713867188,43.539999389648436)"><path transform="matrix(0.0119,0,0,-0.0119,0,0)" d="M418 -3L418 27L366 30C311 33 301 44 301 96L301 700L60 598L67 548L217 614L217 96C217 44 206 33 152 30L96 27L96 -3C250 0 250 0 261 0C292 0 402 -3 418 -3Z" stroke="rgb(0,0,0)" stroke-opacity="1" stroke-width="8" fill="rgb(0,0,0)" fill-opacity="1"></path></g></g></g></g></g><g><g transform="matrix(1,0,0,1,25.669998168945312,39.58000183105469)"><path transform="matrix(0.017,0,0,-0.017,0,0)" d="M310 96L239 624C237 646 241 661 281 662L323 664L323 692L282 691C245 690 217 689 199 689C181 689 153 690 116 691L75 692L75 664L100 662C144 659 152 651 159 614L247 -8L296 -8L674 611C699 651 707 658 736 662L754 664L754 692L724 691C697 690 674 689 658 689C648 689 621 690 580 691L534 692L534 664L560 662C598 659 617 649 617 630C617 619 613 608 601 588Z" stroke="rgb(0,0,0)" stroke-opacity="1" stroke-width="8" fill="rgb(0,0,0)" fill-opacity="1"></path></g></g><g><g><g><g><g transform="matrix(1,0,0,1,38.43499755859375,43.539999389648436)"><path transform="matrix(0.0119,0,0,-0.0119,0,0)" d="M418 -3L418 27L366 30C311 33 301 44 301 96L301 700L60 598L67 548L217 614L217 96C217 44 206 33 152 30L96 27L96 -3C250 0 250 0 261 0C292 0 402 -3 418 -3Z" stroke="rgb(0,0,0)" stroke-opacity="1" stroke-width="8" fill="rgb(0,0,0)" fill-opacity="1"></path></g></g></g></g></g><g><g transform="matrix(1,0,0,1,50.4949951171875,39.58000183105469)"><path transform="matrix(0.017,0,0,-0.017,0,0)" d="M604 347L604 406L65 406L65 347ZM604 134L604 193L65 193L65 134Z" stroke="rgb(0,0,0)" stroke-opacity="1" stroke-width="8" fill="rgb(0,0,0)" fill-opacity="1"></path></g></g><g><g transform="matrix(1,0,0,1,66.94999694824219,39.58000183105469)"><path transform="matrix(0.017,0,0,-0.017,0,0)" d="M937 664L950 695C922 699 775 701 773 692L688 536L442 114L292 692C269 686 146 690 125 692L122 664L148 662C200 658 218 648 218 622C218 616 72 100 70 93C54 41 39 28 -16 23L-19 -3L20 -2C54 -1 79 0 93 0C107 0 133 -1 168 -2L203 -3L206 25L168 28C136 30 119 40 119 55C119 65 121 78 126 96L250 560L399 -18L422 -18L479 86L718 500L770 587L733 67C729 39 717 32 666 28L635 25L632 -3L679 -2C721 -1 751 0 766 0C782 0 812 -1 853 -2L899 -3L902 25L865 28C829 31 811 42 811 63L812 100L853 631C855 650 870 660 899 662Z" stroke="rgb(0,0,0)" stroke-opacity="1" stroke-width="8" fill="rgb(0,0,0)" fill-opacity="1"></path></g></g><g><g><g><g><g transform="matrix(1,0,0,1,83.66000366210938,43.539999389648436)"><path transform="matrix(0.0119,0,0,-0.0119,0,0)" d="M16 23L16 -3C203 -3 203 0 239 0C275 0 275 -3 468 -3L468 82C353 77 307 81 122 77L304 270C401 373 431 428 431 503C431 618 353 689 226 689C154 689 105 669 56 619L39 483L68 483L81 529C97 587 133 612 200 612C286 612 341 558 341 473C341 398 299 324 186 204Z" stroke="rgb(0,0,0)" stroke-opacity="1" stroke-width="8" fill="rgb(0,0,0)" fill-opacity="1"></path></g></g></g></g></g><g><g transform="matrix(1,0,0,1,90.6199951171875,39.58000183105469)"><path transform="matrix(0.017,0,0,-0.017,0,0)" d="M310 96L239 624C237 646 241 661 281 662L323 664L323 692L282 691C245 690 217 689 199 689C181 689 153 690 116 691L75 692L75 664L100 662C144 659 152 651 159 614L247 -8L296 -8L674 611C699 651 707 658 736 662L754 664L754 692L724 691C697 690 674 689 658 689C648 689 621 690 580 691L534 692L534 664L560 662C598 659 617 649 617 630C617 619 613 608 601 588Z" stroke="rgb(0,0,0)" stroke-opacity="1" stroke-width="8" fill="rgb(0,0,0)" fill-opacity="1"></path></g></g><g><g><g><g><g transform="matrix(1,0,0,1,103.385009765625,43.539999389648436)"><path transform="matrix(0.0119,0,0,-0.0119,0,0)" d="M16 23L16 -3C203 -3 203 0 239 0C275 0 275 -3 468 -3L468 82C353 77 307 81 122 77L304 270C401 373 431 428 431 503C431 618 353 689 226 689C154 689 105 669 56 619L39 483L68 483L81 529C97 587 133 612 200 612C286 612 341 558 341 473C341 398 299 324 186 204Z" stroke="rgb(0,0,0)" stroke-opacity="1" stroke-width="8" fill="rgb(0,0,0)" fill-opacity="1"></path></g></g></g></g></g></g></g></svg>