<svg xmlns="http://www.w3.org/2000/svg" xmlns:xlink="http://www.w3.org/1999/xlink" width="90.97000122070312" height="88.99000549316406" style="width:90.97000122070312px;height:88.99000549316406px;font-family:Asana-Math, Asana;background:#FFF;"><g><g><g><g transform="matrix(1,0,0,1,2,30.205001831054688)"><path transform="matrix(0.017,0,0,-0.017,0,0)" d="M416 25L416 -3C464 -1 509 0 551 0C591 0 636 -1 684 -3L684 25L659 27C618 30 605 37 591 61L420 368L641 620C671 653 680 659 706 662L734 664L734 692L620 689C608 689 594 689 505 692L505 664L538 662C570 660 583 655 583 643C583 632 578 623 560 601L399 405L295 604C286 622 281 634 281 642C281 654 294 660 324 662L361 664L361 692L315 691C274 690 244 689 228 689C211 689 181 690 140 691L95 692L95 664L121 662C170 657 182 650 202 613L348 343L110 61C95 43 72 31 48 28L20 25L20 -3C69 -1 110 0 145 0C181 0 221 -1 264 -3L264 25L232 28C194 32 177 38 177 50C177 58 181 67 187 75L369 306L488 80C497 62 502 49 502 40C502 32 495 29 470 29L454 28Z" stroke="rgb(0,0,0)" stroke-opacity="1" stroke-width="8" fill="rgb(0,0,0)" fill-opacity="1"></path></g></g><g><g><g><g><g transform="matrix(1,0,0,1,14.764999389648438,34.164999389648436)"><path transform="matrix(0.0119,0,0,-0.0119,0,0)" d="M31 148C26 97 20 62 9 16C47 -2 81 -11 116 -11C165 -11 211 7 262 47C313 87 334 124 334 174C334 228 302 257 228 271L185 279C125 290 106 307 106 348C106 401 151 442 208 442C249 442 287 424 303 397L303 342L326 342C330 377 334 404 345 455C306 474 278 482 245 482C193 482 132 452 84 404C58 377 47 352 47 316C47 260 78 228 144 215L207 203C251 195 267 177 267 138C267 73 221 29 150 29C115 29 84 40 56 64L56 148ZM513 390L457 107C456 99 444 61 444 31C444 6 455 -9 474 -9C509 -9 544 11 622 74L653 99L643 117L598 86C569 66 549 56 538 56C529 56 524 64 524 76C524 102 538 183 567 328L580 390L687 390L698 440C660 436 626 434 588 434C604 528 615 577 633 631L622 646C602 634 575 622 544 610L519 440C475 419 449 408 431 403L429 390ZM737 152C737 46 782 -11 865 -11C920 -11 980 15 1025 57C1087 116 1131 230 1131 331C1131 425 1081 482 998 482C894 482 737 382 737 152ZM961 444C1022 444 1055 399 1055 315C1055 219 1024 113 980 60C962 39 936 27 905 27C847 27 813 72 813 151C813 264 852 387 901 427C914 438 937 444 961 444Z" stroke="rgb(0,0,0)" stroke-opacity="1" stroke-width="8" fill="rgb(0,0,0)" fill-opacity="1"></path></g></g></g></g></g><g><g transform="matrix(1,0,0,1,34.72999572753906,30.205001831054688)"><path transform="matrix(0.017,0,0,-0.017,0,0)" d="M604 347L604 406L65 406L65 347ZM604 134L604 193L65 193L65 134Z" stroke="rgb(0,0,0)" stroke-opacity="1" stroke-width="8" fill="rgb(0,0,0)" fill-opacity="1"></path></g></g><g><g><g><g><g transform="matrix(1,0,0,1,53.36000061035156,18.040000915527344)"><path transform="matrix(0.017,0,0,-0.017,0,0)" d="M24 388L31 368L63 389C100 412 103 414 110 414C121 414 128 404 128 389C128 338 87 145 46 2L53 -9C78 -2 101 4 123 8C142 134 163 199 209 268C263 352 338 414 383 414C394 414 400 405 400 390C400 372 397 351 389 319L337 107C328 70 324 47 324 31C324 6 335 -9 354 -9C380 -9 416 12 514 85L504 103L478 86C449 67 427 56 417 56C410 56 404 65 404 76C404 81 405 92 406 96L472 372C479 401 483 429 483 446C483 469 472 482 452 482C410 482 341 444 282 389C244 354 216 320 164 247L202 408C206 426 208 438 208 449C208 470 200 482 185 482C164 482 125 460 52 408ZM835 148C830 97 824 62 813 16C851 -2 885 -11 920 -11C969 -11 1015 7 1066 47C1117 87 1138 124 1138 174C1138 228 1106 257 1032 271L989 279C929 290 910 307 910 348C910 401 955 442 1012 442C1053 442 1091 424 1107 397L1107 342L1130 342C1134 377 1138 404 1149 455C1110 474 1082 482 1049 482C997 482 936 452 888 404C862 377 851 352 851 316C851 260 882 228 948 215L1011 203C1055 195 1071 177 1071 138C1071 73 1025 29 954 29C919 29 888 40 860 64L860 148ZM1317 390L1261 107C1260 99 1248 61 1248 31C1248 6 1259 -9 1278 -9C1313 -9 1348 11 1426 74L1457 99L1447 117L1402 86C1373 66 1353 56 1342 56C1333 56 1328 64 1328 76C1328 102 1342 183 1371 328L1384 390L1491 390L1502 440C1464 436 1430 434 1392 434C1408 528 1419 577 1437 631L1426 646C1406 634 1379 622 1348 610L1323 440C1279 419 1253 408 1235 403L1233 390ZM1541 152C1541 46 1586 -11 1669 -11C1724 -11 1784 15 1829 57C1891 116 1935 230 1935 331C1935 425 1885 482 1802 482C1698 482 1541 382 1541 152ZM1765 444C1826 444 1859 399 1859 315C1859 219 1828 113 1784 60C1766 39 1740 27 1709 27C1651 27 1617 72 1617 151C1617 264 1656 387 1705 427C1718 438 1741 444 1765 444Z" stroke="rgb(0,0,0)" stroke-opacity="1" stroke-width="8" fill="rgb(0,0,0)" fill-opacity="1"></path></g></g></g></g><g><g><g><g transform="matrix(1,0,0,1,52.87998962402344,43.375)"><path transform="matrix(0.017,0,0,-0.017,0,0)" d="M24 388L31 368L63 389C100 412 103 414 110 414C121 414 128 404 128 389C128 338 87 145 46 2L53 -9C78 -2 101 4 123 8C142 134 163 199 209 268C263 352 338 414 383 414C394 414 400 405 400 390C400 372 397 351 389 319L337 107C328 70 324 47 324 31C324 6 335 -9 354 -9C380 -9 416 12 514 85L504 103L478 86C449 67 427 56 417 56C410 56 404 65 404 76C404 81 405 92 406 96L472 372C479 401 483 429 483 446C483 469 472 482 452 482C410 482 341 444 282 389C244 354 216 320 164 247L202 408C206 426 208 438 208 449C208 470 200 482 185 482C164 482 125 460 52 408ZM835 148C830 97 824 62 813 16C851 -2 885 -11 920 -11C969 -11 1015 7 1066 47C1117 87 1138 124 1138 174C1138 228 1106 257 1032 271L989 279C929 290 910 307 910 348C910 401 955 442 1012 442C1053 442 1091 424 1107 397L1107 342L1130 342C1134 377 1138 404 1149 455C1110 474 1082 482 1049 482C997 482 936 452 888 404C862 377 851 352 851 316C851 260 882 228 948 215L1011 203C1055 195 1071 177 1071 138C1071 73 1025 29 954 29C919 29 888 40 860 64L860 148ZM1443 722L1431 733C1379 707 1343 698 1271 691L1267 670L1315 670C1339 670 1349 663 1349 648C1349 645 1349 640 1346 622C1335 567 1262 182 1247 132C1234 82 1228 52 1228 31C1228 6 1239 -9 1258 -9C1284 -9 1320 12 1418 85L1408 103L1382 86C1353 67 1331 56 1321 56C1314 56 1308 66 1308 76C1308 82 1309 89 1312 104ZM1493 388L1500 368L1532 389C1569 412 1572 414 1579 414C1590 414 1597 404 1597 389C1597 338 1556 145 1515 2L1522 -9C1547 -2 1570 4 1592 8C1611 134 1632 199 1678 268C1732 352 1807 414 1852 414C1863 414 1869 405 1869 390C1869 372 1866 351 1858 319L1806 107C1797 70 1793 47 1793 31C1793 6 1804 -9 1823 -9C1849 -9 1885 12 1983 85L1973 103L1947 86C1918 67 1896 56 1886 56C1879 56 1873 65 1873 76C1873 81 1874 92 1875 96L1941 372C1948 401 1952 429 1952 446C1952 469 1941 482 1921 482C1879 482 1810 444 1751 389C1713 354 1685 320 1633 247L1671 408C1675 426 1677 438 1677 449C1677 470 1669 482 1654 482C1633 482 1594 460 1521 408Z" stroke="rgb(0,0,0)" stroke-opacity="1" stroke-width="8" fill="rgb(0,0,0)" fill-opacity="1"></path></g></g></g></g><line style="fill:none;stroke-width:0.99px;stroke:rgb(0, 0, 0);" x1="52.87998962402344" y1="26.240000009536743" x2="87.27499008178711" y2="26.240000009536743"></line></g></g><g><g><g transform="matrix(1,0,0,1,2,72.70000457763672)"><path transform="matrix(0.017,0,0,-0.017,0,0)" d="M416 25L416 -3C464 -1 509 0 551 0C591 0 636 -1 684 -3L684 25L659 27C618 30 605 37 591 61L420 368L641 620C671 653 680 659 706 662L734 664L734 692L620 689C608 689 594 689 505 692L505 664L538 662C570 660 583 655 583 643C583 632 578 623 560 601L399 405L295 604C286 622 281 634 281 642C281 654 294 660 324 662L361 664L361 692L315 691C274 690 244 689 228 689C211 689 181 690 140 691L95 692L95 664L121 662C170 657 182 650 202 613L348 343L110 61C95 43 72 31 48 28L20 25L20 -3C69 -1 110 0 145 0C181 0 221 -1 264 -3L264 25L232 28C194 32 177 38 177 50C177 58 181 67 187 75L369 306L488 80C497 62 502 49 502 40C502 32 495 29 470 29L454 28Z" stroke="rgb(0,0,0)" stroke-opacity="1" stroke-width="8" fill="rgb(0,0,0)" fill-opacity="1"></path></g></g><g><g><g><g><g transform="matrix(1,0,0,1,14.764999389648438,76.66000213623047)"><path transform="matrix(0.0119,0,0,-0.0119,0,0)" d="M31 148C26 97 20 62 9 16C47 -2 81 -11 116 -11C165 -11 211 7 262 47C313 87 334 124 334 174C334 228 302 257 228 271L185 279C125 290 106 307 106 348C106 401 151 442 208 442C249 442 287 424 303 397L303 342L326 342C330 377 334 404 345 455C306 474 278 482 245 482C193 482 132 452 84 404C58 377 47 352 47 316C47 260 78 228 144 215L207 203C251 195 267 177 267 138C267 73 221 29 150 29C115 29 84 40 56 64L56 148ZM513 390L457 107C456 99 444 61 444 31C444 6 455 -9 474 -9C509 -9 544 11 622 74L653 99L643 117L598 86C569 66 549 56 538 56C529 56 524 64 524 76C524 102 538 183 567 328L580 390L687 390L698 440C660 436 626 434 588 434C604 528 615 577 633 631L622 646C602 634 575 622 544 610L519 440C475 419 449 408 431 403L429 390ZM1048 111L1024 94C971 56 923 36 887 36C840 36 811 73 811 133C811 158 814 185 819 214C836 218 945 248 970 259C1055 296 1094 342 1094 404C1094 451 1060 482 1010 482C942 496 832 423 795 349C765 299 735 180 735 113C735 35 779 -11 851 -11C908 -11 964 17 1056 92ZM833 274C850 343 870 386 899 412C917 428 948 440 972 440C1001 440 1020 420 1020 388C1020 344 985 297 933 272C905 258 869 247 824 237Z" stroke="rgb(0,0,0)" stroke-opacity="1" stroke-width="8" fill="rgb(0,0,0)" fill-opacity="1"></path></g></g></g></g></g><g><g transform="matrix(1,0,0,1,34.06999206542969,72.70000457763672)"><path transform="matrix(0.017,0,0,-0.017,0,0)" d="M604 347L604 406L65 406L65 347ZM604 134L604 193L65 193L65 134Z" stroke="rgb(0,0,0)" stroke-opacity="1" stroke-width="8" fill="rgb(0,0,0)" fill-opacity="1"></path></g></g><g><g><g><g><g transform="matrix(1,0,0,1,53.16499328613281,60.534996032714844)"><path transform="matrix(0.017,0,0,-0.017,0,0)" d="M24 388L31 368L63 389C100 412 103 414 110 414C121 414 128 404 128 389C128 338 87 145 46 2L53 -9C78 -2 101 4 123 8C142 134 163 199 209 268C263 352 338 414 383 414C394 414 400 405 400 390C400 372 397 351 389 319L337 107C328 70 324 47 324 31C324 6 335 -9 354 -9C380 -9 416 12 514 85L504 103L478 86C449 67 427 56 417 56C410 56 404 65 404 76C404 81 405 92 406 96L472 372C479 401 483 429 483 446C483 469 472 482 452 482C410 482 341 444 282 389C244 354 216 320 164 247L202 408C206 426 208 438 208 449C208 470 200 482 185 482C164 482 125 460 52 408ZM835 148C830 97 824 62 813 16C851 -2 885 -11 920 -11C969 -11 1015 7 1066 47C1117 87 1138 124 1138 174C1138 228 1106 257 1032 271L989 279C929 290 910 307 910 348C910 401 955 442 1012 442C1053 442 1091 424 1107 397L1107 342L1130 342C1134 377 1138 404 1149 455C1110 474 1082 482 1049 482C997 482 936 452 888 404C862 377 851 352 851 316C851 260 882 228 948 215L1011 203C1055 195 1071 177 1071 138C1071 73 1025 29 954 29C919 29 888 40 860 64L860 148ZM1317 390L1261 107C1260 99 1248 61 1248 31C1248 6 1259 -9 1278 -9C1313 -9 1348 11 1426 74L1457 99L1447 117L1402 86C1373 66 1353 56 1342 56C1333 56 1328 64 1328 76C1328 102 1342 183 1371 328L1384 390L1491 390L1502 440C1464 436 1430 434 1392 434C1408 528 1419 577 1437 631L1426 646C1406 634 1379 622 1348 610L1323 440C1279 419 1253 408 1235 403L1233 390ZM1852 111L1828 94C1775 56 1727 36 1691 36C1644 36 1615 73 1615 133C1615 158 1618 185 1623 214C1640 218 1749 248 1774 259C1859 296 1898 342 1898 404C1898 451 1864 482 1814 482C1746 496 1636 423 1599 349C1569 299 1539 180 1539 113C1539 35 1583 -11 1655 -11C1712 -11 1768 17 1860 92ZM1637 274C1654 343 1674 386 1703 412C1721 428 1752 440 1776 440C1805 440 1824 420 1824 388C1824 344 1789 297 1737 272C1709 258 1673 247 1628 237Z" stroke="rgb(0,0,0)" stroke-opacity="1" stroke-width="8" fill="rgb(0,0,0)" fill-opacity="1"></path></g></g></g></g><g><g><g><g transform="matrix(1,0,0,1,52.220001220703125,85.87000274658203)"><path transform="matrix(0.017,0,0,-0.017,0,0)" d="M24 388L31 368L63 389C100 412 103 414 110 414C121 414 128 404 128 389C128 338 87 145 46 2L53 -9C78 -2 101 4 123 8C142 134 163 199 209 268C263 352 338 414 383 414C394 414 400 405 400 390C400 372 397 351 389 319L337 107C328 70 324 47 324 31C324 6 335 -9 354 -9C380 -9 416 12 514 85L504 103L478 86C449 67 427 56 417 56C410 56 404 65 404 76C404 81 405 92 406 96L472 372C479 401 483 429 483 446C483 469 472 482 452 482C410 482 341 444 282 389C244 354 216 320 164 247L202 408C206 426 208 438 208 449C208 470 200 482 185 482C164 482 125 460 52 408ZM835 148C830 97 824 62 813 16C851 -2 885 -11 920 -11C969 -11 1015 7 1066 47C1117 87 1138 124 1138 174C1138 228 1106 257 1032 271L989 279C929 290 910 307 910 348C910 401 955 442 1012 442C1053 442 1091 424 1107 397L1107 342L1130 342C1134 377 1138 404 1149 455C1110 474 1082 482 1049 482C997 482 936 452 888 404C862 377 851 352 851 316C851 260 882 228 948 215L1011 203C1055 195 1071 177 1071 138C1071 73 1025 29 954 29C919 29 888 40 860 64L860 148ZM1443 722L1431 733C1379 707 1343 698 1271 691L1267 670L1315 670C1339 670 1349 663 1349 648C1349 645 1349 640 1346 622C1335 567 1262 182 1247 132C1234 82 1228 52 1228 31C1228 6 1239 -9 1258 -9C1284 -9 1320 12 1418 85L1408 103L1382 86C1353 67 1331 56 1321 56C1314 56 1308 66 1308 76C1308 82 1309 89 1312 104ZM1493 388L1500 368L1532 389C1569 412 1572 414 1579 414C1590 414 1597 404 1597 389C1597 338 1556 145 1515 2L1522 -9C1547 -2 1570 4 1592 8C1611 134 1632 199 1678 268C1732 352 1807 414 1852 414C1863 414 1869 405 1869 390C1869 372 1866 351 1858 319L1806 107C1797 70 1793 47 1793 31C1793 6 1804 -9 1823 -9C1849 -9 1885 12 1983 85L1973 103L1947 86C1918 67 1896 56 1886 56C1879 56 1873 65 1873 76C1873 81 1874 92 1875 96L1941 372C1948 401 1952 429 1952 446C1952 469 1941 482 1921 482C1879 482 1810 444 1751 389C1713 354 1685 320 1633 247L1671 408C1675 426 1677 438 1677 449C1677 470 1669 482 1654 482C1633 482 1594 460 1521 408Z" stroke="rgb(0,0,0)" stroke-opacity="1" stroke-width="8" fill="rgb(0,0,0)" fill-opacity="1"></path></g></g></g></g><line style="fill:none;stroke-width:0.99px;stroke:rgb(0, 0, 0);" x1="52.220001220703125" y1="68.73500275611877" x2="86.6150016784668" y2="68.73500275611877"></line></g></g></g></svg>