<svg xmlns="http://www.w3.org/2000/svg" xmlns:xlink="http://www.w3.org/1999/xlink" width="113.77000427246094" height="45.505001068115234" style="width:113.77000427246094px;height:45.505001068115234px;font-family:Asana-Math, Asana;background:#FFF;"><g><g><g><g transform="matrix(1,0,0,1,2,26.215003967285156)"><path transform="matrix(0.017,0,0,-0.017,0,0)" d="M730 103L704 86C675 67 653 56 643 56C636 56 630 65 630 76C630 86 632 95 637 116L712 413C716 430 719 446 719 454C719 471 709 482 693 482C664 482 626 464 565 421C502 376 467 341 418 272L448 409C452 429 455 444 455 451C455 470 445 482 429 482C399 482 353 460 298 418C254 384 234 363 169 275L202 408C206 424 208 439 208 451C208 470 199 482 185 482C164 482 126 461 52 408L24 388L31 368C68 391 103 414 110 414C121 414 128 404 128 389C128 338 87 145 46 2L49 -9L117 6L139 108C163 219 190 278 245 338C287 384 332 414 360 414C367 414 371 406 371 393C371 358 349 244 308 69L292 2L297 -9L366 6L387 113C403 194 437 269 481 318C536 379 586 414 618 414C626 414 631 405 631 389C631 365 628 351 606 264C566 105 550 84 550 31C550 6 561 -9 580 -9C606 -9 642 12 740 85Z" stroke="rgb(0,0,0)" stroke-opacity="1" stroke-width="8" fill="rgb(0,0,0)" fill-opacity="1"></path></g></g><g><g transform="matrix(1,0,0,1,20.31500244140625,26.215003967285156)"><path transform="matrix(0.017,0,0,-0.017,0,0)" d="M604 347L604 406L65 406L65 347ZM604 134L604 193L65 193L65 134Z" stroke="rgb(0,0,0)" stroke-opacity="1" stroke-width="8" fill="rgb(0,0,0)" fill-opacity="1"></path></g></g><g><g><g><g><g transform="matrix(1,0,0,1,69.54499816894531,14.050003051757812)"><path transform="matrix(0.017,0,0,-0.017,0,0)" d="M24 388L31 368L63 389C100 412 103 414 110 414C121 414 128 404 128 389C128 338 87 145 46 2L53 -9C78 -2 101 4 123 8C142 134 163 199 209 268C263 352 338 414 383 414C394 414 400 405 400 390C400 372 397 351 389 319L337 107C328 70 324 47 324 31C324 6 335 -9 354 -9C380 -9 416 12 514 85L504 103L478 86C449 67 427 56 417 56C410 56 404 65 404 76C404 81 405 92 406 96L472 372C479 401 483 429 483 446C483 469 472 482 452 482C410 482 341 444 282 389C244 354 216 320 164 247L202 408C206 426 208 438 208 449C208 470 200 482 185 482C164 482 125 460 52 408Z" stroke="rgb(0,0,0)" stroke-opacity="1" stroke-width="8" fill="rgb(0,0,0)" fill-opacity="1"></path></g></g></g></g><g><g><g><g transform="matrix(1,0,0,1,38.464996337890625,39.38500213623047)"><path transform="matrix(0.017,0,0,-0.017,0,0)" d="M730 103L704 86C675 67 653 56 643 56C636 56 630 65 630 76C630 86 632 95 637 116L712 413C716 430 719 446 719 454C719 471 709 482 693 482C664 482 626 464 565 421C502 376 467 341 418 272L448 409C452 429 455 444 455 451C455 470 445 482 429 482C399 482 353 460 298 418C254 384 234 363 169 275L202 408C206 424 208 439 208 451C208 470 199 482 185 482C164 482 126 461 52 408L24 388L31 368C68 391 103 414 110 414C121 414 128 404 128 389C128 338 87 145 46 2L49 -9L117 6L139 108C163 219 190 278 245 338C287 384 332 414 360 414C367 414 371 406 371 393C371 358 349 244 308 69L292 2L297 -9L366 6L387 113C403 194 437 269 481 318C536 379 586 414 618 414C626 414 631 405 631 389C631 365 628 351 606 264C566 105 550 84 550 31C550 6 561 -9 580 -9C606 -9 642 12 740 85ZM1057 148C1052 97 1046 62 1035 16C1073 -2 1107 -11 1142 -11C1191 -11 1237 7 1288 47C1339 87 1360 124 1360 174C1360 228 1328 257 1254 271L1211 279C1151 290 1132 307 1132 348C1132 401 1177 442 1234 442C1275 442 1313 424 1329 397L1329 342L1352 342C1356 377 1360 404 1371 455C1332 474 1304 482 1271 482C1219 482 1158 452 1110 404C1084 377 1073 352 1073 316C1073 260 1104 228 1170 215L1233 203C1277 195 1293 177 1293 138C1293 73 1247 29 1176 29C1141 29 1110 40 1082 64L1082 148ZM1539 390L1483 107C1482 99 1470 61 1470 31C1470 6 1481 -9 1500 -9C1535 -9 1570 11 1648 74L1679 99L1669 117L1624 86C1595 66 1575 56 1564 56C1555 56 1550 64 1550 76C1550 102 1564 183 1593 328L1606 390L1713 390L1724 440C1686 436 1652 434 1614 434C1630 528 1641 577 1659 631L1648 646C1628 634 1601 622 1570 610L1545 440C1501 419 1475 408 1457 403L1455 390ZM2074 111L2050 94C1997 56 1949 36 1913 36C1866 36 1837 73 1837 133C1837 158 1840 185 1845 214C1862 218 1971 248 1996 259C2081 296 2120 342 2120 404C2120 451 2086 482 2036 482C1968 496 1858 423 1821 349C1791 299 1761 180 1761 113C1761 35 1805 -11 1877 -11C1934 -11 1990 17 2082 92ZM1859 274C1876 343 1896 386 1925 412C1943 428 1974 440 1998 440C2027 440 2046 420 2046 388C2046 344 2011 297 1959 272C1931 258 1895 247 1850 237Z" stroke="rgb(0,0,0)" stroke-opacity="1" stroke-width="8" fill="rgb(0,0,0)" fill-opacity="1"></path></g></g><g><g transform="matrix(1,0,0,1,78.96501159667969,40.345001220703125)"><path transform="matrix(0.017,0,0,-0.017,0,0)" d="M146 266C146 526 243 632 301 700L282 726C225 675 60 542 60 266C60 159 85 58 133 -32C168 -99 200 -138 282 -215L301 -194C255 -137 146 -15 146 266Z" stroke="rgb(0,0,0)" stroke-opacity="1" stroke-width="8" fill="rgb(0,0,0)" fill-opacity="1"></path></g></g><g><g transform="matrix(1,0,0,1,84.62001037597656,39.38500213623047)"><path transform="matrix(0.017,0,0,-0.017,0,0)" d="M371 664L374 692L350 692L260 689C244 689 226 689 183 690L119 692L116 664L163 662C187 661 198 653 198 635C198 621 195 592 189 559L116 125C99 33 98 32 58 28L17 25L13 -3L55 -2C103 -1 126 0 145 0L242 -3L268 -3L271 25L222 28C195 30 186 37 186 57C186 63 187 74 188 78L231 340C381 169 404 140 509 -3L578 0C614 -1 620 -2 646 -3L646 27L626 27C603 27 583 39 562 65L316 367L608 640C624 655 645 665 662 665L683 665L683 692L660 691C639 690 623 689 615 689C605 689 589 690 568 691L548 692L548 663C548 655 538 642 510 614C466 569 297 403 233 353L278 613C285 651 292 658 329 661ZM941 482C874 482 721 419 721 259C721 182 766 136 843 136C851 136 862 136 873 137L832 99C816 84 805 66 805 52C805 42 812 31 826 19C757 -4 629 -48 629 -159C629 -230 699 -276 808 -276C937 -276 1050 -204 1050 -121C1050 -85 1029 -49 986 -14L926 35C892 62 879 81 879 100C879 114 894 128 906 146C1004 170 1075 253 1075 342C1075 357 1072 376 1071 380C1088 378 1096 378 1105 378C1122 378 1132 379 1155 382L1164 427L1161 433C1133 426 1113 424 1059 424C1059 425 1035 482 941 482ZM842 1L919 -58C965 -94 984 -121 984 -154C984 -206 915 -248 832 -248C750 -248 693 -206 693 -145C693 -43 803 -11 842 1ZM916 448C974 448 1003 412 1003 341C1003 238 955 168 885 168C824 168 792 209 792 288C792 383 843 448 916 448Z" stroke="rgb(0,0,0)" stroke-opacity="1" stroke-width="8" fill="rgb(0,0,0)" fill-opacity="1"></path></g></g><g><g transform="matrix(1,0,0,1,104.41999816894531,40.345001220703125)"><path transform="matrix(0.017,0,0,-0.017,0,0)" d="M51 726L32 700C87 636 187 526 187 266C187 -10 83 -131 32 -194L51 -215C104 -165 273 -23 273 265C273 542 108 675 51 726Z" stroke="rgb(0,0,0)" stroke-opacity="1" stroke-width="8" fill="rgb(0,0,0)" fill-opacity="1"></path></g></g></g></g><line style="fill:none;stroke-width:0.99px;stroke:rgb(0, 0, 0);" x1="38.464996337890625" y1="22.250002145767212" x2="110.07499694824219" y2="22.250002145767212"></line></g></g></g></svg>