<svg xmlns="http://www.w3.org/2000/svg" xmlns:xlink="http://www.w3.org/1999/xlink" width="78.81999969482422" height="25.540000915527344" style="width:78.81999969482422px;height:25.540000915527344px;font-family:Asana-Math, Asana;background:#FFF;"><g><g><g><g transform="matrix(1,0,0,1,2,18.040000915527344)"><path transform="matrix(0.017,0,0,-0.017,0,0)" d="M24 388L31 368L63 389C100 412 103 414 110 414C121 414 128 404 128 389C128 338 87 145 46 2L53 -9C78 -2 101 4 123 8C142 134 163 199 209 268C263 352 338 414 383 414C394 414 400 405 400 390C400 372 397 351 389 319L337 107C328 70 324 47 324 31C324 6 335 -9 354 -9C380 -9 416 12 514 85L504 103L478 86C449 67 427 56 417 56C410 56 404 65 404 76C404 81 405 92 406 96L472 372C479 401 483 429 483 446C483 469 472 482 452 482C410 482 341 444 282 389C244 354 216 320 164 247L202 408C206 426 208 438 208 449C208 470 200 482 185 482C164 482 125 460 52 408Z" stroke="rgb(0,0,0)" stroke-opacity="1" stroke-width="8" fill="rgb(0,0,0)" fill-opacity="1"></path></g></g><g><g><g><g><g transform="matrix(1,0,0,1,11.944992065429688,21.999998474121092)"><path transform="matrix(0.0119,0,0,-0.0119,0,0)" d="M31 148C26 97 20 62 9 16C47 -2 81 -11 116 -11C165 -11 211 7 262 47C313 87 334 124 334 174C334 228 302 257 228 271L185 279C125 290 106 307 106 348C106 401 151 442 208 442C249 442 287 424 303 397L303 342L326 342C330 377 334 404 345 455C306 474 278 482 245 482C193 482 132 452 84 404C58 377 47 352 47 316C47 260 78 228 144 215L207 203C251 195 267 177 267 138C267 73 221 29 150 29C115 29 84 40 56 64L56 148ZM513 390L457 107C456 99 444 61 444 31C444 6 455 -9 474 -9C509 -9 544 11 622 74L653 99L643 117L598 86C569 66 549 56 538 56C529 56 524 64 524 76C524 102 538 183 567 328L580 390L687 390L698 440C660 436 626 434 588 434C604 528 615 577 633 631L622 646C602 634 575 622 544 610L519 440C475 419 449 408 431 403L429 390ZM737 152C737 46 782 -11 865 -11C920 -11 980 15 1025 57C1087 116 1131 230 1131 331C1131 425 1081 482 998 482C894 482 737 382 737 152ZM961 444C1022 444 1055 399 1055 315C1055 219 1024 113 980 60C962 39 936 27 905 27C847 27 813 72 813 151C813 264 852 387 901 427C914 438 937 444 961 444Z" stroke="rgb(0,0,0)" stroke-opacity="1" stroke-width="8" fill="rgb(0,0,0)" fill-opacity="1"></path></g></g></g></g></g><g><g transform="matrix(1,0,0,1,31.910003662109375,18.040000915527344)"><path transform="matrix(0.017,0,0,-0.017,0,0)" d="M604 347L604 406L65 406L65 347ZM604 134L604 193L65 193L65 134Z" stroke="rgb(0,0,0)" stroke-opacity="1" stroke-width="8" fill="rgb(0,0,0)" fill-opacity="1"></path></g></g><g><g transform="matrix(1,0,0,1,48.364990234375,18.040000915527344)"><path transform="matrix(0.017,0,0,-0.017,0,0)" d="M937 664L950 695C922 699 775 701 773 692L688 536L442 114L292 692C269 686 146 690 125 692L122 664L148 662C200 658 218 648 218 622C218 616 72 100 70 93C54 41 39 28 -16 23L-19 -3L20 -2C54 -1 79 0 93 0C107 0 133 -1 168 -2L203 -3L206 25L168 28C136 30 119 40 119 55C119 65 121 78 126 96L250 560L399 -18L422 -18L479 86L718 500L770 587L733 67C729 39 717 32 666 28L635 25L632 -3L679 -2C721 -1 751 0 766 0C782 0 812 -1 853 -2L899 -3L902 25L865 28C829 31 811 42 811 63L812 100L853 631C855 650 870 660 899 662ZM1263 96L1192 624C1190 646 1194 661 1234 662L1276 664L1276 692L1235 691C1198 690 1170 689 1152 689C1134 689 1106 690 1069 691L1028 692L1028 664L1053 662C1097 659 1105 651 1112 614L1200 -8L1249 -8L1627 611C1652 651 1660 658 1689 662L1707 664L1707 692L1677 691C1650 690 1627 689 1611 689C1601 689 1574 690 1533 691L1487 692L1487 664L1513 662C1551 659 1570 649 1570 630C1570 619 1566 608 1554 588Z" stroke="rgb(0,0,0)" stroke-opacity="1" stroke-width="8" fill="rgb(0,0,0)" fill-opacity="1"></path></g></g></g></g></svg>