<svg xmlns="http://www.w3.org/2000/svg" xmlns:xlink="http://www.w3.org/1999/xlink" width="141.26499938964844" height="298.7650146484375" style="width:141.26499938964844px;height:298.7650146484375px;font-family:Asana-Math, Asana;background:#FFF;"><g><g><g><g transform="matrix(1,0,0,1,2,18.039993286132812)"><path transform="matrix(0.017,0,0,-0.017,0,0)" d="M108 471C108 386 146 339 230 319L325 296C379 283 406 248 406 191C406 96 335 30 232 30C178 30 140 42 96 73L96 172L66 172C60 117 53 72 42 20C91 -5 144 -18 197 -18C352 -18 485 99 485 234C485 313 442 355 341 377L276 391C210 405 180 442 180 508C180 595 247 658 339 658C388 658 421 645 451 613L451 537L481 537C485 591 492 629 506 672C461 696 421 706 374 706C250 706 108 614 108 471ZM572 152C572 46 617 -11 700 -11C755 -11 815 15 860 57C922 116 966 230 966 331C966 425 916 482 833 482C729 482 572 382 572 152ZM796 444C857 444 890 399 890 315C890 219 859 113 815 60C797 39 771 27 740 27C682 27 648 72 648 151C648 264 687 387 736 427C749 438 772 444 796 444ZM1249 722L1237 733C1185 707 1149 698 1077 691L1073 670L1121 670C1145 670 1155 663 1155 648C1155 645 1155 640 1152 622C1141 567 1068 182 1053 132C1040 82 1034 52 1034 31C1034 6 1045 -9 1064 -9C1090 -9 1126 12 1224 85L1214 103L1188 86C1159 67 1137 56 1127 56C1120 56 1114 66 1114 76C1114 82 1115 89 1118 104ZM1767 473L1760 482L1692 465L1682 414C1667 336 1642 268 1611 221C1552 130 1474 59 1434 59C1426 59 1421 68 1421 85C1421 99 1423 112 1428 137L1485 408C1488 424 1490 438 1490 451C1490 470 1481 482 1467 482C1447 482 1409 461 1335 408L1307 388L1314 368L1346 389C1374 407 1385 412 1394 412C1403 412 1411 403 1411 392C1411 388 1410 378 1409 374L1346 77C1344 68 1342 44 1342 30C1342 7 1357 -11 1377 -11C1440 -11 1561 101 1645 239L1608 97C1601 73 1597 46 1597 31C1597 6 1608 -9 1627 -9C1653 -9 1689 12 1787 85L1777 103L1751 86C1727 70 1701 59 1690 59C1682 59 1677 66 1677 76C1677 112 1752 416 1767 473ZM2172 330L2195 330C2203 395 2210 432 2219 458C2195 473 2160 482 2123 482C2078 483 2005 463 1948 400C1894 352 1855 241 1855 136C1855 40 1897 -11 1977 -11C2031 -11 2079 9 2134 54L2184 95L2176 115L2161 105C2089 57 2051 40 2016 40C1960 40 1931 80 1931 159C1931 267 1966 371 2015 409C2036 425 2060 433 2091 433C2136 433 2172 414 2172 390ZM2270 388L2277 368L2309 389C2346 412 2349 414 2356 414C2366 414 2374 404 2374 391C2374 384 2370 361 2366 347L2300 107C2292 76 2287 49 2287 30C2287 6 2298 -9 2317 -9C2343 -9 2379 12 2477 85L2467 103L2441 86C2412 67 2389 56 2380 56C2373 56 2367 66 2367 76C2367 86 2369 95 2374 116L2451 420C2455 437 2457 448 2457 456C2457 473 2448 482 2432 482C2410 482 2373 461 2298 408ZM2464 712C2435 712 2406 679 2406 645C2406 620 2421 604 2445 604C2476 604 2500 633 2500 671C2500 695 2485 712 2464 712ZM2530 152C2530 46 2575 -11 2658 -11C2713 -11 2773 15 2818 57C2880 116 2924 230 2924 331C2924 425 2874 482 2791 482C2687 482 2530 382 2530 152ZM2754 444C2815 444 2848 399 2848 315C2848 219 2817 113 2773 60C2755 39 2729 27 2698 27C2640 27 2606 72 2606 151C2606 264 2645 387 2694 427C2707 438 2730 444 2754 444ZM2980 388L2987 368L3019 389C3056 412 3059 414 3066 414C3077 414 3084 404 3084 389C3084 338 3043 145 3002 2L3009 -9C3034 -2 3057 4 3079 8C3098 134 3119 199 3165 268C3219 352 3294 414 3339 414C3350 414 3356 405 3356 390C3356 372 3353 351 3345 319L3293 107C3284 70 3280 47 3280 31C3280 6 3291 -9 3310 -9C3336 -9 3372 12 3470 85L3460 103L3434 86C3405 67 3383 56 3373 56C3366 56 3360 65 3360 76C3360 81 3361 92 3362 96L3428 372C3435 401 3439 429 3439 446C3439 469 3428 482 3408 482C3366 482 3297 444 3238 389C3200 354 3172 320 3120 247L3158 408C3162 426 3164 438 3164 449C3164 470 3156 482 3141 482C3120 482 3081 460 3008 408ZM4252 473L4245 482L4177 465L4167 414C4152 336 4127 268 4096 221C4037 130 3959 59 3919 59C3911 59 3906 68 3906 85C3906 99 3908 112 3913 137L3970 408C3973 424 3975 438 3975 451C3975 470 3966 482 3952 482C3932 482 3894 461 3820 408L3792 388L3799 368L3831 389C3859 407 3870 412 3879 412C3888 412 3896 403 3896 392C3896 388 3895 378 3894 374L3831 77C3829 68 3827 44 3827 30C3827 7 3842 -11 3862 -11C3925 -11 4046 101 4130 239L4093 97C4086 73 4082 46 4082 31C4082 6 4093 -9 4112 -9C4138 -9 4174 12 4272 85L4262 103L4236 86C4212 70 4186 59 4175 59C4167 59 4162 66 4162 76C4162 112 4237 416 4252 473ZM4339 388L4346 368L4378 389C4415 412 4418 414 4425 414C4436 414 4443 404 4443 389C4443 338 4402 145 4361 2L4368 -9C4393 -2 4416 4 4438 8C4457 134 4478 199 4524 268C4578 352 4653 414 4698 414C4709 414 4715 405 4715 390C4715 372 4712 351 4704 319L4652 107C4643 70 4639 47 4639 31C4639 6 4650 -9 4669 -9C4695 -9 4731 12 4829 85L4819 103L4793 86C4764 67 4742 56 4732 56C4725 56 4719 65 4719 76C4719 81 4720 92 4721 96L4787 372C4794 401 4798 429 4798 446C4798 469 4787 482 4767 482C4725 482 4656 444 4597 389C4559 354 4531 320 4479 247L4517 408C4521 426 4523 438 4523 449C4523 470 4515 482 4500 482C4479 482 4440 460 4367 408ZM4904 388L4911 368L4943 389C4980 412 4983 414 4990 414C5000 414 5008 404 5008 391C5008 384 5004 361 5000 347L4934 107C4926 76 4921 49 4921 30C4921 6 4932 -9 4951 -9C4977 -9 5013 12 5111 85L5101 103L5075 86C5046 67 5023 56 5014 56C5007 56 5001 66 5001 76C5001 86 5003 95 5008 116L5085 420C5089 437 5091 448 5091 456C5091 473 5082 482 5066 482C5044 482 5007 461 4932 408ZM5098 712C5069 712 5040 679 5040 645C5040 620 5055 604 5079 604C5110 604 5134 633 5134 671C5134 695 5119 712 5098 712ZM5489 330L5512 330C5520 395 5527 432 5536 458C5512 473 5477 482 5440 482C5395 483 5322 463 5265 400C5211 352 5172 241 5172 136C5172 40 5214 -11 5294 -11C5348 -11 5396 9 5451 54L5501 95L5493 115L5478 105C5406 57 5368 40 5333 40C5277 40 5248 80 5248 159C5248 267 5283 371 5332 409C5353 425 5377 433 5408 433C5453 433 5489 414 5489 390ZM5824 204L5795 77C5791 60 5789 42 5789 26C5789 4 5798 -9 5813 -9C5836 -9 5877 17 5959 85L5952 106C5928 86 5899 59 5877 59C5868 59 5862 68 5862 82C5862 87 5862 90 5863 93L5955 472L5945 481L5912 463C5871 478 5854 482 5827 482C5799 482 5779 477 5752 464C5690 433 5657 403 5632 354C5588 265 5557 145 5557 67C5557 23 5572 -11 5591 -11C5628 -11 5708 41 5824 204ZM5872 414C5850 305 5831 253 5797 201C5740 117 5679 59 5647 59C5635 59 5629 72 5629 99C5629 163 5657 280 5692 360C5716 415 5739 433 5787 433C5810 433 5828 429 5872 414Z" stroke="rgb(74,144,226)" stroke-opacity="1" stroke-width="8" fill="rgb(74,144,226)" fill-opacity="1"></path></g></g></g><g><g><g transform="matrix(1,0,0,1,2,39.159996032714844)"><path transform="matrix(0.017,0,0,-0.017,0,0)" d="M146 266C146 526 243 632 301 700L282 726C225 675 60 542 60 266C60 159 85 58 133 -32C168 -99 200 -138 282 -215L301 -194C255 -137 146 -15 146 266Z" stroke="rgb(74,144,226)" stroke-opacity="1" stroke-width="8" fill="rgb(74,144,226)" fill-opacity="1"></path></g></g><g><g transform="matrix(1,0,0,1,7.654998779296875,38.19999694824219)"><path transform="matrix(0.017,0,0,-0.017,0,0)" d="M31 148C26 97 20 62 9 16C47 -2 81 -11 116 -11C165 -11 211 7 262 47C313 87 334 124 334 174C334 228 302 257 228 271L185 279C125 290 106 307 106 348C106 401 151 442 208 442C249 442 287 424 303 397L303 342L326 342C330 377 334 404 345 455C306 474 278 482 245 482C193 482 132 452 84 404C58 377 47 352 47 316C47 260 78 228 144 215L207 203C251 195 267 177 267 138C267 73 221 29 150 29C115 29 84 40 56 64L56 148ZM716 111L692 94C639 56 591 36 555 36C508 36 479 73 479 133C479 158 482 185 487 214C504 218 613 248 638 259C723 296 762 342 762 404C762 451 728 482 678 482C610 496 500 423 463 349C433 299 403 180 403 113C403 35 447 -11 519 -11C576 -11 632 17 724 92ZM501 274C518 343 538 386 567 412C585 428 616 440 640 440C669 440 688 420 688 388C688 344 653 297 601 272C573 258 537 247 492 237ZM1118 330L1141 330C1149 395 1156 432 1165 458C1141 473 1106 482 1069 482C1024 483 951 463 894 400C840 352 801 241 801 136C801 40 843 -11 923 -11C977 -11 1025 9 1080 54L1130 95L1122 115L1107 105C1035 57 997 40 962 40C906 40 877 80 877 159C877 267 912 371 961 409C982 425 1006 433 1037 433C1082 433 1118 414 1118 390ZM1453 204L1424 77C1420 60 1418 42 1418 26C1418 4 1427 -9 1442 -9C1465 -9 1506 17 1588 85L1581 106C1557 86 1528 59 1506 59C1497 59 1491 68 1491 82C1491 87 1491 90 1492 93L1584 472L1574 481L1541 463C1500 478 1483 482 1456 482C1428 482 1408 477 1381 464C1319 433 1286 403 1261 354C1217 265 1186 145 1186 67C1186 23 1201 -11 1220 -11C1257 -11 1337 41 1453 204ZM1501 414C1479 305 1460 253 1426 201C1369 117 1308 59 1276 59C1264 59 1258 72 1258 99C1258 163 1286 280 1321 360C1345 415 1368 433 1416 433C1439 433 1457 429 1501 414ZM1649 388L1656 368L1688 389C1725 412 1728 414 1735 414C1746 414 1753 404 1753 389C1753 338 1712 145 1671 2L1678 -9C1703 -2 1726 4 1748 8C1767 134 1788 199 1834 268C1888 352 1963 414 2008 414C2019 414 2025 405 2025 390C2025 372 2022 351 2014 319L1962 107C1953 70 1949 47 1949 31C1949 6 1960 -9 1979 -9C2005 -9 2041 12 2139 85L2129 103L2103 86C2074 67 2052 56 2042 56C2035 56 2029 65 2029 76C2029 81 2030 92 2031 96L2097 372C2104 401 2108 429 2108 446C2108 469 2097 482 2077 482C2035 482 1966 444 1907 389C1869 354 1841 320 1789 247L1827 408C1831 426 1833 438 1833 449C1833 470 1825 482 1810 482C1789 482 1750 460 1677 408ZM2305 390L2249 107C2248 99 2236 61 2236 31C2236 6 2247 -9 2266 -9C2301 -9 2336 11 2414 74L2445 99L2435 117L2390 86C2361 66 2341 56 2330 56C2321 56 2316 64 2316 76C2316 102 2330 183 2359 328L2372 390L2479 390L2490 440C2452 436 2418 434 2380 434C2396 528 2407 577 2425 631L2414 646C2394 634 2367 622 2336 610L2311 440C2267 419 2241 408 2223 403L2221 390ZM2840 111L2816 94C2763 56 2715 36 2679 36C2632 36 2603 73 2603 133C2603 158 2606 185 2611 214C2628 218 2737 248 2762 259C2847 296 2886 342 2886 404C2886 451 2852 482 2802 482C2734 496 2624 423 2587 349C2557 299 2527 180 2527 113C2527 35 2571 -11 2643 -11C2700 -11 2756 17 2848 92ZM2625 274C2642 343 2662 386 2691 412C2709 428 2740 440 2764 440C2793 440 2812 420 2812 388C2812 344 2777 297 2725 272C2697 258 2661 247 2616 237ZM2931 148C2926 97 2920 62 2909 16C2947 -2 2981 -11 3016 -11C3065 -11 3111 7 3162 47C3213 87 3234 124 3234 174C3234 228 3202 257 3128 271L3085 279C3025 290 3006 307 3006 348C3006 401 3051 442 3108 442C3149 442 3187 424 3203 397L3203 342L3226 342C3230 377 3234 404 3245 455C3206 474 3178 482 3145 482C3093 482 3032 452 2984 404C2958 377 2947 352 2947 316C2947 260 2978 228 3044 215L3107 203C3151 195 3167 177 3167 138C3167 73 3121 29 3050 29C3015 29 2984 40 2956 64L2956 148Z" stroke="rgb(74,144,226)" stroke-opacity="1" stroke-width="8" fill="rgb(74,144,226)" fill-opacity="1"></path></g></g><g><g transform="matrix(1,0,0,1,63.529998779296875,39.159996032714844)"><path transform="matrix(0.017,0,0,-0.017,0,0)" d="M51 726L32 700C87 636 187 526 187 266C187 -10 83 -131 32 -194L51 -215C104 -165 273 -23 273 265C273 542 108 675 51 726Z" stroke="rgb(74,144,226)" stroke-opacity="1" stroke-width="8" fill="rgb(74,144,226)" fill-opacity="1"></path></g></g></g><g><g><g><g><g><g transform="matrix(1,0,0,1,4.17498779296875,58.36000061035156)"><path transform="matrix(0.017,0,0,-0.017,0,0)" d="M271 204L242 77C238 60 236 42 236 26C236 4 245 -9 260 -9C283 -9 324 17 406 85L399 106C375 86 346 59 324 59C315 59 309 68 309 82C309 87 309 90 310 93L402 472L392 481L359 463C318 478 301 482 274 482C246 482 226 477 199 464C137 433 104 403 79 354C35 265 4 145 4 67C4 23 19 -11 38 -11C75 -11 155 41 271 204ZM319 414C297 305 278 253 244 201C187 117 126 59 94 59C82 59 76 72 76 99C76 163 104 280 139 360C163 415 186 433 234 433C257 433 275 429 319 414Z" stroke="rgb(74,144,226)" stroke-opacity="1" stroke-width="8" fill="rgb(74,144,226)" fill-opacity="1"></path></g></g></g></g><g><g><g><g transform="matrix(1,0,0,1,3.69500732421875,83.69499206542969)"><path transform="matrix(0.017,0,0,-0.017,0,0)" d="M483 722L471 733C419 707 383 698 311 691L307 670L355 670C379 670 389 663 389 646C389 638 388 629 387 622L359 468C329 477 302 482 277 482C208 482 114 410 68 323C37 265 17 170 17 86C17 21 32 -11 61 -11C88 -11 125 6 159 33C213 77 246 116 313 217L290 126C279 82 274 50 274 24C274 3 283 -9 300 -9C317 -9 341 3 375 28L456 88L446 107L402 76C388 66 372 59 363 59C355 59 349 68 349 82C349 90 350 99 357 128ZM114 59C98 59 89 73 89 98C89 224 135 380 184 418C197 428 216 433 243 433C287 433 316 427 349 410L337 351C300 171 159 59 114 59Z" stroke="rgb(74,144,226)" stroke-opacity="1" stroke-width="8" fill="rgb(74,144,226)" fill-opacity="1"></path></g></g></g></g><line style="fill:none;stroke-width:0.99px;stroke:rgb(74, 144, 226);" x1="3.69500732421875" y1="66.55999207496643" x2="12.18500804901123" y2="66.55999207496643"></line></g><g><g transform="matrix(1,0,0,1,18.97998046875,70.52499389648438)"><path transform="matrix(0.017,0,0,-0.017,0,0)" d="M604 135L604 194L333 194L394 348L604 348L604 407L418 407L493 596L436 596L361 406L65 406L65 347L337 347L276 193L65 193L65 134L252 134L177 -55L234 -55L308 135Z" stroke="rgb(74,144,226)" stroke-opacity="1" stroke-width="8" fill="rgb(74,144,226)" fill-opacity="1"></path></g></g><g><g><g><g><g transform="matrix(1,0,0,1,37.1300048828125,58.36000061035156)"><path transform="matrix(0.017,0,0,-0.017,0,0)" d="M235 722L223 733C171 707 135 698 63 691L59 670L107 670C131 670 141 663 141 646C141 639 140 628 139 622L38 71C37 68 37 64 37 61C37 22 85 -11 140 -11C177 -11 228 8 271 39C367 107 433 244 433 376C433 414 424 453 412 468C405 477 392 482 377 482C353 482 323 474 295 460C244 433 211 403 149 324ZM322 424C348 424 361 401 361 352C361 288 340 202 310 137C277 68 237 36 183 36C137 36 112 59 112 101C112 135 127 276 208 361C241 395 293 424 322 424Z" stroke="rgb(74,144,226)" stroke-opacity="1" stroke-width="8" fill="rgb(74,144,226)" fill-opacity="1"></path></g></g></g></g><g><g><g><g transform="matrix(1,0,0,1,37.759979248046875,83.69499206542969)"><path transform="matrix(0.017,0,0,-0.017,0,0)" d="M328 111L304 94C251 56 203 36 167 36C120 36 91 73 91 133C91 158 94 185 99 214C116 218 225 248 250 259C335 296 374 342 374 404C374 451 340 482 290 482C222 496 112 423 75 349C45 299 15 180 15 113C15 35 59 -11 131 -11C188 -11 244 17 336 92ZM113 274C130 343 150 386 179 412C197 428 228 440 252 440C281 440 300 420 300 388C300 344 265 297 213 272C185 258 149 247 104 237Z" stroke="rgb(74,144,226)" stroke-opacity="1" stroke-width="8" fill="rgb(74,144,226)" fill-opacity="1"></path></g></g></g></g><line style="fill:none;stroke-width:0.99px;stroke:rgb(74, 144, 226);" x1="37.1300048828125" y1="66.55999207496643" x2="44.990005016326904" y2="66.55999207496643"></line></g></g><g></g><g><g><g transform="matrix(1,0,0,1,2,121.01499938964844)"><path transform="matrix(0.017,0,0,-0.017,0,0)" d="M103 664L150 662C174 661 185 653 185 636C185 629 179 576 176 559L104 125C89 36 86 31 46 28L10 25L7 -3L39 -3L133 0L227 -3L259 -3L262 25L210 28C184 30 174 37 174 57C174 63 175 74 176 78L265 613C272 652 277 657 316 661L351 664L354 692L248 689C231 689 213 689 170 690L106 692ZM356 388L363 368L395 389C432 412 435 414 442 414C453 414 460 404 460 389C460 338 419 145 378 2L385 -9C410 -2 433 4 455 8C474 134 495 199 541 268C595 352 670 414 715 414C726 414 732 405 732 390C732 372 729 351 721 319L669 107C660 70 656 47 656 31C656 6 667 -9 686 -9C712 -9 748 12 846 85L836 103L810 86C781 67 759 56 749 56C742 56 736 65 736 76C736 81 737 92 738 96L804 372C811 401 815 429 815 446C815 469 804 482 784 482C742 482 673 444 614 389C576 354 548 320 496 247L534 408C538 426 540 438 540 449C540 470 532 482 517 482C496 482 457 460 384 408ZM1232 437L1216 437L1237 549C1253 635 1281 673 1327 673C1357 673 1384 658 1399 634L1409 638C1414 654 1424 685 1432 705L1437 720C1421 727 1390 733 1367 733C1356 733 1340 730 1332 726C1308 715 1226 654 1203 630C1181 608 1169 578 1158 521L1143 442C1102 422 1082 414 1057 405L1052 383L1133 383L1124 327C1094 132 1057 -54 1035 -123C1017 -182 987 -213 951 -213C928 -213 917 -206 899 -184L885 -188C881 -211 867 -259 862 -268C871 -273 886 -276 897 -276C938 -276 992 -245 1031 -198C1102 -114 1122 -18 1206 383L1310 383C1314 402 1321 425 1327 439L1323 446C1294 439 1295 437 1232 437ZM1471 388L1478 368L1510 389C1547 412 1550 414 1557 414C1567 414 1575 404 1575 391C1575 384 1571 361 1567 347L1501 107C1493 76 1488 49 1488 30C1488 6 1499 -9 1518 -9C1544 -9 1580 12 1678 85L1668 103L1642 86C1613 67 1590 56 1581 56C1574 56 1568 66 1568 76C1568 86 1570 95 1575 116L1652 420C1656 437 1658 448 1658 456C1658 473 1649 482 1633 482C1611 482 1574 461 1499 408ZM1665 712C1636 712 1607 679 1607 645C1607 620 1622 604 1646 604C1677 604 1701 633 1701 671C1701 695 1686 712 1665 712ZM1738 388L1745 368L1777 389C1814 412 1817 414 1824 414C1835 414 1842 404 1842 389C1842 338 1801 145 1760 2L1767 -9C1792 -2 1815 4 1837 8C1856 134 1877 199 1923 268C1977 352 2052 414 2097 414C2108 414 2114 405 2114 390C2114 372 2111 351 2103 319L2051 107C2042 70 2038 47 2038 31C2038 6 2049 -9 2068 -9C2094 -9 2130 12 2228 85L2218 103L2192 86C2163 67 2141 56 2131 56C2124 56 2118 65 2118 76C2118 81 2119 92 2120 96L2186 372C2193 401 2197 429 2197 446C2197 469 2186 482 2166 482C2124 482 2055 444 1996 389C1958 354 1930 320 1878 247L1916 408C1920 426 1922 438 1922 449C1922 470 1914 482 1899 482C1878 482 1839 460 1766 408ZM2303 388L2310 368L2342 389C2379 412 2382 414 2389 414C2399 414 2407 404 2407 391C2407 384 2403 361 2399 347L2333 107C2325 76 2320 49 2320 30C2320 6 2331 -9 2350 -9C2376 -9 2412 12 2510 85L2500 103L2474 86C2445 67 2422 56 2413 56C2406 56 2400 66 2400 76C2400 86 2402 95 2407 116L2484 420C2488 437 2490 448 2490 456C2490 473 2481 482 2465 482C2443 482 2406 461 2331 408ZM2497 712C2468 712 2439 679 2439 645C2439 620 2454 604 2478 604C2509 604 2533 633 2533 671C2533 695 2518 712 2497 712ZM2671 390L2615 107C2614 99 2602 61 2602 31C2602 6 2613 -9 2632 -9C2667 -9 2702 11 2780 74L2811 99L2801 117L2756 86C2727 66 2707 56 2696 56C2687 56 2682 64 2682 76C2682 102 2696 183 2725 328L2738 390L2845 390L2856 440C2818 436 2784 434 2746 434C2762 528 2773 577 2791 631L2780 646C2760 634 2733 622 2702 610L2677 440C2633 419 2607 408 2589 403L2587 390ZM3149 204L3120 77C3116 60 3114 42 3114 26C3114 4 3123 -9 3138 -9C3161 -9 3202 17 3284 85L3277 106C3253 86 3224 59 3202 59C3193 59 3187 68 3187 82C3187 87 3187 90 3188 93L3280 472L3270 481L3237 463C3196 478 3179 482 3152 482C3124 482 3104 477 3077 464C3015 433 2982 403 2957 354C2913 265 2882 145 2882 67C2882 23 2897 -11 2916 -11C2953 -11 3033 41 3149 204ZM3197 414C3175 305 3156 253 3122 201C3065 117 3004 59 2972 59C2960 59 2954 72 2954 99C2954 163 2982 280 3017 360C3041 415 3064 433 3112 433C3135 433 3153 429 3197 414ZM3352 148C3347 97 3341 62 3330 16C3368 -2 3402 -11 3437 -11C3486 -11 3532 7 3583 47C3634 87 3655 124 3655 174C3655 228 3623 257 3549 271L3506 279C3446 290 3427 307 3427 348C3427 401 3472 442 3529 442C3570 442 3608 424 3624 397L3624 342L3647 342C3651 377 3655 404 3666 455C3627 474 3599 482 3566 482C3514 482 3453 452 3405 404C3379 377 3368 352 3368 316C3368 260 3399 228 3465 215L3528 203C3572 195 3588 177 3588 138C3588 73 3542 29 3471 29C3436 29 3405 40 3377 64L3377 148ZM3989 148C3984 97 3978 62 3967 16C4005 -2 4039 -11 4074 -11C4123 -11 4169 7 4220 47C4271 87 4292 124 4292 174C4292 228 4260 257 4186 271L4143 279C4083 290 4064 307 4064 348C4064 401 4109 442 4166 442C4207 442 4245 424 4261 397L4261 342L4284 342C4288 377 4292 404 4303 455C4264 474 4236 482 4203 482C4151 482 4090 452 4042 404C4016 377 4005 352 4005 316C4005 260 4036 228 4102 215L4165 203C4209 195 4225 177 4225 138C4225 73 4179 29 4108 29C4073 29 4042 40 4014 64L4014 148ZM4363 152C4363 46 4408 -11 4491 -11C4546 -11 4606 15 4651 57C4713 116 4757 230 4757 331C4757 425 4707 482 4624 482C4520 482 4363 382 4363 152ZM4587 444C4648 444 4681 399 4681 315C4681 219 4650 113 4606 60C4588 39 4562 27 4531 27C4473 27 4439 72 4439 151C4439 264 4478 387 4527 427C4540 438 4563 444 4587 444ZM5040 722L5028 733C4976 707 4940 698 4868 691L4864 670L4912 670C4936 670 4946 663 4946 648C4946 645 4946 640 4943 622C4932 567 4859 182 4844 132C4831 82 4825 52 4825 31C4825 6 4836 -9 4855 -9C4881 -9 4917 12 5015 85L5005 103L4979 86C4950 67 4928 56 4918 56C4911 56 4905 66 4905 76C4905 82 4906 89 4909 104ZM5558 473L5551 482L5483 465L5473 414C5458 336 5433 268 5402 221C5343 130 5265 59 5225 59C5217 59 5212 68 5212 85C5212 99 5214 112 5219 137L5276 408C5279 424 5281 438 5281 451C5281 470 5272 482 5258 482C5238 482 5200 461 5126 408L5098 388L5105 368L5137 389C5165 407 5176 412 5185 412C5194 412 5202 403 5202 392C5202 388 5201 378 5200 374L5137 77C5135 68 5133 44 5133 30C5133 7 5148 -11 5168 -11C5231 -11 5352 101 5436 239L5399 97C5392 73 5388 46 5388 31C5388 6 5399 -9 5418 -9C5444 -9 5480 12 5578 85L5568 103L5542 86C5518 70 5492 59 5481 59C5473 59 5468 66 5468 76C5468 112 5543 416 5558 473ZM5963 330L5986 330C5994 395 6001 432 6010 458C5986 473 5951 482 5914 482C5869 483 5796 463 5739 400C5685 352 5646 241 5646 136C5646 40 5688 -11 5768 -11C5822 -11 5870 9 5925 54L5975 95L5967 115L5952 105C5880 57 5842 40 5807 40C5751 40 5722 80 5722 159C5722 267 5757 371 5806 409C5827 425 5851 433 5882 433C5927 433 5963 414 5963 390ZM6061 388L6068 368L6100 389C6137 412 6140 414 6147 414C6157 414 6165 404 6165 391C6165 384 6161 361 6157 347L6091 107C6083 76 6078 49 6078 30C6078 6 6089 -9 6108 -9C6134 -9 6170 12 6268 85L6258 103L6232 86C6203 67 6180 56 6171 56C6164 56 6158 66 6158 76C6158 86 6160 95 6165 116L6242 420C6246 437 6248 448 6248 456C6248 473 6239 482 6223 482C6201 482 6164 461 6089 408ZM6255 712C6226 712 6197 679 6197 645C6197 620 6212 604 6236 604C6267 604 6291 633 6291 671C6291 695 6276 712 6255 712ZM6321 152C6321 46 6366 -11 6449 -11C6504 -11 6564 15 6609 57C6671 116 6715 230 6715 331C6715 425 6665 482 6582 482C6478 482 6321 382 6321 152ZM6545 444C6606 444 6639 399 6639 315C6639 219 6608 113 6564 60C6546 39 6520 27 6489 27C6431 27 6397 72 6397 151C6397 264 6436 387 6485 427C6498 438 6521 444 6545 444ZM6771 388L6778 368L6810 389C6847 412 6850 414 6857 414C6868 414 6875 404 6875 389C6875 338 6834 145 6793 2L6800 -9C6825 -2 6848 4 6870 8C6889 134 6910 199 6956 268C7010 352 7085 414 7130 414C7141 414 7147 405 7147 390C7147 372 7144 351 7136 319L7084 107C7075 70 7071 47 7071 31C7071 6 7082 -9 7101 -9C7127 -9 7163 12 7261 85L7251 103L7225 86C7196 67 7174 56 7164 56C7157 56 7151 65 7151 76C7151 81 7152 92 7153 96L7219 372C7226 401 7230 429 7230 446C7230 469 7219 482 7199 482C7157 482 7088 444 7029 389C6991 354 6963 320 6911 247L6949 408C6953 426 6955 438 6955 449C6955 470 6947 482 6932 482C6911 482 6872 460 6799 408ZM7630 111L7606 94C7553 56 7505 36 7469 36C7422 36 7393 73 7393 133C7393 158 7396 185 7401 214C7418 218 7527 248 7552 259C7637 296 7676 342 7676 404C7676 451 7642 482 7592 482C7524 496 7414 423 7377 349C7347 299 7317 180 7317 113C7317 35 7361 -11 7433 -11C7490 -11 7546 17 7638 92ZM7415 274C7432 343 7452 386 7481 412C7499 428 7530 440 7554 440C7583 440 7602 420 7602 388C7602 344 7567 297 7515 272C7487 258 7451 247 7406 237ZM7721 148C7716 97 7710 62 7699 16C7737 -2 7771 -11 7806 -11C7855 -11 7901 7 7952 47C8003 87 8024 124 8024 174C8024 228 7992 257 7918 271L7875 279C7815 290 7796 307 7796 348C7796 401 7841 442 7898 442C7939 442 7977 424 7993 397L7993 342L8016 342C8020 377 8024 404 8035 455C7996 474 7968 482 7935 482C7883 482 7822 452 7774 404C7748 377 7737 352 7737 316C7737 260 7768 228 7834 215L7897 203C7941 195 7957 177 7957 138C7957 73 7911 29 7840 29C7805 29 7774 40 7746 64L7746 148Z" stroke="rgb(74,144,226)" stroke-opacity="1" stroke-width="8" fill="rgb(74,144,226)" fill-opacity="1"></path></g></g></g><g><g><g transform="matrix(1,0,0,1,2,142.13499450683594)"><path transform="matrix(0.017,0,0,-0.017,0,0)" d="M146 266C146 526 243 632 301 700L282 726C225 675 60 542 60 266C60 159 85 58 133 -32C168 -99 200 -138 282 -215L301 -194C255 -137 146 -15 146 266Z" stroke="rgb(74,144,226)" stroke-opacity="1" stroke-width="8" fill="rgb(74,144,226)" fill-opacity="1"></path></g></g><g><g transform="matrix(1,0,0,1,7.654998779296875,141.1750030517578)"><path transform="matrix(0.017,0,0,-0.017,0,0)" d="M342 330L365 330C373 395 380 432 389 458C365 473 330 482 293 482C248 483 175 463 118 400C64 352 25 241 25 136C25 40 67 -11 147 -11C201 -11 249 9 304 54L354 95L346 115L331 105C259 57 221 40 186 40C130 40 101 80 101 159C101 267 136 371 185 409C206 425 230 433 261 433C306 433 342 414 342 390ZM423 152C423 46 468 -11 551 -11C606 -11 666 15 711 57C773 116 817 230 817 331C817 425 767 482 684 482C580 482 423 382 423 152ZM647 444C708 444 741 399 741 315C741 219 710 113 666 60C648 39 622 27 591 27C533 27 499 72 499 151C499 264 538 387 587 427C600 438 623 444 647 444ZM883 388L890 368L922 389C959 412 962 414 969 414C979 414 987 404 987 391C987 384 983 361 979 347L913 107C905 76 900 49 900 30C900 6 911 -9 930 -9C956 -9 992 12 1090 85L1080 103L1054 86C1025 67 1002 56 993 56C986 56 980 66 980 76C980 86 982 95 987 116L1064 420C1068 437 1070 448 1070 456C1070 473 1061 482 1045 482C1023 482 986 461 911 408ZM1077 712C1048 712 1019 679 1019 645C1019 620 1034 604 1058 604C1089 604 1113 633 1113 671C1113 695 1098 712 1077 712ZM1150 388L1157 368L1189 389C1226 412 1229 414 1236 414C1247 414 1254 404 1254 389C1254 338 1213 145 1172 2L1179 -9C1204 -2 1227 4 1249 8C1268 134 1289 199 1335 268C1389 352 1464 414 1509 414C1520 414 1526 405 1526 390C1526 372 1523 351 1515 319L1463 107C1454 70 1450 47 1450 31C1450 6 1461 -9 1480 -9C1506 -9 1542 12 1640 85L1630 103L1604 86C1575 67 1553 56 1543 56C1536 56 1530 65 1530 76C1530 81 1531 92 1532 96L1598 372C1605 401 1609 429 1609 446C1609 469 1598 482 1578 482C1536 482 1467 444 1408 389C1370 354 1342 320 1290 247L1328 408C1332 426 1334 438 1334 449C1334 470 1326 482 1311 482C1290 482 1251 460 1178 408ZM2023 330L2046 330C2054 395 2061 432 2070 458C2046 473 2011 482 1974 482C1929 483 1856 463 1799 400C1745 352 1706 241 1706 136C1706 40 1748 -11 1828 -11C1882 -11 1930 9 1985 54L2035 95L2027 115L2012 105C1940 57 1902 40 1867 40C1811 40 1782 80 1782 159C1782 267 1817 371 1866 409C1887 425 1911 433 1942 433C1987 433 2023 414 2023 390ZM2121 388L2128 368L2160 389C2197 412 2200 414 2207 414C2217 414 2225 404 2225 391C2225 384 2221 361 2217 347L2151 107C2143 76 2138 49 2138 30C2138 6 2149 -9 2168 -9C2194 -9 2230 12 2328 85L2318 103L2292 86C2263 67 2240 56 2231 56C2224 56 2218 66 2218 76C2218 86 2220 95 2225 116L2302 420C2306 437 2308 448 2308 456C2308 473 2299 482 2283 482C2261 482 2224 461 2149 408ZM2315 712C2286 712 2257 679 2257 645C2257 620 2272 604 2296 604C2327 604 2351 633 2351 671C2351 695 2336 712 2315 712ZM2847 722L2835 733C2783 707 2747 698 2675 691L2671 670L2719 670C2743 670 2753 663 2753 646C2753 638 2752 629 2751 622L2723 468C2693 477 2666 482 2641 482C2572 482 2478 410 2432 323C2401 265 2381 170 2381 86C2381 21 2396 -11 2425 -11C2452 -11 2489 6 2523 33C2577 77 2610 116 2677 217L2654 126C2643 82 2638 50 2638 24C2638 3 2647 -9 2664 -9C2681 -9 2705 3 2739 28L2820 88L2810 107L2766 76C2752 66 2736 59 2727 59C2719 59 2713 68 2713 82C2713 90 2714 99 2721 128ZM2478 59C2462 59 2453 73 2453 98C2453 224 2499 380 2548 418C2561 428 2580 433 2607 433C2651 433 2680 427 2713 410L2701 351C2664 171 2523 59 2478 59ZM3191 111L3167 94C3114 56 3066 36 3030 36C2983 36 2954 73 2954 133C2954 158 2957 185 2962 214C2979 218 3088 248 3113 259C3198 296 3237 342 3237 404C3237 451 3203 482 3153 482C3085 496 2975 423 2938 349C2908 299 2878 180 2878 113C2878 35 2922 -11 2994 -11C3051 -11 3107 17 3199 92ZM2976 274C2993 343 3013 386 3042 412C3060 428 3091 440 3115 440C3144 440 3163 420 3163 388C3163 344 3128 297 3076 272C3048 258 3012 247 2967 237ZM3275 388L3282 368L3314 389C3351 412 3354 414 3361 414C3372 414 3379 404 3379 389C3379 338 3338 145 3297 2L3304 -9C3329 -2 3352 4 3374 8C3393 134 3414 199 3460 268C3514 352 3589 414 3634 414C3645 414 3651 405 3651 390C3651 372 3648 351 3640 319L3588 107C3579 70 3575 47 3575 31C3575 6 3586 -9 3605 -9C3631 -9 3667 12 3765 85L3755 103L3729 86C3700 67 3678 56 3668 56C3661 56 3655 65 3655 76C3655 81 3656 92 3657 96L3723 372C3730 401 3734 429 3734 446C3734 469 3723 482 3703 482C3661 482 3592 444 3533 389C3495 354 3467 320 3415 247L3453 408C3457 426 3459 438 3459 449C3459 470 3451 482 3436 482C3415 482 3376 460 3303 408ZM3931 390L3875 107C3874 99 3862 61 3862 31C3862 6 3873 -9 3892 -9C3927 -9 3962 11 4040 74L4071 99L4061 117L4016 86C3987 66 3967 56 3956 56C3947 56 3942 64 3942 76C3942 102 3956 183 3985 328L3998 390L4105 390L4116 440C4078 436 4044 434 4006 434C4022 528 4033 577 4051 631L4040 646C4020 634 3993 622 3962 610L3937 440C3893 419 3867 408 3849 403L3847 390ZM4466 111L4442 94C4389 56 4341 36 4305 36C4258 36 4229 73 4229 133C4229 158 4232 185 4237 214C4254 218 4363 248 4388 259C4473 296 4512 342 4512 404C4512 451 4478 482 4428 482C4360 496 4250 423 4213 349C4183 299 4153 180 4153 113C4153 35 4197 -11 4269 -11C4326 -11 4382 17 4474 92ZM4251 274C4268 343 4288 386 4317 412C4335 428 4366 440 4390 440C4419 440 4438 420 4438 388C4438 344 4403 297 4351 272C4323 258 4287 247 4242 237ZM4557 148C4552 97 4546 62 4535 16C4573 -2 4607 -11 4642 -11C4691 -11 4737 7 4788 47C4839 87 4860 124 4860 174C4860 228 4828 257 4754 271L4711 279C4651 290 4632 307 4632 348C4632 401 4677 442 4734 442C4775 442 4813 424 4829 397L4829 342L4852 342C4856 377 4860 404 4871 455C4832 474 4804 482 4771 482C4719 482 4658 452 4610 404C4584 377 4573 352 4573 316C4573 260 4604 228 4670 215L4733 203C4777 195 4793 177 4793 138C4793 73 4747 29 4676 29C4641 29 4610 40 4582 64L4582 148Z" stroke="rgb(74,144,226)" stroke-opacity="1" stroke-width="8" fill="rgb(74,144,226)" fill-opacity="1"></path></g></g><g><g transform="matrix(1,0,0,1,91.16000366210938,142.13499450683594)"><path transform="matrix(0.017,0,0,-0.017,0,0)" d="M51 726L32 700C87 636 187 526 187 266C187 -10 83 -131 32 -194L51 -215C104 -165 273 -23 273 265C273 542 108 675 51 726Z" stroke="rgb(74,144,226)" stroke-opacity="1" stroke-width="8" fill="rgb(74,144,226)" fill-opacity="1"></path></g></g></g><g><g><g><g><g><g transform="matrix(1,0,0,1,4.17498779296875,161.3350067138672)"><path transform="matrix(0.017,0,0,-0.017,0,0)" d="M271 204L242 77C238 60 236 42 236 26C236 4 245 -9 260 -9C283 -9 324 17 406 85L399 106C375 86 346 59 324 59C315 59 309 68 309 82C309 87 309 90 310 93L402 472L392 481L359 463C318 478 301 482 274 482C246 482 226 477 199 464C137 433 104 403 79 354C35 265 4 145 4 67C4 23 19 -11 38 -11C75 -11 155 41 271 204ZM319 414C297 305 278 253 244 201C187 117 126 59 94 59C82 59 76 72 76 99C76 163 104 280 139 360C163 415 186 433 234 433C257 433 275 429 319 414Z" stroke="rgb(74,144,226)" stroke-opacity="1" stroke-width="8" fill="rgb(74,144,226)" fill-opacity="1"></path></g></g></g></g><g><g><g><g transform="matrix(1,0,0,1,3.69500732421875,186.6699981689453)"><path transform="matrix(0.017,0,0,-0.017,0,0)" d="M483 722L471 733C419 707 383 698 311 691L307 670L355 670C379 670 389 663 389 646C389 638 388 629 387 622L359 468C329 477 302 482 277 482C208 482 114 410 68 323C37 265 17 170 17 86C17 21 32 -11 61 -11C88 -11 125 6 159 33C213 77 246 116 313 217L290 126C279 82 274 50 274 24C274 3 283 -9 300 -9C317 -9 341 3 375 28L456 88L446 107L402 76C388 66 372 59 363 59C355 59 349 68 349 82C349 90 350 99 357 128ZM114 59C98 59 89 73 89 98C89 224 135 380 184 418C197 428 216 433 243 433C287 433 316 427 349 410L337 351C300 171 159 59 114 59Z" stroke="rgb(74,144,226)" stroke-opacity="1" stroke-width="8" fill="rgb(74,144,226)" fill-opacity="1"></path></g></g></g></g><line style="fill:none;stroke-width:0.99px;stroke:rgb(74, 144, 226);" x1="3.69500732421875" y1="169.53499817848206" x2="12.18500804901123" y2="169.53499817848206"></line></g><g><g transform="matrix(1,0,0,1,18.97998046875,173.5)"><path transform="matrix(0.017,0,0,-0.017,0,0)" d="M604 347L604 406L65 406L65 347ZM604 134L604 193L65 193L65 134Z" stroke="rgb(74,144,226)" stroke-opacity="1" stroke-width="8" fill="rgb(74,144,226)" fill-opacity="1"></path></g></g><g><g><g><g><g transform="matrix(1,0,0,1,37.1300048828125,161.3350067138672)"><path transform="matrix(0.017,0,0,-0.017,0,0)" d="M235 722L223 733C171 707 135 698 63 691L59 670L107 670C131 670 141 663 141 646C141 639 140 628 139 622L38 71C37 68 37 64 37 61C37 22 85 -11 140 -11C177 -11 228 8 271 39C367 107 433 244 433 376C433 414 424 453 412 468C405 477 392 482 377 482C353 482 323 474 295 460C244 433 211 403 149 324ZM322 424C348 424 361 401 361 352C361 288 340 202 310 137C277 68 237 36 183 36C137 36 112 59 112 101C112 135 127 276 208 361C241 395 293 424 322 424Z" stroke="rgb(74,144,226)" stroke-opacity="1" stroke-width="8" fill="rgb(74,144,226)" fill-opacity="1"></path></g></g></g></g><g><g><g><g transform="matrix(1,0,0,1,37.759979248046875,186.6699981689453)"><path transform="matrix(0.017,0,0,-0.017,0,0)" d="M328 111L304 94C251 56 203 36 167 36C120 36 91 73 91 133C91 158 94 185 99 214C116 218 225 248 250 259C335 296 374 342 374 404C374 451 340 482 290 482C222 496 112 423 75 349C45 299 15 180 15 113C15 35 59 -11 131 -11C188 -11 244 17 336 92ZM113 274C130 343 150 386 179 412C197 428 228 440 252 440C281 440 300 420 300 388C300 344 265 297 213 272C185 258 149 247 104 237Z" stroke="rgb(74,144,226)" stroke-opacity="1" stroke-width="8" fill="rgb(74,144,226)" fill-opacity="1"></path></g></g></g></g><line style="fill:none;stroke-width:0.99px;stroke:rgb(74, 144, 226);" x1="37.1300048828125" y1="169.53499817848206" x2="44.990005016326904" y2="169.53499817848206"></line></g><g><g transform="matrix(1,0,0,1,51.785003662109375,173.5)"><path transform="matrix(0.017,0,0,-0.017,0,0)" d="M604 347L604 406L65 406L65 347ZM604 134L604 193L65 193L65 134Z" stroke="rgb(74,144,226)" stroke-opacity="1" stroke-width="8" fill="rgb(74,144,226)" fill-opacity="1"></path></g></g><g><g><g><g><g transform="matrix(1,0,0,1,71.16500854492188,161.3350067138672)"><path transform="matrix(0.017,0,0,-0.017,0,0)" d="M342 330L365 330C373 395 380 432 389 458C365 473 330 482 293 482C248 483 175 463 118 400C64 352 25 241 25 136C25 40 67 -11 147 -11C201 -11 249 9 304 54L354 95L346 115L331 105C259 57 221 40 186 40C130 40 101 80 101 159C101 267 136 371 185 409C206 425 230 433 261 433C306 433 342 414 342 390Z" stroke="rgb(74,144,226)" stroke-opacity="1" stroke-width="8" fill="rgb(74,144,226)" fill-opacity="1"></path></g></g></g></g><g><g><g><g transform="matrix(1,0,0,1,69.93496704101562,186.6699981689453)"><path transform="matrix(0.017,0,0,-0.017,0,0)" d="M345 437L329 437L350 549C366 635 394 673 440 673C470 673 497 658 512 634L522 638C527 654 537 685 545 705L550 720C534 727 503 733 480 733C469 733 453 730 445 726C421 715 339 654 316 630C294 608 282 578 271 521L256 442C215 422 195 414 170 405L165 383L246 383L237 327C207 132 170 -54 148 -123C130 -182 100 -213 64 -213C41 -213 30 -206 12 -184L-2 -188C-6 -211 -20 -259 -25 -268C-16 -273 -1 -276 10 -276C51 -276 105 -245 144 -198C215 -114 235 -18 319 383L423 383C427 402 434 425 440 439L436 446C407 439 408 437 345 437Z" stroke="rgb(74,144,226)" stroke-opacity="1" stroke-width="8" fill="rgb(74,144,226)" fill-opacity="1"></path></g></g></g></g><line style="fill:none;stroke-width:0.99px;stroke:rgb(74, 144, 226);" x1="69.93496704101562" y1="169.53499817848206" x2="79.29496765136719" y2="169.53499817848206"></line></g></g><g></g><g><g><g transform="matrix(1,0,0,1,2,226.99000549316406)"><path transform="matrix(0.017,0,0,-0.017,0,0)" d="M108 471C108 386 146 339 230 319L325 296C379 283 406 248 406 191C406 96 335 30 232 30C178 30 140 42 96 73L96 172L66 172C60 117 53 72 42 20C91 -5 144 -18 197 -18C352 -18 485 99 485 234C485 313 442 355 341 377L276 391C210 405 180 442 180 508C180 595 247 658 339 658C388 658 421 645 451 613L451 537L481 537C485 591 492 629 506 672C461 696 421 706 374 706C250 706 108 614 108 471ZM589 388L596 368L628 389C665 412 668 414 675 414C685 414 693 404 693 391C693 384 689 361 685 347L619 107C611 76 606 49 606 30C606 6 617 -9 636 -9C662 -9 698 12 796 85L786 103L760 86C731 67 708 56 699 56C692 56 686 66 686 76C686 86 688 95 693 116L770 420C774 437 776 448 776 456C776 473 767 482 751 482C729 482 692 461 617 408ZM783 712C754 712 725 679 725 645C725 620 740 604 764 604C795 604 819 633 819 671C819 695 804 712 783 712ZM856 388L863 368L895 389C932 412 935 414 942 414C953 414 960 404 960 389C960 338 919 145 878 2L885 -9C910 -2 933 4 955 8C974 134 995 199 1041 268C1095 352 1170 414 1215 414C1226 414 1232 405 1232 390C1232 372 1229 351 1221 319L1169 107C1160 70 1156 47 1156 31C1156 6 1167 -9 1186 -9C1212 -9 1248 12 1346 85L1336 103L1310 86C1281 67 1259 56 1249 56C1242 56 1236 65 1236 76C1236 81 1237 92 1238 96L1304 372C1311 401 1315 429 1315 446C1315 469 1304 482 1284 482C1242 482 1173 444 1114 389C1076 354 1048 320 996 247L1034 408C1038 426 1040 438 1040 449C1040 470 1032 482 1017 482C996 482 957 460 884 408ZM1667 148C1662 97 1656 62 1645 16C1683 -2 1717 -11 1752 -11C1801 -11 1847 7 1898 47C1949 87 1970 124 1970 174C1970 228 1938 257 1864 271L1821 279C1761 290 1742 307 1742 348C1742 401 1787 442 1844 442C1885 442 1923 424 1939 397L1939 342L1962 342C1966 377 1970 404 1981 455C1942 474 1914 482 1881 482C1829 482 1768 452 1720 404C1694 377 1683 352 1683 316C1683 260 1714 228 1780 215L1843 203C1887 195 1903 177 1903 138C1903 73 1857 29 1786 29C1751 29 1720 40 1692 64L1692 148ZM2041 152C2041 46 2086 -11 2169 -11C2224 -11 2284 15 2329 57C2391 116 2435 230 2435 331C2435 425 2385 482 2302 482C2198 482 2041 382 2041 152ZM2265 444C2326 444 2359 399 2359 315C2359 219 2328 113 2284 60C2266 39 2240 27 2209 27C2151 27 2117 72 2117 151C2117 264 2156 387 2205 427C2218 438 2241 444 2265 444ZM2718 722L2706 733C2654 707 2618 698 2546 691L2542 670L2590 670C2614 670 2624 663 2624 648C2624 645 2624 640 2621 622C2610 567 2537 182 2522 132C2509 82 2503 52 2503 31C2503 6 2514 -9 2533 -9C2559 -9 2595 12 2693 85L2683 103L2657 86C2628 67 2606 56 2596 56C2589 56 2583 66 2583 76C2583 82 2584 89 2587 104ZM3236 473L3229 482L3161 465L3151 414C3136 336 3111 268 3080 221C3021 130 2943 59 2903 59C2895 59 2890 68 2890 85C2890 99 2892 112 2897 137L2954 408C2957 424 2959 438 2959 451C2959 470 2950 482 2936 482C2916 482 2878 461 2804 408L2776 388L2783 368L2815 389C2843 407 2854 412 2863 412C2872 412 2880 403 2880 392C2880 388 2879 378 2878 374L2815 77C2813 68 2811 44 2811 30C2811 7 2826 -11 2846 -11C2909 -11 3030 101 3114 239L3077 97C3070 73 3066 46 3066 31C3066 6 3077 -9 3096 -9C3122 -9 3158 12 3256 85L3246 103L3220 86C3196 70 3170 59 3159 59C3151 59 3146 66 3146 76C3146 112 3221 416 3236 473ZM3641 330L3664 330C3672 395 3679 432 3688 458C3664 473 3629 482 3592 482C3547 483 3474 463 3417 400C3363 352 3324 241 3324 136C3324 40 3366 -11 3446 -11C3500 -11 3548 9 3603 54L3653 95L3645 115L3630 105C3558 57 3520 40 3485 40C3429 40 3400 80 3400 159C3400 267 3435 371 3484 409C3505 425 3529 433 3560 433C3605 433 3641 414 3641 390ZM3739 388L3746 368L3778 389C3815 412 3818 414 3825 414C3835 414 3843 404 3843 391C3843 384 3839 361 3835 347L3769 107C3761 76 3756 49 3756 30C3756 6 3767 -9 3786 -9C3812 -9 3848 12 3946 85L3936 103L3910 86C3881 67 3858 56 3849 56C3842 56 3836 66 3836 76C3836 86 3838 95 3843 116L3920 420C3924 437 3926 448 3926 456C3926 473 3917 482 3901 482C3879 482 3842 461 3767 408ZM3933 712C3904 712 3875 679 3875 645C3875 620 3890 604 3914 604C3945 604 3969 633 3969 671C3969 695 3954 712 3933 712ZM3999 152C3999 46 4044 -11 4127 -11C4182 -11 4242 15 4287 57C4349 116 4393 230 4393 331C4393 425 4343 482 4260 482C4156 482 3999 382 3999 152ZM4223 444C4284 444 4317 399 4317 315C4317 219 4286 113 4242 60C4224 39 4198 27 4167 27C4109 27 4075 72 4075 151C4075 264 4114 387 4163 427C4176 438 4199 444 4223 444ZM4449 388L4456 368L4488 389C4525 412 4528 414 4535 414C4546 414 4553 404 4553 389C4553 338 4512 145 4471 2L4478 -9C4503 -2 4526 4 4548 8C4567 134 4588 199 4634 268C4688 352 4763 414 4808 414C4819 414 4825 405 4825 390C4825 372 4822 351 4814 319L4762 107C4753 70 4749 47 4749 31C4749 6 4760 -9 4779 -9C4805 -9 4841 12 4939 85L4929 103L4903 86C4874 67 4852 56 4842 56C4835 56 4829 65 4829 76C4829 81 4830 92 4831 96L4897 372C4904 401 4908 429 4908 446C4908 469 4897 482 4877 482C4835 482 4766 444 4707 389C4669 354 4641 320 4589 247L4627 408C4631 426 4633 438 4633 449C4633 470 4625 482 4610 482C4589 482 4550 460 4477 408Z" stroke="rgb(74,144,226)" stroke-opacity="1" stroke-width="8" fill="rgb(74,144,226)" fill-opacity="1"></path></g></g></g><g><g><g transform="matrix(1,0,0,1,2,248.11000061035156)"><path transform="matrix(0.017,0,0,-0.017,0,0)" d="M146 266C146 526 243 632 301 700L282 726C225 675 60 542 60 266C60 159 85 58 133 -32C168 -99 200 -138 282 -215L301 -194C255 -137 146 -15 146 266Z" stroke="rgb(74,144,226)" stroke-opacity="1" stroke-width="8" fill="rgb(74,144,226)" fill-opacity="1"></path></g></g><g><g transform="matrix(1,0,0,1,7.654998779296875,247.15000915527344)"><path transform="matrix(0.017,0,0,-0.017,0,0)" d="M176 -11C232 -11 347 62 390 125C431 186 465 296 465 371C465 438 442 482 406 482C364 482 311 456 259 409C218 374 198 348 162 289L186 408C189 425 191 440 191 452C191 471 183 482 169 482C148 482 110 461 36 408L8 388L15 368L47 389C75 407 86 412 95 412C105 412 112 403 112 389C112 381 110 361 108 351L50 8C40 -52 21 -143 1 -233L-7 -270L0 -276C21 -269 41 -264 73 -259L115 3C136 -4 158 -11 176 -11ZM143 165C165 293 272 424 355 424C381 424 393 402 393 356C393 275 353 156 300 80C280 51 248 36 207 36C176 36 151 43 125 59ZM770 204L741 77C737 60 735 42 735 26C735 4 744 -9 759 -9C782 -9 823 17 905 85L898 106C874 86 845 59 823 59C814 59 808 68 808 82C808 87 808 90 809 93L901 472L891 481L858 463C817 478 800 482 773 482C745 482 725 477 698 464C636 433 603 403 578 354C534 265 503 145 503 67C503 23 518 -11 537 -11C574 -11 654 41 770 204ZM818 414C796 305 777 253 743 201C686 117 625 59 593 59C581 59 575 72 575 99C575 163 603 280 638 360C662 415 685 433 733 433C756 433 774 429 818 414ZM1310 365C1313 403 1318 435 1326 476C1315 481 1311 482 1306 482C1275 482 1244 458 1208 407C1169 351 1130 291 1114 256L1146 408C1150 425 1152 438 1152 450C1152 470 1144 482 1129 482C1108 482 1070 461 996 408L968 388L975 368L1007 389C1035 407 1046 412 1055 412C1065 412 1072 403 1072 390C1072 332 1029 126 989 -2L999 -9C1014 -4 1030 -1 1053 4L1066 6L1092 126C1110 209 1133 262 1177 319C1211 363 1238 384 1260 384C1275 384 1285 379 1296 365ZM1601 204L1572 77C1568 60 1566 42 1566 26C1566 4 1575 -9 1590 -9C1613 -9 1654 17 1736 85L1729 106C1705 86 1676 59 1654 59C1645 59 1639 68 1639 82C1639 87 1639 90 1640 93L1732 472L1722 481L1689 463C1648 478 1631 482 1604 482C1576 482 1556 477 1529 464C1467 433 1434 403 1409 354C1365 265 1334 145 1334 67C1334 23 1349 -11 1368 -11C1405 -11 1485 41 1601 204ZM1649 414C1627 305 1608 253 1574 201C1517 117 1456 59 1424 59C1412 59 1406 72 1406 99C1406 163 1434 280 1469 360C1493 415 1516 433 1564 433C1587 433 1605 429 1649 414ZM2024 722L2012 733C1960 707 1924 698 1852 691L1848 670L1896 670C1920 670 1930 663 1930 648C1930 645 1930 640 1927 622C1916 567 1843 182 1828 132C1815 82 1809 52 1809 31C1809 6 1820 -9 1839 -9C1865 -9 1901 12 1999 85L1989 103L1963 86C1934 67 1912 56 1902 56C1895 56 1889 66 1889 76C1889 82 1890 89 1893 104ZM2378 111L2354 94C2301 56 2253 36 2217 36C2170 36 2141 73 2141 133C2141 158 2144 185 2149 214C2166 218 2275 248 2300 259C2385 296 2424 342 2424 404C2424 451 2390 482 2340 482C2272 496 2162 423 2125 349C2095 299 2065 180 2065 113C2065 35 2109 -11 2181 -11C2238 -11 2294 17 2386 92ZM2163 274C2180 343 2200 386 2229 412C2247 428 2278 440 2302 440C2331 440 2350 420 2350 388C2350 344 2315 297 2263 272C2235 258 2199 247 2154 237ZM2689 722L2677 733C2625 707 2589 698 2517 691L2513 670L2561 670C2585 670 2595 663 2595 648C2595 645 2595 640 2592 622C2581 567 2508 182 2493 132C2480 82 2474 52 2474 31C2474 6 2485 -9 2504 -9C2530 -9 2566 12 2664 85L2654 103L2628 86C2599 67 2577 56 2567 56C2560 56 2554 66 2554 76C2554 82 2555 89 2558 104ZM2986 204L2957 77C2953 60 2951 42 2951 26C2951 4 2960 -9 2975 -9C2998 -9 3039 17 3121 85L3114 106C3090 86 3061 59 3039 59C3030 59 3024 68 3024 82C3024 87 3024 90 3025 93L3117 472L3107 481L3074 463C3033 478 3016 482 2989 482C2961 482 2941 477 2914 464C2852 433 2819 403 2794 354C2750 265 2719 145 2719 67C2719 23 2734 -11 2753 -11C2790 -11 2870 41 2986 204ZM3034 414C3012 305 2993 253 2959 201C2902 117 2841 59 2809 59C2797 59 2791 72 2791 99C2791 163 2819 280 2854 360C2878 415 2901 433 2949 433C2972 433 2990 429 3034 414ZM3189 148C3184 97 3178 62 3167 16C3205 -2 3239 -11 3274 -11C3323 -11 3369 7 3420 47C3471 87 3492 124 3492 174C3492 228 3460 257 3386 271L3343 279C3283 290 3264 307 3264 348C3264 401 3309 442 3366 442C3407 442 3445 424 3461 397L3461 342L3484 342C3488 377 3492 404 3503 455C3464 474 3436 482 3403 482C3351 482 3290 452 3242 404C3216 377 3205 352 3205 316C3205 260 3236 228 3302 215L3365 203C3409 195 3425 177 3425 138C3425 73 3379 29 3308 29C3273 29 3242 40 3214 64L3214 148Z" stroke="rgb(74,144,226)" stroke-opacity="1" stroke-width="8" fill="rgb(74,144,226)" fill-opacity="1"></path></g></g><g><g transform="matrix(1,0,0,1,67.91000366210938,248.11000061035156)"><path transform="matrix(0.017,0,0,-0.017,0,0)" d="M51 726L32 700C87 636 187 526 187 266C187 -10 83 -131 32 -194L51 -215C104 -165 273 -23 273 265C273 542 108 675 51 726Z" stroke="rgb(74,144,226)" stroke-opacity="1" stroke-width="8" fill="rgb(74,144,226)" fill-opacity="1"></path></g></g></g><g><g><g><g><g><g transform="matrix(1,0,0,1,4.17498779296875,267.3100128173828)"><path transform="matrix(0.017,0,0,-0.017,0,0)" d="M271 204L242 77C238 60 236 42 236 26C236 4 245 -9 260 -9C283 -9 324 17 406 85L399 106C375 86 346 59 324 59C315 59 309 68 309 82C309 87 309 90 310 93L402 472L392 481L359 463C318 478 301 482 274 482C246 482 226 477 199 464C137 433 104 403 79 354C35 265 4 145 4 67C4 23 19 -11 38 -11C75 -11 155 41 271 204ZM319 414C297 305 278 253 244 201C187 117 126 59 94 59C82 59 76 72 76 99C76 163 104 280 139 360C163 415 186 433 234 433C257 433 275 429 319 414Z" stroke="rgb(74,144,226)" stroke-opacity="1" stroke-width="8" fill="rgb(74,144,226)" fill-opacity="1"></path></g></g></g></g><g><g><g><g transform="matrix(1,0,0,1,3.69500732421875,292.64500427246094)"><path transform="matrix(0.017,0,0,-0.017,0,0)" d="M483 722L471 733C419 707 383 698 311 691L307 670L355 670C379 670 389 663 389 646C389 638 388 629 387 622L359 468C329 477 302 482 277 482C208 482 114 410 68 323C37 265 17 170 17 86C17 21 32 -11 61 -11C88 -11 125 6 159 33C213 77 246 116 313 217L290 126C279 82 274 50 274 24C274 3 283 -9 300 -9C317 -9 341 3 375 28L456 88L446 107L402 76C388 66 372 59 363 59C355 59 349 68 349 82C349 90 350 99 357 128ZM114 59C98 59 89 73 89 98C89 224 135 380 184 418C197 428 216 433 243 433C287 433 316 427 349 410L337 351C300 171 159 59 114 59Z" stroke="rgb(74,144,226)" stroke-opacity="1" stroke-width="8" fill="rgb(74,144,226)" fill-opacity="1"></path></g></g></g></g><line style="fill:none;stroke-width:0.99px;stroke:rgb(74, 144, 226);" x1="3.69500732421875" y1="275.5100042819977" x2="12.18500804901123" y2="275.5100042819977"></line></g><g><g transform="matrix(1,0,0,1,18.97998046875,279.4750213623047)"><path transform="matrix(0.017,0,0,-0.017,0,0)" d="M604 347L604 406L65 406L65 347ZM604 134L604 193L65 193L65 134Z" stroke="rgb(74,144,226)" stroke-opacity="1" stroke-width="8" fill="rgb(74,144,226)" fill-opacity="1"></path></g></g><g><g><g><g><g transform="matrix(1,0,0,1,37.1300048828125,267.3100128173828)"><path transform="matrix(0.017,0,0,-0.017,0,0)" d="M235 722L223 733C171 707 135 698 63 691L59 670L107 670C131 670 141 663 141 646C141 639 140 628 139 622L38 71C37 68 37 64 37 61C37 22 85 -11 140 -11C177 -11 228 8 271 39C367 107 433 244 433 376C433 414 424 453 412 468C405 477 392 482 377 482C353 482 323 474 295 460C244 433 211 403 149 324ZM322 424C348 424 361 401 361 352C361 288 340 202 310 137C277 68 237 36 183 36C137 36 112 59 112 101C112 135 127 276 208 361C241 395 293 424 322 424Z" stroke="rgb(74,144,226)" stroke-opacity="1" stroke-width="8" fill="rgb(74,144,226)" fill-opacity="1"></path></g></g></g></g><g><g><g><g transform="matrix(1,0,0,1,37.759979248046875,292.64500427246094)"><path transform="matrix(0.017,0,0,-0.017,0,0)" d="M328 111L304 94C251 56 203 36 167 36C120 36 91 73 91 133C91 158 94 185 99 214C116 218 225 248 250 259C335 296 374 342 374 404C374 451 340 482 290 482C222 496 112 423 75 349C45 299 15 180 15 113C15 35 59 -11 131 -11C188 -11 244 17 336 92ZM113 274C130 343 150 386 179 412C197 428 228 440 252 440C281 440 300 420 300 388C300 344 265 297 213 272C185 258 149 247 104 237Z" stroke="rgb(74,144,226)" stroke-opacity="1" stroke-width="8" fill="rgb(74,144,226)" fill-opacity="1"></path></g></g></g></g><line style="fill:none;stroke-width:0.99px;stroke:rgb(74, 144, 226);" x1="37.1300048828125" y1="275.5100042819977" x2="44.990005016326904" y2="275.5100042819977"></line></g><g><g transform="matrix(1,0,0,1,51.785003662109375,279.4750213623047)"><path transform="matrix(0.017,0,0,-0.017,0,0)" d="M604 135L604 194L333 194L394 348L604 348L604 407L418 407L493 596L436 596L361 406L65 406L65 347L337 347L276 193L65 193L65 134L252 134L177 -55L234 -55L308 135Z" stroke="rgb(74,144,226)" stroke-opacity="1" stroke-width="8" fill="rgb(74,144,226)" fill-opacity="1"></path></g></g><g><g><g><g><g transform="matrix(1,0,0,1,71.16500854492188,267.3100128173828)"><path transform="matrix(0.017,0,0,-0.017,0,0)" d="M342 330L365 330C373 395 380 432 389 458C365 473 330 482 293 482C248 483 175 463 118 400C64 352 25 241 25 136C25 40 67 -11 147 -11C201 -11 249 9 304 54L354 95L346 115L331 105C259 57 221 40 186 40C130 40 101 80 101 159C101 267 136 371 185 409C206 425 230 433 261 433C306 433 342 414 342 390Z" stroke="rgb(74,144,226)" stroke-opacity="1" stroke-width="8" fill="rgb(74,144,226)" fill-opacity="1"></path></g></g></g></g><g><g><g><g transform="matrix(1,0,0,1,69.93496704101562,292.64500427246094)"><path transform="matrix(0.017,0,0,-0.017,0,0)" d="M345 437L329 437L350 549C366 635 394 673 440 673C470 673 497 658 512 634L522 638C527 654 537 685 545 705L550 720C534 727 503 733 480 733C469 733 453 730 445 726C421 715 339 654 316 630C294 608 282 578 271 521L256 442C215 422 195 414 170 405L165 383L246 383L237 327C207 132 170 -54 148 -123C130 -182 100 -213 64 -213C41 -213 30 -206 12 -184L-2 -188C-6 -211 -20 -259 -25 -268C-16 -273 -1 -276 10 -276C51 -276 105 -245 144 -198C215 -114 235 -18 319 383L423 383C427 402 434 425 440 439L436 446C407 439 408 437 345 437Z" stroke="rgb(74,144,226)" stroke-opacity="1" stroke-width="8" fill="rgb(74,144,226)" fill-opacity="1"></path></g></g></g></g><line style="fill:none;stroke-width:0.99px;stroke:rgb(74, 144, 226);" x1="69.93496704101562" y1="275.5100042819977" x2="79.29496765136719" y2="275.5100042819977"></line></g></g></g></svg>