<svg xmlns="http://www.w3.org/2000/svg" xmlns:xlink="http://www.w3.org/1999/xlink" width="141.310009765625" height="128.51500244140624" style="width:141.310009765625px;height:128.51500244140624px;font-family:Asana-Math, Asana;background:#FFF;"><g><g><g><g transform="matrix(1,0,0,1,2,30.2050048828125)"><path transform="matrix(0.017,0,0,-0.017,0,0)" d="M983 722L971 733C926 711 885 697 811 691L807 670L855 670C873 670 889 667 889 647C889 641 889 632 887 622L845 388C825 272 783 80 757 2L764 -9L833 7C841 64 855 164 895 236C940 317 1043 414 1085 414C1096 414 1107 407 1107 393C1107 375 1102 342 1092 303L1041 107C1035 85 1028 55 1028 31C1028 6 1038 -9 1059 -9C1091 -9 1159 41 1218 85L1208 103L1182 86C1159 71 1133 56 1121 56C1114 56 1108 65 1108 76C1108 88 1111 101 1115 116L1179 372C1185 398 1190 423 1190 447C1190 464 1184 482 1158 482C1123 482 1046 437 978 374C945 343 919 308 891 273L887 275Z" stroke="rgb(0,0,0)" stroke-opacity="1" stroke-width="8" fill="rgb(0,0,0)" fill-opacity="1"></path></g></g><g><g transform="matrix(1,0,0,1,28.280004882812534,30.2050048828125)"><path transform="matrix(0.017,0,0,-0.017,0,0)" d="M604 347L604 406L65 406L65 347ZM604 134L604 193L65 193L65 134Z" stroke="rgb(0,0,0)" stroke-opacity="1" stroke-width="8" fill="rgb(0,0,0)" fill-opacity="1"></path></g></g><g><g transform="matrix(1,0,0,1,44.73500976562502,30.2050048828125)"><path transform="matrix(0.017,0,0,-0.017,0,0)" d="M166 420C187 420 203 421 229 424C118 304 76 221 76 121C76 44 122 -11 186 -11C324 -11 477 236 477 384C477 441 451 482 415 482C402 482 390 478 382 470L332 423L343 404C352 410 361 413 370 413C397 413 413 390 413 350C413 202 316 39 228 39C179 39 148 81 148 146C148 251 187 342 285 464L275 482C255 473 242 470 214 470C186 470 144 472 115 475L103 476C97 477 92 477 91 477C79 477 70 475 59 470C45 443 34 407 21 352L43 352L60 394C67 411 87 422 111 422C144 422 128 420 166 420Z" stroke="rgb(0,0,0)" stroke-opacity="1" stroke-width="8" fill="rgb(0,0,0)" fill-opacity="1"></path></g></g><g><g><g><g><g transform="matrix(1,0,0,1,53.73500976562502,34.16500244140625)"><path transform="matrix(0.0119,0,0,-0.0119,0,0)" d="M263 689C108 689 29 566 29 324C29 207 50 106 85 57C120 8 176 -20 238 -20C389 -20 465 110 465 366C465 585 400 689 263 689ZM245 654C342 654 381 556 381 316C381 103 343 15 251 15C154 15 113 116 113 360C113 571 150 654 245 654Z" stroke="rgb(0,0,0)" stroke-opacity="1" stroke-width="8" fill="rgb(0,0,0)" fill-opacity="1"></path></g></g></g></g></g><g><g transform="matrix(1,0,0,1,60.69501953125001,30.2050048828125)"><path transform="matrix(0.017,0,0,-0.017,0,0)" d="M125 390L69 107C68 99 56 61 56 31C56 6 67 -9 86 -9C121 -9 156 11 234 74L265 99L255 117L210 86C181 66 161 56 150 56C141 56 136 64 136 76C136 102 150 183 179 328L192 390L299 390L310 440C272 436 238 434 200 434C216 528 227 577 245 631L234 646C214 634 187 622 156 610L131 440C87 419 61 408 43 403L41 390Z" stroke="rgb(0,0,0)" stroke-opacity="1" stroke-width="8" fill="rgb(0,0,0)" fill-opacity="1"></path></g></g><g><g transform="matrix(1,0,0,1,69.74001464843752,30.2050048828125)"><path transform="matrix(0.017,0,0,-0.017,0,0)" d="M604 241L604 300L364 300L364 538L305 538L305 300L65 300L65 241L305 241L305 0L364 0L364 241Z" stroke="rgb(0,0,0)" stroke-opacity="1" stroke-width="8" fill="rgb(0,0,0)" fill-opacity="1"></path></g></g><g><g><g><g><g transform="matrix(1,0,0,1,86.18000488281251,18.04000244140625)"><path transform="matrix(0.017,0,0,-0.017,0,0)" d="M418 -3L418 27L366 30C311 33 301 44 301 96L301 700L60 598L67 548L217 614L217 96C217 44 206 33 152 30L96 27L96 -3C250 0 250 0 261 0C292 0 402 -3 418 -3Z" stroke="rgb(0,0,0)" stroke-opacity="1" stroke-width="8" fill="rgb(0,0,0)" fill-opacity="1"></path></g></g></g></g><g><g><g><g transform="matrix(1,0,0,1,86.18000488281251,43.37501220703125)"><path transform="matrix(0.017,0,0,-0.017,0,0)" d="M16 23L16 -3C203 -3 203 0 239 0C275 0 275 -3 468 -3L468 82C353 77 307 81 122 77L304 270C401 373 431 428 431 503C431 618 353 689 226 689C154 689 105 669 56 619L39 483L68 483L81 529C97 587 133 612 200 612C286 612 341 558 341 473C341 398 299 324 186 204Z" stroke="rgb(0,0,0)" stroke-opacity="1" stroke-width="8" fill="rgb(0,0,0)" fill-opacity="1"></path></g></g></g></g><line style="fill:none;stroke-width:0.99px;stroke:rgb(0, 0, 0);" x1="86.18000488281251" y1="26.240012264251707" x2="94.67000503540044" y2="26.240012264251707"></line></g><g><g transform="matrix(1,0,0,1,96.36501464843752,30.2050048828125)"><path transform="matrix(0.017,0,0,-0.017,0,0)" d="M275 482C208 482 55 419 55 259C55 182 100 136 177 136C185 136 196 136 207 137L166 99C150 84 139 66 139 52C139 42 146 31 160 19C91 -4 -37 -48 -37 -159C-37 -230 33 -276 142 -276C271 -276 384 -204 384 -121C384 -85 363 -49 320 -14L260 35C226 62 213 81 213 100C213 114 228 128 240 146C338 170 409 253 409 342C409 357 406 376 405 380C422 378 430 378 439 378C456 378 466 379 489 382L498 427L495 433C467 426 447 424 393 424C393 425 369 482 275 482ZM176 1L253 -58C299 -94 318 -121 318 -154C318 -206 249 -248 166 -248C84 -248 27 -206 27 -145C27 -43 137 -11 176 1ZM250 448C308 448 337 412 337 341C337 238 289 168 219 168C158 168 126 209 126 288C126 383 177 448 250 448ZM624 390L568 107C567 99 555 61 555 31C555 6 566 -9 585 -9C620 -9 655 11 733 74L764 99L754 117L709 86C680 66 660 56 649 56C640 56 635 64 635 76C635 102 649 183 678 328L691 390L798 390L809 440C771 436 737 434 699 434C715 528 726 577 744 631L733 646C713 634 686 622 655 610L630 440C586 419 560 408 542 403L540 390Z" stroke="rgb(0,0,0)" stroke-opacity="1" stroke-width="8" fill="rgb(0,0,0)" fill-opacity="1"></path></g></g><g><g><g><g><g transform="matrix(1,0,0,1,111.47001953125005,25.30001220703125)"><path transform="matrix(0.0119,0,0,-0.0119,0,0)" d="M16 23L16 -3C203 -3 203 0 239 0C275 0 275 -3 468 -3L468 82C353 77 307 81 122 77L304 270C401 373 431 428 431 503C431 618 353 689 226 689C154 689 105 669 56 619L39 483L68 483L81 529C97 587 133 612 200 612C286 612 341 558 341 473C341 398 299 324 186 204Z" stroke="rgb(0,0,0)" stroke-opacity="1" stroke-width="8" fill="rgb(0,0,0)" fill-opacity="1"></path></g></g></g></g></g></g><g></g><g><g><g transform="matrix(1,0,0,1,2,80.69500732421875)"><path transform="matrix(0.017,0,0,-0.017,0,0)" d="M166 420C187 420 203 421 229 424C118 304 76 221 76 121C76 44 122 -11 186 -11C324 -11 477 236 477 384C477 441 451 482 415 482C402 482 390 478 382 470L332 423L343 404C352 410 361 413 370 413C397 413 413 390 413 350C413 202 316 39 228 39C179 39 148 81 148 146C148 251 187 342 285 464L275 482C255 473 242 470 214 470C186 470 144 472 115 475L103 476C97 477 92 477 91 477C79 477 70 475 59 470C45 443 34 407 21 352L43 352L60 394C67 411 87 422 111 422C144 422 128 420 166 420Z" stroke="rgb(0,0,0)" stroke-opacity="1" stroke-width="8" fill="rgb(0,0,0)" fill-opacity="1"></path></g></g><g><g><g><g><g transform="matrix(1,0,0,1,11,84.6550048828125)"><path transform="matrix(0.0119,0,0,-0.0119,0,0)" d="M263 689C108 689 29 566 29 324C29 207 50 106 85 57C120 8 176 -20 238 -20C389 -20 465 110 465 366C465 585 400 689 263 689ZM245 654C342 654 381 556 381 316C381 103 343 15 251 15C154 15 113 116 113 360C113 571 150 654 245 654Z" stroke="rgb(0,0,0)" stroke-opacity="1" stroke-width="8" fill="rgb(0,0,0)" fill-opacity="1"></path></g></g></g></g></g><g><g transform="matrix(1,0,0,1,21.350000000000023,80.69500732421875)"><path transform="matrix(0.017,0,0,-0.017,0,0)" d="M123 111C93 111 66 83 66 53C66 23 93 -5 122 -5C154 -5 182 22 182 53C182 83 154 111 123 111ZM123 456C93 456 66 428 66 398C66 368 93 340 122 340C154 340 182 367 182 397C182 428 154 456 123 456Z" stroke="rgb(0,0,0)" stroke-opacity="1" stroke-width="8" fill="rgb(0,0,0)" fill-opacity="1"></path></g></g><g><g transform="matrix(1,0,0,1,28.985009765625023,80.69500732421875)"><path transform="matrix(0.017,0,0,-0.017,0,0)" d="M166 420C187 420 203 421 229 424C118 304 76 221 76 121C76 44 122 -11 186 -11C324 -11 477 236 477 384C477 441 451 482 415 482C402 482 390 478 382 470L332 423L343 404C352 410 361 413 370 413C397 413 413 390 413 350C413 202 316 39 228 39C179 39 148 81 148 146C148 251 187 342 285 464L275 482C255 473 242 470 214 470C186 470 144 472 115 475L103 476C97 477 92 477 91 477C79 477 70 475 59 470C45 443 34 407 21 352L43 352L60 394C67 411 87 422 111 422C144 422 128 420 166 420ZM827 111L803 94C750 56 702 36 666 36C619 36 590 73 590 133C590 158 593 185 598 214C615 218 724 248 749 259C834 296 873 342 873 404C873 451 839 482 789 482C721 496 611 423 574 349C544 299 514 180 514 113C514 35 558 -11 630 -11C687 -11 743 17 835 92ZM612 274C629 343 649 386 678 412C696 428 727 440 751 440C780 440 799 420 799 388C799 344 764 297 712 272C684 258 648 247 603 237ZM1138 722L1126 733C1074 707 1038 698 966 691L962 670L1010 670C1034 670 1044 663 1044 648C1044 645 1044 640 1041 622C1030 567 957 182 942 132C929 82 923 52 923 31C923 6 934 -9 953 -9C979 -9 1015 12 1113 85L1103 103L1077 86C1048 67 1026 56 1016 56C1009 56 1003 66 1003 76C1003 82 1004 89 1007 104ZM1181 152C1181 46 1226 -11 1309 -11C1364 -11 1424 15 1469 57C1531 116 1575 230 1575 331C1575 425 1525 482 1442 482C1338 482 1181 382 1181 152ZM1405 444C1466 444 1499 399 1499 315C1499 219 1468 113 1424 60C1406 39 1380 27 1349 27C1291 27 1257 72 1257 151C1257 264 1296 387 1345 427C1358 438 1381 444 1405 444ZM1949 330L1972 330C1980 395 1987 432 1996 458C1972 473 1937 482 1900 482C1855 483 1782 463 1725 400C1671 352 1632 241 1632 136C1632 40 1674 -11 1754 -11C1808 -11 1856 9 1911 54L1961 95L1953 115L1938 105C1866 57 1828 40 1793 40C1737 40 1708 80 1708 159C1708 267 1743 371 1792 409C1813 425 1837 433 1868 433C1913 433 1949 414 1949 390ZM2047 388L2054 368L2086 389C2123 412 2126 414 2133 414C2143 414 2151 404 2151 391C2151 384 2147 361 2143 347L2077 107C2069 76 2064 49 2064 30C2064 6 2075 -9 2094 -9C2120 -9 2156 12 2254 85L2244 103L2218 86C2189 67 2166 56 2157 56C2150 56 2144 66 2144 76C2144 86 2146 95 2151 116L2228 420C2232 437 2234 448 2234 456C2234 473 2225 482 2209 482C2187 482 2150 461 2075 408ZM2241 712C2212 712 2183 679 2183 645C2183 620 2198 604 2222 604C2253 604 2277 633 2277 671C2277 695 2262 712 2241 712ZM2773 722L2761 733C2709 707 2673 698 2601 691L2597 670L2645 670C2669 670 2679 663 2679 646C2679 638 2678 629 2677 622L2649 468C2619 477 2592 482 2567 482C2498 482 2404 410 2358 323C2327 265 2307 170 2307 86C2307 21 2322 -11 2351 -11C2378 -11 2415 6 2449 33C2503 77 2536 116 2603 217L2580 126C2569 82 2564 50 2564 24C2564 3 2573 -9 2590 -9C2607 -9 2631 3 2665 28L2746 88L2736 107L2692 76C2678 66 2662 59 2653 59C2645 59 2639 68 2639 82C2639 90 2640 99 2647 128ZM2404 59C2388 59 2379 73 2379 98C2379 224 2425 380 2474 418C2487 428 2506 433 2533 433C2577 433 2606 427 2639 410L2627 351C2590 171 2449 59 2404 59ZM3060 204L3031 77C3027 60 3025 42 3025 26C3025 4 3034 -9 3049 -9C3072 -9 3113 17 3195 85L3188 106C3164 86 3135 59 3113 59C3104 59 3098 68 3098 82C3098 87 3098 90 3099 93L3191 472L3181 481L3148 463C3107 478 3090 482 3063 482C3035 482 3015 477 2988 464C2926 433 2893 403 2868 354C2824 265 2793 145 2793 67C2793 23 2808 -11 2827 -11C2864 -11 2944 41 3060 204ZM3108 414C3086 305 3067 253 3033 201C2976 117 2915 59 2883 59C2871 59 2865 72 2865 99C2865 163 2893 280 2928 360C2952 415 2975 433 3023 433C3046 433 3064 429 3108 414ZM3715 722L3703 733C3651 707 3615 698 3543 691L3539 670L3587 670C3611 670 3621 663 3621 646C3621 638 3620 629 3619 622L3591 468C3561 477 3534 482 3509 482C3440 482 3346 410 3300 323C3269 265 3249 170 3249 86C3249 21 3264 -11 3293 -11C3320 -11 3357 6 3391 33C3445 77 3478 116 3545 217L3522 126C3511 82 3506 50 3506 24C3506 3 3515 -9 3532 -9C3549 -9 3573 3 3607 28L3688 88L3678 107L3634 76C3620 66 3604 59 3595 59C3587 59 3581 68 3581 82C3581 90 3582 99 3589 128ZM3346 59C3330 59 3321 73 3321 98C3321 224 3367 380 3416 418C3429 428 3448 433 3475 433C3519 433 3548 427 3581 410L3569 351C3532 171 3391 59 3346 59ZM4014 388L4021 368L4053 389C4090 412 4093 414 4100 414C4110 414 4118 404 4118 391C4118 384 4114 361 4110 347L4044 107C4036 76 4031 49 4031 30C4031 6 4042 -9 4061 -9C4087 -9 4123 12 4221 85L4211 103L4185 86C4156 67 4133 56 4124 56C4117 56 4111 66 4111 76C4111 86 4113 95 4118 116L4195 420C4199 437 4201 448 4201 456C4201 473 4192 482 4176 482C4154 482 4117 461 4042 408ZM4208 712C4179 712 4150 679 4150 645C4150 620 4165 604 4189 604C4220 604 4244 633 4244 671C4244 695 4229 712 4208 712ZM4281 388L4288 368L4320 389C4357 412 4360 414 4367 414C4378 414 4385 404 4385 389C4385 338 4344 145 4303 2L4310 -9C4335 -2 4358 4 4380 8C4399 134 4420 199 4466 268C4520 352 4595 414 4640 414C4651 414 4657 405 4657 390C4657 372 4654 351 4646 319L4594 107C4585 70 4581 47 4581 31C4581 6 4592 -9 4611 -9C4637 -9 4673 12 4771 85L4761 103L4735 86C4706 67 4684 56 4674 56C4667 56 4661 65 4661 76C4661 81 4662 92 4663 96L4729 372C4736 401 4740 429 4740 446C4740 469 4729 482 4709 482C4667 482 4598 444 4539 389C4501 354 4473 320 4421 247L4459 408C4463 426 4465 438 4465 449C4465 470 4457 482 4442 482C4421 482 4382 460 4309 408ZM4846 388L4853 368L4885 389C4922 412 4925 414 4932 414C4942 414 4950 404 4950 391C4950 384 4946 361 4942 347L4876 107C4868 76 4863 49 4863 30C4863 6 4874 -9 4893 -9C4919 -9 4955 12 5053 85L5043 103L5017 86C4988 67 4965 56 4956 56C4949 56 4943 66 4943 76C4943 86 4945 95 4950 116L5027 420C5031 437 5033 448 5033 456C5033 473 5024 482 5008 482C4986 482 4949 461 4874 408ZM5040 712C5011 712 4982 679 4982 645C4982 620 4997 604 5021 604C5052 604 5076 633 5076 671C5076 695 5061 712 5040 712ZM5431 330L5454 330C5462 395 5469 432 5478 458C5454 473 5419 482 5382 482C5337 483 5264 463 5207 400C5153 352 5114 241 5114 136C5114 40 5156 -11 5236 -11C5290 -11 5338 9 5393 54L5443 95L5435 115L5420 105C5348 57 5310 40 5275 40C5219 40 5190 80 5190 159C5190 267 5225 371 5274 409C5295 425 5319 433 5350 433C5395 433 5431 414 5431 390ZM5529 388L5536 368L5568 389C5605 412 5608 414 5615 414C5625 414 5633 404 5633 391C5633 384 5629 361 5625 347L5559 107C5551 76 5546 49 5546 30C5546 6 5557 -9 5576 -9C5602 -9 5638 12 5736 85L5726 103L5700 86C5671 67 5648 56 5639 56C5632 56 5626 66 5626 76C5626 86 5628 95 5633 116L5710 420C5714 437 5716 448 5716 456C5716 473 5707 482 5691 482C5669 482 5632 461 5557 408ZM5723 712C5694 712 5665 679 5665 645C5665 620 5680 604 5704 604C5735 604 5759 633 5759 671C5759 695 5744 712 5723 712ZM6043 204L6014 77C6010 60 6008 42 6008 26C6008 4 6017 -9 6032 -9C6055 -9 6096 17 6178 85L6171 106C6147 86 6118 59 6096 59C6087 59 6081 68 6081 82C6081 87 6081 90 6082 93L6174 472L6164 481L6131 463C6090 478 6073 482 6046 482C6018 482 5998 477 5971 464C5909 433 5876 403 5851 354C5807 265 5776 145 5776 67C5776 23 5791 -11 5810 -11C5847 -11 5927 41 6043 204ZM6091 414C6069 305 6050 253 6016 201C5959 117 5898 59 5866 59C5854 59 5848 72 5848 99C5848 163 5876 280 5911 360C5935 415 5958 433 6006 433C6029 433 6047 429 6091 414ZM6466 722L6454 733C6402 707 6366 698 6294 691L6290 670L6338 670C6362 670 6372 663 6372 648C6372 645 6372 640 6369 622C6358 567 6285 182 6270 132C6257 82 6251 52 6251 31C6251 6 6262 -9 6281 -9C6307 -9 6343 12 6441 85L6431 103L6405 86C6376 67 6354 56 6344 56C6337 56 6331 66 6331 76C6331 82 6332 89 6335 104Z" stroke="rgb(0,0,0)" stroke-opacity="1" stroke-width="8" fill="rgb(0,0,0)" fill-opacity="1"></path></g></g></g><g><g><g transform="matrix(1,0,0,1,2,102.23499755859375)"><path transform="matrix(0.017,0,0,-0.017,0,0)" d="M275 482C208 482 55 419 55 259C55 182 100 136 177 136C185 136 196 136 207 137L166 99C150 84 139 66 139 52C139 42 146 31 160 19C91 -4 -37 -48 -37 -159C-37 -230 33 -276 142 -276C271 -276 384 -204 384 -121C384 -85 363 -49 320 -14L260 35C226 62 213 81 213 100C213 114 228 128 240 146C338 170 409 253 409 342C409 357 406 376 405 380C422 378 430 378 439 378C456 378 466 379 489 382L498 427L495 433C467 426 447 424 393 424C393 425 369 482 275 482ZM176 1L253 -58C299 -94 318 -121 318 -154C318 -206 249 -248 166 -248C84 -248 27 -206 27 -145C27 -43 137 -11 176 1ZM250 448C308 448 337 412 337 341C337 238 289 168 219 168C158 168 126 209 126 288C126 383 177 448 250 448Z" stroke="rgb(0,0,0)" stroke-opacity="1" stroke-width="8" fill="rgb(0,0,0)" fill-opacity="1"></path></g></g><g><g transform="matrix(1,0,0,1,13.8800048828125,102.23499755859375)"><path transform="matrix(0.017,0,0,-0.017,0,0)" d="M123 111C93 111 66 83 66 53C66 23 93 -5 122 -5C154 -5 182 22 182 53C182 83 154 111 123 111ZM123 456C93 456 66 428 66 398C66 368 93 340 122 340C154 340 182 367 182 397C182 428 154 456 123 456Z" stroke="rgb(0,0,0)" stroke-opacity="1" stroke-width="8" fill="rgb(0,0,0)" fill-opacity="1"></path></g></g><g><g transform="matrix(1,0,0,1,21.5150146484375,102.23499755859375)"><path transform="matrix(0.017,0,0,-0.017,0,0)" d="M275 482C208 482 55 419 55 259C55 182 100 136 177 136C185 136 196 136 207 137L166 99C150 84 139 66 139 52C139 42 146 31 160 19C91 -4 -37 -48 -37 -159C-37 -230 33 -276 142 -276C271 -276 384 -204 384 -121C384 -85 363 -49 320 -14L260 35C226 62 213 81 213 100C213 114 228 128 240 146C338 170 409 253 409 342C409 357 406 376 405 380C422 378 430 378 439 378C456 378 466 379 489 382L498 427L495 433C467 426 447 424 393 424C393 425 369 482 275 482ZM176 1L253 -58C299 -94 318 -121 318 -154C318 -206 249 -248 166 -248C84 -248 27 -206 27 -145C27 -43 137 -11 176 1ZM250 448C308 448 337 412 337 341C337 238 289 168 219 168C158 168 126 209 126 288C126 383 177 448 250 448ZM867 365C870 403 875 435 883 476C872 481 868 482 863 482C832 482 801 458 765 407C726 351 687 291 671 256L703 408C707 425 709 438 709 450C709 470 701 482 686 482C665 482 627 461 553 408L525 388L532 368L564 389C592 407 603 412 612 412C622 412 629 403 629 390C629 332 586 126 546 -2L556 -9C571 -4 587 -1 610 4L623 6L649 126C667 209 690 262 734 319C768 363 795 384 817 384C832 384 842 379 853 365ZM1158 204L1129 77C1125 60 1123 42 1123 26C1123 4 1132 -9 1147 -9C1170 -9 1211 17 1293 85L1286 106C1262 86 1233 59 1211 59C1202 59 1196 68 1196 82C1196 87 1196 90 1197 93L1289 472L1279 481L1246 463C1205 478 1188 482 1161 482C1133 482 1113 477 1086 464C1024 433 991 403 966 354C922 265 891 145 891 67C891 23 906 -11 925 -11C962 -11 1042 41 1158 204ZM1206 414C1184 305 1165 253 1131 201C1074 117 1013 59 981 59C969 59 963 72 963 99C963 163 991 280 1026 360C1050 415 1073 433 1121 433C1144 433 1162 429 1206 414ZM1496 420C1517 420 1533 421 1559 424C1448 304 1406 221 1406 121C1406 44 1452 -11 1516 -11C1654 -11 1807 236 1807 384C1807 441 1781 482 1745 482C1732 482 1720 478 1712 470L1662 423L1673 404C1682 410 1691 413 1700 413C1727 413 1743 390 1743 350C1743 202 1646 39 1558 39C1509 39 1478 81 1478 146C1478 251 1517 342 1615 464L1605 482C1585 473 1572 470 1544 470C1516 470 1474 472 1445 475L1433 476C1427 477 1422 477 1421 477C1409 477 1400 475 1389 470C1375 443 1364 407 1351 352L1373 352L1390 394C1397 411 1417 422 1441 422C1474 422 1458 420 1496 420ZM2157 111L2133 94C2080 56 2032 36 1996 36C1949 36 1920 73 1920 133C1920 158 1923 185 1928 214C1945 218 2054 248 2079 259C2164 296 2203 342 2203 404C2203 451 2169 482 2119 482C2051 496 1941 423 1904 349C1874 299 1844 180 1844 113C1844 35 1888 -11 1960 -11C2017 -11 2073 17 2165 92ZM1942 274C1959 343 1979 386 2008 412C2026 428 2057 440 2081 440C2110 440 2129 420 2129 388C2129 344 2094 297 2042 272C2014 258 1978 247 1933 237ZM2700 722L2688 733C2636 707 2600 698 2528 691L2524 670L2572 670C2596 670 2606 663 2606 646C2606 638 2605 629 2604 622L2576 468C2546 477 2519 482 2494 482C2425 482 2331 410 2285 323C2254 265 2234 170 2234 86C2234 21 2249 -11 2278 -11C2305 -11 2342 6 2376 33C2430 77 2463 116 2530 217L2507 126C2496 82 2491 50 2491 24C2491 3 2500 -9 2517 -9C2534 -9 2558 3 2592 28L2673 88L2663 107L2619 76C2605 66 2589 59 2580 59C2572 59 2566 68 2566 82C2566 90 2567 99 2574 128ZM2331 59C2315 59 2306 73 2306 98C2306 224 2352 380 2401 418C2414 428 2433 433 2460 433C2504 433 2533 427 2566 410L2554 351C2517 171 2376 59 2331 59ZM2987 204L2958 77C2954 60 2952 42 2952 26C2952 4 2961 -9 2976 -9C2999 -9 3040 17 3122 85L3115 106C3091 86 3062 59 3040 59C3031 59 3025 68 3025 82C3025 87 3025 90 3026 93L3118 472L3108 481L3075 463C3034 478 3017 482 2990 482C2962 482 2942 477 2915 464C2853 433 2820 403 2795 354C2751 265 2720 145 2720 67C2720 23 2735 -11 2754 -11C2791 -11 2871 41 2987 204ZM3035 414C3013 305 2994 253 2960 201C2903 117 2842 59 2810 59C2798 59 2792 72 2792 99C2792 163 2820 280 2855 360C2879 415 2902 433 2950 433C2973 433 2991 429 3035 414ZM3642 722L3630 733C3578 707 3542 698 3470 691L3466 670L3514 670C3538 670 3548 663 3548 646C3548 638 3547 629 3546 622L3518 468C3488 477 3461 482 3436 482C3367 482 3273 410 3227 323C3196 265 3176 170 3176 86C3176 21 3191 -11 3220 -11C3247 -11 3284 6 3318 33C3372 77 3405 116 3472 217L3449 126C3438 82 3433 50 3433 24C3433 3 3442 -9 3459 -9C3476 -9 3500 3 3534 28L3615 88L3605 107L3561 76C3547 66 3531 59 3522 59C3514 59 3508 68 3508 82C3508 90 3509 99 3516 128ZM3273 59C3257 59 3248 73 3248 98C3248 224 3294 380 3343 418C3356 428 3375 433 3402 433C3446 433 3475 427 3508 410L3496 351C3459 171 3318 59 3273 59Z" stroke="rgb(0,0,0)" stroke-opacity="1" stroke-width="8" fill="rgb(0,0,0)" fill-opacity="1"></path></g></g></g><g><g><g transform="matrix(1,0,0,1,2,122.39500732421875)"><path transform="matrix(0.017,0,0,-0.017,0,0)" d="M125 390L69 107C68 99 56 61 56 31C56 6 67 -9 86 -9C121 -9 156 11 234 74L265 99L255 117L210 86C181 66 161 56 150 56C141 56 136 64 136 76C136 102 150 183 179 328L192 390L299 390L310 440C272 436 238 434 200 434C216 528 227 577 245 631L234 646C214 634 187 622 156 610L131 440C87 419 61 408 43 403L41 390Z" stroke="rgb(0,0,0)" stroke-opacity="1" stroke-width="8" fill="rgb(0,0,0)" fill-opacity="1"></path></g></g><g><g transform="matrix(1,0,0,1,11.045019531250034,122.39500732421875)"><path transform="matrix(0.017,0,0,-0.017,0,0)" d="M123 111C93 111 66 83 66 53C66 23 93 -5 122 -5C154 -5 182 22 182 53C182 83 154 111 123 111ZM123 456C93 456 66 428 66 398C66 368 93 340 122 340C154 340 182 367 182 397C182 428 154 456 123 456Z" stroke="rgb(0,0,0)" stroke-opacity="1" stroke-width="8" fill="rgb(0,0,0)" fill-opacity="1"></path></g></g><g><g transform="matrix(1,0,0,1,18.68000488281251,122.39500732421875)"><path transform="matrix(0.017,0,0,-0.017,0,0)" d="M125 390L69 107C68 99 56 61 56 31C56 6 67 -9 86 -9C121 -9 156 11 234 74L265 99L255 117L210 86C181 66 161 56 150 56C141 56 136 64 136 76C136 102 150 183 179 328L192 390L299 390L310 440C272 436 238 434 200 434C216 528 227 577 245 631L234 646C214 634 187 622 156 610L131 440C87 419 61 408 43 403L41 390ZM366 388L373 368L405 389C442 412 445 414 452 414C462 414 470 404 470 391C470 384 466 361 462 347L396 107C388 76 383 49 383 30C383 6 394 -9 413 -9C439 -9 475 12 573 85L563 103L537 86C508 67 485 56 476 56C469 56 463 66 463 76C463 86 465 95 470 116L547 420C551 437 553 448 553 456C553 473 544 482 528 482C506 482 469 461 394 408ZM560 712C531 712 502 679 502 645C502 620 517 604 541 604C572 604 596 633 596 671C596 695 581 712 560 712ZM937 111L913 94C860 56 812 36 776 36C729 36 700 73 700 133C700 158 703 185 708 214C725 218 834 248 859 259C944 296 983 342 983 404C983 451 949 482 899 482C831 496 721 423 684 349C654 299 624 180 624 113C624 35 668 -11 740 -11C797 -11 853 17 945 92ZM722 274C739 343 759 386 788 412C806 428 837 440 861 440C890 440 909 420 909 388C909 344 874 297 822 272C794 258 758 247 713 237ZM1727 103L1701 86C1672 67 1650 56 1640 56C1633 56 1627 65 1627 76C1627 86 1629 95 1634 116L1709 413C1713 430 1716 446 1716 454C1716 471 1706 482 1690 482C1661 482 1623 464 1562 421C1499 376 1464 341 1415 272L1445 409C1449 429 1452 444 1452 451C1452 470 1442 482 1426 482C1396 482 1350 460 1295 418C1251 384 1231 363 1166 275L1199 408C1203 424 1205 439 1205 451C1205 470 1196 482 1182 482C1161 482 1123 461 1049 408L1021 388L1028 368C1065 391 1100 414 1107 414C1118 414 1125 404 1125 389C1125 338 1084 145 1043 2L1046 -9L1114 6L1136 108C1160 219 1187 278 1242 338C1284 384 1329 414 1357 414C1364 414 1368 406 1368 393C1368 358 1346 244 1305 69L1289 2L1294 -9L1363 6L1384 113C1400 194 1434 269 1478 318C1533 379 1583 414 1615 414C1623 414 1628 405 1628 389C1628 365 1625 351 1603 264C1563 105 1547 84 1547 31C1547 6 1558 -9 1577 -9C1603 -9 1639 12 1737 85ZM1950 -11C2006 -11 2121 62 2164 125C2205 186 2239 296 2239 371C2239 438 2216 482 2180 482C2138 482 2085 456 2033 409C1992 374 1972 348 1936 289L1960 408C1963 425 1965 440 1965 452C1965 471 1957 482 1943 482C1922 482 1884 461 1810 408L1782 388L1789 368L1821 389C1849 407 1860 412 1869 412C1879 412 1886 403 1886 389C1886 381 1884 361 1882 351L1824 8C1814 -52 1795 -143 1775 -233L1767 -270L1774 -276C1795 -269 1815 -264 1847 -259L1889 3C1910 -4 1932 -11 1950 -11ZM1917 165C1939 293 2046 424 2129 424C2155 424 2167 402 2167 356C2167 275 2127 156 2074 80C2054 51 2022 36 1981 36C1950 36 1925 43 1899 59ZM2290 152C2290 46 2335 -11 2418 -11C2473 -11 2533 15 2578 57C2640 116 2684 230 2684 331C2684 425 2634 482 2551 482C2447 482 2290 382 2290 152ZM2514 444C2575 444 2608 399 2608 315C2608 219 2577 113 2533 60C2515 39 2489 27 2458 27C2400 27 2366 72 2366 151C2366 264 2405 387 2454 427C2467 438 2490 444 2514 444Z" stroke="rgb(0,0,0)" stroke-opacity="1" stroke-width="8" fill="rgb(0,0,0)" fill-opacity="1"></path></g></g></g></g></svg>