<svg xmlns="http://www.w3.org/2000/svg" xmlns:xlink="http://www.w3.org/1999/xlink" width="241.47500000000002" height="48.99999999999999" style="width:241.47500000000002px;height:48.99999999999999px;font-family:Asana-Math, Asana;background:#FFF;"><g><g><g><g transform="matrix(1,0,0,1,2,30.999999999999993)"><path transform="matrix(0.017,0,0,-0.017,0,0)" d="M345 437L329 437L350 549C366 635 394 673 440 673C470 673 497 658 512 634L522 638C527 654 537 685 545 705L550 720C534 727 503 733 480 733C469 733 453 730 445 726C421 715 339 654 316 630C294 608 282 578 271 521L256 442C215 422 195 414 170 405L165 383L246 383L237 327C207 132 170 -54 148 -123C130 -182 100 -213 64 -213C41 -213 30 -206 12 -184L-2 -188C-6 -211 -20 -259 -25 -268C-16 -273 -1 -276 10 -276C51 -276 105 -245 144 -198C215 -114 235 -18 319 383L423 383C427 402 434 425 440 439L436 446C407 439 408 437 345 437Z" stroke="rgb(148,117,238)" stroke-opacity="1" stroke-width="8" fill="rgb(148,117,238)" fill-opacity="1"></path></g></g><g><g transform="matrix(1,0,0,1,16.450000000000017,30.999999999999993)"><path transform="matrix(0.017,0,0,-0.017,0,0)" d="M604 347L604 406L65 406L65 347ZM604 134L604 193L65 193L65 134Z" stroke="rgb(148,117,238)" stroke-opacity="1" stroke-width="8" fill="rgb(148,117,238)" fill-opacity="1"></path></g></g><g><g><g><g><g transform="matrix(1,0,0,1,34.61250000000001,19)"><path transform="matrix(0.017,0,0,-0.017,0,0)" d="M24 388L31 368L63 389C100 412 103 414 110 414C121 414 128 404 128 389C128 338 87 145 46 2L53 -9C78 -2 101 4 123 8C142 134 163 199 209 268C263 352 338 414 383 414C394 414 400 405 400 390C400 372 397 351 389 319L337 107C328 70 324 47 324 31C324 6 335 -9 354 -9C380 -9 416 12 514 85L504 103L478 86C449 67 427 56 417 56C410 56 404 65 404 76C404 81 405 92 406 96L472 372C479 401 483 429 483 446C483 469 472 482 452 482C410 482 341 444 282 389C244 354 216 320 164 247L202 408C206 426 208 438 208 449C208 470 200 482 185 482C164 482 125 460 52 408ZM1047 473L1040 482L972 465L962 414C947 336 922 268 891 221C832 130 754 59 714 59C706 59 701 68 701 85C701 99 703 112 708 137L765 408C768 424 770 438 770 451C770 470 761 482 747 482C727 482 689 461 615 408L587 388L594 368L626 389C654 407 665 412 674 412C683 412 691 403 691 392C691 388 690 378 689 374L626 77C624 68 622 44 622 30C622 7 637 -11 657 -11C720 -11 841 101 925 239L888 97C881 73 877 46 877 31C877 6 888 -9 907 -9C933 -9 969 12 1067 85L1057 103L1031 86C1007 70 981 59 970 59C962 59 957 66 957 76C957 112 1032 416 1047 473ZM1840 103L1814 86C1785 67 1763 56 1753 56C1746 56 1740 65 1740 76C1740 86 1742 95 1747 116L1822 413C1826 430 1829 446 1829 454C1829 471 1819 482 1803 482C1774 482 1736 464 1675 421C1612 376 1577 341 1528 272L1558 409C1562 429 1565 444 1565 451C1565 470 1555 482 1539 482C1509 482 1463 460 1408 418C1364 384 1344 363 1279 275L1312 408C1316 424 1318 439 1318 451C1318 470 1309 482 1295 482C1274 482 1236 461 1162 408L1134 388L1141 368C1178 391 1213 414 1220 414C1231 414 1238 404 1238 389C1238 338 1197 145 1156 2L1159 -9L1227 6L1249 108C1273 219 1300 278 1355 338C1397 384 1442 414 1470 414C1477 414 1481 406 1481 393C1481 358 1459 244 1418 69L1402 2L1407 -9L1476 6L1497 113C1513 194 1547 269 1591 318C1646 379 1696 414 1728 414C1736 414 1741 405 1741 389C1741 365 1738 351 1716 264C1676 105 1660 84 1660 31C1660 6 1671 -9 1690 -9C1716 -9 1752 12 1850 85ZM2215 111L2191 94C2138 56 2090 36 2054 36C2007 36 1978 73 1978 133C1978 158 1981 185 1986 214C2003 218 2112 248 2137 259C2222 296 2261 342 2261 404C2261 451 2227 482 2177 482C2109 496 1999 423 1962 349C1932 299 1902 180 1902 113C1902 35 1946 -11 2018 -11C2075 -11 2131 17 2223 92ZM2000 274C2017 343 2037 386 2066 412C2084 428 2115 440 2139 440C2168 440 2187 420 2187 388C2187 344 2152 297 2100 272C2072 258 2036 247 1991 237ZM2643 365C2646 403 2651 435 2659 476C2648 481 2644 482 2639 482C2608 482 2577 458 2541 407C2502 351 2463 291 2447 256L2479 408C2483 425 2485 438 2485 450C2485 470 2477 482 2462 482C2441 482 2403 461 2329 408L2301 388L2308 368L2340 389C2368 407 2379 412 2388 412C2398 412 2405 403 2405 390C2405 332 2362 126 2322 -2L2332 -9C2347 -4 2363 -1 2386 4L2399 6L2425 126C2443 209 2466 262 2510 319C2544 363 2571 384 2593 384C2608 384 2618 379 2629 365ZM2680 152C2680 46 2725 -11 2808 -11C2863 -11 2923 15 2968 57C3030 116 3074 230 3074 331C3074 425 3024 482 2941 482C2837 482 2680 382 2680 152ZM2904 444C2965 444 2998 399 2998 315C2998 219 2967 113 2923 60C2905 39 2879 27 2848 27C2790 27 2756 72 2756 151C2756 264 2795 387 2844 427C2857 438 2880 444 2904 444ZM3838 722L3826 733C3774 707 3738 698 3666 691L3662 670L3710 670C3734 670 3744 663 3744 646C3744 638 3743 629 3742 622L3714 468C3684 477 3657 482 3632 482C3563 482 3469 410 3423 323C3392 265 3372 170 3372 86C3372 21 3387 -11 3416 -11C3443 -11 3480 6 3514 33C3568 77 3601 116 3668 217L3645 126C3634 82 3629 50 3629 24C3629 3 3638 -9 3655 -9C3672 -9 3696 3 3730 28L3811 88L3801 107L3757 76C3743 66 3727 59 3718 59C3710 59 3704 68 3704 82C3704 90 3705 99 3712 128ZM3469 59C3453 59 3444 73 3444 98C3444 224 3490 380 3539 418C3552 428 3571 433 3598 433C3642 433 3671 427 3704 410L3692 351C3655 171 3514 59 3469 59ZM4182 111L4158 94C4105 56 4057 36 4021 36C3974 36 3945 73 3945 133C3945 158 3948 185 3953 214C3970 218 4079 248 4104 259C4189 296 4228 342 4228 404C4228 451 4194 482 4144 482C4076 496 3966 423 3929 349C3899 299 3869 180 3869 113C3869 35 3913 -11 3985 -11C4042 -11 4098 17 4190 92ZM3967 274C3984 343 4004 386 4033 412C4051 428 4082 440 4106 440C4135 440 4154 420 4154 388C4154 344 4119 297 4067 272C4039 258 4003 247 3958 237ZM4508 152C4508 46 4553 -11 4636 -11C4691 -11 4751 15 4796 57C4858 116 4902 230 4902 331C4902 425 4852 482 4769 482C4665 482 4508 382 4508 152ZM4732 444C4793 444 4826 399 4826 315C4826 219 4795 113 4751 60C4733 39 4707 27 4676 27C4618 27 4584 72 4584 151C4584 264 4623 387 4672 427C4685 438 4708 444 4732 444ZM4965 148C4960 97 4954 62 4943 16C4981 -2 5015 -11 5050 -11C5099 -11 5145 7 5196 47C5247 87 5268 124 5268 174C5268 228 5236 257 5162 271L5119 279C5059 290 5040 307 5040 348C5040 401 5085 442 5142 442C5183 442 5221 424 5237 397L5237 342L5260 342C5264 377 5268 404 5279 455C5240 474 5212 482 5179 482C5127 482 5066 452 5018 404C4992 377 4981 352 4981 316C4981 260 5012 228 5078 215L5141 203C5185 195 5201 177 5201 138C5201 73 5155 29 5084 29C5049 29 5018 40 4990 64L4990 148ZM5664 330L5687 330C5695 395 5702 432 5711 458C5687 473 5652 482 5615 482C5570 483 5497 463 5440 400C5386 352 5347 241 5347 136C5347 40 5389 -11 5469 -11C5523 -11 5571 9 5626 54L5676 95L5668 115L5653 105C5581 57 5543 40 5508 40C5452 40 5423 80 5423 159C5423 267 5458 371 5507 409C5528 425 5552 433 5583 433C5628 433 5664 414 5664 390ZM5762 388L5769 368L5801 389C5838 412 5841 414 5848 414C5858 414 5866 404 5866 391C5866 384 5862 361 5858 347L5792 107C5784 76 5779 49 5779 30C5779 6 5790 -9 5809 -9C5835 -9 5871 12 5969 85L5959 103L5933 86C5904 67 5881 56 5872 56C5865 56 5859 66 5859 76C5859 86 5861 95 5866 116L5943 420C5947 437 5949 448 5949 456C5949 473 5940 482 5924 482C5902 482 5865 461 5790 408ZM5956 712C5927 712 5898 679 5898 645C5898 620 5913 604 5937 604C5968 604 5992 633 5992 671C5992 695 5977 712 5956 712ZM6256 722L6244 733C6192 707 6156 698 6084 691L6080 670L6128 670C6152 670 6162 663 6162 648C6162 645 6162 640 6159 622C6148 567 6075 182 6060 132C6047 82 6041 52 6041 31C6041 6 6052 -9 6071 -9C6097 -9 6133 12 6231 85L6221 103L6195 86C6166 67 6144 56 6134 56C6127 56 6121 66 6121 76C6121 82 6122 89 6125 104ZM6553 204L6524 77C6520 60 6518 42 6518 26C6518 4 6527 -9 6542 -9C6565 -9 6606 17 6688 85L6681 106C6657 86 6628 59 6606 59C6597 59 6591 68 6591 82C6591 87 6591 90 6592 93L6684 472L6674 481L6641 463C6600 478 6583 482 6556 482C6528 482 6508 477 6481 464C6419 433 6386 403 6361 354C6317 265 6286 145 6286 67C6286 23 6301 -11 6320 -11C6357 -11 6437 41 6553 204ZM6601 414C6579 305 6560 253 6526 201C6469 117 6408 59 6376 59C6364 59 6358 72 6358 99C6358 163 6386 280 6421 360C6445 415 6468 433 6516 433C6539 433 6557 429 6601 414ZM7067 330L7090 330C7098 395 7105 432 7114 458C7090 473 7055 482 7018 482C6973 483 6900 463 6843 400C6789 352 6750 241 6750 136C6750 40 6792 -11 6872 -11C6926 -11 6974 9 7029 54L7079 95L7071 115L7056 105C6984 57 6946 40 6911 40C6855 40 6826 80 6826 159C6826 267 6861 371 6910 409C6931 425 6955 433 6986 433C7031 433 7067 414 7067 390ZM7165 388L7172 368L7204 389C7241 412 7244 414 7251 414C7261 414 7269 404 7269 391C7269 384 7265 361 7261 347L7195 107C7187 76 7182 49 7182 30C7182 6 7193 -9 7212 -9C7238 -9 7274 12 7372 85L7362 103L7336 86C7307 67 7284 56 7275 56C7268 56 7262 66 7262 76C7262 86 7264 95 7269 116L7346 420C7350 437 7352 448 7352 456C7352 473 7343 482 7327 482C7305 482 7268 461 7193 408ZM7359 712C7330 712 7301 679 7301 645C7301 620 7316 604 7340 604C7371 604 7395 633 7395 671C7395 695 7380 712 7359 712ZM7425 152C7425 46 7470 -11 7553 -11C7608 -11 7668 15 7713 57C7775 116 7819 230 7819 331C7819 425 7769 482 7686 482C7582 482 7425 382 7425 152ZM7649 444C7710 444 7743 399 7743 315C7743 219 7712 113 7668 60C7650 39 7624 27 7593 27C7535 27 7501 72 7501 151C7501 264 7540 387 7589 427C7602 438 7625 444 7649 444ZM7875 388L7882 368L7914 389C7951 412 7954 414 7961 414C7972 414 7979 404 7979 389C7979 338 7938 145 7897 2L7904 -9C7929 -2 7952 4 7974 8C7993 134 8014 199 8060 268C8114 352 8189 414 8234 414C8245 414 8251 405 8251 390C8251 372 8248 351 8240 319L8188 107C8179 70 8175 47 8175 31C8175 6 8186 -9 8205 -9C8231 -9 8267 12 8365 85L8355 103L8329 86C8300 67 8278 56 8268 56C8261 56 8255 65 8255 76C8255 81 8256 92 8257 96L8323 372C8330 401 8334 429 8334 446C8334 469 8323 482 8303 482C8261 482 8192 444 8133 389C8095 354 8067 320 8015 247L8053 408C8057 426 8059 438 8059 449C8059 470 8051 482 8036 482C8015 482 7976 460 7903 408ZM8734 111L8710 94C8657 56 8609 36 8573 36C8526 36 8497 73 8497 133C8497 158 8500 185 8505 214C8522 218 8631 248 8656 259C8741 296 8780 342 8780 404C8780 451 8746 482 8696 482C8628 496 8518 423 8481 349C8451 299 8421 180 8421 113C8421 35 8465 -11 8537 -11C8594 -11 8650 17 8742 92ZM8519 274C8536 343 8556 386 8585 412C8603 428 8634 440 8658 440C8687 440 8706 420 8706 388C8706 344 8671 297 8619 272C8591 258 8555 247 8510 237ZM8825 148C8820 97 8814 62 8803 16C8841 -2 8875 -11 8910 -11C8959 -11 9005 7 9056 47C9107 87 9128 124 9128 174C9128 228 9096 257 9022 271L8979 279C8919 290 8900 307 8900 348C8900 401 8945 442 9002 442C9043 442 9081 424 9097 397L9097 342L9120 342C9124 377 9128 404 9139 455C9100 474 9072 482 9039 482C8987 482 8926 452 8878 404C8852 377 8841 352 8841 316C8841 260 8872 228 8938 215L9001 203C9045 195 9061 177 9061 138C9061 73 9015 29 8944 29C8909 29 8878 40 8850 64L8850 148Z" stroke="rgb(148,117,238)" stroke-opacity="1" stroke-width="8" fill="rgb(148,117,238)" fill-opacity="1"></path></g></g></g></g><g><g><g><g transform="matrix(1,0,0,1,44.42500000000001,43.99999999999999)"><path transform="matrix(0.017,0,0,-0.017,0,0)" d="M125 390L69 107C68 99 56 61 56 31C56 6 67 -9 86 -9C121 -9 156 11 234 74L265 99L255 117L210 86C181 66 161 56 150 56C141 56 136 64 136 76C136 102 150 183 179 328L192 390L299 390L310 440C272 436 238 434 200 434C216 528 227 577 245 631L234 646C214 634 187 622 156 610L131 440C87 419 61 408 43 403L41 390ZM366 388L373 368L405 389C442 412 445 414 452 414C462 414 470 404 470 391C470 384 466 361 462 347L396 107C388 76 383 49 383 30C383 6 394 -9 413 -9C439 -9 475 12 573 85L563 103L537 86C508 67 485 56 476 56C469 56 463 66 463 76C463 86 465 95 470 116L547 420C551 437 553 448 553 456C553 473 544 482 528 482C506 482 469 461 394 408ZM560 712C531 712 502 679 502 645C502 620 517 604 541 604C572 604 596 633 596 671C596 695 581 712 560 712ZM937 111L913 94C860 56 812 36 776 36C729 36 700 73 700 133C700 158 703 185 708 214C725 218 834 248 859 259C944 296 983 342 983 404C983 451 949 482 899 482C831 496 721 423 684 349C654 299 624 180 624 113C624 35 668 -11 740 -11C797 -11 853 17 945 92ZM722 274C739 343 759 386 788 412C806 428 837 440 861 440C890 440 909 420 909 388C909 344 874 297 822 272C794 258 758 247 713 237ZM1727 103L1701 86C1672 67 1650 56 1640 56C1633 56 1627 65 1627 76C1627 86 1629 95 1634 116L1709 413C1713 430 1716 446 1716 454C1716 471 1706 482 1690 482C1661 482 1623 464 1562 421C1499 376 1464 341 1415 272L1445 409C1449 429 1452 444 1452 451C1452 470 1442 482 1426 482C1396 482 1350 460 1295 418C1251 384 1231 363 1166 275L1199 408C1203 424 1205 439 1205 451C1205 470 1196 482 1182 482C1161 482 1123 461 1049 408L1021 388L1028 368C1065 391 1100 414 1107 414C1118 414 1125 404 1125 389C1125 338 1084 145 1043 2L1046 -9L1114 6L1136 108C1160 219 1187 278 1242 338C1284 384 1329 414 1357 414C1364 414 1368 406 1368 393C1368 358 1346 244 1305 69L1289 2L1294 -9L1363 6L1384 113C1400 194 1434 269 1478 318C1533 379 1583 414 1615 414C1623 414 1628 405 1628 389C1628 365 1625 351 1603 264C1563 105 1547 84 1547 31C1547 6 1558 -9 1577 -9C1603 -9 1639 12 1737 85ZM1950 -11C2006 -11 2121 62 2164 125C2205 186 2239 296 2239 371C2239 438 2216 482 2180 482C2138 482 2085 456 2033 409C1992 374 1972 348 1936 289L1960 408C1963 425 1965 440 1965 452C1965 471 1957 482 1943 482C1922 482 1884 461 1810 408L1782 388L1789 368L1821 389C1849 407 1860 412 1869 412C1879 412 1886 403 1886 389C1886 381 1884 361 1882 351L1824 8C1814 -52 1795 -143 1775 -233L1767 -270L1774 -276C1795 -269 1815 -264 1847 -259L1889 3C1910 -4 1932 -11 1950 -11ZM1917 165C1939 293 2046 424 2129 424C2155 424 2167 402 2167 356C2167 275 2127 156 2074 80C2054 51 2022 36 1981 36C1950 36 1925 43 1899 59ZM2290 152C2290 46 2335 -11 2418 -11C2473 -11 2533 15 2578 57C2640 116 2684 230 2684 331C2684 425 2634 482 2551 482C2447 482 2290 382 2290 152ZM2514 444C2575 444 2608 399 2608 315C2608 219 2577 113 2533 60C2515 39 2489 27 2458 27C2400 27 2366 72 2366 151C2366 264 2405 387 2454 427C2467 438 2490 444 2514 444ZM3090 390L3034 107C3033 99 3021 61 3021 31C3021 6 3032 -9 3051 -9C3086 -9 3121 11 3199 74L3230 99L3220 117L3175 86C3146 66 3126 56 3115 56C3106 56 3101 64 3101 76C3101 102 3115 183 3144 328L3157 390L3264 390L3275 440C3237 436 3203 434 3165 434C3181 528 3192 577 3210 631L3199 646C3179 634 3152 622 3121 610L3096 440C3052 419 3026 408 3008 403L3006 390ZM3665 365C3668 403 3673 435 3681 476C3670 481 3666 482 3661 482C3630 482 3599 458 3563 407C3524 351 3485 291 3469 256L3501 408C3505 425 3507 438 3507 450C3507 470 3499 482 3484 482C3463 482 3425 461 3351 408L3323 388L3330 368L3362 389C3390 407 3401 412 3410 412C3420 412 3427 403 3427 390C3427 332 3384 126 3344 -2L3354 -9C3369 -4 3385 -1 3408 4L3421 6L3447 126C3465 209 3488 262 3532 319C3566 363 3593 384 3615 384C3630 384 3640 379 3651 365ZM3956 204L3927 77C3923 60 3921 42 3921 26C3921 4 3930 -9 3945 -9C3968 -9 4009 17 4091 85L4084 106C4060 86 4031 59 4009 59C4000 59 3994 68 3994 82C3994 87 3994 90 3995 93L4087 472L4077 481L4044 463C4003 478 3986 482 3959 482C3931 482 3911 477 3884 464C3822 433 3789 403 3764 354C3720 265 3689 145 3689 67C3689 23 3704 -11 3723 -11C3760 -11 3840 41 3956 204ZM4004 414C3982 305 3963 253 3929 201C3872 117 3811 59 3779 59C3767 59 3761 72 3761 99C3761 163 3789 280 3824 360C3848 415 3871 433 3919 433C3942 433 3960 429 4004 414ZM4152 388L4159 368L4191 389C4228 412 4231 414 4238 414C4249 414 4256 404 4256 389C4256 338 4215 145 4174 2L4181 -9C4206 -2 4229 4 4251 8C4270 134 4291 199 4337 268C4391 352 4466 414 4511 414C4522 414 4528 405 4528 390C4528 372 4525 351 4517 319L4465 107C4456 70 4452 47 4452 31C4452 6 4463 -9 4482 -9C4508 -9 4544 12 4642 85L4632 103L4606 86C4577 67 4555 56 4545 56C4538 56 4532 65 4532 76C4532 81 4533 92 4534 96L4600 372C4607 401 4611 429 4611 446C4611 469 4600 482 4580 482C4538 482 4469 444 4410 389C4372 354 4344 320 4292 247L4330 408C4334 426 4336 438 4336 449C4336 470 4328 482 4313 482C4292 482 4253 460 4180 408ZM4714 148C4709 97 4703 62 4692 16C4730 -2 4764 -11 4799 -11C4848 -11 4894 7 4945 47C4996 87 5017 124 5017 174C5017 228 4985 257 4911 271L4868 279C4808 290 4789 307 4789 348C4789 401 4834 442 4891 442C4932 442 4970 424 4986 397L4986 342L5009 342C5013 377 5017 404 5028 455C4989 474 4961 482 4928 482C4876 482 4815 452 4767 404C4741 377 4730 352 4730 316C4730 260 4761 228 4827 215L4890 203C4934 195 4950 177 4950 138C4950 73 4904 29 4833 29C4798 29 4767 40 4739 64L4739 148ZM5413 330L5436 330C5444 395 5451 432 5460 458C5436 473 5401 482 5364 482C5319 483 5246 463 5189 400C5135 352 5096 241 5096 136C5096 40 5138 -11 5218 -11C5272 -11 5320 9 5375 54L5425 95L5417 115L5402 105C5330 57 5292 40 5257 40C5201 40 5172 80 5172 159C5172 267 5207 371 5256 409C5277 425 5301 433 5332 433C5377 433 5413 414 5413 390ZM5969 473L5962 482L5894 465L5884 414C5869 336 5844 268 5813 221C5754 130 5676 59 5636 59C5628 59 5623 68 5623 85C5623 99 5625 112 5630 137L5687 408C5690 424 5692 438 5692 451C5692 470 5683 482 5669 482C5649 482 5611 461 5537 408L5509 388L5516 368L5548 389C5576 407 5587 412 5596 412C5605 412 5613 403 5613 392C5613 388 5612 378 5611 374L5548 77C5546 68 5544 44 5544 30C5544 7 5559 -11 5579 -11C5642 -11 5763 101 5847 239L5810 97C5803 73 5799 46 5799 31C5799 6 5810 -9 5829 -9C5855 -9 5891 12 5989 85L5979 103L5953 86C5929 70 5903 59 5892 59C5884 59 5879 66 5879 76C5879 112 5954 416 5969 473ZM6400 365C6403 403 6408 435 6416 476C6405 481 6401 482 6396 482C6365 482 6334 458 6298 407C6259 351 6220 291 6204 256L6236 408C6240 425 6242 438 6242 450C6242 470 6234 482 6219 482C6198 482 6160 461 6086 408L6058 388L6065 368L6097 389C6125 407 6136 412 6145 412C6155 412 6162 403 6162 390C6162 332 6119 126 6079 -2L6089 -9C6104 -4 6120 -1 6143 4L6156 6L6182 126C6200 209 6223 262 6267 319C6301 363 6328 384 6350 384C6365 384 6375 379 6386 365ZM6788 365C6791 403 6796 435 6804 476C6793 481 6789 482 6784 482C6753 482 6722 458 6686 407C6647 351 6608 291 6592 256L6624 408C6628 425 6630 438 6630 450C6630 470 6622 482 6607 482C6586 482 6548 461 6474 408L6446 388L6453 368L6485 389C6513 407 6524 412 6533 412C6543 412 6550 403 6550 390C6550 332 6507 126 6467 -2L6477 -9C6492 -4 6508 -1 6531 4L6544 6L6570 126C6588 209 6611 262 6655 319C6689 363 6716 384 6738 384C6753 384 6763 379 6774 365ZM6842 388L6849 368L6881 389C6918 412 6921 414 6928 414C6938 414 6946 404 6946 391C6946 384 6942 361 6938 347L6872 107C6864 76 6859 49 6859 30C6859 6 6870 -9 6889 -9C6915 -9 6951 12 7049 85L7039 103L7013 86C6984 67 6961 56 6952 56C6945 56 6939 66 6939 76C6939 86 6941 95 6946 116L7023 420C7027 437 7029 448 7029 456C7029 473 7020 482 7004 482C6982 482 6945 461 6870 408ZM7036 712C7007 712 6978 679 6978 645C6978 620 6993 604 7017 604C7048 604 7072 633 7072 671C7072 695 7057 712 7036 712ZM7568 722L7556 733C7504 707 7468 698 7396 691L7392 670L7440 670C7464 670 7474 663 7474 646C7474 638 7473 629 7472 622L7444 468C7414 477 7387 482 7362 482C7293 482 7199 410 7153 323C7122 265 7102 170 7102 86C7102 21 7117 -11 7146 -11C7173 -11 7210 6 7244 33C7298 77 7331 116 7398 217L7375 126C7364 82 7359 50 7359 24C7359 3 7368 -9 7385 -9C7402 -9 7426 3 7460 28L7541 88L7531 107L7487 76C7473 66 7457 59 7448 59C7440 59 7434 68 7434 82C7434 90 7435 99 7442 128ZM7199 59C7183 59 7174 73 7174 98C7174 224 7220 380 7269 418C7282 428 7301 433 7328 433C7372 433 7401 427 7434 410L7422 351C7385 171 7244 59 7199 59ZM7601 152C7601 46 7646 -11 7729 -11C7784 -11 7844 15 7889 57C7951 116 7995 230 7995 331C7995 425 7945 482 7862 482C7758 482 7601 382 7601 152ZM7825 444C7886 444 7919 399 7919 315C7919 219 7888 113 7844 60C7826 39 7800 27 7769 27C7711 27 7677 72 7677 151C7677 264 7716 387 7765 427C7778 438 7801 444 7825 444Z" stroke="rgb(148,117,238)" stroke-opacity="1" stroke-width="8" fill="rgb(148,117,238)" fill-opacity="1"></path></g></g></g></g><line style="fill:none;stroke-width:1px;stroke:rgb(148, 117, 238);" x1="34.61250000000001" y1="26.550000000000004" x2="190.71250000000003" y2="26.550000000000004"></line></g><g><g transform="matrix(1,0,0,1,197.51254882812503,30.999999999999993)"><path transform="matrix(0.017,0,0,-0.017,0,0)" d="M604 347L604 406L65 406L65 347ZM604 134L604 193L65 193L65 134Z" stroke="rgb(148,117,238)" stroke-opacity="1" stroke-width="8" fill="rgb(148,117,238)" fill-opacity="1"></path></g></g><g><g transform="matrix(1,0,0,1,213.975048828125,30.999999999999993)"><path transform="matrix(0.017,0,0,-0.017,0,0)" d="M390 646L463 646C541 646 577 641 580 629C583 621 585 602 584 592L580 528L608 528L635 692L544 691C456 690 388 689 353 689C316 689 252 690 166 691L71 692L53 528L82 528L97 588C102 610 109 626 115 633C121 640 159 646 196 646L308 646L222 125C206 34 204 31 164 28L113 25L109 -3L166 -2C206 -1 235 0 251 0C270 0 301 -1 340 -2L384 -3L387 25L328 28C302 29 292 37 292 58C292 67 293 74 296 93Z" stroke="rgb(148,117,238)" stroke-opacity="1" stroke-width="8" fill="rgb(148,117,238)" fill-opacity="1"></path></g></g><g><g><g><g><g transform="matrix(1,0,0,1,225.32504882812503,24.174999999999997)"><path transform="matrix(0.0119,0,0,-0.0119,0,0)" d="M555 243L555 299L51 299L51 243ZM1023 -3L1023 27L971 30C916 33 906 44 906 96L906 700L665 598L672 548L822 614L822 96C822 44 811 33 757 30L701 27L701 -3C855 0 855 0 866 0C897 0 1007 -3 1023 -3Z" stroke="rgb(148,117,238)" stroke-opacity="1" stroke-width="8" fill="rgb(148,117,238)" fill-opacity="1"></path></g></g></g></g></g></g></g></svg>