<svg xmlns="http://www.w3.org/2000/svg" xmlns:xlink="http://www.w3.org/1999/xlink" width="160.72000122070312" height="84.63999938964844" style="width:160.72000122070312px;height:84.63999938964844px;font-family:Asana-Math, Asana;background:#FFF;"><g><g><g><g transform="matrix(1,0,0,1,2,18.040000915527344)"><path transform="matrix(0.017,0,0,-0.017,0,0)" d="M2890 -172C2890 -95 2914 -59 2967 -59C2996 -59 3024 -67 3063 -88L3208 -164C3268 -195 3286 -201 3326 -201C3401 -201 3437 -158 3447 -61L3422 -61C3416 -115 3394 -140 3354 -140C3337 -140 3318 -135 3292 -125L3056 -29C3031 -19 3013 -15 2990 -15C2916 -15 2865 -66 2865 -142C2865 -144 2865 -151 2866 -159ZM3487 425C3487 603 3383 706 3203 706C2966 706 2792 523 2792 272C2792 83 2886 -18 3062 -18C3334 -18 3487 207 3487 425ZM3399 409C3399 221 3310 24 3099 24C2955 24 2880 110 2880 277C2880 425 2938 664 3172 664C3288 664 3399 610 3399 409Z" stroke="rgb(0,0,0)" stroke-opacity="1" stroke-width="8" fill="rgb(0,0,0)" fill-opacity="1"></path></g></g><g><g transform="matrix(1,0,0,1,66.84501647949219,18.040000915527344)"><path transform="matrix(0.017,0,0,-0.017,0,0)" d="M604 347L604 406L65 406L65 347ZM604 134L604 193L65 193L65 134Z" stroke="rgb(0,0,0)" stroke-opacity="1" stroke-width="8" fill="rgb(0,0,0)" fill-opacity="1"></path></g></g><g><g transform="matrix(1,0,0,1,83.30000305175781,18.040000915527344)"><path transform="matrix(0.017,0,0,-0.017,0,0)" d="M349 664L352 692L238 689C222 689 204 689 161 690L97 692L94 664L141 662C165 661 176 653 176 635L81 55C77 37 65 30 21 23L16 -3L57 -2C88 -1 150 0 170 0C170 0 467 -1 467 -1C467 -1 500 0 500 0C499 25 510 103 523 165L492 165L475 103C466 71 457 54 448 49C435 44 371 39 304 39C255 39 228 40 162 46C165 64 256 605 256 613C263 651 270 658 307 661ZM1285 103L1259 86C1230 67 1208 56 1198 56C1191 56 1185 65 1185 76C1185 86 1187 95 1192 116L1267 413C1271 430 1274 446 1274 454C1274 471 1264 482 1248 482C1219 482 1181 464 1120 421C1057 376 1022 341 973 272L1003 409C1007 429 1010 444 1010 451C1010 470 1000 482 984 482C954 482 908 460 853 418C809 384 789 363 724 275L757 408C761 424 763 439 763 451C763 470 754 482 740 482C719 482 681 461 607 408L579 388L586 368C623 391 658 414 665 414C676 414 683 404 683 389C683 338 642 145 601 2L604 -9L672 6L694 108C718 219 745 278 800 338C842 384 887 414 915 414C922 414 926 406 926 393C926 358 904 244 863 69L847 2L852 -9L921 6L942 113C958 194 992 269 1036 318C1091 379 1141 414 1173 414C1181 414 1186 405 1186 389C1186 365 1183 351 1161 264C1121 105 1105 84 1105 31C1105 6 1116 -9 1135 -9C1161 -9 1197 12 1295 85Z" stroke="rgb(0,0,0)" stroke-opacity="1" stroke-width="8" fill="rgb(0,0,0)" fill-opacity="1"></path></g></g></g><g></g><g><g><g transform="matrix(1,0,0,1,2,58.360008239746094)"><path transform="matrix(0.017,0,0,-0.017,0,0)" d="M349 664L352 692L238 689C222 689 204 689 161 690L97 692L94 664L141 662C165 661 176 653 176 635L81 55C77 37 65 30 21 23L16 -3L57 -2C88 -1 150 0 170 0C170 0 467 -1 467 -1C467 -1 500 0 500 0C499 25 510 103 523 165L492 165L475 103C466 71 457 54 448 49C435 44 371 39 304 39C255 39 228 40 162 46C165 64 256 605 256 613C263 651 270 658 307 661Z" stroke="rgb(0,0,0)" stroke-opacity="1" stroke-width="8" fill="rgb(0,0,0)" fill-opacity="1"></path></g></g><g><g transform="matrix(1,0,0,1,14.824996948242188,58.360008239746094)"><path transform="matrix(0.017,0,0,-0.017,0,0)" d="M123 111C93 111 66 83 66 53C66 23 93 -5 122 -5C154 -5 182 22 182 53C182 83 154 111 123 111ZM123 456C93 456 66 428 66 398C66 368 93 340 122 340C154 340 182 367 182 397C182 428 154 456 123 456Z" stroke="rgb(0,0,0)" stroke-opacity="1" stroke-width="8" fill="rgb(0,0,0)" fill-opacity="1"></path></g></g><g><g transform="matrix(1,0,0,1,22.460006713867188,58.360008239746094)"><path transform="matrix(0.017,0,0,-0.017,0,0)" d="M342 330L365 330C373 395 380 432 389 458C365 473 330 482 293 482C248 483 175 463 118 400C64 352 25 241 25 136C25 40 67 -11 147 -11C201 -11 249 9 304 54L354 95L346 115L331 105C259 57 221 40 186 40C130 40 101 80 101 159C101 267 136 371 185 409C206 425 230 433 261 433C306 433 342 414 342 390ZM677 204L648 77C644 60 642 42 642 26C642 4 651 -9 666 -9C689 -9 730 17 812 85L805 106C781 86 752 59 730 59C721 59 715 68 715 82C715 87 715 90 716 93L808 472L798 481L765 463C724 478 707 482 680 482C652 482 632 477 605 464C543 433 510 403 485 354C441 265 410 145 410 67C410 23 425 -11 444 -11C481 -11 561 41 677 204ZM725 414C703 305 684 253 650 201C593 117 532 59 500 59C488 59 482 72 482 99C482 163 510 280 545 360C569 415 592 433 640 433C663 433 681 429 725 414ZM1100 722L1088 733C1036 707 1000 698 928 691L924 670L972 670C996 670 1006 663 1006 648C1006 645 1006 640 1003 622C992 567 919 182 904 132C891 82 885 52 885 31C885 6 896 -9 915 -9C941 -9 977 12 1075 85L1065 103L1039 86C1010 67 988 56 978 56C971 56 965 66 965 76C965 82 966 89 969 104ZM1143 152C1143 46 1188 -11 1271 -11C1326 -11 1386 15 1431 57C1493 116 1537 230 1537 331C1537 425 1487 482 1404 482C1300 482 1143 382 1143 152ZM1367 444C1428 444 1461 399 1461 315C1461 219 1430 113 1386 60C1368 39 1342 27 1311 27C1253 27 1219 72 1219 151C1219 264 1258 387 1307 427C1320 438 1343 444 1367 444ZM1937 365C1940 403 1945 435 1953 476C1942 481 1938 482 1933 482C1902 482 1871 458 1835 407C1796 351 1757 291 1741 256L1773 408C1777 425 1779 438 1779 450C1779 470 1771 482 1756 482C1735 482 1697 461 1623 408L1595 388L1602 368L1634 389C1662 407 1673 412 1682 412C1692 412 1699 403 1699 390C1699 332 1656 126 1616 -2L1626 -9C1641 -4 1657 -1 1680 4L1693 6L1719 126C1737 209 1760 262 1804 319C1838 363 1865 384 1887 384C1902 384 1912 379 1923 365ZM2457 722L2445 733C2393 707 2357 698 2285 691L2281 670L2329 670C2353 670 2363 663 2363 648C2363 645 2363 640 2360 622C2349 567 2276 182 2261 132C2248 82 2242 52 2242 31C2242 6 2253 -9 2272 -9C2298 -9 2334 12 2432 85L2422 103L2396 86C2367 67 2345 56 2335 56C2328 56 2322 66 2322 76C2322 82 2323 89 2326 104ZM2754 204L2725 77C2721 60 2719 42 2719 26C2719 4 2728 -9 2743 -9C2766 -9 2807 17 2889 85L2882 106C2858 86 2829 59 2807 59C2798 59 2792 68 2792 82C2792 87 2792 90 2793 93L2885 472L2875 481L2842 463C2801 478 2784 482 2757 482C2729 482 2709 477 2682 464C2620 433 2587 403 2562 354C2518 265 2487 145 2487 67C2487 23 2502 -11 2521 -11C2558 -11 2638 41 2754 204ZM2802 414C2780 305 2761 253 2727 201C2670 117 2609 59 2577 59C2565 59 2559 72 2559 99C2559 163 2587 280 2622 360C2646 415 2669 433 2717 433C2740 433 2758 429 2802 414ZM3051 390L2995 107C2994 99 2982 61 2982 31C2982 6 2993 -9 3012 -9C3047 -9 3082 11 3160 74L3191 99L3181 117L3136 86C3107 66 3087 56 3076 56C3067 56 3062 64 3062 76C3062 102 3076 183 3105 328L3118 390L3225 390L3236 440C3198 436 3164 434 3126 434C3142 528 3153 577 3171 631L3160 646C3140 634 3113 622 3082 610L3057 440C3013 419 2987 408 2969 403L2967 390ZM3586 111L3562 94C3509 56 3461 36 3425 36C3378 36 3349 73 3349 133C3349 158 3352 185 3357 214C3374 218 3483 248 3508 259C3593 296 3632 342 3632 404C3632 451 3598 482 3548 482C3480 496 3370 423 3333 349C3303 299 3273 180 3273 113C3273 35 3317 -11 3389 -11C3446 -11 3502 17 3594 92ZM3371 274C3388 343 3408 386 3437 412C3455 428 3486 440 3510 440C3539 440 3558 420 3558 388C3558 344 3523 297 3471 272C3443 258 3407 247 3362 237ZM3670 388L3677 368L3709 389C3746 412 3749 414 3756 414C3767 414 3774 404 3774 389C3774 338 3733 145 3692 2L3699 -9C3724 -2 3747 4 3769 8C3788 134 3809 199 3855 268C3909 352 3984 414 4029 414C4040 414 4046 405 4046 390C4046 372 4043 351 4035 319L3983 107C3974 70 3970 47 3970 31C3970 6 3981 -9 4000 -9C4026 -9 4062 12 4160 85L4150 103L4124 86C4095 67 4073 56 4063 56C4056 56 4050 65 4050 76C4050 81 4051 92 4052 96L4118 372C4125 401 4129 429 4129 446C4129 469 4118 482 4098 482C4056 482 3987 444 3928 389C3890 354 3862 320 3810 247L3848 408C3852 426 3854 438 3854 449C3854 470 3846 482 3831 482C3810 482 3771 460 3698 408ZM4326 390L4270 107C4269 99 4257 61 4257 31C4257 6 4268 -9 4287 -9C4322 -9 4357 11 4435 74L4466 99L4456 117L4411 86C4382 66 4362 56 4351 56C4342 56 4337 64 4337 76C4337 102 4351 183 4380 328L4393 390L4500 390L4511 440C4473 436 4439 434 4401 434C4417 528 4428 577 4446 631L4435 646C4415 634 4388 622 4357 610L4332 440C4288 419 4262 408 4244 403L4242 390ZM4861 111L4837 94C4784 56 4736 36 4700 36C4653 36 4624 73 4624 133C4624 158 4627 185 4632 214C4649 218 4758 248 4783 259C4868 296 4907 342 4907 404C4907 451 4873 482 4823 482C4755 496 4645 423 4608 349C4578 299 4548 180 4548 113C4548 35 4592 -11 4664 -11C4721 -11 4777 17 4869 92ZM4646 274C4663 343 4683 386 4712 412C4730 428 4761 440 4785 440C4814 440 4833 420 4833 388C4833 344 4798 297 4746 272C4718 258 4682 247 4637 237Z" stroke="rgb(0,0,0)" stroke-opacity="1" stroke-width="8" fill="rgb(0,0,0)" fill-opacity="1"></path></g></g><g><g transform="matrix(1,0,0,1,110.31501770019531,59.31999969482422)"><path transform="matrix(0.017,0,0,-0.017,0,0)" d="M146 266C146 526 243 632 301 700L282 726C225 675 60 542 60 266C60 159 85 58 133 -32C168 -99 200 -138 282 -215L301 -194C255 -137 146 -15 146 266Z" stroke="rgb(0,0,0)" stroke-opacity="1" stroke-width="8" fill="rgb(0,0,0)" fill-opacity="1"></path></g></g><g><g transform="matrix(1,0,0,1,115.97001647949219,58.360008239746094)"><path transform="matrix(0.017,0,0,-0.017,0,0)" d="M355 664L358 692L244 689C228 689 210 689 167 690L103 692L100 664L147 662C171 661 182 653 182 635C182 630 182 627 181 622L86 -21C71 -124 41 -174 -6 -174C-18 -174 -27 -173 -35 -170L-32 -196C-21 -203 -9 -206 3 -206C38 -206 143 -178 177 54L262 613C268 651 275 658 313 661Z" stroke="rgb(0,0,0)" stroke-opacity="1" stroke-width="8" fill="rgb(0,0,0)" fill-opacity="1"></path></g></g><g><g transform="matrix(1,0,0,1,125.01499938964844,58.360008239746094)"><path transform="matrix(0.017,0,0,-0.017,0,0)" d="M297 714L242 714L-37 -169L18 -169Z" stroke="rgb(0,0,0)" stroke-opacity="1" stroke-width="8" fill="rgb(0,0,0)" fill-opacity="1"></path></g></g><g><g transform="matrix(1,0,0,1,133.26499938964844,58.360008239746094)"><path transform="matrix(0.017,0,0,-0.017,0,0)" d="M371 664L374 692L350 692L260 689C244 689 226 689 183 690L119 692L116 664L163 662C187 661 198 653 198 635C198 621 195 592 189 559L116 125C99 33 98 32 58 28L17 25L13 -3L55 -2C103 -1 126 0 145 0L242 -3L268 -3L271 25L222 28C195 30 186 37 186 57C186 63 187 74 188 78L231 340C381 169 404 140 509 -3L578 0C614 -1 620 -2 646 -3L646 27L626 27C603 27 583 39 562 65L316 367L608 640C624 655 645 665 662 665L683 665L683 692L660 691C639 690 623 689 615 689C605 689 589 690 568 691L548 692L548 663C548 655 538 642 510 614C466 569 297 403 233 353L278 613C285 651 292 658 329 661ZM941 482C874 482 721 419 721 259C721 182 766 136 843 136C851 136 862 136 873 137L832 99C816 84 805 66 805 52C805 42 812 31 826 19C757 -4 629 -48 629 -159C629 -230 699 -276 808 -276C937 -276 1050 -204 1050 -121C1050 -85 1029 -49 986 -14L926 35C892 62 879 81 879 100C879 114 894 128 906 146C1004 170 1075 253 1075 342C1075 357 1072 376 1071 380C1088 378 1096 378 1105 378C1122 378 1132 379 1155 382L1164 427L1161 433C1133 426 1113 424 1059 424C1059 425 1035 482 941 482ZM842 1L919 -58C965 -94 984 -121 984 -154C984 -206 915 -248 832 -248C750 -248 693 -206 693 -145C693 -43 803 -11 842 1ZM916 448C974 448 1003 412 1003 341C1003 238 955 168 885 168C824 168 792 209 792 288C792 383 843 448 916 448Z" stroke="rgb(0,0,0)" stroke-opacity="1" stroke-width="8" fill="rgb(0,0,0)" fill-opacity="1"></path></g></g><g><g transform="matrix(1,0,0,1,153.0650177001953,59.31999969482422)"><path transform="matrix(0.017,0,0,-0.017,0,0)" d="M51 726L32 700C87 636 187 526 187 266C187 -10 83 -131 32 -194L51 -215C104 -165 273 -23 273 265C273 542 108 675 51 726Z" stroke="rgb(0,0,0)" stroke-opacity="1" stroke-width="8" fill="rgb(0,0,0)" fill-opacity="1"></path></g></g></g><g><g><g transform="matrix(1,0,0,1,2,78.52001190185547)"><path transform="matrix(0.017,0,0,-0.017,0,0)" d="M730 103L704 86C675 67 653 56 643 56C636 56 630 65 630 76C630 86 632 95 637 116L712 413C716 430 719 446 719 454C719 471 709 482 693 482C664 482 626 464 565 421C502 376 467 341 418 272L448 409C452 429 455 444 455 451C455 470 445 482 429 482C399 482 353 460 298 418C254 384 234 363 169 275L202 408C206 424 208 439 208 451C208 470 199 482 185 482C164 482 126 461 52 408L24 388L31 368C68 391 103 414 110 414C121 414 128 404 128 389C128 338 87 145 46 2L49 -9L117 6L139 108C163 219 190 278 245 338C287 384 332 414 360 414C367 414 371 406 371 393C371 358 349 244 308 69L292 2L297 -9L366 6L387 113C403 194 437 269 481 318C536 379 586 414 618 414C626 414 631 405 631 389C631 365 628 351 606 264C566 105 550 84 550 31C550 6 561 -9 580 -9C606 -9 642 12 740 85Z" stroke="rgb(0,0,0)" stroke-opacity="1" stroke-width="8" fill="rgb(0,0,0)" fill-opacity="1"></path></g></g><g><g transform="matrix(1,0,0,1,18.604995727539062,78.52001190185547)"><path transform="matrix(0.017,0,0,-0.017,0,0)" d="M123 111C93 111 66 83 66 53C66 23 93 -5 122 -5C154 -5 182 22 182 53C182 83 154 111 123 111ZM123 456C93 456 66 428 66 398C66 368 93 340 122 340C154 340 182 367 182 397C182 428 154 456 123 456Z" stroke="rgb(0,0,0)" stroke-opacity="1" stroke-width="8" fill="rgb(0,0,0)" fill-opacity="1"></path></g></g><g><g transform="matrix(1,0,0,1,26.240005493164062,78.52001190185547)"><path transform="matrix(0.017,0,0,-0.017,0,0)" d="M730 103L704 86C675 67 653 56 643 56C636 56 630 65 630 76C630 86 632 95 637 116L712 413C716 430 719 446 719 454C719 471 709 482 693 482C664 482 626 464 565 421C502 376 467 341 418 272L448 409C452 429 455 444 455 451C455 470 445 482 429 482C399 482 353 460 298 418C254 384 234 363 169 275L202 408C206 424 208 439 208 451C208 470 199 482 185 482C164 482 126 461 52 408L24 388L31 368C68 391 103 414 110 414C121 414 128 404 128 389C128 338 87 145 46 2L49 -9L117 6L139 108C163 219 190 278 245 338C287 384 332 414 360 414C367 414 371 406 371 393C371 358 349 244 308 69L292 2L297 -9L366 6L387 113C403 194 437 269 481 318C536 379 586 414 618 414C626 414 631 405 631 389C631 365 628 351 606 264C566 105 550 84 550 31C550 6 561 -9 580 -9C606 -9 642 12 740 85ZM1048 204L1019 77C1015 60 1013 42 1013 26C1013 4 1022 -9 1037 -9C1060 -9 1101 17 1183 85L1176 106C1152 86 1123 59 1101 59C1092 59 1086 68 1086 82C1086 87 1086 90 1087 93L1179 472L1169 481L1136 463C1095 478 1078 482 1051 482C1023 482 1003 477 976 464C914 433 881 403 856 354C812 265 781 145 781 67C781 23 796 -11 815 -11C852 -11 932 41 1048 204ZM1096 414C1074 305 1055 253 1021 201C964 117 903 59 871 59C859 59 853 72 853 99C853 163 881 280 916 360C940 415 963 433 1011 433C1034 433 1052 429 1096 414ZM1251 148C1246 97 1240 62 1229 16C1267 -2 1301 -11 1336 -11C1385 -11 1431 7 1482 47C1533 87 1554 124 1554 174C1554 228 1522 257 1448 271L1405 279C1345 290 1326 307 1326 348C1326 401 1371 442 1428 442C1469 442 1507 424 1523 397L1523 342L1546 342C1550 377 1554 404 1565 455C1526 474 1498 482 1465 482C1413 482 1352 452 1304 404C1278 377 1267 352 1267 316C1267 260 1298 228 1364 215L1427 203C1471 195 1487 177 1487 138C1487 73 1441 29 1370 29C1335 29 1304 40 1276 64L1276 148ZM1879 204L1850 77C1846 60 1844 42 1844 26C1844 4 1853 -9 1868 -9C1891 -9 1932 17 2014 85L2007 106C1983 86 1954 59 1932 59C1923 59 1917 68 1917 82C1917 87 1917 90 1918 93L2010 472L2000 481L1967 463C1926 478 1909 482 1882 482C1854 482 1834 477 1807 464C1745 433 1712 403 1687 354C1643 265 1612 145 1612 67C1612 23 1627 -11 1646 -11C1683 -11 1763 41 1879 204ZM1927 414C1905 305 1886 253 1852 201C1795 117 1734 59 1702 59C1690 59 1684 72 1684 99C1684 163 1712 280 1747 360C1771 415 1794 433 1842 433C1865 433 1883 429 1927 414Z" stroke="rgb(0,0,0)" stroke-opacity="1" stroke-width="8" fill="rgb(0,0,0)" fill-opacity="1"></path></g></g><g><g transform="matrix(1,0,0,1,65.33000183105469,79.4800033569336)"><path transform="matrix(0.017,0,0,-0.017,0,0)" d="M146 266C146 526 243 632 301 700L282 726C225 675 60 542 60 266C60 159 85 58 133 -32C168 -99 200 -138 282 -215L301 -194C255 -137 146 -15 146 266Z" stroke="rgb(0,0,0)" stroke-opacity="1" stroke-width="8" fill="rgb(0,0,0)" fill-opacity="1"></path></g></g><g><g transform="matrix(1,0,0,1,70.98500061035156,78.52001190185547)"><path transform="matrix(0.017,0,0,-0.017,0,0)" d="M371 664L374 692L350 692L260 689C244 689 226 689 183 690L119 692L116 664L163 662C187 661 198 653 198 635C198 621 195 592 189 559L116 125C99 33 98 32 58 28L17 25L13 -3L55 -2C103 -1 126 0 145 0L242 -3L268 -3L271 25L222 28C195 30 186 37 186 57C186 63 187 74 188 78L231 340C381 169 404 140 509 -3L578 0C614 -1 620 -2 646 -3L646 27L626 27C603 27 583 39 562 65L316 367L608 640C624 655 645 665 662 665L683 665L683 692L660 691C639 690 623 689 615 689C605 689 589 690 568 691L548 692L548 663C548 655 538 642 510 614C466 569 297 403 233 353L278 613C285 651 292 658 329 661ZM941 482C874 482 721 419 721 259C721 182 766 136 843 136C851 136 862 136 873 137L832 99C816 84 805 66 805 52C805 42 812 31 826 19C757 -4 629 -48 629 -159C629 -230 699 -276 808 -276C937 -276 1050 -204 1050 -121C1050 -85 1029 -49 986 -14L926 35C892 62 879 81 879 100C879 114 894 128 906 146C1004 170 1075 253 1075 342C1075 357 1072 376 1071 380C1088 378 1096 378 1105 378C1122 378 1132 379 1155 382L1164 427L1161 433C1133 426 1113 424 1059 424C1059 425 1035 482 941 482ZM842 1L919 -58C965 -94 984 -121 984 -154C984 -206 915 -248 832 -248C750 -248 693 -206 693 -145C693 -43 803 -11 842 1ZM916 448C974 448 1003 412 1003 341C1003 238 955 168 885 168C824 168 792 209 792 288C792 383 843 448 916 448Z" stroke="rgb(0,0,0)" stroke-opacity="1" stroke-width="8" fill="rgb(0,0,0)" fill-opacity="1"></path></g></g><g><g transform="matrix(1,0,0,1,90.78501892089844,79.4800033569336)"><path transform="matrix(0.017,0,0,-0.017,0,0)" d="M51 726L32 700C87 636 187 526 187 266C187 -10 83 -131 32 -194L51 -215C104 -165 273 -23 273 265C273 542 108 675 51 726Z" stroke="rgb(0,0,0)" stroke-opacity="1" stroke-width="8" fill="rgb(0,0,0)" fill-opacity="1"></path></g></g></g></g></svg>