<svg xmlns="http://www.w3.org/2000/svg" xmlns:xlink="http://www.w3.org/1999/xlink" width="150.16000366210938" height="106.97500610351562" style="width:150.16000366210938px;height:106.97500610351562px;font-family:Asana-Math, Asana;background:#FFF;"><g><g><g><g transform="matrix(1,0,0,1,2,30.204994201660156)"><path transform="matrix(0.017,0,0,-0.017,0,0)" d="M2583 330L2606 330C2614 395 2621 432 2630 458C2606 473 2571 482 2534 482C2489 483 2416 463 2359 400C2305 352 2266 241 2266 136C2266 40 2308 -11 2388 -11C2442 -11 2490 9 2545 54L2595 95L2587 115L2572 105C2500 57 2462 40 2427 40C2371 40 2342 80 2342 159C2342 267 2377 371 2426 409C2447 425 2471 433 2502 433C2547 433 2583 414 2583 390Z" stroke="rgb(0,0,0)" stroke-opacity="1" stroke-width="8" fill="rgb(0,0,0)" fill-opacity="1"></path></g></g><g><g><g><g><g transform="matrix(1,0,0,1,47.49501037597656,34.164999389648436)"><path transform="matrix(0.0119,0,0,-0.0119,0,0)" d="M328 111L304 94C251 56 203 36 167 36C120 36 91 73 91 133C91 158 94 185 99 214C116 218 225 248 250 259C335 296 374 342 374 404C374 451 340 482 290 482C222 496 112 423 75 349C45 299 15 180 15 113C15 35 59 -11 131 -11C188 -11 244 17 336 92ZM113 274C130 343 150 386 179 412C197 428 228 440 252 440C281 440 300 420 300 388C300 344 265 297 213 272C185 258 149 247 104 237Z" stroke="rgb(0,0,0)" stroke-opacity="1" stroke-width="8" fill="rgb(0,0,0)" fill-opacity="1"></path></g></g></g></g></g><g><g transform="matrix(1,0,0,1,58.23500061035156,30.204994201660156)"><path transform="matrix(0.017,0,0,-0.017,0,0)" d="M604 347L604 406L65 406L65 347ZM604 134L604 193L65 193L65 134Z" stroke="rgb(0,0,0)" stroke-opacity="1" stroke-width="8" fill="rgb(0,0,0)" fill-opacity="1"></path></g></g><g><g><g><g><g transform="matrix(1,0,0,1,77.15000915527344,18.039993286132812)"><path transform="matrix(0.017,0,0,-0.017,0,0)" d="M45 284C45 90 152 -18 343 -18C439 -18 510 5 600 67C600 67 610 103 610 103C610 103 600 110 600 110C506 53 454 35 376 35C219 35 133 131 133 309C133 447 190 653 418 653C489 653 541 639 597 603L597 519L624 519C629 576 637 619 651 665C575 694 518 706 456 706C276 706 45 578 45 284Z" stroke="rgb(0,0,0)" stroke-opacity="1" stroke-width="8" fill="rgb(0,0,0)" fill-opacity="1"></path></g></g></g></g><g><g><g><g transform="matrix(1,0,0,1,76.38502502441406,43.375)"><path transform="matrix(0.017,0,0,-0.017,0,0)" d="M730 103L704 86C675 67 653 56 643 56C636 56 630 65 630 76C630 86 632 95 637 116L712 413C716 430 719 446 719 454C719 471 709 482 693 482C664 482 626 464 565 421C502 376 467 341 418 272L448 409C452 429 455 444 455 451C455 470 445 482 429 482C399 482 353 460 298 418C254 384 234 363 169 275L202 408C206 424 208 439 208 451C208 470 199 482 185 482C164 482 126 461 52 408L24 388L31 368C68 391 103 414 110 414C121 414 128 404 128 389C128 338 87 145 46 2L49 -9L117 6L139 108C163 219 190 278 245 338C287 384 332 414 360 414C367 414 371 406 371 393C371 358 349 244 308 69L292 2L297 -9L366 6L387 113C403 194 437 269 481 318C536 379 586 414 618 414C626 414 631 405 631 389C631 365 628 351 606 264C566 105 550 84 550 31C550 6 561 -9 580 -9C606 -9 642 12 740 85Z" stroke="rgb(0,0,0)" stroke-opacity="1" stroke-width="8" fill="rgb(0,0,0)" fill-opacity="1"></path></g></g></g></g><line style="fill:none;stroke-width:0.99px;stroke:rgb(0, 0, 0);" x1="76.38502502441406" y1="26.240000009536743" x2="89.60002517700195" y2="26.240000009536743"></line></g></g><g></g><g><g><g transform="matrix(1,0,0,1,2,80.69499206542969)"><path transform="matrix(0.017,0,0,-0.017,0,0)" d="M45 284C45 90 152 -18 343 -18C439 -18 510 5 600 67C600 67 610 103 610 103C610 103 600 110 600 110C506 53 454 35 376 35C219 35 133 131 133 309C133 447 190 653 418 653C489 653 541 639 597 603L597 519L624 519C629 576 637 619 651 665C575 694 518 706 456 706C276 706 45 578 45 284Z" stroke="rgb(0,0,0)" stroke-opacity="1" stroke-width="8" fill="rgb(0,0,0)" fill-opacity="1"></path></g></g><g><g transform="matrix(1,0,0,1,17.074996948242188,80.69499206542969)"><path transform="matrix(0.017,0,0,-0.017,0,0)" d="M123 111C93 111 66 83 66 53C66 23 93 -5 122 -5C154 -5 182 22 182 53C182 83 154 111 123 111ZM123 456C93 456 66 428 66 398C66 368 93 340 122 340C154 340 182 367 182 397C182 428 154 456 123 456Z" stroke="rgb(0,0,0)" stroke-opacity="1" stroke-width="8" fill="rgb(0,0,0)" fill-opacity="1"></path></g></g><g><g transform="matrix(1,0,0,1,24.710006713867188,80.69499206542969)"><path transform="matrix(0.017,0,0,-0.017,0,0)" d="M342 330L365 330C373 395 380 432 389 458C365 473 330 482 293 482C248 483 175 463 118 400C64 352 25 241 25 136C25 40 67 -11 147 -11C201 -11 249 9 304 54L354 95L346 115L331 105C259 57 221 40 186 40C130 40 101 80 101 159C101 267 136 371 185 409C206 425 230 433 261 433C306 433 342 414 342 390ZM677 204L648 77C644 60 642 42 642 26C642 4 651 -9 666 -9C689 -9 730 17 812 85L805 106C781 86 752 59 730 59C721 59 715 68 715 82C715 87 715 90 716 93L808 472L798 481L765 463C724 478 707 482 680 482C652 482 632 477 605 464C543 433 510 403 485 354C441 265 410 145 410 67C410 23 425 -11 444 -11C481 -11 561 41 677 204ZM725 414C703 305 684 253 650 201C593 117 532 59 500 59C488 59 482 72 482 99C482 163 510 280 545 360C569 415 592 433 640 433C663 433 681 429 725 414ZM1025 -11C1081 -11 1196 62 1239 125C1280 186 1314 296 1314 371C1314 438 1291 482 1255 482C1213 482 1160 456 1108 409C1067 374 1047 348 1011 289L1035 408C1038 425 1040 440 1040 452C1040 471 1032 482 1018 482C997 482 959 461 885 408L857 388L864 368L896 389C924 407 935 412 944 412C954 412 961 403 961 389C961 381 959 361 957 351L899 8C889 -52 870 -143 850 -233L842 -270L849 -276C870 -269 890 -264 922 -259L964 3C985 -4 1007 -11 1025 -11ZM992 165C1014 293 1121 424 1204 424C1230 424 1242 402 1242 356C1242 275 1202 156 1149 80C1129 51 1097 36 1056 36C1025 36 1000 43 974 59ZM1619 204L1590 77C1586 60 1584 42 1584 26C1584 4 1593 -9 1608 -9C1631 -9 1672 17 1754 85L1747 106C1723 86 1694 59 1672 59C1663 59 1657 68 1657 82C1657 87 1657 90 1658 93L1750 472L1740 481L1707 463C1666 478 1649 482 1622 482C1594 482 1574 477 1547 464C1485 433 1452 403 1427 354C1383 265 1352 145 1352 67C1352 23 1367 -11 1386 -11C1423 -11 1503 41 1619 204ZM1667 414C1645 305 1626 253 1592 201C1535 117 1474 59 1442 59C1430 59 1424 72 1424 99C1424 163 1452 280 1487 360C1511 415 1534 433 1582 433C1605 433 1623 429 1667 414ZM2133 330L2156 330C2164 395 2171 432 2180 458C2156 473 2121 482 2084 482C2039 483 1966 463 1909 400C1855 352 1816 241 1816 136C1816 40 1858 -11 1938 -11C1992 -11 2040 9 2095 54L2145 95L2137 115L2122 105C2050 57 2012 40 1977 40C1921 40 1892 80 1892 159C1892 267 1927 371 1976 409C1997 425 2021 433 2052 433C2097 433 2133 414 2133 390ZM2231 388L2238 368L2270 389C2307 412 2310 414 2317 414C2327 414 2335 404 2335 391C2335 384 2331 361 2327 347L2261 107C2253 76 2248 49 2248 30C2248 6 2259 -9 2278 -9C2304 -9 2340 12 2438 85L2428 103L2402 86C2373 67 2350 56 2341 56C2334 56 2328 66 2328 76C2328 86 2330 95 2335 116L2412 420C2416 437 2418 448 2418 456C2418 473 2409 482 2393 482C2371 482 2334 461 2259 408ZM2425 712C2396 712 2367 679 2367 645C2367 620 2382 604 2406 604C2437 604 2461 633 2461 671C2461 695 2446 712 2425 712ZM2957 722L2945 733C2893 707 2857 698 2785 691L2781 670L2829 670C2853 670 2863 663 2863 646C2863 638 2862 629 2861 622L2833 468C2803 477 2776 482 2751 482C2682 482 2588 410 2542 323C2511 265 2491 170 2491 86C2491 21 2506 -11 2535 -11C2562 -11 2599 6 2633 33C2687 77 2720 116 2787 217L2764 126C2753 82 2748 50 2748 24C2748 3 2757 -9 2774 -9C2791 -9 2815 3 2849 28L2930 88L2920 107L2876 76C2862 66 2846 59 2837 59C2829 59 2823 68 2823 82C2823 90 2824 99 2831 128ZM2588 59C2572 59 2563 73 2563 98C2563 224 2609 380 2658 418C2671 428 2690 433 2717 433C2761 433 2790 427 2823 410L2811 351C2774 171 2633 59 2588 59ZM3244 204L3215 77C3211 60 3209 42 3209 26C3209 4 3218 -9 3233 -9C3256 -9 3297 17 3379 85L3372 106C3348 86 3319 59 3297 59C3288 59 3282 68 3282 82C3282 87 3282 90 3283 93L3375 472L3365 481L3332 463C3291 478 3274 482 3247 482C3219 482 3199 477 3172 464C3110 433 3077 403 3052 354C3008 265 2977 145 2977 67C2977 23 2992 -11 3011 -11C3048 -11 3128 41 3244 204ZM3292 414C3270 305 3251 253 3217 201C3160 117 3099 59 3067 59C3055 59 3049 72 3049 99C3049 163 3077 280 3112 360C3136 415 3159 433 3207 433C3230 433 3248 429 3292 414ZM3899 722L3887 733C3835 707 3799 698 3727 691L3723 670L3771 670C3795 670 3805 663 3805 646C3805 638 3804 629 3803 622L3775 468C3745 477 3718 482 3693 482C3624 482 3530 410 3484 323C3453 265 3433 170 3433 86C3433 21 3448 -11 3477 -11C3504 -11 3541 6 3575 33C3629 77 3662 116 3729 217L3706 126C3695 82 3690 50 3690 24C3690 3 3699 -9 3716 -9C3733 -9 3757 3 3791 28L3872 88L3862 107L3818 76C3804 66 3788 59 3779 59C3771 59 3765 68 3765 82C3765 90 3766 99 3773 128ZM3530 59C3514 59 3505 73 3505 98C3505 224 3551 380 3600 418C3613 428 3632 433 3659 433C3703 433 3732 427 3765 410L3753 351C3716 171 3575 59 3530 59ZM4289 390L4233 107C4232 99 4220 61 4220 31C4220 6 4231 -9 4250 -9C4285 -9 4320 11 4398 74L4429 99L4419 117L4374 86C4345 66 4325 56 4314 56C4305 56 4300 64 4300 76C4300 102 4314 183 4343 328L4356 390L4463 390L4474 440C4436 436 4402 434 4364 434C4380 528 4391 577 4409 631L4398 646C4378 634 4351 622 4320 610L4295 440C4251 419 4225 408 4207 403L4205 390ZM4746 -20C4824 -20 4905 24 4913 36L4933 70L4920 80C4856 42 4833 33 4790 33C4725 33 4671 62 4643 111C4624 144 4617 172 4615 230L4761 230C4830 230 4873 233 4942 244C4943 258 4944 267 4944 279C4944 394 4870 469 4758 469C4721 469 4678 456 4637 432C4555 385 4522 323 4522 219C4522 24 4658 -20 4746 -20ZM4855 267C4803 265 4779 264 4743 264C4697 264 4671 265 4617 270C4617 317 4621 339 4634 365C4655 409 4698 436 4746 436C4779 436 4805 423 4823 396C4845 363 4852 334 4855 267ZM4647 506L4687 506L4831 596C4864 617 4871 625 4871 643C4871 662 4857 677 4840 677C4825 677 4807 666 4785 644ZM5342 365C5345 403 5350 435 5358 476C5347 481 5343 482 5338 482C5307 482 5276 458 5240 407C5201 351 5162 291 5146 256L5178 408C5182 425 5184 438 5184 450C5184 470 5176 482 5161 482C5140 482 5102 461 5028 408L5000 388L5007 368L5039 389C5067 407 5078 412 5087 412C5097 412 5104 403 5104 390C5104 332 5061 126 5021 -2L5031 -9C5046 -4 5062 -1 5085 4L5098 6L5124 126C5142 209 5165 262 5209 319C5243 363 5270 384 5292 384C5307 384 5317 379 5328 365ZM6092 103L6066 86C6037 67 6015 56 6005 56C5998 56 5992 65 5992 76C5992 86 5994 95 5999 116L6074 413C6078 430 6081 446 6081 454C6081 471 6071 482 6055 482C6026 482 5988 464 5927 421C5864 376 5829 341 5780 272L5810 409C5814 429 5817 444 5817 451C5817 470 5807 482 5791 482C5761 482 5715 460 5660 418C5616 384 5596 363 5531 275L5564 408C5568 424 5570 439 5570 451C5570 470 5561 482 5547 482C5526 482 5488 461 5414 408L5386 388L5393 368C5430 391 5465 414 5472 414C5483 414 5490 404 5490 389C5490 338 5449 145 5408 2L5411 -9L5479 6L5501 108C5525 219 5552 278 5607 338C5649 384 5694 414 5722 414C5729 414 5733 406 5733 393C5733 358 5711 244 5670 69L5654 2L5659 -9L5728 6L5749 113C5765 194 5799 269 5843 318C5898 379 5948 414 5980 414C5988 414 5993 405 5993 389C5993 365 5990 351 5968 264C5928 105 5912 84 5912 31C5912 6 5923 -9 5942 -9C5968 -9 6004 12 6102 85ZM6173 388L6180 368L6212 389C6249 412 6252 414 6259 414C6269 414 6277 404 6277 391C6277 384 6273 361 6269 347L6203 107C6195 76 6190 49 6190 30C6190 6 6201 -9 6220 -9C6246 -9 6282 12 6380 85L6370 103L6344 86C6315 67 6292 56 6283 56C6276 56 6270 66 6270 76C6270 86 6272 95 6277 116L6354 420C6358 437 6360 448 6360 456C6360 473 6351 482 6335 482C6313 482 6276 461 6201 408ZM6367 712C6338 712 6309 679 6309 645C6309 620 6324 604 6348 604C6379 604 6403 633 6403 671C6403 695 6388 712 6367 712ZM6758 330L6781 330C6789 395 6796 432 6805 458C6781 473 6746 482 6709 482C6664 483 6591 463 6534 400C6480 352 6441 241 6441 136C6441 40 6483 -11 6563 -11C6617 -11 6665 9 6720 54L6770 95L6762 115L6747 105C6675 57 6637 40 6602 40C6546 40 6517 80 6517 159C6517 267 6552 371 6601 409C6622 425 6646 433 6677 433C6722 433 6758 414 6758 390ZM7093 204L7064 77C7060 60 7058 42 7058 26C7058 4 7067 -9 7082 -9C7105 -9 7146 17 7228 85L7221 106C7197 86 7168 59 7146 59C7137 59 7131 68 7131 82C7131 87 7131 90 7132 93L7224 472L7214 481L7181 463C7140 478 7123 482 7096 482C7068 482 7048 477 7021 464C6959 433 6926 403 6901 354C6857 265 6826 145 6826 67C6826 23 6841 -11 6860 -11C6897 -11 6977 41 7093 204ZM7141 414C7119 305 7100 253 7066 201C7009 117 6948 59 6916 59C6904 59 6898 72 6898 99C6898 163 6926 280 6961 360C6985 415 7008 433 7056 433C7079 433 7097 429 7141 414Z" stroke="rgb(0,0,0)" stroke-opacity="1" stroke-width="8" fill="rgb(0,0,0)" fill-opacity="1"></path></g></g></g><g><g><g transform="matrix(1,0,0,1,2,100.85499572753906)"><path transform="matrix(0.017,0,0,-0.017,0,0)" d="M730 103L704 86C675 67 653 56 643 56C636 56 630 65 630 76C630 86 632 95 637 116L712 413C716 430 719 446 719 454C719 471 709 482 693 482C664 482 626 464 565 421C502 376 467 341 418 272L448 409C452 429 455 444 455 451C455 470 445 482 429 482C399 482 353 460 298 418C254 384 234 363 169 275L202 408C206 424 208 439 208 451C208 470 199 482 185 482C164 482 126 461 52 408L24 388L31 368C68 391 103 414 110 414C121 414 128 404 128 389C128 338 87 145 46 2L49 -9L117 6L139 108C163 219 190 278 245 338C287 384 332 414 360 414C367 414 371 406 371 393C371 358 349 244 308 69L292 2L297 -9L366 6L387 113C403 194 437 269 481 318C536 379 586 414 618 414C626 414 631 405 631 389C631 365 628 351 606 264C566 105 550 84 550 31C550 6 561 -9 580 -9C606 -9 642 12 740 85Z" stroke="rgb(0,0,0)" stroke-opacity="1" stroke-width="8" fill="rgb(0,0,0)" fill-opacity="1"></path></g></g><g><g transform="matrix(1,0,0,1,18.604995727539062,100.85499572753906)"><path transform="matrix(0.017,0,0,-0.017,0,0)" d="M123 111C93 111 66 83 66 53C66 23 93 -5 122 -5C154 -5 182 22 182 53C182 83 154 111 123 111ZM123 456C93 456 66 428 66 398C66 368 93 340 122 340C154 340 182 367 182 397C182 428 154 456 123 456Z" stroke="rgb(0,0,0)" stroke-opacity="1" stroke-width="8" fill="rgb(0,0,0)" fill-opacity="1"></path></g></g><g><g transform="matrix(1,0,0,1,26.240005493164062,100.85499572753906)"><path transform="matrix(0.017,0,0,-0.017,0,0)" d="M730 103L704 86C675 67 653 56 643 56C636 56 630 65 630 76C630 86 632 95 637 116L712 413C716 430 719 446 719 454C719 471 709 482 693 482C664 482 626 464 565 421C502 376 467 341 418 272L448 409C452 429 455 444 455 451C455 470 445 482 429 482C399 482 353 460 298 418C254 384 234 363 169 275L202 408C206 424 208 439 208 451C208 470 199 482 185 482C164 482 126 461 52 408L24 388L31 368C68 391 103 414 110 414C121 414 128 404 128 389C128 338 87 145 46 2L49 -9L117 6L139 108C163 219 190 278 245 338C287 384 332 414 360 414C367 414 371 406 371 393C371 358 349 244 308 69L292 2L297 -9L366 6L387 113C403 194 437 269 481 318C536 379 586 414 618 414C626 414 631 405 631 389C631 365 628 351 606 264C566 105 550 84 550 31C550 6 561 -9 580 -9C606 -9 642 12 740 85ZM1048 204L1019 77C1015 60 1013 42 1013 26C1013 4 1022 -9 1037 -9C1060 -9 1101 17 1183 85L1176 106C1152 86 1123 59 1101 59C1092 59 1086 68 1086 82C1086 87 1086 90 1087 93L1179 472L1169 481L1136 463C1095 478 1078 482 1051 482C1023 482 1003 477 976 464C914 433 881 403 856 354C812 265 781 145 781 67C781 23 796 -11 815 -11C852 -11 932 41 1048 204ZM1096 414C1074 305 1055 253 1021 201C964 117 903 59 871 59C859 59 853 72 853 99C853 163 881 280 916 360C940 415 963 433 1011 433C1034 433 1052 429 1096 414ZM1251 148C1246 97 1240 62 1229 16C1267 -2 1301 -11 1336 -11C1385 -11 1431 7 1482 47C1533 87 1554 124 1554 174C1554 228 1522 257 1448 271L1405 279C1345 290 1326 307 1326 348C1326 401 1371 442 1428 442C1469 442 1507 424 1523 397L1523 342L1546 342C1550 377 1554 404 1565 455C1526 474 1498 482 1465 482C1413 482 1352 452 1304 404C1278 377 1267 352 1267 316C1267 260 1298 228 1364 215L1427 203C1471 195 1487 177 1487 138C1487 73 1441 29 1370 29C1335 29 1304 40 1276 64L1276 148ZM1879 204L1850 77C1846 60 1844 42 1844 26C1844 4 1853 -9 1868 -9C1891 -9 1932 17 2014 85L2007 106C1983 86 1954 59 1932 59C1923 59 1917 68 1917 82C1917 87 1917 90 1918 93L2010 472L2000 481L1967 463C1926 478 1909 482 1882 482C1854 482 1834 477 1807 464C1745 433 1712 403 1687 354C1643 265 1612 145 1612 67C1612 23 1627 -11 1646 -11C1683 -11 1763 41 1879 204ZM1927 414C1905 305 1886 253 1852 201C1795 117 1734 59 1702 59C1690 59 1684 72 1684 99C1684 163 1712 280 1747 360C1771 415 1794 433 1842 433C1865 433 1883 429 1927 414Z" stroke="rgb(0,0,0)" stroke-opacity="1" stroke-width="8" fill="rgb(0,0,0)" fill-opacity="1"></path></g></g></g></g></svg>