<svg xmlns="http://www.w3.org/2000/svg" xmlns:xlink="http://www.w3.org/1999/xlink" width="216.10000610351562" height="106.18000030517578" style="width:216.10000610351562px;height:106.18000030517578px;font-family:Asana-Math, Asana;background:#FFF;"><g><g><g><g transform="matrix(1,0,0,1,2,18.040000915527344)"><path transform="matrix(0.017,0,0,-0.017,0,0)" d="M3139 -172C3139 -95 3163 -59 3216 -59C3245 -59 3273 -67 3312 -88L3457 -164C3517 -195 3535 -201 3575 -201C3650 -201 3686 -158 3696 -61L3671 -61C3665 -115 3643 -140 3603 -140C3586 -140 3567 -135 3541 -125L3305 -29C3280 -19 3262 -15 3239 -15C3165 -15 3114 -66 3114 -142C3114 -144 3114 -151 3115 -159ZM3736 425C3736 603 3632 706 3452 706C3215 706 3041 523 3041 272C3041 83 3135 -18 3311 -18C3583 -18 3736 207 3736 425ZM3648 409C3648 221 3559 24 3348 24C3204 24 3129 110 3129 277C3129 425 3187 664 3421 664C3537 664 3648 610 3648 409Z" stroke="rgb(0,0,0)" stroke-opacity="1" stroke-width="8" fill="rgb(0,0,0)" fill-opacity="1"></path></g></g><g><g transform="matrix(1,0,0,1,71.07501220703125,18.040000915527344)"><path transform="matrix(0.017,0,0,-0.017,0,0)" d="M604 347L604 406L65 406L65 347ZM604 134L604 193L65 193L65 134Z" stroke="rgb(0,0,0)" stroke-opacity="1" stroke-width="8" fill="rgb(0,0,0)" fill-opacity="1"></path></g></g><g><g transform="matrix(1,0,0,1,87.52999877929688,18.040000915527344)"><path transform="matrix(0.017,0,0,-0.017,0,0)" d="M342 330L365 330C373 395 380 432 389 458C365 473 330 482 293 482C248 483 175 463 118 400C64 352 25 241 25 136C25 40 67 -11 147 -11C201 -11 249 9 304 54L354 95L346 115L331 105C259 57 221 40 186 40C130 40 101 80 101 159C101 267 136 371 185 409C206 425 230 433 261 433C306 433 342 414 342 390Z" stroke="rgb(0,0,0)" stroke-opacity="1" stroke-width="8" fill="rgb(0,0,0)" fill-opacity="1"></path></g></g><g><g><g><g><g transform="matrix(1,0,0,1,94.94000244140625,22.000006103515624)"><path transform="matrix(0.0119,0,0,-0.0119,0,0)" d="M328 111L304 94C251 56 203 36 167 36C120 36 91 73 91 133C91 158 94 185 99 214C116 218 225 248 250 259C335 296 374 342 374 404C374 451 340 482 290 482C222 496 112 423 75 349C45 299 15 180 15 113C15 35 59 -11 131 -11C188 -11 244 17 336 92ZM113 274C130 343 150 386 179 412C197 428 228 440 252 440C281 440 300 420 300 388C300 344 265 297 213 272C185 258 149 247 104 237Z" stroke="rgb(0,0,0)" stroke-opacity="1" stroke-width="8" fill="rgb(0,0,0)" fill-opacity="1"></path></g></g></g></g></g><g><g transform="matrix(1,0,0,1,100.58001708984375,18.040000915527344)"><path transform="matrix(0.017,0,0,-0.017,0,0)" d="M730 103L704 86C675 67 653 56 643 56C636 56 630 65 630 76C630 86 632 95 637 116L712 413C716 430 719 446 719 454C719 471 709 482 693 482C664 482 626 464 565 421C502 376 467 341 418 272L448 409C452 429 455 444 455 451C455 470 445 482 429 482C399 482 353 460 298 418C254 384 234 363 169 275L202 408C206 424 208 439 208 451C208 470 199 482 185 482C164 482 126 461 52 408L24 388L31 368C68 391 103 414 110 414C121 414 128 404 128 389C128 338 87 145 46 2L49 -9L117 6L139 108C163 219 190 278 245 338C287 384 332 414 360 414C367 414 371 406 371 393C371 358 349 244 308 69L292 2L297 -9L366 6L387 113C403 194 437 269 481 318C536 379 586 414 618 414C626 414 631 405 631 389C631 365 628 351 606 264C566 105 550 84 550 31C550 6 561 -9 580 -9C606 -9 642 12 740 85Z" stroke="rgb(0,0,0)" stroke-opacity="1" stroke-width="8" fill="rgb(0,0,0)" fill-opacity="1"></path></g></g><g><g transform="matrix(1,0,0,1,113.79501342773438,18.040000915527344)"><path transform="matrix(0.017,0,0,-0.017,0,0)" d="M662 6L655 -4C549 0 443 0 336 0C235 0 134 -1 33 -4L27 6C88 116 136 238 186 354C235 466 288 580 327 697L352 697C395 590 597 128 662 6ZM584 37C518 215 447 389 371 564L364 564C289 391 217 215 152 37Z" stroke="rgb(0,0,0)" stroke-opacity="1" stroke-width="8" fill="rgb(0,0,0)" fill-opacity="1"></path></g></g><g><g transform="matrix(1,0,0,1,125.49502563476562,18.040000915527344)"><path transform="matrix(0.017,0,0,-0.017,0,0)" d="M390 646L463 646C541 646 577 641 580 629C583 621 585 602 584 592L580 528L608 528L635 692L544 691C456 690 388 689 353 689C316 689 252 690 166 691L71 692L53 528L82 528L97 588C102 610 109 626 115 633C121 640 159 646 196 646L308 646L222 125C206 34 204 31 164 28L113 25L109 -3L166 -2C206 -1 235 0 251 0C270 0 301 -1 340 -2L384 -3L387 25L328 28C302 29 292 37 292 58C292 67 293 74 296 93Z" stroke="rgb(0,0,0)" stroke-opacity="1" stroke-width="8" fill="rgb(0,0,0)" fill-opacity="1"></path></g></g></g><g></g><g><g><g transform="matrix(1,0,0,1,2,59.73999786376953)"><path transform="matrix(0.017,0,0,-0.017,0,0)" d="M342 330L365 330C373 395 380 432 389 458C365 473 330 482 293 482C248 483 175 463 118 400C64 352 25 241 25 136C25 40 67 -11 147 -11C201 -11 249 9 304 54L354 95L346 115L331 105C259 57 221 40 186 40C130 40 101 80 101 159C101 267 136 371 185 409C206 425 230 433 261 433C306 433 342 414 342 390Z" stroke="rgb(0,0,0)" stroke-opacity="1" stroke-width="8" fill="rgb(0,0,0)" fill-opacity="1"></path></g></g><g><g transform="matrix(1,0,0,1,12.290008544921875,59.73999786376953)"><path transform="matrix(0.017,0,0,-0.017,0,0)" d="M123 111C93 111 66 83 66 53C66 23 93 -5 122 -5C154 -5 182 22 182 53C182 83 154 111 123 111ZM123 456C93 456 66 428 66 398C66 368 93 340 122 340C154 340 182 367 182 397C182 428 154 456 123 456Z" stroke="rgb(0,0,0)" stroke-opacity="1" stroke-width="8" fill="rgb(0,0,0)" fill-opacity="1"></path></g></g><g><g transform="matrix(1,0,0,1,19.925003051757812,59.73999786376953)"><path transform="matrix(0.017,0,0,-0.017,0,0)" d="M342 330L365 330C373 395 380 432 389 458C365 473 330 482 293 482C248 483 175 463 118 400C64 352 25 241 25 136C25 40 67 -11 147 -11C201 -11 249 9 304 54L354 95L346 115L331 105C259 57 221 40 186 40C130 40 101 80 101 159C101 267 136 371 185 409C206 425 230 433 261 433C306 433 342 414 342 390ZM677 204L648 77C644 60 642 42 642 26C642 4 651 -9 666 -9C689 -9 730 17 812 85L805 106C781 86 752 59 730 59C721 59 715 68 715 82C715 87 715 90 716 93L808 472L798 481L765 463C724 478 707 482 680 482C652 482 632 477 605 464C543 433 510 403 485 354C441 265 410 145 410 67C410 23 425 -11 444 -11C481 -11 561 41 677 204ZM725 414C703 305 684 253 650 201C593 117 532 59 500 59C488 59 482 72 482 99C482 163 510 280 545 360C569 415 592 433 640 433C663 433 681 429 725 414ZM1100 722L1088 733C1036 707 1000 698 928 691L924 670L972 670C996 670 1006 663 1006 648C1006 645 1006 640 1003 622C992 567 919 182 904 132C891 82 885 52 885 31C885 6 896 -9 915 -9C941 -9 977 12 1075 85L1065 103L1039 86C1010 67 988 56 978 56C971 56 965 66 965 76C965 82 966 89 969 104ZM1143 152C1143 46 1188 -11 1271 -11C1326 -11 1386 15 1431 57C1493 116 1537 230 1537 331C1537 425 1487 482 1404 482C1300 482 1143 382 1143 152ZM1367 444C1428 444 1461 399 1461 315C1461 219 1430 113 1386 60C1368 39 1342 27 1311 27C1253 27 1219 72 1219 151C1219 264 1258 387 1307 427C1320 438 1343 444 1367 444ZM1937 365C1940 403 1945 435 1953 476C1942 481 1938 482 1933 482C1902 482 1871 458 1835 407C1796 351 1757 291 1741 256L1773 408C1777 425 1779 438 1779 450C1779 470 1771 482 1756 482C1735 482 1697 461 1623 408L1595 388L1602 368L1634 389C1662 407 1673 412 1682 412C1692 412 1699 403 1699 390C1699 332 1656 126 1616 -2L1626 -9C1641 -4 1657 -1 1680 4L1693 6L1719 126C1737 209 1760 262 1804 319C1838 363 1865 384 1887 384C1902 384 1912 379 1923 365ZM2534 111L2510 94C2457 56 2409 36 2373 36C2326 36 2297 73 2297 133C2297 158 2300 185 2305 214C2322 218 2431 248 2456 259C2541 296 2580 342 2580 404C2580 451 2546 482 2496 482C2428 496 2318 423 2281 349C2251 299 2221 180 2221 113C2221 35 2265 -11 2337 -11C2394 -11 2450 17 2542 92ZM2319 274C2336 343 2356 386 2385 412C2403 428 2434 440 2458 440C2487 440 2506 420 2506 388C2506 344 2471 297 2419 272C2391 258 2355 247 2310 237ZM2625 148C2620 97 2614 62 2603 16C2641 -2 2675 -11 2710 -11C2759 -11 2805 7 2856 47C2907 87 2928 124 2928 174C2928 228 2896 257 2822 271L2779 279C2719 290 2700 307 2700 348C2700 401 2745 442 2802 442C2843 442 2881 424 2897 397L2897 342L2920 342C2924 377 2928 404 2939 455C2900 474 2872 482 2839 482C2787 482 2726 452 2678 404C2652 377 2641 352 2641 316C2641 260 2672 228 2738 215L2801 203C2845 195 2861 177 2861 138C2861 73 2815 29 2744 29C2709 29 2678 40 2650 64L2650 148ZM3158 -11C3214 -11 3329 62 3372 125C3413 186 3447 296 3447 371C3447 438 3424 482 3388 482C3346 482 3293 456 3241 409C3200 374 3180 348 3144 289L3168 408C3171 425 3173 440 3173 452C3173 471 3165 482 3151 482C3130 482 3092 461 3018 408L2990 388L2997 368L3029 389C3057 407 3068 412 3077 412C3087 412 3094 403 3094 389C3094 381 3092 361 3090 351L3032 8C3022 -52 3003 -143 2983 -233L2975 -270L2982 -276C3003 -269 3023 -264 3055 -259L3097 3C3118 -4 3140 -11 3158 -11ZM3125 165C3147 293 3254 424 3337 424C3363 424 3375 402 3375 356C3375 275 3335 156 3282 80C3262 51 3230 36 3189 36C3158 36 3133 43 3107 59ZM3809 111L3785 94C3732 56 3684 36 3648 36C3601 36 3572 73 3572 133C3572 158 3575 185 3580 214C3597 218 3706 248 3731 259C3816 296 3855 342 3855 404C3855 451 3821 482 3771 482C3703 496 3593 423 3556 349C3526 299 3496 180 3496 113C3496 35 3540 -11 3612 -11C3669 -11 3725 17 3817 92ZM3594 274C3611 343 3631 386 3660 412C3678 428 3709 440 3733 440C3762 440 3781 420 3781 388C3781 344 3746 297 3694 272C3666 258 3630 247 3585 237ZM4211 330L4234 330C4242 395 4249 432 4258 458C4234 473 4199 482 4162 482C4117 483 4044 463 3987 400C3933 352 3894 241 3894 136C3894 40 3936 -11 4016 -11C4070 -11 4118 9 4173 54L4223 95L4215 115L4200 105C4128 57 4090 40 4055 40C3999 40 3970 80 3970 159C3970 267 4005 371 4054 409C4075 425 4099 433 4130 433C4175 433 4211 414 4211 390ZM4309 388L4316 368L4348 389C4385 412 4388 414 4395 414C4405 414 4413 404 4413 391C4413 384 4409 361 4405 347L4339 107C4331 76 4326 49 4326 30C4326 6 4337 -9 4356 -9C4382 -9 4418 12 4516 85L4506 103L4480 86C4451 67 4428 56 4419 56C4412 56 4406 66 4406 76C4406 86 4408 95 4413 116L4490 420C4494 437 4496 448 4496 456C4496 473 4487 482 4471 482C4449 482 4412 461 4337 408ZM4503 712C4474 712 4445 679 4445 645C4445 620 4460 604 4484 604C4515 604 4539 633 4539 671C4539 695 4524 712 4503 712ZM4897 437L4881 437L4902 549C4918 635 4946 673 4992 673C5022 673 5049 658 5064 634L5074 638C5079 654 5089 685 5097 705L5102 720C5086 727 5055 733 5032 733C5021 733 5005 730 4997 726C4973 715 4891 654 4868 630C4846 608 4834 578 4823 521L4808 442C4767 422 4747 414 4722 405L4717 383L4798 383L4789 327C4759 132 4722 -54 4700 -123C4682 -182 4652 -213 4616 -213C4593 -213 4582 -206 4564 -184L4550 -188C4546 -211 4532 -259 4527 -268C4536 -273 4551 -276 4562 -276C4603 -276 4657 -245 4696 -198C4767 -114 4787 -18 4871 383L4975 383C4979 402 4986 425 4992 439L4988 446C4959 439 4960 437 4897 437ZM5136 388L5143 368L5175 389C5212 412 5215 414 5222 414C5232 414 5240 404 5240 391C5240 384 5236 361 5232 347L5166 107C5158 76 5153 49 5153 30C5153 6 5164 -9 5183 -9C5209 -9 5245 12 5343 85L5333 103L5307 86C5278 67 5255 56 5246 56C5239 56 5233 66 5233 76C5233 86 5235 95 5240 116L5317 420C5321 437 5323 448 5323 456C5323 473 5314 482 5298 482C5276 482 5239 461 5164 408ZM5330 712C5301 712 5272 679 5272 645C5272 620 5287 604 5311 604C5342 604 5366 633 5366 671C5366 695 5351 712 5330 712ZM5721 330L5744 330C5752 395 5759 432 5768 458C5744 473 5709 482 5672 482C5627 483 5554 463 5497 400C5443 352 5404 241 5404 136C5404 40 5446 -11 5526 -11C5580 -11 5628 9 5683 54L5733 95L5725 115L5710 105C5638 57 5600 40 5565 40C5509 40 5480 80 5480 159C5480 267 5515 371 5564 409C5585 425 5609 433 5640 433C5685 433 5721 414 5721 390ZM5802 152C5802 46 5847 -11 5930 -11C5985 -11 6045 15 6090 57C6152 116 6196 230 6196 331C6196 425 6146 482 6063 482C5959 482 5802 382 5802 152ZM6026 444C6087 444 6120 399 6120 315C6120 219 6089 113 6045 60C6027 39 6001 27 5970 27C5912 27 5878 72 5878 151C5878 264 5917 387 5966 427C5979 438 6002 444 6026 444Z" stroke="rgb(0,0,0)" stroke-opacity="1" stroke-width="8" fill="rgb(0,0,0)" fill-opacity="1"></path></g></g><g><g transform="matrix(1,0,0,1,129.99502563476562,60.70000457763672)"><path transform="matrix(0.017,0,0,-0.017,0,0)" d="M146 266C146 526 243 632 301 700L282 726C225 675 60 542 60 266C60 159 85 58 133 -32C168 -99 200 -138 282 -215L301 -194C255 -137 146 -15 146 266Z" stroke="rgb(0,0,0)" stroke-opacity="1" stroke-width="8" fill="rgb(0,0,0)" fill-opacity="1"></path></g></g><g><g transform="matrix(1,0,0,1,135.6500244140625,59.73999786376953)"><path transform="matrix(0.017,0,0,-0.017,0,0)" d="M342 330L365 330C373 395 380 432 389 458C365 473 330 482 293 482C248 483 175 463 118 400C64 352 25 241 25 136C25 40 67 -11 147 -11C201 -11 249 9 304 54L354 95L346 115L331 105C259 57 221 40 186 40C130 40 101 80 101 159C101 267 136 371 185 409C206 425 230 433 261 433C306 433 342 414 342 390ZM677 204L648 77C644 60 642 42 642 26C642 4 651 -9 666 -9C689 -9 730 17 812 85L805 106C781 86 752 59 730 59C721 59 715 68 715 82C715 87 715 90 716 93L808 472L798 481L765 463C724 478 707 482 680 482C652 482 632 477 605 464C543 433 510 403 485 354C441 265 410 145 410 67C410 23 425 -11 444 -11C481 -11 561 41 677 204ZM725 414C703 305 684 253 650 201C593 117 532 59 500 59C488 59 482 72 482 99C482 163 510 280 545 360C569 415 592 433 640 433C663 433 681 429 725 414ZM1100 722L1088 733C1036 707 1000 698 928 691L924 670L972 670C996 670 1006 663 1006 648C1006 645 1006 640 1003 622C992 567 919 182 904 132C891 82 885 52 885 31C885 6 896 -9 915 -9C941 -9 977 12 1075 85L1065 103L1039 86C1010 67 988 56 978 56C971 56 965 66 965 76C965 82 966 89 969 104Z" stroke="rgb(0,0,0)" stroke-opacity="1" stroke-width="8" fill="rgb(0,0,0)" fill-opacity="1"></path></g></g><g><g transform="matrix(1,0,0,1,158.18002319335938,59.73999786376953)"><path transform="matrix(0.017,0,0,-0.017,0,0)" d="M297 714L242 714L-37 -169L18 -169Z" stroke="rgb(0,0,0)" stroke-opacity="1" stroke-width="8" fill="rgb(0,0,0)" fill-opacity="1"></path></g></g><g><g transform="matrix(1,0,0,1,166.43002319335938,59.73999786376953)"><path transform="matrix(0.017,0,0,-0.017,0,0)" d="M275 482C208 482 55 419 55 259C55 182 100 136 177 136C185 136 196 136 207 137L166 99C150 84 139 66 139 52C139 42 146 31 160 19C91 -4 -37 -48 -37 -159C-37 -230 33 -276 142 -276C271 -276 384 -204 384 -121C384 -85 363 -49 320 -14L260 35C226 62 213 81 213 100C213 114 228 128 240 146C338 170 409 253 409 342C409 357 406 376 405 380C422 378 430 378 439 378C456 378 466 379 489 382L498 427L495 433C467 426 447 424 393 424C393 425 369 482 275 482ZM176 1L253 -58C299 -94 318 -121 318 -154C318 -206 249 -248 166 -248C84 -248 27 -206 27 -145C27 -43 137 -11 176 1ZM250 448C308 448 337 412 337 341C337 238 289 168 219 168C158 168 126 209 126 288C126 383 177 448 250 448ZM698 689C616 689 549 622 549 539C549 456 616 389 699 389C780 389 849 457 849 537C849 621 782 689 698 689ZM698 649C759 649 809 599 809 537C809 479 759 429 699 429C638 429 589 478 589 539C589 600 638 649 698 649ZM944 284C944 90 1051 -18 1242 -18C1338 -18 1409 5 1499 67C1499 67 1509 103 1509 103C1509 103 1499 110 1499 110C1405 53 1353 35 1275 35C1118 35 1032 131 1032 309C1032 447 1089 653 1317 653C1388 653 1440 639 1496 603L1496 519L1523 519C1528 576 1536 619 1550 665C1474 694 1417 706 1355 706C1175 706 944 578 944 284Z" stroke="rgb(0,0,0)" stroke-opacity="1" stroke-width="8" fill="rgb(0,0,0)" fill-opacity="1"></path></g></g><g><g transform="matrix(1,0,0,1,193.385009765625,60.70000457763672)"><path transform="matrix(0.017,0,0,-0.017,0,0)" d="M51 726L32 700C87 636 187 526 187 266C187 -10 83 -131 32 -194L51 -215C104 -165 273 -23 273 265C273 542 108 675 51 726Z" stroke="rgb(0,0,0)" stroke-opacity="1" stroke-width="8" fill="rgb(0,0,0)" fill-opacity="1"></path></g></g></g><g><g><g transform="matrix(1,0,0,1,2,79.9000015258789)"><path transform="matrix(0.017,0,0,-0.017,0,0)" d="M730 103L704 86C675 67 653 56 643 56C636 56 630 65 630 76C630 86 632 95 637 116L712 413C716 430 719 446 719 454C719 471 709 482 693 482C664 482 626 464 565 421C502 376 467 341 418 272L448 409C452 429 455 444 455 451C455 470 445 482 429 482C399 482 353 460 298 418C254 384 234 363 169 275L202 408C206 424 208 439 208 451C208 470 199 482 185 482C164 482 126 461 52 408L24 388L31 368C68 391 103 414 110 414C121 414 128 404 128 389C128 338 87 145 46 2L49 -9L117 6L139 108C163 219 190 278 245 338C287 384 332 414 360 414C367 414 371 406 371 393C371 358 349 244 308 69L292 2L297 -9L366 6L387 113C403 194 437 269 481 318C536 379 586 414 618 414C626 414 631 405 631 389C631 365 628 351 606 264C566 105 550 84 550 31C550 6 561 -9 580 -9C606 -9 642 12 740 85Z" stroke="rgb(0,0,0)" stroke-opacity="1" stroke-width="8" fill="rgb(0,0,0)" fill-opacity="1"></path></g></g><g><g transform="matrix(1,0,0,1,18.605010986328125,79.9000015258789)"><path transform="matrix(0.017,0,0,-0.017,0,0)" d="M123 111C93 111 66 83 66 53C66 23 93 -5 122 -5C154 -5 182 22 182 53C182 83 154 111 123 111ZM123 456C93 456 66 428 66 398C66 368 93 340 122 340C154 340 182 367 182 397C182 428 154 456 123 456Z" stroke="rgb(0,0,0)" stroke-opacity="1" stroke-width="8" fill="rgb(0,0,0)" fill-opacity="1"></path></g></g><g><g transform="matrix(1,0,0,1,26.240005493164062,79.9000015258789)"><path transform="matrix(0.017,0,0,-0.017,0,0)" d="M730 103L704 86C675 67 653 56 643 56C636 56 630 65 630 76C630 86 632 95 637 116L712 413C716 430 719 446 719 454C719 471 709 482 693 482C664 482 626 464 565 421C502 376 467 341 418 272L448 409C452 429 455 444 455 451C455 470 445 482 429 482C399 482 353 460 298 418C254 384 234 363 169 275L202 408C206 424 208 439 208 451C208 470 199 482 185 482C164 482 126 461 52 408L24 388L31 368C68 391 103 414 110 414C121 414 128 404 128 389C128 338 87 145 46 2L49 -9L117 6L139 108C163 219 190 278 245 338C287 384 332 414 360 414C367 414 371 406 371 393C371 358 349 244 308 69L292 2L297 -9L366 6L387 113C403 194 437 269 481 318C536 379 586 414 618 414C626 414 631 405 631 389C631 365 628 351 606 264C566 105 550 84 550 31C550 6 561 -9 580 -9C606 -9 642 12 740 85ZM1048 204L1019 77C1015 60 1013 42 1013 26C1013 4 1022 -9 1037 -9C1060 -9 1101 17 1183 85L1176 106C1152 86 1123 59 1101 59C1092 59 1086 68 1086 82C1086 87 1086 90 1087 93L1179 472L1169 481L1136 463C1095 478 1078 482 1051 482C1023 482 1003 477 976 464C914 433 881 403 856 354C812 265 781 145 781 67C781 23 796 -11 815 -11C852 -11 932 41 1048 204ZM1096 414C1074 305 1055 253 1021 201C964 117 903 59 871 59C859 59 853 72 853 99C853 163 881 280 916 360C940 415 963 433 1011 433C1034 433 1052 429 1096 414ZM1251 148C1246 97 1240 62 1229 16C1267 -2 1301 -11 1336 -11C1385 -11 1431 7 1482 47C1533 87 1554 124 1554 174C1554 228 1522 257 1448 271L1405 279C1345 290 1326 307 1326 348C1326 401 1371 442 1428 442C1469 442 1507 424 1523 397L1523 342L1546 342C1550 377 1554 404 1565 455C1526 474 1498 482 1465 482C1413 482 1352 452 1304 404C1278 377 1267 352 1267 316C1267 260 1298 228 1364 215L1427 203C1471 195 1487 177 1487 138C1487 73 1441 29 1370 29C1335 29 1304 40 1276 64L1276 148ZM1879 204L1850 77C1846 60 1844 42 1844 26C1844 4 1853 -9 1868 -9C1891 -9 1932 17 2014 85L2007 106C1983 86 1954 59 1932 59C1923 59 1917 68 1917 82C1917 87 1917 90 1918 93L2010 472L2000 481L1967 463C1926 478 1909 482 1882 482C1854 482 1834 477 1807 464C1745 433 1712 403 1687 354C1643 265 1612 145 1612 67C1612 23 1627 -11 1646 -11C1683 -11 1763 41 1879 204ZM1927 414C1905 305 1886 253 1852 201C1795 117 1734 59 1702 59C1690 59 1684 72 1684 99C1684 163 1712 280 1747 360C1771 415 1794 433 1842 433C1865 433 1883 429 1927 414Z" stroke="rgb(0,0,0)" stroke-opacity="1" stroke-width="8" fill="rgb(0,0,0)" fill-opacity="1"></path></g></g><g><g transform="matrix(1,0,0,1,65.33001708984375,80.8600082397461)"><path transform="matrix(0.017,0,0,-0.017,0,0)" d="M146 266C146 526 243 632 301 700L282 726C225 675 60 542 60 266C60 159 85 58 133 -32C168 -99 200 -138 282 -215L301 -194C255 -137 146 -15 146 266Z" stroke="rgb(0,0,0)" stroke-opacity="1" stroke-width="8" fill="rgb(0,0,0)" fill-opacity="1"></path></g></g><g><g transform="matrix(1,0,0,1,70.98501586914062,79.9000015258789)"><path transform="matrix(0.017,0,0,-0.017,0,0)" d="M275 482C208 482 55 419 55 259C55 182 100 136 177 136C185 136 196 136 207 137L166 99C150 84 139 66 139 52C139 42 146 31 160 19C91 -4 -37 -48 -37 -159C-37 -230 33 -276 142 -276C271 -276 384 -204 384 -121C384 -85 363 -49 320 -14L260 35C226 62 213 81 213 100C213 114 228 128 240 146C338 170 409 253 409 342C409 357 406 376 405 380C422 378 430 378 439 378C456 378 466 379 489 382L498 427L495 433C467 426 447 424 393 424C393 425 369 482 275 482ZM176 1L253 -58C299 -94 318 -121 318 -154C318 -206 249 -248 166 -248C84 -248 27 -206 27 -145C27 -43 137 -11 176 1ZM250 448C308 448 337 412 337 341C337 238 289 168 219 168C158 168 126 209 126 288C126 383 177 448 250 448Z" stroke="rgb(0,0,0)" stroke-opacity="1" stroke-width="8" fill="rgb(0,0,0)" fill-opacity="1"></path></g></g><g><g transform="matrix(1,0,0,1,79.47500610351562,80.8600082397461)"><path transform="matrix(0.017,0,0,-0.017,0,0)" d="M51 726L32 700C87 636 187 526 187 266C187 -10 83 -131 32 -194L51 -215C104 -165 273 -23 273 265C273 542 108 675 51 726Z" stroke="rgb(0,0,0)" stroke-opacity="1" stroke-width="8" fill="rgb(0,0,0)" fill-opacity="1"></path></g></g></g><g><g><g transform="matrix(1,0,0,1,2,100.06000518798828)"><path transform="matrix(0.017,0,0,-0.017,0,0)" d="M662 6L655 -4C549 0 443 0 336 0C235 0 134 -1 33 -4L27 6C88 116 136 238 186 354C235 466 288 580 327 697L352 697C395 590 597 128 662 6ZM584 37C518 215 447 389 371 564L364 564C289 391 217 215 152 37Z" stroke="rgb(0,0,0)" stroke-opacity="1" stroke-width="8" fill="rgb(0,0,0)" fill-opacity="1"></path></g></g><g><g transform="matrix(1,0,0,1,13.70001220703125,100.06000518798828)"><path transform="matrix(0.017,0,0,-0.017,0,0)" d="M390 646L463 646C541 646 577 641 580 629C583 621 585 602 584 592L580 528L608 528L635 692L544 691C456 690 388 689 353 689C316 689 252 690 166 691L71 692L53 528L82 528L97 588C102 610 109 626 115 633C121 640 159 646 196 646L308 646L222 125C206 34 204 31 164 28L113 25L109 -3L166 -2C206 -1 235 0 251 0C270 0 301 -1 340 -2L384 -3L387 25L328 28C302 29 292 37 292 58C292 67 293 74 296 93Z" stroke="rgb(0,0,0)" stroke-opacity="1" stroke-width="8" fill="rgb(0,0,0)" fill-opacity="1"></path></g></g><g><g transform="matrix(1,0,0,1,27.470001220703125,100.06000518798828)"><path transform="matrix(0.017,0,0,-0.017,0,0)" d="M123 111C93 111 66 83 66 53C66 23 93 -5 122 -5C154 -5 182 22 182 53C182 83 154 111 123 111ZM123 456C93 456 66 428 66 398C66 368 93 340 122 340C154 340 182 367 182 397C182 428 154 456 123 456Z" stroke="rgb(0,0,0)" stroke-opacity="1" stroke-width="8" fill="rgb(0,0,0)" fill-opacity="1"></path></g></g><g><g transform="matrix(1,0,0,1,35.105010986328125,100.06000518798828)"><path transform="matrix(0.017,0,0,-0.017,0,0)" d="M166 420C187 420 203 421 229 424C118 304 76 221 76 121C76 44 122 -11 186 -11C324 -11 477 236 477 384C477 441 451 482 415 482C402 482 390 478 382 470L332 423L343 404C352 410 361 413 370 413C397 413 413 390 413 350C413 202 316 39 228 39C179 39 148 81 148 146C148 251 187 342 285 464L275 482C255 473 242 470 214 470C186 470 144 472 115 475L103 476C97 477 92 477 91 477C79 477 70 475 59 470C45 443 34 407 21 352L43 352L60 394C67 411 87 422 111 422C144 422 128 420 166 420ZM770 204L741 77C737 60 735 42 735 26C735 4 744 -9 759 -9C782 -9 823 17 905 85L898 106C874 86 845 59 823 59C814 59 808 68 808 82C808 87 808 90 809 93L901 472L891 481L858 463C817 478 800 482 773 482C745 482 725 477 698 464C636 433 603 403 578 354C534 265 503 145 503 67C503 23 518 -11 537 -11C574 -11 654 41 770 204ZM818 414C796 305 777 253 743 201C686 117 625 59 593 59C581 59 575 72 575 99C575 163 603 280 638 360C662 415 685 433 733 433C756 433 774 429 818 414ZM1310 365C1313 403 1318 435 1326 476C1315 481 1311 482 1306 482C1275 482 1244 458 1208 407C1169 351 1130 291 1114 256L1146 408C1150 425 1152 438 1152 450C1152 470 1144 482 1129 482C1108 482 1070 461 996 408L968 388L975 368L1007 389C1035 407 1046 412 1055 412C1065 412 1072 403 1072 390C1072 332 1029 126 989 -2L999 -9C1014 -4 1030 -1 1053 4L1066 6L1092 126C1110 209 1133 262 1177 319C1211 363 1238 384 1260 384C1275 384 1285 379 1296 365ZM1364 388L1371 368L1403 389C1440 412 1443 414 1450 414C1460 414 1468 404 1468 391C1468 384 1464 361 1460 347L1394 107C1386 76 1381 49 1381 30C1381 6 1392 -9 1411 -9C1437 -9 1473 12 1571 85L1561 103L1535 86C1506 67 1483 56 1474 56C1467 56 1461 66 1461 76C1461 86 1463 95 1468 116L1545 420C1549 437 1551 448 1551 456C1551 473 1542 482 1526 482C1504 482 1467 461 1392 408ZM1558 712C1529 712 1500 679 1500 645C1500 620 1515 604 1539 604C1570 604 1594 633 1594 671C1594 695 1579 712 1558 712ZM1878 204L1849 77C1845 60 1843 42 1843 26C1843 4 1852 -9 1867 -9C1890 -9 1931 17 2013 85L2006 106C1982 86 1953 59 1931 59C1922 59 1916 68 1916 82C1916 87 1916 90 1917 93L2009 472L1999 481L1966 463C1925 478 1908 482 1881 482C1853 482 1833 477 1806 464C1744 433 1711 403 1686 354C1642 265 1611 145 1611 67C1611 23 1626 -11 1645 -11C1682 -11 1762 41 1878 204ZM1926 414C1904 305 1885 253 1851 201C1794 117 1733 59 1701 59C1689 59 1683 72 1683 99C1683 163 1711 280 1746 360C1770 415 1793 433 1841 433C1864 433 1882 429 1926 414ZM2392 330L2415 330C2423 395 2430 432 2439 458C2415 473 2380 482 2343 482C2298 483 2225 463 2168 400C2114 352 2075 241 2075 136C2075 40 2117 -11 2197 -11C2251 -11 2299 9 2354 54L2404 95L2396 115L2381 105C2309 57 2271 40 2236 40C2180 40 2151 80 2151 159C2151 267 2186 371 2235 409C2256 425 2280 433 2311 433C2356 433 2392 414 2392 390ZM2490 388L2497 368L2529 389C2566 412 2569 414 2576 414C2586 414 2594 404 2594 391C2594 384 2590 361 2586 347L2520 107C2512 76 2507 49 2507 30C2507 6 2518 -9 2537 -9C2563 -9 2599 12 2697 85L2687 103L2661 86C2632 67 2609 56 2600 56C2593 56 2587 66 2587 76C2587 86 2589 95 2594 116L2671 420C2675 437 2677 448 2677 456C2677 473 2668 482 2652 482C2630 482 2593 461 2518 408ZM2684 712C2655 712 2626 679 2626 645C2626 620 2641 604 2665 604C2696 604 2720 633 2720 671C2720 695 2705 712 2684 712ZM2750 152C2750 46 2795 -11 2878 -11C2933 -11 2993 15 3038 57C3100 116 3144 230 3144 331C3144 425 3094 482 3011 482C2907 482 2750 382 2750 152ZM2974 444C3035 444 3068 399 3068 315C3068 219 3037 113 2993 60C2975 39 2949 27 2918 27C2860 27 2826 72 2826 151C2826 264 2865 387 2914 427C2927 438 2950 444 2974 444ZM3200 388L3207 368L3239 389C3276 412 3279 414 3286 414C3297 414 3304 404 3304 389C3304 338 3263 145 3222 2L3229 -9C3254 -2 3277 4 3299 8C3318 134 3339 199 3385 268C3439 352 3514 414 3559 414C3570 414 3576 405 3576 390C3576 372 3573 351 3565 319L3513 107C3504 70 3500 47 3500 31C3500 6 3511 -9 3530 -9C3556 -9 3592 12 3690 85L3680 103L3654 86C3625 67 3603 56 3593 56C3586 56 3580 65 3580 76C3580 81 3581 92 3582 96L3648 372C3655 401 3659 429 3659 446C3659 469 3648 482 3628 482C3586 482 3517 444 3458 389C3420 354 3392 320 3340 247L3378 408C3382 426 3384 438 3384 449C3384 470 3376 482 3361 482C3340 482 3301 460 3228 408ZM4463 722L4451 733C4399 707 4363 698 4291 691L4287 670L4335 670C4359 670 4369 663 4369 646C4369 638 4368 629 4367 622L4339 468C4309 477 4282 482 4257 482C4188 482 4094 410 4048 323C4017 265 3997 170 3997 86C3997 21 4012 -11 4041 -11C4068 -11 4105 6 4139 33C4193 77 4226 116 4293 217L4270 126C4259 82 4254 50 4254 24C4254 3 4263 -9 4280 -9C4297 -9 4321 3 4355 28L4436 88L4426 107L4382 76C4368 66 4352 59 4343 59C4335 59 4329 68 4329 82C4329 90 4330 99 4337 128ZM4094 59C4078 59 4069 73 4069 98C4069 224 4115 380 4164 418C4177 428 4196 433 4223 433C4267 433 4296 427 4329 410L4317 351C4280 171 4139 59 4094 59ZM4807 111L4783 94C4730 56 4682 36 4646 36C4599 36 4570 73 4570 133C4570 158 4573 185 4578 214C4595 218 4704 248 4729 259C4814 296 4853 342 4853 404C4853 451 4819 482 4769 482C4701 496 4591 423 4554 349C4524 299 4494 180 4494 113C4494 35 4538 -11 4610 -11C4667 -11 4723 17 4815 92ZM4592 274C4609 343 4629 386 4658 412C4676 428 4707 440 4731 440C4760 440 4779 420 4779 388C4779 344 4744 297 4692 272C4664 258 4628 247 4583 237ZM5367 722L5355 733C5303 707 5267 698 5195 691L5191 670L5239 670C5263 670 5273 663 5273 648C5273 645 5273 640 5270 622C5259 567 5186 182 5171 132C5158 82 5152 52 5152 31C5152 6 5163 -9 5182 -9C5208 -9 5244 12 5342 85L5332 103L5306 86C5277 67 5255 56 5245 56C5238 56 5232 66 5232 76C5232 82 5233 89 5236 104ZM5664 204L5635 77C5631 60 5629 42 5629 26C5629 4 5638 -9 5653 -9C5676 -9 5717 17 5799 85L5792 106C5768 86 5739 59 5717 59C5708 59 5702 68 5702 82C5702 87 5702 90 5703 93L5795 472L5785 481L5752 463C5711 478 5694 482 5667 482C5639 482 5619 477 5592 464C5530 433 5497 403 5472 354C5428 265 5397 145 5397 67C5397 23 5412 -11 5431 -11C5468 -11 5548 41 5664 204ZM5712 414C5690 305 5671 253 5637 201C5580 117 5519 59 5487 59C5475 59 5469 72 5469 99C5469 163 5497 280 5532 360C5556 415 5579 433 5627 433C5650 433 5668 429 5712 414ZM6210 390L6154 107C6153 99 6141 61 6141 31C6141 6 6152 -9 6171 -9C6206 -9 6241 11 6319 74L6350 99L6340 117L6295 86C6266 66 6246 56 6235 56C6226 56 6221 64 6221 76C6221 102 6235 183 6264 328L6277 390L6384 390L6395 440C6357 436 6323 434 6285 434C6301 528 6312 577 6330 631L6319 646C6299 634 6272 622 6241 610L6216 440C6172 419 6146 408 6128 403L6126 390ZM6745 111L6721 94C6668 56 6620 36 6584 36C6537 36 6508 73 6508 133C6508 158 6511 185 6516 214C6533 218 6642 248 6667 259C6752 296 6791 342 6791 404C6791 451 6757 482 6707 482C6639 496 6529 423 6492 349C6462 299 6432 180 6432 113C6432 35 6476 -11 6548 -11C6605 -11 6661 17 6753 92ZM6530 274C6547 343 6567 386 6596 412C6614 428 6645 440 6669 440C6698 440 6717 420 6717 388C6717 344 6682 297 6630 272C6602 258 6566 247 6521 237ZM7535 103L7509 86C7480 67 7458 56 7448 56C7441 56 7435 65 7435 76C7435 86 7437 95 7442 116L7517 413C7521 430 7524 446 7524 454C7524 471 7514 482 7498 482C7469 482 7431 464 7370 421C7307 376 7272 341 7223 272L7253 409C7257 429 7260 444 7260 451C7260 470 7250 482 7234 482C7204 482 7158 460 7103 418C7059 384 7039 363 6974 275L7007 408C7011 424 7013 439 7013 451C7013 470 7004 482 6990 482C6969 482 6931 461 6857 408L6829 388L6836 368C6873 391 6908 414 6915 414C6926 414 6933 404 6933 389C6933 338 6892 145 6851 2L6854 -9L6922 6L6944 108C6968 219 6995 278 7050 338C7092 384 7137 414 7165 414C7172 414 7176 406 7176 393C7176 358 7154 244 7113 69L7097 2L7102 -9L7171 6L7192 113C7208 194 7242 269 7286 318C7341 379 7391 414 7423 414C7431 414 7436 405 7436 389C7436 365 7433 351 7411 264C7371 105 7355 84 7355 31C7355 6 7366 -9 7385 -9C7411 -9 7447 12 7545 85ZM7758 -11C7814 -11 7929 62 7972 125C8013 186 8047 296 8047 371C8047 438 8024 482 7988 482C7946 482 7893 456 7841 409C7800 374 7780 348 7744 289L7768 408C7771 425 7773 440 7773 452C7773 471 7765 482 7751 482C7730 482 7692 461 7618 408L7590 388L7597 368L7629 389C7657 407 7668 412 7677 412C7687 412 7694 403 7694 389C7694 381 7692 361 7690 351L7632 8C7622 -52 7603 -143 7583 -233L7575 -270L7582 -276C7603 -269 7623 -264 7655 -259L7697 3C7718 -4 7740 -11 7758 -11ZM7725 165C7747 293 7854 424 7937 424C7963 424 7975 402 7975 356C7975 275 7935 156 7882 80C7862 51 7830 36 7789 36C7758 36 7733 43 7707 59Z" stroke="rgb(0,0,0)" stroke-opacity="1" stroke-width="8" fill="rgb(0,0,0)" fill-opacity="1"></path></g></g><g><g transform="matrix(1,0,0,1,172.43002319335938,100.06000518798828)"><path transform="matrix(0.017,0,0,-0.017,0,0)" d="M124 111C94 111 67 83 67 53C67 23 94 -5 123 -5C155 -5 183 22 183 53C183 83 155 111 124 111Z" stroke="rgb(0,0,0)" stroke-opacity="1" stroke-width="8" fill="rgb(0,0,0)" fill-opacity="1"></path></g></g><g><g transform="matrix(1,0,0,1,180.06500244140625,100.06000518798828)"><path transform="matrix(0.017,0,0,-0.017,0,0)" d="" stroke="rgb(0,0,0)" stroke-opacity="1" stroke-width="8" fill="rgb(0,0,0)" fill-opacity="1"></path></g></g><g><g transform="matrix(1,0,0,1,184.31002807617188,101.02001190185547)"><path transform="matrix(0.017,0,0,-0.017,0,0)" d="M146 266C146 526 243 632 301 700L282 726C225 675 60 542 60 266C60 159 85 58 133 -32C168 -99 200 -138 282 -215L301 -194C255 -137 146 -15 146 266Z" stroke="rgb(0,0,0)" stroke-opacity="1" stroke-width="8" fill="rgb(0,0,0)" fill-opacity="1"></path></g></g><g><g transform="matrix(1,0,0,1,189.96502685546875,100.06000518798828)"><path transform="matrix(0.017,0,0,-0.017,0,0)" d="M199 689C117 689 50 622 50 539C50 456 117 389 200 389C281 389 350 457 350 537C350 621 283 689 199 689ZM199 649C260 649 310 599 310 537C310 479 260 429 200 429C139 429 90 478 90 539C90 600 139 649 199 649ZM445 284C445 90 552 -18 743 -18C839 -18 910 5 1000 67C1000 67 1010 103 1010 103C1010 103 1000 110 1000 110C906 53 854 35 776 35C619 35 533 131 533 309C533 447 590 653 818 653C889 653 941 639 997 603L997 519L1024 519C1029 576 1037 619 1051 665C975 694 918 706 856 706C676 706 445 578 445 284Z" stroke="rgb(0,0,0)" stroke-opacity="1" stroke-width="8" fill="rgb(0,0,0)" fill-opacity="1"></path></g></g><g><g transform="matrix(1,0,0,1,208.44500732421875,101.02001190185547)"><path transform="matrix(0.017,0,0,-0.017,0,0)" d="M51 726L32 700C87 636 187 526 187 266C187 -10 83 -131 32 -194L51 -215C104 -165 273 -23 273 265C273 542 108 675 51 726Z" stroke="rgb(0,0,0)" stroke-opacity="1" stroke-width="8" fill="rgb(0,0,0)" fill-opacity="1"></path></g></g></g></g></svg>