<svg xmlns="http://www.w3.org/2000/svg" xmlns:xlink="http://www.w3.org/1999/xlink" width="164.84500122070312" height="106.97500610351562" style="width:164.84500122070312px;height:106.97500610351562px;font-family:Asana-Math, Asana;background:#FFF;"><g><g><g><g transform="matrix(1,0,0,1,2,30.205001831054688)"><path transform="matrix(0.017,0,0,-0.017,0,0)" d="M2535 284C2535 90 2642 -18 2833 -18C2929 -18 3000 5 3090 67C3090 67 3100 103 3100 103C3100 103 3090 110 3090 110C2996 53 2944 35 2866 35C2709 35 2623 131 2623 309C2623 447 2680 653 2908 653C2979 653 3031 639 3087 603L3087 519L3114 519C3119 576 3127 619 3141 665C3065 694 3008 706 2946 706C2766 706 2535 578 2535 284Z" stroke="rgb(0,0,0)" stroke-opacity="1" stroke-width="8" fill="rgb(0,0,0)" fill-opacity="1"></path></g></g><g><g transform="matrix(1,0,0,1,61.08500671386719,30.205001831054688)"><path transform="matrix(0.017,0,0,-0.017,0,0)" d="M604 347L604 406L65 406L65 347ZM604 134L604 193L65 193L65 134Z" stroke="rgb(0,0,0)" stroke-opacity="1" stroke-width="8" fill="rgb(0,0,0)" fill-opacity="1"></path></g></g><g><g><g><g><g transform="matrix(1,0,0,1,79.23500061035156,18.040000915527344)"><path transform="matrix(0.017,0,0,-0.017,0,0)" d="M662 6L655 -4C549 0 443 0 336 0C235 0 134 -1 33 -4L27 6C88 116 136 238 186 354C235 466 288 580 327 697L352 697C395 590 597 128 662 6ZM584 37C518 215 447 389 371 564L364 564C289 391 217 215 152 37Z" stroke="rgb(0,0,0)" stroke-opacity="1" stroke-width="8" fill="rgb(0,0,0)" fill-opacity="1"></path></g></g><g><g transform="matrix(1,0,0,1,90.93501281738281,18.040000915527344)"><path transform="matrix(0.017,0,0,-0.017,0,0)" d="M151 -172C151 -95 175 -59 228 -59C257 -59 285 -67 324 -88L469 -164C529 -195 547 -201 587 -201C662 -201 698 -158 708 -61L683 -61C677 -115 655 -140 615 -140C598 -140 579 -135 553 -125L317 -29C292 -19 274 -15 251 -15C177 -15 126 -66 126 -142C126 -144 126 -151 127 -159ZM748 425C748 603 644 706 464 706C227 706 53 523 53 272C53 83 147 -18 323 -18C595 -18 748 207 748 425ZM660 409C660 221 571 24 360 24C216 24 141 110 141 277C141 425 199 664 433 664C549 664 660 610 660 409Z" stroke="rgb(0,0,0)" stroke-opacity="1" stroke-width="8" fill="rgb(0,0,0)" fill-opacity="1"></path></g></g></g></g><g><g><g><g transform="matrix(1,0,0,1,80.64500427246094,43.375)"><path transform="matrix(0.017,0,0,-0.017,0,0)" d="M662 6L655 -4C549 0 443 0 336 0C235 0 134 -1 33 -4L27 6C88 116 136 238 186 354C235 466 288 580 327 697L352 697C395 590 597 128 662 6ZM584 37C518 215 447 389 371 564L364 564C289 391 217 215 152 37Z" stroke="rgb(0,0,0)" stroke-opacity="1" stroke-width="8" fill="rgb(0,0,0)" fill-opacity="1"></path></g></g><g><g transform="matrix(1,0,0,1,92.34501647949219,43.375)"><path transform="matrix(0.017,0,0,-0.017,0,0)" d="M390 646L463 646C541 646 577 641 580 629C583 621 585 602 584 592L580 528L608 528L635 692L544 691C456 690 388 689 353 689C316 689 252 690 166 691L71 692L53 528L82 528L97 588C102 610 109 626 115 633C121 640 159 646 196 646L308 646L222 125C206 34 204 31 164 28L113 25L109 -3L166 -2C206 -1 235 0 251 0C270 0 301 -1 340 -2L384 -3L387 25L328 28C302 29 292 37 292 58C292 67 293 74 296 93Z" stroke="rgb(0,0,0)" stroke-opacity="1" stroke-width="8" fill="rgb(0,0,0)" fill-opacity="1"></path></g></g></g></g><line style="fill:none;stroke-width:0.99px;stroke:rgb(0, 0, 0);" x1="79.23500061035156" y1="26.240000009536743" x2="104.1500015258789" y2="26.240000009536743"></line></g></g><g></g><g><g><g transform="matrix(1,0,0,1,2,80.69499969482422)"><path transform="matrix(0.017,0,0,-0.017,0,0)" d="M662 6L655 -4C549 0 443 0 336 0C235 0 134 -1 33 -4L27 6C88 116 136 238 186 354C235 466 288 580 327 697L352 697C395 590 597 128 662 6ZM584 37C518 215 447 389 371 564L364 564C289 391 217 215 152 37Z" stroke="rgb(0,0,0)" stroke-opacity="1" stroke-width="8" fill="rgb(0,0,0)" fill-opacity="1"></path></g></g><g><g transform="matrix(1,0,0,1,13.699996948242188,80.69499969482422)"><path transform="matrix(0.017,0,0,-0.017,0,0)" d="M151 -172C151 -95 175 -59 228 -59C257 -59 285 -67 324 -88L469 -164C529 -195 547 -201 587 -201C662 -201 698 -158 708 -61L683 -61C677 -115 655 -140 615 -140C598 -140 579 -135 553 -125L317 -29C292 -19 274 -15 251 -15C177 -15 126 -66 126 -142C126 -144 126 -151 127 -159ZM748 425C748 603 644 706 464 706C227 706 53 523 53 272C53 83 147 -18 323 -18C595 -18 748 207 748 425ZM660 409C660 221 571 24 360 24C216 24 141 110 141 277C141 425 199 664 433 664C549 664 660 610 660 409Z" stroke="rgb(0,0,0)" stroke-opacity="1" stroke-width="8" fill="rgb(0,0,0)" fill-opacity="1"></path></g></g><g><g transform="matrix(1,0,0,1,30.305007934570312,80.69499969482422)"><path transform="matrix(0.017,0,0,-0.017,0,0)" d="M123 111C93 111 66 83 66 53C66 23 93 -5 122 -5C154 -5 182 22 182 53C182 83 154 111 123 111ZM123 456C93 456 66 428 66 398C66 368 93 340 122 340C154 340 182 367 182 397C182 428 154 456 123 456Z" stroke="rgb(0,0,0)" stroke-opacity="1" stroke-width="8" fill="rgb(0,0,0)" fill-opacity="1"></path></g></g><g><g transform="matrix(1,0,0,1,37.94001770019531,80.69499969482422)"><path transform="matrix(0.017,0,0,-0.017,0,0)" d="M166 420C187 420 203 421 229 424C118 304 76 221 76 121C76 44 122 -11 186 -11C324 -11 477 236 477 384C477 441 451 482 415 482C402 482 390 478 382 470L332 423L343 404C352 410 361 413 370 413C397 413 413 390 413 350C413 202 316 39 228 39C179 39 148 81 148 146C148 251 187 342 285 464L275 482C255 473 242 470 214 470C186 470 144 472 115 475L103 476C97 477 92 477 91 477C79 477 70 475 59 470C45 443 34 407 21 352L43 352L60 394C67 411 87 422 111 422C144 422 128 420 166 420ZM770 204L741 77C737 60 735 42 735 26C735 4 744 -9 759 -9C782 -9 823 17 905 85L898 106C874 86 845 59 823 59C814 59 808 68 808 82C808 87 808 90 809 93L901 472L891 481L858 463C817 478 800 482 773 482C745 482 725 477 698 464C636 433 603 403 578 354C534 265 503 145 503 67C503 23 518 -11 537 -11C574 -11 654 41 770 204ZM818 414C796 305 777 253 743 201C686 117 625 59 593 59C581 59 575 72 575 99C575 163 603 280 638 360C662 415 685 433 733 433C756 433 774 429 818 414ZM1310 365C1313 403 1318 435 1326 476C1315 481 1311 482 1306 482C1275 482 1244 458 1208 407C1169 351 1130 291 1114 256L1146 408C1150 425 1152 438 1152 450C1152 470 1144 482 1129 482C1108 482 1070 461 996 408L968 388L975 368L1007 389C1035 407 1046 412 1055 412C1065 412 1072 403 1072 390C1072 332 1029 126 989 -2L999 -9C1014 -4 1030 -1 1053 4L1066 6L1092 126C1110 209 1133 262 1177 319C1211 363 1238 384 1260 384C1275 384 1285 379 1296 365ZM1364 388L1371 368L1403 389C1440 412 1443 414 1450 414C1460 414 1468 404 1468 391C1468 384 1464 361 1460 347L1394 107C1386 76 1381 49 1381 30C1381 6 1392 -9 1411 -9C1437 -9 1473 12 1571 85L1561 103L1535 86C1506 67 1483 56 1474 56C1467 56 1461 66 1461 76C1461 86 1463 95 1468 116L1545 420C1549 437 1551 448 1551 456C1551 473 1542 482 1526 482C1504 482 1467 461 1392 408ZM1558 712C1529 712 1500 679 1500 645C1500 620 1515 604 1539 604C1570 604 1594 633 1594 671C1594 695 1579 712 1558 712ZM1878 204L1849 77C1845 60 1843 42 1843 26C1843 4 1852 -9 1867 -9C1890 -9 1931 17 2013 85L2006 106C1982 86 1953 59 1931 59C1922 59 1916 68 1916 82C1916 87 1916 90 1917 93L2009 472L1999 481L1966 463C1925 478 1908 482 1881 482C1853 482 1833 477 1806 464C1744 433 1711 403 1686 354C1642 265 1611 145 1611 67C1611 23 1626 -11 1645 -11C1682 -11 1762 41 1878 204ZM1926 414C1904 305 1885 253 1851 201C1794 117 1733 59 1701 59C1689 59 1683 72 1683 99C1683 163 1711 280 1746 360C1770 415 1793 433 1841 433C1864 433 1882 429 1926 414ZM2392 330L2415 330C2423 395 2430 432 2439 458C2415 473 2380 482 2343 482C2298 483 2225 463 2168 400C2114 352 2075 241 2075 136C2075 40 2117 -11 2197 -11C2251 -11 2299 9 2354 54L2404 95L2396 115L2381 105C2309 57 2271 40 2236 40C2180 40 2151 80 2151 159C2151 267 2186 371 2235 409C2256 425 2280 433 2311 433C2356 433 2392 414 2392 390ZM2490 388L2497 368L2529 389C2566 412 2569 414 2576 414C2586 414 2594 404 2594 391C2594 384 2590 361 2586 347L2520 107C2512 76 2507 49 2507 30C2507 6 2518 -9 2537 -9C2563 -9 2599 12 2697 85L2687 103L2661 86C2632 67 2609 56 2600 56C2593 56 2587 66 2587 76C2587 86 2589 95 2594 116L2671 420C2675 437 2677 448 2677 456C2677 473 2668 482 2652 482C2630 482 2593 461 2518 408ZM2684 712C2655 712 2626 679 2626 645C2626 620 2641 604 2665 604C2696 604 2720 633 2720 671C2720 695 2705 712 2684 712ZM2750 152C2750 46 2795 -11 2878 -11C2933 -11 2993 15 3038 57C3100 116 3144 230 3144 331C3144 425 3094 482 3011 482C2907 482 2750 382 2750 152ZM2974 444C3035 444 3068 399 3068 315C3068 219 3037 113 2993 60C2975 39 2949 27 2918 27C2860 27 2826 72 2826 151C2826 264 2865 387 2914 427C2927 438 2950 444 2974 444ZM3200 388L3207 368L3239 389C3276 412 3279 414 3286 414C3297 414 3304 404 3304 389C3304 338 3263 145 3222 2L3229 -9C3254 -2 3277 4 3299 8C3318 134 3339 199 3385 268C3439 352 3514 414 3559 414C3570 414 3576 405 3576 390C3576 372 3573 351 3565 319L3513 107C3504 70 3500 47 3500 31C3500 6 3511 -9 3530 -9C3556 -9 3592 12 3690 85L3680 103L3654 86C3625 67 3603 56 3593 56C3586 56 3580 65 3580 76C3580 81 3581 92 3582 96L3648 372C3655 401 3659 429 3659 446C3659 469 3648 482 3628 482C3586 482 3517 444 3458 389C3420 354 3392 320 3340 247L3378 408C3382 426 3384 438 3384 449C3384 470 3376 482 3361 482C3340 482 3301 460 3228 408ZM4463 722L4451 733C4399 707 4363 698 4291 691L4287 670L4335 670C4359 670 4369 663 4369 646C4369 638 4368 629 4367 622L4339 468C4309 477 4282 482 4257 482C4188 482 4094 410 4048 323C4017 265 3997 170 3997 86C3997 21 4012 -11 4041 -11C4068 -11 4105 6 4139 33C4193 77 4226 116 4293 217L4270 126C4259 82 4254 50 4254 24C4254 3 4263 -9 4280 -9C4297 -9 4321 3 4355 28L4436 88L4426 107L4382 76C4368 66 4352 59 4343 59C4335 59 4329 68 4329 82C4329 90 4330 99 4337 128ZM4094 59C4078 59 4069 73 4069 98C4069 224 4115 380 4164 418C4177 428 4196 433 4223 433C4267 433 4296 427 4329 410L4317 351C4280 171 4139 59 4094 59ZM4807 111L4783 94C4730 56 4682 36 4646 36C4599 36 4570 73 4570 133C4570 158 4573 185 4578 214C4595 218 4704 248 4729 259C4814 296 4853 342 4853 404C4853 451 4819 482 4769 482C4701 496 4591 423 4554 349C4524 299 4494 180 4494 113C4494 35 4538 -11 4610 -11C4667 -11 4723 17 4815 92ZM4592 274C4609 343 4629 386 4658 412C4676 428 4707 440 4731 440C4760 440 4779 420 4779 388C4779 344 4744 297 4692 272C4664 258 4628 247 4583 237ZM5118 722L5106 733C5054 707 5018 698 4946 691L4942 670L4990 670C5014 670 5024 663 5024 648C5024 645 5024 640 5021 622C5010 567 4937 182 4922 132C4909 82 4903 52 4903 31C4903 6 4914 -9 4933 -9C4959 -9 4995 12 5093 85L5083 103L5057 86C5028 67 5006 56 4996 56C4989 56 4983 66 4983 76C4983 82 4984 89 4987 104ZM5735 330L5758 330C5766 395 5773 432 5782 458C5758 473 5723 482 5686 482C5641 483 5568 463 5511 400C5457 352 5418 241 5418 136C5418 40 5460 -11 5540 -11C5594 -11 5642 9 5697 54L5747 95L5739 115L5724 105C5652 57 5614 40 5579 40C5523 40 5494 80 5494 159C5494 267 5529 371 5578 409C5599 425 5623 433 5654 433C5699 433 5735 414 5735 390ZM6070 204L6041 77C6037 60 6035 42 6035 26C6035 4 6044 -9 6059 -9C6082 -9 6123 17 6205 85L6198 106C6174 86 6145 59 6123 59C6114 59 6108 68 6108 82C6108 87 6108 90 6109 93L6201 472L6191 481L6158 463C6117 478 6100 482 6073 482C6045 482 6025 477 5998 464C5936 433 5903 403 5878 354C5834 265 5803 145 5803 67C5803 23 5818 -11 5837 -11C5874 -11 5954 41 6070 204ZM6118 414C6096 305 6077 253 6043 201C5986 117 5925 59 5893 59C5881 59 5875 72 5875 99C5875 163 5903 280 5938 360C5962 415 5985 433 6033 433C6056 433 6074 429 6118 414ZM6493 722L6481 733C6429 707 6393 698 6321 691L6317 670L6365 670C6389 670 6399 663 6399 648C6399 645 6399 640 6396 622C6385 567 6312 182 6297 132C6284 82 6278 52 6278 31C6278 6 6289 -9 6308 -9C6334 -9 6370 12 6468 85L6458 103L6432 86C6403 67 6381 56 6371 56C6364 56 6358 66 6358 76C6358 82 6359 89 6362 104ZM6536 152C6536 46 6581 -11 6664 -11C6719 -11 6779 15 6824 57C6886 116 6930 230 6930 331C6930 425 6880 482 6797 482C6693 482 6536 382 6536 152ZM6760 444C6821 444 6854 399 6854 315C6854 219 6823 113 6779 60C6761 39 6735 27 6704 27C6646 27 6612 72 6612 151C6612 264 6651 387 6700 427C6713 438 6736 444 6760 444ZM7330 365C7333 403 7338 435 7346 476C7335 481 7331 482 7326 482C7295 482 7264 458 7228 407C7189 351 7150 291 7134 256L7166 408C7170 425 7172 438 7172 450C7172 470 7164 482 7149 482C7128 482 7090 461 7016 408L6988 388L6995 368L7027 389C7055 407 7066 412 7075 412C7085 412 7092 403 7092 390C7092 332 7049 126 7009 -2L7019 -9C7034 -4 7050 -1 7073 4L7086 6L7112 126C7130 209 7153 262 7197 319C7231 363 7258 384 7280 384C7295 384 7305 379 7316 365Z" stroke="rgb(0,0,0)" stroke-opacity="1" stroke-width="8" fill="rgb(0,0,0)" fill-opacity="1"></path></g></g></g><g><g><g transform="matrix(1,0,0,1,2,100.8550033569336)"><path transform="matrix(0.017,0,0,-0.017,0,0)" d="M662 6L655 -4C549 0 443 0 336 0C235 0 134 -1 33 -4L27 6C88 116 136 238 186 354C235 466 288 580 327 697L352 697C395 590 597 128 662 6ZM584 37C518 215 447 389 371 564L364 564C289 391 217 215 152 37Z" stroke="rgb(0,0,0)" stroke-opacity="1" stroke-width="8" fill="rgb(0,0,0)" fill-opacity="1"></path></g></g><g><g transform="matrix(1,0,0,1,13.699996948242188,100.8550033569336)"><path transform="matrix(0.017,0,0,-0.017,0,0)" d="M390 646L463 646C541 646 577 641 580 629C583 621 585 602 584 592L580 528L608 528L635 692L544 691C456 690 388 689 353 689C316 689 252 690 166 691L71 692L53 528L82 528L97 588C102 610 109 626 115 633C121 640 159 646 196 646L308 646L222 125C206 34 204 31 164 28L113 25L109 -3L166 -2C206 -1 235 0 251 0C270 0 301 -1 340 -2L384 -3L387 25L328 28C302 29 292 37 292 58C292 67 293 74 296 93Z" stroke="rgb(0,0,0)" stroke-opacity="1" stroke-width="8" fill="rgb(0,0,0)" fill-opacity="1"></path></g></g><g><g transform="matrix(1,0,0,1,27.470016479492188,100.8550033569336)"><path transform="matrix(0.017,0,0,-0.017,0,0)" d="M123 111C93 111 66 83 66 53C66 23 93 -5 122 -5C154 -5 182 22 182 53C182 83 154 111 123 111ZM123 456C93 456 66 428 66 398C66 368 93 340 122 340C154 340 182 367 182 397C182 428 154 456 123 456Z" stroke="rgb(0,0,0)" stroke-opacity="1" stroke-width="8" fill="rgb(0,0,0)" fill-opacity="1"></path></g></g><g><g transform="matrix(1,0,0,1,35.10499572753906,100.8550033569336)"><path transform="matrix(0.017,0,0,-0.017,0,0)" d="M166 420C187 420 203 421 229 424C118 304 76 221 76 121C76 44 122 -11 186 -11C324 -11 477 236 477 384C477 441 451 482 415 482C402 482 390 478 382 470L332 423L343 404C352 410 361 413 370 413C397 413 413 390 413 350C413 202 316 39 228 39C179 39 148 81 148 146C148 251 187 342 285 464L275 482C255 473 242 470 214 470C186 470 144 472 115 475L103 476C97 477 92 477 91 477C79 477 70 475 59 470C45 443 34 407 21 352L43 352L60 394C67 411 87 422 111 422C144 422 128 420 166 420ZM770 204L741 77C737 60 735 42 735 26C735 4 744 -9 759 -9C782 -9 823 17 905 85L898 106C874 86 845 59 823 59C814 59 808 68 808 82C808 87 808 90 809 93L901 472L891 481L858 463C817 478 800 482 773 482C745 482 725 477 698 464C636 433 603 403 578 354C534 265 503 145 503 67C503 23 518 -11 537 -11C574 -11 654 41 770 204ZM818 414C796 305 777 253 743 201C686 117 625 59 593 59C581 59 575 72 575 99C575 163 603 280 638 360C662 415 685 433 733 433C756 433 774 429 818 414ZM1310 365C1313 403 1318 435 1326 476C1315 481 1311 482 1306 482C1275 482 1244 458 1208 407C1169 351 1130 291 1114 256L1146 408C1150 425 1152 438 1152 450C1152 470 1144 482 1129 482C1108 482 1070 461 996 408L968 388L975 368L1007 389C1035 407 1046 412 1055 412C1065 412 1072 403 1072 390C1072 332 1029 126 989 -2L999 -9C1014 -4 1030 -1 1053 4L1066 6L1092 126C1110 209 1133 262 1177 319C1211 363 1238 384 1260 384C1275 384 1285 379 1296 365ZM1364 388L1371 368L1403 389C1440 412 1443 414 1450 414C1460 414 1468 404 1468 391C1468 384 1464 361 1460 347L1394 107C1386 76 1381 49 1381 30C1381 6 1392 -9 1411 -9C1437 -9 1473 12 1571 85L1561 103L1535 86C1506 67 1483 56 1474 56C1467 56 1461 66 1461 76C1461 86 1463 95 1468 116L1545 420C1549 437 1551 448 1551 456C1551 473 1542 482 1526 482C1504 482 1467 461 1392 408ZM1558 712C1529 712 1500 679 1500 645C1500 620 1515 604 1539 604C1570 604 1594 633 1594 671C1594 695 1579 712 1558 712ZM1878 204L1849 77C1845 60 1843 42 1843 26C1843 4 1852 -9 1867 -9C1890 -9 1931 17 2013 85L2006 106C1982 86 1953 59 1931 59C1922 59 1916 68 1916 82C1916 87 1916 90 1917 93L2009 472L1999 481L1966 463C1925 478 1908 482 1881 482C1853 482 1833 477 1806 464C1744 433 1711 403 1686 354C1642 265 1611 145 1611 67C1611 23 1626 -11 1645 -11C1682 -11 1762 41 1878 204ZM1926 414C1904 305 1885 253 1851 201C1794 117 1733 59 1701 59C1689 59 1683 72 1683 99C1683 163 1711 280 1746 360C1770 415 1793 433 1841 433C1864 433 1882 429 1926 414ZM2392 330L2415 330C2423 395 2430 432 2439 458C2415 473 2380 482 2343 482C2298 483 2225 463 2168 400C2114 352 2075 241 2075 136C2075 40 2117 -11 2197 -11C2251 -11 2299 9 2354 54L2404 95L2396 115L2381 105C2309 57 2271 40 2236 40C2180 40 2151 80 2151 159C2151 267 2186 371 2235 409C2256 425 2280 433 2311 433C2356 433 2392 414 2392 390ZM2490 388L2497 368L2529 389C2566 412 2569 414 2576 414C2586 414 2594 404 2594 391C2594 384 2590 361 2586 347L2520 107C2512 76 2507 49 2507 30C2507 6 2518 -9 2537 -9C2563 -9 2599 12 2697 85L2687 103L2661 86C2632 67 2609 56 2600 56C2593 56 2587 66 2587 76C2587 86 2589 95 2594 116L2671 420C2675 437 2677 448 2677 456C2677 473 2668 482 2652 482C2630 482 2593 461 2518 408ZM2684 712C2655 712 2626 679 2626 645C2626 620 2641 604 2665 604C2696 604 2720 633 2720 671C2720 695 2705 712 2684 712ZM2750 152C2750 46 2795 -11 2878 -11C2933 -11 2993 15 3038 57C3100 116 3144 230 3144 331C3144 425 3094 482 3011 482C2907 482 2750 382 2750 152ZM2974 444C3035 444 3068 399 3068 315C3068 219 3037 113 2993 60C2975 39 2949 27 2918 27C2860 27 2826 72 2826 151C2826 264 2865 387 2914 427C2927 438 2950 444 2974 444ZM3200 388L3207 368L3239 389C3276 412 3279 414 3286 414C3297 414 3304 404 3304 389C3304 338 3263 145 3222 2L3229 -9C3254 -2 3277 4 3299 8C3318 134 3339 199 3385 268C3439 352 3514 414 3559 414C3570 414 3576 405 3576 390C3576 372 3573 351 3565 319L3513 107C3504 70 3500 47 3500 31C3500 6 3511 -9 3530 -9C3556 -9 3592 12 3690 85L3680 103L3654 86C3625 67 3603 56 3593 56C3586 56 3580 65 3580 76C3580 81 3581 92 3582 96L3648 372C3655 401 3659 429 3659 446C3659 469 3648 482 3628 482C3586 482 3517 444 3458 389C3420 354 3392 320 3340 247L3378 408C3382 426 3384 438 3384 449C3384 470 3376 482 3361 482C3340 482 3301 460 3228 408ZM4463 722L4451 733C4399 707 4363 698 4291 691L4287 670L4335 670C4359 670 4369 663 4369 646C4369 638 4368 629 4367 622L4339 468C4309 477 4282 482 4257 482C4188 482 4094 410 4048 323C4017 265 3997 170 3997 86C3997 21 4012 -11 4041 -11C4068 -11 4105 6 4139 33C4193 77 4226 116 4293 217L4270 126C4259 82 4254 50 4254 24C4254 3 4263 -9 4280 -9C4297 -9 4321 3 4355 28L4436 88L4426 107L4382 76C4368 66 4352 59 4343 59C4335 59 4329 68 4329 82C4329 90 4330 99 4337 128ZM4094 59C4078 59 4069 73 4069 98C4069 224 4115 380 4164 418C4177 428 4196 433 4223 433C4267 433 4296 427 4329 410L4317 351C4280 171 4139 59 4094 59ZM4807 111L4783 94C4730 56 4682 36 4646 36C4599 36 4570 73 4570 133C4570 158 4573 185 4578 214C4595 218 4704 248 4729 259C4814 296 4853 342 4853 404C4853 451 4819 482 4769 482C4701 496 4591 423 4554 349C4524 299 4494 180 4494 113C4494 35 4538 -11 4610 -11C4667 -11 4723 17 4815 92ZM4592 274C4609 343 4629 386 4658 412C4676 428 4707 440 4731 440C4760 440 4779 420 4779 388C4779 344 4744 297 4692 272C4664 258 4628 247 4583 237ZM5241 390L5185 107C5184 99 5172 61 5172 31C5172 6 5183 -9 5202 -9C5237 -9 5272 11 5350 74L5381 99L5371 117L5326 86C5297 66 5277 56 5266 56C5257 56 5252 64 5252 76C5252 102 5266 183 5295 328L5308 390L5415 390L5426 440C5388 436 5354 434 5316 434C5332 528 5343 577 5361 631L5350 646C5330 634 5303 622 5272 610L5247 440C5203 419 5177 408 5159 403L5157 390ZM5776 111L5752 94C5699 56 5651 36 5615 36C5568 36 5539 73 5539 133C5539 158 5542 185 5547 214C5564 218 5673 248 5698 259C5783 296 5822 342 5822 404C5822 451 5788 482 5738 482C5670 496 5560 423 5523 349C5493 299 5463 180 5463 113C5463 35 5507 -11 5579 -11C5636 -11 5692 17 5784 92ZM5561 274C5578 343 5598 386 5627 412C5645 428 5676 440 5700 440C5729 440 5748 420 5748 388C5748 344 5713 297 5661 272C5633 258 5597 247 5552 237ZM6566 103L6540 86C6511 67 6489 56 6479 56C6472 56 6466 65 6466 76C6466 86 6468 95 6473 116L6548 413C6552 430 6555 446 6555 454C6555 471 6545 482 6529 482C6500 482 6462 464 6401 421C6338 376 6303 341 6254 272L6284 409C6288 429 6291 444 6291 451C6291 470 6281 482 6265 482C6235 482 6189 460 6134 418C6090 384 6070 363 6005 275L6038 408C6042 424 6044 439 6044 451C6044 470 6035 482 6021 482C6000 482 5962 461 5888 408L5860 388L5867 368C5904 391 5939 414 5946 414C5957 414 5964 404 5964 389C5964 338 5923 145 5882 2L5885 -9L5953 6L5975 108C5999 219 6026 278 6081 338C6123 384 6168 414 6196 414C6203 414 6207 406 6207 393C6207 358 6185 244 6144 69L6128 2L6133 -9L6202 6L6223 113C6239 194 6273 269 6317 318C6372 379 6422 414 6454 414C6462 414 6467 405 6467 389C6467 365 6464 351 6442 264C6402 105 6386 84 6386 31C6386 6 6397 -9 6416 -9C6442 -9 6478 12 6576 85ZM6789 -11C6845 -11 6960 62 7003 125C7044 186 7078 296 7078 371C7078 438 7055 482 7019 482C6977 482 6924 456 6872 409C6831 374 6811 348 6775 289L6799 408C6802 425 6804 440 6804 452C6804 471 6796 482 6782 482C6761 482 6723 461 6649 408L6621 388L6628 368L6660 389C6688 407 6699 412 6708 412C6718 412 6725 403 6725 389C6725 381 6723 361 6721 351L6663 8C6653 -52 6634 -143 6614 -233L6606 -270L6613 -276C6634 -269 6654 -264 6686 -259L6728 3C6749 -4 6771 -11 6789 -11ZM6756 165C6778 293 6885 424 6968 424C6994 424 7006 402 7006 356C7006 275 6966 156 6913 80C6893 51 6861 36 6820 36C6789 36 6764 43 6738 59Z" stroke="rgb(0,0,0)" stroke-opacity="1" stroke-width="8" fill="rgb(0,0,0)" fill-opacity="1"></path></g></g></g></g></svg>