<svg xmlns="http://www.w3.org/2000/svg" xmlns:xlink="http://www.w3.org/1999/xlink" width="85.82500457763672" height="25.540000915527344" style="width:85.82500457763672px;height:25.540000915527344px;font-family:Asana-Math, Asana;background:#FFF;"><g><g><g><g transform="matrix(1,0,0,1,2,18.039993286132812)"><path transform="matrix(0.017,0,0,-0.017,0,0)" d="M151 -172C151 -95 175 -59 228 -59C257 -59 285 -67 324 -88L469 -164C529 -195 547 -201 587 -201C662 -201 698 -158 708 -61L683 -61C677 -115 655 -140 615 -140C598 -140 579 -135 553 -125L317 -29C292 -19 274 -15 251 -15C177 -15 126 -66 126 -142C126 -144 126 -151 127 -159ZM748 425C748 603 644 706 464 706C227 706 53 523 53 272C53 83 147 -18 323 -18C595 -18 748 207 748 425ZM660 409C660 221 571 24 360 24C216 24 141 110 141 277C141 425 199 664 433 664C549 664 660 610 660 409Z" stroke="rgb(0,0,0)" stroke-opacity="1" stroke-width="8" fill="rgb(0,0,0)" fill-opacity="1"></path></g></g><g><g><g><g><g transform="matrix(1,0,0,1,15.725006103515625,21.999998474121092)"><path transform="matrix(0.0119,0,0,-0.0119,0,0)" d="M271 204L242 77C238 60 236 42 236 26C236 4 245 -9 260 -9C283 -9 324 17 406 85L399 106C375 86 346 59 324 59C315 59 309 68 309 82C309 87 309 90 310 93L402 472L392 481L359 463C318 478 301 482 274 482C246 482 226 477 199 464C137 433 104 403 79 354C35 265 4 145 4 67C4 23 19 -11 38 -11C75 -11 155 41 271 204ZM319 414C297 305 278 253 244 201C187 117 126 59 94 59C82 59 76 72 76 99C76 163 104 280 139 360C163 415 186 433 234 433C257 433 275 429 319 414ZM678 722L666 733C614 707 578 698 506 691L502 670L550 670C574 670 584 663 584 646C584 639 583 628 582 622L481 71C480 68 480 64 480 61C480 22 528 -11 583 -11C620 -11 671 8 714 39C810 107 876 244 876 376C876 414 867 453 855 468C848 477 835 482 820 482C796 482 766 474 738 460C687 433 654 403 592 324ZM765 424C791 424 804 401 804 352C804 288 783 202 753 137C720 68 680 36 626 36C580 36 555 59 555 101C555 135 570 276 651 361C684 395 736 424 765 424ZM936 148C931 97 925 62 914 16C952 -2 986 -11 1021 -11C1070 -11 1116 7 1167 47C1218 87 1239 124 1239 174C1239 228 1207 257 1133 271L1090 279C1030 290 1011 307 1011 348C1011 401 1056 442 1113 442C1154 442 1192 424 1208 397L1208 342L1231 342C1235 377 1239 404 1250 455C1211 474 1183 482 1150 482C1098 482 1037 452 989 404C963 377 952 352 952 316C952 260 983 228 1049 215L1112 203C1156 195 1172 177 1172 138C1172 73 1126 29 1055 29C1020 29 989 40 961 64L961 148Z" stroke="rgb(0,0,0)" stroke-opacity="1" stroke-width="8" fill="rgb(0,0,0)" fill-opacity="1"></path></g></g></g></g></g><g><g transform="matrix(1,0,0,1,37.235015869140625,18.039993286132812)"><path transform="matrix(0.017,0,0,-0.017,0,0)" d="M604 347L604 406L65 406L65 347ZM604 134L604 193L65 193L65 134Z" stroke="rgb(0,0,0)" stroke-opacity="1" stroke-width="8" fill="rgb(0,0,0)" fill-opacity="1"></path></g></g><g><g transform="matrix(1,0,0,1,53.69000244140625,18.039993286132812)"><path transform="matrix(0.017,0,0,-0.017,0,0)" d="M151 -172C151 -95 175 -59 228 -59C257 -59 285 -67 324 -88L469 -164C529 -195 547 -201 587 -201C662 -201 698 -158 708 -61L683 -61C677 -115 655 -140 615 -140C598 -140 579 -135 553 -125L317 -29C292 -19 274 -15 251 -15C177 -15 126 -66 126 -142C126 -144 126 -151 127 -159ZM748 425C748 603 644 706 464 706C227 706 53 523 53 272C53 83 147 -18 323 -18C595 -18 748 207 748 425ZM660 409C660 221 571 24 360 24C216 24 141 110 141 277C141 425 199 664 433 664C549 664 660 610 660 409Z" stroke="rgb(0,0,0)" stroke-opacity="1" stroke-width="8" fill="rgb(0,0,0)" fill-opacity="1"></path></g></g><g><g><g><g><g transform="matrix(1,0,0,1,67.41500854492188,21.999998474121092)"><path transform="matrix(0.0119,0,0,-0.0119,0,0)" d="M342 330L365 330C373 395 380 432 389 458C365 473 330 482 293 482C248 483 175 463 118 400C64 352 25 241 25 136C25 40 67 -11 147 -11C201 -11 249 9 304 54L354 95L346 115L331 105C259 57 221 40 186 40C130 40 101 80 101 159C101 267 136 371 185 409C206 425 230 433 261 433C306 433 342 414 342 390ZM734 111L710 94C657 56 609 36 573 36C526 36 497 73 497 133C497 158 500 185 505 214C522 218 631 248 656 259C741 296 780 342 780 404C780 451 746 482 696 482C628 496 518 423 481 349C451 299 421 180 421 113C421 35 465 -11 537 -11C594 -11 650 17 742 92ZM519 274C536 343 556 386 585 412C603 428 634 440 658 440C687 440 706 420 706 388C706 344 671 297 619 272C591 258 555 247 510 237ZM1277 722L1265 733C1213 707 1177 698 1105 691L1101 670L1149 670C1173 670 1183 663 1183 646C1183 638 1182 629 1181 622L1153 468C1123 477 1096 482 1071 482C1002 482 908 410 862 323C831 265 811 170 811 86C811 21 826 -11 855 -11C882 -11 919 6 953 33C1007 77 1040 116 1107 217L1084 126C1073 82 1068 50 1068 24C1068 3 1077 -9 1094 -9C1111 -9 1135 3 1169 28L1250 88L1240 107L1196 76C1182 66 1166 59 1157 59C1149 59 1143 68 1143 82C1143 90 1144 99 1151 128ZM908 59C892 59 883 73 883 98C883 224 929 380 978 418C991 428 1010 433 1037 433C1081 433 1110 427 1143 410L1131 351C1094 171 953 59 908 59Z" stroke="rgb(0,0,0)" stroke-opacity="1" stroke-width="8" fill="rgb(0,0,0)" fill-opacity="1"></path></g></g></g></g></g></g></g></svg>