<svg xmlns="http://www.w3.org/2000/svg" xmlns:xlink="http://www.w3.org/1999/xlink" width="128.20000457763672" height="147.2949981689453" style="width:128.20000457763672px;height:147.2949981689453px;font-family:Asana-Math, Asana;background:#FFF;"><g><g><g><g transform="matrix(1,0,0,1,2,30.204994201660156)"><path transform="matrix(0.017,0,0,-0.017,0,0)" d="M1843 664L1846 692L1732 689C1716 689 1698 689 1655 690L1591 692L1588 664L1635 662C1659 661 1670 653 1670 635L1575 55C1571 37 1559 30 1515 23L1510 -3L1551 -2C1582 -1 1644 0 1664 0C1664 0 1961 -1 1961 -1C1961 -1 1994 0 1994 0C1993 25 2004 103 2017 165L1986 165L1969 103C1960 71 1951 54 1942 49C1929 44 1865 39 1798 39C1749 39 1722 40 1656 46C1659 64 1750 605 1750 613C1757 651 1764 658 1801 661Z" stroke="rgb(0,0,0)" stroke-opacity="1" stroke-width="8" fill="rgb(0,0,0)" fill-opacity="1"></path></g></g><g><g transform="matrix(1,0,0,1,41.930023193359375,30.204994201660156)"><path transform="matrix(0.017,0,0,-0.017,0,0)" d="M604 347L604 406L65 406L65 347ZM604 134L604 193L65 193L65 134Z" stroke="rgb(0,0,0)" stroke-opacity="1" stroke-width="8" fill="rgb(0,0,0)" fill-opacity="1"></path></g></g><g><g><g><g><g transform="matrix(1,0,0,1,60.08001708984375,18.039993286132812)"><path transform="matrix(0.017,0,0,-0.017,0,0)" d="M151 -172C151 -95 175 -59 228 -59C257 -59 285 -67 324 -88L469 -164C529 -195 547 -201 587 -201C662 -201 698 -158 708 -61L683 -61C677 -115 655 -140 615 -140C598 -140 579 -135 553 -125L317 -29C292 -19 274 -15 251 -15C177 -15 126 -66 126 -142C126 -144 126 -151 127 -159ZM748 425C748 603 644 706 464 706C227 706 53 523 53 272C53 83 147 -18 323 -18C595 -18 748 207 748 425ZM660 409C660 221 571 24 360 24C216 24 141 110 141 277C141 425 199 664 433 664C549 664 660 610 660 409Z" stroke="rgb(0,0,0)" stroke-opacity="1" stroke-width="8" fill="rgb(0,0,0)" fill-opacity="1"></path></g></g></g></g><g><g><g><g transform="matrix(1,0,0,1,60.08001708984375,43.375)"><path transform="matrix(0.017,0,0,-0.017,0,0)" d="M730 103L704 86C675 67 653 56 643 56C636 56 630 65 630 76C630 86 632 95 637 116L712 413C716 430 719 446 719 454C719 471 709 482 693 482C664 482 626 464 565 421C502 376 467 341 418 272L448 409C452 429 455 444 455 451C455 470 445 482 429 482C399 482 353 460 298 418C254 384 234 363 169 275L202 408C206 424 208 439 208 451C208 470 199 482 185 482C164 482 126 461 52 408L24 388L31 368C68 391 103 414 110 414C121 414 128 404 128 389C128 338 87 145 46 2L49 -9L117 6L139 108C163 219 190 278 245 338C287 384 332 414 360 414C367 414 371 406 371 393C371 358 349 244 308 69L292 2L297 -9L366 6L387 113C403 194 437 269 481 318C536 379 586 414 618 414C626 414 631 405 631 389C631 365 628 351 606 264C566 105 550 84 550 31C550 6 561 -9 580 -9C606 -9 642 12 740 85Z" stroke="rgb(0,0,0)" stroke-opacity="1" stroke-width="8" fill="rgb(0,0,0)" fill-opacity="1"></path></g></g></g></g><line style="fill:none;stroke-width:0.99px;stroke:rgb(0, 0, 0);" x1="60.08001708984375" y1="26.240000009536743" x2="73.29501724243164" y2="26.240000009536743"></line></g></g><g></g><g><g><g transform="matrix(1,0,0,1,2,80.69499206542969)"><path transform="matrix(0.017,0,0,-0.017,0,0)" d="M151 -172C151 -95 175 -59 228 -59C257 -59 285 -67 324 -88L469 -164C529 -195 547 -201 587 -201C662 -201 698 -158 708 -61L683 -61C677 -115 655 -140 615 -140C598 -140 579 -135 553 -125L317 -29C292 -19 274 -15 251 -15C177 -15 126 -66 126 -142C126 -144 126 -151 127 -159ZM748 425C748 603 644 706 464 706C227 706 53 523 53 272C53 83 147 -18 323 -18C595 -18 748 207 748 425ZM660 409C660 221 571 24 360 24C216 24 141 110 141 277C141 425 199 664 433 664C549 664 660 610 660 409Z" stroke="rgb(0,0,0)" stroke-opacity="1" stroke-width="8" fill="rgb(0,0,0)" fill-opacity="1"></path></g></g><g><g transform="matrix(1,0,0,1,18.605010986328125,80.69499206542969)"><path transform="matrix(0.017,0,0,-0.017,0,0)" d="M123 111C93 111 66 83 66 53C66 23 93 -5 122 -5C154 -5 182 22 182 53C182 83 154 111 123 111ZM123 456C93 456 66 428 66 398C66 368 93 340 122 340C154 340 182 367 182 397C182 428 154 456 123 456Z" stroke="rgb(0,0,0)" stroke-opacity="1" stroke-width="8" fill="rgb(0,0,0)" fill-opacity="1"></path></g></g><g><g transform="matrix(1,0,0,1,26.240020751953125,80.69499206542969)"><path transform="matrix(0.017,0,0,-0.017,0,0)" d="M342 330L365 330C373 395 380 432 389 458C365 473 330 482 293 482C248 483 175 463 118 400C64 352 25 241 25 136C25 40 67 -11 147 -11C201 -11 249 9 304 54L354 95L346 115L331 105C259 57 221 40 186 40C130 40 101 80 101 159C101 267 136 371 185 409C206 425 230 433 261 433C306 433 342 414 342 390ZM677 204L648 77C644 60 642 42 642 26C642 4 651 -9 666 -9C689 -9 730 17 812 85L805 106C781 86 752 59 730 59C721 59 715 68 715 82C715 87 715 90 716 93L808 472L798 481L765 463C724 478 707 482 680 482C652 482 632 477 605 464C543 433 510 403 485 354C441 265 410 145 410 67C410 23 425 -11 444 -11C481 -11 561 41 677 204ZM725 414C703 305 684 253 650 201C593 117 532 59 500 59C488 59 482 72 482 99C482 163 510 280 545 360C569 415 592 433 640 433C663 433 681 429 725 414ZM1100 722L1088 733C1036 707 1000 698 928 691L924 670L972 670C996 670 1006 663 1006 648C1006 645 1006 640 1003 622C992 567 919 182 904 132C891 82 885 52 885 31C885 6 896 -9 915 -9C941 -9 977 12 1075 85L1065 103L1039 86C1010 67 988 56 978 56C971 56 965 66 965 76C965 82 966 89 969 104ZM1143 152C1143 46 1188 -11 1271 -11C1326 -11 1386 15 1431 57C1493 116 1537 230 1537 331C1537 425 1487 482 1404 482C1300 482 1143 382 1143 152ZM1367 444C1428 444 1461 399 1461 315C1461 219 1430 113 1386 60C1368 39 1342 27 1311 27C1253 27 1219 72 1219 151C1219 264 1258 387 1307 427C1320 438 1343 444 1367 444ZM1937 365C1940 403 1945 435 1953 476C1942 481 1938 482 1933 482C1902 482 1871 458 1835 407C1796 351 1757 291 1741 256L1773 408C1777 425 1779 438 1779 450C1779 470 1771 482 1756 482C1735 482 1697 461 1623 408L1595 388L1602 368L1634 389C1662 407 1673 412 1682 412C1692 412 1699 403 1699 390C1699 332 1656 126 1616 -2L1626 -9C1641 -4 1657 -1 1680 4L1693 6L1719 126C1737 209 1760 262 1804 319C1838 363 1865 384 1887 384C1902 384 1912 379 1923 365ZM2230 388L2237 368L2269 389C2306 412 2309 414 2316 414C2327 414 2334 404 2334 389C2334 338 2293 145 2252 2L2259 -9C2284 -2 2307 4 2329 8C2348 134 2369 199 2415 268C2469 352 2544 414 2589 414C2600 414 2606 405 2606 390C2606 372 2603 351 2595 319L2543 107C2534 70 2530 47 2530 31C2530 6 2541 -9 2560 -9C2586 -9 2622 12 2720 85L2710 103L2684 86C2655 67 2633 56 2623 56C2616 56 2610 65 2610 76C2610 81 2611 92 2612 96L2678 372C2685 401 2689 429 2689 446C2689 469 2678 482 2658 482C2616 482 2547 444 2488 389C2450 354 2422 320 2370 247L2408 408C2412 426 2414 438 2414 449C2414 470 2406 482 2391 482C2370 482 2331 460 2258 408ZM3089 111L3065 94C3012 56 2964 36 2928 36C2881 36 2852 73 2852 133C2852 158 2855 185 2860 214C2877 218 2986 248 3011 259C3096 296 3135 342 3135 404C3135 451 3101 482 3051 482C2983 496 2873 423 2836 349C2806 299 2776 180 2776 113C2776 35 2820 -11 2892 -11C2949 -11 3005 17 3097 92ZM2874 274C2891 343 2911 386 2940 412C2958 428 2989 440 3013 440C3042 440 3061 420 3061 388C3061 344 3026 297 2974 272C2946 258 2910 247 2865 237ZM3491 330L3514 330C3522 395 3529 432 3538 458C3514 473 3479 482 3442 482C3397 483 3324 463 3267 400C3213 352 3174 241 3174 136C3174 40 3216 -11 3296 -11C3350 -11 3398 9 3453 54L3503 95L3495 115L3480 105C3408 57 3370 40 3335 40C3279 40 3250 80 3250 159C3250 267 3285 371 3334 409C3355 425 3379 433 3410 433C3455 433 3491 414 3491 390ZM3883 111L3859 94C3806 56 3758 36 3722 36C3675 36 3646 73 3646 133C3646 158 3649 185 3654 214C3671 218 3780 248 3805 259C3890 296 3929 342 3929 404C3929 451 3895 482 3845 482C3777 496 3667 423 3630 349C3600 299 3570 180 3570 113C3570 35 3614 -11 3686 -11C3743 -11 3799 17 3891 92ZM3668 274C3685 343 3705 386 3734 412C3752 428 3783 440 3807 440C3836 440 3855 420 3855 388C3855 344 3820 297 3768 272C3740 258 3704 247 3659 237ZM3974 148C3969 97 3963 62 3952 16C3990 -2 4024 -11 4059 -11C4108 -11 4154 7 4205 47C4256 87 4277 124 4277 174C4277 228 4245 257 4171 271L4128 279C4068 290 4049 307 4049 348C4049 401 4094 442 4151 442C4192 442 4230 424 4246 397L4246 342L4269 342C4273 377 4277 404 4288 455C4249 474 4221 482 4188 482C4136 482 4075 452 4027 404C4001 377 3990 352 3990 316C3990 260 4021 228 4087 215L4150 203C4194 195 4210 177 4210 138C4210 73 4164 29 4093 29C4058 29 4027 40 3999 64L3999 148ZM4602 204L4573 77C4569 60 4567 42 4567 26C4567 4 4576 -9 4591 -9C4614 -9 4655 17 4737 85L4730 106C4706 86 4677 59 4655 59C4646 59 4640 68 4640 82C4640 87 4640 90 4641 93L4733 472L4723 481L4690 463C4649 478 4632 482 4605 482C4577 482 4557 477 4530 464C4468 433 4435 403 4410 354C4366 265 4335 145 4335 67C4335 23 4350 -11 4369 -11C4406 -11 4486 41 4602 204ZM4650 414C4628 305 4609 253 4575 201C4518 117 4457 59 4425 59C4413 59 4407 72 4407 99C4407 163 4435 280 4470 360C4494 415 4517 433 4565 433C4588 433 4606 429 4650 414ZM5142 365C5145 403 5150 435 5158 476C5147 481 5143 482 5138 482C5107 482 5076 458 5040 407C5001 351 4962 291 4946 256L4978 408C4982 425 4984 438 4984 450C4984 470 4976 482 4961 482C4940 482 4902 461 4828 408L4800 388L4807 368L4839 389C4867 407 4878 412 4887 412C4897 412 4904 403 4904 390C4904 332 4861 126 4821 -2L4831 -9C4846 -4 4862 -1 4885 4L4898 6L4924 126C4942 209 4965 262 5009 319C5043 363 5070 384 5092 384C5107 384 5117 379 5128 365ZM5196 388L5203 368L5235 389C5272 412 5275 414 5282 414C5292 414 5300 404 5300 391C5300 384 5296 361 5292 347L5226 107C5218 76 5213 49 5213 30C5213 6 5224 -9 5243 -9C5269 -9 5305 12 5403 85L5393 103L5367 86C5338 67 5315 56 5306 56C5299 56 5293 66 5293 76C5293 86 5295 95 5300 116L5377 420C5381 437 5383 448 5383 456C5383 473 5374 482 5358 482C5336 482 5299 461 5224 408ZM5390 712C5361 712 5332 679 5332 645C5332 620 5347 604 5371 604C5402 604 5426 633 5426 671C5426 695 5411 712 5390 712ZM5456 152C5456 46 5501 -11 5584 -11C5639 -11 5699 15 5744 57C5806 116 5850 230 5850 331C5850 425 5800 482 5717 482C5613 482 5456 382 5456 152ZM5680 444C5741 444 5774 399 5774 315C5774 219 5743 113 5699 60C5681 39 5655 27 5624 27C5566 27 5532 72 5532 151C5532 264 5571 387 5620 427C5633 438 5656 444 5680 444Z" stroke="rgb(0,0,0)" stroke-opacity="1" stroke-width="8" fill="rgb(0,0,0)" fill-opacity="1"></path></g></g></g><g><g><g transform="matrix(1,0,0,1,2,100.85499572753906)"><path transform="matrix(0.017,0,0,-0.017,0,0)" d="M176 -11C232 -11 347 62 390 125C431 186 465 296 465 371C465 438 442 482 406 482C364 482 311 456 259 409C218 374 198 348 162 289L186 408C189 425 191 440 191 452C191 471 183 482 169 482C148 482 110 461 36 408L8 388L15 368L47 389C75 407 86 412 95 412C105 412 112 403 112 389C112 381 110 361 108 351L50 8C40 -52 21 -143 1 -233L-7 -270L0 -276C21 -269 41 -264 73 -259L115 3C136 -4 158 -11 176 -11ZM143 165C165 293 272 424 355 424C381 424 393 402 393 356C393 275 353 156 300 80C280 51 248 36 207 36C176 36 151 43 125 59ZM770 204L741 77C737 60 735 42 735 26C735 4 744 -9 759 -9C782 -9 823 17 905 85L898 106C874 86 845 59 823 59C814 59 808 68 808 82C808 87 808 90 809 93L901 472L891 481L858 463C817 478 800 482 773 482C745 482 725 477 698 464C636 433 603 403 578 354C534 265 503 145 503 67C503 23 518 -11 537 -11C574 -11 654 41 770 204ZM818 414C796 305 777 253 743 201C686 117 625 59 593 59C581 59 575 72 575 99C575 163 603 280 638 360C662 415 685 433 733 433C756 433 774 429 818 414ZM1310 365C1313 403 1318 435 1326 476C1315 481 1311 482 1306 482C1275 482 1244 458 1208 407C1169 351 1130 291 1114 256L1146 408C1150 425 1152 438 1152 450C1152 470 1144 482 1129 482C1108 482 1070 461 996 408L968 388L975 368L1007 389C1035 407 1046 412 1055 412C1065 412 1072 403 1072 390C1072 332 1029 126 989 -2L999 -9C1014 -4 1030 -1 1053 4L1066 6L1092 126C1110 209 1133 262 1177 319C1211 363 1238 384 1260 384C1275 384 1285 379 1296 365ZM1601 204L1572 77C1568 60 1566 42 1566 26C1566 4 1575 -9 1590 -9C1613 -9 1654 17 1736 85L1729 106C1705 86 1676 59 1654 59C1645 59 1639 68 1639 82C1639 87 1639 90 1640 93L1732 472L1722 481L1689 463C1648 478 1631 482 1604 482C1576 482 1556 477 1529 464C1467 433 1434 403 1409 354C1365 265 1334 145 1334 67C1334 23 1349 -11 1368 -11C1405 -11 1485 41 1601 204ZM1649 414C1627 305 1608 253 1574 201C1517 117 1456 59 1424 59C1412 59 1406 72 1406 99C1406 163 1434 280 1469 360C1493 415 1516 433 1564 433C1587 433 1605 429 1649 414ZM2350 111L2326 94C2273 56 2225 36 2189 36C2142 36 2113 73 2113 133C2113 158 2116 185 2121 214C2138 218 2247 248 2272 259C2357 296 2396 342 2396 404C2396 451 2362 482 2312 482C2244 496 2134 423 2097 349C2067 299 2037 180 2037 113C2037 35 2081 -11 2153 -11C2210 -11 2266 17 2358 92ZM2135 274C2152 343 2172 386 2201 412C2219 428 2250 440 2274 440C2303 440 2322 420 2322 388C2322 344 2287 297 2235 272C2207 258 2171 247 2126 237ZM2661 722L2649 733C2597 707 2561 698 2489 691L2485 670L2533 670C2557 670 2567 663 2567 648C2567 645 2567 640 2564 622C2553 567 2480 182 2465 132C2452 82 2446 52 2446 31C2446 6 2457 -9 2476 -9C2502 -9 2538 12 2636 85L2626 103L2600 86C2571 67 2549 56 2539 56C2532 56 2526 66 2526 76C2526 82 2527 89 2530 104ZM3278 330L3301 330C3309 395 3316 432 3325 458C3301 473 3266 482 3229 482C3184 483 3111 463 3054 400C3000 352 2961 241 2961 136C2961 40 3003 -11 3083 -11C3137 -11 3185 9 3240 54L3290 95L3282 115L3267 105C3195 57 3157 40 3122 40C3066 40 3037 80 3037 159C3037 267 3072 371 3121 409C3142 425 3166 433 3197 433C3242 433 3278 414 3278 390ZM3613 204L3584 77C3580 60 3578 42 3578 26C3578 4 3587 -9 3602 -9C3625 -9 3666 17 3748 85L3741 106C3717 86 3688 59 3666 59C3657 59 3651 68 3651 82C3651 87 3651 90 3652 93L3744 472L3734 481L3701 463C3660 478 3643 482 3616 482C3588 482 3568 477 3541 464C3479 433 3446 403 3421 354C3377 265 3346 145 3346 67C3346 23 3361 -11 3380 -11C3417 -11 3497 41 3613 204ZM3661 414C3639 305 3620 253 3586 201C3529 117 3468 59 3436 59C3424 59 3418 72 3418 99C3418 163 3446 280 3481 360C3505 415 3528 433 3576 433C3599 433 3617 429 3661 414ZM4515 103L4489 86C4460 67 4438 56 4428 56C4421 56 4415 65 4415 76C4415 86 4417 95 4422 116L4497 413C4501 430 4504 446 4504 454C4504 471 4494 482 4478 482C4449 482 4411 464 4350 421C4287 376 4252 341 4203 272L4233 409C4237 429 4240 444 4240 451C4240 470 4230 482 4214 482C4184 482 4138 460 4083 418C4039 384 4019 363 3954 275L3987 408C3991 424 3993 439 3993 451C3993 470 3984 482 3970 482C3949 482 3911 461 3837 408L3809 388L3816 368C3853 391 3888 414 3895 414C3906 414 3913 404 3913 389C3913 338 3872 145 3831 2L3834 -9L3902 6L3924 108C3948 219 3975 278 4030 338C4072 384 4117 414 4145 414C4152 414 4156 406 4156 393C4156 358 4134 244 4093 69L4077 2L4082 -9L4151 6L4172 113C4188 194 4222 269 4266 318C4321 379 4371 414 4403 414C4411 414 4416 405 4416 389C4416 365 4413 351 4391 264C4351 105 4335 84 4335 31C4335 6 4346 -9 4365 -9C4391 -9 4427 12 4525 85ZM4797 722L4785 733C4733 707 4697 698 4625 691L4621 670L4669 670C4693 670 4703 663 4703 646C4703 639 4702 628 4701 622L4600 71C4599 68 4599 64 4599 61C4599 22 4647 -11 4702 -11C4739 -11 4790 8 4833 39C4929 107 4995 244 4995 376C4995 414 4986 453 4974 468C4967 477 4954 482 4939 482C4915 482 4885 474 4857 460C4806 433 4773 403 4711 324ZM4884 424C4910 424 4923 401 4923 352C4923 288 4902 202 4872 137C4839 68 4799 36 4745 36C4699 36 4674 59 4674 101C4674 135 4689 276 4770 361C4803 395 4855 424 4884 424ZM5058 388L5065 368L5097 389C5134 412 5137 414 5144 414C5154 414 5162 404 5162 391C5162 384 5158 361 5154 347L5088 107C5080 76 5075 49 5075 30C5075 6 5086 -9 5105 -9C5131 -9 5167 12 5265 85L5255 103L5229 86C5200 67 5177 56 5168 56C5161 56 5155 66 5155 76C5155 86 5157 95 5162 116L5239 420C5243 437 5245 448 5245 456C5245 473 5236 482 5220 482C5198 482 5161 461 5086 408ZM5252 712C5223 712 5194 679 5194 645C5194 620 5209 604 5233 604C5264 604 5288 633 5288 671C5288 695 5273 712 5252 712ZM5318 152C5318 46 5363 -11 5446 -11C5501 -11 5561 15 5606 57C5668 116 5712 230 5712 331C5712 425 5662 482 5579 482C5475 482 5318 382 5318 152ZM5542 444C5603 444 5636 399 5636 315C5636 219 5605 113 5561 60C5543 39 5517 27 5486 27C5428 27 5394 72 5394 151C5394 264 5433 387 5482 427C5495 438 5518 444 5542 444ZM6476 722L6464 733C6412 707 6376 698 6304 691L6300 670L6348 670C6372 670 6382 663 6382 646C6382 638 6381 629 6380 622L6352 468C6322 477 6295 482 6270 482C6201 482 6107 410 6061 323C6030 265 6010 170 6010 86C6010 21 6025 -11 6054 -11C6081 -11 6118 6 6152 33C6206 77 6239 116 6306 217L6283 126C6272 82 6267 50 6267 24C6267 3 6276 -9 6293 -9C6310 -9 6334 3 6368 28L6449 88L6439 107L6395 76C6381 66 6365 59 6356 59C6348 59 6342 68 6342 82C6342 90 6343 99 6350 128ZM6107 59C6091 59 6082 73 6082 98C6082 224 6128 380 6177 418C6190 428 6209 433 6236 433C6280 433 6309 427 6342 410L6330 351C6293 171 6152 59 6107 59ZM6820 111L6796 94C6743 56 6695 36 6659 36C6612 36 6583 73 6583 133C6583 158 6586 185 6591 214C6608 218 6717 248 6742 259C6827 296 6866 342 6866 404C6866 451 6832 482 6782 482C6714 496 6604 423 6567 349C6537 299 6507 180 6507 113C6507 35 6551 -11 6623 -11C6680 -11 6736 17 6828 92ZM6605 274C6622 343 6642 386 6671 412C6689 428 6720 440 6744 440C6773 440 6792 420 6792 388C6792 344 6757 297 6705 272C6677 258 6641 247 6596 237Z" stroke="rgb(0,0,0)" stroke-opacity="1" stroke-width="8" fill="rgb(0,0,0)" fill-opacity="1"></path></g></g></g><g><g><g transform="matrix(1,0,0,1,2,121.01499938964844)"><path transform="matrix(0.017,0,0,-0.017,0,0)" d="M345 437L329 437L350 549C366 635 394 673 440 673C470 673 497 658 512 634L522 638C527 654 537 685 545 705L550 720C534 727 503 733 480 733C469 733 453 730 445 726C421 715 339 654 316 630C294 608 282 578 271 521L256 442C215 422 195 414 170 405L165 383L246 383L237 327C207 132 170 -54 148 -123C130 -182 100 -213 64 -213C41 -213 30 -206 12 -184L-2 -188C-6 -211 -20 -259 -25 -268C-16 -273 -1 -276 10 -276C51 -276 105 -245 144 -198C215 -114 235 -18 319 383L423 383C427 402 434 425 440 439L436 446C407 439 408 437 345 437ZM821 204L792 77C788 60 786 42 786 26C786 4 795 -9 810 -9C833 -9 874 17 956 85L949 106C925 86 896 59 874 59C865 59 859 68 859 82C859 87 859 90 860 93L952 472L942 481L909 463C868 478 851 482 824 482C796 482 776 477 749 464C687 433 654 403 629 354C585 265 554 145 554 67C554 23 569 -11 588 -11C625 -11 705 41 821 204ZM869 414C847 305 828 253 794 201C737 117 676 59 644 59C632 59 626 72 626 99C626 163 654 280 689 360C713 415 736 433 784 433C807 433 825 429 869 414ZM1024 148C1019 97 1013 62 1002 16C1040 -2 1074 -11 1109 -11C1158 -11 1204 7 1255 47C1306 87 1327 124 1327 174C1327 228 1295 257 1221 271L1178 279C1118 290 1099 307 1099 348C1099 401 1144 442 1201 442C1242 442 1280 424 1296 397L1296 342L1319 342C1323 377 1327 404 1338 455C1299 474 1271 482 1238 482C1186 482 1125 452 1077 404C1051 377 1040 352 1040 316C1040 260 1071 228 1137 215L1200 203C1244 195 1260 177 1260 138C1260 73 1214 29 1143 29C1108 29 1077 40 1049 64L1049 148ZM1709 111L1685 94C1632 56 1584 36 1548 36C1501 36 1472 73 1472 133C1472 158 1475 185 1480 214C1497 218 1606 248 1631 259C1716 296 1755 342 1755 404C1755 451 1721 482 1671 482C1603 496 1493 423 1456 349C1426 299 1396 180 1396 113C1396 35 1440 -11 1512 -11C1569 -11 1625 17 1717 92ZM1494 274C1511 343 1531 386 1560 412C1578 428 1609 440 1633 440C1662 440 1681 420 1681 388C1681 344 1646 297 1594 272C1566 258 1530 247 1485 237Z" stroke="rgb(0,0,0)" stroke-opacity="1" stroke-width="8" fill="rgb(0,0,0)" fill-opacity="1"></path></g></g><g><g transform="matrix(1,0,0,1,36.290008544921875,121.97500610351562)"><path transform="matrix(0.017,0,0,-0.017,0,0)" d="M146 266C146 526 243 632 301 700L282 726C225 675 60 542 60 266C60 159 85 58 133 -32C168 -99 200 -138 282 -215L301 -194C255 -137 146 -15 146 266Z" stroke="rgb(0,0,0)" stroke-opacity="1" stroke-width="8" fill="rgb(0,0,0)" fill-opacity="1"></path></g></g><g><g transform="matrix(1,0,0,1,41.94500732421875,121.01499938964844)"><path transform="matrix(0.017,0,0,-0.017,0,0)" d="M355 664L358 692L244 689C228 689 210 689 167 690L103 692L100 664L147 662C171 661 182 653 182 635C182 630 182 627 181 622L86 -21C71 -124 41 -174 -6 -174C-18 -174 -27 -173 -35 -170L-32 -196C-21 -203 -9 -206 3 -206C38 -206 143 -178 177 54L262 613C268 651 275 658 313 661Z" stroke="rgb(0,0,0)" stroke-opacity="1" stroke-width="8" fill="rgb(0,0,0)" fill-opacity="1"></path></g></g><g><g transform="matrix(1,0,0,1,47.600006103515625,121.97500610351562)"><path transform="matrix(0.017,0,0,-0.017,0,0)" d="M51 726L32 700C87 636 187 526 187 266C187 -10 83 -131 32 -194L51 -215C104 -165 273 -23 273 265C273 542 108 675 51 726Z" stroke="rgb(0,0,0)" stroke-opacity="1" stroke-width="8" fill="rgb(0,0,0)" fill-opacity="1"></path></g></g></g><g><g><g transform="matrix(1,0,0,1,2,141.1750030517578)"><path transform="matrix(0.017,0,0,-0.017,0,0)" d="M730 103L704 86C675 67 653 56 643 56C636 56 630 65 630 76C630 86 632 95 637 116L712 413C716 430 719 446 719 454C719 471 709 482 693 482C664 482 626 464 565 421C502 376 467 341 418 272L448 409C452 429 455 444 455 451C455 470 445 482 429 482C399 482 353 460 298 418C254 384 234 363 169 275L202 408C206 424 208 439 208 451C208 470 199 482 185 482C164 482 126 461 52 408L24 388L31 368C68 391 103 414 110 414C121 414 128 404 128 389C128 338 87 145 46 2L49 -9L117 6L139 108C163 219 190 278 245 338C287 384 332 414 360 414C367 414 371 406 371 393C371 358 349 244 308 69L292 2L297 -9L366 6L387 113C403 194 437 269 481 318C536 379 586 414 618 414C626 414 631 405 631 389C631 365 628 351 606 264C566 105 550 84 550 31C550 6 561 -9 580 -9C606 -9 642 12 740 85Z" stroke="rgb(0,0,0)" stroke-opacity="1" stroke-width="8" fill="rgb(0,0,0)" fill-opacity="1"></path></g></g><g><g transform="matrix(1,0,0,1,18.605010986328125,141.1750030517578)"><path transform="matrix(0.017,0,0,-0.017,0,0)" d="M123 111C93 111 66 83 66 53C66 23 93 -5 122 -5C154 -5 182 22 182 53C182 83 154 111 123 111ZM123 456C93 456 66 428 66 398C66 368 93 340 122 340C154 340 182 367 182 397C182 428 154 456 123 456Z" stroke="rgb(0,0,0)" stroke-opacity="1" stroke-width="8" fill="rgb(0,0,0)" fill-opacity="1"></path></g></g><g><g transform="matrix(1,0,0,1,26.240020751953125,141.1750030517578)"><path transform="matrix(0.017,0,0,-0.017,0,0)" d="M730 103L704 86C675 67 653 56 643 56C636 56 630 65 630 76C630 86 632 95 637 116L712 413C716 430 719 446 719 454C719 471 709 482 693 482C664 482 626 464 565 421C502 376 467 341 418 272L448 409C452 429 455 444 455 451C455 470 445 482 429 482C399 482 353 460 298 418C254 384 234 363 169 275L202 408C206 424 208 439 208 451C208 470 199 482 185 482C164 482 126 461 52 408L24 388L31 368C68 391 103 414 110 414C121 414 128 404 128 389C128 338 87 145 46 2L49 -9L117 6L139 108C163 219 190 278 245 338C287 384 332 414 360 414C367 414 371 406 371 393C371 358 349 244 308 69L292 2L297 -9L366 6L387 113C403 194 437 269 481 318C536 379 586 414 618 414C626 414 631 405 631 389C631 365 628 351 606 264C566 105 550 84 550 31C550 6 561 -9 580 -9C606 -9 642 12 740 85ZM1048 204L1019 77C1015 60 1013 42 1013 26C1013 4 1022 -9 1037 -9C1060 -9 1101 17 1183 85L1176 106C1152 86 1123 59 1101 59C1092 59 1086 68 1086 82C1086 87 1086 90 1087 93L1179 472L1169 481L1136 463C1095 478 1078 482 1051 482C1023 482 1003 477 976 464C914 433 881 403 856 354C812 265 781 145 781 67C781 23 796 -11 815 -11C852 -11 932 41 1048 204ZM1096 414C1074 305 1055 253 1021 201C964 117 903 59 871 59C859 59 853 72 853 99C853 163 881 280 916 360C940 415 963 433 1011 433C1034 433 1052 429 1096 414ZM1251 148C1246 97 1240 62 1229 16C1267 -2 1301 -11 1336 -11C1385 -11 1431 7 1482 47C1533 87 1554 124 1554 174C1554 228 1522 257 1448 271L1405 279C1345 290 1326 307 1326 348C1326 401 1371 442 1428 442C1469 442 1507 424 1523 397L1523 342L1546 342C1550 377 1554 404 1565 455C1526 474 1498 482 1465 482C1413 482 1352 452 1304 404C1278 377 1267 352 1267 316C1267 260 1298 228 1364 215L1427 203C1471 195 1487 177 1487 138C1487 73 1441 29 1370 29C1335 29 1304 40 1276 64L1276 148ZM1879 204L1850 77C1846 60 1844 42 1844 26C1844 4 1853 -9 1868 -9C1891 -9 1932 17 2014 85L2007 106C1983 86 1954 59 1932 59C1923 59 1917 68 1917 82C1917 87 1917 90 1918 93L2010 472L2000 481L1967 463C1926 478 1909 482 1882 482C1854 482 1834 477 1807 464C1745 433 1712 403 1687 354C1643 265 1612 145 1612 67C1612 23 1627 -11 1646 -11C1683 -11 1763 41 1879 204ZM1927 414C1905 305 1886 253 1852 201C1795 117 1734 59 1702 59C1690 59 1684 72 1684 99C1684 163 1712 280 1747 360C1771 415 1794 433 1842 433C1865 433 1883 429 1927 414Z" stroke="rgb(0,0,0)" stroke-opacity="1" stroke-width="8" fill="rgb(0,0,0)" fill-opacity="1"></path></g></g><g><g transform="matrix(1,0,0,1,65.33001708984375,142.13499450683594)"><path transform="matrix(0.017,0,0,-0.017,0,0)" d="M146 266C146 526 243 632 301 700L282 726C225 675 60 542 60 266C60 159 85 58 133 -32C168 -99 200 -138 282 -215L301 -194C255 -137 146 -15 146 266Z" stroke="rgb(0,0,0)" stroke-opacity="1" stroke-width="8" fill="rgb(0,0,0)" fill-opacity="1"></path></g></g><g><g transform="matrix(1,0,0,1,70.98501586914062,141.1750030517578)"><path transform="matrix(0.017,0,0,-0.017,0,0)" d="M371 664L374 692L350 692L260 689C244 689 226 689 183 690L119 692L116 664L163 662C187 661 198 653 198 635C198 621 195 592 189 559L116 125C99 33 98 32 58 28L17 25L13 -3L55 -2C103 -1 126 0 145 0L242 -3L268 -3L271 25L222 28C195 30 186 37 186 57C186 63 187 74 188 78L231 340C381 169 404 140 509 -3L578 0C614 -1 620 -2 646 -3L646 27L626 27C603 27 583 39 562 65L316 367L608 640C624 655 645 665 662 665L683 665L683 692L660 691C639 690 623 689 615 689C605 689 589 690 568 691L548 692L548 663C548 655 538 642 510 614C466 569 297 403 233 353L278 613C285 651 292 658 329 661ZM941 482C874 482 721 419 721 259C721 182 766 136 843 136C851 136 862 136 873 137L832 99C816 84 805 66 805 52C805 42 812 31 826 19C757 -4 629 -48 629 -159C629 -230 699 -276 808 -276C937 -276 1050 -204 1050 -121C1050 -85 1029 -49 986 -14L926 35C892 62 879 81 879 100C879 114 894 128 906 146C1004 170 1075 253 1075 342C1075 357 1072 376 1071 380C1088 378 1096 378 1105 378C1122 378 1132 379 1155 382L1164 427L1161 433C1133 426 1113 424 1059 424C1059 425 1035 482 941 482ZM842 1L919 -58C965 -94 984 -121 984 -154C984 -206 915 -248 832 -248C750 -248 693 -206 693 -145C693 -43 803 -11 842 1ZM916 448C974 448 1003 412 1003 341C1003 238 955 168 885 168C824 168 792 209 792 288C792 383 843 448 916 448Z" stroke="rgb(0,0,0)" stroke-opacity="1" stroke-width="8" fill="rgb(0,0,0)" fill-opacity="1"></path></g></g><g><g transform="matrix(1,0,0,1,90.78500366210938,142.13499450683594)"><path transform="matrix(0.017,0,0,-0.017,0,0)" d="M51 726L32 700C87 636 187 526 187 266C187 -10 83 -131 32 -194L51 -215C104 -165 273 -23 273 265C273 542 108 675 51 726Z" stroke="rgb(0,0,0)" stroke-opacity="1" stroke-width="8" fill="rgb(0,0,0)" fill-opacity="1"></path></g></g></g></g></svg>