<svg xmlns="http://www.w3.org/2000/svg" xmlns:xlink="http://www.w3.org/1999/xlink" width="191.98001098632812" height="107.56000518798828" style="width:191.98001098632812px;height:107.56000518798828px;font-family:Asana-Math, Asana;background:#FFF;"><g><g><g><g transform="matrix(1,0,0,1,2,18.039993286132812)"><path transform="matrix(0.017,0,0,-0.017,0,0)" d="" stroke="rgb(0,0,0)" stroke-opacity="1" stroke-width="8" fill="rgb(0,0,0)" fill-opacity="1"></path></g></g><g><g transform="matrix(1,0,0,1,44.31500244140625,18.039993286132812)"><path transform="matrix(0.017,0,0,-0.017,0,0)" d="M662 6L655 -4C549 0 443 0 336 0C235 0 134 -1 33 -4L27 6C88 116 136 238 186 354C235 466 288 580 327 697L352 697C395 590 597 128 662 6ZM584 37C518 215 447 389 371 564L364 564C289 391 217 215 152 37Z" stroke="rgb(0,0,0)" stroke-opacity="1" stroke-width="8" fill="rgb(0,0,0)" fill-opacity="1"></path></g></g><g><g transform="matrix(1,0,0,1,56.0150146484375,18.039993286132812)"><path transform="matrix(0.017,0,0,-0.017,0,0)" d="M251 722L239 733C187 707 151 698 79 691L75 670L123 670C147 670 157 663 157 648C157 645 157 640 154 622C143 567 70 182 55 132C42 82 36 52 36 31C36 6 47 -9 66 -9C92 -9 128 12 226 85L216 103L190 86C161 67 139 56 129 56C122 56 116 66 116 76C116 82 117 89 120 104Z" stroke="rgb(0,0,0)" stroke-opacity="1" stroke-width="8" fill="rgb(0,0,0)" fill-opacity="1"></path></g></g><g><g transform="matrix(1,0,0,1,65.82501220703125,18.039993286132812)"><path transform="matrix(0.017,0,0,-0.017,0,0)" d="M604 347L604 406L65 406L65 347ZM604 134L604 193L65 193L65 134Z" stroke="rgb(0,0,0)" stroke-opacity="1" stroke-width="8" fill="rgb(0,0,0)" fill-opacity="1"></path></g></g><g><g transform="matrix(1,0,0,1,82.27999877929688,18.039993286132812)"><path transform="matrix(0.017,0,0,-0.017,0,0)" d="M251 722L239 733C187 707 151 698 79 691L75 670L123 670C147 670 157 663 157 648C157 645 157 640 154 622C143 567 70 182 55 132C42 82 36 52 36 31C36 6 47 -9 66 -9C92 -9 128 12 226 85L216 103L190 86C161 67 139 56 129 56C122 56 116 66 116 76C116 82 117 89 120 104Z" stroke="rgb(0,0,0)" stroke-opacity="1" stroke-width="8" fill="rgb(0,0,0)" fill-opacity="1"></path></g></g><g><g><g><g><g transform="matrix(1,0,0,1,87.5,21.999998474121092)"><path transform="matrix(0.0119,0,0,-0.0119,0,0)" d="M263 689C108 689 29 566 29 324C29 207 50 106 85 57C120 8 176 -20 238 -20C389 -20 465 110 465 366C465 585 400 689 263 689ZM245 654C342 654 381 556 381 316C381 103 343 15 251 15C154 15 113 116 113 360C113 571 150 654 245 654Z" stroke="rgb(0,0,0)" stroke-opacity="1" stroke-width="8" fill="rgb(0,0,0)" fill-opacity="1"></path></g></g></g></g></g><g><g transform="matrix(1,0,0,1,94.45999145507812,18.039993286132812)"><path transform="matrix(0.017,0,0,-0.017,0,0)" d="M400 -16C446 -16 513 54 545 84L545 97L532 97C513 79 489 55 462 55C417 55 424 184 424 216C474 278 520 343 558 413C551 428 544 444 536 459L525 459C511 391 456 315 420 257C422 336 445 472 332 473C164 473 27 243 24 93C23 33 43 -16 111 -16C203 -16 297 64 357 131C357 96 348 -15 400 -16ZM284 437C371 437 358 224 357 164C314 113 233 28 162 28C109 28 98 70 99 115C100 202 175 437 284 437Z" stroke="rgb(0,0,0)" stroke-opacity="1" stroke-width="8" fill="rgb(0,0,0)" fill-opacity="1"></path></g></g><g><g transform="matrix(1,0,0,1,104.55499267578125,18.039993286132812)"><path transform="matrix(0.017,0,0,-0.017,0,0)" d="M662 6L655 -4C549 0 443 0 336 0C235 0 134 -1 33 -4L27 6C88 116 136 238 186 354C235 466 288 580 327 697L352 697C395 590 597 128 662 6ZM584 37C518 215 447 389 371 564L364 564C289 391 217 215 152 37Z" stroke="rgb(0,0,0)" stroke-opacity="1" stroke-width="8" fill="rgb(0,0,0)" fill-opacity="1"></path></g></g><g><g transform="matrix(1,0,0,1,116.2550048828125,18.039993286132812)"><path transform="matrix(0.017,0,0,-0.017,0,0)" d="M390 646L463 646C541 646 577 641 580 629C583 621 585 602 584 592L580 528L608 528L635 692L544 691C456 690 388 689 353 689C316 689 252 690 166 691L71 692L53 528L82 528L97 588C102 610 109 626 115 633C121 640 159 646 196 646L308 646L222 125C206 34 204 31 164 28L113 25L109 -3L166 -2C206 -1 235 0 251 0C270 0 301 -1 340 -2L384 -3L387 25L328 28C302 29 292 37 292 58C292 67 293 74 296 93Z" stroke="rgb(0,0,0)" stroke-opacity="1" stroke-width="8" fill="rgb(0,0,0)" fill-opacity="1"></path></g></g></g><g></g><g><g><g transform="matrix(1,0,0,1,2,59.74000549316406)"><path transform="matrix(0.017,0,0,-0.017,0,0)" d="M251 722L239 733C187 707 151 698 79 691L75 670L123 670C147 670 157 663 157 648C157 645 157 640 154 622C143 567 70 182 55 132C42 82 36 52 36 31C36 6 47 -9 66 -9C92 -9 128 12 226 85L216 103L190 86C161 67 139 56 129 56C122 56 116 66 116 76C116 82 117 89 120 104Z" stroke="rgb(0,0,0)" stroke-opacity="1" stroke-width="8" fill="rgb(0,0,0)" fill-opacity="1"></path></g></g><g><g><g><g><g transform="matrix(1,0,0,1,7.220001220703125,63.70000305175781)"><path transform="matrix(0.0119,0,0,-0.0119,0,0)" d="M263 689C108 689 29 566 29 324C29 207 50 106 85 57C120 8 176 -20 238 -20C389 -20 465 110 465 366C465 585 400 689 263 689ZM245 654C342 654 381 556 381 316C381 103 343 15 251 15C154 15 113 116 113 360C113 571 150 654 245 654Z" stroke="rgb(0,0,0)" stroke-opacity="1" stroke-width="8" fill="rgb(0,0,0)" fill-opacity="1"></path></g></g></g></g></g><g><g transform="matrix(1,0,0,1,17.57000732421875,59.74000549316406)"><path transform="matrix(0.017,0,0,-0.017,0,0)" d="M123 111C93 111 66 83 66 53C66 23 93 -5 122 -5C154 -5 182 22 182 53C182 83 154 111 123 111ZM123 456C93 456 66 428 66 398C66 368 93 340 122 340C154 340 182 367 182 397C182 428 154 456 123 456Z" stroke="rgb(0,0,0)" stroke-opacity="1" stroke-width="8" fill="rgb(0,0,0)" fill-opacity="1"></path></g></g><g><g transform="matrix(1,0,0,1,25.205001831054688,59.74000549316406)"><path transform="matrix(0.017,0,0,-0.017,0,0)" d="M500 722L488 733C436 707 400 698 328 691L324 670L372 670C396 670 406 663 406 648C406 645 406 640 403 622C392 567 319 182 304 132C291 82 285 52 285 31C285 6 296 -9 315 -9C341 -9 377 12 475 85L465 103L439 86C410 67 388 56 378 56C371 56 365 66 365 76C365 82 366 89 369 104ZM543 152C543 46 588 -11 671 -11C726 -11 786 15 831 57C893 116 937 230 937 331C937 425 887 482 804 482C700 482 543 382 543 152ZM767 444C828 444 861 399 861 315C861 219 830 113 786 60C768 39 742 27 711 27C653 27 619 72 619 151C619 264 658 387 707 427C720 438 743 444 767 444ZM993 388L1000 368L1032 389C1069 412 1072 414 1079 414C1090 414 1097 404 1097 389C1097 338 1056 145 1015 2L1022 -9C1047 -2 1070 4 1092 8C1111 134 1132 199 1178 268C1232 352 1307 414 1352 414C1363 414 1369 405 1369 390C1369 372 1366 351 1358 319L1306 107C1297 70 1293 47 1293 31C1293 6 1304 -9 1323 -9C1349 -9 1385 12 1483 85L1473 103L1447 86C1418 67 1396 56 1386 56C1379 56 1373 65 1373 76C1373 81 1374 92 1375 96L1441 372C1448 401 1452 429 1452 446C1452 469 1441 482 1421 482C1379 482 1310 444 1251 389C1213 354 1185 320 1133 247L1171 408C1175 426 1177 438 1177 449C1177 470 1169 482 1154 482C1133 482 1094 460 1021 408ZM1799 482C1732 482 1579 419 1579 259C1579 182 1624 136 1701 136C1709 136 1720 136 1731 137L1690 99C1674 84 1663 66 1663 52C1663 42 1670 31 1684 19C1615 -4 1487 -48 1487 -159C1487 -230 1557 -276 1666 -276C1795 -276 1908 -204 1908 -121C1908 -85 1887 -49 1844 -14L1784 35C1750 62 1737 81 1737 100C1737 114 1752 128 1764 146C1862 170 1933 253 1933 342C1933 357 1930 376 1929 380C1946 378 1954 378 1963 378C1980 378 1990 379 2013 382L2022 427L2019 433C1991 426 1971 424 1917 424C1917 425 1893 482 1799 482ZM1700 1L1777 -58C1823 -94 1842 -121 1842 -154C1842 -206 1773 -248 1690 -248C1608 -248 1551 -206 1551 -145C1551 -43 1661 -11 1700 1ZM1774 448C1832 448 1861 412 1861 341C1861 238 1813 168 1743 168C1682 168 1650 209 1650 288C1650 383 1701 448 1774 448Z" stroke="rgb(0,0,0)" stroke-opacity="1" stroke-width="8" fill="rgb(0,0,0)" fill-opacity="1"></path></g></g><g><g transform="matrix(1,0,0,1,59.584991455078125,59.74000549316406)"><path transform="matrix(0.017,0,0,-0.017,0,0)" d="M124 111C94 111 67 83 67 53C67 23 94 -5 123 -5C155 -5 183 22 183 53C183 83 155 111 124 111Z" stroke="rgb(0,0,0)" stroke-opacity="1" stroke-width="8" fill="rgb(0,0,0)" fill-opacity="1"></path></g></g><g><g transform="matrix(1,0,0,1,67.22000122070312,59.74000549316406)"><path transform="matrix(0.017,0,0,-0.017,0,0)" d="M34 388L41 368L73 389C110 412 113 414 120 414C130 414 138 404 138 391C138 384 134 361 130 347L64 107C56 76 51 49 51 30C51 6 62 -9 81 -9C107 -9 143 12 241 85L231 103L205 86C176 67 153 56 144 56C137 56 131 66 131 76C131 86 133 95 138 116L215 420C219 437 221 448 221 456C221 473 212 482 196 482C174 482 137 461 62 408ZM228 712C199 712 170 679 170 645C170 620 185 604 209 604C240 604 264 633 264 671C264 695 249 712 228 712ZM301 388L308 368L340 389C377 412 380 414 387 414C398 414 405 404 405 389C405 338 364 145 323 2L330 -9C355 -2 378 4 400 8C419 134 440 199 486 268C540 352 615 414 660 414C671 414 677 405 677 390C677 372 674 351 666 319L614 107C605 70 601 47 601 31C601 6 612 -9 631 -9C657 -9 693 12 791 85L781 103L755 86C726 67 704 56 694 56C687 56 681 65 681 76C681 81 682 92 683 96L749 372C756 401 760 429 760 446C760 469 749 482 729 482C687 482 618 444 559 389C521 354 493 320 441 247L479 408C483 426 485 438 485 449C485 470 477 482 462 482C441 482 402 460 329 408ZM866 388L873 368L905 389C942 412 945 414 952 414C962 414 970 404 970 391C970 384 966 361 962 347L896 107C888 76 883 49 883 30C883 6 894 -9 913 -9C939 -9 975 12 1073 85L1063 103L1037 86C1008 67 985 56 976 56C969 56 963 66 963 76C963 86 965 95 970 116L1047 420C1051 437 1053 448 1053 456C1053 473 1044 482 1028 482C1006 482 969 461 894 408ZM1060 712C1031 712 1002 679 1002 645C1002 620 1017 604 1041 604C1072 604 1096 633 1096 671C1096 695 1081 712 1060 712ZM1451 330L1474 330C1482 395 1489 432 1498 458C1474 473 1439 482 1402 482C1357 483 1284 463 1227 400C1173 352 1134 241 1134 136C1134 40 1176 -11 1256 -11C1310 -11 1358 9 1413 54L1463 95L1455 115L1440 105C1368 57 1330 40 1295 40C1239 40 1210 80 1210 159C1210 267 1245 371 1294 409C1315 425 1339 433 1370 433C1415 433 1451 414 1451 390ZM1549 388L1556 368L1588 389C1625 412 1628 414 1635 414C1645 414 1653 404 1653 391C1653 384 1649 361 1645 347L1579 107C1571 76 1566 49 1566 30C1566 6 1577 -9 1596 -9C1622 -9 1658 12 1756 85L1746 103L1720 86C1691 67 1668 56 1659 56C1652 56 1646 66 1646 76C1646 86 1648 95 1653 116L1730 420C1734 437 1736 448 1736 456C1736 473 1727 482 1711 482C1689 482 1652 461 1577 408ZM1743 712C1714 712 1685 679 1685 645C1685 620 1700 604 1724 604C1755 604 1779 633 1779 671C1779 695 1764 712 1743 712ZM2063 204L2034 77C2030 60 2028 42 2028 26C2028 4 2037 -9 2052 -9C2075 -9 2116 17 2198 85L2191 106C2167 86 2138 59 2116 59C2107 59 2101 68 2101 82C2101 87 2101 90 2102 93L2194 472L2184 481L2151 463C2110 478 2093 482 2066 482C2038 482 2018 477 1991 464C1929 433 1896 403 1871 354C1827 265 1796 145 1796 67C1796 23 1811 -11 1830 -11C1867 -11 1947 41 2063 204ZM2111 414C2089 305 2070 253 2036 201C1979 117 1918 59 1886 59C1874 59 1868 72 1868 99C1868 163 1896 280 1931 360C1955 415 1978 433 2026 433C2049 433 2067 429 2111 414ZM2486 722L2474 733C2422 707 2386 698 2314 691L2310 670L2358 670C2382 670 2392 663 2392 648C2392 645 2392 640 2389 622C2378 567 2305 182 2290 132C2277 82 2271 52 2271 31C2271 6 2282 -9 2301 -9C2327 -9 2363 12 2461 85L2451 103L2425 86C2396 67 2374 56 2364 56C2357 56 2351 66 2351 76C2351 82 2352 89 2355 104Z" stroke="rgb(0,0,0)" stroke-opacity="1" stroke-width="8" fill="rgb(0,0,0)" fill-opacity="1"></path></g></g></g><g><g><g transform="matrix(1,0,0,1,2,81.27999877929688)"><path transform="matrix(0.017,0,0,-0.017,0,0)" d="M400 -16C446 -16 513 54 545 84L545 97L532 97C513 79 489 55 462 55C417 55 424 184 424 216C474 278 520 343 558 413C551 428 544 444 536 459L525 459C511 391 456 315 420 257C422 336 445 472 332 473C164 473 27 243 24 93C23 33 43 -16 111 -16C203 -16 297 64 357 131C357 96 348 -15 400 -16ZM284 437C371 437 358 224 357 164C314 113 233 28 162 28C109 28 98 70 99 115C100 202 175 437 284 437Z" stroke="rgb(0,0,0)" stroke-opacity="1" stroke-width="8" fill="rgb(0,0,0)" fill-opacity="1"></path></g></g><g><g transform="matrix(1,0,0,1,15.485000610351562,81.27999877929688)"><path transform="matrix(0.017,0,0,-0.017,0,0)" d="M123 111C93 111 66 83 66 53C66 23 93 -5 122 -5C154 -5 182 22 182 53C182 83 154 111 123 111ZM123 456C93 456 66 428 66 398C66 368 93 340 122 340C154 340 182 367 182 397C182 428 154 456 123 456Z" stroke="rgb(0,0,0)" stroke-opacity="1" stroke-width="8" fill="rgb(0,0,0)" fill-opacity="1"></path></g></g><g><g transform="matrix(1,0,0,1,23.1199951171875,81.27999877929688)"><path transform="matrix(0.017,0,0,-0.017,0,0)" d="M342 330L365 330C373 395 380 432 389 458C365 473 330 482 293 482C248 483 175 463 118 400C64 352 25 241 25 136C25 40 67 -11 147 -11C201 -11 249 9 304 54L354 95L346 115L331 105C259 57 221 40 186 40C130 40 101 80 101 159C101 267 136 371 185 409C206 425 230 433 261 433C306 433 342 414 342 390ZM423 152C423 46 468 -11 551 -11C606 -11 666 15 711 57C773 116 817 230 817 331C817 425 767 482 684 482C580 482 423 382 423 152ZM647 444C708 444 741 399 741 315C741 219 710 113 666 60C648 39 622 27 591 27C533 27 499 72 499 151C499 264 538 387 587 427C600 438 623 444 647 444ZM1177 111L1153 94C1100 56 1052 36 1016 36C969 36 940 73 940 133C940 158 943 185 948 214C965 218 1074 248 1099 259C1184 296 1223 342 1223 404C1223 451 1189 482 1139 482C1071 496 961 423 924 349C894 299 864 180 864 113C864 35 908 -11 980 -11C1037 -11 1093 17 1185 92ZM962 274C979 343 999 386 1028 412C1046 428 1077 440 1101 440C1130 440 1149 420 1149 388C1149 344 1114 297 1062 272C1034 258 998 247 953 237ZM1582 437L1566 437L1587 549C1603 635 1631 673 1677 673C1707 673 1734 658 1749 634L1759 638C1764 654 1774 685 1782 705L1787 720C1771 727 1740 733 1717 733C1706 733 1690 730 1682 726C1658 715 1576 654 1553 630C1531 608 1519 578 1508 521L1493 442C1452 422 1432 414 1407 405L1402 383L1483 383L1474 327C1444 132 1407 -54 1385 -123C1367 -182 1337 -213 1301 -213C1278 -213 1267 -206 1249 -184L1235 -188C1231 -211 1217 -259 1212 -268C1221 -273 1236 -276 1247 -276C1288 -276 1342 -245 1381 -198C1452 -114 1472 -18 1556 383L1660 383C1664 402 1671 425 1677 439L1673 446C1644 439 1645 437 1582 437Z" stroke="rgb(0,0,0)" stroke-opacity="1" stroke-width="8" fill="rgb(0,0,0)" fill-opacity="1"></path></g></g><g><g transform="matrix(1,0,0,1,53.4949951171875,81.27999877929688)"><path transform="matrix(0.017,0,0,-0.017,0,0)" d="M124 111C94 111 67 83 67 53C67 23 94 -5 123 -5C155 -5 183 22 183 53C183 83 155 111 124 111Z" stroke="rgb(0,0,0)" stroke-opacity="1" stroke-width="8" fill="rgb(0,0,0)" fill-opacity="1"></path></g></g><g><g transform="matrix(1,0,0,1,61.1300048828125,81.27999877929688)"><path transform="matrix(0.017,0,0,-0.017,0,0)" d="M483 722L471 733C419 707 383 698 311 691L307 670L355 670C379 670 389 663 389 646C389 638 388 629 387 622L359 468C329 477 302 482 277 482C208 482 114 410 68 323C37 265 17 170 17 86C17 21 32 -11 61 -11C88 -11 125 6 159 33C213 77 246 116 313 217L290 126C279 82 274 50 274 24C274 3 283 -9 300 -9C317 -9 341 3 375 28L456 88L446 107L402 76C388 66 372 59 363 59C355 59 349 68 349 82C349 90 350 99 357 128ZM114 59C98 59 89 73 89 98C89 224 135 380 184 418C197 428 216 433 243 433C287 433 316 427 349 410L337 351C300 171 159 59 114 59ZM533 388L540 368L572 389C609 412 612 414 619 414C629 414 637 404 637 391C637 384 633 361 629 347L563 107C555 76 550 49 550 30C550 6 561 -9 580 -9C606 -9 642 12 740 85L730 103L704 86C675 67 652 56 643 56C636 56 630 66 630 76C630 86 632 95 637 116L714 420C718 437 720 448 720 456C720 473 711 482 695 482C673 482 636 461 561 408ZM727 712C698 712 669 679 669 645C669 620 684 604 708 604C739 604 763 633 763 671C763 695 748 712 727 712ZM1027 722L1015 733C963 707 927 698 855 691L851 670L899 670C923 670 933 663 933 648C933 645 933 640 930 622C919 567 846 182 831 132C818 82 812 52 812 31C812 6 823 -9 842 -9C868 -9 904 12 1002 85L992 103L966 86C937 67 915 56 905 56C898 56 892 66 892 76C892 82 893 89 896 104ZM1324 204L1295 77C1291 60 1289 42 1289 26C1289 4 1298 -9 1313 -9C1336 -9 1377 17 1459 85L1452 106C1428 86 1399 59 1377 59C1368 59 1362 68 1362 82C1362 87 1362 90 1363 93L1455 472L1445 481L1412 463C1371 478 1354 482 1327 482C1299 482 1279 477 1252 464C1190 433 1157 403 1132 354C1088 265 1057 145 1057 67C1057 23 1072 -11 1091 -11C1128 -11 1208 41 1324 204ZM1372 414C1350 305 1331 253 1297 201C1240 117 1179 59 1147 59C1135 59 1129 72 1129 99C1129 163 1157 280 1192 360C1216 415 1239 433 1287 433C1310 433 1328 429 1372 414ZM1621 390L1565 107C1564 99 1552 61 1552 31C1552 6 1563 -9 1582 -9C1617 -9 1652 11 1730 74L1761 99L1751 117L1706 86C1677 66 1657 56 1646 56C1637 56 1632 64 1632 76C1632 102 1646 183 1675 328L1688 390L1795 390L1806 440C1768 436 1734 434 1696 434C1712 528 1723 577 1741 631L1730 646C1710 634 1683 622 1652 610L1627 440C1583 419 1557 408 1539 403L1537 390ZM2099 204L2070 77C2066 60 2064 42 2064 26C2064 4 2073 -9 2088 -9C2111 -9 2152 17 2234 85L2227 106C2203 86 2174 59 2152 59C2143 59 2137 68 2137 82C2137 87 2137 90 2138 93L2230 472L2220 481L2187 463C2146 478 2129 482 2102 482C2074 482 2054 477 2027 464C1965 433 1932 403 1907 354C1863 265 1832 145 1832 67C1832 23 1847 -11 1866 -11C1903 -11 1983 41 2099 204ZM2147 414C2125 305 2106 253 2072 201C2015 117 1954 59 1922 59C1910 59 1904 72 1904 99C1904 163 1932 280 1967 360C1991 415 2014 433 2062 433C2085 433 2103 429 2147 414ZM2613 330L2636 330C2644 395 2651 432 2660 458C2636 473 2601 482 2564 482C2519 483 2446 463 2389 400C2335 352 2296 241 2296 136C2296 40 2338 -11 2418 -11C2472 -11 2520 9 2575 54L2625 95L2617 115L2602 105C2530 57 2492 40 2457 40C2401 40 2372 80 2372 159C2372 267 2407 371 2456 409C2477 425 2501 433 2532 433C2577 433 2613 414 2613 390ZM2711 388L2718 368L2750 389C2787 412 2790 414 2797 414C2807 414 2815 404 2815 391C2815 384 2811 361 2807 347L2741 107C2733 76 2728 49 2728 30C2728 6 2739 -9 2758 -9C2784 -9 2820 12 2918 85L2908 103L2882 86C2853 67 2830 56 2821 56C2814 56 2808 66 2808 76C2808 86 2810 95 2815 116L2892 420C2896 437 2898 448 2898 456C2898 473 2889 482 2873 482C2851 482 2814 461 2739 408ZM2905 712C2876 712 2847 679 2847 645C2847 620 2862 604 2886 604C2917 604 2941 633 2941 671C2941 695 2926 712 2905 712ZM2971 152C2971 46 3016 -11 3099 -11C3154 -11 3214 15 3259 57C3321 116 3365 230 3365 331C3365 425 3315 482 3232 482C3128 482 2971 382 2971 152ZM3195 444C3256 444 3289 399 3289 315C3289 219 3258 113 3214 60C3196 39 3170 27 3139 27C3081 27 3047 72 3047 151C3047 264 3086 387 3135 427C3148 438 3171 444 3195 444ZM3421 388L3428 368L3460 389C3497 412 3500 414 3507 414C3518 414 3525 404 3525 389C3525 338 3484 145 3443 2L3450 -9C3475 -2 3498 4 3520 8C3539 134 3560 199 3606 268C3660 352 3735 414 3780 414C3791 414 3797 405 3797 390C3797 372 3794 351 3786 319L3734 107C3725 70 3721 47 3721 31C3721 6 3732 -9 3751 -9C3777 -9 3813 12 3911 85L3901 103L3875 86C3846 67 3824 56 3814 56C3807 56 3801 65 3801 76C3801 81 3802 92 3803 96L3869 372C3876 401 3880 429 3880 446C3880 469 3869 482 3849 482C3807 482 3738 444 3679 389C3641 354 3613 320 3561 247L3599 408C3603 426 3605 438 3605 449C3605 470 3597 482 3582 482C3561 482 3522 460 3449 408ZM4452 722L4440 733C4388 707 4352 698 4280 691L4276 670L4324 670C4348 670 4358 663 4358 648C4358 645 4358 640 4355 622C4344 567 4271 182 4256 132C4243 82 4237 52 4237 31C4237 6 4248 -9 4267 -9C4293 -9 4329 12 4427 85L4417 103L4391 86C4362 67 4340 56 4330 56C4323 56 4317 66 4317 76C4317 82 4318 89 4321 104ZM4512 388L4519 368L4551 389C4588 412 4591 414 4598 414C4608 414 4616 404 4616 391C4616 384 4612 361 4608 347L4542 107C4534 76 4529 49 4529 30C4529 6 4540 -9 4559 -9C4585 -9 4621 12 4719 85L4709 103L4683 86C4654 67 4631 56 4622 56C4615 56 4609 66 4609 76C4609 86 4611 95 4616 116L4693 420C4697 437 4699 448 4699 456C4699 473 4690 482 4674 482C4652 482 4615 461 4540 408ZM4706 712C4677 712 4648 679 4648 645C4648 620 4663 604 4687 604C4718 604 4742 633 4742 671C4742 695 4727 712 4706 712ZM4779 388L4786 368L4818 389C4855 412 4858 414 4865 414C4876 414 4883 404 4883 389C4883 338 4842 145 4801 2L4808 -9C4833 -2 4856 4 4878 8C4897 134 4918 199 4964 268C5018 352 5093 414 5138 414C5149 414 5155 405 5155 390C5155 372 5152 351 5144 319L5092 107C5083 70 5079 47 5079 31C5079 6 5090 -9 5109 -9C5135 -9 5171 12 5269 85L5259 103L5233 86C5204 67 5182 56 5172 56C5165 56 5159 65 5159 76C5159 81 5160 92 5161 96L5227 372C5234 401 5238 429 5238 446C5238 469 5227 482 5207 482C5165 482 5096 444 5037 389C4999 354 4971 320 4919 247L4957 408C4961 426 4963 438 4963 449C4963 470 4955 482 4940 482C4919 482 4880 460 4807 408ZM5638 111L5614 94C5561 56 5513 36 5477 36C5430 36 5401 73 5401 133C5401 158 5404 185 5409 214C5426 218 5535 248 5560 259C5645 296 5684 342 5684 404C5684 451 5650 482 5600 482C5532 496 5422 423 5385 349C5355 299 5325 180 5325 113C5325 35 5369 -11 5441 -11C5498 -11 5554 17 5646 92ZM5423 274C5440 343 5460 386 5489 412C5507 428 5538 440 5562 440C5591 440 5610 420 5610 388C5610 344 5575 297 5523 272C5495 258 5459 247 5414 237ZM5969 204L5940 77C5936 60 5934 42 5934 26C5934 4 5943 -9 5958 -9C5981 -9 6022 17 6104 85L6097 106C6073 86 6044 59 6022 59C6013 59 6007 68 6007 82C6007 87 6007 90 6008 93L6100 472L6090 481L6057 463C6016 478 5999 482 5972 482C5944 482 5924 477 5897 464C5835 433 5802 403 5777 354C5733 265 5702 145 5702 67C5702 23 5717 -11 5736 -11C5773 -11 5853 41 5969 204ZM6017 414C5995 305 5976 253 5942 201C5885 117 5824 59 5792 59C5780 59 5774 72 5774 99C5774 163 5802 280 5837 360C5861 415 5884 433 5932 433C5955 433 5973 429 6017 414ZM6392 722L6380 733C6328 707 6292 698 6220 691L6216 670L6264 670C6288 670 6298 663 6298 648C6298 645 6298 640 6295 622C6284 567 6211 182 6196 132C6183 82 6177 52 6177 31C6177 6 6188 -9 6207 -9C6233 -9 6269 12 6367 85L6357 103L6331 86C6302 67 6280 56 6270 56C6263 56 6257 66 6257 76C6257 82 6258 89 6261 104Z" stroke="rgb(0,0,0)" stroke-opacity="1" stroke-width="8" fill="rgb(0,0,0)" fill-opacity="1"></path></g></g></g><g><g><g transform="matrix(1,0,0,1,2,101.44000244140625)"><path transform="matrix(0.017,0,0,-0.017,0,0)" d="M662 6L655 -4C549 0 443 0 336 0C235 0 134 -1 33 -4L27 6C88 116 136 238 186 354C235 466 288 580 327 697L352 697C395 590 597 128 662 6ZM584 37C518 215 447 389 371 564L364 564C289 391 217 215 152 37Z" stroke="rgb(0,0,0)" stroke-opacity="1" stroke-width="8" fill="rgb(0,0,0)" fill-opacity="1"></path></g></g><g><g transform="matrix(1,0,0,1,13.699996948242188,101.44000244140625)"><path transform="matrix(0.017,0,0,-0.017,0,0)" d="M390 646L463 646C541 646 577 641 580 629C583 621 585 602 584 592L580 528L608 528L635 692L544 691C456 690 388 689 353 689C316 689 252 690 166 691L71 692L53 528L82 528L97 588C102 610 109 626 115 633C121 640 159 646 196 646L308 646L222 125C206 34 204 31 164 28L113 25L109 -3L166 -2C206 -1 235 0 251 0C270 0 301 -1 340 -2L384 -3L387 25L328 28C302 29 292 37 292 58C292 67 293 74 296 93Z" stroke="rgb(0,0,0)" stroke-opacity="1" stroke-width="8" fill="rgb(0,0,0)" fill-opacity="1"></path></g></g><g><g transform="matrix(1,0,0,1,27.470001220703125,101.44000244140625)"><path transform="matrix(0.017,0,0,-0.017,0,0)" d="M123 111C93 111 66 83 66 53C66 23 93 -5 122 -5C154 -5 182 22 182 53C182 83 154 111 123 111ZM123 456C93 456 66 428 66 398C66 368 93 340 122 340C154 340 182 367 182 397C182 428 154 456 123 456Z" stroke="rgb(0,0,0)" stroke-opacity="1" stroke-width="8" fill="rgb(0,0,0)" fill-opacity="1"></path></g></g><g><g transform="matrix(1,0,0,1,35.105010986328125,101.44000244140625)"><path transform="matrix(0.017,0,0,-0.017,0,0)" d="M166 420C187 420 203 421 229 424C118 304 76 221 76 121C76 44 122 -11 186 -11C324 -11 477 236 477 384C477 441 451 482 415 482C402 482 390 478 382 470L332 423L343 404C352 410 361 413 370 413C397 413 413 390 413 350C413 202 316 39 228 39C179 39 148 81 148 146C148 251 187 342 285 464L275 482C255 473 242 470 214 470C186 470 144 472 115 475L103 476C97 477 92 477 91 477C79 477 70 475 59 470C45 443 34 407 21 352L43 352L60 394C67 411 87 422 111 422C144 422 128 420 166 420ZM770 204L741 77C737 60 735 42 735 26C735 4 744 -9 759 -9C782 -9 823 17 905 85L898 106C874 86 845 59 823 59C814 59 808 68 808 82C808 87 808 90 809 93L901 472L891 481L858 463C817 478 800 482 773 482C745 482 725 477 698 464C636 433 603 403 578 354C534 265 503 145 503 67C503 23 518 -11 537 -11C574 -11 654 41 770 204ZM818 414C796 305 777 253 743 201C686 117 625 59 593 59C581 59 575 72 575 99C575 163 603 280 638 360C662 415 685 433 733 433C756 433 774 429 818 414ZM1310 365C1313 403 1318 435 1326 476C1315 481 1311 482 1306 482C1275 482 1244 458 1208 407C1169 351 1130 291 1114 256L1146 408C1150 425 1152 438 1152 450C1152 470 1144 482 1129 482C1108 482 1070 461 996 408L968 388L975 368L1007 389C1035 407 1046 412 1055 412C1065 412 1072 403 1072 390C1072 332 1029 126 989 -2L999 -9C1014 -4 1030 -1 1053 4L1066 6L1092 126C1110 209 1133 262 1177 319C1211 363 1238 384 1260 384C1275 384 1285 379 1296 365ZM1364 388L1371 368L1403 389C1440 412 1443 414 1450 414C1460 414 1468 404 1468 391C1468 384 1464 361 1460 347L1394 107C1386 76 1381 49 1381 30C1381 6 1392 -9 1411 -9C1437 -9 1473 12 1571 85L1561 103L1535 86C1506 67 1483 56 1474 56C1467 56 1461 66 1461 76C1461 86 1463 95 1468 116L1545 420C1549 437 1551 448 1551 456C1551 473 1542 482 1526 482C1504 482 1467 461 1392 408ZM1558 712C1529 712 1500 679 1500 645C1500 620 1515 604 1539 604C1570 604 1594 633 1594 671C1594 695 1579 712 1558 712ZM1878 204L1849 77C1845 60 1843 42 1843 26C1843 4 1852 -9 1867 -9C1890 -9 1931 17 2013 85L2006 106C1982 86 1953 59 1931 59C1922 59 1916 68 1916 82C1916 87 1916 90 1917 93L2009 472L1999 481L1966 463C1925 478 1908 482 1881 482C1853 482 1833 477 1806 464C1744 433 1711 403 1686 354C1642 265 1611 145 1611 67C1611 23 1626 -11 1645 -11C1682 -11 1762 41 1878 204ZM1926 414C1904 305 1885 253 1851 201C1794 117 1733 59 1701 59C1689 59 1683 72 1683 99C1683 163 1711 280 1746 360C1770 415 1793 433 1841 433C1864 433 1882 429 1926 414ZM2392 330L2415 330C2423 395 2430 432 2439 458C2415 473 2380 482 2343 482C2298 483 2225 463 2168 400C2114 352 2075 241 2075 136C2075 40 2117 -11 2197 -11C2251 -11 2299 9 2354 54L2404 95L2396 115L2381 105C2309 57 2271 40 2236 40C2180 40 2151 80 2151 159C2151 267 2186 371 2235 409C2256 425 2280 433 2311 433C2356 433 2392 414 2392 390ZM2490 388L2497 368L2529 389C2566 412 2569 414 2576 414C2586 414 2594 404 2594 391C2594 384 2590 361 2586 347L2520 107C2512 76 2507 49 2507 30C2507 6 2518 -9 2537 -9C2563 -9 2599 12 2697 85L2687 103L2661 86C2632 67 2609 56 2600 56C2593 56 2587 66 2587 76C2587 86 2589 95 2594 116L2671 420C2675 437 2677 448 2677 456C2677 473 2668 482 2652 482C2630 482 2593 461 2518 408ZM2684 712C2655 712 2626 679 2626 645C2626 620 2641 604 2665 604C2696 604 2720 633 2720 671C2720 695 2705 712 2684 712ZM2750 152C2750 46 2795 -11 2878 -11C2933 -11 2993 15 3038 57C3100 116 3144 230 3144 331C3144 425 3094 482 3011 482C2907 482 2750 382 2750 152ZM2974 444C3035 444 3068 399 3068 315C3068 219 3037 113 2993 60C2975 39 2949 27 2918 27C2860 27 2826 72 2826 151C2826 264 2865 387 2914 427C2927 438 2950 444 2974 444ZM3200 388L3207 368L3239 389C3276 412 3279 414 3286 414C3297 414 3304 404 3304 389C3304 338 3263 145 3222 2L3229 -9C3254 -2 3277 4 3299 8C3318 134 3339 199 3385 268C3439 352 3514 414 3559 414C3570 414 3576 405 3576 390C3576 372 3573 351 3565 319L3513 107C3504 70 3500 47 3500 31C3500 6 3511 -9 3530 -9C3556 -9 3592 12 3690 85L3680 103L3654 86C3625 67 3603 56 3593 56C3586 56 3580 65 3580 76C3580 81 3581 92 3582 96L3648 372C3655 401 3659 429 3659 446C3659 469 3648 482 3628 482C3586 482 3517 444 3458 389C3420 354 3392 320 3340 247L3378 408C3382 426 3384 438 3384 449C3384 470 3376 482 3361 482C3340 482 3301 460 3228 408ZM4463 722L4451 733C4399 707 4363 698 4291 691L4287 670L4335 670C4359 670 4369 663 4369 646C4369 638 4368 629 4367 622L4339 468C4309 477 4282 482 4257 482C4188 482 4094 410 4048 323C4017 265 3997 170 3997 86C3997 21 4012 -11 4041 -11C4068 -11 4105 6 4139 33C4193 77 4226 116 4293 217L4270 126C4259 82 4254 50 4254 24C4254 3 4263 -9 4280 -9C4297 -9 4321 3 4355 28L4436 88L4426 107L4382 76C4368 66 4352 59 4343 59C4335 59 4329 68 4329 82C4329 90 4330 99 4337 128ZM4094 59C4078 59 4069 73 4069 98C4069 224 4115 380 4164 418C4177 428 4196 433 4223 433C4267 433 4296 427 4329 410L4317 351C4280 171 4139 59 4094 59ZM4807 111L4783 94C4730 56 4682 36 4646 36C4599 36 4570 73 4570 133C4570 158 4573 185 4578 214C4595 218 4704 248 4729 259C4814 296 4853 342 4853 404C4853 451 4819 482 4769 482C4701 496 4591 423 4554 349C4524 299 4494 180 4494 113C4494 35 4538 -11 4610 -11C4667 -11 4723 17 4815 92ZM4592 274C4609 343 4629 386 4658 412C4676 428 4707 440 4731 440C4760 440 4779 420 4779 388C4779 344 4744 297 4692 272C4664 258 4628 247 4583 237ZM5241 390L5185 107C5184 99 5172 61 5172 31C5172 6 5183 -9 5202 -9C5237 -9 5272 11 5350 74L5381 99L5371 117L5326 86C5297 66 5277 56 5266 56C5257 56 5252 64 5252 76C5252 102 5266 183 5295 328L5308 390L5415 390L5426 440C5388 436 5354 434 5316 434C5332 528 5343 577 5361 631L5350 646C5330 634 5303 622 5272 610L5247 440C5203 419 5177 408 5159 403L5157 390ZM5776 111L5752 94C5699 56 5651 36 5615 36C5568 36 5539 73 5539 133C5539 158 5542 185 5547 214C5564 218 5673 248 5698 259C5783 296 5822 342 5822 404C5822 451 5788 482 5738 482C5670 496 5560 423 5523 349C5493 299 5463 180 5463 113C5463 35 5507 -11 5579 -11C5636 -11 5692 17 5784 92ZM5561 274C5578 343 5598 386 5627 412C5645 428 5676 440 5700 440C5729 440 5748 420 5748 388C5748 344 5713 297 5661 272C5633 258 5597 247 5552 237ZM6566 103L6540 86C6511 67 6489 56 6479 56C6472 56 6466 65 6466 76C6466 86 6468 95 6473 116L6548 413C6552 430 6555 446 6555 454C6555 471 6545 482 6529 482C6500 482 6462 464 6401 421C6338 376 6303 341 6254 272L6284 409C6288 429 6291 444 6291 451C6291 470 6281 482 6265 482C6235 482 6189 460 6134 418C6090 384 6070 363 6005 275L6038 408C6042 424 6044 439 6044 451C6044 470 6035 482 6021 482C6000 482 5962 461 5888 408L5860 388L5867 368C5904 391 5939 414 5946 414C5957 414 5964 404 5964 389C5964 338 5923 145 5882 2L5885 -9L5953 6L5975 108C5999 219 6026 278 6081 338C6123 384 6168 414 6196 414C6203 414 6207 406 6207 393C6207 358 6185 244 6144 69L6128 2L6133 -9L6202 6L6223 113C6239 194 6273 269 6317 318C6372 379 6422 414 6454 414C6462 414 6467 405 6467 389C6467 365 6464 351 6442 264C6402 105 6386 84 6386 31C6386 6 6397 -9 6416 -9C6442 -9 6478 12 6576 85ZM6789 -11C6845 -11 6960 62 7003 125C7044 186 7078 296 7078 371C7078 438 7055 482 7019 482C6977 482 6924 456 6872 409C6831 374 6811 348 6775 289L6799 408C6802 425 6804 440 6804 452C6804 471 6796 482 6782 482C6761 482 6723 461 6649 408L6621 388L6628 368L6660 389C6688 407 6699 412 6708 412C6718 412 6725 403 6725 389C6725 381 6723 361 6721 351L6663 8C6653 -52 6634 -143 6614 -233L6606 -270L6613 -276C6634 -269 6654 -264 6686 -259L6728 3C6749 -4 6771 -11 6789 -11ZM6756 165C6778 293 6885 424 6968 424C6994 424 7006 402 7006 356C7006 275 6966 156 6913 80C6893 51 6861 36 6820 36C6789 36 6764 43 6738 59Z" stroke="rgb(0,0,0)" stroke-opacity="1" stroke-width="8" fill="rgb(0,0,0)" fill-opacity="1"></path></g></g><g><g transform="matrix(1,0,0,1,160.19000244140625,102.39999389648438)"><path transform="matrix(0.017,0,0,-0.017,0,0)" d="M146 266C146 526 243 632 301 700L282 726C225 675 60 542 60 266C60 159 85 58 133 -32C168 -99 200 -138 282 -215L301 -194C255 -137 146 -15 146 266Z" stroke="rgb(0,0,0)" stroke-opacity="1" stroke-width="8" fill="rgb(0,0,0)" fill-opacity="1"></path></g></g><g><g transform="matrix(1,0,0,1,165.84500122070312,101.44000244140625)"><path transform="matrix(0.017,0,0,-0.017,0,0)" d="M199 689C117 689 50 622 50 539C50 456 117 389 200 389C281 389 350 457 350 537C350 621 283 689 199 689ZM199 649C260 649 310 599 310 537C310 479 260 429 200 429C139 429 90 478 90 539C90 600 139 649 199 649ZM445 284C445 90 552 -18 743 -18C839 -18 910 5 1000 67C1000 67 1010 103 1010 103C1010 103 1000 110 1000 110C906 53 854 35 776 35C619 35 533 131 533 309C533 447 590 653 818 653C889 653 941 639 997 603L997 519L1024 519C1029 576 1037 619 1051 665C975 694 918 706 856 706C676 706 445 578 445 284Z" stroke="rgb(0,0,0)" stroke-opacity="1" stroke-width="8" fill="rgb(0,0,0)" fill-opacity="1"></path></g></g><g><g transform="matrix(1,0,0,1,184.32501220703125,102.39999389648438)"><path transform="matrix(0.017,0,0,-0.017,0,0)" d="M51 726L32 700C87 636 187 526 187 266C187 -10 83 -131 32 -194L51 -215C104 -165 273 -23 273 265C273 542 108 675 51 726Z" stroke="rgb(0,0,0)" stroke-opacity="1" stroke-width="8" fill="rgb(0,0,0)" fill-opacity="1"></path></g></g></g></g></svg>