<svg xmlns="http://www.w3.org/2000/svg" xmlns:xlink="http://www.w3.org/1999/xlink" width="208.7050018310547" height="107.56000518798828" style="width:208.7050018310547px;height:107.56000518798828px;font-family:Asana-Math, Asana;background:#FFF;"><g><g><g><g transform="matrix(1,0,0,1,2,18.039993286132812)"><path transform="matrix(0.017,0,0,-0.017,0,0)" d="" stroke="rgb(0,0,0)" stroke-opacity="1" stroke-width="8" fill="rgb(0,0,0)" fill-opacity="1"></path></g></g><g><g transform="matrix(1,0,0,1,52.7750244140625,18.039993286132812)"><path transform="matrix(0.017,0,0,-0.017,0,0)" d="M662 6L655 -4C549 0 443 0 336 0C235 0 134 -1 33 -4L27 6C88 116 136 238 186 354C235 466 288 580 327 697L352 697C395 590 597 128 662 6ZM584 37C518 215 447 389 371 564L364 564C289 391 217 215 152 37Z" stroke="rgb(0,0,0)" stroke-opacity="1" stroke-width="8" fill="rgb(0,0,0)" fill-opacity="1"></path></g></g><g><g transform="matrix(1,0,0,1,64.47500610351562,18.039993286132812)"><path transform="matrix(0.017,0,0,-0.017,0,0)" d="M31 148C26 97 20 62 9 16C47 -2 81 -11 116 -11C165 -11 211 7 262 47C313 87 334 124 334 174C334 228 302 257 228 271L185 279C125 290 106 307 106 348C106 401 151 442 208 442C249 442 287 424 303 397L303 342L326 342C330 377 334 404 345 455C306 474 278 482 245 482C193 482 132 452 84 404C58 377 47 352 47 316C47 260 78 228 144 215L207 203C251 195 267 177 267 138C267 73 221 29 150 29C115 29 84 40 56 64L56 148Z" stroke="rgb(0,0,0)" stroke-opacity="1" stroke-width="8" fill="rgb(0,0,0)" fill-opacity="1"></path></g></g><g><g transform="matrix(1,0,0,1,76.17501831054688,18.039993286132812)"><path transform="matrix(0.017,0,0,-0.017,0,0)" d="M604 347L604 406L65 406L65 347ZM604 134L604 193L65 193L65 134Z" stroke="rgb(0,0,0)" stroke-opacity="1" stroke-width="8" fill="rgb(0,0,0)" fill-opacity="1"></path></g></g><g><g transform="matrix(1,0,0,1,92.6300048828125,18.039993286132812)"><path transform="matrix(0.017,0,0,-0.017,0,0)" d="M31 148C26 97 20 62 9 16C47 -2 81 -11 116 -11C165 -11 211 7 262 47C313 87 334 124 334 174C334 228 302 257 228 271L185 279C125 290 106 307 106 348C106 401 151 442 208 442C249 442 287 424 303 397L303 342L326 342C330 377 334 404 345 455C306 474 278 482 245 482C193 482 132 452 84 404C58 377 47 352 47 316C47 260 78 228 144 215L207 203C251 195 267 177 267 138C267 73 221 29 150 29C115 29 84 40 56 64L56 148Z" stroke="rgb(0,0,0)" stroke-opacity="1" stroke-width="8" fill="rgb(0,0,0)" fill-opacity="1"></path></g></g><g><g><g><g><g transform="matrix(1,0,0,1,99.74002075195312,21.999998474121092)"><path transform="matrix(0.0119,0,0,-0.0119,0,0)" d="M263 689C108 689 29 566 29 324C29 207 50 106 85 57C120 8 176 -20 238 -20C389 -20 465 110 465 366C465 585 400 689 263 689ZM245 654C342 654 381 556 381 316C381 103 343 15 251 15C154 15 113 116 113 360C113 571 150 654 245 654Z" stroke="rgb(0,0,0)" stroke-opacity="1" stroke-width="8" fill="rgb(0,0,0)" fill-opacity="1"></path></g></g></g></g></g><g><g transform="matrix(1,0,0,1,106.70001220703125,18.039993286132812)"><path transform="matrix(0.017,0,0,-0.017,0,0)" d="M459 205C459 301 389 358 298 360L298 369C391 400 475 479 476 581C477 644 445 680 381 680C154 680 114 463 89 289C62 101 36 -87 -8 -273L-8 -283C18 -274 43 -265 70 -259C76 -162 90 -66 104 29C239 -84 459 37 459 205ZM216 12C159 12 123 45 124 103C126 205 190 570 278 629C337 668 411 631 406 558C398 447 310 371 204 371C201 338 204 378 200 329C294 362 383 309 378 208C374 115 322 12 216 12Z" stroke="rgb(0,0,0)" stroke-opacity="1" stroke-width="8" fill="rgb(0,0,0)" fill-opacity="1"></path></g></g><g><g transform="matrix(1,0,0,1,115.4000244140625,18.039993286132812)"><path transform="matrix(0.017,0,0,-0.017,0,0)" d="M662 6L655 -4C549 0 443 0 336 0C235 0 134 -1 33 -4L27 6C88 116 136 238 186 354C235 466 288 580 327 697L352 697C395 590 597 128 662 6ZM584 37C518 215 447 389 371 564L364 564C289 391 217 215 152 37Z" stroke="rgb(0,0,0)" stroke-opacity="1" stroke-width="8" fill="rgb(0,0,0)" fill-opacity="1"></path></g></g><g><g transform="matrix(1,0,0,1,127.10000610351562,18.039993286132812)"><path transform="matrix(0.017,0,0,-0.017,0,0)" d="M390 646L463 646C541 646 577 641 580 629C583 621 585 602 584 592L580 528L608 528L635 692L544 691C456 690 388 689 353 689C316 689 252 690 166 691L71 692L53 528L82 528L97 588C102 610 109 626 115 633C121 640 159 646 196 646L308 646L222 125C206 34 204 31 164 28L113 25L109 -3L166 -2C206 -1 235 0 251 0C270 0 301 -1 340 -2L384 -3L387 25L328 28C302 29 292 37 292 58C292 67 293 74 296 93Z" stroke="rgb(0,0,0)" stroke-opacity="1" stroke-width="8" fill="rgb(0,0,0)" fill-opacity="1"></path></g></g></g><g></g><g><g><g transform="matrix(1,0,0,1,2,59.74000549316406)"><path transform="matrix(0.017,0,0,-0.017,0,0)" d="M31 148C26 97 20 62 9 16C47 -2 81 -11 116 -11C165 -11 211 7 262 47C313 87 334 124 334 174C334 228 302 257 228 271L185 279C125 290 106 307 106 348C106 401 151 442 208 442C249 442 287 424 303 397L303 342L326 342C330 377 334 404 345 455C306 474 278 482 245 482C193 482 132 452 84 404C58 377 47 352 47 316C47 260 78 228 144 215L207 203C251 195 267 177 267 138C267 73 221 29 150 29C115 29 84 40 56 64L56 148Z" stroke="rgb(0,0,0)" stroke-opacity="1" stroke-width="8" fill="rgb(0,0,0)" fill-opacity="1"></path></g></g><g><g><g><g><g transform="matrix(1,0,0,1,9.110000610351562,63.70000305175781)"><path transform="matrix(0.0119,0,0,-0.0119,0,0)" d="M263 689C108 689 29 566 29 324C29 207 50 106 85 57C120 8 176 -20 238 -20C389 -20 465 110 465 366C465 585 400 689 263 689ZM245 654C342 654 381 556 381 316C381 103 343 15 251 15C154 15 113 116 113 360C113 571 150 654 245 654Z" stroke="rgb(0,0,0)" stroke-opacity="1" stroke-width="8" fill="rgb(0,0,0)" fill-opacity="1"></path></g></g></g></g></g><g><g transform="matrix(1,0,0,1,19.460006713867188,59.74000549316406)"><path transform="matrix(0.017,0,0,-0.017,0,0)" d="M123 111C93 111 66 83 66 53C66 23 93 -5 122 -5C154 -5 182 22 182 53C182 83 154 111 123 111ZM123 456C93 456 66 428 66 398C66 368 93 340 122 340C154 340 182 367 182 397C182 428 154 456 123 456Z" stroke="rgb(0,0,0)" stroke-opacity="1" stroke-width="8" fill="rgb(0,0,0)" fill-opacity="1"></path></g></g><g><g transform="matrix(1,0,0,1,27.095001220703125,59.74000549316406)"><path transform="matrix(0.017,0,0,-0.017,0,0)" d="M280 148C275 97 269 62 258 16C296 -2 330 -11 365 -11C414 -11 460 7 511 47C562 87 583 124 583 174C583 228 551 257 477 271L434 279C374 290 355 307 355 348C355 401 400 442 457 442C498 442 536 424 552 397L552 342L575 342C579 377 583 404 594 455C555 474 527 482 494 482C442 482 381 452 333 404C307 377 296 352 296 316C296 260 327 228 393 215L456 203C500 195 516 177 516 138C516 73 470 29 399 29C364 29 333 40 305 64L305 148ZM1129 473L1122 482L1054 465L1044 414C1029 336 1004 268 973 221C914 130 836 59 796 59C788 59 783 68 783 85C783 99 785 112 790 137L847 408C850 424 852 438 852 451C852 470 843 482 829 482C809 482 771 461 697 408L669 388L676 368L708 389C736 407 747 412 756 412C765 412 773 403 773 392C773 388 772 378 771 374L708 77C706 68 704 44 704 30C704 7 719 -11 739 -11C802 -11 923 101 1007 239L970 97C963 73 959 46 959 31C959 6 970 -9 989 -9C1015 -9 1051 12 1149 85L1139 103L1113 86C1089 70 1063 59 1052 59C1044 59 1039 66 1039 76C1039 112 1114 416 1129 473ZM1368 -11C1424 -11 1539 62 1582 125C1623 186 1657 296 1657 371C1657 438 1634 482 1598 482C1556 482 1503 456 1451 409C1410 374 1390 348 1354 289L1378 408C1381 425 1383 440 1383 452C1383 471 1375 482 1361 482C1340 482 1302 461 1228 408L1200 388L1207 368L1239 389C1267 407 1278 412 1287 412C1297 412 1304 403 1304 389C1304 381 1302 361 1300 351L1242 8C1232 -52 1213 -143 1193 -233L1185 -270L1192 -276C1213 -269 1233 -264 1265 -259L1307 3C1328 -4 1350 -11 1368 -11ZM1335 165C1357 293 1464 424 1547 424C1573 424 1585 402 1585 356C1585 275 1545 156 1492 80C1472 51 1440 36 1399 36C1368 36 1343 43 1317 59ZM2019 111L1995 94C1942 56 1894 36 1858 36C1811 36 1782 73 1782 133C1782 158 1785 185 1790 214C1807 218 1916 248 1941 259C2026 296 2065 342 2065 404C2065 451 2031 482 1981 482C1913 496 1803 423 1766 349C1736 299 1706 180 1706 113C1706 35 1750 -11 1822 -11C1879 -11 1935 17 2027 92ZM1804 274C1821 343 1841 386 1870 412C1888 428 1919 440 1943 440C1972 440 1991 420 1991 388C1991 344 1956 297 1904 272C1876 258 1840 247 1795 237ZM2447 365C2450 403 2455 435 2463 476C2452 481 2448 482 2443 482C2412 482 2381 458 2345 407C2306 351 2267 291 2251 256L2283 408C2287 425 2289 438 2289 450C2289 470 2281 482 2266 482C2245 482 2207 461 2133 408L2105 388L2112 368L2144 389C2172 407 2183 412 2192 412C2202 412 2209 403 2209 390C2209 332 2166 126 2126 -2L2136 -9C2151 -4 2167 -1 2190 4L2203 6L2229 126C2247 209 2270 262 2314 319C2348 363 2375 384 2397 384C2412 384 2422 379 2433 365ZM2812 437L2796 437L2817 549C2833 635 2861 673 2907 673C2937 673 2964 658 2979 634L2989 638C2994 654 3004 685 3012 705L3017 720C3001 727 2970 733 2947 733C2936 733 2920 730 2912 726C2888 715 2806 654 2783 630C2761 608 2749 578 2738 521L2723 442C2682 422 2662 414 2637 405L2632 383L2713 383L2704 327C2674 132 2637 -54 2615 -123C2597 -182 2567 -213 2531 -213C2508 -213 2497 -206 2479 -184L2465 -188C2461 -211 2447 -259 2442 -268C2451 -273 2466 -276 2477 -276C2518 -276 2572 -245 2611 -198C2682 -114 2702 -18 2786 383L2890 383C2894 402 2901 425 2907 439L2903 446C2874 439 2875 437 2812 437ZM3051 388L3058 368L3090 389C3127 412 3130 414 3137 414C3147 414 3155 404 3155 391C3155 384 3151 361 3147 347L3081 107C3073 76 3068 49 3068 30C3068 6 3079 -9 3098 -9C3124 -9 3160 12 3258 85L3248 103L3222 86C3193 67 3170 56 3161 56C3154 56 3148 66 3148 76C3148 86 3150 95 3155 116L3232 420C3236 437 3238 448 3238 456C3238 473 3229 482 3213 482C3191 482 3154 461 3079 408ZM3245 712C3216 712 3187 679 3187 645C3187 620 3202 604 3226 604C3257 604 3281 633 3281 671C3281 695 3266 712 3245 712ZM3636 330L3659 330C3667 395 3674 432 3683 458C3659 473 3624 482 3587 482C3542 483 3469 463 3412 400C3358 352 3319 241 3319 136C3319 40 3361 -11 3441 -11C3495 -11 3543 9 3598 54L3648 95L3640 115L3625 105C3553 57 3515 40 3480 40C3424 40 3395 80 3395 159C3395 267 3430 371 3479 409C3500 425 3524 433 3555 433C3600 433 3636 414 3636 390ZM3734 388L3741 368L3773 389C3810 412 3813 414 3820 414C3830 414 3838 404 3838 391C3838 384 3834 361 3830 347L3764 107C3756 76 3751 49 3751 30C3751 6 3762 -9 3781 -9C3807 -9 3843 12 3941 85L3931 103L3905 86C3876 67 3853 56 3844 56C3837 56 3831 66 3831 76C3831 86 3833 95 3838 116L3915 420C3919 437 3921 448 3921 456C3921 473 3912 482 3896 482C3874 482 3837 461 3762 408ZM3928 712C3899 712 3870 679 3870 645C3870 620 3885 604 3909 604C3940 604 3964 633 3964 671C3964 695 3949 712 3928 712ZM4305 111L4281 94C4228 56 4180 36 4144 36C4097 36 4068 73 4068 133C4068 158 4071 185 4076 214C4093 218 4202 248 4227 259C4312 296 4351 342 4351 404C4351 451 4317 482 4267 482C4199 496 4089 423 4052 349C4022 299 3992 180 3992 113C3992 35 4036 -11 4108 -11C4165 -11 4221 17 4313 92ZM4090 274C4107 343 4127 386 4156 412C4174 428 4205 440 4229 440C4258 440 4277 420 4277 388C4277 344 4242 297 4190 272C4162 258 4126 247 4081 237ZM4648 388L4655 368L4687 389C4724 412 4727 414 4734 414C4744 414 4752 404 4752 391C4752 384 4748 361 4744 347L4678 107C4670 76 4665 49 4665 30C4665 6 4676 -9 4695 -9C4721 -9 4757 12 4855 85L4845 103L4819 86C4790 67 4767 56 4758 56C4751 56 4745 66 4745 76C4745 86 4747 95 4752 116L4829 420C4833 437 4835 448 4835 456C4835 473 4826 482 4810 482C4788 482 4751 461 4676 408ZM4842 712C4813 712 4784 679 4784 645C4784 620 4799 604 4823 604C4854 604 4878 633 4878 671C4878 695 4863 712 4842 712ZM4915 388L4922 368L4954 389C4991 412 4994 414 5001 414C5012 414 5019 404 5019 389C5019 338 4978 145 4937 2L4944 -9C4969 -2 4992 4 5014 8C5033 134 5054 199 5100 268C5154 352 5229 414 5274 414C5285 414 5291 405 5291 390C5291 372 5288 351 5280 319L5228 107C5219 70 5215 47 5215 31C5215 6 5226 -9 5245 -9C5271 -9 5307 12 5405 85L5395 103L5369 86C5340 67 5318 56 5308 56C5301 56 5295 65 5295 76C5295 81 5296 92 5297 96L5363 372C5370 401 5374 429 5374 446C5374 469 5363 482 5343 482C5301 482 5232 444 5173 389C5135 354 5107 320 5055 247L5093 408C5097 426 5099 438 5099 449C5099 470 5091 482 5076 482C5055 482 5016 460 4943 408ZM5480 388L5487 368L5519 389C5556 412 5559 414 5566 414C5576 414 5584 404 5584 391C5584 384 5580 361 5576 347L5510 107C5502 76 5497 49 5497 30C5497 6 5508 -9 5527 -9C5553 -9 5589 12 5687 85L5677 103L5651 86C5622 67 5599 56 5590 56C5583 56 5577 66 5577 76C5577 86 5579 95 5584 116L5661 420C5665 437 5667 448 5667 456C5667 473 5658 482 5642 482C5620 482 5583 461 5508 408ZM5674 712C5645 712 5616 679 5616 645C5616 620 5631 604 5655 604C5686 604 5710 633 5710 671C5710 695 5695 712 5674 712ZM6065 330L6088 330C6096 395 6103 432 6112 458C6088 473 6053 482 6016 482C5971 483 5898 463 5841 400C5787 352 5748 241 5748 136C5748 40 5790 -11 5870 -11C5924 -11 5972 9 6027 54L6077 95L6069 115L6054 105C5982 57 5944 40 5909 40C5853 40 5824 80 5824 159C5824 267 5859 371 5908 409C5929 425 5953 433 5984 433C6029 433 6065 414 6065 390ZM6163 388L6170 368L6202 389C6239 412 6242 414 6249 414C6259 414 6267 404 6267 391C6267 384 6263 361 6259 347L6193 107C6185 76 6180 49 6180 30C6180 6 6191 -9 6210 -9C6236 -9 6272 12 6370 85L6360 103L6334 86C6305 67 6282 56 6273 56C6266 56 6260 66 6260 76C6260 86 6262 95 6267 116L6344 420C6348 437 6350 448 6350 456C6350 473 6341 482 6325 482C6303 482 6266 461 6191 408ZM6357 712C6328 712 6299 679 6299 645C6299 620 6314 604 6338 604C6369 604 6393 633 6393 671C6393 695 6378 712 6357 712ZM6677 204L6648 77C6644 60 6642 42 6642 26C6642 4 6651 -9 6666 -9C6689 -9 6730 17 6812 85L6805 106C6781 86 6752 59 6730 59C6721 59 6715 68 6715 82C6715 87 6715 90 6716 93L6808 472L6798 481L6765 463C6724 478 6707 482 6680 482C6652 482 6632 477 6605 464C6543 433 6510 403 6485 354C6441 265 6410 145 6410 67C6410 23 6425 -11 6444 -11C6481 -11 6561 41 6677 204ZM6725 414C6703 305 6684 253 6650 201C6593 117 6532 59 6500 59C6488 59 6482 72 6482 99C6482 163 6510 280 6545 360C6569 415 6592 433 6640 433C6663 433 6681 429 6725 414ZM7100 722L7088 733C7036 707 7000 698 6928 691L6924 670L6972 670C6996 670 7006 663 7006 648C7006 645 7006 640 7003 622C6992 567 6919 182 6904 132C6891 82 6885 52 6885 31C6885 6 6896 -9 6915 -9C6941 -9 6977 12 7075 85L7065 103L7039 86C7010 67 6988 56 6978 56C6971 56 6965 66 6965 76C6965 82 6966 89 6969 104Z" stroke="rgb(0,0,0)" stroke-opacity="1" stroke-width="8" fill="rgb(0,0,0)" fill-opacity="1"></path></g></g></g><g><g><g transform="matrix(1,0,0,1,2,81.27999877929688)"><path transform="matrix(0.017,0,0,-0.017,0,0)" d="M459 205C459 301 389 358 298 360L298 369C391 400 475 479 476 581C477 644 445 680 381 680C154 680 114 463 89 289C62 101 36 -87 -8 -273L-8 -283C18 -274 43 -265 70 -259C76 -162 90 -66 104 29C239 -84 459 37 459 205ZM216 12C159 12 123 45 124 103C126 205 190 570 278 629C337 668 411 631 406 558C398 447 310 371 204 371C201 338 204 378 200 329C294 362 383 309 378 208C374 115 322 12 216 12Z" stroke="rgb(0,0,0)" stroke-opacity="1" stroke-width="8" fill="rgb(0,0,0)" fill-opacity="1"></path></g></g><g><g transform="matrix(1,0,0,1,14.090011596679688,81.27999877929688)"><path transform="matrix(0.017,0,0,-0.017,0,0)" d="M123 111C93 111 66 83 66 53C66 23 93 -5 122 -5C154 -5 182 22 182 53C182 83 154 111 123 111ZM123 456C93 456 66 428 66 398C66 368 93 340 122 340C154 340 182 367 182 397C182 428 154 456 123 456Z" stroke="rgb(0,0,0)" stroke-opacity="1" stroke-width="8" fill="rgb(0,0,0)" fill-opacity="1"></path></g></g><g><g transform="matrix(1,0,0,1,21.725006103515625,81.27999877929688)"><path transform="matrix(0.017,0,0,-0.017,0,0)" d="M342 330L365 330C373 395 380 432 389 458C365 473 330 482 293 482C248 483 175 463 118 400C64 352 25 241 25 136C25 40 67 -11 147 -11C201 -11 249 9 304 54L354 95L346 115L331 105C259 57 221 40 186 40C130 40 101 80 101 159C101 267 136 371 185 409C206 425 230 433 261 433C306 433 342 414 342 390ZM423 152C423 46 468 -11 551 -11C606 -11 666 15 711 57C773 116 817 230 817 331C817 425 767 482 684 482C580 482 423 382 423 152ZM647 444C708 444 741 399 741 315C741 219 710 113 666 60C648 39 622 27 591 27C533 27 499 72 499 151C499 264 538 387 587 427C600 438 623 444 647 444ZM1177 111L1153 94C1100 56 1052 36 1016 36C969 36 940 73 940 133C940 158 943 185 948 214C965 218 1074 248 1099 259C1184 296 1223 342 1223 404C1223 451 1189 482 1139 482C1071 496 961 423 924 349C894 299 864 180 864 113C864 35 908 -11 980 -11C1037 -11 1093 17 1185 92ZM962 274C979 343 999 386 1028 412C1046 428 1077 440 1101 440C1130 440 1149 420 1149 388C1149 344 1114 297 1062 272C1034 258 998 247 953 237ZM1582 437L1566 437L1587 549C1603 635 1631 673 1677 673C1707 673 1734 658 1749 634L1759 638C1764 654 1774 685 1782 705L1787 720C1771 727 1740 733 1717 733C1706 733 1690 730 1682 726C1658 715 1576 654 1553 630C1531 608 1519 578 1508 521L1493 442C1452 422 1432 414 1407 405L1402 383L1483 383L1474 327C1444 132 1407 -54 1385 -123C1367 -182 1337 -213 1301 -213C1278 -213 1267 -206 1249 -184L1235 -188C1231 -211 1217 -259 1212 -268C1221 -273 1236 -276 1247 -276C1288 -276 1342 -245 1381 -198C1452 -114 1472 -18 1556 383L1660 383C1664 402 1671 425 1677 439L1673 446C1644 439 1645 437 1582 437Z" stroke="rgb(0,0,0)" stroke-opacity="1" stroke-width="8" fill="rgb(0,0,0)" fill-opacity="1"></path></g></g><g><g transform="matrix(1,0,0,1,52.100006103515625,81.27999877929688)"><path transform="matrix(0.017,0,0,-0.017,0,0)" d="M124 111C94 111 67 83 67 53C67 23 94 -5 123 -5C155 -5 183 22 183 53C183 83 155 111 124 111Z" stroke="rgb(0,0,0)" stroke-opacity="1" stroke-width="8" fill="rgb(0,0,0)" fill-opacity="1"></path></g></g><g><g transform="matrix(1,0,0,1,59.735015869140625,81.27999877929688)"><path transform="matrix(0.017,0,0,-0.017,0,0)" d="M483 722L471 733C419 707 383 698 311 691L307 670L355 670C379 670 389 663 389 646C389 638 388 629 387 622L359 468C329 477 302 482 277 482C208 482 114 410 68 323C37 265 17 170 17 86C17 21 32 -11 61 -11C88 -11 125 6 159 33C213 77 246 116 313 217L290 126C279 82 274 50 274 24C274 3 283 -9 300 -9C317 -9 341 3 375 28L456 88L446 107L402 76C388 66 372 59 363 59C355 59 349 68 349 82C349 90 350 99 357 128ZM114 59C98 59 89 73 89 98C89 224 135 380 184 418C197 428 216 433 243 433C287 433 316 427 349 410L337 351C300 171 159 59 114 59ZM533 388L540 368L572 389C609 412 612 414 619 414C629 414 637 404 637 391C637 384 633 361 629 347L563 107C555 76 550 49 550 30C550 6 561 -9 580 -9C606 -9 642 12 740 85L730 103L704 86C675 67 652 56 643 56C636 56 630 66 630 76C630 86 632 95 637 116L714 420C718 437 720 448 720 456C720 473 711 482 695 482C673 482 636 461 561 408ZM727 712C698 712 669 679 669 645C669 620 684 604 708 604C739 604 763 633 763 671C763 695 748 712 727 712ZM1027 722L1015 733C963 707 927 698 855 691L851 670L899 670C923 670 933 663 933 648C933 645 933 640 930 622C919 567 846 182 831 132C818 82 812 52 812 31C812 6 823 -9 842 -9C868 -9 904 12 1002 85L992 103L966 86C937 67 915 56 905 56C898 56 892 66 892 76C892 82 893 89 896 104ZM1324 204L1295 77C1291 60 1289 42 1289 26C1289 4 1298 -9 1313 -9C1336 -9 1377 17 1459 85L1452 106C1428 86 1399 59 1377 59C1368 59 1362 68 1362 82C1362 87 1362 90 1363 93L1455 472L1445 481L1412 463C1371 478 1354 482 1327 482C1299 482 1279 477 1252 464C1190 433 1157 403 1132 354C1088 265 1057 145 1057 67C1057 23 1072 -11 1091 -11C1128 -11 1208 41 1324 204ZM1372 414C1350 305 1331 253 1297 201C1240 117 1179 59 1147 59C1135 59 1129 72 1129 99C1129 163 1157 280 1192 360C1216 415 1239 433 1287 433C1310 433 1328 429 1372 414ZM1621 390L1565 107C1564 99 1552 61 1552 31C1552 6 1563 -9 1582 -9C1617 -9 1652 11 1730 74L1761 99L1751 117L1706 86C1677 66 1657 56 1646 56C1637 56 1632 64 1632 76C1632 102 1646 183 1675 328L1688 390L1795 390L1806 440C1768 436 1734 434 1696 434C1712 528 1723 577 1741 631L1730 646C1710 634 1683 622 1652 610L1627 440C1583 419 1557 408 1539 403L1537 390ZM2099 204L2070 77C2066 60 2064 42 2064 26C2064 4 2073 -9 2088 -9C2111 -9 2152 17 2234 85L2227 106C2203 86 2174 59 2152 59C2143 59 2137 68 2137 82C2137 87 2137 90 2138 93L2230 472L2220 481L2187 463C2146 478 2129 482 2102 482C2074 482 2054 477 2027 464C1965 433 1932 403 1907 354C1863 265 1832 145 1832 67C1832 23 1847 -11 1866 -11C1903 -11 1983 41 2099 204ZM2147 414C2125 305 2106 253 2072 201C2015 117 1954 59 1922 59C1910 59 1904 72 1904 99C1904 163 1932 280 1967 360C1991 415 2014 433 2062 433C2085 433 2103 429 2147 414ZM2613 330L2636 330C2644 395 2651 432 2660 458C2636 473 2601 482 2564 482C2519 483 2446 463 2389 400C2335 352 2296 241 2296 136C2296 40 2338 -11 2418 -11C2472 -11 2520 9 2575 54L2625 95L2617 115L2602 105C2530 57 2492 40 2457 40C2401 40 2372 80 2372 159C2372 267 2407 371 2456 409C2477 425 2501 433 2532 433C2577 433 2613 414 2613 390ZM2711 388L2718 368L2750 389C2787 412 2790 414 2797 414C2807 414 2815 404 2815 391C2815 384 2811 361 2807 347L2741 107C2733 76 2728 49 2728 30C2728 6 2739 -9 2758 -9C2784 -9 2820 12 2918 85L2908 103L2882 86C2853 67 2830 56 2821 56C2814 56 2808 66 2808 76C2808 86 2810 95 2815 116L2892 420C2896 437 2898 448 2898 456C2898 473 2889 482 2873 482C2851 482 2814 461 2739 408ZM2905 712C2876 712 2847 679 2847 645C2847 620 2862 604 2886 604C2917 604 2941 633 2941 671C2941 695 2926 712 2905 712ZM2971 152C2971 46 3016 -11 3099 -11C3154 -11 3214 15 3259 57C3321 116 3365 230 3365 331C3365 425 3315 482 3232 482C3128 482 2971 382 2971 152ZM3195 444C3256 444 3289 399 3289 315C3289 219 3258 113 3214 60C3196 39 3170 27 3139 27C3081 27 3047 72 3047 151C3047 264 3086 387 3135 427C3148 438 3171 444 3195 444ZM3421 388L3428 368L3460 389C3497 412 3500 414 3507 414C3518 414 3525 404 3525 389C3525 338 3484 145 3443 2L3450 -9C3475 -2 3498 4 3520 8C3539 134 3560 199 3606 268C3660 352 3735 414 3780 414C3791 414 3797 405 3797 390C3797 372 3794 351 3786 319L3734 107C3725 70 3721 47 3721 31C3721 6 3732 -9 3751 -9C3777 -9 3813 12 3911 85L3901 103L3875 86C3846 67 3824 56 3814 56C3807 56 3801 65 3801 76C3801 81 3802 92 3803 96L3869 372C3876 401 3880 429 3880 446C3880 469 3869 482 3849 482C3807 482 3738 444 3679 389C3641 354 3613 320 3561 247L3599 408C3603 426 3605 438 3605 449C3605 470 3597 482 3582 482C3561 482 3522 460 3449 408ZM4232 148C4227 97 4221 62 4210 16C4248 -2 4282 -11 4317 -11C4366 -11 4412 7 4463 47C4514 87 4535 124 4535 174C4535 228 4503 257 4429 271L4386 279C4326 290 4307 307 4307 348C4307 401 4352 442 4409 442C4450 442 4488 424 4504 397L4504 342L4527 342C4531 377 4535 404 4546 455C4507 474 4479 482 4446 482C4394 482 4333 452 4285 404C4259 377 4248 352 4248 316C4248 260 4279 228 4345 215L4408 203C4452 195 4468 177 4468 138C4468 73 4422 29 4351 29C4316 29 4285 40 4257 64L4257 148ZM5081 473L5074 482L5006 465L4996 414C4981 336 4956 268 4925 221C4866 130 4788 59 4748 59C4740 59 4735 68 4735 85C4735 99 4737 112 4742 137L4799 408C4802 424 4804 438 4804 451C4804 470 4795 482 4781 482C4761 482 4723 461 4649 408L4621 388L4628 368L4660 389C4688 407 4699 412 4708 412C4717 412 4725 403 4725 392C4725 388 4724 378 4723 374L4660 77C4658 68 4656 44 4656 30C4656 7 4671 -11 4691 -11C4754 -11 4875 101 4959 239L4922 97C4915 73 4911 46 4911 31C4911 6 4922 -9 4941 -9C4967 -9 5003 12 5101 85L5091 103L5065 86C5041 70 5015 59 5004 59C4996 59 4991 66 4991 76C4991 112 5066 416 5081 473ZM5320 -11C5376 -11 5491 62 5534 125C5575 186 5609 296 5609 371C5609 438 5586 482 5550 482C5508 482 5455 456 5403 409C5362 374 5342 348 5306 289L5330 408C5333 425 5335 440 5335 452C5335 471 5327 482 5313 482C5292 482 5254 461 5180 408L5152 388L5159 368L5191 389C5219 407 5230 412 5239 412C5249 412 5256 403 5256 389C5256 381 5254 361 5252 351L5194 8C5184 -52 5165 -143 5145 -233L5137 -270L5144 -276C5165 -269 5185 -264 5217 -259L5259 3C5280 -4 5302 -11 5320 -11ZM5287 165C5309 293 5416 424 5499 424C5525 424 5537 402 5537 356C5537 275 5497 156 5444 80C5424 51 5392 36 5351 36C5320 36 5295 43 5269 59ZM5971 111L5947 94C5894 56 5846 36 5810 36C5763 36 5734 73 5734 133C5734 158 5737 185 5742 214C5759 218 5868 248 5893 259C5978 296 6017 342 6017 404C6017 451 5983 482 5933 482C5865 496 5755 423 5718 349C5688 299 5658 180 5658 113C5658 35 5702 -11 5774 -11C5831 -11 5887 17 5979 92ZM5756 274C5773 343 5793 386 5822 412C5840 428 5871 440 5895 440C5924 440 5943 420 5943 388C5943 344 5908 297 5856 272C5828 258 5792 247 5747 237ZM6399 365C6402 403 6407 435 6415 476C6404 481 6400 482 6395 482C6364 482 6333 458 6297 407C6258 351 6219 291 6203 256L6235 408C6239 425 6241 438 6241 450C6241 470 6233 482 6218 482C6197 482 6159 461 6085 408L6057 388L6064 368L6096 389C6124 407 6135 412 6144 412C6154 412 6161 403 6161 390C6161 332 6118 126 6078 -2L6088 -9C6103 -4 6119 -1 6142 4L6155 6L6181 126C6199 209 6222 262 6266 319C6300 363 6327 384 6349 384C6364 384 6374 379 6385 365ZM6764 437L6748 437L6769 549C6785 635 6813 673 6859 673C6889 673 6916 658 6931 634L6941 638C6946 654 6956 685 6964 705L6969 720C6953 727 6922 733 6899 733C6888 733 6872 730 6864 726C6840 715 6758 654 6735 630C6713 608 6701 578 6690 521L6675 442C6634 422 6614 414 6589 405L6584 383L6665 383L6656 327C6626 132 6589 -54 6567 -123C6549 -182 6519 -213 6483 -213C6460 -213 6449 -206 6431 -184L6417 -188C6413 -211 6399 -259 6394 -268C6403 -273 6418 -276 6429 -276C6470 -276 6524 -245 6563 -198C6634 -114 6654 -18 6738 383L6842 383C6846 402 6853 425 6859 439L6855 446C6826 439 6827 437 6764 437ZM7003 388L7010 368L7042 389C7079 412 7082 414 7089 414C7099 414 7107 404 7107 391C7107 384 7103 361 7099 347L7033 107C7025 76 7020 49 7020 30C7020 6 7031 -9 7050 -9C7076 -9 7112 12 7210 85L7200 103L7174 86C7145 67 7122 56 7113 56C7106 56 7100 66 7100 76C7100 86 7102 95 7107 116L7184 420C7188 437 7190 448 7190 456C7190 473 7181 482 7165 482C7143 482 7106 461 7031 408ZM7197 712C7168 712 7139 679 7139 645C7139 620 7154 604 7178 604C7209 604 7233 633 7233 671C7233 695 7218 712 7197 712ZM7588 330L7611 330C7619 395 7626 432 7635 458C7611 473 7576 482 7539 482C7494 483 7421 463 7364 400C7310 352 7271 241 7271 136C7271 40 7313 -11 7393 -11C7447 -11 7495 9 7550 54L7600 95L7592 115L7577 105C7505 57 7467 40 7432 40C7376 40 7347 80 7347 159C7347 267 7382 371 7431 409C7452 425 7476 433 7507 433C7552 433 7588 414 7588 390ZM7686 388L7693 368L7725 389C7762 412 7765 414 7772 414C7782 414 7790 404 7790 391C7790 384 7786 361 7782 347L7716 107C7708 76 7703 49 7703 30C7703 6 7714 -9 7733 -9C7759 -9 7795 12 7893 85L7883 103L7857 86C7828 67 7805 56 7796 56C7789 56 7783 66 7783 76C7783 86 7785 95 7790 116L7867 420C7871 437 7873 448 7873 456C7873 473 7864 482 7848 482C7826 482 7789 461 7714 408ZM7880 712C7851 712 7822 679 7822 645C7822 620 7837 604 7861 604C7892 604 7916 633 7916 671C7916 695 7901 712 7880 712ZM8200 204L8171 77C8167 60 8165 42 8165 26C8165 4 8174 -9 8189 -9C8212 -9 8253 17 8335 85L8328 106C8304 86 8275 59 8253 59C8244 59 8238 68 8238 82C8238 87 8238 90 8239 93L8331 472L8321 481L8288 463C8247 478 8230 482 8203 482C8175 482 8155 477 8128 464C8066 433 8033 403 8008 354C7964 265 7933 145 7933 67C7933 23 7948 -11 7967 -11C8004 -11 8084 41 8200 204ZM8248 414C8226 305 8207 253 8173 201C8116 117 8055 59 8023 59C8011 59 8005 72 8005 99C8005 163 8033 280 8068 360C8092 415 8115 433 8163 433C8186 433 8204 429 8248 414ZM8623 722L8611 733C8559 707 8523 698 8451 691L8447 670L8495 670C8519 670 8529 663 8529 648C8529 645 8529 640 8526 622C8515 567 8442 182 8427 132C8414 82 8408 52 8408 31C8408 6 8419 -9 8438 -9C8464 -9 8500 12 8598 85L8588 103L8562 86C8533 67 8511 56 8501 56C8494 56 8488 66 8488 76C8488 82 8489 89 8492 104Z" stroke="rgb(0,0,0)" stroke-opacity="1" stroke-width="8" fill="rgb(0,0,0)" fill-opacity="1"></path></g></g></g><g><g><g transform="matrix(1,0,0,1,2,101.44000244140625)"><path transform="matrix(0.017,0,0,-0.017,0,0)" d="M662 6L655 -4C549 0 443 0 336 0C235 0 134 -1 33 -4L27 6C88 116 136 238 186 354C235 466 288 580 327 697L352 697C395 590 597 128 662 6ZM584 37C518 215 447 389 371 564L364 564C289 391 217 215 152 37Z" stroke="rgb(0,0,0)" stroke-opacity="1" stroke-width="8" fill="rgb(0,0,0)" fill-opacity="1"></path></g></g><g><g transform="matrix(1,0,0,1,13.70001220703125,101.44000244140625)"><path transform="matrix(0.017,0,0,-0.017,0,0)" d="M390 646L463 646C541 646 577 641 580 629C583 621 585 602 584 592L580 528L608 528L635 692L544 691C456 690 388 689 353 689C316 689 252 690 166 691L71 692L53 528L82 528L97 588C102 610 109 626 115 633C121 640 159 646 196 646L308 646L222 125C206 34 204 31 164 28L113 25L109 -3L166 -2C206 -1 235 0 251 0C270 0 301 -1 340 -2L384 -3L387 25L328 28C302 29 292 37 292 58C292 67 293 74 296 93Z" stroke="rgb(0,0,0)" stroke-opacity="1" stroke-width="8" fill="rgb(0,0,0)" fill-opacity="1"></path></g></g><g><g transform="matrix(1,0,0,1,27.470001220703125,101.44000244140625)"><path transform="matrix(0.017,0,0,-0.017,0,0)" d="M123 111C93 111 66 83 66 53C66 23 93 -5 122 -5C154 -5 182 22 182 53C182 83 154 111 123 111ZM123 456C93 456 66 428 66 398C66 368 93 340 122 340C154 340 182 367 182 397C182 428 154 456 123 456Z" stroke="rgb(0,0,0)" stroke-opacity="1" stroke-width="8" fill="rgb(0,0,0)" fill-opacity="1"></path></g></g><g><g transform="matrix(1,0,0,1,35.105010986328125,101.44000244140625)"><path transform="matrix(0.017,0,0,-0.017,0,0)" d="M166 420C187 420 203 421 229 424C118 304 76 221 76 121C76 44 122 -11 186 -11C324 -11 477 236 477 384C477 441 451 482 415 482C402 482 390 478 382 470L332 423L343 404C352 410 361 413 370 413C397 413 413 390 413 350C413 202 316 39 228 39C179 39 148 81 148 146C148 251 187 342 285 464L275 482C255 473 242 470 214 470C186 470 144 472 115 475L103 476C97 477 92 477 91 477C79 477 70 475 59 470C45 443 34 407 21 352L43 352L60 394C67 411 87 422 111 422C144 422 128 420 166 420ZM770 204L741 77C737 60 735 42 735 26C735 4 744 -9 759 -9C782 -9 823 17 905 85L898 106C874 86 845 59 823 59C814 59 808 68 808 82C808 87 808 90 809 93L901 472L891 481L858 463C817 478 800 482 773 482C745 482 725 477 698 464C636 433 603 403 578 354C534 265 503 145 503 67C503 23 518 -11 537 -11C574 -11 654 41 770 204ZM818 414C796 305 777 253 743 201C686 117 625 59 593 59C581 59 575 72 575 99C575 163 603 280 638 360C662 415 685 433 733 433C756 433 774 429 818 414ZM1310 365C1313 403 1318 435 1326 476C1315 481 1311 482 1306 482C1275 482 1244 458 1208 407C1169 351 1130 291 1114 256L1146 408C1150 425 1152 438 1152 450C1152 470 1144 482 1129 482C1108 482 1070 461 996 408L968 388L975 368L1007 389C1035 407 1046 412 1055 412C1065 412 1072 403 1072 390C1072 332 1029 126 989 -2L999 -9C1014 -4 1030 -1 1053 4L1066 6L1092 126C1110 209 1133 262 1177 319C1211 363 1238 384 1260 384C1275 384 1285 379 1296 365ZM1364 388L1371 368L1403 389C1440 412 1443 414 1450 414C1460 414 1468 404 1468 391C1468 384 1464 361 1460 347L1394 107C1386 76 1381 49 1381 30C1381 6 1392 -9 1411 -9C1437 -9 1473 12 1571 85L1561 103L1535 86C1506 67 1483 56 1474 56C1467 56 1461 66 1461 76C1461 86 1463 95 1468 116L1545 420C1549 437 1551 448 1551 456C1551 473 1542 482 1526 482C1504 482 1467 461 1392 408ZM1558 712C1529 712 1500 679 1500 645C1500 620 1515 604 1539 604C1570 604 1594 633 1594 671C1594 695 1579 712 1558 712ZM1878 204L1849 77C1845 60 1843 42 1843 26C1843 4 1852 -9 1867 -9C1890 -9 1931 17 2013 85L2006 106C1982 86 1953 59 1931 59C1922 59 1916 68 1916 82C1916 87 1916 90 1917 93L2009 472L1999 481L1966 463C1925 478 1908 482 1881 482C1853 482 1833 477 1806 464C1744 433 1711 403 1686 354C1642 265 1611 145 1611 67C1611 23 1626 -11 1645 -11C1682 -11 1762 41 1878 204ZM1926 414C1904 305 1885 253 1851 201C1794 117 1733 59 1701 59C1689 59 1683 72 1683 99C1683 163 1711 280 1746 360C1770 415 1793 433 1841 433C1864 433 1882 429 1926 414ZM2392 330L2415 330C2423 395 2430 432 2439 458C2415 473 2380 482 2343 482C2298 483 2225 463 2168 400C2114 352 2075 241 2075 136C2075 40 2117 -11 2197 -11C2251 -11 2299 9 2354 54L2404 95L2396 115L2381 105C2309 57 2271 40 2236 40C2180 40 2151 80 2151 159C2151 267 2186 371 2235 409C2256 425 2280 433 2311 433C2356 433 2392 414 2392 390ZM2490 388L2497 368L2529 389C2566 412 2569 414 2576 414C2586 414 2594 404 2594 391C2594 384 2590 361 2586 347L2520 107C2512 76 2507 49 2507 30C2507 6 2518 -9 2537 -9C2563 -9 2599 12 2697 85L2687 103L2661 86C2632 67 2609 56 2600 56C2593 56 2587 66 2587 76C2587 86 2589 95 2594 116L2671 420C2675 437 2677 448 2677 456C2677 473 2668 482 2652 482C2630 482 2593 461 2518 408ZM2684 712C2655 712 2626 679 2626 645C2626 620 2641 604 2665 604C2696 604 2720 633 2720 671C2720 695 2705 712 2684 712ZM2750 152C2750 46 2795 -11 2878 -11C2933 -11 2993 15 3038 57C3100 116 3144 230 3144 331C3144 425 3094 482 3011 482C2907 482 2750 382 2750 152ZM2974 444C3035 444 3068 399 3068 315C3068 219 3037 113 2993 60C2975 39 2949 27 2918 27C2860 27 2826 72 2826 151C2826 264 2865 387 2914 427C2927 438 2950 444 2974 444ZM3200 388L3207 368L3239 389C3276 412 3279 414 3286 414C3297 414 3304 404 3304 389C3304 338 3263 145 3222 2L3229 -9C3254 -2 3277 4 3299 8C3318 134 3339 199 3385 268C3439 352 3514 414 3559 414C3570 414 3576 405 3576 390C3576 372 3573 351 3565 319L3513 107C3504 70 3500 47 3500 31C3500 6 3511 -9 3530 -9C3556 -9 3592 12 3690 85L3680 103L3654 86C3625 67 3603 56 3593 56C3586 56 3580 65 3580 76C3580 81 3581 92 3582 96L3648 372C3655 401 3659 429 3659 446C3659 469 3648 482 3628 482C3586 482 3517 444 3458 389C3420 354 3392 320 3340 247L3378 408C3382 426 3384 438 3384 449C3384 470 3376 482 3361 482C3340 482 3301 460 3228 408ZM4463 722L4451 733C4399 707 4363 698 4291 691L4287 670L4335 670C4359 670 4369 663 4369 646C4369 638 4368 629 4367 622L4339 468C4309 477 4282 482 4257 482C4188 482 4094 410 4048 323C4017 265 3997 170 3997 86C3997 21 4012 -11 4041 -11C4068 -11 4105 6 4139 33C4193 77 4226 116 4293 217L4270 126C4259 82 4254 50 4254 24C4254 3 4263 -9 4280 -9C4297 -9 4321 3 4355 28L4436 88L4426 107L4382 76C4368 66 4352 59 4343 59C4335 59 4329 68 4329 82C4329 90 4330 99 4337 128ZM4094 59C4078 59 4069 73 4069 98C4069 224 4115 380 4164 418C4177 428 4196 433 4223 433C4267 433 4296 427 4329 410L4317 351C4280 171 4139 59 4094 59ZM4807 111L4783 94C4730 56 4682 36 4646 36C4599 36 4570 73 4570 133C4570 158 4573 185 4578 214C4595 218 4704 248 4729 259C4814 296 4853 342 4853 404C4853 451 4819 482 4769 482C4701 496 4591 423 4554 349C4524 299 4494 180 4494 113C4494 35 4538 -11 4610 -11C4667 -11 4723 17 4815 92ZM4592 274C4609 343 4629 386 4658 412C4676 428 4707 440 4731 440C4760 440 4779 420 4779 388C4779 344 4744 297 4692 272C4664 258 4628 247 4583 237ZM5241 390L5185 107C5184 99 5172 61 5172 31C5172 6 5183 -9 5202 -9C5237 -9 5272 11 5350 74L5381 99L5371 117L5326 86C5297 66 5277 56 5266 56C5257 56 5252 64 5252 76C5252 102 5266 183 5295 328L5308 390L5415 390L5426 440C5388 436 5354 434 5316 434C5332 528 5343 577 5361 631L5350 646C5330 634 5303 622 5272 610L5247 440C5203 419 5177 408 5159 403L5157 390ZM5776 111L5752 94C5699 56 5651 36 5615 36C5568 36 5539 73 5539 133C5539 158 5542 185 5547 214C5564 218 5673 248 5698 259C5783 296 5822 342 5822 404C5822 451 5788 482 5738 482C5670 496 5560 423 5523 349C5493 299 5463 180 5463 113C5463 35 5507 -11 5579 -11C5636 -11 5692 17 5784 92ZM5561 274C5578 343 5598 386 5627 412C5645 428 5676 440 5700 440C5729 440 5748 420 5748 388C5748 344 5713 297 5661 272C5633 258 5597 247 5552 237ZM6566 103L6540 86C6511 67 6489 56 6479 56C6472 56 6466 65 6466 76C6466 86 6468 95 6473 116L6548 413C6552 430 6555 446 6555 454C6555 471 6545 482 6529 482C6500 482 6462 464 6401 421C6338 376 6303 341 6254 272L6284 409C6288 429 6291 444 6291 451C6291 470 6281 482 6265 482C6235 482 6189 460 6134 418C6090 384 6070 363 6005 275L6038 408C6042 424 6044 439 6044 451C6044 470 6035 482 6021 482C6000 482 5962 461 5888 408L5860 388L5867 368C5904 391 5939 414 5946 414C5957 414 5964 404 5964 389C5964 338 5923 145 5882 2L5885 -9L5953 6L5975 108C5999 219 6026 278 6081 338C6123 384 6168 414 6196 414C6203 414 6207 406 6207 393C6207 358 6185 244 6144 69L6128 2L6133 -9L6202 6L6223 113C6239 194 6273 269 6317 318C6372 379 6422 414 6454 414C6462 414 6467 405 6467 389C6467 365 6464 351 6442 264C6402 105 6386 84 6386 31C6386 6 6397 -9 6416 -9C6442 -9 6478 12 6576 85ZM6789 -11C6845 -11 6960 62 7003 125C7044 186 7078 296 7078 371C7078 438 7055 482 7019 482C6977 482 6924 456 6872 409C6831 374 6811 348 6775 289L6799 408C6802 425 6804 440 6804 452C6804 471 6796 482 6782 482C6761 482 6723 461 6649 408L6621 388L6628 368L6660 389C6688 407 6699 412 6708 412C6718 412 6725 403 6725 389C6725 381 6723 361 6721 351L6663 8C6653 -52 6634 -143 6614 -233L6606 -270L6613 -276C6634 -269 6654 -264 6686 -259L6728 3C6749 -4 6771 -11 6789 -11ZM6756 165C6778 293 6885 424 6968 424C6994 424 7006 402 7006 356C7006 275 6966 156 6913 80C6893 51 6861 36 6820 36C6789 36 6764 43 6738 59Z" stroke="rgb(0,0,0)" stroke-opacity="1" stroke-width="8" fill="rgb(0,0,0)" fill-opacity="1"></path></g></g><g><g transform="matrix(1,0,0,1,160.19000244140625,102.39999389648438)"><path transform="matrix(0.017,0,0,-0.017,0,0)" d="M146 266C146 526 243 632 301 700L282 726C225 675 60 542 60 266C60 159 85 58 133 -32C168 -99 200 -138 282 -215L301 -194C255 -137 146 -15 146 266Z" stroke="rgb(0,0,0)" stroke-opacity="1" stroke-width="8" fill="rgb(0,0,0)" fill-opacity="1"></path></g></g><g><g transform="matrix(1,0,0,1,165.84500122070312,101.44000244140625)"><path transform="matrix(0.017,0,0,-0.017,0,0)" d="M199 689C117 689 50 622 50 539C50 456 117 389 200 389C281 389 350 457 350 537C350 621 283 689 199 689ZM199 649C260 649 310 599 310 537C310 479 260 429 200 429C139 429 90 478 90 539C90 600 139 649 199 649ZM445 284C445 90 552 -18 743 -18C839 -18 910 5 1000 67C1000 67 1010 103 1010 103C1010 103 1000 110 1000 110C906 53 854 35 776 35C619 35 533 131 533 309C533 447 590 653 818 653C889 653 941 639 997 603L997 519L1024 519C1029 576 1037 619 1051 665C975 694 918 706 856 706C676 706 445 578 445 284Z" stroke="rgb(0,0,0)" stroke-opacity="1" stroke-width="8" fill="rgb(0,0,0)" fill-opacity="1"></path></g></g><g><g transform="matrix(1,0,0,1,184.32501220703125,102.39999389648438)"><path transform="matrix(0.017,0,0,-0.017,0,0)" d="M51 726L32 700C87 636 187 526 187 266C187 -10 83 -131 32 -194L51 -215C104 -165 273 -23 273 265C273 542 108 675 51 726Z" stroke="rgb(0,0,0)" stroke-opacity="1" stroke-width="8" fill="rgb(0,0,0)" fill-opacity="1"></path></g></g></g></g></svg>