<svg xmlns="http://www.w3.org/2000/svg" xmlns:xlink="http://www.w3.org/1999/xlink" width="215.62001037597656" height="107.56000518798828" style="width:215.62001037597656px;height:107.56000518798828px;font-family:Asana-Math, Asana;background:#FFF;"><g><g><g><g transform="matrix(1,0,0,1,2,18.039993286132812)"><path transform="matrix(0.017,0,0,-0.017,0,0)" d="M3298 96L3227 624C3225 646 3229 661 3269 662L3311 664L3311 692L3270 691C3233 690 3205 689 3187 689C3169 689 3141 690 3104 691L3063 692L3063 664L3088 662C3132 659 3140 651 3147 614L3235 -8L3284 -8L3662 611C3687 651 3695 658 3724 662L3742 664L3742 692L3712 691C3685 690 3662 689 3646 689C3636 689 3609 690 3568 691L3522 692L3522 664L3548 662C3586 659 3605 649 3605 630C3605 619 3601 608 3589 588ZM3726 152C3726 46 3771 -11 3854 -11C3909 -11 3969 15 4014 57C4076 116 4120 230 4120 331C4120 425 4070 482 3987 482C3883 482 3726 382 3726 152ZM3950 444C4011 444 4044 399 4044 315C4044 219 4013 113 3969 60C3951 39 3925 27 3894 27C3836 27 3802 72 3802 151C3802 264 3841 387 3890 427C3903 438 3926 444 3950 444Z" stroke="rgb(0,0,0)" stroke-opacity="1" stroke-width="8" fill="rgb(0,0,0)" fill-opacity="1"></path></g></g><g><g transform="matrix(1,0,0,1,76.79000854492188,18.039993286132812)"><path transform="matrix(0.017,0,0,-0.017,0,0)" d="M662 6L655 -4C549 0 443 0 336 0C235 0 134 -1 33 -4L27 6C88 116 136 238 186 354C235 466 288 580 327 697L352 697C395 590 597 128 662 6ZM584 37C518 215 447 389 371 564L364 564C289 391 217 215 152 37Z" stroke="rgb(0,0,0)" stroke-opacity="1" stroke-width="8" fill="rgb(0,0,0)" fill-opacity="1"></path></g></g><g><g transform="matrix(1,0,0,1,88.49002075195312,18.039993286132812)"><path transform="matrix(0.017,0,0,-0.017,0,0)" d="M166 420C187 420 203 421 229 424C118 304 76 221 76 121C76 44 122 -11 186 -11C324 -11 477 236 477 384C477 441 451 482 415 482C402 482 390 478 382 470L332 423L343 404C352 410 361 413 370 413C397 413 413 390 413 350C413 202 316 39 228 39C179 39 148 81 148 146C148 251 187 342 285 464L275 482C255 473 242 470 214 470C186 470 144 472 115 475L103 476C97 477 92 477 91 477C79 477 70 475 59 470C45 443 34 407 21 352L43 352L60 394C67 411 87 422 111 422C144 422 128 420 166 420Z" stroke="rgb(0,0,0)" stroke-opacity="1" stroke-width="8" fill="rgb(0,0,0)" fill-opacity="1"></path></g></g><g><g transform="matrix(1,0,0,1,102.08001708984375,18.039993286132812)"><path transform="matrix(0.017,0,0,-0.017,0,0)" d="M604 347L604 406L65 406L65 347ZM604 134L604 193L65 193L65 134Z" stroke="rgb(0,0,0)" stroke-opacity="1" stroke-width="8" fill="rgb(0,0,0)" fill-opacity="1"></path></g></g><g><g transform="matrix(1,0,0,1,118.53500366210938,18.039993286132812)"><path transform="matrix(0.017,0,0,-0.017,0,0)" d="M166 420C187 420 203 421 229 424C118 304 76 221 76 121C76 44 122 -11 186 -11C324 -11 477 236 477 384C477 441 451 482 415 482C402 482 390 478 382 470L332 423L343 404C352 410 361 413 370 413C397 413 413 390 413 350C413 202 316 39 228 39C179 39 148 81 148 146C148 251 187 342 285 464L275 482C255 473 242 470 214 470C186 470 144 472 115 475L103 476C97 477 92 477 91 477C79 477 70 475 59 470C45 443 34 407 21 352L43 352L60 394C67 411 87 422 111 422C144 422 128 420 166 420Z" stroke="rgb(0,0,0)" stroke-opacity="1" stroke-width="8" fill="rgb(0,0,0)" fill-opacity="1"></path></g></g><g><g><g><g><g transform="matrix(1,0,0,1,127.53500366210938,21.999998474121092)"><path transform="matrix(0.0119,0,0,-0.0119,0,0)" d="M263 689C108 689 29 566 29 324C29 207 50 106 85 57C120 8 176 -20 238 -20C389 -20 465 110 465 366C465 585 400 689 263 689ZM245 654C342 654 381 556 381 316C381 103 343 15 251 15C154 15 113 116 113 360C113 571 150 654 245 654Z" stroke="rgb(0,0,0)" stroke-opacity="1" stroke-width="8" fill="rgb(0,0,0)" fill-opacity="1"></path></g></g></g></g></g><g><g transform="matrix(1,0,0,1,134.49502563476562,18.039993286132812)"><path transform="matrix(0.017,0,0,-0.017,0,0)" d="M154 473C89 473 51 426 18 377C18 371 27 368 30 365L30 366C54 394 74 412 111 412C206 412 215 290 214 220C212 136 203 53 186 -29C140 -86 92 -181 65 -249C69 -257 74 -265 77 -273C98 -268 119 -260 139 -251C165 -183 189 -106 203 -36C387 199 540 317 547 438C550 493 485 453 459 446L459 435C502 284 287 130 220 19L220 23C302 358 258 473 154 473Z" stroke="rgb(0,0,0)" stroke-opacity="1" stroke-width="8" fill="rgb(0,0,0)" fill-opacity="1"></path></g></g><g><g transform="matrix(1,0,0,1,144.3800048828125,18.039993286132812)"><path transform="matrix(0.017,0,0,-0.017,0,0)" d="M662 6L655 -4C549 0 443 0 336 0C235 0 134 -1 33 -4L27 6C88 116 136 238 186 354C235 466 288 580 327 697L352 697C395 590 597 128 662 6ZM584 37C518 215 447 389 371 564L364 564C289 391 217 215 152 37Z" stroke="rgb(0,0,0)" stroke-opacity="1" stroke-width="8" fill="rgb(0,0,0)" fill-opacity="1"></path></g></g><g><g transform="matrix(1,0,0,1,156.08001708984375,18.039993286132812)"><path transform="matrix(0.017,0,0,-0.017,0,0)" d="M390 646L463 646C541 646 577 641 580 629C583 621 585 602 584 592L580 528L608 528L635 692L544 691C456 690 388 689 353 689C316 689 252 690 166 691L71 692L53 528L82 528L97 588C102 610 109 626 115 633C121 640 159 646 196 646L308 646L222 125C206 34 204 31 164 28L113 25L109 -3L166 -2C206 -1 235 0 251 0C270 0 301 -1 340 -2L384 -3L387 25L328 28C302 29 292 37 292 58C292 67 293 74 296 93Z" stroke="rgb(0,0,0)" stroke-opacity="1" stroke-width="8" fill="rgb(0,0,0)" fill-opacity="1"></path></g></g></g><g></g><g><g><g transform="matrix(1,0,0,1,2,59.74000549316406)"><path transform="matrix(0.017,0,0,-0.017,0,0)" d="M166 420C187 420 203 421 229 424C118 304 76 221 76 121C76 44 122 -11 186 -11C324 -11 477 236 477 384C477 441 451 482 415 482C402 482 390 478 382 470L332 423L343 404C352 410 361 413 370 413C397 413 413 390 413 350C413 202 316 39 228 39C179 39 148 81 148 146C148 251 187 342 285 464L275 482C255 473 242 470 214 470C186 470 144 472 115 475L103 476C97 477 92 477 91 477C79 477 70 475 59 470C45 443 34 407 21 352L43 352L60 394C67 411 87 422 111 422C144 422 128 420 166 420Z" stroke="rgb(0,0,0)" stroke-opacity="1" stroke-width="8" fill="rgb(0,0,0)" fill-opacity="1"></path></g></g><g><g><g><g><g transform="matrix(1,0,0,1,11.000015258789062,63.70000305175781)"><path transform="matrix(0.0119,0,0,-0.0119,0,0)" d="M263 689C108 689 29 566 29 324C29 207 50 106 85 57C120 8 176 -20 238 -20C389 -20 465 110 465 366C465 585 400 689 263 689ZM245 654C342 654 381 556 381 316C381 103 343 15 251 15C154 15 113 116 113 360C113 571 150 654 245 654Z" stroke="rgb(0,0,0)" stroke-opacity="1" stroke-width="8" fill="rgb(0,0,0)" fill-opacity="1"></path></g></g></g></g></g><g><g transform="matrix(1,0,0,1,21.350006103515625,59.74000549316406)"><path transform="matrix(0.017,0,0,-0.017,0,0)" d="M123 111C93 111 66 83 66 53C66 23 93 -5 122 -5C154 -5 182 22 182 53C182 83 154 111 123 111ZM123 456C93 456 66 428 66 398C66 368 93 340 122 340C154 340 182 367 182 397C182 428 154 456 123 456Z" stroke="rgb(0,0,0)" stroke-opacity="1" stroke-width="8" fill="rgb(0,0,0)" fill-opacity="1"></path></g></g><g><g transform="matrix(1,0,0,1,28.985015869140625,59.74000549316406)"><path transform="matrix(0.017,0,0,-0.017,0,0)" d="M415 420C436 420 452 421 478 424C367 304 325 221 325 121C325 44 371 -11 435 -11C573 -11 726 236 726 384C726 441 700 482 664 482C651 482 639 478 631 470L581 423L592 404C601 410 610 413 619 413C646 413 662 390 662 350C662 202 565 39 477 39C428 39 397 81 397 146C397 251 436 342 534 464L524 482C504 473 491 470 463 470C435 470 393 472 364 475L352 476C346 477 341 477 340 477C328 477 319 475 308 470C294 443 283 407 270 352L292 352L309 394C316 411 336 422 360 422C393 422 377 420 415 420ZM765 152C765 46 810 -11 893 -11C948 -11 1008 15 1053 57C1115 116 1159 230 1159 331C1159 425 1109 482 1026 482C922 482 765 382 765 152ZM989 444C1050 444 1083 399 1083 315C1083 219 1052 113 1008 60C990 39 964 27 933 27C875 27 841 72 841 151C841 264 880 387 929 427C942 438 965 444 989 444ZM1442 722L1430 733C1378 707 1342 698 1270 691L1266 670L1314 670C1338 670 1348 663 1348 648C1348 645 1348 640 1345 622C1334 567 1261 182 1246 132C1233 82 1227 52 1227 31C1227 6 1238 -9 1257 -9C1283 -9 1319 12 1417 85L1407 103L1381 86C1352 67 1330 56 1320 56C1313 56 1307 66 1307 76C1307 82 1308 89 1311 104ZM1960 473L1953 482L1885 465L1875 414C1860 336 1835 268 1804 221C1745 130 1667 59 1627 59C1619 59 1614 68 1614 85C1614 99 1616 112 1621 137L1678 408C1681 424 1683 438 1683 451C1683 470 1674 482 1660 482C1640 482 1602 461 1528 408L1500 388L1507 368L1539 389C1567 407 1578 412 1587 412C1596 412 1604 403 1604 392C1604 388 1603 378 1602 374L1539 77C1537 68 1535 44 1535 30C1535 7 1550 -11 1570 -11C1633 -11 1754 101 1838 239L1801 97C1794 73 1790 46 1790 31C1790 6 1801 -9 1820 -9C1846 -9 1882 12 1980 85L1970 103L1944 86C1920 70 1894 59 1883 59C1875 59 1870 66 1870 76C1870 112 1945 416 1960 473ZM2753 103L2727 86C2698 67 2676 56 2666 56C2659 56 2653 65 2653 76C2653 86 2655 95 2660 116L2735 413C2739 430 2742 446 2742 454C2742 471 2732 482 2716 482C2687 482 2649 464 2588 421C2525 376 2490 341 2441 272L2471 409C2475 429 2478 444 2478 451C2478 470 2468 482 2452 482C2422 482 2376 460 2321 418C2277 384 2257 363 2192 275L2225 408C2229 424 2231 439 2231 451C2231 470 2222 482 2208 482C2187 482 2149 461 2075 408L2047 388L2054 368C2091 391 2126 414 2133 414C2144 414 2151 404 2151 389C2151 338 2110 145 2069 2L2072 -9L2140 6L2162 108C2186 219 2213 278 2268 338C2310 384 2355 414 2383 414C2390 414 2394 406 2394 393C2394 358 2372 244 2331 69L2315 2L2320 -9L2389 6L2410 113C2426 194 2460 269 2504 318C2559 379 2609 414 2641 414C2649 414 2654 405 2654 389C2654 365 2651 351 2629 264C2589 105 2573 84 2573 31C2573 6 2584 -9 2603 -9C2629 -9 2665 12 2763 85ZM3128 111L3104 94C3051 56 3003 36 2967 36C2920 36 2891 73 2891 133C2891 158 2894 185 2899 214C2916 218 3025 248 3050 259C3135 296 3174 342 3174 404C3174 451 3140 482 3090 482C3022 496 2912 423 2875 349C2845 299 2815 180 2815 113C2815 35 2859 -11 2931 -11C2988 -11 3044 17 3136 92ZM2913 274C2930 343 2950 386 2979 412C2997 428 3028 440 3052 440C3081 440 3100 420 3100 388C3100 344 3065 297 3013 272C2985 258 2949 247 2904 237ZM3212 388L3219 368L3251 389C3288 412 3291 414 3298 414C3309 414 3316 404 3316 389C3316 338 3275 145 3234 2L3241 -9C3266 -2 3289 4 3311 8C3330 134 3351 199 3397 268C3451 352 3526 414 3571 414C3582 414 3588 405 3588 390C3588 372 3585 351 3577 319L3525 107C3516 70 3512 47 3512 31C3512 6 3523 -9 3542 -9C3568 -9 3604 12 3702 85L3692 103L3666 86C3637 67 3615 56 3605 56C3598 56 3592 65 3592 76C3592 81 3593 92 3594 96L3660 372C3667 401 3671 429 3671 446C3671 469 3660 482 3640 482C3598 482 3529 444 3470 389C3432 354 3404 320 3352 247L3390 408C3394 426 3396 438 3396 449C3396 470 3388 482 3373 482C3352 482 3313 460 3240 408ZM4026 388L4033 368L4065 389C4102 412 4105 414 4112 414C4122 414 4130 404 4130 391C4130 384 4126 361 4122 347L4056 107C4048 76 4043 49 4043 30C4043 6 4054 -9 4073 -9C4099 -9 4135 12 4233 85L4223 103L4197 86C4168 67 4145 56 4136 56C4129 56 4123 66 4123 76C4123 86 4125 95 4130 116L4207 420C4211 437 4213 448 4213 456C4213 473 4204 482 4188 482C4166 482 4129 461 4054 408ZM4220 712C4191 712 4162 679 4162 645C4162 620 4177 604 4201 604C4232 604 4256 633 4256 671C4256 695 4241 712 4220 712ZM4293 388L4300 368L4332 389C4369 412 4372 414 4379 414C4390 414 4397 404 4397 389C4397 338 4356 145 4315 2L4322 -9C4347 -2 4370 4 4392 8C4411 134 4432 199 4478 268C4532 352 4607 414 4652 414C4663 414 4669 405 4669 390C4669 372 4666 351 4658 319L4606 107C4597 70 4593 47 4593 31C4593 6 4604 -9 4623 -9C4649 -9 4685 12 4783 85L4773 103L4747 86C4718 67 4696 56 4686 56C4679 56 4673 65 4673 76C4673 81 4674 92 4675 96L4741 372C4748 401 4752 429 4752 446C4752 469 4741 482 4721 482C4679 482 4610 444 4551 389C4513 354 4485 320 4433 247L4471 408C4475 426 4477 438 4477 449C4477 470 4469 482 4454 482C4433 482 4394 460 4321 408ZM4858 388L4865 368L4897 389C4934 412 4937 414 4944 414C4954 414 4962 404 4962 391C4962 384 4958 361 4954 347L4888 107C4880 76 4875 49 4875 30C4875 6 4886 -9 4905 -9C4931 -9 4967 12 5065 85L5055 103L5029 86C5000 67 4977 56 4968 56C4961 56 4955 66 4955 76C4955 86 4957 95 4962 116L5039 420C5043 437 5045 448 5045 456C5045 473 5036 482 5020 482C4998 482 4961 461 4886 408ZM5052 712C5023 712 4994 679 4994 645C4994 620 5009 604 5033 604C5064 604 5088 633 5088 671C5088 695 5073 712 5052 712ZM5443 330L5466 330C5474 395 5481 432 5490 458C5466 473 5431 482 5394 482C5349 483 5276 463 5219 400C5165 352 5126 241 5126 136C5126 40 5168 -11 5248 -11C5302 -11 5350 9 5405 54L5455 95L5447 115L5432 105C5360 57 5322 40 5287 40C5231 40 5202 80 5202 159C5202 267 5237 371 5286 409C5307 425 5331 433 5362 433C5407 433 5443 414 5443 390ZM5541 388L5548 368L5580 389C5617 412 5620 414 5627 414C5637 414 5645 404 5645 391C5645 384 5641 361 5637 347L5571 107C5563 76 5558 49 5558 30C5558 6 5569 -9 5588 -9C5614 -9 5650 12 5748 85L5738 103L5712 86C5683 67 5660 56 5651 56C5644 56 5638 66 5638 76C5638 86 5640 95 5645 116L5722 420C5726 437 5728 448 5728 456C5728 473 5719 482 5703 482C5681 482 5644 461 5569 408ZM5735 712C5706 712 5677 679 5677 645C5677 620 5692 604 5716 604C5747 604 5771 633 5771 671C5771 695 5756 712 5735 712ZM6055 204L6026 77C6022 60 6020 42 6020 26C6020 4 6029 -9 6044 -9C6067 -9 6108 17 6190 85L6183 106C6159 86 6130 59 6108 59C6099 59 6093 68 6093 82C6093 87 6093 90 6094 93L6186 472L6176 481L6143 463C6102 478 6085 482 6058 482C6030 482 6010 477 5983 464C5921 433 5888 403 5863 354C5819 265 5788 145 5788 67C5788 23 5803 -11 5822 -11C5859 -11 5939 41 6055 204ZM6103 414C6081 305 6062 253 6028 201C5971 117 5910 59 5878 59C5866 59 5860 72 5860 99C5860 163 5888 280 5923 360C5947 415 5970 433 6018 433C6041 433 6059 429 6103 414ZM6478 722L6466 733C6414 707 6378 698 6306 691L6302 670L6350 670C6374 670 6384 663 6384 648C6384 645 6384 640 6381 622C6370 567 6297 182 6282 132C6269 82 6263 52 6263 31C6263 6 6274 -9 6293 -9C6319 -9 6355 12 6453 85L6443 103L6417 86C6388 67 6366 56 6356 56C6349 56 6343 66 6343 76C6343 82 6344 89 6347 104Z" stroke="rgb(0,0,0)" stroke-opacity="1" stroke-width="8" fill="rgb(0,0,0)" fill-opacity="1"></path></g></g></g><g><g><g transform="matrix(1,0,0,1,2,81.27999877929688)"><path transform="matrix(0.017,0,0,-0.017,0,0)" d="M154 473C89 473 51 426 18 377C18 371 27 368 30 365L30 366C54 394 74 412 111 412C206 412 215 290 214 220C212 136 203 53 186 -29C140 -86 92 -181 65 -249C69 -257 74 -265 77 -273C98 -268 119 -260 139 -251C165 -183 189 -106 203 -36C387 199 540 317 547 438C550 493 485 453 459 446L459 435C502 284 287 130 220 19L220 23C302 358 258 473 154 473Z" stroke="rgb(0,0,0)" stroke-opacity="1" stroke-width="8" fill="rgb(0,0,0)" fill-opacity="1"></path></g></g><g><g transform="matrix(1,0,0,1,15.275009155273438,81.27999877929688)"><path transform="matrix(0.017,0,0,-0.017,0,0)" d="M123 111C93 111 66 83 66 53C66 23 93 -5 122 -5C154 -5 182 22 182 53C182 83 154 111 123 111ZM123 456C93 456 66 428 66 398C66 368 93 340 122 340C154 340 182 367 182 397C182 428 154 456 123 456Z" stroke="rgb(0,0,0)" stroke-opacity="1" stroke-width="8" fill="rgb(0,0,0)" fill-opacity="1"></path></g></g><g><g transform="matrix(1,0,0,1,22.910003662109375,81.27999877929688)"><path transform="matrix(0.017,0,0,-0.017,0,0)" d="M342 330L365 330C373 395 380 432 389 458C365 473 330 482 293 482C248 483 175 463 118 400C64 352 25 241 25 136C25 40 67 -11 147 -11C201 -11 249 9 304 54L354 95L346 115L331 105C259 57 221 40 186 40C130 40 101 80 101 159C101 267 136 371 185 409C206 425 230 433 261 433C306 433 342 414 342 390ZM423 152C423 46 468 -11 551 -11C606 -11 666 15 711 57C773 116 817 230 817 331C817 425 767 482 684 482C580 482 423 382 423 152ZM647 444C708 444 741 399 741 315C741 219 710 113 666 60C648 39 622 27 591 27C533 27 499 72 499 151C499 264 538 387 587 427C600 438 623 444 647 444ZM1177 111L1153 94C1100 56 1052 36 1016 36C969 36 940 73 940 133C940 158 943 185 948 214C965 218 1074 248 1099 259C1184 296 1223 342 1223 404C1223 451 1189 482 1139 482C1071 496 961 423 924 349C894 299 864 180 864 113C864 35 908 -11 980 -11C1037 -11 1093 17 1185 92ZM962 274C979 343 999 386 1028 412C1046 428 1077 440 1101 440C1130 440 1149 420 1149 388C1149 344 1114 297 1062 272C1034 258 998 247 953 237ZM1582 437L1566 437L1587 549C1603 635 1631 673 1677 673C1707 673 1734 658 1749 634L1759 638C1764 654 1774 685 1782 705L1787 720C1771 727 1740 733 1717 733C1706 733 1690 730 1682 726C1658 715 1576 654 1553 630C1531 608 1519 578 1508 521L1493 442C1452 422 1432 414 1407 405L1402 383L1483 383L1474 327C1444 132 1407 -54 1385 -123C1367 -182 1337 -213 1301 -213C1278 -213 1267 -206 1249 -184L1235 -188C1231 -211 1217 -259 1212 -268C1221 -273 1236 -276 1247 -276C1288 -276 1342 -245 1381 -198C1452 -114 1472 -18 1556 383L1660 383C1664 402 1671 425 1677 439L1673 446C1644 439 1645 437 1582 437Z" stroke="rgb(0,0,0)" stroke-opacity="1" stroke-width="8" fill="rgb(0,0,0)" fill-opacity="1"></path></g></g><g><g transform="matrix(1,0,0,1,53.285003662109375,81.27999877929688)"><path transform="matrix(0.017,0,0,-0.017,0,0)" d="M124 111C94 111 67 83 67 53C67 23 94 -5 123 -5C155 -5 183 22 183 53C183 83 155 111 124 111Z" stroke="rgb(0,0,0)" stroke-opacity="1" stroke-width="8" fill="rgb(0,0,0)" fill-opacity="1"></path></g></g><g><g transform="matrix(1,0,0,1,60.920013427734375,81.27999877929688)"><path transform="matrix(0.017,0,0,-0.017,0,0)" d="M483 722L471 733C419 707 383 698 311 691L307 670L355 670C379 670 389 663 389 646C389 638 388 629 387 622L359 468C329 477 302 482 277 482C208 482 114 410 68 323C37 265 17 170 17 86C17 21 32 -11 61 -11C88 -11 125 6 159 33C213 77 246 116 313 217L290 126C279 82 274 50 274 24C274 3 283 -9 300 -9C317 -9 341 3 375 28L456 88L446 107L402 76C388 66 372 59 363 59C355 59 349 68 349 82C349 90 350 99 357 128ZM114 59C98 59 89 73 89 98C89 224 135 380 184 418C197 428 216 433 243 433C287 433 316 427 349 410L337 351C300 171 159 59 114 59ZM533 388L540 368L572 389C609 412 612 414 619 414C629 414 637 404 637 391C637 384 633 361 629 347L563 107C555 76 550 49 550 30C550 6 561 -9 580 -9C606 -9 642 12 740 85L730 103L704 86C675 67 652 56 643 56C636 56 630 66 630 76C630 86 632 95 637 116L714 420C718 437 720 448 720 456C720 473 711 482 695 482C673 482 636 461 561 408ZM727 712C698 712 669 679 669 645C669 620 684 604 708 604C739 604 763 633 763 671C763 695 748 712 727 712ZM1027 722L1015 733C963 707 927 698 855 691L851 670L899 670C923 670 933 663 933 648C933 645 933 640 930 622C919 567 846 182 831 132C818 82 812 52 812 31C812 6 823 -9 842 -9C868 -9 904 12 1002 85L992 103L966 86C937 67 915 56 905 56C898 56 892 66 892 76C892 82 893 89 896 104ZM1324 204L1295 77C1291 60 1289 42 1289 26C1289 4 1298 -9 1313 -9C1336 -9 1377 17 1459 85L1452 106C1428 86 1399 59 1377 59C1368 59 1362 68 1362 82C1362 87 1362 90 1363 93L1455 472L1445 481L1412 463C1371 478 1354 482 1327 482C1299 482 1279 477 1252 464C1190 433 1157 403 1132 354C1088 265 1057 145 1057 67C1057 23 1072 -11 1091 -11C1128 -11 1208 41 1324 204ZM1372 414C1350 305 1331 253 1297 201C1240 117 1179 59 1147 59C1135 59 1129 72 1129 99C1129 163 1157 280 1192 360C1216 415 1239 433 1287 433C1310 433 1328 429 1372 414ZM1621 390L1565 107C1564 99 1552 61 1552 31C1552 6 1563 -9 1582 -9C1617 -9 1652 11 1730 74L1761 99L1751 117L1706 86C1677 66 1657 56 1646 56C1637 56 1632 64 1632 76C1632 102 1646 183 1675 328L1688 390L1795 390L1806 440C1768 436 1734 434 1696 434C1712 528 1723 577 1741 631L1730 646C1710 634 1683 622 1652 610L1627 440C1583 419 1557 408 1539 403L1537 390ZM2099 204L2070 77C2066 60 2064 42 2064 26C2064 4 2073 -9 2088 -9C2111 -9 2152 17 2234 85L2227 106C2203 86 2174 59 2152 59C2143 59 2137 68 2137 82C2137 87 2137 90 2138 93L2230 472L2220 481L2187 463C2146 478 2129 482 2102 482C2074 482 2054 477 2027 464C1965 433 1932 403 1907 354C1863 265 1832 145 1832 67C1832 23 1847 -11 1866 -11C1903 -11 1983 41 2099 204ZM2147 414C2125 305 2106 253 2072 201C2015 117 1954 59 1922 59C1910 59 1904 72 1904 99C1904 163 1932 280 1967 360C1991 415 2014 433 2062 433C2085 433 2103 429 2147 414ZM2613 330L2636 330C2644 395 2651 432 2660 458C2636 473 2601 482 2564 482C2519 483 2446 463 2389 400C2335 352 2296 241 2296 136C2296 40 2338 -11 2418 -11C2472 -11 2520 9 2575 54L2625 95L2617 115L2602 105C2530 57 2492 40 2457 40C2401 40 2372 80 2372 159C2372 267 2407 371 2456 409C2477 425 2501 433 2532 433C2577 433 2613 414 2613 390ZM2711 388L2718 368L2750 389C2787 412 2790 414 2797 414C2807 414 2815 404 2815 391C2815 384 2811 361 2807 347L2741 107C2733 76 2728 49 2728 30C2728 6 2739 -9 2758 -9C2784 -9 2820 12 2918 85L2908 103L2882 86C2853 67 2830 56 2821 56C2814 56 2808 66 2808 76C2808 86 2810 95 2815 116L2892 420C2896 437 2898 448 2898 456C2898 473 2889 482 2873 482C2851 482 2814 461 2739 408ZM2905 712C2876 712 2847 679 2847 645C2847 620 2862 604 2886 604C2917 604 2941 633 2941 671C2941 695 2926 712 2905 712ZM2971 152C2971 46 3016 -11 3099 -11C3154 -11 3214 15 3259 57C3321 116 3365 230 3365 331C3365 425 3315 482 3232 482C3128 482 2971 382 2971 152ZM3195 444C3256 444 3289 399 3289 315C3289 219 3258 113 3214 60C3196 39 3170 27 3139 27C3081 27 3047 72 3047 151C3047 264 3086 387 3135 427C3148 438 3171 444 3195 444ZM3421 388L3428 368L3460 389C3497 412 3500 414 3507 414C3518 414 3525 404 3525 389C3525 338 3484 145 3443 2L3450 -9C3475 -2 3498 4 3520 8C3539 134 3560 199 3606 268C3660 352 3735 414 3780 414C3791 414 3797 405 3797 390C3797 372 3794 351 3786 319L3734 107C3725 70 3721 47 3721 31C3721 6 3732 -9 3751 -9C3777 -9 3813 12 3911 85L3901 103L3875 86C3846 67 3824 56 3814 56C3807 56 3801 65 3801 76C3801 81 3802 92 3803 96L3869 372C3876 401 3880 429 3880 446C3880 469 3869 482 3849 482C3807 482 3738 444 3679 389C3641 354 3613 320 3561 247L3599 408C3603 426 3605 438 3605 449C3605 470 3597 482 3582 482C3561 482 3522 460 3449 408ZM4367 420C4388 420 4404 421 4430 424C4319 304 4277 221 4277 121C4277 44 4323 -11 4387 -11C4525 -11 4678 236 4678 384C4678 441 4652 482 4616 482C4603 482 4591 478 4583 470L4533 423L4544 404C4553 410 4562 413 4571 413C4598 413 4614 390 4614 350C4614 202 4517 39 4429 39C4380 39 4349 81 4349 146C4349 251 4388 342 4486 464L4476 482C4456 473 4443 470 4415 470C4387 470 4345 472 4316 475L4304 476C4298 477 4293 477 4292 477C4280 477 4271 475 4260 470C4246 443 4235 407 4222 352L4244 352L4261 394C4268 411 4288 422 4312 422C4345 422 4329 420 4367 420ZM4717 152C4717 46 4762 -11 4845 -11C4900 -11 4960 15 5005 57C5067 116 5111 230 5111 331C5111 425 5061 482 4978 482C4874 482 4717 382 4717 152ZM4941 444C5002 444 5035 399 5035 315C5035 219 5004 113 4960 60C4942 39 4916 27 4885 27C4827 27 4793 72 4793 151C4793 264 4832 387 4881 427C4894 438 4917 444 4941 444ZM5394 722L5382 733C5330 707 5294 698 5222 691L5218 670L5266 670C5290 670 5300 663 5300 648C5300 645 5300 640 5297 622C5286 567 5213 182 5198 132C5185 82 5179 52 5179 31C5179 6 5190 -9 5209 -9C5235 -9 5271 12 5369 85L5359 103L5333 86C5304 67 5282 56 5272 56C5265 56 5259 66 5259 76C5259 82 5260 89 5263 104ZM5912 473L5905 482L5837 465L5827 414C5812 336 5787 268 5756 221C5697 130 5619 59 5579 59C5571 59 5566 68 5566 85C5566 99 5568 112 5573 137L5630 408C5633 424 5635 438 5635 451C5635 470 5626 482 5612 482C5592 482 5554 461 5480 408L5452 388L5459 368L5491 389C5519 407 5530 412 5539 412C5548 412 5556 403 5556 392C5556 388 5555 378 5554 374L5491 77C5489 68 5487 44 5487 30C5487 7 5502 -11 5522 -11C5585 -11 5706 101 5790 239L5753 97C5746 73 5742 46 5742 31C5742 6 5753 -9 5772 -9C5798 -9 5834 12 5932 85L5922 103L5896 86C5872 70 5846 59 5835 59C5827 59 5822 66 5822 76C5822 112 5897 416 5912 473ZM6705 103L6679 86C6650 67 6628 56 6618 56C6611 56 6605 65 6605 76C6605 86 6607 95 6612 116L6687 413C6691 430 6694 446 6694 454C6694 471 6684 482 6668 482C6639 482 6601 464 6540 421C6477 376 6442 341 6393 272L6423 409C6427 429 6430 444 6430 451C6430 470 6420 482 6404 482C6374 482 6328 460 6273 418C6229 384 6209 363 6144 275L6177 408C6181 424 6183 439 6183 451C6183 470 6174 482 6160 482C6139 482 6101 461 6027 408L5999 388L6006 368C6043 391 6078 414 6085 414C6096 414 6103 404 6103 389C6103 338 6062 145 6021 2L6024 -9L6092 6L6114 108C6138 219 6165 278 6220 338C6262 384 6307 414 6335 414C6342 414 6346 406 6346 393C6346 358 6324 244 6283 69L6267 2L6272 -9L6341 6L6362 113C6378 194 6412 269 6456 318C6511 379 6561 414 6593 414C6601 414 6606 405 6606 389C6606 365 6603 351 6581 264C6541 105 6525 84 6525 31C6525 6 6536 -9 6555 -9C6581 -9 6617 12 6715 85ZM7080 111L7056 94C7003 56 6955 36 6919 36C6872 36 6843 73 6843 133C6843 158 6846 185 6851 214C6868 218 6977 248 7002 259C7087 296 7126 342 7126 404C7126 451 7092 482 7042 482C6974 496 6864 423 6827 349C6797 299 6767 180 6767 113C6767 35 6811 -11 6883 -11C6940 -11 6996 17 7088 92ZM6865 274C6882 343 6902 386 6931 412C6949 428 6980 440 7004 440C7033 440 7052 420 7052 388C7052 344 7017 297 6965 272C6937 258 6901 247 6856 237ZM7265 390L7209 107C7208 99 7196 61 7196 31C7196 6 7207 -9 7226 -9C7261 -9 7296 11 7374 74L7405 99L7395 117L7350 86C7321 66 7301 56 7290 56C7281 56 7276 64 7276 76C7276 102 7290 183 7319 328L7332 390L7439 390L7450 440C7412 436 7378 434 7340 434C7356 528 7367 577 7385 631L7374 646C7354 634 7327 622 7296 610L7271 440C7227 419 7201 408 7183 403L7181 390ZM7840 365C7843 403 7848 435 7856 476C7845 481 7841 482 7836 482C7805 482 7774 458 7738 407C7699 351 7660 291 7644 256L7676 408C7680 425 7682 438 7682 450C7682 470 7674 482 7659 482C7638 482 7600 461 7526 408L7498 388L7505 368L7537 389C7565 407 7576 412 7585 412C7595 412 7602 403 7602 390C7602 332 7559 126 7519 -2L7529 -9C7544 -4 7560 -1 7583 4L7596 6L7622 126C7640 209 7663 262 7707 319C7741 363 7768 384 7790 384C7805 384 7815 379 7826 365ZM7894 388L7901 368L7933 389C7970 412 7973 414 7980 414C7990 414 7998 404 7998 391C7998 384 7994 361 7990 347L7924 107C7916 76 7911 49 7911 30C7911 6 7922 -9 7941 -9C7967 -9 8003 12 8101 85L8091 103L8065 86C8036 67 8013 56 8004 56C7997 56 7991 66 7991 76C7991 86 7993 95 7998 116L8075 420C8079 437 8081 448 8081 456C8081 473 8072 482 8056 482C8034 482 7997 461 7922 408ZM8088 712C8059 712 8030 679 8030 645C8030 620 8045 604 8069 604C8100 604 8124 633 8124 671C8124 695 8109 712 8088 712ZM8479 330L8502 330C8510 395 8517 432 8526 458C8502 473 8467 482 8430 482C8385 483 8312 463 8255 400C8201 352 8162 241 8162 136C8162 40 8204 -11 8284 -11C8338 -11 8386 9 8441 54L8491 95L8483 115L8468 105C8396 57 8358 40 8323 40C8267 40 8238 80 8238 159C8238 267 8273 371 8322 409C8343 425 8367 433 8398 433C8443 433 8479 414 8479 390ZM8814 204L8785 77C8781 60 8779 42 8779 26C8779 4 8788 -9 8803 -9C8826 -9 8867 17 8949 85L8942 106C8918 86 8889 59 8867 59C8858 59 8852 68 8852 82C8852 87 8852 90 8853 93L8945 472L8935 481L8902 463C8861 478 8844 482 8817 482C8789 482 8769 477 8742 464C8680 433 8647 403 8622 354C8578 265 8547 145 8547 67C8547 23 8562 -11 8581 -11C8618 -11 8698 41 8814 204ZM8862 414C8840 305 8821 253 8787 201C8730 117 8669 59 8637 59C8625 59 8619 72 8619 99C8619 163 8647 280 8682 360C8706 415 8729 433 8777 433C8800 433 8818 429 8862 414Z" stroke="rgb(0,0,0)" stroke-opacity="1" stroke-width="8" fill="rgb(0,0,0)" fill-opacity="1"></path></g></g></g><g><g><g transform="matrix(1,0,0,1,2,101.44000244140625)"><path transform="matrix(0.017,0,0,-0.017,0,0)" d="M662 6L655 -4C549 0 443 0 336 0C235 0 134 -1 33 -4L27 6C88 116 136 238 186 354C235 466 288 580 327 697L352 697C395 590 597 128 662 6ZM584 37C518 215 447 389 371 564L364 564C289 391 217 215 152 37Z" stroke="rgb(0,0,0)" stroke-opacity="1" stroke-width="8" fill="rgb(0,0,0)" fill-opacity="1"></path></g></g><g><g transform="matrix(1,0,0,1,13.70001220703125,101.44000244140625)"><path transform="matrix(0.017,0,0,-0.017,0,0)" d="M390 646L463 646C541 646 577 641 580 629C583 621 585 602 584 592L580 528L608 528L635 692L544 691C456 690 388 689 353 689C316 689 252 690 166 691L71 692L53 528L82 528L97 588C102 610 109 626 115 633C121 640 159 646 196 646L308 646L222 125C206 34 204 31 164 28L113 25L109 -3L166 -2C206 -1 235 0 251 0C270 0 301 -1 340 -2L384 -3L387 25L328 28C302 29 292 37 292 58C292 67 293 74 296 93Z" stroke="rgb(0,0,0)" stroke-opacity="1" stroke-width="8" fill="rgb(0,0,0)" fill-opacity="1"></path></g></g><g><g transform="matrix(1,0,0,1,27.470001220703125,101.44000244140625)"><path transform="matrix(0.017,0,0,-0.017,0,0)" d="M123 111C93 111 66 83 66 53C66 23 93 -5 122 -5C154 -5 182 22 182 53C182 83 154 111 123 111ZM123 456C93 456 66 428 66 398C66 368 93 340 122 340C154 340 182 367 182 397C182 428 154 456 123 456Z" stroke="rgb(0,0,0)" stroke-opacity="1" stroke-width="8" fill="rgb(0,0,0)" fill-opacity="1"></path></g></g><g><g transform="matrix(1,0,0,1,35.105010986328125,101.44000244140625)"><path transform="matrix(0.017,0,0,-0.017,0,0)" d="M166 420C187 420 203 421 229 424C118 304 76 221 76 121C76 44 122 -11 186 -11C324 -11 477 236 477 384C477 441 451 482 415 482C402 482 390 478 382 470L332 423L343 404C352 410 361 413 370 413C397 413 413 390 413 350C413 202 316 39 228 39C179 39 148 81 148 146C148 251 187 342 285 464L275 482C255 473 242 470 214 470C186 470 144 472 115 475L103 476C97 477 92 477 91 477C79 477 70 475 59 470C45 443 34 407 21 352L43 352L60 394C67 411 87 422 111 422C144 422 128 420 166 420ZM770 204L741 77C737 60 735 42 735 26C735 4 744 -9 759 -9C782 -9 823 17 905 85L898 106C874 86 845 59 823 59C814 59 808 68 808 82C808 87 808 90 809 93L901 472L891 481L858 463C817 478 800 482 773 482C745 482 725 477 698 464C636 433 603 403 578 354C534 265 503 145 503 67C503 23 518 -11 537 -11C574 -11 654 41 770 204ZM818 414C796 305 777 253 743 201C686 117 625 59 593 59C581 59 575 72 575 99C575 163 603 280 638 360C662 415 685 433 733 433C756 433 774 429 818 414ZM1310 365C1313 403 1318 435 1326 476C1315 481 1311 482 1306 482C1275 482 1244 458 1208 407C1169 351 1130 291 1114 256L1146 408C1150 425 1152 438 1152 450C1152 470 1144 482 1129 482C1108 482 1070 461 996 408L968 388L975 368L1007 389C1035 407 1046 412 1055 412C1065 412 1072 403 1072 390C1072 332 1029 126 989 -2L999 -9C1014 -4 1030 -1 1053 4L1066 6L1092 126C1110 209 1133 262 1177 319C1211 363 1238 384 1260 384C1275 384 1285 379 1296 365ZM1364 388L1371 368L1403 389C1440 412 1443 414 1450 414C1460 414 1468 404 1468 391C1468 384 1464 361 1460 347L1394 107C1386 76 1381 49 1381 30C1381 6 1392 -9 1411 -9C1437 -9 1473 12 1571 85L1561 103L1535 86C1506 67 1483 56 1474 56C1467 56 1461 66 1461 76C1461 86 1463 95 1468 116L1545 420C1549 437 1551 448 1551 456C1551 473 1542 482 1526 482C1504 482 1467 461 1392 408ZM1558 712C1529 712 1500 679 1500 645C1500 620 1515 604 1539 604C1570 604 1594 633 1594 671C1594 695 1579 712 1558 712ZM1878 204L1849 77C1845 60 1843 42 1843 26C1843 4 1852 -9 1867 -9C1890 -9 1931 17 2013 85L2006 106C1982 86 1953 59 1931 59C1922 59 1916 68 1916 82C1916 87 1916 90 1917 93L2009 472L1999 481L1966 463C1925 478 1908 482 1881 482C1853 482 1833 477 1806 464C1744 433 1711 403 1686 354C1642 265 1611 145 1611 67C1611 23 1626 -11 1645 -11C1682 -11 1762 41 1878 204ZM1926 414C1904 305 1885 253 1851 201C1794 117 1733 59 1701 59C1689 59 1683 72 1683 99C1683 163 1711 280 1746 360C1770 415 1793 433 1841 433C1864 433 1882 429 1926 414ZM2392 330L2415 330C2423 395 2430 432 2439 458C2415 473 2380 482 2343 482C2298 483 2225 463 2168 400C2114 352 2075 241 2075 136C2075 40 2117 -11 2197 -11C2251 -11 2299 9 2354 54L2404 95L2396 115L2381 105C2309 57 2271 40 2236 40C2180 40 2151 80 2151 159C2151 267 2186 371 2235 409C2256 425 2280 433 2311 433C2356 433 2392 414 2392 390ZM2490 388L2497 368L2529 389C2566 412 2569 414 2576 414C2586 414 2594 404 2594 391C2594 384 2590 361 2586 347L2520 107C2512 76 2507 49 2507 30C2507 6 2518 -9 2537 -9C2563 -9 2599 12 2697 85L2687 103L2661 86C2632 67 2609 56 2600 56C2593 56 2587 66 2587 76C2587 86 2589 95 2594 116L2671 420C2675 437 2677 448 2677 456C2677 473 2668 482 2652 482C2630 482 2593 461 2518 408ZM2684 712C2655 712 2626 679 2626 645C2626 620 2641 604 2665 604C2696 604 2720 633 2720 671C2720 695 2705 712 2684 712ZM2750 152C2750 46 2795 -11 2878 -11C2933 -11 2993 15 3038 57C3100 116 3144 230 3144 331C3144 425 3094 482 3011 482C2907 482 2750 382 2750 152ZM2974 444C3035 444 3068 399 3068 315C3068 219 3037 113 2993 60C2975 39 2949 27 2918 27C2860 27 2826 72 2826 151C2826 264 2865 387 2914 427C2927 438 2950 444 2974 444ZM3200 388L3207 368L3239 389C3276 412 3279 414 3286 414C3297 414 3304 404 3304 389C3304 338 3263 145 3222 2L3229 -9C3254 -2 3277 4 3299 8C3318 134 3339 199 3385 268C3439 352 3514 414 3559 414C3570 414 3576 405 3576 390C3576 372 3573 351 3565 319L3513 107C3504 70 3500 47 3500 31C3500 6 3511 -9 3530 -9C3556 -9 3592 12 3690 85L3680 103L3654 86C3625 67 3603 56 3593 56C3586 56 3580 65 3580 76C3580 81 3581 92 3582 96L3648 372C3655 401 3659 429 3659 446C3659 469 3648 482 3628 482C3586 482 3517 444 3458 389C3420 354 3392 320 3340 247L3378 408C3382 426 3384 438 3384 449C3384 470 3376 482 3361 482C3340 482 3301 460 3228 408ZM4463 722L4451 733C4399 707 4363 698 4291 691L4287 670L4335 670C4359 670 4369 663 4369 646C4369 638 4368 629 4367 622L4339 468C4309 477 4282 482 4257 482C4188 482 4094 410 4048 323C4017 265 3997 170 3997 86C3997 21 4012 -11 4041 -11C4068 -11 4105 6 4139 33C4193 77 4226 116 4293 217L4270 126C4259 82 4254 50 4254 24C4254 3 4263 -9 4280 -9C4297 -9 4321 3 4355 28L4436 88L4426 107L4382 76C4368 66 4352 59 4343 59C4335 59 4329 68 4329 82C4329 90 4330 99 4337 128ZM4094 59C4078 59 4069 73 4069 98C4069 224 4115 380 4164 418C4177 428 4196 433 4223 433C4267 433 4296 427 4329 410L4317 351C4280 171 4139 59 4094 59ZM4807 111L4783 94C4730 56 4682 36 4646 36C4599 36 4570 73 4570 133C4570 158 4573 185 4578 214C4595 218 4704 248 4729 259C4814 296 4853 342 4853 404C4853 451 4819 482 4769 482C4701 496 4591 423 4554 349C4524 299 4494 180 4494 113C4494 35 4538 -11 4610 -11C4667 -11 4723 17 4815 92ZM4592 274C4609 343 4629 386 4658 412C4676 428 4707 440 4731 440C4760 440 4779 420 4779 388C4779 344 4744 297 4692 272C4664 258 4628 247 4583 237ZM5241 390L5185 107C5184 99 5172 61 5172 31C5172 6 5183 -9 5202 -9C5237 -9 5272 11 5350 74L5381 99L5371 117L5326 86C5297 66 5277 56 5266 56C5257 56 5252 64 5252 76C5252 102 5266 183 5295 328L5308 390L5415 390L5426 440C5388 436 5354 434 5316 434C5332 528 5343 577 5361 631L5350 646C5330 634 5303 622 5272 610L5247 440C5203 419 5177 408 5159 403L5157 390ZM5776 111L5752 94C5699 56 5651 36 5615 36C5568 36 5539 73 5539 133C5539 158 5542 185 5547 214C5564 218 5673 248 5698 259C5783 296 5822 342 5822 404C5822 451 5788 482 5738 482C5670 496 5560 423 5523 349C5493 299 5463 180 5463 113C5463 35 5507 -11 5579 -11C5636 -11 5692 17 5784 92ZM5561 274C5578 343 5598 386 5627 412C5645 428 5676 440 5700 440C5729 440 5748 420 5748 388C5748 344 5713 297 5661 272C5633 258 5597 247 5552 237ZM6566 103L6540 86C6511 67 6489 56 6479 56C6472 56 6466 65 6466 76C6466 86 6468 95 6473 116L6548 413C6552 430 6555 446 6555 454C6555 471 6545 482 6529 482C6500 482 6462 464 6401 421C6338 376 6303 341 6254 272L6284 409C6288 429 6291 444 6291 451C6291 470 6281 482 6265 482C6235 482 6189 460 6134 418C6090 384 6070 363 6005 275L6038 408C6042 424 6044 439 6044 451C6044 470 6035 482 6021 482C6000 482 5962 461 5888 408L5860 388L5867 368C5904 391 5939 414 5946 414C5957 414 5964 404 5964 389C5964 338 5923 145 5882 2L5885 -9L5953 6L5975 108C5999 219 6026 278 6081 338C6123 384 6168 414 6196 414C6203 414 6207 406 6207 393C6207 358 6185 244 6144 69L6128 2L6133 -9L6202 6L6223 113C6239 194 6273 269 6317 318C6372 379 6422 414 6454 414C6462 414 6467 405 6467 389C6467 365 6464 351 6442 264C6402 105 6386 84 6386 31C6386 6 6397 -9 6416 -9C6442 -9 6478 12 6576 85ZM6789 -11C6845 -11 6960 62 7003 125C7044 186 7078 296 7078 371C7078 438 7055 482 7019 482C6977 482 6924 456 6872 409C6831 374 6811 348 6775 289L6799 408C6802 425 6804 440 6804 452C6804 471 6796 482 6782 482C6761 482 6723 461 6649 408L6621 388L6628 368L6660 389C6688 407 6699 412 6708 412C6718 412 6725 403 6725 389C6725 381 6723 361 6721 351L6663 8C6653 -52 6634 -143 6614 -233L6606 -270L6613 -276C6634 -269 6654 -264 6686 -259L6728 3C6749 -4 6771 -11 6789 -11ZM6756 165C6778 293 6885 424 6968 424C6994 424 7006 402 7006 356C7006 275 6966 156 6913 80C6893 51 6861 36 6820 36C6789 36 6764 43 6738 59Z" stroke="rgb(0,0,0)" stroke-opacity="1" stroke-width="8" fill="rgb(0,0,0)" fill-opacity="1"></path></g></g><g><g transform="matrix(1,0,0,1,160.19000244140625,102.39999389648438)"><path transform="matrix(0.017,0,0,-0.017,0,0)" d="M146 266C146 526 243 632 301 700L282 726C225 675 60 542 60 266C60 159 85 58 133 -32C168 -99 200 -138 282 -215L301 -194C255 -137 146 -15 146 266Z" stroke="rgb(0,0,0)" stroke-opacity="1" stroke-width="8" fill="rgb(0,0,0)" fill-opacity="1"></path></g></g><g><g transform="matrix(1,0,0,1,165.84500122070312,101.44000244140625)"><path transform="matrix(0.017,0,0,-0.017,0,0)" d="M199 689C117 689 50 622 50 539C50 456 117 389 200 389C281 389 350 457 350 537C350 621 283 689 199 689ZM199 649C260 649 310 599 310 537C310 479 260 429 200 429C139 429 90 478 90 539C90 600 139 649 199 649ZM445 284C445 90 552 -18 743 -18C839 -18 910 5 1000 67C1000 67 1010 103 1010 103C1010 103 1000 110 1000 110C906 53 854 35 776 35C619 35 533 131 533 309C533 447 590 653 818 653C889 653 941 639 997 603L997 519L1024 519C1029 576 1037 619 1051 665C975 694 918 706 856 706C676 706 445 578 445 284Z" stroke="rgb(0,0,0)" stroke-opacity="1" stroke-width="8" fill="rgb(0,0,0)" fill-opacity="1"></path></g></g><g><g transform="matrix(1,0,0,1,184.32501220703125,102.39999389648438)"><path transform="matrix(0.017,0,0,-0.017,0,0)" d="M51 726L32 700C87 636 187 526 187 266C187 -10 83 -131 32 -194L51 -215C104 -165 273 -23 273 265C273 542 108 675 51 726Z" stroke="rgb(0,0,0)" stroke-opacity="1" stroke-width="8" fill="rgb(0,0,0)" fill-opacity="1"></path></g></g></g></g></svg>