<svg xmlns="http://www.w3.org/2000/svg" xmlns:xlink="http://www.w3.org/1999/xlink" width="167.27500915527344" height="166.04501342773438" style="width:167.27500915527344px;height:166.04501342773438px;font-family:Asana-Math, Asana;background:#FFF;"><g><g><g><g transform="matrix(1,0,0,1,2,18.80500030517578)"><path transform="matrix(0.017,0,0,-0.017,0,0)" d="M27 6L34 -4C140 0 246 0 353 0C454 0 555 -1 656 -4L662 6L362 697L337 697C294 590 92 128 27 6ZM537 37L105 37C171 215 242 389 318 564L325 564C400 391 472 215 537 37Z" stroke="rgb(0,0,0)" stroke-opacity="1" stroke-width="8" fill="rgb(0,0,0)" fill-opacity="1"></path></g></g><g><g transform="matrix(1,0,0,1,18.79998779296875,18.80500030517578)"><path transform="matrix(0.017,0,0,-0.017,0,0)" d="M604 347L604 406L65 406L65 347ZM604 134L604 193L65 193L65 134Z" stroke="rgb(0,0,0)" stroke-opacity="1" stroke-width="8" fill="rgb(0,0,0)" fill-opacity="1"></path></g></g><g><g transform="matrix(1,0,0,1,35.2550048828125,18.80500030517578)"><path transform="matrix(0.017,0,0,-0.017,0,0)" d="M235 722L223 733C171 707 135 698 63 691L59 670L107 670C131 670 141 663 141 646C141 639 140 628 139 622L38 71C37 68 37 64 37 61C37 22 85 -11 140 -11C177 -11 228 8 271 39C367 107 433 244 433 376C433 414 424 453 412 468C405 477 392 482 377 482C353 482 323 474 295 460C244 433 211 403 149 324ZM322 424C348 424 361 401 361 352C361 288 340 202 310 137C277 68 237 36 183 36C137 36 112 59 112 101C112 135 127 276 208 361C241 395 293 424 322 424Z" stroke="rgb(0,0,0)" stroke-opacity="1" stroke-width="8" fill="rgb(0,0,0)" fill-opacity="1"></path></g></g><g><g><g><g><g transform="matrix(1,0,0,1,44.089996337890625,13.9)"><path transform="matrix(0.0119,0,0,-0.0119,0,0)" d="M16 23L16 -3C203 -3 203 0 239 0C275 0 275 -3 468 -3L468 82C353 77 307 81 122 77L304 270C401 373 431 428 431 503C431 618 353 689 226 689C154 689 105 669 56 619L39 483L68 483L81 529C97 587 133 612 200 612C286 612 341 558 341 473C341 398 299 324 186 204Z" stroke="rgb(0,0,0)" stroke-opacity="1" stroke-width="8" fill="rgb(0,0,0)" fill-opacity="1"></path></g></g></g></g></g><g><g transform="matrix(1,0,0,1,54.44000244140625,18.80500030517578)"><path transform="matrix(0.017,0,0,-0.017,0,0)" d="M555 243L555 299L51 299L51 243Z" stroke="rgb(0,0,0)" stroke-opacity="1" stroke-width="8" fill="rgb(0,0,0)" fill-opacity="1"></path></g></g><g><g transform="matrix(1,0,0,1,68.1199951171875,18.80500030517578)"><path transform="matrix(0.017,0,0,-0.017,0,0)" d="M280 181L280 106C280 46 269 32 220 30L158 27L158 -3C291 0 291 0 315 0C339 0 339 0 472 -3L472 27L424 30C375 33 364 46 364 106L364 181C423 181 444 180 472 177L472 248L364 245L365 697L285 667L2 204L2 181ZM280 245L65 245L280 597ZM770 204L741 77C737 60 735 42 735 26C735 4 744 -9 759 -9C782 -9 823 17 905 85L898 106C874 86 845 59 823 59C814 59 808 68 808 82C808 87 808 90 809 93L901 472L891 481L858 463C817 478 800 482 773 482C745 482 725 477 698 464C636 433 603 403 578 354C534 265 503 145 503 67C503 23 518 -11 537 -11C574 -11 654 41 770 204ZM818 414C796 305 777 253 743 201C686 117 625 59 593 59C581 59 575 72 575 99C575 163 603 280 638 360C662 415 685 433 733 433C756 433 774 429 818 414ZM1284 330L1307 330C1315 395 1322 432 1331 458C1307 473 1272 482 1235 482C1190 483 1117 463 1060 400C1006 352 967 241 967 136C967 40 1009 -11 1089 -11C1143 -11 1191 9 1246 54L1296 95L1288 115L1273 105C1201 57 1163 40 1128 40C1072 40 1043 80 1043 159C1043 267 1078 371 1127 409C1148 425 1172 433 1203 433C1248 433 1284 414 1284 390Z" stroke="rgb(0,0,0)" stroke-opacity="1" stroke-width="8" fill="rgb(0,0,0)" fill-opacity="1"></path></g></g></g><g></g><g><g><g transform="matrix(1,0,0,1,2,59.12500762939453)"><path transform="matrix(0.017,0,0,-0.017,0,0)" d="M108 471C108 386 146 339 230 319L325 296C379 283 406 248 406 191C406 96 335 30 232 30C178 30 140 42 96 73L96 172L66 172C60 117 53 72 42 20C91 -5 144 -18 197 -18C352 -18 485 99 485 234C485 313 442 355 341 377L276 391C210 405 180 442 180 508C180 595 247 658 339 658C388 658 421 645 451 613L451 537L481 537C485 591 492 629 506 672C461 696 421 706 374 706C250 706 108 614 108 471ZM572 152C572 46 617 -11 700 -11C755 -11 815 15 860 57C922 116 966 230 966 331C966 425 916 482 833 482C729 482 572 382 572 152ZM796 444C857 444 890 399 890 315C890 219 859 113 815 60C797 39 771 27 740 27C682 27 648 72 648 151C648 264 687 387 736 427C749 438 772 444 796 444ZM1249 722L1237 733C1185 707 1149 698 1077 691L1073 670L1121 670C1145 670 1155 663 1155 648C1155 645 1155 640 1152 622C1141 567 1068 182 1053 132C1040 82 1034 52 1034 31C1034 6 1045 -9 1064 -9C1090 -9 1126 12 1224 85L1214 103L1188 86C1159 67 1137 56 1127 56C1120 56 1114 66 1114 76C1114 82 1115 89 1118 104ZM1767 473L1760 482L1692 465L1682 414C1667 336 1642 268 1611 221C1552 130 1474 59 1434 59C1426 59 1421 68 1421 85C1421 99 1423 112 1428 137L1485 408C1488 424 1490 438 1490 451C1490 470 1481 482 1467 482C1447 482 1409 461 1335 408L1307 388L1314 368L1346 389C1374 407 1385 412 1394 412C1403 412 1411 403 1411 392C1411 388 1410 378 1409 374L1346 77C1344 68 1342 44 1342 30C1342 7 1357 -11 1377 -11C1440 -11 1561 101 1645 239L1608 97C1601 73 1597 46 1597 31C1597 6 1608 -9 1627 -9C1653 -9 1689 12 1787 85L1777 103L1751 86C1727 70 1701 59 1690 59C1682 59 1677 66 1677 76C1677 112 1752 416 1767 473ZM2172 330L2195 330C2203 395 2210 432 2219 458C2195 473 2160 482 2123 482C2078 483 2005 463 1948 400C1894 352 1855 241 1855 136C1855 40 1897 -11 1977 -11C2031 -11 2079 9 2134 54L2184 95L2176 115L2161 105C2089 57 2051 40 2016 40C1960 40 1931 80 1931 159C1931 267 1966 371 2015 409C2036 425 2060 433 2091 433C2136 433 2172 414 2172 390ZM2270 388L2277 368L2309 389C2346 412 2349 414 2356 414C2366 414 2374 404 2374 391C2374 384 2370 361 2366 347L2300 107C2292 76 2287 49 2287 30C2287 6 2298 -9 2317 -9C2343 -9 2379 12 2477 85L2467 103L2441 86C2412 67 2389 56 2380 56C2373 56 2367 66 2367 76C2367 86 2369 95 2374 116L2451 420C2455 437 2457 448 2457 456C2457 473 2448 482 2432 482C2410 482 2373 461 2298 408ZM2464 712C2435 712 2406 679 2406 645C2406 620 2421 604 2445 604C2476 604 2500 633 2500 671C2500 695 2485 712 2464 712ZM2530 152C2530 46 2575 -11 2658 -11C2713 -11 2773 15 2818 57C2880 116 2924 230 2924 331C2924 425 2874 482 2791 482C2687 482 2530 382 2530 152ZM2754 444C2815 444 2848 399 2848 315C2848 219 2817 113 2773 60C2755 39 2729 27 2698 27C2640 27 2606 72 2606 151C2606 264 2645 387 2694 427C2707 438 2730 444 2754 444ZM2980 388L2987 368L3019 389C3056 412 3059 414 3066 414C3077 414 3084 404 3084 389C3084 338 3043 145 3002 2L3009 -9C3034 -2 3057 4 3079 8C3098 134 3119 199 3165 268C3219 352 3294 414 3339 414C3350 414 3356 405 3356 390C3356 372 3353 351 3345 319L3293 107C3284 70 3280 47 3280 31C3280 6 3291 -9 3310 -9C3336 -9 3372 12 3470 85L3460 103L3434 86C3405 67 3383 56 3373 56C3366 56 3360 65 3360 76C3360 81 3361 92 3362 96L3428 372C3435 401 3439 429 3439 446C3439 469 3428 482 3408 482C3366 482 3297 444 3238 389C3200 354 3172 320 3120 247L3158 408C3162 426 3164 438 3164 449C3164 470 3156 482 3141 482C3120 482 3081 460 3008 408ZM3839 111L3815 94C3762 56 3714 36 3678 36C3631 36 3602 73 3602 133C3602 158 3605 185 3610 214C3627 218 3736 248 3761 259C3846 296 3885 342 3885 404C3885 451 3851 482 3801 482C3733 496 3623 423 3586 349C3556 299 3526 180 3526 113C3526 35 3570 -11 3642 -11C3699 -11 3755 17 3847 92ZM3624 274C3641 343 3661 386 3690 412C3708 428 3739 440 3763 440C3792 440 3811 420 3811 388C3811 344 3776 297 3724 272C3696 258 3660 247 3615 237ZM3930 148C3925 97 3919 62 3908 16C3946 -2 3980 -11 4015 -11C4064 -11 4110 7 4161 47C4212 87 4233 124 4233 174C4233 228 4201 257 4127 271L4084 279C4024 290 4005 307 4005 348C4005 401 4050 442 4107 442C4148 442 4186 424 4202 397L4202 342L4225 342C4229 377 4233 404 4244 455C4205 474 4177 482 4144 482C4092 482 4031 452 3983 404C3957 377 3946 352 3946 316C3946 260 3977 228 4043 215L4106 203C4150 195 4166 177 4166 138C4166 73 4120 29 4049 29C4014 29 3983 40 3955 64L3955 148ZM4570 388L4577 368L4609 389C4646 412 4649 414 4656 414C4666 414 4674 404 4674 391C4674 384 4670 361 4666 347L4600 107C4592 76 4587 49 4587 30C4587 6 4598 -9 4617 -9C4643 -9 4679 12 4777 85L4767 103L4741 86C4712 67 4689 56 4680 56C4673 56 4667 66 4667 76C4667 86 4669 95 4674 116L4751 420C4755 437 4757 448 4757 456C4757 473 4748 482 4732 482C4710 482 4673 461 4598 408ZM4764 712C4735 712 4706 679 4706 645C4706 620 4721 604 4745 604C4776 604 4800 633 4800 671C4800 695 4785 712 4764 712ZM5088 482C5021 482 4868 419 4868 259C4868 182 4913 136 4990 136C4998 136 5009 136 5020 137L4979 99C4963 84 4952 66 4952 52C4952 42 4959 31 4973 19C4904 -4 4776 -48 4776 -159C4776 -230 4846 -276 4955 -276C5084 -276 5197 -204 5197 -121C5197 -85 5176 -49 5133 -14L5073 35C5039 62 5026 81 5026 100C5026 114 5041 128 5053 146C5151 170 5222 253 5222 342C5222 357 5219 376 5218 380C5235 378 5243 378 5252 378C5269 378 5279 379 5302 382L5311 427L5308 433C5280 426 5260 424 5206 424C5206 425 5182 482 5088 482ZM4989 1L5066 -58C5112 -94 5131 -121 5131 -154C5131 -206 5062 -248 4979 -248C4897 -248 4840 -206 4840 -145C4840 -43 4950 -11 4989 1ZM5063 448C5121 448 5150 412 5150 341C5150 238 5102 168 5032 168C4971 168 4939 209 4939 288C4939 383 4990 448 5063 448ZM5804 473L5797 482L5729 465L5719 414C5704 336 5679 268 5648 221C5589 130 5511 59 5471 59C5463 59 5458 68 5458 85C5458 99 5460 112 5465 137L5522 408C5525 424 5527 438 5527 451C5527 470 5518 482 5504 482C5484 482 5446 461 5372 408L5344 388L5351 368L5383 389C5411 407 5422 412 5431 412C5440 412 5448 403 5448 392C5448 388 5447 378 5446 374L5383 77C5381 68 5379 44 5379 30C5379 7 5394 -11 5414 -11C5477 -11 5598 101 5682 239L5645 97C5638 73 5634 46 5634 31C5634 6 5645 -9 5664 -9C5690 -9 5726 12 5824 85L5814 103L5788 86C5764 70 5738 59 5727 59C5719 59 5714 66 5714 76C5714 112 5789 416 5804 473ZM6138 204L6109 77C6105 60 6103 42 6103 26C6103 4 6112 -9 6127 -9C6150 -9 6191 17 6273 85L6266 106C6242 86 6213 59 6191 59C6182 59 6176 68 6176 82C6176 87 6176 90 6177 93L6269 472L6259 481L6226 463C6185 478 6168 482 6141 482C6113 482 6093 477 6066 464C6004 433 5971 403 5946 354C5902 265 5871 145 5871 67C5871 23 5886 -11 5905 -11C5942 -11 6022 41 6138 204ZM6186 414C6164 305 6145 253 6111 201C6054 117 5993 59 5961 59C5949 59 5943 72 5943 99C5943 163 5971 280 6006 360C6030 415 6053 433 6101 433C6124 433 6142 429 6186 414ZM6561 722L6549 733C6497 707 6461 698 6389 691L6385 670L6433 670C6457 670 6467 663 6467 648C6467 645 6467 640 6464 622C6453 567 6380 182 6365 132C6352 82 6346 52 6346 31C6346 6 6357 -9 6376 -9C6402 -9 6438 12 6536 85L6526 103L6500 86C6471 67 6449 56 6439 56C6432 56 6426 66 6426 76C6426 82 6427 89 6430 104ZM6915 111L6891 94C6838 56 6790 36 6754 36C6707 36 6678 73 6678 133C6678 158 6681 185 6686 214C6703 218 6812 248 6837 259C6922 296 6961 342 6961 404C6961 451 6927 482 6877 482C6809 496 6699 423 6662 349C6632 299 6602 180 6602 113C6602 35 6646 -11 6718 -11C6775 -11 6831 17 6923 92ZM6700 274C6717 343 6737 386 6766 412C6784 428 6815 440 6839 440C6868 440 6887 420 6887 388C6887 344 6852 297 6800 272C6772 258 6736 247 6691 237ZM7006 148C7001 97 6995 62 6984 16C7022 -2 7056 -11 7091 -11C7140 -11 7186 7 7237 47C7288 87 7309 124 7309 174C7309 228 7277 257 7203 271L7160 279C7100 290 7081 307 7081 348C7081 401 7126 442 7183 442C7224 442 7262 424 7278 397L7278 342L7301 342C7305 377 7309 404 7320 455C7281 474 7253 482 7220 482C7168 482 7107 452 7059 404C7033 377 7022 352 7022 316C7022 260 7053 228 7119 215L7182 203C7226 195 7242 177 7242 138C7242 73 7196 29 7125 29C7090 29 7059 40 7031 64L7031 148Z" stroke="rgb(0,0,0)" stroke-opacity="1" stroke-width="8" fill="rgb(0,0,0)" fill-opacity="1"></path></g></g><g><g transform="matrix(1,0,0,1,131.344970703125,60.08500671386719)"><path transform="matrix(0.017,0,0,-0.017,0,0)" d="M146 266C146 526 243 632 301 700L282 726C225 675 60 542 60 266C60 159 85 58 133 -32C168 -99 200 -138 282 -215L301 -194C255 -137 146 -15 146 266Z" stroke="rgb(0,0,0)" stroke-opacity="1" stroke-width="8" fill="rgb(0,0,0)" fill-opacity="1"></path></g></g><g><g transform="matrix(1,0,0,1,137,59.12500762939453)"><path transform="matrix(0.017,0,0,-0.017,0,0)" d="M105 664L161 662C185 661 196 653 196 635C196 621 192 589 187 559L112 125C96 34 94 32 54 28L13 25L9 -3L51 -2C98 0 117 0 141 0L238 -3L264 -3L267 25L218 28C191 30 182 38 182 58C182 67 183 76 186 93L287 648C316 654 336 656 363 656C450 656 496 617 496 543C496 448 418 378 314 378L270 378L267 367C401 172 432 124 507 -3C507 -3 592 0 592 0C593 0 607 -1 626 -3L639 -3L639 24C599 29 588 37 559 79L375 354C430 364 459 376 495 402C553 444 584 499 584 560C584 646 520 693 409 691L108 691Z" stroke="rgb(0,0,0)" stroke-opacity="1" stroke-width="8" fill="rgb(0,0,0)" fill-opacity="1"></path></g></g><g><g transform="matrix(1,0,0,1,148.32501220703125,60.08500671386719)"><path transform="matrix(0.017,0,0,-0.017,0,0)" d="M51 726L32 700C87 636 187 526 187 266C187 -10 83 -131 32 -194L51 -215C104 -165 273 -23 273 265C273 542 108 675 51 726Z" stroke="rgb(0,0,0)" stroke-opacity="1" stroke-width="8" fill="rgb(0,0,0)" fill-opacity="1"></path></g></g></g><g><g><g transform="matrix(1,0,0,1,2,79.28500366210938)"><path transform="matrix(0.017,0,0,-0.017,0,0)" d="M27 6L34 -4C140 0 246 0 353 0C454 0 555 -1 656 -4L662 6L362 697L337 697C294 590 92 128 27 6ZM537 37L105 37C171 215 242 389 318 564L325 564C400 391 472 215 537 37Z" stroke="rgb(0,0,0)" stroke-opacity="1" stroke-width="8" fill="rgb(0,0,0)" fill-opacity="1"></path></g></g><g><g transform="matrix(1,0,0,1,18.79998779296875,79.28500366210938)"><path transform="matrix(0.017,0,0,-0.017,0,0)" d="M604 347L604 406L65 406L65 347ZM604 134L604 193L65 193L65 134Z" stroke="rgb(0,0,0)" stroke-opacity="1" stroke-width="8" fill="rgb(0,0,0)" fill-opacity="1"></path></g></g><g><g transform="matrix(1,0,0,1,35.2550048828125,79.28500366210938)"><path transform="matrix(0.017,0,0,-0.017,0,0)" d="M263 689C108 689 29 566 29 324C29 207 50 106 85 57C120 8 176 -20 238 -20C389 -20 465 110 465 366C465 585 400 689 263 689ZM245 654C342 654 381 556 381 316C381 103 343 15 251 15C154 15 113 116 113 360C113 571 150 654 245 654Z" stroke="rgb(0,0,0)" stroke-opacity="1" stroke-width="8" fill="rgb(0,0,0)" fill-opacity="1"></path></g></g></g><g><g><g transform="matrix(1,0,0,1,2,99.44500732421875)"><path transform="matrix(0.017,0,0,-0.017,0,0)" d="M108 471C108 386 146 339 230 319L325 296C379 283 406 248 406 191C406 96 335 30 232 30C178 30 140 42 96 73L96 172L66 172C60 117 53 72 42 20C91 -5 144 -18 197 -18C352 -18 485 99 485 234C485 313 442 355 341 377L276 391C210 405 180 442 180 508C180 595 247 658 339 658C388 658 421 645 451 613L451 537L481 537C485 591 492 629 506 672C461 696 421 706 374 706C250 706 108 614 108 471ZM572 152C572 46 617 -11 700 -11C755 -11 815 15 860 57C922 116 966 230 966 331C966 425 916 482 833 482C729 482 572 382 572 152ZM796 444C857 444 890 399 890 315C890 219 859 113 815 60C797 39 771 27 740 27C682 27 648 72 648 151C648 264 687 387 736 427C749 438 772 444 796 444ZM1249 722L1237 733C1185 707 1149 698 1077 691L1073 670L1121 670C1145 670 1155 663 1155 648C1155 645 1155 640 1152 622C1141 567 1068 182 1053 132C1040 82 1034 52 1034 31C1034 6 1045 -9 1064 -9C1090 -9 1126 12 1224 85L1214 103L1188 86C1159 67 1137 56 1127 56C1120 56 1114 66 1114 76C1114 82 1115 89 1118 104ZM1767 473L1760 482L1692 465L1682 414C1667 336 1642 268 1611 221C1552 130 1474 59 1434 59C1426 59 1421 68 1421 85C1421 99 1423 112 1428 137L1485 408C1488 424 1490 438 1490 451C1490 470 1481 482 1467 482C1447 482 1409 461 1335 408L1307 388L1314 368L1346 389C1374 407 1385 412 1394 412C1403 412 1411 403 1411 392C1411 388 1410 378 1409 374L1346 77C1344 68 1342 44 1342 30C1342 7 1357 -11 1377 -11C1440 -11 1561 101 1645 239L1608 97C1601 73 1597 46 1597 31C1597 6 1608 -9 1627 -9C1653 -9 1689 12 1787 85L1777 103L1751 86C1727 70 1701 59 1690 59C1682 59 1677 66 1677 76C1677 112 1752 416 1767 473ZM2172 330L2195 330C2203 395 2210 432 2219 458C2195 473 2160 482 2123 482C2078 483 2005 463 1948 400C1894 352 1855 241 1855 136C1855 40 1897 -11 1977 -11C2031 -11 2079 9 2134 54L2184 95L2176 115L2161 105C2089 57 2051 40 2016 40C1960 40 1931 80 1931 159C1931 267 1966 371 2015 409C2036 425 2060 433 2091 433C2136 433 2172 414 2172 390ZM2270 388L2277 368L2309 389C2346 412 2349 414 2356 414C2366 414 2374 404 2374 391C2374 384 2370 361 2366 347L2300 107C2292 76 2287 49 2287 30C2287 6 2298 -9 2317 -9C2343 -9 2379 12 2477 85L2467 103L2441 86C2412 67 2389 56 2380 56C2373 56 2367 66 2367 76C2367 86 2369 95 2374 116L2451 420C2455 437 2457 448 2457 456C2457 473 2448 482 2432 482C2410 482 2373 461 2298 408ZM2464 712C2435 712 2406 679 2406 645C2406 620 2421 604 2445 604C2476 604 2500 633 2500 671C2500 695 2485 712 2464 712ZM2530 152C2530 46 2575 -11 2658 -11C2713 -11 2773 15 2818 57C2880 116 2924 230 2924 331C2924 425 2874 482 2791 482C2687 482 2530 382 2530 152ZM2754 444C2815 444 2848 399 2848 315C2848 219 2817 113 2773 60C2755 39 2729 27 2698 27C2640 27 2606 72 2606 151C2606 264 2645 387 2694 427C2707 438 2730 444 2754 444ZM2980 388L2987 368L3019 389C3056 412 3059 414 3066 414C3077 414 3084 404 3084 389C3084 338 3043 145 3002 2L3009 -9C3034 -2 3057 4 3079 8C3098 134 3119 199 3165 268C3219 352 3294 414 3339 414C3350 414 3356 405 3356 390C3356 372 3353 351 3345 319L3293 107C3284 70 3280 47 3280 31C3280 6 3291 -9 3310 -9C3336 -9 3372 12 3470 85L3460 103L3434 86C3405 67 3383 56 3373 56C3366 56 3360 65 3360 76C3360 81 3361 92 3362 96L3428 372C3435 401 3439 429 3439 446C3439 469 3428 482 3408 482C3366 482 3297 444 3238 389C3200 354 3172 320 3120 247L3158 408C3162 426 3164 438 3164 449C3164 470 3156 482 3141 482C3120 482 3081 460 3008 408ZM3839 111L3815 94C3762 56 3714 36 3678 36C3631 36 3602 73 3602 133C3602 158 3605 185 3610 214C3627 218 3736 248 3761 259C3846 296 3885 342 3885 404C3885 451 3851 482 3801 482C3733 496 3623 423 3586 349C3556 299 3526 180 3526 113C3526 35 3570 -11 3642 -11C3699 -11 3755 17 3847 92ZM3624 274C3641 343 3661 386 3690 412C3708 428 3739 440 3763 440C3792 440 3811 420 3811 388C3811 344 3776 297 3724 272C3696 258 3660 247 3615 237ZM3930 148C3925 97 3919 62 3908 16C3946 -2 3980 -11 4015 -11C4064 -11 4110 7 4161 47C4212 87 4233 124 4233 174C4233 228 4201 257 4127 271L4084 279C4024 290 4005 307 4005 348C4005 401 4050 442 4107 442C4148 442 4186 424 4202 397L4202 342L4225 342C4229 377 4233 404 4244 455C4205 474 4177 482 4144 482C4092 482 4031 452 3983 404C3957 377 3946 352 3946 316C3946 260 3977 228 4043 215L4106 203C4150 195 4166 177 4166 138C4166 73 4120 29 4049 29C4014 29 3983 40 3955 64L3955 148ZM5019 722L5007 733C4955 707 4919 698 4847 691L4843 670L4891 670C4915 670 4925 663 4925 646C4925 638 4924 629 4923 622L4895 468C4865 477 4838 482 4813 482C4744 482 4650 410 4604 323C4573 265 4553 170 4553 86C4553 21 4568 -11 4597 -11C4624 -11 4661 6 4695 33C4749 77 4782 116 4849 217L4826 126C4815 82 4810 50 4810 24C4810 3 4819 -9 4836 -9C4853 -9 4877 3 4911 28L4992 88L4982 107L4938 76C4924 66 4908 59 4899 59C4891 59 4885 68 4885 82C4885 90 4886 99 4893 128ZM4650 59C4634 59 4625 73 4625 98C4625 224 4671 380 4720 418C4733 428 4752 433 4779 433C4823 433 4852 427 4885 410L4873 351C4836 171 4695 59 4650 59ZM5069 388L5076 368L5108 389C5145 412 5148 414 5155 414C5165 414 5173 404 5173 391C5173 384 5169 361 5165 347L5099 107C5091 76 5086 49 5086 30C5086 6 5097 -9 5116 -9C5142 -9 5178 12 5276 85L5266 103L5240 86C5211 67 5188 56 5179 56C5172 56 5166 66 5166 76C5166 86 5168 95 5173 116L5250 420C5254 437 5256 448 5256 456C5256 473 5247 482 5231 482C5209 482 5172 461 5097 408ZM5263 712C5234 712 5205 679 5205 645C5205 620 5220 604 5244 604C5275 604 5299 633 5299 671C5299 695 5284 712 5263 712ZM5343 148C5338 97 5332 62 5321 16C5359 -2 5393 -11 5428 -11C5477 -11 5523 7 5574 47C5625 87 5646 124 5646 174C5646 228 5614 257 5540 271L5497 279C5437 290 5418 307 5418 348C5418 401 5463 442 5520 442C5561 442 5599 424 5615 397L5615 342L5638 342C5642 377 5646 404 5657 455C5618 474 5590 482 5557 482C5505 482 5444 452 5396 404C5370 377 5359 352 5359 316C5359 260 5390 228 5456 215L5519 203C5563 195 5579 177 5579 138C5579 73 5533 29 5462 29C5427 29 5396 40 5368 64L5368 148ZM5825 390L5769 107C5768 99 5756 61 5756 31C5756 6 5767 -9 5786 -9C5821 -9 5856 11 5934 74L5965 99L5955 117L5910 86C5881 66 5861 56 5850 56C5841 56 5836 64 5836 76C5836 102 5850 183 5879 328L5892 390L5999 390L6010 440C5972 436 5938 434 5900 434C5916 528 5927 577 5945 631L5934 646C5914 634 5887 622 5856 610L5831 440C5787 419 5761 408 5743 403L5741 390ZM6066 388L6073 368L6105 389C6142 412 6145 414 6152 414C6162 414 6170 404 6170 391C6170 384 6166 361 6162 347L6096 107C6088 76 6083 49 6083 30C6083 6 6094 -9 6113 -9C6139 -9 6175 12 6273 85L6263 103L6237 86C6208 67 6185 56 6176 56C6169 56 6163 66 6163 76C6163 86 6165 95 6170 116L6247 420C6251 437 6253 448 6253 456C6253 473 6244 482 6228 482C6206 482 6169 461 6094 408ZM6260 712C6231 712 6202 679 6202 645C6202 620 6217 604 6241 604C6272 604 6296 633 6296 671C6296 695 6281 712 6260 712ZM6333 388L6340 368L6372 389C6409 412 6412 414 6419 414C6430 414 6437 404 6437 389C6437 338 6396 145 6355 2L6362 -9C6387 -2 6410 4 6432 8C6451 134 6472 199 6518 268C6572 352 6647 414 6692 414C6703 414 6709 405 6709 390C6709 372 6706 351 6698 319L6646 107C6637 70 6633 47 6633 31C6633 6 6644 -9 6663 -9C6689 -9 6725 12 6823 85L6813 103L6787 86C6758 67 6736 56 6726 56C6719 56 6713 65 6713 76C6713 81 6714 92 6715 96L6781 372C6788 401 6792 429 6792 446C6792 469 6781 482 6761 482C6719 482 6650 444 6591 389C6553 354 6525 320 6473 247L6511 408C6515 426 6517 438 6517 449C6517 470 6509 482 6494 482C6473 482 6434 460 6361 408ZM6989 390L6933 107C6932 99 6920 61 6920 31C6920 6 6931 -9 6950 -9C6985 -9 7020 11 7098 74L7129 99L7119 117L7074 86C7045 66 7025 56 7014 56C7005 56 7000 64 7000 76C7000 102 7014 183 7043 328L7056 390L7163 390L7174 440C7136 436 7102 434 7064 434C7080 528 7091 577 7109 631L7098 646C7078 634 7051 622 7020 610L6995 440C6951 419 6925 408 6907 403L6905 390ZM7467 204L7438 77C7434 60 7432 42 7432 26C7432 4 7441 -9 7456 -9C7479 -9 7520 17 7602 85L7595 106C7571 86 7542 59 7520 59C7511 59 7505 68 7505 82C7505 87 7505 90 7506 93L7598 472L7588 481L7555 463C7514 478 7497 482 7470 482C7442 482 7422 477 7395 464C7333 433 7300 403 7275 354C7231 265 7200 145 7200 67C7200 23 7215 -11 7234 -11C7271 -11 7351 41 7467 204ZM7515 414C7493 305 7474 253 7440 201C7383 117 7322 59 7290 59C7278 59 7272 72 7272 99C7272 163 7300 280 7335 360C7359 415 7382 433 7430 433C7453 433 7471 429 7515 414ZM7670 148C7665 97 7659 62 7648 16C7686 -2 7720 -11 7755 -11C7804 -11 7850 7 7901 47C7952 87 7973 124 7973 174C7973 228 7941 257 7867 271L7824 279C7764 290 7745 307 7745 348C7745 401 7790 442 7847 442C7888 442 7926 424 7942 397L7942 342L7965 342C7969 377 7973 404 7984 455C7945 474 7917 482 7884 482C7832 482 7771 452 7723 404C7697 377 7686 352 7686 316C7686 260 7717 228 7783 215L7846 203C7890 195 7906 177 7906 138C7906 73 7860 29 7789 29C7754 29 7723 40 7695 64L7695 148Z" stroke="rgb(0,0,0)" stroke-opacity="1" stroke-width="8" fill="rgb(0,0,0)" fill-opacity="1"></path></g></g><g><g transform="matrix(1,0,0,1,142.6400146484375,100.40499877929688)"><path transform="matrix(0.017,0,0,-0.017,0,0)" d="M146 266C146 526 243 632 301 700L282 726C225 675 60 542 60 266C60 159 85 58 133 -32C168 -99 200 -138 282 -215L301 -194C255 -137 146 -15 146 266Z" stroke="rgb(0,0,0)" stroke-opacity="1" stroke-width="8" fill="rgb(0,0,0)" fill-opacity="1"></path></g></g><g><g transform="matrix(1,0,0,1,148.29498291015625,99.44500732421875)"><path transform="matrix(0.017,0,0,-0.017,0,0)" d="M105 664L161 662C185 661 196 653 196 635C196 621 192 589 187 559L112 125C96 34 94 32 54 28L13 25L9 -3L51 -2C98 0 117 0 141 0L238 -3L264 -3L267 25L218 28C191 30 182 38 182 58C182 67 183 76 186 93L287 648C316 654 336 656 363 656C450 656 496 617 496 543C496 448 418 378 314 378L270 378L267 367C401 172 432 124 507 -3C507 -3 592 0 592 0C593 0 607 -1 626 -3L639 -3L639 24C599 29 588 37 559 79L375 354C430 364 459 376 495 402C553 444 584 499 584 560C584 646 520 693 409 691L108 691Z" stroke="rgb(0,0,0)" stroke-opacity="1" stroke-width="8" fill="rgb(0,0,0)" fill-opacity="1"></path></g></g><g><g transform="matrix(1,0,0,1,159.6199951171875,100.40499877929688)"><path transform="matrix(0.017,0,0,-0.017,0,0)" d="M51 726L32 700C87 636 187 526 187 266C187 -10 83 -131 32 -194L51 -215C104 -165 273 -23 273 265C273 542 108 675 51 726Z" stroke="rgb(0,0,0)" stroke-opacity="1" stroke-width="8" fill="rgb(0,0,0)" fill-opacity="1"></path></g></g></g><g><g><g transform="matrix(1,0,0,1,2,119.60501098632812)"><path transform="matrix(0.017,0,0,-0.017,0,0)" d="M27 6L34 -4C140 0 246 0 353 0C454 0 555 -1 656 -4L662 6L362 697L337 697C294 590 92 128 27 6ZM537 37L105 37C171 215 242 389 318 564L325 564C400 391 472 215 537 37Z" stroke="rgb(0,0,0)" stroke-opacity="1" stroke-width="8" fill="rgb(0,0,0)" fill-opacity="1"></path></g></g><g><g transform="matrix(1,0,0,1,18.79998779296875,119.60501098632812)"><path transform="matrix(0.017,0,0,-0.017,0,0)" d="M65 0L604 252L604 273L65 528L65 469L503 264L65 59Z" stroke="rgb(0,0,0)" stroke-opacity="1" stroke-width="8" fill="rgb(0,0,0)" fill-opacity="1"></path></g></g><g><g transform="matrix(1,0,0,1,35.2550048828125,119.60501098632812)"><path transform="matrix(0.017,0,0,-0.017,0,0)" d="M263 689C108 689 29 566 29 324C29 207 50 106 85 57C120 8 176 -20 238 -20C389 -20 465 110 465 366C465 585 400 689 263 689ZM245 654C342 654 381 556 381 316C381 103 343 15 251 15C154 15 113 116 113 360C113 571 150 654 245 654Z" stroke="rgb(0,0,0)" stroke-opacity="1" stroke-width="8" fill="rgb(0,0,0)" fill-opacity="1"></path></g></g></g><g><g><g transform="matrix(1,0,0,1,2,139.7650146484375)"><path transform="matrix(0.017,0,0,-0.017,0,0)" d="M108 471C108 386 146 339 230 319L325 296C379 283 406 248 406 191C406 96 335 30 232 30C178 30 140 42 96 73L96 172L66 172C60 117 53 72 42 20C91 -5 144 -18 197 -18C352 -18 485 99 485 234C485 313 442 355 341 377L276 391C210 405 180 442 180 508C180 595 247 658 339 658C388 658 421 645 451 613L451 537L481 537C485 591 492 629 506 672C461 696 421 706 374 706C250 706 108 614 108 471ZM572 152C572 46 617 -11 700 -11C755 -11 815 15 860 57C922 116 966 230 966 331C966 425 916 482 833 482C729 482 572 382 572 152ZM796 444C857 444 890 399 890 315C890 219 859 113 815 60C797 39 771 27 740 27C682 27 648 72 648 151C648 264 687 387 736 427C749 438 772 444 796 444ZM1249 722L1237 733C1185 707 1149 698 1077 691L1073 670L1121 670C1145 670 1155 663 1155 648C1155 645 1155 640 1152 622C1141 567 1068 182 1053 132C1040 82 1034 52 1034 31C1034 6 1045 -9 1064 -9C1090 -9 1126 12 1224 85L1214 103L1188 86C1159 67 1137 56 1127 56C1120 56 1114 66 1114 76C1114 82 1115 89 1118 104ZM1767 473L1760 482L1692 465L1682 414C1667 336 1642 268 1611 221C1552 130 1474 59 1434 59C1426 59 1421 68 1421 85C1421 99 1423 112 1428 137L1485 408C1488 424 1490 438 1490 451C1490 470 1481 482 1467 482C1447 482 1409 461 1335 408L1307 388L1314 368L1346 389C1374 407 1385 412 1394 412C1403 412 1411 403 1411 392C1411 388 1410 378 1409 374L1346 77C1344 68 1342 44 1342 30C1342 7 1357 -11 1377 -11C1440 -11 1561 101 1645 239L1608 97C1601 73 1597 46 1597 31C1597 6 1608 -9 1627 -9C1653 -9 1689 12 1787 85L1777 103L1751 86C1727 70 1701 59 1690 59C1682 59 1677 66 1677 76C1677 112 1752 416 1767 473ZM2172 330L2195 330C2203 395 2210 432 2219 458C2195 473 2160 482 2123 482C2078 483 2005 463 1948 400C1894 352 1855 241 1855 136C1855 40 1897 -11 1977 -11C2031 -11 2079 9 2134 54L2184 95L2176 115L2161 105C2089 57 2051 40 2016 40C1960 40 1931 80 1931 159C1931 267 1966 371 2015 409C2036 425 2060 433 2091 433C2136 433 2172 414 2172 390ZM2270 388L2277 368L2309 389C2346 412 2349 414 2356 414C2366 414 2374 404 2374 391C2374 384 2370 361 2366 347L2300 107C2292 76 2287 49 2287 30C2287 6 2298 -9 2317 -9C2343 -9 2379 12 2477 85L2467 103L2441 86C2412 67 2389 56 2380 56C2373 56 2367 66 2367 76C2367 86 2369 95 2374 116L2451 420C2455 437 2457 448 2457 456C2457 473 2448 482 2432 482C2410 482 2373 461 2298 408ZM2464 712C2435 712 2406 679 2406 645C2406 620 2421 604 2445 604C2476 604 2500 633 2500 671C2500 695 2485 712 2464 712ZM2530 152C2530 46 2575 -11 2658 -11C2713 -11 2773 15 2818 57C2880 116 2924 230 2924 331C2924 425 2874 482 2791 482C2687 482 2530 382 2530 152ZM2754 444C2815 444 2848 399 2848 315C2848 219 2817 113 2773 60C2755 39 2729 27 2698 27C2640 27 2606 72 2606 151C2606 264 2645 387 2694 427C2707 438 2730 444 2754 444ZM2980 388L2987 368L3019 389C3056 412 3059 414 3066 414C3077 414 3084 404 3084 389C3084 338 3043 145 3002 2L3009 -9C3034 -2 3057 4 3079 8C3098 134 3119 199 3165 268C3219 352 3294 414 3339 414C3350 414 3356 405 3356 390C3356 372 3353 351 3345 319L3293 107C3284 70 3280 47 3280 31C3280 6 3291 -9 3310 -9C3336 -9 3372 12 3470 85L3460 103L3434 86C3405 67 3383 56 3373 56C3366 56 3360 65 3360 76C3360 81 3361 92 3362 96L3428 372C3435 401 3439 429 3439 446C3439 469 3428 482 3408 482C3366 482 3297 444 3238 389C3200 354 3172 320 3120 247L3158 408C3162 426 3164 438 3164 449C3164 470 3156 482 3141 482C3120 482 3081 460 3008 408ZM3839 111L3815 94C3762 56 3714 36 3678 36C3631 36 3602 73 3602 133C3602 158 3605 185 3610 214C3627 218 3736 248 3761 259C3846 296 3885 342 3885 404C3885 451 3851 482 3801 482C3733 496 3623 423 3586 349C3556 299 3526 180 3526 113C3526 35 3570 -11 3642 -11C3699 -11 3755 17 3847 92ZM3624 274C3641 343 3661 386 3690 412C3708 428 3739 440 3763 440C3792 440 3811 420 3811 388C3811 344 3776 297 3724 272C3696 258 3660 247 3615 237ZM3930 148C3925 97 3919 62 3908 16C3946 -2 3980 -11 4015 -11C4064 -11 4110 7 4161 47C4212 87 4233 124 4233 174C4233 228 4201 257 4127 271L4084 279C4024 290 4005 307 4005 348C4005 401 4050 442 4107 442C4148 442 4186 424 4202 397L4202 342L4225 342C4229 377 4233 404 4244 455C4205 474 4177 482 4144 482C4092 482 4031 452 3983 404C3957 377 3946 352 3946 316C3946 260 3977 228 4043 215L4106 203C4150 195 4166 177 4166 138C4166 73 4120 29 4049 29C4014 29 3983 40 3955 64L3955 148ZM4864 111L4840 94C4787 56 4739 36 4703 36C4656 36 4627 73 4627 133C4627 158 4630 185 4635 214C4652 218 4761 248 4786 259C4871 296 4910 342 4910 404C4910 451 4876 482 4826 482C4758 496 4648 423 4611 349C4581 299 4551 180 4551 113C4551 35 4595 -11 4667 -11C4724 -11 4780 17 4872 92ZM4649 274C4666 343 4686 386 4715 412C4733 428 4764 440 4788 440C4817 440 4836 420 4836 388C4836 344 4801 297 4749 272C4721 258 4685 247 4640 237ZM4948 388L4955 368L4987 389C5024 412 5027 414 5034 414C5045 414 5052 404 5052 389C5052 338 5011 145 4970 2L4977 -9C5002 -2 5025 4 5047 8C5066 134 5087 199 5133 268C5187 352 5262 414 5307 414C5318 414 5324 405 5324 390C5324 372 5321 351 5313 319L5261 107C5252 70 5248 47 5248 31C5248 6 5259 -9 5278 -9C5304 -9 5340 12 5438 85L5428 103L5402 86C5373 67 5351 56 5341 56C5334 56 5328 65 5328 76C5328 81 5329 92 5330 96L5396 372C5403 401 5407 429 5407 446C5407 469 5396 482 5376 482C5334 482 5265 444 5206 389C5168 354 5140 320 5088 247L5126 408C5130 426 5132 438 5132 449C5132 470 5124 482 5109 482C5088 482 5049 460 4976 408ZM5831 664L5878 662C5902 661 5913 653 5913 636C5913 629 5907 576 5904 559L5832 125C5817 36 5814 31 5774 28L5738 25L5735 -3L5767 -3L5861 0L5955 -3L5987 -3L5990 25L5938 28C5912 30 5902 37 5902 57C5902 63 5903 74 5904 78L5993 613C6000 652 6005 657 6044 661L6079 664L6082 692L5976 689C5959 689 5941 689 5898 690L5834 692Z" stroke="rgb(0,0,0)" stroke-opacity="1" stroke-width="8" fill="rgb(0,0,0)" fill-opacity="1"></path></g></g></g><g><g><g transform="matrix(1,0,0,1,2,159.9250030517578)"><path transform="matrix(0.017,0,0,-0.017,0,0)" d="M27 6L34 -4C140 0 246 0 353 0C454 0 555 -1 656 -4L662 6L362 697L337 697C294 590 92 128 27 6ZM537 37L105 37C171 215 242 389 318 564L325 564C400 391 472 215 537 37Z" stroke="rgb(0,0,0)" stroke-opacity="1" stroke-width="8" fill="rgb(0,0,0)" fill-opacity="1"></path></g></g><g><g transform="matrix(1,0,0,1,18.79998779296875,159.9250030517578)"><path transform="matrix(0.017,0,0,-0.017,0,0)" d="M604 0L604 59L166 264L604 469L604 528L65 273L65 252Z" stroke="rgb(0,0,0)" stroke-opacity="1" stroke-width="8" fill="rgb(0,0,0)" fill-opacity="1"></path></g></g><g><g transform="matrix(1,0,0,1,35.2550048828125,159.9250030517578)"><path transform="matrix(0.017,0,0,-0.017,0,0)" d="M263 689C108 689 29 566 29 324C29 207 50 106 85 57C120 8 176 -20 238 -20C389 -20 465 110 465 366C465 585 400 689 263 689ZM245 654C342 654 381 556 381 316C381 103 343 15 251 15C154 15 113 116 113 360C113 571 150 654 245 654Z" stroke="rgb(0,0,0)" stroke-opacity="1" stroke-width="8" fill="rgb(0,0,0)" fill-opacity="1"></path></g></g></g></g></svg>