<svg xmlns="http://www.w3.org/2000/svg" xmlns:xlink="http://www.w3.org/1999/xlink" width="181.72000122070312" height="88.7800064086914" style="width:181.72000122070312px;height:88.7800064086914px;font-family:Asana-Math, Asana;background:#FFF;"><g><g><g><g transform="matrix(1,0,0,1,2,18.040000915527344)"><path transform="matrix(0.017,0,0,-0.017,0,0)" d="M1101 664L1156 662C1180 661 1191 653 1191 635L1108 125C1091 34 1090 31 1050 28L1009 25L1005 -3L1047 -2C1088 -1 1119 0 1137 0C1154 0 1183 -1 1223 -2L1276 -3L1279 25L1214 28C1188 29 1178 37 1178 58C1178 67 1179 74 1182 93L1280 648C1316 654 1332 656 1351 656C1453 656 1502 612 1502 519C1502 411 1430 323 1342 323C1320 323 1300 328 1263 342L1265 311C1302 293 1322 288 1351 288C1480 288 1590 405 1590 541C1590 642 1527 695 1408 692L1104 692Z" stroke="rgb(0,0,0)" stroke-opacity="1" stroke-width="8" fill="rgb(0,0,0)" fill-opacity="1"></path></g></g><g><g><g><g><g transform="matrix(1,0,0,1,29.810012817382812,22.000006103515624)"><path transform="matrix(0.0119,0,0,-0.0119,0,0)" d="M271 204L242 77C238 60 236 42 236 26C236 4 245 -9 260 -9C283 -9 324 17 406 85L399 106C375 86 346 59 324 59C315 59 309 68 309 82C309 87 309 90 310 93L402 472L392 481L359 463C318 478 301 482 274 482C246 482 226 477 199 464C137 433 104 403 79 354C35 265 4 145 4 67C4 23 19 -11 38 -11C75 -11 155 41 271 204ZM319 414C297 305 278 253 244 201C187 117 126 59 94 59C82 59 76 72 76 99C76 163 104 280 139 360C163 415 186 433 234 433C257 433 275 429 319 414ZM678 722L666 733C614 707 578 698 506 691L502 670L550 670C574 670 584 663 584 646C584 639 583 628 582 622L481 71C480 68 480 64 480 61C480 22 528 -11 583 -11C620 -11 671 8 714 39C810 107 876 244 876 376C876 414 867 453 855 468C848 477 835 482 820 482C796 482 766 474 738 460C687 433 654 403 592 324ZM765 424C791 424 804 401 804 352C804 288 783 202 753 137C720 68 680 36 626 36C580 36 555 59 555 101C555 135 570 276 651 361C684 395 736 424 765 424ZM936 148C931 97 925 62 914 16C952 -2 986 -11 1021 -11C1070 -11 1116 7 1167 47C1218 87 1239 124 1239 174C1239 228 1207 257 1133 271L1090 279C1030 290 1011 307 1011 348C1011 401 1056 442 1113 442C1154 442 1192 424 1208 397L1208 342L1231 342C1235 377 1239 404 1250 455C1211 474 1183 482 1150 482C1098 482 1037 452 989 404C963 377 952 352 952 316C952 260 983 228 1049 215L1112 203C1156 195 1172 177 1172 138C1172 73 1126 29 1055 29C1020 29 989 40 961 64L961 148Z" stroke="rgb(0,0,0)" stroke-opacity="1" stroke-width="8" fill="rgb(0,0,0)" fill-opacity="1"></path></g></g></g></g></g><g><g transform="matrix(1,0,0,1,51.31999206542969,18.040000915527344)"><path transform="matrix(0.017,0,0,-0.017,0,0)" d="M604 347L604 406L65 406L65 347ZM604 134L604 193L65 193L65 134Z" stroke="rgb(0,0,0)" stroke-opacity="1" stroke-width="8" fill="rgb(0,0,0)" fill-opacity="1"></path></g></g><g><g transform="matrix(1,0,0,1,67.77500915527344,18.040000915527344)"><path transform="matrix(0.017,0,0,-0.017,0,0)" d="M105 664L160 662C184 661 195 653 195 635L112 125C95 34 94 31 54 28L13 25L9 -3L51 -2C92 -1 123 0 141 0C158 0 187 -1 227 -2L280 -3L283 25L218 28C192 29 182 37 182 58C182 67 183 74 186 93L284 648C320 654 336 656 355 656C457 656 506 612 506 519C506 411 434 323 346 323C324 323 304 328 267 342L269 311C306 293 326 288 355 288C484 288 594 405 594 541C594 642 531 695 412 692L108 692Z" stroke="rgb(0,0,0)" stroke-opacity="1" stroke-width="8" fill="rgb(0,0,0)" fill-opacity="1"></path></g></g><g><g><g><g><g transform="matrix(1,0,0,1,78.66499328613281,22.000006103515624)"><path transform="matrix(0.0119,0,0,-0.0119,0,0)" d="M271 204L242 77C238 60 236 42 236 26C236 4 245 -9 260 -9C283 -9 324 17 406 85L399 106C375 86 346 59 324 59C315 59 309 68 309 82C309 87 309 90 310 93L402 472L392 481L359 463C318 478 301 482 274 482C246 482 226 477 199 464C137 433 104 403 79 354C35 265 4 145 4 67C4 23 19 -11 38 -11C75 -11 155 41 271 204ZM319 414C297 305 278 253 244 201C187 117 126 59 94 59C82 59 76 72 76 99C76 163 104 280 139 360C163 415 186 433 234 433C257 433 275 429 319 414ZM568 390L512 107C511 99 499 61 499 31C499 6 510 -9 529 -9C564 -9 599 11 677 74L708 99L698 117L653 86C624 66 604 56 593 56C584 56 579 64 579 76C579 102 593 183 622 328L635 390L742 390L753 440C715 436 681 434 643 434C659 528 670 577 688 631L677 646C657 634 630 622 599 610L574 440C530 419 504 408 486 403L484 390ZM1505 103L1479 86C1450 67 1428 56 1418 56C1411 56 1405 65 1405 76C1405 86 1407 95 1412 116L1487 413C1491 430 1494 446 1494 454C1494 471 1484 482 1468 482C1439 482 1401 464 1340 421C1277 376 1242 341 1193 272L1223 409C1227 429 1230 444 1230 451C1230 470 1220 482 1204 482C1174 482 1128 460 1073 418C1029 384 1009 363 944 275L977 408C981 424 983 439 983 451C983 470 974 482 960 482C939 482 901 461 827 408L799 388L806 368C843 391 878 414 885 414C896 414 903 404 903 389C903 338 862 145 821 2L824 -9L892 6L914 108C938 219 965 278 1020 338C1062 384 1107 414 1135 414C1142 414 1146 406 1146 393C1146 358 1124 244 1083 69L1067 2L1072 -9L1141 6L1162 113C1178 194 1212 269 1256 318C1311 379 1361 414 1393 414C1401 414 1406 405 1406 389C1406 365 1403 351 1381 264C1341 105 1325 84 1325 31C1325 6 1336 -9 1355 -9C1381 -9 1417 12 1515 85Z" stroke="rgb(0,0,0)" stroke-opacity="1" stroke-width="8" fill="rgb(0,0,0)" fill-opacity="1"></path></g></g></g></g></g><g><g transform="matrix(1,0,0,1,101.53999328613281,18.040000915527344)"><path transform="matrix(0.017,0,0,-0.017,0,0)" d="M604 241L604 300L364 300L364 538L305 538L305 300L65 300L65 241L305 241L305 0L364 0L364 241Z" stroke="rgb(0,0,0)" stroke-opacity="1" stroke-width="8" fill="rgb(0,0,0)" fill-opacity="1"></path></g></g><g><g transform="matrix(1,0,0,1,116.28501892089844,18.040000915527344)"><path transform="matrix(0.017,0,0,-0.017,0,0)" d="M105 664L160 662C184 661 195 653 195 635L112 125C95 34 94 31 54 28L13 25L9 -3L51 -2C92 -1 123 0 141 0C158 0 187 -1 227 -2L280 -3L283 25L218 28C192 29 182 37 182 58C182 67 183 74 186 93L284 648C320 654 336 656 355 656C457 656 506 612 506 519C506 411 434 323 346 323C324 323 304 328 267 342L269 311C306 293 326 288 355 288C484 288 594 405 594 541C594 642 531 695 412 692L108 692Z" stroke="rgb(0,0,0)" stroke-opacity="1" stroke-width="8" fill="rgb(0,0,0)" fill-opacity="1"></path></g></g><g><g><g><g><g transform="matrix(1,0,0,1,127.17500305175781,22.000006103515624)"><path transform="matrix(0.0119,0,0,-0.0119,0,0)" d="M236 722L224 733C179 711 138 697 64 691L60 670L108 670C126 670 142 667 142 647C142 641 142 632 140 622L98 388C78 272 36 80 10 2L17 -9L86 7C94 64 108 164 148 236C193 317 296 414 338 414C349 414 360 407 360 393C360 375 355 342 345 303L294 107C288 85 281 55 281 31C281 6 291 -9 312 -9C344 -9 412 41 471 85L461 103L435 86C412 71 386 56 374 56C367 56 361 65 361 76C361 88 364 101 368 116L432 372C438 398 443 423 443 447C443 464 437 482 411 482C376 482 299 437 231 374C198 343 172 308 144 273L140 275Z" stroke="rgb(0,0,0)" stroke-opacity="1" stroke-width="8" fill="rgb(0,0,0)" fill-opacity="1"></path></g></g></g></g></g></g><g></g><g><g><g transform="matrix(1,0,0,1,2,59.73999786376953)"><path transform="matrix(0.017,0,0,-0.017,0,0)" d="M105 664L160 662C184 661 195 653 195 635L112 125C95 34 94 31 54 28L13 25L9 -3L51 -2C92 -1 123 0 141 0C158 0 187 -1 227 -2L280 -3L283 25L218 28C192 29 182 37 182 58C182 67 183 74 186 93L284 648C320 654 336 656 355 656C457 656 506 612 506 519C506 411 434 323 346 323C324 323 304 328 267 342L269 311C306 293 326 288 355 288C484 288 594 405 594 541C594 642 531 695 412 692L108 692Z" stroke="rgb(0,0,0)" stroke-opacity="1" stroke-width="8" fill="rgb(0,0,0)" fill-opacity="1"></path></g></g><g><g><g><g><g transform="matrix(1,0,0,1,12.889999389648438,63.70001068115234)"><path transform="matrix(0.0119,0,0,-0.0119,0,0)" d="M271 204L242 77C238 60 236 42 236 26C236 4 245 -9 260 -9C283 -9 324 17 406 85L399 106C375 86 346 59 324 59C315 59 309 68 309 82C309 87 309 90 310 93L402 472L392 481L359 463C318 478 301 482 274 482C246 482 226 477 199 464C137 433 104 403 79 354C35 265 4 145 4 67C4 23 19 -11 38 -11C75 -11 155 41 271 204ZM319 414C297 305 278 253 244 201C187 117 126 59 94 59C82 59 76 72 76 99C76 163 104 280 139 360C163 415 186 433 234 433C257 433 275 429 319 414ZM568 390L512 107C511 99 499 61 499 31C499 6 510 -9 529 -9C564 -9 599 11 677 74L708 99L698 117L653 86C624 66 604 56 593 56C584 56 579 64 579 76C579 102 593 183 622 328L635 390L742 390L753 440C715 436 681 434 643 434C659 528 670 577 688 631L677 646C657 634 630 622 599 610L574 440C530 419 504 408 486 403L484 390ZM1505 103L1479 86C1450 67 1428 56 1418 56C1411 56 1405 65 1405 76C1405 86 1407 95 1412 116L1487 413C1491 430 1494 446 1494 454C1494 471 1484 482 1468 482C1439 482 1401 464 1340 421C1277 376 1242 341 1193 272L1223 409C1227 429 1230 444 1230 451C1230 470 1220 482 1204 482C1174 482 1128 460 1073 418C1029 384 1009 363 944 275L977 408C981 424 983 439 983 451C983 470 974 482 960 482C939 482 901 461 827 408L799 388L806 368C843 391 878 414 885 414C896 414 903 404 903 389C903 338 862 145 821 2L824 -9L892 6L914 108C938 219 965 278 1020 338C1062 384 1107 414 1135 414C1142 414 1146 406 1146 393C1146 358 1124 244 1083 69L1067 2L1072 -9L1141 6L1162 113C1178 194 1212 269 1256 318C1311 379 1361 414 1393 414C1401 414 1406 405 1406 389C1406 365 1403 351 1381 264C1341 105 1325 84 1325 31C1325 6 1336 -9 1355 -9C1381 -9 1417 12 1515 85Z" stroke="rgb(0,0,0)" stroke-opacity="1" stroke-width="8" fill="rgb(0,0,0)" fill-opacity="1"></path></g></g></g></g></g><g><g transform="matrix(1,0,0,1,35.76499938964844,59.73999786376953)"><path transform="matrix(0.017,0,0,-0.017,0,0)" d="M123 111C93 111 66 83 66 53C66 23 93 -5 122 -5C154 -5 182 22 182 53C182 83 154 111 123 111ZM123 456C93 456 66 428 66 398C66 368 93 340 122 340C154 340 182 367 182 397C182 428 154 456 123 456Z" stroke="rgb(0,0,0)" stroke-opacity="1" stroke-width="8" fill="rgb(0,0,0)" fill-opacity="1"></path></g></g><g><g transform="matrix(1,0,0,1,43.40000915527344,59.73999786376953)"><path transform="matrix(0.017,0,0,-0.017,0,0)" d="M176 -11C232 -11 347 62 390 125C431 186 465 296 465 371C465 438 442 482 406 482C364 482 311 456 259 409C218 374 198 348 162 289L186 408C189 425 191 440 191 452C191 471 183 482 169 482C148 482 110 461 36 408L8 388L15 368L47 389C75 407 86 412 95 412C105 412 112 403 112 389C112 381 110 361 108 351L50 8C40 -52 21 -143 1 -233L-7 -270L0 -276C21 -269 41 -264 73 -259L115 3C136 -4 158 -11 176 -11ZM143 165C165 293 272 424 355 424C381 424 393 402 393 356C393 275 353 156 300 80C280 51 248 36 207 36C176 36 151 43 125 59ZM867 365C870 403 875 435 883 476C872 481 868 482 863 482C832 482 801 458 765 407C726 351 687 291 671 256L703 408C707 425 709 438 709 450C709 470 701 482 686 482C665 482 627 461 553 408L525 388L532 368L564 389C592 407 603 412 612 412C622 412 629 403 629 390C629 332 586 126 546 -2L556 -9C571 -4 587 -1 610 4L623 6L649 126C667 209 690 262 734 319C768 363 795 384 817 384C832 384 842 379 853 365ZM1215 111L1191 94C1138 56 1090 36 1054 36C1007 36 978 73 978 133C978 158 981 185 986 214C1003 218 1112 248 1137 259C1222 296 1261 342 1261 404C1261 451 1227 482 1177 482C1109 496 999 423 962 349C932 299 902 180 902 113C902 35 946 -11 1018 -11C1075 -11 1131 17 1223 92ZM1000 274C1017 343 1037 386 1066 412C1084 428 1115 440 1139 440C1168 440 1187 420 1187 388C1187 344 1152 297 1100 272C1072 258 1036 247 991 237ZM1306 148C1301 97 1295 62 1284 16C1322 -2 1356 -11 1391 -11C1440 -11 1486 7 1537 47C1588 87 1609 124 1609 174C1609 228 1577 257 1503 271L1460 279C1400 290 1381 307 1381 348C1381 401 1426 442 1483 442C1524 442 1562 424 1578 397L1578 342L1601 342C1605 377 1609 404 1620 455C1581 474 1553 482 1520 482C1468 482 1407 452 1359 404C1333 377 1322 352 1322 316C1322 260 1353 228 1419 215L1482 203C1526 195 1542 177 1542 138C1542 73 1496 29 1425 29C1390 29 1359 40 1331 64L1331 148ZM1697 388L1704 368L1736 389C1773 412 1776 414 1783 414C1793 414 1801 404 1801 391C1801 384 1797 361 1793 347L1727 107C1719 76 1714 49 1714 30C1714 6 1725 -9 1744 -9C1770 -9 1806 12 1904 85L1894 103L1868 86C1839 67 1816 56 1807 56C1800 56 1794 66 1794 76C1794 86 1796 95 1801 116L1878 420C1882 437 1884 448 1884 456C1884 473 1875 482 1859 482C1837 482 1800 461 1725 408ZM1891 712C1862 712 1833 679 1833 645C1833 620 1848 604 1872 604C1903 604 1927 633 1927 671C1927 695 1912 712 1891 712ZM1957 152C1957 46 2002 -11 2085 -11C2140 -11 2200 15 2245 57C2307 116 2351 230 2351 331C2351 425 2301 482 2218 482C2114 482 1957 382 1957 152ZM2181 444C2242 444 2275 399 2275 315C2275 219 2244 113 2200 60C2182 39 2156 27 2125 27C2067 27 2033 72 2033 151C2033 264 2072 387 2121 427C2134 438 2157 444 2181 444ZM2407 388L2414 368L2446 389C2483 412 2486 414 2493 414C2504 414 2511 404 2511 389C2511 338 2470 145 2429 2L2436 -9C2461 -2 2484 4 2506 8C2525 134 2546 199 2592 268C2646 352 2721 414 2766 414C2777 414 2783 405 2783 390C2783 372 2780 351 2772 319L2720 107C2711 70 2707 47 2707 31C2707 6 2718 -9 2737 -9C2763 -9 2799 12 2897 85L2887 103L2861 86C2832 67 2810 56 2800 56C2793 56 2787 65 2787 76C2787 81 2788 92 2789 96L2855 372C2862 401 2866 429 2866 446C2866 469 2855 482 2835 482C2793 482 2724 444 2665 389C2627 354 2599 320 2547 247L2585 408C2589 426 2591 438 2591 449C2591 470 2583 482 2568 482C2547 482 2508 460 2435 408ZM3458 204L3429 77C3425 60 3423 42 3423 26C3423 4 3432 -9 3447 -9C3470 -9 3511 17 3593 85L3586 106C3562 86 3533 59 3511 59C3502 59 3496 68 3496 82C3496 87 3496 90 3497 93L3589 472L3579 481L3546 463C3505 478 3488 482 3461 482C3433 482 3413 477 3386 464C3324 433 3291 403 3266 354C3222 265 3191 145 3191 67C3191 23 3206 -11 3225 -11C3262 -11 3342 41 3458 204ZM3506 414C3484 305 3465 253 3431 201C3374 117 3313 59 3281 59C3269 59 3263 72 3263 99C3263 163 3291 280 3326 360C3350 415 3373 433 3421 433C3444 433 3462 429 3506 414ZM3755 390L3699 107C3698 99 3686 61 3686 31C3686 6 3697 -9 3716 -9C3751 -9 3786 11 3864 74L3895 99L3885 117L3840 86C3811 66 3791 56 3780 56C3771 56 3766 64 3766 76C3766 102 3780 183 3809 328L3822 390L3929 390L3940 440C3902 436 3868 434 3830 434C3846 528 3857 577 3875 631L3864 646C3844 634 3817 622 3786 610L3761 440C3717 419 3691 408 3673 403L3671 390ZM4692 103L4666 86C4637 67 4615 56 4605 56C4598 56 4592 65 4592 76C4592 86 4594 95 4599 116L4674 413C4678 430 4681 446 4681 454C4681 471 4671 482 4655 482C4626 482 4588 464 4527 421C4464 376 4429 341 4380 272L4410 409C4414 429 4417 444 4417 451C4417 470 4407 482 4391 482C4361 482 4315 460 4260 418C4216 384 4196 363 4131 275L4164 408C4168 424 4170 439 4170 451C4170 470 4161 482 4147 482C4126 482 4088 461 4014 408L3986 388L3993 368C4030 391 4065 414 4072 414C4083 414 4090 404 4090 389C4090 338 4049 145 4008 2L4011 -9L4079 6L4101 108C4125 219 4152 278 4207 338C4249 384 4294 414 4322 414C4329 414 4333 406 4333 393C4333 358 4311 244 4270 69L4254 2L4259 -9L4328 6L4349 113C4365 194 4399 269 4443 318C4498 379 4548 414 4580 414C4588 414 4593 405 4593 389C4593 365 4590 351 4568 264C4528 105 4512 84 4512 31C4512 6 4523 -9 4542 -9C4568 -9 4604 12 4702 85ZM4756 152C4756 46 4801 -11 4884 -11C4939 -11 4999 15 5044 57C5106 116 5150 230 5150 331C5150 425 5100 482 5017 482C4913 482 4756 382 4756 152ZM4980 444C5041 444 5074 399 5074 315C5074 219 5043 113 4999 60C4981 39 4955 27 4924 27C4866 27 4832 72 4832 151C4832 264 4871 387 4920 427C4933 438 4956 444 4980 444ZM5213 148C5208 97 5202 62 5191 16C5229 -2 5263 -11 5298 -11C5347 -11 5393 7 5444 47C5495 87 5516 124 5516 174C5516 228 5484 257 5410 271L5367 279C5307 290 5288 307 5288 348C5288 401 5333 442 5390 442C5431 442 5469 424 5485 397L5485 342L5508 342C5512 377 5516 404 5527 455C5488 474 5460 482 5427 482C5375 482 5314 452 5266 404C5240 377 5229 352 5229 316C5229 260 5260 228 5326 215L5389 203C5433 195 5449 177 5449 138C5449 73 5403 29 5332 29C5297 29 5266 40 5238 64L5238 148ZM5915 437L5899 437L5920 549C5936 635 5964 673 6010 673C6040 673 6067 658 6082 634L6092 638C6097 654 6107 685 6115 705L6120 720C6104 727 6073 733 6050 733C6039 733 6023 730 6015 726C5991 715 5909 654 5886 630C5864 608 5852 578 5841 521L5826 442C5785 422 5765 414 5740 405L5735 383L5816 383L5807 327C5777 132 5740 -54 5718 -123C5700 -182 5670 -213 5634 -213C5611 -213 5600 -206 5582 -184L5568 -188C5564 -211 5550 -259 5545 -268C5554 -273 5569 -276 5580 -276C5621 -276 5675 -245 5714 -198C5785 -114 5805 -18 5889 383L5993 383C5997 402 6004 425 6010 439L6006 446C5977 439 5978 437 5915 437ZM6448 111L6424 94C6371 56 6323 36 6287 36C6240 36 6211 73 6211 133C6211 158 6214 185 6219 214C6236 218 6345 248 6370 259C6455 296 6494 342 6494 404C6494 451 6460 482 6410 482C6342 496 6232 423 6195 349C6165 299 6135 180 6135 113C6135 35 6179 -11 6251 -11C6308 -11 6364 17 6456 92ZM6233 274C6250 343 6270 386 6299 412C6317 428 6348 440 6372 440C6401 440 6420 420 6420 388C6420 344 6385 297 6333 272C6305 258 6269 247 6224 237ZM6876 365C6879 403 6884 435 6892 476C6881 481 6877 482 6872 482C6841 482 6810 458 6774 407C6735 351 6696 291 6680 256L6712 408C6716 425 6718 438 6718 450C6718 470 6710 482 6695 482C6674 482 6636 461 6562 408L6534 388L6541 368L6573 389C6601 407 6612 412 6621 412C6631 412 6638 403 6638 390C6638 332 6595 126 6555 -2L6565 -9C6580 -4 6596 -1 6619 4L6632 6L6658 126C6676 209 6699 262 6743 319C6777 363 6804 384 6826 384C6841 384 6851 379 6862 365ZM6930 388L6937 368L6969 389C7006 412 7009 414 7016 414C7026 414 7034 404 7034 391C7034 384 7030 361 7026 347L6960 107C6952 76 6947 49 6947 30C6947 6 6958 -9 6977 -9C7003 -9 7039 12 7137 85L7127 103L7101 86C7072 67 7049 56 7040 56C7033 56 7027 66 7027 76C7027 86 7029 95 7034 116L7111 420C7115 437 7117 448 7117 456C7117 473 7108 482 7092 482C7070 482 7033 461 6958 408ZM7124 712C7095 712 7066 679 7066 645C7066 620 7081 604 7105 604C7136 604 7160 633 7160 671C7160 695 7145 712 7124 712ZM7515 330L7538 330C7546 395 7553 432 7562 458C7538 473 7503 482 7466 482C7421 483 7348 463 7291 400C7237 352 7198 241 7198 136C7198 40 7240 -11 7320 -11C7374 -11 7422 9 7477 54L7527 95L7519 115L7504 105C7432 57 7394 40 7359 40C7303 40 7274 80 7274 159C7274 267 7309 371 7358 409C7379 425 7403 433 7434 433C7479 433 7515 414 7515 390ZM7850 204L7821 77C7817 60 7815 42 7815 26C7815 4 7824 -9 7839 -9C7862 -9 7903 17 7985 85L7978 106C7954 86 7925 59 7903 59C7894 59 7888 68 7888 82C7888 87 7888 90 7889 93L7981 472L7971 481L7938 463C7897 478 7880 482 7853 482C7825 482 7805 477 7778 464C7716 433 7683 403 7658 354C7614 265 7583 145 7583 67C7583 23 7598 -11 7617 -11C7654 -11 7734 41 7850 204ZM7898 414C7876 305 7857 253 7823 201C7766 117 7705 59 7673 59C7661 59 7655 72 7655 99C7655 163 7683 280 7718 360C7742 415 7765 433 7813 433C7836 433 7854 429 7898 414Z" stroke="rgb(0,0,0)" stroke-opacity="1" stroke-width="8" fill="rgb(0,0,0)" fill-opacity="1"></path></g></g></g><g><g><g transform="matrix(1,0,0,1,2,81.2800064086914)"><path transform="matrix(0.017,0,0,-0.017,0,0)" d="M105 664L160 662C184 661 195 653 195 635L112 125C95 34 94 31 54 28L13 25L9 -3L51 -2C92 -1 123 0 141 0C158 0 187 -1 227 -2L280 -3L283 25L218 28C192 29 182 37 182 58C182 67 183 74 186 93L284 648C320 654 336 656 355 656C457 656 506 612 506 519C506 411 434 323 346 323C324 323 304 328 267 342L269 311C306 293 326 288 355 288C484 288 594 405 594 541C594 642 531 695 412 692L108 692Z" stroke="rgb(0,0,0)" stroke-opacity="1" stroke-width="8" fill="rgb(0,0,0)" fill-opacity="1"></path></g></g><g><g><g><g><g transform="matrix(1,0,0,1,12.889999389648438,85.24000396728516)"><path transform="matrix(0.0119,0,0,-0.0119,0,0)" d="M236 722L224 733C179 711 138 697 64 691L60 670L108 670C126 670 142 667 142 647C142 641 142 632 140 622L98 388C78 272 36 80 10 2L17 -9L86 7C94 64 108 164 148 236C193 317 296 414 338 414C349 414 360 407 360 393C360 375 355 342 345 303L294 107C288 85 281 55 281 31C281 6 291 -9 312 -9C344 -9 412 41 471 85L461 103L435 86C412 71 386 56 374 56C367 56 361 65 361 76C361 88 364 101 368 116L432 372C438 398 443 423 443 447C443 464 437 482 411 482C376 482 299 437 231 374C198 343 172 308 144 273L140 275Z" stroke="rgb(0,0,0)" stroke-opacity="1" stroke-width="8" fill="rgb(0,0,0)" fill-opacity="1"></path></g></g></g></g></g><g><g transform="matrix(1,0,0,1,23.240005493164062,81.2800064086914)"><path transform="matrix(0.017,0,0,-0.017,0,0)" d="M123 111C93 111 66 83 66 53C66 23 93 -5 122 -5C154 -5 182 22 182 53C182 83 154 111 123 111ZM123 456C93 456 66 428 66 398C66 368 93 340 122 340C154 340 182 367 182 397C182 428 154 456 123 456Z" stroke="rgb(0,0,0)" stroke-opacity="1" stroke-width="8" fill="rgb(0,0,0)" fill-opacity="1"></path></g></g><g><g transform="matrix(1,0,0,1,30.875,81.2800064086914)"><path transform="matrix(0.017,0,0,-0.017,0,0)" d="M176 -11C232 -11 347 62 390 125C431 186 465 296 465 371C465 438 442 482 406 482C364 482 311 456 259 409C218 374 198 348 162 289L186 408C189 425 191 440 191 452C191 471 183 482 169 482C148 482 110 461 36 408L8 388L15 368L47 389C75 407 86 412 95 412C105 412 112 403 112 389C112 381 110 361 108 351L50 8C40 -52 21 -143 1 -233L-7 -270L0 -276C21 -269 41 -264 73 -259L115 3C136 -4 158 -11 176 -11ZM143 165C165 293 272 424 355 424C381 424 393 402 393 356C393 275 353 156 300 80C280 51 248 36 207 36C176 36 151 43 125 59ZM867 365C870 403 875 435 883 476C872 481 868 482 863 482C832 482 801 458 765 407C726 351 687 291 671 256L703 408C707 425 709 438 709 450C709 470 701 482 686 482C665 482 627 461 553 408L525 388L532 368L564 389C592 407 603 412 612 412C622 412 629 403 629 390C629 332 586 126 546 -2L556 -9C571 -4 587 -1 610 4L623 6L649 126C667 209 690 262 734 319C768 363 795 384 817 384C832 384 842 379 853 365ZM1215 111L1191 94C1138 56 1090 36 1054 36C1007 36 978 73 978 133C978 158 981 185 986 214C1003 218 1112 248 1137 259C1222 296 1261 342 1261 404C1261 451 1227 482 1177 482C1109 496 999 423 962 349C932 299 902 180 902 113C902 35 946 -11 1018 -11C1075 -11 1131 17 1223 92ZM1000 274C1017 343 1037 386 1066 412C1084 428 1115 440 1139 440C1168 440 1187 420 1187 388C1187 344 1152 297 1100 272C1072 258 1036 247 991 237ZM1306 148C1301 97 1295 62 1284 16C1322 -2 1356 -11 1391 -11C1440 -11 1486 7 1537 47C1588 87 1609 124 1609 174C1609 228 1577 257 1503 271L1460 279C1400 290 1381 307 1381 348C1381 401 1426 442 1483 442C1524 442 1562 424 1578 397L1578 342L1601 342C1605 377 1609 404 1620 455C1581 474 1553 482 1520 482C1468 482 1407 452 1359 404C1333 377 1322 352 1322 316C1322 260 1353 228 1419 215L1482 203C1526 195 1542 177 1542 138C1542 73 1496 29 1425 29C1390 29 1359 40 1331 64L1331 148ZM1697 388L1704 368L1736 389C1773 412 1776 414 1783 414C1793 414 1801 404 1801 391C1801 384 1797 361 1793 347L1727 107C1719 76 1714 49 1714 30C1714 6 1725 -9 1744 -9C1770 -9 1806 12 1904 85L1894 103L1868 86C1839 67 1816 56 1807 56C1800 56 1794 66 1794 76C1794 86 1796 95 1801 116L1878 420C1882 437 1884 448 1884 456C1884 473 1875 482 1859 482C1837 482 1800 461 1725 408ZM1891 712C1862 712 1833 679 1833 645C1833 620 1848 604 1872 604C1903 604 1927 633 1927 671C1927 695 1912 712 1891 712ZM1957 152C1957 46 2002 -11 2085 -11C2140 -11 2200 15 2245 57C2307 116 2351 230 2351 331C2351 425 2301 482 2218 482C2114 482 1957 382 1957 152ZM2181 444C2242 444 2275 399 2275 315C2275 219 2244 113 2200 60C2182 39 2156 27 2125 27C2067 27 2033 72 2033 151C2033 264 2072 387 2121 427C2134 438 2157 444 2181 444ZM2407 388L2414 368L2446 389C2483 412 2486 414 2493 414C2504 414 2511 404 2511 389C2511 338 2470 145 2429 2L2436 -9C2461 -2 2484 4 2506 8C2525 134 2546 199 2592 268C2646 352 2721 414 2766 414C2777 414 2783 405 2783 390C2783 372 2780 351 2772 319L2720 107C2711 70 2707 47 2707 31C2707 6 2718 -9 2737 -9C2763 -9 2799 12 2897 85L2887 103L2861 86C2832 67 2810 56 2800 56C2793 56 2787 65 2787 76C2787 81 2788 92 2789 96L2855 372C2862 401 2866 429 2866 446C2866 469 2855 482 2835 482C2793 482 2724 444 2665 389C2627 354 2599 320 2547 247L2585 408C2589 426 2591 438 2591 449C2591 470 2583 482 2568 482C2547 482 2508 460 2435 408ZM3423 722L3411 733C3366 711 3325 697 3251 691L3247 670L3295 670C3313 670 3329 667 3329 647C3329 641 3329 632 3327 622L3285 388C3265 272 3223 80 3197 2L3204 -9L3273 7C3281 64 3295 164 3335 236C3380 317 3483 414 3525 414C3536 414 3547 407 3547 393C3547 375 3542 342 3532 303L3481 107C3475 85 3468 55 3468 31C3468 6 3478 -9 3499 -9C3531 -9 3599 41 3658 85L3648 103L3622 86C3599 71 3573 56 3561 56C3554 56 3548 65 3548 76C3548 88 3551 101 3555 116L3619 372C3625 398 3630 423 3630 447C3630 464 3624 482 3598 482C3563 482 3486 437 3418 374C3385 343 3359 308 3331 273L3327 275ZM3720 388L3727 368L3759 389C3796 412 3799 414 3806 414C3816 414 3824 404 3824 391C3824 384 3820 361 3816 347L3750 107C3742 76 3737 49 3737 30C3737 6 3748 -9 3767 -9C3793 -9 3829 12 3927 85L3917 103L3891 86C3862 67 3839 56 3830 56C3823 56 3817 66 3817 76C3817 86 3819 95 3824 116L3901 420C3905 437 3907 448 3907 456C3907 473 3898 482 3882 482C3860 482 3823 461 3748 408ZM3914 712C3885 712 3856 679 3856 645C3856 620 3871 604 3895 604C3926 604 3950 633 3950 671C3950 695 3935 712 3914 712ZM4446 722L4434 733C4382 707 4346 698 4274 691L4270 670L4318 670C4342 670 4352 663 4352 646C4352 638 4351 629 4350 622L4322 468C4292 477 4265 482 4240 482C4171 482 4077 410 4031 323C4000 265 3980 170 3980 86C3980 21 3995 -11 4024 -11C4051 -11 4088 6 4122 33C4176 77 4209 116 4276 217L4253 126C4242 82 4237 50 4237 24C4237 3 4246 -9 4263 -9C4280 -9 4304 3 4338 28L4419 88L4409 107L4365 76C4351 66 4335 59 4326 59C4318 59 4312 68 4312 82C4312 90 4313 99 4320 128ZM4077 59C4061 59 4052 73 4052 98C4052 224 4098 380 4147 418C4160 428 4179 433 4206 433C4250 433 4279 427 4312 410L4300 351C4263 171 4122 59 4077 59ZM4830 365C4833 403 4838 435 4846 476C4835 481 4831 482 4826 482C4795 482 4764 458 4728 407C4689 351 4650 291 4634 256L4666 408C4670 425 4672 438 4672 450C4672 470 4664 482 4649 482C4628 482 4590 461 4516 408L4488 388L4495 368L4527 389C4555 407 4566 412 4575 412C4585 412 4592 403 4592 390C4592 332 4549 126 4509 -2L4519 -9C4534 -4 4550 -1 4573 4L4586 6L4612 126C4630 209 4653 262 4697 319C4731 363 4758 384 4780 384C4795 384 4805 379 4816 365ZM4867 152C4867 46 4912 -11 4995 -11C5050 -11 5110 15 5155 57C5217 116 5261 230 5261 331C5261 425 5211 482 5128 482C5024 482 4867 382 4867 152ZM5091 444C5152 444 5185 399 5185 315C5185 219 5154 113 5110 60C5092 39 5066 27 5035 27C4977 27 4943 72 4943 151C4943 264 4982 387 5031 427C5044 438 5067 444 5091 444ZM5324 148C5319 97 5313 62 5302 16C5340 -2 5374 -11 5409 -11C5458 -11 5504 7 5555 47C5606 87 5627 124 5627 174C5627 228 5595 257 5521 271L5478 279C5418 290 5399 307 5399 348C5399 401 5444 442 5501 442C5542 442 5580 424 5596 397L5596 342L5619 342C5623 377 5627 404 5638 455C5599 474 5571 482 5538 482C5486 482 5425 452 5377 404C5351 377 5340 352 5340 316C5340 260 5371 228 5437 215L5500 203C5544 195 5560 177 5560 138C5560 73 5514 29 5443 29C5408 29 5377 40 5349 64L5349 148ZM5806 390L5750 107C5749 99 5737 61 5737 31C5737 6 5748 -9 5767 -9C5802 -9 5837 11 5915 74L5946 99L5936 117L5891 86C5862 66 5842 56 5831 56C5822 56 5817 64 5817 76C5817 102 5831 183 5860 328L5873 390L5980 390L5991 440C5953 436 5919 434 5881 434C5897 528 5908 577 5926 631L5915 646C5895 634 5868 622 5837 610L5812 440C5768 419 5742 408 5724 403L5722 390ZM6284 204L6255 77C6251 60 6249 42 6249 26C6249 4 6258 -9 6273 -9C6296 -9 6337 17 6419 85L6412 106C6388 86 6359 59 6337 59C6328 59 6322 68 6322 82C6322 87 6322 90 6323 93L6415 472L6405 481L6372 463C6331 478 6314 482 6287 482C6259 482 6239 477 6212 464C6150 433 6117 403 6092 354C6048 265 6017 145 6017 67C6017 23 6032 -11 6051 -11C6088 -11 6168 41 6284 204ZM6332 414C6310 305 6291 253 6257 201C6200 117 6139 59 6107 59C6095 59 6089 72 6089 99C6089 163 6117 280 6152 360C6176 415 6199 433 6247 433C6270 433 6288 429 6332 414ZM6581 390L6525 107C6524 99 6512 61 6512 31C6512 6 6523 -9 6542 -9C6577 -9 6612 11 6690 74L6721 99L6711 117L6666 86C6637 66 6617 56 6606 56C6597 56 6592 64 6592 76C6592 102 6606 183 6635 328L6648 390L6755 390L6766 440C6728 436 6694 434 6656 434C6672 528 6683 577 6701 631L6690 646C6670 634 6643 622 6612 610L6587 440C6543 419 6517 408 6499 403L6497 390ZM6822 388L6829 368L6861 389C6898 412 6901 414 6908 414C6918 414 6926 404 6926 391C6926 384 6922 361 6918 347L6852 107C6844 76 6839 49 6839 30C6839 6 6850 -9 6869 -9C6895 -9 6931 12 7029 85L7019 103L6993 86C6964 67 6941 56 6932 56C6925 56 6919 66 6919 76C6919 86 6921 95 6926 116L7003 420C7007 437 7009 448 7009 456C7009 473 7000 482 6984 482C6962 482 6925 461 6850 408ZM7016 712C6987 712 6958 679 6958 645C6958 620 6973 604 6997 604C7028 604 7052 633 7052 671C7052 695 7037 712 7016 712ZM7407 330L7430 330C7438 395 7445 432 7454 458C7430 473 7395 482 7358 482C7313 483 7240 463 7183 400C7129 352 7090 241 7090 136C7090 40 7132 -11 7212 -11C7266 -11 7314 9 7369 54L7419 95L7411 115L7396 105C7324 57 7286 40 7251 40C7195 40 7166 80 7166 159C7166 267 7201 371 7250 409C7271 425 7295 433 7326 433C7371 433 7407 414 7407 390ZM7742 204L7713 77C7709 60 7707 42 7707 26C7707 4 7716 -9 7731 -9C7754 -9 7795 17 7877 85L7870 106C7846 86 7817 59 7795 59C7786 59 7780 68 7780 82C7780 87 7780 90 7781 93L7873 472L7863 481L7830 463C7789 478 7772 482 7745 482C7717 482 7697 477 7670 464C7608 433 7575 403 7550 354C7506 265 7475 145 7475 67C7475 23 7490 -11 7509 -11C7546 -11 7626 41 7742 204ZM7790 414C7768 305 7749 253 7715 201C7658 117 7597 59 7565 59C7553 59 7547 72 7547 99C7547 163 7575 280 7610 360C7634 415 7657 433 7705 433C7728 433 7746 429 7790 414Z" stroke="rgb(0,0,0)" stroke-opacity="1" stroke-width="8" fill="rgb(0,0,0)" fill-opacity="1"></path></g></g></g></g></svg>