<svg xmlns="http://www.w3.org/2000/svg" xmlns:xlink="http://www.w3.org/1999/xlink" width="82.88500213623047" height="102.98500061035156" style="width:82.88500213623047px;height:102.98500061035156px;font-family:Asana-Math, Asana;background:#FFF;"><g><g><g><g transform="matrix(1,0,0,1,2,26.215003967285156)"><path transform="matrix(0.017,0,0,-0.017,0,0)" d="M884 473C765 473 644 396 617 277C577 98 558 -97 532 -284C560 -283 590 -277 616 -266C614 -222 613 -145 643 29C667 -5 704 -15 745 -15C922 -15 1020 168 1023 325C1025 420 980 473 884 473ZM845 441C924 441 944 380 943 311C942 203 896 11 758 11C680 11 662 72 664 138C666 243 708 441 845 441Z" stroke="rgb(0,0,0)" stroke-opacity="1" stroke-width="8" fill="rgb(0,0,0)" fill-opacity="1"></path></g></g><g><g transform="matrix(1,0,0,1,25.19000244140625,26.215003967285156)"><path transform="matrix(0.017,0,0,-0.017,0,0)" d="M604 347L604 406L65 406L65 347ZM604 134L604 193L65 193L65 134Z" stroke="rgb(0,0,0)" stroke-opacity="1" stroke-width="8" fill="rgb(0,0,0)" fill-opacity="1"></path></g></g><g><g><g><g><g transform="matrix(1,0,0,1,43.339996337890625,14.050003051757812)"><path transform="matrix(0.017,0,0,-0.017,0,0)" d="M730 103L704 86C675 67 653 56 643 56C636 56 630 65 630 76C630 86 632 95 637 116L712 413C716 430 719 446 719 454C719 471 709 482 693 482C664 482 626 464 565 421C502 376 467 341 418 272L448 409C452 429 455 444 455 451C455 470 445 482 429 482C399 482 353 460 298 418C254 384 234 363 169 275L202 408C206 424 208 439 208 451C208 470 199 482 185 482C164 482 126 461 52 408L24 388L31 368C68 391 103 414 110 414C121 414 128 404 128 389C128 338 87 145 46 2L49 -9L117 6L139 108C163 219 190 278 245 338C287 384 332 414 360 414C367 414 371 406 371 393C371 358 349 244 308 69L292 2L297 -9L366 6L387 113C403 194 437 269 481 318C536 379 586 414 618 414C626 414 631 405 631 389C631 365 628 351 606 264C566 105 550 84 550 31C550 6 561 -9 580 -9C606 -9 642 12 740 85Z" stroke="rgb(0,0,0)" stroke-opacity="1" stroke-width="8" fill="rgb(0,0,0)" fill-opacity="1"></path></g></g></g></g><g><g><g><g transform="matrix(1,0,0,1,45.694976806640625,39.38500213623047)"><path transform="matrix(0.017,0,0,-0.017,0,0)" d="M166 420C187 420 203 421 229 424C118 304 76 221 76 121C76 44 122 -11 186 -11C324 -11 477 236 477 384C477 441 451 482 415 482C402 482 390 478 382 470L332 423L343 404C352 410 361 413 370 413C397 413 413 390 413 350C413 202 316 39 228 39C179 39 148 81 148 146C148 251 187 342 285 464L275 482C255 473 242 470 214 470C186 470 144 472 115 475L103 476C97 477 92 477 91 477C79 477 70 475 59 470C45 443 34 407 21 352L43 352L60 394C67 411 87 422 111 422C144 422 128 420 166 420Z" stroke="rgb(0,0,0)" stroke-opacity="1" stroke-width="8" fill="rgb(0,0,0)" fill-opacity="1"></path></g></g></g></g><line style="fill:none;stroke-width:0.99px;stroke:rgb(0, 0, 0);" x1="43.339996337890625" y1="22.250002145767212" x2="56.554996490478516" y2="22.250002145767212"></line></g></g><g></g><g><g><g transform="matrix(1,0,0,1,2,76.70500946044922)"><path transform="matrix(0.017,0,0,-0.017,0,0)" d="M730 103L704 86C675 67 653 56 643 56C636 56 630 65 630 76C630 86 632 95 637 116L712 413C716 430 719 446 719 454C719 471 709 482 693 482C664 482 626 464 565 421C502 376 467 341 418 272L448 409C452 429 455 444 455 451C455 470 445 482 429 482C399 482 353 460 298 418C254 384 234 363 169 275L202 408C206 424 208 439 208 451C208 470 199 482 185 482C164 482 126 461 52 408L24 388L31 368C68 391 103 414 110 414C121 414 128 404 128 389C128 338 87 145 46 2L49 -9L117 6L139 108C163 219 190 278 245 338C287 384 332 414 360 414C367 414 371 406 371 393C371 358 349 244 308 69L292 2L297 -9L366 6L387 113C403 194 437 269 481 318C536 379 586 414 618 414C626 414 631 405 631 389C631 365 628 351 606 264C566 105 550 84 550 31C550 6 561 -9 580 -9C606 -9 642 12 740 85Z" stroke="rgb(0,0,0)" stroke-opacity="1" stroke-width="8" fill="rgb(0,0,0)" fill-opacity="1"></path></g></g><g><g transform="matrix(1,0,0,1,18.60498046875,76.70500946044922)"><path transform="matrix(0.017,0,0,-0.017,0,0)" d="M123 111C93 111 66 83 66 53C66 23 93 -5 122 -5C154 -5 182 22 182 53C182 83 154 111 123 111ZM123 456C93 456 66 428 66 398C66 368 93 340 122 340C154 340 182 367 182 397C182 428 154 456 123 456Z" stroke="rgb(0,0,0)" stroke-opacity="1" stroke-width="8" fill="rgb(0,0,0)" fill-opacity="1"></path></g></g><g><g transform="matrix(1,0,0,1,26.239990234375,76.70500946044922)"><path transform="matrix(0.017,0,0,-0.017,0,0)" d="M730 103L704 86C675 67 653 56 643 56C636 56 630 65 630 76C630 86 632 95 637 116L712 413C716 430 719 446 719 454C719 471 709 482 693 482C664 482 626 464 565 421C502 376 467 341 418 272L448 409C452 429 455 444 455 451C455 470 445 482 429 482C399 482 353 460 298 418C254 384 234 363 169 275L202 408C206 424 208 439 208 451C208 470 199 482 185 482C164 482 126 461 52 408L24 388L31 368C68 391 103 414 110 414C121 414 128 404 128 389C128 338 87 145 46 2L49 -9L117 6L139 108C163 219 190 278 245 338C287 384 332 414 360 414C367 414 371 406 371 393C371 358 349 244 308 69L292 2L297 -9L366 6L387 113C403 194 437 269 481 318C536 379 586 414 618 414C626 414 631 405 631 389C631 365 628 351 606 264C566 105 550 84 550 31C550 6 561 -9 580 -9C606 -9 642 12 740 85ZM1048 204L1019 77C1015 60 1013 42 1013 26C1013 4 1022 -9 1037 -9C1060 -9 1101 17 1183 85L1176 106C1152 86 1123 59 1101 59C1092 59 1086 68 1086 82C1086 87 1086 90 1087 93L1179 472L1169 481L1136 463C1095 478 1078 482 1051 482C1023 482 1003 477 976 464C914 433 881 403 856 354C812 265 781 145 781 67C781 23 796 -11 815 -11C852 -11 932 41 1048 204ZM1096 414C1074 305 1055 253 1021 201C964 117 903 59 871 59C859 59 853 72 853 99C853 163 881 280 916 360C940 415 963 433 1011 433C1034 433 1052 429 1096 414ZM1251 148C1246 97 1240 62 1229 16C1267 -2 1301 -11 1336 -11C1385 -11 1431 7 1482 47C1533 87 1554 124 1554 174C1554 228 1522 257 1448 271L1405 279C1345 290 1326 307 1326 348C1326 401 1371 442 1428 442C1469 442 1507 424 1523 397L1523 342L1546 342C1550 377 1554 404 1565 455C1526 474 1498 482 1465 482C1413 482 1352 452 1304 404C1278 377 1267 352 1267 316C1267 260 1298 228 1364 215L1427 203C1471 195 1487 177 1487 138C1487 73 1441 29 1370 29C1335 29 1304 40 1276 64L1276 148ZM1879 204L1850 77C1846 60 1844 42 1844 26C1844 4 1853 -9 1868 -9C1891 -9 1932 17 2014 85L2007 106C1983 86 1954 59 1932 59C1923 59 1917 68 1917 82C1917 87 1917 90 1918 93L2010 472L2000 481L1967 463C1926 478 1909 482 1882 482C1854 482 1834 477 1807 464C1745 433 1712 403 1687 354C1643 265 1612 145 1612 67C1612 23 1627 -11 1646 -11C1683 -11 1763 41 1879 204ZM1927 414C1905 305 1886 253 1852 201C1795 117 1734 59 1702 59C1690 59 1684 72 1684 99C1684 163 1712 280 1747 360C1771 415 1794 433 1842 433C1865 433 1883 429 1927 414Z" stroke="rgb(0,0,0)" stroke-opacity="1" stroke-width="8" fill="rgb(0,0,0)" fill-opacity="1"></path></g></g></g><g><g><g transform="matrix(1,0,0,1,2,96.8650131225586)"><path transform="matrix(0.017,0,0,-0.017,0,0)" d="M166 420C187 420 203 421 229 424C118 304 76 221 76 121C76 44 122 -11 186 -11C324 -11 477 236 477 384C477 441 451 482 415 482C402 482 390 478 382 470L332 423L343 404C352 410 361 413 370 413C397 413 413 390 413 350C413 202 316 39 228 39C179 39 148 81 148 146C148 251 187 342 285 464L275 482C255 473 242 470 214 470C186 470 144 472 115 475L103 476C97 477 92 477 91 477C79 477 70 475 59 470C45 443 34 407 21 352L43 352L60 394C67 411 87 422 111 422C144 422 128 420 166 420Z" stroke="rgb(0,0,0)" stroke-opacity="1" stroke-width="8" fill="rgb(0,0,0)" fill-opacity="1"></path></g></g><g><g transform="matrix(1,0,0,1,13.879974365234375,96.8650131225586)"><path transform="matrix(0.017,0,0,-0.017,0,0)" d="M123 111C93 111 66 83 66 53C66 23 93 -5 122 -5C154 -5 182 22 182 53C182 83 154 111 123 111ZM123 456C93 456 66 428 66 398C66 368 93 340 122 340C154 340 182 367 182 397C182 428 154 456 123 456Z" stroke="rgb(0,0,0)" stroke-opacity="1" stroke-width="8" fill="rgb(0,0,0)" fill-opacity="1"></path></g></g><g><g transform="matrix(1,0,0,1,21.514984130859375,96.8650131225586)"><path transform="matrix(0.017,0,0,-0.017,0,0)" d="M166 420C187 420 203 421 229 424C118 304 76 221 76 121C76 44 122 -11 186 -11C324 -11 477 236 477 384C477 441 451 482 415 482C402 482 390 478 382 470L332 423L343 404C352 410 361 413 370 413C397 413 413 390 413 350C413 202 316 39 228 39C179 39 148 81 148 146C148 251 187 342 285 464L275 482C255 473 242 470 214 470C186 470 144 472 115 475L103 476C97 477 92 477 91 477C79 477 70 475 59 470C45 443 34 407 21 352L43 352L60 394C67 411 87 422 111 422C144 422 128 420 166 420ZM516 152C516 46 561 -11 644 -11C699 -11 759 15 804 57C866 116 910 230 910 331C910 425 860 482 777 482C673 482 516 382 516 152ZM740 444C801 444 834 399 834 315C834 219 803 113 759 60C741 39 715 27 684 27C626 27 592 72 592 151C592 264 631 387 680 427C693 438 716 444 740 444ZM1193 722L1181 733C1129 707 1093 698 1021 691L1017 670L1065 670C1089 670 1099 663 1099 648C1099 645 1099 640 1096 622C1085 567 1012 182 997 132C984 82 978 52 978 31C978 6 989 -9 1008 -9C1034 -9 1070 12 1168 85L1158 103L1132 86C1103 67 1081 56 1071 56C1064 56 1058 66 1058 76C1058 82 1059 89 1062 104ZM1711 473L1704 482L1636 465L1626 414C1611 336 1586 268 1555 221C1496 130 1418 59 1378 59C1370 59 1365 68 1365 85C1365 99 1367 112 1372 137L1429 408C1432 424 1434 438 1434 451C1434 470 1425 482 1411 482C1391 482 1353 461 1279 408L1251 388L1258 368L1290 389C1318 407 1329 412 1338 412C1347 412 1355 403 1355 392C1355 388 1354 378 1353 374L1290 77C1288 68 1286 44 1286 30C1286 7 1301 -11 1321 -11C1384 -11 1505 101 1589 239L1552 97C1545 73 1541 46 1541 31C1541 6 1552 -9 1571 -9C1597 -9 1633 12 1731 85L1721 103L1695 86C1671 70 1645 59 1634 59C1626 59 1621 66 1621 76C1621 112 1696 416 1711 473ZM2504 103L2478 86C2449 67 2427 56 2417 56C2410 56 2404 65 2404 76C2404 86 2406 95 2411 116L2486 413C2490 430 2493 446 2493 454C2493 471 2483 482 2467 482C2438 482 2400 464 2339 421C2276 376 2241 341 2192 272L2222 409C2226 429 2229 444 2229 451C2229 470 2219 482 2203 482C2173 482 2127 460 2072 418C2028 384 2008 363 1943 275L1976 408C1980 424 1982 439 1982 451C1982 470 1973 482 1959 482C1938 482 1900 461 1826 408L1798 388L1805 368C1842 391 1877 414 1884 414C1895 414 1902 404 1902 389C1902 338 1861 145 1820 2L1823 -9L1891 6L1913 108C1937 219 1964 278 2019 338C2061 384 2106 414 2134 414C2141 414 2145 406 2145 393C2145 358 2123 244 2082 69L2066 2L2071 -9L2140 6L2161 113C2177 194 2211 269 2255 318C2310 379 2360 414 2392 414C2400 414 2405 405 2405 389C2405 365 2402 351 2380 264C2340 105 2324 84 2324 31C2324 6 2335 -9 2354 -9C2380 -9 2416 12 2514 85ZM2879 111L2855 94C2802 56 2754 36 2718 36C2671 36 2642 73 2642 133C2642 158 2645 185 2650 214C2667 218 2776 248 2801 259C2886 296 2925 342 2925 404C2925 451 2891 482 2841 482C2773 496 2663 423 2626 349C2596 299 2566 180 2566 113C2566 35 2610 -11 2682 -11C2739 -11 2795 17 2887 92ZM2664 274C2681 343 2701 386 2730 412C2748 428 2779 440 2803 440C2832 440 2851 420 2851 388C2851 344 2816 297 2764 272C2736 258 2700 247 2655 237ZM2963 388L2970 368L3002 389C3039 412 3042 414 3049 414C3060 414 3067 404 3067 389C3067 338 3026 145 2985 2L2992 -9C3017 -2 3040 4 3062 8C3081 134 3102 199 3148 268C3202 352 3277 414 3322 414C3333 414 3339 405 3339 390C3339 372 3336 351 3328 319L3276 107C3267 70 3263 47 3263 31C3263 6 3274 -9 3293 -9C3319 -9 3355 12 3453 85L3443 103L3417 86C3388 67 3366 56 3356 56C3349 56 3343 65 3343 76C3343 81 3344 92 3345 96L3411 372C3418 401 3422 429 3422 446C3422 469 3411 482 3391 482C3349 482 3280 444 3221 389C3183 354 3155 320 3103 247L3141 408C3145 426 3147 438 3147 449C3147 470 3139 482 3124 482C3103 482 3064 460 2991 408Z" stroke="rgb(0,0,0)" stroke-opacity="1" stroke-width="8" fill="rgb(0,0,0)" fill-opacity="1"></path></g></g></g></g></svg>