<svg xmlns="http://www.w3.org/2000/svg" xmlns:xlink="http://www.w3.org/1999/xlink" width="160.15000915527344" height="124.96000671386719" style="width:160.15000915527344px;height:124.96000671386719px;font-family:Asana-Math, Asana;background:#FFF;"><g><g><g><g transform="matrix(1,0,0,1,2,18.040000915527344)"><path transform="matrix(0.017,0,0,-0.017,0,0)" d="M2462 334L2579 334L2711 330L2730 375L2726 382C2645 378 2585 376 2507 376L2470 376L2517 646C2549 647 2632 650 2654 650C2716 650 2757 641 2758 626L2766 537L2790 537C2793 601 2800 651 2811 689C2790 691 2760 692 2742 692C2739 692 2728 692 2704 691L2584 690C2575 689 2401 691 2391 691L2346 692L2343 664L2397 662C2421 661 2432 653 2432 635C2432 621 2428 589 2423 559L2336 55C2332 37 2320 30 2276 23L2271 -3L2312 -2C2343 -1 2405 0 2425 0L2650 -3C2664 -3 2689 -2 2722 -1L2755 0L2759 36C2761 56 2766 86 2775 135L2780 161L2753 161L2737 101C2727 65 2718 53 2696 48C2676 44 2603 39 2549 39C2508 39 2481 40 2412 46Z" stroke="rgb(0,0,0)" stroke-opacity="1" stroke-width="8" fill="rgb(0,0,0)" fill-opacity="1"></path></g></g><g><g transform="matrix(1,0,0,1,55.55000305175781,18.040000915527344)"><path transform="matrix(0.017,0,0,-0.017,0,0)" d="M604 347L604 406L65 406L65 347ZM604 134L604 193L65 193L65 134Z" stroke="rgb(0,0,0)" stroke-opacity="1" stroke-width="8" fill="rgb(0,0,0)" fill-opacity="1"></path></g></g><g><g transform="matrix(1,0,0,1,72.00498962402344,18.040000915527344)"><path transform="matrix(0.017,0,0,-0.017,0,0)" d="M386 473C267 473 146 396 119 277C79 98 60 -97 34 -284C62 -283 92 -277 118 -266C116 -222 115 -145 145 29C169 -5 206 -15 247 -15C424 -15 522 168 525 325C527 420 482 473 386 473ZM347 441C426 441 446 380 445 311C444 203 398 11 260 11C182 11 164 72 166 138C168 243 210 441 347 441ZM876 96L805 624C803 646 807 661 847 662L889 664L889 692L848 691C811 690 783 689 765 689C747 689 719 690 682 691L641 692L641 664L666 662C710 659 718 651 725 614L813 -8L862 -8L1240 611C1265 651 1273 658 1302 662L1320 664L1320 692L1290 691C1263 690 1240 689 1224 689C1214 689 1187 690 1146 691L1100 692L1100 664L1126 662C1164 659 1183 649 1183 630C1183 619 1179 608 1167 588ZM1562 482C1495 482 1342 419 1342 259C1342 182 1387 136 1464 136C1472 136 1483 136 1494 137L1453 99C1437 84 1426 66 1426 52C1426 42 1433 31 1447 19C1378 -4 1250 -48 1250 -159C1250 -230 1320 -276 1429 -276C1558 -276 1671 -204 1671 -121C1671 -85 1650 -49 1607 -14L1547 35C1513 62 1500 81 1500 100C1500 114 1515 128 1527 146C1625 170 1696 253 1696 342C1696 357 1693 376 1692 380C1709 378 1717 378 1726 378C1743 378 1753 379 1776 382L1785 427L1782 433C1754 426 1734 424 1680 424C1680 425 1656 482 1562 482ZM1463 1L1540 -58C1586 -94 1605 -121 1605 -154C1605 -206 1536 -248 1453 -248C1371 -248 1314 -206 1314 -145C1314 -43 1424 -11 1463 1ZM1537 448C1595 448 1624 412 1624 341C1624 238 1576 168 1506 168C1445 168 1413 209 1413 288C1413 383 1464 448 1537 448Z" stroke="rgb(0,0,0)" stroke-opacity="1" stroke-width="8" fill="rgb(0,0,0)" fill-opacity="1"></path></g></g></g><g></g><g><g><g transform="matrix(1,0,0,1,2,58.360008239746094)"><path transform="matrix(0.017,0,0,-0.017,0,0)" d="M386 473C267 473 146 396 119 277C79 98 60 -97 34 -284C62 -283 92 -277 118 -266C116 -222 115 -145 145 29C169 -5 206 -15 247 -15C424 -15 522 168 525 325C527 420 482 473 386 473ZM347 441C426 441 446 380 445 311C444 203 398 11 260 11C182 11 164 72 166 138C168 243 210 441 347 441Z" stroke="rgb(0,0,0)" stroke-opacity="1" stroke-width="8" fill="rgb(0,0,0)" fill-opacity="1"></path></g></g><g><g transform="matrix(1,0,0,1,15.020004272460938,58.360008239746094)"><path transform="matrix(0.017,0,0,-0.017,0,0)" d="M123 111C93 111 66 83 66 53C66 23 93 -5 122 -5C154 -5 182 22 182 53C182 83 154 111 123 111ZM123 456C93 456 66 428 66 398C66 368 93 340 122 340C154 340 182 367 182 397C182 428 154 456 123 456Z" stroke="rgb(0,0,0)" stroke-opacity="1" stroke-width="8" fill="rgb(0,0,0)" fill-opacity="1"></path></g></g><g><g transform="matrix(1,0,0,1,22.654998779296875,58.360008239746094)"><path transform="matrix(0.017,0,0,-0.017,0,0)" d="M483 722L471 733C419 707 383 698 311 691L307 670L355 670C379 670 389 663 389 646C389 638 388 629 387 622L359 468C329 477 302 482 277 482C208 482 114 410 68 323C37 265 17 170 17 86C17 21 32 -11 61 -11C88 -11 125 6 159 33C213 77 246 116 313 217L290 126C279 82 274 50 274 24C274 3 283 -9 300 -9C317 -9 341 3 375 28L456 88L446 107L402 76C388 66 372 59 363 59C355 59 349 68 349 82C349 90 350 99 357 128ZM114 59C98 59 89 73 89 98C89 224 135 380 184 418C197 428 216 433 243 433C287 433 316 427 349 410L337 351C300 171 159 59 114 59ZM827 111L803 94C750 56 702 36 666 36C619 36 590 73 590 133C590 158 593 185 598 214C615 218 724 248 749 259C834 296 873 342 873 404C873 451 839 482 789 482C721 496 611 423 574 349C544 299 514 180 514 113C514 35 558 -11 630 -11C687 -11 743 17 835 92ZM612 274C629 343 649 386 678 412C696 428 727 440 751 440C780 440 799 420 799 388C799 344 764 297 712 272C684 258 648 247 603 237ZM911 388L918 368L950 389C987 412 990 414 997 414C1008 414 1015 404 1015 389C1015 338 974 145 933 2L940 -9C965 -2 988 4 1010 8C1029 134 1050 199 1096 268C1150 352 1225 414 1270 414C1281 414 1287 405 1287 390C1287 372 1284 351 1276 319L1224 107C1215 70 1211 47 1211 31C1211 6 1222 -9 1241 -9C1267 -9 1303 12 1401 85L1391 103L1365 86C1336 67 1314 56 1304 56C1297 56 1291 65 1291 76C1291 81 1292 92 1293 96L1359 372C1366 401 1370 429 1370 446C1370 469 1359 482 1339 482C1297 482 1228 444 1169 389C1131 354 1103 320 1051 247L1089 408C1093 426 1095 438 1095 449C1095 470 1087 482 1072 482C1051 482 1012 460 939 408ZM1473 148C1468 97 1462 62 1451 16C1489 -2 1523 -11 1558 -11C1607 -11 1653 7 1704 47C1755 87 1776 124 1776 174C1776 228 1744 257 1670 271L1627 279C1567 290 1548 307 1548 348C1548 401 1593 442 1650 442C1691 442 1729 424 1745 397L1745 342L1768 342C1772 377 1776 404 1787 455C1748 474 1720 482 1687 482C1635 482 1574 452 1526 404C1500 377 1489 352 1489 316C1489 260 1520 228 1586 215L1649 203C1693 195 1709 177 1709 138C1709 73 1663 29 1592 29C1557 29 1526 40 1498 64L1498 148ZM1864 388L1871 368L1903 389C1940 412 1943 414 1950 414C1960 414 1968 404 1968 391C1968 384 1964 361 1960 347L1894 107C1886 76 1881 49 1881 30C1881 6 1892 -9 1911 -9C1937 -9 1973 12 2071 85L2061 103L2035 86C2006 67 1983 56 1974 56C1967 56 1961 66 1961 76C1961 86 1963 95 1968 116L2045 420C2049 437 2051 448 2051 456C2051 473 2042 482 2026 482C2004 482 1967 461 1892 408ZM2058 712C2029 712 2000 679 2000 645C2000 620 2015 604 2039 604C2070 604 2094 633 2094 671C2094 695 2079 712 2058 712ZM2590 722L2578 733C2526 707 2490 698 2418 691L2414 670L2462 670C2486 670 2496 663 2496 646C2496 638 2495 629 2494 622L2466 468C2436 477 2409 482 2384 482C2315 482 2221 410 2175 323C2144 265 2124 170 2124 86C2124 21 2139 -11 2168 -11C2195 -11 2232 6 2266 33C2320 77 2353 116 2420 217L2397 126C2386 82 2381 50 2381 24C2381 3 2390 -9 2407 -9C2424 -9 2448 3 2482 28L2563 88L2553 107L2509 76C2495 66 2479 59 2470 59C2462 59 2456 68 2456 82C2456 90 2457 99 2464 128ZM2221 59C2205 59 2196 73 2196 98C2196 224 2242 380 2291 418C2304 428 2323 433 2350 433C2394 433 2423 427 2456 410L2444 351C2407 171 2266 59 2221 59ZM2877 204L2848 77C2844 60 2842 42 2842 26C2842 4 2851 -9 2866 -9C2889 -9 2930 17 3012 85L3005 106C2981 86 2952 59 2930 59C2921 59 2915 68 2915 82C2915 87 2915 90 2916 93L3008 472L2998 481L2965 463C2924 478 2907 482 2880 482C2852 482 2832 477 2805 464C2743 433 2710 403 2685 354C2641 265 2610 145 2610 67C2610 23 2625 -11 2644 -11C2681 -11 2761 41 2877 204ZM2925 414C2903 305 2884 253 2850 201C2793 117 2732 59 2700 59C2688 59 2682 72 2682 99C2682 163 2710 280 2745 360C2769 415 2792 433 2840 433C2863 433 2881 429 2925 414ZM3532 722L3520 733C3468 707 3432 698 3360 691L3356 670L3404 670C3428 670 3438 663 3438 646C3438 638 3437 629 3436 622L3408 468C3378 477 3351 482 3326 482C3257 482 3163 410 3117 323C3086 265 3066 170 3066 86C3066 21 3081 -11 3110 -11C3137 -11 3174 6 3208 33C3262 77 3295 116 3362 217L3339 126C3328 82 3323 50 3323 24C3323 3 3332 -9 3349 -9C3366 -9 3390 3 3424 28L3505 88L3495 107L3451 76C3437 66 3421 59 3412 59C3404 59 3398 68 3398 82C3398 90 3399 99 3406 128ZM3163 59C3147 59 3138 73 3138 98C3138 224 3184 380 3233 418C3246 428 3265 433 3292 433C3336 433 3365 427 3398 410L3386 351C3349 171 3208 59 3163 59Z" stroke="rgb(0,0,0)" stroke-opacity="1" stroke-width="8" fill="rgb(0,0,0)" fill-opacity="1"></path></g></g></g><g><g><g transform="matrix(1,0,0,1,2,78.52001190185547)"><path transform="matrix(0.017,0,0,-0.017,0,0)" d="M310 96L239 624C237 646 241 661 281 662L323 664L323 692L282 691C245 690 217 689 199 689C181 689 153 690 116 691L75 692L75 664L100 662C144 659 152 651 159 614L247 -8L296 -8L674 611C699 651 707 658 736 662L754 664L754 692L724 691C697 690 674 689 658 689C648 689 621 690 580 691L534 692L534 664L560 662C598 659 617 649 617 630C617 619 613 608 601 588Z" stroke="rgb(0,0,0)" stroke-opacity="1" stroke-width="8" fill="rgb(0,0,0)" fill-opacity="1"></path></g></g><g><g transform="matrix(1,0,0,1,17.645004272460938,78.52001190185547)"><path transform="matrix(0.017,0,0,-0.017,0,0)" d="M123 111C93 111 66 83 66 53C66 23 93 -5 122 -5C154 -5 182 22 182 53C182 83 154 111 123 111ZM123 456C93 456 66 428 66 398C66 368 93 340 122 340C154 340 182 367 182 397C182 428 154 456 123 456Z" stroke="rgb(0,0,0)" stroke-opacity="1" stroke-width="8" fill="rgb(0,0,0)" fill-opacity="1"></path></g></g><g><g transform="matrix(1,0,0,1,25.279998779296875,78.52001190185547)"><path transform="matrix(0.017,0,0,-0.017,0,0)" d="M166 420C187 420 203 421 229 424C118 304 76 221 76 121C76 44 122 -11 186 -11C324 -11 477 236 477 384C477 441 451 482 415 482C402 482 390 478 382 470L332 423L343 404C352 410 361 413 370 413C397 413 413 390 413 350C413 202 316 39 228 39C179 39 148 81 148 146C148 251 187 342 285 464L275 482C255 473 242 470 214 470C186 470 144 472 115 475L103 476C97 477 92 477 91 477C79 477 70 475 59 470C45 443 34 407 21 352L43 352L60 394C67 411 87 422 111 422C144 422 128 420 166 420ZM516 152C516 46 561 -11 644 -11C699 -11 759 15 804 57C866 116 910 230 910 331C910 425 860 482 777 482C673 482 516 382 516 152ZM740 444C801 444 834 399 834 315C834 219 803 113 759 60C741 39 715 27 684 27C626 27 592 72 592 151C592 264 631 387 680 427C693 438 716 444 740 444ZM1193 722L1181 733C1129 707 1093 698 1021 691L1017 670L1065 670C1089 670 1099 663 1099 648C1099 645 1099 640 1096 622C1085 567 1012 182 997 132C984 82 978 52 978 31C978 6 989 -9 1008 -9C1034 -9 1070 12 1168 85L1158 103L1132 86C1103 67 1081 56 1071 56C1064 56 1058 66 1058 76C1058 82 1059 89 1062 104ZM1711 473L1704 482L1636 465L1626 414C1611 336 1586 268 1555 221C1496 130 1418 59 1378 59C1370 59 1365 68 1365 85C1365 99 1367 112 1372 137L1429 408C1432 424 1434 438 1434 451C1434 470 1425 482 1411 482C1391 482 1353 461 1279 408L1251 388L1258 368L1290 389C1318 407 1329 412 1338 412C1347 412 1355 403 1355 392C1355 388 1354 378 1353 374L1290 77C1288 68 1286 44 1286 30C1286 7 1301 -11 1321 -11C1384 -11 1505 101 1589 239L1552 97C1545 73 1541 46 1541 31C1541 6 1552 -9 1571 -9C1597 -9 1633 12 1731 85L1721 103L1695 86C1671 70 1645 59 1634 59C1626 59 1621 66 1621 76C1621 112 1696 416 1711 473ZM2504 103L2478 86C2449 67 2427 56 2417 56C2410 56 2404 65 2404 76C2404 86 2406 95 2411 116L2486 413C2490 430 2493 446 2493 454C2493 471 2483 482 2467 482C2438 482 2400 464 2339 421C2276 376 2241 341 2192 272L2222 409C2226 429 2229 444 2229 451C2229 470 2219 482 2203 482C2173 482 2127 460 2072 418C2028 384 2008 363 1943 275L1976 408C1980 424 1982 439 1982 451C1982 470 1973 482 1959 482C1938 482 1900 461 1826 408L1798 388L1805 368C1842 391 1877 414 1884 414C1895 414 1902 404 1902 389C1902 338 1861 145 1820 2L1823 -9L1891 6L1913 108C1937 219 1964 278 2019 338C2061 384 2106 414 2134 414C2141 414 2145 406 2145 393C2145 358 2123 244 2082 69L2066 2L2071 -9L2140 6L2161 113C2177 194 2211 269 2255 318C2310 379 2360 414 2392 414C2400 414 2405 405 2405 389C2405 365 2402 351 2380 264C2340 105 2324 84 2324 31C2324 6 2335 -9 2354 -9C2380 -9 2416 12 2514 85ZM2879 111L2855 94C2802 56 2754 36 2718 36C2671 36 2642 73 2642 133C2642 158 2645 185 2650 214C2667 218 2776 248 2801 259C2886 296 2925 342 2925 404C2925 451 2891 482 2841 482C2773 496 2663 423 2626 349C2596 299 2566 180 2566 113C2566 35 2610 -11 2682 -11C2739 -11 2795 17 2887 92ZM2664 274C2681 343 2701 386 2730 412C2748 428 2779 440 2803 440C2832 440 2851 420 2851 388C2851 344 2816 297 2764 272C2736 258 2700 247 2655 237ZM2963 388L2970 368L3002 389C3039 412 3042 414 3049 414C3060 414 3067 404 3067 389C3067 338 3026 145 2985 2L2992 -9C3017 -2 3040 4 3062 8C3081 134 3102 199 3148 268C3202 352 3277 414 3322 414C3333 414 3339 405 3339 390C3339 372 3336 351 3328 319L3276 107C3267 70 3263 47 3263 31C3263 6 3274 -9 3293 -9C3319 -9 3355 12 3453 85L3443 103L3417 86C3388 67 3366 56 3356 56C3349 56 3343 65 3343 76C3343 81 3344 92 3345 96L3411 372C3418 401 3422 429 3422 446C3422 469 3411 482 3391 482C3349 482 3280 444 3221 389C3183 354 3155 320 3103 247L3141 408C3145 426 3147 438 3147 449C3147 470 3139 482 3124 482C3103 482 3064 460 2991 408ZM3979 722L3967 733C3922 711 3881 697 3807 691L3803 670L3851 670C3869 670 3885 667 3885 647C3885 641 3885 632 3883 622L3841 388C3821 272 3779 80 3753 2L3760 -9L3829 7C3837 64 3851 164 3891 236C3936 317 4039 414 4081 414C4092 414 4103 407 4103 393C4103 375 4098 342 4088 303L4037 107C4031 85 4024 55 4024 31C4024 6 4034 -9 4055 -9C4087 -9 4155 41 4214 85L4204 103L4178 86C4155 71 4129 56 4117 56C4110 56 4104 65 4104 76C4104 88 4107 101 4111 116L4175 372C4181 398 4186 423 4186 447C4186 464 4180 482 4154 482C4119 482 4042 437 3974 374C3941 343 3915 308 3887 273L3883 275ZM4734 473L4727 482L4659 465L4649 414C4634 336 4609 268 4578 221C4519 130 4441 59 4401 59C4393 59 4388 68 4388 85C4388 99 4390 112 4395 137L4452 408C4455 424 4457 438 4457 451C4457 470 4448 482 4434 482C4414 482 4376 461 4302 408L4274 388L4281 368L4313 389C4341 407 4352 412 4361 412C4370 412 4378 403 4378 392C4378 388 4377 378 4376 374L4313 77C4311 68 4309 44 4309 30C4309 7 4324 -11 4344 -11C4407 -11 4528 101 4612 239L4575 97C4568 73 4564 46 4564 31C4564 6 4575 -9 4594 -9C4620 -9 4656 12 4754 85L4744 103L4718 86C4694 70 4668 59 4657 59C4649 59 4644 66 4644 76C4644 112 4719 416 4734 473ZM4821 388L4828 368L4860 389C4897 412 4900 414 4907 414C4918 414 4925 404 4925 389C4925 338 4884 145 4843 2L4850 -9C4875 -2 4898 4 4920 8C4939 134 4960 199 5006 268C5060 352 5135 414 5180 414C5191 414 5197 405 5197 390C5197 372 5194 351 5186 319L5134 107C5125 70 5121 47 5121 31C5121 6 5132 -9 5151 -9C5177 -9 5213 12 5311 85L5301 103L5275 86C5246 67 5224 56 5214 56C5207 56 5201 65 5201 76C5201 81 5202 92 5203 96L5269 372C5276 401 5280 429 5280 446C5280 469 5269 482 5249 482C5207 482 5138 444 5079 389C5041 354 5013 320 4961 247L4999 408C5003 426 5005 438 5005 449C5005 470 4997 482 4982 482C4961 482 4922 460 4849 408ZM5835 722L5823 733C5771 707 5735 698 5663 691L5659 670L5707 670C5731 670 5741 663 5741 646C5741 638 5740 629 5739 622L5711 468C5681 477 5654 482 5629 482C5560 482 5466 410 5420 323C5389 265 5369 170 5369 86C5369 21 5384 -11 5413 -11C5440 -11 5477 6 5511 33C5565 77 5598 116 5665 217L5642 126C5631 82 5626 50 5626 24C5626 3 5635 -9 5652 -9C5669 -9 5693 3 5727 28L5808 88L5798 107L5754 76C5740 66 5724 59 5715 59C5707 59 5701 68 5701 82C5701 90 5702 99 5709 128ZM5466 59C5450 59 5441 73 5441 98C5441 224 5487 380 5536 418C5549 428 5568 433 5595 433C5639 433 5668 427 5701 410L5689 351C5652 171 5511 59 5466 59ZM5885 388L5892 368L5924 389C5961 412 5964 414 5971 414C5981 414 5989 404 5989 391C5989 384 5985 361 5981 347L5915 107C5907 76 5902 49 5902 30C5902 6 5913 -9 5932 -9C5958 -9 5994 12 6092 85L6082 103L6056 86C6027 67 6004 56 5995 56C5988 56 5982 66 5982 76C5982 86 5984 95 5989 116L6066 420C6070 437 6072 448 6072 456C6072 473 6063 482 6047 482C6025 482 5988 461 5913 408ZM6079 712C6050 712 6021 679 6021 645C6021 620 6036 604 6060 604C6091 604 6115 633 6115 671C6115 695 6100 712 6079 712ZM6611 722L6599 733C6547 707 6511 698 6439 691L6435 670L6483 670C6507 670 6517 663 6517 646C6517 638 6516 629 6515 622L6487 468C6457 477 6430 482 6405 482C6336 482 6242 410 6196 323C6165 265 6145 170 6145 86C6145 21 6160 -11 6189 -11C6216 -11 6253 6 6287 33C6341 77 6374 116 6441 217L6418 126C6407 82 6402 50 6402 24C6402 3 6411 -9 6428 -9C6445 -9 6469 3 6503 28L6584 88L6574 107L6530 76C6516 66 6500 59 6491 59C6483 59 6477 68 6477 82C6477 90 6478 99 6485 128ZM6242 59C6226 59 6217 73 6217 98C6217 224 6263 380 6312 418C6325 428 6344 433 6371 433C6415 433 6444 427 6477 410L6465 351C6428 171 6287 59 6242 59ZM6644 152C6644 46 6689 -11 6772 -11C6827 -11 6887 15 6932 57C6994 116 7038 230 7038 331C7038 425 6988 482 6905 482C6801 482 6644 382 6644 152ZM6868 444C6929 444 6962 399 6962 315C6962 219 6931 113 6887 60C6869 39 6843 27 6812 27C6754 27 6720 72 6720 151C6720 264 6759 387 6808 427C6821 438 6844 444 6868 444Z" stroke="rgb(0,0,0)" stroke-opacity="1" stroke-width="8" fill="rgb(0,0,0)" fill-opacity="1"></path></g></g></g><g><g><g transform="matrix(1,0,0,1,2,98.68000030517578)"><path transform="matrix(0.017,0,0,-0.017,0,0)" d="M17 152C17 46 62 -11 145 -11C200 -11 260 15 305 57C367 116 411 230 411 331C411 425 361 482 278 482C174 482 17 382 17 152ZM241 444C302 444 335 399 335 315C335 219 304 113 260 60C242 39 216 27 185 27C127 27 93 72 93 151C93 264 132 387 181 427C194 438 217 444 241 444ZM1175 722L1163 733C1111 707 1075 698 1003 691L999 670L1047 670C1071 670 1081 663 1081 646C1081 638 1080 629 1079 622L1051 468C1021 477 994 482 969 482C900 482 806 410 760 323C729 265 709 170 709 86C709 21 724 -11 753 -11C780 -11 817 6 851 33C905 77 938 116 1005 217L982 126C971 82 966 50 966 24C966 3 975 -9 992 -9C1009 -9 1033 3 1067 28L1148 88L1138 107L1094 76C1080 66 1064 59 1055 59C1047 59 1041 68 1041 82C1041 90 1042 99 1049 128ZM806 59C790 59 781 73 781 98C781 224 827 380 876 418C889 428 908 433 935 433C979 433 1008 427 1041 410L1029 351C992 171 851 59 806 59ZM1519 111L1495 94C1442 56 1394 36 1358 36C1311 36 1282 73 1282 133C1282 158 1285 185 1290 214C1307 218 1416 248 1441 259C1526 296 1565 342 1565 404C1565 451 1531 482 1481 482C1413 496 1303 423 1266 349C1236 299 1206 180 1206 113C1206 35 1250 -11 1322 -11C1379 -11 1435 17 1527 92ZM1304 274C1321 343 1341 386 1370 412C1388 428 1419 440 1443 440C1472 440 1491 420 1491 388C1491 344 1456 297 1404 272C1376 258 1340 247 1295 237ZM2079 722L2067 733C2015 707 1979 698 1907 691L1903 670L1951 670C1975 670 1985 663 1985 648C1985 645 1985 640 1982 622C1971 567 1898 182 1883 132C1870 82 1864 52 1864 31C1864 6 1875 -9 1894 -9C1920 -9 1956 12 2054 85L2044 103L2018 86C1989 67 1967 56 1957 56C1950 56 1944 66 1944 76C1944 82 1945 89 1948 104ZM2139 388L2146 368L2178 389C2215 412 2218 414 2225 414C2235 414 2243 404 2243 391C2243 384 2239 361 2235 347L2169 107C2161 76 2156 49 2156 30C2156 6 2167 -9 2186 -9C2212 -9 2248 12 2346 85L2336 103L2310 86C2281 67 2258 56 2249 56C2242 56 2236 66 2236 76C2236 86 2238 95 2243 116L2320 420C2324 437 2326 448 2326 456C2326 473 2317 482 2301 482C2279 482 2242 461 2167 408ZM2333 712C2304 712 2275 679 2275 645C2275 620 2290 604 2314 604C2345 604 2369 633 2369 671C2369 695 2354 712 2333 712ZM2767 458C2724 475 2695 482 2666 482C2591 482 2503 394 2485 374C2445 327 2406 181 2406 78C2406 19 2418 -11 2442 -11C2464 -11 2483 -3 2515 19C2562 51 2641 121 2690 209L2614 -205C2609 -229 2599 -249 2587 -262L2596 -276C2627 -268 2658 -262 2682 -259C2686 -205 2692 -150 2701 -100L2787 356C2798 417 2804 443 2814 474L2800 480ZM2500 59C2486 59 2478 80 2478 113C2478 209 2521 359 2563 409C2575 424 2604 433 2636 433C2664 433 2685 427 2733 406L2712 311C2683 174 2542 59 2500 59ZM3336 473L3329 482L3261 465L3251 414C3236 336 3211 268 3180 221C3121 130 3043 59 3003 59C2995 59 2990 68 2990 85C2990 99 2992 112 2997 137L3054 408C3057 424 3059 438 3059 451C3059 470 3050 482 3036 482C3016 482 2978 461 2904 408L2876 388L2883 368L2915 389C2943 407 2954 412 2963 412C2972 412 2980 403 2980 392C2980 388 2979 378 2978 374L2915 77C2913 68 2911 44 2911 30C2911 7 2926 -11 2946 -11C3009 -11 3130 101 3214 239L3177 97C3170 73 3166 46 3166 31C3166 6 3177 -9 3196 -9C3222 -9 3258 12 3356 85L3346 103L3320 86C3296 70 3270 59 3259 59C3251 59 3246 66 3246 76C3246 112 3321 416 3336 473ZM3433 388L3440 368L3472 389C3509 412 3512 414 3519 414C3529 414 3537 404 3537 391C3537 384 3533 361 3529 347L3463 107C3455 76 3450 49 3450 30C3450 6 3461 -9 3480 -9C3506 -9 3542 12 3640 85L3630 103L3604 86C3575 67 3552 56 3543 56C3536 56 3530 66 3530 76C3530 86 3532 95 3537 116L3614 420C3618 437 3620 448 3620 456C3620 473 3611 482 3595 482C3573 482 3536 461 3461 408ZM3627 712C3598 712 3569 679 3569 645C3569 620 3584 604 3608 604C3639 604 3663 633 3663 671C3663 695 3648 712 3627 712ZM4159 722L4147 733C4095 707 4059 698 3987 691L3983 670L4031 670C4055 670 4065 663 4065 646C4065 638 4064 629 4063 622L4035 468C4005 477 3978 482 3953 482C3884 482 3790 410 3744 323C3713 265 3693 170 3693 86C3693 21 3708 -11 3737 -11C3764 -11 3801 6 3835 33C3889 77 3922 116 3989 217L3966 126C3955 82 3950 50 3950 24C3950 3 3959 -9 3976 -9C3993 -9 4017 3 4051 28L4132 88L4122 107L4078 76C4064 66 4048 59 4039 59C4031 59 4025 68 4025 82C4025 90 4026 99 4033 128ZM3790 59C3774 59 3765 73 3765 98C3765 224 3811 380 3860 418C3873 428 3892 433 3919 433C3963 433 3992 427 4025 410L4013 351C3976 171 3835 59 3790 59ZM4192 152C4192 46 4237 -11 4320 -11C4375 -11 4435 15 4480 57C4542 116 4586 230 4586 331C4586 425 4536 482 4453 482C4349 482 4192 382 4192 152ZM4416 444C4477 444 4510 399 4510 315C4510 219 4479 113 4435 60C4417 39 4391 27 4360 27C4302 27 4268 72 4268 151C4268 264 4307 387 4356 427C4369 438 4392 444 4416 444ZM5350 722L5338 733C5286 707 5250 698 5178 691L5174 670L5222 670C5246 670 5256 663 5256 646C5256 638 5255 629 5254 622L5226 468C5196 477 5169 482 5144 482C5075 482 4981 410 4935 323C4904 265 4884 170 4884 86C4884 21 4899 -11 4928 -11C4955 -11 4992 6 5026 33C5080 77 5113 116 5180 217L5157 126C5146 82 5141 50 5141 24C5141 3 5150 -9 5167 -9C5184 -9 5208 3 5242 28L5323 88L5313 107L5269 76C5255 66 5239 59 5230 59C5222 59 5216 68 5216 82C5216 90 5217 99 5224 128ZM4981 59C4965 59 4956 73 4956 98C4956 224 5002 380 5051 418C5064 428 5083 433 5110 433C5154 433 5183 427 5216 410L5204 351C5167 171 5026 59 4981 59ZM5694 111L5670 94C5617 56 5569 36 5533 36C5486 36 5457 73 5457 133C5457 158 5460 185 5465 214C5482 218 5591 248 5616 259C5701 296 5740 342 5740 404C5740 451 5706 482 5656 482C5588 496 5478 423 5441 349C5411 299 5381 180 5381 113C5381 35 5425 -11 5497 -11C5554 -11 5610 17 5702 92ZM5479 274C5496 343 5516 386 5545 412C5563 428 5594 440 5618 440C5647 440 5666 420 5666 388C5666 344 5631 297 5579 272C5551 258 5515 247 5470 237ZM5785 148C5780 97 5774 62 5763 16C5801 -2 5835 -11 5870 -11C5919 -11 5965 7 6016 47C6067 87 6088 124 6088 174C6088 228 6056 257 5982 271L5939 279C5879 290 5860 307 5860 348C5860 401 5905 442 5962 442C6003 442 6041 424 6057 397L6057 342L6080 342C6084 377 6088 404 6099 455C6060 474 6032 482 5999 482C5947 482 5886 452 5838 404C5812 377 5801 352 5801 316C5801 260 5832 228 5898 215L5961 203C6005 195 6021 177 6021 138C6021 73 5975 29 5904 29C5869 29 5838 40 5810 64L5810 148ZM6318 -11C6374 -11 6489 62 6532 125C6573 186 6607 296 6607 371C6607 438 6584 482 6548 482C6506 482 6453 456 6401 409C6360 374 6340 348 6304 289L6328 408C6331 425 6333 440 6333 452C6333 471 6325 482 6311 482C6290 482 6252 461 6178 408L6150 388L6157 368L6189 389C6217 407 6228 412 6237 412C6247 412 6254 403 6254 389C6254 381 6252 361 6250 351L6192 8C6182 -52 6163 -143 6143 -233L6135 -270L6142 -276C6163 -269 6183 -264 6215 -259L6257 3C6278 -4 6300 -11 6318 -11ZM6285 165C6307 293 6414 424 6497 424C6523 424 6535 402 6535 356C6535 275 6495 156 6442 80C6422 51 6390 36 6349 36C6318 36 6293 43 6267 59ZM6892 722L6880 733C6828 707 6792 698 6720 691L6716 670L6764 670C6788 670 6798 663 6798 648C6798 645 6798 640 6795 622C6784 567 6711 182 6696 132C6683 82 6677 52 6677 31C6677 6 6688 -9 6707 -9C6733 -9 6769 12 6867 85L6857 103L6831 86C6802 67 6780 56 6770 56C6763 56 6757 66 6757 76C6757 82 6758 89 6761 104ZM7189 204L7160 77C7156 60 7154 42 7154 26C7154 4 7163 -9 7178 -9C7201 -9 7242 17 7324 85L7317 106C7293 86 7264 59 7242 59C7233 59 7227 68 7227 82C7227 87 7227 90 7228 93L7320 472L7310 481L7277 463C7236 478 7219 482 7192 482C7164 482 7144 477 7117 464C7055 433 7022 403 6997 354C6953 265 6922 145 6922 67C6922 23 6937 -11 6956 -11C6993 -11 7073 41 7189 204ZM7237 414C7215 305 7196 253 7162 201C7105 117 7044 59 7012 59C7000 59 6994 72 6994 99C6994 163 7022 280 7057 360C7081 415 7104 433 7152 433C7175 433 7193 429 7237 414ZM7683 -11C7695 -11 7704 -9 7733 -1C7744 61 7752 95 7763 142L7741 142L7719 82C7713 64 7701 57 7680 57C7668 57 7652 59 7631 64L7613 68C7580 75 7546 80 7527 80C7495 80 7468 74 7432 59L7771 441L7777 473L7768 482L7745 459C7735 449 7725 445 7711 445C7677 445 7625 453 7577 466L7559 471C7531 478 7511 482 7497 482C7480 482 7460 479 7436 472L7404 350L7425 350L7455 408C7472 412 7481 413 7494 413C7535 413 7567 398 7620 398C7656 398 7680 404 7713 421L7360 21L7369 -6C7398 17 7425 26 7460 26C7523 26 7614 -11 7683 -11ZM8075 204L8046 77C8042 60 8040 42 8040 26C8040 4 8049 -9 8064 -9C8087 -9 8128 17 8210 85L8203 106C8179 86 8150 59 8128 59C8119 59 8113 68 8113 82C8113 87 8113 90 8114 93L8206 472L8196 481L8163 463C8122 478 8105 482 8078 482C8050 482 8030 477 8003 464C7941 433 7908 403 7883 354C7839 265 7808 145 7808 67C7808 23 7823 -11 7842 -11C7879 -11 7959 41 8075 204ZM8123 414C8101 305 8082 253 8048 201C7991 117 7930 59 7898 59C7886 59 7880 72 7880 99C7880 163 7908 280 7943 360C7967 415 7990 433 8038 433C8061 433 8079 429 8123 414ZM8730 722L8718 733C8666 707 8630 698 8558 691L8554 670L8602 670C8626 670 8636 663 8636 646C8636 638 8635 629 8634 622L8606 468C8576 477 8549 482 8524 482C8455 482 8361 410 8315 323C8284 265 8264 170 8264 86C8264 21 8279 -11 8308 -11C8335 -11 8372 6 8406 33C8460 77 8493 116 8560 217L8537 126C8526 82 8521 50 8521 24C8521 3 8530 -9 8547 -9C8564 -9 8588 3 8622 28L8703 88L8693 107L8649 76C8635 66 8619 59 8610 59C8602 59 8596 68 8596 82C8596 90 8597 99 8604 128ZM8361 59C8345 59 8336 73 8336 98C8336 224 8382 380 8431 418C8444 428 8463 433 8490 433C8534 433 8563 427 8596 410L8584 351C8547 171 8406 59 8361 59ZM8763 152C8763 46 8808 -11 8891 -11C8946 -11 9006 15 9051 57C9113 116 9157 230 9157 331C9157 425 9107 482 9024 482C8920 482 8763 382 8763 152ZM8987 444C9048 444 9081 399 9081 315C9081 219 9050 113 9006 60C8988 39 8962 27 8931 27C8873 27 8839 72 8839 151C8839 264 8878 387 8927 427C8940 438 8963 444 8987 444Z" stroke="rgb(0,0,0)" stroke-opacity="1" stroke-width="8" fill="rgb(0,0,0)" fill-opacity="1"></path></g></g></g><g><g><g transform="matrix(1,0,0,1,2,118.84000396728516)"><path transform="matrix(0.017,0,0,-0.017,0,0)" d="M275 482C208 482 55 419 55 259C55 182 100 136 177 136C185 136 196 136 207 137L166 99C150 84 139 66 139 52C139 42 146 31 160 19C91 -4 -37 -48 -37 -159C-37 -230 33 -276 142 -276C271 -276 384 -204 384 -121C384 -85 363 -49 320 -14L260 35C226 62 213 81 213 100C213 114 228 128 240 146C338 170 409 253 409 342C409 357 406 376 405 380C422 378 430 378 439 378C456 378 466 379 489 382L498 427L495 433C467 426 447 424 393 424C393 425 369 482 275 482ZM176 1L253 -58C299 -94 318 -121 318 -154C318 -206 249 -248 166 -248C84 -248 27 -206 27 -145C27 -43 137 -11 176 1ZM250 448C308 448 337 412 337 341C337 238 289 168 219 168C158 168 126 209 126 288C126 383 177 448 250 448Z" stroke="rgb(0,0,0)" stroke-opacity="1" stroke-width="8" fill="rgb(0,0,0)" fill-opacity="1"></path></g></g><g><g transform="matrix(1,0,0,1,13.8800048828125,118.84000396728516)"><path transform="matrix(0.017,0,0,-0.017,0,0)" d="M123 111C93 111 66 83 66 53C66 23 93 -5 122 -5C154 -5 182 22 182 53C182 83 154 111 123 111ZM123 456C93 456 66 428 66 398C66 368 93 340 122 340C154 340 182 367 182 397C182 428 154 456 123 456Z" stroke="rgb(0,0,0)" stroke-opacity="1" stroke-width="8" fill="rgb(0,0,0)" fill-opacity="1"></path></g></g><g><g transform="matrix(1,0,0,1,21.514999389648438,118.84000396728516)"><path transform="matrix(0.017,0,0,-0.017,0,0)" d="M275 482C208 482 55 419 55 259C55 182 100 136 177 136C185 136 196 136 207 137L166 99C150 84 139 66 139 52C139 42 146 31 160 19C91 -4 -37 -48 -37 -159C-37 -230 33 -276 142 -276C271 -276 384 -204 384 -121C384 -85 363 -49 320 -14L260 35C226 62 213 81 213 100C213 114 228 128 240 146C338 170 409 253 409 342C409 357 406 376 405 380C422 378 430 378 439 378C456 378 466 379 489 382L498 427L495 433C467 426 447 424 393 424C393 425 369 482 275 482ZM176 1L253 -58C299 -94 318 -121 318 -154C318 -206 249 -248 166 -248C84 -248 27 -206 27 -145C27 -43 137 -11 176 1ZM250 448C308 448 337 412 337 341C337 238 289 168 219 168C158 168 126 209 126 288C126 383 177 448 250 448ZM867 365C870 403 875 435 883 476C872 481 868 482 863 482C832 482 801 458 765 407C726 351 687 291 671 256L703 408C707 425 709 438 709 450C709 470 701 482 686 482C665 482 627 461 553 408L525 388L532 368L564 389C592 407 603 412 612 412C622 412 629 403 629 390C629 332 586 126 546 -2L556 -9C571 -4 587 -1 610 4L623 6L649 126C667 209 690 262 734 319C768 363 795 384 817 384C832 384 842 379 853 365ZM1158 204L1129 77C1125 60 1123 42 1123 26C1123 4 1132 -9 1147 -9C1170 -9 1211 17 1293 85L1286 106C1262 86 1233 59 1211 59C1202 59 1196 68 1196 82C1196 87 1196 90 1197 93L1289 472L1279 481L1246 463C1205 478 1188 482 1161 482C1133 482 1113 477 1086 464C1024 433 991 403 966 354C922 265 891 145 891 67C891 23 906 -11 925 -11C962 -11 1042 41 1158 204ZM1206 414C1184 305 1165 253 1131 201C1074 117 1013 59 981 59C969 59 963 72 963 99C963 163 991 280 1026 360C1050 415 1073 433 1121 433C1144 433 1162 429 1206 414ZM1496 420C1517 420 1533 421 1559 424C1448 304 1406 221 1406 121C1406 44 1452 -11 1516 -11C1654 -11 1807 236 1807 384C1807 441 1781 482 1745 482C1732 482 1720 478 1712 470L1662 423L1673 404C1682 410 1691 413 1700 413C1727 413 1743 390 1743 350C1743 202 1646 39 1558 39C1509 39 1478 81 1478 146C1478 251 1517 342 1615 464L1605 482C1585 473 1572 470 1544 470C1516 470 1474 472 1445 475L1433 476C1427 477 1422 477 1421 477C1409 477 1400 475 1389 470C1375 443 1364 407 1351 352L1373 352L1390 394C1397 411 1417 422 1441 422C1474 422 1458 420 1496 420ZM2157 111L2133 94C2080 56 2032 36 1996 36C1949 36 1920 73 1920 133C1920 158 1923 185 1928 214C1945 218 2054 248 2079 259C2164 296 2203 342 2203 404C2203 451 2169 482 2119 482C2051 496 1941 423 1904 349C1874 299 1844 180 1844 113C1844 35 1888 -11 1960 -11C2017 -11 2073 17 2165 92ZM1942 274C1959 343 1979 386 2008 412C2026 428 2057 440 2081 440C2110 440 2129 420 2129 388C2129 344 2094 297 2042 272C2014 258 1978 247 1933 237ZM2700 722L2688 733C2636 707 2600 698 2528 691L2524 670L2572 670C2596 670 2606 663 2606 646C2606 638 2605 629 2604 622L2576 468C2546 477 2519 482 2494 482C2425 482 2331 410 2285 323C2254 265 2234 170 2234 86C2234 21 2249 -11 2278 -11C2305 -11 2342 6 2376 33C2430 77 2463 116 2530 217L2507 126C2496 82 2491 50 2491 24C2491 3 2500 -9 2517 -9C2534 -9 2558 3 2592 28L2673 88L2663 107L2619 76C2605 66 2589 59 2580 59C2572 59 2566 68 2566 82C2566 90 2567 99 2574 128ZM2331 59C2315 59 2306 73 2306 98C2306 224 2352 380 2401 418C2414 428 2433 433 2460 433C2504 433 2533 427 2566 410L2554 351C2517 171 2376 59 2331 59ZM2987 204L2958 77C2954 60 2952 42 2952 26C2952 4 2961 -9 2976 -9C2999 -9 3040 17 3122 85L3115 106C3091 86 3062 59 3040 59C3031 59 3025 68 3025 82C3025 87 3025 90 3026 93L3118 472L3108 481L3075 463C3034 478 3017 482 2990 482C2962 482 2942 477 2915 464C2853 433 2820 403 2795 354C2751 265 2720 145 2720 67C2720 23 2735 -11 2754 -11C2791 -11 2871 41 2987 204ZM3035 414C3013 305 2994 253 2960 201C2903 117 2842 59 2810 59C2798 59 2792 72 2792 99C2792 163 2820 280 2855 360C2879 415 2902 433 2950 433C2973 433 2991 429 3035 414ZM3642 722L3630 733C3578 707 3542 698 3470 691L3466 670L3514 670C3538 670 3548 663 3548 646C3548 638 3547 629 3546 622L3518 468C3488 477 3461 482 3436 482C3367 482 3273 410 3227 323C3196 265 3176 170 3176 86C3176 21 3191 -11 3220 -11C3247 -11 3284 6 3318 33C3372 77 3405 116 3472 217L3449 126C3438 82 3433 50 3433 24C3433 3 3442 -9 3459 -9C3476 -9 3500 3 3534 28L3615 88L3605 107L3561 76C3547 66 3531 59 3522 59C3514 59 3508 68 3508 82C3508 90 3509 99 3516 128ZM3273 59C3257 59 3248 73 3248 98C3248 224 3294 380 3343 418C3356 428 3375 433 3402 433C3446 433 3475 427 3508 410L3496 351C3459 171 3318 59 3273 59Z" stroke="rgb(0,0,0)" stroke-opacity="1" stroke-width="8" fill="rgb(0,0,0)" fill-opacity="1"></path></g></g></g></g></svg>