<svg xmlns="http://www.w3.org/2000/svg" xmlns:xlink="http://www.w3.org/1999/xlink" width="85.67500305175781" height="106.18000030517578" style="width:85.67500305175781px;height:106.18000030517578px;font-family:Asana-Math, Asana;background:#FFF;"><g><g><g><g transform="matrix(1,0,0,1,2,18.040000915527344)"><path transform="matrix(0.017,0,0,-0.017,0,0)" d="M354 664L409 662C433 661 444 653 444 635L361 125C344 34 343 31 303 28L262 25L258 -3L300 -2C341 -1 372 0 390 0C407 0 436 -1 476 -2L529 -3L532 25L467 28C441 29 431 37 431 58C431 67 432 74 435 93L533 648C569 654 585 656 604 656C706 656 755 612 755 519C755 411 683 323 595 323C573 323 553 328 516 342L518 311C555 293 575 288 604 288C733 288 843 405 843 541C843 642 780 695 661 692L357 692Z" stroke="rgb(0,0,0)" stroke-opacity="1" stroke-width="8" fill="rgb(0,0,0)" fill-opacity="1"></path></g></g><g><g><g><g><g transform="matrix(1,0,0,1,17.1199951171875,22.000006103515624)"><path transform="matrix(0.0119,0,0,-0.0119,0,0)" d="M236 722L224 733C179 711 138 697 64 691L60 670L108 670C126 670 142 667 142 647C142 641 142 632 140 622L98 388C78 272 36 80 10 2L17 -9L86 7C94 64 108 164 148 236C193 317 296 414 338 414C349 414 360 407 360 393C360 375 355 342 345 303L294 107C288 85 281 55 281 31C281 6 291 -9 312 -9C344 -9 412 41 471 85L461 103L435 86C412 71 386 56 374 56C367 56 361 65 361 76C361 88 364 101 368 116L432 372C438 398 443 423 443 447C443 464 437 482 411 482C376 482 299 437 231 374C198 343 172 308 144 273L140 275Z" stroke="rgb(0,0,0)" stroke-opacity="1" stroke-width="8" fill="rgb(0,0,0)" fill-opacity="1"></path></g></g></g></g></g><g><g transform="matrix(1,0,0,1,29.17999267578125,18.040000915527344)"><path transform="matrix(0.017,0,0,-0.017,0,0)" d="M604 347L604 406L65 406L65 347ZM604 134L604 193L65 193L65 134Z" stroke="rgb(0,0,0)" stroke-opacity="1" stroke-width="8" fill="rgb(0,0,0)" fill-opacity="1"></path></g></g><g><g transform="matrix(1,0,0,1,45.635009765625,18.040000915527344)"><path transform="matrix(0.017,0,0,-0.017,0,0)" d="M386 473C267 473 146 396 119 277C79 98 60 -97 34 -284C62 -283 92 -277 118 -266C116 -222 115 -145 145 29C169 -5 206 -15 247 -15C424 -15 522 168 525 325C527 420 482 473 386 473ZM347 441C426 441 446 380 445 311C444 203 398 11 260 11C182 11 164 72 166 138C168 243 210 441 347 441ZM841 482C774 482 621 419 621 259C621 182 666 136 743 136C751 136 762 136 773 137L732 99C716 84 705 66 705 52C705 42 712 31 726 19C657 -4 529 -48 529 -159C529 -230 599 -276 708 -276C837 -276 950 -204 950 -121C950 -85 929 -49 886 -14L826 35C792 62 779 81 779 100C779 114 794 128 806 146C904 170 975 253 975 342C975 357 972 376 971 380C988 378 996 378 1005 378C1022 378 1032 379 1055 382L1064 427L1061 433C1033 426 1013 424 959 424C959 425 935 482 841 482ZM742 1L819 -58C865 -94 884 -121 884 -154C884 -206 815 -248 732 -248C650 -248 593 -206 593 -145C593 -43 703 -11 742 1ZM816 448C874 448 903 412 903 341C903 238 855 168 785 168C724 168 692 209 692 288C692 383 743 448 816 448ZM1301 722L1289 733C1244 711 1203 697 1129 691L1125 670L1173 670C1191 670 1207 667 1207 647C1207 641 1207 632 1205 622L1163 388C1143 272 1101 80 1075 2L1082 -9L1151 7C1159 64 1173 164 1213 236C1258 317 1361 414 1403 414C1414 414 1425 407 1425 393C1425 375 1420 342 1410 303L1359 107C1353 85 1346 55 1346 31C1346 6 1356 -9 1377 -9C1409 -9 1477 41 1536 85L1526 103L1500 86C1477 71 1451 56 1439 56C1432 56 1426 65 1426 76C1426 88 1429 101 1433 116L1497 372C1503 398 1508 423 1508 447C1508 464 1502 482 1476 482C1441 482 1364 437 1296 374C1263 343 1237 308 1209 273L1205 275Z" stroke="rgb(0,0,0)" stroke-opacity="1" stroke-width="8" fill="rgb(0,0,0)" fill-opacity="1"></path></g></g></g><g></g><g><g><g transform="matrix(1,0,0,1,2,59.73999786376953)"><path transform="matrix(0.017,0,0,-0.017,0,0)" d="M386 473C267 473 146 396 119 277C79 98 60 -97 34 -284C62 -283 92 -277 118 -266C116 -222 115 -145 145 29C169 -5 206 -15 247 -15C424 -15 522 168 525 325C527 420 482 473 386 473ZM347 441C426 441 446 380 445 311C444 203 398 11 260 11C182 11 164 72 166 138C168 243 210 441 347 441Z" stroke="rgb(0,0,0)" stroke-opacity="1" stroke-width="8" fill="rgb(0,0,0)" fill-opacity="1"></path></g></g><g><g transform="matrix(1,0,0,1,15.02001953125,59.73999786376953)"><path transform="matrix(0.017,0,0,-0.017,0,0)" d="M123 111C93 111 66 83 66 53C66 23 93 -5 122 -5C154 -5 182 22 182 53C182 83 154 111 123 111ZM123 456C93 456 66 428 66 398C66 368 93 340 122 340C154 340 182 367 182 397C182 428 154 456 123 456Z" stroke="rgb(0,0,0)" stroke-opacity="1" stroke-width="8" fill="rgb(0,0,0)" fill-opacity="1"></path></g></g><g><g transform="matrix(1,0,0,1,22.654998779296875,59.73999786376953)"><path transform="matrix(0.017,0,0,-0.017,0,0)" d="M483 722L471 733C419 707 383 698 311 691L307 670L355 670C379 670 389 663 389 646C389 638 388 629 387 622L359 468C329 477 302 482 277 482C208 482 114 410 68 323C37 265 17 170 17 86C17 21 32 -11 61 -11C88 -11 125 6 159 33C213 77 246 116 313 217L290 126C279 82 274 50 274 24C274 3 283 -9 300 -9C317 -9 341 3 375 28L456 88L446 107L402 76C388 66 372 59 363 59C355 59 349 68 349 82C349 90 350 99 357 128ZM114 59C98 59 89 73 89 98C89 224 135 380 184 418C197 428 216 433 243 433C287 433 316 427 349 410L337 351C300 171 159 59 114 59ZM827 111L803 94C750 56 702 36 666 36C619 36 590 73 590 133C590 158 593 185 598 214C615 218 724 248 749 259C834 296 873 342 873 404C873 451 839 482 789 482C721 496 611 423 574 349C544 299 514 180 514 113C514 35 558 -11 630 -11C687 -11 743 17 835 92ZM612 274C629 343 649 386 678 412C696 428 727 440 751 440C780 440 799 420 799 388C799 344 764 297 712 272C684 258 648 247 603 237ZM911 388L918 368L950 389C987 412 990 414 997 414C1008 414 1015 404 1015 389C1015 338 974 145 933 2L940 -9C965 -2 988 4 1010 8C1029 134 1050 199 1096 268C1150 352 1225 414 1270 414C1281 414 1287 405 1287 390C1287 372 1284 351 1276 319L1224 107C1215 70 1211 47 1211 31C1211 6 1222 -9 1241 -9C1267 -9 1303 12 1401 85L1391 103L1365 86C1336 67 1314 56 1304 56C1297 56 1291 65 1291 76C1291 81 1292 92 1293 96L1359 372C1366 401 1370 429 1370 446C1370 469 1359 482 1339 482C1297 482 1228 444 1169 389C1131 354 1103 320 1051 247L1089 408C1093 426 1095 438 1095 449C1095 470 1087 482 1072 482C1051 482 1012 460 939 408ZM1473 148C1468 97 1462 62 1451 16C1489 -2 1523 -11 1558 -11C1607 -11 1653 7 1704 47C1755 87 1776 124 1776 174C1776 228 1744 257 1670 271L1627 279C1567 290 1548 307 1548 348C1548 401 1593 442 1650 442C1691 442 1729 424 1745 397L1745 342L1768 342C1772 377 1776 404 1787 455C1748 474 1720 482 1687 482C1635 482 1574 452 1526 404C1500 377 1489 352 1489 316C1489 260 1520 228 1586 215L1649 203C1693 195 1709 177 1709 138C1709 73 1663 29 1592 29C1557 29 1526 40 1498 64L1498 148ZM1864 388L1871 368L1903 389C1940 412 1943 414 1950 414C1960 414 1968 404 1968 391C1968 384 1964 361 1960 347L1894 107C1886 76 1881 49 1881 30C1881 6 1892 -9 1911 -9C1937 -9 1973 12 2071 85L2061 103L2035 86C2006 67 1983 56 1974 56C1967 56 1961 66 1961 76C1961 86 1963 95 1968 116L2045 420C2049 437 2051 448 2051 456C2051 473 2042 482 2026 482C2004 482 1967 461 1892 408ZM2058 712C2029 712 2000 679 2000 645C2000 620 2015 604 2039 604C2070 604 2094 633 2094 671C2094 695 2079 712 2058 712ZM2590 722L2578 733C2526 707 2490 698 2418 691L2414 670L2462 670C2486 670 2496 663 2496 646C2496 638 2495 629 2494 622L2466 468C2436 477 2409 482 2384 482C2315 482 2221 410 2175 323C2144 265 2124 170 2124 86C2124 21 2139 -11 2168 -11C2195 -11 2232 6 2266 33C2320 77 2353 116 2420 217L2397 126C2386 82 2381 50 2381 24C2381 3 2390 -9 2407 -9C2424 -9 2448 3 2482 28L2563 88L2553 107L2509 76C2495 66 2479 59 2470 59C2462 59 2456 68 2456 82C2456 90 2457 99 2464 128ZM2221 59C2205 59 2196 73 2196 98C2196 224 2242 380 2291 418C2304 428 2323 433 2350 433C2394 433 2423 427 2456 410L2444 351C2407 171 2266 59 2221 59ZM2877 204L2848 77C2844 60 2842 42 2842 26C2842 4 2851 -9 2866 -9C2889 -9 2930 17 3012 85L3005 106C2981 86 2952 59 2930 59C2921 59 2915 68 2915 82C2915 87 2915 90 2916 93L3008 472L2998 481L2965 463C2924 478 2907 482 2880 482C2852 482 2832 477 2805 464C2743 433 2710 403 2685 354C2641 265 2610 145 2610 67C2610 23 2625 -11 2644 -11C2681 -11 2761 41 2877 204ZM2925 414C2903 305 2884 253 2850 201C2793 117 2732 59 2700 59C2688 59 2682 72 2682 99C2682 163 2710 280 2745 360C2769 415 2792 433 2840 433C2863 433 2881 429 2925 414ZM3532 722L3520 733C3468 707 3432 698 3360 691L3356 670L3404 670C3428 670 3438 663 3438 646C3438 638 3437 629 3436 622L3408 468C3378 477 3351 482 3326 482C3257 482 3163 410 3117 323C3086 265 3066 170 3066 86C3066 21 3081 -11 3110 -11C3137 -11 3174 6 3208 33C3262 77 3295 116 3362 217L3339 126C3328 82 3323 50 3323 24C3323 3 3332 -9 3349 -9C3366 -9 3390 3 3424 28L3505 88L3495 107L3451 76C3437 66 3421 59 3412 59C3404 59 3398 68 3398 82C3398 90 3399 99 3406 128ZM3163 59C3147 59 3138 73 3138 98C3138 224 3184 380 3233 418C3246 428 3265 433 3292 433C3336 433 3365 427 3398 410L3386 351C3349 171 3208 59 3163 59Z" stroke="rgb(0,0,0)" stroke-opacity="1" stroke-width="8" fill="rgb(0,0,0)" fill-opacity="1"></path></g></g></g><g><g><g transform="matrix(1,0,0,1,2,79.9000015258789)"><path transform="matrix(0.017,0,0,-0.017,0,0)" d="M275 482C208 482 55 419 55 259C55 182 100 136 177 136C185 136 196 136 207 137L166 99C150 84 139 66 139 52C139 42 146 31 160 19C91 -4 -37 -48 -37 -159C-37 -230 33 -276 142 -276C271 -276 384 -204 384 -121C384 -85 363 -49 320 -14L260 35C226 62 213 81 213 100C213 114 228 128 240 146C338 170 409 253 409 342C409 357 406 376 405 380C422 378 430 378 439 378C456 378 466 379 489 382L498 427L495 433C467 426 447 424 393 424C393 425 369 482 275 482ZM176 1L253 -58C299 -94 318 -121 318 -154C318 -206 249 -248 166 -248C84 -248 27 -206 27 -145C27 -43 137 -11 176 1ZM250 448C308 448 337 412 337 341C337 238 289 168 219 168C158 168 126 209 126 288C126 383 177 448 250 448Z" stroke="rgb(0,0,0)" stroke-opacity="1" stroke-width="8" fill="rgb(0,0,0)" fill-opacity="1"></path></g></g><g><g transform="matrix(1,0,0,1,13.8800048828125,79.9000015258789)"><path transform="matrix(0.017,0,0,-0.017,0,0)" d="M123 111C93 111 66 83 66 53C66 23 93 -5 122 -5C154 -5 182 22 182 53C182 83 154 111 123 111ZM123 456C93 456 66 428 66 398C66 368 93 340 122 340C154 340 182 367 182 397C182 428 154 456 123 456Z" stroke="rgb(0,0,0)" stroke-opacity="1" stroke-width="8" fill="rgb(0,0,0)" fill-opacity="1"></path></g></g><g><g transform="matrix(1,0,0,1,21.5150146484375,79.9000015258789)"><path transform="matrix(0.017,0,0,-0.017,0,0)" d="M275 482C208 482 55 419 55 259C55 182 100 136 177 136C185 136 196 136 207 137L166 99C150 84 139 66 139 52C139 42 146 31 160 19C91 -4 -37 -48 -37 -159C-37 -230 33 -276 142 -276C271 -276 384 -204 384 -121C384 -85 363 -49 320 -14L260 35C226 62 213 81 213 100C213 114 228 128 240 146C338 170 409 253 409 342C409 357 406 376 405 380C422 378 430 378 439 378C456 378 466 379 489 382L498 427L495 433C467 426 447 424 393 424C393 425 369 482 275 482ZM176 1L253 -58C299 -94 318 -121 318 -154C318 -206 249 -248 166 -248C84 -248 27 -206 27 -145C27 -43 137 -11 176 1ZM250 448C308 448 337 412 337 341C337 238 289 168 219 168C158 168 126 209 126 288C126 383 177 448 250 448ZM867 365C870 403 875 435 883 476C872 481 868 482 863 482C832 482 801 458 765 407C726 351 687 291 671 256L703 408C707 425 709 438 709 450C709 470 701 482 686 482C665 482 627 461 553 408L525 388L532 368L564 389C592 407 603 412 612 412C622 412 629 403 629 390C629 332 586 126 546 -2L556 -9C571 -4 587 -1 610 4L623 6L649 126C667 209 690 262 734 319C768 363 795 384 817 384C832 384 842 379 853 365ZM1158 204L1129 77C1125 60 1123 42 1123 26C1123 4 1132 -9 1147 -9C1170 -9 1211 17 1293 85L1286 106C1262 86 1233 59 1211 59C1202 59 1196 68 1196 82C1196 87 1196 90 1197 93L1289 472L1279 481L1246 463C1205 478 1188 482 1161 482C1133 482 1113 477 1086 464C1024 433 991 403 966 354C922 265 891 145 891 67C891 23 906 -11 925 -11C962 -11 1042 41 1158 204ZM1206 414C1184 305 1165 253 1131 201C1074 117 1013 59 981 59C969 59 963 72 963 99C963 163 991 280 1026 360C1050 415 1073 433 1121 433C1144 433 1162 429 1206 414ZM1496 420C1517 420 1533 421 1559 424C1448 304 1406 221 1406 121C1406 44 1452 -11 1516 -11C1654 -11 1807 236 1807 384C1807 441 1781 482 1745 482C1732 482 1720 478 1712 470L1662 423L1673 404C1682 410 1691 413 1700 413C1727 413 1743 390 1743 350C1743 202 1646 39 1558 39C1509 39 1478 81 1478 146C1478 251 1517 342 1615 464L1605 482C1585 473 1572 470 1544 470C1516 470 1474 472 1445 475L1433 476C1427 477 1422 477 1421 477C1409 477 1400 475 1389 470C1375 443 1364 407 1351 352L1373 352L1390 394C1397 411 1417 422 1441 422C1474 422 1458 420 1496 420ZM2157 111L2133 94C2080 56 2032 36 1996 36C1949 36 1920 73 1920 133C1920 158 1923 185 1928 214C1945 218 2054 248 2079 259C2164 296 2203 342 2203 404C2203 451 2169 482 2119 482C2051 496 1941 423 1904 349C1874 299 1844 180 1844 113C1844 35 1888 -11 1960 -11C2017 -11 2073 17 2165 92ZM1942 274C1959 343 1979 386 2008 412C2026 428 2057 440 2081 440C2110 440 2129 420 2129 388C2129 344 2094 297 2042 272C2014 258 1978 247 1933 237ZM2700 722L2688 733C2636 707 2600 698 2528 691L2524 670L2572 670C2596 670 2606 663 2606 646C2606 638 2605 629 2604 622L2576 468C2546 477 2519 482 2494 482C2425 482 2331 410 2285 323C2254 265 2234 170 2234 86C2234 21 2249 -11 2278 -11C2305 -11 2342 6 2376 33C2430 77 2463 116 2530 217L2507 126C2496 82 2491 50 2491 24C2491 3 2500 -9 2517 -9C2534 -9 2558 3 2592 28L2673 88L2663 107L2619 76C2605 66 2589 59 2580 59C2572 59 2566 68 2566 82C2566 90 2567 99 2574 128ZM2331 59C2315 59 2306 73 2306 98C2306 224 2352 380 2401 418C2414 428 2433 433 2460 433C2504 433 2533 427 2566 410L2554 351C2517 171 2376 59 2331 59ZM2987 204L2958 77C2954 60 2952 42 2952 26C2952 4 2961 -9 2976 -9C2999 -9 3040 17 3122 85L3115 106C3091 86 3062 59 3040 59C3031 59 3025 68 3025 82C3025 87 3025 90 3026 93L3118 472L3108 481L3075 463C3034 478 3017 482 2990 482C2962 482 2942 477 2915 464C2853 433 2820 403 2795 354C2751 265 2720 145 2720 67C2720 23 2735 -11 2754 -11C2791 -11 2871 41 2987 204ZM3035 414C3013 305 2994 253 2960 201C2903 117 2842 59 2810 59C2798 59 2792 72 2792 99C2792 163 2820 280 2855 360C2879 415 2902 433 2950 433C2973 433 2991 429 3035 414ZM3642 722L3630 733C3578 707 3542 698 3470 691L3466 670L3514 670C3538 670 3548 663 3548 646C3548 638 3547 629 3546 622L3518 468C3488 477 3461 482 3436 482C3367 482 3273 410 3227 323C3196 265 3176 170 3176 86C3176 21 3191 -11 3220 -11C3247 -11 3284 6 3318 33C3372 77 3405 116 3472 217L3449 126C3438 82 3433 50 3433 24C3433 3 3442 -9 3459 -9C3476 -9 3500 3 3534 28L3615 88L3605 107L3561 76C3547 66 3531 59 3522 59C3514 59 3508 68 3508 82C3508 90 3509 99 3516 128ZM3273 59C3257 59 3248 73 3248 98C3248 224 3294 380 3343 418C3356 428 3375 433 3402 433C3446 433 3475 427 3508 410L3496 351C3459 171 3318 59 3273 59Z" stroke="rgb(0,0,0)" stroke-opacity="1" stroke-width="8" fill="rgb(0,0,0)" fill-opacity="1"></path></g></g></g><g><g><g transform="matrix(1,0,0,1,2,100.06000518798828)"><path transform="matrix(0.017,0,0,-0.017,0,0)" d="M236 722L224 733C179 711 138 697 64 691L60 670L108 670C126 670 142 667 142 647C142 641 142 632 140 622L98 388C78 272 36 80 10 2L17 -9L86 7C94 64 108 164 148 236C193 317 296 414 338 414C349 414 360 407 360 393C360 375 355 342 345 303L294 107C288 85 281 55 281 31C281 6 291 -9 312 -9C344 -9 412 41 471 85L461 103L435 86C412 71 386 56 374 56C367 56 361 65 361 76C361 88 364 101 368 116L432 372C438 398 443 423 443 447C443 464 437 482 411 482C376 482 299 437 231 374C198 343 172 308 144 273L140 275Z" stroke="rgb(0,0,0)" stroke-opacity="1" stroke-width="8" fill="rgb(0,0,0)" fill-opacity="1"></path></g></g><g><g transform="matrix(1,0,0,1,13.8800048828125,100.06000518798828)"><path transform="matrix(0.017,0,0,-0.017,0,0)" d="M123 111C93 111 66 83 66 53C66 23 93 -5 122 -5C154 -5 182 22 182 53C182 83 154 111 123 111ZM123 456C93 456 66 428 66 398C66 368 93 340 122 340C154 340 182 367 182 397C182 428 154 456 123 456Z" stroke="rgb(0,0,0)" stroke-opacity="1" stroke-width="8" fill="rgb(0,0,0)" fill-opacity="1"></path></g></g><g><g transform="matrix(1,0,0,1,21.5150146484375,100.06000518798828)"><path transform="matrix(0.017,0,0,-0.017,0,0)" d="M271 204L242 77C238 60 236 42 236 26C236 4 245 -9 260 -9C283 -9 324 17 406 85L399 106C375 86 346 59 324 59C315 59 309 68 309 82C309 87 309 90 310 93L402 472L392 481L359 463C318 478 301 482 274 482C246 482 226 477 199 464C137 433 104 403 79 354C35 265 4 145 4 67C4 23 19 -11 38 -11C75 -11 155 41 271 204ZM319 414C297 305 278 253 244 201C187 117 126 59 94 59C82 59 76 72 76 99C76 163 104 280 139 360C163 415 186 433 234 433C257 433 275 429 319 414ZM694 722L682 733C630 707 594 698 522 691L518 670L566 670C590 670 600 663 600 648C600 645 600 640 597 622C586 567 513 182 498 132C485 82 479 52 479 31C479 6 490 -9 509 -9C535 -9 571 12 669 85L659 103L633 86C604 67 582 56 572 56C565 56 559 66 559 76C559 82 560 89 563 104ZM845 390L789 107C788 99 776 61 776 31C776 6 787 -9 806 -9C841 -9 876 11 954 74L985 99L975 117L930 86C901 66 881 56 870 56C861 56 856 64 856 76C856 102 870 183 899 328L912 390L1019 390L1030 440C992 436 958 434 920 434C936 528 947 577 965 631L954 646C934 634 907 622 876 610L851 440C807 419 781 408 763 403L761 390ZM1544 473L1537 482L1469 465L1459 414C1444 336 1419 268 1388 221C1329 130 1251 59 1211 59C1203 59 1198 68 1198 85C1198 99 1200 112 1205 137L1262 408C1265 424 1267 438 1267 451C1267 470 1258 482 1244 482C1224 482 1186 461 1112 408L1084 388L1091 368L1123 389C1151 407 1162 412 1171 412C1180 412 1188 403 1188 392C1188 388 1187 378 1186 374L1123 77C1121 68 1119 44 1119 30C1119 7 1134 -11 1154 -11C1217 -11 1338 101 1422 239L1385 97C1378 73 1374 46 1374 31C1374 6 1385 -9 1404 -9C1430 -9 1466 12 1564 85L1554 103L1528 86C1504 70 1478 59 1467 59C1459 59 1454 66 1454 76C1454 112 1529 416 1544 473ZM1975 365C1978 403 1983 435 1991 476C1980 481 1976 482 1971 482C1940 482 1909 458 1873 407C1834 351 1795 291 1779 256L1811 408C1815 425 1817 438 1817 450C1817 470 1809 482 1794 482C1773 482 1735 461 1661 408L1633 388L1640 368L1672 389C1700 407 1711 412 1720 412C1730 412 1737 403 1737 390C1737 332 1694 126 1654 -2L1664 -9C1679 -4 1695 -1 1718 4L1731 6L1757 126C1775 209 1798 262 1842 319C1876 363 1903 384 1925 384C1940 384 1950 379 1961 365ZM2266 204L2237 77C2233 60 2231 42 2231 26C2231 4 2240 -9 2255 -9C2278 -9 2319 17 2401 85L2394 106C2370 86 2341 59 2319 59C2310 59 2304 68 2304 82C2304 87 2304 90 2305 93L2397 472L2387 481L2354 463C2313 478 2296 482 2269 482C2241 482 2221 477 2194 464C2132 433 2099 403 2074 354C2030 265 1999 145 1999 67C1999 23 2014 -11 2033 -11C2070 -11 2150 41 2266 204ZM2314 414C2292 305 2273 253 2239 201C2182 117 2121 59 2089 59C2077 59 2071 72 2071 99C2071 163 2099 280 2134 360C2158 415 2181 433 2229 433C2252 433 2270 429 2314 414Z" stroke="rgb(0,0,0)" stroke-opacity="1" stroke-width="8" fill="rgb(0,0,0)" fill-opacity="1"></path></g></g></g></g></svg>