<svg xmlns="http://www.w3.org/2000/svg" xmlns:xlink="http://www.w3.org/1999/xlink" width="71.48500061035156" height="106.97500610351562" style="width:71.48500061035156px;height:106.97500610351562px;font-family:Asana-Math, Asana;background:#FFF;"><g><g><g><g transform="matrix(1,0,0,1,2,30.205001831054688)"><path transform="matrix(0.017,0,0,-0.017,0,0)" d="M603 664L658 662C682 661 693 653 693 635L610 125C593 34 592 31 552 28L511 25L507 -3L549 -2C590 -1 621 0 639 0C656 0 685 -1 725 -2L778 -3L781 25L716 28C690 29 680 37 680 58C680 67 681 74 684 93L782 648C818 654 834 656 853 656C955 656 1004 612 1004 519C1004 411 932 323 844 323C822 323 802 328 765 342L767 311C804 293 824 288 853 288C982 288 1092 405 1092 541C1092 642 1029 695 910 692L606 692Z" stroke="rgb(0,0,0)" stroke-opacity="1" stroke-width="8" fill="rgb(0,0,0)" fill-opacity="1"></path></g></g><g><g transform="matrix(1,0,0,1,25.94000244140625,30.205001831054688)"><path transform="matrix(0.017,0,0,-0.017,0,0)" d="M604 347L604 406L65 406L65 347ZM604 134L604 193L65 193L65 134Z" stroke="rgb(0,0,0)" stroke-opacity="1" stroke-width="8" fill="rgb(0,0,0)" fill-opacity="1"></path></g></g><g><g><g><g><g transform="matrix(1,0,0,1,45.7550048828125,18.040000915527344)"><path transform="matrix(0.017,0,0,-0.017,0,0)" d="M286 646L392 650C454 650 494 641 495 626L503 537L527 537C530 600 537 651 548 689C526 691 498 692 481 692L440 691L275 689L246 689C221 689 181 690 143 691L94 692L91 664L147 662C171 661 182 652 182 635C182 621 178 589 173 559L98 125C81 33 81 32 40 28L4 25L0 -3L34 -2C74 -1 106 0 127 0C145 0 174 -1 213 -2L265 -3L268 25L204 28C177 29 168 37 168 57C168 63 169 74 170 78L206 301L323 301C350 301 381 300 429 298L455 297L474 342L470 349C389 345 329 343 251 343L214 343L260 614C263 630 264 635 269 646Z" stroke="rgb(0,0,0)" stroke-opacity="1" stroke-width="8" fill="rgb(0,0,0)" fill-opacity="1"></path></g></g></g></g><g><g><g><g transform="matrix(1,0,0,1,44.089996337890625,43.375)"><path transform="matrix(0.017,0,0,-0.017,0,0)" d="M567 55C567 39 552 30 524 28L480 25L480 -3C582 0 582 0 602 0C622 0 622 0 724 -3L724 25L698 28C651 35 650 35 642 80L555 705L509 705L136 112C100 56 82 40 48 32L28 27L28 -3C120 0 120 0 140 0C159 0 161 0 247 -3L247 25L195 28C179 29 164 38 164 47C164 55 171 69 190 102L292 277L538 277L563 89L563 86C563 84 567 69 567 55ZM496 601L533 313L317 313Z" stroke="rgb(0,0,0)" stroke-opacity="1" stroke-width="8" fill="rgb(0,0,0)" fill-opacity="1"></path></g></g></g></g><line style="fill:none;stroke-width:0.99px;stroke:rgb(0, 0, 0);" x1="44.089996337890625" y1="26.240000009536743" x2="56.85499668121338" y2="26.240000009536743"></line></g><g><g transform="matrix(1,0,0,1,58.550018310546875,30.205001831054688)"><path transform="matrix(0.017,0,0,-0.017,0,0)" d="" stroke="rgb(0,0,0)" stroke-opacity="1" stroke-width="8" fill="rgb(0,0,0)" fill-opacity="1"></path></g></g></g><g></g><g><g><g transform="matrix(1,0,0,1,2,80.69499969482422)"><path transform="matrix(0.017,0,0,-0.017,0,0)" d="M286 646L392 650C454 650 494 641 495 626L503 537L527 537C530 600 537 651 548 689C526 691 498 692 481 692L440 691L275 689L246 689C221 689 181 690 143 691L94 692L91 664L147 662C171 661 182 652 182 635C182 621 178 589 173 559L98 125C81 33 81 32 40 28L4 25L0 -3L34 -2C74 -1 106 0 127 0C145 0 174 -1 213 -2L265 -3L268 25L204 28C177 29 168 37 168 57C168 63 169 74 170 78L206 301L323 301C350 301 381 300 429 298L455 297L474 342L470 349C389 345 329 343 251 343L214 343L260 614C263 630 264 635 269 646Z" stroke="rgb(0,0,0)" stroke-opacity="1" stroke-width="8" fill="rgb(0,0,0)" fill-opacity="1"></path></g></g><g><g transform="matrix(1,0,0,1,14.82501220703125,80.69499969482422)"><path transform="matrix(0.017,0,0,-0.017,0,0)" d="M123 111C93 111 66 83 66 53C66 23 93 -5 122 -5C154 -5 182 22 182 53C182 83 154 111 123 111ZM123 456C93 456 66 428 66 398C66 368 93 340 122 340C154 340 182 367 182 397C182 428 154 456 123 456Z" stroke="rgb(0,0,0)" stroke-opacity="1" stroke-width="8" fill="rgb(0,0,0)" fill-opacity="1"></path></g></g><g><g transform="matrix(1,0,0,1,22.459991455078125,80.69499969482422)"><path transform="matrix(0.017,0,0,-0.017,0,0)" d="M345 437L329 437L350 549C366 635 394 673 440 673C470 673 497 658 512 634L522 638C527 654 537 685 545 705L550 720C534 727 503 733 480 733C469 733 453 730 445 726C421 715 339 654 316 630C294 608 282 578 271 521L256 442C215 422 195 414 170 405L165 383L246 383L237 327C207 132 170 -54 148 -123C130 -182 100 -213 64 -213C41 -213 30 -206 12 -184L-2 -188C-6 -211 -20 -259 -25 -268C-16 -273 -1 -276 10 -276C51 -276 105 -245 144 -198C215 -114 235 -18 319 383L423 383C427 402 434 425 440 439L436 446C407 439 408 437 345 437ZM1042 473L1035 482L967 465L957 414C942 336 917 268 886 221C827 130 749 59 709 59C701 59 696 68 696 85C696 99 698 112 703 137L760 408C763 424 765 438 765 451C765 470 756 482 742 482C722 482 684 461 610 408L582 388L589 368L621 389C649 407 660 412 669 412C678 412 686 403 686 392C686 388 685 378 684 374L621 77C619 68 617 44 617 30C617 7 632 -11 652 -11C715 -11 836 101 920 239L883 97C876 73 872 46 872 31C872 6 883 -9 902 -9C928 -9 964 12 1062 85L1052 103L1026 86C1002 70 976 59 965 59C957 59 952 66 952 76C952 112 1027 416 1042 473ZM1433 111L1409 94C1356 56 1308 36 1272 36C1225 36 1196 73 1196 133C1196 158 1199 185 1204 214C1221 218 1330 248 1355 259C1440 296 1479 342 1479 404C1479 451 1445 482 1395 482C1327 496 1217 423 1180 349C1150 299 1120 180 1120 113C1120 35 1164 -11 1236 -11C1293 -11 1349 17 1441 92ZM1218 274C1235 343 1255 386 1284 412C1302 428 1333 440 1357 440C1386 440 1405 420 1405 388C1405 344 1370 297 1318 272C1290 258 1254 247 1209 237ZM1861 365C1864 403 1869 435 1877 476C1866 481 1862 482 1857 482C1826 482 1795 458 1759 407C1720 351 1681 291 1665 256L1697 408C1701 425 1703 438 1703 450C1703 470 1695 482 1680 482C1659 482 1621 461 1547 408L1519 388L1526 368L1558 389C1586 407 1597 412 1606 412C1616 412 1623 403 1623 390C1623 332 1580 126 1540 -2L1550 -9C1565 -4 1581 -1 1604 4L1617 6L1643 126C1661 209 1684 262 1728 319C1762 363 1789 384 1811 384C1826 384 1836 379 1847 365ZM2203 -11C2215 -11 2224 -9 2253 -1C2264 61 2272 95 2283 142L2261 142L2239 82C2233 64 2221 57 2200 57C2188 57 2172 59 2151 64L2133 68C2100 75 2066 80 2047 80C2015 80 1988 74 1952 59L2291 441L2297 473L2288 482L2265 459C2255 449 2245 445 2231 445C2197 445 2145 453 2097 466L2079 471C2051 478 2031 482 2017 482C2000 482 1980 479 1956 472L1924 350L1945 350L1975 408C1992 412 2001 413 2014 413C2055 413 2087 398 2140 398C2176 398 2200 404 2233 421L1880 21L1889 -6C1918 17 1945 26 1980 26C2043 26 2134 -11 2203 -11ZM2595 204L2566 77C2562 60 2560 42 2560 26C2560 4 2569 -9 2584 -9C2607 -9 2648 17 2730 85L2723 106C2699 86 2670 59 2648 59C2639 59 2633 68 2633 82C2633 87 2633 90 2634 93L2726 472L2716 481L2683 463C2642 478 2625 482 2598 482C2570 482 2550 477 2523 464C2461 433 2428 403 2403 354C2359 265 2328 145 2328 67C2328 23 2343 -11 2362 -11C2399 -11 2479 41 2595 204ZM2643 414C2621 305 2602 253 2568 201C2511 117 2450 59 2418 59C2406 59 2400 72 2400 99C2400 163 2428 280 2463 360C2487 415 2510 433 2558 433C2581 433 2599 429 2643 414Z" stroke="rgb(0,0,0)" stroke-opacity="1" stroke-width="8" fill="rgb(0,0,0)" fill-opacity="1"></path></g></g></g><g><g><g transform="matrix(1,0,0,1,2,100.8550033569336)"><path transform="matrix(0.017,0,0,-0.017,0,0)" d="M567 55C567 39 552 30 524 28L480 25L480 -3C582 0 582 0 602 0C622 0 622 0 724 -3L724 25L698 28C651 35 650 35 642 80L555 705L509 705L136 112C100 56 82 40 48 32L28 27L28 -3C120 0 120 0 140 0C159 0 161 0 247 -3L247 25L195 28C179 29 164 38 164 47C164 55 171 69 190 102L292 277L538 277L563 89L563 86C563 84 567 69 567 55ZM496 601L533 313L317 313Z" stroke="rgb(0,0,0)" stroke-opacity="1" stroke-width="8" fill="rgb(0,0,0)" fill-opacity="1"></path></g></g><g><g transform="matrix(1,0,0,1,18.154998779296875,100.8550033569336)"><path transform="matrix(0.017,0,0,-0.017,0,0)" d="M123 111C93 111 66 83 66 53C66 23 93 -5 122 -5C154 -5 182 22 182 53C182 83 154 111 123 111ZM123 456C93 456 66 428 66 398C66 368 93 340 122 340C154 340 182 367 182 397C182 428 154 456 123 456Z" stroke="rgb(0,0,0)" stroke-opacity="1" stroke-width="8" fill="rgb(0,0,0)" fill-opacity="1"></path></g></g><g><g transform="matrix(1,0,0,1,25.790008544921875,100.8550033569336)"><path transform="matrix(0.017,0,0,-0.017,0,0)" d="M271 204L242 77C238 60 236 42 236 26C236 4 245 -9 260 -9C283 -9 324 17 406 85L399 106C375 86 346 59 324 59C315 59 309 68 309 82C309 87 309 90 310 93L402 472L392 481L359 463C318 478 301 482 274 482C246 482 226 477 199 464C137 433 104 403 79 354C35 265 4 145 4 67C4 23 19 -11 38 -11C75 -11 155 41 271 204ZM319 414C297 305 278 253 244 201C187 117 126 59 94 59C82 59 76 72 76 99C76 163 104 280 139 360C163 415 186 433 234 433C257 433 275 429 319 414ZM811 365C814 403 819 435 827 476C816 481 812 482 807 482C776 482 745 458 709 407C670 351 631 291 615 256L647 408C651 425 653 438 653 450C653 470 645 482 630 482C609 482 571 461 497 408L469 388L476 368L508 389C536 407 547 412 556 412C566 412 573 403 573 390C573 332 530 126 490 -2L500 -9C515 -4 531 -1 554 4L567 6L593 126C611 209 634 262 678 319C712 363 739 384 761 384C776 384 786 379 797 365ZM1159 111L1135 94C1082 56 1034 36 998 36C951 36 922 73 922 133C922 158 925 185 930 214C947 218 1056 248 1081 259C1166 296 1205 342 1205 404C1205 451 1171 482 1121 482C1053 496 943 423 906 349C876 299 846 180 846 113C846 35 890 -11 962 -11C1019 -11 1075 17 1167 92ZM944 274C961 343 981 386 1010 412C1028 428 1059 440 1083 440C1112 440 1131 420 1131 388C1131 344 1096 297 1044 272C1016 258 980 247 935 237ZM1490 204L1461 77C1457 60 1455 42 1455 26C1455 4 1464 -9 1479 -9C1502 -9 1543 17 1625 85L1618 106C1594 86 1565 59 1543 59C1534 59 1528 68 1528 82C1528 87 1528 90 1529 93L1621 472L1611 481L1578 463C1537 478 1520 482 1493 482C1465 482 1445 477 1418 464C1356 433 1323 403 1298 354C1254 265 1223 145 1223 67C1223 23 1238 -11 1257 -11C1294 -11 1374 41 1490 204ZM1538 414C1516 305 1497 253 1463 201C1406 117 1345 59 1313 59C1301 59 1295 72 1295 99C1295 163 1323 280 1358 360C1382 415 1405 433 1453 433C1476 433 1494 429 1538 414Z" stroke="rgb(0,0,0)" stroke-opacity="1" stroke-width="8" fill="rgb(0,0,0)" fill-opacity="1"></path></g></g></g></g></svg>