<svg xmlns="http://www.w3.org/2000/svg" xmlns:xlink="http://www.w3.org/1999/xlink" width="215.77000427246094" height="173.36500549316406" style="width:215.77000427246094px;height:173.36500549316406px;font-family:Asana-Math, Asana;background:#FFF;"><g><g><g><g transform="matrix(1,0,0,1,2,31.585006713867188)"><path transform="matrix(0.017,0,0,-0.017,0,0)" d="M3523 646L3629 650C3691 650 3731 641 3732 626L3740 537L3764 537C3767 600 3774 651 3785 689C3763 691 3735 692 3718 692L3677 691L3512 689L3483 689C3458 689 3418 690 3380 691L3331 692L3328 664L3384 662C3408 661 3419 652 3419 635C3419 621 3415 589 3410 559L3335 125C3318 33 3318 32 3277 28L3241 25L3237 -3L3271 -2C3311 -1 3343 0 3364 0C3382 0 3411 -1 3450 -2L3502 -3L3505 25L3441 28C3414 29 3405 37 3405 57C3405 63 3406 74 3407 78L3443 301L3560 301C3587 301 3618 300 3666 298L3692 297L3711 342L3707 349C3626 345 3566 343 3488 343L3451 343L3497 614C3500 630 3501 635 3506 646Z" stroke="rgb(0,0,0)" stroke-opacity="1" stroke-width="8" fill="rgb(0,0,0)" fill-opacity="1"></path></g></g><g><g transform="matrix(1,0,0,1,71.53999328613281,31.585006713867188)"><path transform="matrix(0.017,0,0,-0.017,0,0)" d="M604 347L604 406L65 406L65 347ZM604 134L604 193L65 193L65 134Z" stroke="rgb(0,0,0)" stroke-opacity="1" stroke-width="8" fill="rgb(0,0,0)" fill-opacity="1"></path></g></g><g><g transform="matrix(1,0,0,1,87.99501037597656,31.585006713867188)"><path transform="matrix(0.017,0,0,-0.017,0,0)" d="M434 653C511 653 565 639 621 603L621 519L648 519C653 576 661 619 675 665C592 695 535 706 466 706C374 706 301 683 229 632C112 548 50 424 50 274C50 87 159 -18 355 -18C412 -21 559 6 608 37C628 193 632 216 633 219C635 228 647 238 660 240L692 246L694 274C655 270 620 269 569 269C518 269 482 270 440 274L435 246L469 244C544 240 553 236 553 212C553 197 533 84 528 60C483 36 444 27 390 27C224 27 138 120 138 297C138 443 197 653 434 653Z" stroke="rgb(0,0,0)" stroke-opacity="1" stroke-width="8" fill="rgb(0,0,0)" fill-opacity="1"></path></g></g><g><g><g><g><g transform="matrix(1,0,0,1,101.94499206542969,18.040000915527344)"><path transform="matrix(0.017,0,0,-0.017,0,0)" d="M730 103L704 86C675 67 653 56 643 56C636 56 630 65 630 76C630 86 632 95 637 116L712 413C716 430 719 446 719 454C719 471 709 482 693 482C664 482 626 464 565 421C502 376 467 341 418 272L448 409C452 429 455 444 455 451C455 470 445 482 429 482C399 482 353 460 298 418C254 384 234 363 169 275L202 408C206 424 208 439 208 451C208 470 199 482 185 482C164 482 126 461 52 408L24 388L31 368C68 391 103 414 110 414C121 414 128 404 128 389C128 338 87 145 46 2L49 -9L117 6L139 108C163 219 190 278 245 338C287 384 332 414 360 414C367 414 371 406 371 393C371 358 349 244 308 69L292 2L297 -9L366 6L387 113C403 194 437 269 481 318C536 379 586 414 618 414C626 414 631 405 631 389C631 365 628 351 606 264C566 105 550 84 550 31C550 6 561 -9 580 -9C606 -9 642 12 740 85Z" stroke="rgb(0,0,0)" stroke-opacity="1" stroke-width="8" fill="rgb(0,0,0)" fill-opacity="1"></path></g></g><g><g><g><g><g transform="matrix(1,0,0,1,115.66999816894531,22.000006103515624)"><path transform="matrix(0.0119,0,0,-0.0119,0,0)" d="M418 -3L418 27L366 30C311 33 301 44 301 96L301 700L60 598L67 548L217 614L217 96C217 44 206 33 152 30L96 27L96 -3C250 0 250 0 261 0C292 0 402 -3 418 -3Z" stroke="rgb(0,0,0)" stroke-opacity="1" stroke-width="8" fill="rgb(0,0,0)" fill-opacity="1"></path></g></g></g></g></g><g><g transform="matrix(1,0,0,1,122.62998962402344,18.040000915527344)"><path transform="matrix(0.017,0,0,-0.017,0,0)" d="M730 103L704 86C675 67 653 56 643 56C636 56 630 65 630 76C630 86 632 95 637 116L712 413C716 430 719 446 719 454C719 471 709 482 693 482C664 482 626 464 565 421C502 376 467 341 418 272L448 409C452 429 455 444 455 451C455 470 445 482 429 482C399 482 353 460 298 418C254 384 234 363 169 275L202 408C206 424 208 439 208 451C208 470 199 482 185 482C164 482 126 461 52 408L24 388L31 368C68 391 103 414 110 414C121 414 128 404 128 389C128 338 87 145 46 2L49 -9L117 6L139 108C163 219 190 278 245 338C287 384 332 414 360 414C367 414 371 406 371 393C371 358 349 244 308 69L292 2L297 -9L366 6L387 113C403 194 437 269 481 318C536 379 586 414 618 414C626 414 631 405 631 389C631 365 628 351 606 264C566 105 550 84 550 31C550 6 561 -9 580 -9C606 -9 642 12 740 85Z" stroke="rgb(0,0,0)" stroke-opacity="1" stroke-width="8" fill="rgb(0,0,0)" fill-opacity="1"></path></g></g><g><g><g><g><g transform="matrix(1,0,0,1,136.35499572753906,22.000006103515624)"><path transform="matrix(0.0119,0,0,-0.0119,0,0)" d="M16 23L16 -3C203 -3 203 0 239 0C275 0 275 -3 468 -3L468 82C353 77 307 81 122 77L304 270C401 373 431 428 431 503C431 618 353 689 226 689C154 689 105 669 56 619L39 483L68 483L81 529C97 587 133 612 200 612C286 612 341 558 341 473C341 398 299 324 186 204Z" stroke="rgb(0,0,0)" stroke-opacity="1" stroke-width="8" fill="rgb(0,0,0)" fill-opacity="1"></path></g></g></g></g></g></g></g><g><g><g><g transform="matrix(1,0,0,1,115.35499572753906,45.52000427246094)"><path transform="matrix(0.017,0,0,-0.017,0,0)" d="M368 365C371 403 376 435 384 476C373 481 369 482 364 482C333 482 302 458 266 407C227 351 188 291 172 256L204 408C208 425 210 438 210 450C210 470 202 482 187 482C166 482 128 461 54 408L26 388L33 368L65 389C93 407 104 412 113 412C123 412 130 403 130 390C130 332 87 126 47 -2L57 -9C72 -4 88 -1 111 4L124 6L150 126C168 209 191 262 235 319C269 363 296 384 318 384C333 384 343 379 354 365Z" stroke="rgb(0,0,0)" stroke-opacity="1" stroke-width="8" fill="rgb(0,0,0)" fill-opacity="1"></path></g></g><g><g><g><g><g transform="matrix(1,0,0,1,122.93000793457031,40.615003967285155)"><path transform="matrix(0.0119,0,0,-0.0119,0,0)" d="M16 23L16 -3C203 -3 203 0 239 0C275 0 275 -3 468 -3L468 82C353 77 307 81 122 77L304 270C401 373 431 428 431 503C431 618 353 689 226 689C154 689 105 669 56 619L39 483L68 483L81 529C97 587 133 612 200 612C286 612 341 558 341 473C341 398 299 324 186 204Z" stroke="rgb(0,0,0)" stroke-opacity="1" stroke-width="8" fill="rgb(0,0,0)" fill-opacity="1"></path></g></g></g></g></g></g></g><line style="fill:none;stroke-width:0.99px;stroke:rgb(0, 0, 0);" x1="101.94499206542969" y1="27.620004892349243" x2="143.31499481201172" y2="27.620004892349243"></line></g></g><g></g><g><g><g transform="matrix(1,0,0,1,2,86.6050033569336)"><path transform="matrix(0.017,0,0,-0.017,0,0)" d="M434 653C511 653 565 639 621 603L621 519L648 519C653 576 661 619 675 665C592 695 535 706 466 706C374 706 301 683 229 632C112 548 50 424 50 274C50 87 159 -18 355 -18C412 -21 559 6 608 37C628 193 632 216 633 219C635 228 647 238 660 240L692 246L694 274C655 270 620 269 569 269C518 269 482 270 440 274L435 246L469 244C544 240 553 236 553 212C553 197 533 84 528 60C483 36 444 27 390 27C224 27 138 120 138 297C138 443 197 653 434 653Z" stroke="rgb(0,0,0)" stroke-opacity="1" stroke-width="8" fill="rgb(0,0,0)" fill-opacity="1"></path></g></g><g><g transform="matrix(1,0,0,1,19.354995727539062,86.6050033569336)"><path transform="matrix(0.017,0,0,-0.017,0,0)" d="M604 347L604 406L65 406L65 347ZM604 134L604 193L65 193L65 134Z" stroke="rgb(0,0,0)" stroke-opacity="1" stroke-width="8" fill="rgb(0,0,0)" fill-opacity="1"></path></g></g><g><g transform="matrix(1,0,0,1,35.80999755859375,86.6050033569336)"><path transform="matrix(0.017,0,0,-0.017,0,0)" d="M131 331C152 512 241 611 421 665L379 689C283 657 242 637 191 593C88 506 32 384 32 247C32 82 112 -20 241 -20C371 -20 468 83 468 219C468 334 399 409 293 409C216 409 184 370 131 331ZM255 349C331 349 382 283 382 184C382 80 331 13 254 13C169 13 123 86 123 220C123 255 127 274 138 291C160 325 207 349 255 349ZM623 111C593 111 566 83 566 53C566 23 593 -5 622 -5C654 -5 682 22 682 53C682 83 654 111 623 111ZM879 331C900 512 989 611 1169 665L1127 689C1031 657 990 637 939 593C836 506 780 384 780 247C780 82 860 -20 989 -20C1119 -20 1216 83 1216 219C1216 334 1147 409 1041 409C964 409 932 370 879 331ZM1003 349C1079 349 1130 283 1130 184C1130 80 1079 13 1002 13C917 13 871 86 871 220C871 255 875 274 886 291C908 325 955 349 1003 349ZM1656 603L1294 -1L1404 -1L1744 659L1744 689L1291 689L1291 477L1321 477L1328 533C1336 595 1343 603 1389 603ZM2163 267L2032 213L2027 204L2063 153L2073 153L2179 241L2197 99L2207 95L2275 121L2275 131L2207 253L2345 233L2354 241L2354 303L2348 307L2209 283L2278 408L2275 423L2213 442L2204 438L2178 295L2083 393L2073 393L2029 341L2032 331ZM3050 -3L3050 27L2998 30C2943 33 2933 44 2933 96L2933 700L2692 598L2699 548L2849 614L2849 96C2849 44 2838 33 2784 30L2728 27L2728 -3C2882 0 2882 0 2893 0C2924 0 3034 -3 3050 -3ZM3394 689C3239 689 3160 566 3160 324C3160 207 3181 106 3216 57C3251 8 3307 -20 3369 -20C3520 -20 3596 110 3596 366C3596 585 3531 689 3394 689ZM3376 654C3473 654 3512 556 3512 316C3512 103 3474 15 3382 15C3285 15 3244 116 3244 360C3244 571 3281 654 3376 654Z" stroke="rgb(0,0,0)" stroke-opacity="1" stroke-width="8" fill="rgb(0,0,0)" fill-opacity="1"></path></g></g><g><g><g><g><g transform="matrix(1,0,0,1,98.47999572753906,81.70001068115235)"><path transform="matrix(0.0119,0,0,-0.0119,0,0)" d="M555 243L555 299L51 299L51 243ZM1023 -3L1023 27L971 30C916 33 906 44 906 96L906 700L665 598L672 548L822 614L822 96C822 44 811 33 757 30L701 27L701 -3C855 0 855 0 866 0C897 0 1007 -3 1023 -3ZM1522 -3L1522 27L1470 30C1415 33 1405 44 1405 96L1405 700L1164 598L1171 548L1321 614L1321 96C1321 44 1310 33 1256 30L1200 27L1200 -3C1354 0 1354 0 1365 0C1396 0 1506 -3 1522 -3Z" stroke="rgb(0,0,0)" stroke-opacity="1" stroke-width="8" fill="rgb(0,0,0)" fill-opacity="1"></path></g></g></g></g></g></g><g><g><g transform="matrix(1,0,0,1,2,106.76500701904297)"><path transform="matrix(0.017,0,0,-0.017,0,0)" d="M434 653C511 653 565 639 621 603L621 519L648 519C653 576 661 619 675 665C592 695 535 706 466 706C374 706 301 683 229 632C112 548 50 424 50 274C50 87 159 -18 355 -18C412 -21 559 6 608 37C628 193 632 216 633 219C635 228 647 238 660 240L692 246L694 274C655 270 620 269 569 269C518 269 482 270 440 274L435 246L469 244C544 240 553 236 553 212C553 197 533 84 528 60C483 36 444 27 390 27C224 27 138 120 138 297C138 443 197 653 434 653Z" stroke="rgb(0,0,0)" stroke-opacity="1" stroke-width="8" fill="rgb(0,0,0)" fill-opacity="1"></path></g></g><g><g transform="matrix(1,0,0,1,17.645004272460938,106.76500701904297)"><path transform="matrix(0.017,0,0,-0.017,0,0)" d="M123 111C93 111 66 83 66 53C66 23 93 -5 122 -5C154 -5 182 22 182 53C182 83 154 111 123 111ZM123 456C93 456 66 428 66 398C66 368 93 340 122 340C154 340 182 367 182 397C182 428 154 456 123 456Z" stroke="rgb(0,0,0)" stroke-opacity="1" stroke-width="8" fill="rgb(0,0,0)" fill-opacity="1"></path></g></g><g><g transform="matrix(1,0,0,1,25.279998779296875,106.76500701904297)"><path transform="matrix(0.017,0,0,-0.017,0,0)" d="M342 330L365 330C373 395 380 432 389 458C365 473 330 482 293 482C248 483 175 463 118 400C64 352 25 241 25 136C25 40 67 -11 147 -11C201 -11 249 9 304 54L354 95L346 115L331 105C259 57 221 40 186 40C130 40 101 80 101 159C101 267 136 371 185 409C206 425 230 433 261 433C306 433 342 414 342 390ZM531 390L475 107C474 99 462 61 462 31C462 6 473 -9 492 -9C527 -9 562 11 640 74L671 99L661 117L616 86C587 66 567 56 556 56C547 56 542 64 542 76C542 102 556 183 585 328L598 390L705 390L716 440C678 436 644 434 606 434C622 528 633 577 651 631L640 646C620 634 593 622 562 610L537 440C493 419 467 408 449 403L447 390ZM1066 111L1042 94C989 56 941 36 905 36C858 36 829 73 829 133C829 158 832 185 837 214C854 218 963 248 988 259C1073 296 1112 342 1112 404C1112 451 1078 482 1028 482C960 496 850 423 813 349C783 299 753 180 753 113C753 35 797 -11 869 -11C926 -11 982 17 1074 92ZM851 274C868 343 888 386 917 412C935 428 966 440 990 440C1019 440 1038 420 1038 388C1038 344 1003 297 951 272C923 258 887 247 842 237ZM1858 722L1846 733C1794 707 1758 698 1686 691L1682 670L1730 670C1754 670 1764 663 1764 646C1764 638 1763 629 1762 622L1734 468C1704 477 1677 482 1652 482C1583 482 1489 410 1443 323C1412 265 1392 170 1392 86C1392 21 1407 -11 1436 -11C1463 -11 1500 6 1534 33C1588 77 1621 116 1688 217L1665 126C1654 82 1649 50 1649 24C1649 3 1658 -9 1675 -9C1692 -9 1716 3 1750 28L1831 88L1821 107L1777 76C1763 66 1747 59 1738 59C1730 59 1724 68 1724 82C1724 90 1725 99 1732 128ZM1489 59C1473 59 1464 73 1464 98C1464 224 1510 380 1559 418C1572 428 1591 433 1618 433C1662 433 1691 427 1724 410L1712 351C1675 171 1534 59 1489 59ZM2202 111L2178 94C2125 56 2077 36 2041 36C1994 36 1965 73 1965 133C1965 158 1968 185 1973 214C1990 218 2099 248 2124 259C2209 296 2248 342 2248 404C2248 451 2214 482 2164 482C2096 496 1986 423 1949 349C1919 299 1889 180 1889 113C1889 35 1933 -11 2005 -11C2062 -11 2118 17 2210 92ZM1987 274C2004 343 2024 386 2053 412C2071 428 2102 440 2126 440C2155 440 2174 420 2174 388C2174 344 2139 297 2087 272C2059 258 2023 247 1978 237ZM2786 482C2719 482 2566 419 2566 259C2566 182 2611 136 2688 136C2696 136 2707 136 2718 137L2677 99C2661 84 2650 66 2650 52C2650 42 2657 31 2671 19C2602 -4 2474 -48 2474 -159C2474 -230 2544 -276 2653 -276C2782 -276 2895 -204 2895 -121C2895 -85 2874 -49 2831 -14L2771 35C2737 62 2724 81 2724 100C2724 114 2739 128 2751 146C2849 170 2920 253 2920 342C2920 357 2917 376 2916 380C2933 378 2941 378 2950 378C2967 378 2977 379 3000 382L3009 427L3006 433C2978 426 2958 424 2904 424C2904 425 2880 482 2786 482ZM2687 1L2764 -58C2810 -94 2829 -121 2829 -154C2829 -206 2760 -248 2677 -248C2595 -248 2538 -206 2538 -145C2538 -43 2648 -11 2687 1ZM2761 448C2819 448 2848 412 2848 341C2848 238 2800 168 2730 168C2669 168 2637 209 2637 288C2637 383 2688 448 2761 448ZM3378 365C3381 403 3386 435 3394 476C3383 481 3379 482 3374 482C3343 482 3312 458 3276 407C3237 351 3198 291 3182 256L3214 408C3218 425 3220 438 3220 450C3220 470 3212 482 3197 482C3176 482 3138 461 3064 408L3036 388L3043 368L3075 389C3103 407 3114 412 3123 412C3133 412 3140 403 3140 390C3140 332 3097 126 3057 -2L3067 -9C3082 -4 3098 -1 3121 4L3134 6L3160 126C3178 209 3201 262 3245 319C3279 363 3306 384 3328 384C3343 384 3353 379 3364 365ZM3669 204L3640 77C3636 60 3634 42 3634 26C3634 4 3643 -9 3658 -9C3681 -9 3722 17 3804 85L3797 106C3773 86 3744 59 3722 59C3713 59 3707 68 3707 82C3707 87 3707 90 3708 93L3800 472L3790 481L3757 463C3716 478 3699 482 3672 482C3644 482 3624 477 3597 464C3535 433 3502 403 3477 354C3433 265 3402 145 3402 67C3402 23 3417 -11 3436 -11C3473 -11 3553 41 3669 204ZM3717 414C3695 305 3676 253 3642 201C3585 117 3524 59 3492 59C3480 59 3474 72 3474 99C3474 163 3502 280 3537 360C3561 415 3584 433 3632 433C3655 433 3673 429 3717 414ZM4007 420C4028 420 4044 421 4070 424C3959 304 3917 221 3917 121C3917 44 3963 -11 4027 -11C4165 -11 4318 236 4318 384C4318 441 4292 482 4256 482C4243 482 4231 478 4223 470L4173 423L4184 404C4193 410 4202 413 4211 413C4238 413 4254 390 4254 350C4254 202 4157 39 4069 39C4020 39 3989 81 3989 146C3989 251 4028 342 4126 464L4116 482C4096 473 4083 470 4055 470C4027 470 3985 472 3956 475L3944 476C3938 477 3933 477 3932 477C3920 477 3911 475 3900 470C3886 443 3875 407 3862 352L3884 352L3901 394C3908 411 3928 422 3952 422C3985 422 3969 420 4007 420ZM4374 388L4381 368L4413 389C4450 412 4453 414 4460 414C4470 414 4478 404 4478 391C4478 384 4474 361 4470 347L4404 107C4396 76 4391 49 4391 30C4391 6 4402 -9 4421 -9C4447 -9 4483 12 4581 85L4571 103L4545 86C4516 67 4493 56 4484 56C4477 56 4471 66 4471 76C4471 86 4473 95 4478 116L4555 420C4559 437 4561 448 4561 456C4561 473 4552 482 4536 482C4514 482 4477 461 4402 408ZM4568 712C4539 712 4510 679 4510 645C4510 620 4525 604 4549 604C4580 604 4604 633 4604 671C4604 695 4589 712 4568 712ZM4742 390L4686 107C4685 99 4673 61 4673 31C4673 6 4684 -9 4703 -9C4738 -9 4773 11 4851 74L4882 99L4872 117L4827 86C4798 66 4778 56 4767 56C4758 56 4753 64 4753 76C4753 102 4767 183 4796 328L4809 390L4916 390L4927 440C4889 436 4855 434 4817 434C4833 528 4844 577 4862 631L4851 646C4831 634 4804 622 4773 610L4748 440C4704 419 4678 408 4660 403L4658 390ZM5220 204L5191 77C5187 60 5185 42 5185 26C5185 4 5194 -9 5209 -9C5232 -9 5273 17 5355 85L5348 106C5324 86 5295 59 5273 59C5264 59 5258 68 5258 82C5258 87 5258 90 5259 93L5351 472L5341 481L5308 463C5267 478 5250 482 5223 482C5195 482 5175 477 5148 464C5086 433 5053 403 5028 354C4984 265 4953 145 4953 67C4953 23 4968 -11 4987 -11C5024 -11 5104 41 5220 204ZM5268 414C5246 305 5227 253 5193 201C5136 117 5075 59 5043 59C5031 59 5025 72 5025 99C5025 163 5053 280 5088 360C5112 415 5135 433 5183 433C5206 433 5224 429 5268 414ZM5734 330L5757 330C5765 395 5772 432 5781 458C5757 473 5722 482 5685 482C5640 483 5567 463 5510 400C5456 352 5417 241 5417 136C5417 40 5459 -11 5539 -11C5593 -11 5641 9 5696 54L5746 95L5738 115L5723 105C5651 57 5613 40 5578 40C5522 40 5493 80 5493 159C5493 267 5528 371 5577 409C5598 425 5622 433 5653 433C5698 433 5734 414 5734 390ZM5832 388L5839 368L5871 389C5908 412 5911 414 5918 414C5928 414 5936 404 5936 391C5936 384 5932 361 5928 347L5862 107C5854 76 5849 49 5849 30C5849 6 5860 -9 5879 -9C5905 -9 5941 12 6039 85L6029 103L6003 86C5974 67 5951 56 5942 56C5935 56 5929 66 5929 76C5929 86 5931 95 5936 116L6013 420C6017 437 6019 448 6019 456C6019 473 6010 482 5994 482C5972 482 5935 461 5860 408ZM6026 712C5997 712 5968 679 5968 645C5968 620 5983 604 6007 604C6038 604 6062 633 6062 671C6062 695 6047 712 6026 712ZM6092 152C6092 46 6137 -11 6220 -11C6275 -11 6335 15 6380 57C6442 116 6486 230 6486 331C6486 425 6436 482 6353 482C6249 482 6092 382 6092 152ZM6316 444C6377 444 6410 399 6410 315C6410 219 6379 113 6335 60C6317 39 6291 27 6260 27C6202 27 6168 72 6168 151C6168 264 6207 387 6256 427C6269 438 6292 444 6316 444ZM6542 388L6549 368L6581 389C6618 412 6621 414 6628 414C6639 414 6646 404 6646 389C6646 338 6605 145 6564 2L6571 -9C6596 -2 6619 4 6641 8C6660 134 6681 199 6727 268C6781 352 6856 414 6901 414C6912 414 6918 405 6918 390C6918 372 6915 351 6907 319L6855 107C6846 70 6842 47 6842 31C6842 6 6853 -9 6872 -9C6898 -9 6934 12 7032 85L7022 103L6996 86C6967 67 6945 56 6935 56C6928 56 6922 65 6922 76C6922 81 6923 92 6924 96L6990 372C6997 401 7001 429 7001 446C7001 469 6990 482 6970 482C6928 482 6859 444 6800 389C6762 354 6734 320 6682 247L6720 408C6724 426 6726 438 6726 449C6726 470 6718 482 6703 482C6682 482 6643 460 6570 408ZM7814 473L7807 482L7739 465L7729 414C7714 336 7689 268 7658 221C7599 130 7521 59 7481 59C7473 59 7468 68 7468 85C7468 99 7470 112 7475 137L7532 408C7535 424 7537 438 7537 451C7537 470 7528 482 7514 482C7494 482 7456 461 7382 408L7354 388L7361 368L7393 389C7421 407 7432 412 7441 412C7450 412 7458 403 7458 392C7458 388 7457 378 7456 374L7393 77C7391 68 7389 44 7389 30C7389 7 7404 -11 7424 -11C7487 -11 7608 101 7692 239L7655 97C7648 73 7644 46 7644 31C7644 6 7655 -9 7674 -9C7700 -9 7736 12 7834 85L7824 103L7798 86C7774 70 7748 59 7737 59C7729 59 7724 66 7724 76C7724 112 7799 416 7814 473ZM7901 388L7908 368L7940 389C7977 412 7980 414 7987 414C7998 414 8005 404 8005 389C8005 338 7964 145 7923 2L7930 -9C7955 -2 7978 4 8000 8C8019 134 8040 199 8086 268C8140 352 8215 414 8260 414C8271 414 8277 405 8277 390C8277 372 8274 351 8266 319L8214 107C8205 70 8201 47 8201 31C8201 6 8212 -9 8231 -9C8257 -9 8293 12 8391 85L8381 103L8355 86C8326 67 8304 56 8294 56C8287 56 8281 65 8281 76C8281 81 8282 92 8283 96L8349 372C8356 401 8360 429 8360 446C8360 469 8349 482 8329 482C8287 482 8218 444 8159 389C8121 354 8093 320 8041 247L8079 408C8083 426 8085 438 8085 449C8085 470 8077 482 8062 482C8041 482 8002 460 7929 408ZM8466 388L8473 368L8505 389C8542 412 8545 414 8552 414C8562 414 8570 404 8570 391C8570 384 8566 361 8562 347L8496 107C8488 76 8483 49 8483 30C8483 6 8494 -9 8513 -9C8539 -9 8575 12 8673 85L8663 103L8637 86C8608 67 8585 56 8576 56C8569 56 8563 66 8563 76C8563 86 8565 95 8570 116L8647 420C8651 437 8653 448 8653 456C8653 473 8644 482 8628 482C8606 482 8569 461 8494 408ZM8660 712C8631 712 8602 679 8602 645C8602 620 8617 604 8641 604C8672 604 8696 633 8696 671C8696 695 8681 712 8660 712ZM8875 420C8896 420 8912 421 8938 424C8827 304 8785 221 8785 121C8785 44 8831 -11 8895 -11C9033 -11 9186 236 9186 384C9186 441 9160 482 9124 482C9111 482 9099 478 9091 470L9041 423L9052 404C9061 410 9070 413 9079 413C9106 413 9122 390 9122 350C9122 202 9025 39 8937 39C8888 39 8857 81 8857 146C8857 251 8896 342 8994 464L8984 482C8964 473 8951 470 8923 470C8895 470 8853 472 8824 475L8812 476C8806 477 8801 477 8800 477C8788 477 8779 475 8768 470C8754 443 8743 407 8730 352L8752 352L8769 394C8776 411 8796 422 8820 422C8853 422 8837 420 8875 420ZM9536 111L9512 94C9459 56 9411 36 9375 36C9328 36 9299 73 9299 133C9299 158 9302 185 9307 214C9324 218 9433 248 9458 259C9543 296 9582 342 9582 404C9582 451 9548 482 9498 482C9430 496 9320 423 9283 349C9253 299 9223 180 9223 113C9223 35 9267 -11 9339 -11C9396 -11 9452 17 9544 92ZM9321 274C9338 343 9358 386 9387 412C9405 428 9436 440 9460 440C9489 440 9508 420 9508 388C9508 344 9473 297 9421 272C9393 258 9357 247 9312 237ZM9964 365C9967 403 9972 435 9980 476C9969 481 9965 482 9960 482C9929 482 9898 458 9862 407C9823 351 9784 291 9768 256L9800 408C9804 425 9806 438 9806 450C9806 470 9798 482 9783 482C9762 482 9724 461 9650 408L9622 388L9629 368L9661 389C9689 407 9700 412 9709 412C9719 412 9726 403 9726 390C9726 332 9683 126 9643 -2L9653 -9C9668 -4 9684 -1 9707 4L9720 6L9746 126C9764 209 9787 262 9831 319C9865 363 9892 384 9914 384C9929 384 9939 379 9950 365ZM10015 148C10010 97 10004 62 9993 16C10031 -2 10065 -11 10100 -11C10149 -11 10195 7 10246 47C10297 87 10318 124 10318 174C10318 228 10286 257 10212 271L10169 279C10109 290 10090 307 10090 348C10090 401 10135 442 10192 442C10233 442 10271 424 10287 397L10287 342L10310 342C10314 377 10318 404 10329 455C10290 474 10262 482 10229 482C10177 482 10116 452 10068 404C10042 377 10031 352 10031 316C10031 260 10062 228 10128 215L10191 203C10235 195 10251 177 10251 138C10251 73 10205 29 10134 29C10099 29 10068 40 10040 64L10040 148ZM10643 204L10614 77C10610 60 10608 42 10608 26C10608 4 10617 -9 10632 -9C10655 -9 10696 17 10778 85L10771 106C10747 86 10718 59 10696 59C10687 59 10681 68 10681 82C10681 87 10681 90 10682 93L10774 472L10764 481L10731 463C10690 478 10673 482 10646 482C10618 482 10598 477 10571 464C10509 433 10476 403 10451 354C10407 265 10376 145 10376 67C10376 23 10391 -11 10410 -11C10447 -11 10527 41 10643 204ZM10691 414C10669 305 10650 253 10616 201C10559 117 10498 59 10466 59C10454 59 10448 72 10448 99C10448 163 10476 280 10511 360C10535 415 10558 433 10606 433C10629 433 10647 429 10691 414ZM11066 722L11054 733C11002 707 10966 698 10894 691L10890 670L10938 670C10962 670 10972 663 10972 648C10972 645 10972 640 10969 622C10958 567 10885 182 10870 132C10857 82 10851 52 10851 31C10851 6 10862 -9 10881 -9C10907 -9 10943 12 11041 85L11031 103L11005 86C10976 67 10954 56 10944 56C10937 56 10931 66 10931 76C10931 82 10932 89 10935 104Z" stroke="rgb(0,0,0)" stroke-opacity="1" stroke-width="8" fill="rgb(0,0,0)" fill-opacity="1"></path></g></g></g><g><g><g transform="matrix(1,0,0,1,2,126.92501068115234)"><path transform="matrix(0.017,0,0,-0.017,0,0)" d="M730 103L704 86C675 67 653 56 643 56C636 56 630 65 630 76C630 86 632 95 637 116L712 413C716 430 719 446 719 454C719 471 709 482 693 482C664 482 626 464 565 421C502 376 467 341 418 272L448 409C452 429 455 444 455 451C455 470 445 482 429 482C399 482 353 460 298 418C254 384 234 363 169 275L202 408C206 424 208 439 208 451C208 470 199 482 185 482C164 482 126 461 52 408L24 388L31 368C68 391 103 414 110 414C121 414 128 404 128 389C128 338 87 145 46 2L49 -9L117 6L139 108C163 219 190 278 245 338C287 384 332 414 360 414C367 414 371 406 371 393C371 358 349 244 308 69L292 2L297 -9L366 6L387 113C403 194 437 269 481 318C536 379 586 414 618 414C626 414 631 405 631 389C631 365 628 351 606 264C566 105 550 84 550 31C550 6 561 -9 580 -9C606 -9 642 12 740 85Z" stroke="rgb(0,0,0)" stroke-opacity="1" stroke-width="8" fill="rgb(0,0,0)" fill-opacity="1"></path></g></g><g><g transform="matrix(1,0,0,1,18.604995727539062,126.92501068115234)"><path transform="matrix(0.017,0,0,-0.017,0,0)" d="M123 111C93 111 66 83 66 53C66 23 93 -5 122 -5C154 -5 182 22 182 53C182 83 154 111 123 111ZM123 456C93 456 66 428 66 398C66 368 93 340 122 340C154 340 182 367 182 397C182 428 154 456 123 456Z" stroke="rgb(0,0,0)" stroke-opacity="1" stroke-width="8" fill="rgb(0,0,0)" fill-opacity="1"></path></g></g><g><g transform="matrix(1,0,0,1,26.240005493164062,126.92501068115234)"><path transform="matrix(0.017,0,0,-0.017,0,0)" d="M730 103L704 86C675 67 653 56 643 56C636 56 630 65 630 76C630 86 632 95 637 116L712 413C716 430 719 446 719 454C719 471 709 482 693 482C664 482 626 464 565 421C502 376 467 341 418 272L448 409C452 429 455 444 455 451C455 470 445 482 429 482C399 482 353 460 298 418C254 384 234 363 169 275L202 408C206 424 208 439 208 451C208 470 199 482 185 482C164 482 126 461 52 408L24 388L31 368C68 391 103 414 110 414C121 414 128 404 128 389C128 338 87 145 46 2L49 -9L117 6L139 108C163 219 190 278 245 338C287 384 332 414 360 414C367 414 371 406 371 393C371 358 349 244 308 69L292 2L297 -9L366 6L387 113C403 194 437 269 481 318C536 379 586 414 618 414C626 414 631 405 631 389C631 365 628 351 606 264C566 105 550 84 550 31C550 6 561 -9 580 -9C606 -9 642 12 740 85ZM1048 204L1019 77C1015 60 1013 42 1013 26C1013 4 1022 -9 1037 -9C1060 -9 1101 17 1183 85L1176 106C1152 86 1123 59 1101 59C1092 59 1086 68 1086 82C1086 87 1086 90 1087 93L1179 472L1169 481L1136 463C1095 478 1078 482 1051 482C1023 482 1003 477 976 464C914 433 881 403 856 354C812 265 781 145 781 67C781 23 796 -11 815 -11C852 -11 932 41 1048 204ZM1096 414C1074 305 1055 253 1021 201C964 117 903 59 871 59C859 59 853 72 853 99C853 163 881 280 916 360C940 415 963 433 1011 433C1034 433 1052 429 1096 414ZM1251 148C1246 97 1240 62 1229 16C1267 -2 1301 -11 1336 -11C1385 -11 1431 7 1482 47C1533 87 1554 124 1554 174C1554 228 1522 257 1448 271L1405 279C1345 290 1326 307 1326 348C1326 401 1371 442 1428 442C1469 442 1507 424 1523 397L1523 342L1546 342C1550 377 1554 404 1565 455C1526 474 1498 482 1465 482C1413 482 1352 452 1304 404C1278 377 1267 352 1267 316C1267 260 1298 228 1364 215L1427 203C1471 195 1487 177 1487 138C1487 73 1441 29 1370 29C1335 29 1304 40 1276 64L1276 148ZM1879 204L1850 77C1846 60 1844 42 1844 26C1844 4 1853 -9 1868 -9C1891 -9 1932 17 2014 85L2007 106C1983 86 1954 59 1932 59C1923 59 1917 68 1917 82C1917 87 1917 90 1918 93L2010 472L2000 481L1967 463C1926 478 1909 482 1882 482C1854 482 1834 477 1807 464C1745 433 1712 403 1687 354C1643 265 1612 145 1612 67C1612 23 1627 -11 1646 -11C1683 -11 1763 41 1879 204ZM1927 414C1905 305 1886 253 1852 201C1795 117 1734 59 1702 59C1690 59 1684 72 1684 99C1684 163 1712 280 1747 360C1771 415 1794 433 1842 433C1865 433 1883 429 1927 414ZM2783 722L2771 733C2719 707 2683 698 2611 691L2607 670L2655 670C2679 670 2689 663 2689 646C2689 638 2688 629 2687 622L2659 468C2629 477 2602 482 2577 482C2508 482 2414 410 2368 323C2337 265 2317 170 2317 86C2317 21 2332 -11 2361 -11C2388 -11 2425 6 2459 33C2513 77 2546 116 2613 217L2590 126C2579 82 2574 50 2574 24C2574 3 2583 -9 2600 -9C2617 -9 2641 3 2675 28L2756 88L2746 107L2702 76C2688 66 2672 59 2663 59C2655 59 2649 68 2649 82C2649 90 2650 99 2657 128ZM2414 59C2398 59 2389 73 2389 98C2389 224 2435 380 2484 418C2497 428 2516 433 2543 433C2587 433 2616 427 2649 410L2637 351C2600 171 2459 59 2414 59ZM3127 111L3103 94C3050 56 3002 36 2966 36C2919 36 2890 73 2890 133C2890 158 2893 185 2898 214C2915 218 3024 248 3049 259C3134 296 3173 342 3173 404C3173 451 3139 482 3089 482C3021 496 2911 423 2874 349C2844 299 2814 180 2814 113C2814 35 2858 -11 2930 -11C2987 -11 3043 17 3135 92ZM2912 274C2929 343 2949 386 2978 412C2996 428 3027 440 3051 440C3080 440 3099 420 3099 388C3099 344 3064 297 3012 272C2984 258 2948 247 2903 237ZM3438 722L3426 733C3374 707 3338 698 3266 691L3262 670L3310 670C3334 670 3344 663 3344 648C3344 645 3344 640 3341 622C3330 567 3257 182 3242 132C3229 82 3223 52 3223 31C3223 6 3234 -9 3253 -9C3279 -9 3315 12 3413 85L3403 103L3377 86C3348 67 3326 56 3316 56C3309 56 3303 66 3303 76C3303 82 3304 89 3307 104ZM4055 330L4078 330C4086 395 4093 432 4102 458C4078 473 4043 482 4006 482C3961 483 3888 463 3831 400C3777 352 3738 241 3738 136C3738 40 3780 -11 3860 -11C3914 -11 3962 9 4017 54L4067 95L4059 115L4044 105C3972 57 3934 40 3899 40C3843 40 3814 80 3814 159C3814 267 3849 371 3898 409C3919 425 3943 433 3974 433C4019 433 4055 414 4055 390ZM4611 473L4604 482L4536 465L4526 414C4511 336 4486 268 4455 221C4396 130 4318 59 4278 59C4270 59 4265 68 4265 85C4265 99 4267 112 4272 137L4329 408C4332 424 4334 438 4334 451C4334 470 4325 482 4311 482C4291 482 4253 461 4179 408L4151 388L4158 368L4190 389C4218 407 4229 412 4238 412C4247 412 4255 403 4255 392C4255 388 4254 378 4253 374L4190 77C4188 68 4186 44 4186 30C4186 7 4201 -11 4221 -11C4284 -11 4405 101 4489 239L4452 97C4445 73 4441 46 4441 31C4441 6 4452 -9 4471 -9C4497 -9 4533 12 4631 85L4621 103L4595 86C4571 70 4545 59 4534 59C4526 59 4521 66 4521 76C4521 112 4596 416 4611 473ZM5002 111L4978 94C4925 56 4877 36 4841 36C4794 36 4765 73 4765 133C4765 158 4768 185 4773 214C4790 218 4899 248 4924 259C5009 296 5048 342 5048 404C5048 451 5014 482 4964 482C4896 496 4786 423 4749 349C4719 299 4689 180 4689 113C4689 35 4733 -11 4805 -11C4862 -11 4918 17 5010 92ZM4787 274C4804 343 4824 386 4853 412C4871 428 4902 440 4926 440C4955 440 4974 420 4974 388C4974 344 4939 297 4887 272C4859 258 4823 247 4778 237ZM5430 365C5433 403 5438 435 5446 476C5435 481 5431 482 5426 482C5395 482 5364 458 5328 407C5289 351 5250 291 5234 256L5266 408C5270 425 5272 438 5272 450C5272 470 5264 482 5249 482C5228 482 5190 461 5116 408L5088 388L5095 368L5127 389C5155 407 5166 412 5175 412C5185 412 5192 403 5192 390C5192 332 5149 126 5109 -2L5119 -9C5134 -4 5150 -1 5173 4L5186 6L5212 126C5230 209 5253 262 5297 319C5331 363 5358 384 5380 384C5395 384 5405 379 5416 365ZM5626 -11C5682 -11 5797 62 5840 125C5881 186 5915 296 5915 371C5915 438 5892 482 5856 482C5814 482 5761 456 5709 409C5668 374 5648 348 5612 289L5636 408C5639 425 5641 440 5641 452C5641 471 5633 482 5619 482C5598 482 5560 461 5486 408L5458 388L5465 368L5497 389C5525 407 5536 412 5545 412C5555 412 5562 403 5562 389C5562 381 5560 361 5558 351L5500 8C5490 -52 5471 -143 5451 -233L5443 -270L5450 -276C5471 -269 5491 -264 5523 -259L5565 3C5586 -4 5608 -11 5626 -11ZM5593 165C5615 293 5722 424 5805 424C5831 424 5843 402 5843 356C5843 275 5803 156 5750 80C5730 51 5698 36 5657 36C5626 36 5601 43 5575 59ZM5966 152C5966 46 6011 -11 6094 -11C6149 -11 6209 15 6254 57C6316 116 6360 230 6360 331C6360 425 6310 482 6227 482C6123 482 5966 382 5966 152ZM6190 444C6251 444 6284 399 6284 315C6284 219 6253 113 6209 60C6191 39 6165 27 6134 27C6076 27 6042 72 6042 151C6042 264 6081 387 6130 427C6143 438 6166 444 6190 444Z" stroke="rgb(0,0,0)" stroke-opacity="1" stroke-width="8" fill="rgb(0,0,0)" fill-opacity="1"></path></g></g></g><g><g><g transform="matrix(1,0,0,1,2,147.08501434326172)"><path transform="matrix(0.017,0,0,-0.017,0,0)" d="M368 365C371 403 376 435 384 476C373 481 369 482 364 482C333 482 302 458 266 407C227 351 188 291 172 256L204 408C208 425 210 438 210 450C210 470 202 482 187 482C166 482 128 461 54 408L26 388L33 368L65 389C93 407 104 412 113 412C123 412 130 403 130 390C130 332 87 126 47 -2L57 -9C72 -4 88 -1 111 4L124 6L150 126C168 209 191 262 235 319C269 363 296 384 318 384C333 384 343 379 354 365Z" stroke="rgb(0,0,0)" stroke-opacity="1" stroke-width="8" fill="rgb(0,0,0)" fill-opacity="1"></path></g></g><g><g transform="matrix(1,0,0,1,11.989990234375,147.08501434326172)"><path transform="matrix(0.017,0,0,-0.017,0,0)" d="M123 111C93 111 66 83 66 53C66 23 93 -5 122 -5C154 -5 182 22 182 53C182 83 154 111 123 111ZM123 456C93 456 66 428 66 398C66 368 93 340 122 340C154 340 182 367 182 397C182 428 154 456 123 456Z" stroke="rgb(0,0,0)" stroke-opacity="1" stroke-width="8" fill="rgb(0,0,0)" fill-opacity="1"></path></g></g><g><g transform="matrix(1,0,0,1,19.625,147.08501434326172)"><path transform="matrix(0.017,0,0,-0.017,0,0)" d="M483 722L471 733C419 707 383 698 311 691L307 670L355 670C379 670 389 663 389 646C389 638 388 629 387 622L359 468C329 477 302 482 277 482C208 482 114 410 68 323C37 265 17 170 17 86C17 21 32 -11 61 -11C88 -11 125 6 159 33C213 77 246 116 313 217L290 126C279 82 274 50 274 24C274 3 283 -9 300 -9C317 -9 341 3 375 28L456 88L446 107L402 76C388 66 372 59 363 59C355 59 349 68 349 82C349 90 350 99 357 128ZM114 59C98 59 89 73 89 98C89 224 135 380 184 418C197 428 216 433 243 433C287 433 316 427 349 410L337 351C300 171 159 59 114 59ZM533 388L540 368L572 389C609 412 612 414 619 414C629 414 637 404 637 391C637 384 633 361 629 347L563 107C555 76 550 49 550 30C550 6 561 -9 580 -9C606 -9 642 12 740 85L730 103L704 86C675 67 652 56 643 56C636 56 630 66 630 76C630 86 632 95 637 116L714 420C718 437 720 448 720 456C720 473 711 482 695 482C673 482 636 461 561 408ZM727 712C698 712 669 679 669 645C669 620 684 604 708 604C739 604 763 633 763 671C763 695 748 712 727 712ZM807 148C802 97 796 62 785 16C823 -2 857 -11 892 -11C941 -11 987 7 1038 47C1089 87 1110 124 1110 174C1110 228 1078 257 1004 271L961 279C901 290 882 307 882 348C882 401 927 442 984 442C1025 442 1063 424 1079 397L1079 342L1102 342C1106 377 1110 404 1121 455C1082 474 1054 482 1021 482C969 482 908 452 860 404C834 377 823 352 823 316C823 260 854 228 920 215L983 203C1027 195 1043 177 1043 138C1043 73 997 29 926 29C891 29 860 40 832 64L832 148ZM1289 390L1233 107C1232 99 1220 61 1220 31C1220 6 1231 -9 1250 -9C1285 -9 1320 11 1398 74L1429 99L1419 117L1374 86C1345 66 1325 56 1314 56C1305 56 1300 64 1300 76C1300 102 1314 183 1343 328L1356 390L1463 390L1474 440C1436 436 1402 434 1364 434C1380 528 1391 577 1409 631L1398 646C1378 634 1351 622 1320 610L1295 440C1251 419 1225 408 1207 403L1205 390ZM1767 204L1738 77C1734 60 1732 42 1732 26C1732 4 1741 -9 1756 -9C1779 -9 1820 17 1902 85L1895 106C1871 86 1842 59 1820 59C1811 59 1805 68 1805 82C1805 87 1805 90 1806 93L1898 472L1888 481L1855 463C1814 478 1797 482 1770 482C1742 482 1722 477 1695 464C1633 433 1600 403 1575 354C1531 265 1500 145 1500 67C1500 23 1515 -11 1534 -11C1571 -11 1651 41 1767 204ZM1815 414C1793 305 1774 253 1740 201C1683 117 1622 59 1590 59C1578 59 1572 72 1572 99C1572 163 1600 280 1635 360C1659 415 1682 433 1730 433C1753 433 1771 429 1815 414ZM1963 388L1970 368L2002 389C2039 412 2042 414 2049 414C2060 414 2067 404 2067 389C2067 338 2026 145 1985 2L1992 -9C2017 -2 2040 4 2062 8C2081 134 2102 199 2148 268C2202 352 2277 414 2322 414C2333 414 2339 405 2339 390C2339 372 2336 351 2328 319L2276 107C2267 70 2263 47 2263 31C2263 6 2274 -9 2293 -9C2319 -9 2355 12 2453 85L2443 103L2417 86C2388 67 2366 56 2356 56C2349 56 2343 65 2343 76C2343 81 2344 92 2345 96L2411 372C2418 401 2422 429 2422 446C2422 469 2411 482 2391 482C2349 482 2280 444 2221 389C2183 354 2155 320 2103 247L2141 408C2145 426 2147 438 2147 449C2147 470 2139 482 2124 482C2103 482 2064 460 1991 408ZM2836 330L2859 330C2867 395 2874 432 2883 458C2859 473 2824 482 2787 482C2742 483 2669 463 2612 400C2558 352 2519 241 2519 136C2519 40 2561 -11 2641 -11C2695 -11 2743 9 2798 54L2848 95L2840 115L2825 105C2753 57 2715 40 2680 40C2624 40 2595 80 2595 159C2595 267 2630 371 2679 409C2700 425 2724 433 2755 433C2800 433 2836 414 2836 390ZM2934 388L2941 368L2973 389C3010 412 3013 414 3020 414C3030 414 3038 404 3038 391C3038 384 3034 361 3030 347L2964 107C2956 76 2951 49 2951 30C2951 6 2962 -9 2981 -9C3007 -9 3043 12 3141 85L3131 103L3105 86C3076 67 3053 56 3044 56C3037 56 3031 66 3031 76C3031 86 3033 95 3038 116L3115 420C3119 437 3121 448 3121 456C3121 473 3112 482 3096 482C3074 482 3037 461 2962 408ZM3128 712C3099 712 3070 679 3070 645C3070 620 3085 604 3109 604C3140 604 3164 633 3164 671C3164 695 3149 712 3128 712ZM3448 204L3419 77C3415 60 3413 42 3413 26C3413 4 3422 -9 3437 -9C3460 -9 3501 17 3583 85L3576 106C3552 86 3523 59 3501 59C3492 59 3486 68 3486 82C3486 87 3486 90 3487 93L3579 472L3569 481L3536 463C3495 478 3478 482 3451 482C3423 482 3403 477 3376 464C3314 433 3281 403 3256 354C3212 265 3181 145 3181 67C3181 23 3196 -11 3215 -11C3252 -11 3332 41 3448 204ZM3496 414C3474 305 3455 253 3421 201C3364 117 3303 59 3271 59C3259 59 3253 72 3253 99C3253 163 3281 280 3316 360C3340 415 3363 433 3411 433C3434 433 3452 429 3496 414ZM4197 111L4173 94C4120 56 4072 36 4036 36C3989 36 3960 73 3960 133C3960 158 3963 185 3968 214C3985 218 4094 248 4119 259C4204 296 4243 342 4243 404C4243 451 4209 482 4159 482C4091 496 3981 423 3944 349C3914 299 3884 180 3884 113C3884 35 3928 -11 4000 -11C4057 -11 4113 17 4205 92ZM3982 274C3999 343 4019 386 4048 412C4066 428 4097 440 4121 440C4150 440 4169 420 4169 388C4169 344 4134 297 4082 272C4054 258 4018 247 3973 237ZM4281 388L4288 368L4320 389C4357 412 4360 414 4367 414C4378 414 4385 404 4385 389C4385 338 4344 145 4303 2L4310 -9C4335 -2 4358 4 4380 8C4399 134 4420 199 4466 268C4520 352 4595 414 4640 414C4651 414 4657 405 4657 390C4657 372 4654 351 4646 319L4594 107C4585 70 4581 47 4581 31C4581 6 4592 -9 4611 -9C4637 -9 4673 12 4771 85L4761 103L4735 86C4706 67 4684 56 4674 56C4667 56 4661 65 4661 76C4661 81 4662 92 4663 96L4729 372C4736 401 4740 429 4740 446C4740 469 4729 482 4709 482C4667 482 4598 444 4539 389C4501 354 4473 320 4421 247L4459 408C4463 426 4465 438 4465 449C4465 470 4457 482 4442 482C4421 482 4382 460 4309 408ZM4937 390L4881 107C4880 99 4868 61 4868 31C4868 6 4879 -9 4898 -9C4933 -9 4968 11 5046 74L5077 99L5067 117L5022 86C4993 66 4973 56 4962 56C4953 56 4948 64 4948 76C4948 102 4962 183 4991 328L5004 390L5111 390L5122 440C5084 436 5050 434 5012 434C5028 528 5039 577 5057 631L5046 646C5026 634 4999 622 4968 610L4943 440C4899 419 4873 408 4855 403L4853 390ZM5512 365C5515 403 5520 435 5528 476C5517 481 5513 482 5508 482C5477 482 5446 458 5410 407C5371 351 5332 291 5316 256L5348 408C5352 425 5354 438 5354 450C5354 470 5346 482 5331 482C5310 482 5272 461 5198 408L5170 388L5177 368L5209 389C5237 407 5248 412 5257 412C5267 412 5274 403 5274 390C5274 332 5231 126 5191 -2L5201 -9C5216 -4 5232 -1 5255 4L5268 6L5294 126C5312 209 5335 262 5379 319C5413 363 5440 384 5462 384C5477 384 5487 379 5498 365ZM5860 111L5836 94C5783 56 5735 36 5699 36C5652 36 5623 73 5623 133C5623 158 5626 185 5631 214C5648 218 5757 248 5782 259C5867 296 5906 342 5906 404C5906 451 5872 482 5822 482C5754 496 5644 423 5607 349C5577 299 5547 180 5547 113C5547 35 5591 -11 5663 -11C5720 -11 5776 17 5868 92ZM5645 274C5662 343 5682 386 5711 412C5729 428 5760 440 5784 440C5813 440 5832 420 5832 388C5832 344 5797 297 5745 272C5717 258 5681 247 5636 237ZM6511 330L6534 330C6542 395 6549 432 6558 458C6534 473 6499 482 6462 482C6417 483 6344 463 6287 400C6233 352 6194 241 6194 136C6194 40 6236 -11 6316 -11C6370 -11 6418 9 6473 54L6523 95L6515 115L6500 105C6428 57 6390 40 6355 40C6299 40 6270 80 6270 159C6270 267 6305 371 6354 409C6375 425 6399 433 6430 433C6475 433 6511 414 6511 390ZM7067 473L7060 482L6992 465L6982 414C6967 336 6942 268 6911 221C6852 130 6774 59 6734 59C6726 59 6721 68 6721 85C6721 99 6723 112 6728 137L6785 408C6788 424 6790 438 6790 451C6790 470 6781 482 6767 482C6747 482 6709 461 6635 408L6607 388L6614 368L6646 389C6674 407 6685 412 6694 412C6703 412 6711 403 6711 392C6711 388 6710 378 6709 374L6646 77C6644 68 6642 44 6642 30C6642 7 6657 -11 6677 -11C6740 -11 6861 101 6945 239L6908 97C6901 73 6897 46 6897 31C6897 6 6908 -9 6927 -9C6953 -9 6989 12 7087 85L7077 103L7051 86C7027 70 7001 59 6990 59C6982 59 6977 66 6977 76C6977 112 7052 416 7067 473ZM7458 111L7434 94C7381 56 7333 36 7297 36C7250 36 7221 73 7221 133C7221 158 7224 185 7229 214C7246 218 7355 248 7380 259C7465 296 7504 342 7504 404C7504 451 7470 482 7420 482C7352 496 7242 423 7205 349C7175 299 7145 180 7145 113C7145 35 7189 -11 7261 -11C7318 -11 7374 17 7466 92ZM7243 274C7260 343 7280 386 7309 412C7327 428 7358 440 7382 440C7411 440 7430 420 7430 388C7430 344 7395 297 7343 272C7315 258 7279 247 7234 237ZM7886 365C7889 403 7894 435 7902 476C7891 481 7887 482 7882 482C7851 482 7820 458 7784 407C7745 351 7706 291 7690 256L7722 408C7726 425 7728 438 7728 450C7728 470 7720 482 7705 482C7684 482 7646 461 7572 408L7544 388L7551 368L7583 389C7611 407 7622 412 7631 412C7641 412 7648 403 7648 390C7648 332 7605 126 7565 -2L7575 -9C7590 -4 7606 -1 7629 4L7642 6L7668 126C7686 209 7709 262 7753 319C7787 363 7814 384 7836 384C7851 384 7861 379 7872 365ZM8082 -11C8138 -11 8253 62 8296 125C8337 186 8371 296 8371 371C8371 438 8348 482 8312 482C8270 482 8217 456 8165 409C8124 374 8104 348 8068 289L8092 408C8095 425 8097 440 8097 452C8097 471 8089 482 8075 482C8054 482 8016 461 7942 408L7914 388L7921 368L7953 389C7981 407 7992 412 8001 412C8011 412 8018 403 8018 389C8018 381 8016 361 8014 351L7956 8C7946 -52 7927 -143 7907 -233L7899 -270L7906 -276C7927 -269 7947 -264 7979 -259L8021 3C8042 -4 8064 -11 8082 -11ZM8049 165C8071 293 8178 424 8261 424C8287 424 8299 402 8299 356C8299 275 8259 156 8206 80C8186 51 8154 36 8113 36C8082 36 8057 43 8031 59ZM8422 152C8422 46 8467 -11 8550 -11C8605 -11 8665 15 8710 57C8772 116 8816 230 8816 331C8816 425 8766 482 8683 482C8579 482 8422 382 8422 152ZM8646 444C8707 444 8740 399 8740 315C8740 219 8709 113 8665 60C8647 39 8621 27 8590 27C8532 27 8498 72 8498 151C8498 264 8537 387 8586 427C8599 438 8622 444 8646 444ZM8879 148C8874 97 8868 62 8857 16C8895 -2 8929 -11 8964 -11C9013 -11 9059 7 9110 47C9161 87 9182 124 9182 174C9182 228 9150 257 9076 271L9033 279C8973 290 8954 307 8954 348C8954 401 8999 442 9056 442C9097 442 9135 424 9151 397L9151 342L9174 342C9178 377 9182 404 9193 455C9154 474 9126 482 9093 482C9041 482 8980 452 8932 404C8906 377 8895 352 8895 316C8895 260 8926 228 8992 215L9055 203C9099 195 9115 177 9115 138C9115 73 9069 29 8998 29C8963 29 8932 40 8904 64L8904 148Z" stroke="rgb(0,0,0)" stroke-opacity="1" stroke-width="8" fill="rgb(0,0,0)" fill-opacity="1"></path></g></g></g><g></g></g></svg>