<svg xmlns="http://www.w3.org/2000/svg" xmlns:xlink="http://www.w3.org/1999/xlink" width="245.48501586914062" height="111.5050048828125" style="width:245.48501586914062px;height:111.5050048828125px;font-family:Asana-Math, Asana;background:#FFF;"><g><g><g><g transform="matrix(1,0,0,1,2,30.970001220703125)"><path transform="matrix(0.017,0,0,-0.017,0,0)" d="" stroke="rgb(0,0,0)" stroke-opacity="1" stroke-width="8" fill="rgb(0,0,0)" fill-opacity="1"></path></g></g><g><g><g><g><g transform="matrix(1,0,0,1,96.78500366210938,18.80500030517578)"><path transform="matrix(0.017,0,0,-0.017,0,0)" d="M390 646L463 646C541 646 577 641 580 629C583 621 585 602 584 592L580 528L608 528L635 692L544 691C456 690 388 689 353 689C316 689 252 690 166 691L71 692L53 528L82 528L97 588C102 610 109 626 115 633C121 640 159 646 196 646L308 646L222 125C206 34 204 31 164 28L113 25L109 -3L166 -2C206 -1 235 0 251 0C270 0 301 -1 340 -2L384 -3L387 25L328 28C302 29 292 37 292 58C292 67 293 74 296 93Z" stroke="rgb(0,0,0)" stroke-opacity="1" stroke-width="8" fill="rgb(0,0,0)" fill-opacity="1"></path></g></g><g><g><g><g><g transform="matrix(1,0,0,1,108.1400146484375,13.9)"><path transform="matrix(0.0119,0,0,-0.0119,0,0)" d="M16 23L16 -3C203 -3 203 0 239 0C275 0 275 -3 468 -3L468 82C353 77 307 81 122 77L304 270C401 373 431 428 431 503C431 618 353 689 226 689C154 689 105 669 56 619L39 483L68 483L81 529C97 587 133 612 200 612C286 612 341 558 341 473C341 398 299 324 186 204Z" stroke="rgb(0,0,0)" stroke-opacity="1" stroke-width="8" fill="rgb(0,0,0)" fill-opacity="1"></path></g></g></g></g></g></g></g><g><g><g><g transform="matrix(1,0,0,1,98.67501831054688,44.905006408691406)"><path transform="matrix(0.017,0,0,-0.017,0,0)" d="M368 365C371 403 376 435 384 476C373 481 369 482 364 482C333 482 302 458 266 407C227 351 188 291 172 256L204 408C208 425 210 438 210 450C210 470 202 482 187 482C166 482 128 461 54 408L26 388L33 368L65 389C93 407 104 412 113 412C123 412 130 403 130 390C130 332 87 126 47 -2L57 -9C72 -4 88 -1 111 4L124 6L150 126C168 209 191 262 235 319C269 363 296 384 318 384C333 384 343 379 354 365Z" stroke="rgb(0,0,0)" stroke-opacity="1" stroke-width="8" fill="rgb(0,0,0)" fill-opacity="1"></path></g></g><g><g><g><g><g transform="matrix(1,0,0,1,106.25,40.000006103515624)"><path transform="matrix(0.0119,0,0,-0.0119,0,0)" d="M462 224C462 345 355 366 308 374C388 436 418 482 418 541C418 630 344 689 233 689C165 689 120 670 72 622L43 498L74 498L92 554C103 588 166 622 218 622C283 622 336 569 336 506C336 431 277 368 206 368C198 368 187 369 174 370L159 371L147 318L154 312C192 329 211 334 238 334C321 334 369 281 369 190C369 88 308 21 215 21C169 21 128 36 98 64C74 86 61 109 42 163L15 153C36 92 44 56 50 6C103 -12 147 -20 184 -20C307 -20 462 87 462 224Z" stroke="rgb(0,0,0)" stroke-opacity="1" stroke-width="8" fill="rgb(0,0,0)" fill-opacity="1"></path></g></g></g></g></g></g></g><line style="fill:none;stroke-width:0.99px;stroke:rgb(0, 0, 0);" x1="96.78500366210938" y1="27.005007028579712" x2="115.10000419616699" y2="27.005007028579712"></line></g><g><g transform="matrix(1,0,0,1,121.89501953125,30.970001220703125)"><path transform="matrix(0.017,0,0,-0.017,0,0)" d="M604 347L604 406L65 406L65 347ZM604 134L604 193L65 193L65 134Z" stroke="rgb(0,0,0)" stroke-opacity="1" stroke-width="8" fill="rgb(0,0,0)" fill-opacity="1"></path></g></g><g><g transform="matrix(1,0,0,1,138.35000610351562,30.970001220703125)"><path transform="matrix(0.017,0,0,-0.017,0,0)" d="M240 722L228 733C176 707 140 698 68 691L64 670L112 670C136 670 146 663 146 646C146 638 145 629 144 622L96 354C82 279 66 210 14 1L23 -9L90 8L113 132C122 180 146 225 180 259C249 59 281 -9 306 -9C319 -9 343 4 387 35L433 67L425 86L382 62C368 54 361 52 353 52C343 52 336 58 327 75C292 139 270 193 231 316L245 330C306 391 352 416 402 416C410 416 421 414 438 410L455 473C437 479 419 482 407 482C341 482 258 405 133 230Z" stroke="rgb(0,0,0)" stroke-opacity="1" stroke-width="8" fill="rgb(0,0,0)" fill-opacity="1"></path></g></g></g><g></g><g><g><g transform="matrix(1,0,0,1,2,85.2249984741211)"><path transform="matrix(0.017,0,0,-0.017,0,0)" d="M390 646L463 646C541 646 577 641 580 629C583 621 585 602 584 592L580 528L608 528L635 692L544 691C456 690 388 689 353 689C316 689 252 690 166 691L71 692L53 528L82 528L97 588C102 610 109 626 115 633C121 640 159 646 196 646L308 646L222 125C206 34 204 31 164 28L113 25L109 -3L166 -2C206 -1 235 0 251 0C270 0 301 -1 340 -2L384 -3L387 25L328 28C302 29 292 37 292 58C292 67 293 74 296 93Z" stroke="rgb(0,0,0)" stroke-opacity="1" stroke-width="8" fill="rgb(0,0,0)" fill-opacity="1"></path></g></g><g><g transform="matrix(1,0,0,1,15.770004272460938,85.2249984741211)"><path transform="matrix(0.017,0,0,-0.017,0,0)" d="M123 111C93 111 66 83 66 53C66 23 93 -5 122 -5C154 -5 182 22 182 53C182 83 154 111 123 111ZM123 456C93 456 66 428 66 398C66 368 93 340 122 340C154 340 182 367 182 397C182 428 154 456 123 456Z" stroke="rgb(0,0,0)" stroke-opacity="1" stroke-width="8" fill="rgb(0,0,0)" fill-opacity="1"></path></g></g><g><g transform="matrix(1,0,0,1,23.404998779296875,85.2249984741211)"><path transform="matrix(0.017,0,0,-0.017,0,0)" d="M176 -11C232 -11 347 62 390 125C431 186 465 296 465 371C465 438 442 482 406 482C364 482 311 456 259 409C218 374 198 348 162 289L186 408C189 425 191 440 191 452C191 471 183 482 169 482C148 482 110 461 36 408L8 388L15 368L47 389C75 407 86 412 95 412C105 412 112 403 112 389C112 381 110 361 108 351L50 8C40 -52 21 -143 1 -233L-7 -270L0 -276C21 -269 41 -264 73 -259L115 3C136 -4 158 -11 176 -11ZM143 165C165 293 272 424 355 424C381 424 393 402 393 356C393 275 353 156 300 80C280 51 248 36 207 36C176 36 151 43 125 59ZM827 111L803 94C750 56 702 36 666 36C619 36 590 73 590 133C590 158 593 185 598 214C615 218 724 248 749 259C834 296 873 342 873 404C873 451 839 482 789 482C721 496 611 423 574 349C544 299 514 180 514 113C514 35 558 -11 630 -11C687 -11 743 17 835 92ZM612 274C629 343 649 386 678 412C696 428 727 440 751 440C780 440 799 420 799 388C799 344 764 297 712 272C684 258 648 247 603 237ZM1255 365C1258 403 1263 435 1271 476C1260 481 1256 482 1251 482C1220 482 1189 458 1153 407C1114 351 1075 291 1059 256L1091 408C1095 425 1097 438 1097 450C1097 470 1089 482 1074 482C1053 482 1015 461 941 408L913 388L920 368L952 389C980 407 991 412 1000 412C1010 412 1017 403 1017 390C1017 332 974 126 934 -2L944 -9C959 -4 975 -1 998 4L1011 6L1037 126C1055 209 1078 262 1122 319C1156 363 1183 384 1205 384C1220 384 1230 379 1241 365ZM1309 388L1316 368L1348 389C1385 412 1388 414 1395 414C1405 414 1413 404 1413 391C1413 384 1409 361 1405 347L1339 107C1331 76 1326 49 1326 30C1326 6 1337 -9 1356 -9C1382 -9 1418 12 1516 85L1506 103L1480 86C1451 67 1428 56 1419 56C1412 56 1406 66 1406 76C1406 86 1408 95 1413 116L1490 420C1494 437 1496 448 1496 456C1496 473 1487 482 1471 482C1449 482 1412 461 1337 408ZM1503 712C1474 712 1445 679 1445 645C1445 620 1460 604 1484 604C1515 604 1539 633 1539 671C1539 695 1524 712 1503 712ZM1569 152C1569 46 1614 -11 1697 -11C1752 -11 1812 15 1857 57C1919 116 1963 230 1963 331C1963 425 1913 482 1830 482C1726 482 1569 382 1569 152ZM1793 444C1854 444 1887 399 1887 315C1887 219 1856 113 1812 60C1794 39 1768 27 1737 27C1679 27 1645 72 1645 151C1645 264 1684 387 1733 427C1746 438 1769 444 1793 444ZM2478 722L2466 733C2414 707 2378 698 2306 691L2302 670L2350 670C2374 670 2384 663 2384 646C2384 638 2383 629 2382 622L2354 468C2324 477 2297 482 2272 482C2203 482 2109 410 2063 323C2032 265 2012 170 2012 86C2012 21 2027 -11 2056 -11C2083 -11 2120 6 2154 33C2208 77 2241 116 2308 217L2285 126C2274 82 2269 50 2269 24C2269 3 2278 -9 2295 -9C2312 -9 2336 3 2370 28L2451 88L2441 107L2397 76C2383 66 2367 59 2358 59C2350 59 2344 68 2344 82C2344 90 2345 99 2352 128ZM2109 59C2093 59 2084 73 2084 98C2084 224 2130 380 2179 418C2192 428 2211 433 2238 433C2282 433 2311 427 2344 410L2332 351C2295 171 2154 59 2109 59ZM2511 152C2511 46 2556 -11 2639 -11C2694 -11 2754 15 2799 57C2861 116 2905 230 2905 331C2905 425 2855 482 2772 482C2668 482 2511 382 2511 152ZM2735 444C2796 444 2829 399 2829 315C2829 219 2798 113 2754 60C2736 39 2710 27 2679 27C2621 27 2587 72 2587 151C2587 264 2626 387 2675 427C2688 438 2711 444 2735 444ZM3669 722L3657 733C3605 707 3569 698 3497 691L3493 670L3541 670C3565 670 3575 663 3575 646C3575 638 3574 629 3573 622L3545 468C3515 477 3488 482 3463 482C3394 482 3300 410 3254 323C3223 265 3203 170 3203 86C3203 21 3218 -11 3247 -11C3274 -11 3311 6 3345 33C3399 77 3432 116 3499 217L3476 126C3465 82 3460 50 3460 24C3460 3 3469 -9 3486 -9C3503 -9 3527 3 3561 28L3642 88L3632 107L3588 76C3574 66 3558 59 3549 59C3541 59 3535 68 3535 82C3535 90 3536 99 3543 128ZM3300 59C3284 59 3275 73 3275 98C3275 224 3321 380 3370 418C3383 428 3402 433 3429 433C3473 433 3502 427 3535 410L3523 351C3486 171 3345 59 3300 59ZM4013 111L3989 94C3936 56 3888 36 3852 36C3805 36 3776 73 3776 133C3776 158 3779 185 3784 214C3801 218 3910 248 3935 259C4020 296 4059 342 4059 404C4059 451 4025 482 3975 482C3907 496 3797 423 3760 349C3730 299 3700 180 3700 113C3700 35 3744 -11 3816 -11C3873 -11 3929 17 4021 92ZM3798 274C3815 343 3835 386 3864 412C3882 428 3913 440 3937 440C3966 440 3985 420 3985 388C3985 344 3950 297 3898 272C3870 258 3834 247 3789 237ZM4339 152C4339 46 4384 -11 4467 -11C4522 -11 4582 15 4627 57C4689 116 4733 230 4733 331C4733 425 4683 482 4600 482C4496 482 4339 382 4339 152ZM4563 444C4624 444 4657 399 4657 315C4657 219 4626 113 4582 60C4564 39 4538 27 4507 27C4449 27 4415 72 4415 151C4415 264 4454 387 4503 427C4516 438 4539 444 4563 444ZM5133 365C5136 403 5141 435 5149 476C5138 481 5134 482 5129 482C5098 482 5067 458 5031 407C4992 351 4953 291 4937 256L4969 408C4973 425 4975 438 4975 450C4975 470 4967 482 4952 482C4931 482 4893 461 4819 408L4791 388L4798 368L4830 389C4858 407 4869 412 4878 412C4888 412 4895 403 4895 390C4895 332 4852 126 4812 -2L4822 -9C4837 -4 4853 -1 4876 4L4889 6L4915 126C4933 209 4956 262 5000 319C5034 363 5061 384 5083 384C5098 384 5108 379 5119 365ZM5388 722L5376 733C5324 707 5288 698 5216 691L5212 670L5260 670C5284 670 5294 663 5294 646C5294 639 5293 628 5292 622L5191 71C5190 68 5190 64 5190 61C5190 22 5238 -11 5293 -11C5330 -11 5381 8 5424 39C5520 107 5586 244 5586 376C5586 414 5577 453 5565 468C5558 477 5545 482 5530 482C5506 482 5476 474 5448 460C5397 433 5364 403 5302 324ZM5475 424C5501 424 5514 401 5514 352C5514 288 5493 202 5463 137C5430 68 5390 36 5336 36C5290 36 5265 59 5265 101C5265 135 5280 276 5361 361C5394 395 5446 424 5475 424ZM5649 388L5656 368L5688 389C5725 412 5728 414 5735 414C5745 414 5753 404 5753 391C5753 384 5749 361 5745 347L5679 107C5671 76 5666 49 5666 30C5666 6 5677 -9 5696 -9C5722 -9 5758 12 5856 85L5846 103L5820 86C5791 67 5768 56 5759 56C5752 56 5746 66 5746 76C5746 86 5748 95 5753 116L5830 420C5834 437 5836 448 5836 456C5836 473 5827 482 5811 482C5789 482 5752 461 5677 408ZM5843 712C5814 712 5785 679 5785 645C5785 620 5800 604 5824 604C5855 604 5879 633 5879 671C5879 695 5864 712 5843 712ZM6017 390L5961 107C5960 99 5948 61 5948 31C5948 6 5959 -9 5978 -9C6013 -9 6048 11 6126 74L6157 99L6147 117L6102 86C6073 66 6053 56 6042 56C6033 56 6028 64 6028 76C6028 102 6042 183 6071 328L6084 390L6191 390L6202 440C6164 436 6130 434 6092 434C6108 528 6119 577 6137 631L6126 646C6106 634 6079 622 6048 610L6023 440C5979 419 5953 408 5935 403L5933 390ZM6495 204L6466 77C6462 60 6460 42 6460 26C6460 4 6469 -9 6484 -9C6507 -9 6548 17 6630 85L6623 106C6599 86 6570 59 6548 59C6539 59 6533 68 6533 82C6533 87 6533 90 6534 93L6626 472L6616 481L6583 463C6542 478 6525 482 6498 482C6470 482 6450 477 6423 464C6361 433 6328 403 6303 354C6259 265 6228 145 6228 67C6228 23 6243 -11 6262 -11C6299 -11 6379 41 6495 204ZM6543 414C6521 305 6502 253 6468 201C6411 117 6350 59 6318 59C6306 59 6300 72 6300 99C6300 163 6328 280 6363 360C6387 415 6410 433 6458 433C6481 433 6499 429 6543 414Z" stroke="rgb(0,0,0)" stroke-opacity="1" stroke-width="8" fill="rgb(0,0,0)" fill-opacity="1"></path></g></g></g><g><g><g transform="matrix(1,0,0,1,2,105.38500213623047)"><path transform="matrix(0.017,0,0,-0.017,0,0)" d="M368 365C371 403 376 435 384 476C373 481 369 482 364 482C333 482 302 458 266 407C227 351 188 291 172 256L204 408C208 425 210 438 210 450C210 470 202 482 187 482C166 482 128 461 54 408L26 388L33 368L65 389C93 407 104 412 113 412C123 412 130 403 130 390C130 332 87 126 47 -2L57 -9C72 -4 88 -1 111 4L124 6L150 126C168 209 191 262 235 319C269 363 296 384 318 384C333 384 343 379 354 365Z" stroke="rgb(0,0,0)" stroke-opacity="1" stroke-width="8" fill="rgb(0,0,0)" fill-opacity="1"></path></g></g><g><g transform="matrix(1,0,0,1,11.990005493164062,105.38500213623047)"><path transform="matrix(0.017,0,0,-0.017,0,0)" d="M123 111C93 111 66 83 66 53C66 23 93 -5 122 -5C154 -5 182 22 182 53C182 83 154 111 123 111ZM123 456C93 456 66 428 66 398C66 368 93 340 122 340C154 340 182 367 182 397C182 428 154 456 123 456Z" stroke="rgb(0,0,0)" stroke-opacity="1" stroke-width="8" fill="rgb(0,0,0)" fill-opacity="1"></path></g></g><g><g transform="matrix(1,0,0,1,19.625,105.38500213623047)"><path transform="matrix(0.017,0,0,-0.017,0,0)" d="M31 148C26 97 20 62 9 16C47 -2 81 -11 116 -11C165 -11 211 7 262 47C313 87 334 124 334 174C334 228 302 257 228 271L185 279C125 290 106 307 106 348C106 401 151 442 208 442C249 442 287 424 303 397L303 342L326 342C330 377 334 404 345 455C306 474 278 482 245 482C193 482 132 452 84 404C58 377 47 352 47 316C47 260 78 228 144 215L207 203C251 195 267 177 267 138C267 73 221 29 150 29C115 29 84 40 56 64L56 148ZM716 111L692 94C639 56 591 36 555 36C508 36 479 73 479 133C479 158 482 185 487 214C504 218 613 248 638 259C723 296 762 342 762 404C762 451 728 482 678 482C610 496 500 423 463 349C433 299 403 180 403 113C403 35 447 -11 519 -11C576 -11 632 17 724 92ZM501 274C518 343 538 386 567 412C585 428 616 440 640 440C669 440 688 420 688 388C688 344 653 297 601 272C573 258 537 247 492 237ZM1506 103L1480 86C1451 67 1429 56 1419 56C1412 56 1406 65 1406 76C1406 86 1408 95 1413 116L1488 413C1492 430 1495 446 1495 454C1495 471 1485 482 1469 482C1440 482 1402 464 1341 421C1278 376 1243 341 1194 272L1224 409C1228 429 1231 444 1231 451C1231 470 1221 482 1205 482C1175 482 1129 460 1074 418C1030 384 1010 363 945 275L978 408C982 424 984 439 984 451C984 470 975 482 961 482C940 482 902 461 828 408L800 388L807 368C844 391 879 414 886 414C897 414 904 404 904 389C904 338 863 145 822 2L825 -9L893 6L915 108C939 219 966 278 1021 338C1063 384 1108 414 1136 414C1143 414 1147 406 1147 393C1147 358 1125 244 1084 69L1068 2L1073 -9L1142 6L1163 113C1179 194 1213 269 1257 318C1312 379 1362 414 1394 414C1402 414 1407 405 1407 389C1407 365 1404 351 1382 264C1342 105 1326 84 1326 31C1326 6 1337 -9 1356 -9C1382 -9 1418 12 1516 85ZM1587 388L1594 368L1626 389C1663 412 1666 414 1673 414C1683 414 1691 404 1691 391C1691 384 1687 361 1683 347L1617 107C1609 76 1604 49 1604 30C1604 6 1615 -9 1634 -9C1660 -9 1696 12 1794 85L1784 103L1758 86C1729 67 1706 56 1697 56C1690 56 1684 66 1684 76C1684 86 1686 95 1691 116L1768 420C1772 437 1774 448 1774 456C1774 473 1765 482 1749 482C1727 482 1690 461 1615 408ZM1781 712C1752 712 1723 679 1723 645C1723 620 1738 604 1762 604C1793 604 1817 633 1817 671C1817 695 1802 712 1781 712ZM2158 111L2134 94C2081 56 2033 36 1997 36C1950 36 1921 73 1921 133C1921 158 1924 185 1929 214C1946 218 2055 248 2080 259C2165 296 2204 342 2204 404C2204 451 2170 482 2120 482C2052 496 1942 423 1905 349C1875 299 1845 180 1845 113C1845 35 1889 -11 1961 -11C2018 -11 2074 17 2166 92ZM1943 274C1960 343 1980 386 2009 412C2027 428 2058 440 2082 440C2111 440 2130 420 2130 388C2130 344 2095 297 2043 272C2015 258 1979 247 1934 237ZM2412 351L2312 -144C2301 -196 2283 -231 2265 -231C2251 -231 2233 -225 2212 -212L2204 -269C2214 -274 2227 -276 2242 -276C2282 -276 2322 -233 2358 -152C2378 -107 2392 -57 2420 70L2496 420C2500 438 2502 451 2502 457C2502 473 2493 482 2477 482C2455 482 2418 461 2343 408L2315 388L2322 368L2354 389C2391 412 2394 414 2401 414C2411 414 2419 404 2419 391C2419 382 2412 356 2412 351ZM2503 712C2474 712 2445 679 2445 645C2445 620 2460 604 2484 604C2515 604 2539 633 2539 671C2539 695 2524 712 2503 712ZM2873 111L2849 94C2796 56 2748 36 2712 36C2665 36 2636 73 2636 133C2636 158 2639 185 2644 214C2661 218 2770 248 2795 259C2880 296 2919 342 2919 404C2919 451 2885 482 2835 482C2767 496 2657 423 2620 349C2590 299 2560 180 2560 113C2560 35 2604 -11 2676 -11C2733 -11 2789 17 2881 92ZM2658 274C2675 343 2695 386 2724 412C2742 428 2773 440 2797 440C2826 440 2845 420 2845 388C2845 344 2810 297 2758 272C2730 258 2694 247 2649 237ZM3912 103L3886 86C3857 67 3835 56 3825 56C3818 56 3812 65 3812 76C3812 86 3814 95 3819 116L3894 413C3898 430 3901 446 3901 454C3901 471 3891 482 3875 482C3846 482 3808 464 3747 421C3684 376 3649 341 3600 272L3630 409C3634 429 3637 444 3637 451C3637 470 3627 482 3611 482C3581 482 3535 460 3480 418C3436 384 3416 363 3351 275L3384 408C3388 424 3390 439 3390 451C3390 470 3381 482 3367 482C3346 482 3308 461 3234 408L3206 388L3213 368C3250 391 3285 414 3292 414C3303 414 3310 404 3310 389C3310 338 3269 145 3228 2L3231 -9L3299 6L3321 108C3345 219 3372 278 3427 338C3469 384 3514 414 3542 414C3549 414 3553 406 3553 393C3553 358 3531 244 3490 69L3474 2L3479 -9L3548 6L3569 113C3585 194 3619 269 3663 318C3718 379 3768 414 3800 414C3808 414 3813 405 3813 389C3813 365 3810 351 3788 264C3748 105 3732 84 3732 31C3732 6 3743 -9 3762 -9C3788 -9 3824 12 3922 85ZM4230 204L4201 77C4197 60 4195 42 4195 26C4195 4 4204 -9 4219 -9C4242 -9 4283 17 4365 85L4358 106C4334 86 4305 59 4283 59C4274 59 4268 68 4268 82C4268 87 4268 90 4269 93L4361 472L4351 481L4318 463C4277 478 4260 482 4233 482C4205 482 4185 477 4158 464C4096 433 4063 403 4038 354C3994 265 3963 145 3963 67C3963 23 3978 -11 3997 -11C4034 -11 4114 41 4230 204ZM4278 414C4256 305 4237 253 4203 201C4146 117 4085 59 4053 59C4041 59 4035 72 4035 99C4035 163 4063 280 4098 360C4122 415 4145 433 4193 433C4216 433 4234 429 4278 414ZM4395 -180C4394 -187 4394 -193 4394 -198C4394 -241 4431 -276 4476 -276C4582 -276 4692 -152 4751 33L4892 473L4881 482C4852 471 4829 465 4807 463L4772 331C4760 284 4725 211 4692 162C4657 111 4608 67 4586 67C4574 67 4565 90 4566 115L4582 322C4584 353 4586 391 4586 419C4586 464 4579 482 4562 482C4549 482 4535 475 4487 442L4405 386L4416 368L4466 398C4471 401 4482 410 4491 410C4505 410 4513 391 4513 358C4513 357 4513 351 4512 343L4495 100L4494 60C4494 18 4512 -11 4537 -11C4574 -11 4658 74 4733 187L4684 16C4633 -161 4583 -234 4513 -234C4478 -234 4451 -207 4451 -172C4451 -167 4452 -159 4453 -150L4443 -146ZM4918 152C4918 46 4963 -11 5046 -11C5101 -11 5161 15 5206 57C5268 116 5312 230 5312 331C5312 425 5262 482 5179 482C5075 482 4918 382 4918 152ZM5142 444C5203 444 5236 399 5236 315C5236 219 5205 113 5161 60C5143 39 5117 27 5086 27C5028 27 4994 72 4994 151C4994 264 5033 387 5082 427C5095 438 5118 444 5142 444ZM5712 365C5715 403 5720 435 5728 476C5717 481 5713 482 5708 482C5677 482 5646 458 5610 407C5571 351 5532 291 5516 256L5548 408C5552 425 5554 438 5554 450C5554 470 5546 482 5531 482C5510 482 5472 461 5398 408L5370 388L5377 368L5409 389C5437 407 5448 412 5457 412C5467 412 5474 403 5474 390C5474 332 5431 126 5391 -2L5401 -9C5416 -4 5432 -1 5455 4L5468 6L5494 126C5512 209 5535 262 5579 319C5613 363 5640 384 5662 384C5677 384 5687 379 5698 365ZM6464 722L6452 733C6400 707 6364 698 6292 691L6288 670L6336 670C6360 670 6370 663 6370 646C6370 638 6369 629 6368 622L6340 468C6310 477 6283 482 6258 482C6189 482 6095 410 6049 323C6018 265 5998 170 5998 86C5998 21 6013 -11 6042 -11C6069 -11 6106 6 6140 33C6194 77 6227 116 6294 217L6271 126C6260 82 6255 50 6255 24C6255 3 6264 -9 6281 -9C6298 -9 6322 3 6356 28L6437 88L6427 107L6383 76C6369 66 6353 59 6344 59C6336 59 6330 68 6330 82C6330 90 6331 99 6338 128ZM6095 59C6079 59 6070 73 6070 98C6070 224 6116 380 6165 418C6178 428 6197 433 6224 433C6268 433 6297 427 6330 410L6318 351C6281 171 6140 59 6095 59ZM6808 111L6784 94C6731 56 6683 36 6647 36C6600 36 6571 73 6571 133C6571 158 6574 185 6579 214C6596 218 6705 248 6730 259C6815 296 6854 342 6854 404C6854 451 6820 482 6770 482C6702 496 6592 423 6555 349C6525 299 6495 180 6495 113C6495 35 6539 -11 6611 -11C6668 -11 6724 17 6816 92ZM6593 274C6610 343 6630 386 6659 412C6677 428 6708 440 6732 440C6761 440 6780 420 6780 388C6780 344 6745 297 6693 272C6665 258 6629 247 6584 237ZM7368 722L7356 733C7304 707 7268 698 7196 691L7192 670L7240 670C7264 670 7274 663 7274 648C7274 645 7274 640 7271 622C7260 567 7187 182 7172 132C7159 82 7153 52 7153 31C7153 6 7164 -9 7183 -9C7209 -9 7245 12 7343 85L7333 103L7307 86C7278 67 7256 56 7246 56C7239 56 7233 66 7233 76C7233 82 7234 89 7237 104ZM7665 204L7636 77C7632 60 7630 42 7630 26C7630 4 7639 -9 7654 -9C7677 -9 7718 17 7800 85L7793 106C7769 86 7740 59 7718 59C7709 59 7703 68 7703 82C7703 87 7703 90 7704 93L7796 472L7786 481L7753 463C7712 478 7695 482 7668 482C7640 482 7620 477 7593 464C7531 433 7498 403 7473 354C7429 265 7398 145 7398 67C7398 23 7413 -11 7432 -11C7469 -11 7549 41 7665 204ZM7713 414C7691 305 7672 253 7638 201C7581 117 7520 59 7488 59C7476 59 7470 72 7470 99C7470 163 7498 280 7533 360C7557 415 7580 433 7628 433C7651 433 7669 429 7713 414ZM8414 111L8390 94C8337 56 8289 36 8253 36C8206 36 8177 73 8177 133C8177 158 8180 185 8185 214C8202 218 8311 248 8336 259C8421 296 8460 342 8460 404C8460 451 8426 482 8376 482C8308 496 8198 423 8161 349C8131 299 8101 180 8101 113C8101 35 8145 -11 8217 -11C8274 -11 8330 17 8422 92ZM8199 274C8216 343 8236 386 8265 412C8283 428 8314 440 8338 440C8367 440 8386 420 8386 388C8386 344 8351 297 8299 272C8271 258 8235 247 8190 237ZM8725 722L8713 733C8661 707 8625 698 8553 691L8549 670L8597 670C8621 670 8631 663 8631 648C8631 645 8631 640 8628 622C8617 567 8544 182 8529 132C8516 82 8510 52 8510 31C8510 6 8521 -9 8540 -9C8566 -9 8602 12 8700 85L8690 103L8664 86C8635 67 8613 56 8603 56C8596 56 8590 66 8590 76C8590 82 8591 89 8594 104ZM8785 388L8792 368L8824 389C8861 412 8864 414 8871 414C8881 414 8889 404 8889 391C8889 384 8885 361 8881 347L8815 107C8807 76 8802 49 8802 30C8802 6 8813 -9 8832 -9C8858 -9 8894 12 8992 85L8982 103L8956 86C8927 67 8904 56 8895 56C8888 56 8882 66 8882 76C8882 86 8884 95 8889 116L8966 420C8970 437 8972 448 8972 456C8972 473 8963 482 8947 482C8925 482 8888 461 8813 408ZM8979 712C8950 712 8921 679 8921 645C8921 620 8936 604 8960 604C8991 604 9015 633 9015 671C9015 695 9000 712 8979 712ZM9204 -11C9260 -11 9375 62 9418 125C9459 186 9493 296 9493 371C9493 438 9470 482 9434 482C9392 482 9339 456 9287 409C9246 374 9226 348 9190 289L9214 408C9217 425 9219 440 9219 452C9219 471 9211 482 9197 482C9176 482 9138 461 9064 408L9036 388L9043 368L9075 389C9103 407 9114 412 9123 412C9133 412 9140 403 9140 389C9140 381 9138 361 9136 351L9078 8C9068 -52 9049 -143 9029 -233L9021 -270L9028 -276C9049 -269 9069 -264 9101 -259L9143 3C9164 -4 9186 -11 9204 -11ZM9171 165C9193 293 9300 424 9383 424C9409 424 9421 402 9421 356C9421 275 9381 156 9328 80C9308 51 9276 36 9235 36C9204 36 9179 43 9153 59ZM9558 148C9553 97 9547 62 9536 16C9574 -2 9608 -11 9643 -11C9692 -11 9738 7 9789 47C9840 87 9861 124 9861 174C9861 228 9829 257 9755 271L9712 279C9652 290 9633 307 9633 348C9633 401 9678 442 9735 442C9776 442 9814 424 9830 397L9830 342L9853 342C9857 377 9861 404 9872 455C9833 474 9805 482 9772 482C9720 482 9659 452 9611 404C9585 377 9574 352 9574 316C9574 260 9605 228 9671 215L9734 203C9778 195 9794 177 9794 138C9794 73 9748 29 9677 29C9642 29 9611 40 9583 64L9583 148ZM10243 111L10219 94C10166 56 10118 36 10082 36C10035 36 10006 73 10006 133C10006 158 10009 185 10014 214C10031 218 10140 248 10165 259C10250 296 10289 342 10289 404C10289 451 10255 482 10205 482C10137 496 10027 423 9990 349C9960 299 9930 180 9930 113C9930 35 9974 -11 10046 -11C10103 -11 10159 17 10251 92ZM10028 274C10045 343 10065 386 10094 412C10112 428 10143 440 10167 440C10196 440 10215 420 10215 388C10215 344 10180 297 10128 272C10100 258 10064 247 10019 237ZM10569 152C10569 46 10614 -11 10697 -11C10752 -11 10812 15 10857 57C10919 116 10963 230 10963 331C10963 425 10913 482 10830 482C10726 482 10569 382 10569 152ZM10793 444C10854 444 10887 399 10887 315C10887 219 10856 113 10812 60C10794 39 10768 27 10737 27C10679 27 10645 72 10645 151C10645 264 10684 387 10733 427C10746 438 10769 444 10793 444ZM11363 365C11366 403 11371 435 11379 476C11368 481 11364 482 11359 482C11328 482 11297 458 11261 407C11222 351 11183 291 11167 256L11199 408C11203 425 11205 438 11205 450C11205 470 11197 482 11182 482C11161 482 11123 461 11049 408L11021 388L11028 368L11060 389C11088 407 11099 412 11108 412C11118 412 11125 403 11125 390C11125 332 11082 126 11042 -2L11052 -9C11067 -4 11083 -1 11106 4L11119 6L11145 126C11163 209 11186 262 11230 319C11264 363 11291 384 11313 384C11328 384 11338 379 11349 365ZM11618 722L11606 733C11554 707 11518 698 11446 691L11442 670L11490 670C11514 670 11524 663 11524 646C11524 639 11523 628 11522 622L11421 71C11420 68 11420 64 11420 61C11420 22 11468 -11 11523 -11C11560 -11 11611 8 11654 39C11750 107 11816 244 11816 376C11816 414 11807 453 11795 468C11788 477 11775 482 11760 482C11736 482 11706 474 11678 460C11627 433 11594 403 11532 324ZM11705 424C11731 424 11744 401 11744 352C11744 288 11723 202 11693 137C11660 68 11620 36 11566 36C11520 36 11495 59 11495 101C11495 135 11510 276 11591 361C11624 395 11676 424 11705 424ZM11879 388L11886 368L11918 389C11955 412 11958 414 11965 414C11975 414 11983 404 11983 391C11983 384 11979 361 11975 347L11909 107C11901 76 11896 49 11896 30C11896 6 11907 -9 11926 -9C11952 -9 11988 12 12086 85L12076 103L12050 86C12021 67 11998 56 11989 56C11982 56 11976 66 11976 76C11976 86 11978 95 11983 116L12060 420C12064 437 12066 448 12066 456C12066 473 12057 482 12041 482C12019 482 11982 461 11907 408ZM12073 712C12044 712 12015 679 12015 645C12015 620 12030 604 12054 604C12085 604 12109 633 12109 671C12109 695 12094 712 12073 712ZM12247 390L12191 107C12190 99 12178 61 12178 31C12178 6 12189 -9 12208 -9C12243 -9 12278 11 12356 74L12387 99L12377 117L12332 86C12303 66 12283 56 12272 56C12263 56 12258 64 12258 76C12258 102 12272 183 12301 328L12314 390L12421 390L12432 440C12394 436 12360 434 12322 434C12338 528 12349 577 12367 631L12356 646C12336 634 12309 622 12278 610L12253 440C12209 419 12183 408 12165 403L12163 390ZM12725 204L12696 77C12692 60 12690 42 12690 26C12690 4 12699 -9 12714 -9C12737 -9 12778 17 12860 85L12853 106C12829 86 12800 59 12778 59C12769 59 12763 68 12763 82C12763 87 12763 90 12764 93L12856 472L12846 481L12813 463C12772 478 12755 482 12728 482C12700 482 12680 477 12653 464C12591 433 12558 403 12533 354C12489 265 12458 145 12458 67C12458 23 12473 -11 12492 -11C12529 -11 12609 41 12725 204ZM12773 414C12751 305 12732 253 12698 201C12641 117 12580 59 12548 59C12536 59 12530 72 12530 99C12530 163 12558 280 12593 360C12617 415 12640 433 12688 433C12711 433 12729 429 12773 414ZM13148 722L13136 733C13084 707 13048 698 12976 691L12972 670L13020 670C13044 670 13054 663 13054 648C13054 645 13054 640 13051 622C13040 567 12967 182 12952 132C12939 82 12933 52 12933 31C12933 6 12944 -9 12963 -9C12989 -9 13025 12 13123 85L13113 103L13087 86C13058 67 13036 56 13026 56C13019 56 13013 66 13013 76C13013 82 13014 89 13017 104Z" stroke="rgb(0,0,0)" stroke-opacity="1" stroke-width="8" fill="rgb(0,0,0)" fill-opacity="1"></path></g></g></g></g></svg>