<svg xmlns="http://www.w3.org/2000/svg" xmlns:xlink="http://www.w3.org/1999/xlink" width="202.0625" height="106" style="width:202.0625px;height:106px;font-family:Asana-Math, Asana;background:#FFF;"><g><g><g><g transform="matrix(1,0,0,1,2,31)"><path transform="matrix(0.017,0,0,-0.017,0,0)" d="M4587 88C4572 77 4547 55 4526 55C4487 55 4455 188 4445 219C4411 326 4323 670 4306 689C4298 699 4289 702 4279 702C4242 702 4172 669 4142 656L4139 648C4142 643 4144 639 4150 637C4166 642 4195 653 4211 653C4263 653 4299 500 4310 460C4207 320 4136 161 4070 -2L4082 -16C4105 -5 4129 4 4153 13C4170 159 4244 308 4315 428L4323 425C4341 363 4426 12 4447 -6C4455 -13 4463 -16 4472 -16C4515 -16 4572 45 4599 74L4600 80C4596 83 4594 88 4587 88Z" stroke="rgb(0,0,0)" stroke-opacity="1" stroke-width="8" fill="rgb(0,0,0)" fill-opacity="1"></path></g></g><g><g transform="matrix(1,0,0,1,85.33746337890625,31)"><path transform="matrix(0.017,0,0,-0.017,0,0)" d="M604 347L604 406L65 406L65 347ZM604 134L604 193L65 193L65 134Z" stroke="rgb(0,0,0)" stroke-opacity="1" stroke-width="8" fill="rgb(0,0,0)" fill-opacity="1"></path></g></g><g><g><g><g><g transform="matrix(1,0,0,1,105.86248779296875,19)"><path transform="matrix(0.017,0,0,-0.017,0,0)" d="M251 722L239 733C187 707 151 698 79 691L75 670L123 670C147 670 157 663 157 648C157 645 157 640 154 622C143 567 70 182 55 132C42 82 36 52 36 31C36 6 47 -9 66 -9C92 -9 128 12 226 85L216 103L190 86C161 67 139 56 129 56C122 56 116 66 116 76C116 82 117 89 120 104Z" stroke="rgb(0,0,0)" stroke-opacity="1" stroke-width="8" fill="rgb(0,0,0)" fill-opacity="1"></path></g></g></g></g><g><g><g><g transform="matrix(1,0,0,1,103.5,44)"><path transform="matrix(0.017,0,0,-0.017,0,0)" d="M24 388L31 368L63 389C100 412 103 414 110 414C121 414 128 404 128 389C128 338 87 145 46 2L53 -9C78 -2 101 4 123 8C142 134 163 199 209 268C263 352 338 414 383 414C394 414 400 405 400 390C400 372 397 351 389 319L337 107C328 70 324 47 324 31C324 6 335 -9 354 -9C380 -9 416 12 514 85L504 103L478 86C449 67 427 56 417 56C410 56 404 65 404 76C404 81 405 92 406 96L472 372C479 401 483 429 483 446C483 469 472 482 452 482C410 482 341 444 282 389C244 354 216 320 164 247L202 408C206 426 208 438 208 449C208 470 200 482 185 482C164 482 125 460 52 408Z" stroke="rgb(0,0,0)" stroke-opacity="1" stroke-width="8" fill="rgb(0,0,0)" fill-opacity="1"></path></g></g></g></g><line style="fill:none;stroke-width:1px;stroke:rgb(0, 0, 0);" x1="103.5" y1="26.550003051757812" x2="112.9375" y2="26.550003051757812"></line></g></g><g></g><g><g><g transform="matrix(1,0,0,1,2,81)"><path transform="matrix(0.017,0,0,-0.017,0,0)" d="M251 722L239 733C187 707 151 698 79 691L75 670L123 670C147 670 157 663 157 648C157 645 157 640 154 622C143 567 70 182 55 132C42 82 36 52 36 31C36 6 47 -9 66 -9C92 -9 128 12 226 85L216 103L190 86C161 67 139 56 129 56C122 56 116 66 116 76C116 82 117 89 120 104Z" stroke="rgb(0,0,0)" stroke-opacity="1" stroke-width="8" fill="rgb(0,0,0)" fill-opacity="1"></path></g></g><g><g transform="matrix(1,0,0,1,10.11248779296875,81)"><path transform="matrix(0.017,0,0,-0.017,0,0)" d="M123 111C93 111 66 83 66 53C66 23 93 -5 122 -5C154 -5 182 22 182 53C182 83 154 111 123 111ZM123 456C93 456 66 428 66 398C66 368 93 340 122 340C154 340 182 367 182 397C182 428 154 456 123 456Z" stroke="rgb(0,0,0)" stroke-opacity="1" stroke-width="8" fill="rgb(0,0,0)" fill-opacity="1"></path></g></g><g><g transform="matrix(1,0,0,1,17.75,81)"><path transform="matrix(0.017,0,0,-0.017,0,0)" d="M500 722L488 733C436 707 400 698 328 691L324 670L372 670C396 670 406 663 406 648C406 645 406 640 403 622C392 567 319 182 304 132C291 82 285 52 285 31C285 6 296 -9 315 -9C341 -9 377 12 475 85L465 103L439 86C410 67 388 56 378 56C371 56 365 66 365 76C365 82 366 89 369 104ZM543 152C543 46 588 -11 671 -11C726 -11 786 15 831 57C893 116 937 230 937 331C937 425 887 482 804 482C700 482 543 382 543 152ZM767 444C828 444 861 399 861 315C861 219 830 113 786 60C768 39 742 27 711 27C653 27 619 72 619 151C619 264 658 387 707 427C720 438 743 444 767 444ZM993 388L1000 368L1032 389C1069 412 1072 414 1079 414C1090 414 1097 404 1097 389C1097 338 1056 145 1015 2L1022 -9C1047 -2 1070 4 1092 8C1111 134 1132 199 1178 268C1232 352 1307 414 1352 414C1363 414 1369 405 1369 390C1369 372 1366 351 1358 319L1306 107C1297 70 1293 47 1293 31C1293 6 1304 -9 1323 -9C1349 -9 1385 12 1483 85L1473 103L1447 86C1418 67 1396 56 1386 56C1379 56 1373 65 1373 76C1373 81 1374 92 1375 96L1441 372C1448 401 1452 429 1452 446C1452 469 1441 482 1421 482C1379 482 1310 444 1251 389C1213 354 1185 320 1133 247L1171 408C1175 426 1177 438 1177 449C1177 470 1169 482 1154 482C1133 482 1094 460 1021 408ZM1799 482C1732 482 1579 419 1579 259C1579 182 1624 136 1701 136C1709 136 1720 136 1731 137L1690 99C1674 84 1663 66 1663 52C1663 42 1670 31 1684 19C1615 -4 1487 -48 1487 -159C1487 -230 1557 -276 1666 -276C1795 -276 1908 -204 1908 -121C1908 -85 1887 -49 1844 -14L1784 35C1750 62 1737 81 1737 100C1737 114 1752 128 1764 146C1862 170 1933 253 1933 342C1933 357 1930 376 1929 380C1946 378 1954 378 1963 378C1980 378 1990 379 2013 382L2022 427L2019 433C1991 426 1971 424 1917 424C1917 425 1893 482 1799 482ZM1700 1L1777 -58C1823 -94 1842 -121 1842 -154C1842 -206 1773 -248 1690 -248C1608 -248 1551 -206 1551 -145C1551 -43 1661 -11 1700 1ZM1774 448C1832 448 1861 412 1861 341C1861 238 1813 168 1743 168C1682 168 1650 209 1650 288C1650 383 1701 448 1774 448ZM2057 388L2064 368L2096 389C2133 412 2136 414 2143 414C2153 414 2161 404 2161 391C2161 384 2157 361 2153 347L2087 107C2079 76 2074 49 2074 30C2074 6 2085 -9 2104 -9C2130 -9 2166 12 2264 85L2254 103L2228 86C2199 67 2176 56 2167 56C2160 56 2154 66 2154 76C2154 86 2156 95 2161 116L2238 420C2242 437 2244 448 2244 456C2244 473 2235 482 2219 482C2197 482 2160 461 2085 408ZM2251 712C2222 712 2193 679 2193 645C2193 620 2208 604 2232 604C2263 604 2287 633 2287 671C2287 695 2272 712 2251 712ZM2425 390L2369 107C2368 99 2356 61 2356 31C2356 6 2367 -9 2386 -9C2421 -9 2456 11 2534 74L2565 99L2555 117L2510 86C2481 66 2461 56 2450 56C2441 56 2436 64 2436 76C2436 102 2450 183 2479 328L2492 390L2599 390L2610 440C2572 436 2538 434 2500 434C2516 528 2527 577 2545 631L2534 646C2514 634 2487 622 2456 610L2431 440C2387 419 2361 408 2343 403L2341 390ZM3124 473L3117 482L3049 465L3039 414C3024 336 2999 268 2968 221C2909 130 2831 59 2791 59C2783 59 2778 68 2778 85C2778 99 2780 112 2785 137L2842 408C2845 424 2847 438 2847 451C2847 470 2838 482 2824 482C2804 482 2766 461 2692 408L2664 388L2671 368L2703 389C2731 407 2742 412 2751 412C2760 412 2768 403 2768 392C2768 388 2767 378 2766 374L2703 77C2701 68 2699 44 2699 30C2699 7 2714 -11 2734 -11C2797 -11 2918 101 3002 239L2965 97C2958 73 2954 46 2954 31C2954 6 2965 -9 2984 -9C3010 -9 3046 12 3144 85L3134 103L3108 86C3084 70 3058 59 3047 59C3039 59 3034 66 3034 76C3034 112 3109 416 3124 473ZM3670 722L3658 733C3606 707 3570 698 3498 691L3494 670L3542 670C3566 670 3576 663 3576 646C3576 638 3575 629 3574 622L3546 468C3516 477 3489 482 3464 482C3395 482 3301 410 3255 323C3224 265 3204 170 3204 86C3204 21 3219 -11 3248 -11C3275 -11 3312 6 3346 33C3400 77 3433 116 3500 217L3477 126C3466 82 3461 50 3461 24C3461 3 3470 -9 3487 -9C3504 -9 3528 3 3562 28L3643 88L3633 107L3589 76C3575 66 3559 59 3550 59C3542 59 3536 68 3536 82C3536 90 3537 99 3544 128ZM3301 59C3285 59 3276 73 3276 98C3276 224 3322 380 3371 418C3384 428 3403 433 3430 433C3474 433 3503 427 3536 410L3524 351C3487 171 3346 59 3301 59ZM4418 722L4406 733C4354 707 4318 698 4246 691L4242 670L4290 670C4314 670 4324 663 4324 646C4324 638 4323 629 4322 622L4294 468C4264 477 4237 482 4212 482C4143 482 4049 410 4003 323C3972 265 3952 170 3952 86C3952 21 3967 -11 3996 -11C4023 -11 4060 6 4094 33C4148 77 4181 116 4248 217L4225 126C4214 82 4209 50 4209 24C4209 3 4218 -9 4235 -9C4252 -9 4276 3 4310 28L4391 88L4381 107L4337 76C4323 66 4307 59 4298 59C4290 59 4284 68 4284 82C4284 90 4285 99 4292 128ZM4049 59C4033 59 4024 73 4024 98C4024 224 4070 380 4119 418C4132 428 4151 433 4178 433C4222 433 4251 427 4284 410L4272 351C4235 171 4094 59 4049 59ZM4762 111L4738 94C4685 56 4637 36 4601 36C4554 36 4525 73 4525 133C4525 158 4528 185 4533 214C4550 218 4659 248 4684 259C4769 296 4808 342 4808 404C4808 451 4774 482 4724 482C4656 496 4546 423 4509 349C4479 299 4449 180 4449 113C4449 35 4493 -11 4565 -11C4622 -11 4678 17 4770 92ZM4547 274C4564 343 4584 386 4613 412C4631 428 4662 440 4686 440C4715 440 4734 420 4734 388C4734 344 4699 297 4647 272C4619 258 4583 247 4538 237ZM5073 722L5061 733C5009 707 4973 698 4901 691L4897 670L4945 670C4969 670 4979 663 4979 648C4979 645 4979 640 4976 622C4965 567 4892 182 4877 132C4864 82 4858 52 4858 31C4858 6 4869 -9 4888 -9C4914 -9 4950 12 5048 85L5038 103L5012 86C4983 67 4961 56 4951 56C4944 56 4938 66 4938 76C4938 82 4939 89 4942 104ZM5473 390L5417 107C5416 99 5404 61 5404 31C5404 6 5415 -9 5434 -9C5469 -9 5504 11 5582 74L5613 99L5603 117L5558 86C5529 66 5509 56 5498 56C5489 56 5484 64 5484 76C5484 102 5498 183 5527 328L5540 390L5647 390L5658 440C5620 436 5586 434 5548 434C5564 528 5575 577 5593 631L5582 646C5562 634 5535 622 5504 610L5479 440C5435 419 5409 408 5391 403L5389 390ZM6048 365C6051 403 6056 435 6064 476C6053 481 6049 482 6044 482C6013 482 5982 458 5946 407C5907 351 5868 291 5852 256L5884 408C5888 425 5890 438 5890 450C5890 470 5882 482 5867 482C5846 482 5808 461 5734 408L5706 388L5713 368L5745 389C5773 407 5784 412 5793 412C5803 412 5810 403 5810 390C5810 332 5767 126 5727 -2L5737 -9C5752 -4 5768 -1 5791 4L5804 6L5830 126C5848 209 5871 262 5915 319C5949 363 5976 384 5998 384C6013 384 6023 379 6034 365ZM6396 111L6372 94C6319 56 6271 36 6235 36C6188 36 6159 73 6159 133C6159 158 6162 185 6167 214C6184 218 6293 248 6318 259C6403 296 6442 342 6442 404C6442 451 6408 482 6358 482C6290 496 6180 423 6143 349C6113 299 6083 180 6083 113C6083 35 6127 -11 6199 -11C6256 -11 6312 17 6404 92ZM6181 274C6198 343 6218 386 6247 412C6265 428 6296 440 6320 440C6349 440 6368 420 6368 388C6368 344 6333 297 6281 272C6253 258 6217 247 6172 237ZM6480 388L6487 368L6519 389C6556 412 6559 414 6566 414C6577 414 6584 404 6584 389C6584 338 6543 145 6502 2L6509 -9C6534 -2 6557 4 6579 8C6598 134 6619 199 6665 268C6719 352 6794 414 6839 414C6850 414 6856 405 6856 390C6856 372 6853 351 6845 319L6793 107C6784 70 6780 47 6780 31C6780 6 6791 -9 6810 -9C6836 -9 6872 12 6970 85L6960 103L6934 86C6905 67 6883 56 6873 56C6866 56 6860 65 6860 76C6860 81 6861 92 6862 96L6928 372C6935 401 6939 429 6939 446C6939 469 6928 482 6908 482C6866 482 6797 444 6738 389C6700 354 6672 320 6620 247L6658 408C6662 426 6664 438 6664 449C6664 470 6656 482 6641 482C6620 482 6581 460 6508 408ZM7743 722L7731 733C7679 707 7643 698 7571 691L7567 670L7615 670C7639 670 7649 663 7649 646C7649 638 7648 629 7647 622L7619 468C7589 477 7562 482 7537 482C7468 482 7374 410 7328 323C7297 265 7277 170 7277 86C7277 21 7292 -11 7321 -11C7348 -11 7385 6 7419 33C7473 77 7506 116 7573 217L7550 126C7539 82 7534 50 7534 24C7534 3 7543 -9 7560 -9C7577 -9 7601 3 7635 28L7716 88L7706 107L7662 76C7648 66 7632 59 7623 59C7615 59 7609 68 7609 82C7609 90 7610 99 7617 128ZM7374 59C7358 59 7349 73 7349 98C7349 224 7395 380 7444 418C7457 428 7476 433 7503 433C7547 433 7576 427 7609 410L7597 351C7560 171 7419 59 7374 59ZM8087 111L8063 94C8010 56 7962 36 7926 36C7879 36 7850 73 7850 133C7850 158 7853 185 7858 214C7875 218 7984 248 8009 259C8094 296 8133 342 8133 404C8133 451 8099 482 8049 482C7981 496 7871 423 7834 349C7804 299 7774 180 7774 113C7774 35 7818 -11 7890 -11C7947 -11 8003 17 8095 92ZM7872 274C7889 343 7909 386 7938 412C7956 428 7987 440 8011 440C8040 440 8059 420 8059 388C8059 344 8024 297 7972 272C7944 258 7908 247 7863 237ZM8413 152C8413 46 8458 -11 8541 -11C8596 -11 8656 15 8701 57C8763 116 8807 230 8807 331C8807 425 8757 482 8674 482C8570 482 8413 382 8413 152ZM8637 444C8698 444 8731 399 8731 315C8731 219 8700 113 8656 60C8638 39 8612 27 8581 27C8523 27 8489 72 8489 151C8489 264 8528 387 8577 427C8590 438 8613 444 8637 444ZM8863 388L8870 368L8902 389C8939 412 8942 414 8949 414C8960 414 8967 404 8967 389C8967 338 8926 145 8885 2L8892 -9C8917 -2 8940 4 8962 8C8981 134 9002 199 9048 268C9102 352 9177 414 9222 414C9233 414 9239 405 9239 390C9239 372 9236 351 9228 319L9176 107C9167 70 9163 47 9163 31C9163 6 9174 -9 9193 -9C9219 -9 9255 12 9353 85L9343 103L9317 86C9288 67 9266 56 9256 56C9249 56 9243 65 9243 76C9243 81 9244 92 9245 96L9311 372C9318 401 9322 429 9322 446C9322 469 9311 482 9291 482C9249 482 9180 444 9121 389C9083 354 9055 320 9003 247L9041 408C9045 426 9047 438 9047 449C9047 470 9039 482 9024 482C9003 482 8964 460 8891 408ZM9877 722L9865 733C9813 707 9777 698 9705 691L9701 670L9749 670C9773 670 9783 663 9783 646C9783 638 9782 629 9781 622L9753 468C9723 477 9696 482 9671 482C9602 482 9508 410 9462 323C9431 265 9411 170 9411 86C9411 21 9426 -11 9455 -11C9482 -11 9519 6 9553 33C9607 77 9640 116 9707 217L9684 126C9673 82 9668 50 9668 24C9668 3 9677 -9 9694 -9C9711 -9 9735 3 9769 28L9850 88L9840 107L9796 76C9782 66 9766 59 9757 59C9749 59 9743 68 9743 82C9743 90 9744 99 9751 128ZM9508 59C9492 59 9483 73 9483 98C9483 224 9529 380 9578 418C9591 428 9610 433 9637 433C9681 433 9710 427 9743 410L9731 351C9694 171 9553 59 9508 59ZM10164 204L10135 77C10131 60 10129 42 10129 26C10129 4 10138 -9 10153 -9C10176 -9 10217 17 10299 85L10292 106C10268 86 10239 59 10217 59C10208 59 10202 68 10202 82C10202 87 10202 90 10203 93L10295 472L10285 481L10252 463C10211 478 10194 482 10167 482C10139 482 10119 477 10092 464C10030 433 9997 403 9972 354C9928 265 9897 145 9897 67C9897 23 9912 -11 9931 -11C9968 -11 10048 41 10164 204ZM10212 414C10190 305 10171 253 10137 201C10080 117 10019 59 9987 59C9975 59 9969 72 9969 99C9969 163 9997 280 10032 360C10056 415 10079 433 10127 433C10150 433 10168 429 10212 414ZM10367 148C10362 97 10356 62 10345 16C10383 -2 10417 -11 10452 -11C10501 -11 10547 7 10598 47C10649 87 10670 124 10670 174C10670 228 10638 257 10564 271L10521 279C10461 290 10442 307 10442 348C10442 401 10487 442 10544 442C10585 442 10623 424 10639 397L10639 342L10662 342C10666 377 10670 404 10681 455C10642 474 10614 482 10581 482C10529 482 10468 452 10420 404C10394 377 10383 352 10383 316C10383 260 10414 228 10480 215L10543 203C10587 195 10603 177 10603 138C10603 73 10557 29 10486 29C10451 29 10420 40 10392 64L10392 148Z" stroke="rgb(0,0,0)" stroke-opacity="1" stroke-width="8" fill="rgb(0,0,0)" fill-opacity="1"></path></g></g></g><g><g><g transform="matrix(1,0,0,1,2,101)"><path transform="matrix(0.017,0,0,-0.017,0,0)" d="M24 388L31 368L63 389C100 412 103 414 110 414C121 414 128 404 128 389C128 338 87 145 46 2L53 -9C78 -2 101 4 123 8C142 134 163 199 209 268C263 352 338 414 383 414C394 414 400 405 400 390C400 372 397 351 389 319L337 107C328 70 324 47 324 31C324 6 335 -9 354 -9C380 -9 416 12 514 85L504 103L478 86C449 67 427 56 417 56C410 56 404 65 404 76C404 81 405 92 406 96L472 372C479 401 483 429 483 446C483 469 472 482 452 482C410 482 341 444 282 389C244 354 216 320 164 247L202 408C206 426 208 438 208 449C208 470 200 482 185 482C164 482 125 460 52 408Z" stroke="rgb(0,0,0)" stroke-opacity="1" stroke-width="8" fill="rgb(0,0,0)" fill-opacity="1"></path></g></g><g><g transform="matrix(1,0,0,1,14.83746337890625,101)"><path transform="matrix(0.017,0,0,-0.017,0,0)" d="M123 111C93 111 66 83 66 53C66 23 93 -5 122 -5C154 -5 182 22 182 53C182 83 154 111 123 111ZM123 456C93 456 66 428 66 398C66 368 93 340 122 340C154 340 182 367 182 397C182 428 154 456 123 456Z" stroke="rgb(0,0,0)" stroke-opacity="1" stroke-width="8" fill="rgb(0,0,0)" fill-opacity="1"></path></g></g><g><g transform="matrix(1,0,0,1,22.4749755859375,101)"><path transform="matrix(0.017,0,0,-0.017,0,0)" d="M273 388L280 368L312 389C349 412 352 414 359 414C370 414 377 404 377 389C377 338 336 145 295 2L302 -9C327 -2 350 4 372 8C391 134 412 199 458 268C512 352 587 414 632 414C643 414 649 405 649 390C649 372 646 351 638 319L586 107C577 70 573 47 573 31C573 6 584 -9 603 -9C629 -9 665 12 763 85L753 103L727 86C698 67 676 56 666 56C659 56 653 65 653 76C653 81 654 92 655 96L721 372C728 401 732 429 732 446C732 469 721 482 701 482C659 482 590 444 531 389C493 354 465 320 413 247L451 408C455 426 457 438 457 449C457 470 449 482 434 482C413 482 374 460 301 408ZM1296 473L1289 482L1221 465L1211 414C1196 336 1171 268 1140 221C1081 130 1003 59 963 59C955 59 950 68 950 85C950 99 952 112 957 137L1014 408C1017 424 1019 438 1019 451C1019 470 1010 482 996 482C976 482 938 461 864 408L836 388L843 368L875 389C903 407 914 412 923 412C932 412 940 403 940 392C940 388 939 378 938 374L875 77C873 68 871 44 871 30C871 7 886 -11 906 -11C969 -11 1090 101 1174 239L1137 97C1130 73 1126 46 1126 31C1126 6 1137 -9 1156 -9C1182 -9 1218 12 1316 85L1306 103L1280 86C1256 70 1230 59 1219 59C1211 59 1206 66 1206 76C1206 112 1281 416 1296 473ZM2089 103L2063 86C2034 67 2012 56 2002 56C1995 56 1989 65 1989 76C1989 86 1991 95 1996 116L2071 413C2075 430 2078 446 2078 454C2078 471 2068 482 2052 482C2023 482 1985 464 1924 421C1861 376 1826 341 1777 272L1807 409C1811 429 1814 444 1814 451C1814 470 1804 482 1788 482C1758 482 1712 460 1657 418C1613 384 1593 363 1528 275L1561 408C1565 424 1567 439 1567 451C1567 470 1558 482 1544 482C1523 482 1485 461 1411 408L1383 388L1390 368C1427 391 1462 414 1469 414C1480 414 1487 404 1487 389C1487 338 1446 145 1405 2L1408 -9L1476 6L1498 108C1522 219 1549 278 1604 338C1646 384 1691 414 1719 414C1726 414 1730 406 1730 393C1730 358 1708 244 1667 69L1651 2L1656 -9L1725 6L1746 113C1762 194 1796 269 1840 318C1895 379 1945 414 1977 414C1985 414 1990 405 1990 389C1990 365 1987 351 1965 264C1925 105 1909 84 1909 31C1909 6 1920 -9 1939 -9C1965 -9 2001 12 2099 85ZM2464 111L2440 94C2387 56 2339 36 2303 36C2256 36 2227 73 2227 133C2227 158 2230 185 2235 214C2252 218 2361 248 2386 259C2471 296 2510 342 2510 404C2510 451 2476 482 2426 482C2358 496 2248 423 2211 349C2181 299 2151 180 2151 113C2151 35 2195 -11 2267 -11C2324 -11 2380 17 2472 92ZM2249 274C2266 343 2286 386 2315 412C2333 428 2364 440 2388 440C2417 440 2436 420 2436 388C2436 344 2401 297 2349 272C2321 258 2285 247 2240 237ZM2892 365C2895 403 2900 435 2908 476C2897 481 2893 482 2888 482C2857 482 2826 458 2790 407C2751 351 2712 291 2696 256L2728 408C2732 425 2734 438 2734 450C2734 470 2726 482 2711 482C2690 482 2652 461 2578 408L2550 388L2557 368L2589 389C2617 407 2628 412 2637 412C2647 412 2654 403 2654 390C2654 332 2611 126 2571 -2L2581 -9C2596 -4 2612 -1 2635 4L2648 6L2674 126C2692 209 2715 262 2759 319C2793 363 2820 384 2842 384C2857 384 2867 379 2878 365ZM2929 152C2929 46 2974 -11 3057 -11C3112 -11 3172 15 3217 57C3279 116 3323 230 3323 331C3323 425 3273 482 3190 482C3086 482 2929 382 2929 152ZM3153 444C3214 444 3247 399 3247 315C3247 219 3216 113 3172 60C3154 39 3128 27 3097 27C3039 27 3005 72 3005 151C3005 264 3044 387 3093 427C3106 438 3129 444 3153 444ZM4087 722L4075 733C4023 707 3987 698 3915 691L3911 670L3959 670C3983 670 3993 663 3993 646C3993 638 3992 629 3991 622L3963 468C3933 477 3906 482 3881 482C3812 482 3718 410 3672 323C3641 265 3621 170 3621 86C3621 21 3636 -11 3665 -11C3692 -11 3729 6 3763 33C3817 77 3850 116 3917 217L3894 126C3883 82 3878 50 3878 24C3878 3 3887 -9 3904 -9C3921 -9 3945 3 3979 28L4060 88L4050 107L4006 76C3992 66 3976 59 3967 59C3959 59 3953 68 3953 82C3953 90 3954 99 3961 128ZM3718 59C3702 59 3693 73 3693 98C3693 224 3739 380 3788 418C3801 428 3820 433 3847 433C3891 433 3920 427 3953 410L3941 351C3904 171 3763 59 3718 59ZM4431 111L4407 94C4354 56 4306 36 4270 36C4223 36 4194 73 4194 133C4194 158 4197 185 4202 214C4219 218 4328 248 4353 259C4438 296 4477 342 4477 404C4477 451 4443 482 4393 482C4325 496 4215 423 4178 349C4148 299 4118 180 4118 113C4118 35 4162 -11 4234 -11C4291 -11 4347 17 4439 92ZM4216 274C4233 343 4253 386 4282 412C4300 428 4331 440 4355 440C4384 440 4403 420 4403 388C4403 344 4368 297 4316 272C4288 258 4252 247 4207 237ZM4757 152C4757 46 4802 -11 4885 -11C4940 -11 5000 15 5045 57C5107 116 5151 230 5151 331C5151 425 5101 482 5018 482C4914 482 4757 382 4757 152ZM4981 444C5042 444 5075 399 5075 315C5075 219 5044 113 5000 60C4982 39 4956 27 4925 27C4867 27 4833 72 4833 151C4833 264 4872 387 4921 427C4934 438 4957 444 4981 444ZM5214 148C5209 97 5203 62 5192 16C5230 -2 5264 -11 5299 -11C5348 -11 5394 7 5445 47C5496 87 5517 124 5517 174C5517 228 5485 257 5411 271L5368 279C5308 290 5289 307 5289 348C5289 401 5334 442 5391 442C5432 442 5470 424 5486 397L5486 342L5509 342C5513 377 5517 404 5528 455C5489 474 5461 482 5428 482C5376 482 5315 452 5267 404C5241 377 5230 352 5230 316C5230 260 5261 228 5327 215L5390 203C5434 195 5450 177 5450 138C5450 73 5404 29 5333 29C5298 29 5267 40 5239 64L5239 148ZM5913 330L5936 330C5944 395 5951 432 5960 458C5936 473 5901 482 5864 482C5819 483 5746 463 5689 400C5635 352 5596 241 5596 136C5596 40 5638 -11 5718 -11C5772 -11 5820 9 5875 54L5925 95L5917 115L5902 105C5830 57 5792 40 5757 40C5701 40 5672 80 5672 159C5672 267 5707 371 5756 409C5777 425 5801 433 5832 433C5877 433 5913 414 5913 390ZM6011 388L6018 368L6050 389C6087 412 6090 414 6097 414C6107 414 6115 404 6115 391C6115 384 6111 361 6107 347L6041 107C6033 76 6028 49 6028 30C6028 6 6039 -9 6058 -9C6084 -9 6120 12 6218 85L6208 103L6182 86C6153 67 6130 56 6121 56C6114 56 6108 66 6108 76C6108 86 6110 95 6115 116L6192 420C6196 437 6198 448 6198 456C6198 473 6189 482 6173 482C6151 482 6114 461 6039 408ZM6205 712C6176 712 6147 679 6147 645C6147 620 6162 604 6186 604C6217 604 6241 633 6241 671C6241 695 6226 712 6205 712ZM6505 722L6493 733C6441 707 6405 698 6333 691L6329 670L6377 670C6401 670 6411 663 6411 648C6411 645 6411 640 6408 622C6397 567 6324 182 6309 132C6296 82 6290 52 6290 31C6290 6 6301 -9 6320 -9C6346 -9 6382 12 6480 85L6470 103L6444 86C6415 67 6393 56 6383 56C6376 56 6370 66 6370 76C6370 82 6371 89 6374 104ZM6802 204L6773 77C6769 60 6767 42 6767 26C6767 4 6776 -9 6791 -9C6814 -9 6855 17 6937 85L6930 106C6906 86 6877 59 6855 59C6846 59 6840 68 6840 82C6840 87 6840 90 6841 93L6933 472L6923 481L6890 463C6849 478 6832 482 6805 482C6777 482 6757 477 6730 464C6668 433 6635 403 6610 354C6566 265 6535 145 6535 67C6535 23 6550 -11 6569 -11C6606 -11 6686 41 6802 204ZM6850 414C6828 305 6809 253 6775 201C6718 117 6657 59 6625 59C6613 59 6607 72 6607 99C6607 163 6635 280 6670 360C6694 415 6717 433 6765 433C6788 433 6806 429 6850 414ZM7316 330L7339 330C7347 395 7354 432 7363 458C7339 473 7304 482 7267 482C7222 483 7149 463 7092 400C7038 352 6999 241 6999 136C6999 40 7041 -11 7121 -11C7175 -11 7223 9 7278 54L7328 95L7320 115L7305 105C7233 57 7195 40 7160 40C7104 40 7075 80 7075 159C7075 267 7110 371 7159 409C7180 425 7204 433 7235 433C7280 433 7316 414 7316 390ZM7414 388L7421 368L7453 389C7490 412 7493 414 7500 414C7510 414 7518 404 7518 391C7518 384 7514 361 7510 347L7444 107C7436 76 7431 49 7431 30C7431 6 7442 -9 7461 -9C7487 -9 7523 12 7621 85L7611 103L7585 86C7556 67 7533 56 7524 56C7517 56 7511 66 7511 76C7511 86 7513 95 7518 116L7595 420C7599 437 7601 448 7601 456C7601 473 7592 482 7576 482C7554 482 7517 461 7442 408ZM7608 712C7579 712 7550 679 7550 645C7550 620 7565 604 7589 604C7620 604 7644 633 7644 671C7644 695 7629 712 7608 712ZM7674 152C7674 46 7719 -11 7802 -11C7857 -11 7917 15 7962 57C8024 116 8068 230 8068 331C8068 425 8018 482 7935 482C7831 482 7674 382 7674 152ZM7898 444C7959 444 7992 399 7992 315C7992 219 7961 113 7917 60C7899 39 7873 27 7842 27C7784 27 7750 72 7750 151C7750 264 7789 387 7838 427C7851 438 7874 444 7898 444ZM8124 388L8131 368L8163 389C8200 412 8203 414 8210 414C8221 414 8228 404 8228 389C8228 338 8187 145 8146 2L8153 -9C8178 -2 8201 4 8223 8C8242 134 8263 199 8309 268C8363 352 8438 414 8483 414C8494 414 8500 405 8500 390C8500 372 8497 351 8489 319L8437 107C8428 70 8424 47 8424 31C8424 6 8435 -9 8454 -9C8480 -9 8516 12 8614 85L8604 103L8578 86C8549 67 8527 56 8517 56C8510 56 8504 65 8504 76C8504 81 8505 92 8506 96L8572 372C8579 401 8583 429 8583 446C8583 469 8572 482 8552 482C8510 482 8441 444 8382 389C8344 354 8316 320 8264 247L8302 408C8306 426 8308 438 8308 449C8308 470 8300 482 8285 482C8264 482 8225 460 8152 408ZM8983 111L8959 94C8906 56 8858 36 8822 36C8775 36 8746 73 8746 133C8746 158 8749 185 8754 214C8771 218 8880 248 8905 259C8990 296 9029 342 9029 404C9029 451 8995 482 8945 482C8877 496 8767 423 8730 349C8700 299 8670 180 8670 113C8670 35 8714 -11 8786 -11C8843 -11 8899 17 8991 92ZM8768 274C8785 343 8805 386 8834 412C8852 428 8883 440 8907 440C8936 440 8955 420 8955 388C8955 344 8920 297 8868 272C8840 258 8804 247 8759 237ZM9074 148C9069 97 9063 62 9052 16C9090 -2 9124 -11 9159 -11C9208 -11 9254 7 9305 47C9356 87 9377 124 9377 174C9377 228 9345 257 9271 271L9228 279C9168 290 9149 307 9149 348C9149 401 9194 442 9251 442C9292 442 9330 424 9346 397L9346 342L9369 342C9373 377 9377 404 9388 455C9349 474 9321 482 9288 482C9236 482 9175 452 9127 404C9101 377 9090 352 9090 316C9090 260 9121 228 9187 215L9250 203C9294 195 9310 177 9310 138C9310 73 9264 29 9193 29C9158 29 9127 40 9099 64L9099 148Z" stroke="rgb(0,0,0)" stroke-opacity="1" stroke-width="8" fill="rgb(0,0,0)" fill-opacity="1"></path></g></g></g></g></svg>