<svg xmlns="http://www.w3.org/2000/svg" xmlns:xlink="http://www.w3.org/1999/xlink" width="204.5500030517578" height="84" style="width:204.5500030517578px;height:84px;font-family:Asana-Math, Asana;background:#FFF;"><g><g><g><g transform="matrix(1,0,0,1,2,19)"><path transform="matrix(0.017,0,0,-0.017,0,0)" d="M4587 88C4572 77 4547 55 4526 55C4487 55 4455 188 4445 219C4411 326 4323 670 4306 689C4298 699 4289 702 4279 702C4242 702 4172 669 4142 656L4139 648C4142 643 4144 639 4150 637C4166 642 4195 653 4211 653C4263 653 4299 500 4310 460C4207 320 4136 161 4070 -2L4082 -16C4105 -5 4129 4 4153 13C4170 159 4244 308 4315 428L4323 425C4341 363 4426 12 4447 -6C4455 -13 4463 -16 4472 -16C4515 -16 4572 45 4599 74L4600 80C4596 83 4594 88 4587 88Z" stroke="rgb(0,0,0)" stroke-opacity="1" stroke-width="8" fill="rgb(0,0,0)" fill-opacity="1"></path></g></g><g><g transform="matrix(1,0,0,1,85.3375244140625,19)"><path transform="matrix(0.017,0,0,-0.017,0,0)" d="M604 347L604 406L65 406L65 347ZM604 134L604 193L65 193L65 134Z" stroke="rgb(0,0,0)" stroke-opacity="1" stroke-width="8" fill="rgb(0,0,0)" fill-opacity="1"></path></g></g><g><g transform="matrix(1,0,0,1,101.800048828125,19)"><path transform="matrix(0.017,0,0,-0.017,0,0)" d="M166 420C187 420 203 421 229 424C118 304 76 221 76 121C76 44 122 -11 186 -11C324 -11 477 236 477 384C477 441 451 482 415 482C402 482 390 478 382 470L332 423L343 404C352 410 361 413 370 413C397 413 413 390 413 350C413 202 316 39 228 39C179 39 148 81 148 146C148 251 187 342 285 464L275 482C255 473 242 470 214 470C186 470 144 472 115 475L103 476C97 477 92 477 91 477C79 477 70 475 59 470C45 443 34 407 21 352L43 352L60 394C67 411 87 422 111 422C144 422 128 420 166 420ZM889 646L962 646C1040 646 1076 641 1079 629C1082 621 1084 602 1083 592L1079 528L1107 528L1134 692L1043 691C955 690 887 689 852 689C815 689 751 690 665 691L570 692L552 528L581 528L596 588C601 610 608 626 614 633C620 640 658 646 695 646L807 646L721 125C705 34 703 31 663 28L612 25L608 -3L665 -2C705 -1 734 0 750 0C769 0 800 -1 839 -2L883 -3L886 25L827 28C801 29 791 37 791 58C791 67 792 74 795 93Z" stroke="rgb(0,0,0)" stroke-opacity="1" stroke-width="8" fill="rgb(0,0,0)" fill-opacity="1"></path></g></g></g><g></g><g><g><g transform="matrix(1,0,0,1,2,59)"><path transform="matrix(0.017,0,0,-0.017,0,0)" d="M166 420C187 420 203 421 229 424C118 304 76 221 76 121C76 44 122 -11 186 -11C324 -11 477 236 477 384C477 441 451 482 415 482C402 482 390 478 382 470L332 423L343 404C352 410 361 413 370 413C397 413 413 390 413 350C413 202 316 39 228 39C179 39 148 81 148 146C148 251 187 342 285 464L275 482C255 473 242 470 214 470C186 470 144 472 115 475L103 476C97 477 92 477 91 477C79 477 70 475 59 470C45 443 34 407 21 352L43 352L60 394C67 411 87 422 111 422C144 422 128 420 166 420Z" stroke="rgb(0,0,0)" stroke-opacity="1" stroke-width="8" fill="rgb(0,0,0)" fill-opacity="1"></path></g></g><g><g transform="matrix(1,0,0,1,13.88751220703125,59)"><path transform="matrix(0.017,0,0,-0.017,0,0)" d="M123 111C93 111 66 83 66 53C66 23 93 -5 122 -5C154 -5 182 22 182 53C182 83 154 111 123 111ZM123 456C93 456 66 428 66 398C66 368 93 340 122 340C154 340 182 367 182 397C182 428 154 456 123 456Z" stroke="rgb(0,0,0)" stroke-opacity="1" stroke-width="8" fill="rgb(0,0,0)" fill-opacity="1"></path></g></g><g><g transform="matrix(1,0,0,1,21.5250244140625,59)"><path transform="matrix(0.017,0,0,-0.017,0,0)" d="M415 420C436 420 452 421 478 424C367 304 325 221 325 121C325 44 371 -11 435 -11C573 -11 726 236 726 384C726 441 700 482 664 482C651 482 639 478 631 470L581 423L592 404C601 410 610 413 619 413C646 413 662 390 662 350C662 202 565 39 477 39C428 39 397 81 397 146C397 251 436 342 534 464L524 482C504 473 491 470 463 470C435 470 393 472 364 475L352 476C346 477 341 477 340 477C328 477 319 475 308 470C294 443 283 407 270 352L292 352L309 394C316 411 336 422 360 422C393 422 377 420 415 420ZM1076 111L1052 94C999 56 951 36 915 36C868 36 839 73 839 133C839 158 842 185 847 214C864 218 973 248 998 259C1083 296 1122 342 1122 404C1122 451 1088 482 1038 482C970 496 860 423 823 349C793 299 763 180 763 113C763 35 807 -11 879 -11C936 -11 992 17 1084 92ZM861 274C878 343 898 386 927 412C945 428 976 440 1000 440C1029 440 1048 420 1048 388C1048 344 1013 297 961 272C933 258 897 247 852 237ZM1387 722L1375 733C1323 707 1287 698 1215 691L1211 670L1259 670C1283 670 1293 663 1293 648C1293 645 1293 640 1290 622C1279 567 1206 182 1191 132C1178 82 1172 52 1172 31C1172 6 1183 -9 1202 -9C1228 -9 1264 12 1362 85L1352 103L1326 86C1297 67 1275 56 1265 56C1258 56 1252 66 1252 76C1252 82 1253 89 1256 104ZM1430 152C1430 46 1475 -11 1558 -11C1613 -11 1673 15 1718 57C1780 116 1824 230 1824 331C1824 425 1774 482 1691 482C1587 482 1430 382 1430 152ZM1654 444C1715 444 1748 399 1748 315C1748 219 1717 113 1673 60C1655 39 1629 27 1598 27C1540 27 1506 72 1506 151C1506 264 1545 387 1594 427C1607 438 1630 444 1654 444ZM2198 330L2221 330C2229 395 2236 432 2245 458C2221 473 2186 482 2149 482C2104 483 2031 463 1974 400C1920 352 1881 241 1881 136C1881 40 1923 -11 2003 -11C2057 -11 2105 9 2160 54L2210 95L2202 115L2187 105C2115 57 2077 40 2042 40C1986 40 1957 80 1957 159C1957 267 1992 371 2041 409C2062 425 2086 433 2117 433C2162 433 2198 414 2198 390ZM2296 388L2303 368L2335 389C2372 412 2375 414 2382 414C2392 414 2400 404 2400 391C2400 384 2396 361 2392 347L2326 107C2318 76 2313 49 2313 30C2313 6 2324 -9 2343 -9C2369 -9 2405 12 2503 85L2493 103L2467 86C2438 67 2415 56 2406 56C2399 56 2393 66 2393 76C2393 86 2395 95 2400 116L2477 420C2481 437 2483 448 2483 456C2483 473 2474 482 2458 482C2436 482 2399 461 2324 408ZM2490 712C2461 712 2432 679 2432 645C2432 620 2447 604 2471 604C2502 604 2526 633 2526 671C2526 695 2511 712 2490 712ZM3022 722L3010 733C2958 707 2922 698 2850 691L2846 670L2894 670C2918 670 2928 663 2928 646C2928 638 2927 629 2926 622L2898 468C2868 477 2841 482 2816 482C2747 482 2653 410 2607 323C2576 265 2556 170 2556 86C2556 21 2571 -11 2600 -11C2627 -11 2664 6 2698 33C2752 77 2785 116 2852 217L2829 126C2818 82 2813 50 2813 24C2813 3 2822 -9 2839 -9C2856 -9 2880 3 2914 28L2995 88L2985 107L2941 76C2927 66 2911 59 2902 59C2894 59 2888 68 2888 82C2888 90 2889 99 2896 128ZM2653 59C2637 59 2628 73 2628 98C2628 224 2674 380 2723 418C2736 428 2755 433 2782 433C2826 433 2855 427 2888 410L2876 351C2839 171 2698 59 2653 59ZM3309 204L3280 77C3276 60 3274 42 3274 26C3274 4 3283 -9 3298 -9C3321 -9 3362 17 3444 85L3437 106C3413 86 3384 59 3362 59C3353 59 3347 68 3347 82C3347 87 3347 90 3348 93L3440 472L3430 481L3397 463C3356 478 3339 482 3312 482C3284 482 3264 477 3237 464C3175 433 3142 403 3117 354C3073 265 3042 145 3042 67C3042 23 3057 -11 3076 -11C3113 -11 3193 41 3309 204ZM3357 414C3335 305 3316 253 3282 201C3225 117 3164 59 3132 59C3120 59 3114 72 3114 99C3114 163 3142 280 3177 360C3201 415 3224 433 3272 433C3295 433 3313 429 3357 414ZM3964 722L3952 733C3900 707 3864 698 3792 691L3788 670L3836 670C3860 670 3870 663 3870 646C3870 638 3869 629 3868 622L3840 468C3810 477 3783 482 3758 482C3689 482 3595 410 3549 323C3518 265 3498 170 3498 86C3498 21 3513 -11 3542 -11C3569 -11 3606 6 3640 33C3694 77 3727 116 3794 217L3771 126C3760 82 3755 50 3755 24C3755 3 3764 -9 3781 -9C3798 -9 3822 3 3856 28L3937 88L3927 107L3883 76C3869 66 3853 59 3844 59C3836 59 3830 68 3830 82C3830 90 3831 99 3838 128ZM3595 59C3579 59 3570 73 3570 98C3570 224 3616 380 3665 418C3678 428 3697 433 3724 433C3768 433 3797 427 3830 410L3818 351C3781 171 3640 59 3595 59ZM4712 722L4700 733C4648 707 4612 698 4540 691L4536 670L4584 670C4608 670 4618 663 4618 646C4618 638 4617 629 4616 622L4588 468C4558 477 4531 482 4506 482C4437 482 4343 410 4297 323C4266 265 4246 170 4246 86C4246 21 4261 -11 4290 -11C4317 -11 4354 6 4388 33C4442 77 4475 116 4542 217L4519 126C4508 82 4503 50 4503 24C4503 3 4512 -9 4529 -9C4546 -9 4570 3 4604 28L4685 88L4675 107L4631 76C4617 66 4601 59 4592 59C4584 59 4578 68 4578 82C4578 90 4579 99 4586 128ZM4343 59C4327 59 4318 73 4318 98C4318 224 4364 380 4413 418C4426 428 4445 433 4472 433C4516 433 4545 427 4578 410L4566 351C4529 171 4388 59 4343 59ZM5056 111L5032 94C4979 56 4931 36 4895 36C4848 36 4819 73 4819 133C4819 158 4822 185 4827 214C4844 218 4953 248 4978 259C5063 296 5102 342 5102 404C5102 451 5068 482 5018 482C4950 496 4840 423 4803 349C4773 299 4743 180 4743 113C4743 35 4787 -11 4859 -11C4916 -11 4972 17 5064 92ZM4841 274C4858 343 4878 386 4907 412C4925 428 4956 440 4980 440C5009 440 5028 420 5028 388C5028 344 4993 297 4941 272C4913 258 4877 247 4832 237ZM5541 -11C5597 -11 5712 62 5755 125C5796 186 5830 296 5830 371C5830 438 5807 482 5771 482C5729 482 5676 456 5624 409C5583 374 5563 348 5527 289L5551 408C5554 425 5556 440 5556 452C5556 471 5548 482 5534 482C5513 482 5475 461 5401 408L5373 388L5380 368L5412 389C5440 407 5451 412 5460 412C5470 412 5477 403 5477 389C5477 381 5475 361 5473 351L5415 8C5405 -52 5386 -143 5366 -233L5358 -270L5365 -276C5386 -269 5406 -264 5438 -259L5480 3C5501 -4 5523 -11 5541 -11ZM5508 165C5530 293 5637 424 5720 424C5746 424 5758 402 5758 356C5758 275 5718 156 5665 80C5645 51 5613 36 5572 36C5541 36 5516 43 5490 59ZM6232 365C6235 403 6240 435 6248 476C6237 481 6233 482 6228 482C6197 482 6166 458 6130 407C6091 351 6052 291 6036 256L6068 408C6072 425 6074 438 6074 450C6074 470 6066 482 6051 482C6030 482 5992 461 5918 408L5890 388L5897 368L5929 389C5957 407 5968 412 5977 412C5987 412 5994 403 5994 390C5994 332 5951 126 5911 -2L5921 -9C5936 -4 5952 -1 5975 4L5988 6L6014 126C6032 209 6055 262 6099 319C6133 363 6160 384 6182 384C6197 384 6207 379 6218 365ZM6269 152C6269 46 6314 -11 6397 -11C6452 -11 6512 15 6557 57C6619 116 6663 230 6663 331C6663 425 6613 482 6530 482C6426 482 6269 382 6269 152ZM6493 444C6554 444 6587 399 6587 315C6587 219 6556 113 6512 60C6494 39 6468 27 6437 27C6379 27 6345 72 6345 151C6345 264 6384 387 6433 427C6446 438 6469 444 6493 444ZM6871 -11C6927 -11 7042 62 7085 125C7126 186 7160 296 7160 371C7160 438 7137 482 7101 482C7059 482 7006 456 6954 409C6913 374 6893 348 6857 289L6881 408C6884 425 6886 440 6886 452C6886 471 6878 482 6864 482C6843 482 6805 461 6731 408L6703 388L6710 368L6742 389C6770 407 6781 412 6790 412C6800 412 6807 403 6807 389C6807 381 6805 361 6803 351L6745 8C6735 -52 6716 -143 6696 -233L6688 -270L6695 -276C6716 -269 6736 -264 6768 -259L6810 3C6831 -4 6853 -11 6871 -11ZM6838 165C6860 293 6967 424 7050 424C7076 424 7088 402 7088 356C7088 275 7048 156 6995 80C6975 51 6943 36 6902 36C6871 36 6846 43 6820 59ZM7562 365C7565 403 7570 435 7578 476C7567 481 7563 482 7558 482C7527 482 7496 458 7460 407C7421 351 7382 291 7366 256L7398 408C7402 425 7404 438 7404 450C7404 470 7396 482 7381 482C7360 482 7322 461 7248 408L7220 388L7227 368L7259 389C7287 407 7298 412 7307 412C7317 412 7324 403 7324 390C7324 332 7281 126 7241 -2L7251 -9C7266 -4 7282 -1 7305 4L7318 6L7344 126C7362 209 7385 262 7429 319C7463 363 7490 384 7512 384C7527 384 7537 379 7548 365ZM7853 204L7824 77C7820 60 7818 42 7818 26C7818 4 7827 -9 7842 -9C7865 -9 7906 17 7988 85L7981 106C7957 86 7928 59 7906 59C7897 59 7891 68 7891 82C7891 87 7891 90 7892 93L7984 472L7974 481L7941 463C7900 478 7883 482 7856 482C7828 482 7808 477 7781 464C7719 433 7686 403 7661 354C7617 265 7586 145 7586 67C7586 23 7601 -11 7620 -11C7657 -11 7737 41 7853 204ZM7901 414C7879 305 7860 253 7826 201C7769 117 7708 59 7676 59C7664 59 7658 72 7658 99C7658 163 7686 280 7721 360C7745 415 7768 433 7816 433C7839 433 7857 429 7901 414ZM8300 482C8233 482 8080 419 8080 259C8080 182 8125 136 8202 136C8210 136 8221 136 8232 137L8191 99C8175 84 8164 66 8164 52C8164 42 8171 31 8185 19C8116 -4 7988 -48 7988 -159C7988 -230 8058 -276 8167 -276C8296 -276 8409 -204 8409 -121C8409 -85 8388 -49 8345 -14L8285 35C8251 62 8238 81 8238 100C8238 114 8253 128 8265 146C8363 170 8434 253 8434 342C8434 357 8431 376 8430 380C8447 378 8455 378 8464 378C8481 378 8491 379 8514 382L8523 427L8520 433C8492 426 8472 424 8418 424C8418 425 8394 482 8300 482ZM8201 1L8278 -58C8324 -94 8343 -121 8343 -154C8343 -206 8274 -248 8191 -248C8109 -248 8052 -206 8052 -145C8052 -43 8162 -11 8201 1ZM8275 448C8333 448 8362 412 8362 341C8362 238 8314 168 8244 168C8183 168 8151 209 8151 288C8151 383 8202 448 8275 448ZM8795 204L8766 77C8762 60 8760 42 8760 26C8760 4 8769 -9 8784 -9C8807 -9 8848 17 8930 85L8923 106C8899 86 8870 59 8848 59C8839 59 8833 68 8833 82C8833 87 8833 90 8834 93L8926 472L8916 481L8883 463C8842 478 8825 482 8798 482C8770 482 8750 477 8723 464C8661 433 8628 403 8603 354C8559 265 8528 145 8528 67C8528 23 8543 -11 8562 -11C8599 -11 8679 41 8795 204ZM8843 414C8821 305 8802 253 8768 201C8711 117 8650 59 8618 59C8606 59 8600 72 8600 99C8600 163 8628 280 8663 360C8687 415 8710 433 8758 433C8781 433 8799 429 8843 414ZM9309 330L9332 330C9340 395 9347 432 9356 458C9332 473 9297 482 9260 482C9215 483 9142 463 9085 400C9031 352 8992 241 8992 136C8992 40 9034 -11 9114 -11C9168 -11 9216 9 9271 54L9321 95L9313 115L9298 105C9226 57 9188 40 9153 40C9097 40 9068 80 9068 159C9068 267 9103 371 9152 409C9173 425 9197 433 9228 433C9273 433 9309 414 9309 390ZM9407 388L9414 368L9446 389C9483 412 9486 414 9493 414C9503 414 9511 404 9511 391C9511 384 9507 361 9503 347L9437 107C9429 76 9424 49 9424 30C9424 6 9435 -9 9454 -9C9480 -9 9516 12 9614 85L9604 103L9578 86C9549 67 9526 56 9517 56C9510 56 9504 66 9504 76C9504 86 9506 95 9511 116L9588 420C9592 437 9594 448 9594 456C9594 473 9585 482 9569 482C9547 482 9510 461 9435 408ZM9601 712C9572 712 9543 679 9543 645C9543 620 9558 604 9582 604C9613 604 9637 633 9637 671C9637 695 9622 712 9601 712ZM9667 152C9667 46 9712 -11 9795 -11C9850 -11 9910 15 9955 57C10017 116 10061 230 10061 331C10061 425 10011 482 9928 482C9824 482 9667 382 9667 152ZM9891 444C9952 444 9985 399 9985 315C9985 219 9954 113 9910 60C9892 39 9866 27 9835 27C9777 27 9743 72 9743 151C9743 264 9782 387 9831 427C9844 438 9867 444 9891 444ZM10117 388L10124 368L10156 389C10193 412 10196 414 10203 414C10214 414 10221 404 10221 389C10221 338 10180 145 10139 2L10146 -9C10171 -2 10194 4 10216 8C10235 134 10256 199 10302 268C10356 352 10431 414 10476 414C10487 414 10493 405 10493 390C10493 372 10490 351 10482 319L10430 107C10421 70 10417 47 10417 31C10417 6 10428 -9 10447 -9C10473 -9 10509 12 10607 85L10597 103L10571 86C10542 67 10520 56 10510 56C10503 56 10497 65 10497 76C10497 81 10498 92 10499 96L10565 372C10572 401 10576 429 10576 446C10576 469 10565 482 10545 482C10503 482 10434 444 10375 389C10337 354 10309 320 10257 247L10295 408C10299 426 10301 438 10301 449C10301 470 10293 482 10278 482C10257 482 10218 460 10145 408Z" stroke="rgb(0,0,0)" stroke-opacity="1" stroke-width="8" fill="rgb(0,0,0)" fill-opacity="1"></path></g></g></g><g><g><g transform="matrix(1,0,0,1,2,79)"><path transform="matrix(0.017,0,0,-0.017,0,0)" d="M390 646L463 646C541 646 577 641 580 629C583 621 585 602 584 592L580 528L608 528L635 692L544 691C456 690 388 689 353 689C316 689 252 690 166 691L71 692L53 528L82 528L97 588C102 610 109 626 115 633C121 640 159 646 196 646L308 646L222 125C206 34 204 31 164 28L113 25L109 -3L166 -2C206 -1 235 0 251 0C270 0 301 -1 340 -2L384 -3L387 25L328 28C302 29 292 37 292 58C292 67 293 74 296 93Z" stroke="rgb(0,0,0)" stroke-opacity="1" stroke-width="8" fill="rgb(0,0,0)" fill-opacity="1"></path></g></g><g><g transform="matrix(1,0,0,1,15.7750244140625,79)"><path transform="matrix(0.017,0,0,-0.017,0,0)" d="M123 111C93 111 66 83 66 53C66 23 93 -5 122 -5C154 -5 182 22 182 53C182 83 154 111 123 111ZM123 456C93 456 66 428 66 398C66 368 93 340 122 340C154 340 182 367 182 397C182 428 154 456 123 456Z" stroke="rgb(0,0,0)" stroke-opacity="1" stroke-width="8" fill="rgb(0,0,0)" fill-opacity="1"></path></g></g><g><g transform="matrix(1,0,0,1,23.41253662109375,79)"><path transform="matrix(0.017,0,0,-0.017,0,0)" d="M425 -11C481 -11 596 62 639 125C680 186 714 296 714 371C714 438 691 482 655 482C613 482 560 456 508 409C467 374 447 348 411 289L435 408C438 425 440 440 440 452C440 471 432 482 418 482C397 482 359 461 285 408L257 388L264 368L296 389C324 407 335 412 344 412C354 412 361 403 361 389C361 381 359 361 357 351L299 8C289 -52 270 -143 250 -233L242 -270L249 -276C270 -269 290 -264 322 -259L364 3C385 -4 407 -11 425 -11ZM392 165C414 293 521 424 604 424C630 424 642 402 642 356C642 275 602 156 549 80C529 51 497 36 456 36C425 36 400 43 374 59ZM1076 111L1052 94C999 56 951 36 915 36C868 36 839 73 839 133C839 158 842 185 847 214C864 218 973 248 998 259C1083 296 1122 342 1122 404C1122 451 1088 482 1038 482C970 496 860 423 823 349C793 299 763 180 763 113C763 35 807 -11 879 -11C936 -11 992 17 1084 92ZM861 274C878 343 898 386 927 412C945 428 976 440 1000 440C1029 440 1048 420 1048 388C1048 344 1013 297 961 272C933 258 897 247 852 237ZM1504 365C1507 403 1512 435 1520 476C1509 481 1505 482 1500 482C1469 482 1438 458 1402 407C1363 351 1324 291 1308 256L1340 408C1344 425 1346 438 1346 450C1346 470 1338 482 1323 482C1302 482 1264 461 1190 408L1162 388L1169 368L1201 389C1229 407 1240 412 1249 412C1259 412 1266 403 1266 390C1266 332 1223 126 1183 -2L1193 -9C1208 -4 1224 -1 1247 4L1260 6L1286 126C1304 209 1327 262 1371 319C1405 363 1432 384 1454 384C1469 384 1479 379 1490 365ZM1558 388L1565 368L1597 389C1634 412 1637 414 1644 414C1654 414 1662 404 1662 391C1662 384 1658 361 1654 347L1588 107C1580 76 1575 49 1575 30C1575 6 1586 -9 1605 -9C1631 -9 1667 12 1765 85L1755 103L1729 86C1700 67 1677 56 1668 56C1661 56 1655 66 1655 76C1655 86 1657 95 1662 116L1739 420C1743 437 1745 448 1745 456C1745 473 1736 482 1720 482C1698 482 1661 461 1586 408ZM1752 712C1723 712 1694 679 1694 645C1694 620 1709 604 1733 604C1764 604 1788 633 1788 671C1788 695 1773 712 1752 712ZM1818 152C1818 46 1863 -11 1946 -11C2001 -11 2061 15 2106 57C2168 116 2212 230 2212 331C2212 425 2162 482 2079 482C1975 482 1818 382 1818 152ZM2042 444C2103 444 2136 399 2136 315C2136 219 2105 113 2061 60C2043 39 2017 27 1986 27C1928 27 1894 72 1894 151C1894 264 1933 387 1982 427C1995 438 2018 444 2042 444ZM2727 722L2715 733C2663 707 2627 698 2555 691L2551 670L2599 670C2623 670 2633 663 2633 646C2633 638 2632 629 2631 622L2603 468C2573 477 2546 482 2521 482C2452 482 2358 410 2312 323C2281 265 2261 170 2261 86C2261 21 2276 -11 2305 -11C2332 -11 2369 6 2403 33C2457 77 2490 116 2557 217L2534 126C2523 82 2518 50 2518 24C2518 3 2527 -9 2544 -9C2561 -9 2585 3 2619 28L2700 88L2690 107L2646 76C2632 66 2616 59 2607 59C2599 59 2593 68 2593 82C2593 90 2594 99 2601 128ZM2358 59C2342 59 2333 73 2333 98C2333 224 2379 380 2428 418C2441 428 2460 433 2487 433C2531 433 2560 427 2593 410L2581 351C2544 171 2403 59 2358 59ZM2760 152C2760 46 2805 -11 2888 -11C2943 -11 3003 15 3048 57C3110 116 3154 230 3154 331C3154 425 3104 482 3021 482C2917 482 2760 382 2760 152ZM2984 444C3045 444 3078 399 3078 315C3078 219 3047 113 3003 60C2985 39 2959 27 2928 27C2870 27 2836 72 2836 151C2836 264 2875 387 2924 427C2937 438 2960 444 2984 444Z" stroke="rgb(0,0,0)" stroke-opacity="1" stroke-width="8" fill="rgb(0,0,0)" fill-opacity="1"></path></g></g></g></g></svg>