<svg xmlns="http://www.w3.org/2000/svg" xmlns:xlink="http://www.w3.org/1999/xlink" width="197.9499969482422" height="105" style="width:197.9499969482422px;height:105px;font-family:Asana-Math, Asana;background:#FFF;"><g><g><g><g transform="matrix(1,0,0,1,2,27)"><path transform="matrix(0.017,0,0,-0.017,0,0)" d="M4587 88C4572 77 4547 55 4526 55C4487 55 4455 188 4445 219C4411 326 4323 670 4306 689C4298 699 4289 702 4279 702C4242 702 4172 669 4142 656L4139 648C4142 643 4144 639 4150 637C4166 642 4195 653 4211 653C4263 653 4299 500 4310 460C4207 320 4136 161 4070 -2L4082 -16C4105 -5 4129 4 4153 13C4170 159 4244 308 4315 428L4323 425C4341 363 4426 12 4447 -6C4455 -13 4463 -16 4472 -16C4515 -16 4572 45 4599 74L4600 80C4596 83 4594 88 4587 88Z" stroke="rgb(0,0,0)" stroke-opacity="1" stroke-width="8" fill="rgb(0,0,0)" fill-opacity="1"></path></g></g><g><g transform="matrix(1,0,0,1,85.33746337890625,27)"><path transform="matrix(0.017,0,0,-0.017,0,0)" d="M604 347L604 406L65 406L65 347ZM604 134L604 193L65 193L65 134Z" stroke="rgb(0,0,0)" stroke-opacity="1" stroke-width="8" fill="rgb(0,0,0)" fill-opacity="1"></path></g></g><g><g><g><g><g transform="matrix(1,0,0,1,103.92498779296875,15)"><path transform="matrix(0.017,0,0,-0.017,0,0)" d="M166 420C187 420 203 421 229 424C118 304 76 221 76 121C76 44 122 -11 186 -11C324 -11 477 236 477 384C477 441 451 482 415 482C402 482 390 478 382 470L332 423L343 404C352 410 361 413 370 413C397 413 413 390 413 350C413 202 316 39 228 39C179 39 148 81 148 146C148 251 187 342 285 464L275 482C255 473 242 470 214 470C186 470 144 472 115 475L103 476C97 477 92 477 91 477C79 477 70 475 59 470C45 443 34 407 21 352L43 352L60 394C67 411 87 422 111 422C144 422 128 420 166 420Z" stroke="rgb(0,0,0)" stroke-opacity="1" stroke-width="8" fill="rgb(0,0,0)" fill-opacity="1"></path></g></g></g></g><g><g><g><g transform="matrix(1,0,0,1,103.5,40)"><path transform="matrix(0.017,0,0,-0.017,0,0)" d="M345 437L329 437L350 549C366 635 394 673 440 673C470 673 497 658 512 634L522 638C527 654 537 685 545 705L550 720C534 727 503 733 480 733C469 733 453 730 445 726C421 715 339 654 316 630C294 608 282 578 271 521L256 442C215 422 195 414 170 405L165 383L246 383L237 327C207 132 170 -54 148 -123C130 -182 100 -213 64 -213C41 -213 30 -206 12 -184L-2 -188C-6 -211 -20 -259 -25 -268C-16 -273 -1 -276 10 -276C51 -276 105 -245 144 -198C215 -114 235 -18 319 383L423 383C427 402 434 425 440 439L436 446C407 439 408 437 345 437Z" stroke="rgb(0,0,0)" stroke-opacity="1" stroke-width="8" fill="rgb(0,0,0)" fill-opacity="1"></path></g></g></g></g><line style="fill:none;stroke-width:1px;stroke:rgb(0, 0, 0);" x1="103.5" y1="22.550003051757812" x2="112.85000038146973" y2="22.550003051757812"></line></g></g><g></g><g><g><g transform="matrix(1,0,0,1,2,80)"><path transform="matrix(0.017,0,0,-0.017,0,0)" d="M166 420C187 420 203 421 229 424C118 304 76 221 76 121C76 44 122 -11 186 -11C324 -11 477 236 477 384C477 441 451 482 415 482C402 482 390 478 382 470L332 423L343 404C352 410 361 413 370 413C397 413 413 390 413 350C413 202 316 39 228 39C179 39 148 81 148 146C148 251 187 342 285 464L275 482C255 473 242 470 214 470C186 470 144 472 115 475L103 476C97 477 92 477 91 477C79 477 70 475 59 470C45 443 34 407 21 352L43 352L60 394C67 411 87 422 111 422C144 422 128 420 166 420Z" stroke="rgb(0,0,0)" stroke-opacity="1" stroke-width="8" fill="rgb(0,0,0)" fill-opacity="1"></path></g></g><g><g transform="matrix(1,0,0,1,13.887451171875,80)"><path transform="matrix(0.017,0,0,-0.017,0,0)" d="M123 111C93 111 66 83 66 53C66 23 93 -5 122 -5C154 -5 182 22 182 53C182 83 154 111 123 111ZM123 456C93 456 66 428 66 398C66 368 93 340 122 340C154 340 182 367 182 397C182 428 154 456 123 456Z" stroke="rgb(0,0,0)" stroke-opacity="1" stroke-width="8" fill="rgb(0,0,0)" fill-opacity="1"></path></g></g><g><g transform="matrix(1,0,0,1,21.52496337890625,80)"><path transform="matrix(0.017,0,0,-0.017,0,0)" d="M415 420C436 420 452 421 478 424C367 304 325 221 325 121C325 44 371 -11 435 -11C573 -11 726 236 726 384C726 441 700 482 664 482C651 482 639 478 631 470L581 423L592 404C601 410 610 413 619 413C646 413 662 390 662 350C662 202 565 39 477 39C428 39 397 81 397 146C397 251 436 342 534 464L524 482C504 473 491 470 463 470C435 470 393 472 364 475L352 476C346 477 341 477 340 477C328 477 319 475 308 470C294 443 283 407 270 352L292 352L309 394C316 411 336 422 360 422C393 422 377 420 415 420ZM1076 111L1052 94C999 56 951 36 915 36C868 36 839 73 839 133C839 158 842 185 847 214C864 218 973 248 998 259C1083 296 1122 342 1122 404C1122 451 1088 482 1038 482C970 496 860 423 823 349C793 299 763 180 763 113C763 35 807 -11 879 -11C936 -11 992 17 1084 92ZM861 274C878 343 898 386 927 412C945 428 976 440 1000 440C1029 440 1048 420 1048 388C1048 344 1013 297 961 272C933 258 897 247 852 237ZM1387 722L1375 733C1323 707 1287 698 1215 691L1211 670L1259 670C1283 670 1293 663 1293 648C1293 645 1293 640 1290 622C1279 567 1206 182 1191 132C1178 82 1172 52 1172 31C1172 6 1183 -9 1202 -9C1228 -9 1264 12 1362 85L1352 103L1326 86C1297 67 1275 56 1265 56C1258 56 1252 66 1252 76C1252 82 1253 89 1256 104ZM1430 152C1430 46 1475 -11 1558 -11C1613 -11 1673 15 1718 57C1780 116 1824 230 1824 331C1824 425 1774 482 1691 482C1587 482 1430 382 1430 152ZM1654 444C1715 444 1748 399 1748 315C1748 219 1717 113 1673 60C1655 39 1629 27 1598 27C1540 27 1506 72 1506 151C1506 264 1545 387 1594 427C1607 438 1630 444 1654 444ZM2198 330L2221 330C2229 395 2236 432 2245 458C2221 473 2186 482 2149 482C2104 483 2031 463 1974 400C1920 352 1881 241 1881 136C1881 40 1923 -11 2003 -11C2057 -11 2105 9 2160 54L2210 95L2202 115L2187 105C2115 57 2077 40 2042 40C1986 40 1957 80 1957 159C1957 267 1992 371 2041 409C2062 425 2086 433 2117 433C2162 433 2198 414 2198 390ZM2296 388L2303 368L2335 389C2372 412 2375 414 2382 414C2392 414 2400 404 2400 391C2400 384 2396 361 2392 347L2326 107C2318 76 2313 49 2313 30C2313 6 2324 -9 2343 -9C2369 -9 2405 12 2503 85L2493 103L2467 86C2438 67 2415 56 2406 56C2399 56 2393 66 2393 76C2393 86 2395 95 2400 116L2477 420C2481 437 2483 448 2483 456C2483 473 2474 482 2458 482C2436 482 2399 461 2324 408ZM2490 712C2461 712 2432 679 2432 645C2432 620 2447 604 2471 604C2502 604 2526 633 2526 671C2526 695 2511 712 2490 712ZM3022 722L3010 733C2958 707 2922 698 2850 691L2846 670L2894 670C2918 670 2928 663 2928 646C2928 638 2927 629 2926 622L2898 468C2868 477 2841 482 2816 482C2747 482 2653 410 2607 323C2576 265 2556 170 2556 86C2556 21 2571 -11 2600 -11C2627 -11 2664 6 2698 33C2752 77 2785 116 2852 217L2829 126C2818 82 2813 50 2813 24C2813 3 2822 -9 2839 -9C2856 -9 2880 3 2914 28L2995 88L2985 107L2941 76C2927 66 2911 59 2902 59C2894 59 2888 68 2888 82C2888 90 2889 99 2896 128ZM2653 59C2637 59 2628 73 2628 98C2628 224 2674 380 2723 418C2736 428 2755 433 2782 433C2826 433 2855 427 2888 410L2876 351C2839 171 2698 59 2653 59ZM3309 204L3280 77C3276 60 3274 42 3274 26C3274 4 3283 -9 3298 -9C3321 -9 3362 17 3444 85L3437 106C3413 86 3384 59 3362 59C3353 59 3347 68 3347 82C3347 87 3347 90 3348 93L3440 472L3430 481L3397 463C3356 478 3339 482 3312 482C3284 482 3264 477 3237 464C3175 433 3142 403 3117 354C3073 265 3042 145 3042 67C3042 23 3057 -11 3076 -11C3113 -11 3193 41 3309 204ZM3357 414C3335 305 3316 253 3282 201C3225 117 3164 59 3132 59C3120 59 3114 72 3114 99C3114 163 3142 280 3177 360C3201 415 3224 433 3272 433C3295 433 3313 429 3357 414ZM3964 722L3952 733C3900 707 3864 698 3792 691L3788 670L3836 670C3860 670 3870 663 3870 646C3870 638 3869 629 3868 622L3840 468C3810 477 3783 482 3758 482C3689 482 3595 410 3549 323C3518 265 3498 170 3498 86C3498 21 3513 -11 3542 -11C3569 -11 3606 6 3640 33C3694 77 3727 116 3794 217L3771 126C3760 82 3755 50 3755 24C3755 3 3764 -9 3781 -9C3798 -9 3822 3 3856 28L3937 88L3927 107L3883 76C3869 66 3853 59 3844 59C3836 59 3830 68 3830 82C3830 90 3831 99 3838 128ZM3595 59C3579 59 3570 73 3570 98C3570 224 3616 380 3665 418C3678 428 3697 433 3724 433C3768 433 3797 427 3830 410L3818 351C3781 171 3640 59 3595 59ZM4712 722L4700 733C4648 707 4612 698 4540 691L4536 670L4584 670C4608 670 4618 663 4618 646C4618 638 4617 629 4616 622L4588 468C4558 477 4531 482 4506 482C4437 482 4343 410 4297 323C4266 265 4246 170 4246 86C4246 21 4261 -11 4290 -11C4317 -11 4354 6 4388 33C4442 77 4475 116 4542 217L4519 126C4508 82 4503 50 4503 24C4503 3 4512 -9 4529 -9C4546 -9 4570 3 4604 28L4685 88L4675 107L4631 76C4617 66 4601 59 4592 59C4584 59 4578 68 4578 82C4578 90 4579 99 4586 128ZM4343 59C4327 59 4318 73 4318 98C4318 224 4364 380 4413 418C4426 428 4445 433 4472 433C4516 433 4545 427 4578 410L4566 351C4529 171 4388 59 4343 59ZM5056 111L5032 94C4979 56 4931 36 4895 36C4848 36 4819 73 4819 133C4819 158 4822 185 4827 214C4844 218 4953 248 4978 259C5063 296 5102 342 5102 404C5102 451 5068 482 5018 482C4950 496 4840 423 4803 349C4773 299 4743 180 4743 113C4743 35 4787 -11 4859 -11C4916 -11 4972 17 5064 92ZM4841 274C4858 343 4878 386 4907 412C4925 428 4956 440 4980 440C5009 440 5028 420 5028 388C5028 344 4993 297 4941 272C4913 258 4877 247 4832 237ZM5541 -11C5597 -11 5712 62 5755 125C5796 186 5830 296 5830 371C5830 438 5807 482 5771 482C5729 482 5676 456 5624 409C5583 374 5563 348 5527 289L5551 408C5554 425 5556 440 5556 452C5556 471 5548 482 5534 482C5513 482 5475 461 5401 408L5373 388L5380 368L5412 389C5440 407 5451 412 5460 412C5470 412 5477 403 5477 389C5477 381 5475 361 5473 351L5415 8C5405 -52 5386 -143 5366 -233L5358 -270L5365 -276C5386 -269 5406 -264 5438 -259L5480 3C5501 -4 5523 -11 5541 -11ZM5508 165C5530 293 5637 424 5720 424C5746 424 5758 402 5758 356C5758 275 5718 156 5665 80C5645 51 5613 36 5572 36C5541 36 5516 43 5490 59ZM6232 365C6235 403 6240 435 6248 476C6237 481 6233 482 6228 482C6197 482 6166 458 6130 407C6091 351 6052 291 6036 256L6068 408C6072 425 6074 438 6074 450C6074 470 6066 482 6051 482C6030 482 5992 461 5918 408L5890 388L5897 368L5929 389C5957 407 5968 412 5977 412C5987 412 5994 403 5994 390C5994 332 5951 126 5911 -2L5921 -9C5936 -4 5952 -1 5975 4L5988 6L6014 126C6032 209 6055 262 6099 319C6133 363 6160 384 6182 384C6197 384 6207 379 6218 365ZM6269 152C6269 46 6314 -11 6397 -11C6452 -11 6512 15 6557 57C6619 116 6663 230 6663 331C6663 425 6613 482 6530 482C6426 482 6269 382 6269 152ZM6493 444C6554 444 6587 399 6587 315C6587 219 6556 113 6512 60C6494 39 6468 27 6437 27C6379 27 6345 72 6345 151C6345 264 6384 387 6433 427C6446 438 6469 444 6493 444ZM6871 -11C6927 -11 7042 62 7085 125C7126 186 7160 296 7160 371C7160 438 7137 482 7101 482C7059 482 7006 456 6954 409C6913 374 6893 348 6857 289L6881 408C6884 425 6886 440 6886 452C6886 471 6878 482 6864 482C6843 482 6805 461 6731 408L6703 388L6710 368L6742 389C6770 407 6781 412 6790 412C6800 412 6807 403 6807 389C6807 381 6805 361 6803 351L6745 8C6735 -52 6716 -143 6696 -233L6688 -270L6695 -276C6716 -269 6736 -264 6768 -259L6810 3C6831 -4 6853 -11 6871 -11ZM6838 165C6860 293 6967 424 7050 424C7076 424 7088 402 7088 356C7088 275 7048 156 6995 80C6975 51 6943 36 6902 36C6871 36 6846 43 6820 59ZM7465 204L7436 77C7432 60 7430 42 7430 26C7430 4 7439 -9 7454 -9C7477 -9 7518 17 7600 85L7593 106C7569 86 7540 59 7518 59C7509 59 7503 68 7503 82C7503 87 7503 90 7504 93L7596 472L7586 481L7553 463C7512 478 7495 482 7468 482C7440 482 7420 477 7393 464C7331 433 7298 403 7273 354C7229 265 7198 145 7198 67C7198 23 7213 -11 7232 -11C7269 -11 7349 41 7465 204ZM7513 414C7491 305 7472 253 7438 201C7381 117 7320 59 7288 59C7276 59 7270 72 7270 99C7270 163 7298 280 7333 360C7357 415 7380 433 7428 433C7451 433 7469 429 7513 414ZM7912 482C7845 482 7692 419 7692 259C7692 182 7737 136 7814 136C7822 136 7833 136 7844 137L7803 99C7787 84 7776 66 7776 52C7776 42 7783 31 7797 19C7728 -4 7600 -48 7600 -159C7600 -230 7670 -276 7779 -276C7908 -276 8021 -204 8021 -121C8021 -85 8000 -49 7957 -14L7897 35C7863 62 7850 81 7850 100C7850 114 7865 128 7877 146C7975 170 8046 253 8046 342C8046 357 8043 376 8042 380C8059 378 8067 378 8076 378C8093 378 8103 379 8126 382L8135 427L8132 433C8104 426 8084 424 8030 424C8030 425 8006 482 7912 482ZM7813 1L7890 -58C7936 -94 7955 -121 7955 -154C7955 -206 7886 -248 7803 -248C7721 -248 7664 -206 7664 -145C7664 -43 7774 -11 7813 1ZM7887 448C7945 448 7974 412 7974 341C7974 238 7926 168 7856 168C7795 168 7763 209 7763 288C7763 383 7814 448 7887 448ZM8407 204L8378 77C8374 60 8372 42 8372 26C8372 4 8381 -9 8396 -9C8419 -9 8460 17 8542 85L8535 106C8511 86 8482 59 8460 59C8451 59 8445 68 8445 82C8445 87 8445 90 8446 93L8538 472L8528 481L8495 463C8454 478 8437 482 8410 482C8382 482 8362 477 8335 464C8273 433 8240 403 8215 354C8171 265 8140 145 8140 67C8140 23 8155 -11 8174 -11C8211 -11 8291 41 8407 204ZM8455 414C8433 305 8414 253 8380 201C8323 117 8262 59 8230 59C8218 59 8212 72 8212 99C8212 163 8240 280 8275 360C8299 415 8322 433 8370 433C8393 433 8411 429 8455 414ZM8921 330L8944 330C8952 395 8959 432 8968 458C8944 473 8909 482 8872 482C8827 483 8754 463 8697 400C8643 352 8604 241 8604 136C8604 40 8646 -11 8726 -11C8780 -11 8828 9 8883 54L8933 95L8925 115L8910 105C8838 57 8800 40 8765 40C8709 40 8680 80 8680 159C8680 267 8715 371 8764 409C8785 425 8809 433 8840 433C8885 433 8921 414 8921 390ZM9019 388L9026 368L9058 389C9095 412 9098 414 9105 414C9115 414 9123 404 9123 391C9123 384 9119 361 9115 347L9049 107C9041 76 9036 49 9036 30C9036 6 9047 -9 9066 -9C9092 -9 9128 12 9226 85L9216 103L9190 86C9161 67 9138 56 9129 56C9122 56 9116 66 9116 76C9116 86 9118 95 9123 116L9200 420C9204 437 9206 448 9206 456C9206 473 9197 482 9181 482C9159 482 9122 461 9047 408ZM9213 712C9184 712 9155 679 9155 645C9155 620 9170 604 9194 604C9225 604 9249 633 9249 671C9249 695 9234 712 9213 712ZM9279 152C9279 46 9324 -11 9407 -11C9462 -11 9522 15 9567 57C9629 116 9673 230 9673 331C9673 425 9623 482 9540 482C9436 482 9279 382 9279 152ZM9503 444C9564 444 9597 399 9597 315C9597 219 9566 113 9522 60C9504 39 9478 27 9447 27C9389 27 9355 72 9355 151C9355 264 9394 387 9443 427C9456 438 9479 444 9503 444ZM9729 388L9736 368L9768 389C9805 412 9808 414 9815 414C9826 414 9833 404 9833 389C9833 338 9792 145 9751 2L9758 -9C9783 -2 9806 4 9828 8C9847 134 9868 199 9914 268C9968 352 10043 414 10088 414C10099 414 10105 405 10105 390C10105 372 10102 351 10094 319L10042 107C10033 70 10029 47 10029 31C10029 6 10040 -9 10059 -9C10085 -9 10121 12 10219 85L10209 103L10183 86C10154 67 10132 56 10122 56C10115 56 10109 65 10109 76C10109 81 10110 92 10111 96L10177 372C10184 401 10188 429 10188 446C10188 469 10177 482 10157 482C10115 482 10046 444 9987 389C9949 354 9921 320 9869 247L9907 408C9911 426 9913 438 9913 449C9913 470 9905 482 9890 482C9869 482 9830 460 9757 408Z" stroke="rgb(0,0,0)" stroke-opacity="1" stroke-width="8" fill="rgb(0,0,0)" fill-opacity="1"></path></g></g></g><g><g><g transform="matrix(1,0,0,1,2,100)"><path transform="matrix(0.017,0,0,-0.017,0,0)" d="M345 437L329 437L350 549C366 635 394 673 440 673C470 673 497 658 512 634L522 638C527 654 537 685 545 705L550 720C534 727 503 733 480 733C469 733 453 730 445 726C421 715 339 654 316 630C294 608 282 578 271 521L256 442C215 422 195 414 170 405L165 383L246 383L237 327C207 132 170 -54 148 -123C130 -182 100 -213 64 -213C41 -213 30 -206 12 -184L-2 -188C-6 -211 -20 -259 -25 -268C-16 -273 -1 -276 10 -276C51 -276 105 -245 144 -198C215 -114 235 -18 319 383L423 383C427 402 434 425 440 439L436 446C407 439 408 437 345 437Z" stroke="rgb(0,0,0)" stroke-opacity="1" stroke-width="8" fill="rgb(0,0,0)" fill-opacity="1"></path></g></g><g><g transform="matrix(1,0,0,1,14.75,100)"><path transform="matrix(0.017,0,0,-0.017,0,0)" d="M123 111C93 111 66 83 66 53C66 23 93 -5 122 -5C154 -5 182 22 182 53C182 83 154 111 123 111ZM123 456C93 456 66 428 66 398C66 368 93 340 122 340C154 340 182 367 182 397C182 428 154 456 123 456Z" stroke="rgb(0,0,0)" stroke-opacity="1" stroke-width="8" fill="rgb(0,0,0)" fill-opacity="1"></path></g></g><g><g transform="matrix(1,0,0,1,22.387451171875,100)"><path transform="matrix(0.017,0,0,-0.017,0,0)" d="M594 437L578 437L599 549C615 635 643 673 689 673C719 673 746 658 761 634L771 638C776 654 786 685 794 705L799 720C783 727 752 733 729 733C718 733 702 730 694 726C670 715 588 654 565 630C543 608 531 578 520 521L505 442C464 422 444 414 419 405L414 383L495 383L486 327C456 132 419 -54 397 -123C379 -182 349 -213 313 -213C290 -213 279 -206 261 -184L247 -188C243 -211 229 -259 224 -268C233 -273 248 -276 259 -276C300 -276 354 -245 393 -198C464 -114 484 -18 568 383L672 383C676 402 683 425 689 439L685 446C656 439 657 437 594 437ZM1167 365C1170 403 1175 435 1183 476C1172 481 1168 482 1163 482C1132 482 1101 458 1065 407C1026 351 987 291 971 256L1003 408C1007 425 1009 438 1009 450C1009 470 1001 482 986 482C965 482 927 461 853 408L825 388L832 368L864 389C892 407 903 412 912 412C922 412 929 403 929 390C929 332 886 126 846 -2L856 -9C871 -4 887 -1 910 4L923 6L949 126C967 209 990 262 1034 319C1068 363 1095 384 1117 384C1132 384 1142 379 1153 365ZM1515 111L1491 94C1438 56 1390 36 1354 36C1307 36 1278 73 1278 133C1278 158 1281 185 1286 214C1303 218 1412 248 1437 259C1522 296 1561 342 1561 404C1561 451 1527 482 1477 482C1409 496 1299 423 1262 349C1232 299 1202 180 1202 113C1202 35 1246 -11 1318 -11C1375 -11 1431 17 1523 92ZM1300 274C1317 343 1337 386 1366 412C1384 428 1415 440 1439 440C1468 440 1487 420 1487 388C1487 344 1452 297 1400 272C1372 258 1336 247 1291 237ZM1917 330L1940 330C1948 395 1955 432 1964 458C1940 473 1905 482 1868 482C1823 483 1750 463 1693 400C1639 352 1600 241 1600 136C1600 40 1642 -11 1722 -11C1776 -11 1824 9 1879 54L1929 95L1921 115L1906 105C1834 57 1796 40 1761 40C1705 40 1676 80 1676 159C1676 267 1711 371 1760 409C1781 425 1805 433 1836 433C1881 433 1917 414 1917 390ZM2473 473L2466 482L2398 465L2388 414C2373 336 2348 268 2317 221C2258 130 2180 59 2140 59C2132 59 2127 68 2127 85C2127 99 2129 112 2134 137L2191 408C2194 424 2196 438 2196 451C2196 470 2187 482 2173 482C2153 482 2115 461 2041 408L2013 388L2020 368L2052 389C2080 407 2091 412 2100 412C2109 412 2117 403 2117 392C2117 388 2116 378 2115 374L2052 77C2050 68 2048 44 2048 30C2048 7 2063 -11 2083 -11C2146 -11 2267 101 2351 239L2314 97C2307 73 2303 46 2303 31C2303 6 2314 -9 2333 -9C2359 -9 2395 12 2493 85L2483 103L2457 86C2433 70 2407 59 2396 59C2388 59 2383 66 2383 76C2383 112 2458 416 2473 473ZM2864 111L2840 94C2787 56 2739 36 2703 36C2656 36 2627 73 2627 133C2627 158 2630 185 2635 214C2652 218 2761 248 2786 259C2871 296 2910 342 2910 404C2910 451 2876 482 2826 482C2758 496 2648 423 2611 349C2581 299 2551 180 2551 113C2551 35 2595 -11 2667 -11C2724 -11 2780 17 2872 92ZM2649 274C2666 343 2686 386 2715 412C2733 428 2764 440 2788 440C2817 440 2836 420 2836 388C2836 344 2801 297 2749 272C2721 258 2685 247 2640 237ZM2948 388L2955 368L2987 389C3024 412 3027 414 3034 414C3045 414 3052 404 3052 389C3052 338 3011 145 2970 2L2977 -9C3002 -2 3025 4 3047 8C3066 134 3087 199 3133 268C3187 352 3262 414 3307 414C3318 414 3324 405 3324 390C3324 372 3321 351 3313 319L3261 107C3252 70 3248 47 3248 31C3248 6 3259 -9 3278 -9C3304 -9 3340 12 3438 85L3428 103L3402 86C3373 67 3351 56 3341 56C3334 56 3328 65 3328 76C3328 81 3329 92 3330 96L3396 372C3403 401 3407 429 3407 446C3407 469 3396 482 3376 482C3334 482 3265 444 3206 389C3168 354 3140 320 3088 247L3126 408C3130 426 3132 438 3132 449C3132 470 3124 482 3109 482C3088 482 3049 460 2976 408ZM3821 330L3844 330C3852 395 3859 432 3868 458C3844 473 3809 482 3772 482C3727 483 3654 463 3597 400C3543 352 3504 241 3504 136C3504 40 3546 -11 3626 -11C3680 -11 3728 9 3783 54L3833 95L3825 115L3810 105C3738 57 3700 40 3665 40C3609 40 3580 80 3580 159C3580 267 3615 371 3664 409C3685 425 3709 433 3740 433C3785 433 3821 414 3821 390ZM3919 388L3926 368L3958 389C3995 412 3998 414 4005 414C4015 414 4023 404 4023 391C4023 384 4019 361 4015 347L3949 107C3941 76 3936 49 3936 30C3936 6 3947 -9 3966 -9C3992 -9 4028 12 4126 85L4116 103L4090 86C4061 67 4038 56 4029 56C4022 56 4016 66 4016 76C4016 86 4018 95 4023 116L4100 420C4104 437 4106 448 4106 456C4106 473 4097 482 4081 482C4059 482 4022 461 3947 408ZM4113 712C4084 712 4055 679 4055 645C4055 620 4070 604 4094 604C4125 604 4149 633 4149 671C4149 695 4134 712 4113 712ZM4433 204L4404 77C4400 60 4398 42 4398 26C4398 4 4407 -9 4422 -9C4445 -9 4486 17 4568 85L4561 106C4537 86 4508 59 4486 59C4477 59 4471 68 4471 82C4471 87 4471 90 4472 93L4564 472L4554 481L4521 463C4480 478 4463 482 4436 482C4408 482 4388 477 4361 464C4299 433 4266 403 4241 354C4197 265 4166 145 4166 67C4166 23 4181 -11 4200 -11C4237 -11 4317 41 4433 204ZM4481 414C4459 305 4440 253 4406 201C4349 117 4288 59 4256 59C4244 59 4238 72 4238 99C4238 163 4266 280 4301 360C4325 415 4348 433 4396 433C4419 433 4437 429 4481 414Z" stroke="rgb(0,0,0)" stroke-opacity="1" stroke-width="8" fill="rgb(0,0,0)" fill-opacity="1"></path></g></g></g></g></svg>