<svg xmlns="http://www.w3.org/2000/svg" xmlns:xlink="http://www.w3.org/1999/xlink" width="144.7375030517578" height="106" style="width:144.7375030517578px;height:106px;font-family:Asana-Math, Asana;background:#FFF;"><g><g><g><g transform="matrix(1,0,0,1,2,31)"><path transform="matrix(0.017,0,0,-0.017,0,0)" d="M2656 420C2677 420 2693 421 2719 424C2608 304 2566 221 2566 121C2566 44 2612 -11 2676 -11C2814 -11 2967 236 2967 384C2967 441 2941 482 2905 482C2892 482 2880 478 2872 470L2822 423L2833 404C2842 410 2851 413 2860 413C2887 413 2903 390 2903 350C2903 202 2806 39 2718 39C2669 39 2638 81 2638 146C2638 251 2677 342 2775 464L2765 482C2745 473 2732 470 2704 470C2676 470 2634 472 2605 475L2593 476C2587 477 2582 477 2581 477C2569 477 2560 475 2549 470C2535 443 2524 407 2511 352L2533 352L2550 394C2557 411 2577 422 2601 422C2634 422 2618 420 2656 420Z" stroke="rgb(0,0,0)" stroke-opacity="1" stroke-width="8" fill="rgb(0,0,0)" fill-opacity="1"></path></g></g><g><g transform="matrix(1,0,0,1,57.92498779296875,31)"><path transform="matrix(0.017,0,0,-0.017,0,0)" d="M604 347L604 406L65 406L65 347ZM604 134L604 193L65 193L65 134Z" stroke="rgb(0,0,0)" stroke-opacity="1" stroke-width="8" fill="rgb(0,0,0)" fill-opacity="1"></path></g></g><g><g><g><g><g transform="matrix(1,0,0,1,76.0875244140625,19)"><path transform="matrix(0.017,0,0,-0.017,0,0)" d="M603 88C588 77 563 55 542 55C503 55 471 188 461 219C427 326 339 670 322 689C314 699 305 702 295 702C258 702 188 669 158 656L155 648C158 643 160 639 166 637C182 642 211 653 227 653C279 653 315 500 326 460C223 320 152 161 86 -2L98 -16C121 -5 145 4 169 13C186 159 260 308 331 428L339 425C357 363 442 12 463 -6C471 -13 479 -16 488 -16C531 -16 588 45 615 74L616 80C612 83 610 88 603 88Z" stroke="rgb(0,0,0)" stroke-opacity="1" stroke-width="8" fill="rgb(0,0,0)" fill-opacity="1"></path></g></g></g></g><g><g><g><g transform="matrix(1,0,0,1,76.1500244140625,44)"><path transform="matrix(0.017,0,0,-0.017,0,0)" d="M390 646L463 646C541 646 577 641 580 629C583 621 585 602 584 592L580 528L608 528L635 692L544 691C456 690 388 689 353 689C316 689 252 690 166 691L71 692L53 528L82 528L97 588C102 610 109 626 115 633C121 640 159 646 196 646L308 646L222 125C206 34 204 31 164 28L113 25L109 -3L166 -2C206 -1 235 0 251 0C270 0 301 -1 340 -2L384 -3L387 25L328 28C302 29 292 37 292 58C292 67 293 74 296 93Z" stroke="rgb(0,0,0)" stroke-opacity="1" stroke-width="8" fill="rgb(0,0,0)" fill-opacity="1"></path></g></g></g></g><line style="fill:none;stroke-width:1px;stroke:rgb(0, 0, 0);" x1="76.0875244140625" y1="26.550003051757812" x2="86.60002422332764" y2="26.550003051757812"></line></g></g><g></g><g><g><g transform="matrix(1,0,0,1,2,81)"><path transform="matrix(0.017,0,0,-0.017,0,0)" d="M603 88C588 77 563 55 542 55C503 55 471 188 461 219C427 326 339 670 322 689C314 699 305 702 295 702C258 702 188 669 158 656L155 648C158 643 160 639 166 637C182 642 211 653 227 653C279 653 315 500 326 460C223 320 152 161 86 -2L98 -16C121 -5 145 4 169 13C186 159 260 308 331 428L339 425C357 363 442 12 463 -6C471 -13 479 -16 488 -16C531 -16 588 45 615 74L616 80C612 83 610 88 603 88Z" stroke="rgb(0,0,0)" stroke-opacity="1" stroke-width="8" fill="rgb(0,0,0)" fill-opacity="1"></path></g></g><g><g transform="matrix(1,0,0,1,15.9124755859375,81)"><path transform="matrix(0.017,0,0,-0.017,0,0)" d="M123 111C93 111 66 83 66 53C66 23 93 -5 122 -5C154 -5 182 22 182 53C182 83 154 111 123 111ZM123 456C93 456 66 428 66 398C66 368 93 340 122 340C154 340 182 367 182 397C182 428 154 456 123 456Z" stroke="rgb(0,0,0)" stroke-opacity="1" stroke-width="8" fill="rgb(0,0,0)" fill-opacity="1"></path></g></g><g><g transform="matrix(1,0,0,1,23.54998779296875,81)"><path transform="matrix(0.017,0,0,-0.017,0,0)" d="M500 722L488 733C436 707 400 698 328 691L324 670L372 670C396 670 406 663 406 648C406 645 406 640 403 622C392 567 319 182 304 132C291 82 285 52 285 31C285 6 296 -9 315 -9C341 -9 377 12 475 85L465 103L439 86C410 67 388 56 378 56C371 56 365 66 365 76C365 82 366 89 369 104ZM543 152C543 46 588 -11 671 -11C726 -11 786 15 831 57C893 116 937 230 937 331C937 425 887 482 804 482C700 482 543 382 543 152ZM767 444C828 444 861 399 861 315C861 219 830 113 786 60C768 39 742 27 711 27C653 27 619 72 619 151C619 264 658 387 707 427C720 438 743 444 767 444ZM993 388L1000 368L1032 389C1069 412 1072 414 1079 414C1090 414 1097 404 1097 389C1097 338 1056 145 1015 2L1022 -9C1047 -2 1070 4 1092 8C1111 134 1132 199 1178 268C1232 352 1307 414 1352 414C1363 414 1369 405 1369 390C1369 372 1366 351 1358 319L1306 107C1297 70 1293 47 1293 31C1293 6 1304 -9 1323 -9C1349 -9 1385 12 1483 85L1473 103L1447 86C1418 67 1396 56 1386 56C1379 56 1373 65 1373 76C1373 81 1374 92 1375 96L1441 372C1448 401 1452 429 1452 446C1452 469 1441 482 1421 482C1379 482 1310 444 1251 389C1213 354 1185 320 1133 247L1171 408C1175 426 1177 438 1177 449C1177 470 1169 482 1154 482C1133 482 1094 460 1021 408ZM1799 482C1732 482 1579 419 1579 259C1579 182 1624 136 1701 136C1709 136 1720 136 1731 137L1690 99C1674 84 1663 66 1663 52C1663 42 1670 31 1684 19C1615 -4 1487 -48 1487 -159C1487 -230 1557 -276 1666 -276C1795 -276 1908 -204 1908 -121C1908 -85 1887 -49 1844 -14L1784 35C1750 62 1737 81 1737 100C1737 114 1752 128 1764 146C1862 170 1933 253 1933 342C1933 357 1930 376 1929 380C1946 378 1954 378 1963 378C1980 378 1990 379 2013 382L2022 427L2019 433C1991 426 1971 424 1917 424C1917 425 1893 482 1799 482ZM1700 1L1777 -58C1823 -94 1842 -121 1842 -154C1842 -206 1773 -248 1690 -248C1608 -248 1551 -206 1551 -145C1551 -43 1661 -11 1700 1ZM1774 448C1832 448 1861 412 1861 341C1861 238 1813 168 1743 168C1682 168 1650 209 1650 288C1650 383 1701 448 1774 448ZM2057 388L2064 368L2096 389C2133 412 2136 414 2143 414C2153 414 2161 404 2161 391C2161 384 2157 361 2153 347L2087 107C2079 76 2074 49 2074 30C2074 6 2085 -9 2104 -9C2130 -9 2166 12 2264 85L2254 103L2228 86C2199 67 2176 56 2167 56C2160 56 2154 66 2154 76C2154 86 2156 95 2161 116L2238 420C2242 437 2244 448 2244 456C2244 473 2235 482 2219 482C2197 482 2160 461 2085 408ZM2251 712C2222 712 2193 679 2193 645C2193 620 2208 604 2232 604C2263 604 2287 633 2287 671C2287 695 2272 712 2251 712ZM2425 390L2369 107C2368 99 2356 61 2356 31C2356 6 2367 -9 2386 -9C2421 -9 2456 11 2534 74L2565 99L2555 117L2510 86C2481 66 2461 56 2450 56C2441 56 2436 64 2436 76C2436 102 2450 183 2479 328L2492 390L2599 390L2610 440C2572 436 2538 434 2500 434C2516 528 2527 577 2545 631L2534 646C2514 634 2487 622 2456 610L2431 440C2387 419 2361 408 2343 403L2341 390ZM3124 473L3117 482L3049 465L3039 414C3024 336 2999 268 2968 221C2909 130 2831 59 2791 59C2783 59 2778 68 2778 85C2778 99 2780 112 2785 137L2842 408C2845 424 2847 438 2847 451C2847 470 2838 482 2824 482C2804 482 2766 461 2692 408L2664 388L2671 368L2703 389C2731 407 2742 412 2751 412C2760 412 2768 403 2768 392C2768 388 2767 378 2766 374L2703 77C2701 68 2699 44 2699 30C2699 7 2714 -11 2734 -11C2797 -11 2918 101 3002 239L2965 97C2958 73 2954 46 2954 31C2954 6 2965 -9 2984 -9C3010 -9 3046 12 3144 85L3134 103L3108 86C3084 70 3058 59 3047 59C3039 59 3034 66 3034 76C3034 112 3109 416 3124 473ZM3670 722L3658 733C3606 707 3570 698 3498 691L3494 670L3542 670C3566 670 3576 663 3576 646C3576 638 3575 629 3574 622L3546 468C3516 477 3489 482 3464 482C3395 482 3301 410 3255 323C3224 265 3204 170 3204 86C3204 21 3219 -11 3248 -11C3275 -11 3312 6 3346 33C3400 77 3433 116 3500 217L3477 126C3466 82 3461 50 3461 24C3461 3 3470 -9 3487 -9C3504 -9 3528 3 3562 28L3643 88L3633 107L3589 76C3575 66 3559 59 3550 59C3542 59 3536 68 3536 82C3536 90 3537 99 3544 128ZM3301 59C3285 59 3276 73 3276 98C3276 224 3322 380 3371 418C3384 428 3403 433 3430 433C3474 433 3503 427 3536 410L3524 351C3487 171 3346 59 3301 59ZM4418 722L4406 733C4354 707 4318 698 4246 691L4242 670L4290 670C4314 670 4324 663 4324 646C4324 638 4323 629 4322 622L4294 468C4264 477 4237 482 4212 482C4143 482 4049 410 4003 323C3972 265 3952 170 3952 86C3952 21 3967 -11 3996 -11C4023 -11 4060 6 4094 33C4148 77 4181 116 4248 217L4225 126C4214 82 4209 50 4209 24C4209 3 4218 -9 4235 -9C4252 -9 4276 3 4310 28L4391 88L4381 107L4337 76C4323 66 4307 59 4298 59C4290 59 4284 68 4284 82C4284 90 4285 99 4292 128ZM4049 59C4033 59 4024 73 4024 98C4024 224 4070 380 4119 418C4132 428 4151 433 4178 433C4222 433 4251 427 4284 410L4272 351C4235 171 4094 59 4049 59ZM4762 111L4738 94C4685 56 4637 36 4601 36C4554 36 4525 73 4525 133C4525 158 4528 185 4533 214C4550 218 4659 248 4684 259C4769 296 4808 342 4808 404C4808 451 4774 482 4724 482C4656 496 4546 423 4509 349C4479 299 4449 180 4449 113C4449 35 4493 -11 4565 -11C4622 -11 4678 17 4770 92ZM4547 274C4564 343 4584 386 4613 412C4631 428 4662 440 4686 440C4715 440 4734 420 4734 388C4734 344 4699 297 4647 272C4619 258 4583 247 4538 237ZM5088 152C5088 46 5133 -11 5216 -11C5271 -11 5331 15 5376 57C5438 116 5482 230 5482 331C5482 425 5432 482 5349 482C5245 482 5088 382 5088 152ZM5312 444C5373 444 5406 399 5406 315C5406 219 5375 113 5331 60C5313 39 5287 27 5256 27C5198 27 5164 72 5164 151C5164 264 5203 387 5252 427C5265 438 5288 444 5312 444ZM5538 388L5545 368L5577 389C5614 412 5617 414 5624 414C5635 414 5642 404 5642 389C5642 338 5601 145 5560 2L5567 -9C5592 -2 5615 4 5637 8C5656 134 5677 199 5723 268C5777 352 5852 414 5897 414C5908 414 5914 405 5914 390C5914 372 5911 351 5903 319L5851 107C5842 70 5838 47 5838 31C5838 6 5849 -9 5868 -9C5894 -9 5930 12 6028 85L6018 103L5992 86C5963 67 5941 56 5931 56C5924 56 5918 65 5918 76C5918 81 5919 92 5920 96L5986 372C5993 401 5997 429 5997 446C5997 469 5986 482 5966 482C5924 482 5855 444 5796 389C5758 354 5730 320 5678 247L5716 408C5720 426 5722 438 5722 449C5722 470 5714 482 5699 482C5678 482 5639 460 5566 408ZM6552 722L6540 733C6488 707 6452 698 6380 691L6376 670L6424 670C6448 670 6458 663 6458 646C6458 638 6457 629 6456 622L6428 468C6398 477 6371 482 6346 482C6277 482 6183 410 6137 323C6106 265 6086 170 6086 86C6086 21 6101 -11 6130 -11C6157 -11 6194 6 6228 33C6282 77 6315 116 6382 217L6359 126C6348 82 6343 50 6343 24C6343 3 6352 -9 6369 -9C6386 -9 6410 3 6444 28L6525 88L6515 107L6471 76C6457 66 6441 59 6432 59C6424 59 6418 68 6418 82C6418 90 6419 99 6426 128ZM6183 59C6167 59 6158 73 6158 98C6158 224 6204 380 6253 418C6266 428 6285 433 6312 433C6356 433 6385 427 6418 410L6406 351C6369 171 6228 59 6183 59ZM6839 204L6810 77C6806 60 6804 42 6804 26C6804 4 6813 -9 6828 -9C6851 -9 6892 17 6974 85L6967 106C6943 86 6914 59 6892 59C6883 59 6877 68 6877 82C6877 87 6877 90 6878 93L6970 472L6960 481L6927 463C6886 478 6869 482 6842 482C6814 482 6794 477 6767 464C6705 433 6672 403 6647 354C6603 265 6572 145 6572 67C6572 23 6587 -11 6606 -11C6643 -11 6723 41 6839 204ZM6887 414C6865 305 6846 253 6812 201C6755 117 6694 59 6662 59C6650 59 6644 72 6644 99C6644 163 6672 280 6707 360C6731 415 6754 433 6802 433C6825 433 6843 429 6887 414Z" stroke="rgb(0,0,0)" stroke-opacity="1" stroke-width="8" fill="rgb(0,0,0)" fill-opacity="1"></path></g></g></g><g><g><g transform="matrix(1,0,0,1,2,101)"><path transform="matrix(0.017,0,0,-0.017,0,0)" d="M390 646L463 646C541 646 577 641 580 629C583 621 585 602 584 592L580 528L608 528L635 692L544 691C456 690 388 689 353 689C316 689 252 690 166 691L71 692L53 528L82 528L97 588C102 610 109 626 115 633C121 640 159 646 196 646L308 646L222 125C206 34 204 31 164 28L113 25L109 -3L166 -2C206 -1 235 0 251 0C270 0 301 -1 340 -2L384 -3L387 25L328 28C302 29 292 37 292 58C292 67 293 74 296 93Z" stroke="rgb(0,0,0)" stroke-opacity="1" stroke-width="8" fill="rgb(0,0,0)" fill-opacity="1"></path></g></g><g><g transform="matrix(1,0,0,1,15.7750244140625,101)"><path transform="matrix(0.017,0,0,-0.017,0,0)" d="M123 111C93 111 66 83 66 53C66 23 93 -5 122 -5C154 -5 182 22 182 53C182 83 154 111 123 111ZM123 456C93 456 66 428 66 398C66 368 93 340 122 340C154 340 182 367 182 397C182 428 154 456 123 456Z" stroke="rgb(0,0,0)" stroke-opacity="1" stroke-width="8" fill="rgb(0,0,0)" fill-opacity="1"></path></g></g><g><g transform="matrix(1,0,0,1,23.4124755859375,101)"><path transform="matrix(0.017,0,0,-0.017,0,0)" d="M425 -11C481 -11 596 62 639 125C680 186 714 296 714 371C714 438 691 482 655 482C613 482 560 456 508 409C467 374 447 348 411 289L435 408C438 425 440 440 440 452C440 471 432 482 418 482C397 482 359 461 285 408L257 388L264 368L296 389C324 407 335 412 344 412C354 412 361 403 361 389C361 381 359 361 357 351L299 8C289 -52 270 -143 250 -233L242 -270L249 -276C270 -269 290 -264 322 -259L364 3C385 -4 407 -11 425 -11ZM392 165C414 293 521 424 604 424C630 424 642 402 642 356C642 275 602 156 549 80C529 51 497 36 456 36C425 36 400 43 374 59ZM1076 111L1052 94C999 56 951 36 915 36C868 36 839 73 839 133C839 158 842 185 847 214C864 218 973 248 998 259C1083 296 1122 342 1122 404C1122 451 1088 482 1038 482C970 496 860 423 823 349C793 299 763 180 763 113C763 35 807 -11 879 -11C936 -11 992 17 1084 92ZM861 274C878 343 898 386 927 412C945 428 976 440 1000 440C1029 440 1048 420 1048 388C1048 344 1013 297 961 272C933 258 897 247 852 237ZM1504 365C1507 403 1512 435 1520 476C1509 481 1505 482 1500 482C1469 482 1438 458 1402 407C1363 351 1324 291 1308 256L1340 408C1344 425 1346 438 1346 450C1346 470 1338 482 1323 482C1302 482 1264 461 1190 408L1162 388L1169 368L1201 389C1229 407 1240 412 1249 412C1259 412 1266 403 1266 390C1266 332 1223 126 1183 -2L1193 -9C1208 -4 1224 -1 1247 4L1260 6L1286 126C1304 209 1327 262 1371 319C1405 363 1432 384 1454 384C1469 384 1479 379 1490 365ZM1558 388L1565 368L1597 389C1634 412 1637 414 1644 414C1654 414 1662 404 1662 391C1662 384 1658 361 1654 347L1588 107C1580 76 1575 49 1575 30C1575 6 1586 -9 1605 -9C1631 -9 1667 12 1765 85L1755 103L1729 86C1700 67 1677 56 1668 56C1661 56 1655 66 1655 76C1655 86 1657 95 1662 116L1739 420C1743 437 1745 448 1745 456C1745 473 1736 482 1720 482C1698 482 1661 461 1586 408ZM1752 712C1723 712 1694 679 1694 645C1694 620 1709 604 1733 604C1764 604 1788 633 1788 671C1788 695 1773 712 1752 712ZM1818 152C1818 46 1863 -11 1946 -11C2001 -11 2061 15 2106 57C2168 116 2212 230 2212 331C2212 425 2162 482 2079 482C1975 482 1818 382 1818 152ZM2042 444C2103 444 2136 399 2136 315C2136 219 2105 113 2061 60C2043 39 2017 27 1986 27C1928 27 1894 72 1894 151C1894 264 1933 387 1982 427C1995 438 2018 444 2042 444ZM2727 722L2715 733C2663 707 2627 698 2555 691L2551 670L2599 670C2623 670 2633 663 2633 646C2633 638 2632 629 2631 622L2603 468C2573 477 2546 482 2521 482C2452 482 2358 410 2312 323C2281 265 2261 170 2261 86C2261 21 2276 -11 2305 -11C2332 -11 2369 6 2403 33C2457 77 2490 116 2557 217L2534 126C2523 82 2518 50 2518 24C2518 3 2527 -9 2544 -9C2561 -9 2585 3 2619 28L2700 88L2690 107L2646 76C2632 66 2616 59 2607 59C2599 59 2593 68 2593 82C2593 90 2594 99 2601 128ZM2358 59C2342 59 2333 73 2333 98C2333 224 2379 380 2428 418C2441 428 2460 433 2487 433C2531 433 2560 427 2593 410L2581 351C2544 171 2403 59 2358 59ZM2760 152C2760 46 2805 -11 2888 -11C2943 -11 3003 15 3048 57C3110 116 3154 230 3154 331C3154 425 3104 482 3021 482C2917 482 2760 382 2760 152ZM2984 444C3045 444 3078 399 3078 315C3078 219 3047 113 3003 60C2985 39 2959 27 2928 27C2870 27 2836 72 2836 151C2836 264 2875 387 2924 427C2937 438 2960 444 2984 444Z" stroke="rgb(0,0,0)" stroke-opacity="1" stroke-width="8" fill="rgb(0,0,0)" fill-opacity="1"></path></g></g></g></g></svg>