<svg xmlns="http://www.w3.org/2000/svg" xmlns:xlink="http://www.w3.org/1999/xlink" width="144.7375030517578" height="84" style="width:144.7375030517578px;height:84px;font-family:Asana-Math, Asana;background:#FFF;"><g><g><g><g transform="matrix(1,0,0,1,2,19)"><path transform="matrix(0.017,0,0,-0.017,0,0)" d="M2656 420C2677 420 2693 421 2719 424C2608 304 2566 221 2566 121C2566 44 2612 -11 2676 -11C2814 -11 2967 236 2967 384C2967 441 2941 482 2905 482C2892 482 2880 478 2872 470L2822 423L2833 404C2842 410 2851 413 2860 413C2887 413 2903 390 2903 350C2903 202 2806 39 2718 39C2669 39 2638 81 2638 146C2638 251 2677 342 2775 464L2765 482C2745 473 2732 470 2704 470C2676 470 2634 472 2605 475L2593 476C2587 477 2582 477 2581 477C2569 477 2560 475 2549 470C2535 443 2524 407 2511 352L2533 352L2550 394C2557 411 2577 422 2601 422C2634 422 2618 420 2656 420Z" stroke="rgb(0,0,0)" stroke-opacity="1" stroke-width="8" fill="rgb(0,0,0)" fill-opacity="1"></path></g></g><g><g transform="matrix(1,0,0,1,57.92498779296875,19)"><path transform="matrix(0.017,0,0,-0.017,0,0)" d="M604 347L604 406L65 406L65 347ZM604 134L604 193L65 193L65 134Z" stroke="rgb(0,0,0)" stroke-opacity="1" stroke-width="8" fill="rgb(0,0,0)" fill-opacity="1"></path></g></g><g><g transform="matrix(1,0,0,1,74.38751220703125,19)"><path transform="matrix(0.017,0,0,-0.017,0,0)" d="M603 88C588 77 563 55 542 55C503 55 471 188 461 219C427 326 339 670 322 689C314 699 305 702 295 702C258 702 188 669 158 656L155 648C158 643 160 639 166 637C182 642 211 653 227 653C279 653 315 500 326 460C223 320 152 161 86 -2L98 -16C121 -5 145 4 169 13C186 159 260 308 331 428L339 425C357 363 442 12 463 -6C471 -13 479 -16 488 -16C531 -16 588 45 615 74L616 80C612 83 610 88 603 88ZM963 437L947 437L968 549C984 635 1012 673 1058 673C1088 673 1115 658 1130 634L1140 638C1145 654 1155 685 1163 705L1168 720C1152 727 1121 733 1098 733C1087 733 1071 730 1063 726C1039 715 957 654 934 630C912 608 900 578 889 521L874 442C833 422 813 414 788 405L783 383L864 383L855 327C825 132 788 -54 766 -123C748 -182 718 -213 682 -213C659 -213 648 -206 630 -184L616 -188C612 -211 598 -259 593 -268C602 -273 617 -276 628 -276C669 -276 723 -245 762 -198C833 -114 853 -18 937 383L1041 383C1045 402 1052 425 1058 439L1054 446C1025 439 1026 437 963 437Z" stroke="rgb(0,0,0)" stroke-opacity="1" stroke-width="8" fill="rgb(0,0,0)" fill-opacity="1"></path></g></g></g><g></g><g><g><g transform="matrix(1,0,0,1,2,59)"><path transform="matrix(0.017,0,0,-0.017,0,0)" d="M603 88C588 77 563 55 542 55C503 55 471 188 461 219C427 326 339 670 322 689C314 699 305 702 295 702C258 702 188 669 158 656L155 648C158 643 160 639 166 637C182 642 211 653 227 653C279 653 315 500 326 460C223 320 152 161 86 -2L98 -16C121 -5 145 4 169 13C186 159 260 308 331 428L339 425C357 363 442 12 463 -6C471 -13 479 -16 488 -16C531 -16 588 45 615 74L616 80C612 83 610 88 603 88Z" stroke="rgb(0,0,0)" stroke-opacity="1" stroke-width="8" fill="rgb(0,0,0)" fill-opacity="1"></path></g></g><g><g transform="matrix(1,0,0,1,15.9124755859375,59)"><path transform="matrix(0.017,0,0,-0.017,0,0)" d="M123 111C93 111 66 83 66 53C66 23 93 -5 122 -5C154 -5 182 22 182 53C182 83 154 111 123 111ZM123 456C93 456 66 428 66 398C66 368 93 340 122 340C154 340 182 367 182 397C182 428 154 456 123 456Z" stroke="rgb(0,0,0)" stroke-opacity="1" stroke-width="8" fill="rgb(0,0,0)" fill-opacity="1"></path></g></g><g><g transform="matrix(1,0,0,1,23.54998779296875,59)"><path transform="matrix(0.017,0,0,-0.017,0,0)" d="M500 722L488 733C436 707 400 698 328 691L324 670L372 670C396 670 406 663 406 648C406 645 406 640 403 622C392 567 319 182 304 132C291 82 285 52 285 31C285 6 296 -9 315 -9C341 -9 377 12 475 85L465 103L439 86C410 67 388 56 378 56C371 56 365 66 365 76C365 82 366 89 369 104ZM543 152C543 46 588 -11 671 -11C726 -11 786 15 831 57C893 116 937 230 937 331C937 425 887 482 804 482C700 482 543 382 543 152ZM767 444C828 444 861 399 861 315C861 219 830 113 786 60C768 39 742 27 711 27C653 27 619 72 619 151C619 264 658 387 707 427C720 438 743 444 767 444ZM993 388L1000 368L1032 389C1069 412 1072 414 1079 414C1090 414 1097 404 1097 389C1097 338 1056 145 1015 2L1022 -9C1047 -2 1070 4 1092 8C1111 134 1132 199 1178 268C1232 352 1307 414 1352 414C1363 414 1369 405 1369 390C1369 372 1366 351 1358 319L1306 107C1297 70 1293 47 1293 31C1293 6 1304 -9 1323 -9C1349 -9 1385 12 1483 85L1473 103L1447 86C1418 67 1396 56 1386 56C1379 56 1373 65 1373 76C1373 81 1374 92 1375 96L1441 372C1448 401 1452 429 1452 446C1452 469 1441 482 1421 482C1379 482 1310 444 1251 389C1213 354 1185 320 1133 247L1171 408C1175 426 1177 438 1177 449C1177 470 1169 482 1154 482C1133 482 1094 460 1021 408ZM1799 482C1732 482 1579 419 1579 259C1579 182 1624 136 1701 136C1709 136 1720 136 1731 137L1690 99C1674 84 1663 66 1663 52C1663 42 1670 31 1684 19C1615 -4 1487 -48 1487 -159C1487 -230 1557 -276 1666 -276C1795 -276 1908 -204 1908 -121C1908 -85 1887 -49 1844 -14L1784 35C1750 62 1737 81 1737 100C1737 114 1752 128 1764 146C1862 170 1933 253 1933 342C1933 357 1930 376 1929 380C1946 378 1954 378 1963 378C1980 378 1990 379 2013 382L2022 427L2019 433C1991 426 1971 424 1917 424C1917 425 1893 482 1799 482ZM1700 1L1777 -58C1823 -94 1842 -121 1842 -154C1842 -206 1773 -248 1690 -248C1608 -248 1551 -206 1551 -145C1551 -43 1661 -11 1700 1ZM1774 448C1832 448 1861 412 1861 341C1861 238 1813 168 1743 168C1682 168 1650 209 1650 288C1650 383 1701 448 1774 448ZM2057 388L2064 368L2096 389C2133 412 2136 414 2143 414C2153 414 2161 404 2161 391C2161 384 2157 361 2153 347L2087 107C2079 76 2074 49 2074 30C2074 6 2085 -9 2104 -9C2130 -9 2166 12 2264 85L2254 103L2228 86C2199 67 2176 56 2167 56C2160 56 2154 66 2154 76C2154 86 2156 95 2161 116L2238 420C2242 437 2244 448 2244 456C2244 473 2235 482 2219 482C2197 482 2160 461 2085 408ZM2251 712C2222 712 2193 679 2193 645C2193 620 2208 604 2232 604C2263 604 2287 633 2287 671C2287 695 2272 712 2251 712ZM2425 390L2369 107C2368 99 2356 61 2356 31C2356 6 2367 -9 2386 -9C2421 -9 2456 11 2534 74L2565 99L2555 117L2510 86C2481 66 2461 56 2450 56C2441 56 2436 64 2436 76C2436 102 2450 183 2479 328L2492 390L2599 390L2610 440C2572 436 2538 434 2500 434C2516 528 2527 577 2545 631L2534 646C2514 634 2487 622 2456 610L2431 440C2387 419 2361 408 2343 403L2341 390ZM3124 473L3117 482L3049 465L3039 414C3024 336 2999 268 2968 221C2909 130 2831 59 2791 59C2783 59 2778 68 2778 85C2778 99 2780 112 2785 137L2842 408C2845 424 2847 438 2847 451C2847 470 2838 482 2824 482C2804 482 2766 461 2692 408L2664 388L2671 368L2703 389C2731 407 2742 412 2751 412C2760 412 2768 403 2768 392C2768 388 2767 378 2766 374L2703 77C2701 68 2699 44 2699 30C2699 7 2714 -11 2734 -11C2797 -11 2918 101 3002 239L2965 97C2958 73 2954 46 2954 31C2954 6 2965 -9 2984 -9C3010 -9 3046 12 3144 85L3134 103L3108 86C3084 70 3058 59 3047 59C3039 59 3034 66 3034 76C3034 112 3109 416 3124 473ZM3670 722L3658 733C3606 707 3570 698 3498 691L3494 670L3542 670C3566 670 3576 663 3576 646C3576 638 3575 629 3574 622L3546 468C3516 477 3489 482 3464 482C3395 482 3301 410 3255 323C3224 265 3204 170 3204 86C3204 21 3219 -11 3248 -11C3275 -11 3312 6 3346 33C3400 77 3433 116 3500 217L3477 126C3466 82 3461 50 3461 24C3461 3 3470 -9 3487 -9C3504 -9 3528 3 3562 28L3643 88L3633 107L3589 76C3575 66 3559 59 3550 59C3542 59 3536 68 3536 82C3536 90 3537 99 3544 128ZM3301 59C3285 59 3276 73 3276 98C3276 224 3322 380 3371 418C3384 428 3403 433 3430 433C3474 433 3503 427 3536 410L3524 351C3487 171 3346 59 3301 59ZM4418 722L4406 733C4354 707 4318 698 4246 691L4242 670L4290 670C4314 670 4324 663 4324 646C4324 638 4323 629 4322 622L4294 468C4264 477 4237 482 4212 482C4143 482 4049 410 4003 323C3972 265 3952 170 3952 86C3952 21 3967 -11 3996 -11C4023 -11 4060 6 4094 33C4148 77 4181 116 4248 217L4225 126C4214 82 4209 50 4209 24C4209 3 4218 -9 4235 -9C4252 -9 4276 3 4310 28L4391 88L4381 107L4337 76C4323 66 4307 59 4298 59C4290 59 4284 68 4284 82C4284 90 4285 99 4292 128ZM4049 59C4033 59 4024 73 4024 98C4024 224 4070 380 4119 418C4132 428 4151 433 4178 433C4222 433 4251 427 4284 410L4272 351C4235 171 4094 59 4049 59ZM4762 111L4738 94C4685 56 4637 36 4601 36C4554 36 4525 73 4525 133C4525 158 4528 185 4533 214C4550 218 4659 248 4684 259C4769 296 4808 342 4808 404C4808 451 4774 482 4724 482C4656 496 4546 423 4509 349C4479 299 4449 180 4449 113C4449 35 4493 -11 4565 -11C4622 -11 4678 17 4770 92ZM4547 274C4564 343 4584 386 4613 412C4631 428 4662 440 4686 440C4715 440 4734 420 4734 388C4734 344 4699 297 4647 272C4619 258 4583 247 4538 237ZM5088 152C5088 46 5133 -11 5216 -11C5271 -11 5331 15 5376 57C5438 116 5482 230 5482 331C5482 425 5432 482 5349 482C5245 482 5088 382 5088 152ZM5312 444C5373 444 5406 399 5406 315C5406 219 5375 113 5331 60C5313 39 5287 27 5256 27C5198 27 5164 72 5164 151C5164 264 5203 387 5252 427C5265 438 5288 444 5312 444ZM5538 388L5545 368L5577 389C5614 412 5617 414 5624 414C5635 414 5642 404 5642 389C5642 338 5601 145 5560 2L5567 -9C5592 -2 5615 4 5637 8C5656 134 5677 199 5723 268C5777 352 5852 414 5897 414C5908 414 5914 405 5914 390C5914 372 5911 351 5903 319L5851 107C5842 70 5838 47 5838 31C5838 6 5849 -9 5868 -9C5894 -9 5930 12 6028 85L6018 103L5992 86C5963 67 5941 56 5931 56C5924 56 5918 65 5918 76C5918 81 5919 92 5920 96L5986 372C5993 401 5997 429 5997 446C5997 469 5986 482 5966 482C5924 482 5855 444 5796 389C5758 354 5730 320 5678 247L5716 408C5720 426 5722 438 5722 449C5722 470 5714 482 5699 482C5678 482 5639 460 5566 408ZM6552 722L6540 733C6488 707 6452 698 6380 691L6376 670L6424 670C6448 670 6458 663 6458 646C6458 638 6457 629 6456 622L6428 468C6398 477 6371 482 6346 482C6277 482 6183 410 6137 323C6106 265 6086 170 6086 86C6086 21 6101 -11 6130 -11C6157 -11 6194 6 6228 33C6282 77 6315 116 6382 217L6359 126C6348 82 6343 50 6343 24C6343 3 6352 -9 6369 -9C6386 -9 6410 3 6444 28L6525 88L6515 107L6471 76C6457 66 6441 59 6432 59C6424 59 6418 68 6418 82C6418 90 6419 99 6426 128ZM6183 59C6167 59 6158 73 6158 98C6158 224 6204 380 6253 418C6266 428 6285 433 6312 433C6356 433 6385 427 6418 410L6406 351C6369 171 6228 59 6183 59ZM6839 204L6810 77C6806 60 6804 42 6804 26C6804 4 6813 -9 6828 -9C6851 -9 6892 17 6974 85L6967 106C6943 86 6914 59 6892 59C6883 59 6877 68 6877 82C6877 87 6877 90 6878 93L6970 472L6960 481L6927 463C6886 478 6869 482 6842 482C6814 482 6794 477 6767 464C6705 433 6672 403 6647 354C6603 265 6572 145 6572 67C6572 23 6587 -11 6606 -11C6643 -11 6723 41 6839 204ZM6887 414C6865 305 6846 253 6812 201C6755 117 6694 59 6662 59C6650 59 6644 72 6644 99C6644 163 6672 280 6707 360C6731 415 6754 433 6802 433C6825 433 6843 429 6887 414Z" stroke="rgb(0,0,0)" stroke-opacity="1" stroke-width="8" fill="rgb(0,0,0)" fill-opacity="1"></path></g></g></g><g><g><g transform="matrix(1,0,0,1,2,79)"><path transform="matrix(0.017,0,0,-0.017,0,0)" d="M345 437L329 437L350 549C366 635 394 673 440 673C470 673 497 658 512 634L522 638C527 654 537 685 545 705L550 720C534 727 503 733 480 733C469 733 453 730 445 726C421 715 339 654 316 630C294 608 282 578 271 521L256 442C215 422 195 414 170 405L165 383L246 383L237 327C207 132 170 -54 148 -123C130 -182 100 -213 64 -213C41 -213 30 -206 12 -184L-2 -188C-6 -211 -20 -259 -25 -268C-16 -273 -1 -276 10 -276C51 -276 105 -245 144 -198C215 -114 235 -18 319 383L423 383C427 402 434 425 440 439L436 446C407 439 408 437 345 437Z" stroke="rgb(0,0,0)" stroke-opacity="1" stroke-width="8" fill="rgb(0,0,0)" fill-opacity="1"></path></g></g><g><g transform="matrix(1,0,0,1,14.75,79)"><path transform="matrix(0.017,0,0,-0.017,0,0)" d="M123 111C93 111 66 83 66 53C66 23 93 -5 122 -5C154 -5 182 22 182 53C182 83 154 111 123 111ZM123 456C93 456 66 428 66 398C66 368 93 340 122 340C154 340 182 367 182 397C182 428 154 456 123 456Z" stroke="rgb(0,0,0)" stroke-opacity="1" stroke-width="8" fill="rgb(0,0,0)" fill-opacity="1"></path></g></g><g><g transform="matrix(1,0,0,1,22.38751220703125,79)"><path transform="matrix(0.017,0,0,-0.017,0,0)" d="M594 437L578 437L599 549C615 635 643 673 689 673C719 673 746 658 761 634L771 638C776 654 786 685 794 705L799 720C783 727 752 733 729 733C718 733 702 730 694 726C670 715 588 654 565 630C543 608 531 578 520 521L505 442C464 422 444 414 419 405L414 383L495 383L486 327C456 132 419 -54 397 -123C379 -182 349 -213 313 -213C290 -213 279 -206 261 -184L247 -188C243 -211 229 -259 224 -268C233 -273 248 -276 259 -276C300 -276 354 -245 393 -198C464 -114 484 -18 568 383L672 383C676 402 683 425 689 439L685 446C656 439 657 437 594 437ZM1167 365C1170 403 1175 435 1183 476C1172 481 1168 482 1163 482C1132 482 1101 458 1065 407C1026 351 987 291 971 256L1003 408C1007 425 1009 438 1009 450C1009 470 1001 482 986 482C965 482 927 461 853 408L825 388L832 368L864 389C892 407 903 412 912 412C922 412 929 403 929 390C929 332 886 126 846 -2L856 -9C871 -4 887 -1 910 4L923 6L949 126C967 209 990 262 1034 319C1068 363 1095 384 1117 384C1132 384 1142 379 1153 365ZM1515 111L1491 94C1438 56 1390 36 1354 36C1307 36 1278 73 1278 133C1278 158 1281 185 1286 214C1303 218 1412 248 1437 259C1522 296 1561 342 1561 404C1561 451 1527 482 1477 482C1409 496 1299 423 1262 349C1232 299 1202 180 1202 113C1202 35 1246 -11 1318 -11C1375 -11 1431 17 1523 92ZM1300 274C1317 343 1337 386 1366 412C1384 428 1415 440 1439 440C1468 440 1487 420 1487 388C1487 344 1452 297 1400 272C1372 258 1336 247 1291 237ZM1917 330L1940 330C1948 395 1955 432 1964 458C1940 473 1905 482 1868 482C1823 483 1750 463 1693 400C1639 352 1600 241 1600 136C1600 40 1642 -11 1722 -11C1776 -11 1824 9 1879 54L1929 95L1921 115L1906 105C1834 57 1796 40 1761 40C1705 40 1676 80 1676 159C1676 267 1711 371 1760 409C1781 425 1805 433 1836 433C1881 433 1917 414 1917 390ZM2473 473L2466 482L2398 465L2388 414C2373 336 2348 268 2317 221C2258 130 2180 59 2140 59C2132 59 2127 68 2127 85C2127 99 2129 112 2134 137L2191 408C2194 424 2196 438 2196 451C2196 470 2187 482 2173 482C2153 482 2115 461 2041 408L2013 388L2020 368L2052 389C2080 407 2091 412 2100 412C2109 412 2117 403 2117 392C2117 388 2116 378 2115 374L2052 77C2050 68 2048 44 2048 30C2048 7 2063 -11 2083 -11C2146 -11 2267 101 2351 239L2314 97C2307 73 2303 46 2303 31C2303 6 2314 -9 2333 -9C2359 -9 2395 12 2493 85L2483 103L2457 86C2433 70 2407 59 2396 59C2388 59 2383 66 2383 76C2383 112 2458 416 2473 473ZM2864 111L2840 94C2787 56 2739 36 2703 36C2656 36 2627 73 2627 133C2627 158 2630 185 2635 214C2652 218 2761 248 2786 259C2871 296 2910 342 2910 404C2910 451 2876 482 2826 482C2758 496 2648 423 2611 349C2581 299 2551 180 2551 113C2551 35 2595 -11 2667 -11C2724 -11 2780 17 2872 92ZM2649 274C2666 343 2686 386 2715 412C2733 428 2764 440 2788 440C2817 440 2836 420 2836 388C2836 344 2801 297 2749 272C2721 258 2685 247 2640 237ZM2948 388L2955 368L2987 389C3024 412 3027 414 3034 414C3045 414 3052 404 3052 389C3052 338 3011 145 2970 2L2977 -9C3002 -2 3025 4 3047 8C3066 134 3087 199 3133 268C3187 352 3262 414 3307 414C3318 414 3324 405 3324 390C3324 372 3321 351 3313 319L3261 107C3252 70 3248 47 3248 31C3248 6 3259 -9 3278 -9C3304 -9 3340 12 3438 85L3428 103L3402 86C3373 67 3351 56 3341 56C3334 56 3328 65 3328 76C3328 81 3329 92 3330 96L3396 372C3403 401 3407 429 3407 446C3407 469 3396 482 3376 482C3334 482 3265 444 3206 389C3168 354 3140 320 3088 247L3126 408C3130 426 3132 438 3132 449C3132 470 3124 482 3109 482C3088 482 3049 460 2976 408ZM3821 330L3844 330C3852 395 3859 432 3868 458C3844 473 3809 482 3772 482C3727 483 3654 463 3597 400C3543 352 3504 241 3504 136C3504 40 3546 -11 3626 -11C3680 -11 3728 9 3783 54L3833 95L3825 115L3810 105C3738 57 3700 40 3665 40C3609 40 3580 80 3580 159C3580 267 3615 371 3664 409C3685 425 3709 433 3740 433C3785 433 3821 414 3821 390ZM3919 388L3926 368L3958 389C3995 412 3998 414 4005 414C4015 414 4023 404 4023 391C4023 384 4019 361 4015 347L3949 107C3941 76 3936 49 3936 30C3936 6 3947 -9 3966 -9C3992 -9 4028 12 4126 85L4116 103L4090 86C4061 67 4038 56 4029 56C4022 56 4016 66 4016 76C4016 86 4018 95 4023 116L4100 420C4104 437 4106 448 4106 456C4106 473 4097 482 4081 482C4059 482 4022 461 3947 408ZM4113 712C4084 712 4055 679 4055 645C4055 620 4070 604 4094 604C4125 604 4149 633 4149 671C4149 695 4134 712 4113 712ZM4433 204L4404 77C4400 60 4398 42 4398 26C4398 4 4407 -9 4422 -9C4445 -9 4486 17 4568 85L4561 106C4537 86 4508 59 4486 59C4477 59 4471 68 4471 82C4471 87 4471 90 4472 93L4564 472L4554 481L4521 463C4480 478 4463 482 4436 482C4408 482 4388 477 4361 464C4299 433 4266 403 4241 354C4197 265 4166 145 4166 67C4166 23 4181 -11 4200 -11C4237 -11 4317 41 4433 204ZM4481 414C4459 305 4440 253 4406 201C4349 117 4288 59 4256 59C4244 59 4238 72 4238 99C4238 163 4266 280 4301 360C4325 415 4348 433 4396 433C4419 433 4437 429 4481 414Z" stroke="rgb(0,0,0)" stroke-opacity="1" stroke-width="8" fill="rgb(0,0,0)" fill-opacity="1"></path></g></g></g></g></svg>