<svg xmlns="http://www.w3.org/2000/svg" xmlns:xlink="http://www.w3.org/1999/xlink" width="161.3874969482422" height="106" style="width:161.3874969482422px;height:106px;font-family:Asana-Math, Asana;background:#FFF;"><g><g><g><g transform="matrix(1,0,0,1,2,31)"><path transform="matrix(0.017,0,0,-0.017,0,0)" d="M3652 420C3673 420 3689 421 3715 424C3604 304 3562 221 3562 121C3562 44 3608 -11 3672 -11C3810 -11 3963 236 3963 384C3963 441 3937 482 3901 482C3888 482 3876 478 3868 470L3818 423L3829 404C3838 410 3847 413 3856 413C3883 413 3899 390 3899 350C3899 202 3802 39 3714 39C3665 39 3634 81 3634 146C3634 251 3673 342 3771 464L3761 482C3741 473 3728 470 3700 470C3672 470 3630 472 3601 475L3589 476C3583 477 3578 477 3577 477C3565 477 3556 475 3545 470C3531 443 3520 407 3507 352L3529 352L3546 394C3553 411 3573 422 3597 422C3630 422 3614 420 3652 420Z" stroke="rgb(0,0,0)" stroke-opacity="1" stroke-width="8" fill="rgb(0,0,0)" fill-opacity="1"></path></g></g><g><g transform="matrix(1,0,0,1,74.85003662109375,31)"><path transform="matrix(0.017,0,0,-0.017,0,0)" d="M604 347L604 406L65 406L65 347ZM604 134L604 193L65 193L65 134Z" stroke="rgb(0,0,0)" stroke-opacity="1" stroke-width="8" fill="rgb(0,0,0)" fill-opacity="1"></path></g></g><g><g><g><g><g transform="matrix(1,0,0,1,93.01251220703125,19)"><path transform="matrix(0.017,0,0,-0.017,0,0)" d="M483 722L471 733C419 707 383 698 311 691L307 670L355 670C379 670 389 663 389 646C389 638 388 629 387 622L359 468C329 477 302 482 277 482C208 482 114 410 68 323C37 265 17 170 17 86C17 21 32 -11 61 -11C88 -11 125 6 159 33C213 77 246 116 313 217L290 126C279 82 274 50 274 24C274 3 283 -9 300 -9C317 -9 341 3 375 28L456 88L446 107L402 76C388 66 372 59 363 59C355 59 349 68 349 82C349 90 350 99 357 128ZM114 59C98 59 89 73 89 98C89 224 135 380 184 418C197 428 216 433 243 433C287 433 316 427 349 410L337 351C300 171 159 59 114 59Z" stroke="rgb(0,0,0)" stroke-opacity="1" stroke-width="8" fill="rgb(0,0,0)" fill-opacity="1"></path></g></g></g></g><g><g><g><g transform="matrix(1,0,0,1,94.42498779296875,44)"><path transform="matrix(0.017,0,0,-0.017,0,0)" d="M125 390L69 107C68 99 56 61 56 31C56 6 67 -9 86 -9C121 -9 156 11 234 74L265 99L255 117L210 86C181 66 161 56 150 56C141 56 136 64 136 76C136 102 150 183 179 328L192 390L299 390L310 440C272 436 238 434 200 434C216 528 227 577 245 631L234 646C214 634 187 622 156 610L131 440C87 419 61 408 43 403L41 390Z" stroke="rgb(0,0,0)" stroke-opacity="1" stroke-width="8" fill="rgb(0,0,0)" fill-opacity="1"></path></g></g></g></g><line style="fill:none;stroke-width:1px;stroke:rgb(0, 0, 0);" x1="93.01251220703125" y1="26.550003051757812" x2="101.50001239776611" y2="26.550003051757812"></line></g></g><g></g><g><g><g transform="matrix(1,0,0,1,2,81)"><path transform="matrix(0.017,0,0,-0.017,0,0)" d="M483 722L471 733C419 707 383 698 311 691L307 670L355 670C379 670 389 663 389 646C389 638 388 629 387 622L359 468C329 477 302 482 277 482C208 482 114 410 68 323C37 265 17 170 17 86C17 21 32 -11 61 -11C88 -11 125 6 159 33C213 77 246 116 313 217L290 126C279 82 274 50 274 24C274 3 283 -9 300 -9C317 -9 341 3 375 28L456 88L446 107L402 76C388 66 372 59 363 59C355 59 349 68 349 82C349 90 350 99 357 128ZM114 59C98 59 89 73 89 98C89 224 135 380 184 418C197 428 216 433 243 433C287 433 316 427 349 410L337 351C300 171 159 59 114 59Z" stroke="rgb(0,0,0)" stroke-opacity="1" stroke-width="8" fill="rgb(0,0,0)" fill-opacity="1"></path></g></g><g><g transform="matrix(1,0,0,1,13.88751220703125,81)"><path transform="matrix(0.017,0,0,-0.017,0,0)" d="M123 111C93 111 66 83 66 53C66 23 93 -5 122 -5C154 -5 182 22 182 53C182 83 154 111 123 111ZM123 456C93 456 66 428 66 398C66 368 93 340 122 340C154 340 182 367 182 397C182 428 154 456 123 456Z" stroke="rgb(0,0,0)" stroke-opacity="1" stroke-width="8" fill="rgb(0,0,0)" fill-opacity="1"></path></g></g><g><g transform="matrix(1,0,0,1,21.5250244140625,81)"><path transform="matrix(0.017,0,0,-0.017,0,0)" d="M732 722L720 733C668 707 632 698 560 691L556 670L604 670C628 670 638 663 638 646C638 638 637 629 636 622L608 468C578 477 551 482 526 482C457 482 363 410 317 323C286 265 266 170 266 86C266 21 281 -11 310 -11C337 -11 374 6 408 33C462 77 495 116 562 217L539 126C528 82 523 50 523 24C523 3 532 -9 549 -9C566 -9 590 3 624 28L705 88L695 107L651 76C637 66 621 59 612 59C604 59 598 68 598 82C598 90 599 99 606 128ZM363 59C347 59 338 73 338 98C338 224 384 380 433 418C446 428 465 433 492 433C536 433 565 427 598 410L586 351C549 171 408 59 363 59ZM782 388L789 368L821 389C858 412 861 414 868 414C878 414 886 404 886 391C886 384 882 361 878 347L812 107C804 76 799 49 799 30C799 6 810 -9 829 -9C855 -9 891 12 989 85L979 103L953 86C924 67 901 56 892 56C885 56 879 66 879 76C879 86 881 95 886 116L963 420C967 437 969 448 969 456C969 473 960 482 944 482C922 482 885 461 810 408ZM976 712C947 712 918 679 918 645C918 620 933 604 957 604C988 604 1012 633 1012 671C1012 695 997 712 976 712ZM1056 148C1051 97 1045 62 1034 16C1072 -2 1106 -11 1141 -11C1190 -11 1236 7 1287 47C1338 87 1359 124 1359 174C1359 228 1327 257 1253 271L1210 279C1150 290 1131 307 1131 348C1131 401 1176 442 1233 442C1274 442 1312 424 1328 397L1328 342L1351 342C1355 377 1359 404 1370 455C1331 474 1303 482 1270 482C1218 482 1157 452 1109 404C1083 377 1072 352 1072 316C1072 260 1103 228 1169 215L1232 203C1276 195 1292 177 1292 138C1292 73 1246 29 1175 29C1140 29 1109 40 1081 64L1081 148ZM1538 390L1482 107C1481 99 1469 61 1469 31C1469 6 1480 -9 1499 -9C1534 -9 1569 11 1647 74L1678 99L1668 117L1623 86C1594 66 1574 56 1563 56C1554 56 1549 64 1549 76C1549 102 1563 183 1592 328L1605 390L1712 390L1723 440C1685 436 1651 434 1613 434C1629 528 1640 577 1658 631L1647 646C1627 634 1600 622 1569 610L1544 440C1500 419 1474 408 1456 403L1454 390ZM2016 204L1987 77C1983 60 1981 42 1981 26C1981 4 1990 -9 2005 -9C2028 -9 2069 17 2151 85L2144 106C2120 86 2091 59 2069 59C2060 59 2054 68 2054 82C2054 87 2054 90 2055 93L2147 472L2137 481L2104 463C2063 478 2046 482 2019 482C1991 482 1971 477 1944 464C1882 433 1849 403 1824 354C1780 265 1749 145 1749 67C1749 23 1764 -11 1783 -11C1820 -11 1900 41 2016 204ZM2064 414C2042 305 2023 253 1989 201C1932 117 1871 59 1839 59C1827 59 1821 72 1821 99C1821 163 1849 280 1884 360C1908 415 1931 433 1979 433C2002 433 2020 429 2064 414ZM2212 388L2219 368L2251 389C2288 412 2291 414 2298 414C2309 414 2316 404 2316 389C2316 338 2275 145 2234 2L2241 -9C2266 -2 2289 4 2311 8C2330 134 2351 199 2397 268C2451 352 2526 414 2571 414C2582 414 2588 405 2588 390C2588 372 2585 351 2577 319L2525 107C2516 70 2512 47 2512 31C2512 6 2523 -9 2542 -9C2568 -9 2604 12 2702 85L2692 103L2666 86C2637 67 2615 56 2605 56C2598 56 2592 65 2592 76C2592 81 2593 92 2594 96L2660 372C2667 401 2671 429 2671 446C2671 469 2660 482 2640 482C2598 482 2529 444 2470 389C2432 354 2404 320 2352 247L2390 408C2394 426 2396 438 2396 449C2396 470 2388 482 2373 482C2352 482 2313 460 2240 408ZM3085 330L3108 330C3116 395 3123 432 3132 458C3108 473 3073 482 3036 482C2991 483 2918 463 2861 400C2807 352 2768 241 2768 136C2768 40 2810 -11 2890 -11C2944 -11 2992 9 3047 54L3097 95L3089 115L3074 105C3002 57 2964 40 2929 40C2873 40 2844 80 2844 159C2844 267 2879 371 2928 409C2949 425 2973 433 3004 433C3049 433 3085 414 3085 390ZM3183 388L3190 368L3222 389C3259 412 3262 414 3269 414C3279 414 3287 404 3287 391C3287 384 3283 361 3279 347L3213 107C3205 76 3200 49 3200 30C3200 6 3211 -9 3230 -9C3256 -9 3292 12 3390 85L3380 103L3354 86C3325 67 3302 56 3293 56C3286 56 3280 66 3280 76C3280 86 3282 95 3287 116L3364 420C3368 437 3370 448 3370 456C3370 473 3361 482 3345 482C3323 482 3286 461 3211 408ZM3377 712C3348 712 3319 679 3319 645C3319 620 3334 604 3358 604C3389 604 3413 633 3413 671C3413 695 3398 712 3377 712ZM3697 204L3668 77C3664 60 3662 42 3662 26C3662 4 3671 -9 3686 -9C3709 -9 3750 17 3832 85L3825 106C3801 86 3772 59 3750 59C3741 59 3735 68 3735 82C3735 87 3735 90 3736 93L3828 472L3818 481L3785 463C3744 478 3727 482 3700 482C3672 482 3652 477 3625 464C3563 433 3530 403 3505 354C3461 265 3430 145 3430 67C3430 23 3445 -11 3464 -11C3501 -11 3581 41 3697 204ZM3745 414C3723 305 3704 253 3670 201C3613 117 3552 59 3520 59C3508 59 3502 72 3502 99C3502 163 3530 280 3565 360C3589 415 3612 433 3660 433C3683 433 3701 429 3745 414ZM4486 365C4489 403 4494 435 4502 476C4491 481 4487 482 4482 482C4451 482 4420 458 4384 407C4345 351 4306 291 4290 256L4322 408C4326 425 4328 438 4328 450C4328 470 4320 482 4305 482C4284 482 4246 461 4172 408L4144 388L4151 368L4183 389C4211 407 4222 412 4231 412C4241 412 4248 403 4248 390C4248 332 4205 126 4165 -2L4175 -9C4190 -4 4206 -1 4229 4L4242 6L4268 126C4286 209 4309 262 4353 319C4387 363 4414 384 4436 384C4451 384 4461 379 4472 365ZM4834 111L4810 94C4757 56 4709 36 4673 36C4626 36 4597 73 4597 133C4597 158 4600 185 4605 214C4622 218 4731 248 4756 259C4841 296 4880 342 4880 404C4880 451 4846 482 4796 482C4728 496 4618 423 4581 349C4551 299 4521 180 4521 113C4521 35 4565 -11 4637 -11C4694 -11 4750 17 4842 92ZM4619 274C4636 343 4656 386 4685 412C4703 428 4734 440 4758 440C4787 440 4806 420 4806 388C4806 344 4771 297 4719 272C4691 258 4655 247 4610 237ZM5236 330L5259 330C5267 395 5274 432 5283 458C5259 473 5224 482 5187 482C5142 483 5069 463 5012 400C4958 352 4919 241 4919 136C4919 40 4961 -11 5041 -11C5095 -11 5143 9 5198 54L5248 95L5240 115L5225 105C5153 57 5115 40 5080 40C5024 40 4995 80 4995 159C4995 267 5030 371 5079 409C5100 425 5124 433 5155 433C5200 433 5236 414 5236 390ZM5317 152C5317 46 5362 -11 5445 -11C5500 -11 5560 15 5605 57C5667 116 5711 230 5711 331C5711 425 5661 482 5578 482C5474 482 5317 382 5317 152ZM5541 444C5602 444 5635 399 5635 315C5635 219 5604 113 5560 60C5542 39 5516 27 5485 27C5427 27 5393 72 5393 151C5393 264 5432 387 5481 427C5494 438 5517 444 5541 444ZM6111 365C6114 403 6119 435 6127 476C6116 481 6112 482 6107 482C6076 482 6045 458 6009 407C5970 351 5931 291 5915 256L5947 408C5951 425 5953 438 5953 450C5953 470 5945 482 5930 482C5909 482 5871 461 5797 408L5769 388L5776 368L5808 389C5836 407 5847 412 5856 412C5866 412 5873 403 5873 390C5873 332 5830 126 5790 -2L5800 -9C5815 -4 5831 -1 5854 4L5867 6L5893 126C5911 209 5934 262 5978 319C6012 363 6039 384 6061 384C6076 384 6086 379 6097 365ZM6499 365C6502 403 6507 435 6515 476C6504 481 6500 482 6495 482C6464 482 6433 458 6397 407C6358 351 6319 291 6303 256L6335 408C6339 425 6341 438 6341 450C6341 470 6333 482 6318 482C6297 482 6259 461 6185 408L6157 388L6164 368L6196 389C6224 407 6235 412 6244 412C6254 412 6261 403 6261 390C6261 332 6218 126 6178 -2L6188 -9C6203 -4 6219 -1 6242 4L6255 6L6281 126C6299 209 6322 262 6366 319C6400 363 6427 384 6449 384C6464 384 6474 379 6485 365ZM6553 388L6560 368L6592 389C6629 412 6632 414 6639 414C6649 414 6657 404 6657 391C6657 384 6653 361 6649 347L6583 107C6575 76 6570 49 6570 30C6570 6 6581 -9 6600 -9C6626 -9 6662 12 6760 85L6750 103L6724 86C6695 67 6672 56 6663 56C6656 56 6650 66 6650 76C6650 86 6652 95 6657 116L6734 420C6738 437 6740 448 6740 456C6740 473 6731 482 6715 482C6693 482 6656 461 6581 408ZM6747 712C6718 712 6689 679 6689 645C6689 620 6704 604 6728 604C6759 604 6783 633 6783 671C6783 695 6768 712 6747 712ZM7279 722L7267 733C7215 707 7179 698 7107 691L7103 670L7151 670C7175 670 7185 663 7185 646C7185 638 7184 629 7183 622L7155 468C7125 477 7098 482 7073 482C7004 482 6910 410 6864 323C6833 265 6813 170 6813 86C6813 21 6828 -11 6857 -11C6884 -11 6921 6 6955 33C7009 77 7042 116 7109 217L7086 126C7075 82 7070 50 7070 24C7070 3 7079 -9 7096 -9C7113 -9 7137 3 7171 28L7252 88L7242 107L7198 76C7184 66 7168 59 7159 59C7151 59 7145 68 7145 82C7145 90 7146 99 7153 128ZM6910 59C6894 59 6885 73 6885 98C6885 224 6931 380 6980 418C6993 428 7012 433 7039 433C7083 433 7112 427 7145 410L7133 351C7096 171 6955 59 6910 59ZM7566 204L7537 77C7533 60 7531 42 7531 26C7531 4 7540 -9 7555 -9C7578 -9 7619 17 7701 85L7694 106C7670 86 7641 59 7619 59C7610 59 7604 68 7604 82C7604 87 7604 90 7605 93L7697 472L7687 481L7654 463C7613 478 7596 482 7569 482C7541 482 7521 477 7494 464C7432 433 7399 403 7374 354C7330 265 7299 145 7299 67C7299 23 7314 -11 7333 -11C7370 -11 7450 41 7566 204ZM7614 414C7592 305 7573 253 7539 201C7482 117 7421 59 7389 59C7377 59 7371 72 7371 99C7371 163 7399 280 7434 360C7458 415 7481 433 7529 433C7552 433 7570 429 7614 414Z" stroke="rgb(0,0,0)" stroke-opacity="1" stroke-width="8" fill="rgb(0,0,0)" fill-opacity="1"></path></g></g></g><g><g><g transform="matrix(1,0,0,1,2,101)"><path transform="matrix(0.017,0,0,-0.017,0,0)" d="M125 390L69 107C68 99 56 61 56 31C56 6 67 -9 86 -9C121 -9 156 11 234 74L265 99L255 117L210 86C181 66 161 56 150 56C141 56 136 64 136 76C136 102 150 183 179 328L192 390L299 390L310 440C272 436 238 434 200 434C216 528 227 577 245 631L234 646C214 634 187 622 156 610L131 440C87 419 61 408 43 403L41 390Z" stroke="rgb(0,0,0)" stroke-opacity="1" stroke-width="8" fill="rgb(0,0,0)" fill-opacity="1"></path></g></g><g><g transform="matrix(1,0,0,1,11.04998779296875,101)"><path transform="matrix(0.017,0,0,-0.017,0,0)" d="M123 111C93 111 66 83 66 53C66 23 93 -5 122 -5C154 -5 182 22 182 53C182 83 154 111 123 111ZM123 456C93 456 66 428 66 398C66 368 93 340 122 340C154 340 182 367 182 397C182 428 154 456 123 456Z" stroke="rgb(0,0,0)" stroke-opacity="1" stroke-width="8" fill="rgb(0,0,0)" fill-opacity="1"></path></g></g><g><g transform="matrix(1,0,0,1,18.6875,101)"><path transform="matrix(0.017,0,0,-0.017,0,0)" d="M374 390L318 107C317 99 305 61 305 31C305 6 316 -9 335 -9C370 -9 405 11 483 74L514 99L504 117L459 86C430 66 410 56 399 56C390 56 385 64 385 76C385 102 399 183 428 328L441 390L548 390L559 440C521 436 487 434 449 434C465 528 476 577 494 631L483 646C463 634 436 622 405 610L380 440C336 419 310 408 292 403L290 390ZM615 388L622 368L654 389C691 412 694 414 701 414C711 414 719 404 719 391C719 384 715 361 711 347L645 107C637 76 632 49 632 30C632 6 643 -9 662 -9C688 -9 724 12 822 85L812 103L786 86C757 67 734 56 725 56C718 56 712 66 712 76C712 86 714 95 719 116L796 420C800 437 802 448 802 456C802 473 793 482 777 482C755 482 718 461 643 408ZM809 712C780 712 751 679 751 645C751 620 766 604 790 604C821 604 845 633 845 671C845 695 830 712 809 712ZM1186 111L1162 94C1109 56 1061 36 1025 36C978 36 949 73 949 133C949 158 952 185 957 214C974 218 1083 248 1108 259C1193 296 1232 342 1232 404C1232 451 1198 482 1148 482C1080 496 970 423 933 349C903 299 873 180 873 113C873 35 917 -11 989 -11C1046 -11 1102 17 1194 92ZM971 274C988 343 1008 386 1037 412C1055 428 1086 440 1110 440C1139 440 1158 420 1158 388C1158 344 1123 297 1071 272C1043 258 1007 247 962 237ZM1976 103L1950 86C1921 67 1899 56 1889 56C1882 56 1876 65 1876 76C1876 86 1878 95 1883 116L1958 413C1962 430 1965 446 1965 454C1965 471 1955 482 1939 482C1910 482 1872 464 1811 421C1748 376 1713 341 1664 272L1694 409C1698 429 1701 444 1701 451C1701 470 1691 482 1675 482C1645 482 1599 460 1544 418C1500 384 1480 363 1415 275L1448 408C1452 424 1454 439 1454 451C1454 470 1445 482 1431 482C1410 482 1372 461 1298 408L1270 388L1277 368C1314 391 1349 414 1356 414C1367 414 1374 404 1374 389C1374 338 1333 145 1292 2L1295 -9L1363 6L1385 108C1409 219 1436 278 1491 338C1533 384 1578 414 1606 414C1613 414 1617 406 1617 393C1617 358 1595 244 1554 69L1538 2L1543 -9L1612 6L1633 113C1649 194 1683 269 1727 318C1782 379 1832 414 1864 414C1872 414 1877 405 1877 389C1877 365 1874 351 1852 264C1812 105 1796 84 1796 31C1796 6 1807 -9 1826 -9C1852 -9 1888 12 1986 85ZM2199 -11C2255 -11 2370 62 2413 125C2454 186 2488 296 2488 371C2488 438 2465 482 2429 482C2387 482 2334 456 2282 409C2241 374 2221 348 2185 289L2209 408C2212 425 2214 440 2214 452C2214 471 2206 482 2192 482C2171 482 2133 461 2059 408L2031 388L2038 368L2070 389C2098 407 2109 412 2118 412C2128 412 2135 403 2135 389C2135 381 2133 361 2131 351L2073 8C2063 -52 2044 -143 2024 -233L2016 -270L2023 -276C2044 -269 2064 -264 2096 -259L2138 3C2159 -4 2181 -11 2199 -11ZM2166 165C2188 293 2295 424 2378 424C2404 424 2416 402 2416 356C2416 275 2376 156 2323 80C2303 51 2271 36 2230 36C2199 36 2174 43 2148 59ZM2539 152C2539 46 2584 -11 2667 -11C2722 -11 2782 15 2827 57C2889 116 2933 230 2933 331C2933 425 2883 482 2800 482C2696 482 2539 382 2539 152ZM2763 444C2824 444 2857 399 2857 315C2857 219 2826 113 2782 60C2764 39 2738 27 2707 27C2649 27 2615 72 2615 151C2615 264 2654 387 2703 427C2716 438 2739 444 2763 444ZM3339 390L3283 107C3282 99 3270 61 3270 31C3270 6 3281 -9 3300 -9C3335 -9 3370 11 3448 74L3479 99L3469 117L3424 86C3395 66 3375 56 3364 56C3355 56 3350 64 3350 76C3350 102 3364 183 3393 328L3406 390L3513 390L3524 440C3486 436 3452 434 3414 434C3430 528 3441 577 3459 631L3448 646C3428 634 3401 622 3370 610L3345 440C3301 419 3275 408 3257 403L3255 390ZM3914 365C3917 403 3922 435 3930 476C3919 481 3915 482 3910 482C3879 482 3848 458 3812 407C3773 351 3734 291 3718 256L3750 408C3754 425 3756 438 3756 450C3756 470 3748 482 3733 482C3712 482 3674 461 3600 408L3572 388L3579 368L3611 389C3639 407 3650 412 3659 412C3669 412 3676 403 3676 390C3676 332 3633 126 3593 -2L3603 -9C3618 -4 3634 -1 3657 4L3670 6L3696 126C3714 209 3737 262 3781 319C3815 363 3842 384 3864 384C3879 384 3889 379 3900 365ZM4205 204L4176 77C4172 60 4170 42 4170 26C4170 4 4179 -9 4194 -9C4217 -9 4258 17 4340 85L4333 106C4309 86 4280 59 4258 59C4249 59 4243 68 4243 82C4243 87 4243 90 4244 93L4336 472L4326 481L4293 463C4252 478 4235 482 4208 482C4180 482 4160 477 4133 464C4071 433 4038 403 4013 354C3969 265 3938 145 3938 67C3938 23 3953 -11 3972 -11C4009 -11 4089 41 4205 204ZM4253 414C4231 305 4212 253 4178 201C4121 117 4060 59 4028 59C4016 59 4010 72 4010 99C4010 163 4038 280 4073 360C4097 415 4120 433 4168 433C4191 433 4209 429 4253 414ZM4401 388L4408 368L4440 389C4477 412 4480 414 4487 414C4498 414 4505 404 4505 389C4505 338 4464 145 4423 2L4430 -9C4455 -2 4478 4 4500 8C4519 134 4540 199 4586 268C4640 352 4715 414 4760 414C4771 414 4777 405 4777 390C4777 372 4774 351 4766 319L4714 107C4705 70 4701 47 4701 31C4701 6 4712 -9 4731 -9C4757 -9 4793 12 4891 85L4881 103L4855 86C4826 67 4804 56 4794 56C4787 56 4781 65 4781 76C4781 81 4782 92 4783 96L4849 372C4856 401 4860 429 4860 446C4860 469 4849 482 4829 482C4787 482 4718 444 4659 389C4621 354 4593 320 4541 247L4579 408C4583 426 4585 438 4585 449C4585 470 4577 482 4562 482C4541 482 4502 460 4429 408ZM4963 148C4958 97 4952 62 4941 16C4979 -2 5013 -11 5048 -11C5097 -11 5143 7 5194 47C5245 87 5266 124 5266 174C5266 228 5234 257 5160 271L5117 279C5057 290 5038 307 5038 348C5038 401 5083 442 5140 442C5181 442 5219 424 5235 397L5235 342L5258 342C5262 377 5266 404 5277 455C5238 474 5210 482 5177 482C5125 482 5064 452 5016 404C4990 377 4979 352 4979 316C4979 260 5010 228 5076 215L5139 203C5183 195 5199 177 5199 138C5199 73 5153 29 5082 29C5047 29 5016 40 4988 64L4988 148ZM5662 330L5685 330C5693 395 5700 432 5709 458C5685 473 5650 482 5613 482C5568 483 5495 463 5438 400C5384 352 5345 241 5345 136C5345 40 5387 -11 5467 -11C5521 -11 5569 9 5624 54L5674 95L5666 115L5651 105C5579 57 5541 40 5506 40C5450 40 5421 80 5421 159C5421 267 5456 371 5505 409C5526 425 5550 433 5581 433C5626 433 5662 414 5662 390ZM6218 473L6211 482L6143 465L6133 414C6118 336 6093 268 6062 221C6003 130 5925 59 5885 59C5877 59 5872 68 5872 85C5872 99 5874 112 5879 137L5936 408C5939 424 5941 438 5941 451C5941 470 5932 482 5918 482C5898 482 5860 461 5786 408L5758 388L5765 368L5797 389C5825 407 5836 412 5845 412C5854 412 5862 403 5862 392C5862 388 5861 378 5860 374L5797 77C5795 68 5793 44 5793 30C5793 7 5808 -11 5828 -11C5891 -11 6012 101 6096 239L6059 97C6052 73 6048 46 6048 31C6048 6 6059 -9 6078 -9C6104 -9 6140 12 6238 85L6228 103L6202 86C6178 70 6152 59 6141 59C6133 59 6128 66 6128 76C6128 112 6203 416 6218 473ZM6649 365C6652 403 6657 435 6665 476C6654 481 6650 482 6645 482C6614 482 6583 458 6547 407C6508 351 6469 291 6453 256L6485 408C6489 425 6491 438 6491 450C6491 470 6483 482 6468 482C6447 482 6409 461 6335 408L6307 388L6314 368L6346 389C6374 407 6385 412 6394 412C6404 412 6411 403 6411 390C6411 332 6368 126 6328 -2L6338 -9C6353 -4 6369 -1 6392 4L6405 6L6431 126C6449 209 6472 262 6516 319C6550 363 6577 384 6599 384C6614 384 6624 379 6635 365ZM7037 365C7040 403 7045 435 7053 476C7042 481 7038 482 7033 482C7002 482 6971 458 6935 407C6896 351 6857 291 6841 256L6873 408C6877 425 6879 438 6879 450C6879 470 6871 482 6856 482C6835 482 6797 461 6723 408L6695 388L6702 368L6734 389C6762 407 6773 412 6782 412C6792 412 6799 403 6799 390C6799 332 6756 126 6716 -2L6726 -9C6741 -4 6757 -1 6780 4L6793 6L6819 126C6837 209 6860 262 6904 319C6938 363 6965 384 6987 384C7002 384 7012 379 7023 365ZM7091 388L7098 368L7130 389C7167 412 7170 414 7177 414C7187 414 7195 404 7195 391C7195 384 7191 361 7187 347L7121 107C7113 76 7108 49 7108 30C7108 6 7119 -9 7138 -9C7164 -9 7200 12 7298 85L7288 103L7262 86C7233 67 7210 56 7201 56C7194 56 7188 66 7188 76C7188 86 7190 95 7195 116L7272 420C7276 437 7278 448 7278 456C7278 473 7269 482 7253 482C7231 482 7194 461 7119 408ZM7285 712C7256 712 7227 679 7227 645C7227 620 7242 604 7266 604C7297 604 7321 633 7321 671C7321 695 7306 712 7285 712ZM7817 722L7805 733C7753 707 7717 698 7645 691L7641 670L7689 670C7713 670 7723 663 7723 646C7723 638 7722 629 7721 622L7693 468C7663 477 7636 482 7611 482C7542 482 7448 410 7402 323C7371 265 7351 170 7351 86C7351 21 7366 -11 7395 -11C7422 -11 7459 6 7493 33C7547 77 7580 116 7647 217L7624 126C7613 82 7608 50 7608 24C7608 3 7617 -9 7634 -9C7651 -9 7675 3 7709 28L7790 88L7780 107L7736 76C7722 66 7706 59 7697 59C7689 59 7683 68 7683 82C7683 90 7684 99 7691 128ZM7448 59C7432 59 7423 73 7423 98C7423 224 7469 380 7518 418C7531 428 7550 433 7577 433C7621 433 7650 427 7683 410L7671 351C7634 171 7493 59 7448 59ZM7850 152C7850 46 7895 -11 7978 -11C8033 -11 8093 15 8138 57C8200 116 8244 230 8244 331C8244 425 8194 482 8111 482C8007 482 7850 382 7850 152ZM8074 444C8135 444 8168 399 8168 315C8168 219 8137 113 8093 60C8075 39 8049 27 8018 27C7960 27 7926 72 7926 151C7926 264 7965 387 8014 427C8027 438 8050 444 8074 444Z" stroke="rgb(0,0,0)" stroke-opacity="1" stroke-width="8" fill="rgb(0,0,0)" fill-opacity="1"></path></g></g></g></g></svg>