<svg xmlns="http://www.w3.org/2000/svg" xmlns:xlink="http://www.w3.org/1999/xlink" width="188.29000854492188" height="104.80000305175781" style="width:188.29000854492188px;height:104.80000305175781px;font-family:Asana-Math, Asana;background:#FFF;"><g><g><g><g transform="matrix(1,0,0,1,2,18.040000915527344)"><path transform="matrix(0.017,0,0,-0.017,0,0)" d="M221 334L338 334L470 330L489 375L485 382C404 378 344 376 266 376L229 376L276 646C308 647 391 650 413 650C475 650 516 641 517 626L525 537L549 537C552 601 559 651 570 689C549 691 519 692 501 692C498 692 487 692 463 691L343 690C334 689 160 691 150 691L105 692L102 664L156 662C180 661 191 653 191 635C191 621 187 589 182 559L95 55C91 37 79 30 35 23L30 -3L71 -2C102 -1 164 0 184 0L409 -3C423 -3 448 -2 481 -1L514 0L518 36C520 56 525 86 534 135L539 161L512 161L496 101C486 65 477 53 455 48C435 44 362 39 308 39C267 39 240 40 171 46ZM776 420C797 420 813 421 839 424C728 304 686 221 686 121C686 44 732 -11 796 -11C934 -11 1087 236 1087 384C1087 441 1061 482 1025 482C1012 482 1000 478 992 470L942 423L953 404C962 410 971 413 980 413C1007 413 1023 390 1023 350C1023 202 926 39 838 39C789 39 758 81 758 146C758 251 797 342 895 464L885 482C865 473 852 470 824 470C796 470 754 472 725 475L713 476C707 477 702 477 701 477C689 477 680 475 669 470C655 443 644 407 631 352L653 352L670 394C677 411 697 422 721 422C754 422 738 420 776 420ZM1437 111L1413 94C1360 56 1312 36 1276 36C1229 36 1200 73 1200 133C1200 158 1203 185 1208 214C1225 218 1334 248 1359 259C1444 296 1483 342 1483 404C1483 451 1449 482 1399 482C1331 496 1221 423 1184 349C1154 299 1124 180 1124 113C1124 35 1168 -11 1240 -11C1297 -11 1353 17 1445 92ZM1222 274C1239 343 1259 386 1288 412C1306 428 1337 440 1361 440C1390 440 1409 420 1409 388C1409 344 1374 297 1322 272C1294 258 1258 247 1213 237ZM1521 388L1528 368L1560 389C1597 412 1600 414 1607 414C1618 414 1625 404 1625 389C1625 338 1584 145 1543 2L1550 -9C1575 -2 1598 4 1620 8C1639 134 1660 199 1706 268C1760 352 1835 414 1880 414C1891 414 1897 405 1897 390C1897 372 1894 351 1886 319L1834 107C1825 70 1821 47 1821 31C1821 6 1832 -9 1851 -9C1877 -9 1913 12 2011 85L2001 103L1975 86C1946 67 1924 56 1914 56C1907 56 1901 65 1901 76C1901 81 1902 92 1903 96L1969 372C1976 401 1980 429 1980 446C1980 469 1969 482 1949 482C1907 482 1838 444 1779 389C1741 354 1713 320 1661 247L1699 408C1703 426 1705 438 1705 449C1705 470 1697 482 1682 482C1661 482 1622 460 1549 408ZM2177 390L2121 107C2120 99 2108 61 2108 31C2108 6 2119 -9 2138 -9C2173 -9 2208 11 2286 74L2317 99L2307 117L2262 86C2233 66 2213 56 2202 56C2193 56 2188 64 2188 76C2188 102 2202 183 2231 328L2244 390L2351 390L2362 440C2324 436 2290 434 2252 434C2268 528 2279 577 2297 631L2286 646C2266 634 2239 622 2208 610L2183 440C2139 419 2113 408 2095 403L2093 390ZM2401 152C2401 46 2446 -11 2529 -11C2584 -11 2644 15 2689 57C2751 116 2795 230 2795 331C2795 425 2745 482 2662 482C2558 482 2401 382 2401 152ZM2625 444C2686 444 2719 399 2719 315C2719 219 2688 113 2644 60C2626 39 2600 27 2569 27C2511 27 2477 72 2477 151C2477 264 2516 387 2565 427C2578 438 2601 444 2625 444ZM2858 148C2853 97 2847 62 2836 16C2874 -2 2908 -11 2943 -11C2992 -11 3038 7 3089 47C3140 87 3161 124 3161 174C3161 228 3129 257 3055 271L3012 279C2952 290 2933 307 2933 348C2933 401 2978 442 3035 442C3076 442 3114 424 3130 397L3130 342L3153 342C3157 377 3161 404 3172 455C3133 474 3105 482 3072 482C3020 482 2959 452 2911 404C2885 377 2874 352 2874 316C2874 260 2905 228 2971 215L3034 203C3078 195 3094 177 3094 138C3094 73 3048 29 2977 29C2942 29 2911 40 2883 64L2883 148ZM3567 664L3614 662C3638 661 3649 653 3649 636C3649 629 3643 576 3640 559L3568 125C3553 36 3550 31 3510 28L3474 25L3471 -3L3503 -3L3597 0L3691 -3L3723 -3L3726 25L3674 28C3648 30 3638 37 3638 57C3638 63 3639 74 3640 78L3729 613C3736 652 3741 657 3780 661L3815 664L3818 692L3712 689C3695 689 3677 689 3634 690L3570 692ZM3820 388L3827 368L3859 389C3896 412 3899 414 3906 414C3917 414 3924 404 3924 389C3924 338 3883 145 3842 2L3849 -9C3874 -2 3897 4 3919 8C3938 134 3959 199 4005 268C4059 352 4134 414 4179 414C4190 414 4196 405 4196 390C4196 372 4193 351 4185 319L4133 107C4124 70 4120 47 4120 31C4120 6 4131 -9 4150 -9C4176 -9 4212 12 4310 85L4300 103L4274 86C4245 67 4223 56 4213 56C4206 56 4200 65 4200 76C4200 81 4201 92 4202 96L4268 372C4275 401 4279 429 4279 446C4279 469 4268 482 4248 482C4206 482 4137 444 4078 389C4040 354 4012 320 3960 247L3998 408C4002 426 4004 438 4004 449C4004 470 3996 482 3981 482C3960 482 3921 460 3848 408ZM4476 390L4420 107C4419 99 4407 61 4407 31C4407 6 4418 -9 4437 -9C4472 -9 4507 11 4585 74L4616 99L4606 117L4561 86C4532 66 4512 56 4501 56C4492 56 4487 64 4487 76C4487 102 4501 183 4530 328L4543 390L4650 390L4661 440C4623 436 4589 434 4551 434C4567 528 4578 577 4596 631L4585 646C4565 634 4538 622 4507 610L4482 440C4438 419 4412 408 4394 403L4392 390ZM5011 111L4987 94C4934 56 4886 36 4850 36C4803 36 4774 73 4774 133C4774 158 4777 185 4782 214C4799 218 4908 248 4933 259C5018 296 5057 342 5057 404C5057 451 5023 482 4973 482C4905 496 4795 423 4758 349C4728 299 4698 180 4698 113C4698 35 4742 -11 4814 -11C4871 -11 4927 17 5019 92ZM4796 274C4813 343 4833 386 4862 412C4880 428 4911 440 4935 440C4964 440 4983 420 4983 388C4983 344 4948 297 4896 272C4868 258 4832 247 4787 237ZM5247 -11C5303 -11 5418 62 5461 125C5502 186 5536 296 5536 371C5536 438 5513 482 5477 482C5435 482 5382 456 5330 409C5289 374 5269 348 5233 289L5257 408C5260 425 5262 440 5262 452C5262 471 5254 482 5240 482C5219 482 5181 461 5107 408L5079 388L5086 368L5118 389C5146 407 5157 412 5166 412C5176 412 5183 403 5183 389C5183 381 5181 361 5179 351L5121 8C5111 -52 5092 -143 5072 -233L5064 -270L5071 -276C5092 -269 5112 -264 5144 -259L5186 3C5207 -4 5229 -11 5247 -11ZM5214 165C5236 293 5343 424 5426 424C5452 424 5464 402 5464 356C5464 275 5424 156 5371 80C5351 51 5319 36 5278 36C5247 36 5222 43 5196 59ZM5898 111L5874 94C5821 56 5773 36 5737 36C5690 36 5661 73 5661 133C5661 158 5664 185 5669 214C5686 218 5795 248 5820 259C5905 296 5944 342 5944 404C5944 451 5910 482 5860 482C5792 496 5682 423 5645 349C5615 299 5585 180 5585 113C5585 35 5629 -11 5701 -11C5758 -11 5814 17 5906 92ZM5683 274C5700 343 5720 386 5749 412C5767 428 5798 440 5822 440C5851 440 5870 420 5870 388C5870 344 5835 297 5783 272C5755 258 5719 247 5674 237ZM5982 388L5989 368L6021 389C6058 412 6061 414 6068 414C6079 414 6086 404 6086 389C6086 338 6045 145 6004 2L6011 -9C6036 -2 6059 4 6081 8C6100 134 6121 199 6167 268C6221 352 6296 414 6341 414C6352 414 6358 405 6358 390C6358 372 6355 351 6347 319L6295 107C6286 70 6282 47 6282 31C6282 6 6293 -9 6312 -9C6338 -9 6374 12 6472 85L6462 103L6436 86C6407 67 6385 56 6375 56C6368 56 6362 65 6362 76C6362 81 6363 92 6364 96L6430 372C6437 401 6441 429 6441 446C6441 469 6430 482 6410 482C6368 482 6299 444 6240 389C6202 354 6174 320 6122 247L6160 408C6164 426 6166 438 6166 449C6166 470 6158 482 6143 482C6122 482 6083 460 6010 408ZM6996 722L6984 733C6932 707 6896 698 6824 691L6820 670L6868 670C6892 670 6902 663 6902 646C6902 638 6901 629 6900 622L6872 468C6842 477 6815 482 6790 482C6721 482 6627 410 6581 323C6550 265 6530 170 6530 86C6530 21 6545 -11 6574 -11C6601 -11 6638 6 6672 33C6726 77 6759 116 6826 217L6803 126C6792 82 6787 50 6787 24C6787 3 6796 -9 6813 -9C6830 -9 6854 3 6888 28L6969 88L6959 107L6915 76C6901 66 6885 59 6876 59C6868 59 6862 68 6862 82C6862 90 6863 99 6870 128ZM6627 59C6611 59 6602 73 6602 98C6602 224 6648 380 6697 418C6710 428 6729 433 6756 433C6800 433 6829 427 6862 410L6850 351C6813 171 6672 59 6627 59ZM7046 388L7053 368L7085 389C7122 412 7125 414 7132 414C7142 414 7150 404 7150 391C7150 384 7146 361 7142 347L7076 107C7068 76 7063 49 7063 30C7063 6 7074 -9 7093 -9C7119 -9 7155 12 7253 85L7243 103L7217 86C7188 67 7165 56 7156 56C7149 56 7143 66 7143 76C7143 86 7145 95 7150 116L7227 420C7231 437 7233 448 7233 456C7233 473 7224 482 7208 482C7186 482 7149 461 7074 408ZM7240 712C7211 712 7182 679 7182 645C7182 620 7197 604 7221 604C7252 604 7276 633 7276 671C7276 695 7261 712 7240 712ZM7617 111L7593 94C7540 56 7492 36 7456 36C7409 36 7380 73 7380 133C7380 158 7383 185 7388 214C7405 218 7514 248 7539 259C7624 296 7663 342 7663 404C7663 451 7629 482 7579 482C7511 496 7401 423 7364 349C7334 299 7304 180 7304 113C7304 35 7348 -11 7420 -11C7477 -11 7533 17 7625 92ZM7402 274C7419 343 7439 386 7468 412C7486 428 7517 440 7541 440C7570 440 7589 420 7589 388C7589 344 7554 297 7502 272C7474 258 7438 247 7393 237ZM7701 388L7708 368L7740 389C7777 412 7780 414 7787 414C7798 414 7805 404 7805 389C7805 338 7764 145 7723 2L7730 -9C7755 -2 7778 4 7800 8C7819 134 7840 199 7886 268C7940 352 8015 414 8060 414C8071 414 8077 405 8077 390C8077 372 8074 351 8066 319L8014 107C8005 70 8001 47 8001 31C8001 6 8012 -9 8031 -9C8057 -9 8093 12 8191 85L8181 103L8155 86C8126 67 8104 56 8094 56C8087 56 8081 65 8081 76C8081 81 8082 92 8083 96L8149 372C8156 401 8160 429 8160 446C8160 469 8149 482 8129 482C8087 482 8018 444 7959 389C7921 354 7893 320 7841 247L7879 408C7883 426 7885 438 7885 449C7885 470 7877 482 7862 482C7841 482 7802 460 7729 408ZM8357 390L8301 107C8300 99 8288 61 8288 31C8288 6 8299 -9 8318 -9C8353 -9 8388 11 8466 74L8497 99L8487 117L8442 86C8413 66 8393 56 8382 56C8373 56 8368 64 8368 76C8368 102 8382 183 8411 328L8424 390L8531 390L8542 440C8504 436 8470 434 8432 434C8448 528 8459 577 8477 631L8466 646C8446 634 8419 622 8388 610L8363 440C8319 419 8293 408 8275 403L8273 390ZM8892 111L8868 94C8815 56 8767 36 8731 36C8684 36 8655 73 8655 133C8655 158 8658 185 8663 214C8680 218 8789 248 8814 259C8899 296 8938 342 8938 404C8938 451 8904 482 8854 482C8786 496 8676 423 8639 349C8609 299 8579 180 8579 113C8579 35 8623 -11 8695 -11C8752 -11 8808 17 8900 92ZM8677 274C8694 343 8714 386 8743 412C8761 428 8792 440 8816 440C8845 440 8864 420 8864 388C8864 344 8829 297 8777 272C8749 258 8713 247 8668 237ZM8983 148C8978 97 8972 62 8961 16C8999 -2 9033 -11 9068 -11C9117 -11 9163 7 9214 47C9265 87 9286 124 9286 174C9286 228 9254 257 9180 271L9137 279C9077 290 9058 307 9058 348C9058 401 9103 442 9160 442C9201 442 9239 424 9255 397L9255 342L9278 342C9282 377 9286 404 9297 455C9258 474 9230 482 9197 482C9145 482 9084 452 9036 404C9010 377 8999 352 8999 316C8999 260 9030 228 9096 215L9159 203C9203 195 9219 177 9219 138C9219 73 9173 29 9102 29C9067 29 9036 40 9008 64L9008 148Z" stroke="rgb(0,0,0)" stroke-opacity="1" stroke-width="8" fill="rgb(0,0,0)" fill-opacity="1"></path></g></g></g><g><g><g transform="matrix(1,0,0,1,2,38.19999694824219)"><path transform="matrix(0.017,0,0,-0.017,0,0)" d="M105 664L160 662C184 661 195 653 195 635L112 125C95 34 94 31 54 28L13 25L9 -3L51 -2C92 -1 123 0 141 0C158 0 187 -1 227 -2L280 -3L283 25L218 28C192 29 182 37 182 58C182 67 183 74 186 93L284 648C320 654 336 656 355 656C457 656 506 612 506 519C506 411 434 323 346 323C324 323 304 328 267 342L269 311C306 293 326 288 355 288C484 288 594 405 594 541C594 642 531 695 412 692L108 692Z" stroke="rgb(0,0,0)" stroke-opacity="1" stroke-width="8" fill="rgb(0,0,0)" fill-opacity="1"></path></g></g><g><g transform="matrix(1,0,0,1,12.3800048828125,39.160003662109375)"><path transform="matrix(0.017,0,0,-0.017,0,0)" d="M146 266C146 526 243 632 301 700L282 726C225 675 60 542 60 266C60 159 85 58 133 -32C168 -99 200 -138 282 -215L301 -194C255 -137 146 -15 146 266Z" stroke="rgb(0,0,0)" stroke-opacity="1" stroke-width="8" fill="rgb(0,0,0)" fill-opacity="1"></path></g></g><g><g transform="matrix(1,0,0,1,18.035003662109375,38.19999694824219)"><path transform="matrix(0.017,0,0,-0.017,0,0)" d="M567 55C567 39 552 30 524 28L480 25L480 -3C582 0 582 0 602 0C622 0 622 0 724 -3L724 25L698 28C651 35 650 35 642 80L555 705L509 705L136 112C100 56 82 40 48 32L28 27L28 -3C120 0 120 0 140 0C159 0 161 0 247 -3L247 25L195 28C179 29 164 38 164 47C164 55 171 69 190 102L292 277L538 277L563 89L563 86C563 84 567 69 567 55ZM496 601L533 313L317 313Z" stroke="rgb(0,0,0)" stroke-opacity="1" stroke-width="8" fill="rgb(0,0,0)" fill-opacity="1"></path></g></g><g><g transform="matrix(1,0,0,1,34.19000244140625,38.19999694824219)"><path transform="matrix(0.017,0,0,-0.017,0,0)" d="M623 0L354 585L336 585L65 0L125 0L345 480L563 0Z" stroke="rgb(0,0,0)" stroke-opacity="1" stroke-width="8" fill="rgb(0,0,0)" fill-opacity="1"></path></g></g><g><g transform="matrix(1,0,0,1,49.2650146484375,38.19999694824219)"><path transform="matrix(0.017,0,0,-0.017,0,0)" d="M543 227C543 337 459 353 377 365C434 385 459 397 490 425C536 464 559 511 559 562C559 644 501 692 401 692C399 692 389 692 374 691L311 690C299 689 263 689 251 689C232 689 201 690 152 691L100 692L97 664L150 662C174 661 185 653 185 635C185 621 181 589 176 559L89 55C85 37 73 30 31 23L26 -3L63 -2C90 0 105 0 117 0C128 0 154 -1 180 -2L217 -3L237 -4C256 -5 269 -6 277 -6C392 -6 543 87 543 227ZM166 41L217 340L302 340C405 340 455 298 455 211C455 108 382 34 282 34C228 34 207 38 166 41ZM352 655C433 655 473 619 473 544C473 439 399 376 275 376L223 376L272 650C288 650 329 655 352 655Z" stroke="rgb(0,0,0)" stroke-opacity="1" stroke-width="8" fill="rgb(0,0,0)" fill-opacity="1"></path></g></g><g><g transform="matrix(1,0,0,1,59.64501953125,39.160003662109375)"><path transform="matrix(0.017,0,0,-0.017,0,0)" d="M51 726L32 700C87 636 187 526 187 266C187 -10 83 -131 32 -194L51 -215C104 -165 273 -23 273 265C273 542 108 675 51 726Z" stroke="rgb(0,0,0)" stroke-opacity="1" stroke-width="8" fill="rgb(0,0,0)" fill-opacity="1"></path></g></g><g><g transform="matrix(1,0,0,1,70.4000244140625,38.19999694824219)"><path transform="matrix(0.017,0,0,-0.017,0,0)" d="M604 347L604 406L65 406L65 347ZM604 134L604 193L65 193L65 134Z" stroke="rgb(0,0,0)" stroke-opacity="1" stroke-width="8" fill="rgb(0,0,0)" fill-opacity="1"></path></g></g><g><g transform="matrix(1,0,0,1,86.85501098632812,38.19999694824219)"><path transform="matrix(0.017,0,0,-0.017,0,0)" d="M105 664L160 662C184 661 195 653 195 635L112 125C95 34 94 31 54 28L13 25L9 -3L51 -2C92 -1 123 0 141 0C158 0 187 -1 227 -2L280 -3L283 25L218 28C192 29 182 37 182 58C182 67 183 74 186 93L284 648C320 654 336 656 355 656C457 656 506 612 506 519C506 411 434 323 346 323C324 323 304 328 267 342L269 311C306 293 326 288 355 288C484 288 594 405 594 541C594 642 531 695 412 692L108 692Z" stroke="rgb(0,0,0)" stroke-opacity="1" stroke-width="8" fill="rgb(0,0,0)" fill-opacity="1"></path></g></g><g><g transform="matrix(1,0,0,1,97.23501586914062,39.160003662109375)"><path transform="matrix(0.017,0,0,-0.017,0,0)" d="M146 266C146 526 243 632 301 700L282 726C225 675 60 542 60 266C60 159 85 58 133 -32C168 -99 200 -138 282 -215L301 -194C255 -137 146 -15 146 266Z" stroke="rgb(0,0,0)" stroke-opacity="1" stroke-width="8" fill="rgb(0,0,0)" fill-opacity="1"></path></g></g><g><g transform="matrix(1,0,0,1,102.88998413085938,38.19999694824219)"><path transform="matrix(0.017,0,0,-0.017,0,0)" d="M567 55C567 39 552 30 524 28L480 25L480 -3C582 0 582 0 602 0C622 0 622 0 724 -3L724 25L698 28C651 35 650 35 642 80L555 705L509 705L136 112C100 56 82 40 48 32L28 27L28 -3C120 0 120 0 140 0C159 0 161 0 247 -3L247 25L195 28C179 29 164 38 164 47C164 55 171 69 190 102L292 277L538 277L563 89L563 86C563 84 567 69 567 55ZM496 601L533 313L317 313Z" stroke="rgb(0,0,0)" stroke-opacity="1" stroke-width="8" fill="rgb(0,0,0)" fill-opacity="1"></path></g></g><g><g transform="matrix(1,0,0,1,115.65499877929688,39.160003662109375)"><path transform="matrix(0.017,0,0,-0.017,0,0)" d="M51 726L32 700C87 636 187 526 187 266C187 -10 83 -131 32 -194L51 -215C104 -165 273 -23 273 265C273 542 108 675 51 726Z" stroke="rgb(0,0,0)" stroke-opacity="1" stroke-width="8" fill="rgb(0,0,0)" fill-opacity="1"></path></g></g><g><g transform="matrix(1,0,0,1,121.31002807617188,38.19999694824219)"><path transform="matrix(0.017,0,0,-0.017,0,0)" d="M417 267L286 213L281 204L317 153L327 153L433 241L451 99L461 95L529 121L529 131L461 253L599 233L608 241L608 303L602 307L463 283L532 408L529 423L467 442L458 438L432 295L337 393L327 393L283 341L286 331ZM991 664L1046 662C1070 661 1081 653 1081 635L998 125C981 34 980 31 940 28L899 25L895 -3L937 -2C978 -1 1009 0 1027 0C1044 0 1073 -1 1113 -2L1166 -3L1169 25L1104 28C1078 29 1068 37 1068 58C1068 67 1069 74 1072 93L1170 648C1206 654 1222 656 1241 656C1343 656 1392 612 1392 519C1392 411 1320 323 1232 323C1210 323 1190 328 1153 342L1155 311C1192 293 1212 288 1241 288C1370 288 1480 405 1480 541C1480 642 1417 695 1298 692L994 692Z" stroke="rgb(0,0,0)" stroke-opacity="1" stroke-width="8" fill="rgb(0,0,0)" fill-opacity="1"></path></g></g><g><g transform="matrix(1,0,0,1,146.73501586914062,39.160003662109375)"><path transform="matrix(0.017,0,0,-0.017,0,0)" d="M146 266C146 526 243 632 301 700L282 726C225 675 60 542 60 266C60 159 85 58 133 -32C168 -99 200 -138 282 -215L301 -194C255 -137 146 -15 146 266Z" stroke="rgb(0,0,0)" stroke-opacity="1" stroke-width="8" fill="rgb(0,0,0)" fill-opacity="1"></path></g></g><g><g transform="matrix(1,0,0,1,152.39004516601562,38.19999694824219)"><path transform="matrix(0.017,0,0,-0.017,0,0)" d="M543 227C543 337 459 353 377 365C434 385 459 397 490 425C536 464 559 511 559 562C559 644 501 692 401 692C399 692 389 692 374 691L311 690C299 689 263 689 251 689C232 689 201 690 152 691L100 692L97 664L150 662C174 661 185 653 185 635C185 621 181 589 176 559L89 55C85 37 73 30 31 23L26 -3L63 -2C90 0 105 0 117 0C128 0 154 -1 180 -2L217 -3L237 -4C256 -5 269 -6 277 -6C392 -6 543 87 543 227ZM166 41L217 340L302 340C405 340 455 298 455 211C455 108 382 34 282 34C228 34 207 38 166 41ZM352 655C433 655 473 619 473 544C473 439 399 376 275 376L223 376L272 650C288 650 329 655 352 655Z" stroke="rgb(0,0,0)" stroke-opacity="1" stroke-width="8" fill="rgb(0,0,0)" fill-opacity="1"></path></g></g><g><g transform="matrix(1,0,0,1,162.76998901367188,39.160003662109375)"><path transform="matrix(0.017,0,0,-0.017,0,0)" d="M51 726L32 700C87 636 187 526 187 266C187 -10 83 -131 32 -194L51 -215C104 -165 273 -23 273 265C273 542 108 675 51 726Z" stroke="rgb(0,0,0)" stroke-opacity="1" stroke-width="8" fill="rgb(0,0,0)" fill-opacity="1"></path></g></g></g><g></g><g><g><g transform="matrix(1,0,0,1,2,78.52000427246094)"><path transform="matrix(0.017,0,0,-0.017,0,0)" d="M221 334L338 334L470 330L489 375L485 382C404 378 344 376 266 376L229 376L276 646C308 647 391 650 413 650C475 650 516 641 517 626L525 537L549 537C552 601 559 651 570 689C549 691 519 692 501 692C498 692 487 692 463 691L343 690C334 689 160 691 150 691L105 692L102 664L156 662C180 661 191 653 191 635C191 621 187 589 182 559L95 55C91 37 79 30 35 23L30 -3L71 -2C102 -1 164 0 184 0L409 -3C423 -3 448 -2 481 -1L514 0L518 36C520 56 525 86 534 135L539 161L512 161L496 101C486 65 477 53 455 48C435 44 362 39 308 39C267 39 240 40 171 46ZM776 420C797 420 813 421 839 424C728 304 686 221 686 121C686 44 732 -11 796 -11C934 -11 1087 236 1087 384C1087 441 1061 482 1025 482C1012 482 1000 478 992 470L942 423L953 404C962 410 971 413 980 413C1007 413 1023 390 1023 350C1023 202 926 39 838 39C789 39 758 81 758 146C758 251 797 342 895 464L885 482C865 473 852 470 824 470C796 470 754 472 725 475L713 476C707 477 702 477 701 477C689 477 680 475 669 470C655 443 644 407 631 352L653 352L670 394C677 411 697 422 721 422C754 422 738 420 776 420ZM1437 111L1413 94C1360 56 1312 36 1276 36C1229 36 1200 73 1200 133C1200 158 1203 185 1208 214C1225 218 1334 248 1359 259C1444 296 1483 342 1483 404C1483 451 1449 482 1399 482C1331 496 1221 423 1184 349C1154 299 1124 180 1124 113C1124 35 1168 -11 1240 -11C1297 -11 1353 17 1445 92ZM1222 274C1239 343 1259 386 1288 412C1306 428 1337 440 1361 440C1390 440 1409 420 1409 388C1409 344 1374 297 1322 272C1294 258 1258 247 1213 237ZM1521 388L1528 368L1560 389C1597 412 1600 414 1607 414C1618 414 1625 404 1625 389C1625 338 1584 145 1543 2L1550 -9C1575 -2 1598 4 1620 8C1639 134 1660 199 1706 268C1760 352 1835 414 1880 414C1891 414 1897 405 1897 390C1897 372 1894 351 1886 319L1834 107C1825 70 1821 47 1821 31C1821 6 1832 -9 1851 -9C1877 -9 1913 12 2011 85L2001 103L1975 86C1946 67 1924 56 1914 56C1907 56 1901 65 1901 76C1901 81 1902 92 1903 96L1969 372C1976 401 1980 429 1980 446C1980 469 1969 482 1949 482C1907 482 1838 444 1779 389C1741 354 1713 320 1661 247L1699 408C1703 426 1705 438 1705 449C1705 470 1697 482 1682 482C1661 482 1622 460 1549 408ZM2177 390L2121 107C2120 99 2108 61 2108 31C2108 6 2119 -9 2138 -9C2173 -9 2208 11 2286 74L2317 99L2307 117L2262 86C2233 66 2213 56 2202 56C2193 56 2188 64 2188 76C2188 102 2202 183 2231 328L2244 390L2351 390L2362 440C2324 436 2290 434 2252 434C2268 528 2279 577 2297 631L2286 646C2266 634 2239 622 2208 610L2183 440C2139 419 2113 408 2095 403L2093 390ZM2401 152C2401 46 2446 -11 2529 -11C2584 -11 2644 15 2689 57C2751 116 2795 230 2795 331C2795 425 2745 482 2662 482C2558 482 2401 382 2401 152ZM2625 444C2686 444 2719 399 2719 315C2719 219 2688 113 2644 60C2626 39 2600 27 2569 27C2511 27 2477 72 2477 151C2477 264 2516 387 2565 427C2578 438 2601 444 2625 444ZM2858 148C2853 97 2847 62 2836 16C2874 -2 2908 -11 2943 -11C2992 -11 3038 7 3089 47C3140 87 3161 124 3161 174C3161 228 3129 257 3055 271L3012 279C2952 290 2933 307 2933 348C2933 401 2978 442 3035 442C3076 442 3114 424 3130 397L3130 342L3153 342C3157 377 3161 404 3172 455C3133 474 3105 482 3072 482C3020 482 2959 452 2911 404C2885 377 2874 352 2874 316C2874 260 2905 228 2971 215L3034 203C3078 195 3094 177 3094 138C3094 73 3048 29 2977 29C2942 29 2911 40 2883 64L2883 148ZM3780 -3C3852 -3 3901 8 3953 34C4109 114 4205 265 4205 431C4205 529 4175 599 4114 642C4068 675 3983 693 3888 692L3684 689L3674 689C3665 689 3662 689 3561 692L3558 664L3611 662C3635 661 3646 653 3646 635C3646 621 3642 589 3637 559L3550 55C3545 31 3520 29 3497 23L3492 -3L3585 0L3640 0C3675 0 3746 -3 3780 -3ZM3848 655C4030 655 4113 579 4113 415C4113 225 4013 41 3793 41C3749 41 3700 46 3632 56C3632 68 3633 75 3636 93L3732 650C3755 650 3813 655 3848 655ZM4569 111L4545 94C4492 56 4444 36 4408 36C4361 36 4332 73 4332 133C4332 158 4335 185 4340 214C4357 218 4466 248 4491 259C4576 296 4615 342 4615 404C4615 451 4581 482 4531 482C4463 496 4353 423 4316 349C4286 299 4256 180 4256 113C4256 35 4300 -11 4372 -11C4429 -11 4485 17 4577 92ZM4354 274C4371 343 4391 386 4420 412C4438 428 4469 440 4493 440C4522 440 4541 420 4541 388C4541 344 4506 297 4454 272C4426 258 4390 247 4345 237ZM4805 -11C4861 -11 4976 62 5019 125C5060 186 5094 296 5094 371C5094 438 5071 482 5035 482C4993 482 4940 456 4888 409C4847 374 4827 348 4791 289L4815 408C4818 425 4820 440 4820 452C4820 471 4812 482 4798 482C4777 482 4739 461 4665 408L4637 388L4644 368L4676 389C4704 407 4715 412 4724 412C4734 412 4741 403 4741 389C4741 381 4739 361 4737 351L4679 8C4669 -52 4650 -143 4630 -233L4622 -270L4629 -276C4650 -269 4670 -264 4702 -259L4744 3C4765 -4 4787 -11 4805 -11ZM4772 165C4794 293 4901 424 4984 424C5010 424 5022 402 5022 356C5022 275 4982 156 4929 80C4909 51 4877 36 4836 36C4805 36 4780 43 4754 59ZM5456 111L5432 94C5379 56 5331 36 5295 36C5248 36 5219 73 5219 133C5219 158 5222 185 5227 214C5244 218 5353 248 5378 259C5463 296 5502 342 5502 404C5502 451 5468 482 5418 482C5350 496 5240 423 5203 349C5173 299 5143 180 5143 113C5143 35 5187 -11 5259 -11C5316 -11 5372 17 5464 92ZM5241 274C5258 343 5278 386 5307 412C5325 428 5356 440 5380 440C5409 440 5428 420 5428 388C5428 344 5393 297 5341 272C5313 258 5277 247 5232 237ZM5540 388L5547 368L5579 389C5616 412 5619 414 5626 414C5637 414 5644 404 5644 389C5644 338 5603 145 5562 2L5569 -9C5594 -2 5617 4 5639 8C5658 134 5679 199 5725 268C5779 352 5854 414 5899 414C5910 414 5916 405 5916 390C5916 372 5913 351 5905 319L5853 107C5844 70 5840 47 5840 31C5840 6 5851 -9 5870 -9C5896 -9 5932 12 6030 85L6020 103L5994 86C5965 67 5943 56 5933 56C5926 56 5920 65 5920 76C5920 81 5921 92 5922 96L5988 372C5995 401 5999 429 5999 446C5999 469 5988 482 5968 482C5926 482 5857 444 5798 389C5760 354 5732 320 5680 247L5718 408C5722 426 5724 438 5724 449C5724 470 5716 482 5701 482C5680 482 5641 460 5568 408ZM6554 722L6542 733C6490 707 6454 698 6382 691L6378 670L6426 670C6450 670 6460 663 6460 646C6460 638 6459 629 6458 622L6430 468C6400 477 6373 482 6348 482C6279 482 6185 410 6139 323C6108 265 6088 170 6088 86C6088 21 6103 -11 6132 -11C6159 -11 6196 6 6230 33C6284 77 6317 116 6384 217L6361 126C6350 82 6345 50 6345 24C6345 3 6354 -9 6371 -9C6388 -9 6412 3 6446 28L6527 88L6517 107L6473 76C6459 66 6443 59 6434 59C6426 59 6420 68 6420 82C6420 90 6421 99 6428 128ZM6185 59C6169 59 6160 73 6160 98C6160 224 6206 380 6255 418C6268 428 6287 433 6314 433C6358 433 6387 427 6420 410L6408 351C6371 171 6230 59 6185 59ZM6604 388L6611 368L6643 389C6680 412 6683 414 6690 414C6700 414 6708 404 6708 391C6708 384 6704 361 6700 347L6634 107C6626 76 6621 49 6621 30C6621 6 6632 -9 6651 -9C6677 -9 6713 12 6811 85L6801 103L6775 86C6746 67 6723 56 6714 56C6707 56 6701 66 6701 76C6701 86 6703 95 6708 116L6785 420C6789 437 6791 448 6791 456C6791 473 6782 482 6766 482C6744 482 6707 461 6632 408ZM6798 712C6769 712 6740 679 6740 645C6740 620 6755 604 6779 604C6810 604 6834 633 6834 671C6834 695 6819 712 6798 712ZM7175 111L7151 94C7098 56 7050 36 7014 36C6967 36 6938 73 6938 133C6938 158 6941 185 6946 214C6963 218 7072 248 7097 259C7182 296 7221 342 7221 404C7221 451 7187 482 7137 482C7069 496 6959 423 6922 349C6892 299 6862 180 6862 113C6862 35 6906 -11 6978 -11C7035 -11 7091 17 7183 92ZM6960 274C6977 343 6997 386 7026 412C7044 428 7075 440 7099 440C7128 440 7147 420 7147 388C7147 344 7112 297 7060 272C7032 258 6996 247 6951 237ZM7259 388L7266 368L7298 389C7335 412 7338 414 7345 414C7356 414 7363 404 7363 389C7363 338 7322 145 7281 2L7288 -9C7313 -2 7336 4 7358 8C7377 134 7398 199 7444 268C7498 352 7573 414 7618 414C7629 414 7635 405 7635 390C7635 372 7632 351 7624 319L7572 107C7563 70 7559 47 7559 31C7559 6 7570 -9 7589 -9C7615 -9 7651 12 7749 85L7739 103L7713 86C7684 67 7662 56 7652 56C7645 56 7639 65 7639 76C7639 81 7640 92 7641 96L7707 372C7714 401 7718 429 7718 446C7718 469 7707 482 7687 482C7645 482 7576 444 7517 389C7479 354 7451 320 7399 247L7437 408C7441 426 7443 438 7443 449C7443 470 7435 482 7420 482C7399 482 7360 460 7287 408ZM7915 390L7859 107C7858 99 7846 61 7846 31C7846 6 7857 -9 7876 -9C7911 -9 7946 11 8024 74L8055 99L8045 117L8000 86C7971 66 7951 56 7940 56C7931 56 7926 64 7926 76C7926 102 7940 183 7969 328L7982 390L8089 390L8100 440C8062 436 8028 434 7990 434C8006 528 8017 577 8035 631L8024 646C8004 634 7977 622 7946 610L7921 440C7877 419 7851 408 7833 403L7831 390ZM8450 111L8426 94C8373 56 8325 36 8289 36C8242 36 8213 73 8213 133C8213 158 8216 185 8221 214C8238 218 8347 248 8372 259C8457 296 8496 342 8496 404C8496 451 8462 482 8412 482C8344 496 8234 423 8197 349C8167 299 8137 180 8137 113C8137 35 8181 -11 8253 -11C8310 -11 8366 17 8458 92ZM8235 274C8252 343 8272 386 8301 412C8319 428 8350 440 8374 440C8403 440 8422 420 8422 388C8422 344 8387 297 8335 272C8307 258 8271 247 8226 237ZM8541 148C8536 97 8530 62 8519 16C8557 -2 8591 -11 8626 -11C8675 -11 8721 7 8772 47C8823 87 8844 124 8844 174C8844 228 8812 257 8738 271L8695 279C8635 290 8616 307 8616 348C8616 401 8661 442 8718 442C8759 442 8797 424 8813 397L8813 342L8836 342C8840 377 8844 404 8855 455C8816 474 8788 482 8755 482C8703 482 8642 452 8594 404C8568 377 8557 352 8557 316C8557 260 8588 228 8654 215L8717 203C8761 195 8777 177 8777 138C8777 73 8731 29 8660 29C8625 29 8594 40 8566 64L8566 148Z" stroke="rgb(0,0,0)" stroke-opacity="1" stroke-width="8" fill="rgb(0,0,0)" fill-opacity="1"></path></g></g></g><g><g><g transform="matrix(1,0,0,1,2,98.68000793457031)"><path transform="matrix(0.017,0,0,-0.017,0,0)" d="M105 664L160 662C184 661 195 653 195 635L112 125C95 34 94 31 54 28L13 25L9 -3L51 -2C92 -1 123 0 141 0C158 0 187 -1 227 -2L280 -3L283 25L218 28C192 29 182 37 182 58C182 67 183 74 186 93L284 648C320 654 336 656 355 656C457 656 506 612 506 519C506 411 434 323 346 323C324 323 304 328 267 342L269 311C306 293 326 288 355 288C484 288 594 405 594 541C594 642 531 695 412 692L108 692Z" stroke="rgb(0,0,0)" stroke-opacity="1" stroke-width="8" fill="rgb(0,0,0)" fill-opacity="1"></path></g></g><g><g transform="matrix(1,0,0,1,12.3800048828125,99.63999938964844)"><path transform="matrix(0.017,0,0,-0.017,0,0)" d="M146 266C146 526 243 632 301 700L282 726C225 675 60 542 60 266C60 159 85 58 133 -32C168 -99 200 -138 282 -215L301 -194C255 -137 146 -15 146 266Z" stroke="rgb(0,0,0)" stroke-opacity="1" stroke-width="8" fill="rgb(0,0,0)" fill-opacity="1"></path></g></g><g><g transform="matrix(1,0,0,1,18.035003662109375,98.68000793457031)"><path transform="matrix(0.017,0,0,-0.017,0,0)" d="M567 55C567 39 552 30 524 28L480 25L480 -3C582 0 582 0 602 0C622 0 622 0 724 -3L724 25L698 28C651 35 650 35 642 80L555 705L509 705L136 112C100 56 82 40 48 32L28 27L28 -3C120 0 120 0 140 0C159 0 161 0 247 -3L247 25L195 28C179 29 164 38 164 47C164 55 171 69 190 102L292 277L538 277L563 89L563 86C563 84 567 69 567 55ZM496 601L533 313L317 313Z" stroke="rgb(0,0,0)" stroke-opacity="1" stroke-width="8" fill="rgb(0,0,0)" fill-opacity="1"></path></g></g><g><g transform="matrix(1,0,0,1,34.19000244140625,98.68000793457031)"><path transform="matrix(0.017,0,0,-0.017,0,0)" d="M623 0L354 585L336 585L65 0L125 0L345 480L563 0Z" stroke="rgb(0,0,0)" stroke-opacity="1" stroke-width="8" fill="rgb(0,0,0)" fill-opacity="1"></path></g></g><g><g transform="matrix(1,0,0,1,49.2650146484375,98.68000793457031)"><path transform="matrix(0.017,0,0,-0.017,0,0)" d="M543 227C543 337 459 353 377 365C434 385 459 397 490 425C536 464 559 511 559 562C559 644 501 692 401 692C399 692 389 692 374 691L311 690C299 689 263 689 251 689C232 689 201 690 152 691L100 692L97 664L150 662C174 661 185 653 185 635C185 621 181 589 176 559L89 55C85 37 73 30 31 23L26 -3L63 -2C90 0 105 0 117 0C128 0 154 -1 180 -2L217 -3L237 -4C256 -5 269 -6 277 -6C392 -6 543 87 543 227ZM166 41L217 340L302 340C405 340 455 298 455 211C455 108 382 34 282 34C228 34 207 38 166 41ZM352 655C433 655 473 619 473 544C473 439 399 376 275 376L223 376L272 650C288 650 329 655 352 655Z" stroke="rgb(0,0,0)" stroke-opacity="1" stroke-width="8" fill="rgb(0,0,0)" fill-opacity="1"></path></g></g><g><g transform="matrix(1,0,0,1,59.64501953125,99.63999938964844)"><path transform="matrix(0.017,0,0,-0.017,0,0)" d="M51 726L32 700C87 636 187 526 187 266C187 -10 83 -131 32 -194L51 -215C104 -165 273 -23 273 265C273 542 108 675 51 726Z" stroke="rgb(0,0,0)" stroke-opacity="1" stroke-width="8" fill="rgb(0,0,0)" fill-opacity="1"></path></g></g><g><g transform="matrix(1,0,0,1,70.4000244140625,98.68000793457031)"><path transform="matrix(0.017,0,0,-0.017,0,0)" d="M604 347L604 406L65 406L65 347ZM604 134L604 193L65 193L65 134Z" stroke="rgb(0,0,0)" stroke-opacity="1" stroke-width="8" fill="rgb(0,0,0)" fill-opacity="1"></path></g></g><g><g transform="matrix(1,0,0,1,86.85501098632812,98.68000793457031)"><path transform="matrix(0.017,0,0,-0.017,0,0)" d="M105 664L160 662C184 661 195 653 195 635L112 125C95 34 94 31 54 28L13 25L9 -3L51 -2C92 -1 123 0 141 0C158 0 187 -1 227 -2L280 -3L283 25L218 28C192 29 182 37 182 58C182 67 183 74 186 93L284 648C320 654 336 656 355 656C457 656 506 612 506 519C506 411 434 323 346 323C324 323 304 328 267 342L269 311C306 293 326 288 355 288C484 288 594 405 594 541C594 642 531 695 412 692L108 692Z" stroke="rgb(0,0,0)" stroke-opacity="1" stroke-width="8" fill="rgb(0,0,0)" fill-opacity="1"></path></g></g><g><g transform="matrix(1,0,0,1,97.23501586914062,99.63999938964844)"><path transform="matrix(0.017,0,0,-0.017,0,0)" d="M146 266C146 526 243 632 301 700L282 726C225 675 60 542 60 266C60 159 85 58 133 -32C168 -99 200 -138 282 -215L301 -194C255 -137 146 -15 146 266Z" stroke="rgb(0,0,0)" stroke-opacity="1" stroke-width="8" fill="rgb(0,0,0)" fill-opacity="1"></path></g></g><g><g transform="matrix(1,0,0,1,102.88998413085938,98.68000793457031)"><path transform="matrix(0.017,0,0,-0.017,0,0)" d="M567 55C567 39 552 30 524 28L480 25L480 -3C582 0 582 0 602 0C622 0 622 0 724 -3L724 25L698 28C651 35 650 35 642 80L555 705L509 705L136 112C100 56 82 40 48 32L28 27L28 -3C120 0 120 0 140 0C159 0 161 0 247 -3L247 25L195 28C179 29 164 38 164 47C164 55 171 69 190 102L292 277L538 277L563 89L563 86C563 84 567 69 567 55ZM496 601L533 313L317 313Z" stroke="rgb(0,0,0)" stroke-opacity="1" stroke-width="8" fill="rgb(0,0,0)" fill-opacity="1"></path></g></g><g><g transform="matrix(1,0,0,1,115.65499877929688,99.63999938964844)"><path transform="matrix(0.017,0,0,-0.017,0,0)" d="M51 726L32 700C87 636 187 526 187 266C187 -10 83 -131 32 -194L51 -215C104 -165 273 -23 273 265C273 542 108 675 51 726Z" stroke="rgb(0,0,0)" stroke-opacity="1" stroke-width="8" fill="rgb(0,0,0)" fill-opacity="1"></path></g></g><g><g transform="matrix(1,0,0,1,121.31002807617188,98.68000793457031)"><path transform="matrix(0.017,0,0,-0.017,0,0)" d="M417 267L286 213L281 204L317 153L327 153L433 241L451 99L461 95L529 121L529 131L461 253L599 233L608 241L608 303L602 307L463 283L532 408L529 423L467 442L458 438L432 295L337 393L327 393L283 341L286 331ZM991 664L1046 662C1070 661 1081 653 1081 635L998 125C981 34 980 31 940 28L899 25L895 -3L937 -2C978 -1 1009 0 1027 0C1044 0 1073 -1 1113 -2L1166 -3L1169 25L1104 28C1078 29 1068 37 1068 58C1068 67 1069 74 1072 93L1170 648C1206 654 1222 656 1241 656C1343 656 1392 612 1392 519C1392 411 1320 323 1232 323C1210 323 1190 328 1153 342L1155 311C1192 293 1212 288 1241 288C1370 288 1480 405 1480 541C1480 642 1417 695 1298 692L994 692Z" stroke="rgb(0,0,0)" stroke-opacity="1" stroke-width="8" fill="rgb(0,0,0)" fill-opacity="1"></path></g></g><g><g transform="matrix(1,0,0,1,146.73501586914062,99.63999938964844)"><path transform="matrix(0.017,0,0,-0.017,0,0)" d="M146 266C146 526 243 632 301 700L282 726C225 675 60 542 60 266C60 159 85 58 133 -32C168 -99 200 -138 282 -215L301 -194C255 -137 146 -15 146 266Z" stroke="rgb(0,0,0)" stroke-opacity="1" stroke-width="8" fill="rgb(0,0,0)" fill-opacity="1"></path></g></g><g><g transform="matrix(1,0,0,1,152.39004516601562,98.68000793457031)"><path transform="matrix(0.017,0,0,-0.017,0,0)" d="M543 227C543 337 459 353 377 365C434 385 459 397 490 425C536 464 559 511 559 562C559 644 501 692 401 692C399 692 389 692 374 691L311 690C299 689 263 689 251 689C232 689 201 690 152 691L100 692L97 664L150 662C174 661 185 653 185 635C185 621 181 589 176 559L89 55C85 37 73 30 31 23L26 -3L63 -2C90 0 105 0 117 0C128 0 154 -1 180 -2L217 -3L237 -4C256 -5 269 -6 277 -6C392 -6 543 87 543 227ZM166 41L217 340L302 340C405 340 455 298 455 211C455 108 382 34 282 34C228 34 207 38 166 41ZM352 655C433 655 473 619 473 544C473 439 399 376 275 376L223 376L272 650C288 650 329 655 352 655Z" stroke="rgb(0,0,0)" stroke-opacity="1" stroke-width="8" fill="rgb(0,0,0)" fill-opacity="1"></path></g></g><g><g transform="matrix(1,0,0,1,162.76998901367188,98.68000793457031)"><path transform="matrix(0.017,0,0,-0.017,0,0)" d="M179.50274 -172L179.50274 713L120.50274 713L120.50274 -172Z" stroke="rgb(0,0,0)" stroke-opacity="1" stroke-width="8" fill="rgb(0,0,0)" fill-opacity="1"></path></g></g><g><g transform="matrix(1,0,0,1,167.87002563476562,98.68000793457031)"><path transform="matrix(0.017,0,0,-0.017,0,0)" d="M567 55C567 39 552 30 524 28L480 25L480 -3C582 0 582 0 602 0C622 0 622 0 724 -3L724 25L698 28C651 35 650 35 642 80L555 705L509 705L136 112C100 56 82 40 48 32L28 27L28 -3C120 0 120 0 140 0C159 0 161 0 247 -3L247 25L195 28C179 29 164 38 164 47C164 55 171 69 190 102L292 277L538 277L563 89L563 86C563 84 567 69 567 55ZM496 601L533 313L317 313Z" stroke="rgb(0,0,0)" stroke-opacity="1" stroke-width="8" fill="rgb(0,0,0)" fill-opacity="1"></path></g></g><g><g transform="matrix(1,0,0,1,180.63504028320312,99.63999938964844)"><path transform="matrix(0.017,0,0,-0.017,0,0)" d="M51 726L32 700C87 636 187 526 187 266C187 -10 83 -131 32 -194L51 -215C104 -165 273 -23 273 265C273 542 108 675 51 726Z" stroke="rgb(0,0,0)" stroke-opacity="1" stroke-width="8" fill="rgb(0,0,0)" fill-opacity="1"></path></g></g></g></g></svg>