<svg xmlns="http://www.w3.org/2000/svg" xmlns:xlink="http://www.w3.org/1999/xlink" width="253.885009765625" height="104.80000305175781" style="width:253.885009765625px;height:104.80000305175781px;font-family:Asana-Math, Asana;background:#FFF;"><g><g><g><g transform="matrix(1,0,0,1,2,18.040000915527344)"><path transform="matrix(0.017,0,0,-0.017,0,0)" d="M221 334L338 334L470 330L489 375L485 382C404 378 344 376 266 376L229 376L276 646C308 647 391 650 413 650C475 650 516 641 517 626L525 537L549 537C552 601 559 651 570 689C549 691 519 692 501 692C498 692 487 692 463 691L343 690C334 689 160 691 150 691L105 692L102 664L156 662C180 661 191 653 191 635C191 621 187 589 182 559L95 55C91 37 79 30 35 23L30 -3L71 -2C102 -1 164 0 184 0L409 -3C423 -3 448 -2 481 -1L514 0L518 36C520 56 525 86 534 135L539 161L512 161L496 101C486 65 477 53 455 48C435 44 362 39 308 39C267 39 240 40 171 46ZM776 420C797 420 813 421 839 424C728 304 686 221 686 121C686 44 732 -11 796 -11C934 -11 1087 236 1087 384C1087 441 1061 482 1025 482C1012 482 1000 478 992 470L942 423L953 404C962 410 971 413 980 413C1007 413 1023 390 1023 350C1023 202 926 39 838 39C789 39 758 81 758 146C758 251 797 342 895 464L885 482C865 473 852 470 824 470C796 470 754 472 725 475L713 476C707 477 702 477 701 477C689 477 680 475 669 470C655 443 644 407 631 352L653 352L670 394C677 411 697 422 721 422C754 422 738 420 776 420ZM1437 111L1413 94C1360 56 1312 36 1276 36C1229 36 1200 73 1200 133C1200 158 1203 185 1208 214C1225 218 1334 248 1359 259C1444 296 1483 342 1483 404C1483 451 1449 482 1399 482C1331 496 1221 423 1184 349C1154 299 1124 180 1124 113C1124 35 1168 -11 1240 -11C1297 -11 1353 17 1445 92ZM1222 274C1239 343 1259 386 1288 412C1306 428 1337 440 1361 440C1390 440 1409 420 1409 388C1409 344 1374 297 1322 272C1294 258 1258 247 1213 237ZM1521 388L1528 368L1560 389C1597 412 1600 414 1607 414C1618 414 1625 404 1625 389C1625 338 1584 145 1543 2L1550 -9C1575 -2 1598 4 1620 8C1639 134 1660 199 1706 268C1760 352 1835 414 1880 414C1891 414 1897 405 1897 390C1897 372 1894 351 1886 319L1834 107C1825 70 1821 47 1821 31C1821 6 1832 -9 1851 -9C1877 -9 1913 12 2011 85L2001 103L1975 86C1946 67 1924 56 1914 56C1907 56 1901 65 1901 76C1901 81 1902 92 1903 96L1969 372C1976 401 1980 429 1980 446C1980 469 1969 482 1949 482C1907 482 1838 444 1779 389C1741 354 1713 320 1661 247L1699 408C1703 426 1705 438 1705 449C1705 470 1697 482 1682 482C1661 482 1622 460 1549 408ZM2177 390L2121 107C2120 99 2108 61 2108 31C2108 6 2119 -9 2138 -9C2173 -9 2208 11 2286 74L2317 99L2307 117L2262 86C2233 66 2213 56 2202 56C2193 56 2188 64 2188 76C2188 102 2202 183 2231 328L2244 390L2351 390L2362 440C2324 436 2290 434 2252 434C2268 528 2279 577 2297 631L2286 646C2266 634 2239 622 2208 610L2183 440C2139 419 2113 408 2095 403L2093 390ZM2401 152C2401 46 2446 -11 2529 -11C2584 -11 2644 15 2689 57C2751 116 2795 230 2795 331C2795 425 2745 482 2662 482C2558 482 2401 382 2401 152ZM2625 444C2686 444 2719 399 2719 315C2719 219 2688 113 2644 60C2626 39 2600 27 2569 27C2511 27 2477 72 2477 151C2477 264 2516 387 2565 427C2578 438 2601 444 2625 444ZM2858 148C2853 97 2847 62 2836 16C2874 -2 2908 -11 2943 -11C2992 -11 3038 7 3089 47C3140 87 3161 124 3161 174C3161 228 3129 257 3055 271L3012 279C2952 290 2933 307 2933 348C2933 401 2978 442 3035 442C3076 442 3114 424 3130 397L3130 342L3153 342C3157 377 3161 404 3172 455C3133 474 3105 482 3072 482C3020 482 2959 452 2911 404C2885 377 2874 352 2874 316C2874 260 2905 228 2971 215L3034 203C3078 195 3094 177 3094 138C3094 73 3048 29 2977 29C2942 29 2911 40 2883 64L2883 148ZM3488 388L3495 368L3527 389C3564 412 3567 414 3574 414C3585 414 3592 404 3592 389C3592 338 3551 145 3510 2L3517 -9C3542 -2 3565 4 3587 8C3606 134 3627 199 3673 268C3727 352 3802 414 3847 414C3858 414 3864 405 3864 390C3864 372 3861 351 3853 319L3801 107C3792 70 3788 47 3788 31C3788 6 3799 -9 3818 -9C3844 -9 3880 12 3978 85L3968 103L3942 86C3913 67 3891 56 3881 56C3874 56 3868 65 3868 76C3868 81 3869 92 3870 96L3936 372C3943 401 3947 429 3947 446C3947 469 3936 482 3916 482C3874 482 3805 444 3746 389C3708 354 3680 320 3628 247L3666 408C3670 426 3672 438 3672 449C3672 470 3664 482 3649 482C3628 482 3589 460 3516 408ZM4036 152C4036 46 4081 -11 4164 -11C4219 -11 4279 15 4324 57C4386 116 4430 230 4430 331C4430 425 4380 482 4297 482C4193 482 4036 382 4036 152ZM4260 444C4321 444 4354 399 4354 315C4354 219 4323 113 4279 60C4261 39 4235 27 4204 27C4146 27 4112 72 4112 151C4112 264 4151 387 4200 427C4213 438 4236 444 4260 444ZM4932 334L5049 334L5181 330L5200 375L5196 382C5115 378 5055 376 4977 376L4940 376L4987 646C5019 647 5102 650 5124 650C5186 650 5227 641 5228 626L5236 537L5260 537C5263 601 5270 651 5281 689C5260 691 5230 692 5212 692C5209 692 5198 692 5174 691L5054 690C5045 689 4871 691 4861 691L4816 692L4813 664L4867 662C4891 661 4902 653 4902 635C4902 621 4898 589 4893 559L4806 55C4802 37 4790 30 4746 23L4741 -3L4782 -2C4813 -1 4875 0 4895 0L5120 -3C5134 -3 5159 -2 5192 -1L5225 0L5229 36C5231 56 5236 86 5245 135L5250 161L5223 161L5207 101C5197 65 5188 53 5166 48C5146 44 5073 39 5019 39C4978 39 4951 40 4882 46ZM5330 1C5345 -7 5361 -11 5373 -11C5406 -11 5445 18 5476 65L5552 182L5563 113C5576 28 5599 -11 5635 -11C5657 -11 5689 6 5721 35L5770 79L5761 98C5725 68 5700 53 5684 53C5669 53 5656 63 5646 83C5637 102 5626 139 5621 168L5603 269L5638 318C5685 383 5712 406 5743 406C5759 406 5771 398 5776 383L5790 387L5805 472C5793 479 5784 482 5775 482C5735 482 5695 446 5633 354L5596 299L5590 347C5578 446 5551 482 5492 482C5466 482 5444 474 5435 461L5377 378L5394 368C5424 402 5444 416 5463 416C5496 416 5518 375 5535 277L5546 215L5506 153C5463 86 5429 54 5401 54C5386 54 5375 58 5373 63L5362 91L5342 88C5342 53 5334 27 5330 1ZM6162 330L6185 330C6193 395 6200 432 6209 458C6185 473 6150 482 6113 482C6068 483 5995 463 5938 400C5884 352 5845 241 5845 136C5845 40 5887 -11 5967 -11C6021 -11 6069 9 6124 54L6174 95L6166 115L6151 105C6079 57 6041 40 6006 40C5950 40 5921 80 5921 159C5921 267 5956 371 6005 409C6026 425 6050 433 6081 433C6126 433 6162 414 6162 390ZM6477 722L6465 733C6413 707 6377 698 6305 691L6301 670L6349 670C6373 670 6383 663 6383 648C6383 645 6383 640 6380 622C6369 567 6296 182 6281 132C6268 82 6262 52 6262 31C6262 6 6273 -9 6292 -9C6318 -9 6354 12 6452 85L6442 103L6416 86C6387 67 6365 56 6355 56C6348 56 6342 66 6342 76C6342 82 6343 89 6346 104ZM6995 473L6988 482L6920 465L6910 414C6895 336 6870 268 6839 221C6780 130 6702 59 6662 59C6654 59 6649 68 6649 85C6649 99 6651 112 6656 137L6713 408C6716 424 6718 438 6718 451C6718 470 6709 482 6695 482C6675 482 6637 461 6563 408L6535 388L6542 368L6574 389C6602 407 6613 412 6622 412C6631 412 6639 403 6639 392C6639 388 6638 378 6637 374L6574 77C6572 68 6570 44 6570 30C6570 7 6585 -11 6605 -11C6668 -11 6789 101 6873 239L6836 97C6829 73 6825 46 6825 31C6825 6 6836 -9 6855 -9C6881 -9 6917 12 7015 85L7005 103L6979 86C6955 70 6929 59 6918 59C6910 59 6905 66 6905 76C6905 112 6980 416 6995 473ZM7051 -180C7050 -187 7050 -193 7050 -198C7050 -241 7087 -276 7132 -276C7238 -276 7348 -152 7407 33L7548 473L7537 482C7508 471 7485 465 7463 463L7428 331C7416 284 7381 211 7348 162C7313 111 7264 67 7242 67C7230 67 7221 90 7222 115L7238 322C7240 353 7242 391 7242 419C7242 464 7235 482 7218 482C7205 482 7191 475 7143 442L7061 386L7072 368L7122 398C7127 401 7138 410 7147 410C7161 410 7169 391 7169 358C7169 357 7169 351 7168 343L7151 100L7150 60C7150 18 7168 -11 7193 -11C7230 -11 7314 74 7389 187L7340 16C7289 -161 7239 -234 7169 -234C7134 -234 7107 -207 7107 -172C7107 -167 7108 -159 7109 -150L7099 -146ZM7885 111L7861 94C7808 56 7760 36 7724 36C7677 36 7648 73 7648 133C7648 158 7651 185 7656 214C7673 218 7782 248 7807 259C7892 296 7931 342 7931 404C7931 451 7897 482 7847 482C7779 496 7669 423 7632 349C7602 299 7572 180 7572 113C7572 35 7616 -11 7688 -11C7745 -11 7801 17 7893 92ZM7670 274C7687 343 7707 386 7736 412C7754 428 7785 440 7809 440C7838 440 7857 420 7857 388C7857 344 7822 297 7770 272C7742 258 7706 247 7661 237ZM7969 388L7976 368L8008 389C8045 412 8048 414 8055 414C8066 414 8073 404 8073 389C8073 338 8032 145 7991 2L7998 -9C8023 -2 8046 4 8068 8C8087 134 8108 199 8154 268C8208 352 8283 414 8328 414C8339 414 8345 405 8345 390C8345 372 8342 351 8334 319L8282 107C8273 70 8269 47 8269 31C8269 6 8280 -9 8299 -9C8325 -9 8361 12 8459 85L8449 103L8423 86C8394 67 8372 56 8362 56C8355 56 8349 65 8349 76C8349 81 8350 92 8351 96L8417 372C8424 401 8428 429 8428 446C8428 469 8417 482 8397 482C8355 482 8286 444 8227 389C8189 354 8161 320 8109 247L8147 408C8151 426 8153 438 8153 449C8153 470 8145 482 8130 482C8109 482 8070 460 7997 408ZM8625 390L8569 107C8568 99 8556 61 8556 31C8556 6 8567 -9 8586 -9C8621 -9 8656 11 8734 74L8765 99L8755 117L8710 86C8681 66 8661 56 8650 56C8641 56 8636 64 8636 76C8636 102 8650 183 8679 328L8692 390L8799 390L8810 440C8772 436 8738 434 8700 434C8716 528 8727 577 8745 631L8734 646C8714 634 8687 622 8656 610L8631 440C8587 419 8561 408 8543 403L8541 390ZM9160 111L9136 94C9083 56 9035 36 8999 36C8952 36 8923 73 8923 133C8923 158 8926 185 8931 214C8948 218 9057 248 9082 259C9167 296 9206 342 9206 404C9206 451 9172 482 9122 482C9054 496 8944 423 8907 349C8877 299 8847 180 8847 113C8847 35 8891 -11 8963 -11C9020 -11 9076 17 9168 92ZM8945 274C8962 343 8982 386 9011 412C9029 428 9060 440 9084 440C9113 440 9132 420 9132 388C9132 344 9097 297 9045 272C9017 258 8981 247 8936 237ZM9251 148C9246 97 9240 62 9229 16C9267 -2 9301 -11 9336 -11C9385 -11 9431 7 9482 47C9533 87 9554 124 9554 174C9554 228 9522 257 9448 271L9405 279C9345 290 9326 307 9326 348C9326 401 9371 442 9428 442C9469 442 9507 424 9523 397L9523 342L9546 342C9550 377 9554 404 9565 455C9526 474 9498 482 9465 482C9413 482 9352 452 9304 404C9278 377 9267 352 9267 316C9267 260 9298 228 9364 215L9427 203C9471 195 9487 177 9487 138C9487 73 9441 29 9370 29C9335 29 9304 40 9276 64L9276 148Z" stroke="rgb(0,0,0)" stroke-opacity="1" stroke-width="8" fill="rgb(0,0,0)" fill-opacity="1"></path></g></g></g><g><g><g transform="matrix(1,0,0,1,2,38.19999694824219)"><path transform="matrix(0.017,0,0,-0.017,0,0)" d="M105 664L160 662C184 661 195 653 195 635L112 125C95 34 94 31 54 28L13 25L9 -3L51 -2C92 -1 123 0 141 0C158 0 187 -1 227 -2L280 -3L283 25L218 28C192 29 182 37 182 58C182 67 183 74 186 93L284 648C320 654 336 656 355 656C457 656 506 612 506 519C506 411 434 323 346 323C324 323 304 328 267 342L269 311C306 293 326 288 355 288C484 288 594 405 594 541C594 642 531 695 412 692L108 692Z" stroke="rgb(0,0,0)" stroke-opacity="1" stroke-width="8" fill="rgb(0,0,0)" fill-opacity="1"></path></g></g><g><g transform="matrix(1,0,0,1,12.3800048828125,39.160003662109375)"><path transform="matrix(0.017,0,0,-0.017,0,0)" d="M146 266C146 526 243 632 301 700L282 726C225 675 60 542 60 266C60 159 85 58 133 -32C168 -99 200 -138 282 -215L301 -194C255 -137 146 -15 146 266Z" stroke="rgb(0,0,0)" stroke-opacity="1" stroke-width="8" fill="rgb(0,0,0)" fill-opacity="1"></path></g></g><g><g transform="matrix(1,0,0,1,18.035003662109375,38.19999694824219)"><path transform="matrix(0.017,0,0,-0.017,0,0)" d="M567 55C567 39 552 30 524 28L480 25L480 -3C582 0 582 0 602 0C622 0 622 0 724 -3L724 25L698 28C651 35 650 35 642 80L555 705L509 705L136 112C100 56 82 40 48 32L28 27L28 -3C120 0 120 0 140 0C159 0 161 0 247 -3L247 25L195 28C179 29 164 38 164 47C164 55 171 69 190 102L292 277L538 277L563 89L563 86C563 84 567 69 567 55ZM496 601L533 313L317 313Z" stroke="rgb(0,0,0)" stroke-opacity="1" stroke-width="8" fill="rgb(0,0,0)" fill-opacity="1"></path></g></g><g><g transform="matrix(1,0,0,1,34.19000244140625,38.19999694824219)"><path transform="matrix(0.017,0,0,-0.017,0,0)" d="M623 585L563 585L345 105L125 585L65 585L336 0L354 0Z" stroke="rgb(0,0,0)" stroke-opacity="1" stroke-width="8" fill="rgb(0,0,0)" fill-opacity="1"></path></g></g><g><g transform="matrix(1,0,0,1,49.2650146484375,38.19999694824219)"><path transform="matrix(0.017,0,0,-0.017,0,0)" d="M543 227C543 337 459 353 377 365C434 385 459 397 490 425C536 464 559 511 559 562C559 644 501 692 401 692C399 692 389 692 374 691L311 690C299 689 263 689 251 689C232 689 201 690 152 691L100 692L97 664L150 662C174 661 185 653 185 635C185 621 181 589 176 559L89 55C85 37 73 30 31 23L26 -3L63 -2C90 0 105 0 117 0C128 0 154 -1 180 -2L217 -3L237 -4C256 -5 269 -6 277 -6C392 -6 543 87 543 227ZM166 41L217 340L302 340C405 340 455 298 455 211C455 108 382 34 282 34C228 34 207 38 166 41ZM352 655C433 655 473 619 473 544C473 439 399 376 275 376L223 376L272 650C288 650 329 655 352 655Z" stroke="rgb(0,0,0)" stroke-opacity="1" stroke-width="8" fill="rgb(0,0,0)" fill-opacity="1"></path></g></g><g><g transform="matrix(1,0,0,1,59.644989013671875,39.160003662109375)"><path transform="matrix(0.017,0,0,-0.017,0,0)" d="M51 726L32 700C87 636 187 526 187 266C187 -10 83 -131 32 -194L51 -215C104 -165 273 -23 273 265C273 542 108 675 51 726Z" stroke="rgb(0,0,0)" stroke-opacity="1" stroke-width="8" fill="rgb(0,0,0)" fill-opacity="1"></path></g></g><g><g transform="matrix(1,0,0,1,70.39999389648438,38.19999694824219)"><path transform="matrix(0.017,0,0,-0.017,0,0)" d="M604 347L604 406L65 406L65 347ZM604 134L604 193L65 193L65 134Z" stroke="rgb(0,0,0)" stroke-opacity="1" stroke-width="8" fill="rgb(0,0,0)" fill-opacity="1"></path></g></g><g><g transform="matrix(1,0,0,1,86.85501098632812,38.19999694824219)"><path transform="matrix(0.017,0,0,-0.017,0,0)" d="M105 664L160 662C184 661 195 653 195 635L112 125C95 34 94 31 54 28L13 25L9 -3L51 -2C92 -1 123 0 141 0C158 0 187 -1 227 -2L280 -3L283 25L218 28C192 29 182 37 182 58C182 67 183 74 186 93L284 648C320 654 336 656 355 656C457 656 506 612 506 519C506 411 434 323 346 323C324 323 304 328 267 342L269 311C306 293 326 288 355 288C484 288 594 405 594 541C594 642 531 695 412 692L108 692Z" stroke="rgb(0,0,0)" stroke-opacity="1" stroke-width="8" fill="rgb(0,0,0)" fill-opacity="1"></path></g></g><g><g transform="matrix(1,0,0,1,97.23501586914062,39.160003662109375)"><path transform="matrix(0.017,0,0,-0.017,0,0)" d="M146 266C146 526 243 632 301 700L282 726C225 675 60 542 60 266C60 159 85 58 133 -32C168 -99 200 -138 282 -215L301 -194C255 -137 146 -15 146 266Z" stroke="rgb(0,0,0)" stroke-opacity="1" stroke-width="8" fill="rgb(0,0,0)" fill-opacity="1"></path></g></g><g><g transform="matrix(1,0,0,1,102.8900146484375,38.19999694824219)"><path transform="matrix(0.017,0,0,-0.017,0,0)" d="M567 55C567 39 552 30 524 28L480 25L480 -3C582 0 582 0 602 0C622 0 622 0 724 -3L724 25L698 28C651 35 650 35 642 80L555 705L509 705L136 112C100 56 82 40 48 32L28 27L28 -3C120 0 120 0 140 0C159 0 161 0 247 -3L247 25L195 28C179 29 164 38 164 47C164 55 171 69 190 102L292 277L538 277L563 89L563 86C563 84 567 69 567 55ZM496 601L533 313L317 313Z" stroke="rgb(0,0,0)" stroke-opacity="1" stroke-width="8" fill="rgb(0,0,0)" fill-opacity="1"></path></g></g><g><g transform="matrix(1,0,0,1,115.65499877929688,39.160003662109375)"><path transform="matrix(0.017,0,0,-0.017,0,0)" d="M51 726L32 700C87 636 187 526 187 266C187 -10 83 -131 32 -194L51 -215C104 -165 273 -23 273 265C273 542 108 675 51 726Z" stroke="rgb(0,0,0)" stroke-opacity="1" stroke-width="8" fill="rgb(0,0,0)" fill-opacity="1"></path></g></g><g><g transform="matrix(1,0,0,1,124.70001220703125,38.19999694824219)"><path transform="matrix(0.017,0,0,-0.017,0,0)" d="M604 241L604 300L364 300L364 538L305 538L305 300L65 300L65 241L305 241L305 0L364 0L364 241Z" stroke="rgb(0,0,0)" stroke-opacity="1" stroke-width="8" fill="rgb(0,0,0)" fill-opacity="1"></path></g></g><g><g transform="matrix(1,0,0,1,139.44497680664062,38.19999694824219)"><path transform="matrix(0.017,0,0,-0.017,0,0)" d="M105 664L160 662C184 661 195 653 195 635L112 125C95 34 94 31 54 28L13 25L9 -3L51 -2C92 -1 123 0 141 0C158 0 187 -1 227 -2L280 -3L283 25L218 28C192 29 182 37 182 58C182 67 183 74 186 93L284 648C320 654 336 656 355 656C457 656 506 612 506 519C506 411 434 323 346 323C324 323 304 328 267 342L269 311C306 293 326 288 355 288C484 288 594 405 594 541C594 642 531 695 412 692L108 692Z" stroke="rgb(0,0,0)" stroke-opacity="1" stroke-width="8" fill="rgb(0,0,0)" fill-opacity="1"></path></g></g><g><g transform="matrix(1,0,0,1,149.82498168945312,39.160003662109375)"><path transform="matrix(0.017,0,0,-0.017,0,0)" d="M146 266C146 526 243 632 301 700L282 726C225 675 60 542 60 266C60 159 85 58 133 -32C168 -99 200 -138 282 -215L301 -194C255 -137 146 -15 146 266Z" stroke="rgb(0,0,0)" stroke-opacity="1" stroke-width="8" fill="rgb(0,0,0)" fill-opacity="1"></path></g></g><g><g transform="matrix(1,0,0,1,155.48001098632812,38.19999694824219)"><path transform="matrix(0.017,0,0,-0.017,0,0)" d="M543 227C543 337 459 353 377 365C434 385 459 397 490 425C536 464 559 511 559 562C559 644 501 692 401 692C399 692 389 692 374 691L311 690C299 689 263 689 251 689C232 689 201 690 152 691L100 692L97 664L150 662C174 661 185 653 185 635C185 621 181 589 176 559L89 55C85 37 73 30 31 23L26 -3L63 -2C90 0 105 0 117 0C128 0 154 -1 180 -2L217 -3L237 -4C256 -5 269 -6 277 -6C392 -6 543 87 543 227ZM166 41L217 340L302 340C405 340 455 298 455 211C455 108 382 34 282 34C228 34 207 38 166 41ZM352 655C433 655 473 619 473 544C473 439 399 376 275 376L223 376L272 650C288 650 329 655 352 655Z" stroke="rgb(0,0,0)" stroke-opacity="1" stroke-width="8" fill="rgb(0,0,0)" fill-opacity="1"></path></g></g><g><g transform="matrix(1,0,0,1,165.86001586914062,39.160003662109375)"><path transform="matrix(0.017,0,0,-0.017,0,0)" d="M51 726L32 700C87 636 187 526 187 266C187 -10 83 -131 32 -194L51 -215C104 -165 273 -23 273 265C273 542 108 675 51 726Z" stroke="rgb(0,0,0)" stroke-opacity="1" stroke-width="8" fill="rgb(0,0,0)" fill-opacity="1"></path></g></g><g><g transform="matrix(1,0,0,1,174.90499877929688,38.19999694824219)"><path transform="matrix(0.017,0,0,-0.017,0,0)" d="M555 243L555 299L51 299L51 243Z" stroke="rgb(0,0,0)" stroke-opacity="1" stroke-width="8" fill="rgb(0,0,0)" fill-opacity="1"></path></g></g><g><g transform="matrix(1,0,0,1,188.58499145507812,38.19999694824219)"><path transform="matrix(0.017,0,0,-0.017,0,0)" d="M105 664L160 662C184 661 195 653 195 635L112 125C95 34 94 31 54 28L13 25L9 -3L51 -2C92 -1 123 0 141 0C158 0 187 -1 227 -2L280 -3L283 25L218 28C192 29 182 37 182 58C182 67 183 74 186 93L284 648C320 654 336 656 355 656C457 656 506 612 506 519C506 411 434 323 346 323C324 323 304 328 267 342L269 311C306 293 326 288 355 288C484 288 594 405 594 541C594 642 531 695 412 692L108 692Z" stroke="rgb(0,0,0)" stroke-opacity="1" stroke-width="8" fill="rgb(0,0,0)" fill-opacity="1"></path></g></g><g><g transform="matrix(1,0,0,1,198.96499633789062,39.160003662109375)"><path transform="matrix(0.017,0,0,-0.017,0,0)" d="M146 266C146 526 243 632 301 700L282 726C225 675 60 542 60 266C60 159 85 58 133 -32C168 -99 200 -138 282 -215L301 -194C255 -137 146 -15 146 266Z" stroke="rgb(0,0,0)" stroke-opacity="1" stroke-width="8" fill="rgb(0,0,0)" fill-opacity="1"></path></g></g><g><g transform="matrix(1,0,0,1,204.62002563476562,38.19999694824219)"><path transform="matrix(0.017,0,0,-0.017,0,0)" d="M567 55C567 39 552 30 524 28L480 25L480 -3C582 0 582 0 602 0C622 0 622 0 724 -3L724 25L698 28C651 35 650 35 642 80L555 705L509 705L136 112C100 56 82 40 48 32L28 27L28 -3C120 0 120 0 140 0C159 0 161 0 247 -3L247 25L195 28C179 29 164 38 164 47C164 55 171 69 190 102L292 277L538 277L563 89L563 86C563 84 567 69 567 55ZM496 601L533 313L317 313Z" stroke="rgb(0,0,0)" stroke-opacity="1" stroke-width="8" fill="rgb(0,0,0)" fill-opacity="1"></path></g></g><g><g transform="matrix(1,0,0,1,220.77499389648438,38.19999694824219)"><path transform="matrix(0.017,0,0,-0.017,0,0)" d="M623 0L354 585L336 585L65 0L125 0L345 480L563 0Z" stroke="rgb(0,0,0)" stroke-opacity="1" stroke-width="8" fill="rgb(0,0,0)" fill-opacity="1"></path></g></g><g><g transform="matrix(1,0,0,1,235.85000610351562,38.19999694824219)"><path transform="matrix(0.017,0,0,-0.017,0,0)" d="M543 227C543 337 459 353 377 365C434 385 459 397 490 425C536 464 559 511 559 562C559 644 501 692 401 692C399 692 389 692 374 691L311 690C299 689 263 689 251 689C232 689 201 690 152 691L100 692L97 664L150 662C174 661 185 653 185 635C185 621 181 589 176 559L89 55C85 37 73 30 31 23L26 -3L63 -2C90 0 105 0 117 0C128 0 154 -1 180 -2L217 -3L237 -4C256 -5 269 -6 277 -6C392 -6 543 87 543 227ZM166 41L217 340L302 340C405 340 455 298 455 211C455 108 382 34 282 34C228 34 207 38 166 41ZM352 655C433 655 473 619 473 544C473 439 399 376 275 376L223 376L272 650C288 650 329 655 352 655Z" stroke="rgb(0,0,0)" stroke-opacity="1" stroke-width="8" fill="rgb(0,0,0)" fill-opacity="1"></path></g></g><g><g transform="matrix(1,0,0,1,246.23001098632812,39.160003662109375)"><path transform="matrix(0.017,0,0,-0.017,0,0)" d="M51 726L32 700C87 636 187 526 187 266C187 -10 83 -131 32 -194L51 -215C104 -165 273 -23 273 265C273 542 108 675 51 726Z" stroke="rgb(0,0,0)" stroke-opacity="1" stroke-width="8" fill="rgb(0,0,0)" fill-opacity="1"></path></g></g></g><g></g><g><g><g transform="matrix(1,0,0,1,2,78.52000427246094)"><path transform="matrix(0.017,0,0,-0.017,0,0)" d="M221 334L338 334L470 330L489 375L485 382C404 378 344 376 266 376L229 376L276 646C308 647 391 650 413 650C475 650 516 641 517 626L525 537L549 537C552 601 559 651 570 689C549 691 519 692 501 692C498 692 487 692 463 691L343 690C334 689 160 691 150 691L105 692L102 664L156 662C180 661 191 653 191 635C191 621 187 589 182 559L95 55C91 37 79 30 35 23L30 -3L71 -2C102 -1 164 0 184 0L409 -3C423 -3 448 -2 481 -1L514 0L518 36C520 56 525 86 534 135L539 161L512 161L496 101C486 65 477 53 455 48C435 44 362 39 308 39C267 39 240 40 171 46ZM776 420C797 420 813 421 839 424C728 304 686 221 686 121C686 44 732 -11 796 -11C934 -11 1087 236 1087 384C1087 441 1061 482 1025 482C1012 482 1000 478 992 470L942 423L953 404C962 410 971 413 980 413C1007 413 1023 390 1023 350C1023 202 926 39 838 39C789 39 758 81 758 146C758 251 797 342 895 464L885 482C865 473 852 470 824 470C796 470 754 472 725 475L713 476C707 477 702 477 701 477C689 477 680 475 669 470C655 443 644 407 631 352L653 352L670 394C677 411 697 422 721 422C754 422 738 420 776 420ZM1437 111L1413 94C1360 56 1312 36 1276 36C1229 36 1200 73 1200 133C1200 158 1203 185 1208 214C1225 218 1334 248 1359 259C1444 296 1483 342 1483 404C1483 451 1449 482 1399 482C1331 496 1221 423 1184 349C1154 299 1124 180 1124 113C1124 35 1168 -11 1240 -11C1297 -11 1353 17 1445 92ZM1222 274C1239 343 1259 386 1288 412C1306 428 1337 440 1361 440C1390 440 1409 420 1409 388C1409 344 1374 297 1322 272C1294 258 1258 247 1213 237ZM1521 388L1528 368L1560 389C1597 412 1600 414 1607 414C1618 414 1625 404 1625 389C1625 338 1584 145 1543 2L1550 -9C1575 -2 1598 4 1620 8C1639 134 1660 199 1706 268C1760 352 1835 414 1880 414C1891 414 1897 405 1897 390C1897 372 1894 351 1886 319L1834 107C1825 70 1821 47 1821 31C1821 6 1832 -9 1851 -9C1877 -9 1913 12 2011 85L2001 103L1975 86C1946 67 1924 56 1914 56C1907 56 1901 65 1901 76C1901 81 1902 92 1903 96L1969 372C1976 401 1980 429 1980 446C1980 469 1969 482 1949 482C1907 482 1838 444 1779 389C1741 354 1713 320 1661 247L1699 408C1703 426 1705 438 1705 449C1705 470 1697 482 1682 482C1661 482 1622 460 1549 408ZM2177 390L2121 107C2120 99 2108 61 2108 31C2108 6 2119 -9 2138 -9C2173 -9 2208 11 2286 74L2317 99L2307 117L2262 86C2233 66 2213 56 2202 56C2193 56 2188 64 2188 76C2188 102 2202 183 2231 328L2244 390L2351 390L2362 440C2324 436 2290 434 2252 434C2268 528 2279 577 2297 631L2286 646C2266 634 2239 622 2208 610L2183 440C2139 419 2113 408 2095 403L2093 390ZM2401 152C2401 46 2446 -11 2529 -11C2584 -11 2644 15 2689 57C2751 116 2795 230 2795 331C2795 425 2745 482 2662 482C2558 482 2401 382 2401 152ZM2625 444C2686 444 2719 399 2719 315C2719 219 2688 113 2644 60C2626 39 2600 27 2569 27C2511 27 2477 72 2477 151C2477 264 2516 387 2565 427C2578 438 2601 444 2625 444ZM2858 148C2853 97 2847 62 2836 16C2874 -2 2908 -11 2943 -11C2992 -11 3038 7 3089 47C3140 87 3161 124 3161 174C3161 228 3129 257 3055 271L3012 279C2952 290 2933 307 2933 348C2933 401 2978 442 3035 442C3076 442 3114 424 3130 397L3130 342L3153 342C3157 377 3161 404 3172 455C3133 474 3105 482 3072 482C3020 482 2959 452 2911 404C2885 377 2874 352 2874 316C2874 260 2905 228 2971 215L3034 203C3078 195 3094 177 3094 138C3094 73 3048 29 2977 29C2942 29 2911 40 2883 64L2883 148ZM4401 664L4414 695C4386 699 4239 701 4237 692L4152 536L3906 114L3756 692C3733 686 3610 690 3589 692L3586 664L3612 662C3664 658 3682 648 3682 622C3682 616 3536 100 3534 93C3518 41 3503 28 3448 23L3445 -3L3484 -2C3518 -1 3543 0 3557 0C3571 0 3597 -1 3632 -2L3667 -3L3670 25L3632 28C3600 30 3583 40 3583 55C3583 65 3585 78 3590 96L3714 560L3863 -18L3886 -18L3943 86L4182 500L4234 587L4197 67C4193 39 4181 32 4130 28L4099 25L4096 -3L4143 -2C4185 -1 4215 0 4230 0C4246 0 4276 -1 4317 -2L4363 -3L4366 25L4329 28C4293 31 4275 42 4275 63L4276 100L4317 631C4319 650 4334 660 4363 662ZM4909 473L4902 482L4834 465L4824 414C4809 336 4784 268 4753 221C4694 130 4616 59 4576 59C4568 59 4563 68 4563 85C4563 99 4565 112 4570 137L4627 408C4630 424 4632 438 4632 451C4632 470 4623 482 4609 482C4589 482 4551 461 4477 408L4449 388L4456 368L4488 389C4516 407 4527 412 4536 412C4545 412 4553 403 4553 392C4553 388 4552 378 4551 374L4488 77C4486 68 4484 44 4484 30C4484 7 4499 -11 4519 -11C4582 -11 4703 101 4787 239L4750 97C4743 73 4739 46 4739 31C4739 6 4750 -9 4769 -9C4795 -9 4831 12 4929 85L4919 103L4893 86C4869 70 4843 59 4832 59C4824 59 4819 66 4819 76C4819 112 4894 416 4909 473ZM5097 390L5041 107C5040 99 5028 61 5028 31C5028 6 5039 -9 5058 -9C5093 -9 5128 11 5206 74L5237 99L5227 117L5182 86C5153 66 5133 56 5122 56C5113 56 5108 64 5108 76C5108 102 5122 183 5151 328L5164 390L5271 390L5282 440C5244 436 5210 434 5172 434C5188 528 5199 577 5217 631L5206 646C5186 634 5159 622 5128 610L5103 440C5059 419 5033 408 5015 403L5013 390ZM5796 473L5789 482L5721 465L5711 414C5696 336 5671 268 5640 221C5581 130 5503 59 5463 59C5455 59 5450 68 5450 85C5450 99 5452 112 5457 137L5514 408C5517 424 5519 438 5519 451C5519 470 5510 482 5496 482C5476 482 5438 461 5364 408L5336 388L5343 368L5375 389C5403 407 5414 412 5423 412C5432 412 5440 403 5440 392C5440 388 5439 378 5438 374L5375 77C5373 68 5371 44 5371 30C5371 7 5386 -11 5406 -11C5469 -11 5590 101 5674 239L5637 97C5630 73 5626 46 5626 31C5626 6 5637 -9 5656 -9C5682 -9 5718 12 5816 85L5806 103L5780 86C5756 70 5730 59 5719 59C5711 59 5706 66 5706 76C5706 112 5781 416 5796 473ZM6130 204L6101 77C6097 60 6095 42 6095 26C6095 4 6104 -9 6119 -9C6142 -9 6183 17 6265 85L6258 106C6234 86 6205 59 6183 59C6174 59 6168 68 6168 82C6168 87 6168 90 6169 93L6261 472L6251 481L6218 463C6177 478 6160 482 6133 482C6105 482 6085 477 6058 464C5996 433 5963 403 5938 354C5894 265 5863 145 5863 67C5863 23 5878 -11 5897 -11C5934 -11 6014 41 6130 204ZM6178 414C6156 305 6137 253 6103 201C6046 117 5985 59 5953 59C5941 59 5935 72 5935 99C5935 163 5963 280 5998 360C6022 415 6045 433 6093 433C6116 433 6134 429 6178 414ZM7032 103L7006 86C6977 67 6955 56 6945 56C6938 56 6932 65 6932 76C6932 86 6934 95 6939 116L7014 413C7018 430 7021 446 7021 454C7021 471 7011 482 6995 482C6966 482 6928 464 6867 421C6804 376 6769 341 6720 272L6750 409C6754 429 6757 444 6757 451C6757 470 6747 482 6731 482C6701 482 6655 460 6600 418C6556 384 6536 363 6471 275L6504 408C6508 424 6510 439 6510 451C6510 470 6501 482 6487 482C6466 482 6428 461 6354 408L6326 388L6333 368C6370 391 6405 414 6412 414C6423 414 6430 404 6430 389C6430 338 6389 145 6348 2L6351 -9L6419 6L6441 108C6465 219 6492 278 6547 338C6589 384 6634 414 6662 414C6669 414 6673 406 6673 393C6673 358 6651 244 6610 69L6594 2L6599 -9L6668 6L6689 113C6705 194 6739 269 6783 318C6838 379 6888 414 6920 414C6928 414 6933 405 6933 389C6933 365 6930 351 6908 264C6868 105 6852 84 6852 31C6852 6 6863 -9 6882 -9C6908 -9 6944 12 7042 85ZM7407 111L7383 94C7330 56 7282 36 7246 36C7199 36 7170 73 7170 133C7170 158 7173 185 7178 214C7195 218 7304 248 7329 259C7414 296 7453 342 7453 404C7453 451 7419 482 7369 482C7301 496 7191 423 7154 349C7124 299 7094 180 7094 113C7094 35 7138 -11 7210 -11C7267 -11 7323 17 7415 92ZM7192 274C7209 343 7229 386 7258 412C7276 428 7307 440 7331 440C7360 440 7379 420 7379 388C7379 344 7344 297 7292 272C7264 258 7228 247 7183 237ZM7491 388L7498 368L7530 389C7567 412 7570 414 7577 414C7588 414 7595 404 7595 389C7595 338 7554 145 7513 2L7520 -9C7545 -2 7568 4 7590 8C7609 134 7630 199 7676 268C7730 352 7805 414 7850 414C7861 414 7867 405 7867 390C7867 372 7864 351 7856 319L7804 107C7795 70 7791 47 7791 31C7791 6 7802 -9 7821 -9C7847 -9 7883 12 7981 85L7971 103L7945 86C7916 67 7894 56 7884 56C7877 56 7871 65 7871 76C7871 81 7872 92 7873 96L7939 372C7946 401 7950 429 7950 446C7950 469 7939 482 7919 482C7877 482 7808 444 7749 389C7711 354 7683 320 7631 247L7669 408C7673 426 7675 438 7675 449C7675 470 7667 482 7652 482C7631 482 7592 460 7519 408ZM8147 390L8091 107C8090 99 8078 61 8078 31C8078 6 8089 -9 8108 -9C8143 -9 8178 11 8256 74L8287 99L8277 117L8232 86C8203 66 8183 56 8172 56C8163 56 8158 64 8158 76C8158 102 8172 183 8201 328L8214 390L8321 390L8332 440C8294 436 8260 434 8222 434C8238 528 8249 577 8267 631L8256 646C8236 634 8209 622 8178 610L8153 440C8109 419 8083 408 8065 403L8063 390ZM8682 111L8658 94C8605 56 8557 36 8521 36C8474 36 8445 73 8445 133C8445 158 8448 185 8453 214C8470 218 8579 248 8604 259C8689 296 8728 342 8728 404C8728 451 8694 482 8644 482C8576 496 8466 423 8429 349C8399 299 8369 180 8369 113C8369 35 8413 -11 8485 -11C8542 -11 8598 17 8690 92ZM8467 274C8484 343 8504 386 8533 412C8551 428 8582 440 8606 440C8635 440 8654 420 8654 388C8654 344 8619 297 8567 272C8539 258 8503 247 8458 237ZM9212 334L9329 334L9461 330L9480 375L9476 382C9395 378 9335 376 9257 376L9220 376L9267 646C9299 647 9382 650 9404 650C9466 650 9507 641 9508 626L9516 537L9540 537C9543 601 9550 651 9561 689C9540 691 9510 692 9492 692C9489 692 9478 692 9454 691L9334 690C9325 689 9151 691 9141 691L9096 692L9093 664L9147 662C9171 661 9182 653 9182 635C9182 621 9178 589 9173 559L9086 55C9082 37 9070 30 9026 23L9021 -3L9062 -2C9093 -1 9155 0 9175 0L9400 -3C9414 -3 9439 -2 9472 -1L9505 0L9509 36C9511 56 9516 86 9525 135L9530 161L9503 161L9487 101C9477 65 9468 53 9446 48C9426 44 9353 39 9299 39C9258 39 9231 40 9162 46ZM9610 1C9625 -7 9641 -11 9653 -11C9686 -11 9725 18 9756 65L9832 182L9843 113C9856 28 9879 -11 9915 -11C9937 -11 9969 6 10001 35L10050 79L10041 98C10005 68 9980 53 9964 53C9949 53 9936 63 9926 83C9917 102 9906 139 9901 168L9883 269L9918 318C9965 383 9992 406 10023 406C10039 406 10051 398 10056 383L10070 387L10085 472C10073 479 10064 482 10055 482C10015 482 9975 446 9913 354L9876 299L9870 347C9858 446 9831 482 9772 482C9746 482 9724 474 9715 461L9657 378L9674 368C9704 402 9724 416 9743 416C9776 416 9798 375 9815 277L9826 215L9786 153C9743 86 9709 54 9681 54C9666 54 9655 58 9653 63L9642 91L9622 88C9622 53 9614 27 9610 1ZM10442 330L10465 330C10473 395 10480 432 10489 458C10465 473 10430 482 10393 482C10348 483 10275 463 10218 400C10164 352 10125 241 10125 136C10125 40 10167 -11 10247 -11C10301 -11 10349 9 10404 54L10454 95L10446 115L10431 105C10359 57 10321 40 10286 40C10230 40 10201 80 10201 159C10201 267 10236 371 10285 409C10306 425 10330 433 10361 433C10406 433 10442 414 10442 390ZM10757 722L10745 733C10693 707 10657 698 10585 691L10581 670L10629 670C10653 670 10663 663 10663 648C10663 645 10663 640 10660 622C10649 567 10576 182 10561 132C10548 82 10542 52 10542 31C10542 6 10553 -9 10572 -9C10598 -9 10634 12 10732 85L10722 103L10696 86C10667 67 10645 56 10635 56C10628 56 10622 66 10622 76C10622 82 10623 89 10626 104ZM11275 473L11268 482L11200 465L11190 414C11175 336 11150 268 11119 221C11060 130 10982 59 10942 59C10934 59 10929 68 10929 85C10929 99 10931 112 10936 137L10993 408C10996 424 10998 438 10998 451C10998 470 10989 482 10975 482C10955 482 10917 461 10843 408L10815 388L10822 368L10854 389C10882 407 10893 412 10902 412C10911 412 10919 403 10919 392C10919 388 10918 378 10917 374L10854 77C10852 68 10850 44 10850 30C10850 7 10865 -11 10885 -11C10948 -11 11069 101 11153 239L11116 97C11109 73 11105 46 11105 31C11105 6 11116 -9 11135 -9C11161 -9 11197 12 11295 85L11285 103L11259 86C11235 70 11209 59 11198 59C11190 59 11185 66 11185 76C11185 112 11260 416 11275 473ZM11331 -180C11330 -187 11330 -193 11330 -198C11330 -241 11367 -276 11412 -276C11518 -276 11628 -152 11687 33L11828 473L11817 482C11788 471 11765 465 11743 463L11708 331C11696 284 11661 211 11628 162C11593 111 11544 67 11522 67C11510 67 11501 90 11502 115L11518 322C11520 353 11522 391 11522 419C11522 464 11515 482 11498 482C11485 482 11471 475 11423 442L11341 386L11352 368L11402 398C11407 401 11418 410 11427 410C11441 410 11449 391 11449 358C11449 357 11449 351 11448 343L11431 100L11430 60C11430 18 11448 -11 11473 -11C11510 -11 11594 74 11669 187L11620 16C11569 -161 11519 -234 11449 -234C11414 -234 11387 -207 11387 -172C11387 -167 11388 -159 11389 -150L11379 -146ZM12165 111L12141 94C12088 56 12040 36 12004 36C11957 36 11928 73 11928 133C11928 158 11931 185 11936 214C11953 218 12062 248 12087 259C12172 296 12211 342 12211 404C12211 451 12177 482 12127 482C12059 496 11949 423 11912 349C11882 299 11852 180 11852 113C11852 35 11896 -11 11968 -11C12025 -11 12081 17 12173 92ZM11950 274C11967 343 11987 386 12016 412C12034 428 12065 440 12089 440C12118 440 12137 420 12137 388C12137 344 12102 297 12050 272C12022 258 11986 247 11941 237ZM12249 388L12256 368L12288 389C12325 412 12328 414 12335 414C12346 414 12353 404 12353 389C12353 338 12312 145 12271 2L12278 -9C12303 -2 12326 4 12348 8C12367 134 12388 199 12434 268C12488 352 12563 414 12608 414C12619 414 12625 405 12625 390C12625 372 12622 351 12614 319L12562 107C12553 70 12549 47 12549 31C12549 6 12560 -9 12579 -9C12605 -9 12641 12 12739 85L12729 103L12703 86C12674 67 12652 56 12642 56C12635 56 12629 65 12629 76C12629 81 12630 92 12631 96L12697 372C12704 401 12708 429 12708 446C12708 469 12697 482 12677 482C12635 482 12566 444 12507 389C12469 354 12441 320 12389 247L12427 408C12431 426 12433 438 12433 449C12433 470 12425 482 12410 482C12389 482 12350 460 12277 408ZM12905 390L12849 107C12848 99 12836 61 12836 31C12836 6 12847 -9 12866 -9C12901 -9 12936 11 13014 74L13045 99L13035 117L12990 86C12961 66 12941 56 12930 56C12921 56 12916 64 12916 76C12916 102 12930 183 12959 328L12972 390L13079 390L13090 440C13052 436 13018 434 12980 434C12996 528 13007 577 13025 631L13014 646C12994 634 12967 622 12936 610L12911 440C12867 419 12841 408 12823 403L12821 390ZM13440 111L13416 94C13363 56 13315 36 13279 36C13232 36 13203 73 13203 133C13203 158 13206 185 13211 214C13228 218 13337 248 13362 259C13447 296 13486 342 13486 404C13486 451 13452 482 13402 482C13334 496 13224 423 13187 349C13157 299 13127 180 13127 113C13127 35 13171 -11 13243 -11C13300 -11 13356 17 13448 92ZM13225 274C13242 343 13262 386 13291 412C13309 428 13340 440 13364 440C13393 440 13412 420 13412 388C13412 344 13377 297 13325 272C13297 258 13261 247 13216 237Z" stroke="rgb(0,0,0)" stroke-opacity="1" stroke-width="8" fill="rgb(0,0,0)" fill-opacity="1"></path></g></g></g><g><g><g transform="matrix(1,0,0,1,2,98.68000793457031)"><path transform="matrix(0.017,0,0,-0.017,0,0)" d="M105 664L160 662C184 661 195 653 195 635L112 125C95 34 94 31 54 28L13 25L9 -3L51 -2C92 -1 123 0 141 0C158 0 187 -1 227 -2L280 -3L283 25L218 28C192 29 182 37 182 58C182 67 183 74 186 93L284 648C320 654 336 656 355 656C457 656 506 612 506 519C506 411 434 323 346 323C324 323 304 328 267 342L269 311C306 293 326 288 355 288C484 288 594 405 594 541C594 642 531 695 412 692L108 692Z" stroke="rgb(0,0,0)" stroke-opacity="1" stroke-width="8" fill="rgb(0,0,0)" fill-opacity="1"></path></g></g><g><g transform="matrix(1,0,0,1,12.3800048828125,99.63999938964844)"><path transform="matrix(0.017,0,0,-0.017,0,0)" d="M146 266C146 526 243 632 301 700L282 726C225 675 60 542 60 266C60 159 85 58 133 -32C168 -99 200 -138 282 -215L301 -194C255 -137 146 -15 146 266Z" stroke="rgb(0,0,0)" stroke-opacity="1" stroke-width="8" fill="rgb(0,0,0)" fill-opacity="1"></path></g></g><g><g transform="matrix(1,0,0,1,18.035003662109375,98.68000793457031)"><path transform="matrix(0.017,0,0,-0.017,0,0)" d="M567 55C567 39 552 30 524 28L480 25L480 -3C582 0 582 0 602 0C622 0 622 0 724 -3L724 25L698 28C651 35 650 35 642 80L555 705L509 705L136 112C100 56 82 40 48 32L28 27L28 -3C120 0 120 0 140 0C159 0 161 0 247 -3L247 25L195 28C179 29 164 38 164 47C164 55 171 69 190 102L292 277L538 277L563 89L563 86C563 84 567 69 567 55ZM496 601L533 313L317 313Z" stroke="rgb(0,0,0)" stroke-opacity="1" stroke-width="8" fill="rgb(0,0,0)" fill-opacity="1"></path></g></g><g><g transform="matrix(1,0,0,1,34.19000244140625,98.68000793457031)"><path transform="matrix(0.017,0,0,-0.017,0,0)" d="M623 585L563 585L345 105L125 585L65 585L336 0L354 0Z" stroke="rgb(0,0,0)" stroke-opacity="1" stroke-width="8" fill="rgb(0,0,0)" fill-opacity="1"></path></g></g><g><g transform="matrix(1,0,0,1,49.2650146484375,98.68000793457031)"><path transform="matrix(0.017,0,0,-0.017,0,0)" d="M543 227C543 337 459 353 377 365C434 385 459 397 490 425C536 464 559 511 559 562C559 644 501 692 401 692C399 692 389 692 374 691L311 690C299 689 263 689 251 689C232 689 201 690 152 691L100 692L97 664L150 662C174 661 185 653 185 635C185 621 181 589 176 559L89 55C85 37 73 30 31 23L26 -3L63 -2C90 0 105 0 117 0C128 0 154 -1 180 -2L217 -3L237 -4C256 -5 269 -6 277 -6C392 -6 543 87 543 227ZM166 41L217 340L302 340C405 340 455 298 455 211C455 108 382 34 282 34C228 34 207 38 166 41ZM352 655C433 655 473 619 473 544C473 439 399 376 275 376L223 376L272 650C288 650 329 655 352 655Z" stroke="rgb(0,0,0)" stroke-opacity="1" stroke-width="8" fill="rgb(0,0,0)" fill-opacity="1"></path></g></g><g><g transform="matrix(1,0,0,1,59.644989013671875,99.63999938964844)"><path transform="matrix(0.017,0,0,-0.017,0,0)" d="M51 726L32 700C87 636 187 526 187 266C187 -10 83 -131 32 -194L51 -215C104 -165 273 -23 273 265C273 542 108 675 51 726Z" stroke="rgb(0,0,0)" stroke-opacity="1" stroke-width="8" fill="rgb(0,0,0)" fill-opacity="1"></path></g></g><g><g transform="matrix(1,0,0,1,70.39999389648438,98.68000793457031)"><path transform="matrix(0.017,0,0,-0.017,0,0)" d="M604 347L604 406L65 406L65 347ZM604 134L604 193L65 193L65 134Z" stroke="rgb(0,0,0)" stroke-opacity="1" stroke-width="8" fill="rgb(0,0,0)" fill-opacity="1"></path></g></g><g><g transform="matrix(1,0,0,1,86.85501098632812,98.68000793457031)"><path transform="matrix(0.017,0,0,-0.017,0,0)" d="M105 664L160 662C184 661 195 653 195 635L112 125C95 34 94 31 54 28L13 25L9 -3L51 -2C92 -1 123 0 141 0C158 0 187 -1 227 -2L280 -3L283 25L218 28C192 29 182 37 182 58C182 67 183 74 186 93L284 648C320 654 336 656 355 656C457 656 506 612 506 519C506 411 434 323 346 323C324 323 304 328 267 342L269 311C306 293 326 288 355 288C484 288 594 405 594 541C594 642 531 695 412 692L108 692Z" stroke="rgb(0,0,0)" stroke-opacity="1" stroke-width="8" fill="rgb(0,0,0)" fill-opacity="1"></path></g></g><g><g transform="matrix(1,0,0,1,97.23501586914062,99.63999938964844)"><path transform="matrix(0.017,0,0,-0.017,0,0)" d="M146 266C146 526 243 632 301 700L282 726C225 675 60 542 60 266C60 159 85 58 133 -32C168 -99 200 -138 282 -215L301 -194C255 -137 146 -15 146 266Z" stroke="rgb(0,0,0)" stroke-opacity="1" stroke-width="8" fill="rgb(0,0,0)" fill-opacity="1"></path></g></g><g><g transform="matrix(1,0,0,1,102.8900146484375,98.68000793457031)"><path transform="matrix(0.017,0,0,-0.017,0,0)" d="M567 55C567 39 552 30 524 28L480 25L480 -3C582 0 582 0 602 0C622 0 622 0 724 -3L724 25L698 28C651 35 650 35 642 80L555 705L509 705L136 112C100 56 82 40 48 32L28 27L28 -3C120 0 120 0 140 0C159 0 161 0 247 -3L247 25L195 28C179 29 164 38 164 47C164 55 171 69 190 102L292 277L538 277L563 89L563 86C563 84 567 69 567 55ZM496 601L533 313L317 313Z" stroke="rgb(0,0,0)" stroke-opacity="1" stroke-width="8" fill="rgb(0,0,0)" fill-opacity="1"></path></g></g><g><g transform="matrix(1,0,0,1,115.65499877929688,99.63999938964844)"><path transform="matrix(0.017,0,0,-0.017,0,0)" d="M51 726L32 700C87 636 187 526 187 266C187 -10 83 -131 32 -194L51 -215C104 -165 273 -23 273 265C273 542 108 675 51 726Z" stroke="rgb(0,0,0)" stroke-opacity="1" stroke-width="8" fill="rgb(0,0,0)" fill-opacity="1"></path></g></g><g><g transform="matrix(1,0,0,1,124.70001220703125,98.68000793457031)"><path transform="matrix(0.017,0,0,-0.017,0,0)" d="M604 241L604 300L364 300L364 538L305 538L305 300L65 300L65 241L305 241L305 0L364 0L364 241Z" stroke="rgb(0,0,0)" stroke-opacity="1" stroke-width="8" fill="rgb(0,0,0)" fill-opacity="1"></path></g></g><g><g transform="matrix(1,0,0,1,139.44497680664062,98.68000793457031)"><path transform="matrix(0.017,0,0,-0.017,0,0)" d="M105 664L160 662C184 661 195 653 195 635L112 125C95 34 94 31 54 28L13 25L9 -3L51 -2C92 -1 123 0 141 0C158 0 187 -1 227 -2L280 -3L283 25L218 28C192 29 182 37 182 58C182 67 183 74 186 93L284 648C320 654 336 656 355 656C457 656 506 612 506 519C506 411 434 323 346 323C324 323 304 328 267 342L269 311C306 293 326 288 355 288C484 288 594 405 594 541C594 642 531 695 412 692L108 692Z" stroke="rgb(0,0,0)" stroke-opacity="1" stroke-width="8" fill="rgb(0,0,0)" fill-opacity="1"></path></g></g><g><g transform="matrix(1,0,0,1,149.82498168945312,99.63999938964844)"><path transform="matrix(0.017,0,0,-0.017,0,0)" d="M146 266C146 526 243 632 301 700L282 726C225 675 60 542 60 266C60 159 85 58 133 -32C168 -99 200 -138 282 -215L301 -194C255 -137 146 -15 146 266Z" stroke="rgb(0,0,0)" stroke-opacity="1" stroke-width="8" fill="rgb(0,0,0)" fill-opacity="1"></path></g></g><g><g transform="matrix(1,0,0,1,155.48001098632812,98.68000793457031)"><path transform="matrix(0.017,0,0,-0.017,0,0)" d="M543 227C543 337 459 353 377 365C434 385 459 397 490 425C536 464 559 511 559 562C559 644 501 692 401 692C399 692 389 692 374 691L311 690C299 689 263 689 251 689C232 689 201 690 152 691L100 692L97 664L150 662C174 661 185 653 185 635C185 621 181 589 176 559L89 55C85 37 73 30 31 23L26 -3L63 -2C90 0 105 0 117 0C128 0 154 -1 180 -2L217 -3L237 -4C256 -5 269 -6 277 -6C392 -6 543 87 543 227ZM166 41L217 340L302 340C405 340 455 298 455 211C455 108 382 34 282 34C228 34 207 38 166 41ZM352 655C433 655 473 619 473 544C473 439 399 376 275 376L223 376L272 650C288 650 329 655 352 655Z" stroke="rgb(0,0,0)" stroke-opacity="1" stroke-width="8" fill="rgb(0,0,0)" fill-opacity="1"></path></g></g><g><g transform="matrix(1,0,0,1,165.86001586914062,99.63999938964844)"><path transform="matrix(0.017,0,0,-0.017,0,0)" d="M51 726L32 700C87 636 187 526 187 266C187 -10 83 -131 32 -194L51 -215C104 -165 273 -23 273 265C273 542 108 675 51 726Z" stroke="rgb(0,0,0)" stroke-opacity="1" stroke-width="8" fill="rgb(0,0,0)" fill-opacity="1"></path></g></g></g></g></svg>