<svg xmlns="http://www.w3.org/2000/svg" xmlns:xlink="http://www.w3.org/1999/xlink" width="135.0550079345703" height="82.82500457763672" style="width:135.0550079345703px;height:82.82500457763672px;font-family:Asana-Math, Asana;background:#FFF;"><g><g><g><g transform="matrix(1,0,0,1,2,26.215003967285156)"><path transform="matrix(0.017,0,0,-0.017,0,0)" d="M701 689C606 689 537 619 537 522C537 433 602 368 691 368C784 368 853 439 853 535C853 623 788 689 701 689ZM698 666C749 666 781 615 781 533C781 447 746 391 692 391C639 391 609 440 609 526C609 612 643 666 698 666ZM1148 321C1053 321 984 251 984 154C984 65 1049 0 1138 0C1231 0 1300 71 1300 167C1300 255 1235 321 1148 321ZM1145 298C1196 298 1228 247 1228 165C1228 79 1193 23 1139 23C1086 23 1056 72 1056 158C1056 244 1090 298 1145 298ZM748 -20L1114 709L1074 709L708 -20ZM1346 1C1361 -7 1377 -11 1389 -11C1422 -11 1461 18 1492 65L1568 182L1579 113C1592 28 1615 -11 1651 -11C1673 -11 1705 6 1737 35L1786 79L1777 98C1741 68 1716 53 1700 53C1685 53 1672 63 1662 83C1653 102 1642 139 1637 168L1619 269L1654 318C1701 383 1728 406 1759 406C1775 406 1787 398 1792 383L1806 387L1821 472C1809 479 1800 482 1791 482C1751 482 1711 446 1649 354L1612 299L1606 347C1594 446 1567 482 1508 482C1482 482 1460 474 1451 461L1393 378L1410 368C1440 402 1460 416 1479 416C1512 416 1534 375 1551 277L1562 215L1522 153C1479 86 1445 54 1417 54C1402 54 1391 58 1389 63L1378 91L1358 88C1358 53 1350 27 1346 1ZM2568 722L2556 733C2504 707 2468 698 2396 691L2392 670L2440 670C2464 670 2474 663 2474 646C2474 638 2473 629 2472 622L2444 468C2414 477 2387 482 2362 482C2293 482 2199 410 2153 323C2122 265 2102 170 2102 86C2102 21 2117 -11 2146 -11C2173 -11 2210 6 2244 33C2298 77 2331 116 2398 217L2375 126C2364 82 2359 50 2359 24C2359 3 2368 -9 2385 -9C2402 -9 2426 3 2460 28L2541 88L2531 107L2487 76C2473 66 2457 59 2448 59C2440 59 2434 68 2434 82C2434 90 2435 99 2442 128ZM2199 59C2183 59 2174 73 2174 98C2174 224 2220 380 2269 418C2282 428 2301 433 2328 433C2372 433 2401 427 2434 410L2422 351C2385 171 2244 59 2199 59ZM2912 111L2888 94C2835 56 2787 36 2751 36C2704 36 2675 73 2675 133C2675 158 2678 185 2683 214C2700 218 2809 248 2834 259C2919 296 2958 342 2958 404C2958 451 2924 482 2874 482C2806 496 2696 423 2659 349C2629 299 2599 180 2599 113C2599 35 2643 -11 2715 -11C2772 -11 2828 17 2920 92ZM2697 274C2714 343 2734 386 2763 412C2781 428 2812 440 2836 440C2865 440 2884 420 2884 388C2884 344 2849 297 2797 272C2769 258 2733 247 2688 237ZM3214 -180C3213 -187 3213 -193 3213 -198C3213 -241 3250 -276 3295 -276C3401 -276 3511 -152 3570 33L3711 473L3700 482C3671 471 3648 465 3626 463L3591 331C3579 284 3544 211 3511 162C3476 111 3427 67 3405 67C3393 67 3384 90 3385 115L3401 322C3403 353 3405 391 3405 419C3405 464 3398 482 3381 482C3368 482 3354 475 3306 442L3224 386L3235 368L3285 398C3290 401 3301 410 3310 410C3324 410 3332 391 3332 358C3332 357 3332 351 3331 343L3314 100L3313 60C3313 18 3331 -11 3356 -11C3393 -11 3477 74 3552 187L3503 16C3452 -161 3402 -234 3332 -234C3297 -234 3270 -207 3270 -172C3270 -167 3271 -159 3272 -150L3262 -146Z" stroke="rgb(0,0,0)" stroke-opacity="1" stroke-width="8" fill="rgb(0,0,0)" fill-opacity="1"></path></g></g><g><g transform="matrix(1,0,0,1,70.32501220703125,26.215003967285156)"><path transform="matrix(0.017,0,0,-0.017,0,0)" d="M604 347L604 406L65 406L65 347ZM604 134L604 193L65 193L65 134Z" stroke="rgb(0,0,0)" stroke-opacity="1" stroke-width="8" fill="rgb(0,0,0)" fill-opacity="1"></path></g></g><g><g><g><g><g transform="matrix(1,0,0,1,92.70501708984375,14.050003051757812)"><path transform="matrix(0.017,0,0,-0.017,0,0)" d="M9 1C24 -7 40 -11 52 -11C85 -11 124 18 155 65L231 182L242 113C255 28 278 -11 314 -11C336 -11 368 6 400 35L449 79L440 98C404 68 379 53 363 53C348 53 335 63 325 83C316 102 305 139 300 168L282 269L317 318C364 383 391 406 422 406C438 406 450 398 455 383L469 387L484 472C472 479 463 482 454 482C414 482 374 446 312 354L275 299L269 347C257 446 230 482 171 482C145 482 123 474 114 461L56 378L73 368C103 402 123 416 142 416C175 416 197 375 214 277L225 215L185 153C142 86 108 54 80 54C65 54 54 58 52 63L41 91L21 88C21 53 13 27 9 1ZM492 -180C491 -187 491 -193 491 -198C491 -241 528 -276 573 -276C679 -276 789 -152 848 33L989 473L978 482C949 471 926 465 904 463L869 331C857 284 822 211 789 162C754 111 705 67 683 67C671 67 662 90 663 115L679 322C681 353 683 391 683 419C683 464 676 482 659 482C646 482 632 475 584 442L502 386L513 368L563 398C568 401 579 410 588 410C602 410 610 391 610 358C610 357 610 351 609 343L592 100L591 60C591 18 609 -11 634 -11C671 -11 755 74 830 187L781 16C730 -161 680 -234 610 -234C575 -234 548 -207 548 -172C548 -167 549 -159 550 -150L540 -146Z" stroke="rgb(0,0,0)" stroke-opacity="1" stroke-width="8" fill="rgb(0,0,0)" fill-opacity="1"></path></g></g></g></g><g><g><g><g transform="matrix(1,0,0,1,88.47503662109375,39.38500213623047)"><path transform="matrix(0.017,0,0,-0.017,0,0)" d="M418 -3L418 27L366 30C311 33 301 44 301 96L301 700L60 598L67 548L217 614L217 96C217 44 206 33 152 30L96 27L96 -3C250 0 250 0 261 0C292 0 402 -3 418 -3ZM762 689C607 689 528 566 528 324C528 207 549 106 584 57C619 8 675 -20 737 -20C888 -20 964 110 964 366C964 585 899 689 762 689ZM744 654C841 654 880 556 880 316C880 103 842 15 750 15C653 15 612 116 612 360C612 571 649 654 744 654ZM1261 689C1106 689 1027 566 1027 324C1027 207 1048 106 1083 57C1118 8 1174 -20 1236 -20C1387 -20 1463 110 1463 366C1463 585 1398 689 1261 689ZM1243 654C1340 654 1379 556 1379 316C1379 103 1341 15 1249 15C1152 15 1111 116 1111 360C1111 571 1148 654 1243 654Z" stroke="rgb(0,0,0)" stroke-opacity="1" stroke-width="8" fill="rgb(0,0,0)" fill-opacity="1"></path></g></g></g></g><line style="fill:none;stroke-width:0.99px;stroke:rgb(0, 0, 0);" x1="88.47503662109375" y1="22.250002145767212" x2="113.91503715515137" y2="22.250002145767212"></line></g></g><g></g><g><g><g transform="matrix(1,0,0,1,2,76.70500183105469)"><path transform="matrix(0.017,0,0,-0.017,0,0)" d="M203 689C108 689 39 619 39 522C39 433 104 368 193 368C286 368 355 439 355 535C355 623 290 689 203 689ZM200 666C251 666 283 615 283 533C283 447 248 391 194 391C141 391 111 440 111 526C111 612 145 666 200 666ZM650 321C555 321 486 251 486 154C486 65 551 0 640 0C733 0 802 71 802 167C802 255 737 321 650 321ZM647 298C698 298 730 247 730 165C730 79 695 23 641 23C588 23 558 72 558 158C558 244 592 298 647 298ZM250 -20L616 709L576 709L210 -20ZM848 1C863 -7 879 -11 891 -11C924 -11 963 18 994 65L1070 182L1081 113C1094 28 1117 -11 1153 -11C1175 -11 1207 6 1239 35L1288 79L1279 98C1243 68 1218 53 1202 53C1187 53 1174 63 1164 83C1155 102 1144 139 1139 168L1121 269L1156 318C1203 383 1230 406 1261 406C1277 406 1289 398 1294 383L1308 387L1323 472C1311 479 1302 482 1293 482C1253 482 1213 446 1151 354L1114 299L1108 347C1096 446 1069 482 1010 482C984 482 962 474 953 461L895 378L912 368C942 402 962 416 981 416C1014 416 1036 375 1053 277L1064 215L1024 153C981 86 947 54 919 54C904 54 893 58 891 63L880 91L860 88C860 53 852 27 848 1ZM2070 722L2058 733C2006 707 1970 698 1898 691L1894 670L1942 670C1966 670 1976 663 1976 646C1976 638 1975 629 1974 622L1946 468C1916 477 1889 482 1864 482C1795 482 1701 410 1655 323C1624 265 1604 170 1604 86C1604 21 1619 -11 1648 -11C1675 -11 1712 6 1746 33C1800 77 1833 116 1900 217L1877 126C1866 82 1861 50 1861 24C1861 3 1870 -9 1887 -9C1904 -9 1928 3 1962 28L2043 88L2033 107L1989 76C1975 66 1959 59 1950 59C1942 59 1936 68 1936 82C1936 90 1937 99 1944 128ZM1701 59C1685 59 1676 73 1676 98C1676 224 1722 380 1771 418C1784 428 1803 433 1830 433C1874 433 1903 427 1936 410L1924 351C1887 171 1746 59 1701 59ZM2414 111L2390 94C2337 56 2289 36 2253 36C2206 36 2177 73 2177 133C2177 158 2180 185 2185 214C2202 218 2311 248 2336 259C2421 296 2460 342 2460 404C2460 451 2426 482 2376 482C2308 496 2198 423 2161 349C2131 299 2101 180 2101 113C2101 35 2145 -11 2217 -11C2274 -11 2330 17 2422 92ZM2199 274C2216 343 2236 386 2265 412C2283 428 2314 440 2338 440C2367 440 2386 420 2386 388C2386 344 2351 297 2299 272C2271 258 2235 247 2190 237ZM2716 -180C2715 -187 2715 -193 2715 -198C2715 -241 2752 -276 2797 -276C2903 -276 3013 -152 3072 33L3213 473L3202 482C3173 471 3150 465 3128 463L3093 331C3081 284 3046 211 3013 162C2978 111 2929 67 2907 67C2895 67 2886 90 2887 115L2903 322C2905 353 2907 391 2907 419C2907 464 2900 482 2883 482C2870 482 2856 475 2808 442L2726 386L2737 368L2787 398C2792 401 2803 410 2812 410C2826 410 2834 391 2834 358C2834 357 2834 351 2833 343L2816 100L2815 60C2815 18 2833 -11 2858 -11C2895 -11 2979 74 3054 187L3005 16C2954 -161 2904 -234 2834 -234C2799 -234 2772 -207 2772 -172C2772 -167 2773 -159 2774 -150L2764 -146Z" stroke="rgb(0,0,0)" stroke-opacity="1" stroke-width="8" fill="rgb(0,0,0)" fill-opacity="1"></path></g></g><g><g transform="matrix(1,0,0,1,61.850006103515625,76.70500183105469)"><path transform="matrix(0.017,0,0,-0.017,0,0)" d="M604 347L604 406L65 406L65 347ZM604 134L604 193L65 193L65 134Z" stroke="rgb(0,0,0)" stroke-opacity="1" stroke-width="8" fill="rgb(0,0,0)" fill-opacity="1"></path></g></g><g><g transform="matrix(1,0,0,1,78.30499267578125,76.70500183105469)"><path transform="matrix(0.017,0,0,-0.017,0,0)" d="M-7 -180C-8 -187 -8 -193 -8 -198C-8 -241 29 -276 74 -276C180 -276 290 -152 349 33L490 473L479 482C450 471 427 465 405 463L370 331C358 284 323 211 290 162C255 111 206 67 184 67C172 67 163 90 164 115L180 322C182 353 184 391 184 419C184 464 177 482 160 482C147 482 133 475 85 442L3 386L14 368L64 398C69 401 80 410 89 410C103 410 111 391 111 358C111 357 111 351 110 343L93 100L92 60C92 18 110 -11 135 -11C172 -11 256 74 331 187L282 16C231 -161 181 -234 111 -234C76 -234 49 -207 49 -172C49 -167 50 -159 51 -150L41 -146ZM702 689C607 689 538 619 538 522C538 433 603 368 692 368C785 368 854 439 854 535C854 623 789 689 702 689ZM699 666C750 666 782 615 782 533C782 447 747 391 693 391C640 391 610 440 610 526C610 612 644 666 699 666ZM1149 321C1054 321 985 251 985 154C985 65 1050 0 1139 0C1232 0 1301 71 1301 167C1301 255 1236 321 1149 321ZM1146 298C1197 298 1229 247 1229 165C1229 79 1194 23 1140 23C1087 23 1057 72 1057 158C1057 244 1091 298 1146 298ZM749 -20L1115 709L1075 709L709 -20ZM2070 722L2058 733C2006 707 1970 698 1898 691L1894 670L1942 670C1966 670 1976 663 1976 646C1976 638 1975 629 1974 622L1946 468C1916 477 1889 482 1864 482C1795 482 1701 410 1655 323C1624 265 1604 170 1604 86C1604 21 1619 -11 1648 -11C1675 -11 1712 6 1746 33C1800 77 1833 116 1900 217L1877 126C1866 82 1861 50 1861 24C1861 3 1870 -9 1887 -9C1904 -9 1928 3 1962 28L2043 88L2033 107L1989 76C1975 66 1959 59 1950 59C1942 59 1936 68 1936 82C1936 90 1937 99 1944 128ZM1701 59C1685 59 1676 73 1676 98C1676 224 1722 380 1771 418C1784 428 1803 433 1830 433C1874 433 1903 427 1936 410L1924 351C1887 171 1746 59 1701 59ZM2414 111L2390 94C2337 56 2289 36 2253 36C2206 36 2177 73 2177 133C2177 158 2180 185 2185 214C2202 218 2311 248 2336 259C2421 296 2460 342 2460 404C2460 451 2426 482 2376 482C2308 496 2198 423 2161 349C2131 299 2101 180 2101 113C2101 35 2145 -11 2217 -11C2274 -11 2330 17 2422 92ZM2199 274C2216 343 2236 386 2265 412C2283 428 2314 440 2338 440C2367 440 2386 420 2386 388C2386 344 2351 297 2299 272C2271 258 2235 247 2190 237ZM2732 1C2747 -7 2763 -11 2775 -11C2808 -11 2847 18 2878 65L2954 182L2965 113C2978 28 3001 -11 3037 -11C3059 -11 3091 6 3123 35L3172 79L3163 98C3127 68 3102 53 3086 53C3071 53 3058 63 3048 83C3039 102 3028 139 3023 168L3005 269L3040 318C3087 383 3114 406 3145 406C3161 406 3173 398 3178 383L3192 387L3207 472C3195 479 3186 482 3177 482C3137 482 3097 446 3035 354L2998 299L2992 347C2980 446 2953 482 2894 482C2868 482 2846 474 2837 461L2779 378L2796 368C2826 402 2846 416 2865 416C2898 416 2920 375 2937 277L2948 215L2908 153C2865 86 2831 54 2803 54C2788 54 2777 58 2775 63L2764 91L2744 88C2744 53 2736 27 2732 1Z" stroke="rgb(0,0,0)" stroke-opacity="1" stroke-width="8" fill="rgb(0,0,0)" fill-opacity="1"></path></g></g></g></g></svg>