<svg xmlns="http://www.w3.org/2000/svg" xmlns:xlink="http://www.w3.org/1999/xlink" width="100.70500183105469" height="45.70000076293945" style="width:100.70500183105469px;height:45.70000076293945px;font-family:Asana-Math, Asana;background:#FFF;"><g><g><g><g transform="matrix(1,0,0,1,2,18.040000915527344)"><path transform="matrix(0.017,0,0,-0.017,0,0)" d="M105 664L160 662C184 661 195 653 195 635L112 125C95 34 94 31 54 28L13 25L9 -3L51 -2C92 -1 123 0 141 0C158 0 187 -1 227 -2L280 -3L283 25L218 28C192 29 182 37 182 58C182 67 183 74 186 93L284 648C320 654 336 656 355 656C457 656 506 612 506 519C506 411 434 323 346 323C324 323 304 328 267 342L269 311C306 293 326 288 355 288C484 288 594 405 594 541C594 642 531 695 412 692L108 692Z" stroke="rgb(0,0,0)" stroke-opacity="1" stroke-width="8" fill="rgb(0,0,0)" fill-opacity="1"></path></g></g><g><g><g><g><g transform="matrix(1,0,0,1,12.8900146484375,21.999998474121092)"><path transform="matrix(0.0119,0,0,-0.0119,0,0)" d="M418 -3L418 27L366 30C311 33 301 44 301 96L301 700L60 598L67 548L217 614L217 96C217 44 206 33 152 30L96 27L96 -3C250 0 250 0 261 0C292 0 402 -3 418 -3Z" stroke="rgb(0,0,0)" stroke-opacity="1" stroke-width="8" fill="rgb(0,0,0)" fill-opacity="1"></path></g></g></g></g></g><g><g transform="matrix(1,0,0,1,19.850006103515625,18.040000915527344)"><path transform="matrix(0.017,0,0,-0.017,0,0)" d="M310 96L239 624C237 646 241 661 281 662L323 664L323 692L282 691C245 690 217 689 199 689C181 689 153 690 116 691L75 692L75 664L100 662C144 659 152 651 159 614L247 -8L296 -8L674 611C699 651 707 658 736 662L754 664L754 692L724 691C697 690 674 689 658 689C648 689 621 690 580 691L534 692L534 664L560 662C598 659 617 649 617 630C617 619 613 608 601 588Z" stroke="rgb(0,0,0)" stroke-opacity="1" stroke-width="8" fill="rgb(0,0,0)" fill-opacity="1"></path></g></g><g><g><g><g><g transform="matrix(1,0,0,1,32.61500549316406,21.999998474121092)"><path transform="matrix(0.0119,0,0,-0.0119,0,0)" d="M418 -3L418 27L366 30C311 33 301 44 301 96L301 700L60 598L67 548L217 614L217 96C217 44 206 33 152 30L96 27L96 -3C250 0 250 0 261 0C292 0 402 -3 418 -3Z" stroke="rgb(0,0,0)" stroke-opacity="1" stroke-width="8" fill="rgb(0,0,0)" fill-opacity="1"></path></g></g></g></g></g><g><g transform="matrix(1,0,0,1,44.67500305175781,18.040000915527344)"><path transform="matrix(0.017,0,0,-0.017,0,0)" d="M604 347L604 406L65 406L65 347ZM604 134L604 193L65 193L65 134Z" stroke="rgb(0,0,0)" stroke-opacity="1" stroke-width="8" fill="rgb(0,0,0)" fill-opacity="1"></path></g></g><g><g transform="matrix(1,0,0,1,61.1300048828125,18.040000915527344)"><path transform="matrix(0.017,0,0,-0.017,0,0)" d="M105 664L160 662C184 661 195 653 195 635L112 125C95 34 94 31 54 28L13 25L9 -3L51 -2C92 -1 123 0 141 0C158 0 187 -1 227 -2L280 -3L283 25L218 28C192 29 182 37 182 58C182 67 183 74 186 93L284 648C320 654 336 656 355 656C457 656 506 612 506 519C506 411 434 323 346 323C324 323 304 328 267 342L269 311C306 293 326 288 355 288C484 288 594 405 594 541C594 642 531 695 412 692L108 692Z" stroke="rgb(0,0,0)" stroke-opacity="1" stroke-width="8" fill="rgb(0,0,0)" fill-opacity="1"></path></g></g><g><g><g><g><g transform="matrix(1,0,0,1,72.02000427246094,21.999998474121092)"><path transform="matrix(0.0119,0,0,-0.0119,0,0)" d="M16 23L16 -3C203 -3 203 0 239 0C275 0 275 -3 468 -3L468 82C353 77 307 81 122 77L304 270C401 373 431 428 431 503C431 618 353 689 226 689C154 689 105 669 56 619L39 483L68 483L81 529C97 587 133 612 200 612C286 612 341 558 341 473C341 398 299 324 186 204Z" stroke="rgb(0,0,0)" stroke-opacity="1" stroke-width="8" fill="rgb(0,0,0)" fill-opacity="1"></path></g></g></g></g></g><g><g transform="matrix(1,0,0,1,78.98001098632812,18.040000915527344)"><path transform="matrix(0.017,0,0,-0.017,0,0)" d="M310 96L239 624C237 646 241 661 281 662L323 664L323 692L282 691C245 690 217 689 199 689C181 689 153 690 116 691L75 692L75 664L100 662C144 659 152 651 159 614L247 -8L296 -8L674 611C699 651 707 658 736 662L754 664L754 692L724 691C697 690 674 689 658 689C648 689 621 690 580 691L534 692L534 664L560 662C598 659 617 649 617 630C617 619 613 608 601 588Z" stroke="rgb(0,0,0)" stroke-opacity="1" stroke-width="8" fill="rgb(0,0,0)" fill-opacity="1"></path></g></g><g><g><g><g><g transform="matrix(1,0,0,1,91.74501037597656,21.999998474121092)"><path transform="matrix(0.0119,0,0,-0.0119,0,0)" d="M16 23L16 -3C203 -3 203 0 239 0C275 0 275 -3 468 -3L468 82C353 77 307 81 122 77L304 270C401 373 431 428 431 503C431 618 353 689 226 689C154 689 105 669 56 619L39 483L68 483L81 529C97 587 133 612 200 612C286 612 341 558 341 473C341 398 299 324 186 204Z" stroke="rgb(0,0,0)" stroke-opacity="1" stroke-width="8" fill="rgb(0,0,0)" fill-opacity="1"></path></g></g></g></g></g></g><g><g><g transform="matrix(1,0,0,1,2,39.58000183105469)"><path transform="matrix(0.017,0,0,-0.017,0,0)" d="M342 330L365 330C373 395 380 432 389 458C365 473 330 482 293 482C248 483 175 463 118 400C64 352 25 241 25 136C25 40 67 -11 147 -11C201 -11 249 9 304 54L354 95L346 115L331 105C259 57 221 40 186 40C130 40 101 80 101 159C101 267 136 371 185 409C206 425 230 433 261 433C306 433 342 414 342 390ZM423 152C423 46 468 -11 551 -11C606 -11 666 15 711 57C773 116 817 230 817 331C817 425 767 482 684 482C580 482 423 382 423 152ZM647 444C708 444 741 399 741 315C741 219 710 113 666 60C648 39 622 27 591 27C533 27 499 72 499 151C499 264 538 387 587 427C600 438 623 444 647 444ZM873 388L880 368L912 389C949 412 952 414 959 414C970 414 977 404 977 389C977 338 936 145 895 2L902 -9C927 -2 950 4 972 8C991 134 1012 199 1058 268C1112 352 1187 414 1232 414C1243 414 1249 405 1249 390C1249 372 1246 351 1238 319L1186 107C1177 70 1173 47 1173 31C1173 6 1184 -9 1203 -9C1229 -9 1265 12 1363 85L1353 103L1327 86C1298 67 1276 56 1266 56C1259 56 1253 65 1253 76C1253 81 1254 92 1255 96L1321 372C1328 401 1332 429 1332 446C1332 469 1321 482 1301 482C1259 482 1190 444 1131 389C1093 354 1065 320 1013 247L1051 408C1055 426 1057 438 1057 449C1057 470 1049 482 1034 482C1013 482 974 460 901 408ZM2043 646L2116 646C2194 646 2230 641 2233 629C2236 621 2238 602 2237 592L2233 528L2261 528L2288 692L2197 691C2109 690 2041 689 2006 689C1969 689 1905 690 1819 691L1724 692L1706 528L1735 528L1750 588C1755 610 1762 626 1768 633C1774 640 1812 646 1849 646L1961 646L1875 125C1859 34 1857 31 1817 28L1766 25L1762 -3L1819 -2C1859 -1 1888 0 1904 0C1923 0 1954 -1 1993 -2L2037 -3L2040 25L1981 28C1955 29 1945 37 1945 58C1945 67 1946 74 1949 93ZM2854 330L2877 330C2885 395 2892 432 2901 458C2877 473 2842 482 2805 482C2760 483 2687 463 2630 400C2576 352 2537 241 2537 136C2537 40 2579 -11 2659 -11C2713 -11 2761 9 2816 54L2866 95L2858 115L2843 105C2771 57 2733 40 2698 40C2642 40 2613 80 2613 159C2613 267 2648 371 2697 409C2718 425 2742 433 2773 433C2818 433 2854 414 2854 390ZM3043 390L2987 107C2986 99 2974 61 2974 31C2974 6 2985 -9 3004 -9C3039 -9 3074 11 3152 74L3183 99L3173 117L3128 86C3099 66 3079 56 3068 56C3059 56 3054 64 3054 76C3054 102 3068 183 3097 328L3110 390L3217 390L3228 440C3190 436 3156 434 3118 434C3134 528 3145 577 3163 631L3152 646C3132 634 3105 622 3074 610L3049 440C3005 419 2979 408 2961 403L2959 390ZM3578 111L3554 94C3501 56 3453 36 3417 36C3370 36 3341 73 3341 133C3341 158 3344 185 3349 214C3366 218 3475 248 3500 259C3585 296 3624 342 3624 404C3624 451 3590 482 3540 482C3472 496 3362 423 3325 349C3295 299 3265 180 3265 113C3265 35 3309 -11 3381 -11C3438 -11 3494 17 3586 92ZM3363 274C3380 343 3400 386 3429 412C3447 428 3478 440 3502 440C3531 440 3550 420 3550 388C3550 344 3515 297 3463 272C3435 258 3399 247 3354 237Z" stroke="rgb(0,0,0)" stroke-opacity="1" stroke-width="8" fill="rgb(0,0,0)" fill-opacity="1"></path></g></g></g></g></svg>