<svg xmlns="http://www.w3.org/2000/svg" xmlns:xlink="http://www.w3.org/1999/xlink" width="107.48500061035156" height="52.255001068115234" style="width:107.48500061035156px;height:52.255001068115234px;font-family:Asana-Math, Asana;background:#FFF;"><g><g><g><g><g><g><g transform="matrix(1,0,0,1,3.69500732421875,18.040000915527344)"><path transform="matrix(0.017,0,0,-0.017,0,0)" d="M105 664L160 662C184 661 195 653 195 635L112 125C95 34 94 31 54 28L13 25L9 -3L51 -2C92 -1 123 0 141 0C158 0 187 -1 227 -2L280 -3L283 25L218 28C192 29 182 37 182 58C182 67 183 74 186 93L284 648C320 654 336 656 355 656C457 656 506 612 506 519C506 411 434 323 346 323C324 323 304 328 267 342L269 311C306 293 326 288 355 288C484 288 594 405 594 541C594 642 531 695 412 692L108 692Z" stroke="rgb(0,0,0)" stroke-opacity="1" stroke-width="8" fill="rgb(0,0,0)" fill-opacity="1"></path></g></g><g><g><g><g><g transform="matrix(1,0,0,1,14.585006713867188,21.999998474121092)"><path transform="matrix(0.0119,0,0,-0.0119,0,0)" d="M418 -3L418 27L366 30C311 33 301 44 301 96L301 700L60 598L67 548L217 614L217 96C217 44 206 33 152 30L96 27L96 -3C250 0 250 0 261 0C292 0 402 -3 418 -3Z" stroke="rgb(0,0,0)" stroke-opacity="1" stroke-width="8" fill="rgb(0,0,0)" fill-opacity="1"></path></g></g></g></g></g><g><g transform="matrix(1,0,0,1,21.545013427734375,18.040000915527344)"><path transform="matrix(0.017,0,0,-0.017,0,0)" d="M310 96L239 624C237 646 241 661 281 662L323 664L323 692L282 691C245 690 217 689 199 689C181 689 153 690 116 691L75 692L75 664L100 662C144 659 152 651 159 614L247 -8L296 -8L674 611C699 651 707 658 736 662L754 664L754 692L724 691C697 690 674 689 658 689C648 689 621 690 580 691L534 692L534 664L560 662C598 659 617 649 617 630C617 619 613 608 601 588Z" stroke="rgb(0,0,0)" stroke-opacity="1" stroke-width="8" fill="rgb(0,0,0)" fill-opacity="1"></path></g></g><g><g><g><g><g transform="matrix(1,0,0,1,34.31001281738281,21.999998474121092)"><path transform="matrix(0.0119,0,0,-0.0119,0,0)" d="M418 -3L418 27L366 30C311 33 301 44 301 96L301 700L60 598L67 548L217 614L217 96C217 44 206 33 152 30L96 27L96 -3C250 0 250 0 261 0C292 0 402 -3 418 -3Z" stroke="rgb(0,0,0)" stroke-opacity="1" stroke-width="8" fill="rgb(0,0,0)" fill-opacity="1"></path></g></g></g></g></g></g></g><g><g><g><g transform="matrix(1,0,0,1,13.550003051757812,44.7550048828125)"><path transform="matrix(0.017,0,0,-0.017,0,0)" d="M390 646L463 646C541 646 577 641 580 629C583 621 585 602 584 592L580 528L608 528L635 692L544 691C456 690 388 689 353 689C316 689 252 690 166 691L71 692L53 528L82 528L97 588C102 610 109 626 115 633C121 640 159 646 196 646L308 646L222 125C206 34 204 31 164 28L113 25L109 -3L166 -2C206 -1 235 0 251 0C270 0 301 -1 340 -2L384 -3L387 25L328 28C302 29 292 37 292 58C292 67 293 74 296 93Z" stroke="rgb(0,0,0)" stroke-opacity="1" stroke-width="8" fill="rgb(0,0,0)" fill-opacity="1"></path></g></g><g><g><g><g><g transform="matrix(1,0,0,1,24.44000244140625,48.71500244140625)"><path transform="matrix(0.0119,0,0,-0.0119,0,0)" d="M418 -3L418 27L366 30C311 33 301 44 301 96L301 700L60 598L67 548L217 614L217 96C217 44 206 33 152 30L96 27L96 -3C250 0 250 0 261 0C292 0 402 -3 418 -3Z" stroke="rgb(0,0,0)" stroke-opacity="1" stroke-width="8" fill="rgb(0,0,0)" fill-opacity="1"></path></g></g></g></g></g></g></g><line style="fill:none;stroke-width:0.99px;stroke:rgb(0, 0, 0);" x1="3.69500732421875" y1="27.620004892349243" x2="41.2700080871582" y2="27.620004892349243"></line></g><g><g transform="matrix(1,0,0,1,48.06500244140625,31.584999084472656)"><path transform="matrix(0.017,0,0,-0.017,0,0)" d="M604 347L604 406L65 406L65 347ZM604 134L604 193L65 193L65 134Z" stroke="rgb(0,0,0)" stroke-opacity="1" stroke-width="8" fill="rgb(0,0,0)" fill-opacity="1"></path></g></g><g><g><g><g><g transform="matrix(1,0,0,1,66.21501159667969,18.040000915527344)"><path transform="matrix(0.017,0,0,-0.017,0,0)" d="M105 664L160 662C184 661 195 653 195 635L112 125C95 34 94 31 54 28L13 25L9 -3L51 -2C92 -1 123 0 141 0C158 0 187 -1 227 -2L280 -3L283 25L218 28C192 29 182 37 182 58C182 67 183 74 186 93L284 648C320 654 336 656 355 656C457 656 506 612 506 519C506 411 434 323 346 323C324 323 304 328 267 342L269 311C306 293 326 288 355 288C484 288 594 405 594 541C594 642 531 695 412 692L108 692Z" stroke="rgb(0,0,0)" stroke-opacity="1" stroke-width="8" fill="rgb(0,0,0)" fill-opacity="1"></path></g></g><g><g><g><g><g transform="matrix(1,0,0,1,77.10501098632812,21.999998474121092)"><path transform="matrix(0.0119,0,0,-0.0119,0,0)" d="M16 23L16 -3C203 -3 203 0 239 0C275 0 275 -3 468 -3L468 82C353 77 307 81 122 77L304 270C401 373 431 428 431 503C431 618 353 689 226 689C154 689 105 669 56 619L39 483L68 483L81 529C97 587 133 612 200 612C286 612 341 558 341 473C341 398 299 324 186 204Z" stroke="rgb(0,0,0)" stroke-opacity="1" stroke-width="8" fill="rgb(0,0,0)" fill-opacity="1"></path></g></g></g></g></g><g><g transform="matrix(1,0,0,1,84.06501770019531,18.040000915527344)"><path transform="matrix(0.017,0,0,-0.017,0,0)" d="M310 96L239 624C237 646 241 661 281 662L323 664L323 692L282 691C245 690 217 689 199 689C181 689 153 690 116 691L75 692L75 664L100 662C144 659 152 651 159 614L247 -8L296 -8L674 611C699 651 707 658 736 662L754 664L754 692L724 691C697 690 674 689 658 689C648 689 621 690 580 691L534 692L534 664L560 662C598 659 617 649 617 630C617 619 613 608 601 588Z" stroke="rgb(0,0,0)" stroke-opacity="1" stroke-width="8" fill="rgb(0,0,0)" fill-opacity="1"></path></g></g><g><g><g><g><g transform="matrix(1,0,0,1,96.83001708984375,21.999998474121092)"><path transform="matrix(0.0119,0,0,-0.0119,0,0)" d="M16 23L16 -3C203 -3 203 0 239 0C275 0 275 -3 468 -3L468 82C353 77 307 81 122 77L304 270C401 373 431 428 431 503C431 618 353 689 226 689C154 689 105 669 56 619L39 483L68 483L81 529C97 587 133 612 200 612C286 612 341 558 341 473C341 398 299 324 186 204Z" stroke="rgb(0,0,0)" stroke-opacity="1" stroke-width="8" fill="rgb(0,0,0)" fill-opacity="1"></path></g></g></g></g></g></g></g><g><g><g><g transform="matrix(1,0,0,1,76.07000732421875,44.7550048828125)"><path transform="matrix(0.017,0,0,-0.017,0,0)" d="M390 646L463 646C541 646 577 641 580 629C583 621 585 602 584 592L580 528L608 528L635 692L544 691C456 690 388 689 353 689C316 689 252 690 166 691L71 692L53 528L82 528L97 588C102 610 109 626 115 633C121 640 159 646 196 646L308 646L222 125C206 34 204 31 164 28L113 25L109 -3L166 -2C206 -1 235 0 251 0C270 0 301 -1 340 -2L384 -3L387 25L328 28C302 29 292 37 292 58C292 67 293 74 296 93Z" stroke="rgb(0,0,0)" stroke-opacity="1" stroke-width="8" fill="rgb(0,0,0)" fill-opacity="1"></path></g></g><g><g><g><g><g transform="matrix(1,0,0,1,86.96002197265625,48.71500244140625)"><path transform="matrix(0.0119,0,0,-0.0119,0,0)" d="M16 23L16 -3C203 -3 203 0 239 0C275 0 275 -3 468 -3L468 82C353 77 307 81 122 77L304 270C401 373 431 428 431 503C431 618 353 689 226 689C154 689 105 669 56 619L39 483L68 483L81 529C97 587 133 612 200 612C286 612 341 558 341 473C341 398 299 324 186 204Z" stroke="rgb(0,0,0)" stroke-opacity="1" stroke-width="8" fill="rgb(0,0,0)" fill-opacity="1"></path></g></g></g></g></g></g></g><line style="fill:none;stroke-width:0.99px;stroke:rgb(0, 0, 0);" x1="66.21501159667969" y1="27.620004892349243" x2="103.79001235961914" y2="27.620004892349243"></line></g></g></g></svg>