<svg xmlns="http://www.w3.org/2000/svg" xmlns:xlink="http://www.w3.org/1999/xlink" width="68.03500366210938" height="72.41500091552734" style="width:68.03500366210938px;height:72.41500091552734px;font-family:Asana-Math, Asana;background:#FFF;"><g><g><g><g><g><g><g transform="matrix(1,0,0,1,3.69500732421875,18.040000915527344)"><path transform="matrix(0.017,0,0,-0.017,0,0)" d="M105 664L160 662C184 661 195 653 195 635L112 125C95 34 94 31 54 28L13 25L9 -3L51 -2C92 -1 123 0 141 0C158 0 187 -1 227 -2L280 -3L283 25L218 28C192 29 182 37 182 58C182 67 183 74 186 93L284 648C320 654 336 656 355 656C457 656 506 612 506 519C506 411 434 323 346 323C324 323 304 328 267 342L269 311C306 293 326 288 355 288C484 288 594 405 594 541C594 642 531 695 412 692L108 692Z" stroke="rgb(0,0,0)" stroke-opacity="1" stroke-width="8" fill="rgb(0,0,0)" fill-opacity="1"></path></g></g><g><g><g><g><g transform="matrix(1,0,0,1,14.585006713867188,21.999998474121092)"><path transform="matrix(0.0119,0,0,-0.0119,0,0)" d="M418 -3L418 27L366 30C311 33 301 44 301 96L301 700L60 598L67 548L217 614L217 96C217 44 206 33 152 30L96 27L96 -3C250 0 250 0 261 0C292 0 402 -3 418 -3Z" stroke="rgb(0,0,0)" stroke-opacity="1" stroke-width="8" fill="rgb(0,0,0)" fill-opacity="1"></path></g></g></g></g></g></g></g><g><g><g><g transform="matrix(1,0,0,1,3.69500732421875,44.7550048828125)"><path transform="matrix(0.017,0,0,-0.017,0,0)" d="M390 646L463 646C541 646 577 641 580 629C583 621 585 602 584 592L580 528L608 528L635 692L544 691C456 690 388 689 353 689C316 689 252 690 166 691L71 692L53 528L82 528L97 588C102 610 109 626 115 633C121 640 159 646 196 646L308 646L222 125C206 34 204 31 164 28L113 25L109 -3L166 -2C206 -1 235 0 251 0C270 0 301 -1 340 -2L384 -3L387 25L328 28C302 29 292 37 292 58C292 67 293 74 296 93Z" stroke="rgb(0,0,0)" stroke-opacity="1" stroke-width="8" fill="rgb(0,0,0)" fill-opacity="1"></path></g></g><g><g><g><g><g transform="matrix(1,0,0,1,14.585006713867188,48.71500244140625)"><path transform="matrix(0.0119,0,0,-0.0119,0,0)" d="M418 -3L418 27L366 30C311 33 301 44 301 96L301 700L60 598L67 548L217 614L217 96C217 44 206 33 152 30L96 27L96 -3C250 0 250 0 261 0C292 0 402 -3 418 -3Z" stroke="rgb(0,0,0)" stroke-opacity="1" stroke-width="8" fill="rgb(0,0,0)" fill-opacity="1"></path></g></g></g></g></g></g></g><line style="fill:none;stroke-width:0.99px;stroke:rgb(0, 0, 0);" x1="3.69500732421875" y1="27.620004892349243" x2="21.545007705688477" y2="27.620004892349243"></line></g><g><g transform="matrix(1,0,0,1,28.339996337890625,31.584999084472656)"><path transform="matrix(0.017,0,0,-0.017,0,0)" d="M604 347L604 406L65 406L65 347ZM604 134L604 193L65 193L65 134Z" stroke="rgb(0,0,0)" stroke-opacity="1" stroke-width="8" fill="rgb(0,0,0)" fill-opacity="1"></path></g></g><g><g><g><g><g transform="matrix(1,0,0,1,46.49000549316406,18.040000915527344)"><path transform="matrix(0.017,0,0,-0.017,0,0)" d="M105 664L160 662C184 661 195 653 195 635L112 125C95 34 94 31 54 28L13 25L9 -3L51 -2C92 -1 123 0 141 0C158 0 187 -1 227 -2L280 -3L283 25L218 28C192 29 182 37 182 58C182 67 183 74 186 93L284 648C320 654 336 656 355 656C457 656 506 612 506 519C506 411 434 323 346 323C324 323 304 328 267 342L269 311C306 293 326 288 355 288C484 288 594 405 594 541C594 642 531 695 412 692L108 692Z" stroke="rgb(0,0,0)" stroke-opacity="1" stroke-width="8" fill="rgb(0,0,0)" fill-opacity="1"></path></g></g><g><g><g><g><g transform="matrix(1,0,0,1,57.3800048828125,21.999998474121092)"><path transform="matrix(0.0119,0,0,-0.0119,0,0)" d="M16 23L16 -3C203 -3 203 0 239 0C275 0 275 -3 468 -3L468 82C353 77 307 81 122 77L304 270C401 373 431 428 431 503C431 618 353 689 226 689C154 689 105 669 56 619L39 483L68 483L81 529C97 587 133 612 200 612C286 612 341 558 341 473C341 398 299 324 186 204Z" stroke="rgb(0,0,0)" stroke-opacity="1" stroke-width="8" fill="rgb(0,0,0)" fill-opacity="1"></path></g></g></g></g></g></g></g><g><g><g><g transform="matrix(1,0,0,1,46.49000549316406,44.7550048828125)"><path transform="matrix(0.017,0,0,-0.017,0,0)" d="M390 646L463 646C541 646 577 641 580 629C583 621 585 602 584 592L580 528L608 528L635 692L544 691C456 690 388 689 353 689C316 689 252 690 166 691L71 692L53 528L82 528L97 588C102 610 109 626 115 633C121 640 159 646 196 646L308 646L222 125C206 34 204 31 164 28L113 25L109 -3L166 -2C206 -1 235 0 251 0C270 0 301 -1 340 -2L384 -3L387 25L328 28C302 29 292 37 292 58C292 67 293 74 296 93Z" stroke="rgb(0,0,0)" stroke-opacity="1" stroke-width="8" fill="rgb(0,0,0)" fill-opacity="1"></path></g></g><g><g><g><g><g transform="matrix(1,0,0,1,57.3800048828125,48.71500244140625)"><path transform="matrix(0.0119,0,0,-0.0119,0,0)" d="M16 23L16 -3C203 -3 203 0 239 0C275 0 275 -3 468 -3L468 82C353 77 307 81 122 77L304 270C401 373 431 428 431 503C431 618 353 689 226 689C154 689 105 669 56 619L39 483L68 483L81 529C97 587 133 612 200 612C286 612 341 558 341 473C341 398 299 324 186 204Z" stroke="rgb(0,0,0)" stroke-opacity="1" stroke-width="8" fill="rgb(0,0,0)" fill-opacity="1"></path></g></g></g></g></g></g></g><line style="fill:none;stroke-width:0.99px;stroke:rgb(0, 0, 0);" x1="46.49000549316406" y1="27.620004892349243" x2="64.34000587463379" y2="27.620004892349243"></line></g></g><g><g><g transform="matrix(1,0,0,1,2,66.29500579833984)"><path transform="matrix(0.017,0,0,-0.017,0,0)" d="M342 330L365 330C373 395 380 432 389 458C365 473 330 482 293 482C248 483 175 463 118 400C64 352 25 241 25 136C25 40 67 -11 147 -11C201 -11 249 9 304 54L354 95L346 115L331 105C259 57 221 40 186 40C130 40 101 80 101 159C101 267 136 371 185 409C206 425 230 433 261 433C306 433 342 414 342 390ZM423 152C423 46 468 -11 551 -11C606 -11 666 15 711 57C773 116 817 230 817 331C817 425 767 482 684 482C580 482 423 382 423 152ZM647 444C708 444 741 399 741 315C741 219 710 113 666 60C648 39 622 27 591 27C533 27 499 72 499 151C499 264 538 387 587 427C600 438 623 444 647 444ZM873 388L880 368L912 389C949 412 952 414 959 414C970 414 977 404 977 389C977 338 936 145 895 2L902 -9C927 -2 950 4 972 8C991 134 1012 199 1058 268C1112 352 1187 414 1232 414C1243 414 1249 405 1249 390C1249 372 1246 351 1238 319L1186 107C1177 70 1173 47 1173 31C1173 6 1184 -9 1203 -9C1229 -9 1265 12 1363 85L1353 103L1327 86C1298 67 1276 56 1266 56C1259 56 1253 65 1253 76C1253 81 1254 92 1255 96L1321 372C1328 401 1332 429 1332 446C1332 469 1321 482 1301 482C1259 482 1190 444 1131 389C1093 354 1065 320 1013 247L1051 408C1055 426 1057 438 1057 449C1057 470 1049 482 1034 482C1013 482 974 460 901 408ZM1963 96L1892 624C1890 646 1894 661 1934 662L1976 664L1976 692L1935 691C1898 690 1870 689 1852 689C1834 689 1806 690 1769 691L1728 692L1728 664L1753 662C1797 659 1805 651 1812 614L1900 -8L1949 -8L2327 611C2352 651 2360 658 2389 662L2407 664L2407 692L2377 691C2350 690 2327 689 2311 689C2301 689 2274 690 2233 691L2187 692L2187 664L2213 662C2251 659 2270 649 2270 630C2270 619 2266 608 2254 588ZM2965 330L2988 330C2996 395 3003 432 3012 458C2988 473 2953 482 2916 482C2871 483 2798 463 2741 400C2687 352 2648 241 2648 136C2648 40 2690 -11 2770 -11C2824 -11 2872 9 2927 54L2977 95L2969 115L2954 105C2882 57 2844 40 2809 40C2753 40 2724 80 2724 159C2724 267 2759 371 2808 409C2829 425 2853 433 2884 433C2929 433 2965 414 2965 390ZM3154 390L3098 107C3097 99 3085 61 3085 31C3085 6 3096 -9 3115 -9C3150 -9 3185 11 3263 74L3294 99L3284 117L3239 86C3210 66 3190 56 3179 56C3170 56 3165 64 3165 76C3165 102 3179 183 3208 328L3221 390L3328 390L3339 440C3301 436 3267 434 3229 434C3245 528 3256 577 3274 631L3263 646C3243 634 3216 622 3185 610L3160 440C3116 419 3090 408 3072 403L3070 390ZM3689 111L3665 94C3612 56 3564 36 3528 36C3481 36 3452 73 3452 133C3452 158 3455 185 3460 214C3477 218 3586 248 3611 259C3696 296 3735 342 3735 404C3735 451 3701 482 3651 482C3583 496 3473 423 3436 349C3406 299 3376 180 3376 113C3376 35 3420 -11 3492 -11C3549 -11 3605 17 3697 92ZM3474 274C3491 343 3511 386 3540 412C3558 428 3589 440 3613 440C3642 440 3661 420 3661 388C3661 344 3626 297 3574 272C3546 258 3510 247 3465 237Z" stroke="rgb(0,0,0)" stroke-opacity="1" stroke-width="8" fill="rgb(0,0,0)" fill-opacity="1"></path></g></g></g></g></svg>