<svg xmlns="http://www.w3.org/2000/svg" xmlns:xlink="http://www.w3.org/1999/xlink" width="71.78500366210938" height="72.41500091552734" style="width:71.78500366210938px;height:72.41500091552734px;font-family:Asana-Math, Asana;background:#FFF;"><g><g><g><g><g><g><g transform="matrix(1,0,0,1,3.69500732421875,18.040000915527344)"><path transform="matrix(0.017,0,0,-0.017,0,0)" d="M310 96L239 624C237 646 241 661 281 662L323 664L323 692L282 691C245 690 217 689 199 689C181 689 153 690 116 691L75 692L75 664L100 662C144 659 152 651 159 614L247 -8L296 -8L674 611C699 651 707 658 736 662L754 664L754 692L724 691C697 690 674 689 658 689C648 689 621 690 580 691L534 692L534 664L560 662C598 659 617 649 617 630C617 619 613 608 601 588Z" stroke="rgb(0,0,0)" stroke-opacity="1" stroke-width="8" fill="rgb(0,0,0)" fill-opacity="1"></path></g></g><g><g><g><g><g transform="matrix(1,0,0,1,16.460006713867188,21.999998474121092)"><path transform="matrix(0.0119,0,0,-0.0119,0,0)" d="M418 -3L418 27L366 30C311 33 301 44 301 96L301 700L60 598L67 548L217 614L217 96C217 44 206 33 152 30L96 27L96 -3C250 0 250 0 261 0C292 0 402 -3 418 -3Z" stroke="rgb(0,0,0)" stroke-opacity="1" stroke-width="8" fill="rgb(0,0,0)" fill-opacity="1"></path></g></g></g></g></g></g></g><g><g><g><g transform="matrix(1,0,0,1,4.625,44.7550048828125)"><path transform="matrix(0.017,0,0,-0.017,0,0)" d="M390 646L463 646C541 646 577 641 580 629C583 621 585 602 584 592L580 528L608 528L635 692L544 691C456 690 388 689 353 689C316 689 252 690 166 691L71 692L53 528L82 528L97 588C102 610 109 626 115 633C121 640 159 646 196 646L308 646L222 125C206 34 204 31 164 28L113 25L109 -3L166 -2C206 -1 235 0 251 0C270 0 301 -1 340 -2L384 -3L387 25L328 28C302 29 292 37 292 58C292 67 293 74 296 93Z" stroke="rgb(0,0,0)" stroke-opacity="1" stroke-width="8" fill="rgb(0,0,0)" fill-opacity="1"></path></g></g><g><g><g><g><g transform="matrix(1,0,0,1,15.514999389648438,48.71500244140625)"><path transform="matrix(0.0119,0,0,-0.0119,0,0)" d="M418 -3L418 27L366 30C311 33 301 44 301 96L301 700L60 598L67 548L217 614L217 96C217 44 206 33 152 30L96 27L96 -3C250 0 250 0 261 0C292 0 402 -3 418 -3Z" stroke="rgb(0,0,0)" stroke-opacity="1" stroke-width="8" fill="rgb(0,0,0)" fill-opacity="1"></path></g></g></g></g></g></g></g><line style="fill:none;stroke-width:0.99px;stroke:rgb(0, 0, 0);" x1="3.69500732421875" y1="27.620004892349243" x2="23.420007705688477" y2="27.620004892349243"></line></g><g><g transform="matrix(1,0,0,1,30.214996337890625,31.584999084472656)"><path transform="matrix(0.017,0,0,-0.017,0,0)" d="M604 347L604 406L65 406L65 347ZM604 134L604 193L65 193L65 134Z" stroke="rgb(0,0,0)" stroke-opacity="1" stroke-width="8" fill="rgb(0,0,0)" fill-opacity="1"></path></g></g><g><g><g><g><g transform="matrix(1,0,0,1,48.36500549316406,18.040000915527344)"><path transform="matrix(0.017,0,0,-0.017,0,0)" d="M310 96L239 624C237 646 241 661 281 662L323 664L323 692L282 691C245 690 217 689 199 689C181 689 153 690 116 691L75 692L75 664L100 662C144 659 152 651 159 614L247 -8L296 -8L674 611C699 651 707 658 736 662L754 664L754 692L724 691C697 690 674 689 658 689C648 689 621 690 580 691L534 692L534 664L560 662C598 659 617 649 617 630C617 619 613 608 601 588Z" stroke="rgb(0,0,0)" stroke-opacity="1" stroke-width="8" fill="rgb(0,0,0)" fill-opacity="1"></path></g></g><g><g><g><g><g transform="matrix(1,0,0,1,61.1300048828125,21.999998474121092)"><path transform="matrix(0.0119,0,0,-0.0119,0,0)" d="M16 23L16 -3C203 -3 203 0 239 0C275 0 275 -3 468 -3L468 82C353 77 307 81 122 77L304 270C401 373 431 428 431 503C431 618 353 689 226 689C154 689 105 669 56 619L39 483L68 483L81 529C97 587 133 612 200 612C286 612 341 558 341 473C341 398 299 324 186 204Z" stroke="rgb(0,0,0)" stroke-opacity="1" stroke-width="8" fill="rgb(0,0,0)" fill-opacity="1"></path></g></g></g></g></g></g></g><g><g><g><g transform="matrix(1,0,0,1,49.29499816894531,44.7550048828125)"><path transform="matrix(0.017,0,0,-0.017,0,0)" d="M390 646L463 646C541 646 577 641 580 629C583 621 585 602 584 592L580 528L608 528L635 692L544 691C456 690 388 689 353 689C316 689 252 690 166 691L71 692L53 528L82 528L97 588C102 610 109 626 115 633C121 640 159 646 196 646L308 646L222 125C206 34 204 31 164 28L113 25L109 -3L166 -2C206 -1 235 0 251 0C270 0 301 -1 340 -2L384 -3L387 25L328 28C302 29 292 37 292 58C292 67 293 74 296 93Z" stroke="rgb(0,0,0)" stroke-opacity="1" stroke-width="8" fill="rgb(0,0,0)" fill-opacity="1"></path></g></g><g><g><g><g><g transform="matrix(1,0,0,1,60.18499755859375,48.71500244140625)"><path transform="matrix(0.0119,0,0,-0.0119,0,0)" d="M16 23L16 -3C203 -3 203 0 239 0C275 0 275 -3 468 -3L468 82C353 77 307 81 122 77L304 270C401 373 431 428 431 503C431 618 353 689 226 689C154 689 105 669 56 619L39 483L68 483L81 529C97 587 133 612 200 612C286 612 341 558 341 473C341 398 299 324 186 204Z" stroke="rgb(0,0,0)" stroke-opacity="1" stroke-width="8" fill="rgb(0,0,0)" fill-opacity="1"></path></g></g></g></g></g></g></g><line style="fill:none;stroke-width:0.99px;stroke:rgb(0, 0, 0);" x1="48.36500549316406" y1="27.620004892349243" x2="68.09000587463379" y2="27.620004892349243"></line></g></g><g><g><g transform="matrix(1,0,0,1,2,66.29500579833984)"><path transform="matrix(0.017,0,0,-0.017,0,0)" d="M342 330L365 330C373 395 380 432 389 458C365 473 330 482 293 482C248 483 175 463 118 400C64 352 25 241 25 136C25 40 67 -11 147 -11C201 -11 249 9 304 54L354 95L346 115L331 105C259 57 221 40 186 40C130 40 101 80 101 159C101 267 136 371 185 409C206 425 230 433 261 433C306 433 342 414 342 390ZM423 152C423 46 468 -11 551 -11C606 -11 666 15 711 57C773 116 817 230 817 331C817 425 767 482 684 482C580 482 423 382 423 152ZM647 444C708 444 741 399 741 315C741 219 710 113 666 60C648 39 622 27 591 27C533 27 499 72 499 151C499 264 538 387 587 427C600 438 623 444 647 444ZM873 388L880 368L912 389C949 412 952 414 959 414C970 414 977 404 977 389C977 338 936 145 895 2L902 -9C927 -2 950 4 972 8C991 134 1012 199 1058 268C1112 352 1187 414 1232 414C1243 414 1249 405 1249 390C1249 372 1246 351 1238 319L1186 107C1177 70 1173 47 1173 31C1173 6 1184 -9 1203 -9C1229 -9 1265 12 1363 85L1353 103L1327 86C1298 67 1276 56 1266 56C1259 56 1253 65 1253 76C1253 81 1254 92 1255 96L1321 372C1328 401 1332 429 1332 446C1332 469 1321 482 1301 482C1259 482 1190 444 1131 389C1093 354 1065 320 1013 247L1051 408C1055 426 1057 438 1057 449C1057 470 1049 482 1034 482C1013 482 974 460 901 408ZM1758 664L1813 662C1837 661 1848 653 1848 635L1765 125C1748 34 1747 31 1707 28L1666 25L1662 -3L1704 -2C1745 -1 1776 0 1794 0C1811 0 1840 -1 1880 -2L1933 -3L1936 25L1871 28C1845 29 1835 37 1835 58C1835 67 1836 74 1839 93L1937 648C1973 654 1989 656 2008 656C2110 656 2159 612 2159 519C2159 411 2087 323 1999 323C1977 323 1957 328 1920 342L1922 311C1959 293 1979 288 2008 288C2137 288 2247 405 2247 541C2247 642 2184 695 2065 692L1761 692ZM2854 330L2877 330C2885 395 2892 432 2901 458C2877 473 2842 482 2805 482C2760 483 2687 463 2630 400C2576 352 2537 241 2537 136C2537 40 2579 -11 2659 -11C2713 -11 2761 9 2816 54L2866 95L2858 115L2843 105C2771 57 2733 40 2698 40C2642 40 2613 80 2613 159C2613 267 2648 371 2697 409C2718 425 2742 433 2773 433C2818 433 2854 414 2854 390ZM3043 390L2987 107C2986 99 2974 61 2974 31C2974 6 2985 -9 3004 -9C3039 -9 3074 11 3152 74L3183 99L3173 117L3128 86C3099 66 3079 56 3068 56C3059 56 3054 64 3054 76C3054 102 3068 183 3097 328L3110 390L3217 390L3228 440C3190 436 3156 434 3118 434C3134 528 3145 577 3163 631L3152 646C3132 634 3105 622 3074 610L3049 440C3005 419 2979 408 2961 403L2959 390ZM3578 111L3554 94C3501 56 3453 36 3417 36C3370 36 3341 73 3341 133C3341 158 3344 185 3349 214C3366 218 3475 248 3500 259C3585 296 3624 342 3624 404C3624 451 3590 482 3540 482C3472 496 3362 423 3325 349C3295 299 3265 180 3265 113C3265 35 3309 -11 3381 -11C3438 -11 3494 17 3586 92ZM3363 274C3380 343 3400 386 3429 412C3447 428 3478 440 3502 440C3531 440 3550 420 3550 388C3550 344 3515 297 3463 272C3435 258 3399 247 3354 237Z" stroke="rgb(0,0,0)" stroke-opacity="1" stroke-width="8" fill="rgb(0,0,0)" fill-opacity="1"></path></g></g></g></g></svg>