<svg xmlns="http://www.w3.org/2000/svg" xmlns:xlink="http://www.w3.org/1999/xlink" width="79.30000305175781" height="44.31999969482422" style="width:79.30000305175781px;height:44.31999969482422px;font-family:Asana-Math, Asana;background:#FFF;"><g><g><g><g transform="matrix(1,0,0,1,2,18.040000915527344)"><path transform="matrix(0.017,0,0,-0.017,0,0)" d="M105 664L160 662C184 661 195 653 195 635L112 125C95 34 94 31 54 28L13 25L9 -3L51 -2C92 -1 123 0 141 0C158 0 187 -1 227 -2L280 -3L283 25L218 28C192 29 182 37 182 58C182 67 183 74 186 93L284 648C320 654 336 656 355 656C457 656 506 612 506 519C506 411 434 323 346 323C324 323 304 328 267 342L269 311C306 293 326 288 355 288C484 288 594 405 594 541C594 642 531 695 412 692L108 692ZM920 96L849 624C847 646 851 661 891 662L933 664L933 692L892 691C855 690 827 689 809 689C791 689 763 690 726 691L685 692L685 664L710 662C754 659 762 651 769 614L857 -8L906 -8L1284 611C1309 651 1317 658 1346 662L1364 664L1364 692L1334 691C1307 690 1284 689 1268 689C1258 689 1231 690 1190 691L1144 692L1144 664L1170 662C1208 659 1227 649 1227 630C1227 619 1223 608 1211 588Z" stroke="rgb(0,0,0)" stroke-opacity="1" stroke-width="8" fill="rgb(0,0,0)" fill-opacity="1"></path></g></g><g><g transform="matrix(1,0,0,1,29.720001220703125,18.040000915527344)"><path transform="matrix(0.017,0,0,-0.017,0,0)" d="M604 347L604 406L65 406L65 347ZM604 134L604 193L65 193L65 134Z" stroke="rgb(0,0,0)" stroke-opacity="1" stroke-width="8" fill="rgb(0,0,0)" fill-opacity="1"></path></g></g><g><g transform="matrix(1,0,0,1,46.17500305175781,18.040000915527344)"><path transform="matrix(0.017,0,0,-0.017,0,0)" d="M24 388L31 368L63 389C100 412 103 414 110 414C121 414 128 404 128 389C128 338 87 145 46 2L53 -9C78 -2 101 4 123 8C142 134 163 199 209 268C263 352 338 414 383 414C394 414 400 405 400 390C400 372 397 351 389 319L337 107C328 70 324 47 324 31C324 6 335 -9 354 -9C380 -9 416 12 514 85L504 103L478 86C449 67 427 56 417 56C410 56 404 65 404 76C404 81 405 92 406 96L472 372C479 401 483 429 483 446C483 469 472 482 452 482C410 482 341 444 282 389C244 354 216 320 164 247L202 408C206 426 208 438 208 449C208 470 200 482 185 482C164 482 125 460 52 408ZM660 664L716 662C740 661 751 653 751 635C751 621 747 589 742 559L667 125C651 34 649 32 609 28L568 25L564 -3L606 -2C653 0 672 0 696 0L793 -3L819 -3L822 25L773 28C746 30 737 38 737 58C737 67 738 76 741 93L842 648C871 654 891 656 918 656C1005 656 1051 617 1051 543C1051 448 973 378 869 378L825 378L822 367C956 172 987 124 1062 -3C1062 -3 1147 0 1147 0C1148 0 1162 -1 1181 -3L1194 -3L1194 24C1154 29 1143 37 1114 79L930 354C985 364 1014 376 1050 402C1108 444 1139 499 1139 560C1139 646 1075 693 964 691L663 691ZM1611 646L1684 646C1762 646 1798 641 1801 629C1804 621 1806 602 1805 592L1801 528L1829 528L1856 692L1765 691C1677 690 1609 689 1574 689C1537 689 1473 690 1387 691L1292 692L1274 528L1303 528L1318 588C1323 610 1330 626 1336 633C1342 640 1380 646 1417 646L1529 646L1443 125C1427 34 1425 31 1385 28L1334 25L1330 -3L1387 -2C1427 -1 1456 0 1472 0C1491 0 1522 -1 1561 -2L1605 -3L1608 25L1549 28C1523 29 1513 37 1513 58C1513 67 1514 74 1517 93Z" stroke="rgb(0,0,0)" stroke-opacity="1" stroke-width="8" fill="rgb(0,0,0)" fill-opacity="1"></path></g></g></g><g><g><g transform="matrix(1,0,0,1,2,38.20000457763672)"><path transform="matrix(0.017,0,0,-0.017,0,0)" d="M105 664L161 662C185 661 196 653 196 635C196 621 192 589 187 559L112 125C96 34 94 32 54 28L13 25L9 -3L51 -2C98 0 117 0 141 0L238 -3L264 -3L267 25L218 28C191 30 182 38 182 58C182 67 183 76 186 93L287 648C316 654 336 656 363 656C450 656 496 617 496 543C496 448 418 378 314 378L270 378L267 367C401 172 432 124 507 -3C507 -3 592 0 592 0C593 0 607 -1 626 -3L639 -3L639 24C599 29 588 37 559 79L375 354C430 364 459 376 495 402C553 444 584 499 584 560C584 646 520 693 409 691L108 691Z" stroke="rgb(0,0,0)" stroke-opacity="1" stroke-width="8" fill="rgb(0,0,0)" fill-opacity="1"></path></g></g><g><g transform="matrix(1,0,0,1,18.425003051757812,38.20000457763672)"><path transform="matrix(0.017,0,0,-0.017,0,0)" d="M604 347L604 406L65 406L65 347ZM604 134L604 193L65 193L65 134Z" stroke="rgb(0,0,0)" stroke-opacity="1" stroke-width="8" fill="rgb(0,0,0)" fill-opacity="1"></path></g></g><g><g transform="matrix(1,0,0,1,34.8800048828125,38.20000457763672)"><path transform="matrix(0.017,0,0,-0.017,0,0)" d="M263 689C108 689 29 566 29 324C29 207 50 106 85 57C120 8 176 -20 238 -20C389 -20 465 110 465 366C465 585 400 689 263 689ZM245 654C342 654 381 556 381 316C381 103 343 15 251 15C154 15 113 116 113 360C113 571 150 654 245 654ZM623 111C593 111 566 83 566 53C566 23 593 -5 622 -5C654 -5 682 22 682 53C682 83 654 111 623 111ZM1011 689C856 689 777 566 777 324C777 207 798 106 833 57C868 8 924 -20 986 -20C1137 -20 1213 110 1213 366C1213 585 1148 689 1011 689ZM993 654C1090 654 1129 556 1129 316C1129 103 1091 15 999 15C902 15 861 116 861 360C861 571 898 654 993 654ZM1415 345C1374 326 1357 315 1335 294C1297 256 1277 211 1277 159C1277 56 1360 -20 1473 -20C1603 -20 1711 82 1711 206C1711 286 1674 329 1560 381C1651 443 1683 485 1683 545C1683 631 1612 689 1506 689C1387 689 1300 613 1300 508C1300 440 1327 402 1415 345ZM1531 295C1594 267 1632 218 1632 164C1632 80 1569 14 1488 14C1403 14 1348 74 1348 167C1348 240 1377 286 1451 331ZM1470 423C1407 454 1375 494 1375 544C1375 610 1423 655 1494 655C1567 655 1615 607 1615 534C1615 477 1590 438 1525 396ZM1762 23L1762 -3C1949 -3 1949 0 1985 0C2021 0 2021 -3 2214 -3L2214 82C2099 77 2053 81 1868 77L2050 270C2147 373 2177 428 2177 503C2177 618 2099 689 1972 689C1900 689 1851 669 1802 619L1785 483L1814 483L1827 529C1843 587 1879 612 1946 612C2032 612 2087 558 2087 473C2087 398 2045 324 1932 204Z" stroke="rgb(0,0,0)" stroke-opacity="1" stroke-width="8" fill="rgb(0,0,0)" fill-opacity="1"></path></g></g></g></g></svg>