<svg xmlns="http://www.w3.org/2000/svg" xmlns:xlink="http://www.w3.org/1999/xlink" width="50.650001525878906" height="42.505001068115234" style="width:50.650001525878906px;height:42.505001068115234px;font-family:Asana-Math, Asana;background:#FFF;"><g><g><g><g transform="matrix(1,0,0,1,2,26.215003967285156)"><path transform="matrix(0.017,0,0,-0.017,0,0)" d="M483 722L471 733C419 707 383 698 311 691L307 670L355 670C379 670 389 663 389 646C389 638 388 629 387 622L359 468C329 477 302 482 277 482C208 482 114 410 68 323C37 265 17 170 17 86C17 21 32 -11 61 -11C88 -11 125 6 159 33C213 77 246 116 313 217L290 126C279 82 274 50 274 24C274 3 283 -9 300 -9C317 -9 341 3 375 28L456 88L446 107L402 76C388 66 372 59 363 59C355 59 349 68 349 82C349 90 350 99 357 128ZM114 59C98 59 89 73 89 98C89 224 135 380 184 418C197 428 216 433 243 433C287 433 316 427 349 410L337 351C300 171 159 59 114 59Z" stroke="rgb(0,0,0)" stroke-opacity="1" stroke-width="8" fill="rgb(0,0,0)" fill-opacity="1"></path></g></g><g><g transform="matrix(1,0,0,1,15.590011596679688,26.215003967285156)"><path transform="matrix(0.017,0,0,-0.017,0,0)" d="M604 347L604 406L65 406L65 347ZM604 134L604 193L65 193L65 134Z" stroke="rgb(0,0,0)" stroke-opacity="1" stroke-width="8" fill="rgb(0,0,0)" fill-opacity="1"></path></g></g><g><g><g><g><g transform="matrix(1,0,0,1,33.74000549316406,14.050003051757812)"><path transform="matrix(0.017,0,0,-0.017,0,0)" d="M730 103L704 86C675 67 653 56 643 56C636 56 630 65 630 76C630 86 632 95 637 116L712 413C716 430 719 446 719 454C719 471 709 482 693 482C664 482 626 464 565 421C502 376 467 341 418 272L448 409C452 429 455 444 455 451C455 470 445 482 429 482C399 482 353 460 298 418C254 384 234 363 169 275L202 408C206 424 208 439 208 451C208 470 199 482 185 482C164 482 126 461 52 408L24 388L31 368C68 391 103 414 110 414C121 414 128 404 128 389C128 338 87 145 46 2L49 -9L117 6L139 108C163 219 190 278 245 338C287 384 332 414 360 414C367 414 371 406 371 393C371 358 349 244 308 69L292 2L297 -9L366 6L387 113C403 194 437 269 481 318C536 379 586 414 618 414C626 414 631 405 631 389C631 365 628 351 606 264C566 105 550 84 550 31C550 6 561 -9 580 -9C606 -9 642 12 740 85Z" stroke="rgb(0,0,0)" stroke-opacity="1" stroke-width="8" fill="rgb(0,0,0)" fill-opacity="1"></path></g></g></g></g><g><g><g><g transform="matrix(1,0,0,1,36.095001220703125,39.38500213623047)"><path transform="matrix(0.017,0,0,-0.017,0,0)" d="M166 420C187 420 203 421 229 424C118 304 76 221 76 121C76 44 122 -11 186 -11C324 -11 477 236 477 384C477 441 451 482 415 482C402 482 390 478 382 470L332 423L343 404C352 410 361 413 370 413C397 413 413 390 413 350C413 202 316 39 228 39C179 39 148 81 148 146C148 251 187 342 285 464L275 482C255 473 242 470 214 470C186 470 144 472 115 475L103 476C97 477 92 477 91 477C79 477 70 475 59 470C45 443 34 407 21 352L43 352L60 394C67 411 87 422 111 422C144 422 128 420 166 420Z" stroke="rgb(0,0,0)" stroke-opacity="1" stroke-width="8" fill="rgb(0,0,0)" fill-opacity="1"></path></g></g></g></g><line style="fill:none;stroke-width:0.99px;stroke:rgb(0, 0, 0);" x1="33.74000549316406" y1="22.250002145767212" x2="46.95500564575195" y2="22.250002145767212"></line></g></g></g></svg>