<svg xmlns="http://www.w3.org/2000/svg" xmlns:xlink="http://www.w3.org/1999/xlink" width="138.49000549316406" height="46.49500274658203" style="width:138.49000549316406px;height:46.49500274658203px;font-family:Asana-Math, Asana;background:#FFF;"><g><g><g><g transform="matrix(1,0,0,1,2,30.205001831054688)"><path transform="matrix(0.017,0,0,-0.017,0,0)" d="M203 689C108 689 39 619 39 522C39 433 104 368 193 368C286 368 355 439 355 535C355 623 290 689 203 689ZM200 666C251 666 283 615 283 533C283 447 248 391 194 391C141 391 111 440 111 526C111 612 145 666 200 666ZM650 321C555 321 486 251 486 154C486 65 551 0 640 0C733 0 802 71 802 167C802 255 737 321 650 321ZM647 298C698 298 730 247 730 165C730 79 695 23 641 23C588 23 558 72 558 158C558 244 592 298 647 298ZM250 -20L616 709L576 709L210 -20Z" stroke="rgb(0,0,0)" stroke-opacity="1" stroke-width="8" fill="rgb(0,0,0)" fill-opacity="1"></path></g></g><g><g><g><g><g transform="matrix(1,0,0,1,17.960006713867188,18.040000915527344)"><path transform="matrix(0.017,0,0,-0.017,0,0)" d="M730 103L704 86C675 67 653 56 643 56C636 56 630 65 630 76C630 86 632 95 637 116L712 413C716 430 719 446 719 454C719 471 709 482 693 482C664 482 626 464 565 421C502 376 467 341 418 272L448 409C452 429 455 444 455 451C455 470 445 482 429 482C399 482 353 460 298 418C254 384 234 363 169 275L202 408C206 424 208 439 208 451C208 470 199 482 185 482C164 482 126 461 52 408L24 388L31 368C68 391 103 414 110 414C121 414 128 404 128 389C128 338 87 145 46 2L49 -9L117 6L139 108C163 219 190 278 245 338C287 384 332 414 360 414C367 414 371 406 371 393C371 358 349 244 308 69L292 2L297 -9L366 6L387 113C403 194 437 269 481 318C536 379 586 414 618 414C626 414 631 405 631 389C631 365 628 351 606 264C566 105 550 84 550 31C550 6 561 -9 580 -9C606 -9 642 12 740 85Z" stroke="rgb(0,0,0)" stroke-opacity="1" stroke-width="8" fill="rgb(0,0,0)" fill-opacity="1"></path></g></g></g></g><g><g><g><g transform="matrix(1,0,0,1,17.960006713867188,43.375)"><path transform="matrix(0.017,0,0,-0.017,0,0)" d="M730 103L704 86C675 67 653 56 643 56C636 56 630 65 630 76C630 86 632 95 637 116L712 413C716 430 719 446 719 454C719 471 709 482 693 482C664 482 626 464 565 421C502 376 467 341 418 272L448 409C452 429 455 444 455 451C455 470 445 482 429 482C399 482 353 460 298 418C254 384 234 363 169 275L202 408C206 424 208 439 208 451C208 470 199 482 185 482C164 482 126 461 52 408L24 388L31 368C68 391 103 414 110 414C121 414 128 404 128 389C128 338 87 145 46 2L49 -9L117 6L139 108C163 219 190 278 245 338C287 384 332 414 360 414C367 414 371 406 371 393C371 358 349 244 308 69L292 2L297 -9L366 6L387 113C403 194 437 269 481 318C536 379 586 414 618 414C626 414 631 405 631 389C631 365 628 351 606 264C566 105 550 84 550 31C550 6 561 -9 580 -9C606 -9 642 12 740 85Z" stroke="rgb(0,0,0)" stroke-opacity="1" stroke-width="8" fill="rgb(0,0,0)" fill-opacity="1"></path></g></g></g></g><line style="fill:none;stroke-width:0.99px;stroke:rgb(0, 0, 0);" x1="17.960006713867188" y1="26.240000009536743" x2="31.175006866455078" y2="26.240000009536743"></line></g><g><g transform="matrix(1,0,0,1,37.970001220703125,30.205001831054688)"><path transform="matrix(0.017,0,0,-0.017,0,0)" d="M604 347L604 406L65 406L65 347ZM604 134L604 193L65 193L65 134Z" stroke="rgb(0,0,0)" stroke-opacity="1" stroke-width="8" fill="rgb(0,0,0)" fill-opacity="1"></path></g></g><g><g><g><g><g transform="matrix(1,0,0,1,56.600006103515625,18.040000915527344)"><path transform="matrix(0.017,0,0,-0.017,0,0)" d="M730 103L704 86C675 67 653 56 643 56C636 56 630 65 630 76C630 86 632 95 637 116L712 413C716 430 719 446 719 454C719 471 709 482 693 482C664 482 626 464 565 421C502 376 467 341 418 272L448 409C452 429 455 444 455 451C455 470 445 482 429 482C399 482 353 460 298 418C254 384 234 363 169 275L202 408C206 424 208 439 208 451C208 470 199 482 185 482C164 482 126 461 52 408L24 388L31 368C68 391 103 414 110 414C121 414 128 404 128 389C128 338 87 145 46 2L49 -9L117 6L139 108C163 219 190 278 245 338C287 384 332 414 360 414C367 414 371 406 371 393C371 358 349 244 308 69L292 2L297 -9L366 6L387 113C403 194 437 269 481 318C536 379 586 414 618 414C626 414 631 405 631 389C631 365 628 351 606 264C566 105 550 84 550 31C550 6 561 -9 580 -9C606 -9 642 12 740 85ZM1057 148C1052 97 1046 62 1035 16C1073 -2 1107 -11 1142 -11C1191 -11 1237 7 1288 47C1339 87 1360 124 1360 174C1360 228 1328 257 1254 271L1211 279C1151 290 1132 307 1132 348C1132 401 1177 442 1234 442C1275 442 1313 424 1329 397L1329 342L1352 342C1356 377 1360 404 1371 455C1332 474 1304 482 1271 482C1219 482 1158 452 1110 404C1084 377 1073 352 1073 316C1073 260 1104 228 1170 215L1233 203C1277 195 1293 177 1293 138C1293 73 1247 29 1176 29C1141 29 1110 40 1082 64L1082 148ZM1539 390L1483 107C1482 99 1470 61 1470 31C1470 6 1481 -9 1500 -9C1535 -9 1570 11 1648 74L1679 99L1669 117L1624 86C1595 66 1575 56 1564 56C1555 56 1550 64 1550 76C1550 102 1564 183 1593 328L1606 390L1713 390L1724 440C1686 436 1652 434 1614 434C1630 528 1641 577 1659 631L1648 646C1628 634 1601 622 1570 610L1545 440C1501 419 1475 408 1457 403L1455 390ZM1763 152C1763 46 1808 -11 1891 -11C1946 -11 2006 15 2051 57C2113 116 2157 230 2157 331C2157 425 2107 482 2024 482C1920 482 1763 382 1763 152ZM1987 444C2048 444 2081 399 2081 315C2081 219 2050 113 2006 60C1988 39 1962 27 1931 27C1873 27 1839 72 1839 151C1839 264 1878 387 1927 427C1940 438 1963 444 1987 444Z" stroke="rgb(0,0,0)" stroke-opacity="1" stroke-width="8" fill="rgb(0,0,0)" fill-opacity="1"></path></g></g></g></g><g><g><g><g transform="matrix(1,0,0,1,56.12001037597656,43.375)"><path transform="matrix(0.017,0,0,-0.017,0,0)" d="M730 103L704 86C675 67 653 56 643 56C636 56 630 65 630 76C630 86 632 95 637 116L712 413C716 430 719 446 719 454C719 471 709 482 693 482C664 482 626 464 565 421C502 376 467 341 418 272L448 409C452 429 455 444 455 451C455 470 445 482 429 482C399 482 353 460 298 418C254 384 234 363 169 275L202 408C206 424 208 439 208 451C208 470 199 482 185 482C164 482 126 461 52 408L24 388L31 368C68 391 103 414 110 414C121 414 128 404 128 389C128 338 87 145 46 2L49 -9L117 6L139 108C163 219 190 278 245 338C287 384 332 414 360 414C367 414 371 406 371 393C371 358 349 244 308 69L292 2L297 -9L366 6L387 113C403 194 437 269 481 318C536 379 586 414 618 414C626 414 631 405 631 389C631 365 628 351 606 264C566 105 550 84 550 31C550 6 561 -9 580 -9C606 -9 642 12 740 85ZM1057 148C1052 97 1046 62 1035 16C1073 -2 1107 -11 1142 -11C1191 -11 1237 7 1288 47C1339 87 1360 124 1360 174C1360 228 1328 257 1254 271L1211 279C1151 290 1132 307 1132 348C1132 401 1177 442 1234 442C1275 442 1313 424 1329 397L1329 342L1352 342C1356 377 1360 404 1371 455C1332 474 1304 482 1271 482C1219 482 1158 452 1110 404C1084 377 1073 352 1073 316C1073 260 1104 228 1170 215L1233 203C1277 195 1293 177 1293 138C1293 73 1247 29 1176 29C1141 29 1110 40 1082 64L1082 148ZM1665 722L1653 733C1601 707 1565 698 1493 691L1489 670L1537 670C1561 670 1571 663 1571 648C1571 645 1571 640 1568 622C1557 567 1484 182 1469 132C1456 82 1450 52 1450 31C1450 6 1461 -9 1480 -9C1506 -9 1542 12 1640 85L1630 103L1604 86C1575 67 1553 56 1543 56C1536 56 1530 66 1530 76C1530 82 1531 89 1534 104ZM1715 388L1722 368L1754 389C1791 412 1794 414 1801 414C1812 414 1819 404 1819 389C1819 338 1778 145 1737 2L1744 -9C1769 -2 1792 4 1814 8C1833 134 1854 199 1900 268C1954 352 2029 414 2074 414C2085 414 2091 405 2091 390C2091 372 2088 351 2080 319L2028 107C2019 70 2015 47 2015 31C2015 6 2026 -9 2045 -9C2071 -9 2107 12 2205 85L2195 103L2169 86C2140 67 2118 56 2108 56C2101 56 2095 65 2095 76C2095 81 2096 92 2097 96L2163 372C2170 401 2174 429 2174 446C2174 469 2163 482 2143 482C2101 482 2032 444 1973 389C1935 354 1907 320 1855 247L1893 408C1897 426 1899 438 1899 449C1899 470 1891 482 1876 482C1855 482 1816 460 1743 408Z" stroke="rgb(0,0,0)" stroke-opacity="1" stroke-width="8" fill="rgb(0,0,0)" fill-opacity="1"></path></g></g></g></g><line style="fill:none;stroke-width:0.99px;stroke:rgb(0, 0, 0);" x1="56.12001037597656" y1="26.240000009536743" x2="94.29501342773438" y2="26.240000009536743"></line></g><g><g transform="matrix(1,0,0,1,95.99000549316406,30.205001831054688)"><path transform="matrix(0.017,0,0,-0.017,0,0)" d="M417 267L286 213L281 204L317 153L327 153L433 241L451 99L461 95L529 121L529 131L461 253L599 233L608 241L608 303L602 307L463 283L532 408L529 423L467 442L458 438L432 295L337 393L327 393L283 341L286 331ZM1304 -3L1304 27L1252 30C1197 33 1187 44 1187 96L1187 700L946 598L953 548L1103 614L1103 96C1103 44 1092 33 1038 30L982 27L982 -3C1136 0 1136 0 1147 0C1178 0 1288 -3 1304 -3ZM1648 689C1493 689 1414 566 1414 324C1414 207 1435 106 1470 57C1505 8 1561 -20 1623 -20C1774 -20 1850 110 1850 366C1850 585 1785 689 1648 689ZM1630 654C1727 654 1766 556 1766 316C1766 103 1728 15 1636 15C1539 15 1498 116 1498 360C1498 571 1535 654 1630 654ZM2147 689C1992 689 1913 566 1913 324C1913 207 1934 106 1969 57C2004 8 2060 -20 2122 -20C2273 -20 2349 110 2349 366C2349 585 2284 689 2147 689ZM2129 654C2226 654 2265 556 2265 316C2265 103 2227 15 2135 15C2038 15 1997 116 1997 360C1997 571 2034 654 2129 654Z" stroke="rgb(0,0,0)" stroke-opacity="1" stroke-width="8" fill="rgb(0,0,0)" fill-opacity="1"></path></g></g></g></g></svg>