<svg xmlns="http://www.w3.org/2000/svg" xmlns:xlink="http://www.w3.org/1999/xlink" width="104.78500366210938" height="49.49500274658203" style="width:104.78500366210938px;height:49.49500274658203px;font-family:Asana-Math, Asana;background:#FFF;"><g><g><g><g transform="matrix(1,0,0,1,2,30.205001831054688)"><path transform="matrix(0.017,0,0,-0.017,0,0)" d="M176 -11C232 -11 347 62 390 125C431 186 465 296 465 371C465 438 442 482 406 482C364 482 311 456 259 409C218 374 198 348 162 289L186 408C189 425 191 440 191 452C191 471 183 482 169 482C148 482 110 461 36 408L8 388L15 368L47 389C75 407 86 412 95 412C105 412 112 403 112 389C112 381 110 361 108 351L50 8C40 -52 21 -143 1 -233L-7 -270L0 -276C21 -269 41 -264 73 -259L115 3C136 -4 158 -11 176 -11ZM143 165C165 293 272 424 355 424C381 424 393 402 393 356C393 275 353 156 300 80C280 51 248 36 207 36C176 36 151 43 125 59ZM675 -11C731 -11 846 62 889 125C930 186 964 296 964 371C964 438 941 482 905 482C863 482 810 456 758 409C717 374 697 348 661 289L685 408C688 425 690 440 690 452C690 471 682 482 668 482C647 482 609 461 535 408L507 388L514 368L546 389C574 407 585 412 594 412C604 412 611 403 611 389C611 381 609 361 607 351L549 8C539 -52 520 -143 500 -233L492 -270L499 -276C520 -269 540 -264 572 -259L614 3C635 -4 657 -11 675 -11ZM642 165C664 293 771 424 854 424C880 424 892 402 892 356C892 275 852 156 799 80C779 51 747 36 706 36C675 36 650 43 624 59ZM1728 103L1702 86C1673 67 1651 56 1641 56C1634 56 1628 65 1628 76C1628 86 1630 95 1635 116L1710 413C1714 430 1717 446 1717 454C1717 471 1707 482 1691 482C1662 482 1624 464 1563 421C1500 376 1465 341 1416 272L1446 409C1450 429 1453 444 1453 451C1453 470 1443 482 1427 482C1397 482 1351 460 1296 418C1252 384 1232 363 1167 275L1200 408C1204 424 1206 439 1206 451C1206 470 1197 482 1183 482C1162 482 1124 461 1050 408L1022 388L1029 368C1066 391 1101 414 1108 414C1119 414 1126 404 1126 389C1126 338 1085 145 1044 2L1047 -9L1115 6L1137 108C1161 219 1188 278 1243 338C1285 384 1330 414 1358 414C1365 414 1369 406 1369 393C1369 358 1347 244 1306 69L1290 2L1295 -9L1364 6L1385 113C1401 194 1435 269 1479 318C1534 379 1584 414 1616 414C1624 414 1629 405 1629 389C1629 365 1626 351 1604 264C1564 105 1548 84 1548 31C1548 6 1559 -9 1578 -9C1604 -9 1640 12 1738 85Z" stroke="rgb(0,0,0)" stroke-opacity="1" stroke-width="8" fill="rgb(0,0,0)" fill-opacity="1"></path></g></g><g><g transform="matrix(1,0,0,1,37.26499938964844,30.205001831054688)"><path transform="matrix(0.017,0,0,-0.017,0,0)" d="M604 347L604 406L65 406L65 347ZM604 134L604 193L65 193L65 134Z" stroke="rgb(0,0,0)" stroke-opacity="1" stroke-width="8" fill="rgb(0,0,0)" fill-opacity="1"></path></g></g><g><g><g><g><g transform="matrix(1,0,0,1,55.415008544921875,18.040000915527344)"><path transform="matrix(0.017,0,0,-0.017,0,0)" d="M730 103L704 86C675 67 653 56 643 56C636 56 630 65 630 76C630 86 632 95 637 116L712 413C716 430 719 446 719 454C719 471 709 482 693 482C664 482 626 464 565 421C502 376 467 341 418 272L448 409C452 429 455 444 455 451C455 470 445 482 429 482C399 482 353 460 298 418C254 384 234 363 169 275L202 408C206 424 208 439 208 451C208 470 199 482 185 482C164 482 126 461 52 408L24 388L31 368C68 391 103 414 110 414C121 414 128 404 128 389C128 338 87 145 46 2L49 -9L117 6L139 108C163 219 190 278 245 338C287 384 332 414 360 414C367 414 371 406 371 393C371 358 349 244 308 69L292 2L297 -9L366 6L387 113C403 194 437 269 481 318C536 379 586 414 618 414C626 414 631 405 631 389C631 365 628 351 606 264C566 105 550 84 550 31C550 6 561 -9 580 -9C606 -9 642 12 740 85ZM1052 482C985 482 832 419 832 259C832 182 877 136 954 136C962 136 973 136 984 137L943 99C927 84 916 66 916 52C916 42 923 31 937 19C868 -4 740 -48 740 -159C740 -230 810 -276 919 -276C1048 -276 1161 -204 1161 -121C1161 -85 1140 -49 1097 -14L1037 35C1003 62 990 81 990 100C990 114 1005 128 1017 146C1115 170 1186 253 1186 342C1186 357 1183 376 1182 380C1199 378 1207 378 1216 378C1233 378 1243 379 1266 382L1275 427L1272 433C1244 426 1224 424 1170 424C1170 425 1146 482 1052 482ZM953 1L1030 -58C1076 -94 1095 -121 1095 -154C1095 -206 1026 -248 943 -248C861 -248 804 -206 804 -145C804 -43 914 -11 953 1ZM1027 448C1085 448 1114 412 1114 341C1114 238 1066 168 996 168C935 168 903 209 903 288C903 383 954 448 1027 448ZM1556 148C1551 97 1545 62 1534 16C1572 -2 1606 -11 1641 -11C1690 -11 1736 7 1787 47C1838 87 1859 124 1859 174C1859 228 1827 257 1753 271L1710 279C1650 290 1631 307 1631 348C1631 401 1676 442 1733 442C1774 442 1812 424 1828 397L1828 342L1851 342C1855 377 1859 404 1870 455C1831 474 1803 482 1770 482C1718 482 1657 452 1609 404C1583 377 1572 352 1572 316C1572 260 1603 228 1669 215L1732 203C1776 195 1792 177 1792 138C1792 73 1746 29 1675 29C1640 29 1609 40 1581 64L1581 148ZM2038 390L1982 107C1981 99 1969 61 1969 31C1969 6 1980 -9 1999 -9C2034 -9 2069 11 2147 74L2178 99L2168 117L2123 86C2094 66 2074 56 2063 56C2054 56 2049 64 2049 76C2049 102 2063 183 2092 328L2105 390L2212 390L2223 440C2185 436 2151 434 2113 434C2129 528 2140 577 2158 631L2147 646C2127 634 2100 622 2069 610L2044 440C2000 419 1974 408 1956 403L1954 390ZM2262 152C2262 46 2307 -11 2390 -11C2445 -11 2505 15 2550 57C2612 116 2656 230 2656 331C2656 425 2606 482 2523 482C2419 482 2262 382 2262 152ZM2486 444C2547 444 2580 399 2580 315C2580 219 2549 113 2505 60C2487 39 2461 27 2430 27C2372 27 2338 72 2338 151C2338 264 2377 387 2426 427C2439 438 2462 444 2486 444Z" stroke="rgb(0,0,0)" stroke-opacity="1" stroke-width="8" fill="rgb(0,0,0)" fill-opacity="1"></path></g></g></g></g><g><g><g><g transform="matrix(1,0,0,1,57.54499816894531,43.375)"><path transform="matrix(0.017,0,0,-0.017,0,0)" d="M240 722L228 733C176 707 140 698 68 691L64 670L112 670C136 670 146 663 146 646C146 638 145 629 144 622L96 354C82 279 66 210 14 1L23 -9L90 8L113 132C122 180 146 225 180 259C249 59 281 -9 306 -9C319 -9 343 4 387 35L433 67L425 86L382 62C368 54 361 52 353 52C343 52 336 58 327 75C292 139 270 193 231 316L245 330C306 391 352 416 402 416C410 416 421 414 438 410L455 473C437 479 419 482 407 482C341 482 258 405 133 230ZM743 482C676 482 523 419 523 259C523 182 568 136 645 136C653 136 664 136 675 137L634 99C618 84 607 66 607 52C607 42 614 31 628 19C559 -4 431 -48 431 -159C431 -230 501 -276 610 -276C739 -276 852 -204 852 -121C852 -85 831 -49 788 -14L728 35C694 62 681 81 681 100C681 114 696 128 708 146C806 170 877 253 877 342C877 357 874 376 873 380C890 378 898 378 907 378C924 378 934 379 957 382L966 427L963 433C935 426 915 424 861 424C861 425 837 482 743 482ZM644 1L721 -58C767 -94 786 -121 786 -154C786 -206 717 -248 634 -248C552 -248 495 -206 495 -145C495 -43 605 -11 644 1ZM718 448C776 448 805 412 805 341C805 238 757 168 687 168C626 168 594 209 594 288C594 383 645 448 718 448ZM1247 148C1242 97 1236 62 1225 16C1263 -2 1297 -11 1332 -11C1381 -11 1427 7 1478 47C1529 87 1550 124 1550 174C1550 228 1518 257 1444 271L1401 279C1341 290 1322 307 1322 348C1322 401 1367 442 1424 442C1465 442 1503 424 1519 397L1519 342L1542 342C1546 377 1550 404 1561 455C1522 474 1494 482 1461 482C1409 482 1348 452 1300 404C1274 377 1263 352 1263 316C1263 260 1294 228 1360 215L1423 203C1467 195 1483 177 1483 138C1483 73 1437 29 1366 29C1331 29 1300 40 1272 64L1272 148ZM1855 722L1843 733C1791 707 1755 698 1683 691L1679 670L1727 670C1751 670 1761 663 1761 648C1761 645 1761 640 1758 622C1747 567 1674 182 1659 132C1646 82 1640 52 1640 31C1640 6 1651 -9 1670 -9C1696 -9 1732 12 1830 85L1820 103L1794 86C1765 67 1743 56 1733 56C1726 56 1720 66 1720 76C1720 82 1721 89 1724 104ZM1905 388L1912 368L1944 389C1981 412 1984 414 1991 414C2002 414 2009 404 2009 389C2009 338 1968 145 1927 2L1934 -9C1959 -2 1982 4 2004 8C2023 134 2044 199 2090 268C2144 352 2219 414 2264 414C2275 414 2281 405 2281 390C2281 372 2278 351 2270 319L2218 107C2209 70 2205 47 2205 31C2205 6 2216 -9 2235 -9C2261 -9 2297 12 2395 85L2385 103L2359 86C2330 67 2308 56 2298 56C2291 56 2285 65 2285 76C2285 81 2286 92 2287 96L2353 372C2360 401 2364 429 2364 446C2364 469 2353 482 2333 482C2291 482 2222 444 2163 389C2125 354 2097 320 2045 247L2083 408C2087 426 2089 438 2089 449C2089 470 2081 482 2066 482C2045 482 2006 460 1933 408Z" stroke="rgb(0,0,0)" stroke-opacity="1" stroke-width="8" fill="rgb(0,0,0)" fill-opacity="1"></path></g></g></g></g><line style="fill:none;stroke-width:0.99px;stroke:rgb(0, 0, 0);" x1="55.415008544921875" y1="26.240000009536743" x2="101.09001159667969" y2="26.240000009536743"></line></g></g></g></svg>