<svg xmlns="http://www.w3.org/2000/svg" xmlns:xlink="http://www.w3.org/1999/xlink" width="129.04000854492188" height="46.49500274658203" style="width:129.04000854492188px;height:46.49500274658203px;font-family:Asana-Math, Asana;background:#FFF;"><g><g><g><g transform="matrix(1,0,0,1,2,30.205001831054688)"><path transform="matrix(0.017,0,0,-0.017,0,0)" d="M203 689C108 689 39 619 39 522C39 433 104 368 193 368C286 368 355 439 355 535C355 623 290 689 203 689ZM200 666C251 666 283 615 283 533C283 447 248 391 194 391C141 391 111 440 111 526C111 612 145 666 200 666ZM650 321C555 321 486 251 486 154C486 65 551 0 640 0C733 0 802 71 802 167C802 255 737 321 650 321ZM647 298C698 298 730 247 730 165C730 79 695 23 641 23C588 23 558 72 558 158C558 244 592 298 647 298ZM250 -20L616 709L576 709L210 -20Z" stroke="rgb(0,0,0)" stroke-opacity="1" stroke-width="8" fill="rgb(0,0,0)" fill-opacity="1"></path></g></g><g><g><g><g><g transform="matrix(1,0,0,1,17.959991455078125,18.040000915527344)"><path transform="matrix(0.017,0,0,-0.017,0,0)" d="M166 420C187 420 203 421 229 424C118 304 76 221 76 121C76 44 122 -11 186 -11C324 -11 477 236 477 384C477 441 451 482 415 482C402 482 390 478 382 470L332 423L343 404C352 410 361 413 370 413C397 413 413 390 413 350C413 202 316 39 228 39C179 39 148 81 148 146C148 251 187 342 285 464L275 482C255 473 242 470 214 470C186 470 144 472 115 475L103 476C97 477 92 477 91 477C79 477 70 475 59 470C45 443 34 407 21 352L43 352L60 394C67 411 87 422 111 422C144 422 128 420 166 420Z" stroke="rgb(0,0,0)" stroke-opacity="1" stroke-width="8" fill="rgb(0,0,0)" fill-opacity="1"></path></g></g></g></g><g><g><g><g transform="matrix(1,0,0,1,17.959991455078125,43.375)"><path transform="matrix(0.017,0,0,-0.017,0,0)" d="M166 420C187 420 203 421 229 424C118 304 76 221 76 121C76 44 122 -11 186 -11C324 -11 477 236 477 384C477 441 451 482 415 482C402 482 390 478 382 470L332 423L343 404C352 410 361 413 370 413C397 413 413 390 413 350C413 202 316 39 228 39C179 39 148 81 148 146C148 251 187 342 285 464L275 482C255 473 242 470 214 470C186 470 144 472 115 475L103 476C97 477 92 477 91 477C79 477 70 475 59 470C45 443 34 407 21 352L43 352L60 394C67 411 87 422 111 422C144 422 128 420 166 420Z" stroke="rgb(0,0,0)" stroke-opacity="1" stroke-width="8" fill="rgb(0,0,0)" fill-opacity="1"></path></g></g></g></g><line style="fill:none;stroke-width:0.99px;stroke:rgb(0, 0, 0);" x1="17.959991455078125" y1="26.240000009536743" x2="26.449992179870605" y2="26.240000009536743"></line></g><g><g transform="matrix(1,0,0,1,33.2449951171875,30.205001831054688)"><path transform="matrix(0.017,0,0,-0.017,0,0)" d="M604 347L604 406L65 406L65 347ZM604 134L604 193L65 193L65 134Z" stroke="rgb(0,0,0)" stroke-opacity="1" stroke-width="8" fill="rgb(0,0,0)" fill-opacity="1"></path></g></g><g><g><g><g><g transform="matrix(1,0,0,1,51.875,18.040000915527344)"><path transform="matrix(0.017,0,0,-0.017,0,0)" d="M166 420C187 420 203 421 229 424C118 304 76 221 76 121C76 44 122 -11 186 -11C324 -11 477 236 477 384C477 441 451 482 415 482C402 482 390 478 382 470L332 423L343 404C352 410 361 413 370 413C397 413 413 390 413 350C413 202 316 39 228 39C179 39 148 81 148 146C148 251 187 342 285 464L275 482C255 473 242 470 214 470C186 470 144 472 115 475L103 476C97 477 92 477 91 477C79 477 70 475 59 470C45 443 34 407 21 352L43 352L60 394C67 411 87 422 111 422C144 422 128 420 166 420ZM779 148C774 97 768 62 757 16C795 -2 829 -11 864 -11C913 -11 959 7 1010 47C1061 87 1082 124 1082 174C1082 228 1050 257 976 271L933 279C873 290 854 307 854 348C854 401 899 442 956 442C997 442 1035 424 1051 397L1051 342L1074 342C1078 377 1082 404 1093 455C1054 474 1026 482 993 482C941 482 880 452 832 404C806 377 795 352 795 316C795 260 826 228 892 215L955 203C999 195 1015 177 1015 138C1015 73 969 29 898 29C863 29 832 40 804 64L804 148ZM1261 390L1205 107C1204 99 1192 61 1192 31C1192 6 1203 -9 1222 -9C1257 -9 1292 11 1370 74L1401 99L1391 117L1346 86C1317 66 1297 56 1286 56C1277 56 1272 64 1272 76C1272 102 1286 183 1315 328L1328 390L1435 390L1446 440C1408 436 1374 434 1336 434C1352 528 1363 577 1381 631L1370 646C1350 634 1323 622 1292 610L1267 440C1223 419 1197 408 1179 403L1177 390ZM1485 152C1485 46 1530 -11 1613 -11C1668 -11 1728 15 1773 57C1835 116 1879 230 1879 331C1879 425 1829 482 1746 482C1642 482 1485 382 1485 152ZM1709 444C1770 444 1803 399 1803 315C1803 219 1772 113 1728 60C1710 39 1684 27 1653 27C1595 27 1561 72 1561 151C1561 264 1600 387 1649 427C1662 438 1685 444 1709 444Z" stroke="rgb(0,0,0)" stroke-opacity="1" stroke-width="8" fill="rgb(0,0,0)" fill-opacity="1"></path></g></g></g></g><g><g><g><g transform="matrix(1,0,0,1,51.39500427246094,43.375)"><path transform="matrix(0.017,0,0,-0.017,0,0)" d="M166 420C187 420 203 421 229 424C118 304 76 221 76 121C76 44 122 -11 186 -11C324 -11 477 236 477 384C477 441 451 482 415 482C402 482 390 478 382 470L332 423L343 404C352 410 361 413 370 413C397 413 413 390 413 350C413 202 316 39 228 39C179 39 148 81 148 146C148 251 187 342 285 464L275 482C255 473 242 470 214 470C186 470 144 472 115 475L103 476C97 477 92 477 91 477C79 477 70 475 59 470C45 443 34 407 21 352L43 352L60 394C67 411 87 422 111 422C144 422 128 420 166 420ZM779 148C774 97 768 62 757 16C795 -2 829 -11 864 -11C913 -11 959 7 1010 47C1061 87 1082 124 1082 174C1082 228 1050 257 976 271L933 279C873 290 854 307 854 348C854 401 899 442 956 442C997 442 1035 424 1051 397L1051 342L1074 342C1078 377 1082 404 1093 455C1054 474 1026 482 993 482C941 482 880 452 832 404C806 377 795 352 795 316C795 260 826 228 892 215L955 203C999 195 1015 177 1015 138C1015 73 969 29 898 29C863 29 832 40 804 64L804 148ZM1387 722L1375 733C1323 707 1287 698 1215 691L1211 670L1259 670C1283 670 1293 663 1293 648C1293 645 1293 640 1290 622C1279 567 1206 182 1191 132C1178 82 1172 52 1172 31C1172 6 1183 -9 1202 -9C1228 -9 1264 12 1362 85L1352 103L1326 86C1297 67 1275 56 1265 56C1258 56 1252 66 1252 76C1252 82 1253 89 1256 104ZM1437 388L1444 368L1476 389C1513 412 1516 414 1523 414C1534 414 1541 404 1541 389C1541 338 1500 145 1459 2L1466 -9C1491 -2 1514 4 1536 8C1555 134 1576 199 1622 268C1676 352 1751 414 1796 414C1807 414 1813 405 1813 390C1813 372 1810 351 1802 319L1750 107C1741 70 1737 47 1737 31C1737 6 1748 -9 1767 -9C1793 -9 1829 12 1927 85L1917 103L1891 86C1862 67 1840 56 1830 56C1823 56 1817 65 1817 76C1817 81 1818 92 1819 96L1885 372C1892 401 1896 429 1896 446C1896 469 1885 482 1865 482C1823 482 1754 444 1695 389C1657 354 1629 320 1577 247L1615 408C1619 426 1621 438 1621 449C1621 470 1613 482 1598 482C1577 482 1538 460 1465 408Z" stroke="rgb(0,0,0)" stroke-opacity="1" stroke-width="8" fill="rgb(0,0,0)" fill-opacity="1"></path></g></g></g></g><line style="fill:none;stroke-width:0.99px;stroke:rgb(0, 0, 0);" x1="51.39500427246094" y1="26.240000009536743" x2="84.84500503540039" y2="26.240000009536743"></line></g><g><g transform="matrix(1,0,0,1,86.53999328613281,30.205001831054688)"><path transform="matrix(0.017,0,0,-0.017,0,0)" d="M417 267L286 213L281 204L317 153L327 153L433 241L451 99L461 95L529 121L529 131L461 253L599 233L608 241L608 303L602 307L463 283L532 408L529 423L467 442L458 438L432 295L337 393L327 393L283 341L286 331ZM1304 -3L1304 27L1252 30C1197 33 1187 44 1187 96L1187 700L946 598L953 548L1103 614L1103 96C1103 44 1092 33 1038 30L982 27L982 -3C1136 0 1136 0 1147 0C1178 0 1288 -3 1304 -3ZM1648 689C1493 689 1414 566 1414 324C1414 207 1435 106 1470 57C1505 8 1561 -20 1623 -20C1774 -20 1850 110 1850 366C1850 585 1785 689 1648 689ZM1630 654C1727 654 1766 556 1766 316C1766 103 1728 15 1636 15C1539 15 1498 116 1498 360C1498 571 1535 654 1630 654ZM2147 689C1992 689 1913 566 1913 324C1913 207 1934 106 1969 57C2004 8 2060 -20 2122 -20C2273 -20 2349 110 2349 366C2349 585 2284 689 2147 689ZM2129 654C2226 654 2265 556 2265 316C2265 103 2227 15 2135 15C2038 15 1997 116 1997 360C1997 571 2034 654 2129 654Z" stroke="rgb(0,0,0)" stroke-opacity="1" stroke-width="8" fill="rgb(0,0,0)" fill-opacity="1"></path></g></g></g></g></svg>