<svg xmlns="http://www.w3.org/2000/svg" xmlns:xlink="http://www.w3.org/1999/xlink" width="206.23000081380206" height="106.97500610351562" style="width:206.23000081380206px;height:106.97500610351562px;font-family:Asana-Math, Asana;background:#FFF;"><g><g><g><g transform="matrix(1,0,0,1,2,30.204996744791664)"><path transform="matrix(0.017,0,0,-0.017,0,0)" d="" stroke="rgb(0,0,0)" stroke-opacity="1" stroke-width="8" fill="rgb(0,0,0)" fill-opacity="1"></path></g></g><g><g><g><g><g transform="matrix(1,0,0,1,70.18998209635419,31.164998372395836)"><path transform="matrix(0.017,0,0,-0.017,0,0)" d="M271 204L242 77C238 60 236 42 236 26C236 4 245 -9 260 -9C283 -9 324 17 406 85L399 106C375 86 346 59 324 59C315 59 309 68 309 82C309 87 309 90 310 93L402 472L392 481L359 463C318 478 301 482 274 482C246 482 226 477 199 464C137 433 104 403 79 354C35 265 4 145 4 67C4 23 19 -11 38 -11C75 -11 155 41 271 204ZM319 414C297 305 278 253 244 201C187 117 126 59 94 59C82 59 76 72 76 99C76 163 104 280 139 360C163 415 186 433 234 433C257 433 275 429 319 414Z" stroke="rgb(0,0,0)" stroke-opacity="1" stroke-width="8" fill="rgb(0,0,0)" fill-opacity="1"></path></g></g></g></g><svg x="69.71000162760419" overflow="visible" y="12.170003255208334" height="9.990000406901041" width="9.330000559488894"><path d=" M 9.33 4.85 l -3.15 -3.32 l -0.49 0.52 l 1.93 2.33 h -0.15 v 0.90 h 0.15 l -1.93 2.33 l 0.49 0.52 z  M 1.68 5.23 h 7.19 v -0.90 h -7.19 z" style="fill:rgb(0,0,0);fill-opacity:1;stroke-width:1px;stroke:none;stroke-opacity:1;"></path></svg></g><g><g transform="matrix(1,0,0,1,83.30000813802081,30.204996744791664)"><path transform="matrix(0.017,0,0,-0.017,0,0)" d="M604 347L604 406L65 406L65 347ZM604 134L604 193L65 193L65 134Z" stroke="rgb(0,0,0)" stroke-opacity="1" stroke-width="8" fill="rgb(0,0,0)" fill-opacity="1"></path></g></g><g><g><g><g><g transform="matrix(1,0,0,1,101.44999186197919,18.039998372395836)"><path transform="matrix(0.017,0,0,-0.017,0,0)" d="M27 6L34 -4C140 0 246 0 353 0C454 0 555 -1 656 -4L662 6L362 697L337 697C294 590 92 128 27 6ZM537 37L105 37C171 215 242 389 318 564L325 564C400 391 472 215 537 37ZM854 420C875 420 891 421 917 424C806 304 764 221 764 121C764 44 810 -11 874 -11C1012 -11 1165 236 1165 384C1165 441 1139 482 1103 482C1090 482 1078 478 1070 470L1020 423L1031 404C1040 410 1049 413 1058 413C1085 413 1101 390 1101 350C1101 202 1004 39 916 39C867 39 836 81 836 146C836 251 875 342 973 464L963 482C943 473 930 470 902 470C874 470 832 472 803 475L791 476C785 477 780 477 779 477C767 477 758 475 747 470C733 443 722 407 709 352L731 352L748 394C755 411 775 422 799 422C832 422 816 420 854 420Z" stroke="rgb(0,0,0)" stroke-opacity="1" stroke-width="8" fill="rgb(0,0,0)" fill-opacity="1"></path></g></g></g></g><g><g><g><g transform="matrix(1,0,0,1,102.8599853515625,43.375)"><path transform="matrix(0.017,0,0,-0.017,0,0)" d="M27 6L34 -4C140 0 246 0 353 0C454 0 555 -1 656 -4L662 6L362 697L337 697C294 590 92 128 27 6ZM537 37L105 37C171 215 242 389 318 564L325 564C400 391 472 215 537 37ZM813 390L757 107C756 99 744 61 744 31C744 6 755 -9 774 -9C809 -9 844 11 922 74L953 99L943 117L898 86C869 66 849 56 838 56C829 56 824 64 824 76C824 102 838 183 867 328L880 390L987 390L998 440C960 436 926 434 888 434C904 528 915 577 933 631L922 646C902 634 875 622 844 610L819 440C775 419 749 408 731 403L729 390Z" stroke="rgb(0,0,0)" stroke-opacity="1" stroke-width="8" fill="rgb(0,0,0)" fill-opacity="1"></path></g></g></g></g><line style="fill:none;stroke-width:0.99px;stroke:rgb(0, 0, 0);" x1="101.44999186197919" y1="26.240000009536743" x2="121.62499237060547" y2="26.240000009536743"></line></g></g><g></g><g><g><g transform="matrix(1,0,0,1,2,80.69499715169272)"><path transform="matrix(0.017,0,0,-0.017,0,0)" d="M27 6L34 -4C140 0 246 0 353 0C454 0 555 -1 656 -4L662 6L362 697L337 697C294 590 92 128 27 6ZM537 37L105 37C171 215 242 389 318 564L325 564C400 391 472 215 537 37ZM854 420C875 420 891 421 917 424C806 304 764 221 764 121C764 44 810 -11 874 -11C1012 -11 1165 236 1165 384C1165 441 1139 482 1103 482C1090 482 1078 478 1070 470L1020 423L1031 404C1040 410 1049 413 1058 413C1085 413 1101 390 1101 350C1101 202 1004 39 916 39C867 39 836 81 836 146C836 251 875 342 973 464L963 482C943 473 930 470 902 470C874 470 832 472 803 475L791 476C785 477 780 477 779 477C767 477 758 475 747 470C733 443 722 407 709 352L731 352L748 394C755 411 775 422 799 422C832 422 816 420 854 420Z" stroke="rgb(0,0,0)" stroke-opacity="1" stroke-width="8" fill="rgb(0,0,0)" fill-opacity="1"></path></g></g><g><g transform="matrix(1,0,0,1,25.564982096354186,80.69499715169272)"><path transform="matrix(0.017,0,0,-0.017,0,0)" d="M123 111C93 111 66 83 66 53C66 23 93 -5 122 -5C154 -5 182 22 182 53C182 83 154 111 123 111ZM123 456C93 456 66 428 66 398C66 368 93 340 122 340C154 340 182 367 182 397C182 428 154 456 123 456Z" stroke="rgb(0,0,0)" stroke-opacity="1" stroke-width="8" fill="rgb(0,0,0)" fill-opacity="1"></path></g></g><g><g transform="matrix(1,0,0,1,33.199991861979186,80.69499715169272)"><path transform="matrix(0.017,0,0,-0.017,0,0)" d="M415 420C436 420 452 421 478 424C367 304 325 221 325 121C325 44 371 -11 435 -11C573 -11 726 236 726 384C726 441 700 482 664 482C651 482 639 478 631 470L581 423L592 404C601 410 610 413 619 413C646 413 662 390 662 350C662 202 565 39 477 39C428 39 397 81 397 146C397 251 436 342 534 464L524 482C504 473 491 470 463 470C435 470 393 472 364 475L352 476C346 477 341 477 340 477C328 477 319 475 308 470C294 443 283 407 270 352L292 352L309 394C316 411 336 422 360 422C393 422 377 420 415 420ZM1019 204L990 77C986 60 984 42 984 26C984 4 993 -9 1008 -9C1031 -9 1072 17 1154 85L1147 106C1123 86 1094 59 1072 59C1063 59 1057 68 1057 82C1057 87 1057 90 1058 93L1150 472L1140 481L1107 463C1066 478 1049 482 1022 482C994 482 974 477 947 464C885 433 852 403 827 354C783 265 752 145 752 67C752 23 767 -11 786 -11C823 -11 903 41 1019 204ZM1067 414C1045 305 1026 253 992 201C935 117 874 59 842 59C830 59 824 72 824 99C824 163 852 280 887 360C911 415 934 433 982 433C1005 433 1023 429 1067 414ZM1559 365C1562 403 1567 435 1575 476C1564 481 1560 482 1555 482C1524 482 1493 458 1457 407C1418 351 1379 291 1363 256L1395 408C1399 425 1401 438 1401 450C1401 470 1393 482 1378 482C1357 482 1319 461 1245 408L1217 388L1224 368L1256 389C1284 407 1295 412 1304 412C1314 412 1321 403 1321 390C1321 332 1278 126 1238 -2L1248 -9C1263 -4 1279 -1 1302 4L1315 6L1341 126C1359 209 1382 262 1426 319C1460 363 1487 384 1509 384C1524 384 1534 379 1545 365ZM1613 388L1620 368L1652 389C1689 412 1692 414 1699 414C1709 414 1717 404 1717 391C1717 384 1713 361 1709 347L1643 107C1635 76 1630 49 1630 30C1630 6 1641 -9 1660 -9C1686 -9 1722 12 1820 85L1810 103L1784 86C1755 67 1732 56 1723 56C1716 56 1710 66 1710 76C1710 86 1712 95 1717 116L1794 420C1798 437 1800 448 1800 456C1800 473 1791 482 1775 482C1753 482 1716 461 1641 408ZM1807 712C1778 712 1749 679 1749 645C1749 620 1764 604 1788 604C1819 604 1843 633 1843 671C1843 695 1828 712 1807 712ZM2127 204L2098 77C2094 60 2092 42 2092 26C2092 4 2101 -9 2116 -9C2139 -9 2180 17 2262 85L2255 106C2231 86 2202 59 2180 59C2171 59 2165 68 2165 82C2165 87 2165 90 2166 93L2258 472L2248 481L2215 463C2174 478 2157 482 2130 482C2102 482 2082 477 2055 464C1993 433 1960 403 1935 354C1891 265 1860 145 1860 67C1860 23 1875 -11 1894 -11C1931 -11 2011 41 2127 204ZM2175 414C2153 305 2134 253 2100 201C2043 117 1982 59 1950 59C1938 59 1932 72 1932 99C1932 163 1960 280 1995 360C2019 415 2042 433 2090 433C2113 433 2131 429 2175 414ZM2641 330L2664 330C2672 395 2679 432 2688 458C2664 473 2629 482 2592 482C2547 483 2474 463 2417 400C2363 352 2324 241 2324 136C2324 40 2366 -11 2446 -11C2500 -11 2548 9 2603 54L2653 95L2645 115L2630 105C2558 57 2520 40 2485 40C2429 40 2400 80 2400 159C2400 267 2435 371 2484 409C2505 425 2529 433 2560 433C2605 433 2641 414 2641 390ZM2739 388L2746 368L2778 389C2815 412 2818 414 2825 414C2835 414 2843 404 2843 391C2843 384 2839 361 2835 347L2769 107C2761 76 2756 49 2756 30C2756 6 2767 -9 2786 -9C2812 -9 2848 12 2946 85L2936 103L2910 86C2881 67 2858 56 2849 56C2842 56 2836 66 2836 76C2836 86 2838 95 2843 116L2920 420C2924 437 2926 448 2926 456C2926 473 2917 482 2901 482C2879 482 2842 461 2767 408ZM2933 712C2904 712 2875 679 2875 645C2875 620 2890 604 2914 604C2945 604 2969 633 2969 671C2969 695 2954 712 2933 712ZM2999 152C2999 46 3044 -11 3127 -11C3182 -11 3242 15 3287 57C3349 116 3393 230 3393 331C3393 425 3343 482 3260 482C3156 482 2999 382 2999 152ZM3223 444C3284 444 3317 399 3317 315C3317 219 3286 113 3242 60C3224 39 3198 27 3167 27C3109 27 3075 72 3075 151C3075 264 3114 387 3163 427C3176 438 3199 444 3223 444ZM3449 388L3456 368L3488 389C3525 412 3528 414 3535 414C3546 414 3553 404 3553 389C3553 338 3512 145 3471 2L3478 -9C3503 -2 3526 4 3548 8C3567 134 3588 199 3634 268C3688 352 3763 414 3808 414C3819 414 3825 405 3825 390C3825 372 3822 351 3814 319L3762 107C3753 70 3749 47 3749 31C3749 6 3760 -9 3779 -9C3805 -9 3841 12 3939 85L3929 103L3903 86C3874 67 3852 56 3842 56C3835 56 3829 65 3829 76C3829 81 3830 92 3831 96L3897 372C3904 401 3908 429 3908 446C3908 469 3897 482 3877 482C3835 482 3766 444 3707 389C3669 354 3641 320 3589 247L3627 408C3631 426 3633 438 3633 449C3633 470 3625 482 3610 482C3589 482 3550 460 3477 408ZM4712 722L4700 733C4648 707 4612 698 4540 691L4536 670L4584 670C4608 670 4618 663 4618 646C4618 638 4617 629 4616 622L4588 468C4558 477 4531 482 4506 482C4437 482 4343 410 4297 323C4266 265 4246 170 4246 86C4246 21 4261 -11 4290 -11C4317 -11 4354 6 4388 33C4442 77 4475 116 4542 217L4519 126C4508 82 4503 50 4503 24C4503 3 4512 -9 4529 -9C4546 -9 4570 3 4604 28L4685 88L4675 107L4631 76C4617 66 4601 59 4592 59C4584 59 4578 68 4578 82C4578 90 4579 99 4586 128ZM4343 59C4327 59 4318 73 4318 98C4318 224 4364 380 4413 418C4426 428 4445 433 4472 433C4516 433 4545 427 4578 410L4566 351C4529 171 4388 59 4343 59ZM5056 111L5032 94C4979 56 4931 36 4895 36C4848 36 4819 73 4819 133C4819 158 4822 185 4827 214C4844 218 4953 248 4978 259C5063 296 5102 342 5102 404C5102 451 5068 482 5018 482C4950 496 4840 423 4803 349C4773 299 4743 180 4743 113C4743 35 4787 -11 4859 -11C4916 -11 4972 17 5064 92ZM4841 274C4858 343 4878 386 4907 412C4925 428 4956 440 4980 440C5009 440 5028 420 5028 388C5028 344 4993 297 4941 272C4913 258 4877 247 4832 237ZM5616 722L5604 733C5552 707 5516 698 5444 691L5440 670L5488 670C5512 670 5522 663 5522 648C5522 645 5522 640 5519 622C5508 567 5435 182 5420 132C5407 82 5401 52 5401 31C5401 6 5412 -9 5431 -9C5457 -9 5493 12 5591 85L5581 103L5555 86C5526 67 5504 56 5494 56C5487 56 5481 66 5481 76C5481 82 5482 89 5485 104ZM5913 204L5884 77C5880 60 5878 42 5878 26C5878 4 5887 -9 5902 -9C5925 -9 5966 17 6048 85L6041 106C6017 86 5988 59 5966 59C5957 59 5951 68 5951 82C5951 87 5951 90 5952 93L6044 472L6034 481L6001 463C5960 478 5943 482 5916 482C5888 482 5868 477 5841 464C5779 433 5746 403 5721 354C5677 265 5646 145 5646 67C5646 23 5661 -11 5680 -11C5717 -11 5797 41 5913 204ZM5961 414C5939 305 5920 253 5886 201C5829 117 5768 59 5736 59C5724 59 5718 72 5718 99C5718 163 5746 280 5781 360C5805 415 5828 433 5876 433C5899 433 5917 429 5961 414ZM6500 420C6521 420 6537 421 6563 424C6452 304 6410 221 6410 121C6410 44 6456 -11 6520 -11C6658 -11 6811 236 6811 384C6811 441 6785 482 6749 482C6736 482 6724 478 6716 470L6666 423L6677 404C6686 410 6695 413 6704 413C6731 413 6747 390 6747 350C6747 202 6650 39 6562 39C6513 39 6482 81 6482 146C6482 251 6521 342 6619 464L6609 482C6589 473 6576 470 6548 470C6520 470 6478 472 6449 475L6437 476C6431 477 6426 477 6425 477C6413 477 6404 475 6393 470C6379 443 6368 407 6355 352L6377 352L6394 394C6401 411 6421 422 6445 422C6478 422 6462 420 6500 420ZM7161 111L7137 94C7084 56 7036 36 7000 36C6953 36 6924 73 6924 133C6924 158 6927 185 6932 214C6949 218 7058 248 7083 259C7168 296 7207 342 7207 404C7207 451 7173 482 7123 482C7055 496 6945 423 6908 349C6878 299 6848 180 6848 113C6848 35 6892 -11 6964 -11C7021 -11 7077 17 7169 92ZM6946 274C6963 343 6983 386 7012 412C7030 428 7061 440 7085 440C7114 440 7133 420 7133 388C7133 344 7098 297 7046 272C7018 258 6982 247 6937 237ZM7472 722L7460 733C7408 707 7372 698 7300 691L7296 670L7344 670C7368 670 7378 663 7378 648C7378 645 7378 640 7375 622C7364 567 7291 182 7276 132C7263 82 7257 52 7257 31C7257 6 7268 -9 7287 -9C7313 -9 7349 12 7447 85L7437 103L7411 86C7382 67 7360 56 7350 56C7343 56 7337 66 7337 76C7337 82 7338 89 7341 104ZM7515 152C7515 46 7560 -11 7643 -11C7698 -11 7758 15 7803 57C7865 116 7909 230 7909 331C7909 425 7859 482 7776 482C7672 482 7515 382 7515 152ZM7739 444C7800 444 7833 399 7833 315C7833 219 7802 113 7758 60C7740 39 7714 27 7683 27C7625 27 7591 72 7591 151C7591 264 7630 387 7679 427C7692 438 7715 444 7739 444ZM8283 330L8306 330C8314 395 8321 432 8330 458C8306 473 8271 482 8234 482C8189 483 8116 463 8059 400C8005 352 7966 241 7966 136C7966 40 8008 -11 8088 -11C8142 -11 8190 9 8245 54L8295 95L8287 115L8272 105C8200 57 8162 40 8127 40C8071 40 8042 80 8042 159C8042 267 8077 371 8126 409C8147 425 8171 433 8202 433C8247 433 8283 414 8283 390ZM8381 388L8388 368L8420 389C8457 412 8460 414 8467 414C8477 414 8485 404 8485 391C8485 384 8481 361 8477 347L8411 107C8403 76 8398 49 8398 30C8398 6 8409 -9 8428 -9C8454 -9 8490 12 8588 85L8578 103L8552 86C8523 67 8500 56 8491 56C8484 56 8478 66 8478 76C8478 86 8480 95 8485 116L8562 420C8566 437 8568 448 8568 456C8568 473 8559 482 8543 482C8521 482 8484 461 8409 408ZM8575 712C8546 712 8517 679 8517 645C8517 620 8532 604 8556 604C8587 604 8611 633 8611 671C8611 695 8596 712 8575 712ZM9107 722L9095 733C9043 707 9007 698 8935 691L8931 670L8979 670C9003 670 9013 663 9013 646C9013 638 9012 629 9011 622L8983 468C8953 477 8926 482 8901 482C8832 482 8738 410 8692 323C8661 265 8641 170 8641 86C8641 21 8656 -11 8685 -11C8712 -11 8749 6 8783 33C8837 77 8870 116 8937 217L8914 126C8903 82 8898 50 8898 24C8898 3 8907 -9 8924 -9C8941 -9 8965 3 8999 28L9080 88L9070 107L9026 76C9012 66 8996 59 8987 59C8979 59 8973 68 8973 82C8973 90 8974 99 8981 128ZM8738 59C8722 59 8713 73 8713 98C8713 224 8759 380 8808 418C8821 428 8840 433 8867 433C8911 433 8940 427 8973 410L8961 351C8924 171 8783 59 8738 59ZM9394 204L9365 77C9361 60 9359 42 9359 26C9359 4 9368 -9 9383 -9C9406 -9 9447 17 9529 85L9522 106C9498 86 9469 59 9447 59C9438 59 9432 68 9432 82C9432 87 9432 90 9433 93L9525 472L9515 481L9482 463C9441 478 9424 482 9397 482C9369 482 9349 477 9322 464C9260 433 9227 403 9202 354C9158 265 9127 145 9127 67C9127 23 9142 -11 9161 -11C9198 -11 9278 41 9394 204ZM9442 414C9420 305 9401 253 9367 201C9310 117 9249 59 9217 59C9205 59 9199 72 9199 99C9199 163 9227 280 9262 360C9286 415 9309 433 9357 433C9380 433 9398 429 9442 414ZM10049 722L10037 733C9985 707 9949 698 9877 691L9873 670L9921 670C9945 670 9955 663 9955 646C9955 638 9954 629 9953 622L9925 468C9895 477 9868 482 9843 482C9774 482 9680 410 9634 323C9603 265 9583 170 9583 86C9583 21 9598 -11 9627 -11C9654 -11 9691 6 9725 33C9779 77 9812 116 9879 217L9856 126C9845 82 9840 50 9840 24C9840 3 9849 -9 9866 -9C9883 -9 9907 3 9941 28L10022 88L10012 107L9968 76C9954 66 9938 59 9929 59C9921 59 9915 68 9915 82C9915 90 9916 99 9923 128ZM9680 59C9664 59 9655 73 9655 98C9655 224 9701 380 9750 418C9763 428 9782 433 9809 433C9853 433 9882 427 9915 410L9903 351C9866 171 9725 59 9680 59Z" stroke="rgb(0,0,0)" stroke-opacity="1" stroke-width="8" fill="rgb(0,0,0)" fill-opacity="1"></path></g></g></g><g><g><g transform="matrix(1,0,0,1,2,100.85501098632812)"><path transform="matrix(0.017,0,0,-0.017,0,0)" d="M27 6L34 -4C140 0 246 0 353 0C454 0 555 -1 656 -4L662 6L362 697L337 697C294 590 92 128 27 6ZM537 37L105 37C171 215 242 389 318 564L325 564C400 391 472 215 537 37ZM813 390L757 107C756 99 744 61 744 31C744 6 755 -9 774 -9C809 -9 844 11 922 74L953 99L943 117L898 86C869 66 849 56 838 56C829 56 824 64 824 76C824 102 838 183 867 328L880 390L987 390L998 440C960 436 926 434 888 434C904 528 915 577 933 631L922 646C902 634 875 622 844 610L819 440C775 419 749 408 731 403L729 390Z" stroke="rgb(0,0,0)" stroke-opacity="1" stroke-width="8" fill="rgb(0,0,0)" fill-opacity="1"></path></g></g><g><g transform="matrix(1,0,0,1,22.730021158854186,100.85501098632812)"><path transform="matrix(0.017,0,0,-0.017,0,0)" d="M123 111C93 111 66 83 66 53C66 23 93 -5 122 -5C154 -5 182 22 182 53C182 83 154 111 123 111ZM123 456C93 456 66 428 66 398C66 368 93 340 122 340C154 340 182 367 182 397C182 428 154 456 123 456Z" stroke="rgb(0,0,0)" stroke-opacity="1" stroke-width="8" fill="rgb(0,0,0)" fill-opacity="1"></path></g></g><g><g transform="matrix(1,0,0,1,30.365030924479186,100.85501098632812)"><path transform="matrix(0.017,0,0,-0.017,0,0)" d="M415 420C436 420 452 421 478 424C367 304 325 221 325 121C325 44 371 -11 435 -11C573 -11 726 236 726 384C726 441 700 482 664 482C651 482 639 478 631 470L581 423L592 404C601 410 610 413 619 413C646 413 662 390 662 350C662 202 565 39 477 39C428 39 397 81 397 146C397 251 436 342 534 464L524 482C504 473 491 470 463 470C435 470 393 472 364 475L352 476C346 477 341 477 340 477C328 477 319 475 308 470C294 443 283 407 270 352L292 352L309 394C316 411 336 422 360 422C393 422 377 420 415 420ZM1019 204L990 77C986 60 984 42 984 26C984 4 993 -9 1008 -9C1031 -9 1072 17 1154 85L1147 106C1123 86 1094 59 1072 59C1063 59 1057 68 1057 82C1057 87 1057 90 1058 93L1150 472L1140 481L1107 463C1066 478 1049 482 1022 482C994 482 974 477 947 464C885 433 852 403 827 354C783 265 752 145 752 67C752 23 767 -11 786 -11C823 -11 903 41 1019 204ZM1067 414C1045 305 1026 253 992 201C935 117 874 59 842 59C830 59 824 72 824 99C824 163 852 280 887 360C911 415 934 433 982 433C1005 433 1023 429 1067 414ZM1559 365C1562 403 1567 435 1575 476C1564 481 1560 482 1555 482C1524 482 1493 458 1457 407C1418 351 1379 291 1363 256L1395 408C1399 425 1401 438 1401 450C1401 470 1393 482 1378 482C1357 482 1319 461 1245 408L1217 388L1224 368L1256 389C1284 407 1295 412 1304 412C1314 412 1321 403 1321 390C1321 332 1278 126 1238 -2L1248 -9C1263 -4 1279 -1 1302 4L1315 6L1341 126C1359 209 1382 262 1426 319C1460 363 1487 384 1509 384C1524 384 1534 379 1545 365ZM1613 388L1620 368L1652 389C1689 412 1692 414 1699 414C1709 414 1717 404 1717 391C1717 384 1713 361 1709 347L1643 107C1635 76 1630 49 1630 30C1630 6 1641 -9 1660 -9C1686 -9 1722 12 1820 85L1810 103L1784 86C1755 67 1732 56 1723 56C1716 56 1710 66 1710 76C1710 86 1712 95 1717 116L1794 420C1798 437 1800 448 1800 456C1800 473 1791 482 1775 482C1753 482 1716 461 1641 408ZM1807 712C1778 712 1749 679 1749 645C1749 620 1764 604 1788 604C1819 604 1843 633 1843 671C1843 695 1828 712 1807 712ZM2127 204L2098 77C2094 60 2092 42 2092 26C2092 4 2101 -9 2116 -9C2139 -9 2180 17 2262 85L2255 106C2231 86 2202 59 2180 59C2171 59 2165 68 2165 82C2165 87 2165 90 2166 93L2258 472L2248 481L2215 463C2174 478 2157 482 2130 482C2102 482 2082 477 2055 464C1993 433 1960 403 1935 354C1891 265 1860 145 1860 67C1860 23 1875 -11 1894 -11C1931 -11 2011 41 2127 204ZM2175 414C2153 305 2134 253 2100 201C2043 117 1982 59 1950 59C1938 59 1932 72 1932 99C1932 163 1960 280 1995 360C2019 415 2042 433 2090 433C2113 433 2131 429 2175 414ZM2641 330L2664 330C2672 395 2679 432 2688 458C2664 473 2629 482 2592 482C2547 483 2474 463 2417 400C2363 352 2324 241 2324 136C2324 40 2366 -11 2446 -11C2500 -11 2548 9 2603 54L2653 95L2645 115L2630 105C2558 57 2520 40 2485 40C2429 40 2400 80 2400 159C2400 267 2435 371 2484 409C2505 425 2529 433 2560 433C2605 433 2641 414 2641 390ZM2739 388L2746 368L2778 389C2815 412 2818 414 2825 414C2835 414 2843 404 2843 391C2843 384 2839 361 2835 347L2769 107C2761 76 2756 49 2756 30C2756 6 2767 -9 2786 -9C2812 -9 2848 12 2946 85L2936 103L2910 86C2881 67 2858 56 2849 56C2842 56 2836 66 2836 76C2836 86 2838 95 2843 116L2920 420C2924 437 2926 448 2926 456C2926 473 2917 482 2901 482C2879 482 2842 461 2767 408ZM2933 712C2904 712 2875 679 2875 645C2875 620 2890 604 2914 604C2945 604 2969 633 2969 671C2969 695 2954 712 2933 712ZM2999 152C2999 46 3044 -11 3127 -11C3182 -11 3242 15 3287 57C3349 116 3393 230 3393 331C3393 425 3343 482 3260 482C3156 482 2999 382 2999 152ZM3223 444C3284 444 3317 399 3317 315C3317 219 3286 113 3242 60C3224 39 3198 27 3167 27C3109 27 3075 72 3075 151C3075 264 3114 387 3163 427C3176 438 3199 444 3223 444ZM3449 388L3456 368L3488 389C3525 412 3528 414 3535 414C3546 414 3553 404 3553 389C3553 338 3512 145 3471 2L3478 -9C3503 -2 3526 4 3548 8C3567 134 3588 199 3634 268C3688 352 3763 414 3808 414C3819 414 3825 405 3825 390C3825 372 3822 351 3814 319L3762 107C3753 70 3749 47 3749 31C3749 6 3760 -9 3779 -9C3805 -9 3841 12 3939 85L3929 103L3903 86C3874 67 3852 56 3842 56C3835 56 3829 65 3829 76C3829 81 3830 92 3831 96L3897 372C3904 401 3908 429 3908 446C3908 469 3897 482 3877 482C3835 482 3766 444 3707 389C3669 354 3641 320 3589 247L3627 408C3631 426 3633 438 3633 449C3633 470 3625 482 3610 482C3589 482 3550 460 3477 408ZM4712 722L4700 733C4648 707 4612 698 4540 691L4536 670L4584 670C4608 670 4618 663 4618 646C4618 638 4617 629 4616 622L4588 468C4558 477 4531 482 4506 482C4437 482 4343 410 4297 323C4266 265 4246 170 4246 86C4246 21 4261 -11 4290 -11C4317 -11 4354 6 4388 33C4442 77 4475 116 4542 217L4519 126C4508 82 4503 50 4503 24C4503 3 4512 -9 4529 -9C4546 -9 4570 3 4604 28L4685 88L4675 107L4631 76C4617 66 4601 59 4592 59C4584 59 4578 68 4578 82C4578 90 4579 99 4586 128ZM4343 59C4327 59 4318 73 4318 98C4318 224 4364 380 4413 418C4426 428 4445 433 4472 433C4516 433 4545 427 4578 410L4566 351C4529 171 4388 59 4343 59ZM5056 111L5032 94C4979 56 4931 36 4895 36C4848 36 4819 73 4819 133C4819 158 4822 185 4827 214C4844 218 4953 248 4978 259C5063 296 5102 342 5102 404C5102 451 5068 482 5018 482C4950 496 4840 423 4803 349C4773 299 4743 180 4743 113C4743 35 4787 -11 4859 -11C4916 -11 4972 17 5064 92ZM4841 274C4858 343 4878 386 4907 412C4925 428 4956 440 4980 440C5009 440 5028 420 5028 388C5028 344 4993 297 4941 272C4913 258 4877 247 4832 237ZM5367 722L5355 733C5303 707 5267 698 5195 691L5191 670L5239 670C5263 670 5273 663 5273 648C5273 645 5273 640 5270 622C5259 567 5186 182 5171 132C5158 82 5152 52 5152 31C5152 6 5163 -9 5182 -9C5208 -9 5244 12 5342 85L5332 103L5306 86C5277 67 5255 56 5245 56C5238 56 5232 66 5232 76C5232 82 5233 89 5236 104ZM5767 390L5711 107C5710 99 5698 61 5698 31C5698 6 5709 -9 5728 -9C5763 -9 5798 11 5876 74L5907 99L5897 117L5852 86C5823 66 5803 56 5792 56C5783 56 5778 64 5778 76C5778 102 5792 183 5821 328L5834 390L5941 390L5952 440C5914 436 5880 434 5842 434C5858 528 5869 577 5887 631L5876 646C5856 634 5829 622 5798 610L5773 440C5729 419 5703 408 5685 403L5683 390ZM6008 388L6015 368L6047 389C6084 412 6087 414 6094 414C6104 414 6112 404 6112 391C6112 384 6108 361 6104 347L6038 107C6030 76 6025 49 6025 30C6025 6 6036 -9 6055 -9C6081 -9 6117 12 6215 85L6205 103L6179 86C6150 67 6127 56 6118 56C6111 56 6105 66 6105 76C6105 86 6107 95 6112 116L6189 420C6193 437 6195 448 6195 456C6195 473 6186 482 6170 482C6148 482 6111 461 6036 408ZM6202 712C6173 712 6144 679 6144 645C6144 620 6159 604 6183 604C6214 604 6238 633 6238 671C6238 695 6223 712 6202 712ZM6579 111L6555 94C6502 56 6454 36 6418 36C6371 36 6342 73 6342 133C6342 158 6345 185 6350 214C6367 218 6476 248 6501 259C6586 296 6625 342 6625 404C6625 451 6591 482 6541 482C6473 496 6363 423 6326 349C6296 299 6266 180 6266 113C6266 35 6310 -11 6382 -11C6439 -11 6495 17 6587 92ZM6364 274C6381 343 6401 386 6430 412C6448 428 6479 440 6503 440C6532 440 6551 420 6551 388C6551 344 6516 297 6464 272C6436 258 6400 247 6355 237ZM7369 103L7343 86C7314 67 7292 56 7282 56C7275 56 7269 65 7269 76C7269 86 7271 95 7276 116L7351 413C7355 430 7358 446 7358 454C7358 471 7348 482 7332 482C7303 482 7265 464 7204 421C7141 376 7106 341 7057 272L7087 409C7091 429 7094 444 7094 451C7094 470 7084 482 7068 482C7038 482 6992 460 6937 418C6893 384 6873 363 6808 275L6841 408C6845 424 6847 439 6847 451C6847 470 6838 482 6824 482C6803 482 6765 461 6691 408L6663 388L6670 368C6707 391 6742 414 6749 414C6760 414 6767 404 6767 389C6767 338 6726 145 6685 2L6688 -9L6756 6L6778 108C6802 219 6829 278 6884 338C6926 384 6971 414 6999 414C7006 414 7010 406 7010 393C7010 358 6988 244 6947 69L6931 2L6936 -9L7005 6L7026 113C7042 194 7076 269 7120 318C7175 379 7225 414 7257 414C7265 414 7270 405 7270 389C7270 365 7267 351 7245 264C7205 105 7189 84 7189 31C7189 6 7200 -9 7219 -9C7245 -9 7281 12 7379 85ZM7592 -11C7648 -11 7763 62 7806 125C7847 186 7881 296 7881 371C7881 438 7858 482 7822 482C7780 482 7727 456 7675 409C7634 374 7614 348 7578 289L7602 408C7605 425 7607 440 7607 452C7607 471 7599 482 7585 482C7564 482 7526 461 7452 408L7424 388L7431 368L7463 389C7491 407 7502 412 7511 412C7521 412 7528 403 7528 389C7528 381 7526 361 7524 351L7466 8C7456 -52 7437 -143 7417 -233L7409 -270L7416 -276C7437 -269 7457 -264 7489 -259L7531 3C7552 -4 7574 -11 7592 -11ZM7559 165C7581 293 7688 424 7771 424C7797 424 7809 402 7809 356C7809 275 7769 156 7716 80C7696 51 7664 36 7623 36C7592 36 7567 43 7541 59ZM7932 152C7932 46 7977 -11 8060 -11C8115 -11 8175 15 8220 57C8282 116 8326 230 8326 331C8326 425 8276 482 8193 482C8089 482 7932 382 7932 152ZM8156 444C8217 444 8250 399 8250 315C8250 219 8219 113 8175 60C8157 39 8131 27 8100 27C8042 27 8008 72 8008 151C8008 264 8047 387 8096 427C8109 438 8132 444 8156 444Z" stroke="rgb(0,0,0)" stroke-opacity="1" stroke-width="8" fill="rgb(0,0,0)" fill-opacity="1"></path></g></g></g></g></svg>