<svg xmlns="http://www.w3.org/2000/svg" xmlns:xlink="http://www.w3.org/1999/xlink" width="142.90000406901044" height="138.79000854492188" style="width:142.90000406901044px;height:138.79000854492188px;font-family:Asana-Math, Asana;background:#FFF;"><g><g><g><g transform="matrix(1,0,0,1,2,33.730000813802086)"><path transform="matrix(0.017,0,0,-0.017,0,0)" d="M1005 1C1020 -7 1036 -11 1048 -11C1081 -11 1120 18 1151 65L1227 182L1238 113C1251 28 1274 -11 1310 -11C1332 -11 1364 6 1396 35L1445 79L1436 98C1400 68 1375 53 1359 53C1344 53 1331 63 1321 83C1312 102 1301 139 1296 168L1278 269L1313 318C1360 383 1387 406 1418 406C1434 406 1446 398 1451 383L1465 387L1480 472C1468 479 1459 482 1450 482C1410 482 1370 446 1308 354L1271 299L1265 347C1253 446 1226 482 1167 482C1141 482 1119 474 1110 461L1052 378L1069 368C1099 402 1119 416 1138 416C1171 416 1193 375 1210 277L1221 215L1181 153C1138 86 1104 54 1076 54C1061 54 1050 58 1048 63L1037 91L1017 88C1017 53 1009 27 1005 1Z" stroke="rgb(0,0,0)" stroke-opacity="1" stroke-width="8" fill="rgb(0,0,0)" fill-opacity="1"></path></g></g><g><g transform="matrix(1,0,0,1,32.510009765625,33.730000813802086)"><path transform="matrix(0.017,0,0,-0.017,0,0)" d="M604 347L604 406L65 406L65 347ZM604 134L604 193L65 193L65 134Z" stroke="rgb(0,0,0)" stroke-opacity="1" stroke-width="8" fill="rgb(0,0,0)" fill-opacity="1"></path></g></g><g><svg x="50.14998372395837" overflow="visible" y="3.694997151692709" height="48" width="8.490000406901004"><path d=" M 6.27 1.70 c 0.00 -0.06 -0.04 -0.08 -0.08 -0.08 c -0.03 0.00 -0.06 0.01 -0.08 0.02 c -2.55 1.34 -4.65 3.73 -4.65 9.40 v 0.60 h 1.53 v -0.60 c 0.00 -3.23 0.64 -7.03 3.31 -9.06 c 0.12 -0.09 0.13 -0.19 0.13 -0.28 z   M 1.44 11.64 v 24.72 h 1.53 v -24.72 z" style="fill:rgb(0,0,0);fill-opacity:1;stroke-width:1px;stroke:none;stroke-opacity:1;"></path><path d=" M 6.27 46.30 c 0.00 0.06 -0.04 0.08 -0.08 0.08 c -0.03 0.00 -0.06 -0.01 -0.08 -0.02 c -2.55 -1.34 -4.65 -3.73 -4.65 -9.40 v -0.60 h 1.53 v 0.60 c 0.00 3.23 0.64 7.03 3.31 9.06 c 0.12 0.09 0.13 0.19 0.13 0.28 z" style="fill:rgb(0,0,0);fill-opacity:1;stroke-width:1px;stroke:none;stroke-opacity:1;"></path></svg></g><g><g><g><g><g transform="matrix(1,0,0,1,58.63997395833337,20.18499755859375)"><path transform="matrix(0.017,0,0,-0.017,0,0)" d="M166 420C187 420 203 421 229 424C118 304 76 221 76 121C76 44 122 -11 186 -11C324 -11 477 236 477 384C477 441 451 482 415 482C402 482 390 478 382 470L332 423L343 404C352 410 361 413 370 413C397 413 413 390 413 350C413 202 316 39 228 39C179 39 148 81 148 146C148 251 187 342 285 464L275 482C255 473 242 470 214 470C186 470 144 472 115 475L103 476C97 477 92 477 91 477C79 477 70 475 59 470C45 443 34 407 21 352L43 352L60 394C67 411 87 422 111 422C144 422 128 420 166 420Z" stroke="rgb(0,0,0)" stroke-opacity="1" stroke-width="8" fill="rgb(0,0,0)" fill-opacity="1"></path></g></g><g><g><g><g><g transform="matrix(1,0,0,1,67.63997395833337,24.14500528971354)"><path transform="matrix(0.0119,0,0,-0.0119,0,0)" d="M34 388L41 368L73 389C110 412 113 414 120 414C130 414 138 404 138 391C138 384 134 361 130 347L64 107C56 76 51 49 51 30C51 6 62 -9 81 -9C107 -9 143 12 241 85L231 103L205 86C176 67 153 56 144 56C137 56 131 66 131 76C131 86 133 95 138 116L215 420C219 437 221 448 221 456C221 473 212 482 196 482C174 482 137 461 62 408ZM228 712C199 712 170 679 170 645C170 620 185 604 209 604C240 604 264 633 264 671C264 695 249 712 228 712Z" stroke="rgb(0,0,0)" stroke-opacity="1" stroke-width="8" fill="rgb(0,0,0)" fill-opacity="1"></path></g></g></g></g></g><g><g transform="matrix(1,0,0,1,75.35001627604169,20.18499755859375)"><path transform="matrix(0.017,0,0,-0.017,0,0)" d="M604 241L604 300L364 300L364 538L305 538L305 300L65 300L65 241L305 241L305 0L364 0L364 241Z" stroke="rgb(0,0,0)" stroke-opacity="1" stroke-width="8" fill="rgb(0,0,0)" fill-opacity="1"></path></g></g><g><g transform="matrix(1,0,0,1,90.094970703125,20.18499755859375)"><path transform="matrix(0.017,0,0,-0.017,0,0)" d="M166 420C187 420 203 421 229 424C118 304 76 221 76 121C76 44 122 -11 186 -11C324 -11 477 236 477 384C477 441 451 482 415 482C402 482 390 478 382 470L332 423L343 404C352 410 361 413 370 413C397 413 413 390 413 350C413 202 316 39 228 39C179 39 148 81 148 146C148 251 187 342 285 464L275 482C255 473 242 470 214 470C186 470 144 472 115 475L103 476C97 477 92 477 91 477C79 477 70 475 59 470C45 443 34 407 21 352L43 352L60 394C67 411 87 422 111 422C144 422 128 420 166 420Z" stroke="rgb(0,0,0)" stroke-opacity="1" stroke-width="8" fill="rgb(0,0,0)" fill-opacity="1"></path></g></g><g><g><g><g><g transform="matrix(1,0,0,1,99.094970703125,24.14500528971354)"><path transform="matrix(0.0119,0,0,-0.0119,0,0)" d="M345 437L329 437L350 549C366 635 394 673 440 673C470 673 497 658 512 634L522 638C527 654 537 685 545 705L550 720C534 727 503 733 480 733C469 733 453 730 445 726C421 715 339 654 316 630C294 608 282 578 271 521L256 442C215 422 195 414 170 405L165 383L246 383L237 327C207 132 170 -54 148 -123C130 -182 100 -213 64 -213C41 -213 30 -206 12 -184L-2 -188C-6 -211 -20 -259 -25 -268C-16 -273 -1 -276 10 -276C51 -276 105 -245 144 -198C215 -114 235 -18 319 383L423 383C427 402 434 425 440 439L436 446C407 439 408 437 345 437Z" stroke="rgb(0,0,0)" stroke-opacity="1" stroke-width="8" fill="rgb(0,0,0)" fill-opacity="1"></path></g></g></g></g></g></g></g><g><g><g><g transform="matrix(1,0,0,1,78.40999348958337,46.90000406901042)"><path transform="matrix(0.017,0,0,-0.017,0,0)" d="M16 23L16 -3C203 -3 203 0 239 0C275 0 275 -3 468 -3L468 82C353 77 307 81 122 77L304 270C401 373 431 428 431 503C431 618 353 689 226 689C154 689 105 669 56 619L39 483L68 483L81 529C97 587 133 612 200 612C286 612 341 558 341 473C341 398 299 324 186 204Z" stroke="rgb(0,0,0)" stroke-opacity="1" stroke-width="8" fill="rgb(0,0,0)" fill-opacity="1"></path></g></g></g></g><line style="fill:none;stroke-width:0.99px;stroke:rgb(0, 0, 0);" x1="58.63997395833337" y1="29.765004078547165" x2="106.66997782389325" y2="29.765004078547165"></line></g><g><svg x="106.67000325520837" overflow="visible" y="3.694997151692709" height="48" width="8.490000406901004"><path d=" M 1.75 1.70 c 0.00 -0.06 0.04 -0.08 0.08 -0.08 c 0.03 0.00 0.06 0.01 0.08 0.02 c 2.55 1.34 4.65 3.73 4.65 9.40 v 0.60 h -1.53 v -0.60 c 0.00 -3.23 -0.64 -7.03 -3.31 -9.06 c -0.12 -0.09 -0.13 -0.19 -0.13 -0.28 z  M 6.58 11.64 v 24.72 h -1.53 v -24.72 z" style="fill:rgb(0,0,0);fill-opacity:1;stroke-width:1px;stroke:none;stroke-opacity:1;"></path><path d=" M 1.75 46.30 c 0.00 0.06 0.04 0.08 0.08 0.08 c 0.03 0.00 0.06 -0.01 0.08 -0.02 c 2.55 -1.34 4.65 -3.73 4.65 -9.40 v -0.60 h -1.53 v 0.60 c 0.00 3.23 -0.64 7.03 -3.31 9.06 c -0.12 0.09 -0.13 0.19 -0.13 0.28 z" style="fill:rgb(0,0,0);fill-opacity:1;stroke-width:1px;stroke:none;stroke-opacity:1;"></path></svg></g><g><g transform="matrix(1,0,0,1,116.344970703125,33.730000813802086)"><path transform="matrix(0.017,0,0,-0.017,0,0)" d="M125 390L69 107C68 99 56 61 56 31C56 6 67 -9 86 -9C121 -9 156 11 234 74L265 99L255 117L210 86C181 66 161 56 150 56C141 56 136 64 136 76C136 102 150 183 179 328L192 390L299 390L310 440C272 436 238 434 200 434C216 528 227 577 245 631L234 646C214 634 187 622 156 610L131 440C87 419 61 408 43 403L41 390Z" stroke="rgb(0,0,0)" stroke-opacity="1" stroke-width="8" fill="rgb(0,0,0)" fill-opacity="1"></path></g></g></g><g></g><g><g><g transform="matrix(1,0,0,1,2,89.58999633789062)"><path transform="matrix(0.017,0,0,-0.017,0,0)" d="M166 420C187 420 203 421 229 424C118 304 76 221 76 121C76 44 122 -11 186 -11C324 -11 477 236 477 384C477 441 451 482 415 482C402 482 390 478 382 470L332 423L343 404C352 410 361 413 370 413C397 413 413 390 413 350C413 202 316 39 228 39C179 39 148 81 148 146C148 251 187 342 285 464L275 482C255 473 242 470 214 470C186 470 144 472 115 475L103 476C97 477 92 477 91 477C79 477 70 475 59 470C45 443 34 407 21 352L43 352L60 394C67 411 87 422 111 422C144 422 128 420 166 420Z" stroke="rgb(0,0,0)" stroke-opacity="1" stroke-width="8" fill="rgb(0,0,0)" fill-opacity="1"></path></g></g><g><g><g><g><g transform="matrix(1,0,0,1,11,93.55001424153646)"><path transform="matrix(0.0119,0,0,-0.0119,0,0)" d="M345 437L329 437L350 549C366 635 394 673 440 673C470 673 497 658 512 634L522 638C527 654 537 685 545 705L550 720C534 727 503 733 480 733C469 733 453 730 445 726C421 715 339 654 316 630C294 608 282 578 271 521L256 442C215 422 195 414 170 405L165 383L246 383L237 327C207 132 170 -54 148 -123C130 -182 100 -213 64 -213C41 -213 30 -206 12 -184L-2 -188C-6 -211 -20 -259 -25 -268C-16 -273 -1 -276 10 -276C51 -276 105 -245 144 -198C215 -114 235 -18 319 383L423 383C427 402 434 425 440 439L436 446C407 439 408 437 345 437Z" stroke="rgb(0,0,0)" stroke-opacity="1" stroke-width="8" fill="rgb(0,0,0)" fill-opacity="1"></path></g></g></g></g></g><g><g transform="matrix(1,0,0,1,21.965006510416686,89.58999633789062)"><path transform="matrix(0.017,0,0,-0.017,0,0)" d="M123 111C93 111 66 83 66 53C66 23 93 -5 122 -5C154 -5 182 22 182 53C182 83 154 111 123 111ZM123 456C93 456 66 428 66 398C66 368 93 340 122 340C154 340 182 367 182 397C182 428 154 456 123 456Z" stroke="rgb(0,0,0)" stroke-opacity="1" stroke-width="8" fill="rgb(0,0,0)" fill-opacity="1"></path></g></g><g><g transform="matrix(1,0,0,1,29.600016276041686,89.58999633789062)"><path transform="matrix(0.017,0,0,-0.017,0,0)" d="M415 420C436 420 452 421 478 424C367 304 325 221 325 121C325 44 371 -11 435 -11C573 -11 726 236 726 384C726 441 700 482 664 482C651 482 639 478 631 470L581 423L592 404C601 410 610 413 619 413C646 413 662 390 662 350C662 202 565 39 477 39C428 39 397 81 397 146C397 251 436 342 534 464L524 482C504 473 491 470 463 470C435 470 393 472 364 475L352 476C346 477 341 477 340 477C328 477 319 475 308 470C294 443 283 407 270 352L292 352L309 394C316 411 336 422 360 422C393 422 377 420 415 420ZM1076 111L1052 94C999 56 951 36 915 36C868 36 839 73 839 133C839 158 842 185 847 214C864 218 973 248 998 259C1083 296 1122 342 1122 404C1122 451 1088 482 1038 482C970 496 860 423 823 349C793 299 763 180 763 113C763 35 807 -11 879 -11C936 -11 992 17 1084 92ZM861 274C878 343 898 386 927 412C945 428 976 440 1000 440C1029 440 1048 420 1048 388C1048 344 1013 297 961 272C933 258 897 247 852 237ZM1387 722L1375 733C1323 707 1287 698 1215 691L1211 670L1259 670C1283 670 1293 663 1293 648C1293 645 1293 640 1290 622C1279 567 1206 182 1191 132C1178 82 1172 52 1172 31C1172 6 1183 -9 1202 -9C1228 -9 1264 12 1362 85L1352 103L1326 86C1297 67 1275 56 1265 56C1258 56 1252 66 1252 76C1252 82 1253 89 1256 104ZM1430 152C1430 46 1475 -11 1558 -11C1613 -11 1673 15 1718 57C1780 116 1824 230 1824 331C1824 425 1774 482 1691 482C1587 482 1430 382 1430 152ZM1654 444C1715 444 1748 399 1748 315C1748 219 1717 113 1673 60C1655 39 1629 27 1598 27C1540 27 1506 72 1506 151C1506 264 1545 387 1594 427C1607 438 1630 444 1654 444ZM2198 330L2221 330C2229 395 2236 432 2245 458C2221 473 2186 482 2149 482C2104 483 2031 463 1974 400C1920 352 1881 241 1881 136C1881 40 1923 -11 2003 -11C2057 -11 2105 9 2160 54L2210 95L2202 115L2187 105C2115 57 2077 40 2042 40C1986 40 1957 80 1957 159C1957 267 1992 371 2041 409C2062 425 2086 433 2117 433C2162 433 2198 414 2198 390ZM2296 388L2303 368L2335 389C2372 412 2375 414 2382 414C2392 414 2400 404 2400 391C2400 384 2396 361 2392 347L2326 107C2318 76 2313 49 2313 30C2313 6 2324 -9 2343 -9C2369 -9 2405 12 2503 85L2493 103L2467 86C2438 67 2415 56 2406 56C2399 56 2393 66 2393 76C2393 86 2395 95 2400 116L2477 420C2481 437 2483 448 2483 456C2483 473 2474 482 2458 482C2436 482 2399 461 2324 408ZM2490 712C2461 712 2432 679 2432 645C2432 620 2447 604 2471 604C2502 604 2526 633 2526 671C2526 695 2511 712 2490 712ZM3022 722L3010 733C2958 707 2922 698 2850 691L2846 670L2894 670C2918 670 2928 663 2928 646C2928 638 2927 629 2926 622L2898 468C2868 477 2841 482 2816 482C2747 482 2653 410 2607 323C2576 265 2556 170 2556 86C2556 21 2571 -11 2600 -11C2627 -11 2664 6 2698 33C2752 77 2785 116 2852 217L2829 126C2818 82 2813 50 2813 24C2813 3 2822 -9 2839 -9C2856 -9 2880 3 2914 28L2995 88L2985 107L2941 76C2927 66 2911 59 2902 59C2894 59 2888 68 2888 82C2888 90 2889 99 2896 128ZM2653 59C2637 59 2628 73 2628 98C2628 224 2674 380 2723 418C2736 428 2755 433 2782 433C2826 433 2855 427 2888 410L2876 351C2839 171 2698 59 2653 59ZM3309 204L3280 77C3276 60 3274 42 3274 26C3274 4 3283 -9 3298 -9C3321 -9 3362 17 3444 85L3437 106C3413 86 3384 59 3362 59C3353 59 3347 68 3347 82C3347 87 3347 90 3348 93L3440 472L3430 481L3397 463C3356 478 3339 482 3312 482C3284 482 3264 477 3237 464C3175 433 3142 403 3117 354C3073 265 3042 145 3042 67C3042 23 3057 -11 3076 -11C3113 -11 3193 41 3309 204ZM3357 414C3335 305 3316 253 3282 201C3225 117 3164 59 3132 59C3120 59 3114 72 3114 99C3114 163 3142 280 3177 360C3201 415 3224 433 3272 433C3295 433 3313 429 3357 414ZM3964 722L3952 733C3900 707 3864 698 3792 691L3788 670L3836 670C3860 670 3870 663 3870 646C3870 638 3869 629 3868 622L3840 468C3810 477 3783 482 3758 482C3689 482 3595 410 3549 323C3518 265 3498 170 3498 86C3498 21 3513 -11 3542 -11C3569 -11 3606 6 3640 33C3694 77 3727 116 3794 217L3771 126C3760 82 3755 50 3755 24C3755 3 3764 -9 3781 -9C3798 -9 3822 3 3856 28L3937 88L3927 107L3883 76C3869 66 3853 59 3844 59C3836 59 3830 68 3830 82C3830 90 3831 99 3838 128ZM3595 59C3579 59 3570 73 3570 98C3570 224 3616 380 3665 418C3678 428 3697 433 3724 433C3768 433 3797 427 3830 410L3818 351C3781 171 3640 59 3595 59ZM4574 437L4558 437L4579 549C4595 635 4623 673 4669 673C4699 673 4726 658 4741 634L4751 638C4756 654 4766 685 4774 705L4779 720C4763 727 4732 733 4709 733C4698 733 4682 730 4674 726C4650 715 4568 654 4545 630C4523 608 4511 578 4500 521L4485 442C4444 422 4424 414 4399 405L4394 383L4475 383L4466 327C4436 132 4399 -54 4377 -123C4359 -182 4329 -213 4293 -213C4270 -213 4259 -206 4241 -184L4227 -188C4223 -211 4209 -259 4204 -268C4213 -273 4228 -276 4239 -276C4280 -276 4334 -245 4373 -198C4444 -114 4464 -18 4548 383L4652 383C4656 402 4663 425 4669 439L4665 446C4636 439 4637 437 4574 437ZM4813 388L4820 368L4852 389C4889 412 4892 414 4899 414C4909 414 4917 404 4917 391C4917 384 4913 361 4909 347L4843 107C4835 76 4830 49 4830 30C4830 6 4841 -9 4860 -9C4886 -9 4922 12 5020 85L5010 103L4984 86C4955 67 4932 56 4923 56C4916 56 4910 66 4910 76C4910 86 4912 95 4917 116L4994 420C4998 437 5000 448 5000 456C5000 473 4991 482 4975 482C4953 482 4916 461 4841 408ZM5007 712C4978 712 4949 679 4949 645C4949 620 4964 604 4988 604C5019 604 5043 633 5043 671C5043 695 5028 712 5007 712ZM5080 388L5087 368L5119 389C5156 412 5159 414 5166 414C5177 414 5184 404 5184 389C5184 338 5143 145 5102 2L5109 -9C5134 -2 5157 4 5179 8C5198 134 5219 199 5265 268C5319 352 5394 414 5439 414C5450 414 5456 405 5456 390C5456 372 5453 351 5445 319L5393 107C5384 70 5380 47 5380 31C5380 6 5391 -9 5410 -9C5436 -9 5472 12 5570 85L5560 103L5534 86C5505 67 5483 56 5473 56C5466 56 5460 65 5460 76C5460 81 5461 92 5462 96L5528 372C5535 401 5539 429 5539 446C5539 469 5528 482 5508 482C5466 482 5397 444 5338 389C5300 354 5272 320 5220 247L5258 408C5262 426 5264 438 5264 449C5264 470 5256 482 5241 482C5220 482 5181 460 5108 408ZM5882 204L5853 77C5849 60 5847 42 5847 26C5847 4 5856 -9 5871 -9C5894 -9 5935 17 6017 85L6010 106C5986 86 5957 59 5935 59C5926 59 5920 68 5920 82C5920 87 5920 90 5921 93L6013 472L6003 481L5970 463C5929 478 5912 482 5885 482C5857 482 5837 477 5810 464C5748 433 5715 403 5690 354C5646 265 5615 145 5615 67C5615 23 5630 -11 5649 -11C5686 -11 5766 41 5882 204ZM5930 414C5908 305 5889 253 5855 201C5798 117 5737 59 5705 59C5693 59 5687 72 5687 99C5687 163 5715 280 5750 360C5774 415 5797 433 5845 433C5868 433 5886 429 5930 414ZM6305 722L6293 733C6241 707 6205 698 6133 691L6129 670L6177 670C6201 670 6211 663 6211 648C6211 645 6211 640 6208 622C6197 567 6124 182 6109 132C6096 82 6090 52 6090 31C6090 6 6101 -9 6120 -9C6146 -9 6182 12 6280 85L6270 103L6244 86C6215 67 6193 56 6183 56C6176 56 6170 66 6170 76C6170 82 6171 89 6174 104Z" stroke="rgb(0,0,0)" stroke-opacity="1" stroke-width="8" fill="rgb(0,0,0)" fill-opacity="1"></path></g></g></g><g><g><g transform="matrix(1,0,0,1,2,111.12999471028645)"><path transform="matrix(0.017,0,0,-0.017,0,0)" d="M166 420C187 420 203 421 229 424C118 304 76 221 76 121C76 44 122 -11 186 -11C324 -11 477 236 477 384C477 441 451 482 415 482C402 482 390 478 382 470L332 423L343 404C352 410 361 413 370 413C397 413 413 390 413 350C413 202 316 39 228 39C179 39 148 81 148 146C148 251 187 342 285 464L275 482C255 473 242 470 214 470C186 470 144 472 115 475L103 476C97 477 92 477 91 477C79 477 70 475 59 470C45 443 34 407 21 352L43 352L60 394C67 411 87 422 111 422C144 422 128 420 166 420Z" stroke="rgb(0,0,0)" stroke-opacity="1" stroke-width="8" fill="rgb(0,0,0)" fill-opacity="1"></path></g></g><g><g><g><g><g transform="matrix(1,0,0,1,11,115.09001261393229)"><path transform="matrix(0.0119,0,0,-0.0119,0,0)" d="M34 388L41 368L73 389C110 412 113 414 120 414C130 414 138 404 138 391C138 384 134 361 130 347L64 107C56 76 51 49 51 30C51 6 62 -9 81 -9C107 -9 143 12 241 85L231 103L205 86C176 67 153 56 144 56C137 56 131 66 131 76C131 86 133 95 138 116L215 420C219 437 221 448 221 456C221 473 212 482 196 482C174 482 137 461 62 408ZM228 712C199 712 170 679 170 645C170 620 185 604 209 604C240 604 264 633 264 671C264 695 249 712 228 712Z" stroke="rgb(0,0,0)" stroke-opacity="1" stroke-width="8" fill="rgb(0,0,0)" fill-opacity="1"></path></g></g></g></g></g><g><g transform="matrix(1,0,0,1,18.7099609375,111.12999471028645)"><path transform="matrix(0.017,0,0,-0.017,0,0)" d="M123 111C93 111 66 83 66 53C66 23 93 -5 122 -5C154 -5 182 22 182 53C182 83 154 111 123 111ZM123 456C93 456 66 428 66 398C66 368 93 340 122 340C154 340 182 367 182 397C182 428 154 456 123 456Z" stroke="rgb(0,0,0)" stroke-opacity="1" stroke-width="8" fill="rgb(0,0,0)" fill-opacity="1"></path></g></g><g><g transform="matrix(1,0,0,1,26.344970703125,111.12999471028645)"><path transform="matrix(0.017,0,0,-0.017,0,0)" d="M415 420C436 420 452 421 478 424C367 304 325 221 325 121C325 44 371 -11 435 -11C573 -11 726 236 726 384C726 441 700 482 664 482C651 482 639 478 631 470L581 423L592 404C601 410 610 413 619 413C646 413 662 390 662 350C662 202 565 39 477 39C428 39 397 81 397 146C397 251 436 342 534 464L524 482C504 473 491 470 463 470C435 470 393 472 364 475L352 476C346 477 341 477 340 477C328 477 319 475 308 470C294 443 283 407 270 352L292 352L309 394C316 411 336 422 360 422C393 422 377 420 415 420ZM1076 111L1052 94C999 56 951 36 915 36C868 36 839 73 839 133C839 158 842 185 847 214C864 218 973 248 998 259C1083 296 1122 342 1122 404C1122 451 1088 482 1038 482C970 496 860 423 823 349C793 299 763 180 763 113C763 35 807 -11 879 -11C936 -11 992 17 1084 92ZM861 274C878 343 898 386 927 412C945 428 976 440 1000 440C1029 440 1048 420 1048 388C1048 344 1013 297 961 272C933 258 897 247 852 237ZM1387 722L1375 733C1323 707 1287 698 1215 691L1211 670L1259 670C1283 670 1293 663 1293 648C1293 645 1293 640 1290 622C1279 567 1206 182 1191 132C1178 82 1172 52 1172 31C1172 6 1183 -9 1202 -9C1228 -9 1264 12 1362 85L1352 103L1326 86C1297 67 1275 56 1265 56C1258 56 1252 66 1252 76C1252 82 1253 89 1256 104ZM1430 152C1430 46 1475 -11 1558 -11C1613 -11 1673 15 1718 57C1780 116 1824 230 1824 331C1824 425 1774 482 1691 482C1587 482 1430 382 1430 152ZM1654 444C1715 444 1748 399 1748 315C1748 219 1717 113 1673 60C1655 39 1629 27 1598 27C1540 27 1506 72 1506 151C1506 264 1545 387 1594 427C1607 438 1630 444 1654 444ZM2198 330L2221 330C2229 395 2236 432 2245 458C2221 473 2186 482 2149 482C2104 483 2031 463 1974 400C1920 352 1881 241 1881 136C1881 40 1923 -11 2003 -11C2057 -11 2105 9 2160 54L2210 95L2202 115L2187 105C2115 57 2077 40 2042 40C1986 40 1957 80 1957 159C1957 267 1992 371 2041 409C2062 425 2086 433 2117 433C2162 433 2198 414 2198 390ZM2296 388L2303 368L2335 389C2372 412 2375 414 2382 414C2392 414 2400 404 2400 391C2400 384 2396 361 2392 347L2326 107C2318 76 2313 49 2313 30C2313 6 2324 -9 2343 -9C2369 -9 2405 12 2503 85L2493 103L2467 86C2438 67 2415 56 2406 56C2399 56 2393 66 2393 76C2393 86 2395 95 2400 116L2477 420C2481 437 2483 448 2483 456C2483 473 2474 482 2458 482C2436 482 2399 461 2324 408ZM2490 712C2461 712 2432 679 2432 645C2432 620 2447 604 2471 604C2502 604 2526 633 2526 671C2526 695 2511 712 2490 712ZM3022 722L3010 733C2958 707 2922 698 2850 691L2846 670L2894 670C2918 670 2928 663 2928 646C2928 638 2927 629 2926 622L2898 468C2868 477 2841 482 2816 482C2747 482 2653 410 2607 323C2576 265 2556 170 2556 86C2556 21 2571 -11 2600 -11C2627 -11 2664 6 2698 33C2752 77 2785 116 2852 217L2829 126C2818 82 2813 50 2813 24C2813 3 2822 -9 2839 -9C2856 -9 2880 3 2914 28L2995 88L2985 107L2941 76C2927 66 2911 59 2902 59C2894 59 2888 68 2888 82C2888 90 2889 99 2896 128ZM2653 59C2637 59 2628 73 2628 98C2628 224 2674 380 2723 418C2736 428 2755 433 2782 433C2826 433 2855 427 2888 410L2876 351C2839 171 2698 59 2653 59ZM3309 204L3280 77C3276 60 3274 42 3274 26C3274 4 3283 -9 3298 -9C3321 -9 3362 17 3444 85L3437 106C3413 86 3384 59 3362 59C3353 59 3347 68 3347 82C3347 87 3347 90 3348 93L3440 472L3430 481L3397 463C3356 478 3339 482 3312 482C3284 482 3264 477 3237 464C3175 433 3142 403 3117 354C3073 265 3042 145 3042 67C3042 23 3057 -11 3076 -11C3113 -11 3193 41 3309 204ZM3357 414C3335 305 3316 253 3282 201C3225 117 3164 59 3132 59C3120 59 3114 72 3114 99C3114 163 3142 280 3177 360C3201 415 3224 433 3272 433C3295 433 3313 429 3357 414ZM3964 722L3952 733C3900 707 3864 698 3792 691L3788 670L3836 670C3860 670 3870 663 3870 646C3870 638 3869 629 3868 622L3840 468C3810 477 3783 482 3758 482C3689 482 3595 410 3549 323C3518 265 3498 170 3498 86C3498 21 3513 -11 3542 -11C3569 -11 3606 6 3640 33C3694 77 3727 116 3794 217L3771 126C3760 82 3755 50 3755 24C3755 3 3764 -9 3781 -9C3798 -9 3822 3 3856 28L3937 88L3927 107L3883 76C3869 66 3853 59 3844 59C3836 59 3830 68 3830 82C3830 90 3831 99 3838 128ZM3595 59C3579 59 3570 73 3570 98C3570 224 3616 380 3665 418C3678 428 3697 433 3724 433C3768 433 3797 427 3830 410L3818 351C3781 171 3640 59 3595 59ZM4263 388L4270 368L4302 389C4339 412 4342 414 4349 414C4359 414 4367 404 4367 391C4367 384 4363 361 4359 347L4293 107C4285 76 4280 49 4280 30C4280 6 4291 -9 4310 -9C4336 -9 4372 12 4470 85L4460 103L4434 86C4405 67 4382 56 4373 56C4366 56 4360 66 4360 76C4360 86 4362 95 4367 116L4444 420C4448 437 4450 448 4450 456C4450 473 4441 482 4425 482C4403 482 4366 461 4291 408ZM4457 712C4428 712 4399 679 4399 645C4399 620 4414 604 4438 604C4469 604 4493 633 4493 671C4493 695 4478 712 4457 712ZM4530 388L4537 368L4569 389C4606 412 4609 414 4616 414C4627 414 4634 404 4634 389C4634 338 4593 145 4552 2L4559 -9C4584 -2 4607 4 4629 8C4648 134 4669 199 4715 268C4769 352 4844 414 4889 414C4900 414 4906 405 4906 390C4906 372 4903 351 4895 319L4843 107C4834 70 4830 47 4830 31C4830 6 4841 -9 4860 -9C4886 -9 4922 12 5020 85L5010 103L4984 86C4955 67 4933 56 4923 56C4916 56 4910 65 4910 76C4910 81 4911 92 4912 96L4978 372C4985 401 4989 429 4989 446C4989 469 4978 482 4958 482C4916 482 4847 444 4788 389C4750 354 4722 320 4670 247L4708 408C4712 426 4714 438 4714 449C4714 470 4706 482 4691 482C4670 482 4631 460 4558 408ZM5095 388L5102 368L5134 389C5171 412 5174 414 5181 414C5191 414 5199 404 5199 391C5199 384 5195 361 5191 347L5125 107C5117 76 5112 49 5112 30C5112 6 5123 -9 5142 -9C5168 -9 5204 12 5302 85L5292 103L5266 86C5237 67 5214 56 5205 56C5198 56 5192 66 5192 76C5192 86 5194 95 5199 116L5276 420C5280 437 5282 448 5282 456C5282 473 5273 482 5257 482C5235 482 5198 461 5123 408ZM5289 712C5260 712 5231 679 5231 645C5231 620 5246 604 5270 604C5301 604 5325 633 5325 671C5325 695 5310 712 5289 712ZM5680 330L5703 330C5711 395 5718 432 5727 458C5703 473 5668 482 5631 482C5586 483 5513 463 5456 400C5402 352 5363 241 5363 136C5363 40 5405 -11 5485 -11C5539 -11 5587 9 5642 54L5692 95L5684 115L5669 105C5597 57 5559 40 5524 40C5468 40 5439 80 5439 159C5439 267 5474 371 5523 409C5544 425 5568 433 5599 433C5644 433 5680 414 5680 390ZM5778 388L5785 368L5817 389C5854 412 5857 414 5864 414C5874 414 5882 404 5882 391C5882 384 5878 361 5874 347L5808 107C5800 76 5795 49 5795 30C5795 6 5806 -9 5825 -9C5851 -9 5887 12 5985 85L5975 103L5949 86C5920 67 5897 56 5888 56C5881 56 5875 66 5875 76C5875 86 5877 95 5882 116L5959 420C5963 437 5965 448 5965 456C5965 473 5956 482 5940 482C5918 482 5881 461 5806 408ZM5972 712C5943 712 5914 679 5914 645C5914 620 5929 604 5953 604C5984 604 6008 633 6008 671C6008 695 5993 712 5972 712ZM6292 204L6263 77C6259 60 6257 42 6257 26C6257 4 6266 -9 6281 -9C6304 -9 6345 17 6427 85L6420 106C6396 86 6367 59 6345 59C6336 59 6330 68 6330 82C6330 87 6330 90 6331 93L6423 472L6413 481L6380 463C6339 478 6322 482 6295 482C6267 482 6247 477 6220 464C6158 433 6125 403 6100 354C6056 265 6025 145 6025 67C6025 23 6040 -11 6059 -11C6096 -11 6176 41 6292 204ZM6340 414C6318 305 6299 253 6265 201C6208 117 6147 59 6115 59C6103 59 6097 72 6097 99C6097 163 6125 280 6160 360C6184 415 6207 433 6255 433C6278 433 6296 429 6340 414ZM6715 722L6703 733C6651 707 6615 698 6543 691L6539 670L6587 670C6611 670 6621 663 6621 648C6621 645 6621 640 6618 622C6607 567 6534 182 6519 132C6506 82 6500 52 6500 31C6500 6 6511 -9 6530 -9C6556 -9 6592 12 6690 85L6680 103L6654 86C6625 67 6603 56 6593 56C6586 56 6580 66 6580 76C6580 82 6581 89 6584 104Z" stroke="rgb(0,0,0)" stroke-opacity="1" stroke-width="8" fill="rgb(0,0,0)" fill-opacity="1"></path></g></g></g><g><g><g transform="matrix(1,0,0,1,2,132.67001342773438)"><path transform="matrix(0.017,0,0,-0.017,0,0)" d="M125 390L69 107C68 99 56 61 56 31C56 6 67 -9 86 -9C121 -9 156 11 234 74L265 99L255 117L210 86C181 66 161 56 150 56C141 56 136 64 136 76C136 102 150 183 179 328L192 390L299 390L310 440C272 436 238 434 200 434C216 528 227 577 245 631L234 646C214 634 187 622 156 610L131 440C87 419 61 408 43 403L41 390Z" stroke="rgb(0,0,0)" stroke-opacity="1" stroke-width="8" fill="rgb(0,0,0)" fill-opacity="1"></path></g></g><g><g transform="matrix(1,0,0,1,11.045003255208371,132.67001342773438)"><path transform="matrix(0.017,0,0,-0.017,0,0)" d="M123 111C93 111 66 83 66 53C66 23 93 -5 122 -5C154 -5 182 22 182 53C182 83 154 111 123 111ZM123 456C93 456 66 428 66 398C66 368 93 340 122 340C154 340 182 367 182 397C182 428 154 456 123 456Z" stroke="rgb(0,0,0)" stroke-opacity="1" stroke-width="8" fill="rgb(0,0,0)" fill-opacity="1"></path></g></g><g><g transform="matrix(1,0,0,1,18.68001302083337,132.67001342773438)"><path transform="matrix(0.017,0,0,-0.017,0,0)" d="M374 390L318 107C317 99 305 61 305 31C305 6 316 -9 335 -9C370 -9 405 11 483 74L514 99L504 117L459 86C430 66 410 56 399 56C390 56 385 64 385 76C385 102 399 183 428 328L441 390L548 390L559 440C521 436 487 434 449 434C465 528 476 577 494 631L483 646C463 634 436 622 405 610L380 440C336 419 310 408 292 403L290 390ZM615 388L622 368L654 389C691 412 694 414 701 414C711 414 719 404 719 391C719 384 715 361 711 347L645 107C637 76 632 49 632 30C632 6 643 -9 662 -9C688 -9 724 12 822 85L812 103L786 86C757 67 734 56 725 56C718 56 712 66 712 76C712 86 714 95 719 116L796 420C800 437 802 448 802 456C802 473 793 482 777 482C755 482 718 461 643 408ZM809 712C780 712 751 679 751 645C751 620 766 604 790 604C821 604 845 633 845 671C845 695 830 712 809 712ZM1186 111L1162 94C1109 56 1061 36 1025 36C978 36 949 73 949 133C949 158 952 185 957 214C974 218 1083 248 1108 259C1193 296 1232 342 1232 404C1232 451 1198 482 1148 482C1080 496 970 423 933 349C903 299 873 180 873 113C873 35 917 -11 989 -11C1046 -11 1102 17 1194 92ZM971 274C988 343 1008 386 1037 412C1055 428 1086 440 1110 440C1139 440 1158 420 1158 388C1158 344 1123 297 1071 272C1043 258 1007 247 962 237ZM1976 103L1950 86C1921 67 1899 56 1889 56C1882 56 1876 65 1876 76C1876 86 1878 95 1883 116L1958 413C1962 430 1965 446 1965 454C1965 471 1955 482 1939 482C1910 482 1872 464 1811 421C1748 376 1713 341 1664 272L1694 409C1698 429 1701 444 1701 451C1701 470 1691 482 1675 482C1645 482 1599 460 1544 418C1500 384 1480 363 1415 275L1448 408C1452 424 1454 439 1454 451C1454 470 1445 482 1431 482C1410 482 1372 461 1298 408L1270 388L1277 368C1314 391 1349 414 1356 414C1367 414 1374 404 1374 389C1374 338 1333 145 1292 2L1295 -9L1363 6L1385 108C1409 219 1436 278 1491 338C1533 384 1578 414 1606 414C1613 414 1617 406 1617 393C1617 358 1595 244 1554 69L1538 2L1543 -9L1612 6L1633 113C1649 194 1683 269 1727 318C1782 379 1832 414 1864 414C1872 414 1877 405 1877 389C1877 365 1874 351 1852 264C1812 105 1796 84 1796 31C1796 6 1807 -9 1826 -9C1852 -9 1888 12 1986 85ZM2199 -11C2255 -11 2370 62 2413 125C2454 186 2488 296 2488 371C2488 438 2465 482 2429 482C2387 482 2334 456 2282 409C2241 374 2221 348 2185 289L2209 408C2212 425 2214 440 2214 452C2214 471 2206 482 2192 482C2171 482 2133 461 2059 408L2031 388L2038 368L2070 389C2098 407 2109 412 2118 412C2128 412 2135 403 2135 389C2135 381 2133 361 2131 351L2073 8C2063 -52 2044 -143 2024 -233L2016 -270L2023 -276C2044 -269 2064 -264 2096 -259L2138 3C2159 -4 2181 -11 2199 -11ZM2166 165C2188 293 2295 424 2378 424C2404 424 2416 402 2416 356C2416 275 2376 156 2323 80C2303 51 2271 36 2230 36C2199 36 2174 43 2148 59ZM2539 152C2539 46 2584 -11 2667 -11C2722 -11 2782 15 2827 57C2889 116 2933 230 2933 331C2933 425 2883 482 2800 482C2696 482 2539 382 2539 152ZM2763 444C2824 444 2857 399 2857 315C2857 219 2826 113 2782 60C2764 39 2738 27 2707 27C2649 27 2615 72 2615 151C2615 264 2654 387 2703 427C2716 438 2739 444 2763 444Z" stroke="rgb(0,0,0)" stroke-opacity="1" stroke-width="8" fill="rgb(0,0,0)" fill-opacity="1"></path></g></g></g></g></svg>