<svg xmlns="http://www.w3.org/2000/svg" xmlns:xlink="http://www.w3.org/1999/xlink" width="155.0050048828125" height="110.125" style="width:155.0050048828125px;height:110.125px;font-family:Asana-Math, Asana;background:#FFF;"><g><g><g><g transform="matrix(1,0,0,1,2,18.954996744791668)"><path transform="matrix(0.017,0,0,-0.017,0,0)" d="M1660 420C1681 420 1697 421 1723 424C1612 304 1570 221 1570 121C1570 44 1616 -11 1680 -11C1818 -11 1971 236 1971 384C1971 441 1945 482 1909 482C1896 482 1884 478 1876 470L1826 423L1837 404C1846 410 1855 413 1864 413C1891 413 1907 390 1907 350C1907 202 1810 39 1722 39C1673 39 1642 81 1642 146C1642 251 1681 342 1779 464L1769 482C1749 473 1736 470 1708 470C1680 470 1638 472 1609 475L1597 476C1591 477 1586 477 1585 477C1573 477 1564 475 1553 470C1539 443 1528 407 1515 352L1537 352L1554 394C1561 411 1581 422 1605 422C1638 422 1622 420 1660 420Z" stroke="rgb(0,0,0)" stroke-opacity="1" stroke-width="8" fill="rgb(0,0,0)" fill-opacity="1"></path></g></g><g><g><g><g><g transform="matrix(1,0,0,1,36.844970703125,13.9)"><path transform="matrix(0.0119,0,0,-0.0119,0,0)" d="M16 23L16 -3C203 -3 203 0 239 0C275 0 275 -3 468 -3L468 82C353 77 307 81 122 77L304 270C401 373 431 428 431 503C431 618 353 689 226 689C154 689 105 669 56 619L39 483L68 483L81 529C97 587 133 612 200 612C286 612 341 558 341 473C341 398 299 324 186 204Z" stroke="rgb(0,0,0)" stroke-opacity="1" stroke-width="8" fill="rgb(0,0,0)" fill-opacity="1"></path></g></g></g></g><g><g><g><g transform="matrix(1,0,0,1,36.379964192708314,24.564998372395834)"><path transform="matrix(0.0119,0,0,-0.0119,0,0)" d="M345 437L329 437L350 549C366 635 394 673 440 673C470 673 497 658 512 634L522 638C527 654 537 685 545 705L550 720C534 727 503 733 480 733C469 733 453 730 445 726C421 715 339 654 316 630C294 608 282 578 271 521L256 442C215 422 195 414 170 405L165 383L246 383L237 327C207 132 170 -54 148 -123C130 -182 100 -213 64 -213C41 -213 30 -206 12 -184L-2 -188C-6 -211 -20 -259 -25 -268C-16 -273 -1 -276 10 -276C51 -276 105 -245 144 -198C215 -114 235 -18 319 383L423 383C427 402 434 425 440 439L436 446C407 439 408 437 345 437Z" stroke="rgb(0,0,0)" stroke-opacity="1" stroke-width="8" fill="rgb(0,0,0)" fill-opacity="1"></path></g></g></g></g></g><g><g transform="matrix(1,0,0,1,49.054931640625,18.954996744791668)"><path transform="matrix(0.017,0,0,-0.017,0,0)" d="M604 347L604 406L65 406L65 347ZM604 134L604 193L65 193L65 134Z" stroke="rgb(0,0,0)" stroke-opacity="1" stroke-width="8" fill="rgb(0,0,0)" fill-opacity="1"></path></g></g><g><g transform="matrix(1,0,0,1,65.510009765625,18.954996744791668)"><path transform="matrix(0.017,0,0,-0.017,0,0)" d="M166 420C187 420 203 421 229 424C118 304 76 221 76 121C76 44 122 -11 186 -11C324 -11 477 236 477 384C477 441 451 482 415 482C402 482 390 478 382 470L332 423L343 404C352 410 361 413 370 413C397 413 413 390 413 350C413 202 316 39 228 39C179 39 148 81 148 146C148 251 187 342 285 464L275 482C255 473 242 470 214 470C186 470 144 472 115 475L103 476C97 477 92 477 91 477C79 477 70 475 59 470C45 443 34 407 21 352L43 352L60 394C67 411 87 422 111 422C144 422 128 420 166 420Z" stroke="rgb(0,0,0)" stroke-opacity="1" stroke-width="8" fill="rgb(0,0,0)" fill-opacity="1"></path></g></g><g><g><g><g><g transform="matrix(1,0,0,1,74.97493489583331,13.9)"><path transform="matrix(0.0119,0,0,-0.0119,0,0)" d="M16 23L16 -3C203 -3 203 0 239 0C275 0 275 -3 468 -3L468 82C353 77 307 81 122 77L304 270C401 373 431 428 431 503C431 618 353 689 226 689C154 689 105 669 56 619L39 483L68 483L81 529C97 587 133 612 200 612C286 612 341 558 341 473C341 398 299 324 186 204Z" stroke="rgb(0,0,0)" stroke-opacity="1" stroke-width="8" fill="rgb(0,0,0)" fill-opacity="1"></path></g></g></g></g><g><g><g><g transform="matrix(1,0,0,1,74.510009765625,24.564998372395834)"><path transform="matrix(0.0119,0,0,-0.0119,0,0)" d="M34 388L41 368L73 389C110 412 113 414 120 414C130 414 138 404 138 391C138 384 134 361 130 347L64 107C56 76 51 49 51 30C51 6 62 -9 81 -9C107 -9 143 12 241 85L231 103L205 86C176 67 153 56 144 56C137 56 131 66 131 76C131 86 133 95 138 116L215 420C219 437 221 448 221 456C221 473 212 482 196 482C174 482 137 461 62 408ZM228 712C199 712 170 679 170 645C170 620 185 604 209 604C240 604 264 633 264 671C264 695 249 712 228 712Z" stroke="rgb(0,0,0)" stroke-opacity="1" stroke-width="8" fill="rgb(0,0,0)" fill-opacity="1"></path></g></g></g></g></g><g><g transform="matrix(1,0,0,1,85.324951171875,18.954996744791668)"><path transform="matrix(0.017,0,0,-0.017,0,0)" d="M604 241L604 300L364 300L364 538L305 538L305 300L65 300L65 241L305 241L305 0L364 0L364 241Z" stroke="rgb(0,0,0)" stroke-opacity="1" stroke-width="8" fill="rgb(0,0,0)" fill-opacity="1"></path></g></g><g><g transform="matrix(1,0,0,1,100.06998697916663,18.954996744791668)"><path transform="matrix(0.017,0,0,-0.017,0,0)" d="M16 23L16 -3C203 -3 203 0 239 0C275 0 275 -3 468 -3L468 82C353 77 307 81 122 77L304 270C401 373 431 428 431 503C431 618 353 689 226 689C154 689 105 669 56 619L39 483L68 483L81 529C97 587 133 612 200 612C286 612 341 558 341 473C341 398 299 324 186 204ZM770 204L741 77C737 60 735 42 735 26C735 4 744 -9 759 -9C782 -9 823 17 905 85L898 106C874 86 845 59 823 59C814 59 808 68 808 82C808 87 808 90 809 93L901 472L891 481L858 463C817 478 800 482 773 482C745 482 725 477 698 464C636 433 603 403 578 354C534 265 503 145 503 67C503 23 518 -11 537 -11C574 -11 654 41 770 204ZM818 414C796 305 777 253 743 201C686 117 625 59 593 59C581 59 575 72 575 99C575 163 603 280 638 360C662 415 685 433 733 433C756 433 774 429 818 414ZM1425 722L1413 733C1361 707 1325 698 1253 691L1249 670L1297 670C1321 670 1331 663 1331 646C1331 638 1330 629 1329 622L1301 468C1271 477 1244 482 1219 482C1150 482 1056 410 1010 323C979 265 959 170 959 86C959 21 974 -11 1003 -11C1030 -11 1067 6 1101 33C1155 77 1188 116 1255 217L1232 126C1221 82 1216 50 1216 24C1216 3 1225 -9 1242 -9C1259 -9 1283 3 1317 28L1398 88L1388 107L1344 76C1330 66 1314 59 1305 59C1297 59 1291 68 1291 82C1291 90 1292 99 1299 128ZM1056 59C1040 59 1031 73 1031 98C1031 224 1077 380 1126 418C1139 428 1158 433 1185 433C1229 433 1258 427 1291 410L1279 351C1242 171 1101 59 1056 59Z" stroke="rgb(0,0,0)" stroke-opacity="1" stroke-width="8" fill="rgb(0,0,0)" fill-opacity="1"></path></g></g></g><g></g><g><g><g transform="matrix(1,0,0,1,2,62.305002848307296)"><path transform="matrix(0.017,0,0,-0.017,0,0)" d="M166 420C187 420 203 421 229 424C118 304 76 221 76 121C76 44 122 -11 186 -11C324 -11 477 236 477 384C477 441 451 482 415 482C402 482 390 478 382 470L332 423L343 404C352 410 361 413 370 413C397 413 413 390 413 350C413 202 316 39 228 39C179 39 148 81 148 146C148 251 187 342 285 464L275 482C255 473 242 470 214 470C186 470 144 472 115 475L103 476C97 477 92 477 91 477C79 477 70 475 59 470C45 443 34 407 21 352L43 352L60 394C67 411 87 422 111 422C144 422 128 420 166 420Z" stroke="rgb(0,0,0)" stroke-opacity="1" stroke-width="8" fill="rgb(0,0,0)" fill-opacity="1"></path></g></g><g><g><g><g><g transform="matrix(1,0,0,1,11,66.26500040690104)"><path transform="matrix(0.0119,0,0,-0.0119,0,0)" d="M34 388L41 368L73 389C110 412 113 414 120 414C130 414 138 404 138 391C138 384 134 361 130 347L64 107C56 76 51 49 51 30C51 6 62 -9 81 -9C107 -9 143 12 241 85L231 103L205 86C176 67 153 56 144 56C137 56 131 66 131 76C131 86 133 95 138 116L215 420C219 437 221 448 221 456C221 473 212 482 196 482C174 482 137 461 62 408ZM228 712C199 712 170 679 170 645C170 620 185 604 209 604C240 604 264 633 264 671C264 695 249 712 228 712Z" stroke="rgb(0,0,0)" stroke-opacity="1" stroke-width="8" fill="rgb(0,0,0)" fill-opacity="1"></path></g></g></g></g></g><g><g transform="matrix(1,0,0,1,18.7099609375,62.305002848307296)"><path transform="matrix(0.017,0,0,-0.017,0,0)" d="M123 111C93 111 66 83 66 53C66 23 93 -5 122 -5C154 -5 182 22 182 53C182 83 154 111 123 111ZM123 456C93 456 66 428 66 398C66 368 93 340 122 340C154 340 182 367 182 397C182 428 154 456 123 456Z" stroke="rgb(0,0,0)" stroke-opacity="1" stroke-width="8" fill="rgb(0,0,0)" fill-opacity="1"></path></g></g><g><g transform="matrix(1,0,0,1,26.344970703125,62.305002848307296)"><path transform="matrix(0.017,0,0,-0.017,0,0)" d="M415 420C436 420 452 421 478 424C367 304 325 221 325 121C325 44 371 -11 435 -11C573 -11 726 236 726 384C726 441 700 482 664 482C651 482 639 478 631 470L581 423L592 404C601 410 610 413 619 413C646 413 662 390 662 350C662 202 565 39 477 39C428 39 397 81 397 146C397 251 436 342 534 464L524 482C504 473 491 470 463 470C435 470 393 472 364 475L352 476C346 477 341 477 340 477C328 477 319 475 308 470C294 443 283 407 270 352L292 352L309 394C316 411 336 422 360 422C393 422 377 420 415 420ZM1076 111L1052 94C999 56 951 36 915 36C868 36 839 73 839 133C839 158 842 185 847 214C864 218 973 248 998 259C1083 296 1122 342 1122 404C1122 451 1088 482 1038 482C970 496 860 423 823 349C793 299 763 180 763 113C763 35 807 -11 879 -11C936 -11 992 17 1084 92ZM861 274C878 343 898 386 927 412C945 428 976 440 1000 440C1029 440 1048 420 1048 388C1048 344 1013 297 961 272C933 258 897 247 852 237ZM1387 722L1375 733C1323 707 1287 698 1215 691L1211 670L1259 670C1283 670 1293 663 1293 648C1293 645 1293 640 1290 622C1279 567 1206 182 1191 132C1178 82 1172 52 1172 31C1172 6 1183 -9 1202 -9C1228 -9 1264 12 1362 85L1352 103L1326 86C1297 67 1275 56 1265 56C1258 56 1252 66 1252 76C1252 82 1253 89 1256 104ZM1430 152C1430 46 1475 -11 1558 -11C1613 -11 1673 15 1718 57C1780 116 1824 230 1824 331C1824 425 1774 482 1691 482C1587 482 1430 382 1430 152ZM1654 444C1715 444 1748 399 1748 315C1748 219 1717 113 1673 60C1655 39 1629 27 1598 27C1540 27 1506 72 1506 151C1506 264 1545 387 1594 427C1607 438 1630 444 1654 444ZM2198 330L2221 330C2229 395 2236 432 2245 458C2221 473 2186 482 2149 482C2104 483 2031 463 1974 400C1920 352 1881 241 1881 136C1881 40 1923 -11 2003 -11C2057 -11 2105 9 2160 54L2210 95L2202 115L2187 105C2115 57 2077 40 2042 40C1986 40 1957 80 1957 159C1957 267 1992 371 2041 409C2062 425 2086 433 2117 433C2162 433 2198 414 2198 390ZM2296 388L2303 368L2335 389C2372 412 2375 414 2382 414C2392 414 2400 404 2400 391C2400 384 2396 361 2392 347L2326 107C2318 76 2313 49 2313 30C2313 6 2324 -9 2343 -9C2369 -9 2405 12 2503 85L2493 103L2467 86C2438 67 2415 56 2406 56C2399 56 2393 66 2393 76C2393 86 2395 95 2400 116L2477 420C2481 437 2483 448 2483 456C2483 473 2474 482 2458 482C2436 482 2399 461 2324 408ZM2490 712C2461 712 2432 679 2432 645C2432 620 2447 604 2471 604C2502 604 2526 633 2526 671C2526 695 2511 712 2490 712ZM3022 722L3010 733C2958 707 2922 698 2850 691L2846 670L2894 670C2918 670 2928 663 2928 646C2928 638 2927 629 2926 622L2898 468C2868 477 2841 482 2816 482C2747 482 2653 410 2607 323C2576 265 2556 170 2556 86C2556 21 2571 -11 2600 -11C2627 -11 2664 6 2698 33C2752 77 2785 116 2852 217L2829 126C2818 82 2813 50 2813 24C2813 3 2822 -9 2839 -9C2856 -9 2880 3 2914 28L2995 88L2985 107L2941 76C2927 66 2911 59 2902 59C2894 59 2888 68 2888 82C2888 90 2889 99 2896 128ZM2653 59C2637 59 2628 73 2628 98C2628 224 2674 380 2723 418C2736 428 2755 433 2782 433C2826 433 2855 427 2888 410L2876 351C2839 171 2698 59 2653 59ZM3309 204L3280 77C3276 60 3274 42 3274 26C3274 4 3283 -9 3298 -9C3321 -9 3362 17 3444 85L3437 106C3413 86 3384 59 3362 59C3353 59 3347 68 3347 82C3347 87 3347 90 3348 93L3440 472L3430 481L3397 463C3356 478 3339 482 3312 482C3284 482 3264 477 3237 464C3175 433 3142 403 3117 354C3073 265 3042 145 3042 67C3042 23 3057 -11 3076 -11C3113 -11 3193 41 3309 204ZM3357 414C3335 305 3316 253 3282 201C3225 117 3164 59 3132 59C3120 59 3114 72 3114 99C3114 163 3142 280 3177 360C3201 415 3224 433 3272 433C3295 433 3313 429 3357 414ZM3964 722L3952 733C3900 707 3864 698 3792 691L3788 670L3836 670C3860 670 3870 663 3870 646C3870 638 3869 629 3868 622L3840 468C3810 477 3783 482 3758 482C3689 482 3595 410 3549 323C3518 265 3498 170 3498 86C3498 21 3513 -11 3542 -11C3569 -11 3606 6 3640 33C3694 77 3727 116 3794 217L3771 126C3760 82 3755 50 3755 24C3755 3 3764 -9 3781 -9C3798 -9 3822 3 3856 28L3937 88L3927 107L3883 76C3869 66 3853 59 3844 59C3836 59 3830 68 3830 82C3830 90 3831 99 3838 128ZM3595 59C3579 59 3570 73 3570 98C3570 224 3616 380 3665 418C3678 428 3697 433 3724 433C3768 433 3797 427 3830 410L3818 351C3781 171 3640 59 3595 59ZM4263 388L4270 368L4302 389C4339 412 4342 414 4349 414C4359 414 4367 404 4367 391C4367 384 4363 361 4359 347L4293 107C4285 76 4280 49 4280 30C4280 6 4291 -9 4310 -9C4336 -9 4372 12 4470 85L4460 103L4434 86C4405 67 4382 56 4373 56C4366 56 4360 66 4360 76C4360 86 4362 95 4367 116L4444 420C4448 437 4450 448 4450 456C4450 473 4441 482 4425 482C4403 482 4366 461 4291 408ZM4457 712C4428 712 4399 679 4399 645C4399 620 4414 604 4438 604C4469 604 4493 633 4493 671C4493 695 4478 712 4457 712ZM4530 388L4537 368L4569 389C4606 412 4609 414 4616 414C4627 414 4634 404 4634 389C4634 338 4593 145 4552 2L4559 -9C4584 -2 4607 4 4629 8C4648 134 4669 199 4715 268C4769 352 4844 414 4889 414C4900 414 4906 405 4906 390C4906 372 4903 351 4895 319L4843 107C4834 70 4830 47 4830 31C4830 6 4841 -9 4860 -9C4886 -9 4922 12 5020 85L5010 103L4984 86C4955 67 4933 56 4923 56C4916 56 4910 65 4910 76C4910 81 4911 92 4912 96L4978 372C4985 401 4989 429 4989 446C4989 469 4978 482 4958 482C4916 482 4847 444 4788 389C4750 354 4722 320 4670 247L4708 408C4712 426 4714 438 4714 449C4714 470 4706 482 4691 482C4670 482 4631 460 4558 408ZM5095 388L5102 368L5134 389C5171 412 5174 414 5181 414C5191 414 5199 404 5199 391C5199 384 5195 361 5191 347L5125 107C5117 76 5112 49 5112 30C5112 6 5123 -9 5142 -9C5168 -9 5204 12 5302 85L5292 103L5266 86C5237 67 5214 56 5205 56C5198 56 5192 66 5192 76C5192 86 5194 95 5199 116L5276 420C5280 437 5282 448 5282 456C5282 473 5273 482 5257 482C5235 482 5198 461 5123 408ZM5289 712C5260 712 5231 679 5231 645C5231 620 5246 604 5270 604C5301 604 5325 633 5325 671C5325 695 5310 712 5289 712ZM5680 330L5703 330C5711 395 5718 432 5727 458C5703 473 5668 482 5631 482C5586 483 5513 463 5456 400C5402 352 5363 241 5363 136C5363 40 5405 -11 5485 -11C5539 -11 5587 9 5642 54L5692 95L5684 115L5669 105C5597 57 5559 40 5524 40C5468 40 5439 80 5439 159C5439 267 5474 371 5523 409C5544 425 5568 433 5599 433C5644 433 5680 414 5680 390ZM5778 388L5785 368L5817 389C5854 412 5857 414 5864 414C5874 414 5882 404 5882 391C5882 384 5878 361 5874 347L5808 107C5800 76 5795 49 5795 30C5795 6 5806 -9 5825 -9C5851 -9 5887 12 5985 85L5975 103L5949 86C5920 67 5897 56 5888 56C5881 56 5875 66 5875 76C5875 86 5877 95 5882 116L5959 420C5963 437 5965 448 5965 456C5965 473 5956 482 5940 482C5918 482 5881 461 5806 408ZM5972 712C5943 712 5914 679 5914 645C5914 620 5929 604 5953 604C5984 604 6008 633 6008 671C6008 695 5993 712 5972 712ZM6292 204L6263 77C6259 60 6257 42 6257 26C6257 4 6266 -9 6281 -9C6304 -9 6345 17 6427 85L6420 106C6396 86 6367 59 6345 59C6336 59 6330 68 6330 82C6330 87 6330 90 6331 93L6423 472L6413 481L6380 463C6339 478 6322 482 6295 482C6267 482 6247 477 6220 464C6158 433 6125 403 6100 354C6056 265 6025 145 6025 67C6025 23 6040 -11 6059 -11C6096 -11 6176 41 6292 204ZM6340 414C6318 305 6299 253 6265 201C6208 117 6147 59 6115 59C6103 59 6097 72 6097 99C6097 163 6125 280 6160 360C6184 415 6207 433 6255 433C6278 433 6296 429 6340 414ZM6715 722L6703 733C6651 707 6615 698 6543 691L6539 670L6587 670C6611 670 6621 663 6621 648C6621 645 6621 640 6618 622C6607 567 6534 182 6519 132C6506 82 6500 52 6500 31C6500 6 6511 -9 6530 -9C6556 -9 6592 12 6690 85L6680 103L6654 86C6625 67 6603 56 6593 56C6586 56 6580 66 6580 76C6580 82 6581 89 6584 104Z" stroke="rgb(0,0,0)" stroke-opacity="1" stroke-width="8" fill="rgb(0,0,0)" fill-opacity="1"></path></g></g></g><g><g><g transform="matrix(1,0,0,1,2,83.84500122070312)"><path transform="matrix(0.017,0,0,-0.017,0,0)" d="M271 204L242 77C238 60 236 42 236 26C236 4 245 -9 260 -9C283 -9 324 17 406 85L399 106C375 86 346 59 324 59C315 59 309 68 309 82C309 87 309 90 310 93L402 472L392 481L359 463C318 478 301 482 274 482C246 482 226 477 199 464C137 433 104 403 79 354C35 265 4 145 4 67C4 23 19 -11 38 -11C75 -11 155 41 271 204ZM319 414C297 305 278 253 244 201C187 117 126 59 94 59C82 59 76 72 76 99C76 163 104 280 139 360C163 415 186 433 234 433C257 433 275 429 319 414Z" stroke="rgb(0,0,0)" stroke-opacity="1" stroke-width="8" fill="rgb(0,0,0)" fill-opacity="1"></path></g></g><g><g transform="matrix(1,0,0,1,12.920003255208314,83.84500122070312)"><path transform="matrix(0.017,0,0,-0.017,0,0)" d="M123 111C93 111 66 83 66 53C66 23 93 -5 122 -5C154 -5 182 22 182 53C182 83 154 111 123 111ZM123 456C93 456 66 428 66 398C66 368 93 340 122 340C154 340 182 367 182 397C182 428 154 456 123 456Z" stroke="rgb(0,0,0)" stroke-opacity="1" stroke-width="8" fill="rgb(0,0,0)" fill-opacity="1"></path></g></g><g><g transform="matrix(1,0,0,1,20.554931640625,83.84500122070312)"><path transform="matrix(0.017,0,0,-0.017,0,0)" d="M520 204L491 77C487 60 485 42 485 26C485 4 494 -9 509 -9C532 -9 573 17 655 85L648 106C624 86 595 59 573 59C564 59 558 68 558 82C558 87 558 90 559 93L651 472L641 481L608 463C567 478 550 482 523 482C495 482 475 477 448 464C386 433 353 403 328 354C284 265 253 145 253 67C253 23 268 -11 287 -11C324 -11 404 41 520 204ZM568 414C546 305 527 253 493 201C436 117 375 59 343 59C331 59 325 72 325 99C325 163 353 280 388 360C412 415 435 433 483 433C506 433 524 429 568 414ZM1034 330L1057 330C1065 395 1072 432 1081 458C1057 473 1022 482 985 482C940 483 867 463 810 400C756 352 717 241 717 136C717 40 759 -11 839 -11C893 -11 941 9 996 54L1046 95L1038 115L1023 105C951 57 913 40 878 40C822 40 793 80 793 159C793 267 828 371 877 409C898 425 922 433 953 433C998 433 1034 414 1034 390ZM1426 111L1402 94C1349 56 1301 36 1265 36C1218 36 1189 73 1189 133C1189 158 1192 185 1197 214C1214 218 1323 248 1348 259C1433 296 1472 342 1472 404C1472 451 1438 482 1388 482C1320 496 1210 423 1173 349C1143 299 1113 180 1113 113C1113 35 1157 -11 1229 -11C1286 -11 1342 17 1434 92ZM1211 274C1228 343 1248 386 1277 412C1295 428 1326 440 1350 440C1379 440 1398 420 1398 388C1398 344 1363 297 1311 272C1283 258 1247 247 1202 237ZM1737 722L1725 733C1673 707 1637 698 1565 691L1561 670L1609 670C1633 670 1643 663 1643 648C1643 645 1643 640 1640 622C1629 567 1556 182 1541 132C1528 82 1522 52 1522 31C1522 6 1533 -9 1552 -9C1578 -9 1614 12 1712 85L1702 103L1676 86C1647 67 1625 56 1615 56C1608 56 1602 66 1602 76C1602 82 1603 89 1606 104ZM2091 111L2067 94C2014 56 1966 36 1930 36C1883 36 1854 73 1854 133C1854 158 1857 185 1862 214C1879 218 1988 248 2013 259C2098 296 2137 342 2137 404C2137 451 2103 482 2053 482C1985 496 1875 423 1838 349C1808 299 1778 180 1778 113C1778 35 1822 -11 1894 -11C1951 -11 2007 17 2099 92ZM1876 274C1893 343 1913 386 1942 412C1960 428 1991 440 2015 440C2044 440 2063 420 2063 388C2063 344 2028 297 1976 272C1948 258 1912 247 1867 237ZM2519 365C2522 403 2527 435 2535 476C2524 481 2520 482 2515 482C2484 482 2453 458 2417 407C2378 351 2339 291 2323 256L2355 408C2359 425 2361 438 2361 450C2361 470 2353 482 2338 482C2317 482 2279 461 2205 408L2177 388L2184 368L2216 389C2244 407 2255 412 2264 412C2274 412 2281 403 2281 390C2281 332 2238 126 2198 -2L2208 -9C2223 -4 2239 -1 2262 4L2275 6L2301 126C2319 209 2342 262 2386 319C2420 363 2447 384 2469 384C2484 384 2494 379 2505 365ZM2810 204L2781 77C2777 60 2775 42 2775 26C2775 4 2784 -9 2799 -9C2822 -9 2863 17 2945 85L2938 106C2914 86 2885 59 2863 59C2854 59 2848 68 2848 82C2848 87 2848 90 2849 93L2941 472L2931 481L2898 463C2857 478 2840 482 2813 482C2785 482 2765 477 2738 464C2676 433 2643 403 2618 354C2574 265 2543 145 2543 67C2543 23 2558 -11 2577 -11C2614 -11 2694 41 2810 204ZM2858 414C2836 305 2817 253 2783 201C2726 117 2665 59 2633 59C2621 59 2615 72 2615 99C2615 163 2643 280 2678 360C2702 415 2725 433 2773 433C2796 433 2814 429 2858 414ZM3324 330L3347 330C3355 395 3362 432 3371 458C3347 473 3312 482 3275 482C3230 483 3157 463 3100 400C3046 352 3007 241 3007 136C3007 40 3049 -11 3129 -11C3183 -11 3231 9 3286 54L3336 95L3328 115L3313 105C3241 57 3203 40 3168 40C3112 40 3083 80 3083 159C3083 267 3118 371 3167 409C3188 425 3212 433 3243 433C3288 433 3324 414 3324 390ZM3422 388L3429 368L3461 389C3498 412 3501 414 3508 414C3518 414 3526 404 3526 391C3526 384 3522 361 3518 347L3452 107C3444 76 3439 49 3439 30C3439 6 3450 -9 3469 -9C3495 -9 3531 12 3629 85L3619 103L3593 86C3564 67 3541 56 3532 56C3525 56 3519 66 3519 76C3519 86 3521 95 3526 116L3603 420C3607 437 3609 448 3609 456C3609 473 3600 482 3584 482C3562 482 3525 461 3450 408ZM3616 712C3587 712 3558 679 3558 645C3558 620 3573 604 3597 604C3628 604 3652 633 3652 671C3652 695 3637 712 3616 712ZM3682 152C3682 46 3727 -11 3810 -11C3865 -11 3925 15 3970 57C4032 116 4076 230 4076 331C4076 425 4026 482 3943 482C3839 482 3682 382 3682 152ZM3906 444C3967 444 4000 399 4000 315C4000 219 3969 113 3925 60C3907 39 3881 27 3850 27C3792 27 3758 72 3758 151C3758 264 3797 387 3846 427C3859 438 3882 444 3906 444ZM4132 388L4139 368L4171 389C4208 412 4211 414 4218 414C4229 414 4236 404 4236 389C4236 338 4195 145 4154 2L4161 -9C4186 -2 4209 4 4231 8C4250 134 4271 199 4317 268C4371 352 4446 414 4491 414C4502 414 4508 405 4508 390C4508 372 4505 351 4497 319L4445 107C4436 70 4432 47 4432 31C4432 6 4443 -9 4462 -9C4488 -9 4524 12 4622 85L4612 103L4586 86C4557 67 4535 56 4525 56C4518 56 4512 65 4512 76C4512 81 4513 92 4514 96L4580 372C4587 401 4591 429 4591 446C4591 469 4580 482 4560 482C4518 482 4449 444 4390 389C4352 354 4324 320 4272 247L4310 408C4314 426 4316 438 4316 449C4316 470 4308 482 4293 482C4272 482 4233 460 4160 408Z" stroke="rgb(0,0,0)" stroke-opacity="1" stroke-width="8" fill="rgb(0,0,0)" fill-opacity="1"></path></g></g></g><g><g><g transform="matrix(1,0,0,1,2,104.00499471028645)"><path transform="matrix(0.017,0,0,-0.017,0,0)" d="M483 722L471 733C419 707 383 698 311 691L307 670L355 670C379 670 389 663 389 646C389 638 388 629 387 622L359 468C329 477 302 482 277 482C208 482 114 410 68 323C37 265 17 170 17 86C17 21 32 -11 61 -11C88 -11 125 6 159 33C213 77 246 116 313 217L290 126C279 82 274 50 274 24C274 3 283 -9 300 -9C317 -9 341 3 375 28L456 88L446 107L402 76C388 66 372 59 363 59C355 59 349 68 349 82C349 90 350 99 357 128ZM114 59C98 59 89 73 89 98C89 224 135 380 184 418C197 428 216 433 243 433C287 433 316 427 349 410L337 351C300 171 159 59 114 59Z" stroke="rgb(0,0,0)" stroke-opacity="1" stroke-width="8" fill="rgb(0,0,0)" fill-opacity="1"></path></g></g><g><g transform="matrix(1,0,0,1,13.879964192708314,104.00499471028645)"><path transform="matrix(0.017,0,0,-0.017,0,0)" d="M123 111C93 111 66 83 66 53C66 23 93 -5 122 -5C154 -5 182 22 182 53C182 83 154 111 123 111ZM123 456C93 456 66 428 66 398C66 368 93 340 122 340C154 340 182 367 182 397C182 428 154 456 123 456Z" stroke="rgb(0,0,0)" stroke-opacity="1" stroke-width="8" fill="rgb(0,0,0)" fill-opacity="1"></path></g></g><g><g transform="matrix(1,0,0,1,21.514973958333314,104.00499471028645)"><path transform="matrix(0.017,0,0,-0.017,0,0)" d="M732 722L720 733C668 707 632 698 560 691L556 670L604 670C628 670 638 663 638 646C638 638 637 629 636 622L608 468C578 477 551 482 526 482C457 482 363 410 317 323C286 265 266 170 266 86C266 21 281 -11 310 -11C337 -11 374 6 408 33C462 77 495 116 562 217L539 126C528 82 523 50 523 24C523 3 532 -9 549 -9C566 -9 590 3 624 28L705 88L695 107L651 76C637 66 621 59 612 59C604 59 598 68 598 82C598 90 599 99 606 128ZM363 59C347 59 338 73 338 98C338 224 384 380 433 418C446 428 465 433 492 433C536 433 565 427 598 410L586 351C549 171 408 59 363 59ZM782 388L789 368L821 389C858 412 861 414 868 414C878 414 886 404 886 391C886 384 882 361 878 347L812 107C804 76 799 49 799 30C799 6 810 -9 829 -9C855 -9 891 12 989 85L979 103L953 86C924 67 901 56 892 56C885 56 879 66 879 76C879 86 881 95 886 116L963 420C967 437 969 448 969 456C969 473 960 482 944 482C922 482 885 461 810 408ZM976 712C947 712 918 679 918 645C918 620 933 604 957 604C988 604 1012 633 1012 671C1012 695 997 712 976 712ZM1056 148C1051 97 1045 62 1034 16C1072 -2 1106 -11 1141 -11C1190 -11 1236 7 1287 47C1338 87 1359 124 1359 174C1359 228 1327 257 1253 271L1210 279C1150 290 1131 307 1131 348C1131 401 1176 442 1233 442C1274 442 1312 424 1328 397L1328 342L1351 342C1355 377 1359 404 1370 455C1331 474 1303 482 1270 482C1218 482 1157 452 1109 404C1083 377 1072 352 1072 316C1072 260 1103 228 1169 215L1232 203C1276 195 1292 177 1292 138C1292 73 1246 29 1175 29C1140 29 1109 40 1081 64L1081 148ZM1538 390L1482 107C1481 99 1469 61 1469 31C1469 6 1480 -9 1499 -9C1534 -9 1569 11 1647 74L1678 99L1668 117L1623 86C1594 66 1574 56 1563 56C1554 56 1549 64 1549 76C1549 102 1563 183 1592 328L1605 390L1712 390L1723 440C1685 436 1651 434 1613 434C1629 528 1640 577 1658 631L1647 646C1627 634 1600 622 1569 610L1544 440C1500 419 1474 408 1456 403L1454 390ZM2016 204L1987 77C1983 60 1981 42 1981 26C1981 4 1990 -9 2005 -9C2028 -9 2069 17 2151 85L2144 106C2120 86 2091 59 2069 59C2060 59 2054 68 2054 82C2054 87 2054 90 2055 93L2147 472L2137 481L2104 463C2063 478 2046 482 2019 482C1991 482 1971 477 1944 464C1882 433 1849 403 1824 354C1780 265 1749 145 1749 67C1749 23 1764 -11 1783 -11C1820 -11 1900 41 2016 204ZM2064 414C2042 305 2023 253 1989 201C1932 117 1871 59 1839 59C1827 59 1821 72 1821 99C1821 163 1849 280 1884 360C1908 415 1931 433 1979 433C2002 433 2020 429 2064 414ZM2212 388L2219 368L2251 389C2288 412 2291 414 2298 414C2309 414 2316 404 2316 389C2316 338 2275 145 2234 2L2241 -9C2266 -2 2289 4 2311 8C2330 134 2351 199 2397 268C2451 352 2526 414 2571 414C2582 414 2588 405 2588 390C2588 372 2585 351 2577 319L2525 107C2516 70 2512 47 2512 31C2512 6 2523 -9 2542 -9C2568 -9 2604 12 2702 85L2692 103L2666 86C2637 67 2615 56 2605 56C2598 56 2592 65 2592 76C2592 81 2593 92 2594 96L2660 372C2667 401 2671 429 2671 446C2671 469 2660 482 2640 482C2598 482 2529 444 2470 389C2432 354 2404 320 2352 247L2390 408C2394 426 2396 438 2396 449C2396 470 2388 482 2373 482C2352 482 2313 460 2240 408ZM3085 330L3108 330C3116 395 3123 432 3132 458C3108 473 3073 482 3036 482C2991 483 2918 463 2861 400C2807 352 2768 241 2768 136C2768 40 2810 -11 2890 -11C2944 -11 2992 9 3047 54L3097 95L3089 115L3074 105C3002 57 2964 40 2929 40C2873 40 2844 80 2844 159C2844 267 2879 371 2928 409C2949 425 2973 433 3004 433C3049 433 3085 414 3085 390ZM3183 388L3190 368L3222 389C3259 412 3262 414 3269 414C3279 414 3287 404 3287 391C3287 384 3283 361 3279 347L3213 107C3205 76 3200 49 3200 30C3200 6 3211 -9 3230 -9C3256 -9 3292 12 3390 85L3380 103L3354 86C3325 67 3302 56 3293 56C3286 56 3280 66 3280 76C3280 86 3282 95 3287 116L3364 420C3368 437 3370 448 3370 456C3370 473 3361 482 3345 482C3323 482 3286 461 3211 408ZM3377 712C3348 712 3319 679 3319 645C3319 620 3334 604 3358 604C3389 604 3413 633 3413 671C3413 695 3398 712 3377 712ZM3697 204L3668 77C3664 60 3662 42 3662 26C3662 4 3671 -9 3686 -9C3709 -9 3750 17 3832 85L3825 106C3801 86 3772 59 3750 59C3741 59 3735 68 3735 82C3735 87 3735 90 3736 93L3828 472L3818 481L3785 463C3744 478 3727 482 3700 482C3672 482 3652 477 3625 464C3563 433 3530 403 3505 354C3461 265 3430 145 3430 67C3430 23 3445 -11 3464 -11C3501 -11 3581 41 3697 204ZM3745 414C3723 305 3704 253 3670 201C3613 117 3552 59 3520 59C3508 59 3502 72 3502 99C3502 163 3530 280 3565 360C3589 415 3612 433 3660 433C3683 433 3701 429 3745 414ZM4486 365C4489 403 4494 435 4502 476C4491 481 4487 482 4482 482C4451 482 4420 458 4384 407C4345 351 4306 291 4290 256L4322 408C4326 425 4328 438 4328 450C4328 470 4320 482 4305 482C4284 482 4246 461 4172 408L4144 388L4151 368L4183 389C4211 407 4222 412 4231 412C4241 412 4248 403 4248 390C4248 332 4205 126 4165 -2L4175 -9C4190 -4 4206 -1 4229 4L4242 6L4268 126C4286 209 4309 262 4353 319C4387 363 4414 384 4436 384C4451 384 4461 379 4472 365ZM4834 111L4810 94C4757 56 4709 36 4673 36C4626 36 4597 73 4597 133C4597 158 4600 185 4605 214C4622 218 4731 248 4756 259C4841 296 4880 342 4880 404C4880 451 4846 482 4796 482C4728 496 4618 423 4581 349C4551 299 4521 180 4521 113C4521 35 4565 -11 4637 -11C4694 -11 4750 17 4842 92ZM4619 274C4636 343 4656 386 4685 412C4703 428 4734 440 4758 440C4787 440 4806 420 4806 388C4806 344 4771 297 4719 272C4691 258 4655 247 4610 237ZM5236 330L5259 330C5267 395 5274 432 5283 458C5259 473 5224 482 5187 482C5142 483 5069 463 5012 400C4958 352 4919 241 4919 136C4919 40 4961 -11 5041 -11C5095 -11 5143 9 5198 54L5248 95L5240 115L5225 105C5153 57 5115 40 5080 40C5024 40 4995 80 4995 159C4995 267 5030 371 5079 409C5100 425 5124 433 5155 433C5200 433 5236 414 5236 390ZM5317 152C5317 46 5362 -11 5445 -11C5500 -11 5560 15 5605 57C5667 116 5711 230 5711 331C5711 425 5661 482 5578 482C5474 482 5317 382 5317 152ZM5541 444C5602 444 5635 399 5635 315C5635 219 5604 113 5560 60C5542 39 5516 27 5485 27C5427 27 5393 72 5393 151C5393 264 5432 387 5481 427C5494 438 5517 444 5541 444ZM6111 365C6114 403 6119 435 6127 476C6116 481 6112 482 6107 482C6076 482 6045 458 6009 407C5970 351 5931 291 5915 256L5947 408C5951 425 5953 438 5953 450C5953 470 5945 482 5930 482C5909 482 5871 461 5797 408L5769 388L5776 368L5808 389C5836 407 5847 412 5856 412C5866 412 5873 403 5873 390C5873 332 5830 126 5790 -2L5800 -9C5815 -4 5831 -1 5854 4L5867 6L5893 126C5911 209 5934 262 5978 319C6012 363 6039 384 6061 384C6076 384 6086 379 6097 365ZM6499 365C6502 403 6507 435 6515 476C6504 481 6500 482 6495 482C6464 482 6433 458 6397 407C6358 351 6319 291 6303 256L6335 408C6339 425 6341 438 6341 450C6341 470 6333 482 6318 482C6297 482 6259 461 6185 408L6157 388L6164 368L6196 389C6224 407 6235 412 6244 412C6254 412 6261 403 6261 390C6261 332 6218 126 6178 -2L6188 -9C6203 -4 6219 -1 6242 4L6255 6L6281 126C6299 209 6322 262 6366 319C6400 363 6427 384 6449 384C6464 384 6474 379 6485 365ZM6553 388L6560 368L6592 389C6629 412 6632 414 6639 414C6649 414 6657 404 6657 391C6657 384 6653 361 6649 347L6583 107C6575 76 6570 49 6570 30C6570 6 6581 -9 6600 -9C6626 -9 6662 12 6760 85L6750 103L6724 86C6695 67 6672 56 6663 56C6656 56 6650 66 6650 76C6650 86 6652 95 6657 116L6734 420C6738 437 6740 448 6740 456C6740 473 6731 482 6715 482C6693 482 6656 461 6581 408ZM6747 712C6718 712 6689 679 6689 645C6689 620 6704 604 6728 604C6759 604 6783 633 6783 671C6783 695 6768 712 6747 712ZM7279 722L7267 733C7215 707 7179 698 7107 691L7103 670L7151 670C7175 670 7185 663 7185 646C7185 638 7184 629 7183 622L7155 468C7125 477 7098 482 7073 482C7004 482 6910 410 6864 323C6833 265 6813 170 6813 86C6813 21 6828 -11 6857 -11C6884 -11 6921 6 6955 33C7009 77 7042 116 7109 217L7086 126C7075 82 7070 50 7070 24C7070 3 7079 -9 7096 -9C7113 -9 7137 3 7171 28L7252 88L7242 107L7198 76C7184 66 7168 59 7159 59C7151 59 7145 68 7145 82C7145 90 7146 99 7153 128ZM6910 59C6894 59 6885 73 6885 98C6885 224 6931 380 6980 418C6993 428 7012 433 7039 433C7083 433 7112 427 7145 410L7133 351C7096 171 6955 59 6910 59ZM7566 204L7537 77C7533 60 7531 42 7531 26C7531 4 7540 -9 7555 -9C7578 -9 7619 17 7701 85L7694 106C7670 86 7641 59 7619 59C7610 59 7604 68 7604 82C7604 87 7604 90 7605 93L7697 472L7687 481L7654 463C7613 478 7596 482 7569 482C7541 482 7521 477 7494 464C7432 433 7399 403 7374 354C7330 265 7299 145 7299 67C7299 23 7314 -11 7333 -11C7370 -11 7450 41 7566 204ZM7614 414C7592 305 7573 253 7539 201C7482 117 7421 59 7389 59C7377 59 7371 72 7371 99C7371 163 7399 280 7434 360C7458 415 7481 433 7529 433C7552 433 7570 429 7614 414Z" stroke="rgb(0,0,0)" stroke-opacity="1" stroke-width="8" fill="rgb(0,0,0)" fill-opacity="1"></path></g></g></g></g></svg>