<svg xmlns="http://www.w3.org/2000/svg" xmlns:xlink="http://www.w3.org/1999/xlink" width="128.32000732421875" height="128.51500701904297" style="width:128.32000732421875px;height:128.51500701904297px;font-family:Asana-Math, Asana;background:#FFF;"><g><g><g><g transform="matrix(1,0,0,1,2,30.204994201660156)"><path transform="matrix(0.017,0,0,-0.017,0,0)" d="M1788 227C1788 337 1704 353 1622 365C1679 385 1704 397 1735 425C1781 464 1804 511 1804 562C1804 644 1746 692 1646 692C1644 692 1634 692 1619 691L1556 690C1544 689 1508 689 1496 689C1477 689 1446 690 1397 691L1345 692L1342 664L1395 662C1419 661 1430 653 1430 635C1430 621 1426 589 1421 559L1334 55C1330 37 1318 30 1276 23L1271 -3L1308 -2C1335 0 1350 0 1362 0C1373 0 1399 -1 1425 -2L1462 -3L1482 -4C1501 -5 1514 -6 1522 -6C1637 -6 1788 87 1788 227ZM1411 41L1462 340L1547 340C1650 340 1700 298 1700 211C1700 108 1627 34 1527 34C1473 34 1452 38 1411 41ZM1597 655C1678 655 1718 619 1718 544C1718 439 1644 376 1520 376L1468 376L1517 650C1533 650 1574 655 1597 655Z" stroke="rgb(0,0,0)" stroke-opacity="1" stroke-width="8" fill="rgb(0,0,0)" fill-opacity="1"></path></g></g><g><g transform="matrix(1,0,0,1,38.6300048828125,30.204994201660156)"><path transform="matrix(0.017,0,0,-0.017,0,0)" d="M604 347L604 406L65 406L65 347ZM604 134L604 193L65 193L65 134Z" stroke="rgb(0,0,0)" stroke-opacity="1" stroke-width="8" fill="rgb(0,0,0)" fill-opacity="1"></path></g></g><g><g transform="matrix(1,0,0,1,55.08502197265625,30.204994201660156)"><path transform="matrix(0.017,0,0,-0.017,0,0)" d="M409 -15C458 -15 530 43 565 74L565 81C562 86 558 90 553 92C531 76 472 25 461 77C461 151 506 393 533 463L533 473C511 465 488 459 465 456L455 445C453 381 421 203 395 146C372 97 311 42 254 42C199 42 184 90 185 137C188 248 238 356 241 467C213 462 187 457 161 453C179 227 9 -91 53 -286C76 -285 109 -281 131 -273L131 -261C81 -173 121 -38 138 36L138 35C204 -77 344 37 395 104L395 101C387 65 354 -15 409 -15Z" stroke="rgb(0,0,0)" stroke-opacity="1" stroke-width="8" fill="rgb(0,0,0)" fill-opacity="1"></path></g></g><g><g><g><g><g transform="matrix(1,0,0,1,65.97500610351562,34.164999389648436)"><path transform="matrix(0.0119,0,0,-0.0119,0,0)" d="M263 689C108 689 29 566 29 324C29 207 50 106 85 57C120 8 176 -20 238 -20C389 -20 465 110 465 366C465 585 400 689 263 689ZM245 654C342 654 381 556 381 316C381 103 343 15 251 15C154 15 113 116 113 360C113 571 150 654 245 654Z" stroke="rgb(0,0,0)" stroke-opacity="1" stroke-width="8" fill="rgb(0,0,0)" fill-opacity="1"></path></g></g></g></g></g><g><g><g><g><g transform="matrix(1,0,0,1,79.34002685546875,18.039993286132812)"><path transform="matrix(0.017,0,0,-0.017,0,0)" d="M103 664L150 662C174 661 185 653 185 636C185 629 179 576 176 559L104 125C89 36 86 31 46 28L10 25L7 -3L39 -3L133 0L227 -3L259 -3L262 25L210 28C184 30 174 37 174 57C174 63 175 74 176 78L265 613C272 652 277 657 316 661L351 664L354 692L248 689C231 689 213 689 170 690L106 692Z" stroke="rgb(0,0,0)" stroke-opacity="1" stroke-width="8" fill="rgb(0,0,0)" fill-opacity="1"></path></g></g></g></g><g><g><g><g transform="matrix(1,0,0,1,74.6300048828125,43.375)"><path transform="matrix(0.017,0,0,-0.017,0,0)" d="M16 23L16 -3C203 -3 203 0 239 0C275 0 275 -3 468 -3L468 82C353 77 307 81 122 77L304 270C401 373 431 428 431 503C431 618 353 689 226 689C154 689 105 669 56 619L39 483L68 483L81 529C97 587 133 612 200 612C286 612 341 558 341 473C341 398 299 324 186 204ZM867 365C870 403 875 435 883 476C872 481 868 482 863 482C832 482 801 458 765 407C726 351 687 291 671 256L703 408C707 425 709 438 709 450C709 470 701 482 686 482C665 482 627 461 553 408L525 388L532 368L564 389C592 407 603 412 612 412C622 412 629 403 629 390C629 332 586 126 546 -2L556 -9C571 -4 587 -1 610 4L623 6L649 126C667 209 690 262 734 319C768 363 795 384 817 384C832 384 842 379 853 365Z" stroke="rgb(0,0,0)" stroke-opacity="1" stroke-width="8" fill="rgb(0,0,0)" fill-opacity="1"></path></g></g></g></g><line style="fill:none;stroke-width:0.99px;stroke:rgb(0, 0, 0);" x1="74.6300048828125" y1="26.240000009536743" x2="89.70500564575195" y2="26.240000009536743"></line></g></g><g></g><g><g><g transform="matrix(1,0,0,1,2,80.69499206542969)"><path transform="matrix(0.017,0,0,-0.017,0,0)" d="M409 -15C458 -15 530 43 565 74L565 81C562 86 558 90 553 92C531 76 472 25 461 77C461 151 506 393 533 463L533 473C511 465 488 459 465 456L455 445C453 381 421 203 395 146C372 97 311 42 254 42C199 42 184 90 185 137C188 248 238 356 241 467C213 462 187 457 161 453C179 227 9 -91 53 -286C76 -285 109 -281 131 -273L131 -261C81 -173 121 -38 138 36L138 35C204 -77 344 37 395 104L395 101C387 65 354 -15 409 -15Z" stroke="rgb(0,0,0)" stroke-opacity="1" stroke-width="8" fill="rgb(0,0,0)" fill-opacity="1"></path></g></g><g><g><g><g><g transform="matrix(1,0,0,1,12.8900146484375,84.6550048828125)"><path transform="matrix(0.0119,0,0,-0.0119,0,0)" d="M263 689C108 689 29 566 29 324C29 207 50 106 85 57C120 8 176 -20 238 -20C389 -20 465 110 465 366C465 585 400 689 263 689ZM245 654C342 654 381 556 381 316C381 103 343 15 251 15C154 15 113 116 113 360C113 571 150 654 245 654Z" stroke="rgb(0,0,0)" stroke-opacity="1" stroke-width="8" fill="rgb(0,0,0)" fill-opacity="1"></path></g></g></g></g></g><g><g transform="matrix(1,0,0,1,23.240020751953125,80.69499206542969)"><path transform="matrix(0.017,0,0,-0.017,0,0)" d="M123 111C93 111 66 83 66 53C66 23 93 -5 122 -5C154 -5 182 22 182 53C182 83 154 111 123 111ZM123 456C93 456 66 428 66 398C66 368 93 340 122 340C154 340 182 367 182 397C182 428 154 456 123 456Z" stroke="rgb(0,0,0)" stroke-opacity="1" stroke-width="8" fill="rgb(0,0,0)" fill-opacity="1"></path></g></g><g><g transform="matrix(1,0,0,1,30.875030517578125,80.69499206542969)"><path transform="matrix(0.017,0,0,-0.017,0,0)" d="M176 -11C232 -11 347 62 390 125C431 186 465 296 465 371C465 438 442 482 406 482C364 482 311 456 259 409C218 374 198 348 162 289L186 408C189 425 191 440 191 452C191 471 183 482 169 482C148 482 110 461 36 408L8 388L15 368L47 389C75 407 86 412 95 412C105 412 112 403 112 389C112 381 110 361 108 351L50 8C40 -52 21 -143 1 -233L-7 -270L0 -276C21 -269 41 -264 73 -259L115 3C136 -4 158 -11 176 -11ZM143 165C165 293 272 424 355 424C381 424 393 402 393 356C393 275 353 156 300 80C280 51 248 36 207 36C176 36 151 43 125 59ZM827 111L803 94C750 56 702 36 666 36C619 36 590 73 590 133C590 158 593 185 598 214C615 218 724 248 749 259C834 296 873 342 873 404C873 451 839 482 789 482C721 496 611 423 574 349C544 299 514 180 514 113C514 35 558 -11 630 -11C687 -11 743 17 835 92ZM612 274C629 343 649 386 678 412C696 428 727 440 751 440C780 440 799 420 799 388C799 344 764 297 712 272C684 258 648 247 603 237ZM1255 365C1258 403 1263 435 1271 476C1260 481 1256 482 1251 482C1220 482 1189 458 1153 407C1114 351 1075 291 1059 256L1091 408C1095 425 1097 438 1097 450C1097 470 1089 482 1074 482C1053 482 1015 461 941 408L913 388L920 368L952 389C980 407 991 412 1000 412C1010 412 1017 403 1017 390C1017 332 974 126 934 -2L944 -9C959 -4 975 -1 998 4L1011 6L1037 126C1055 209 1078 262 1122 319C1156 363 1183 384 1205 384C1220 384 1230 379 1241 365ZM2005 103L1979 86C1950 67 1928 56 1918 56C1911 56 1905 65 1905 76C1905 86 1907 95 1912 116L1987 413C1991 430 1994 446 1994 454C1994 471 1984 482 1968 482C1939 482 1901 464 1840 421C1777 376 1742 341 1693 272L1723 409C1727 429 1730 444 1730 451C1730 470 1720 482 1704 482C1674 482 1628 460 1573 418C1529 384 1509 363 1444 275L1477 408C1481 424 1483 439 1483 451C1483 470 1474 482 1460 482C1439 482 1401 461 1327 408L1299 388L1306 368C1343 391 1378 414 1385 414C1396 414 1403 404 1403 389C1403 338 1362 145 1321 2L1324 -9L1392 6L1414 108C1438 219 1465 278 1520 338C1562 384 1607 414 1635 414C1642 414 1646 406 1646 393C1646 358 1624 244 1583 69L1567 2L1572 -9L1641 6L1662 113C1678 194 1712 269 1756 318C1811 379 1861 414 1893 414C1901 414 1906 405 1906 389C1906 365 1903 351 1881 264C1841 105 1825 84 1825 31C1825 6 1836 -9 1855 -9C1881 -9 1917 12 2015 85ZM2380 111L2356 94C2303 56 2255 36 2219 36C2172 36 2143 73 2143 133C2143 158 2146 185 2151 214C2168 218 2277 248 2302 259C2387 296 2426 342 2426 404C2426 451 2392 482 2342 482C2274 496 2164 423 2127 349C2097 299 2067 180 2067 113C2067 35 2111 -11 2183 -11C2240 -11 2296 17 2388 92ZM2165 274C2182 343 2202 386 2231 412C2249 428 2280 440 2304 440C2333 440 2352 420 2352 388C2352 344 2317 297 2265 272C2237 258 2201 247 2156 237ZM2711 204L2682 77C2678 60 2676 42 2676 26C2676 4 2685 -9 2700 -9C2723 -9 2764 17 2846 85L2839 106C2815 86 2786 59 2764 59C2755 59 2749 68 2749 82C2749 87 2749 90 2750 93L2842 472L2832 481L2799 463C2758 478 2741 482 2714 482C2686 482 2666 477 2639 464C2577 433 2544 403 2519 354C2475 265 2444 145 2444 67C2444 23 2459 -11 2478 -11C2515 -11 2595 41 2711 204ZM2759 414C2737 305 2718 253 2684 201C2627 117 2566 59 2534 59C2522 59 2516 72 2516 99C2516 163 2544 280 2579 360C2603 415 2626 433 2674 433C2697 433 2715 429 2759 414ZM3118 722L3106 733C3054 707 3018 698 2946 691L2942 670L2990 670C3014 670 3024 663 3024 646C3024 639 3023 628 3022 622L2921 71C2920 68 2920 64 2920 61C2920 22 2968 -11 3023 -11C3060 -11 3111 8 3154 39C3250 107 3316 244 3316 376C3316 414 3307 453 3295 468C3288 477 3275 482 3260 482C3236 482 3206 474 3178 460C3127 433 3094 403 3032 324ZM3205 424C3231 424 3244 401 3244 352C3244 288 3223 202 3193 137C3160 68 3120 36 3066 36C3020 36 2995 59 2995 101C2995 135 3010 276 3091 361C3124 395 3176 424 3205 424ZM3379 388L3386 368L3418 389C3455 412 3458 414 3465 414C3475 414 3483 404 3483 391C3483 384 3479 361 3475 347L3409 107C3401 76 3396 49 3396 30C3396 6 3407 -9 3426 -9C3452 -9 3488 12 3586 85L3576 103L3550 86C3521 67 3498 56 3489 56C3482 56 3476 66 3476 76C3476 86 3478 95 3483 116L3560 420C3564 437 3566 448 3566 456C3566 473 3557 482 3541 482C3519 482 3482 461 3407 408ZM3573 712C3544 712 3515 679 3515 645C3515 620 3530 604 3554 604C3585 604 3609 633 3609 671C3609 695 3594 712 3573 712ZM3873 722L3861 733C3809 707 3773 698 3701 691L3697 670L3745 670C3769 670 3779 663 3779 648C3779 645 3779 640 3776 622C3765 567 3692 182 3677 132C3664 82 3658 52 3658 31C3658 6 3669 -9 3688 -9C3714 -9 3750 12 3848 85L3838 103L3812 86C3783 67 3761 56 3751 56C3744 56 3738 66 3738 76C3738 82 3739 89 3742 104ZM3933 388L3940 368L3972 389C4009 412 4012 414 4019 414C4029 414 4037 404 4037 391C4037 384 4033 361 4029 347L3963 107C3955 76 3950 49 3950 30C3950 6 3961 -9 3980 -9C4006 -9 4042 12 4140 85L4130 103L4104 86C4075 67 4052 56 4043 56C4036 56 4030 66 4030 76C4030 86 4032 95 4037 116L4114 420C4118 437 4120 448 4120 456C4120 473 4111 482 4095 482C4073 482 4036 461 3961 408ZM4127 712C4098 712 4069 679 4069 645C4069 620 4084 604 4108 604C4139 604 4163 633 4163 671C4163 695 4148 712 4127 712ZM4659 722L4647 733C4595 707 4559 698 4487 691L4483 670L4531 670C4555 670 4565 663 4565 646C4565 638 4564 629 4563 622L4535 468C4505 477 4478 482 4453 482C4384 482 4290 410 4244 323C4213 265 4193 170 4193 86C4193 21 4208 -11 4237 -11C4264 -11 4301 6 4335 33C4389 77 4422 116 4489 217L4466 126C4455 82 4450 50 4450 24C4450 3 4459 -9 4476 -9C4493 -9 4517 3 4551 28L4632 88L4622 107L4578 76C4564 66 4548 59 4539 59C4531 59 4525 68 4525 82C4525 90 4526 99 4533 128ZM4290 59C4274 59 4265 73 4265 98C4265 224 4311 380 4360 418C4373 428 4392 433 4419 433C4463 433 4492 427 4525 410L4513 351C4476 171 4335 59 4290 59ZM4946 204L4917 77C4913 60 4911 42 4911 26C4911 4 4920 -9 4935 -9C4958 -9 4999 17 5081 85L5074 106C5050 86 5021 59 4999 59C4990 59 4984 68 4984 82C4984 87 4984 90 4985 93L5077 472L5067 481L5034 463C4993 478 4976 482 4949 482C4921 482 4901 477 4874 464C4812 433 4779 403 4754 354C4710 265 4679 145 4679 67C4679 23 4694 -11 4713 -11C4750 -11 4830 41 4946 204ZM4994 414C4972 305 4953 253 4919 201C4862 117 4801 59 4769 59C4757 59 4751 72 4751 99C4751 163 4779 280 4814 360C4838 415 4861 433 4909 433C4932 433 4950 429 4994 414ZM5601 722L5589 733C5537 707 5501 698 5429 691L5425 670L5473 670C5497 670 5507 663 5507 646C5507 638 5506 629 5505 622L5477 468C5447 477 5420 482 5395 482C5326 482 5232 410 5186 323C5155 265 5135 170 5135 86C5135 21 5150 -11 5179 -11C5206 -11 5243 6 5277 33C5331 77 5364 116 5431 217L5408 126C5397 82 5392 50 5392 24C5392 3 5401 -9 5418 -9C5435 -9 5459 3 5493 28L5574 88L5564 107L5520 76C5506 66 5490 59 5481 59C5473 59 5467 68 5467 82C5467 90 5468 99 5475 128ZM5232 59C5216 59 5207 73 5207 98C5207 224 5253 380 5302 418C5315 428 5334 433 5361 433C5405 433 5434 427 5467 410L5455 351C5418 171 5277 59 5232 59Z" stroke="rgb(0,0,0)" stroke-opacity="1" stroke-width="8" fill="rgb(0,0,0)" fill-opacity="1"></path></g></g></g><g><g><g transform="matrix(1,0,0,1,2,102.23500061035156)"><path transform="matrix(0.017,0,0,-0.017,0,0)" d="M103 664L150 662C174 661 185 653 185 636C185 629 179 576 176 559L104 125C89 36 86 31 46 28L10 25L7 -3L39 -3L133 0L227 -3L259 -3L262 25L210 28C184 30 174 37 174 57C174 63 175 74 176 78L265 613C272 652 277 657 316 661L351 664L354 692L248 689C231 689 213 689 170 690L106 692Z" stroke="rgb(0,0,0)" stroke-opacity="1" stroke-width="8" fill="rgb(0,0,0)" fill-opacity="1"></path></g></g><g><g transform="matrix(1,0,0,1,11.045013427734375,102.23500061035156)"><path transform="matrix(0.017,0,0,-0.017,0,0)" d="M123 111C93 111 66 83 66 53C66 23 93 -5 122 -5C154 -5 182 22 182 53C182 83 154 111 123 111ZM123 456C93 456 66 428 66 398C66 368 93 340 122 340C154 340 182 367 182 397C182 428 154 456 123 456Z" stroke="rgb(0,0,0)" stroke-opacity="1" stroke-width="8" fill="rgb(0,0,0)" fill-opacity="1"></path></g></g><g><g transform="matrix(1,0,0,1,18.680023193359375,102.23500061035156)"><path transform="matrix(0.017,0,0,-0.017,0,0)" d="M34 388L41 368L73 389C110 412 113 414 120 414C130 414 138 404 138 391C138 384 134 361 130 347L64 107C56 76 51 49 51 30C51 6 62 -9 81 -9C107 -9 143 12 241 85L231 103L205 86C176 67 153 56 144 56C137 56 131 66 131 76C131 86 133 95 138 116L215 420C219 437 221 448 221 456C221 473 212 482 196 482C174 482 137 461 62 408ZM228 712C199 712 170 679 170 645C170 620 185 604 209 604C240 604 264 633 264 671C264 695 249 712 228 712ZM301 388L308 368L340 389C377 412 380 414 387 414C398 414 405 404 405 389C405 338 364 145 323 2L330 -9C355 -2 378 4 400 8C419 134 440 199 486 268C540 352 615 414 660 414C671 414 677 405 677 390C677 372 674 351 666 319L614 107C605 70 601 47 601 31C601 6 612 -9 631 -9C657 -9 693 12 791 85L781 103L755 86C726 67 704 56 694 56C687 56 681 65 681 76C681 81 682 92 683 96L749 372C756 401 760 429 760 446C760 469 749 482 729 482C687 482 618 444 559 389C521 354 493 320 441 247L479 408C483 426 485 438 485 449C485 470 477 482 462 482C441 482 402 460 329 408ZM957 390L901 107C900 99 888 61 888 31C888 6 899 -9 918 -9C953 -9 988 11 1066 74L1097 99L1087 117L1042 86C1013 66 993 56 982 56C973 56 968 64 968 76C968 102 982 183 1011 328L1024 390L1131 390L1142 440C1104 436 1070 434 1032 434C1048 528 1059 577 1077 631L1066 646C1046 634 1019 622 988 610L963 440C919 419 893 408 875 403L873 390ZM1492 111L1468 94C1415 56 1367 36 1331 36C1284 36 1255 73 1255 133C1255 158 1258 185 1263 214C1280 218 1389 248 1414 259C1499 296 1538 342 1538 404C1538 451 1504 482 1454 482C1386 496 1276 423 1239 349C1209 299 1179 180 1179 113C1179 35 1223 -11 1295 -11C1352 -11 1408 17 1500 92ZM1277 274C1294 343 1314 386 1343 412C1361 428 1392 440 1416 440C1445 440 1464 420 1464 388C1464 344 1429 297 1377 272C1349 258 1313 247 1268 237ZM1576 388L1583 368L1615 389C1652 412 1655 414 1662 414C1673 414 1680 404 1680 389C1680 338 1639 145 1598 2L1605 -9C1630 -2 1653 4 1675 8C1694 134 1715 199 1761 268C1815 352 1890 414 1935 414C1946 414 1952 405 1952 390C1952 372 1949 351 1941 319L1889 107C1880 70 1876 47 1876 31C1876 6 1887 -9 1906 -9C1932 -9 1968 12 2066 85L2056 103L2030 86C2001 67 1979 56 1969 56C1962 56 1956 65 1956 76C1956 81 1957 92 1958 96L2024 372C2031 401 2035 429 2035 446C2035 469 2024 482 2004 482C1962 482 1893 444 1834 389C1796 354 1768 320 1716 247L1754 408C1758 426 1760 438 1760 449C1760 470 1752 482 1737 482C1716 482 1677 460 1604 408ZM2138 148C2133 97 2127 62 2116 16C2154 -2 2188 -11 2223 -11C2272 -11 2318 7 2369 47C2420 87 2441 124 2441 174C2441 228 2409 257 2335 271L2292 279C2232 290 2213 307 2213 348C2213 401 2258 442 2315 442C2356 442 2394 424 2410 397L2410 342L2433 342C2437 377 2441 404 2452 455C2413 474 2385 482 2352 482C2300 482 2239 452 2191 404C2165 377 2154 352 2154 316C2154 260 2185 228 2251 215L2314 203C2358 195 2374 177 2374 138C2374 73 2328 29 2257 29C2222 29 2191 40 2163 64L2163 148ZM2529 388L2536 368L2568 389C2605 412 2608 414 2615 414C2625 414 2633 404 2633 391C2633 384 2629 361 2625 347L2559 107C2551 76 2546 49 2546 30C2546 6 2557 -9 2576 -9C2602 -9 2638 12 2736 85L2726 103L2700 86C2671 67 2648 56 2639 56C2632 56 2626 66 2626 76C2626 86 2628 95 2633 116L2710 420C2714 437 2716 448 2716 456C2716 473 2707 482 2691 482C2669 482 2632 461 2557 408ZM2723 712C2694 712 2665 679 2665 645C2665 620 2680 604 2704 604C2735 604 2759 633 2759 671C2759 695 2744 712 2723 712ZM3255 722L3243 733C3191 707 3155 698 3083 691L3079 670L3127 670C3151 670 3161 663 3161 646C3161 638 3160 629 3159 622L3131 468C3101 477 3074 482 3049 482C2980 482 2886 410 2840 323C2809 265 2789 170 2789 86C2789 21 2804 -11 2833 -11C2860 -11 2897 6 2931 33C2985 77 3018 116 3085 217L3062 126C3051 82 3046 50 3046 24C3046 3 3055 -9 3072 -9C3089 -9 3113 3 3147 28L3228 88L3218 107L3174 76C3160 66 3144 59 3135 59C3127 59 3121 68 3121 82C3121 90 3122 99 3129 128ZM2886 59C2870 59 2861 73 2861 98C2861 224 2907 380 2956 418C2969 428 2988 433 3015 433C3059 433 3088 427 3121 410L3109 351C3072 171 2931 59 2886 59ZM3542 204L3513 77C3509 60 3507 42 3507 26C3507 4 3516 -9 3531 -9C3554 -9 3595 17 3677 85L3670 106C3646 86 3617 59 3595 59C3586 59 3580 68 3580 82C3580 87 3580 90 3581 93L3673 472L3663 481L3630 463C3589 478 3572 482 3545 482C3517 482 3497 477 3470 464C3408 433 3375 403 3350 354C3306 265 3275 145 3275 67C3275 23 3290 -11 3309 -11C3346 -11 3426 41 3542 204ZM3590 414C3568 305 3549 253 3515 201C3458 117 3397 59 3365 59C3353 59 3347 72 3347 99C3347 163 3375 280 3410 360C3434 415 3457 433 3505 433C3528 433 3546 429 3590 414ZM4197 722L4185 733C4133 707 4097 698 4025 691L4021 670L4069 670C4093 670 4103 663 4103 646C4103 638 4102 629 4101 622L4073 468C4043 477 4016 482 3991 482C3922 482 3828 410 3782 323C3751 265 3731 170 3731 86C3731 21 3746 -11 3775 -11C3802 -11 3839 6 3873 33C3927 77 3960 116 4027 217L4004 126C3993 82 3988 50 3988 24C3988 3 3997 -9 4014 -9C4031 -9 4055 3 4089 28L4170 88L4160 107L4116 76C4102 66 4086 59 4077 59C4069 59 4063 68 4063 82C4063 90 4064 99 4071 128ZM3828 59C3812 59 3803 73 3803 98C3803 224 3849 380 3898 418C3911 428 3930 433 3957 433C4001 433 4030 427 4063 410L4051 351C4014 171 3873 59 3828 59Z" stroke="rgb(0,0,0)" stroke-opacity="1" stroke-width="8" fill="rgb(0,0,0)" fill-opacity="1"></path></g></g></g><g><g><g transform="matrix(1,0,0,1,2,122.39500427246094)"><path transform="matrix(0.017,0,0,-0.017,0,0)" d="M368 365C371 403 376 435 384 476C373 481 369 482 364 482C333 482 302 458 266 407C227 351 188 291 172 256L204 408C208 425 210 438 210 450C210 470 202 482 187 482C166 482 128 461 54 408L26 388L33 368L65 389C93 407 104 412 113 412C123 412 130 403 130 390C130 332 87 126 47 -2L57 -9C72 -4 88 -1 111 4L124 6L150 126C168 209 191 262 235 319C269 363 296 384 318 384C333 384 343 379 354 365Z" stroke="rgb(0,0,0)" stroke-opacity="1" stroke-width="8" fill="rgb(0,0,0)" fill-opacity="1"></path></g></g><g><g transform="matrix(1,0,0,1,11.990020751953125,122.39500427246094)"><path transform="matrix(0.017,0,0,-0.017,0,0)" d="M123 111C93 111 66 83 66 53C66 23 93 -5 122 -5C154 -5 182 22 182 53C182 83 154 111 123 111ZM123 456C93 456 66 428 66 398C66 368 93 340 122 340C154 340 182 367 182 397C182 428 154 456 123 456Z" stroke="rgb(0,0,0)" stroke-opacity="1" stroke-width="8" fill="rgb(0,0,0)" fill-opacity="1"></path></g></g><g><g transform="matrix(1,0,0,1,19.625,122.39500427246094)"><path transform="matrix(0.017,0,0,-0.017,0,0)" d="M368 365C371 403 376 435 384 476C373 481 369 482 364 482C333 482 302 458 266 407C227 351 188 291 172 256L204 408C208 425 210 438 210 450C210 470 202 482 187 482C166 482 128 461 54 408L26 388L33 368L65 389C93 407 104 412 113 412C123 412 130 403 130 390C130 332 87 126 47 -2L57 -9C72 -4 88 -1 111 4L124 6L150 126C168 209 191 262 235 319C269 363 296 384 318 384C333 384 343 379 354 365ZM659 204L630 77C626 60 624 42 624 26C624 4 633 -9 648 -9C671 -9 712 17 794 85L787 106C763 86 734 59 712 59C703 59 697 68 697 82C697 87 697 90 698 93L790 472L780 481L747 463C706 478 689 482 662 482C634 482 614 477 587 464C525 433 492 403 467 354C423 265 392 145 392 67C392 23 407 -11 426 -11C463 -11 543 41 659 204ZM707 414C685 305 666 253 632 201C575 117 514 59 482 59C470 59 464 72 464 99C464 163 492 280 527 360C551 415 574 433 622 433C645 433 663 429 707 414ZM1314 722L1302 733C1250 707 1214 698 1142 691L1138 670L1186 670C1210 670 1220 663 1220 646C1220 638 1219 629 1218 622L1190 468C1160 477 1133 482 1108 482C1039 482 945 410 899 323C868 265 848 170 848 86C848 21 863 -11 892 -11C919 -11 956 6 990 33C1044 77 1077 116 1144 217L1121 126C1110 82 1105 50 1105 24C1105 3 1114 -9 1131 -9C1148 -9 1172 3 1206 28L1287 88L1277 107L1233 76C1219 66 1203 59 1194 59C1186 59 1180 68 1180 82C1180 90 1181 99 1188 128ZM945 59C929 59 920 73 920 98C920 224 966 380 1015 418C1028 428 1047 433 1074 433C1118 433 1147 427 1180 410L1168 351C1131 171 990 59 945 59ZM1364 388L1371 368L1403 389C1440 412 1443 414 1450 414C1460 414 1468 404 1468 391C1468 384 1464 361 1460 347L1394 107C1386 76 1381 49 1381 30C1381 6 1392 -9 1411 -9C1437 -9 1473 12 1571 85L1561 103L1535 86C1506 67 1483 56 1474 56C1467 56 1461 66 1461 76C1461 86 1463 95 1468 116L1545 420C1549 437 1551 448 1551 456C1551 473 1542 482 1526 482C1504 482 1467 461 1392 408ZM1558 712C1529 712 1500 679 1500 645C1500 620 1515 604 1539 604C1570 604 1594 633 1594 671C1594 695 1579 712 1558 712ZM1624 152C1624 46 1669 -11 1752 -11C1807 -11 1867 15 1912 57C1974 116 2018 230 2018 331C2018 425 1968 482 1885 482C1781 482 1624 382 1624 152ZM1848 444C1909 444 1942 399 1942 315C1942 219 1911 113 1867 60C1849 39 1823 27 1792 27C1734 27 1700 72 1700 151C1700 264 1739 387 1788 427C1801 438 1824 444 1848 444Z" stroke="rgb(0,0,0)" stroke-opacity="1" stroke-width="8" fill="rgb(0,0,0)" fill-opacity="1"></path></g></g><g><g transform="matrix(1,0,0,1,58.70001220703125,123.35499572753906)"><path transform="matrix(0.017,0,0,-0.017,0,0)" d="M146 266C146 526 243 632 301 700L282 726C225 675 60 542 60 266C60 159 85 58 133 -32C168 -99 200 -138 282 -215L301 -194C255 -137 146 -15 146 266Z" stroke="rgb(0,0,0)" stroke-opacity="1" stroke-width="8" fill="rgb(0,0,0)" fill-opacity="1"></path></g></g><g><g transform="matrix(1,0,0,1,64.35501098632812,122.39500427246094)"><path transform="matrix(0.017,0,0,-0.017,0,0)" d="M328 111L304 94C251 56 203 36 167 36C120 36 91 73 91 133C91 158 94 185 99 214C116 218 225 248 250 259C335 296 374 342 374 404C374 451 340 482 290 482C222 496 112 423 75 349C45 299 15 180 15 113C15 35 59 -11 131 -11C188 -11 244 17 336 92ZM113 274C130 343 150 386 179 412C197 428 228 440 252 440C281 440 300 420 300 388C300 344 265 297 213 272C185 258 149 247 104 237ZM419 148C414 97 408 62 397 16C435 -2 469 -11 504 -11C553 -11 599 7 650 47C701 87 722 124 722 174C722 228 690 257 616 271L573 279C513 290 494 307 494 348C494 401 539 442 596 442C637 442 675 424 691 397L691 342L714 342C718 377 722 404 733 455C694 474 666 482 633 482C581 482 520 452 472 404C446 377 435 352 435 316C435 260 466 228 532 215L595 203C639 195 655 177 655 138C655 73 609 29 538 29C503 29 472 40 444 64L444 148ZM952 -11C1008 -11 1123 62 1166 125C1207 186 1241 296 1241 371C1241 438 1218 482 1182 482C1140 482 1087 456 1035 409C994 374 974 348 938 289L962 408C965 425 967 440 967 452C967 471 959 482 945 482C924 482 886 461 812 408L784 388L791 368L823 389C851 407 862 412 871 412C881 412 888 403 888 389C888 381 886 361 884 351L826 8C816 -52 797 -143 777 -233L769 -270L776 -276C797 -269 817 -264 849 -259L891 3C912 -4 934 -11 952 -11ZM919 165C941 293 1048 424 1131 424C1157 424 1169 402 1169 356C1169 275 1129 156 1076 80C1056 51 1024 36 983 36C952 36 927 43 901 59ZM1309 388L1316 368L1348 389C1385 412 1388 414 1395 414C1405 414 1413 404 1413 391C1413 384 1409 361 1405 347L1339 107C1331 76 1326 49 1326 30C1326 6 1337 -9 1356 -9C1382 -9 1418 12 1516 85L1506 103L1480 86C1451 67 1428 56 1419 56C1412 56 1406 66 1406 76C1406 86 1408 95 1413 116L1490 420C1494 437 1496 448 1496 456C1496 473 1487 482 1471 482C1449 482 1412 461 1337 408ZM1503 712C1474 712 1445 679 1445 645C1445 620 1460 604 1484 604C1515 604 1539 633 1539 671C1539 695 1524 712 1503 712ZM1920 365C1923 403 1928 435 1936 476C1925 481 1921 482 1916 482C1885 482 1854 458 1818 407C1779 351 1740 291 1724 256L1756 408C1760 425 1762 438 1762 450C1762 470 1754 482 1739 482C1718 482 1680 461 1606 408L1578 388L1585 368L1617 389C1645 407 1656 412 1665 412C1675 412 1682 403 1682 390C1682 332 1639 126 1599 -2L1609 -9C1624 -4 1640 -1 1663 4L1676 6L1702 126C1720 209 1743 262 1787 319C1821 363 1848 384 1870 384C1885 384 1895 379 1906 365ZM2211 204L2182 77C2178 60 2176 42 2176 26C2176 4 2185 -9 2200 -9C2223 -9 2264 17 2346 85L2339 106C2315 86 2286 59 2264 59C2255 59 2249 68 2249 82C2249 87 2249 90 2250 93L2342 472L2332 481L2299 463C2258 478 2241 482 2214 482C2186 482 2166 477 2139 464C2077 433 2044 403 2019 354C1975 265 1944 145 1944 67C1944 23 1959 -11 1978 -11C2015 -11 2095 41 2211 204ZM2259 414C2237 305 2218 253 2184 201C2127 117 2066 59 2034 59C2022 59 2016 72 2016 99C2016 163 2044 280 2079 360C2103 415 2126 433 2174 433C2197 433 2215 429 2259 414Z" stroke="rgb(0,0,0)" stroke-opacity="1" stroke-width="8" fill="rgb(0,0,0)" fill-opacity="1"></path></g></g><g><g transform="matrix(1,0,0,1,104.85501098632812,123.35499572753906)"><path transform="matrix(0.017,0,0,-0.017,0,0)" d="M51 726L32 700C87 636 187 526 187 266C187 -10 83 -131 32 -194L51 -215C104 -165 273 -23 273 265C273 542 108 675 51 726Z" stroke="rgb(0,0,0)" stroke-opacity="1" stroke-width="8" fill="rgb(0,0,0)" fill-opacity="1"></path></g></g></g></g></svg>