<svg xmlns="http://www.w3.org/2000/svg" xmlns:xlink="http://www.w3.org/1999/xlink" width="124.97500610351562" height="167.4550018310547" style="width:124.97500610351562px;height:167.4550018310547px;font-family:Asana-Math, Asana;background:#FFF;"><g><g><g><g transform="matrix(1,0,0,1,2,30.204994201660156)"><path transform="matrix(0.017,0,0,-0.017,0,0)" d="M1328 222C1338 251 1344 268 1343 263C1264 261 1187 262 1109 262C1128 349 1183 438 1283 438C1343 438 1365 420 1392 369L1412 369L1453 422C1278 592 1009 361 1009 155C1009 42 1075 -11 1182 -11C1259 -11 1323 47 1382 92L1382 111C1335 78 1279 39 1220 39C1146 39 1085 126 1101 220C1113 219 1301 222 1328 222Z" stroke="rgb(0,0,0)" stroke-opacity="1" stroke-width="8" fill="rgb(0,0,0)" fill-opacity="1"></path></g></g><g><g transform="matrix(1,0,0,1,31.94000244140625,30.204994201660156)"><path transform="matrix(0.017,0,0,-0.017,0,0)" d="M604 347L604 406L65 406L65 347ZM604 134L604 193L65 193L65 134Z" stroke="rgb(0,0,0)" stroke-opacity="1" stroke-width="8" fill="rgb(0,0,0)" fill-opacity="1"></path></g></g><g><g transform="matrix(1,0,0,1,48.39501953125,30.204994201660156)"><path transform="matrix(0.017,0,0,-0.017,0,0)" d="M555 243L555 299L51 299L51 243Z" stroke="rgb(0,0,0)" stroke-opacity="1" stroke-width="8" fill="rgb(0,0,0)" fill-opacity="1"></path></g></g><g><g transform="matrix(1,0,0,1,58.685028076171875,30.204994201660156)"><path transform="matrix(0.017,0,0,-0.017,0,0)" d="M24 388L31 368L63 389C100 412 103 414 110 414C121 414 128 404 128 389C128 338 87 145 46 2L53 -9C78 -2 101 4 123 8C142 134 163 199 209 268C263 352 338 414 383 414C394 414 400 405 400 390C400 372 397 351 389 319L337 107C328 70 324 47 324 31C324 6 335 -9 354 -9C380 -9 416 12 514 85L504 103L478 86C449 67 427 56 417 56C410 56 404 65 404 76C404 81 405 92 406 96L472 372C479 401 483 429 483 446C483 469 472 482 452 482C410 482 341 444 282 389C244 354 216 320 164 247L202 408C206 426 208 438 208 449C208 470 200 482 185 482C164 482 125 460 52 408Z" stroke="rgb(0,0,0)" stroke-opacity="1" stroke-width="8" fill="rgb(0,0,0)" fill-opacity="1"></path></g></g><g><g><g><g><g transform="matrix(1,0,0,1,69.81500244140625,18.039993286132812)"><path transform="matrix(0.017,0,0,-0.017,0,0)" d="M662 6L655 -4C549 0 443 0 336 0C235 0 134 -1 33 -4L27 6C88 116 136 238 186 354C235 466 288 580 327 697L352 697C395 590 597 128 662 6ZM584 37C518 215 447 389 371 564L364 564C289 391 217 215 152 37Z" stroke="rgb(0,0,0)" stroke-opacity="1" stroke-width="8" fill="rgb(0,0,0)" fill-opacity="1"></path></g></g><g><g transform="matrix(1,0,0,1,81.5150146484375,18.039993286132812)"><path transform="matrix(0.017,0,0,-0.017,0,0)" d="M622 285C624 428 505 474 382 473C398 548 407 624 432 699L432 705C418 700 404 693 389 684L354 473C184 474 30 367 27 185C24 37 142 -8 268 -16L229 -289C249 -282 267 -274 282 -261C283 -179 288 -98 299 -16C481 -3 618 87 622 285ZM539 273C537 130 451 11 301 6L377 449C487 447 541 380 539 273ZM349 449L270 5C155 14 106 73 108 187C111 336 196 444 349 449Z" stroke="rgb(0,0,0)" stroke-opacity="1" stroke-width="8" fill="rgb(0,0,0)" fill-opacity="1"></path></g></g></g></g><g><g><g><g transform="matrix(1,0,0,1,72.635009765625,43.375)"><path transform="matrix(0.017,0,0,-0.017,0,0)" d="M662 6L655 -4C549 0 443 0 336 0C235 0 134 -1 33 -4L27 6C88 116 136 238 186 354C235 466 288 580 327 697L352 697C395 590 597 128 662 6ZM584 37C518 215 447 389 371 564L364 564C289 391 217 215 152 37Z" stroke="rgb(0,0,0)" stroke-opacity="1" stroke-width="8" fill="rgb(0,0,0)" fill-opacity="1"></path></g></g><g><g transform="matrix(1,0,0,1,84.33502197265625,43.375)"><path transform="matrix(0.017,0,0,-0.017,0,0)" d="M125 390L69 107C68 99 56 61 56 31C56 6 67 -9 86 -9C121 -9 156 11 234 74L265 99L255 117L210 86C181 66 161 56 150 56C141 56 136 64 136 76C136 102 150 183 179 328L192 390L299 390L310 440C272 436 238 434 200 434C216 528 227 577 245 631L234 646C214 634 187 622 156 610L131 440C87 419 61 408 43 403L41 390Z" stroke="rgb(0,0,0)" stroke-opacity="1" stroke-width="8" fill="rgb(0,0,0)" fill-opacity="1"></path></g></g></g></g><line style="fill:none;stroke-width:0.99px;stroke:rgb(0, 0, 0);" x1="69.81500244140625" y1="26.240000009536743" x2="92.82500267028809" y2="26.240000009536743"></line></g></g><g></g><g><g><g transform="matrix(1,0,0,1,2,80.69499206542969)"><path transform="matrix(0.017,0,0,-0.017,0,0)" d="M24 388L31 368L63 389C100 412 103 414 110 414C121 414 128 404 128 389C128 338 87 145 46 2L53 -9C78 -2 101 4 123 8C142 134 163 199 209 268C263 352 338 414 383 414C394 414 400 405 400 390C400 372 397 351 389 319L337 107C328 70 324 47 324 31C324 6 335 -9 354 -9C380 -9 416 12 514 85L504 103L478 86C449 67 427 56 417 56C410 56 404 65 404 76C404 81 405 92 406 96L472 372C479 401 483 429 483 446C483 469 472 482 452 482C410 482 341 444 282 389C244 354 216 320 164 247L202 408C206 426 208 438 208 449C208 470 200 482 185 482C164 482 125 460 52 408Z" stroke="rgb(0,0,0)" stroke-opacity="1" stroke-width="8" fill="rgb(0,0,0)" fill-opacity="1"></path></g></g><g><g transform="matrix(1,0,0,1,14.82501220703125,80.69499206542969)"><path transform="matrix(0.017,0,0,-0.017,0,0)" d="M123 111C93 111 66 83 66 53C66 23 93 -5 122 -5C154 -5 182 22 182 53C182 83 154 111 123 111ZM123 456C93 456 66 428 66 398C66 368 93 340 122 340C154 340 182 367 182 397C182 428 154 456 123 456Z" stroke="rgb(0,0,0)" stroke-opacity="1" stroke-width="8" fill="rgb(0,0,0)" fill-opacity="1"></path></g></g><g><g transform="matrix(1,0,0,1,22.46002197265625,80.69499206542969)"><path transform="matrix(0.017,0,0,-0.017,0,0)" d="M273 388L280 368L312 389C349 412 352 414 359 414C370 414 377 404 377 389C377 338 336 145 295 2L302 -9C327 -2 350 4 372 8C391 134 412 199 458 268C512 352 587 414 632 414C643 414 649 405 649 390C649 372 646 351 638 319L586 107C577 70 573 47 573 31C573 6 584 -9 603 -9C629 -9 665 12 763 85L753 103L727 86C698 67 676 56 666 56C659 56 653 65 653 76C653 81 654 92 655 96L721 372C728 401 732 429 732 446C732 469 721 482 701 482C659 482 590 444 531 389C493 354 465 320 413 247L451 408C455 426 457 438 457 449C457 470 449 482 434 482C413 482 374 460 301 408ZM1003 689C921 689 854 622 854 539C854 456 921 389 1004 389C1085 389 1154 457 1154 537C1154 621 1087 689 1003 689ZM1003 649C1064 649 1114 599 1114 537C1114 479 1064 429 1004 429C943 429 894 478 894 539C894 600 943 649 1003 649ZM1936 722L1924 733C1872 707 1836 698 1764 691L1760 670L1808 670C1832 670 1842 663 1842 646C1842 638 1841 629 1840 622L1812 468C1782 477 1755 482 1730 482C1661 482 1567 410 1521 323C1490 265 1470 170 1470 86C1470 21 1485 -11 1514 -11C1541 -11 1578 6 1612 33C1666 77 1699 116 1766 217L1743 126C1732 82 1727 50 1727 24C1727 3 1736 -9 1753 -9C1770 -9 1794 3 1828 28L1909 88L1899 107L1855 76C1841 66 1825 59 1816 59C1808 59 1802 68 1802 82C1802 90 1803 99 1810 128ZM1567 59C1551 59 1542 73 1542 98C1542 224 1588 380 1637 418C1650 428 1669 433 1696 433C1740 433 1769 427 1802 410L1790 351C1753 171 1612 59 1567 59ZM2280 111L2256 94C2203 56 2155 36 2119 36C2072 36 2043 73 2043 133C2043 158 2046 185 2051 214C2068 218 2177 248 2202 259C2287 296 2326 342 2326 404C2326 451 2292 482 2242 482C2174 496 2064 423 2027 349C1997 299 1967 180 1967 113C1967 35 2011 -11 2083 -11C2140 -11 2196 17 2288 92ZM2065 274C2082 343 2102 386 2131 412C2149 428 2180 440 2204 440C2233 440 2252 420 2252 388C2252 344 2217 297 2165 272C2137 258 2101 247 2056 237ZM2917 111L2893 94C2840 56 2792 36 2756 36C2709 36 2680 73 2680 133C2680 158 2683 185 2688 214C2705 218 2814 248 2839 259C2924 296 2963 342 2963 404C2963 451 2929 482 2879 482C2811 496 2701 423 2664 349C2634 299 2604 180 2604 113C2604 35 2648 -11 2720 -11C2777 -11 2833 17 2925 92ZM2702 274C2719 343 2739 386 2768 412C2786 428 2817 440 2841 440C2870 440 2889 420 2889 388C2889 344 2854 297 2802 272C2774 258 2738 247 2693 237ZM3008 148C3003 97 2997 62 2986 16C3024 -2 3058 -11 3093 -11C3142 -11 3188 7 3239 47C3290 87 3311 124 3311 174C3311 228 3279 257 3205 271L3162 279C3102 290 3083 307 3083 348C3083 401 3128 442 3185 442C3226 442 3264 424 3280 397L3280 342L3303 342C3307 377 3311 404 3322 455C3283 474 3255 482 3222 482C3170 482 3109 452 3061 404C3035 377 3024 352 3024 316C3024 260 3055 228 3121 215L3184 203C3228 195 3244 177 3244 138C3244 73 3198 29 3127 29C3092 29 3061 40 3033 64L3033 148ZM3541 -11C3597 -11 3712 62 3755 125C3796 186 3830 296 3830 371C3830 438 3807 482 3771 482C3729 482 3676 456 3624 409C3583 374 3563 348 3527 289L3551 408C3554 425 3556 440 3556 452C3556 471 3548 482 3534 482C3513 482 3475 461 3401 408L3373 388L3380 368L3412 389C3440 407 3451 412 3460 412C3470 412 3477 403 3477 389C3477 381 3475 361 3473 351L3415 8C3405 -52 3386 -143 3366 -233L3358 -270L3365 -276C3386 -269 3406 -264 3438 -259L3480 3C3501 -4 3523 -11 3541 -11ZM3508 165C3530 293 3637 424 3720 424C3746 424 3758 402 3758 356C3758 275 3718 156 3665 80C3645 51 3613 36 3572 36C3541 36 3516 43 3490 59ZM3898 388L3905 368L3937 389C3974 412 3977 414 3984 414C3994 414 4002 404 4002 391C4002 384 3998 361 3994 347L3928 107C3920 76 3915 49 3915 30C3915 6 3926 -9 3945 -9C3971 -9 4007 12 4105 85L4095 103L4069 86C4040 67 4017 56 4008 56C4001 56 3995 66 3995 76C3995 86 3997 95 4002 116L4079 420C4083 437 4085 448 4085 456C4085 473 4076 482 4060 482C4038 482 4001 461 3926 408ZM4092 712C4063 712 4034 679 4034 645C4034 620 4049 604 4073 604C4104 604 4128 633 4128 671C4128 695 4113 712 4092 712ZM4509 365C4512 403 4517 435 4525 476C4514 481 4510 482 4505 482C4474 482 4443 458 4407 407C4368 351 4329 291 4313 256L4345 408C4349 425 4351 438 4351 450C4351 470 4343 482 4328 482C4307 482 4269 461 4195 408L4167 388L4174 368L4206 389C4234 407 4245 412 4254 412C4264 412 4271 403 4271 390C4271 332 4228 126 4188 -2L4198 -9C4213 -4 4229 -1 4252 4L4265 6L4291 126C4309 209 4332 262 4376 319C4410 363 4437 384 4459 384C4474 384 4484 379 4495 365ZM4800 204L4771 77C4767 60 4765 42 4765 26C4765 4 4774 -9 4789 -9C4812 -9 4853 17 4935 85L4928 106C4904 86 4875 59 4853 59C4844 59 4838 68 4838 82C4838 87 4838 90 4839 93L4931 472L4921 481L4888 463C4847 478 4830 482 4803 482C4775 482 4755 477 4728 464C4666 433 4633 403 4608 354C4564 265 4533 145 4533 67C4533 23 4548 -11 4567 -11C4604 -11 4684 41 4800 204ZM4848 414C4826 305 4807 253 4773 201C4716 117 4655 59 4623 59C4611 59 4605 72 4605 99C4605 163 4633 280 4668 360C4692 415 4715 433 4763 433C4786 433 4804 429 4848 414ZM5003 148C4998 97 4992 62 4981 16C5019 -2 5053 -11 5088 -11C5137 -11 5183 7 5234 47C5285 87 5306 124 5306 174C5306 228 5274 257 5200 271L5157 279C5097 290 5078 307 5078 348C5078 401 5123 442 5180 442C5221 442 5259 424 5275 397L5275 342L5298 342C5302 377 5306 404 5317 455C5278 474 5250 482 5217 482C5165 482 5104 452 5056 404C5030 377 5019 352 5019 316C5019 260 5050 228 5116 215L5179 203C5223 195 5239 177 5239 138C5239 73 5193 29 5122 29C5087 29 5056 40 5028 64L5028 148Z" stroke="rgb(0,0,0)" stroke-opacity="1" stroke-width="8" fill="rgb(0,0,0)" fill-opacity="1"></path></g></g></g><g><g><g transform="matrix(1,0,0,1,2,100.85499572753906)"><path transform="matrix(0.017,0,0,-0.017,0,0)" d="M662 6L655 -4C549 0 443 0 336 0C235 0 134 -1 33 -4L27 6C88 116 136 238 186 354C235 466 288 580 327 697L352 697C395 590 597 128 662 6ZM584 37C518 215 447 389 371 564L364 564C289 391 217 215 152 37Z" stroke="rgb(0,0,0)" stroke-opacity="1" stroke-width="8" fill="rgb(0,0,0)" fill-opacity="1"></path></g></g><g><g transform="matrix(1,0,0,1,13.70001220703125,100.85499572753906)"><path transform="matrix(0.017,0,0,-0.017,0,0)" d="M622 285C624 428 505 474 382 473C398 548 407 624 432 699L432 705C418 700 404 693 389 684L354 473C184 474 30 367 27 185C24 37 142 -8 268 -16L229 -289C249 -282 267 -274 282 -261C283 -179 288 -98 299 -16C481 -3 618 87 622 285ZM539 273C537 130 451 11 301 6L377 449C487 447 541 380 539 273ZM349 449L270 5C155 14 106 73 108 187C111 336 196 444 349 449Z" stroke="rgb(0,0,0)" stroke-opacity="1" stroke-width="8" fill="rgb(0,0,0)" fill-opacity="1"></path></g></g><g><g transform="matrix(1,0,0,1,28.4000244140625,100.85499572753906)"><path transform="matrix(0.017,0,0,-0.017,0,0)" d="M123 111C93 111 66 83 66 53C66 23 93 -5 122 -5C154 -5 182 22 182 53C182 83 154 111 123 111ZM123 456C93 456 66 428 66 398C66 368 93 340 122 340C154 340 182 367 182 397C182 428 154 456 123 456Z" stroke="rgb(0,0,0)" stroke-opacity="1" stroke-width="8" fill="rgb(0,0,0)" fill-opacity="1"></path></g></g><g><g transform="matrix(1,0,0,1,36.035003662109375,100.85499572753906)"><path transform="matrix(0.017,0,0,-0.017,0,0)" d="M415 420C436 420 452 421 478 424C367 304 325 221 325 121C325 44 371 -11 435 -11C573 -11 726 236 726 384C726 441 700 482 664 482C651 482 639 478 631 470L581 423L592 404C601 410 610 413 619 413C646 413 662 390 662 350C662 202 565 39 477 39C428 39 397 81 397 146C397 251 436 342 534 464L524 482C504 473 491 470 463 470C435 470 393 472 364 475L352 476C346 477 341 477 340 477C328 477 319 475 308 470C294 443 283 407 270 352L292 352L309 394C316 411 336 422 360 422C393 422 377 420 415 420ZM1019 204L990 77C986 60 984 42 984 26C984 4 993 -9 1008 -9C1031 -9 1072 17 1154 85L1147 106C1123 86 1094 59 1072 59C1063 59 1057 68 1057 82C1057 87 1057 90 1058 93L1150 472L1140 481L1107 463C1066 478 1049 482 1022 482C994 482 974 477 947 464C885 433 852 403 827 354C783 265 752 145 752 67C752 23 767 -11 786 -11C823 -11 903 41 1019 204ZM1067 414C1045 305 1026 253 992 201C935 117 874 59 842 59C830 59 824 72 824 99C824 163 852 280 887 360C911 415 934 433 982 433C1005 433 1023 429 1067 414ZM1559 365C1562 403 1567 435 1575 476C1564 481 1560 482 1555 482C1524 482 1493 458 1457 407C1418 351 1379 291 1363 256L1395 408C1399 425 1401 438 1401 450C1401 470 1393 482 1378 482C1357 482 1319 461 1245 408L1217 388L1224 368L1256 389C1284 407 1295 412 1304 412C1314 412 1321 403 1321 390C1321 332 1278 126 1238 -2L1248 -9C1263 -4 1279 -1 1302 4L1315 6L1341 126C1359 209 1382 262 1426 319C1460 363 1487 384 1509 384C1524 384 1534 379 1545 365ZM1613 388L1620 368L1652 389C1689 412 1692 414 1699 414C1709 414 1717 404 1717 391C1717 384 1713 361 1709 347L1643 107C1635 76 1630 49 1630 30C1630 6 1641 -9 1660 -9C1686 -9 1722 12 1820 85L1810 103L1784 86C1755 67 1732 56 1723 56C1716 56 1710 66 1710 76C1710 86 1712 95 1717 116L1794 420C1798 437 1800 448 1800 456C1800 473 1791 482 1775 482C1753 482 1716 461 1641 408ZM1807 712C1778 712 1749 679 1749 645C1749 620 1764 604 1788 604C1819 604 1843 633 1843 671C1843 695 1828 712 1807 712ZM2127 204L2098 77C2094 60 2092 42 2092 26C2092 4 2101 -9 2116 -9C2139 -9 2180 17 2262 85L2255 106C2231 86 2202 59 2180 59C2171 59 2165 68 2165 82C2165 87 2165 90 2166 93L2258 472L2248 481L2215 463C2174 478 2157 482 2130 482C2102 482 2082 477 2055 464C1993 433 1960 403 1935 354C1891 265 1860 145 1860 67C1860 23 1875 -11 1894 -11C1931 -11 2011 41 2127 204ZM2175 414C2153 305 2134 253 2100 201C2043 117 1982 59 1950 59C1938 59 1932 72 1932 99C1932 163 1960 280 1995 360C2019 415 2042 433 2090 433C2113 433 2131 429 2175 414ZM2641 330L2664 330C2672 395 2679 432 2688 458C2664 473 2629 482 2592 482C2547 483 2474 463 2417 400C2363 352 2324 241 2324 136C2324 40 2366 -11 2446 -11C2500 -11 2548 9 2603 54L2653 95L2645 115L2630 105C2558 57 2520 40 2485 40C2429 40 2400 80 2400 159C2400 267 2435 371 2484 409C2505 425 2529 433 2560 433C2605 433 2641 414 2641 390ZM2739 388L2746 368L2778 389C2815 412 2818 414 2825 414C2835 414 2843 404 2843 391C2843 384 2839 361 2835 347L2769 107C2761 76 2756 49 2756 30C2756 6 2767 -9 2786 -9C2812 -9 2848 12 2946 85L2936 103L2910 86C2881 67 2858 56 2849 56C2842 56 2836 66 2836 76C2836 86 2838 95 2843 116L2920 420C2924 437 2926 448 2926 456C2926 473 2917 482 2901 482C2879 482 2842 461 2767 408ZM2933 712C2904 712 2875 679 2875 645C2875 620 2890 604 2914 604C2945 604 2969 633 2969 671C2969 695 2954 712 2933 712ZM2999 152C2999 46 3044 -11 3127 -11C3182 -11 3242 15 3287 57C3349 116 3393 230 3393 331C3393 425 3343 482 3260 482C3156 482 2999 382 2999 152ZM3223 444C3284 444 3317 399 3317 315C3317 219 3286 113 3242 60C3224 39 3198 27 3167 27C3109 27 3075 72 3075 151C3075 264 3114 387 3163 427C3176 438 3199 444 3223 444ZM3449 388L3456 368L3488 389C3525 412 3528 414 3535 414C3546 414 3553 404 3553 389C3553 338 3512 145 3471 2L3478 -9C3503 -2 3526 4 3548 8C3567 134 3588 199 3634 268C3688 352 3763 414 3808 414C3819 414 3825 405 3825 390C3825 372 3822 351 3814 319L3762 107C3753 70 3749 47 3749 31C3749 6 3760 -9 3779 -9C3805 -9 3841 12 3939 85L3929 103L3903 86C3874 67 3852 56 3842 56C3835 56 3829 65 3829 76C3829 81 3830 92 3831 96L3897 372C3904 401 3908 429 3908 446C3908 469 3897 482 3877 482C3835 482 3766 444 3707 389C3669 354 3641 320 3589 247L3627 408C3631 426 3633 438 3633 449C3633 470 3625 482 3610 482C3589 482 3550 460 3477 408ZM4712 722L4700 733C4648 707 4612 698 4540 691L4536 670L4584 670C4608 670 4618 663 4618 646C4618 638 4617 629 4616 622L4588 468C4558 477 4531 482 4506 482C4437 482 4343 410 4297 323C4266 265 4246 170 4246 86C4246 21 4261 -11 4290 -11C4317 -11 4354 6 4388 33C4442 77 4475 116 4542 217L4519 126C4508 82 4503 50 4503 24C4503 3 4512 -9 4529 -9C4546 -9 4570 3 4604 28L4685 88L4675 107L4631 76C4617 66 4601 59 4592 59C4584 59 4578 68 4578 82C4578 90 4579 99 4586 128ZM4343 59C4327 59 4318 73 4318 98C4318 224 4364 380 4413 418C4426 428 4445 433 4472 433C4516 433 4545 427 4578 410L4566 351C4529 171 4388 59 4343 59ZM5056 111L5032 94C4979 56 4931 36 4895 36C4848 36 4819 73 4819 133C4819 158 4822 185 4827 214C4844 218 4953 248 4978 259C5063 296 5102 342 5102 404C5102 451 5068 482 5018 482C4950 496 4840 423 4803 349C4773 299 4743 180 4743 113C4743 35 4787 -11 4859 -11C4916 -11 4972 17 5064 92ZM4841 274C4858 343 4878 386 4907 412C4925 428 4956 440 4980 440C5009 440 5028 420 5028 388C5028 344 4993 297 4941 272C4913 258 4877 247 4832 237Z" stroke="rgb(0,0,0)" stroke-opacity="1" stroke-width="8" fill="rgb(0,0,0)" fill-opacity="1"></path></g></g></g><g><g><g transform="matrix(1,0,0,1,2,121.01499938964844)"><path transform="matrix(0.017,0,0,-0.017,0,0)" d="M345 437L329 437L350 549C366 635 394 673 440 673C470 673 497 658 512 634L522 638C527 654 537 685 545 705L550 720C534 727 503 733 480 733C469 733 453 730 445 726C421 715 339 654 316 630C294 608 282 578 271 521L256 442C215 422 195 414 170 405L165 383L246 383L237 327C207 132 170 -54 148 -123C130 -182 100 -213 64 -213C41 -213 30 -206 12 -184L-2 -188C-6 -211 -20 -259 -25 -268C-16 -273 -1 -276 10 -276C51 -276 105 -245 144 -198C215 -114 235 -18 319 383L423 383C427 402 434 425 440 439L436 446C407 439 408 437 345 437ZM801 722L789 733C737 707 701 698 629 691L625 670L673 670C697 670 707 663 707 648C707 645 707 640 704 622C693 567 620 182 605 132C592 82 586 52 586 31C586 6 597 -9 616 -9C642 -9 678 12 776 85L766 103L740 86C711 67 689 56 679 56C672 56 666 66 666 76C666 82 667 89 670 104ZM1319 473L1312 482L1244 465L1234 414C1219 336 1194 268 1163 221C1104 130 1026 59 986 59C978 59 973 68 973 85C973 99 975 112 980 137L1037 408C1040 424 1042 438 1042 451C1042 470 1033 482 1019 482C999 482 961 461 887 408L859 388L866 368L898 389C926 407 937 412 946 412C955 412 963 403 963 392C963 388 962 378 961 374L898 77C896 68 894 44 894 30C894 7 909 -11 929 -11C992 -11 1113 101 1197 239L1160 97C1153 73 1149 46 1149 31C1149 6 1160 -9 1179 -9C1205 -9 1241 12 1339 85L1329 103L1303 86C1279 70 1253 59 1242 59C1234 59 1229 66 1229 76C1229 112 1304 416 1319 473ZM1576 351L1476 -144C1465 -196 1447 -231 1429 -231C1415 -231 1397 -225 1376 -212L1368 -269C1378 -274 1391 -276 1406 -276C1446 -276 1486 -233 1522 -152C1542 -107 1556 -57 1584 70L1660 420C1664 438 1666 451 1666 457C1666 473 1657 482 1641 482C1619 482 1582 461 1507 408L1479 388L1486 368L1518 389C1555 412 1558 414 1565 414C1575 414 1583 404 1583 391C1583 382 1576 356 1576 351ZM1667 712C1638 712 1609 679 1609 645C1609 620 1624 604 1648 604C1679 604 1703 633 1703 671C1703 695 1688 712 1667 712ZM1726 152C1726 46 1771 -11 1854 -11C1909 -11 1969 15 2014 57C2076 116 2120 230 2120 331C2120 425 2070 482 1987 482C1883 482 1726 382 1726 152ZM1950 444C2011 444 2044 399 2044 315C2044 219 2013 113 1969 60C1951 39 1925 27 1894 27C1836 27 1802 72 1802 151C1802 264 1841 387 1890 427C1903 438 1926 444 1950 444ZM3131 103L3105 86C3076 67 3054 56 3044 56C3037 56 3031 65 3031 76C3031 86 3033 95 3038 116L3113 413C3117 430 3120 446 3120 454C3120 471 3110 482 3094 482C3065 482 3027 464 2966 421C2903 376 2868 341 2819 272L2849 409C2853 429 2856 444 2856 451C2856 470 2846 482 2830 482C2800 482 2754 460 2699 418C2655 384 2635 363 2570 275L2603 408C2607 424 2609 439 2609 451C2609 470 2600 482 2586 482C2565 482 2527 461 2453 408L2425 388L2432 368C2469 391 2504 414 2511 414C2522 414 2529 404 2529 389C2529 338 2488 145 2447 2L2450 -9L2518 6L2540 108C2564 219 2591 278 2646 338C2688 384 2733 414 2761 414C2768 414 2772 406 2772 393C2772 358 2750 244 2709 69L2693 2L2698 -9L2767 6L2788 113C2804 194 2838 269 2882 318C2937 379 2987 414 3019 414C3027 414 3032 405 3032 389C3032 365 3029 351 3007 264C2967 105 2951 84 2951 31C2951 6 2962 -9 2981 -9C3007 -9 3043 12 3141 85ZM3449 204L3420 77C3416 60 3414 42 3414 26C3414 4 3423 -9 3438 -9C3461 -9 3502 17 3584 85L3577 106C3553 86 3524 59 3502 59C3493 59 3487 68 3487 82C3487 87 3487 90 3488 93L3580 472L3570 481L3537 463C3496 478 3479 482 3452 482C3424 482 3404 477 3377 464C3315 433 3282 403 3257 354C3213 265 3182 145 3182 67C3182 23 3197 -11 3216 -11C3253 -11 3333 41 3449 204ZM3497 414C3475 305 3456 253 3422 201C3365 117 3304 59 3272 59C3260 59 3254 72 3254 99C3254 163 3282 280 3317 360C3341 415 3364 433 3412 433C3435 433 3453 429 3497 414ZM3896 482C3829 482 3676 419 3676 259C3676 182 3721 136 3798 136C3806 136 3817 136 3828 137L3787 99C3771 84 3760 66 3760 52C3760 42 3767 31 3781 19C3712 -4 3584 -48 3584 -159C3584 -230 3654 -276 3763 -276C3892 -276 4005 -204 4005 -121C4005 -85 3984 -49 3941 -14L3881 35C3847 62 3834 81 3834 100C3834 114 3849 128 3861 146C3959 170 4030 253 4030 342C4030 357 4027 376 4026 380C4043 378 4051 378 4060 378C4077 378 4087 379 4110 382L4119 427L4116 433C4088 426 4068 424 4014 424C4014 425 3990 482 3896 482ZM3797 1L3874 -58C3920 -94 3939 -121 3939 -154C3939 -206 3870 -248 3787 -248C3705 -248 3648 -206 3648 -145C3648 -43 3758 -11 3797 1ZM3871 448C3929 448 3958 412 3958 341C3958 238 3910 168 3840 168C3779 168 3747 209 3747 288C3747 383 3798 448 3871 448ZM4144 388L4151 368L4183 389C4220 412 4223 414 4230 414C4241 414 4248 404 4248 389C4248 338 4207 145 4166 2L4173 -9C4198 -2 4221 4 4243 8C4262 134 4283 199 4329 268C4383 352 4458 414 4503 414C4514 414 4520 405 4520 390C4520 372 4517 351 4509 319L4457 107C4448 70 4444 47 4444 31C4444 6 4455 -9 4474 -9C4500 -9 4536 12 4634 85L4624 103L4598 86C4569 67 4547 56 4537 56C4530 56 4524 65 4524 76C4524 81 4525 92 4526 96L4592 372C4599 401 4603 429 4603 446C4603 469 4592 482 4572 482C4530 482 4461 444 4402 389C4364 354 4336 320 4284 247L4322 408C4326 426 4328 438 4328 449C4328 470 4320 482 4305 482C4284 482 4245 460 4172 408ZM5003 111L4979 94C4926 56 4878 36 4842 36C4795 36 4766 73 4766 133C4766 158 4769 185 4774 214C4791 218 4900 248 4925 259C5010 296 5049 342 5049 404C5049 451 5015 482 4965 482C4897 496 4787 423 4750 349C4720 299 4690 180 4690 113C4690 35 4734 -11 4806 -11C4863 -11 4919 17 5011 92ZM4788 274C4805 343 4825 386 4854 412C4872 428 4903 440 4927 440C4956 440 4975 420 4975 388C4975 344 4940 297 4888 272C4860 258 4824 247 4779 237ZM5188 390L5132 107C5131 99 5119 61 5119 31C5119 6 5130 -9 5149 -9C5184 -9 5219 11 5297 74L5328 99L5318 117L5273 86C5244 66 5224 56 5213 56C5204 56 5199 64 5199 76C5199 102 5213 183 5242 328L5255 390L5362 390L5373 440C5335 436 5301 434 5263 434C5279 528 5290 577 5308 631L5297 646C5277 634 5250 622 5219 610L5194 440C5150 419 5124 408 5106 403L5104 390ZM5429 388L5436 368L5468 389C5505 412 5508 414 5515 414C5525 414 5533 404 5533 391C5533 384 5529 361 5525 347L5459 107C5451 76 5446 49 5446 30C5446 6 5457 -9 5476 -9C5502 -9 5538 12 5636 85L5626 103L5600 86C5571 67 5548 56 5539 56C5532 56 5526 66 5526 76C5526 86 5528 95 5533 116L5610 420C5614 437 5616 448 5616 456C5616 473 5607 482 5591 482C5569 482 5532 461 5457 408ZM5623 712C5594 712 5565 679 5565 645C5565 620 5580 604 5604 604C5635 604 5659 633 5659 671C5659 695 5644 712 5623 712ZM6014 330L6037 330C6045 395 6052 432 6061 458C6037 473 6002 482 5965 482C5920 483 5847 463 5790 400C5736 352 5697 241 5697 136C5697 40 5739 -11 5819 -11C5873 -11 5921 9 5976 54L6026 95L6018 115L6003 105C5931 57 5893 40 5858 40C5802 40 5773 80 5773 159C5773 267 5808 371 5857 409C5878 425 5902 433 5933 433C5978 433 6014 414 6014 390ZM6095 152C6095 46 6140 -11 6223 -11C6278 -11 6338 15 6383 57C6445 116 6489 230 6489 331C6489 425 6439 482 6356 482C6252 482 6095 382 6095 152ZM6319 444C6380 444 6413 399 6413 315C6413 219 6382 113 6338 60C6320 39 6294 27 6263 27C6205 27 6171 72 6171 151C6171 264 6210 387 6259 427C6272 438 6295 444 6319 444Z" stroke="rgb(0,0,0)" stroke-opacity="1" stroke-width="8" fill="rgb(0,0,0)" fill-opacity="1"></path></g></g></g><g><g><g transform="matrix(1,0,0,1,2,141.1750030517578)"><path transform="matrix(0.017,0,0,-0.017,0,0)" d="M662 6L655 -4C549 0 443 0 336 0C235 0 134 -1 33 -4L27 6C88 116 136 238 186 354C235 466 288 580 327 697L352 697C395 590 597 128 662 6ZM584 37C518 215 447 389 371 564L364 564C289 391 217 215 152 37Z" stroke="rgb(0,0,0)" stroke-opacity="1" stroke-width="8" fill="rgb(0,0,0)" fill-opacity="1"></path></g></g><g><g transform="matrix(1,0,0,1,13.70001220703125,141.1750030517578)"><path transform="matrix(0.017,0,0,-0.017,0,0)" d="M125 390L69 107C68 99 56 61 56 31C56 6 67 -9 86 -9C121 -9 156 11 234 74L265 99L255 117L210 86C181 66 161 56 150 56C141 56 136 64 136 76C136 102 150 183 179 328L192 390L299 390L310 440C272 436 238 434 200 434C216 528 227 577 245 631L234 646C214 634 187 622 156 610L131 440C87 419 61 408 43 403L41 390Z" stroke="rgb(0,0,0)" stroke-opacity="1" stroke-width="8" fill="rgb(0,0,0)" fill-opacity="1"></path></g></g><g><g transform="matrix(1,0,0,1,22.745025634765625,141.1750030517578)"><path transform="matrix(0.017,0,0,-0.017,0,0)" d="M123 111C93 111 66 83 66 53C66 23 93 -5 122 -5C154 -5 182 22 182 53C182 83 154 111 123 111ZM123 456C93 456 66 428 66 398C66 368 93 340 122 340C154 340 182 367 182 397C182 428 154 456 123 456Z" stroke="rgb(0,0,0)" stroke-opacity="1" stroke-width="8" fill="rgb(0,0,0)" fill-opacity="1"></path></g></g><g><g transform="matrix(1,0,0,1,30.3800048828125,141.1750030517578)"><path transform="matrix(0.017,0,0,-0.017,0,0)" d="M415 420C436 420 452 421 478 424C367 304 325 221 325 121C325 44 371 -11 435 -11C573 -11 726 236 726 384C726 441 700 482 664 482C651 482 639 478 631 470L581 423L592 404C601 410 610 413 619 413C646 413 662 390 662 350C662 202 565 39 477 39C428 39 397 81 397 146C397 251 436 342 534 464L524 482C504 473 491 470 463 470C435 470 393 472 364 475L352 476C346 477 341 477 340 477C328 477 319 475 308 470C294 443 283 407 270 352L292 352L309 394C316 411 336 422 360 422C393 422 377 420 415 420ZM1019 204L990 77C986 60 984 42 984 26C984 4 993 -9 1008 -9C1031 -9 1072 17 1154 85L1147 106C1123 86 1094 59 1072 59C1063 59 1057 68 1057 82C1057 87 1057 90 1058 93L1150 472L1140 481L1107 463C1066 478 1049 482 1022 482C994 482 974 477 947 464C885 433 852 403 827 354C783 265 752 145 752 67C752 23 767 -11 786 -11C823 -11 903 41 1019 204ZM1067 414C1045 305 1026 253 992 201C935 117 874 59 842 59C830 59 824 72 824 99C824 163 852 280 887 360C911 415 934 433 982 433C1005 433 1023 429 1067 414ZM1559 365C1562 403 1567 435 1575 476C1564 481 1560 482 1555 482C1524 482 1493 458 1457 407C1418 351 1379 291 1363 256L1395 408C1399 425 1401 438 1401 450C1401 470 1393 482 1378 482C1357 482 1319 461 1245 408L1217 388L1224 368L1256 389C1284 407 1295 412 1304 412C1314 412 1321 403 1321 390C1321 332 1278 126 1238 -2L1248 -9C1263 -4 1279 -1 1302 4L1315 6L1341 126C1359 209 1382 262 1426 319C1460 363 1487 384 1509 384C1524 384 1534 379 1545 365ZM1613 388L1620 368L1652 389C1689 412 1692 414 1699 414C1709 414 1717 404 1717 391C1717 384 1713 361 1709 347L1643 107C1635 76 1630 49 1630 30C1630 6 1641 -9 1660 -9C1686 -9 1722 12 1820 85L1810 103L1784 86C1755 67 1732 56 1723 56C1716 56 1710 66 1710 76C1710 86 1712 95 1717 116L1794 420C1798 437 1800 448 1800 456C1800 473 1791 482 1775 482C1753 482 1716 461 1641 408ZM1807 712C1778 712 1749 679 1749 645C1749 620 1764 604 1788 604C1819 604 1843 633 1843 671C1843 695 1828 712 1807 712ZM2127 204L2098 77C2094 60 2092 42 2092 26C2092 4 2101 -9 2116 -9C2139 -9 2180 17 2262 85L2255 106C2231 86 2202 59 2180 59C2171 59 2165 68 2165 82C2165 87 2165 90 2166 93L2258 472L2248 481L2215 463C2174 478 2157 482 2130 482C2102 482 2082 477 2055 464C1993 433 1960 403 1935 354C1891 265 1860 145 1860 67C1860 23 1875 -11 1894 -11C1931 -11 2011 41 2127 204ZM2175 414C2153 305 2134 253 2100 201C2043 117 1982 59 1950 59C1938 59 1932 72 1932 99C1932 163 1960 280 1995 360C2019 415 2042 433 2090 433C2113 433 2131 429 2175 414ZM2641 330L2664 330C2672 395 2679 432 2688 458C2664 473 2629 482 2592 482C2547 483 2474 463 2417 400C2363 352 2324 241 2324 136C2324 40 2366 -11 2446 -11C2500 -11 2548 9 2603 54L2653 95L2645 115L2630 105C2558 57 2520 40 2485 40C2429 40 2400 80 2400 159C2400 267 2435 371 2484 409C2505 425 2529 433 2560 433C2605 433 2641 414 2641 390ZM2739 388L2746 368L2778 389C2815 412 2818 414 2825 414C2835 414 2843 404 2843 391C2843 384 2839 361 2835 347L2769 107C2761 76 2756 49 2756 30C2756 6 2767 -9 2786 -9C2812 -9 2848 12 2946 85L2936 103L2910 86C2881 67 2858 56 2849 56C2842 56 2836 66 2836 76C2836 86 2838 95 2843 116L2920 420C2924 437 2926 448 2926 456C2926 473 2917 482 2901 482C2879 482 2842 461 2767 408ZM2933 712C2904 712 2875 679 2875 645C2875 620 2890 604 2914 604C2945 604 2969 633 2969 671C2969 695 2954 712 2933 712ZM2999 152C2999 46 3044 -11 3127 -11C3182 -11 3242 15 3287 57C3349 116 3393 230 3393 331C3393 425 3343 482 3260 482C3156 482 2999 382 2999 152ZM3223 444C3284 444 3317 399 3317 315C3317 219 3286 113 3242 60C3224 39 3198 27 3167 27C3109 27 3075 72 3075 151C3075 264 3114 387 3163 427C3176 438 3199 444 3223 444ZM3449 388L3456 368L3488 389C3525 412 3528 414 3535 414C3546 414 3553 404 3553 389C3553 338 3512 145 3471 2L3478 -9C3503 -2 3526 4 3548 8C3567 134 3588 199 3634 268C3688 352 3763 414 3808 414C3819 414 3825 405 3825 390C3825 372 3822 351 3814 319L3762 107C3753 70 3749 47 3749 31C3749 6 3760 -9 3779 -9C3805 -9 3841 12 3939 85L3929 103L3903 86C3874 67 3852 56 3842 56C3835 56 3829 65 3829 76C3829 81 3830 92 3831 96L3897 372C3904 401 3908 429 3908 446C3908 469 3897 482 3877 482C3835 482 3766 444 3707 389C3669 354 3641 320 3589 247L3627 408C3631 426 3633 438 3633 449C3633 470 3625 482 3610 482C3589 482 3550 460 3477 408ZM4712 722L4700 733C4648 707 4612 698 4540 691L4536 670L4584 670C4608 670 4618 663 4618 646C4618 638 4617 629 4616 622L4588 468C4558 477 4531 482 4506 482C4437 482 4343 410 4297 323C4266 265 4246 170 4246 86C4246 21 4261 -11 4290 -11C4317 -11 4354 6 4388 33C4442 77 4475 116 4542 217L4519 126C4508 82 4503 50 4503 24C4503 3 4512 -9 4529 -9C4546 -9 4570 3 4604 28L4685 88L4675 107L4631 76C4617 66 4601 59 4592 59C4584 59 4578 68 4578 82C4578 90 4579 99 4586 128ZM4343 59C4327 59 4318 73 4318 98C4318 224 4364 380 4413 418C4426 428 4445 433 4472 433C4516 433 4545 427 4578 410L4566 351C4529 171 4388 59 4343 59ZM5056 111L5032 94C4979 56 4931 36 4895 36C4848 36 4819 73 4819 133C4819 158 4822 185 4827 214C4844 218 4953 248 4978 259C5063 296 5102 342 5102 404C5102 451 5068 482 5018 482C4950 496 4840 423 4803 349C4773 299 4743 180 4743 113C4743 35 4787 -11 4859 -11C4916 -11 4972 17 5064 92ZM4841 274C4858 343 4878 386 4907 412C4925 428 4956 440 4980 440C5009 440 5028 420 5028 388C5028 344 4993 297 4941 272C4913 258 4877 247 4832 237Z" stroke="rgb(0,0,0)" stroke-opacity="1" stroke-width="8" fill="rgb(0,0,0)" fill-opacity="1"></path></g></g></g><g><g><g transform="matrix(1,0,0,1,2,161.3350067138672)"><path transform="matrix(0.017,0,0,-0.017,0,0)" d="M125 390L69 107C68 99 56 61 56 31C56 6 67 -9 86 -9C121 -9 156 11 234 74L265 99L255 117L210 86C181 66 161 56 150 56C141 56 136 64 136 76C136 102 150 183 179 328L192 390L299 390L310 440C272 436 238 434 200 434C216 528 227 577 245 631L234 646C214 634 187 622 156 610L131 440C87 419 61 408 43 403L41 390ZM366 388L373 368L405 389C442 412 445 414 452 414C462 414 470 404 470 391C470 384 466 361 462 347L396 107C388 76 383 49 383 30C383 6 394 -9 413 -9C439 -9 475 12 573 85L563 103L537 86C508 67 485 56 476 56C469 56 463 66 463 76C463 86 465 95 470 116L547 420C551 437 553 448 553 456C553 473 544 482 528 482C506 482 469 461 394 408ZM560 712C531 712 502 679 502 645C502 620 517 604 541 604C572 604 596 633 596 671C596 695 581 712 560 712ZM937 111L913 94C860 56 812 36 776 36C729 36 700 73 700 133C700 158 703 185 708 214C725 218 834 248 859 259C944 296 983 342 983 404C983 451 949 482 899 482C831 496 721 423 684 349C654 299 624 180 624 113C624 35 668 -11 740 -11C797 -11 853 17 945 92ZM722 274C739 343 759 386 788 412C806 428 837 440 861 440C890 440 909 420 909 388C909 344 874 297 822 272C794 258 758 247 713 237ZM1727 103L1701 86C1672 67 1650 56 1640 56C1633 56 1627 65 1627 76C1627 86 1629 95 1634 116L1709 413C1713 430 1716 446 1716 454C1716 471 1706 482 1690 482C1661 482 1623 464 1562 421C1499 376 1464 341 1415 272L1445 409C1449 429 1452 444 1452 451C1452 470 1442 482 1426 482C1396 482 1350 460 1295 418C1251 384 1231 363 1166 275L1199 408C1203 424 1205 439 1205 451C1205 470 1196 482 1182 482C1161 482 1123 461 1049 408L1021 388L1028 368C1065 391 1100 414 1107 414C1118 414 1125 404 1125 389C1125 338 1084 145 1043 2L1046 -9L1114 6L1136 108C1160 219 1187 278 1242 338C1284 384 1329 414 1357 414C1364 414 1368 406 1368 393C1368 358 1346 244 1305 69L1289 2L1294 -9L1363 6L1384 113C1400 194 1434 269 1478 318C1533 379 1583 414 1615 414C1623 414 1628 405 1628 389C1628 365 1625 351 1603 264C1563 105 1547 84 1547 31C1547 6 1558 -9 1577 -9C1603 -9 1639 12 1737 85ZM1950 -11C2006 -11 2121 62 2164 125C2205 186 2239 296 2239 371C2239 438 2216 482 2180 482C2138 482 2085 456 2033 409C1992 374 1972 348 1936 289L1960 408C1963 425 1965 440 1965 452C1965 471 1957 482 1943 482C1922 482 1884 461 1810 408L1782 388L1789 368L1821 389C1849 407 1860 412 1869 412C1879 412 1886 403 1886 389C1886 381 1884 361 1882 351L1824 8C1814 -52 1795 -143 1775 -233L1767 -270L1774 -276C1795 -269 1815 -264 1847 -259L1889 3C1910 -4 1932 -11 1950 -11ZM1917 165C1939 293 2046 424 2129 424C2155 424 2167 402 2167 356C2167 275 2127 156 2074 80C2054 51 2022 36 1981 36C1950 36 1925 43 1899 59ZM2290 152C2290 46 2335 -11 2418 -11C2473 -11 2533 15 2578 57C2640 116 2684 230 2684 331C2684 425 2634 482 2551 482C2447 482 2290 382 2290 152ZM2514 444C2575 444 2608 399 2608 315C2608 219 2577 113 2533 60C2515 39 2489 27 2458 27C2400 27 2366 72 2366 151C2366 264 2405 387 2454 427C2467 438 2490 444 2514 444Z" stroke="rgb(0,0,0)" stroke-opacity="1" stroke-width="8" fill="rgb(0,0,0)" fill-opacity="1"></path></g></g></g></g></svg>