<svg xmlns="http://www.w3.org/2000/svg" xmlns:xlink="http://www.w3.org/1999/xlink" width="143.29000854492188" height="84.63999938964844" style="width:143.29000854492188px;height:84.63999938964844px;font-family:Asana-Math, Asana;background:#FFF;"><g><g><g><g transform="matrix(1,0,0,1,2,18.039993286132812)"><path transform="matrix(0.017,0,0,-0.017,0,0)" d="M2365 285C2367 428 2248 474 2125 473C2141 548 2150 624 2175 699L2175 705C2161 700 2147 693 2132 684L2097 473C1927 474 1773 367 1770 185C1767 37 1885 -8 2011 -16L1972 -289C1992 -282 2010 -274 2025 -261C2026 -179 2031 -98 2042 -16C2224 -3 2361 87 2365 285ZM2282 273C2280 130 2194 11 2044 6L2120 449C2230 447 2284 380 2282 273ZM2092 449L2013 5C1898 14 1849 73 1851 187C1854 336 1939 444 2092 449Z" stroke="rgb(0,0,0)" stroke-opacity="1" stroke-width="8" fill="rgb(0,0,0)" fill-opacity="1"></path></g></g><g><g transform="matrix(1,0,0,1,48.02000427246094,18.039993286132812)"><path transform="matrix(0.017,0,0,-0.017,0,0)" d="M604 347L604 406L65 406L65 347ZM604 134L604 193L65 193L65 134Z" stroke="rgb(0,0,0)" stroke-opacity="1" stroke-width="8" fill="rgb(0,0,0)" fill-opacity="1"></path></g></g><g><g transform="matrix(1,0,0,1,64.47502136230469,18.039993286132812)"><path transform="matrix(0.017,0,0,-0.017,0,0)" d="M543 227C543 337 459 353 377 365C434 385 459 397 490 425C536 464 559 511 559 562C559 644 501 692 401 692C399 692 389 692 374 691L311 690C299 689 263 689 251 689C232 689 201 690 152 691L100 692L97 664L150 662C174 661 185 653 185 635C185 621 181 589 176 559L89 55C85 37 73 30 31 23L26 -3L63 -2C90 0 105 0 117 0C128 0 154 -1 180 -2L217 -3L237 -4C256 -5 269 -6 277 -6C392 -6 543 87 543 227ZM166 41L217 340L302 340C405 340 455 298 455 211C455 108 382 34 282 34C228 34 207 38 166 41ZM352 655C433 655 473 619 473 544C473 439 399 376 275 376L223 376L272 650C288 650 329 655 352 655ZM1177 55C1177 39 1162 30 1134 28L1090 25L1090 -3C1192 0 1192 0 1212 0C1232 0 1232 0 1334 -3L1334 25L1308 28C1261 35 1260 35 1252 80L1165 705L1119 705L746 112C710 56 692 40 658 32L638 27L638 -3C730 0 730 0 750 0C769 0 771 0 857 -3L857 25L805 28C789 29 774 38 774 47C774 55 781 69 800 102L902 277L1148 277L1173 89L1173 86C1173 84 1177 69 1177 55ZM1106 601L1143 313L927 313Z" stroke="rgb(0,0,0)" stroke-opacity="1" stroke-width="8" fill="rgb(0,0,0)" fill-opacity="1"></path></g></g></g><g></g><g><g><g transform="matrix(1,0,0,1,2,58.36000061035156)"><path transform="matrix(0.017,0,0,-0.017,0,0)" d="M543 227C543 337 459 353 377 365C434 385 459 397 490 425C536 464 559 511 559 562C559 644 501 692 401 692C399 692 389 692 374 691L311 690C299 689 263 689 251 689C232 689 201 690 152 691L100 692L97 664L150 662C174 661 185 653 185 635C185 621 181 589 176 559L89 55C85 37 73 30 31 23L26 -3L63 -2C90 0 105 0 117 0C128 0 154 -1 180 -2L217 -3L237 -4C256 -5 269 -6 277 -6C392 -6 543 87 543 227ZM166 41L217 340L302 340C405 340 455 298 455 211C455 108 382 34 282 34C228 34 207 38 166 41ZM352 655C433 655 473 619 473 544C473 439 399 376 275 376L223 376L272 650C288 650 329 655 352 655Z" stroke="rgb(0,0,0)" stroke-opacity="1" stroke-width="8" fill="rgb(0,0,0)" fill-opacity="1"></path></g></g><g><g transform="matrix(1,0,0,1,15.770004272460938,58.36000061035156)"><path transform="matrix(0.017,0,0,-0.017,0,0)" d="M123 111C93 111 66 83 66 53C66 23 93 -5 122 -5C154 -5 182 22 182 53C182 83 154 111 123 111ZM123 456C93 456 66 428 66 398C66 368 93 340 122 340C154 340 182 367 182 397C182 428 154 456 123 456Z" stroke="rgb(0,0,0)" stroke-opacity="1" stroke-width="8" fill="rgb(0,0,0)" fill-opacity="1"></path></g></g><g><g transform="matrix(1,0,0,1,23.405014038085938,58.36000061035156)"><path transform="matrix(0.017,0,0,-0.017,0,0)" d="M342 330L365 330C373 395 380 432 389 458C365 473 330 482 293 482C248 483 175 463 118 400C64 352 25 241 25 136C25 40 67 -11 147 -11C201 -11 249 9 304 54L354 95L346 115L331 105C259 57 221 40 186 40C130 40 101 80 101 159C101 267 136 371 185 409C206 425 230 433 261 433C306 433 342 414 342 390ZM677 204L648 77C644 60 642 42 642 26C642 4 651 -9 666 -9C689 -9 730 17 812 85L805 106C781 86 752 59 730 59C721 59 715 68 715 82C715 87 715 90 716 93L808 472L798 481L765 463C724 478 707 482 680 482C652 482 632 477 605 464C543 433 510 403 485 354C441 265 410 145 410 67C410 23 425 -11 444 -11C481 -11 561 41 677 204ZM725 414C703 305 684 253 650 201C593 117 532 59 500 59C488 59 482 72 482 99C482 163 510 280 545 360C569 415 592 433 640 433C663 433 681 429 725 414ZM1579 103L1553 86C1524 67 1502 56 1492 56C1485 56 1479 65 1479 76C1479 86 1481 95 1486 116L1561 413C1565 430 1568 446 1568 454C1568 471 1558 482 1542 482C1513 482 1475 464 1414 421C1351 376 1316 341 1267 272L1297 409C1301 429 1304 444 1304 451C1304 470 1294 482 1278 482C1248 482 1202 460 1147 418C1103 384 1083 363 1018 275L1051 408C1055 424 1057 439 1057 451C1057 470 1048 482 1034 482C1013 482 975 461 901 408L873 388L880 368C917 391 952 414 959 414C970 414 977 404 977 389C977 338 936 145 895 2L898 -9L966 6L988 108C1012 219 1039 278 1094 338C1136 384 1181 414 1209 414C1216 414 1220 406 1220 393C1220 358 1198 244 1157 69L1141 2L1146 -9L1215 6L1236 113C1252 194 1286 269 1330 318C1385 379 1435 414 1467 414C1475 414 1480 405 1480 389C1480 365 1477 351 1455 264C1415 105 1399 84 1399 31C1399 6 1410 -9 1429 -9C1455 -9 1491 12 1589 85ZM1802 -11C1858 -11 1973 62 2016 125C2057 186 2091 296 2091 371C2091 438 2068 482 2032 482C1990 482 1937 456 1885 409C1844 374 1824 348 1788 289L1812 408C1815 425 1817 440 1817 452C1817 471 1809 482 1795 482C1774 482 1736 461 1662 408L1634 388L1641 368L1673 389C1701 407 1712 412 1721 412C1731 412 1738 403 1738 389C1738 381 1736 361 1734 351L1676 8C1666 -52 1647 -143 1627 -233L1619 -270L1626 -276C1647 -269 1667 -264 1699 -259L1741 3C1762 -4 1784 -11 1802 -11ZM1769 165C1791 293 1898 424 1981 424C2007 424 2019 402 2019 356C2019 275 1979 156 1926 80C1906 51 1874 36 1833 36C1802 36 1777 43 1751 59ZM2142 152C2142 46 2187 -11 2270 -11C2325 -11 2385 15 2430 57C2492 116 2536 230 2536 331C2536 425 2486 482 2403 482C2299 482 2142 382 2142 152ZM2366 444C2427 444 2460 399 2460 315C2460 219 2429 113 2385 60C2367 39 2341 27 2310 27C2252 27 2218 72 2218 151C2218 264 2257 387 2306 427C2319 438 2342 444 2366 444ZM3547 103L3521 86C3492 67 3470 56 3460 56C3453 56 3447 65 3447 76C3447 86 3449 95 3454 116L3529 413C3533 430 3536 446 3536 454C3536 471 3526 482 3510 482C3481 482 3443 464 3382 421C3319 376 3284 341 3235 272L3265 409C3269 429 3272 444 3272 451C3272 470 3262 482 3246 482C3216 482 3170 460 3115 418C3071 384 3051 363 2986 275L3019 408C3023 424 3025 439 3025 451C3025 470 3016 482 3002 482C2981 482 2943 461 2869 408L2841 388L2848 368C2885 391 2920 414 2927 414C2938 414 2945 404 2945 389C2945 338 2904 145 2863 2L2866 -9L2934 6L2956 108C2980 219 3007 278 3062 338C3104 384 3149 414 3177 414C3184 414 3188 406 3188 393C3188 358 3166 244 3125 69L3109 2L3114 -9L3183 6L3204 113C3220 194 3254 269 3298 318C3353 379 3403 414 3435 414C3443 414 3448 405 3448 389C3448 365 3445 351 3423 264C3383 105 3367 84 3367 31C3367 6 3378 -9 3397 -9C3423 -9 3459 12 3557 85ZM3865 204L3836 77C3832 60 3830 42 3830 26C3830 4 3839 -9 3854 -9C3877 -9 3918 17 4000 85L3993 106C3969 86 3940 59 3918 59C3909 59 3903 68 3903 82C3903 87 3903 90 3904 93L3996 472L3986 481L3953 463C3912 478 3895 482 3868 482C3840 482 3820 477 3793 464C3731 433 3698 403 3673 354C3629 265 3598 145 3598 67C3598 23 3613 -11 3632 -11C3669 -11 3749 41 3865 204ZM3913 414C3891 305 3872 253 3838 201C3781 117 3720 59 3688 59C3676 59 3670 72 3670 99C3670 163 3698 280 3733 360C3757 415 3780 433 3828 433C3851 433 3869 429 3913 414ZM4312 482C4245 482 4092 419 4092 259C4092 182 4137 136 4214 136C4222 136 4233 136 4244 137L4203 99C4187 84 4176 66 4176 52C4176 42 4183 31 4197 19C4128 -4 4000 -48 4000 -159C4000 -230 4070 -276 4179 -276C4308 -276 4421 -204 4421 -121C4421 -85 4400 -49 4357 -14L4297 35C4263 62 4250 81 4250 100C4250 114 4265 128 4277 146C4375 170 4446 253 4446 342C4446 357 4443 376 4442 380C4459 378 4467 378 4476 378C4493 378 4503 379 4526 382L4535 427L4532 433C4504 426 4484 424 4430 424C4430 425 4406 482 4312 482ZM4213 1L4290 -58C4336 -94 4355 -121 4355 -154C4355 -206 4286 -248 4203 -248C4121 -248 4064 -206 4064 -145C4064 -43 4174 -11 4213 1ZM4287 448C4345 448 4374 412 4374 341C4374 238 4326 168 4256 168C4195 168 4163 209 4163 288C4163 383 4214 448 4287 448ZM4560 388L4567 368L4599 389C4636 412 4639 414 4646 414C4657 414 4664 404 4664 389C4664 338 4623 145 4582 2L4589 -9C4614 -2 4637 4 4659 8C4678 134 4699 199 4745 268C4799 352 4874 414 4919 414C4930 414 4936 405 4936 390C4936 372 4933 351 4925 319L4873 107C4864 70 4860 47 4860 31C4860 6 4871 -9 4890 -9C4916 -9 4952 12 5050 85L5040 103L5014 86C4985 67 4963 56 4953 56C4946 56 4940 65 4940 76C4940 81 4941 92 4942 96L5008 372C5015 401 5019 429 5019 446C5019 469 5008 482 4988 482C4946 482 4877 444 4818 389C4780 354 4752 320 4700 247L4738 408C4742 426 4744 438 4744 449C4744 470 4736 482 4721 482C4700 482 4661 460 4588 408ZM5419 111L5395 94C5342 56 5294 36 5258 36C5211 36 5182 73 5182 133C5182 158 5185 185 5190 214C5207 218 5316 248 5341 259C5426 296 5465 342 5465 404C5465 451 5431 482 5381 482C5313 496 5203 423 5166 349C5136 299 5106 180 5106 113C5106 35 5150 -11 5222 -11C5279 -11 5335 17 5427 92ZM5204 274C5221 343 5241 386 5270 412C5288 428 5319 440 5343 440C5372 440 5391 420 5391 388C5391 344 5356 297 5304 272C5276 258 5240 247 5195 237ZM5604 390L5548 107C5547 99 5535 61 5535 31C5535 6 5546 -9 5565 -9C5600 -9 5635 11 5713 74L5744 99L5734 117L5689 86C5660 66 5640 56 5629 56C5620 56 5615 64 5615 76C5615 102 5629 183 5658 328L5671 390L5778 390L5789 440C5751 436 5717 434 5679 434C5695 528 5706 577 5724 631L5713 646C5693 634 5666 622 5635 610L5610 440C5566 419 5540 408 5522 403L5520 390ZM5845 388L5852 368L5884 389C5921 412 5924 414 5931 414C5941 414 5949 404 5949 391C5949 384 5945 361 5941 347L5875 107C5867 76 5862 49 5862 30C5862 6 5873 -9 5892 -9C5918 -9 5954 12 6052 85L6042 103L6016 86C5987 67 5964 56 5955 56C5948 56 5942 66 5942 76C5942 86 5944 95 5949 116L6026 420C6030 437 6032 448 6032 456C6032 473 6023 482 6007 482C5985 482 5948 461 5873 408ZM6039 712C6010 712 5981 679 5981 645C5981 620 5996 604 6020 604C6051 604 6075 633 6075 671C6075 695 6060 712 6039 712ZM6430 330L6453 330C6461 395 6468 432 6477 458C6453 473 6418 482 6381 482C6336 483 6263 463 6206 400C6152 352 6113 241 6113 136C6113 40 6155 -11 6235 -11C6289 -11 6337 9 6392 54L6442 95L6434 115L6419 105C6347 57 6309 40 6274 40C6218 40 6189 80 6189 159C6189 267 6224 371 6273 409C6294 425 6318 433 6349 433C6394 433 6430 414 6430 390ZM6511 152C6511 46 6556 -11 6639 -11C6694 -11 6754 15 6799 57C6861 116 6905 230 6905 331C6905 425 6855 482 6772 482C6668 482 6511 382 6511 152ZM6735 444C6796 444 6829 399 6829 315C6829 219 6798 113 6754 60C6736 39 6710 27 6679 27C6621 27 6587 72 6587 151C6587 264 6626 387 6675 427C6688 438 6711 444 6735 444Z" stroke="rgb(0,0,0)" stroke-opacity="1" stroke-width="8" fill="rgb(0,0,0)" fill-opacity="1"></path></g></g></g><g><g><g transform="matrix(1,0,0,1,2,78.52000427246094)"><path transform="matrix(0.017,0,0,-0.017,0,0)" d="M567 55C567 39 552 30 524 28L480 25L480 -3C582 0 582 0 602 0C622 0 622 0 724 -3L724 25L698 28C651 35 650 35 642 80L555 705L509 705L136 112C100 56 82 40 48 32L28 27L28 -3C120 0 120 0 140 0C159 0 161 0 247 -3L247 25L195 28C179 29 164 38 164 47C164 55 171 69 190 102L292 277L538 277L563 89L563 86C563 84 567 69 567 55ZM496 601L533 313L317 313Z" stroke="rgb(0,0,0)" stroke-opacity="1" stroke-width="8" fill="rgb(0,0,0)" fill-opacity="1"></path></g></g><g><g transform="matrix(1,0,0,1,18.155014038085938,78.52000427246094)"><path transform="matrix(0.017,0,0,-0.017,0,0)" d="M123 111C93 111 66 83 66 53C66 23 93 -5 122 -5C154 -5 182 22 182 53C182 83 154 111 123 111ZM123 456C93 456 66 428 66 398C66 368 93 340 122 340C154 340 182 367 182 397C182 428 154 456 123 456Z" stroke="rgb(0,0,0)" stroke-opacity="1" stroke-width="8" fill="rgb(0,0,0)" fill-opacity="1"></path></g></g><g><g transform="matrix(1,0,0,1,25.789993286132812,78.52000427246094)"><path transform="matrix(0.017,0,0,-0.017,0,0)" d="M271 204L242 77C238 60 236 42 236 26C236 4 245 -9 260 -9C283 -9 324 17 406 85L399 106C375 86 346 59 324 59C315 59 309 68 309 82C309 87 309 90 310 93L402 472L392 481L359 463C318 478 301 482 274 482C246 482 226 477 199 464C137 433 104 403 79 354C35 265 4 145 4 67C4 23 19 -11 38 -11C75 -11 155 41 271 204ZM319 414C297 305 278 253 244 201C187 117 126 59 94 59C82 59 76 72 76 99C76 163 104 280 139 360C163 415 186 433 234 433C257 433 275 429 319 414ZM811 365C814 403 819 435 827 476C816 481 812 482 807 482C776 482 745 458 709 407C670 351 631 291 615 256L647 408C651 425 653 438 653 450C653 470 645 482 630 482C609 482 571 461 497 408L469 388L476 368L508 389C536 407 547 412 556 412C566 412 573 403 573 390C573 332 530 126 490 -2L500 -9C515 -4 531 -1 554 4L567 6L593 126C611 209 634 262 678 319C712 363 739 384 761 384C776 384 786 379 797 365ZM1159 111L1135 94C1082 56 1034 36 998 36C951 36 922 73 922 133C922 158 925 185 930 214C947 218 1056 248 1081 259C1166 296 1205 342 1205 404C1205 451 1171 482 1121 482C1053 496 943 423 906 349C876 299 846 180 846 113C846 35 890 -11 962 -11C1019 -11 1075 17 1167 92ZM944 274C961 343 981 386 1010 412C1028 428 1059 440 1083 440C1112 440 1131 420 1131 388C1131 344 1096 297 1044 272C1016 258 980 247 935 237ZM1490 204L1461 77C1457 60 1455 42 1455 26C1455 4 1464 -9 1479 -9C1502 -9 1543 17 1625 85L1618 106C1594 86 1565 59 1543 59C1534 59 1528 68 1528 82C1528 87 1528 90 1529 93L1621 472L1611 481L1578 463C1537 478 1520 482 1493 482C1465 482 1445 477 1418 464C1356 433 1323 403 1298 354C1254 265 1223 145 1223 67C1223 23 1238 -11 1257 -11C1294 -11 1374 41 1490 204ZM1538 414C1516 305 1497 253 1463 201C1406 117 1345 59 1313 59C1301 59 1295 72 1295 99C1295 163 1323 280 1358 360C1382 415 1405 433 1453 433C1476 433 1494 429 1538 414ZM2394 722L2382 733C2330 707 2294 698 2222 691L2218 670L2266 670C2290 670 2300 663 2300 646C2300 638 2299 629 2298 622L2270 468C2240 477 2213 482 2188 482C2119 482 2025 410 1979 323C1948 265 1928 170 1928 86C1928 21 1943 -11 1972 -11C1999 -11 2036 6 2070 33C2124 77 2157 116 2224 217L2201 126C2190 82 2185 50 2185 24C2185 3 2194 -9 2211 -9C2228 -9 2252 3 2286 28L2367 88L2357 107L2313 76C2299 66 2283 59 2274 59C2266 59 2260 68 2260 82C2260 90 2261 99 2268 128ZM2025 59C2009 59 2000 73 2000 98C2000 224 2046 380 2095 418C2108 428 2127 433 2154 433C2198 433 2227 427 2260 410L2248 351C2211 171 2070 59 2025 59ZM2738 111L2714 94C2661 56 2613 36 2577 36C2530 36 2501 73 2501 133C2501 158 2504 185 2509 214C2526 218 2635 248 2660 259C2745 296 2784 342 2784 404C2784 451 2750 482 2700 482C2632 496 2522 423 2485 349C2455 299 2425 180 2425 113C2425 35 2469 -11 2541 -11C2598 -11 2654 17 2746 92ZM2523 274C2540 343 2560 386 2589 412C2607 428 2638 440 2662 440C2691 440 2710 420 2710 388C2710 344 2675 297 2623 272C2595 258 2559 247 2514 237ZM3298 722L3286 733C3234 707 3198 698 3126 691L3122 670L3170 670C3194 670 3204 663 3204 648C3204 645 3204 640 3201 622C3190 567 3117 182 3102 132C3089 82 3083 52 3083 31C3083 6 3094 -9 3113 -9C3139 -9 3175 12 3273 85L3263 103L3237 86C3208 67 3186 56 3176 56C3169 56 3163 66 3163 76C3163 82 3164 89 3167 104ZM3595 204L3566 77C3562 60 3560 42 3560 26C3560 4 3569 -9 3584 -9C3607 -9 3648 17 3730 85L3723 106C3699 86 3670 59 3648 59C3639 59 3633 68 3633 82C3633 87 3633 90 3634 93L3726 472L3716 481L3683 463C3642 478 3625 482 3598 482C3570 482 3550 477 3523 464C3461 433 3428 403 3403 354C3359 265 3328 145 3328 67C3328 23 3343 -11 3362 -11C3399 -11 3479 41 3595 204ZM3643 414C3621 305 3602 253 3568 201C3511 117 3450 59 3418 59C3406 59 3400 72 3400 99C3400 163 3428 280 3463 360C3487 415 3510 433 3558 433C3581 433 3599 429 3643 414ZM4344 111L4320 94C4267 56 4219 36 4183 36C4136 36 4107 73 4107 133C4107 158 4110 185 4115 214C4132 218 4241 248 4266 259C4351 296 4390 342 4390 404C4390 451 4356 482 4306 482C4238 496 4128 423 4091 349C4061 299 4031 180 4031 113C4031 35 4075 -11 4147 -11C4204 -11 4260 17 4352 92ZM4129 274C4146 343 4166 386 4195 412C4213 428 4244 440 4268 440C4297 440 4316 420 4316 388C4316 344 4281 297 4229 272C4201 258 4165 247 4120 237ZM4435 148C4430 97 4424 62 4413 16C4451 -2 4485 -11 4520 -11C4569 -11 4615 7 4666 47C4717 87 4738 124 4738 174C4738 228 4706 257 4632 271L4589 279C4529 290 4510 307 4510 348C4510 401 4555 442 4612 442C4653 442 4691 424 4707 397L4707 342L4730 342C4734 377 4738 404 4749 455C4710 474 4682 482 4649 482C4597 482 4536 452 4488 404C4462 377 4451 352 4451 316C4451 260 4482 228 4548 215L4611 203C4655 195 4671 177 4671 138C4671 73 4625 29 4554 29C4519 29 4488 40 4460 64L4460 148ZM4968 -11C5024 -11 5139 62 5182 125C5223 186 5257 296 5257 371C5257 438 5234 482 5198 482C5156 482 5103 456 5051 409C5010 374 4990 348 4954 289L4978 408C4981 425 4983 440 4983 452C4983 471 4975 482 4961 482C4940 482 4902 461 4828 408L4800 388L4807 368L4839 389C4867 407 4878 412 4887 412C4897 412 4904 403 4904 389C4904 381 4902 361 4900 351L4842 8C4832 -52 4813 -143 4793 -233L4785 -270L4792 -276C4813 -269 4833 -264 4865 -259L4907 3C4928 -4 4950 -11 4968 -11ZM4935 165C4957 293 5064 424 5147 424C5173 424 5185 402 5185 356C5185 275 5145 156 5092 80C5072 51 5040 36 4999 36C4968 36 4943 43 4917 59ZM5325 388L5332 368L5364 389C5401 412 5404 414 5411 414C5421 414 5429 404 5429 391C5429 384 5425 361 5421 347L5355 107C5347 76 5342 49 5342 30C5342 6 5353 -9 5372 -9C5398 -9 5434 12 5532 85L5522 103L5496 86C5467 67 5444 56 5435 56C5428 56 5422 66 5422 76C5422 86 5424 95 5429 116L5506 420C5510 437 5512 448 5512 456C5512 473 5503 482 5487 482C5465 482 5428 461 5353 408ZM5519 712C5490 712 5461 679 5461 645C5461 620 5476 604 5500 604C5531 604 5555 633 5555 671C5555 695 5540 712 5519 712ZM5936 365C5939 403 5944 435 5952 476C5941 481 5937 482 5932 482C5901 482 5870 458 5834 407C5795 351 5756 291 5740 256L5772 408C5776 425 5778 438 5778 450C5778 470 5770 482 5755 482C5734 482 5696 461 5622 408L5594 388L5601 368L5633 389C5661 407 5672 412 5681 412C5691 412 5698 403 5698 390C5698 332 5655 126 5615 -2L5625 -9C5640 -4 5656 -1 5679 4L5692 6L5718 126C5736 209 5759 262 5803 319C5837 363 5864 384 5886 384C5901 384 5911 379 5922 365ZM6227 204L6198 77C6194 60 6192 42 6192 26C6192 4 6201 -9 6216 -9C6239 -9 6280 17 6362 85L6355 106C6331 86 6302 59 6280 59C6271 59 6265 68 6265 82C6265 87 6265 90 6266 93L6358 472L6348 481L6315 463C6274 478 6257 482 6230 482C6202 482 6182 477 6155 464C6093 433 6060 403 6035 354C5991 265 5960 145 5960 67C5960 23 5975 -11 5994 -11C6031 -11 6111 41 6227 204ZM6275 414C6253 305 6234 253 6200 201C6143 117 6082 59 6050 59C6038 59 6032 72 6032 99C6032 163 6060 280 6095 360C6119 415 6142 433 6190 433C6213 433 6231 429 6275 414Z" stroke="rgb(0,0,0)" stroke-opacity="1" stroke-width="8" fill="rgb(0,0,0)" fill-opacity="1"></path></g></g></g></g></svg>