<svg xmlns="http://www.w3.org/2000/svg" xmlns:xlink="http://www.w3.org/1999/xlink" width="143.29000854492188" height="104.80000305175781" style="width:143.29000854492188px;height:104.80000305175781px;font-family:Asana-Math, Asana;background:#FFF;"><g><g><g><g transform="matrix(1,0,0,1,2,18.039993286132812)"><path transform="matrix(0.017,0,0,-0.017,0,0)" d="M2278 646L2384 650C2446 650 2486 641 2487 626L2495 537L2519 537C2522 600 2529 651 2540 689C2518 691 2490 692 2473 692L2432 691L2267 689L2238 689C2213 689 2173 690 2135 691L2086 692L2083 664L2139 662C2163 661 2174 652 2174 635C2174 621 2170 589 2165 559L2090 125C2073 33 2073 32 2032 28L1996 25L1992 -3L2026 -2C2066 -1 2098 0 2119 0C2137 0 2166 -1 2205 -2L2257 -3L2260 25L2196 28C2169 29 2160 37 2160 57C2160 63 2161 74 2162 78L2198 301L2315 301C2342 301 2373 300 2421 298L2447 297L2466 342L2462 349C2381 345 2321 343 2243 343L2206 343L2252 614C2255 630 2256 635 2261 646Z" stroke="rgb(0,0,0)" stroke-opacity="1" stroke-width="8" fill="rgb(0,0,0)" fill-opacity="1"></path></g></g><g><g transform="matrix(1,0,0,1,50.38999938964844,18.039993286132812)"><path transform="matrix(0.017,0,0,-0.017,0,0)" d="M604 347L604 406L65 406L65 347ZM604 134L604 193L65 193L65 134Z" stroke="rgb(0,0,0)" stroke-opacity="1" stroke-width="8" fill="rgb(0,0,0)" fill-opacity="1"></path></g></g><g><g transform="matrix(1,0,0,1,66.84501647949219,18.039993286132812)"><path transform="matrix(0.017,0,0,-0.017,0,0)" d="M385 458C342 475 313 482 284 482C209 482 121 394 103 374C63 327 24 181 24 78C24 19 36 -11 60 -11C82 -11 101 -3 133 19C180 51 259 121 308 209L232 -205C227 -229 217 -249 205 -262L214 -276C245 -268 276 -262 300 -259C304 -205 310 -150 319 -100L405 356C416 417 422 443 432 474L418 480ZM118 59C104 59 96 80 96 113C96 209 139 359 181 409C193 424 222 433 254 433C282 433 303 427 351 406L330 311C301 174 160 59 118 59ZM628 420C649 420 665 421 691 424C580 304 538 221 538 121C538 44 584 -11 648 -11C786 -11 939 236 939 384C939 441 913 482 877 482C864 482 852 478 844 470L794 423L805 404C814 410 823 413 832 413C859 413 875 390 875 350C875 202 778 39 690 39C641 39 610 81 610 146C610 251 649 342 747 464L737 482C717 473 704 470 676 470C648 470 606 472 577 475L565 476C559 477 554 477 553 477C541 477 532 475 521 470C507 443 496 407 483 352L505 352L522 394C529 411 549 422 573 422C606 422 590 420 628 420ZM1504 227C1504 337 1420 353 1338 365C1395 385 1420 397 1451 425C1497 464 1520 511 1520 562C1520 644 1462 692 1362 692C1360 692 1350 692 1335 691L1272 690C1260 689 1224 689 1212 689C1193 689 1162 690 1113 691L1061 692L1058 664L1111 662C1135 661 1146 653 1146 635C1146 621 1142 589 1137 559L1050 55C1046 37 1034 30 992 23L987 -3L1024 -2C1051 0 1066 0 1078 0C1089 0 1115 -1 1141 -2L1178 -3L1198 -4C1217 -5 1230 -6 1238 -6C1353 -6 1504 87 1504 227ZM1127 41L1178 340L1263 340C1366 340 1416 298 1416 211C1416 108 1343 34 1243 34C1189 34 1168 38 1127 41ZM1313 655C1394 655 1434 619 1434 544C1434 439 1360 376 1236 376L1184 376L1233 650C1249 650 1290 655 1313 655Z" stroke="rgb(0,0,0)" stroke-opacity="1" stroke-width="8" fill="rgb(0,0,0)" fill-opacity="1"></path></g></g></g><g></g><g><g><g transform="matrix(1,0,0,1,2,58.36000061035156)"><path transform="matrix(0.017,0,0,-0.017,0,0)" d="M385 458C342 475 313 482 284 482C209 482 121 394 103 374C63 327 24 181 24 78C24 19 36 -11 60 -11C82 -11 101 -3 133 19C180 51 259 121 308 209L232 -205C227 -229 217 -249 205 -262L214 -276C245 -268 276 -262 300 -259C304 -205 310 -150 319 -100L405 356C416 417 422 443 432 474L418 480ZM118 59C104 59 96 80 96 113C96 209 139 359 181 409C193 424 222 433 254 433C282 433 303 427 351 406L330 311C301 174 160 59 118 59Z" stroke="rgb(0,0,0)" stroke-opacity="1" stroke-width="8" fill="rgb(0,0,0)" fill-opacity="1"></path></g></g><g><g transform="matrix(1,0,0,1,13.250015258789062,58.36000061035156)"><path transform="matrix(0.017,0,0,-0.017,0,0)" d="M123 111C93 111 66 83 66 53C66 23 93 -5 122 -5C154 -5 182 22 182 53C182 83 154 111 123 111ZM123 456C93 456 66 428 66 398C66 368 93 340 122 340C154 340 182 367 182 397C182 428 154 456 123 456Z" stroke="rgb(0,0,0)" stroke-opacity="1" stroke-width="8" fill="rgb(0,0,0)" fill-opacity="1"></path></g></g><g><g transform="matrix(1,0,0,1,20.884994506835938,58.36000061035156)"><path transform="matrix(0.017,0,0,-0.017,0,0)" d="M342 330L365 330C373 395 380 432 389 458C365 473 330 482 293 482C248 483 175 463 118 400C64 352 25 241 25 136C25 40 67 -11 147 -11C201 -11 249 9 304 54L354 95L346 115L331 105C259 57 221 40 186 40C130 40 101 80 101 159C101 267 136 371 185 409C206 425 230 433 261 433C306 433 342 414 342 390ZM677 204L648 77C644 60 642 42 642 26C642 4 651 -9 666 -9C689 -9 730 17 812 85L805 106C781 86 752 59 730 59C721 59 715 68 715 82C715 87 715 90 716 93L808 472L798 481L765 463C724 478 707 482 680 482C652 482 632 477 605 464C543 433 510 403 485 354C441 265 410 145 410 67C410 23 425 -11 444 -11C481 -11 561 41 677 204ZM725 414C703 305 684 253 650 201C593 117 532 59 500 59C488 59 482 72 482 99C482 163 510 280 545 360C569 415 592 433 640 433C663 433 681 429 725 414ZM1217 365C1220 403 1225 435 1233 476C1222 481 1218 482 1213 482C1182 482 1151 458 1115 407C1076 351 1037 291 1021 256L1053 408C1057 425 1059 438 1059 450C1059 470 1051 482 1036 482C1015 482 977 461 903 408L875 388L882 368L914 389C942 407 953 412 962 412C972 412 979 403 979 390C979 332 936 126 896 -2L906 -9C921 -4 937 -1 960 4L973 6L999 126C1017 209 1040 262 1084 319C1118 363 1145 384 1167 384C1182 384 1192 379 1203 365ZM1512 482C1445 482 1292 419 1292 259C1292 182 1337 136 1414 136C1422 136 1433 136 1444 137L1403 99C1387 84 1376 66 1376 52C1376 42 1383 31 1397 19C1328 -4 1200 -48 1200 -159C1200 -230 1270 -276 1379 -276C1508 -276 1621 -204 1621 -121C1621 -85 1600 -49 1557 -14L1497 35C1463 62 1450 81 1450 100C1450 114 1465 128 1477 146C1575 170 1646 253 1646 342C1646 357 1643 376 1642 380C1659 378 1667 378 1676 378C1693 378 1703 379 1726 382L1735 427L1732 433C1704 426 1684 424 1630 424C1630 425 1606 482 1512 482ZM1413 1L1490 -58C1536 -94 1555 -121 1555 -154C1555 -206 1486 -248 1403 -248C1321 -248 1264 -206 1264 -145C1264 -43 1374 -11 1413 1ZM1487 448C1545 448 1574 412 1574 341C1574 238 1526 168 1456 168C1395 168 1363 209 1363 288C1363 383 1414 448 1487 448ZM2007 204L1978 77C1974 60 1972 42 1972 26C1972 4 1981 -9 1996 -9C2019 -9 2060 17 2142 85L2135 106C2111 86 2082 59 2060 59C2051 59 2045 68 2045 82C2045 87 2045 90 2046 93L2138 472L2128 481L2095 463C2054 478 2037 482 2010 482C1982 482 1962 477 1935 464C1873 433 1840 403 1815 354C1771 265 1740 145 1740 67C1740 23 1755 -11 1774 -11C1811 -11 1891 41 2007 204ZM2055 414C2033 305 2014 253 1980 201C1923 117 1862 59 1830 59C1818 59 1812 72 1812 99C1812 163 1840 280 1875 360C1899 415 1922 433 1970 433C1993 433 2011 429 2055 414Z" stroke="rgb(0,0,0)" stroke-opacity="1" stroke-width="8" fill="rgb(0,0,0)" fill-opacity="1"></path></g></g></g><g><g><g transform="matrix(1,0,0,1,2,78.52000427246094)"><path transform="matrix(0.017,0,0,-0.017,0,0)" d="M166 420C187 420 203 421 229 424C118 304 76 221 76 121C76 44 122 -11 186 -11C324 -11 477 236 477 384C477 441 451 482 415 482C402 482 390 478 382 470L332 423L343 404C352 410 361 413 370 413C397 413 413 390 413 350C413 202 316 39 228 39C179 39 148 81 148 146C148 251 187 342 285 464L275 482C255 473 242 470 214 470C186 470 144 472 115 475L103 476C97 477 92 477 91 477C79 477 70 475 59 470C45 443 34 407 21 352L43 352L60 394C67 411 87 422 111 422C144 422 128 420 166 420Z" stroke="rgb(0,0,0)" stroke-opacity="1" stroke-width="8" fill="rgb(0,0,0)" fill-opacity="1"></path></g></g><g><g transform="matrix(1,0,0,1,13.880020141601562,78.52000427246094)"><path transform="matrix(0.017,0,0,-0.017,0,0)" d="M123 111C93 111 66 83 66 53C66 23 93 -5 122 -5C154 -5 182 22 182 53C182 83 154 111 123 111ZM123 456C93 456 66 428 66 398C66 368 93 340 122 340C154 340 182 367 182 397C182 428 154 456 123 456Z" stroke="rgb(0,0,0)" stroke-opacity="1" stroke-width="8" fill="rgb(0,0,0)" fill-opacity="1"></path></g></g><g><g transform="matrix(1,0,0,1,21.514999389648438,78.52000427246094)"><path transform="matrix(0.017,0,0,-0.017,0,0)" d="M166 420C187 420 203 421 229 424C118 304 76 221 76 121C76 44 122 -11 186 -11C324 -11 477 236 477 384C477 441 451 482 415 482C402 482 390 478 382 470L332 423L343 404C352 410 361 413 370 413C397 413 413 390 413 350C413 202 316 39 228 39C179 39 148 81 148 146C148 251 187 342 285 464L275 482C255 473 242 470 214 470C186 470 144 472 115 475L103 476C97 477 92 477 91 477C79 477 70 475 59 470C45 443 34 407 21 352L43 352L60 394C67 411 87 422 111 422C144 422 128 420 166 420ZM827 111L803 94C750 56 702 36 666 36C619 36 590 73 590 133C590 158 593 185 598 214C615 218 724 248 749 259C834 296 873 342 873 404C873 451 839 482 789 482C721 496 611 423 574 349C544 299 514 180 514 113C514 35 558 -11 630 -11C687 -11 743 17 835 92ZM612 274C629 343 649 386 678 412C696 428 727 440 751 440C780 440 799 420 799 388C799 344 764 297 712 272C684 258 648 247 603 237ZM1138 722L1126 733C1074 707 1038 698 966 691L962 670L1010 670C1034 670 1044 663 1044 648C1044 645 1044 640 1041 622C1030 567 957 182 942 132C929 82 923 52 923 31C923 6 934 -9 953 -9C979 -9 1015 12 1113 85L1103 103L1077 86C1048 67 1026 56 1016 56C1009 56 1003 66 1003 76C1003 82 1004 89 1007 104ZM1181 152C1181 46 1226 -11 1309 -11C1364 -11 1424 15 1469 57C1531 116 1575 230 1575 331C1575 425 1525 482 1442 482C1338 482 1181 382 1181 152ZM1405 444C1466 444 1499 399 1499 315C1499 219 1468 113 1424 60C1406 39 1380 27 1349 27C1291 27 1257 72 1257 151C1257 264 1296 387 1345 427C1358 438 1381 444 1405 444ZM1949 330L1972 330C1980 395 1987 432 1996 458C1972 473 1937 482 1900 482C1855 483 1782 463 1725 400C1671 352 1632 241 1632 136C1632 40 1674 -11 1754 -11C1808 -11 1856 9 1911 54L1961 95L1953 115L1938 105C1866 57 1828 40 1793 40C1737 40 1708 80 1708 159C1708 267 1743 371 1792 409C1813 425 1837 433 1868 433C1913 433 1949 414 1949 390ZM2047 388L2054 368L2086 389C2123 412 2126 414 2133 414C2143 414 2151 404 2151 391C2151 384 2147 361 2143 347L2077 107C2069 76 2064 49 2064 30C2064 6 2075 -9 2094 -9C2120 -9 2156 12 2254 85L2244 103L2218 86C2189 67 2166 56 2157 56C2150 56 2144 66 2144 76C2144 86 2146 95 2151 116L2228 420C2232 437 2234 448 2234 456C2234 473 2225 482 2209 482C2187 482 2150 461 2075 408ZM2241 712C2212 712 2183 679 2183 645C2183 620 2198 604 2222 604C2253 604 2277 633 2277 671C2277 695 2262 712 2241 712ZM2773 722L2761 733C2709 707 2673 698 2601 691L2597 670L2645 670C2669 670 2679 663 2679 646C2679 638 2678 629 2677 622L2649 468C2619 477 2592 482 2567 482C2498 482 2404 410 2358 323C2327 265 2307 170 2307 86C2307 21 2322 -11 2351 -11C2378 -11 2415 6 2449 33C2503 77 2536 116 2603 217L2580 126C2569 82 2564 50 2564 24C2564 3 2573 -9 2590 -9C2607 -9 2631 3 2665 28L2746 88L2736 107L2692 76C2678 66 2662 59 2653 59C2645 59 2639 68 2639 82C2639 90 2640 99 2647 128ZM2404 59C2388 59 2379 73 2379 98C2379 224 2425 380 2474 418C2487 428 2506 433 2533 433C2577 433 2606 427 2639 410L2627 351C2590 171 2449 59 2404 59ZM3060 204L3031 77C3027 60 3025 42 3025 26C3025 4 3034 -9 3049 -9C3072 -9 3113 17 3195 85L3188 106C3164 86 3135 59 3113 59C3104 59 3098 68 3098 82C3098 87 3098 90 3099 93L3191 472L3181 481L3148 463C3107 478 3090 482 3063 482C3035 482 3015 477 2988 464C2926 433 2893 403 2868 354C2824 265 2793 145 2793 67C2793 23 2808 -11 2827 -11C2864 -11 2944 41 3060 204ZM3108 414C3086 305 3067 253 3033 201C2976 117 2915 59 2883 59C2871 59 2865 72 2865 99C2865 163 2893 280 2928 360C2952 415 2975 433 3023 433C3046 433 3064 429 3108 414ZM3715 722L3703 733C3651 707 3615 698 3543 691L3539 670L3587 670C3611 670 3621 663 3621 646C3621 638 3620 629 3619 622L3591 468C3561 477 3534 482 3509 482C3440 482 3346 410 3300 323C3269 265 3249 170 3249 86C3249 21 3264 -11 3293 -11C3320 -11 3357 6 3391 33C3445 77 3478 116 3545 217L3522 126C3511 82 3506 50 3506 24C3506 3 3515 -9 3532 -9C3549 -9 3573 3 3607 28L3688 88L3678 107L3634 76C3620 66 3604 59 3595 59C3587 59 3581 68 3581 82C3581 90 3582 99 3589 128ZM3346 59C3330 59 3321 73 3321 98C3321 224 3367 380 3416 418C3429 428 3448 433 3475 433C3519 433 3548 427 3581 410L3569 351C3532 171 3391 59 3346 59ZM4463 722L4451 733C4399 707 4363 698 4291 691L4287 670L4335 670C4359 670 4369 663 4369 646C4369 638 4368 629 4367 622L4339 468C4309 477 4282 482 4257 482C4188 482 4094 410 4048 323C4017 265 3997 170 3997 86C3997 21 4012 -11 4041 -11C4068 -11 4105 6 4139 33C4193 77 4226 116 4293 217L4270 126C4259 82 4254 50 4254 24C4254 3 4263 -9 4280 -9C4297 -9 4321 3 4355 28L4436 88L4426 107L4382 76C4368 66 4352 59 4343 59C4335 59 4329 68 4329 82C4329 90 4330 99 4337 128ZM4094 59C4078 59 4069 73 4069 98C4069 224 4115 380 4164 418C4177 428 4196 433 4223 433C4267 433 4296 427 4329 410L4317 351C4280 171 4139 59 4094 59ZM4807 111L4783 94C4730 56 4682 36 4646 36C4599 36 4570 73 4570 133C4570 158 4573 185 4578 214C4595 218 4704 248 4729 259C4814 296 4853 342 4853 404C4853 451 4819 482 4769 482C4701 496 4591 423 4554 349C4524 299 4494 180 4494 113C4494 35 4538 -11 4610 -11C4667 -11 4723 17 4815 92ZM4592 274C4609 343 4629 386 4658 412C4676 428 4707 440 4731 440C4760 440 4779 420 4779 388C4779 344 4744 297 4692 272C4664 258 4628 247 4583 237ZM5444 111L5420 94C5367 56 5319 36 5283 36C5236 36 5207 73 5207 133C5207 158 5210 185 5215 214C5232 218 5341 248 5366 259C5451 296 5490 342 5490 404C5490 451 5456 482 5406 482C5338 496 5228 423 5191 349C5161 299 5131 180 5131 113C5131 35 5175 -11 5247 -11C5304 -11 5360 17 5452 92ZM5229 274C5246 343 5266 386 5295 412C5313 428 5344 440 5368 440C5397 440 5416 420 5416 388C5416 344 5381 297 5329 272C5301 258 5265 247 5220 237ZM5535 148C5530 97 5524 62 5513 16C5551 -2 5585 -11 5620 -11C5669 -11 5715 7 5766 47C5817 87 5838 124 5838 174C5838 228 5806 257 5732 271L5689 279C5629 290 5610 307 5610 348C5610 401 5655 442 5712 442C5753 442 5791 424 5807 397L5807 342L5830 342C5834 377 5838 404 5849 455C5810 474 5782 482 5749 482C5697 482 5636 452 5588 404C5562 377 5551 352 5551 316C5551 260 5582 228 5648 215L5711 203C5755 195 5771 177 5771 138C5771 73 5725 29 5654 29C5619 29 5588 40 5560 64L5560 148ZM6017 390L5961 107C5960 99 5948 61 5948 31C5948 6 5959 -9 5978 -9C6013 -9 6048 11 6126 74L6157 99L6147 117L6102 86C6073 66 6053 56 6042 56C6033 56 6028 64 6028 76C6028 102 6042 183 6071 328L6084 390L6191 390L6202 440C6164 436 6130 434 6092 434C6108 528 6119 577 6137 631L6126 646C6106 634 6079 622 6048 610L6023 440C5979 419 5953 408 5935 403L5933 390ZM6495 204L6466 77C6462 60 6460 42 6460 26C6460 4 6469 -9 6484 -9C6507 -9 6548 17 6630 85L6623 106C6599 86 6570 59 6548 59C6539 59 6533 68 6533 82C6533 87 6533 90 6534 93L6626 472L6616 481L6583 463C6542 478 6525 482 6498 482C6470 482 6450 477 6423 464C6361 433 6328 403 6303 354C6259 265 6228 145 6228 67C6228 23 6243 -11 6262 -11C6299 -11 6379 41 6495 204ZM6543 414C6521 305 6502 253 6468 201C6411 117 6350 59 6318 59C6306 59 6300 72 6300 99C6300 163 6328 280 6363 360C6387 415 6410 433 6458 433C6481 433 6499 429 6543 414Z" stroke="rgb(0,0,0)" stroke-opacity="1" stroke-width="8" fill="rgb(0,0,0)" fill-opacity="1"></path></g></g></g><g><g><g transform="matrix(1,0,0,1,2,98.67999267578125)"><path transform="matrix(0.017,0,0,-0.017,0,0)" d="M543 227C543 337 459 353 377 365C434 385 459 397 490 425C536 464 559 511 559 562C559 644 501 692 401 692C399 692 389 692 374 691L311 690C299 689 263 689 251 689C232 689 201 690 152 691L100 692L97 664L150 662C174 661 185 653 185 635C185 621 181 589 176 559L89 55C85 37 73 30 31 23L26 -3L63 -2C90 0 105 0 117 0C128 0 154 -1 180 -2L217 -3L237 -4C256 -5 269 -6 277 -6C392 -6 543 87 543 227ZM166 41L217 340L302 340C405 340 455 298 455 211C455 108 382 34 282 34C228 34 207 38 166 41ZM352 655C433 655 473 619 473 544C473 439 399 376 275 376L223 376L272 650C288 650 329 655 352 655Z" stroke="rgb(0,0,0)" stroke-opacity="1" stroke-width="8" fill="rgb(0,0,0)" fill-opacity="1"></path></g></g><g><g transform="matrix(1,0,0,1,15.770004272460938,98.67999267578125)"><path transform="matrix(0.017,0,0,-0.017,0,0)" d="M123 111C93 111 66 83 66 53C66 23 93 -5 122 -5C154 -5 182 22 182 53C182 83 154 111 123 111ZM123 456C93 456 66 428 66 398C66 368 93 340 122 340C154 340 182 367 182 397C182 428 154 456 123 456Z" stroke="rgb(0,0,0)" stroke-opacity="1" stroke-width="8" fill="rgb(0,0,0)" fill-opacity="1"></path></g></g><g><g transform="matrix(1,0,0,1,23.405014038085938,98.67999267578125)"><path transform="matrix(0.017,0,0,-0.017,0,0)" d="M342 330L365 330C373 395 380 432 389 458C365 473 330 482 293 482C248 483 175 463 118 400C64 352 25 241 25 136C25 40 67 -11 147 -11C201 -11 249 9 304 54L354 95L346 115L331 105C259 57 221 40 186 40C130 40 101 80 101 159C101 267 136 371 185 409C206 425 230 433 261 433C306 433 342 414 342 390ZM677 204L648 77C644 60 642 42 642 26C642 4 651 -9 666 -9C689 -9 730 17 812 85L805 106C781 86 752 59 730 59C721 59 715 68 715 82C715 87 715 90 716 93L808 472L798 481L765 463C724 478 707 482 680 482C652 482 632 477 605 464C543 433 510 403 485 354C441 265 410 145 410 67C410 23 425 -11 444 -11C481 -11 561 41 677 204ZM725 414C703 305 684 253 650 201C593 117 532 59 500 59C488 59 482 72 482 99C482 163 510 280 545 360C569 415 592 433 640 433C663 433 681 429 725 414ZM1579 103L1553 86C1524 67 1502 56 1492 56C1485 56 1479 65 1479 76C1479 86 1481 95 1486 116L1561 413C1565 430 1568 446 1568 454C1568 471 1558 482 1542 482C1513 482 1475 464 1414 421C1351 376 1316 341 1267 272L1297 409C1301 429 1304 444 1304 451C1304 470 1294 482 1278 482C1248 482 1202 460 1147 418C1103 384 1083 363 1018 275L1051 408C1055 424 1057 439 1057 451C1057 470 1048 482 1034 482C1013 482 975 461 901 408L873 388L880 368C917 391 952 414 959 414C970 414 977 404 977 389C977 338 936 145 895 2L898 -9L966 6L988 108C1012 219 1039 278 1094 338C1136 384 1181 414 1209 414C1216 414 1220 406 1220 393C1220 358 1198 244 1157 69L1141 2L1146 -9L1215 6L1236 113C1252 194 1286 269 1330 318C1385 379 1435 414 1467 414C1475 414 1480 405 1480 389C1480 365 1477 351 1455 264C1415 105 1399 84 1399 31C1399 6 1410 -9 1429 -9C1455 -9 1491 12 1589 85ZM1802 -11C1858 -11 1973 62 2016 125C2057 186 2091 296 2091 371C2091 438 2068 482 2032 482C1990 482 1937 456 1885 409C1844 374 1824 348 1788 289L1812 408C1815 425 1817 440 1817 452C1817 471 1809 482 1795 482C1774 482 1736 461 1662 408L1634 388L1641 368L1673 389C1701 407 1712 412 1721 412C1731 412 1738 403 1738 389C1738 381 1736 361 1734 351L1676 8C1666 -52 1647 -143 1627 -233L1619 -270L1626 -276C1647 -269 1667 -264 1699 -259L1741 3C1762 -4 1784 -11 1802 -11ZM1769 165C1791 293 1898 424 1981 424C2007 424 2019 402 2019 356C2019 275 1979 156 1926 80C1906 51 1874 36 1833 36C1802 36 1777 43 1751 59ZM2142 152C2142 46 2187 -11 2270 -11C2325 -11 2385 15 2430 57C2492 116 2536 230 2536 331C2536 425 2486 482 2403 482C2299 482 2142 382 2142 152ZM2366 444C2427 444 2460 399 2460 315C2460 219 2429 113 2385 60C2367 39 2341 27 2310 27C2252 27 2218 72 2218 151C2218 264 2257 387 2306 427C2319 438 2342 444 2366 444ZM3547 103L3521 86C3492 67 3470 56 3460 56C3453 56 3447 65 3447 76C3447 86 3449 95 3454 116L3529 413C3533 430 3536 446 3536 454C3536 471 3526 482 3510 482C3481 482 3443 464 3382 421C3319 376 3284 341 3235 272L3265 409C3269 429 3272 444 3272 451C3272 470 3262 482 3246 482C3216 482 3170 460 3115 418C3071 384 3051 363 2986 275L3019 408C3023 424 3025 439 3025 451C3025 470 3016 482 3002 482C2981 482 2943 461 2869 408L2841 388L2848 368C2885 391 2920 414 2927 414C2938 414 2945 404 2945 389C2945 338 2904 145 2863 2L2866 -9L2934 6L2956 108C2980 219 3007 278 3062 338C3104 384 3149 414 3177 414C3184 414 3188 406 3188 393C3188 358 3166 244 3125 69L3109 2L3114 -9L3183 6L3204 113C3220 194 3254 269 3298 318C3353 379 3403 414 3435 414C3443 414 3448 405 3448 389C3448 365 3445 351 3423 264C3383 105 3367 84 3367 31C3367 6 3378 -9 3397 -9C3423 -9 3459 12 3557 85ZM3865 204L3836 77C3832 60 3830 42 3830 26C3830 4 3839 -9 3854 -9C3877 -9 3918 17 4000 85L3993 106C3969 86 3940 59 3918 59C3909 59 3903 68 3903 82C3903 87 3903 90 3904 93L3996 472L3986 481L3953 463C3912 478 3895 482 3868 482C3840 482 3820 477 3793 464C3731 433 3698 403 3673 354C3629 265 3598 145 3598 67C3598 23 3613 -11 3632 -11C3669 -11 3749 41 3865 204ZM3913 414C3891 305 3872 253 3838 201C3781 117 3720 59 3688 59C3676 59 3670 72 3670 99C3670 163 3698 280 3733 360C3757 415 3780 433 3828 433C3851 433 3869 429 3913 414ZM4312 482C4245 482 4092 419 4092 259C4092 182 4137 136 4214 136C4222 136 4233 136 4244 137L4203 99C4187 84 4176 66 4176 52C4176 42 4183 31 4197 19C4128 -4 4000 -48 4000 -159C4000 -230 4070 -276 4179 -276C4308 -276 4421 -204 4421 -121C4421 -85 4400 -49 4357 -14L4297 35C4263 62 4250 81 4250 100C4250 114 4265 128 4277 146C4375 170 4446 253 4446 342C4446 357 4443 376 4442 380C4459 378 4467 378 4476 378C4493 378 4503 379 4526 382L4535 427L4532 433C4504 426 4484 424 4430 424C4430 425 4406 482 4312 482ZM4213 1L4290 -58C4336 -94 4355 -121 4355 -154C4355 -206 4286 -248 4203 -248C4121 -248 4064 -206 4064 -145C4064 -43 4174 -11 4213 1ZM4287 448C4345 448 4374 412 4374 341C4374 238 4326 168 4256 168C4195 168 4163 209 4163 288C4163 383 4214 448 4287 448ZM4560 388L4567 368L4599 389C4636 412 4639 414 4646 414C4657 414 4664 404 4664 389C4664 338 4623 145 4582 2L4589 -9C4614 -2 4637 4 4659 8C4678 134 4699 199 4745 268C4799 352 4874 414 4919 414C4930 414 4936 405 4936 390C4936 372 4933 351 4925 319L4873 107C4864 70 4860 47 4860 31C4860 6 4871 -9 4890 -9C4916 -9 4952 12 5050 85L5040 103L5014 86C4985 67 4963 56 4953 56C4946 56 4940 65 4940 76C4940 81 4941 92 4942 96L5008 372C5015 401 5019 429 5019 446C5019 469 5008 482 4988 482C4946 482 4877 444 4818 389C4780 354 4752 320 4700 247L4738 408C4742 426 4744 438 4744 449C4744 470 4736 482 4721 482C4700 482 4661 460 4588 408ZM5419 111L5395 94C5342 56 5294 36 5258 36C5211 36 5182 73 5182 133C5182 158 5185 185 5190 214C5207 218 5316 248 5341 259C5426 296 5465 342 5465 404C5465 451 5431 482 5381 482C5313 496 5203 423 5166 349C5136 299 5106 180 5106 113C5106 35 5150 -11 5222 -11C5279 -11 5335 17 5427 92ZM5204 274C5221 343 5241 386 5270 412C5288 428 5319 440 5343 440C5372 440 5391 420 5391 388C5391 344 5356 297 5304 272C5276 258 5240 247 5195 237ZM5604 390L5548 107C5547 99 5535 61 5535 31C5535 6 5546 -9 5565 -9C5600 -9 5635 11 5713 74L5744 99L5734 117L5689 86C5660 66 5640 56 5629 56C5620 56 5615 64 5615 76C5615 102 5629 183 5658 328L5671 390L5778 390L5789 440C5751 436 5717 434 5679 434C5695 528 5706 577 5724 631L5713 646C5693 634 5666 622 5635 610L5610 440C5566 419 5540 408 5522 403L5520 390ZM5845 388L5852 368L5884 389C5921 412 5924 414 5931 414C5941 414 5949 404 5949 391C5949 384 5945 361 5941 347L5875 107C5867 76 5862 49 5862 30C5862 6 5873 -9 5892 -9C5918 -9 5954 12 6052 85L6042 103L6016 86C5987 67 5964 56 5955 56C5948 56 5942 66 5942 76C5942 86 5944 95 5949 116L6026 420C6030 437 6032 448 6032 456C6032 473 6023 482 6007 482C5985 482 5948 461 5873 408ZM6039 712C6010 712 5981 679 5981 645C5981 620 5996 604 6020 604C6051 604 6075 633 6075 671C6075 695 6060 712 6039 712ZM6430 330L6453 330C6461 395 6468 432 6477 458C6453 473 6418 482 6381 482C6336 483 6263 463 6206 400C6152 352 6113 241 6113 136C6113 40 6155 -11 6235 -11C6289 -11 6337 9 6392 54L6442 95L6434 115L6419 105C6347 57 6309 40 6274 40C6218 40 6189 80 6189 159C6189 267 6224 371 6273 409C6294 425 6318 433 6349 433C6394 433 6430 414 6430 390ZM6511 152C6511 46 6556 -11 6639 -11C6694 -11 6754 15 6799 57C6861 116 6905 230 6905 331C6905 425 6855 482 6772 482C6668 482 6511 382 6511 152ZM6735 444C6796 444 6829 399 6829 315C6829 219 6798 113 6754 60C6736 39 6710 27 6679 27C6621 27 6587 72 6587 151C6587 264 6626 387 6675 427C6688 438 6711 444 6735 444Z" stroke="rgb(0,0,0)" stroke-opacity="1" stroke-width="8" fill="rgb(0,0,0)" fill-opacity="1"></path></g></g></g></g></svg>