<svg xmlns="http://www.w3.org/2000/svg" xmlns:xlink="http://www.w3.org/1999/xlink" width="143.29000854492188" height="146.3050079345703" style="width:143.29000854492188px;height:146.3050079345703px;font-family:Asana-Math, Asana;background:#FFF;"><g><g><g><g transform="matrix(1,0,0,1,2,26.214996337890625)"><path transform="matrix(0.017,0,0,-0.017,0,0)" d="M1848 664L1904 662C1928 661 1939 653 1939 635C1939 621 1935 589 1930 559L1855 125C1839 34 1837 32 1797 28L1756 25L1752 -3L1794 -2C1841 0 1860 0 1884 0L1981 -3L2007 -3L2010 25L1961 28C1934 30 1925 38 1925 58C1925 67 1926 76 1929 93L2030 648C2059 654 2079 656 2106 656C2193 656 2239 617 2239 543C2239 448 2161 378 2057 378L2013 378L2010 367C2144 172 2175 124 2250 -3C2250 -3 2335 0 2335 0C2336 0 2350 -1 2369 -3L2382 -3L2382 24C2342 29 2331 37 2302 79L2118 354C2173 364 2202 376 2238 402C2296 444 2327 499 2327 560C2327 646 2263 693 2152 691L1851 691Z" stroke="rgb(0,0,0)" stroke-opacity="1" stroke-width="8" fill="rgb(0,0,0)" fill-opacity="1"></path></g></g><g><g transform="matrix(1,0,0,1,48.03501892089844,26.214996337890625)"><path transform="matrix(0.017,0,0,-0.017,0,0)" d="M604 347L604 406L65 406L65 347ZM604 134L604 193L65 193L65 134Z" stroke="rgb(0,0,0)" stroke-opacity="1" stroke-width="8" fill="rgb(0,0,0)" fill-opacity="1"></path></g></g><g><g><g><g><g transform="matrix(1,0,0,1,66.18501281738281,14.049995422363281)"><path transform="matrix(0.017,0,0,-0.017,0,0)" d="M730 103L704 86C675 67 653 56 643 56C636 56 630 65 630 76C630 86 632 95 637 116L712 413C716 430 719 446 719 454C719 471 709 482 693 482C664 482 626 464 565 421C502 376 467 341 418 272L448 409C452 429 455 444 455 451C455 470 445 482 429 482C399 482 353 460 298 418C254 384 234 363 169 275L202 408C206 424 208 439 208 451C208 470 199 482 185 482C164 482 126 461 52 408L24 388L31 368C68 391 103 414 110 414C121 414 128 404 128 389C128 338 87 145 46 2L49 -9L117 6L139 108C163 219 190 278 245 338C287 384 332 414 360 414C367 414 371 406 371 393C371 358 349 244 308 69L292 2L297 -9L366 6L387 113C403 194 437 269 481 318C536 379 586 414 618 414C626 414 631 405 631 389C631 365 628 351 606 264C566 105 550 84 550 31C550 6 561 -9 580 -9C606 -9 642 12 740 85ZM943 420C964 420 980 421 1006 424C895 304 853 221 853 121C853 44 899 -11 963 -11C1101 -11 1254 236 1254 384C1254 441 1228 482 1192 482C1179 482 1167 478 1159 470L1109 423L1120 404C1129 410 1138 413 1147 413C1174 413 1190 390 1190 350C1190 202 1093 39 1005 39C956 39 925 81 925 146C925 251 964 342 1062 464L1052 482C1032 473 1019 470 991 470C963 470 921 472 892 475L880 476C874 477 869 477 868 477C856 477 847 475 836 470C822 443 811 407 798 352L820 352L837 394C844 411 864 422 888 422C921 422 905 420 943 420Z" stroke="rgb(0,0,0)" stroke-opacity="1" stroke-width="8" fill="rgb(0,0,0)" fill-opacity="1"></path></g></g></g></g><g><g><g><g transform="matrix(1,0,0,1,67.91001892089844,39.38499450683594)"><path transform="matrix(0.017,0,0,-0.017,0,0)" d="M385 458C342 475 313 482 284 482C209 482 121 394 103 374C63 327 24 181 24 78C24 19 36 -11 60 -11C82 -11 101 -3 133 19C180 51 259 121 308 209L232 -205C227 -229 217 -249 205 -262L214 -276C245 -268 276 -262 300 -259C304 -205 310 -150 319 -100L405 356C416 417 422 443 432 474L418 480ZM118 59C104 59 96 80 96 113C96 209 139 359 181 409C193 424 222 433 254 433C282 433 303 427 351 406L330 311C301 174 160 59 118 59ZM1005 227C1005 337 921 353 839 365C896 385 921 397 952 425C998 464 1021 511 1021 562C1021 644 963 692 863 692C861 692 851 692 836 691L773 690C761 689 725 689 713 689C694 689 663 690 614 691L562 692L559 664L612 662C636 661 647 653 647 635C647 621 643 589 638 559L551 55C547 37 535 30 493 23L488 -3L525 -2C552 0 567 0 579 0C590 0 616 -1 642 -2L679 -3L699 -4C718 -5 731 -6 739 -6C854 -6 1005 87 1005 227ZM628 41L679 340L764 340C867 340 917 298 917 211C917 108 844 34 744 34C690 34 669 38 628 41ZM814 655C895 655 935 619 935 544C935 439 861 376 737 376L685 376L734 650C750 650 791 655 814 655Z" stroke="rgb(0,0,0)" stroke-opacity="1" stroke-width="8" fill="rgb(0,0,0)" fill-opacity="1"></path></g></g></g></g><line style="fill:none;stroke-width:0.99px;stroke:rgb(0, 0, 0);" x1="66.18501281738281" y1="22.24999451637268" x2="87.87501335144043" y2="22.24999451637268"></line></g></g><g></g><g><g><g transform="matrix(1,0,0,1,2,79.70500183105469)"><path transform="matrix(0.017,0,0,-0.017,0,0)" d="M730 103L704 86C675 67 653 56 643 56C636 56 630 65 630 76C630 86 632 95 637 116L712 413C716 430 719 446 719 454C719 471 709 482 693 482C664 482 626 464 565 421C502 376 467 341 418 272L448 409C452 429 455 444 455 451C455 470 445 482 429 482C399 482 353 460 298 418C254 384 234 363 169 275L202 408C206 424 208 439 208 451C208 470 199 482 185 482C164 482 126 461 52 408L24 388L31 368C68 391 103 414 110 414C121 414 128 404 128 389C128 338 87 145 46 2L49 -9L117 6L139 108C163 219 190 278 245 338C287 384 332 414 360 414C367 414 371 406 371 393C371 358 349 244 308 69L292 2L297 -9L366 6L387 113C403 194 437 269 481 318C536 379 586 414 618 414C626 414 631 405 631 389C631 365 628 351 606 264C566 105 550 84 550 31C550 6 561 -9 580 -9C606 -9 642 12 740 85Z" stroke="rgb(0,0,0)" stroke-opacity="1" stroke-width="8" fill="rgb(0,0,0)" fill-opacity="1"></path></g></g><g><g transform="matrix(1,0,0,1,18.604995727539062,79.70500183105469)"><path transform="matrix(0.017,0,0,-0.017,0,0)" d="M123 111C93 111 66 83 66 53C66 23 93 -5 122 -5C154 -5 182 22 182 53C182 83 154 111 123 111ZM123 456C93 456 66 428 66 398C66 368 93 340 122 340C154 340 182 367 182 397C182 428 154 456 123 456Z" stroke="rgb(0,0,0)" stroke-opacity="1" stroke-width="8" fill="rgb(0,0,0)" fill-opacity="1"></path></g></g><g><g transform="matrix(1,0,0,1,26.240005493164062,79.70500183105469)"><path transform="matrix(0.017,0,0,-0.017,0,0)" d="M730 103L704 86C675 67 653 56 643 56C636 56 630 65 630 76C630 86 632 95 637 116L712 413C716 430 719 446 719 454C719 471 709 482 693 482C664 482 626 464 565 421C502 376 467 341 418 272L448 409C452 429 455 444 455 451C455 470 445 482 429 482C399 482 353 460 298 418C254 384 234 363 169 275L202 408C206 424 208 439 208 451C208 470 199 482 185 482C164 482 126 461 52 408L24 388L31 368C68 391 103 414 110 414C121 414 128 404 128 389C128 338 87 145 46 2L49 -9L117 6L139 108C163 219 190 278 245 338C287 384 332 414 360 414C367 414 371 406 371 393C371 358 349 244 308 69L292 2L297 -9L366 6L387 113C403 194 437 269 481 318C536 379 586 414 618 414C626 414 631 405 631 389C631 365 628 351 606 264C566 105 550 84 550 31C550 6 561 -9 580 -9C606 -9 642 12 740 85ZM1048 204L1019 77C1015 60 1013 42 1013 26C1013 4 1022 -9 1037 -9C1060 -9 1101 17 1183 85L1176 106C1152 86 1123 59 1101 59C1092 59 1086 68 1086 82C1086 87 1086 90 1087 93L1179 472L1169 481L1136 463C1095 478 1078 482 1051 482C1023 482 1003 477 976 464C914 433 881 403 856 354C812 265 781 145 781 67C781 23 796 -11 815 -11C852 -11 932 41 1048 204ZM1096 414C1074 305 1055 253 1021 201C964 117 903 59 871 59C859 59 853 72 853 99C853 163 881 280 916 360C940 415 963 433 1011 433C1034 433 1052 429 1096 414ZM1251 148C1246 97 1240 62 1229 16C1267 -2 1301 -11 1336 -11C1385 -11 1431 7 1482 47C1533 87 1554 124 1554 174C1554 228 1522 257 1448 271L1405 279C1345 290 1326 307 1326 348C1326 401 1371 442 1428 442C1469 442 1507 424 1523 397L1523 342L1546 342C1550 377 1554 404 1565 455C1526 474 1498 482 1465 482C1413 482 1352 452 1304 404C1278 377 1267 352 1267 316C1267 260 1298 228 1364 215L1427 203C1471 195 1487 177 1487 138C1487 73 1441 29 1370 29C1335 29 1304 40 1276 64L1276 148ZM1879 204L1850 77C1846 60 1844 42 1844 26C1844 4 1853 -9 1868 -9C1891 -9 1932 17 2014 85L2007 106C1983 86 1954 59 1932 59C1923 59 1917 68 1917 82C1917 87 1917 90 1918 93L2010 472L2000 481L1967 463C1926 478 1909 482 1882 482C1854 482 1834 477 1807 464C1745 433 1712 403 1687 354C1643 265 1612 145 1612 67C1612 23 1627 -11 1646 -11C1683 -11 1763 41 1879 204ZM1927 414C1905 305 1886 253 1852 201C1795 117 1734 59 1702 59C1690 59 1684 72 1684 99C1684 163 1712 280 1747 360C1771 415 1794 433 1842 433C1865 433 1883 429 1927 414Z" stroke="rgb(0,0,0)" stroke-opacity="1" stroke-width="8" fill="rgb(0,0,0)" fill-opacity="1"></path></g></g></g><g><g><g transform="matrix(1,0,0,1,2,99.86500549316406)"><path transform="matrix(0.017,0,0,-0.017,0,0)" d="M166 420C187 420 203 421 229 424C118 304 76 221 76 121C76 44 122 -11 186 -11C324 -11 477 236 477 384C477 441 451 482 415 482C402 482 390 478 382 470L332 423L343 404C352 410 361 413 370 413C397 413 413 390 413 350C413 202 316 39 228 39C179 39 148 81 148 146C148 251 187 342 285 464L275 482C255 473 242 470 214 470C186 470 144 472 115 475L103 476C97 477 92 477 91 477C79 477 70 475 59 470C45 443 34 407 21 352L43 352L60 394C67 411 87 422 111 422C144 422 128 420 166 420Z" stroke="rgb(0,0,0)" stroke-opacity="1" stroke-width="8" fill="rgb(0,0,0)" fill-opacity="1"></path></g></g><g><g transform="matrix(1,0,0,1,13.880020141601562,99.86500549316406)"><path transform="matrix(0.017,0,0,-0.017,0,0)" d="M123 111C93 111 66 83 66 53C66 23 93 -5 122 -5C154 -5 182 22 182 53C182 83 154 111 123 111ZM123 456C93 456 66 428 66 398C66 368 93 340 122 340C154 340 182 367 182 397C182 428 154 456 123 456Z" stroke="rgb(0,0,0)" stroke-opacity="1" stroke-width="8" fill="rgb(0,0,0)" fill-opacity="1"></path></g></g><g><g transform="matrix(1,0,0,1,21.514999389648438,99.86500549316406)"><path transform="matrix(0.017,0,0,-0.017,0,0)" d="M166 420C187 420 203 421 229 424C118 304 76 221 76 121C76 44 122 -11 186 -11C324 -11 477 236 477 384C477 441 451 482 415 482C402 482 390 478 382 470L332 423L343 404C352 410 361 413 370 413C397 413 413 390 413 350C413 202 316 39 228 39C179 39 148 81 148 146C148 251 187 342 285 464L275 482C255 473 242 470 214 470C186 470 144 472 115 475L103 476C97 477 92 477 91 477C79 477 70 475 59 470C45 443 34 407 21 352L43 352L60 394C67 411 87 422 111 422C144 422 128 420 166 420ZM827 111L803 94C750 56 702 36 666 36C619 36 590 73 590 133C590 158 593 185 598 214C615 218 724 248 749 259C834 296 873 342 873 404C873 451 839 482 789 482C721 496 611 423 574 349C544 299 514 180 514 113C514 35 558 -11 630 -11C687 -11 743 17 835 92ZM612 274C629 343 649 386 678 412C696 428 727 440 751 440C780 440 799 420 799 388C799 344 764 297 712 272C684 258 648 247 603 237ZM1138 722L1126 733C1074 707 1038 698 966 691L962 670L1010 670C1034 670 1044 663 1044 648C1044 645 1044 640 1041 622C1030 567 957 182 942 132C929 82 923 52 923 31C923 6 934 -9 953 -9C979 -9 1015 12 1113 85L1103 103L1077 86C1048 67 1026 56 1016 56C1009 56 1003 66 1003 76C1003 82 1004 89 1007 104ZM1181 152C1181 46 1226 -11 1309 -11C1364 -11 1424 15 1469 57C1531 116 1575 230 1575 331C1575 425 1525 482 1442 482C1338 482 1181 382 1181 152ZM1405 444C1466 444 1499 399 1499 315C1499 219 1468 113 1424 60C1406 39 1380 27 1349 27C1291 27 1257 72 1257 151C1257 264 1296 387 1345 427C1358 438 1381 444 1405 444ZM1949 330L1972 330C1980 395 1987 432 1996 458C1972 473 1937 482 1900 482C1855 483 1782 463 1725 400C1671 352 1632 241 1632 136C1632 40 1674 -11 1754 -11C1808 -11 1856 9 1911 54L1961 95L1953 115L1938 105C1866 57 1828 40 1793 40C1737 40 1708 80 1708 159C1708 267 1743 371 1792 409C1813 425 1837 433 1868 433C1913 433 1949 414 1949 390ZM2047 388L2054 368L2086 389C2123 412 2126 414 2133 414C2143 414 2151 404 2151 391C2151 384 2147 361 2143 347L2077 107C2069 76 2064 49 2064 30C2064 6 2075 -9 2094 -9C2120 -9 2156 12 2254 85L2244 103L2218 86C2189 67 2166 56 2157 56C2150 56 2144 66 2144 76C2144 86 2146 95 2151 116L2228 420C2232 437 2234 448 2234 456C2234 473 2225 482 2209 482C2187 482 2150 461 2075 408ZM2241 712C2212 712 2183 679 2183 645C2183 620 2198 604 2222 604C2253 604 2277 633 2277 671C2277 695 2262 712 2241 712ZM2773 722L2761 733C2709 707 2673 698 2601 691L2597 670L2645 670C2669 670 2679 663 2679 646C2679 638 2678 629 2677 622L2649 468C2619 477 2592 482 2567 482C2498 482 2404 410 2358 323C2327 265 2307 170 2307 86C2307 21 2322 -11 2351 -11C2378 -11 2415 6 2449 33C2503 77 2536 116 2603 217L2580 126C2569 82 2564 50 2564 24C2564 3 2573 -9 2590 -9C2607 -9 2631 3 2665 28L2746 88L2736 107L2692 76C2678 66 2662 59 2653 59C2645 59 2639 68 2639 82C2639 90 2640 99 2647 128ZM2404 59C2388 59 2379 73 2379 98C2379 224 2425 380 2474 418C2487 428 2506 433 2533 433C2577 433 2606 427 2639 410L2627 351C2590 171 2449 59 2404 59ZM3060 204L3031 77C3027 60 3025 42 3025 26C3025 4 3034 -9 3049 -9C3072 -9 3113 17 3195 85L3188 106C3164 86 3135 59 3113 59C3104 59 3098 68 3098 82C3098 87 3098 90 3099 93L3191 472L3181 481L3148 463C3107 478 3090 482 3063 482C3035 482 3015 477 2988 464C2926 433 2893 403 2868 354C2824 265 2793 145 2793 67C2793 23 2808 -11 2827 -11C2864 -11 2944 41 3060 204ZM3108 414C3086 305 3067 253 3033 201C2976 117 2915 59 2883 59C2871 59 2865 72 2865 99C2865 163 2893 280 2928 360C2952 415 2975 433 3023 433C3046 433 3064 429 3108 414ZM3715 722L3703 733C3651 707 3615 698 3543 691L3539 670L3587 670C3611 670 3621 663 3621 646C3621 638 3620 629 3619 622L3591 468C3561 477 3534 482 3509 482C3440 482 3346 410 3300 323C3269 265 3249 170 3249 86C3249 21 3264 -11 3293 -11C3320 -11 3357 6 3391 33C3445 77 3478 116 3545 217L3522 126C3511 82 3506 50 3506 24C3506 3 3515 -9 3532 -9C3549 -9 3573 3 3607 28L3688 88L3678 107L3634 76C3620 66 3604 59 3595 59C3587 59 3581 68 3581 82C3581 90 3582 99 3589 128ZM3346 59C3330 59 3321 73 3321 98C3321 224 3367 380 3416 418C3429 428 3448 433 3475 433C3519 433 3548 427 3581 410L3569 351C3532 171 3391 59 3346 59Z" stroke="rgb(0,0,0)" stroke-opacity="1" stroke-width="8" fill="rgb(0,0,0)" fill-opacity="1"></path></g></g></g><g><g><g transform="matrix(1,0,0,1,2,120.02499389648438)"><path transform="matrix(0.017,0,0,-0.017,0,0)" d="M385 458C342 475 313 482 284 482C209 482 121 394 103 374C63 327 24 181 24 78C24 19 36 -11 60 -11C82 -11 101 -3 133 19C180 51 259 121 308 209L232 -205C227 -229 217 -249 205 -262L214 -276C245 -268 276 -262 300 -259C304 -205 310 -150 319 -100L405 356C416 417 422 443 432 474L418 480ZM118 59C104 59 96 80 96 113C96 209 139 359 181 409C193 424 222 433 254 433C282 433 303 427 351 406L330 311C301 174 160 59 118 59Z" stroke="rgb(0,0,0)" stroke-opacity="1" stroke-width="8" fill="rgb(0,0,0)" fill-opacity="1"></path></g></g><g><g transform="matrix(1,0,0,1,13.250015258789062,120.02499389648438)"><path transform="matrix(0.017,0,0,-0.017,0,0)" d="M123 111C93 111 66 83 66 53C66 23 93 -5 122 -5C154 -5 182 22 182 53C182 83 154 111 123 111ZM123 456C93 456 66 428 66 398C66 368 93 340 122 340C154 340 182 367 182 397C182 428 154 456 123 456Z" stroke="rgb(0,0,0)" stroke-opacity="1" stroke-width="8" fill="rgb(0,0,0)" fill-opacity="1"></path></g></g><g><g transform="matrix(1,0,0,1,20.884994506835938,120.02499389648438)"><path transform="matrix(0.017,0,0,-0.017,0,0)" d="M342 330L365 330C373 395 380 432 389 458C365 473 330 482 293 482C248 483 175 463 118 400C64 352 25 241 25 136C25 40 67 -11 147 -11C201 -11 249 9 304 54L354 95L346 115L331 105C259 57 221 40 186 40C130 40 101 80 101 159C101 267 136 371 185 409C206 425 230 433 261 433C306 433 342 414 342 390ZM677 204L648 77C644 60 642 42 642 26C642 4 651 -9 666 -9C689 -9 730 17 812 85L805 106C781 86 752 59 730 59C721 59 715 68 715 82C715 87 715 90 716 93L808 472L798 481L765 463C724 478 707 482 680 482C652 482 632 477 605 464C543 433 510 403 485 354C441 265 410 145 410 67C410 23 425 -11 444 -11C481 -11 561 41 677 204ZM725 414C703 305 684 253 650 201C593 117 532 59 500 59C488 59 482 72 482 99C482 163 510 280 545 360C569 415 592 433 640 433C663 433 681 429 725 414ZM1217 365C1220 403 1225 435 1233 476C1222 481 1218 482 1213 482C1182 482 1151 458 1115 407C1076 351 1037 291 1021 256L1053 408C1057 425 1059 438 1059 450C1059 470 1051 482 1036 482C1015 482 977 461 903 408L875 388L882 368L914 389C942 407 953 412 962 412C972 412 979 403 979 390C979 332 936 126 896 -2L906 -9C921 -4 937 -1 960 4L973 6L999 126C1017 209 1040 262 1084 319C1118 363 1145 384 1167 384C1182 384 1192 379 1203 365ZM1512 482C1445 482 1292 419 1292 259C1292 182 1337 136 1414 136C1422 136 1433 136 1444 137L1403 99C1387 84 1376 66 1376 52C1376 42 1383 31 1397 19C1328 -4 1200 -48 1200 -159C1200 -230 1270 -276 1379 -276C1508 -276 1621 -204 1621 -121C1621 -85 1600 -49 1557 -14L1497 35C1463 62 1450 81 1450 100C1450 114 1465 128 1477 146C1575 170 1646 253 1646 342C1646 357 1643 376 1642 380C1659 378 1667 378 1676 378C1693 378 1703 379 1726 382L1735 427L1732 433C1704 426 1684 424 1630 424C1630 425 1606 482 1512 482ZM1413 1L1490 -58C1536 -94 1555 -121 1555 -154C1555 -206 1486 -248 1403 -248C1321 -248 1264 -206 1264 -145C1264 -43 1374 -11 1413 1ZM1487 448C1545 448 1574 412 1574 341C1574 238 1526 168 1456 168C1395 168 1363 209 1363 288C1363 383 1414 448 1487 448ZM2007 204L1978 77C1974 60 1972 42 1972 26C1972 4 1981 -9 1996 -9C2019 -9 2060 17 2142 85L2135 106C2111 86 2082 59 2060 59C2051 59 2045 68 2045 82C2045 87 2045 90 2046 93L2138 472L2128 481L2095 463C2054 478 2037 482 2010 482C1982 482 1962 477 1935 464C1873 433 1840 403 1815 354C1771 265 1740 145 1740 67C1740 23 1755 -11 1774 -11C1811 -11 1891 41 2007 204ZM2055 414C2033 305 2014 253 1980 201C1923 117 1862 59 1830 59C1818 59 1812 72 1812 99C1812 163 1840 280 1875 360C1899 415 1922 433 1970 433C1993 433 2011 429 2055 414Z" stroke="rgb(0,0,0)" stroke-opacity="1" stroke-width="8" fill="rgb(0,0,0)" fill-opacity="1"></path></g></g></g><g><g><g transform="matrix(1,0,0,1,2,140.18499755859375)"><path transform="matrix(0.017,0,0,-0.017,0,0)" d="M543 227C543 337 459 353 377 365C434 385 459 397 490 425C536 464 559 511 559 562C559 644 501 692 401 692C399 692 389 692 374 691L311 690C299 689 263 689 251 689C232 689 201 690 152 691L100 692L97 664L150 662C174 661 185 653 185 635C185 621 181 589 176 559L89 55C85 37 73 30 31 23L26 -3L63 -2C90 0 105 0 117 0C128 0 154 -1 180 -2L217 -3L237 -4C256 -5 269 -6 277 -6C392 -6 543 87 543 227ZM166 41L217 340L302 340C405 340 455 298 455 211C455 108 382 34 282 34C228 34 207 38 166 41ZM352 655C433 655 473 619 473 544C473 439 399 376 275 376L223 376L272 650C288 650 329 655 352 655Z" stroke="rgb(0,0,0)" stroke-opacity="1" stroke-width="8" fill="rgb(0,0,0)" fill-opacity="1"></path></g></g><g><g transform="matrix(1,0,0,1,15.770004272460938,140.18499755859375)"><path transform="matrix(0.017,0,0,-0.017,0,0)" d="M123 111C93 111 66 83 66 53C66 23 93 -5 122 -5C154 -5 182 22 182 53C182 83 154 111 123 111ZM123 456C93 456 66 428 66 398C66 368 93 340 122 340C154 340 182 367 182 397C182 428 154 456 123 456Z" stroke="rgb(0,0,0)" stroke-opacity="1" stroke-width="8" fill="rgb(0,0,0)" fill-opacity="1"></path></g></g><g><g transform="matrix(1,0,0,1,23.405014038085938,140.18499755859375)"><path transform="matrix(0.017,0,0,-0.017,0,0)" d="M342 330L365 330C373 395 380 432 389 458C365 473 330 482 293 482C248 483 175 463 118 400C64 352 25 241 25 136C25 40 67 -11 147 -11C201 -11 249 9 304 54L354 95L346 115L331 105C259 57 221 40 186 40C130 40 101 80 101 159C101 267 136 371 185 409C206 425 230 433 261 433C306 433 342 414 342 390ZM677 204L648 77C644 60 642 42 642 26C642 4 651 -9 666 -9C689 -9 730 17 812 85L805 106C781 86 752 59 730 59C721 59 715 68 715 82C715 87 715 90 716 93L808 472L798 481L765 463C724 478 707 482 680 482C652 482 632 477 605 464C543 433 510 403 485 354C441 265 410 145 410 67C410 23 425 -11 444 -11C481 -11 561 41 677 204ZM725 414C703 305 684 253 650 201C593 117 532 59 500 59C488 59 482 72 482 99C482 163 510 280 545 360C569 415 592 433 640 433C663 433 681 429 725 414ZM1579 103L1553 86C1524 67 1502 56 1492 56C1485 56 1479 65 1479 76C1479 86 1481 95 1486 116L1561 413C1565 430 1568 446 1568 454C1568 471 1558 482 1542 482C1513 482 1475 464 1414 421C1351 376 1316 341 1267 272L1297 409C1301 429 1304 444 1304 451C1304 470 1294 482 1278 482C1248 482 1202 460 1147 418C1103 384 1083 363 1018 275L1051 408C1055 424 1057 439 1057 451C1057 470 1048 482 1034 482C1013 482 975 461 901 408L873 388L880 368C917 391 952 414 959 414C970 414 977 404 977 389C977 338 936 145 895 2L898 -9L966 6L988 108C1012 219 1039 278 1094 338C1136 384 1181 414 1209 414C1216 414 1220 406 1220 393C1220 358 1198 244 1157 69L1141 2L1146 -9L1215 6L1236 113C1252 194 1286 269 1330 318C1385 379 1435 414 1467 414C1475 414 1480 405 1480 389C1480 365 1477 351 1455 264C1415 105 1399 84 1399 31C1399 6 1410 -9 1429 -9C1455 -9 1491 12 1589 85ZM1802 -11C1858 -11 1973 62 2016 125C2057 186 2091 296 2091 371C2091 438 2068 482 2032 482C1990 482 1937 456 1885 409C1844 374 1824 348 1788 289L1812 408C1815 425 1817 440 1817 452C1817 471 1809 482 1795 482C1774 482 1736 461 1662 408L1634 388L1641 368L1673 389C1701 407 1712 412 1721 412C1731 412 1738 403 1738 389C1738 381 1736 361 1734 351L1676 8C1666 -52 1647 -143 1627 -233L1619 -270L1626 -276C1647 -269 1667 -264 1699 -259L1741 3C1762 -4 1784 -11 1802 -11ZM1769 165C1791 293 1898 424 1981 424C2007 424 2019 402 2019 356C2019 275 1979 156 1926 80C1906 51 1874 36 1833 36C1802 36 1777 43 1751 59ZM2142 152C2142 46 2187 -11 2270 -11C2325 -11 2385 15 2430 57C2492 116 2536 230 2536 331C2536 425 2486 482 2403 482C2299 482 2142 382 2142 152ZM2366 444C2427 444 2460 399 2460 315C2460 219 2429 113 2385 60C2367 39 2341 27 2310 27C2252 27 2218 72 2218 151C2218 264 2257 387 2306 427C2319 438 2342 444 2366 444ZM3547 103L3521 86C3492 67 3470 56 3460 56C3453 56 3447 65 3447 76C3447 86 3449 95 3454 116L3529 413C3533 430 3536 446 3536 454C3536 471 3526 482 3510 482C3481 482 3443 464 3382 421C3319 376 3284 341 3235 272L3265 409C3269 429 3272 444 3272 451C3272 470 3262 482 3246 482C3216 482 3170 460 3115 418C3071 384 3051 363 2986 275L3019 408C3023 424 3025 439 3025 451C3025 470 3016 482 3002 482C2981 482 2943 461 2869 408L2841 388L2848 368C2885 391 2920 414 2927 414C2938 414 2945 404 2945 389C2945 338 2904 145 2863 2L2866 -9L2934 6L2956 108C2980 219 3007 278 3062 338C3104 384 3149 414 3177 414C3184 414 3188 406 3188 393C3188 358 3166 244 3125 69L3109 2L3114 -9L3183 6L3204 113C3220 194 3254 269 3298 318C3353 379 3403 414 3435 414C3443 414 3448 405 3448 389C3448 365 3445 351 3423 264C3383 105 3367 84 3367 31C3367 6 3378 -9 3397 -9C3423 -9 3459 12 3557 85ZM3865 204L3836 77C3832 60 3830 42 3830 26C3830 4 3839 -9 3854 -9C3877 -9 3918 17 4000 85L3993 106C3969 86 3940 59 3918 59C3909 59 3903 68 3903 82C3903 87 3903 90 3904 93L3996 472L3986 481L3953 463C3912 478 3895 482 3868 482C3840 482 3820 477 3793 464C3731 433 3698 403 3673 354C3629 265 3598 145 3598 67C3598 23 3613 -11 3632 -11C3669 -11 3749 41 3865 204ZM3913 414C3891 305 3872 253 3838 201C3781 117 3720 59 3688 59C3676 59 3670 72 3670 99C3670 163 3698 280 3733 360C3757 415 3780 433 3828 433C3851 433 3869 429 3913 414ZM4312 482C4245 482 4092 419 4092 259C4092 182 4137 136 4214 136C4222 136 4233 136 4244 137L4203 99C4187 84 4176 66 4176 52C4176 42 4183 31 4197 19C4128 -4 4000 -48 4000 -159C4000 -230 4070 -276 4179 -276C4308 -276 4421 -204 4421 -121C4421 -85 4400 -49 4357 -14L4297 35C4263 62 4250 81 4250 100C4250 114 4265 128 4277 146C4375 170 4446 253 4446 342C4446 357 4443 376 4442 380C4459 378 4467 378 4476 378C4493 378 4503 379 4526 382L4535 427L4532 433C4504 426 4484 424 4430 424C4430 425 4406 482 4312 482ZM4213 1L4290 -58C4336 -94 4355 -121 4355 -154C4355 -206 4286 -248 4203 -248C4121 -248 4064 -206 4064 -145C4064 -43 4174 -11 4213 1ZM4287 448C4345 448 4374 412 4374 341C4374 238 4326 168 4256 168C4195 168 4163 209 4163 288C4163 383 4214 448 4287 448ZM4560 388L4567 368L4599 389C4636 412 4639 414 4646 414C4657 414 4664 404 4664 389C4664 338 4623 145 4582 2L4589 -9C4614 -2 4637 4 4659 8C4678 134 4699 199 4745 268C4799 352 4874 414 4919 414C4930 414 4936 405 4936 390C4936 372 4933 351 4925 319L4873 107C4864 70 4860 47 4860 31C4860 6 4871 -9 4890 -9C4916 -9 4952 12 5050 85L5040 103L5014 86C4985 67 4963 56 4953 56C4946 56 4940 65 4940 76C4940 81 4941 92 4942 96L5008 372C5015 401 5019 429 5019 446C5019 469 5008 482 4988 482C4946 482 4877 444 4818 389C4780 354 4752 320 4700 247L4738 408C4742 426 4744 438 4744 449C4744 470 4736 482 4721 482C4700 482 4661 460 4588 408ZM5419 111L5395 94C5342 56 5294 36 5258 36C5211 36 5182 73 5182 133C5182 158 5185 185 5190 214C5207 218 5316 248 5341 259C5426 296 5465 342 5465 404C5465 451 5431 482 5381 482C5313 496 5203 423 5166 349C5136 299 5106 180 5106 113C5106 35 5150 -11 5222 -11C5279 -11 5335 17 5427 92ZM5204 274C5221 343 5241 386 5270 412C5288 428 5319 440 5343 440C5372 440 5391 420 5391 388C5391 344 5356 297 5304 272C5276 258 5240 247 5195 237ZM5604 390L5548 107C5547 99 5535 61 5535 31C5535 6 5546 -9 5565 -9C5600 -9 5635 11 5713 74L5744 99L5734 117L5689 86C5660 66 5640 56 5629 56C5620 56 5615 64 5615 76C5615 102 5629 183 5658 328L5671 390L5778 390L5789 440C5751 436 5717 434 5679 434C5695 528 5706 577 5724 631L5713 646C5693 634 5666 622 5635 610L5610 440C5566 419 5540 408 5522 403L5520 390ZM5845 388L5852 368L5884 389C5921 412 5924 414 5931 414C5941 414 5949 404 5949 391C5949 384 5945 361 5941 347L5875 107C5867 76 5862 49 5862 30C5862 6 5873 -9 5892 -9C5918 -9 5954 12 6052 85L6042 103L6016 86C5987 67 5964 56 5955 56C5948 56 5942 66 5942 76C5942 86 5944 95 5949 116L6026 420C6030 437 6032 448 6032 456C6032 473 6023 482 6007 482C5985 482 5948 461 5873 408ZM6039 712C6010 712 5981 679 5981 645C5981 620 5996 604 6020 604C6051 604 6075 633 6075 671C6075 695 6060 712 6039 712ZM6430 330L6453 330C6461 395 6468 432 6477 458C6453 473 6418 482 6381 482C6336 483 6263 463 6206 400C6152 352 6113 241 6113 136C6113 40 6155 -11 6235 -11C6289 -11 6337 9 6392 54L6442 95L6434 115L6419 105C6347 57 6309 40 6274 40C6218 40 6189 80 6189 159C6189 267 6224 371 6273 409C6294 425 6318 433 6349 433C6394 433 6430 414 6430 390ZM6511 152C6511 46 6556 -11 6639 -11C6694 -11 6754 15 6799 57C6861 116 6905 230 6905 331C6905 425 6855 482 6772 482C6668 482 6511 382 6511 152ZM6735 444C6796 444 6829 399 6829 315C6829 219 6798 113 6754 60C6736 39 6710 27 6679 27C6621 27 6587 72 6587 151C6587 264 6626 387 6675 427C6688 438 6711 444 6735 444Z" stroke="rgb(0,0,0)" stroke-opacity="1" stroke-width="8" fill="rgb(0,0,0)" fill-opacity="1"></path></g></g></g></g></svg>