<svg xmlns="http://www.w3.org/2000/svg" xmlns:xlink="http://www.w3.org/1999/xlink" width="183.03999837239581" height="84.64000447591147" style="width:183.03999837239581px;height:84.64000447591147px;font-family:Asana-Math, Asana;background:#FFF;"><g><g><g><g transform="matrix(1,0,0,1,2,18.039998372395836)"><path transform="matrix(0.017,0,0,-0.017,0,0)" d="M2337 437L2321 437L2342 549C2358 635 2386 673 2432 673C2462 673 2489 658 2504 634L2514 638C2519 654 2529 685 2537 705L2542 720C2526 727 2495 733 2472 733C2461 733 2445 730 2437 726C2413 715 2331 654 2308 630C2286 608 2274 578 2263 521L2248 442C2207 422 2187 414 2162 405L2157 383L2238 383L2229 327C2199 132 2162 -54 2140 -123C2122 -182 2092 -213 2056 -213C2033 -213 2022 -206 2004 -184L1990 -188C1986 -211 1972 -259 1967 -268C1976 -273 1991 -276 2002 -276C2043 -276 2097 -245 2136 -198C2207 -114 2227 -18 2311 383L2415 383C2419 402 2426 425 2432 439L2428 446C2399 439 2400 437 2337 437Z" stroke="rgb(0,0,0)" stroke-opacity="1" stroke-width="8" fill="rgb(0,0,0)" fill-opacity="1"></path></g></g><g><g transform="matrix(1,0,0,1,45.199951171875,19)"><path transform="matrix(0.017,0,0,-0.017,0,0)" d="M146 266C146 526 243 632 301 700L282 726C225 675 60 542 60 266C60 159 85 58 133 -32C168 -99 200 -138 282 -215L301 -194C255 -137 146 -15 146 266Z" stroke="rgb(0,0,0)" stroke-opacity="1" stroke-width="8" fill="rgb(0,0,0)" fill-opacity="1"></path></g></g><g><g transform="matrix(1,0,0,1,50.85498046875,18.039998372395836)"><path transform="matrix(0.017,0,0,-0.017,0,0)" d="M9 1C24 -7 40 -11 52 -11C85 -11 124 18 155 65L231 182L242 113C255 28 278 -11 314 -11C336 -11 368 6 400 35L449 79L440 98C404 68 379 53 363 53C348 53 335 63 325 83C316 102 305 139 300 168L282 269L317 318C364 383 391 406 422 406C438 406 450 398 455 383L469 387L484 472C472 479 463 482 454 482C414 482 374 446 312 354L275 299L269 347C257 446 230 482 171 482C145 482 123 474 114 461L56 378L73 368C103 402 123 416 142 416C175 416 197 375 214 277L225 215L185 153C142 86 108 54 80 54C65 54 54 58 52 63L41 91L21 88C21 53 13 27 9 1Z" stroke="rgb(0,0,0)" stroke-opacity="1" stroke-width="8" fill="rgb(0,0,0)" fill-opacity="1"></path></g></g><g><g transform="matrix(1,0,0,1,59.344970703125,19)"><path transform="matrix(0.017,0,0,-0.017,0,0)" d="M51 726L32 700C87 636 187 526 187 266C187 -10 83 -131 32 -194L51 -215C104 -165 273 -23 273 265C273 542 108 675 51 726Z" stroke="rgb(0,0,0)" stroke-opacity="1" stroke-width="8" fill="rgb(0,0,0)" fill-opacity="1"></path></g></g><g><g transform="matrix(1,0,0,1,70.10001627604163,18.039998372395836)"><path transform="matrix(0.017,0,0,-0.017,0,0)" d="M604 347L604 406L65 406L65 347ZM604 134L604 193L65 193L65 134Z" stroke="rgb(0,0,0)" stroke-opacity="1" stroke-width="8" fill="rgb(0,0,0)" fill-opacity="1"></path></g></g><g><g transform="matrix(1,0,0,1,86.55501302083331,18.039998372395836)"><path transform="matrix(0.017,0,0,-0.017,0,0)" d="M730 103L704 86C675 67 653 56 643 56C636 56 630 65 630 76C630 86 632 95 637 116L712 413C716 430 719 446 719 454C719 471 709 482 693 482C664 482 626 464 565 421C502 376 467 341 418 272L448 409C452 429 455 444 455 451C455 470 445 482 429 482C399 482 353 460 298 418C254 384 234 363 169 275L202 408C206 424 208 439 208 451C208 470 199 482 185 482C164 482 126 461 52 408L24 388L31 368C68 391 103 414 110 414C121 414 128 404 128 389C128 338 87 145 46 2L49 -9L117 6L139 108C163 219 190 278 245 338C287 384 332 414 360 414C367 414 371 406 371 393C371 358 349 244 308 69L292 2L297 -9L366 6L387 113C403 194 437 269 481 318C536 379 586 414 618 414C626 414 631 405 631 389C631 365 628 351 606 264C566 105 550 84 550 31C550 6 561 -9 580 -9C606 -9 642 12 740 85ZM786 1C801 -7 817 -11 829 -11C862 -11 901 18 932 65L1008 182L1019 113C1032 28 1055 -11 1091 -11C1113 -11 1145 6 1177 35L1226 79L1217 98C1181 68 1156 53 1140 53C1125 53 1112 63 1102 83C1093 102 1082 139 1077 168L1059 269L1094 318C1141 383 1168 406 1199 406C1215 406 1227 398 1232 383L1246 387L1261 472C1249 479 1240 482 1231 482C1191 482 1151 446 1089 354L1052 299L1046 347C1034 446 1007 482 948 482C922 482 900 474 891 461L833 378L850 368C880 402 900 416 919 416C952 416 974 375 991 277L1002 215L962 153C919 86 885 54 857 54C842 54 831 58 829 63L818 91L798 88C798 53 790 27 786 1Z" stroke="rgb(0,0,0)" stroke-opacity="1" stroke-width="8" fill="rgb(0,0,0)" fill-opacity="1"></path></g></g><g><g transform="matrix(1,0,0,1,111.635009765625,18.039998372395836)"><path transform="matrix(0.017,0,0,-0.017,0,0)" d="M604 241L604 300L364 300L364 538L305 538L305 300L65 300L65 241L305 241L305 0L364 0L364 241Z" stroke="rgb(0,0,0)" stroke-opacity="1" stroke-width="8" fill="rgb(0,0,0)" fill-opacity="1"></path></g></g><g><g transform="matrix(1,0,0,1,126.37996419270831,18.039998372395836)"><path transform="matrix(0.017,0,0,-0.017,0,0)" d="M24 388L31 368L63 389C100 412 103 414 110 414C121 414 128 404 128 389C128 338 87 145 46 2L53 -9C78 -2 101 4 123 8C142 134 163 199 209 268C263 352 338 414 383 414C394 414 400 405 400 390C400 372 397 351 389 319L337 107C328 70 324 47 324 31C324 6 335 -9 354 -9C380 -9 416 12 514 85L504 103L478 86C449 67 427 56 417 56C410 56 404 65 404 76C404 81 405 92 406 96L472 372C479 401 483 429 483 446C483 469 472 482 452 482C410 482 341 444 282 389C244 354 216 320 164 247L202 408C206 426 208 438 208 449C208 470 200 482 185 482C164 482 125 460 52 408Z" stroke="rgb(0,0,0)" stroke-opacity="1" stroke-width="8" fill="rgb(0,0,0)" fill-opacity="1"></path></g></g></g><g></g><g><g><g transform="matrix(1,0,0,1,2,58.360005696614586)"><path transform="matrix(0.017,0,0,-0.017,0,0)" d="M730 103L704 86C675 67 653 56 643 56C636 56 630 65 630 76C630 86 632 95 637 116L712 413C716 430 719 446 719 454C719 471 709 482 693 482C664 482 626 464 565 421C502 376 467 341 418 272L448 409C452 429 455 444 455 451C455 470 445 482 429 482C399 482 353 460 298 418C254 384 234 363 169 275L202 408C206 424 208 439 208 451C208 470 199 482 185 482C164 482 126 461 52 408L24 388L31 368C68 391 103 414 110 414C121 414 128 404 128 389C128 338 87 145 46 2L49 -9L117 6L139 108C163 219 190 278 245 338C287 384 332 414 360 414C367 414 371 406 371 393C371 358 349 244 308 69L292 2L297 -9L366 6L387 113C403 194 437 269 481 318C536 379 586 414 618 414C626 414 631 405 631 389C631 365 628 351 606 264C566 105 550 84 550 31C550 6 561 -9 580 -9C606 -9 642 12 740 85Z" stroke="rgb(0,0,0)" stroke-opacity="1" stroke-width="8" fill="rgb(0,0,0)" fill-opacity="1"></path></g></g><g><g transform="matrix(1,0,0,1,18.60498046875,58.360005696614586)"><path transform="matrix(0.017,0,0,-0.017,0,0)" d="M123 111C93 111 66 83 66 53C66 23 93 -5 122 -5C154 -5 182 22 182 53C182 83 154 111 123 111ZM123 456C93 456 66 428 66 398C66 368 93 340 122 340C154 340 182 367 182 397C182 428 154 456 123 456Z" stroke="rgb(0,0,0)" stroke-opacity="1" stroke-width="8" fill="rgb(0,0,0)" fill-opacity="1"></path></g></g><g><g transform="matrix(1,0,0,1,26.239990234375,58.360005696614586)"><path transform="matrix(0.017,0,0,-0.017,0,0)" d="M425 -11C481 -11 596 62 639 125C680 186 714 296 714 371C714 438 691 482 655 482C613 482 560 456 508 409C467 374 447 348 411 289L435 408C438 425 440 440 440 452C440 471 432 482 418 482C397 482 359 461 285 408L257 388L264 368L296 389C324 407 335 412 344 412C354 412 361 403 361 389C361 381 359 361 357 351L299 8C289 -52 270 -143 250 -233L242 -270L249 -276C270 -269 290 -264 322 -259L364 3C385 -4 407 -11 425 -11ZM392 165C414 293 521 424 604 424C630 424 642 402 642 356C642 275 602 156 549 80C529 51 497 36 456 36C425 36 400 43 374 59ZM1076 111L1052 94C999 56 951 36 915 36C868 36 839 73 839 133C839 158 842 185 847 214C864 218 973 248 998 259C1083 296 1122 342 1122 404C1122 451 1088 482 1038 482C970 496 860 423 823 349C793 299 763 180 763 113C763 35 807 -11 879 -11C936 -11 992 17 1084 92ZM861 274C878 343 898 386 927 412C945 428 976 440 1000 440C1029 440 1048 420 1048 388C1048 344 1013 297 961 272C933 258 897 247 852 237ZM1160 388L1167 368L1199 389C1236 412 1239 414 1246 414C1257 414 1264 404 1264 389C1264 338 1223 145 1182 2L1189 -9C1214 -2 1237 4 1259 8C1278 134 1299 199 1345 268C1399 352 1474 414 1519 414C1530 414 1536 405 1536 390C1536 372 1533 351 1525 319L1473 107C1464 70 1460 47 1460 31C1460 6 1471 -9 1490 -9C1516 -9 1552 12 1650 85L1640 103L1614 86C1585 67 1563 56 1553 56C1546 56 1540 65 1540 76C1540 81 1541 92 1542 96L1608 372C1615 401 1619 429 1619 446C1619 469 1608 482 1588 482C1546 482 1477 444 1418 389C1380 354 1352 320 1300 247L1338 408C1342 426 1344 438 1344 449C1344 470 1336 482 1321 482C1300 482 1261 460 1188 408ZM2174 722L2162 733C2110 707 2074 698 2002 691L1998 670L2046 670C2070 670 2080 663 2080 646C2080 638 2079 629 2078 622L2050 468C2020 477 1993 482 1968 482C1899 482 1805 410 1759 323C1728 265 1708 170 1708 86C1708 21 1723 -11 1752 -11C1779 -11 1816 6 1850 33C1904 77 1937 116 2004 217L1981 126C1970 82 1965 50 1965 24C1965 3 1974 -9 1991 -9C2008 -9 2032 3 2066 28L2147 88L2137 107L2093 76C2079 66 2063 59 2054 59C2046 59 2040 68 2040 82C2040 90 2041 99 2048 128ZM1805 59C1789 59 1780 73 1780 98C1780 224 1826 380 1875 418C1888 428 1907 433 1934 433C1978 433 2007 427 2040 410L2028 351C1991 171 1850 59 1805 59ZM2224 388L2231 368L2263 389C2300 412 2303 414 2310 414C2320 414 2328 404 2328 391C2328 384 2324 361 2320 347L2254 107C2246 76 2241 49 2241 30C2241 6 2252 -9 2271 -9C2297 -9 2333 12 2431 85L2421 103L2395 86C2366 67 2343 56 2334 56C2327 56 2321 66 2321 76C2321 86 2323 95 2328 116L2405 420C2409 437 2411 448 2411 456C2411 473 2402 482 2386 482C2364 482 2327 461 2252 408ZM2418 712C2389 712 2360 679 2360 645C2360 620 2375 604 2399 604C2430 604 2454 633 2454 671C2454 695 2439 712 2418 712ZM2795 111L2771 94C2718 56 2670 36 2634 36C2587 36 2558 73 2558 133C2558 158 2561 185 2566 214C2583 218 2692 248 2717 259C2802 296 2841 342 2841 404C2841 451 2807 482 2757 482C2689 496 2579 423 2542 349C2512 299 2482 180 2482 113C2482 35 2526 -11 2598 -11C2655 -11 2711 17 2803 92ZM2580 274C2597 343 2617 386 2646 412C2664 428 2695 440 2719 440C2748 440 2767 420 2767 388C2767 344 2732 297 2680 272C2652 258 2616 247 2571 237ZM2879 388L2886 368L2918 389C2955 412 2958 414 2965 414C2976 414 2983 404 2983 389C2983 338 2942 145 2901 2L2908 -9C2933 -2 2956 4 2978 8C2997 134 3018 199 3064 268C3118 352 3193 414 3238 414C3249 414 3255 405 3255 390C3255 372 3252 351 3244 319L3192 107C3183 70 3179 47 3179 31C3179 6 3190 -9 3209 -9C3235 -9 3271 12 3369 85L3359 103L3333 86C3304 67 3282 56 3272 56C3265 56 3259 65 3259 76C3259 81 3260 92 3261 96L3327 372C3334 401 3338 429 3338 446C3338 469 3327 482 3307 482C3265 482 3196 444 3137 389C3099 354 3071 320 3019 247L3057 408C3061 426 3063 438 3063 449C3063 470 3055 482 3040 482C3019 482 2980 460 2907 408ZM3535 390L3479 107C3478 99 3466 61 3466 31C3466 6 3477 -9 3496 -9C3531 -9 3566 11 3644 74L3675 99L3665 117L3620 86C3591 66 3571 56 3560 56C3551 56 3546 64 3546 76C3546 102 3560 183 3589 328L3602 390L3709 390L3720 440C3682 436 3648 434 3610 434C3626 528 3637 577 3655 631L3644 646C3624 634 3597 622 3566 610L3541 440C3497 419 3471 408 3453 403L3451 390ZM4070 111L4046 94C3993 56 3945 36 3909 36C3862 36 3833 73 3833 133C3833 158 3836 185 3841 214C3858 218 3967 248 3992 259C4077 296 4116 342 4116 404C4116 451 4082 482 4032 482C3964 496 3854 423 3817 349C3787 299 3757 180 3757 113C3757 35 3801 -11 3873 -11C3930 -11 3986 17 4078 92ZM3855 274C3872 343 3892 386 3921 412C3939 428 3970 440 3994 440C4023 440 4042 420 4042 388C4042 344 4007 297 3955 272C3927 258 3891 247 3846 237Z" stroke="rgb(0,0,0)" stroke-opacity="1" stroke-width="8" fill="rgb(0,0,0)" fill-opacity="1"></path></g></g></g><g><g><g transform="matrix(1,0,0,1,2,78.51999918619791)"><path transform="matrix(0.017,0,0,-0.017,0,0)" d="M24 388L31 368L63 389C100 412 103 414 110 414C121 414 128 404 128 389C128 338 87 145 46 2L53 -9C78 -2 101 4 123 8C142 134 163 199 209 268C263 352 338 414 383 414C394 414 400 405 400 390C400 372 397 351 389 319L337 107C328 70 324 47 324 31C324 6 335 -9 354 -9C380 -9 416 12 514 85L504 103L478 86C449 67 427 56 417 56C410 56 404 65 404 76C404 81 405 92 406 96L472 372C479 401 483 429 483 446C483 469 472 482 452 482C410 482 341 444 282 389C244 354 216 320 164 247L202 408C206 426 208 438 208 449C208 470 200 482 185 482C164 482 125 460 52 408Z" stroke="rgb(0,0,0)" stroke-opacity="1" stroke-width="8" fill="rgb(0,0,0)" fill-opacity="1"></path></g></g><g><g transform="matrix(1,0,0,1,14.824951171875,78.51999918619791)"><path transform="matrix(0.017,0,0,-0.017,0,0)" d="M123 111C93 111 66 83 66 53C66 23 93 -5 122 -5C154 -5 182 22 182 53C182 83 154 111 123 111ZM123 456C93 456 66 428 66 398C66 368 93 340 122 340C154 340 182 367 182 397C182 428 154 456 123 456Z" stroke="rgb(0,0,0)" stroke-opacity="1" stroke-width="8" fill="rgb(0,0,0)" fill-opacity="1"></path></g></g><g><g transform="matrix(1,0,0,1,22.4599609375,78.51999918619791)"><path transform="matrix(0.017,0,0,-0.017,0,0)" d="M591 330L614 330C622 395 629 432 638 458C614 473 579 482 542 482C497 483 424 463 367 400C313 352 274 241 274 136C274 40 316 -11 396 -11C450 -11 498 9 553 54L603 95L595 115L580 105C508 57 470 40 435 40C379 40 350 80 350 159C350 267 385 371 434 409C455 425 479 433 510 433C555 433 591 414 591 390ZM672 152C672 46 717 -11 800 -11C855 -11 915 15 960 57C1022 116 1066 230 1066 331C1066 425 1016 482 933 482C829 482 672 382 672 152ZM896 444C957 444 990 399 990 315C990 219 959 113 915 60C897 39 871 27 840 27C782 27 748 72 748 151C748 264 787 387 836 427C849 438 872 444 896 444ZM1426 111L1402 94C1349 56 1301 36 1265 36C1218 36 1189 73 1189 133C1189 158 1192 185 1197 214C1214 218 1323 248 1348 259C1433 296 1472 342 1472 404C1472 451 1438 482 1388 482C1320 496 1210 423 1173 349C1143 299 1113 180 1113 113C1113 35 1157 -11 1229 -11C1286 -11 1342 17 1434 92ZM1211 274C1228 343 1248 386 1277 412C1295 428 1326 440 1350 440C1379 440 1398 420 1398 388C1398 344 1363 297 1311 272C1283 258 1247 247 1202 237ZM1831 437L1815 437L1836 549C1852 635 1880 673 1926 673C1956 673 1983 658 1998 634L2008 638C2013 654 2023 685 2031 705L2036 720C2020 727 1989 733 1966 733C1955 733 1939 730 1931 726C1907 715 1825 654 1802 630C1780 608 1768 578 1757 521L1742 442C1701 422 1681 414 1656 405L1651 383L1732 383L1723 327C1693 132 1656 -54 1634 -123C1616 -182 1586 -213 1550 -213C1527 -213 1516 -206 1498 -184L1484 -188C1480 -211 1466 -259 1461 -268C1470 -273 1485 -276 1496 -276C1537 -276 1591 -245 1630 -198C1701 -114 1721 -18 1805 383L1909 383C1913 402 1920 425 1926 439L1922 446C1893 439 1894 437 1831 437ZM2070 388L2077 368L2109 389C2146 412 2149 414 2156 414C2166 414 2174 404 2174 391C2174 384 2170 361 2166 347L2100 107C2092 76 2087 49 2087 30C2087 6 2098 -9 2117 -9C2143 -9 2179 12 2277 85L2267 103L2241 86C2212 67 2189 56 2180 56C2173 56 2167 66 2167 76C2167 86 2169 95 2174 116L2251 420C2255 437 2257 448 2257 456C2257 473 2248 482 2232 482C2210 482 2173 461 2098 408ZM2264 712C2235 712 2206 679 2206 645C2206 620 2221 604 2245 604C2276 604 2300 633 2300 671C2300 695 2285 712 2264 712ZM2655 330L2678 330C2686 395 2693 432 2702 458C2678 473 2643 482 2606 482C2561 483 2488 463 2431 400C2377 352 2338 241 2338 136C2338 40 2380 -11 2460 -11C2514 -11 2562 9 2617 54L2667 95L2659 115L2644 105C2572 57 2534 40 2499 40C2443 40 2414 80 2414 159C2414 267 2449 371 2498 409C2519 425 2543 433 2574 433C2619 433 2655 414 2655 390ZM2753 388L2760 368L2792 389C2829 412 2832 414 2839 414C2849 414 2857 404 2857 391C2857 384 2853 361 2849 347L2783 107C2775 76 2770 49 2770 30C2770 6 2781 -9 2800 -9C2826 -9 2862 12 2960 85L2950 103L2924 86C2895 67 2872 56 2863 56C2856 56 2850 66 2850 76C2850 86 2852 95 2857 116L2934 420C2938 437 2940 448 2940 456C2940 473 2931 482 2915 482C2893 482 2856 461 2781 408ZM2947 712C2918 712 2889 679 2889 645C2889 620 2904 604 2928 604C2959 604 2983 633 2983 671C2983 695 2968 712 2947 712ZM3324 111L3300 94C3247 56 3199 36 3163 36C3116 36 3087 73 3087 133C3087 158 3090 185 3095 214C3112 218 3221 248 3246 259C3331 296 3370 342 3370 404C3370 451 3336 482 3286 482C3218 496 3108 423 3071 349C3041 299 3011 180 3011 113C3011 35 3055 -11 3127 -11C3184 -11 3240 17 3332 92ZM3109 274C3126 343 3146 386 3175 412C3193 428 3224 440 3248 440C3277 440 3296 420 3296 388C3296 344 3261 297 3209 272C3181 258 3145 247 3100 237ZM3408 388L3415 368L3447 389C3484 412 3487 414 3494 414C3505 414 3512 404 3512 389C3512 338 3471 145 3430 2L3437 -9C3462 -2 3485 4 3507 8C3526 134 3547 199 3593 268C3647 352 3722 414 3767 414C3778 414 3784 405 3784 390C3784 372 3781 351 3773 319L3721 107C3712 70 3708 47 3708 31C3708 6 3719 -9 3738 -9C3764 -9 3800 12 3898 85L3888 103L3862 86C3833 67 3811 56 3801 56C3794 56 3788 65 3788 76C3788 81 3789 92 3790 96L3856 372C3863 401 3867 429 3867 446C3867 469 3856 482 3836 482C3794 482 3725 444 3666 389C3628 354 3600 320 3548 247L3586 408C3590 426 3592 438 3592 449C3592 470 3584 482 3569 482C3548 482 3509 460 3436 408ZM4064 390L4008 107C4007 99 3995 61 3995 31C3995 6 4006 -9 4025 -9C4060 -9 4095 11 4173 74L4204 99L4194 117L4149 86C4120 66 4100 56 4089 56C4080 56 4075 64 4075 76C4075 102 4089 183 4118 328L4131 390L4238 390L4249 440C4211 436 4177 434 4139 434C4155 528 4166 577 4184 631L4173 646C4153 634 4126 622 4095 610L4070 440C4026 419 4000 408 3982 403L3980 390ZM4599 111L4575 94C4522 56 4474 36 4438 36C4391 36 4362 73 4362 133C4362 158 4365 185 4370 214C4387 218 4496 248 4521 259C4606 296 4645 342 4645 404C4645 451 4611 482 4561 482C4493 496 4383 423 4346 349C4316 299 4286 180 4286 113C4286 35 4330 -11 4402 -11C4459 -11 4515 17 4607 92ZM4384 274C4401 343 4421 386 4450 412C4468 428 4499 440 4523 440C4552 440 4571 420 4571 388C4571 344 4536 297 4484 272C4456 258 4420 247 4375 237ZM5391 722L5379 733C5327 707 5291 698 5219 691L5215 670L5263 670C5287 670 5297 663 5297 646C5297 638 5296 629 5295 622L5267 468C5237 477 5210 482 5185 482C5116 482 5022 410 4976 323C4945 265 4925 170 4925 86C4925 21 4940 -11 4969 -11C4996 -11 5033 6 5067 33C5121 77 5154 116 5221 217L5198 126C5187 82 5182 50 5182 24C5182 3 5191 -9 5208 -9C5225 -9 5249 3 5283 28L5364 88L5354 107L5310 76C5296 66 5280 59 5271 59C5263 59 5257 68 5257 82C5257 90 5258 99 5265 128ZM5022 59C5006 59 4997 73 4997 98C4997 224 5043 380 5092 418C5105 428 5124 433 5151 433C5195 433 5224 427 5257 410L5245 351C5208 171 5067 59 5022 59ZM5735 111L5711 94C5658 56 5610 36 5574 36C5527 36 5498 73 5498 133C5498 158 5501 185 5506 214C5523 218 5632 248 5657 259C5742 296 5781 342 5781 404C5781 451 5747 482 5697 482C5629 496 5519 423 5482 349C5452 299 5422 180 5422 113C5422 35 5466 -11 5538 -11C5595 -11 5651 17 5743 92ZM5520 274C5537 343 5557 386 5586 412C5604 428 5635 440 5659 440C5688 440 5707 420 5707 388C5707 344 5672 297 5620 272C5592 258 5556 247 5511 237ZM6220 -11C6276 -11 6391 62 6434 125C6475 186 6509 296 6509 371C6509 438 6486 482 6450 482C6408 482 6355 456 6303 409C6262 374 6242 348 6206 289L6230 408C6233 425 6235 440 6235 452C6235 471 6227 482 6213 482C6192 482 6154 461 6080 408L6052 388L6059 368L6091 389C6119 407 6130 412 6139 412C6149 412 6156 403 6156 389C6156 381 6154 361 6152 351L6094 8C6084 -52 6065 -143 6045 -233L6037 -270L6044 -276C6065 -269 6085 -264 6117 -259L6159 3C6180 -4 6202 -11 6220 -11ZM6187 165C6209 293 6316 424 6399 424C6425 424 6437 402 6437 356C6437 275 6397 156 6344 80C6324 51 6292 36 6251 36C6220 36 6195 43 6169 59ZM6560 152C6560 46 6605 -11 6688 -11C6743 -11 6803 15 6848 57C6910 116 6954 230 6954 331C6954 425 6904 482 6821 482C6717 482 6560 382 6560 152ZM6784 444C6845 444 6878 399 6878 315C6878 219 6847 113 6803 60C6785 39 6759 27 6728 27C6670 27 6636 72 6636 151C6636 264 6675 387 6724 427C6737 438 6760 444 6784 444ZM7017 148C7012 97 7006 62 6995 16C7033 -2 7067 -11 7102 -11C7151 -11 7197 7 7248 47C7299 87 7320 124 7320 174C7320 228 7288 257 7214 271L7171 279C7111 290 7092 307 7092 348C7092 401 7137 442 7194 442C7235 442 7273 424 7289 397L7289 342L7312 342C7316 377 7320 404 7331 455C7292 474 7264 482 7231 482C7179 482 7118 452 7070 404C7044 377 7033 352 7033 316C7033 260 7064 228 7130 215L7193 203C7237 195 7253 177 7253 138C7253 73 7207 29 7136 29C7101 29 7070 40 7042 64L7042 148ZM7408 388L7415 368L7447 389C7484 412 7487 414 7494 414C7504 414 7512 404 7512 391C7512 384 7508 361 7504 347L7438 107C7430 76 7425 49 7425 30C7425 6 7436 -9 7455 -9C7481 -9 7517 12 7615 85L7605 103L7579 86C7550 67 7527 56 7518 56C7511 56 7505 66 7505 76C7505 86 7507 95 7512 116L7589 420C7593 437 7595 448 7595 456C7595 473 7586 482 7570 482C7548 482 7511 461 7436 408ZM7602 712C7573 712 7544 679 7544 645C7544 620 7559 604 7583 604C7614 604 7638 633 7638 671C7638 695 7623 712 7602 712ZM7993 330L8016 330C8024 395 8031 432 8040 458C8016 473 7981 482 7944 482C7899 483 7826 463 7769 400C7715 352 7676 241 7676 136C7676 40 7718 -11 7798 -11C7852 -11 7900 9 7955 54L8005 95L7997 115L7982 105C7910 57 7872 40 7837 40C7781 40 7752 80 7752 159C7752 267 7787 371 7836 409C7857 425 7881 433 7912 433C7957 433 7993 414 7993 390ZM8091 388L8098 368L8130 389C8167 412 8170 414 8177 414C8187 414 8195 404 8195 391C8195 384 8191 361 8187 347L8121 107C8113 76 8108 49 8108 30C8108 6 8119 -9 8138 -9C8164 -9 8200 12 8298 85L8288 103L8262 86C8233 67 8210 56 8201 56C8194 56 8188 66 8188 76C8188 86 8190 95 8195 116L8272 420C8276 437 8278 448 8278 456C8278 473 8269 482 8253 482C8231 482 8194 461 8119 408ZM8285 712C8256 712 8227 679 8227 645C8227 620 8242 604 8266 604C8297 604 8321 633 8321 671C8321 695 8306 712 8285 712ZM8351 152C8351 46 8396 -11 8479 -11C8534 -11 8594 15 8639 57C8701 116 8745 230 8745 331C8745 425 8695 482 8612 482C8508 482 8351 382 8351 152ZM8575 444C8636 444 8669 399 8669 315C8669 219 8638 113 8594 60C8576 39 8550 27 8519 27C8461 27 8427 72 8427 151C8427 264 8466 387 8515 427C8528 438 8551 444 8575 444ZM8801 388L8808 368L8840 389C8877 412 8880 414 8887 414C8898 414 8905 404 8905 389C8905 338 8864 145 8823 2L8830 -9C8855 -2 8878 4 8900 8C8919 134 8940 199 8986 268C9040 352 9115 414 9160 414C9171 414 9177 405 9177 390C9177 372 9174 351 9166 319L9114 107C9105 70 9101 47 9101 31C9101 6 9112 -9 9131 -9C9157 -9 9193 12 9291 85L9281 103L9255 86C9226 67 9204 56 9194 56C9187 56 9181 65 9181 76C9181 81 9182 92 9183 96L9249 372C9256 401 9260 429 9260 446C9260 469 9249 482 9229 482C9187 482 9118 444 9059 389C9021 354 8993 320 8941 247L8979 408C8983 426 8985 438 8985 449C8985 470 8977 482 8962 482C8941 482 8902 460 8829 408Z" stroke="rgb(0,0,0)" stroke-opacity="1" stroke-width="8" fill="rgb(0,0,0)" fill-opacity="1"></path></g></g></g></g></svg>