<svg xmlns="http://www.w3.org/2000/svg" xmlns:xlink="http://www.w3.org/1999/xlink" width="172.7050018310547" height="454.1650085449219" style="width:172.7050018310547px;height:454.1650085449219px;font-family:Asana-Math, Asana;background:#FFF;"><g><g><g><g transform="matrix(1,0,0,1,2,18.039993286132812)"><path transform="matrix(0.017,0,0,-0.017,0,0)" d="M316 -3C388 -3 437 8 489 34C645 114 741 265 741 431C741 529 711 599 650 642C604 675 519 693 424 692L220 689L210 689C201 689 198 689 97 692L94 664L147 662C171 661 182 653 182 635C182 621 178 589 173 559L86 55C81 31 56 29 33 23L28 -3L121 0L176 0C211 0 282 -3 316 -3ZM384 655C566 655 649 579 649 415C649 225 549 41 329 41C285 41 236 46 168 56C168 68 169 75 172 93L268 650C291 650 349 655 384 655ZM1105 111L1081 94C1028 56 980 36 944 36C897 36 868 73 868 133C868 158 871 185 876 214C893 218 1002 248 1027 259C1112 296 1151 342 1151 404C1151 451 1117 482 1067 482C999 496 889 423 852 349C822 299 792 180 792 113C792 35 836 -11 908 -11C965 -11 1021 17 1113 92ZM890 274C907 343 927 386 956 412C974 428 1005 440 1029 440C1058 440 1077 420 1077 388C1077 344 1042 297 990 272C962 258 926 247 881 237ZM1510 437L1494 437L1515 549C1531 635 1559 673 1605 673C1635 673 1662 658 1677 634L1687 638C1692 654 1702 685 1710 705L1715 720C1699 727 1668 733 1645 733C1634 733 1618 730 1610 726C1586 715 1504 654 1481 630C1459 608 1447 578 1436 521L1421 442C1380 422 1360 414 1335 405L1330 383L1411 383L1402 327C1372 132 1335 -54 1313 -123C1295 -182 1265 -213 1229 -213C1206 -213 1195 -206 1177 -184L1163 -188C1159 -211 1145 -259 1140 -268C1149 -273 1164 -276 1175 -276C1216 -276 1270 -245 1309 -198C1380 -114 1400 -18 1484 383L1588 383C1592 402 1599 425 1605 439L1601 446C1572 439 1573 437 1510 437ZM1749 388L1756 368L1788 389C1825 412 1828 414 1835 414C1845 414 1853 404 1853 391C1853 384 1849 361 1845 347L1779 107C1771 76 1766 49 1766 30C1766 6 1777 -9 1796 -9C1822 -9 1858 12 1956 85L1946 103L1920 86C1891 67 1868 56 1859 56C1852 56 1846 66 1846 76C1846 86 1848 95 1853 116L1930 420C1934 437 1936 448 1936 456C1936 473 1927 482 1911 482C1889 482 1852 461 1777 408ZM1943 712C1914 712 1885 679 1885 645C1885 620 1900 604 1924 604C1955 604 1979 633 1979 671C1979 695 1964 712 1943 712ZM2016 388L2023 368L2055 389C2092 412 2095 414 2102 414C2113 414 2120 404 2120 389C2120 338 2079 145 2038 2L2045 -9C2070 -2 2093 4 2115 8C2134 134 2155 199 2201 268C2255 352 2330 414 2375 414C2386 414 2392 405 2392 390C2392 372 2389 351 2381 319L2329 107C2320 70 2316 47 2316 31C2316 6 2327 -9 2346 -9C2372 -9 2408 12 2506 85L2496 103L2470 86C2441 67 2419 56 2409 56C2402 56 2396 65 2396 76C2396 81 2397 92 2398 96L2464 372C2471 401 2475 429 2475 446C2475 469 2464 482 2444 482C2402 482 2333 444 2274 389C2236 354 2208 320 2156 247L2194 408C2198 426 2200 438 2200 449C2200 470 2192 482 2177 482C2156 482 2117 460 2044 408ZM2581 388L2588 368L2620 389C2657 412 2660 414 2667 414C2677 414 2685 404 2685 391C2685 384 2681 361 2677 347L2611 107C2603 76 2598 49 2598 30C2598 6 2609 -9 2628 -9C2654 -9 2690 12 2788 85L2778 103L2752 86C2723 67 2700 56 2691 56C2684 56 2678 66 2678 76C2678 86 2680 95 2685 116L2762 420C2766 437 2768 448 2768 456C2768 473 2759 482 2743 482C2721 482 2684 461 2609 408ZM2775 712C2746 712 2717 679 2717 645C2717 620 2732 604 2756 604C2787 604 2811 633 2811 671C2811 695 2796 712 2775 712ZM3166 330L3189 330C3197 395 3204 432 3213 458C3189 473 3154 482 3117 482C3072 483 2999 463 2942 400C2888 352 2849 241 2849 136C2849 40 2891 -11 2971 -11C3025 -11 3073 9 3128 54L3178 95L3170 115L3155 105C3083 57 3045 40 3010 40C2954 40 2925 80 2925 159C2925 267 2960 371 3009 409C3030 425 3054 433 3085 433C3130 433 3166 414 3166 390ZM3264 388L3271 368L3303 389C3340 412 3343 414 3350 414C3360 414 3368 404 3368 391C3368 384 3364 361 3360 347L3294 107C3286 76 3281 49 3281 30C3281 6 3292 -9 3311 -9C3337 -9 3373 12 3471 85L3461 103L3435 86C3406 67 3383 56 3374 56C3367 56 3361 66 3361 76C3361 86 3363 95 3368 116L3445 420C3449 437 3451 448 3451 456C3451 473 3442 482 3426 482C3404 482 3367 461 3292 408ZM3458 712C3429 712 3400 679 3400 645C3400 620 3415 604 3439 604C3470 604 3494 633 3494 671C3494 695 3479 712 3458 712ZM3524 152C3524 46 3569 -11 3652 -11C3707 -11 3767 15 3812 57C3874 116 3918 230 3918 331C3918 425 3868 482 3785 482C3681 482 3524 382 3524 152ZM3748 444C3809 444 3842 399 3842 315C3842 219 3811 113 3767 60C3749 39 3723 27 3692 27C3634 27 3600 72 3600 151C3600 264 3639 387 3688 427C3701 438 3724 444 3748 444ZM3974 388L3981 368L4013 389C4050 412 4053 414 4060 414C4071 414 4078 404 4078 389C4078 338 4037 145 3996 2L4003 -9C4028 -2 4051 4 4073 8C4092 134 4113 199 4159 268C4213 352 4288 414 4333 414C4344 414 4350 405 4350 390C4350 372 4347 351 4339 319L4287 107C4278 70 4274 47 4274 31C4274 6 4285 -9 4304 -9C4330 -9 4366 12 4464 85L4454 103L4428 86C4399 67 4377 56 4367 56C4360 56 4354 65 4354 76C4354 81 4355 92 4356 96L4422 372C4429 401 4433 429 4433 446C4433 469 4422 482 4402 482C4360 482 4291 444 4232 389C4194 354 4166 320 4114 247L4152 408C4156 426 4158 438 4158 449C4158 470 4150 482 4135 482C4114 482 4075 460 4002 408Z" stroke="rgb(0,0,0)" stroke-opacity="1" stroke-width="8" fill="rgb(0,0,0)" fill-opacity="1"></path></g></g><g><g transform="matrix(1,0,0,1,82.79000854492188,19)"><path transform="matrix(0.017,0,0,-0.017,0,0)" d="M146 266C146 526 243 632 301 700L282 726C225 675 60 542 60 266C60 159 85 58 133 -32C168 -99 200 -138 282 -215L301 -194C255 -137 146 -15 146 266Z" stroke="rgb(0,0,0)" stroke-opacity="1" stroke-width="8" fill="rgb(0,0,0)" fill-opacity="1"></path></g></g><g><g transform="matrix(1,0,0,1,88.44497680664062,18.039993286132812)"><path transform="matrix(0.017,0,0,-0.017,0,0)" d="M105 664L160 662C184 661 195 653 195 635L112 125C95 34 94 31 54 28L13 25L9 -3L51 -2C92 -1 123 0 141 0C158 0 187 -1 227 -2L280 -3L283 25L218 28C192 29 182 37 182 58C182 67 183 74 186 93L284 648C320 654 336 656 355 656C457 656 506 612 506 519C506 411 434 323 346 323C324 323 304 328 267 342L269 311C306 293 326 288 355 288C484 288 594 405 594 541C594 642 531 695 412 692L108 692ZM627 152C627 46 672 -11 755 -11C810 -11 870 15 915 57C977 116 1021 230 1021 331C1021 425 971 482 888 482C784 482 627 382 627 152ZM851 444C912 444 945 399 945 315C945 219 914 113 870 60C852 39 826 27 795 27C737 27 703 72 703 151C703 264 742 387 791 427C804 438 827 444 851 444ZM1304 722L1292 733C1240 707 1204 698 1132 691L1128 670L1176 670C1200 670 1210 663 1210 648C1210 645 1210 640 1207 622C1196 567 1123 182 1108 132C1095 82 1089 52 1089 31C1089 6 1100 -9 1119 -9C1145 -9 1181 12 1279 85L1269 103L1243 86C1214 67 1192 56 1182 56C1175 56 1169 66 1169 76C1169 82 1170 89 1173 104ZM1364 388L1371 368L1403 389C1440 412 1443 414 1450 414C1460 414 1468 404 1468 391C1468 384 1464 361 1460 347L1394 107C1386 76 1381 49 1381 30C1381 6 1392 -9 1411 -9C1437 -9 1473 12 1571 85L1561 103L1535 86C1506 67 1483 56 1474 56C1467 56 1461 66 1461 76C1461 86 1463 95 1468 116L1545 420C1549 437 1551 448 1551 456C1551 473 1542 482 1526 482C1504 482 1467 461 1392 408ZM1558 712C1529 712 1500 679 1500 645C1500 620 1515 604 1539 604C1570 604 1594 633 1594 671C1594 695 1579 712 1558 712ZM1631 388L1638 368L1670 389C1707 412 1710 414 1717 414C1728 414 1735 404 1735 389C1735 338 1694 145 1653 2L1660 -9C1685 -2 1708 4 1730 8C1749 134 1770 199 1816 268C1870 352 1945 414 1990 414C2001 414 2007 405 2007 390C2007 372 2004 351 1996 319L1944 107C1935 70 1931 47 1931 31C1931 6 1942 -9 1961 -9C1987 -9 2023 12 2121 85L2111 103L2085 86C2056 67 2034 56 2024 56C2017 56 2011 65 2011 76C2011 81 2012 92 2013 96L2079 372C2086 401 2090 429 2090 446C2090 469 2079 482 2059 482C2017 482 1948 444 1889 389C1851 354 1823 320 1771 247L1809 408C1813 426 1815 438 1815 449C1815 470 1807 482 1792 482C1771 482 1732 460 1659 408ZM2179 152C2179 46 2224 -11 2307 -11C2362 -11 2422 15 2467 57C2529 116 2573 230 2573 331C2573 425 2523 482 2440 482C2336 482 2179 382 2179 152ZM2403 444C2464 444 2497 399 2497 315C2497 219 2466 113 2422 60C2404 39 2378 27 2347 27C2289 27 2255 72 2255 151C2255 264 2294 387 2343 427C2356 438 2379 444 2403 444ZM3335 103L3309 86C3280 67 3258 56 3248 56C3241 56 3235 65 3235 76C3235 86 3237 95 3242 116L3317 413C3321 430 3324 446 3324 454C3324 471 3314 482 3298 482C3269 482 3231 464 3170 421C3107 376 3072 341 3023 272L3053 409C3057 429 3060 444 3060 451C3060 470 3050 482 3034 482C3004 482 2958 460 2903 418C2859 384 2839 363 2774 275L2807 408C2811 424 2813 439 2813 451C2813 470 2804 482 2790 482C2769 482 2731 461 2657 408L2629 388L2636 368C2673 391 2708 414 2715 414C2726 414 2733 404 2733 389C2733 338 2692 145 2651 2L2654 -9L2722 6L2744 108C2768 219 2795 278 2850 338C2892 384 2937 414 2965 414C2972 414 2976 406 2976 393C2976 358 2954 244 2913 69L2897 2L2902 -9L2971 6L2992 113C3008 194 3042 269 3086 318C3141 379 3191 414 3223 414C3231 414 3236 405 3236 389C3236 365 3233 351 3211 264C3171 105 3155 84 3155 31C3155 6 3166 -9 3185 -9C3211 -9 3247 12 3345 85ZM3416 388L3423 368L3455 389C3492 412 3495 414 3502 414C3512 414 3520 404 3520 391C3520 384 3516 361 3512 347L3446 107C3438 76 3433 49 3433 30C3433 6 3444 -9 3463 -9C3489 -9 3525 12 3623 85L3613 103L3587 86C3558 67 3535 56 3526 56C3519 56 3513 66 3513 76C3513 86 3515 95 3520 116L3597 420C3601 437 3603 448 3603 456C3603 473 3594 482 3578 482C3556 482 3519 461 3444 408ZM3610 712C3581 712 3552 679 3552 645C3552 620 3567 604 3591 604C3622 604 3646 633 3646 671C3646 695 3631 712 3610 712ZM4001 330L4024 330C4032 395 4039 432 4048 458C4024 473 3989 482 3952 482C3907 483 3834 463 3777 400C3723 352 3684 241 3684 136C3684 40 3726 -11 3806 -11C3860 -11 3908 9 3963 54L4013 95L4005 115L3990 105C3918 57 3880 40 3845 40C3789 40 3760 80 3760 159C3760 267 3795 371 3844 409C3865 425 3889 433 3920 433C3965 433 4001 414 4001 390ZM4336 204L4307 77C4303 60 4301 42 4301 26C4301 4 4310 -9 4325 -9C4348 -9 4389 17 4471 85L4464 106C4440 86 4411 59 4389 59C4380 59 4374 68 4374 82C4374 87 4374 90 4375 93L4467 472L4457 481L4424 463C4383 478 4366 482 4339 482C4311 482 4291 477 4264 464C4202 433 4169 403 4144 354C4100 265 4069 145 4069 67C4069 23 4084 -11 4103 -11C4140 -11 4220 41 4336 204ZM4384 414C4362 305 4343 253 4309 201C4252 117 4191 59 4159 59C4147 59 4141 72 4141 99C4141 163 4169 280 4204 360C4228 415 4251 433 4299 433C4322 433 4340 429 4384 414Z" stroke="rgb(0,0,0)" stroke-opacity="1" stroke-width="8" fill="rgb(0,0,0)" fill-opacity="1"></path></g></g><g><g transform="matrix(1,0,0,1,165.05001831054688,19)"><path transform="matrix(0.017,0,0,-0.017,0,0)" d="M51 726L32 700C87 636 187 526 187 266C187 -10 83 -131 32 -194L51 -215C104 -165 273 -23 273 265C273 542 108 675 51 726Z" stroke="rgb(0,0,0)" stroke-opacity="1" stroke-width="8" fill="rgb(0,0,0)" fill-opacity="1"></path></g></g></g><g><g><g transform="matrix(1,0,0,1,2,38.964996337890625)"><path transform="matrix(0.017,0,0,-0.017,0,0)" d="M345 437L329 437L350 549C366 635 394 673 440 673C470 673 497 658 512 634L522 638C527 654 537 685 545 705L550 720C534 727 503 733 480 733C469 733 453 730 445 726C421 715 339 654 316 630C294 608 282 578 271 521L256 442C215 422 195 414 170 405L165 383L246 383L237 327C207 132 170 -54 148 -123C130 -182 100 -213 64 -213C41 -213 30 -206 12 -184L-2 -188C-6 -211 -20 -259 -25 -268C-16 -273 -1 -276 10 -276C51 -276 105 -245 144 -198C215 -114 235 -18 319 383L423 383C427 402 434 425 440 439L436 446C407 439 408 437 345 437Z" stroke="rgb(0,0,0)" stroke-opacity="1" stroke-width="8" fill="rgb(0,0,0)" fill-opacity="1"></path></g></g><g><g transform="matrix(1,0,0,1,11.360015869140625,39.92499542236328)"><path transform="matrix(0.017,0,0,-0.017,0,0)" d="M146 266C146 526 243 632 301 700L282 726C225 675 60 542 60 266C60 159 85 58 133 -32C168 -99 200 -138 282 -215L301 -194C255 -137 146 -15 146 266Z" stroke="rgb(0,0,0)" stroke-opacity="1" stroke-width="8" fill="rgb(0,0,0)" fill-opacity="1"></path></g></g><g><g transform="matrix(1,0,0,1,17.0150146484375,38.964996337890625)"><path transform="matrix(0.017,0,0,-0.017,0,0)" d="M9 1C24 -7 40 -11 52 -11C85 -11 124 18 155 65L231 182L242 113C255 28 278 -11 314 -11C336 -11 368 6 400 35L449 79L440 98C404 68 379 53 363 53C348 53 335 63 325 83C316 102 305 139 300 168L282 269L317 318C364 383 391 406 422 406C438 406 450 398 455 383L469 387L484 472C472 479 463 482 454 482C414 482 374 446 312 354L275 299L269 347C257 446 230 482 171 482C145 482 123 474 114 461L56 378L73 368C103 402 123 416 142 416C175 416 197 375 214 277L225 215L185 153C142 86 108 54 80 54C65 54 54 58 52 63L41 91L21 88C21 53 13 27 9 1Z" stroke="rgb(0,0,0)" stroke-opacity="1" stroke-width="8" fill="rgb(0,0,0)" fill-opacity="1"></path></g></g><g><g transform="matrix(1,0,0,1,25.5050048828125,39.92499542236328)"><path transform="matrix(0.017,0,0,-0.017,0,0)" d="M51 726L32 700C87 636 187 526 187 266C187 -10 83 -131 32 -194L51 -215C104 -165 273 -23 273 265C273 542 108 675 51 726Z" stroke="rgb(0,0,0)" stroke-opacity="1" stroke-width="8" fill="rgb(0,0,0)" fill-opacity="1"></path></g></g><g><g transform="matrix(1,0,0,1,36.260009765625,38.964996337890625)"><path transform="matrix(0.017,0,0,-0.017,0,0)" d="M604 347L604 406L65 406L65 347ZM604 134L604 193L65 193L65 134Z" stroke="rgb(0,0,0)" stroke-opacity="1" stroke-width="8" fill="rgb(0,0,0)" fill-opacity="1"></path></g></g><g><g transform="matrix(1,0,0,1,52.714996337890625,38.964996337890625)"><path transform="matrix(0.017,0,0,-0.017,0,0)" d="M271 204L242 77C238 60 236 42 236 26C236 4 245 -9 260 -9C283 -9 324 17 406 85L399 106C375 86 346 59 324 59C315 59 309 68 309 82C309 87 309 90 310 93L402 472L392 481L359 463C318 478 301 482 274 482C246 482 226 477 199 464C137 433 104 403 79 354C35 265 4 145 4 67C4 23 19 -11 38 -11C75 -11 155 41 271 204ZM319 414C297 305 278 253 244 201C187 117 126 59 94 59C82 59 76 72 76 99C76 163 104 280 139 360C163 415 186 433 234 433C257 433 275 429 319 414ZM452 1C467 -7 483 -11 495 -11C528 -11 567 18 598 65L674 182L685 113C698 28 721 -11 757 -11C779 -11 811 6 843 35L892 79L883 98C847 68 822 53 806 53C791 53 778 63 768 83C759 102 748 139 743 168L725 269L760 318C807 383 834 406 865 406C881 406 893 398 898 383L912 387L927 472C915 479 906 482 897 482C857 482 817 446 755 354L718 299L712 347C700 446 673 482 614 482C588 482 566 474 557 461L499 378L516 368C546 402 566 416 585 416C618 416 640 375 657 277L668 215L628 153C585 86 551 54 523 54C508 54 497 58 495 63L484 91L464 88C464 53 456 27 452 1Z" stroke="rgb(0,0,0)" stroke-opacity="1" stroke-width="8" fill="rgb(0,0,0)" fill-opacity="1"></path></g></g><g><g><g><g><g transform="matrix(1,0,0,1,69.70999145507812,34.05999603271484)"><path transform="matrix(0.0119,0,0,-0.0119,0,0)" d="M16 23L16 -3C203 -3 203 0 239 0C275 0 275 -3 468 -3L468 82C353 77 307 81 122 77L304 270C401 373 431 428 431 503C431 618 353 689 226 689C154 689 105 669 56 619L39 483L68 483L81 529C97 587 133 612 200 612C286 612 341 558 341 473C341 398 299 324 186 204Z" stroke="rgb(0,0,0)" stroke-opacity="1" stroke-width="8" fill="rgb(0,0,0)" fill-opacity="1"></path></g></g></g></g></g><g><g transform="matrix(1,0,0,1,80.06002807617188,38.964996337890625)"><path transform="matrix(0.017,0,0,-0.017,0,0)" d="M604 241L604 300L364 300L364 538L305 538L305 300L65 300L65 241L305 241L305 0L364 0L364 241Z" stroke="rgb(0,0,0)" stroke-opacity="1" stroke-width="8" fill="rgb(0,0,0)" fill-opacity="1"></path></g></g><g><g transform="matrix(1,0,0,1,94.80502319335938,38.964996337890625)"><path transform="matrix(0.017,0,0,-0.017,0,0)" d="M235 722L223 733C171 707 135 698 63 691L59 670L107 670C131 670 141 663 141 646C141 639 140 628 139 622L38 71C37 68 37 64 37 61C37 22 85 -11 140 -11C177 -11 228 8 271 39C367 107 433 244 433 376C433 414 424 453 412 468C405 477 392 482 377 482C353 482 323 474 295 460C244 433 211 403 149 324ZM322 424C348 424 361 401 361 352C361 288 340 202 310 137C277 68 237 36 183 36C137 36 112 59 112 101C112 135 127 276 208 361C241 395 293 424 322 424ZM471 1C486 -7 502 -11 514 -11C547 -11 586 18 617 65L693 182L704 113C717 28 740 -11 776 -11C798 -11 830 6 862 35L911 79L902 98C866 68 841 53 825 53C810 53 797 63 787 83C778 102 767 139 762 168L744 269L779 318C826 383 853 406 884 406C900 406 912 398 917 383L931 387L946 472C934 479 925 482 916 482C876 482 836 446 774 354L737 299L731 347C719 446 692 482 633 482C607 482 585 474 576 461L518 378L535 368C565 402 585 416 604 416C637 416 659 375 676 277L687 215L647 153C604 86 570 54 542 54C527 54 516 58 514 63L503 91L483 88C483 53 475 27 471 1Z" stroke="rgb(0,0,0)" stroke-opacity="1" stroke-width="8" fill="rgb(0,0,0)" fill-opacity="1"></path></g></g><g><g transform="matrix(1,0,0,1,114.52999877929688,38.964996337890625)"><path transform="matrix(0.017,0,0,-0.017,0,0)" d="M604 241L604 300L364 300L364 538L305 538L305 300L65 300L65 241L305 241L305 0L364 0L364 241Z" stroke="rgb(0,0,0)" stroke-opacity="1" stroke-width="8" fill="rgb(0,0,0)" fill-opacity="1"></path></g></g><g><g transform="matrix(1,0,0,1,129.27499389648438,38.964996337890625)"><path transform="matrix(0.017,0,0,-0.017,0,0)" d="M342 330L365 330C373 395 380 432 389 458C365 473 330 482 293 482C248 483 175 463 118 400C64 352 25 241 25 136C25 40 67 -11 147 -11C201 -11 249 9 304 54L354 95L346 115L331 105C259 57 221 40 186 40C130 40 101 80 101 159C101 267 136 371 185 409C206 425 230 433 261 433C306 433 342 414 342 390Z" stroke="rgb(0,0,0)" stroke-opacity="1" stroke-width="8" fill="rgb(0,0,0)" fill-opacity="1"></path></g></g></g><g><g><g transform="matrix(1,0,0,1,2,59.125)"><path transform="matrix(0.017,0,0,-0.017,0,0)" d="M342 330L365 330C373 395 380 432 389 458C365 473 330 482 293 482C248 483 175 463 118 400C64 352 25 241 25 136C25 40 67 -11 147 -11C201 -11 249 9 304 54L354 95L346 115L331 105C259 57 221 40 186 40C130 40 101 80 101 159C101 267 136 371 185 409C206 425 230 433 261 433C306 433 342 414 342 390Z" stroke="rgb(0,0,0)" stroke-opacity="1" stroke-width="8" fill="rgb(0,0,0)" fill-opacity="1"></path></g></g><g><g transform="matrix(1,0,0,1,12.290008544921875,59.125)"><path transform="matrix(0.017,0,0,-0.017,0,0)" d="M123 111C93 111 66 83 66 53C66 23 93 -5 122 -5C154 -5 182 22 182 53C182 83 154 111 123 111ZM123 456C93 456 66 428 66 398C66 368 93 340 122 340C154 340 182 367 182 397C182 428 154 456 123 456Z" stroke="rgb(0,0,0)" stroke-opacity="1" stroke-width="8" fill="rgb(0,0,0)" fill-opacity="1"></path></g></g><g><g transform="matrix(1,0,0,1,19.92498779296875,59.125)"><path transform="matrix(0.017,0,0,-0.017,0,0)" d="M342 330L365 330C373 395 380 432 389 458C365 473 330 482 293 482C248 483 175 463 118 400C64 352 25 241 25 136C25 40 67 -11 147 -11C201 -11 249 9 304 54L354 95L346 115L331 105C259 57 221 40 186 40C130 40 101 80 101 159C101 267 136 371 185 409C206 425 230 433 261 433C306 433 342 414 342 390ZM423 152C423 46 468 -11 551 -11C606 -11 666 15 711 57C773 116 817 230 817 331C817 425 767 482 684 482C580 482 423 382 423 152ZM647 444C708 444 741 399 741 315C741 219 710 113 666 60C648 39 622 27 591 27C533 27 499 72 499 151C499 264 538 387 587 427C600 438 623 444 647 444ZM1217 365C1220 403 1225 435 1233 476C1222 481 1218 482 1213 482C1182 482 1151 458 1115 407C1076 351 1037 291 1021 256L1053 408C1057 425 1059 438 1059 450C1059 470 1051 482 1036 482C1015 482 977 461 903 408L875 388L882 368L914 389C942 407 953 412 962 412C972 412 979 403 979 390C979 332 936 126 896 -2L906 -9C921 -4 937 -1 960 4L973 6L999 126C1017 209 1040 262 1084 319C1118 363 1145 384 1167 384C1182 384 1192 379 1203 365ZM1362 390L1306 107C1305 99 1293 61 1293 31C1293 6 1304 -9 1323 -9C1358 -9 1393 11 1471 74L1502 99L1492 117L1447 86C1418 66 1398 56 1387 56C1378 56 1373 64 1373 76C1373 102 1387 183 1416 328L1429 390L1536 390L1547 440C1509 436 1475 434 1437 434C1453 528 1464 577 1482 631L1471 646C1451 634 1424 622 1393 610L1368 440C1324 419 1298 408 1280 403L1278 390ZM1897 111L1873 94C1820 56 1772 36 1736 36C1689 36 1660 73 1660 133C1660 158 1663 185 1668 214C1685 218 1794 248 1819 259C1904 296 1943 342 1943 404C1943 451 1909 482 1859 482C1791 496 1681 423 1644 349C1614 299 1584 180 1584 113C1584 35 1628 -11 1700 -11C1757 -11 1813 17 1905 92ZM1682 274C1699 343 1719 386 1748 412C1766 428 1797 440 1821 440C1850 440 1869 420 1869 388C1869 344 1834 297 1782 272C1754 258 1718 247 1673 237ZM2534 111L2510 94C2457 56 2409 36 2373 36C2326 36 2297 73 2297 133C2297 158 2300 185 2305 214C2322 218 2431 248 2456 259C2541 296 2580 342 2580 404C2580 451 2546 482 2496 482C2428 496 2318 423 2281 349C2251 299 2221 180 2221 113C2221 35 2265 -11 2337 -11C2394 -11 2450 17 2542 92ZM2319 274C2336 343 2356 386 2385 412C2403 428 2434 440 2458 440C2487 440 2506 420 2506 388C2506 344 2471 297 2419 272C2391 258 2355 247 2310 237ZM2618 388L2625 368L2657 389C2694 412 2697 414 2704 414C2715 414 2722 404 2722 389C2722 338 2681 145 2640 2L2647 -9C2672 -2 2695 4 2717 8C2736 134 2757 199 2803 268C2857 352 2932 414 2977 414C2988 414 2994 405 2994 390C2994 372 2991 351 2983 319L2931 107C2922 70 2918 47 2918 31C2918 6 2929 -9 2948 -9C2974 -9 3010 12 3108 85L3098 103L3072 86C3043 67 3021 56 3011 56C3004 56 2998 65 2998 76C2998 81 2999 92 3000 96L3066 372C3073 401 3077 429 3077 446C3077 469 3066 482 3046 482C3004 482 2935 444 2876 389C2838 354 2810 320 2758 247L2796 408C2800 426 2802 438 2802 449C2802 470 2794 482 2779 482C2758 482 2719 460 2646 408ZM3391 -180C3390 -187 3390 -193 3390 -198C3390 -241 3427 -276 3472 -276C3578 -276 3688 -152 3747 33L3888 473L3877 482C3848 471 3825 465 3803 463L3768 331C3756 284 3721 211 3688 162C3653 111 3604 67 3582 67C3570 67 3561 90 3562 115L3578 322C3580 353 3582 391 3582 419C3582 464 3575 482 3558 482C3545 482 3531 475 3483 442L3401 386L3412 368L3462 398C3467 401 3478 410 3487 410C3501 410 3509 391 3509 358C3509 357 3509 351 3508 343L3491 100L3490 60C3490 18 3508 -11 3533 -11C3570 -11 3654 74 3729 187L3680 16C3629 -161 3579 -234 3509 -234C3474 -234 3447 -207 3447 -172C3447 -167 3448 -159 3449 -150L3439 -146Z" stroke="rgb(0,0,0)" stroke-opacity="1" stroke-width="8" fill="rgb(0,0,0)" fill-opacity="1"></path></g></g></g><g></g><g><g><g transform="matrix(1,0,0,1,2,99.44500732421875)"><path transform="matrix(0.017,0,0,-0.017,0,0)" d="M316 -3C388 -3 437 8 489 34C645 114 741 265 741 431C741 529 711 599 650 642C604 675 519 693 424 692L220 689L210 689C201 689 198 689 97 692L94 664L147 662C171 661 182 653 182 635C182 621 178 589 173 559L86 55C81 31 56 29 33 23L28 -3L121 0L176 0C211 0 282 -3 316 -3ZM384 655C566 655 649 579 649 415C649 225 549 41 329 41C285 41 236 46 168 56C168 68 169 75 172 93L268 650C291 650 349 655 384 655ZM811 388L818 368L850 389C887 412 890 414 897 414C907 414 915 404 915 391C915 384 911 361 907 347L841 107C833 76 828 49 828 30C828 6 839 -9 858 -9C884 -9 920 12 1018 85L1008 103L982 86C953 67 930 56 921 56C914 56 908 66 908 76C908 86 910 95 915 116L992 420C996 437 998 448 998 456C998 473 989 482 973 482C951 482 914 461 839 408ZM1005 712C976 712 947 679 947 645C947 620 962 604 986 604C1017 604 1041 633 1041 671C1041 695 1026 712 1005 712ZM1085 148C1080 97 1074 62 1063 16C1101 -2 1135 -11 1170 -11C1219 -11 1265 7 1316 47C1367 87 1388 124 1388 174C1388 228 1356 257 1282 271L1239 279C1179 290 1160 307 1160 348C1160 401 1205 442 1262 442C1303 442 1341 424 1357 397L1357 342L1380 342C1384 377 1388 404 1399 455C1360 474 1332 482 1299 482C1247 482 1186 452 1138 404C1112 377 1101 352 1101 316C1101 260 1132 228 1198 215L1261 203C1305 195 1321 177 1321 138C1321 73 1275 29 1204 29C1169 29 1138 40 1110 64L1110 148ZM1784 330L1807 330C1815 395 1822 432 1831 458C1807 473 1772 482 1735 482C1690 483 1617 463 1560 400C1506 352 1467 241 1467 136C1467 40 1509 -11 1589 -11C1643 -11 1691 9 1746 54L1796 95L1788 115L1773 105C1701 57 1663 40 1628 40C1572 40 1543 80 1543 159C1543 267 1578 371 1627 409C1648 425 1672 433 1703 433C1748 433 1784 414 1784 390ZM2216 365C2219 403 2224 435 2232 476C2221 481 2217 482 2212 482C2181 482 2150 458 2114 407C2075 351 2036 291 2020 256L2052 408C2056 425 2058 438 2058 450C2058 470 2050 482 2035 482C2014 482 1976 461 1902 408L1874 388L1881 368L1913 389C1941 407 1952 412 1961 412C1971 412 1978 403 1978 390C1978 332 1935 126 1895 -2L1905 -9C1920 -4 1936 -1 1959 4L1972 6L1998 126C2016 209 2039 262 2083 319C2117 363 2144 384 2166 384C2181 384 2191 379 2202 365ZM2270 388L2277 368L2309 389C2346 412 2349 414 2356 414C2366 414 2374 404 2374 391C2374 384 2370 361 2366 347L2300 107C2292 76 2287 49 2287 30C2287 6 2298 -9 2317 -9C2343 -9 2379 12 2477 85L2467 103L2441 86C2412 67 2389 56 2380 56C2373 56 2367 66 2367 76C2367 86 2369 95 2374 116L2451 420C2455 437 2457 448 2457 456C2457 473 2448 482 2432 482C2410 482 2373 461 2298 408ZM2464 712C2435 712 2406 679 2406 645C2406 620 2421 604 2445 604C2476 604 2500 633 2500 671C2500 695 2485 712 2464 712ZM3243 103L3217 86C3188 67 3166 56 3156 56C3149 56 3143 65 3143 76C3143 86 3145 95 3150 116L3225 413C3229 430 3232 446 3232 454C3232 471 3222 482 3206 482C3177 482 3139 464 3078 421C3015 376 2980 341 2931 272L2961 409C2965 429 2968 444 2968 451C2968 470 2958 482 2942 482C2912 482 2866 460 2811 418C2767 384 2747 363 2682 275L2715 408C2719 424 2721 439 2721 451C2721 470 2712 482 2698 482C2677 482 2639 461 2565 408L2537 388L2544 368C2581 391 2616 414 2623 414C2634 414 2641 404 2641 389C2641 338 2600 145 2559 2L2562 -9L2630 6L2652 108C2676 219 2703 278 2758 338C2800 384 2845 414 2873 414C2880 414 2884 406 2884 393C2884 358 2862 244 2821 69L2805 2L2810 -9L2879 6L2900 113C2916 194 2950 269 2994 318C3049 379 3099 414 3131 414C3139 414 3144 405 3144 389C3144 365 3141 351 3119 264C3079 105 3063 84 3063 31C3063 6 3074 -9 3093 -9C3119 -9 3155 12 3253 85ZM3324 388L3331 368L3363 389C3400 412 3403 414 3410 414C3420 414 3428 404 3428 391C3428 384 3424 361 3420 347L3354 107C3346 76 3341 49 3341 30C3341 6 3352 -9 3371 -9C3397 -9 3433 12 3531 85L3521 103L3495 86C3466 67 3443 56 3434 56C3427 56 3421 66 3421 76C3421 86 3423 95 3428 116L3505 420C3509 437 3511 448 3511 456C3511 473 3502 482 3486 482C3464 482 3427 461 3352 408ZM3518 712C3489 712 3460 679 3460 645C3460 620 3475 604 3499 604C3530 604 3554 633 3554 671C3554 695 3539 712 3518 712ZM3591 388L3598 368L3630 389C3667 412 3670 414 3677 414C3688 414 3695 404 3695 389C3695 338 3654 145 3613 2L3620 -9C3645 -2 3668 4 3690 8C3709 134 3730 199 3776 268C3830 352 3905 414 3950 414C3961 414 3967 405 3967 390C3967 372 3964 351 3956 319L3904 107C3895 70 3891 47 3891 31C3891 6 3902 -9 3921 -9C3947 -9 3983 12 4081 85L4071 103L4045 86C4016 67 3994 56 3984 56C3977 56 3971 65 3971 76C3971 81 3972 92 3973 96L4039 372C4046 401 4050 429 4050 446C4050 469 4039 482 4019 482C3977 482 3908 444 3849 389C3811 354 3783 320 3731 247L3769 408C3773 426 3775 438 3775 449C3775 470 3767 482 3752 482C3731 482 3692 460 3619 408ZM4393 204L4364 77C4360 60 4358 42 4358 26C4358 4 4367 -9 4382 -9C4405 -9 4446 17 4528 85L4521 106C4497 86 4468 59 4446 59C4437 59 4431 68 4431 82C4431 87 4431 90 4432 93L4524 472L4514 481L4481 463C4440 478 4423 482 4396 482C4368 482 4348 477 4321 464C4259 433 4226 403 4201 354C4157 265 4126 145 4126 67C4126 23 4141 -11 4160 -11C4197 -11 4277 41 4393 204ZM4441 414C4419 305 4400 253 4366 201C4309 117 4248 59 4216 59C4204 59 4198 72 4198 99C4198 163 4226 280 4261 360C4285 415 4308 433 4356 433C4379 433 4397 429 4441 414ZM4589 388L4596 368L4628 389C4665 412 4668 414 4675 414C4686 414 4693 404 4693 389C4693 338 4652 145 4611 2L4618 -9C4643 -2 4666 4 4688 8C4707 134 4728 199 4774 268C4828 352 4903 414 4948 414C4959 414 4965 405 4965 390C4965 372 4962 351 4954 319L4902 107C4893 70 4889 47 4889 31C4889 6 4900 -9 4919 -9C4945 -9 4981 12 5079 85L5069 103L5043 86C5014 67 4992 56 4982 56C4975 56 4969 65 4969 76C4969 81 4970 92 4971 96L5037 372C5044 401 5048 429 5048 446C5048 469 5037 482 5017 482C4975 482 4906 444 4847 389C4809 354 4781 320 4729 247L4767 408C4771 426 4773 438 4773 449C4773 470 4765 482 4750 482C4729 482 4690 460 4617 408ZM5245 390L5189 107C5188 99 5176 61 5176 31C5176 6 5187 -9 5206 -9C5241 -9 5276 11 5354 74L5385 99L5375 117L5330 86C5301 66 5281 56 5270 56C5261 56 5256 64 5256 76C5256 102 5270 183 5299 328L5312 390L5419 390L5430 440C5392 436 5358 434 5320 434C5336 528 5347 577 5365 631L5354 646C5334 634 5307 622 5276 610L5251 440C5207 419 5181 408 5163 403L5161 390ZM5780 111L5756 94C5703 56 5655 36 5619 36C5572 36 5543 73 5543 133C5543 158 5546 185 5551 214C5568 218 5677 248 5702 259C5787 296 5826 342 5826 404C5826 451 5792 482 5742 482C5674 496 5564 423 5527 349C5497 299 5467 180 5467 113C5467 35 5511 -11 5583 -11C5640 -11 5696 17 5788 92ZM5565 274C5582 343 5602 386 5631 412C5649 428 5680 440 5704 440C5733 440 5752 420 5752 388C5752 344 5717 297 5665 272C5637 258 5601 247 5556 237Z" stroke="rgb(0,0,0)" stroke-opacity="1" stroke-width="8" fill="rgb(0,0,0)" fill-opacity="1"></path></g></g></g><g><g><g transform="matrix(1,0,0,1,2,120.3699951171875)"><path transform="matrix(0.017,0,0,-0.017,0,0)" d="M27 6L34 -4C140 0 246 0 353 0C454 0 555 -1 656 -4L662 6L362 697L337 697C294 590 92 128 27 6ZM537 37L105 37C171 215 242 389 318 564L325 564C400 391 472 215 537 37Z" stroke="rgb(0,0,0)" stroke-opacity="1" stroke-width="8" fill="rgb(0,0,0)" fill-opacity="1"></path></g></g><g><g transform="matrix(1,0,0,1,18.79998779296875,120.3699951171875)"><path transform="matrix(0.017,0,0,-0.017,0,0)" d="M604 347L604 406L65 406L65 347ZM604 134L604 193L65 193L65 134Z" stroke="rgb(0,0,0)" stroke-opacity="1" stroke-width="8" fill="rgb(0,0,0)" fill-opacity="1"></path></g></g><g><g transform="matrix(1,0,0,1,35.2550048828125,120.3699951171875)"><path transform="matrix(0.017,0,0,-0.017,0,0)" d="M235 722L223 733C171 707 135 698 63 691L59 670L107 670C131 670 141 663 141 646C141 639 140 628 139 622L38 71C37 68 37 64 37 61C37 22 85 -11 140 -11C177 -11 228 8 271 39C367 107 433 244 433 376C433 414 424 453 412 468C405 477 392 482 377 482C353 482 323 474 295 460C244 433 211 403 149 324ZM322 424C348 424 361 401 361 352C361 288 340 202 310 137C277 68 237 36 183 36C137 36 112 59 112 101C112 135 127 276 208 361C241 395 293 424 322 424Z" stroke="rgb(0,0,0)" stroke-opacity="1" stroke-width="8" fill="rgb(0,0,0)" fill-opacity="1"></path></g></g><g><g><g><g><g transform="matrix(1,0,0,1,44.089996337890625,115.46500244140626)"><path transform="matrix(0.0119,0,0,-0.0119,0,0)" d="M16 23L16 -3C203 -3 203 0 239 0C275 0 275 -3 468 -3L468 82C353 77 307 81 122 77L304 270C401 373 431 428 431 503C431 618 353 689 226 689C154 689 105 669 56 619L39 483L68 483L81 529C97 587 133 612 200 612C286 612 341 558 341 473C341 398 299 324 186 204Z" stroke="rgb(0,0,0)" stroke-opacity="1" stroke-width="8" fill="rgb(0,0,0)" fill-opacity="1"></path></g></g></g></g></g><g><g transform="matrix(1,0,0,1,54.44000244140625,120.3699951171875)"><path transform="matrix(0.017,0,0,-0.017,0,0)" d="M555 243L555 299L51 299L51 243Z" stroke="rgb(0,0,0)" stroke-opacity="1" stroke-width="8" fill="rgb(0,0,0)" fill-opacity="1"></path></g></g><g><g transform="matrix(1,0,0,1,68.1199951171875,120.3699951171875)"><path transform="matrix(0.017,0,0,-0.017,0,0)" d="M280 181L280 106C280 46 269 32 220 30L158 27L158 -3C291 0 291 0 315 0C339 0 339 0 472 -3L472 27L424 30C375 33 364 46 364 106L364 181C423 181 444 180 472 177L472 248L364 245L365 697L285 667L2 204L2 181ZM280 245L65 245L280 597ZM770 204L741 77C737 60 735 42 735 26C735 4 744 -9 759 -9C782 -9 823 17 905 85L898 106C874 86 845 59 823 59C814 59 808 68 808 82C808 87 808 90 809 93L901 472L891 481L858 463C817 478 800 482 773 482C745 482 725 477 698 464C636 433 603 403 578 354C534 265 503 145 503 67C503 23 518 -11 537 -11C574 -11 654 41 770 204ZM818 414C796 305 777 253 743 201C686 117 625 59 593 59C581 59 575 72 575 99C575 163 603 280 638 360C662 415 685 433 733 433C756 433 774 429 818 414ZM1284 330L1307 330C1315 395 1322 432 1331 458C1307 473 1272 482 1235 482C1190 483 1117 463 1060 400C1006 352 967 241 967 136C967 40 1009 -11 1089 -11C1143 -11 1191 9 1246 54L1296 95L1288 115L1273 105C1201 57 1163 40 1128 40C1072 40 1043 80 1043 159C1043 267 1078 371 1127 409C1148 425 1172 433 1203 433C1248 433 1284 414 1284 390Z" stroke="rgb(0,0,0)" stroke-opacity="1" stroke-width="8" fill="rgb(0,0,0)" fill-opacity="1"></path></g></g></g><g><g><g transform="matrix(1,0,0,1,2,140.52999877929688)"><path transform="matrix(0.017,0,0,-0.017,0,0)" d="M27 6L34 -4C140 0 246 0 353 0C454 0 555 -1 656 -4L662 6L362 697L337 697C294 590 92 128 27 6ZM537 37L105 37C171 215 242 389 318 564L325 564C400 391 472 215 537 37Z" stroke="rgb(0,0,0)" stroke-opacity="1" stroke-width="8" fill="rgb(0,0,0)" fill-opacity="1"></path></g></g><g><g transform="matrix(1,0,0,1,18.79998779296875,140.52999877929688)"><path transform="matrix(0.017,0,0,-0.017,0,0)" d="M65 0L604 252L604 273L65 528L65 469L503 264L65 59Z" stroke="rgb(0,0,0)" stroke-opacity="1" stroke-width="8" fill="rgb(0,0,0)" fill-opacity="1"></path></g></g><g><g transform="matrix(1,0,0,1,35.2550048828125,140.52999877929688)"><path transform="matrix(0.017,0,0,-0.017,0,0)" d="M263 689C108 689 29 566 29 324C29 207 50 106 85 57C120 8 176 -20 238 -20C389 -20 465 110 465 366C465 585 400 689 263 689ZM245 654C342 654 381 556 381 316C381 103 343 15 251 15C154 15 113 116 113 360C113 571 150 654 245 654ZM779 148C774 97 768 62 757 16C795 -2 829 -11 864 -11C913 -11 959 7 1010 47C1061 87 1082 124 1082 174C1082 228 1050 257 976 271L933 279C873 290 854 307 854 348C854 401 899 442 956 442C997 442 1035 424 1051 397L1051 342L1074 342C1078 377 1082 404 1093 455C1054 474 1026 482 993 482C941 482 880 452 832 404C806 377 795 352 795 316C795 260 826 228 892 215L955 203C999 195 1015 177 1015 138C1015 73 969 29 898 29C863 29 832 40 804 64L804 148ZM1153 152C1153 46 1198 -11 1281 -11C1336 -11 1396 15 1441 57C1503 116 1547 230 1547 331C1547 425 1497 482 1414 482C1310 482 1153 382 1153 152ZM1377 444C1438 444 1471 399 1471 315C1471 219 1440 113 1396 60C1378 39 1352 27 1321 27C1263 27 1229 72 1229 151C1229 264 1268 387 1317 427C1330 438 1353 444 1377 444ZM1830 722L1818 733C1766 707 1730 698 1658 691L1654 670L1702 670C1726 670 1736 663 1736 648C1736 645 1736 640 1733 622C1722 567 1649 182 1634 132C1621 82 1615 52 1615 31C1615 6 1626 -9 1645 -9C1671 -9 1707 12 1805 85L1795 103L1769 86C1740 67 1718 56 1708 56C1701 56 1695 66 1695 76C1695 82 1696 89 1699 104ZM2348 473L2341 482L2273 465L2263 414C2248 336 2223 268 2192 221C2133 130 2055 59 2015 59C2007 59 2002 68 2002 85C2002 99 2004 112 2009 137L2066 408C2069 424 2071 438 2071 451C2071 470 2062 482 2048 482C2028 482 1990 461 1916 408L1888 388L1895 368L1927 389C1955 407 1966 412 1975 412C1984 412 1992 403 1992 392C1992 388 1991 378 1990 374L1927 77C1925 68 1923 44 1923 30C1923 7 1938 -11 1958 -11C2021 -11 2142 101 2226 239L2189 97C2182 73 2178 46 2178 31C2178 6 2189 -9 2208 -9C2234 -9 2270 12 2368 85L2358 103L2332 86C2308 70 2282 59 2271 59C2263 59 2258 66 2258 76C2258 112 2333 416 2348 473ZM2753 330L2776 330C2784 395 2791 432 2800 458C2776 473 2741 482 2704 482C2659 483 2586 463 2529 400C2475 352 2436 241 2436 136C2436 40 2478 -11 2558 -11C2612 -11 2660 9 2715 54L2765 95L2757 115L2742 105C2670 57 2632 40 2597 40C2541 40 2512 80 2512 159C2512 267 2547 371 2596 409C2617 425 2641 433 2672 433C2717 433 2753 414 2753 390ZM2851 388L2858 368L2890 389C2927 412 2930 414 2937 414C2947 414 2955 404 2955 391C2955 384 2951 361 2947 347L2881 107C2873 76 2868 49 2868 30C2868 6 2879 -9 2898 -9C2924 -9 2960 12 3058 85L3048 103L3022 86C2993 67 2970 56 2961 56C2954 56 2948 66 2948 76C2948 86 2950 95 2955 116L3032 420C3036 437 3038 448 3038 456C3038 473 3029 482 3013 482C2991 482 2954 461 2879 408ZM3045 712C3016 712 2987 679 2987 645C2987 620 3002 604 3026 604C3057 604 3081 633 3081 671C3081 695 3066 712 3045 712ZM3111 152C3111 46 3156 -11 3239 -11C3294 -11 3354 15 3399 57C3461 116 3505 230 3505 331C3505 425 3455 482 3372 482C3268 482 3111 382 3111 152ZM3335 444C3396 444 3429 399 3429 315C3429 219 3398 113 3354 60C3336 39 3310 27 3279 27C3221 27 3187 72 3187 151C3187 264 3226 387 3275 427C3288 438 3311 444 3335 444ZM3561 388L3568 368L3600 389C3637 412 3640 414 3647 414C3658 414 3665 404 3665 389C3665 338 3624 145 3583 2L3590 -9C3615 -2 3638 4 3660 8C3679 134 3700 199 3746 268C3800 352 3875 414 3920 414C3931 414 3937 405 3937 390C3937 372 3934 351 3926 319L3874 107C3865 70 3861 47 3861 31C3861 6 3872 -9 3891 -9C3917 -9 3953 12 4051 85L4041 103L4015 86C3986 67 3964 56 3954 56C3947 56 3941 65 3941 76C3941 81 3942 92 3943 96L4009 372C4016 401 4020 429 4020 446C4020 469 4009 482 3989 482C3947 482 3878 444 3819 389C3781 354 3753 320 3701 247L3739 408C3743 426 3745 438 3745 449C3745 470 3737 482 3722 482C3701 482 3662 460 3589 408ZM4420 111L4396 94C4343 56 4295 36 4259 36C4212 36 4183 73 4183 133C4183 158 4186 185 4191 214C4208 218 4317 248 4342 259C4427 296 4466 342 4466 404C4466 451 4432 482 4382 482C4314 496 4204 423 4167 349C4137 299 4107 180 4107 113C4107 35 4151 -11 4223 -11C4280 -11 4336 17 4428 92ZM4205 274C4222 343 4242 386 4271 412C4289 428 4320 440 4344 440C4373 440 4392 420 4392 388C4392 344 4357 297 4305 272C4277 258 4241 247 4196 237ZM4511 148C4506 97 4500 62 4489 16C4527 -2 4561 -11 4596 -11C4645 -11 4691 7 4742 47C4793 87 4814 124 4814 174C4814 228 4782 257 4708 271L4665 279C4605 290 4586 307 4586 348C4586 401 4631 442 4688 442C4729 442 4767 424 4783 397L4783 342L4806 342C4810 377 4814 404 4825 455C4786 474 4758 482 4725 482C4673 482 4612 452 4564 404C4538 377 4527 352 4527 316C4527 260 4558 228 4624 215L4687 203C4731 195 4747 177 4747 138C4747 73 4701 29 4630 29C4595 29 4564 40 4536 64L4536 148ZM5445 111L5421 94C5368 56 5320 36 5284 36C5237 36 5208 73 5208 133C5208 158 5211 185 5216 214C5233 218 5342 248 5367 259C5452 296 5491 342 5491 404C5491 451 5457 482 5407 482C5339 496 5229 423 5192 349C5162 299 5132 180 5132 113C5132 35 5176 -11 5248 -11C5305 -11 5361 17 5453 92ZM5230 274C5247 343 5267 386 5296 412C5314 428 5345 440 5369 440C5398 440 5417 420 5417 388C5417 344 5382 297 5330 272C5302 258 5266 247 5221 237ZM5529 388L5536 368L5568 389C5605 412 5608 414 5615 414C5626 414 5633 404 5633 389C5633 338 5592 145 5551 2L5558 -9C5583 -2 5606 4 5628 8C5647 134 5668 199 5714 268C5768 352 5843 414 5888 414C5899 414 5905 405 5905 390C5905 372 5902 351 5894 319L5842 107C5833 70 5829 47 5829 31C5829 6 5840 -9 5859 -9C5885 -9 5921 12 6019 85L6009 103L5983 86C5954 67 5932 56 5922 56C5915 56 5909 65 5909 76C5909 81 5910 92 5911 96L5977 372C5984 401 5988 429 5988 446C5988 469 5977 482 5957 482C5915 482 5846 444 5787 389C5749 354 5721 320 5669 247L5707 408C5711 426 5713 438 5713 449C5713 470 5705 482 5690 482C5669 482 5630 460 5557 408ZM6414 664L6470 662C6494 661 6505 653 6505 635C6505 621 6501 589 6496 559L6421 125C6405 34 6403 32 6363 28L6322 25L6318 -3L6360 -2C6407 0 6426 0 6450 0L6547 -3L6573 -3L6576 25L6527 28C6500 30 6491 38 6491 58C6491 67 6492 76 6495 93L6596 648C6625 654 6645 656 6672 656C6759 656 6805 617 6805 543C6805 448 6727 378 6623 378L6579 378L6576 367C6710 172 6741 124 6816 -3C6816 -3 6901 0 6901 0C6902 0 6916 -1 6935 -3L6948 -3L6948 24C6908 29 6897 37 6868 79L6684 354C6739 364 6768 376 6804 402C6862 444 6893 499 6893 560C6893 646 6829 693 6718 691L6417 691Z" stroke="rgb(0,0,0)" stroke-opacity="1" stroke-width="8" fill="rgb(0,0,0)" fill-opacity="1"></path></g></g></g><g><g><g transform="matrix(1,0,0,1,2,160.69000244140625)"><path transform="matrix(0.017,0,0,-0.017,0,0)" d="M27 6L34 -4C140 0 246 0 353 0C454 0 555 -1 656 -4L662 6L362 697L337 697C294 590 92 128 27 6ZM537 37L105 37C171 215 242 389 318 564L325 564C400 391 472 215 537 37Z" stroke="rgb(0,0,0)" stroke-opacity="1" stroke-width="8" fill="rgb(0,0,0)" fill-opacity="1"></path></g></g><g><g transform="matrix(1,0,0,1,18.79998779296875,160.69000244140625)"><path transform="matrix(0.017,0,0,-0.017,0,0)" d="M604 0L604 59L166 264L604 469L604 528L65 273L65 252Z" stroke="rgb(0,0,0)" stroke-opacity="1" stroke-width="8" fill="rgb(0,0,0)" fill-opacity="1"></path></g></g><g><g transform="matrix(1,0,0,1,35.2550048828125,160.69000244140625)"><path transform="matrix(0.017,0,0,-0.017,0,0)" d="M263 689C108 689 29 566 29 324C29 207 50 106 85 57C120 8 176 -20 238 -20C389 -20 465 110 465 366C465 585 400 689 263 689ZM245 654C342 654 381 556 381 316C381 103 343 15 251 15C154 15 113 116 113 360C113 571 150 654 245 654ZM779 148C774 97 768 62 757 16C795 -2 829 -11 864 -11C913 -11 959 7 1010 47C1061 87 1082 124 1082 174C1082 228 1050 257 976 271L933 279C873 290 854 307 854 348C854 401 899 442 956 442C997 442 1035 424 1051 397L1051 342L1074 342C1078 377 1082 404 1093 455C1054 474 1026 482 993 482C941 482 880 452 832 404C806 377 795 352 795 316C795 260 826 228 892 215L955 203C999 195 1015 177 1015 138C1015 73 969 29 898 29C863 29 832 40 804 64L804 148ZM1153 152C1153 46 1198 -11 1281 -11C1336 -11 1396 15 1441 57C1503 116 1547 230 1547 331C1547 425 1497 482 1414 482C1310 482 1153 382 1153 152ZM1377 444C1438 444 1471 399 1471 315C1471 219 1440 113 1396 60C1378 39 1352 27 1321 27C1263 27 1229 72 1229 151C1229 264 1268 387 1317 427C1330 438 1353 444 1377 444ZM1830 722L1818 733C1766 707 1730 698 1658 691L1654 670L1702 670C1726 670 1736 663 1736 648C1736 645 1736 640 1733 622C1722 567 1649 182 1634 132C1621 82 1615 52 1615 31C1615 6 1626 -9 1645 -9C1671 -9 1707 12 1805 85L1795 103L1769 86C1740 67 1718 56 1708 56C1701 56 1695 66 1695 76C1695 82 1696 89 1699 104ZM2348 473L2341 482L2273 465L2263 414C2248 336 2223 268 2192 221C2133 130 2055 59 2015 59C2007 59 2002 68 2002 85C2002 99 2004 112 2009 137L2066 408C2069 424 2071 438 2071 451C2071 470 2062 482 2048 482C2028 482 1990 461 1916 408L1888 388L1895 368L1927 389C1955 407 1966 412 1975 412C1984 412 1992 403 1992 392C1992 388 1991 378 1990 374L1927 77C1925 68 1923 44 1923 30C1923 7 1938 -11 1958 -11C2021 -11 2142 101 2226 239L2189 97C2182 73 2178 46 2178 31C2178 6 2189 -9 2208 -9C2234 -9 2270 12 2368 85L2358 103L2332 86C2308 70 2282 59 2271 59C2263 59 2258 66 2258 76C2258 112 2333 416 2348 473ZM2753 330L2776 330C2784 395 2791 432 2800 458C2776 473 2741 482 2704 482C2659 483 2586 463 2529 400C2475 352 2436 241 2436 136C2436 40 2478 -11 2558 -11C2612 -11 2660 9 2715 54L2765 95L2757 115L2742 105C2670 57 2632 40 2597 40C2541 40 2512 80 2512 159C2512 267 2547 371 2596 409C2617 425 2641 433 2672 433C2717 433 2753 414 2753 390ZM2851 388L2858 368L2890 389C2927 412 2930 414 2937 414C2947 414 2955 404 2955 391C2955 384 2951 361 2947 347L2881 107C2873 76 2868 49 2868 30C2868 6 2879 -9 2898 -9C2924 -9 2960 12 3058 85L3048 103L3022 86C2993 67 2970 56 2961 56C2954 56 2948 66 2948 76C2948 86 2950 95 2955 116L3032 420C3036 437 3038 448 3038 456C3038 473 3029 482 3013 482C2991 482 2954 461 2879 408ZM3045 712C3016 712 2987 679 2987 645C2987 620 3002 604 3026 604C3057 604 3081 633 3081 671C3081 695 3066 712 3045 712ZM3111 152C3111 46 3156 -11 3239 -11C3294 -11 3354 15 3399 57C3461 116 3505 230 3505 331C3505 425 3455 482 3372 482C3268 482 3111 382 3111 152ZM3335 444C3396 444 3429 399 3429 315C3429 219 3398 113 3354 60C3336 39 3310 27 3279 27C3221 27 3187 72 3187 151C3187 264 3226 387 3275 427C3288 438 3311 444 3335 444ZM3561 388L3568 368L3600 389C3637 412 3640 414 3647 414C3658 414 3665 404 3665 389C3665 338 3624 145 3583 2L3590 -9C3615 -2 3638 4 3660 8C3679 134 3700 199 3746 268C3800 352 3875 414 3920 414C3931 414 3937 405 3937 390C3937 372 3934 351 3926 319L3874 107C3865 70 3861 47 3861 31C3861 6 3872 -9 3891 -9C3917 -9 3953 12 4051 85L4041 103L4015 86C3986 67 3964 56 3954 56C3947 56 3941 65 3941 76C3941 81 3942 92 3943 96L4009 372C4016 401 4020 429 4020 446C4020 469 4009 482 3989 482C3947 482 3878 444 3819 389C3781 354 3753 320 3701 247L3739 408C3743 426 3745 438 3745 449C3745 470 3737 482 3722 482C3701 482 3662 460 3589 408ZM4420 111L4396 94C4343 56 4295 36 4259 36C4212 36 4183 73 4183 133C4183 158 4186 185 4191 214C4208 218 4317 248 4342 259C4427 296 4466 342 4466 404C4466 451 4432 482 4382 482C4314 496 4204 423 4167 349C4137 299 4107 180 4107 113C4107 35 4151 -11 4223 -11C4280 -11 4336 17 4428 92ZM4205 274C4222 343 4242 386 4271 412C4289 428 4320 440 4344 440C4373 440 4392 420 4392 388C4392 344 4357 297 4305 272C4277 258 4241 247 4196 237ZM4511 148C4506 97 4500 62 4489 16C4527 -2 4561 -11 4596 -11C4645 -11 4691 7 4742 47C4793 87 4814 124 4814 174C4814 228 4782 257 4708 271L4665 279C4605 290 4586 307 4586 348C4586 401 4631 442 4688 442C4729 442 4767 424 4783 397L4783 342L4806 342C4810 377 4814 404 4825 455C4786 474 4758 482 4725 482C4673 482 4612 452 4564 404C4538 377 4527 352 4527 316C4527 260 4558 228 4624 215L4687 203C4731 195 4747 177 4747 138C4747 73 4701 29 4630 29C4595 29 4564 40 4536 64L4536 148ZM5445 111L5421 94C5368 56 5320 36 5284 36C5237 36 5208 73 5208 133C5208 158 5211 185 5216 214C5233 218 5342 248 5367 259C5452 296 5491 342 5491 404C5491 451 5457 482 5407 482C5339 496 5229 423 5192 349C5162 299 5132 180 5132 113C5132 35 5176 -11 5248 -11C5305 -11 5361 17 5453 92ZM5230 274C5247 343 5267 386 5296 412C5314 428 5345 440 5369 440C5398 440 5417 420 5417 388C5417 344 5382 297 5330 272C5302 258 5266 247 5221 237ZM5529 388L5536 368L5568 389C5605 412 5608 414 5615 414C5626 414 5633 404 5633 389C5633 338 5592 145 5551 2L5558 -9C5583 -2 5606 4 5628 8C5647 134 5668 199 5714 268C5768 352 5843 414 5888 414C5899 414 5905 405 5905 390C5905 372 5902 351 5894 319L5842 107C5833 70 5829 47 5829 31C5829 6 5840 -9 5859 -9C5885 -9 5921 12 6019 85L6009 103L5983 86C5954 67 5932 56 5922 56C5915 56 5909 65 5909 76C5909 81 5910 92 5911 96L5977 372C5984 401 5988 429 5988 446C5988 469 5977 482 5957 482C5915 482 5846 444 5787 389C5749 354 5721 320 5669 247L5707 408C5711 426 5713 438 5713 449C5713 470 5705 482 5690 482C5669 482 5630 460 5557 408ZM6412 664L6459 662C6483 661 6494 653 6494 636C6494 629 6488 576 6485 559L6413 125C6398 36 6395 31 6355 28L6319 25L6316 -3L6348 -3L6442 0L6536 -3L6568 -3L6571 25L6519 28C6493 30 6483 37 6483 57C6483 63 6484 74 6485 78L6574 613C6581 652 6586 657 6625 661L6660 664L6663 692L6557 689C6540 689 6522 689 6479 690L6415 692Z" stroke="rgb(0,0,0)" stroke-opacity="1" stroke-width="8" fill="rgb(0,0,0)" fill-opacity="1"></path></g></g></g><g><g><g transform="matrix(1,0,0,1,2,180.85000610351562)"><path transform="matrix(0.017,0,0,-0.017,0,0)" d="M27 6L34 -4C140 0 246 0 353 0C454 0 555 -1 656 -4L662 6L362 697L337 697C294 590 92 128 27 6ZM537 37L105 37C171 215 242 389 318 564L325 564C400 391 472 215 537 37Z" stroke="rgb(0,0,0)" stroke-opacity="1" stroke-width="8" fill="rgb(0,0,0)" fill-opacity="1"></path></g></g><g><g transform="matrix(1,0,0,1,18.79998779296875,180.85000610351562)"><path transform="matrix(0.017,0,0,-0.017,0,0)" d="M604 347L604 406L65 406L65 347ZM604 134L604 193L65 193L65 134Z" stroke="rgb(0,0,0)" stroke-opacity="1" stroke-width="8" fill="rgb(0,0,0)" fill-opacity="1"></path></g></g><g><g transform="matrix(1,0,0,1,35.2550048828125,180.85000610351562)"><path transform="matrix(0.017,0,0,-0.017,0,0)" d="M263 689C108 689 29 566 29 324C29 207 50 106 85 57C120 8 176 -20 238 -20C389 -20 465 110 465 366C465 585 400 689 263 689ZM245 654C342 654 381 556 381 316C381 103 343 15 251 15C154 15 113 116 113 360C113 571 150 654 245 654ZM779 148C774 97 768 62 757 16C795 -2 829 -11 864 -11C913 -11 959 7 1010 47C1061 87 1082 124 1082 174C1082 228 1050 257 976 271L933 279C873 290 854 307 854 348C854 401 899 442 956 442C997 442 1035 424 1051 397L1051 342L1074 342C1078 377 1082 404 1093 455C1054 474 1026 482 993 482C941 482 880 452 832 404C806 377 795 352 795 316C795 260 826 228 892 215L955 203C999 195 1015 177 1015 138C1015 73 969 29 898 29C863 29 832 40 804 64L804 148ZM1153 152C1153 46 1198 -11 1281 -11C1336 -11 1396 15 1441 57C1503 116 1547 230 1547 331C1547 425 1497 482 1414 482C1310 482 1153 382 1153 152ZM1377 444C1438 444 1471 399 1471 315C1471 219 1440 113 1396 60C1378 39 1352 27 1321 27C1263 27 1229 72 1229 151C1229 264 1268 387 1317 427C1330 438 1353 444 1377 444ZM1830 722L1818 733C1766 707 1730 698 1658 691L1654 670L1702 670C1726 670 1736 663 1736 648C1736 645 1736 640 1733 622C1722 567 1649 182 1634 132C1621 82 1615 52 1615 31C1615 6 1626 -9 1645 -9C1671 -9 1707 12 1805 85L1795 103L1769 86C1740 67 1718 56 1708 56C1701 56 1695 66 1695 76C1695 82 1696 89 1699 104ZM2348 473L2341 482L2273 465L2263 414C2248 336 2223 268 2192 221C2133 130 2055 59 2015 59C2007 59 2002 68 2002 85C2002 99 2004 112 2009 137L2066 408C2069 424 2071 438 2071 451C2071 470 2062 482 2048 482C2028 482 1990 461 1916 408L1888 388L1895 368L1927 389C1955 407 1966 412 1975 412C1984 412 1992 403 1992 392C1992 388 1991 378 1990 374L1927 77C1925 68 1923 44 1923 30C1923 7 1938 -11 1958 -11C2021 -11 2142 101 2226 239L2189 97C2182 73 2178 46 2178 31C2178 6 2189 -9 2208 -9C2234 -9 2270 12 2368 85L2358 103L2332 86C2308 70 2282 59 2271 59C2263 59 2258 66 2258 76C2258 112 2333 416 2348 473ZM2753 330L2776 330C2784 395 2791 432 2800 458C2776 473 2741 482 2704 482C2659 483 2586 463 2529 400C2475 352 2436 241 2436 136C2436 40 2478 -11 2558 -11C2612 -11 2660 9 2715 54L2765 95L2757 115L2742 105C2670 57 2632 40 2597 40C2541 40 2512 80 2512 159C2512 267 2547 371 2596 409C2617 425 2641 433 2672 433C2717 433 2753 414 2753 390ZM2851 388L2858 368L2890 389C2927 412 2930 414 2937 414C2947 414 2955 404 2955 391C2955 384 2951 361 2947 347L2881 107C2873 76 2868 49 2868 30C2868 6 2879 -9 2898 -9C2924 -9 2960 12 3058 85L3048 103L3022 86C2993 67 2970 56 2961 56C2954 56 2948 66 2948 76C2948 86 2950 95 2955 116L3032 420C3036 437 3038 448 3038 456C3038 473 3029 482 3013 482C2991 482 2954 461 2879 408ZM3045 712C3016 712 2987 679 2987 645C2987 620 3002 604 3026 604C3057 604 3081 633 3081 671C3081 695 3066 712 3045 712ZM3111 152C3111 46 3156 -11 3239 -11C3294 -11 3354 15 3399 57C3461 116 3505 230 3505 331C3505 425 3455 482 3372 482C3268 482 3111 382 3111 152ZM3335 444C3396 444 3429 399 3429 315C3429 219 3398 113 3354 60C3336 39 3310 27 3279 27C3221 27 3187 72 3187 151C3187 264 3226 387 3275 427C3288 438 3311 444 3335 444ZM3561 388L3568 368L3600 389C3637 412 3640 414 3647 414C3658 414 3665 404 3665 389C3665 338 3624 145 3583 2L3590 -9C3615 -2 3638 4 3660 8C3679 134 3700 199 3746 268C3800 352 3875 414 3920 414C3931 414 3937 405 3937 390C3937 372 3934 351 3926 319L3874 107C3865 70 3861 47 3861 31C3861 6 3872 -9 3891 -9C3917 -9 3953 12 4051 85L4041 103L4015 86C3986 67 3964 56 3954 56C3947 56 3941 65 3941 76C3941 81 3942 92 3943 96L4009 372C4016 401 4020 429 4020 446C4020 469 4009 482 3989 482C3947 482 3878 444 3819 389C3781 354 3753 320 3701 247L3739 408C3743 426 3745 438 3745 449C3745 470 3737 482 3722 482C3701 482 3662 460 3589 408ZM4669 111L4645 94C4592 56 4544 36 4508 36C4461 36 4432 73 4432 133C4432 158 4435 185 4440 214C4457 218 4566 248 4591 259C4676 296 4715 342 4715 404C4715 451 4681 482 4631 482C4563 496 4453 423 4416 349C4386 299 4356 180 4356 113C4356 35 4400 -11 4472 -11C4529 -11 4585 17 4677 92ZM4454 274C4471 343 4491 386 4520 412C4538 428 4569 440 4593 440C4622 440 4641 420 4641 388C4641 344 4606 297 4554 272C4526 258 4490 247 4445 237ZM4753 388L4760 368L4792 389C4829 412 4832 414 4839 414C4850 414 4857 404 4857 389C4857 338 4816 145 4775 2L4782 -9C4807 -2 4830 4 4852 8C4871 134 4892 199 4938 268C4992 352 5067 414 5112 414C5123 414 5129 405 5129 390C5129 372 5126 351 5118 319L5066 107C5057 70 5053 47 5053 31C5053 6 5064 -9 5083 -9C5109 -9 5145 12 5243 85L5233 103L5207 86C5178 67 5156 56 5146 56C5139 56 5133 65 5133 76C5133 81 5134 92 5135 96L5201 372C5208 401 5212 429 5212 446C5212 469 5201 482 5181 482C5139 482 5070 444 5011 389C4973 354 4945 320 4893 247L4931 408C4935 426 4937 438 4937 449C4937 470 4929 482 4914 482C4893 482 4854 460 4781 408ZM5638 664L5694 662C5718 661 5729 653 5729 635C5729 621 5725 589 5720 559L5645 125C5629 34 5627 32 5587 28L5546 25L5542 -3L5584 -2C5631 0 5650 0 5674 0L5771 -3L5797 -3L5800 25L5751 28C5724 30 5715 38 5715 58C5715 67 5716 76 5719 93L5820 648C5849 654 5869 656 5896 656C5983 656 6029 617 6029 543C6029 448 5951 378 5847 378L5803 378L5800 367C5934 172 5965 124 6040 -3C6040 -3 6125 0 6125 0C6126 0 6140 -1 6159 -3L6172 -3L6172 24C6132 29 6121 37 6092 79L5908 354C5963 364 5992 376 6028 402C6086 444 6117 499 6117 560C6117 646 6053 693 5942 691L5641 691Z" stroke="rgb(0,0,0)" stroke-opacity="1" stroke-width="8" fill="rgb(0,0,0)" fill-opacity="1"></path></g></g></g><g></g><g><g><g transform="matrix(1,0,0,1,2,221.1699981689453)"><path transform="matrix(0.017,0,0,-0.017,0,0)" d="M221 334L338 334L470 330L489 375L485 382C404 378 344 376 266 376L229 376L276 646C308 647 391 650 413 650C475 650 516 641 517 626L525 537L549 537C552 601 559 651 570 689C549 691 519 692 501 692C498 692 487 692 463 691L343 690C334 689 160 691 150 691L105 692L102 664L156 662C180 661 191 653 191 635C191 621 187 589 182 559L95 55C91 37 79 30 35 23L30 -3L71 -2C102 -1 164 0 184 0L409 -3C423 -3 448 -2 481 -1L514 0L518 36C520 56 525 86 534 135L539 161L512 161L496 101C486 65 477 53 455 48C435 44 362 39 308 39C267 39 240 40 171 46ZM804 351L704 -144C693 -196 675 -231 657 -231C643 -231 625 -225 604 -212L596 -269C606 -274 619 -276 634 -276C674 -276 714 -233 750 -152C770 -107 784 -57 812 70L888 420C892 438 894 451 894 457C894 473 885 482 869 482C847 482 810 461 735 408L707 388L714 368L746 389C783 412 786 414 793 414C803 414 811 404 811 391C811 382 804 356 804 351ZM895 712C866 712 837 679 837 645C837 620 852 604 876 604C907 604 931 633 931 671C931 695 916 712 895 712ZM1265 111L1241 94C1188 56 1140 36 1104 36C1057 36 1028 73 1028 133C1028 158 1031 185 1036 214C1053 218 1162 248 1187 259C1272 296 1311 342 1311 404C1311 451 1277 482 1227 482C1159 496 1049 423 1012 349C982 299 952 180 952 113C952 35 996 -11 1068 -11C1125 -11 1181 17 1273 92ZM1050 274C1067 343 1087 386 1116 412C1134 428 1165 440 1189 440C1218 440 1237 420 1237 388C1237 344 1202 297 1150 272C1122 258 1086 247 1041 237ZM2057 722L2045 733C1993 707 1957 698 1885 691L1881 670L1929 670C1953 670 1963 663 1963 646C1963 638 1962 629 1961 622L1933 468C1903 477 1876 482 1851 482C1782 482 1688 410 1642 323C1611 265 1591 170 1591 86C1591 21 1606 -11 1635 -11C1662 -11 1699 6 1733 33C1787 77 1820 116 1887 217L1864 126C1853 82 1848 50 1848 24C1848 3 1857 -9 1874 -9C1891 -9 1915 3 1949 28L2030 88L2020 107L1976 76C1962 66 1946 59 1937 59C1929 59 1923 68 1923 82C1923 90 1924 99 1931 128ZM1688 59C1672 59 1663 73 1663 98C1663 224 1709 380 1758 418C1771 428 1790 433 1817 433C1861 433 1890 427 1923 410L1911 351C1874 171 1733 59 1688 59ZM2401 111L2377 94C2324 56 2276 36 2240 36C2193 36 2164 73 2164 133C2164 158 2167 185 2172 214C2189 218 2298 248 2323 259C2408 296 2447 342 2447 404C2447 451 2413 482 2363 482C2295 496 2185 423 2148 349C2118 299 2088 180 2088 113C2088 35 2132 -11 2204 -11C2261 -11 2317 17 2409 92ZM2186 274C2203 343 2223 386 2252 412C2270 428 2301 440 2325 440C2354 440 2373 420 2373 388C2373 344 2338 297 2286 272C2258 258 2222 247 2177 237ZM2818 471C2818 386 2856 339 2940 319L3035 296C3089 283 3116 248 3116 191C3116 96 3045 30 2942 30C2888 30 2850 42 2806 73L2806 172L2776 172C2770 117 2763 72 2752 20C2801 -5 2854 -18 2907 -18C3062 -18 3195 99 3195 234C3195 313 3152 355 3051 377L2986 391C2920 405 2890 442 2890 508C2890 595 2957 658 3049 658C3098 658 3131 645 3161 613L3161 537L3191 537C3195 591 3202 629 3216 672C3171 696 3131 706 3084 706C2960 706 2818 614 2818 471ZM3299 388L3306 368L3338 389C3375 412 3378 414 3385 414C3395 414 3403 404 3403 391C3403 384 3399 361 3395 347L3329 107C3321 76 3316 49 3316 30C3316 6 3327 -9 3346 -9C3372 -9 3408 12 3506 85L3496 103L3470 86C3441 67 3418 56 3409 56C3402 56 3396 66 3396 76C3396 86 3398 95 3403 116L3480 420C3484 437 3486 448 3486 456C3486 473 3477 482 3461 482C3439 482 3402 461 3327 408ZM3493 712C3464 712 3435 679 3435 645C3435 620 3450 604 3474 604C3505 604 3529 633 3529 671C3529 695 3514 712 3493 712ZM4272 103L4246 86C4217 67 4195 56 4185 56C4178 56 4172 65 4172 76C4172 86 4174 95 4179 116L4254 413C4258 430 4261 446 4261 454C4261 471 4251 482 4235 482C4206 482 4168 464 4107 421C4044 376 4009 341 3960 272L3990 409C3994 429 3997 444 3997 451C3997 470 3987 482 3971 482C3941 482 3895 460 3840 418C3796 384 3776 363 3711 275L3744 408C3748 424 3750 439 3750 451C3750 470 3741 482 3727 482C3706 482 3668 461 3594 408L3566 388L3573 368C3610 391 3645 414 3652 414C3663 414 3670 404 3670 389C3670 338 3629 145 3588 2L3591 -9L3659 6L3681 108C3705 219 3732 278 3787 338C3829 384 3874 414 3902 414C3909 414 3913 406 3913 393C3913 358 3891 244 3850 69L3834 2L3839 -9L3908 6L3929 113C3945 194 3979 269 4023 318C4078 379 4128 414 4160 414C4168 414 4173 405 4173 389C4173 365 4170 351 4148 264C4108 105 4092 84 4092 31C4092 6 4103 -9 4122 -9C4148 -9 4184 12 4282 85ZM4647 111L4623 94C4570 56 4522 36 4486 36C4439 36 4410 73 4410 133C4410 158 4413 185 4418 214C4435 218 4544 248 4569 259C4654 296 4693 342 4693 404C4693 451 4659 482 4609 482C4541 496 4431 423 4394 349C4364 299 4334 180 4334 113C4334 35 4378 -11 4450 -11C4507 -11 4563 17 4655 92ZM4432 274C4449 343 4469 386 4498 412C4516 428 4547 440 4571 440C4600 440 4619 420 4619 388C4619 344 4584 297 4532 272C4504 258 4468 247 4423 237ZM4832 390L4776 107C4775 99 4763 61 4763 31C4763 6 4774 -9 4793 -9C4828 -9 4863 11 4941 74L4972 99L4962 117L4917 86C4888 66 4868 56 4857 56C4848 56 4843 64 4843 76C4843 102 4857 183 4886 328L4899 390L5006 390L5017 440C4979 436 4945 434 4907 434C4923 528 4934 577 4952 631L4941 646C4921 634 4894 622 4863 610L4838 440C4794 419 4768 408 4750 403L4748 390ZM5407 365C5410 403 5415 435 5423 476C5412 481 5408 482 5403 482C5372 482 5341 458 5305 407C5266 351 5227 291 5211 256L5243 408C5247 425 5249 438 5249 450C5249 470 5241 482 5226 482C5205 482 5167 461 5093 408L5065 388L5072 368L5104 389C5132 407 5143 412 5152 412C5162 412 5169 403 5169 390C5169 332 5126 126 5086 -2L5096 -9C5111 -4 5127 -1 5150 4L5163 6L5189 126C5207 209 5230 262 5274 319C5308 363 5335 384 5357 384C5372 384 5382 379 5393 365ZM5461 388L5468 368L5500 389C5537 412 5540 414 5547 414C5557 414 5565 404 5565 391C5565 384 5561 361 5557 347L5491 107C5483 76 5478 49 5478 30C5478 6 5489 -9 5508 -9C5534 -9 5570 12 5668 85L5658 103L5632 86C5603 67 5580 56 5571 56C5564 56 5558 66 5558 76C5558 86 5560 95 5565 116L5642 420C5646 437 5648 448 5648 456C5648 473 5639 482 5623 482C5601 482 5564 461 5489 408ZM5655 712C5626 712 5597 679 5597 645C5597 620 5612 604 5636 604C5667 604 5691 633 5691 671C5691 695 5676 712 5655 712ZM5975 204L5946 77C5942 60 5940 42 5940 26C5940 4 5949 -9 5964 -9C5987 -9 6028 17 6110 85L6103 106C6079 86 6050 59 6028 59C6019 59 6013 68 6013 82C6013 87 6013 90 6014 93L6106 472L6096 481L6063 463C6022 478 6005 482 5978 482C5950 482 5930 477 5903 464C5841 433 5808 403 5783 354C5739 265 5708 145 5708 67C5708 23 5723 -11 5742 -11C5779 -11 5859 41 5975 204ZM6023 414C6001 305 5982 253 5948 201C5891 117 5830 59 5798 59C5786 59 5780 72 5780 99C5780 163 5808 280 5843 360C5867 415 5890 433 5938 433C5961 433 5979 429 6023 414Z" stroke="rgb(0,0,0)" stroke-opacity="1" stroke-width="8" fill="rgb(0,0,0)" fill-opacity="1"></path></g></g><g><g transform="matrix(1,0,0,1,110.69003295898438,222.13002014160156)"><path transform="matrix(0.017,0,0,-0.017,0,0)" d="M146 266C146 526 243 632 301 700L282 726C225 675 60 542 60 266C60 159 85 58 133 -32C168 -99 200 -138 282 -215L301 -194C255 -137 146 -15 146 266Z" stroke="rgb(0,0,0)" stroke-opacity="1" stroke-width="8" fill="rgb(0,0,0)" fill-opacity="1"></path></g></g><g><g transform="matrix(1,0,0,1,116.34500122070312,221.1699981689453)"><path transform="matrix(0.017,0,0,-0.017,0,0)" d="M236 722L224 733C179 711 138 697 64 691L60 670L108 670C126 670 142 667 142 647C142 641 142 632 140 622L98 388C78 272 36 80 10 2L17 -9L86 7C94 64 108 164 148 236C193 317 296 414 338 414C349 414 360 407 360 393C360 375 355 342 345 303L294 107C288 85 281 55 281 31C281 6 291 -9 312 -9C344 -9 412 41 471 85L461 103L435 86C412 71 386 56 374 56C367 56 361 65 361 76C361 88 364 101 368 116L432 372C438 398 443 423 443 447C443 464 437 482 411 482C376 482 299 437 231 374C198 343 172 308 144 273L140 275Z" stroke="rgb(0,0,0)" stroke-opacity="1" stroke-width="8" fill="rgb(0,0,0)" fill-opacity="1"></path></g></g><g><g transform="matrix(1,0,0,1,124.83499145507812,221.1699981689453)"><path transform="matrix(0.017,0,0,-0.017,0,0)" d="M204 123C177 114 159 108 106 93C99 17 74 -48 16 -144L30 -155L71 -136C152 -31 190 32 218 109Z" stroke="rgb(0,0,0)" stroke-opacity="1" stroke-width="8" fill="rgb(0,0,0)" fill-opacity="1"></path></g></g><g><g transform="matrix(1,0,0,1,132.47000122070312,221.1699981689453)"><path transform="matrix(0.017,0,0,-0.017,0,0)" d="M240 722L228 733C176 707 140 698 68 691L64 670L112 670C136 670 146 663 146 646C146 638 145 629 144 622L96 354C82 279 66 210 14 1L23 -9L90 8L113 132C122 180 146 225 180 259C249 59 281 -9 306 -9C319 -9 343 4 387 35L433 67L425 86L382 62C368 54 361 52 353 52C343 52 336 58 327 75C292 139 270 193 231 316L245 330C306 391 352 416 402 416C410 416 421 414 438 410L455 473C437 479 419 482 407 482C341 482 258 405 133 230Z" stroke="rgb(0,0,0)" stroke-opacity="1" stroke-width="8" fill="rgb(0,0,0)" fill-opacity="1"></path></g></g><g><g transform="matrix(1,0,0,1,140.43502807617188,222.13002014160156)"><path transform="matrix(0.017,0,0,-0.017,0,0)" d="M51 726L32 700C87 636 187 526 187 266C187 -10 83 -131 32 -194L51 -215C104 -165 273 -23 273 265C273 542 108 675 51 726Z" stroke="rgb(0,0,0)" stroke-opacity="1" stroke-width="8" fill="rgb(0,0,0)" fill-opacity="1"></path></g></g></g><g><g><g transform="matrix(1,0,0,1,2,253.49501037597656)"><path transform="matrix(0.017,0,0,-0.017,0,0)" d="M236 722L224 733C179 711 138 697 64 691L60 670L108 670C126 670 142 667 142 647C142 641 142 632 140 622L98 388C78 272 36 80 10 2L17 -9L86 7C94 64 108 164 148 236C193 317 296 414 338 414C349 414 360 407 360 393C360 375 355 342 345 303L294 107C288 85 281 55 281 31C281 6 291 -9 312 -9C344 -9 412 41 471 85L461 103L435 86C412 71 386 56 374 56C367 56 361 65 361 76C361 88 364 101 368 116L432 372C438 398 443 423 443 447C443 464 437 482 411 482C376 482 299 437 231 374C198 343 172 308 144 273L140 275Z" stroke="rgb(0,0,0)" stroke-opacity="1" stroke-width="8" fill="rgb(0,0,0)" fill-opacity="1"></path></g></g><g><g transform="matrix(1,0,0,1,15.589996337890625,253.49501037597656)"><path transform="matrix(0.017,0,0,-0.017,0,0)" d="M604 347L604 406L65 406L65 347ZM604 134L604 193L65 193L65 134Z" stroke="rgb(0,0,0)" stroke-opacity="1" stroke-width="8" fill="rgb(0,0,0)" fill-opacity="1"></path></g></g><g><g><g><g><g transform="matrix(1,0,0,1,33.739990234375,241.3300018310547)"><path transform="matrix(0.017,0,0,-0.017,0,0)" d="M555 243L555 299L51 299L51 243Z" stroke="rgb(0,0,0)" stroke-opacity="1" stroke-width="8" fill="rgb(0,0,0)" fill-opacity="1"></path></g></g><g><g transform="matrix(1,0,0,1,44.029998779296875,241.3300018310547)"><path transform="matrix(0.017,0,0,-0.017,0,0)" d="M235 722L223 733C171 707 135 698 63 691L59 670L107 670C131 670 141 663 141 646C141 639 140 628 139 622L38 71C37 68 37 64 37 61C37 22 85 -11 140 -11C177 -11 228 8 271 39C367 107 433 244 433 376C433 414 424 453 412 468C405 477 392 482 377 482C353 482 323 474 295 460C244 433 211 403 149 324ZM322 424C348 424 361 401 361 352C361 288 340 202 310 137C277 68 237 36 183 36C137 36 112 59 112 101C112 135 127 276 208 361C241 395 293 424 322 424Z" stroke="rgb(0,0,0)" stroke-opacity="1" stroke-width="8" fill="rgb(0,0,0)" fill-opacity="1"></path></g></g></g></g><g><g><g><g transform="matrix(1,0,0,1,34.80499267578125,266.6649932861328)"><path transform="matrix(0.017,0,0,-0.017,0,0)" d="M16 23L16 -3C203 -3 203 0 239 0C275 0 275 -3 468 -3L468 82C353 77 307 81 122 77L304 270C401 373 431 428 431 503C431 618 353 689 226 689C154 689 105 669 56 619L39 483L68 483L81 529C97 587 133 612 200 612C286 612 341 558 341 473C341 398 299 324 186 204ZM770 204L741 77C737 60 735 42 735 26C735 4 744 -9 759 -9C782 -9 823 17 905 85L898 106C874 86 845 59 823 59C814 59 808 68 808 82C808 87 808 90 809 93L901 472L891 481L858 463C817 478 800 482 773 482C745 482 725 477 698 464C636 433 603 403 578 354C534 265 503 145 503 67C503 23 518 -11 537 -11C574 -11 654 41 770 204ZM818 414C796 305 777 253 743 201C686 117 625 59 593 59C581 59 575 72 575 99C575 163 603 280 638 360C662 415 685 433 733 433C756 433 774 429 818 414Z" stroke="rgb(0,0,0)" stroke-opacity="1" stroke-width="8" fill="rgb(0,0,0)" fill-opacity="1"></path></g></g></g></g><line style="fill:none;stroke-width:0.99px;stroke:rgb(0, 0, 0);" x1="33.739990234375" y1="249.52999329566956" x2="51.889991760253906" y2="249.52999329566956"></line></g><g><g transform="matrix(1,0,0,1,53.584991455078125,253.49501037597656)"><path transform="matrix(0.017,0,0,-0.017,0,0)" d="" stroke="rgb(0,0,0)" stroke-opacity="1" stroke-width="8" fill="rgb(0,0,0)" fill-opacity="1"></path></g></g></g><g><g><g transform="matrix(1,0,0,1,2,295.99000549316406)"><path transform="matrix(0.017,0,0,-0.017,0,0)" d="M240 722L228 733C176 707 140 698 68 691L64 670L112 670C136 670 146 663 146 646C146 638 145 629 144 622L96 354C82 279 66 210 14 1L23 -9L90 8L113 132C122 180 146 225 180 259C249 59 281 -9 306 -9C319 -9 343 4 387 35L433 67L425 86L382 62C368 54 361 52 353 52C343 52 336 58 327 75C292 139 270 193 231 316L245 330C306 391 352 416 402 416C410 416 421 414 438 410L455 473C437 479 419 482 407 482C341 482 258 405 133 230Z" stroke="rgb(0,0,0)" stroke-opacity="1" stroke-width="8" fill="rgb(0,0,0)" fill-opacity="1"></path></g></g><g><g transform="matrix(1,0,0,1,15.06500244140625,295.99000549316406)"><path transform="matrix(0.017,0,0,-0.017,0,0)" d="M604 347L604 406L65 406L65 347ZM604 134L604 193L65 193L65 134Z" stroke="rgb(0,0,0)" stroke-opacity="1" stroke-width="8" fill="rgb(0,0,0)" fill-opacity="1"></path></g></g><g><g><g><g><g transform="matrix(1,0,0,1,33.214996337890625,283.8249969482422)"><path transform="matrix(0.017,0,0,-0.017,0,0)" d="M555 243L555 299L51 299L51 243Z" stroke="rgb(0,0,0)" stroke-opacity="1" stroke-width="8" fill="rgb(0,0,0)" fill-opacity="1"></path></g></g><g><g transform="matrix(1,0,0,1,43.5050048828125,283.8249969482422)"><path transform="matrix(0.017,0,0,-0.017,0,0)" d="M27 6L34 -4C140 0 246 0 353 0C454 0 555 -1 656 -4L662 6L362 697L337 697C294 590 92 128 27 6ZM537 37L105 37C171 215 242 389 318 564L325 564C400 391 472 215 537 37Z" stroke="rgb(0,0,0)" stroke-opacity="1" stroke-width="8" fill="rgb(0,0,0)" fill-opacity="1"></path></g></g></g></g><g><g><g><g transform="matrix(1,0,0,1,36.20001220703125,309.16001892089844)"><path transform="matrix(0.017,0,0,-0.017,0,0)" d="M280 181L280 106C280 46 269 32 220 30L158 27L158 -3C291 0 291 0 315 0C339 0 339 0 472 -3L472 27L424 30C375 33 364 46 364 106L364 181C423 181 444 180 472 177L472 248L364 245L365 697L285 667L2 204L2 181ZM280 245L65 245L280 597ZM770 204L741 77C737 60 735 42 735 26C735 4 744 -9 759 -9C782 -9 823 17 905 85L898 106C874 86 845 59 823 59C814 59 808 68 808 82C808 87 808 90 809 93L901 472L891 481L858 463C817 478 800 482 773 482C745 482 725 477 698 464C636 433 603 403 578 354C534 265 503 145 503 67C503 23 518 -11 537 -11C574 -11 654 41 770 204ZM818 414C796 305 777 253 743 201C686 117 625 59 593 59C581 59 575 72 575 99C575 163 603 280 638 360C662 415 685 433 733 433C756 433 774 429 818 414Z" stroke="rgb(0,0,0)" stroke-opacity="1" stroke-width="8" fill="rgb(0,0,0)" fill-opacity="1"></path></g></g></g></g><line style="fill:none;stroke-width:0.99px;stroke:rgb(0, 0, 0);" x1="33.214996337890625" y1="292.0250189304352" x2="55.20499801635742" y2="292.0250189304352"></line></g><g><g transform="matrix(1,0,0,1,56.899993896484375,295.99000549316406)"><path transform="matrix(0.017,0,0,-0.017,0,0)" d="" stroke="rgb(0,0,0)" stroke-opacity="1" stroke-width="8" fill="rgb(0,0,0)" fill-opacity="1"></path></g></g><g><g transform="matrix(1,0,0,1,66.2449951171875,295.99000549316406)"><path transform="matrix(0.017,0,0,-0.017,0,0)" d="M604 347L604 406L65 406L65 347ZM604 134L604 193L65 193L65 134Z" stroke="rgb(0,0,0)" stroke-opacity="1" stroke-width="8" fill="rgb(0,0,0)" fill-opacity="1"></path></g></g><g><g transform="matrix(1,0,0,1,82.69998168945312,295.99000549316406)"><path transform="matrix(0.017,0,0,-0.017,0,0)" d="M345 437L329 437L350 549C366 635 394 673 440 673C470 673 497 658 512 634L522 638C527 654 537 685 545 705L550 720C534 727 503 733 480 733C469 733 453 730 445 726C421 715 339 654 316 630C294 608 282 578 271 521L256 442C215 422 195 414 170 405L165 383L246 383L237 327C207 132 170 -54 148 -123C130 -182 100 -213 64 -213C41 -213 30 -206 12 -184L-2 -188C-6 -211 -20 -259 -25 -268C-16 -273 -1 -276 10 -276C51 -276 105 -245 144 -198C215 -114 235 -18 319 383L423 383C427 402 434 425 440 439L436 446C407 439 408 437 345 437Z" stroke="rgb(0,0,0)" stroke-opacity="1" stroke-width="8" fill="rgb(0,0,0)" fill-opacity="1"></path></g></g><g><g transform="matrix(1,0,0,1,92.06002807617188,296.9499969482422)"><path transform="matrix(0.017,0,0,-0.017,0,0)" d="M146 266C146 526 243 632 301 700L282 726C225 675 60 542 60 266C60 159 85 58 133 -32C168 -99 200 -138 282 -215L301 -194C255 -137 146 -15 146 266Z" stroke="rgb(0,0,0)" stroke-opacity="1" stroke-width="8" fill="rgb(0,0,0)" fill-opacity="1"></path></g></g><g><g transform="matrix(1,0,0,1,97.71499633789062,295.99000549316406)"><path transform="matrix(0.017,0,0,-0.017,0,0)" d="M236 722L224 733C179 711 138 697 64 691L60 670L108 670C126 670 142 667 142 647C142 641 142 632 140 622L98 388C78 272 36 80 10 2L17 -9L86 7C94 64 108 164 148 236C193 317 296 414 338 414C349 414 360 407 360 393C360 375 355 342 345 303L294 107C288 85 281 55 281 31C281 6 291 -9 312 -9C344 -9 412 41 471 85L461 103L435 86C412 71 386 56 374 56C367 56 361 65 361 76C361 88 364 101 368 116L432 372C438 398 443 423 443 447C443 464 437 482 411 482C376 482 299 437 231 374C198 343 172 308 144 273L140 275Z" stroke="rgb(0,0,0)" stroke-opacity="1" stroke-width="8" fill="rgb(0,0,0)" fill-opacity="1"></path></g></g><g><g transform="matrix(1,0,0,1,106.20498657226562,296.9499969482422)"><path transform="matrix(0.017,0,0,-0.017,0,0)" d="M51 726L32 700C87 636 187 526 187 266C187 -10 83 -131 32 -194L51 -215C104 -165 273 -23 273 265C273 542 108 675 51 726Z" stroke="rgb(0,0,0)" stroke-opacity="1" stroke-width="8" fill="rgb(0,0,0)" fill-opacity="1"></path></g></g></g><g></g><g><g><g transform="matrix(1,0,0,1,2,346.47999572753906)"><path transform="matrix(0.017,0,0,-0.017,0,0)" d="M45 284C45 90 152 -18 343 -18C439 -18 510 5 600 67C600 67 610 103 610 103C610 103 600 110 600 110C506 53 454 35 376 35C219 35 133 131 133 309C133 447 190 653 418 653C489 653 541 639 597 603L597 519L624 519C629 576 637 619 651 665C575 694 518 706 456 706C276 706 45 578 45 284ZM958 204L929 77C925 60 923 42 923 26C923 4 932 -9 947 -9C970 -9 1011 17 1093 85L1086 106C1062 86 1033 59 1011 59C1002 59 996 68 996 82C996 87 996 90 997 93L1089 472L1079 481L1046 463C1005 478 988 482 961 482C933 482 913 477 886 464C824 433 791 403 766 354C722 265 691 145 691 67C691 23 706 -11 725 -11C762 -11 842 41 958 204ZM1006 414C984 305 965 253 931 201C874 117 813 59 781 59C769 59 763 72 763 99C763 163 791 280 826 360C850 415 873 433 921 433C944 433 962 429 1006 414ZM1154 388L1161 368L1193 389C1230 412 1233 414 1240 414C1251 414 1258 404 1258 389C1258 338 1217 145 1176 2L1183 -9C1208 -2 1231 4 1253 8C1272 134 1293 199 1339 268C1393 352 1468 414 1513 414C1524 414 1530 405 1530 390C1530 372 1527 351 1519 319L1467 107C1458 70 1454 47 1454 31C1454 6 1465 -9 1484 -9C1510 -9 1546 12 1644 85L1634 103L1608 86C1579 67 1557 56 1547 56C1540 56 1534 65 1534 76C1534 81 1535 92 1536 96L1602 372C1609 401 1613 429 1613 446C1613 469 1602 482 1582 482C1540 482 1471 444 1412 389C1374 354 1346 320 1294 247L1332 408C1336 426 1338 438 1338 449C1338 470 1330 482 1315 482C1294 482 1255 460 1182 408ZM1702 152C1702 46 1747 -11 1830 -11C1885 -11 1945 15 1990 57C2052 116 2096 230 2096 331C2096 425 2046 482 1963 482C1859 482 1702 382 1702 152ZM1926 444C1987 444 2020 399 2020 315C2020 219 1989 113 1945 60C1927 39 1901 27 1870 27C1812 27 1778 72 1778 151C1778 264 1817 387 1866 427C1879 438 1902 444 1926 444ZM2152 388L2159 368L2191 389C2228 412 2231 414 2238 414C2249 414 2256 404 2256 389C2256 338 2215 145 2174 2L2181 -9C2206 -2 2229 4 2251 8C2270 134 2291 199 2337 268C2391 352 2466 414 2511 414C2522 414 2528 405 2528 390C2528 372 2525 351 2517 319L2465 107C2456 70 2452 47 2452 31C2452 6 2463 -9 2482 -9C2508 -9 2544 12 2642 85L2632 103L2606 86C2577 67 2555 56 2545 56C2538 56 2532 65 2532 76C2532 81 2533 92 2534 96L2600 372C2607 401 2611 429 2611 446C2611 469 2600 482 2580 482C2538 482 2469 444 2410 389C2372 354 2344 320 2292 247L2330 408C2334 426 2336 438 2336 449C2336 470 2328 482 2313 482C2292 482 2253 460 2180 408ZM2717 388L2724 368L2756 389C2793 412 2796 414 2803 414C2813 414 2821 404 2821 391C2821 384 2817 361 2813 347L2747 107C2739 76 2734 49 2734 30C2734 6 2745 -9 2764 -9C2790 -9 2826 12 2924 85L2914 103L2888 86C2859 67 2836 56 2827 56C2820 56 2814 66 2814 76C2814 86 2816 95 2821 116L2898 420C2902 437 2904 448 2904 456C2904 473 2895 482 2879 482C2857 482 2820 461 2745 408ZM2911 712C2882 712 2853 679 2853 645C2853 620 2868 604 2892 604C2923 604 2947 633 2947 671C2947 695 2932 712 2911 712ZM3302 330L3325 330C3333 395 3340 432 3349 458C3325 473 3290 482 3253 482C3208 483 3135 463 3078 400C3024 352 2985 241 2985 136C2985 40 3027 -11 3107 -11C3161 -11 3209 9 3264 54L3314 95L3306 115L3291 105C3219 57 3181 40 3146 40C3090 40 3061 80 3061 159C3061 267 3096 371 3145 409C3166 425 3190 433 3221 433C3266 433 3302 414 3302 390ZM3637 204L3608 77C3604 60 3602 42 3602 26C3602 4 3611 -9 3626 -9C3649 -9 3690 17 3772 85L3765 106C3741 86 3712 59 3690 59C3681 59 3675 68 3675 82C3675 87 3675 90 3676 93L3768 472L3758 481L3725 463C3684 478 3667 482 3640 482C3612 482 3592 477 3565 464C3503 433 3470 403 3445 354C3401 265 3370 145 3370 67C3370 23 3385 -11 3404 -11C3441 -11 3521 41 3637 204ZM3685 414C3663 305 3644 253 3610 201C3553 117 3492 59 3460 59C3448 59 3442 72 3442 99C3442 163 3470 280 3505 360C3529 415 3552 433 3600 433C3623 433 3641 429 3685 414Z" stroke="rgb(0,0,0)" stroke-opacity="1" stroke-width="8" fill="rgb(0,0,0)" fill-opacity="1"></path></g></g></g><g><g><g transform="matrix(1,0,0,1,2,367.40501403808594)"><path transform="matrix(0.017,0,0,-0.017,0,0)" d="M345 437L329 437L350 549C366 635 394 673 440 673C470 673 497 658 512 634L522 638C527 654 537 685 545 705L550 720C534 727 503 733 480 733C469 733 453 730 445 726C421 715 339 654 316 630C294 608 282 578 271 521L256 442C215 422 195 414 170 405L165 383L246 383L237 327C207 132 170 -54 148 -123C130 -182 100 -213 64 -213C41 -213 30 -206 12 -184L-2 -188C-6 -211 -20 -259 -25 -268C-16 -273 -1 -276 10 -276C51 -276 105 -245 144 -198C215 -114 235 -18 319 383L423 383C427 402 434 425 440 439L436 446C407 439 408 437 345 437Z" stroke="rgb(0,0,0)" stroke-opacity="1" stroke-width="8" fill="rgb(0,0,0)" fill-opacity="1"></path></g></g><g><g transform="matrix(1,0,0,1,11.360015869140625,368.36500549316406)"><path transform="matrix(0.017,0,0,-0.017,0,0)" d="M146 266C146 526 243 632 301 700L282 726C225 675 60 542 60 266C60 159 85 58 133 -32C168 -99 200 -138 282 -215L301 -194C255 -137 146 -15 146 266Z" stroke="rgb(0,0,0)" stroke-opacity="1" stroke-width="8" fill="rgb(0,0,0)" fill-opacity="1"></path></g></g><g><g transform="matrix(1,0,0,1,17.0150146484375,367.40501403808594)"><path transform="matrix(0.017,0,0,-0.017,0,0)" d="M9 1C24 -7 40 -11 52 -11C85 -11 124 18 155 65L231 182L242 113C255 28 278 -11 314 -11C336 -11 368 6 400 35L449 79L440 98C404 68 379 53 363 53C348 53 335 63 325 83C316 102 305 139 300 168L282 269L317 318C364 383 391 406 422 406C438 406 450 398 455 383L469 387L484 472C472 479 463 482 454 482C414 482 374 446 312 354L275 299L269 347C257 446 230 482 171 482C145 482 123 474 114 461L56 378L73 368C103 402 123 416 142 416C175 416 197 375 214 277L225 215L185 153C142 86 108 54 80 54C65 54 54 58 52 63L41 91L21 88C21 53 13 27 9 1Z" stroke="rgb(0,0,0)" stroke-opacity="1" stroke-width="8" fill="rgb(0,0,0)" fill-opacity="1"></path></g></g><g><g transform="matrix(1,0,0,1,25.5050048828125,368.36500549316406)"><path transform="matrix(0.017,0,0,-0.017,0,0)" d="M51 726L32 700C87 636 187 526 187 266C187 -10 83 -131 32 -194L51 -215C104 -165 273 -23 273 265C273 542 108 675 51 726Z" stroke="rgb(0,0,0)" stroke-opacity="1" stroke-width="8" fill="rgb(0,0,0)" fill-opacity="1"></path></g></g><g><g transform="matrix(1,0,0,1,36.260009765625,367.40501403808594)"><path transform="matrix(0.017,0,0,-0.017,0,0)" d="M604 347L604 406L65 406L65 347ZM604 134L604 193L65 193L65 134Z" stroke="rgb(0,0,0)" stroke-opacity="1" stroke-width="8" fill="rgb(0,0,0)" fill-opacity="1"></path></g></g><g><g transform="matrix(1,0,0,1,52.714996337890625,367.40501403808594)"><path transform="matrix(0.017,0,0,-0.017,0,0)" d="M271 204L242 77C238 60 236 42 236 26C236 4 245 -9 260 -9C283 -9 324 17 406 85L399 106C375 86 346 59 324 59C315 59 309 68 309 82C309 87 309 90 310 93L402 472L392 481L359 463C318 478 301 482 274 482C246 482 226 477 199 464C137 433 104 403 79 354C35 265 4 145 4 67C4 23 19 -11 38 -11C75 -11 155 41 271 204ZM319 414C297 305 278 253 244 201C187 117 126 59 94 59C82 59 76 72 76 99C76 163 104 280 139 360C163 415 186 433 234 433C257 433 275 429 319 414Z" stroke="rgb(0,0,0)" stroke-opacity="1" stroke-width="8" fill="rgb(0,0,0)" fill-opacity="1"></path></g></g><g><g transform="matrix(1,0,0,1,60.2449951171875,368.36500549316406)"><path transform="matrix(0.017,0,0,-0.017,0,0)" d="M146 266C146 526 243 632 301 700L282 726C225 675 60 542 60 266C60 159 85 58 133 -32C168 -99 200 -138 282 -215L301 -194C255 -137 146 -15 146 266Z" stroke="rgb(0,0,0)" stroke-opacity="1" stroke-width="8" fill="rgb(0,0,0)" fill-opacity="1"></path></g></g><g><g transform="matrix(1,0,0,1,65.89999389648438,367.40501403808594)"><path transform="matrix(0.017,0,0,-0.017,0,0)" d="M9 1C24 -7 40 -11 52 -11C85 -11 124 18 155 65L231 182L242 113C255 28 278 -11 314 -11C336 -11 368 6 400 35L449 79L440 98C404 68 379 53 363 53C348 53 335 63 325 83C316 102 305 139 300 168L282 269L317 318C364 383 391 406 422 406C438 406 450 398 455 383L469 387L484 472C472 479 463 482 454 482C414 482 374 446 312 354L275 299L269 347C257 446 230 482 171 482C145 482 123 474 114 461L56 378L73 368C103 402 123 416 142 416C175 416 197 375 214 277L225 215L185 153C142 86 108 54 80 54C65 54 54 58 52 63L41 91L21 88C21 53 13 27 9 1Z" stroke="rgb(0,0,0)" stroke-opacity="1" stroke-width="8" fill="rgb(0,0,0)" fill-opacity="1"></path></g></g><g><g transform="matrix(1,0,0,1,77.77999877929688,367.40501403808594)"><path transform="matrix(0.017,0,0,-0.017,0,0)" d="M555 243L555 299L51 299L51 243Z" stroke="rgb(0,0,0)" stroke-opacity="1" stroke-width="8" fill="rgb(0,0,0)" fill-opacity="1"></path></g></g><g><g transform="matrix(1,0,0,1,91.45999145507812,367.40501403808594)"><path transform="matrix(0.017,0,0,-0.017,0,0)" d="M236 722L224 733C179 711 138 697 64 691L60 670L108 670C126 670 142 667 142 647C142 641 142 632 140 622L98 388C78 272 36 80 10 2L17 -9L86 7C94 64 108 164 148 236C193 317 296 414 338 414C349 414 360 407 360 393C360 375 355 342 345 303L294 107C288 85 281 55 281 31C281 6 291 -9 312 -9C344 -9 412 41 471 85L461 103L435 86C412 71 386 56 374 56C367 56 361 65 361 76C361 88 364 101 368 116L432 372C438 398 443 423 443 447C443 464 437 482 411 482C376 482 299 437 231 374C198 343 172 308 144 273L140 275Z" stroke="rgb(0,0,0)" stroke-opacity="1" stroke-width="8" fill="rgb(0,0,0)" fill-opacity="1"></path></g></g><g><g transform="matrix(1,0,0,1,99.94998168945312,368.36500549316406)"><path transform="matrix(0.017,0,0,-0.017,0,0)" d="M51 726L32 700C87 636 187 526 187 266C187 -10 83 -131 32 -194L51 -215C104 -165 273 -23 273 265C273 542 108 675 51 726Z" stroke="rgb(0,0,0)" stroke-opacity="1" stroke-width="8" fill="rgb(0,0,0)" fill-opacity="1"></path></g></g><g><g><g><g><g transform="matrix(1,0,0,1,106.57998657226562,362.50002136230466)"><path transform="matrix(0.0119,0,0,-0.0119,0,0)" d="M16 23L16 -3C203 -3 203 0 239 0C275 0 275 -3 468 -3L468 82C353 77 307 81 122 77L304 270C401 373 431 428 431 503C431 618 353 689 226 689C154 689 105 669 56 619L39 483L68 483L81 529C97 587 133 612 200 612C286 612 341 558 341 473C341 398 299 324 186 204Z" stroke="rgb(0,0,0)" stroke-opacity="1" stroke-width="8" fill="rgb(0,0,0)" fill-opacity="1"></path></g></g></g></g></g><g><g transform="matrix(1,0,0,1,116.93002319335938,367.40501403808594)"><path transform="matrix(0.017,0,0,-0.017,0,0)" d="M604 241L604 300L364 300L364 538L305 538L305 300L65 300L65 241L305 241L305 0L364 0L364 241Z" stroke="rgb(0,0,0)" stroke-opacity="1" stroke-width="8" fill="rgb(0,0,0)" fill-opacity="1"></path></g></g><g><g transform="matrix(1,0,0,1,131.67501831054688,367.40501403808594)"><path transform="matrix(0.017,0,0,-0.017,0,0)" d="M240 722L228 733C176 707 140 698 68 691L64 670L112 670C136 670 146 663 146 646C146 638 145 629 144 622L96 354C82 279 66 210 14 1L23 -9L90 8L113 132C122 180 146 225 180 259C249 59 281 -9 306 -9C319 -9 343 4 387 35L433 67L425 86L382 62C368 54 361 52 353 52C343 52 336 58 327 75C292 139 270 193 231 316L245 330C306 391 352 416 402 416C410 416 421 414 438 410L455 473C437 479 419 482 407 482C341 482 258 405 133 230Z" stroke="rgb(0,0,0)" stroke-opacity="1" stroke-width="8" fill="rgb(0,0,0)" fill-opacity="1"></path></g></g></g><g><g><g transform="matrix(1,0,0,1,2,388.52500915527344)"><path transform="matrix(0.017,0,0,-0.017,0,0)" d="M146 266C146 526 243 632 301 700L282 726C225 675 60 542 60 266C60 159 85 58 133 -32C168 -99 200 -138 282 -215L301 -194C255 -137 146 -15 146 266Z" stroke="rgb(0,0,0)" stroke-opacity="1" stroke-width="8" fill="rgb(0,0,0)" fill-opacity="1"></path></g></g><g><g transform="matrix(1,0,0,1,7.654998779296875,387.5650177001953)"><path transform="matrix(0.017,0,0,-0.017,0,0)" d="M236 722L224 733C179 711 138 697 64 691L60 670L108 670C126 670 142 667 142 647C142 641 142 632 140 622L98 388C78 272 36 80 10 2L17 -9L86 7C94 64 108 164 148 236C193 317 296 414 338 414C349 414 360 407 360 393C360 375 355 342 345 303L294 107C288 85 281 55 281 31C281 6 291 -9 312 -9C344 -9 412 41 471 85L461 103L435 86C412 71 386 56 374 56C367 56 361 65 361 76C361 88 364 101 368 116L432 372C438 398 443 423 443 447C443 464 437 482 411 482C376 482 299 437 231 374C198 343 172 308 144 273L140 275Z" stroke="rgb(0,0,0)" stroke-opacity="1" stroke-width="8" fill="rgb(0,0,0)" fill-opacity="1"></path></g></g><g><g transform="matrix(1,0,0,1,16.144989013671875,387.5650177001953)"><path transform="matrix(0.017,0,0,-0.017,0,0)" d="M204 123C177 114 159 108 106 93C99 17 74 -48 16 -144L30 -155L71 -136C152 -31 190 32 218 109Z" stroke="rgb(0,0,0)" stroke-opacity="1" stroke-width="8" fill="rgb(0,0,0)" fill-opacity="1"></path></g></g><g><g transform="matrix(1,0,0,1,23.779998779296875,387.5650177001953)"><path transform="matrix(0.017,0,0,-0.017,0,0)" d="M240 722L228 733C176 707 140 698 68 691L64 670L112 670C136 670 146 663 146 646C146 638 145 629 144 622L96 354C82 279 66 210 14 1L23 -9L90 8L113 132C122 180 146 225 180 259C249 59 281 -9 306 -9C319 -9 343 4 387 35L433 67L425 86L382 62C368 54 361 52 353 52C343 52 336 58 327 75C292 139 270 193 231 316L245 330C306 391 352 416 402 416C410 416 421 414 438 410L455 473C437 479 419 482 407 482C341 482 258 405 133 230Z" stroke="rgb(0,0,0)" stroke-opacity="1" stroke-width="8" fill="rgb(0,0,0)" fill-opacity="1"></path></g></g><g><g transform="matrix(1,0,0,1,31.7449951171875,388.52500915527344)"><path transform="matrix(0.017,0,0,-0.017,0,0)" d="M51 726L32 700C87 636 187 526 187 266C187 -10 83 -131 32 -194L51 -215C104 -165 273 -23 273 265C273 542 108 675 51 726Z" stroke="rgb(0,0,0)" stroke-opacity="1" stroke-width="8" fill="rgb(0,0,0)" fill-opacity="1"></path></g></g><g><g transform="matrix(1,0,0,1,40.790008544921875,387.5650177001953)"><path transform="matrix(0.017,0,0,-0.017,0,0)" d="M123 111C93 111 66 83 66 53C66 23 93 -5 122 -5C154 -5 182 22 182 53C182 83 154 111 123 111ZM123 456C93 456 66 428 66 398C66 368 93 340 122 340C154 340 182 367 182 397C182 428 154 456 123 456Z" stroke="rgb(0,0,0)" stroke-opacity="1" stroke-width="8" fill="rgb(0,0,0)" fill-opacity="1"></path></g></g><g><g transform="matrix(1,0,0,1,48.425018310546875,387.5650177001953)"><path transform="matrix(0.017,0,0,-0.017,0,0)" d="M328 111L304 94C251 56 203 36 167 36C120 36 91 73 91 133C91 158 94 185 99 214C116 218 225 248 250 259C335 296 374 342 374 404C374 451 340 482 290 482C222 496 112 423 75 349C45 299 15 180 15 113C15 35 59 -11 131 -11C188 -11 244 17 336 92ZM113 274C130 343 150 386 179 412C197 428 228 440 252 440C281 440 300 420 300 388C300 344 265 297 213 272C185 258 149 247 104 237ZM582 351L482 -144C471 -196 453 -231 435 -231C421 -231 403 -225 382 -212L374 -269C384 -274 397 -276 412 -276C452 -276 492 -233 528 -152C548 -107 562 -57 590 70L666 420C670 438 672 451 672 457C672 473 663 482 647 482C625 482 588 461 513 408L485 388L492 368L524 389C561 412 564 414 571 414C581 414 589 404 589 391C589 382 582 356 582 351ZM673 712C644 712 615 679 615 645C615 620 630 604 654 604C685 604 709 633 709 671C709 695 694 712 673 712ZM1043 111L1019 94C966 56 918 36 882 36C835 36 806 73 806 133C806 158 809 185 814 214C831 218 940 248 965 259C1050 296 1089 342 1089 404C1089 451 1055 482 1005 482C937 496 827 423 790 349C760 299 730 180 730 113C730 35 774 -11 846 -11C903 -11 959 17 1051 92ZM828 274C845 343 865 386 894 412C912 428 943 440 967 440C996 440 1015 420 1015 388C1015 344 980 297 928 272C900 258 864 247 819 237ZM1835 722L1823 733C1771 707 1735 698 1663 691L1659 670L1707 670C1731 670 1741 663 1741 646C1741 638 1740 629 1739 622L1711 468C1681 477 1654 482 1629 482C1560 482 1466 410 1420 323C1389 265 1369 170 1369 86C1369 21 1384 -11 1413 -11C1440 -11 1477 6 1511 33C1565 77 1598 116 1665 217L1642 126C1631 82 1626 50 1626 24C1626 3 1635 -9 1652 -9C1669 -9 1693 3 1727 28L1808 88L1798 107L1754 76C1740 66 1724 59 1715 59C1707 59 1701 68 1701 82C1701 90 1702 99 1709 128ZM1466 59C1450 59 1441 73 1441 98C1441 224 1487 380 1536 418C1549 428 1568 433 1595 433C1639 433 1668 427 1701 410L1689 351C1652 171 1511 59 1466 59ZM2179 111L2155 94C2102 56 2054 36 2018 36C1971 36 1942 73 1942 133C1942 158 1945 185 1950 214C1967 218 2076 248 2101 259C2186 296 2225 342 2225 404C2225 451 2191 482 2141 482C2073 496 1963 423 1926 349C1896 299 1866 180 1866 113C1866 35 1910 -11 1982 -11C2039 -11 2095 17 2187 92ZM1964 274C1981 343 2001 386 2030 412C2048 428 2079 440 2103 440C2132 440 2151 420 2151 388C2151 344 2116 297 2064 272C2036 258 2000 247 1955 237ZM2519 148C2514 97 2508 62 2497 16C2535 -2 2569 -11 2604 -11C2653 -11 2699 7 2750 47C2801 87 2822 124 2822 174C2822 228 2790 257 2716 271L2673 279C2613 290 2594 307 2594 348C2594 401 2639 442 2696 442C2737 442 2775 424 2791 397L2791 342L2814 342C2818 377 2822 404 2833 455C2794 474 2766 482 2733 482C2681 482 2620 452 2572 404C2546 377 2535 352 2535 316C2535 260 2566 228 2632 215L2695 203C2739 195 2755 177 2755 138C2755 73 2709 29 2638 29C2603 29 2572 40 2544 64L2544 148ZM2910 388L2917 368L2949 389C2986 412 2989 414 2996 414C3006 414 3014 404 3014 391C3014 384 3010 361 3006 347L2940 107C2932 76 2927 49 2927 30C2927 6 2938 -9 2957 -9C2983 -9 3019 12 3117 85L3107 103L3081 86C3052 67 3029 56 3020 56C3013 56 3007 66 3007 76C3007 86 3009 95 3014 116L3091 420C3095 437 3097 448 3097 456C3097 473 3088 482 3072 482C3050 482 3013 461 2938 408ZM3104 712C3075 712 3046 679 3046 645C3046 620 3061 604 3085 604C3116 604 3140 633 3140 671C3140 695 3125 712 3104 712ZM3883 103L3857 86C3828 67 3806 56 3796 56C3789 56 3783 65 3783 76C3783 86 3785 95 3790 116L3865 413C3869 430 3872 446 3872 454C3872 471 3862 482 3846 482C3817 482 3779 464 3718 421C3655 376 3620 341 3571 272L3601 409C3605 429 3608 444 3608 451C3608 470 3598 482 3582 482C3552 482 3506 460 3451 418C3407 384 3387 363 3322 275L3355 408C3359 424 3361 439 3361 451C3361 470 3352 482 3338 482C3317 482 3279 461 3205 408L3177 388L3184 368C3221 391 3256 414 3263 414C3274 414 3281 404 3281 389C3281 338 3240 145 3199 2L3202 -9L3270 6L3292 108C3316 219 3343 278 3398 338C3440 384 3485 414 3513 414C3520 414 3524 406 3524 393C3524 358 3502 244 3461 69L3445 2L3450 -9L3519 6L3540 113C3556 194 3590 269 3634 318C3689 379 3739 414 3771 414C3779 414 3784 405 3784 389C3784 365 3781 351 3759 264C3719 105 3703 84 3703 31C3703 6 3714 -9 3733 -9C3759 -9 3795 12 3893 85ZM4258 111L4234 94C4181 56 4133 36 4097 36C4050 36 4021 73 4021 133C4021 158 4024 185 4029 214C4046 218 4155 248 4180 259C4265 296 4304 342 4304 404C4304 451 4270 482 4220 482C4152 496 4042 423 4005 349C3975 299 3945 180 3945 113C3945 35 3989 -11 4061 -11C4118 -11 4174 17 4266 92ZM4043 274C4060 343 4080 386 4109 412C4127 428 4158 440 4182 440C4211 440 4230 420 4230 388C4230 344 4195 297 4143 272C4115 258 4079 247 4034 237ZM4443 390L4387 107C4386 99 4374 61 4374 31C4374 6 4385 -9 4404 -9C4439 -9 4474 11 4552 74L4583 99L4573 117L4528 86C4499 66 4479 56 4468 56C4459 56 4454 64 4454 76C4454 102 4468 183 4497 328L4510 390L4617 390L4628 440C4590 436 4556 434 4518 434C4534 528 4545 577 4563 631L4552 646C4532 634 4505 622 4474 610L4449 440C4405 419 4379 408 4361 403L4359 390ZM5018 365C5021 403 5026 435 5034 476C5023 481 5019 482 5014 482C4983 482 4952 458 4916 407C4877 351 4838 291 4822 256L4854 408C4858 425 4860 438 4860 450C4860 470 4852 482 4837 482C4816 482 4778 461 4704 408L4676 388L4683 368L4715 389C4743 407 4754 412 4763 412C4773 412 4780 403 4780 390C4780 332 4737 126 4697 -2L4707 -9C4722 -4 4738 -1 4761 4L4774 6L4800 126C4818 209 4841 262 4885 319C4919 363 4946 384 4968 384C4983 384 4993 379 5004 365ZM5072 388L5079 368L5111 389C5148 412 5151 414 5158 414C5168 414 5176 404 5176 391C5176 384 5172 361 5168 347L5102 107C5094 76 5089 49 5089 30C5089 6 5100 -9 5119 -9C5145 -9 5181 12 5279 85L5269 103L5243 86C5214 67 5191 56 5182 56C5175 56 5169 66 5169 76C5169 86 5171 95 5176 116L5253 420C5257 437 5259 448 5259 456C5259 473 5250 482 5234 482C5212 482 5175 461 5100 408ZM5266 712C5237 712 5208 679 5208 645C5208 620 5223 604 5247 604C5278 604 5302 633 5302 671C5302 695 5287 712 5266 712ZM5586 204L5557 77C5553 60 5551 42 5551 26C5551 4 5560 -9 5575 -9C5598 -9 5639 17 5721 85L5714 106C5690 86 5661 59 5639 59C5630 59 5624 68 5624 82C5624 87 5624 90 5625 93L5717 472L5707 481L5674 463C5633 478 5616 482 5589 482C5561 482 5541 477 5514 464C5452 433 5419 403 5394 354C5350 265 5319 145 5319 67C5319 23 5334 -11 5353 -11C5390 -11 5470 41 5586 204ZM5634 414C5612 305 5593 253 5559 201C5502 117 5441 59 5409 59C5397 59 5391 72 5391 99C5391 163 5419 280 5454 360C5478 415 5501 433 5549 433C5572 433 5590 429 5634 414Z" stroke="rgb(0,0,0)" stroke-opacity="1" stroke-width="8" fill="rgb(0,0,0)" fill-opacity="1"></path></g></g></g><g></g><g></g><g></g></g></svg>