<svg xmlns="http://www.w3.org/2000/svg" xmlns:xlink="http://www.w3.org/1999/xlink" width="94.19500732421875" height="44.31999969482422" style="width:94.19500732421875px;height:44.31999969482422px;font-family:Asana-Math, Asana;background:#FFF;"><g><g><g><g transform="matrix(1,0,0,1,2,18.040000915527344)"><path transform="matrix(0.017,0,0,-0.017,0,0)" d="M345 437L329 437L350 549C366 635 394 673 440 673C470 673 497 658 512 634L522 638C527 654 537 685 545 705L550 720C534 727 503 733 480 733C469 733 453 730 445 726C421 715 339 654 316 630C294 608 282 578 271 521L256 442C215 422 195 414 170 405L165 383L246 383L237 327C207 132 170 -54 148 -123C130 -182 100 -213 64 -213C41 -213 30 -206 12 -184L-2 -188C-6 -211 -20 -259 -25 -268C-16 -273 -1 -276 10 -276C51 -276 105 -245 144 -198C215 -114 235 -18 319 383L423 383C427 402 434 425 440 439L436 446C407 439 408 437 345 437Z" stroke="rgb(0,0,0)" stroke-opacity="1" stroke-width="8" fill="rgb(0,0,0)" fill-opacity="1"></path></g></g><g><g transform="matrix(1,0,0,1,11.3599853515625,19)"><path transform="matrix(0.017,0,0,-0.017,0,0)" d="M146 266C146 526 243 632 301 700L282 726C225 675 60 542 60 266C60 159 85 58 133 -32C168 -99 200 -138 282 -215L301 -194C255 -137 146 -15 146 266Z" stroke="rgb(0,0,0)" stroke-opacity="1" stroke-width="8" fill="rgb(0,0,0)" fill-opacity="1"></path></g></g><g><g transform="matrix(1,0,0,1,17.014984130859375,18.040000915527344)"><path transform="matrix(0.017,0,0,-0.017,0,0)" d="M9 1C24 -7 40 -11 52 -11C85 -11 124 18 155 65L231 182L242 113C255 28 278 -11 314 -11C336 -11 368 6 400 35L449 79L440 98C404 68 379 53 363 53C348 53 335 63 325 83C316 102 305 139 300 168L282 269L317 318C364 383 391 406 422 406C438 406 450 398 455 383L469 387L484 472C472 479 463 482 454 482C414 482 374 446 312 354L275 299L269 347C257 446 230 482 171 482C145 482 123 474 114 461L56 378L73 368C103 402 123 416 142 416C175 416 197 375 214 277L225 215L185 153C142 86 108 54 80 54C65 54 54 58 52 63L41 91L21 88C21 53 13 27 9 1Z" stroke="rgb(0,0,0)" stroke-opacity="1" stroke-width="8" fill="rgb(0,0,0)" fill-opacity="1"></path></g></g><g><g transform="matrix(1,0,0,1,25.5050048828125,19)"><path transform="matrix(0.017,0,0,-0.017,0,0)" d="M51 726L32 700C87 636 187 526 187 266C187 -10 83 -131 32 -194L51 -215C104 -165 273 -23 273 265C273 542 108 675 51 726Z" stroke="rgb(0,0,0)" stroke-opacity="1" stroke-width="8" fill="rgb(0,0,0)" fill-opacity="1"></path></g></g><g><g transform="matrix(1,0,0,1,36.259979248046875,18.040000915527344)"><path transform="matrix(0.017,0,0,-0.017,0,0)" d="M604 347L604 406L65 406L65 347ZM604 134L604 193L65 193L65 134Z" stroke="rgb(0,0,0)" stroke-opacity="1" stroke-width="8" fill="rgb(0,0,0)" fill-opacity="1"></path></g></g><g><g transform="matrix(1,0,0,1,52.714996337890625,18.040000915527344)"><path transform="matrix(0.017,0,0,-0.017,0,0)" d="M730 103L704 86C675 67 653 56 643 56C636 56 630 65 630 76C630 86 632 95 637 116L712 413C716 430 719 446 719 454C719 471 709 482 693 482C664 482 626 464 565 421C502 376 467 341 418 272L448 409C452 429 455 444 455 451C455 470 445 482 429 482C399 482 353 460 298 418C254 384 234 363 169 275L202 408C206 424 208 439 208 451C208 470 199 482 185 482C164 482 126 461 52 408L24 388L31 368C68 391 103 414 110 414C121 414 128 404 128 389C128 338 87 145 46 2L49 -9L117 6L139 108C163 219 190 278 245 338C287 384 332 414 360 414C367 414 371 406 371 393C371 358 349 244 308 69L292 2L297 -9L366 6L387 113C403 194 437 269 481 318C536 379 586 414 618 414C626 414 631 405 631 389C631 365 628 351 606 264C566 105 550 84 550 31C550 6 561 -9 580 -9C606 -9 642 12 740 85ZM786 1C801 -7 817 -11 829 -11C862 -11 901 18 932 65L1008 182L1019 113C1032 28 1055 -11 1091 -11C1113 -11 1145 6 1177 35L1226 79L1217 98C1181 68 1156 53 1140 53C1125 53 1112 63 1102 83C1093 102 1082 139 1077 168L1059 269L1094 318C1141 383 1168 406 1199 406C1215 406 1227 398 1232 383L1246 387L1261 472C1249 479 1240 482 1231 482C1191 482 1151 446 1089 354L1052 299L1046 347C1034 446 1007 482 948 482C922 482 900 474 891 461L833 378L850 368C880 402 900 416 919 416C952 416 974 375 991 277L1002 215L962 153C919 86 885 54 857 54C842 54 831 58 829 63L818 91L798 88C798 53 790 27 786 1Z" stroke="rgb(0,0,0)" stroke-opacity="1" stroke-width="8" fill="rgb(0,0,0)" fill-opacity="1"></path></g></g></g><g><g><g transform="matrix(1,0,0,1,2,38.20000457763672)"><path transform="matrix(0.017,0,0,-0.017,0,0)" d="M730 103L704 86C675 67 653 56 643 56C636 56 630 65 630 76C630 86 632 95 637 116L712 413C716 430 719 446 719 454C719 471 709 482 693 482C664 482 626 464 565 421C502 376 467 341 418 272L448 409C452 429 455 444 455 451C455 470 445 482 429 482C399 482 353 460 298 418C254 384 234 363 169 275L202 408C206 424 208 439 208 451C208 470 199 482 185 482C164 482 126 461 52 408L24 388L31 368C68 391 103 414 110 414C121 414 128 404 128 389C128 338 87 145 46 2L49 -9L117 6L139 108C163 219 190 278 245 338C287 384 332 414 360 414C367 414 371 406 371 393C371 358 349 244 308 69L292 2L297 -9L366 6L387 113C403 194 437 269 481 318C536 379 586 414 618 414C626 414 631 405 631 389C631 365 628 351 606 264C566 105 550 84 550 31C550 6 561 -9 580 -9C606 -9 642 12 740 85Z" stroke="rgb(0,0,0)" stroke-opacity="1" stroke-width="8" fill="rgb(0,0,0)" fill-opacity="1"></path></g></g><g><g transform="matrix(1,0,0,1,18.605010986328125,38.20000457763672)"><path transform="matrix(0.017,0,0,-0.017,0,0)" d="M123 111C93 111 66 83 66 53C66 23 93 -5 122 -5C154 -5 182 22 182 53C182 83 154 111 123 111ZM123 456C93 456 66 428 66 398C66 368 93 340 122 340C154 340 182 367 182 397C182 428 154 456 123 456Z" stroke="rgb(0,0,0)" stroke-opacity="1" stroke-width="8" fill="rgb(0,0,0)" fill-opacity="1"></path></g></g><g><g transform="matrix(1,0,0,1,26.239990234375,38.20000457763672)"><path transform="matrix(0.017,0,0,-0.017,0,0)" d="M176 -11C232 -11 347 62 390 125C431 186 465 296 465 371C465 438 442 482 406 482C364 482 311 456 259 409C218 374 198 348 162 289L186 408C189 425 191 440 191 452C191 471 183 482 169 482C148 482 110 461 36 408L8 388L15 368L47 389C75 407 86 412 95 412C105 412 112 403 112 389C112 381 110 361 108 351L50 8C40 -52 21 -143 1 -233L-7 -270L0 -276C21 -269 41 -264 73 -259L115 3C136 -4 158 -11 176 -11ZM143 165C165 293 272 424 355 424C381 424 393 402 393 356C393 275 353 156 300 80C280 51 248 36 207 36C176 36 151 43 125 59ZM827 111L803 94C750 56 702 36 666 36C619 36 590 73 590 133C590 158 593 185 598 214C615 218 724 248 749 259C834 296 873 342 873 404C873 451 839 482 789 482C721 496 611 423 574 349C544 299 514 180 514 113C514 35 558 -11 630 -11C687 -11 743 17 835 92ZM612 274C629 343 649 386 678 412C696 428 727 440 751 440C780 440 799 420 799 388C799 344 764 297 712 272C684 258 648 247 603 237ZM911 388L918 368L950 389C987 412 990 414 997 414C1008 414 1015 404 1015 389C1015 338 974 145 933 2L940 -9C965 -2 988 4 1010 8C1029 134 1050 199 1096 268C1150 352 1225 414 1270 414C1281 414 1287 405 1287 390C1287 372 1284 351 1276 319L1224 107C1215 70 1211 47 1211 31C1211 6 1222 -9 1241 -9C1267 -9 1303 12 1401 85L1391 103L1365 86C1336 67 1314 56 1304 56C1297 56 1291 65 1291 76C1291 81 1292 92 1293 96L1359 372C1366 401 1370 429 1370 446C1370 469 1359 482 1339 482C1297 482 1228 444 1169 389C1131 354 1103 320 1051 247L1089 408C1093 426 1095 438 1095 449C1095 470 1087 482 1072 482C1051 482 1012 460 939 408ZM1925 722L1913 733C1861 707 1825 698 1753 691L1749 670L1797 670C1821 670 1831 663 1831 646C1831 638 1830 629 1829 622L1801 468C1771 477 1744 482 1719 482C1650 482 1556 410 1510 323C1479 265 1459 170 1459 86C1459 21 1474 -11 1503 -11C1530 -11 1567 6 1601 33C1655 77 1688 116 1755 217L1732 126C1721 82 1716 50 1716 24C1716 3 1725 -9 1742 -9C1759 -9 1783 3 1817 28L1898 88L1888 107L1844 76C1830 66 1814 59 1805 59C1797 59 1791 68 1791 82C1791 90 1792 99 1799 128ZM1556 59C1540 59 1531 73 1531 98C1531 224 1577 380 1626 418C1639 428 1658 433 1685 433C1729 433 1758 427 1791 410L1779 351C1742 171 1601 59 1556 59ZM1975 388L1982 368L2014 389C2051 412 2054 414 2061 414C2071 414 2079 404 2079 391C2079 384 2075 361 2071 347L2005 107C1997 76 1992 49 1992 30C1992 6 2003 -9 2022 -9C2048 -9 2084 12 2182 85L2172 103L2146 86C2117 67 2094 56 2085 56C2078 56 2072 66 2072 76C2072 86 2074 95 2079 116L2156 420C2160 437 2162 448 2162 456C2162 473 2153 482 2137 482C2115 482 2078 461 2003 408ZM2169 712C2140 712 2111 679 2111 645C2111 620 2126 604 2150 604C2181 604 2205 633 2205 671C2205 695 2190 712 2169 712ZM2546 111L2522 94C2469 56 2421 36 2385 36C2338 36 2309 73 2309 133C2309 158 2312 185 2317 214C2334 218 2443 248 2468 259C2553 296 2592 342 2592 404C2592 451 2558 482 2508 482C2440 496 2330 423 2293 349C2263 299 2233 180 2233 113C2233 35 2277 -11 2349 -11C2406 -11 2462 17 2554 92ZM2331 274C2348 343 2368 386 2397 412C2415 428 2446 440 2470 440C2499 440 2518 420 2518 388C2518 344 2483 297 2431 272C2403 258 2367 247 2322 237ZM2630 388L2637 368L2669 389C2706 412 2709 414 2716 414C2727 414 2734 404 2734 389C2734 338 2693 145 2652 2L2659 -9C2684 -2 2707 4 2729 8C2748 134 2769 199 2815 268C2869 352 2944 414 2989 414C3000 414 3006 405 3006 390C3006 372 3003 351 2995 319L2943 107C2934 70 2930 47 2930 31C2930 6 2941 -9 2960 -9C2986 -9 3022 12 3120 85L3110 103L3084 86C3055 67 3033 56 3023 56C3016 56 3010 65 3010 76C3010 81 3011 92 3012 96L3078 372C3085 401 3089 429 3089 446C3089 469 3078 482 3058 482C3016 482 2947 444 2888 389C2850 354 2822 320 2770 247L2808 408C2812 426 2814 438 2814 449C2814 470 2806 482 2791 482C2770 482 2731 460 2658 408ZM3286 390L3230 107C3229 99 3217 61 3217 31C3217 6 3228 -9 3247 -9C3282 -9 3317 11 3395 74L3426 99L3416 117L3371 86C3342 66 3322 56 3311 56C3302 56 3297 64 3297 76C3297 102 3311 183 3340 328L3353 390L3460 390L3471 440C3433 436 3399 434 3361 434C3377 528 3388 577 3406 631L3395 646C3375 634 3348 622 3317 610L3292 440C3248 419 3222 408 3204 403L3202 390ZM3821 111L3797 94C3744 56 3696 36 3660 36C3613 36 3584 73 3584 133C3584 158 3587 185 3592 214C3609 218 3718 248 3743 259C3828 296 3867 342 3867 404C3867 451 3833 482 3783 482C3715 496 3605 423 3568 349C3538 299 3508 180 3508 113C3508 35 3552 -11 3624 -11C3681 -11 3737 17 3829 92ZM3606 274C3623 343 3643 386 3672 412C3690 428 3721 440 3745 440C3774 440 3793 420 3793 388C3793 344 3758 297 3706 272C3678 258 3642 247 3597 237Z" stroke="rgb(0,0,0)" stroke-opacity="1" stroke-width="8" fill="rgb(0,0,0)" fill-opacity="1"></path></g></g></g></g></svg>