<svg xmlns="http://www.w3.org/2000/svg" xmlns:xlink="http://www.w3.org/1999/xlink" width="144.4300079345703" height="428.3050231933594" style="width:144.4300079345703px;height:428.3050231933594px;font-family:Asana-Math, Asana;background:#FFF;"><g><g><g><g transform="matrix(1,0,0,1,2,18.040000915527344)"><path transform="matrix(0.017,0,0,-0.017,0,0)" d="M316 -3C388 -3 437 8 489 34C645 114 741 265 741 431C741 529 711 599 650 642C604 675 519 693 424 692L220 689L210 689C201 689 198 689 97 692L94 664L147 662C171 661 182 653 182 635C182 621 178 589 173 559L86 55C81 31 56 29 33 23L28 -3L121 0L176 0C211 0 282 -3 316 -3ZM384 655C566 655 649 579 649 415C649 225 549 41 329 41C285 41 236 46 168 56C168 68 169 75 172 93L268 650C291 650 349 655 384 655ZM1105 111L1081 94C1028 56 980 36 944 36C897 36 868 73 868 133C868 158 871 185 876 214C893 218 1002 248 1027 259C1112 296 1151 342 1151 404C1151 451 1117 482 1067 482C999 496 889 423 852 349C822 299 792 180 792 113C792 35 836 -11 908 -11C965 -11 1021 17 1113 92ZM890 274C907 343 927 386 956 412C974 428 1005 440 1029 440C1058 440 1077 420 1077 388C1077 344 1042 297 990 272C962 258 926 247 881 237ZM1510 437L1494 437L1515 549C1531 635 1559 673 1605 673C1635 673 1662 658 1677 634L1687 638C1692 654 1702 685 1710 705L1715 720C1699 727 1668 733 1645 733C1634 733 1618 730 1610 726C1586 715 1504 654 1481 630C1459 608 1447 578 1436 521L1421 442C1380 422 1360 414 1335 405L1330 383L1411 383L1402 327C1372 132 1335 -54 1313 -123C1295 -182 1265 -213 1229 -213C1206 -213 1195 -206 1177 -184L1163 -188C1159 -211 1145 -259 1140 -268C1149 -273 1164 -276 1175 -276C1216 -276 1270 -245 1309 -198C1380 -114 1400 -18 1484 383L1588 383C1592 402 1599 425 1605 439L1601 446C1572 439 1573 437 1510 437ZM1749 388L1756 368L1788 389C1825 412 1828 414 1835 414C1845 414 1853 404 1853 391C1853 384 1849 361 1845 347L1779 107C1771 76 1766 49 1766 30C1766 6 1777 -9 1796 -9C1822 -9 1858 12 1956 85L1946 103L1920 86C1891 67 1868 56 1859 56C1852 56 1846 66 1846 76C1846 86 1848 95 1853 116L1930 420C1934 437 1936 448 1936 456C1936 473 1927 482 1911 482C1889 482 1852 461 1777 408ZM1943 712C1914 712 1885 679 1885 645C1885 620 1900 604 1924 604C1955 604 1979 633 1979 671C1979 695 1964 712 1943 712ZM2016 388L2023 368L2055 389C2092 412 2095 414 2102 414C2113 414 2120 404 2120 389C2120 338 2079 145 2038 2L2045 -9C2070 -2 2093 4 2115 8C2134 134 2155 199 2201 268C2255 352 2330 414 2375 414C2386 414 2392 405 2392 390C2392 372 2389 351 2381 319L2329 107C2320 70 2316 47 2316 31C2316 6 2327 -9 2346 -9C2372 -9 2408 12 2506 85L2496 103L2470 86C2441 67 2419 56 2409 56C2402 56 2396 65 2396 76C2396 81 2397 92 2398 96L2464 372C2471 401 2475 429 2475 446C2475 469 2464 482 2444 482C2402 482 2333 444 2274 389C2236 354 2208 320 2156 247L2194 408C2198 426 2200 438 2200 449C2200 470 2192 482 2177 482C2156 482 2117 460 2044 408ZM2581 388L2588 368L2620 389C2657 412 2660 414 2667 414C2677 414 2685 404 2685 391C2685 384 2681 361 2677 347L2611 107C2603 76 2598 49 2598 30C2598 6 2609 -9 2628 -9C2654 -9 2690 12 2788 85L2778 103L2752 86C2723 67 2700 56 2691 56C2684 56 2678 66 2678 76C2678 86 2680 95 2685 116L2762 420C2766 437 2768 448 2768 456C2768 473 2759 482 2743 482C2721 482 2684 461 2609 408ZM2775 712C2746 712 2717 679 2717 645C2717 620 2732 604 2756 604C2787 604 2811 633 2811 671C2811 695 2796 712 2775 712ZM3166 330L3189 330C3197 395 3204 432 3213 458C3189 473 3154 482 3117 482C3072 483 2999 463 2942 400C2888 352 2849 241 2849 136C2849 40 2891 -11 2971 -11C3025 -11 3073 9 3128 54L3178 95L3170 115L3155 105C3083 57 3045 40 3010 40C2954 40 2925 80 2925 159C2925 267 2960 371 3009 409C3030 425 3054 433 3085 433C3130 433 3166 414 3166 390ZM3264 388L3271 368L3303 389C3340 412 3343 414 3350 414C3360 414 3368 404 3368 391C3368 384 3364 361 3360 347L3294 107C3286 76 3281 49 3281 30C3281 6 3292 -9 3311 -9C3337 -9 3373 12 3471 85L3461 103L3435 86C3406 67 3383 56 3374 56C3367 56 3361 66 3361 76C3361 86 3363 95 3368 116L3445 420C3449 437 3451 448 3451 456C3451 473 3442 482 3426 482C3404 482 3367 461 3292 408ZM3458 712C3429 712 3400 679 3400 645C3400 620 3415 604 3439 604C3470 604 3494 633 3494 671C3494 695 3479 712 3458 712ZM3524 152C3524 46 3569 -11 3652 -11C3707 -11 3767 15 3812 57C3874 116 3918 230 3918 331C3918 425 3868 482 3785 482C3681 482 3524 382 3524 152ZM3748 444C3809 444 3842 399 3842 315C3842 219 3811 113 3767 60C3749 39 3723 27 3692 27C3634 27 3600 72 3600 151C3600 264 3639 387 3688 427C3701 438 3724 444 3748 444ZM3974 388L3981 368L4013 389C4050 412 4053 414 4060 414C4071 414 4078 404 4078 389C4078 338 4037 145 3996 2L4003 -9C4028 -2 4051 4 4073 8C4092 134 4113 199 4159 268C4213 352 4288 414 4333 414C4344 414 4350 405 4350 390C4350 372 4347 351 4339 319L4287 107C4278 70 4274 47 4274 31C4274 6 4285 -9 4304 -9C4330 -9 4366 12 4464 85L4454 103L4428 86C4399 67 4377 56 4367 56C4360 56 4354 65 4354 76C4354 81 4355 92 4356 96L4422 372C4429 401 4433 429 4433 446C4433 469 4422 482 4402 482C4360 482 4291 444 4232 389C4194 354 4166 320 4114 247L4152 408C4156 426 4158 438 4158 449C4158 470 4150 482 4135 482C4114 482 4075 460 4002 408Z" stroke="rgb(0,0,0)" stroke-opacity="1" stroke-width="8" fill="rgb(0,0,0)" fill-opacity="1"></path></g></g></g><g><g><g transform="matrix(1,0,0,1,2,38.20000076293945)"><path transform="matrix(0.017,0,0,-0.017,0,0)" d="M345 437L329 437L350 549C366 635 394 673 440 673C470 673 497 658 512 634L522 638C527 654 537 685 545 705L550 720C534 727 503 733 480 733C469 733 453 730 445 726C421 715 339 654 316 630C294 608 282 578 271 521L256 442C215 422 195 414 170 405L165 383L246 383L237 327C207 132 170 -54 148 -123C130 -182 100 -213 64 -213C41 -213 30 -206 12 -184L-2 -188C-6 -211 -20 -259 -25 -268C-16 -273 -1 -276 10 -276C51 -276 105 -245 144 -198C215 -114 235 -18 319 383L423 383C427 402 434 425 440 439L436 446C407 439 408 437 345 437Z" stroke="rgb(0,0,0)" stroke-opacity="1" stroke-width="8" fill="rgb(0,0,0)" fill-opacity="1"></path></g></g><g><g transform="matrix(1,0,0,1,11.360015869140625,39.15999984741211)"><path transform="matrix(0.017,0,0,-0.017,0,0)" d="M146 266C146 526 243 632 301 700L282 726C225 675 60 542 60 266C60 159 85 58 133 -32C168 -99 200 -138 282 -215L301 -194C255 -137 146 -15 146 266Z" stroke="rgb(0,0,0)" stroke-opacity="1" stroke-width="8" fill="rgb(0,0,0)" fill-opacity="1"></path></g></g><g><g transform="matrix(1,0,0,1,17.0150146484375,38.20000076293945)"><path transform="matrix(0.017,0,0,-0.017,0,0)" d="M9 1C24 -7 40 -11 52 -11C85 -11 124 18 155 65L231 182L242 113C255 28 278 -11 314 -11C336 -11 368 6 400 35L449 79L440 98C404 68 379 53 363 53C348 53 335 63 325 83C316 102 305 139 300 168L282 269L317 318C364 383 391 406 422 406C438 406 450 398 455 383L469 387L484 472C472 479 463 482 454 482C414 482 374 446 312 354L275 299L269 347C257 446 230 482 171 482C145 482 123 474 114 461L56 378L73 368C103 402 123 416 142 416C175 416 197 375 214 277L225 215L185 153C142 86 108 54 80 54C65 54 54 58 52 63L41 91L21 88C21 53 13 27 9 1Z" stroke="rgb(0,0,0)" stroke-opacity="1" stroke-width="8" fill="rgb(0,0,0)" fill-opacity="1"></path></g></g><g><g transform="matrix(1,0,0,1,25.5050048828125,39.15999984741211)"><path transform="matrix(0.017,0,0,-0.017,0,0)" d="M51 726L32 700C87 636 187 526 187 266C187 -10 83 -131 32 -194L51 -215C104 -165 273 -23 273 265C273 542 108 675 51 726Z" stroke="rgb(0,0,0)" stroke-opacity="1" stroke-width="8" fill="rgb(0,0,0)" fill-opacity="1"></path></g></g><g><g transform="matrix(1,0,0,1,36.260009765625,38.20000076293945)"><path transform="matrix(0.017,0,0,-0.017,0,0)" d="M604 347L604 406L65 406L65 347ZM604 134L604 193L65 193L65 134Z" stroke="rgb(0,0,0)" stroke-opacity="1" stroke-width="8" fill="rgb(0,0,0)" fill-opacity="1"></path></g></g><g><g transform="matrix(1,0,0,1,52.71502685546875,38.20000076293945)"><path transform="matrix(0.017,0,0,-0.017,0,0)" d="M730 103L704 86C675 67 653 56 643 56C636 56 630 65 630 76C630 86 632 95 637 116L712 413C716 430 719 446 719 454C719 471 709 482 693 482C664 482 626 464 565 421C502 376 467 341 418 272L448 409C452 429 455 444 455 451C455 470 445 482 429 482C399 482 353 460 298 418C254 384 234 363 169 275L202 408C206 424 208 439 208 451C208 470 199 482 185 482C164 482 126 461 52 408L24 388L31 368C68 391 103 414 110 414C121 414 128 404 128 389C128 338 87 145 46 2L49 -9L117 6L139 108C163 219 190 278 245 338C287 384 332 414 360 414C367 414 371 406 371 393C371 358 349 244 308 69L292 2L297 -9L366 6L387 113C403 194 437 269 481 318C536 379 586 414 618 414C626 414 631 405 631 389C631 365 628 351 606 264C566 105 550 84 550 31C550 6 561 -9 580 -9C606 -9 642 12 740 85ZM786 1C801 -7 817 -11 829 -11C862 -11 901 18 932 65L1008 182L1019 113C1032 28 1055 -11 1091 -11C1113 -11 1145 6 1177 35L1226 79L1217 98C1181 68 1156 53 1140 53C1125 53 1112 63 1102 83C1093 102 1082 139 1077 168L1059 269L1094 318C1141 383 1168 406 1199 406C1215 406 1227 398 1232 383L1246 387L1261 472C1249 479 1240 482 1231 482C1191 482 1151 446 1089 354L1052 299L1046 347C1034 446 1007 482 948 482C922 482 900 474 891 461L833 378L850 368C880 402 900 416 919 416C952 416 974 375 991 277L1002 215L962 153C919 86 885 54 857 54C842 54 831 58 829 63L818 91L798 88C798 53 790 27 786 1Z" stroke="rgb(0,0,0)" stroke-opacity="1" stroke-width="8" fill="rgb(0,0,0)" fill-opacity="1"></path></g></g><g><g transform="matrix(1,0,0,1,77.7950439453125,38.20000076293945)"><path transform="matrix(0.017,0,0,-0.017,0,0)" d="M604 241L604 300L364 300L364 538L305 538L305 300L65 300L65 241L305 241L305 0L364 0L364 241Z" stroke="rgb(0,0,0)" stroke-opacity="1" stroke-width="8" fill="rgb(0,0,0)" fill-opacity="1"></path></g></g><g><g transform="matrix(1,0,0,1,92.5400390625,38.20000076293945)"><path transform="matrix(0.017,0,0,-0.017,0,0)" d="M24 388L31 368L63 389C100 412 103 414 110 414C121 414 128 404 128 389C128 338 87 145 46 2L53 -9C78 -2 101 4 123 8C142 134 163 199 209 268C263 352 338 414 383 414C394 414 400 405 400 390C400 372 397 351 389 319L337 107C328 70 324 47 324 31C324 6 335 -9 354 -9C380 -9 416 12 514 85L504 103L478 86C449 67 427 56 417 56C410 56 404 65 404 76C404 81 405 92 406 96L472 372C479 401 483 429 483 446C483 469 472 482 452 482C410 482 341 444 282 389C244 354 216 320 164 247L202 408C206 426 208 438 208 449C208 470 200 482 185 482C164 482 125 460 52 408Z" stroke="rgb(0,0,0)" stroke-opacity="1" stroke-width="8" fill="rgb(0,0,0)" fill-opacity="1"></path></g></g></g><g><g><g transform="matrix(1,0,0,1,2,58.36000442504883)"><path transform="matrix(0.017,0,0,-0.017,0,0)" d="M730 103L704 86C675 67 653 56 643 56C636 56 630 65 630 76C630 86 632 95 637 116L712 413C716 430 719 446 719 454C719 471 709 482 693 482C664 482 626 464 565 421C502 376 467 341 418 272L448 409C452 429 455 444 455 451C455 470 445 482 429 482C399 482 353 460 298 418C254 384 234 363 169 275L202 408C206 424 208 439 208 451C208 470 199 482 185 482C164 482 126 461 52 408L24 388L31 368C68 391 103 414 110 414C121 414 128 404 128 389C128 338 87 145 46 2L49 -9L117 6L139 108C163 219 190 278 245 338C287 384 332 414 360 414C367 414 371 406 371 393C371 358 349 244 308 69L292 2L297 -9L366 6L387 113C403 194 437 269 481 318C536 379 586 414 618 414C626 414 631 405 631 389C631 365 628 351 606 264C566 105 550 84 550 31C550 6 561 -9 580 -9C606 -9 642 12 740 85Z" stroke="rgb(0,0,0)" stroke-opacity="1" stroke-width="8" fill="rgb(0,0,0)" fill-opacity="1"></path></g></g><g><g transform="matrix(1,0,0,1,18.605010986328125,58.36000442504883)"><path transform="matrix(0.017,0,0,-0.017,0,0)" d="M123 111C93 111 66 83 66 53C66 23 93 -5 122 -5C154 -5 182 22 182 53C182 83 154 111 123 111ZM123 456C93 456 66 428 66 398C66 368 93 340 122 340C154 340 182 367 182 397C182 428 154 456 123 456Z" stroke="rgb(0,0,0)" stroke-opacity="1" stroke-width="8" fill="rgb(0,0,0)" fill-opacity="1"></path></g></g><g><g transform="matrix(1,0,0,1,26.240020751953125,58.36000442504883)"><path transform="matrix(0.017,0,0,-0.017,0,0)" d="M176 -11C232 -11 347 62 390 125C431 186 465 296 465 371C465 438 442 482 406 482C364 482 311 456 259 409C218 374 198 348 162 289L186 408C189 425 191 440 191 452C191 471 183 482 169 482C148 482 110 461 36 408L8 388L15 368L47 389C75 407 86 412 95 412C105 412 112 403 112 389C112 381 110 361 108 351L50 8C40 -52 21 -143 1 -233L-7 -270L0 -276C21 -269 41 -264 73 -259L115 3C136 -4 158 -11 176 -11ZM143 165C165 293 272 424 355 424C381 424 393 402 393 356C393 275 353 156 300 80C280 51 248 36 207 36C176 36 151 43 125 59ZM827 111L803 94C750 56 702 36 666 36C619 36 590 73 590 133C590 158 593 185 598 214C615 218 724 248 749 259C834 296 873 342 873 404C873 451 839 482 789 482C721 496 611 423 574 349C544 299 514 180 514 113C514 35 558 -11 630 -11C687 -11 743 17 835 92ZM612 274C629 343 649 386 678 412C696 428 727 440 751 440C780 440 799 420 799 388C799 344 764 297 712 272C684 258 648 247 603 237ZM911 388L918 368L950 389C987 412 990 414 997 414C1008 414 1015 404 1015 389C1015 338 974 145 933 2L940 -9C965 -2 988 4 1010 8C1029 134 1050 199 1096 268C1150 352 1225 414 1270 414C1281 414 1287 405 1287 390C1287 372 1284 351 1276 319L1224 107C1215 70 1211 47 1211 31C1211 6 1222 -9 1241 -9C1267 -9 1303 12 1401 85L1391 103L1365 86C1336 67 1314 56 1304 56C1297 56 1291 65 1291 76C1291 81 1292 92 1293 96L1359 372C1366 401 1370 429 1370 446C1370 469 1359 482 1339 482C1297 482 1228 444 1169 389C1131 354 1103 320 1051 247L1089 408C1093 426 1095 438 1095 449C1095 470 1087 482 1072 482C1051 482 1012 460 939 408ZM1925 722L1913 733C1861 707 1825 698 1753 691L1749 670L1797 670C1821 670 1831 663 1831 646C1831 638 1830 629 1829 622L1801 468C1771 477 1744 482 1719 482C1650 482 1556 410 1510 323C1479 265 1459 170 1459 86C1459 21 1474 -11 1503 -11C1530 -11 1567 6 1601 33C1655 77 1688 116 1755 217L1732 126C1721 82 1716 50 1716 24C1716 3 1725 -9 1742 -9C1759 -9 1783 3 1817 28L1898 88L1888 107L1844 76C1830 66 1814 59 1805 59C1797 59 1791 68 1791 82C1791 90 1792 99 1799 128ZM1556 59C1540 59 1531 73 1531 98C1531 224 1577 380 1626 418C1639 428 1658 433 1685 433C1729 433 1758 427 1791 410L1779 351C1742 171 1601 59 1556 59ZM1975 388L1982 368L2014 389C2051 412 2054 414 2061 414C2071 414 2079 404 2079 391C2079 384 2075 361 2071 347L2005 107C1997 76 1992 49 1992 30C1992 6 2003 -9 2022 -9C2048 -9 2084 12 2182 85L2172 103L2146 86C2117 67 2094 56 2085 56C2078 56 2072 66 2072 76C2072 86 2074 95 2079 116L2156 420C2160 437 2162 448 2162 456C2162 473 2153 482 2137 482C2115 482 2078 461 2003 408ZM2169 712C2140 712 2111 679 2111 645C2111 620 2126 604 2150 604C2181 604 2205 633 2205 671C2205 695 2190 712 2169 712ZM2546 111L2522 94C2469 56 2421 36 2385 36C2338 36 2309 73 2309 133C2309 158 2312 185 2317 214C2334 218 2443 248 2468 259C2553 296 2592 342 2592 404C2592 451 2558 482 2508 482C2440 496 2330 423 2293 349C2263 299 2233 180 2233 113C2233 35 2277 -11 2349 -11C2406 -11 2462 17 2554 92ZM2331 274C2348 343 2368 386 2397 412C2415 428 2446 440 2470 440C2499 440 2518 420 2518 388C2518 344 2483 297 2431 272C2403 258 2367 247 2322 237ZM2630 388L2637 368L2669 389C2706 412 2709 414 2716 414C2727 414 2734 404 2734 389C2734 338 2693 145 2652 2L2659 -9C2684 -2 2707 4 2729 8C2748 134 2769 199 2815 268C2869 352 2944 414 2989 414C3000 414 3006 405 3006 390C3006 372 3003 351 2995 319L2943 107C2934 70 2930 47 2930 31C2930 6 2941 -9 2960 -9C2986 -9 3022 12 3120 85L3110 103L3084 86C3055 67 3033 56 3023 56C3016 56 3010 65 3010 76C3010 81 3011 92 3012 96L3078 372C3085 401 3089 429 3089 446C3089 469 3078 482 3058 482C3016 482 2947 444 2888 389C2850 354 2822 320 2770 247L2808 408C2812 426 2814 438 2814 449C2814 470 2806 482 2791 482C2770 482 2731 460 2658 408ZM3286 390L3230 107C3229 99 3217 61 3217 31C3217 6 3228 -9 3247 -9C3282 -9 3317 11 3395 74L3426 99L3416 117L3371 86C3342 66 3322 56 3311 56C3302 56 3297 64 3297 76C3297 102 3311 183 3340 328L3353 390L3460 390L3471 440C3433 436 3399 434 3361 434C3377 528 3388 577 3406 631L3395 646C3375 634 3348 622 3317 610L3292 440C3248 419 3222 408 3204 403L3202 390ZM3821 111L3797 94C3744 56 3696 36 3660 36C3613 36 3584 73 3584 133C3584 158 3587 185 3592 214C3609 218 3718 248 3743 259C3828 296 3867 342 3867 404C3867 451 3833 482 3783 482C3715 496 3605 423 3568 349C3538 299 3508 180 3508 113C3508 35 3552 -11 3624 -11C3681 -11 3737 17 3829 92ZM3606 274C3623 343 3643 386 3672 412C3690 428 3721 440 3745 440C3774 440 3793 420 3793 388C3793 344 3758 297 3706 272C3678 258 3642 247 3597 237Z" stroke="rgb(0,0,0)" stroke-opacity="1" stroke-width="8" fill="rgb(0,0,0)" fill-opacity="1"></path></g></g></g><g><g><g transform="matrix(1,0,0,1,2,78.52000045776367)"><path transform="matrix(0.017,0,0,-0.017,0,0)" d="M24 388L31 368L63 389C100 412 103 414 110 414C121 414 128 404 128 389C128 338 87 145 46 2L53 -9C78 -2 101 4 123 8C142 134 163 199 209 268C263 352 338 414 383 414C394 414 400 405 400 390C400 372 397 351 389 319L337 107C328 70 324 47 324 31C324 6 335 -9 354 -9C380 -9 416 12 514 85L504 103L478 86C449 67 427 56 417 56C410 56 404 65 404 76C404 81 405 92 406 96L472 372C479 401 483 429 483 446C483 469 472 482 452 482C410 482 341 444 282 389C244 354 216 320 164 247L202 408C206 426 208 438 208 449C208 470 200 482 185 482C164 482 125 460 52 408Z" stroke="rgb(0,0,0)" stroke-opacity="1" stroke-width="8" fill="rgb(0,0,0)" fill-opacity="1"></path></g></g><g><g transform="matrix(1,0,0,1,14.82501220703125,78.52000045776367)"><path transform="matrix(0.017,0,0,-0.017,0,0)" d="M123 111C93 111 66 83 66 53C66 23 93 -5 122 -5C154 -5 182 22 182 53C182 83 154 111 123 111ZM123 456C93 456 66 428 66 398C66 368 93 340 122 340C154 340 182 367 182 397C182 428 154 456 123 456Z" stroke="rgb(0,0,0)" stroke-opacity="1" stroke-width="8" fill="rgb(0,0,0)" fill-opacity="1"></path></g></g><g><g transform="matrix(1,0,0,1,22.46002197265625,78.52000045776367)"><path transform="matrix(0.017,0,0,-0.017,0,0)" d="M342 330L365 330C373 395 380 432 389 458C365 473 330 482 293 482C248 483 175 463 118 400C64 352 25 241 25 136C25 40 67 -11 147 -11C201 -11 249 9 304 54L354 95L346 115L331 105C259 57 221 40 186 40C130 40 101 80 101 159C101 267 136 371 185 409C206 425 230 433 261 433C306 433 342 414 342 390ZM423 152C423 46 468 -11 551 -11C606 -11 666 15 711 57C773 116 817 230 817 331C817 425 767 482 684 482C580 482 423 382 423 152ZM647 444C708 444 741 399 741 315C741 219 710 113 666 60C648 39 622 27 591 27C533 27 499 72 499 151C499 264 538 387 587 427C600 438 623 444 647 444ZM1177 111L1153 94C1100 56 1052 36 1016 36C969 36 940 73 940 133C940 158 943 185 948 214C965 218 1074 248 1099 259C1184 296 1223 342 1223 404C1223 451 1189 482 1139 482C1071 496 961 423 924 349C894 299 864 180 864 113C864 35 908 -11 980 -11C1037 -11 1093 17 1185 92ZM962 274C979 343 999 386 1028 412C1046 428 1077 440 1101 440C1130 440 1149 420 1149 388C1149 344 1114 297 1062 272C1034 258 998 247 953 237ZM1582 437L1566 437L1587 549C1603 635 1631 673 1677 673C1707 673 1734 658 1749 634L1759 638C1764 654 1774 685 1782 705L1787 720C1771 727 1740 733 1717 733C1706 733 1690 730 1682 726C1658 715 1576 654 1553 630C1531 608 1519 578 1508 521L1493 442C1452 422 1432 414 1407 405L1402 383L1483 383L1474 327C1444 132 1407 -54 1385 -123C1367 -182 1337 -213 1301 -213C1278 -213 1267 -206 1249 -184L1235 -188C1231 -211 1217 -259 1212 -268C1221 -273 1236 -276 1247 -276C1288 -276 1342 -245 1381 -198C1452 -114 1472 -18 1556 383L1660 383C1664 402 1671 425 1677 439L1673 446C1644 439 1645 437 1582 437ZM2519 722L2507 733C2455 707 2419 698 2347 691L2343 670L2391 670C2415 670 2425 663 2425 646C2425 638 2424 629 2423 622L2395 468C2365 477 2338 482 2313 482C2244 482 2150 410 2104 323C2073 265 2053 170 2053 86C2053 21 2068 -11 2097 -11C2124 -11 2161 6 2195 33C2249 77 2282 116 2349 217L2326 126C2315 82 2310 50 2310 24C2310 3 2319 -9 2336 -9C2353 -9 2377 3 2411 28L2492 88L2482 107L2438 76C2424 66 2408 59 2399 59C2391 59 2385 68 2385 82C2385 90 2386 99 2393 128ZM2150 59C2134 59 2125 73 2125 98C2125 224 2171 380 2220 418C2233 428 2252 433 2279 433C2323 433 2352 427 2385 410L2373 351C2336 171 2195 59 2150 59ZM2863 111L2839 94C2786 56 2738 36 2702 36C2655 36 2626 73 2626 133C2626 158 2629 185 2634 214C2651 218 2760 248 2785 259C2870 296 2909 342 2909 404C2909 451 2875 482 2825 482C2757 496 2647 423 2610 349C2580 299 2550 180 2550 113C2550 35 2594 -11 2666 -11C2723 -11 2779 17 2871 92ZM2648 274C2665 343 2685 386 2714 412C2732 428 2763 440 2787 440C2816 440 2835 420 2835 388C2835 344 2800 297 2748 272C2720 258 2684 247 2639 237ZM3348 -11C3404 -11 3519 62 3562 125C3603 186 3637 296 3637 371C3637 438 3614 482 3578 482C3536 482 3483 456 3431 409C3390 374 3370 348 3334 289L3358 408C3361 425 3363 440 3363 452C3363 471 3355 482 3341 482C3320 482 3282 461 3208 408L3180 388L3187 368L3219 389C3247 407 3258 412 3267 412C3277 412 3284 403 3284 389C3284 381 3282 361 3280 351L3222 8C3212 -52 3193 -143 3173 -233L3165 -270L3172 -276C3193 -269 3213 -264 3245 -259L3287 3C3308 -4 3330 -11 3348 -11ZM3315 165C3337 293 3444 424 3527 424C3553 424 3565 402 3565 356C3565 275 3525 156 3472 80C3452 51 3420 36 3379 36C3348 36 3323 43 3297 59ZM3688 152C3688 46 3733 -11 3816 -11C3871 -11 3931 15 3976 57C4038 116 4082 230 4082 331C4082 425 4032 482 3949 482C3845 482 3688 382 3688 152ZM3912 444C3973 444 4006 399 4006 315C4006 219 3975 113 3931 60C3913 39 3887 27 3856 27C3798 27 3764 72 3764 151C3764 264 3803 387 3852 427C3865 438 3888 444 3912 444ZM4145 148C4140 97 4134 62 4123 16C4161 -2 4195 -11 4230 -11C4279 -11 4325 7 4376 47C4427 87 4448 124 4448 174C4448 228 4416 257 4342 271L4299 279C4239 290 4220 307 4220 348C4220 401 4265 442 4322 442C4363 442 4401 424 4417 397L4417 342L4440 342C4444 377 4448 404 4459 455C4420 474 4392 482 4359 482C4307 482 4246 452 4198 404C4172 377 4161 352 4161 316C4161 260 4192 228 4258 215L4321 203C4365 195 4381 177 4381 138C4381 73 4335 29 4264 29C4229 29 4198 40 4170 64L4170 148Z" stroke="rgb(0,0,0)" stroke-opacity="1" stroke-width="8" fill="rgb(0,0,0)" fill-opacity="1"></path></g></g></g><g></g><g><g><g transform="matrix(1,0,0,1,2,118.84000778198242)"><path transform="matrix(0.017,0,0,-0.017,0,0)" d="M105 664L160 662C184 661 195 653 195 635L112 125C95 34 94 31 54 28L13 25L9 -3L51 -2C92 -1 123 0 141 0C158 0 187 -1 227 -2L280 -3L283 25L218 28C192 29 182 37 182 58C182 67 183 74 186 93L284 648C320 654 336 656 355 656C457 656 506 612 506 519C506 411 434 323 346 323C324 323 304 328 267 342L269 311C306 293 326 288 355 288C484 288 594 405 594 541C594 642 531 695 412 692L108 692ZM978 365C981 403 986 435 994 476C983 481 979 482 974 482C943 482 912 458 876 407C837 351 798 291 782 256L814 408C818 425 820 438 820 450C820 470 812 482 797 482C776 482 738 461 664 408L636 388L643 368L675 389C703 407 714 412 723 412C733 412 740 403 740 390C740 332 697 126 657 -2L667 -9C682 -4 698 -1 721 4L734 6L760 126C778 209 801 262 845 319C879 363 906 384 928 384C943 384 953 379 964 365ZM1032 388L1039 368L1071 389C1108 412 1111 414 1118 414C1128 414 1136 404 1136 391C1136 384 1132 361 1128 347L1062 107C1054 76 1049 49 1049 30C1049 6 1060 -9 1079 -9C1105 -9 1141 12 1239 85L1229 103L1203 86C1174 67 1151 56 1142 56C1135 56 1129 66 1129 76C1129 86 1131 95 1136 116L1213 420C1217 437 1219 448 1219 456C1219 473 1210 482 1194 482C1172 482 1135 461 1060 408ZM1226 712C1197 712 1168 679 1168 645C1168 620 1183 604 1207 604C1238 604 1262 633 1262 671C1262 695 1247 712 1226 712ZM1299 388L1306 368L1338 389C1375 412 1378 414 1385 414C1396 414 1403 404 1403 389C1403 338 1362 145 1321 2L1328 -9C1353 -2 1376 4 1398 8C1417 134 1438 199 1484 268C1538 352 1613 414 1658 414C1669 414 1675 405 1675 390C1675 372 1672 351 1664 319L1612 107C1603 70 1599 47 1599 31C1599 6 1610 -9 1629 -9C1655 -9 1691 12 1789 85L1779 103L1753 86C1724 67 1702 56 1692 56C1685 56 1679 65 1679 76C1679 81 1680 92 1681 96L1747 372C1754 401 1758 429 1758 446C1758 469 1747 482 1727 482C1685 482 1616 444 1557 389C1519 354 1491 320 1439 247L1477 408C1481 426 1483 438 1483 449C1483 470 1475 482 1460 482C1439 482 1400 460 1327 408ZM2172 330L2195 330C2203 395 2210 432 2219 458C2195 473 2160 482 2123 482C2078 483 2005 463 1948 400C1894 352 1855 241 1855 136C1855 40 1897 -11 1977 -11C2031 -11 2079 9 2134 54L2184 95L2176 115L2161 105C2089 57 2051 40 2016 40C1960 40 1931 80 1931 159C1931 267 1966 371 2015 409C2036 425 2060 433 2091 433C2136 433 2172 414 2172 390ZM2270 388L2277 368L2309 389C2346 412 2349 414 2356 414C2366 414 2374 404 2374 391C2374 384 2370 361 2366 347L2300 107C2292 76 2287 49 2287 30C2287 6 2298 -9 2317 -9C2343 -9 2379 12 2477 85L2467 103L2441 86C2412 67 2389 56 2380 56C2373 56 2367 66 2367 76C2367 86 2369 95 2374 116L2451 420C2455 437 2457 448 2457 456C2457 473 2448 482 2432 482C2410 482 2373 461 2298 408ZM2464 712C2435 712 2406 679 2406 645C2406 620 2421 604 2445 604C2476 604 2500 633 2500 671C2500 695 2485 712 2464 712ZM2689 -11C2745 -11 2860 62 2903 125C2944 186 2978 296 2978 371C2978 438 2955 482 2919 482C2877 482 2824 456 2772 409C2731 374 2711 348 2675 289L2699 408C2702 425 2704 440 2704 452C2704 471 2696 482 2682 482C2661 482 2623 461 2549 408L2521 388L2528 368L2560 389C2588 407 2599 412 2608 412C2618 412 2625 403 2625 389C2625 381 2623 361 2621 351L2563 8C2553 -52 2534 -143 2514 -233L2506 -270L2513 -276C2534 -269 2554 -264 2586 -259L2628 3C2649 -4 2671 -11 2689 -11ZM2656 165C2678 293 2785 424 2868 424C2894 424 2906 402 2906 356C2906 275 2866 156 2813 80C2793 51 2761 36 2720 36C2689 36 2664 43 2638 59ZM3283 204L3254 77C3250 60 3248 42 3248 26C3248 4 3257 -9 3272 -9C3295 -9 3336 17 3418 85L3411 106C3387 86 3358 59 3336 59C3327 59 3321 68 3321 82C3321 87 3321 90 3322 93L3414 472L3404 481L3371 463C3330 478 3313 482 3286 482C3258 482 3238 477 3211 464C3149 433 3116 403 3091 354C3047 265 3016 145 3016 67C3016 23 3031 -11 3050 -11C3087 -11 3167 41 3283 204ZM3331 414C3309 305 3290 253 3256 201C3199 117 3138 59 3106 59C3094 59 3088 72 3088 99C3088 163 3116 280 3151 360C3175 415 3198 433 3246 433C3269 433 3287 429 3331 414ZM3706 722L3694 733C3642 707 3606 698 3534 691L3530 670L3578 670C3602 670 3612 663 3612 648C3612 645 3612 640 3609 622C3598 567 3525 182 3510 132C3497 82 3491 52 3491 31C3491 6 3502 -9 3521 -9C3547 -9 3583 12 3681 85L3671 103L3645 86C3616 67 3594 56 3584 56C3577 56 3571 66 3571 76C3571 82 3572 89 3575 104Z" stroke="rgb(0,0,0)" stroke-opacity="1" stroke-width="8" fill="rgb(0,0,0)" fill-opacity="1"></path></g></g></g><g><g><g transform="matrix(1,0,0,1,2,139.0000114440918)"><path transform="matrix(0.017,0,0,-0.017,0,0)" d="M-7 -180C-8 -187 -8 -193 -8 -198C-8 -241 29 -276 74 -276C180 -276 290 -152 349 33L490 473L479 482C450 471 427 465 405 463L370 331C358 284 323 211 290 162C255 111 206 67 184 67C172 67 163 90 164 115L180 322C182 353 184 391 184 419C184 464 177 482 160 482C147 482 133 475 85 442L3 386L14 368L64 398C69 401 80 410 89 410C103 410 111 391 111 358C111 357 111 351 110 343L93 100L92 60C92 18 110 -11 135 -11C172 -11 256 74 331 187L282 16C231 -161 181 -234 111 -234C76 -234 49 -207 49 -172C49 -167 50 -159 51 -150L41 -146Z" stroke="rgb(0,0,0)" stroke-opacity="1" stroke-width="8" fill="rgb(0,0,0)" fill-opacity="1"></path></g></g><g><g transform="matrix(1,0,0,1,15.59002685546875,139.0000114440918)"><path transform="matrix(0.017,0,0,-0.017,0,0)" d="M604 347L604 406L65 406L65 347ZM604 134L604 193L65 193L65 134Z" stroke="rgb(0,0,0)" stroke-opacity="1" stroke-width="8" fill="rgb(0,0,0)" fill-opacity="1"></path></g></g><g><g transform="matrix(1,0,0,1,32.045013427734375,139.0000114440918)"><path transform="matrix(0.017,0,0,-0.017,0,0)" d="M730 103L704 86C675 67 653 56 643 56C636 56 630 65 630 76C630 86 632 95 637 116L712 413C716 430 719 446 719 454C719 471 709 482 693 482C664 482 626 464 565 421C502 376 467 341 418 272L448 409C452 429 455 444 455 451C455 470 445 482 429 482C399 482 353 460 298 418C254 384 234 363 169 275L202 408C206 424 208 439 208 451C208 470 199 482 185 482C164 482 126 461 52 408L24 388L31 368C68 391 103 414 110 414C121 414 128 404 128 389C128 338 87 145 46 2L49 -9L117 6L139 108C163 219 190 278 245 338C287 384 332 414 360 414C367 414 371 406 371 393C371 358 349 244 308 69L292 2L297 -9L366 6L387 113C403 194 437 269 481 318C536 379 586 414 618 414C626 414 631 405 631 389C631 365 628 351 606 264C566 105 550 84 550 31C550 6 561 -9 580 -9C606 -9 642 12 740 85ZM786 1C801 -7 817 -11 829 -11C862 -11 901 18 932 65L1008 182L1019 113C1032 28 1055 -11 1091 -11C1113 -11 1145 6 1177 35L1226 79L1217 98C1181 68 1156 53 1140 53C1125 53 1112 63 1102 83C1093 102 1082 139 1077 168L1059 269L1094 318C1141 383 1168 406 1199 406C1215 406 1227 398 1232 383L1246 387L1261 472C1249 479 1240 482 1231 482C1191 482 1151 446 1089 354L1052 299L1046 347C1034 446 1007 482 948 482C922 482 900 474 891 461L833 378L850 368C880 402 900 416 919 416C952 416 974 375 991 277L1002 215L962 153C919 86 885 54 857 54C842 54 831 58 829 63L818 91L798 88C798 53 790 27 786 1Z" stroke="rgb(0,0,0)" stroke-opacity="1" stroke-width="8" fill="rgb(0,0,0)" fill-opacity="1"></path></g></g><g><g transform="matrix(1,0,0,1,57.125,139.0000114440918)"><path transform="matrix(0.017,0,0,-0.017,0,0)" d="M604 241L604 300L364 300L364 538L305 538L305 300L65 300L65 241L305 241L305 0L364 0L364 241Z" stroke="rgb(0,0,0)" stroke-opacity="1" stroke-width="8" fill="rgb(0,0,0)" fill-opacity="1"></path></g></g><g><g transform="matrix(1,0,0,1,71.8699951171875,139.0000114440918)"><path transform="matrix(0.017,0,0,-0.017,0,0)" d="M24 388L31 368L63 389C100 412 103 414 110 414C121 414 128 404 128 389C128 338 87 145 46 2L53 -9C78 -2 101 4 123 8C142 134 163 199 209 268C263 352 338 414 383 414C394 414 400 405 400 390C400 372 397 351 389 319L337 107C328 70 324 47 324 31C324 6 335 -9 354 -9C380 -9 416 12 514 85L504 103L478 86C449 67 427 56 417 56C410 56 404 65 404 76C404 81 405 92 406 96L472 372C479 401 483 429 483 446C483 469 472 482 452 482C410 482 341 444 282 389C244 354 216 320 164 247L202 408C206 426 208 438 208 449C208 470 200 482 185 482C164 482 125 460 52 408Z" stroke="rgb(0,0,0)" stroke-opacity="1" stroke-width="8" fill="rgb(0,0,0)" fill-opacity="1"></path></g></g></g><g><g><g transform="matrix(1,0,0,1,2,160.1200065612793)"><path transform="matrix(0.017,0,0,-0.017,0,0)" d="M146 266C146 526 243 632 301 700L282 726C225 675 60 542 60 266C60 159 85 58 133 -32C168 -99 200 -138 282 -215L301 -194C255 -137 146 -15 146 266Z" stroke="rgb(0,0,0)" stroke-opacity="1" stroke-width="8" fill="rgb(0,0,0)" fill-opacity="1"></path></g></g><g><g transform="matrix(1,0,0,1,7.654998779296875,159.1599998474121)"><path transform="matrix(0.017,0,0,-0.017,0,0)" d="M263 689C108 689 29 566 29 324C29 207 50 106 85 57C120 8 176 -20 238 -20C389 -20 465 110 465 366C465 585 400 689 263 689ZM245 654C342 654 381 556 381 316C381 103 343 15 251 15C154 15 113 116 113 360C113 571 150 654 245 654Z" stroke="rgb(0,0,0)" stroke-opacity="1" stroke-width="8" fill="rgb(0,0,0)" fill-opacity="1"></path></g></g><g><g transform="matrix(1,0,0,1,16.14501953125,159.1599998474121)"><path transform="matrix(0.017,0,0,-0.017,0,0)" d="M204 123C177 114 159 108 106 93C99 17 74 -48 16 -144L30 -155L71 -136C152 -31 190 32 218 109Z" stroke="rgb(0,0,0)" stroke-opacity="1" stroke-width="8" fill="rgb(0,0,0)" fill-opacity="1"></path></g></g><g><g transform="matrix(1,0,0,1,23.780029296875,159.1599998474121)"><path transform="matrix(0.017,0,0,-0.017,0,0)" d="M24 388L31 368L63 389C100 412 103 414 110 414C121 414 128 404 128 389C128 338 87 145 46 2L53 -9C78 -2 101 4 123 8C142 134 163 199 209 268C263 352 338 414 383 414C394 414 400 405 400 390C400 372 397 351 389 319L337 107C328 70 324 47 324 31C324 6 335 -9 354 -9C380 -9 416 12 514 85L504 103L478 86C449 67 427 56 417 56C410 56 404 65 404 76C404 81 405 92 406 96L472 372C479 401 483 429 483 446C483 469 472 482 452 482C410 482 341 444 282 389C244 354 216 320 164 247L202 408C206 426 208 438 208 449C208 470 200 482 185 482C164 482 125 460 52 408Z" stroke="rgb(0,0,0)" stroke-opacity="1" stroke-width="8" fill="rgb(0,0,0)" fill-opacity="1"></path></g></g><g><g transform="matrix(1,0,0,1,33.21502685546875,160.1200065612793)"><path transform="matrix(0.017,0,0,-0.017,0,0)" d="M51 726L32 700C87 636 187 526 187 266C187 -10 83 -131 32 -194L51 -215C104 -165 273 -23 273 265C273 542 108 675 51 726Z" stroke="rgb(0,0,0)" stroke-opacity="1" stroke-width="8" fill="rgb(0,0,0)" fill-opacity="1"></path></g></g><g><g transform="matrix(1,0,0,1,42.260009765625,159.1599998474121)"><path transform="matrix(0.017,0,0,-0.017,0,0)" d="M123 111C93 111 66 83 66 53C66 23 93 -5 122 -5C154 -5 182 22 182 53C182 83 154 111 123 111ZM123 456C93 456 66 428 66 398C66 368 93 340 122 340C154 340 182 367 182 397C182 428 154 456 123 456Z" stroke="rgb(0,0,0)" stroke-opacity="1" stroke-width="8" fill="rgb(0,0,0)" fill-opacity="1"></path></g></g><g><g transform="matrix(1,0,0,1,49.89501953125,159.1599998474121)"><path transform="matrix(0.017,0,0,-0.017,0,0)" d="M342 330L365 330C373 395 380 432 389 458C365 473 330 482 293 482C248 483 175 463 118 400C64 352 25 241 25 136C25 40 67 -11 147 -11C201 -11 249 9 304 54L354 95L346 115L331 105C259 57 221 40 186 40C130 40 101 80 101 159C101 267 136 371 185 409C206 425 230 433 261 433C306 433 342 414 342 390ZM423 152C423 46 468 -11 551 -11C606 -11 666 15 711 57C773 116 817 230 817 331C817 425 767 482 684 482C580 482 423 382 423 152ZM647 444C708 444 741 399 741 315C741 219 710 113 666 60C648 39 622 27 591 27C533 27 499 72 499 151C499 264 538 387 587 427C600 438 623 444 647 444ZM1217 365C1220 403 1225 435 1233 476C1222 481 1218 482 1213 482C1182 482 1151 458 1115 407C1076 351 1037 291 1021 256L1053 408C1057 425 1059 438 1059 450C1059 470 1051 482 1036 482C1015 482 977 461 903 408L875 388L882 368L914 389C942 407 953 412 962 412C972 412 979 403 979 390C979 332 936 126 896 -2L906 -9C921 -4 937 -1 960 4L973 6L999 126C1017 209 1040 262 1084 319C1118 363 1145 384 1167 384C1182 384 1192 379 1203 365ZM1362 390L1306 107C1305 99 1293 61 1293 31C1293 6 1304 -9 1323 -9C1358 -9 1393 11 1471 74L1502 99L1492 117L1447 86C1418 66 1398 56 1387 56C1378 56 1373 64 1373 76C1373 102 1387 183 1416 328L1429 390L1536 390L1547 440C1509 436 1475 434 1437 434C1453 528 1464 577 1482 631L1471 646C1451 634 1424 622 1393 610L1368 440C1324 419 1298 408 1280 403L1278 390ZM1897 111L1873 94C1820 56 1772 36 1736 36C1689 36 1660 73 1660 133C1660 158 1663 185 1668 214C1685 218 1794 248 1819 259C1904 296 1943 342 1943 404C1943 451 1909 482 1859 482C1791 496 1681 423 1644 349C1614 299 1584 180 1584 113C1584 35 1628 -11 1700 -11C1757 -11 1813 17 1905 92ZM1682 274C1699 343 1719 386 1748 412C1766 428 1797 440 1821 440C1850 440 1869 420 1869 388C1869 344 1834 297 1782 272C1754 258 1718 247 1673 237ZM2534 111L2510 94C2457 56 2409 36 2373 36C2326 36 2297 73 2297 133C2297 158 2300 185 2305 214C2322 218 2431 248 2456 259C2541 296 2580 342 2580 404C2580 451 2546 482 2496 482C2428 496 2318 423 2281 349C2251 299 2221 180 2221 113C2221 35 2265 -11 2337 -11C2394 -11 2450 17 2542 92ZM2319 274C2336 343 2356 386 2385 412C2403 428 2434 440 2458 440C2487 440 2506 420 2506 388C2506 344 2471 297 2419 272C2391 258 2355 247 2310 237ZM2618 388L2625 368L2657 389C2694 412 2697 414 2704 414C2715 414 2722 404 2722 389C2722 338 2681 145 2640 2L2647 -9C2672 -2 2695 4 2717 8C2736 134 2757 199 2803 268C2857 352 2932 414 2977 414C2988 414 2994 405 2994 390C2994 372 2991 351 2983 319L2931 107C2922 70 2918 47 2918 31C2918 6 2929 -9 2948 -9C2974 -9 3010 12 3108 85L3098 103L3072 86C3043 67 3021 56 3011 56C3004 56 2998 65 2998 76C2998 81 2999 92 3000 96L3066 372C3073 401 3077 429 3077 446C3077 469 3066 482 3046 482C3004 482 2935 444 2876 389C2838 354 2810 320 2758 247L2796 408C2800 426 2802 438 2802 449C2802 470 2794 482 2779 482C2758 482 2719 460 2646 408ZM3391 -180C3390 -187 3390 -193 3390 -198C3390 -241 3427 -276 3472 -276C3578 -276 3688 -152 3747 33L3888 473L3877 482C3848 471 3825 465 3803 463L3768 331C3756 284 3721 211 3688 162C3653 111 3604 67 3582 67C3570 67 3561 90 3562 115L3578 322C3580 353 3582 391 3582 419C3582 464 3575 482 3558 482C3545 482 3531 475 3483 442L3401 386L3412 368L3462 398C3467 401 3478 410 3487 410C3501 410 3509 391 3509 358C3509 357 3509 351 3508 343L3491 100L3490 60C3490 18 3508 -11 3533 -11C3570 -11 3654 74 3729 187L3680 16C3629 -161 3579 -234 3509 -234C3474 -234 3447 -207 3447 -172C3447 -167 3448 -159 3449 -150L3439 -146Z" stroke="rgb(0,0,0)" stroke-opacity="1" stroke-width="8" fill="rgb(0,0,0)" fill-opacity="1"></path></g></g></g><g></g><g><g><g transform="matrix(1,0,0,1,2,199.48000717163086)"><path transform="matrix(0.017,0,0,-0.017,0,0)" d="M434 653C511 653 565 639 621 603L621 519L648 519C653 576 661 619 675 665C592 695 535 706 466 706C374 706 301 683 229 632C112 548 50 424 50 274C50 87 159 -18 355 -18C412 -21 559 6 608 37C628 193 632 216 633 219C635 228 647 238 660 240L692 246L694 274C655 270 620 269 569 269C518 269 482 270 440 274L435 246L469 244C544 240 553 236 553 212C553 197 533 84 528 60C483 36 444 27 390 27C224 27 138 120 138 297C138 443 197 653 434 653ZM1049 111L1025 94C972 56 924 36 888 36C841 36 812 73 812 133C812 158 815 185 820 214C837 218 946 248 971 259C1056 296 1095 342 1095 404C1095 451 1061 482 1011 482C943 496 833 423 796 349C766 299 736 180 736 113C736 35 780 -11 852 -11C909 -11 965 17 1057 92ZM834 274C851 343 871 386 900 412C918 428 949 440 973 440C1002 440 1021 420 1021 388C1021 344 986 297 934 272C906 258 870 247 825 237ZM1133 388L1140 368L1172 389C1209 412 1212 414 1219 414C1230 414 1237 404 1237 389C1237 338 1196 145 1155 2L1162 -9C1187 -2 1210 4 1232 8C1251 134 1272 199 1318 268C1372 352 1447 414 1492 414C1503 414 1509 405 1509 390C1509 372 1506 351 1498 319L1446 107C1437 70 1433 47 1433 31C1433 6 1444 -9 1463 -9C1489 -9 1525 12 1623 85L1613 103L1587 86C1558 67 1536 56 1526 56C1519 56 1513 65 1513 76C1513 81 1514 92 1515 96L1581 372C1588 401 1592 429 1592 446C1592 469 1581 482 1561 482C1519 482 1450 444 1391 389C1353 354 1325 320 1273 247L1311 408C1315 426 1317 438 1317 449C1317 470 1309 482 1294 482C1273 482 1234 460 1161 408ZM1992 111L1968 94C1915 56 1867 36 1831 36C1784 36 1755 73 1755 133C1755 158 1758 185 1763 214C1780 218 1889 248 1914 259C1999 296 2038 342 2038 404C2038 451 2004 482 1954 482C1886 496 1776 423 1739 349C1709 299 1679 180 1679 113C1679 35 1723 -11 1795 -11C1852 -11 1908 17 2000 92ZM1777 274C1794 343 1814 386 1843 412C1861 428 1892 440 1916 440C1945 440 1964 420 1964 388C1964 344 1929 297 1877 272C1849 258 1813 247 1768 237ZM2420 365C2423 403 2428 435 2436 476C2425 481 2421 482 2416 482C2385 482 2354 458 2318 407C2279 351 2240 291 2224 256L2256 408C2260 425 2262 438 2262 450C2262 470 2254 482 2239 482C2218 482 2180 461 2106 408L2078 388L2085 368L2117 389C2145 407 2156 412 2165 412C2175 412 2182 403 2182 390C2182 332 2139 126 2099 -2L2109 -9C2124 -4 2140 -1 2163 4L2176 6L2202 126C2220 209 2243 262 2287 319C2321 363 2348 384 2370 384C2385 384 2395 379 2406 365ZM2711 204L2682 77C2678 60 2676 42 2676 26C2676 4 2685 -9 2700 -9C2723 -9 2764 17 2846 85L2839 106C2815 86 2786 59 2764 59C2755 59 2749 68 2749 82C2749 87 2749 90 2750 93L2842 472L2832 481L2799 463C2758 478 2741 482 2714 482C2686 482 2666 477 2639 464C2577 433 2544 403 2519 354C2475 265 2444 145 2444 67C2444 23 2459 -11 2478 -11C2515 -11 2595 41 2711 204ZM2759 414C2737 305 2718 253 2684 201C2627 117 2566 59 2534 59C2522 59 2516 72 2516 99C2516 163 2544 280 2579 360C2603 415 2626 433 2674 433C2697 433 2715 429 2759 414ZM3134 722L3122 733C3070 707 3034 698 2962 691L2958 670L3006 670C3030 670 3040 663 3040 648C3040 645 3040 640 3037 622C3026 567 2953 182 2938 132C2925 82 2919 52 2919 31C2919 6 2930 -9 2949 -9C2975 -9 3011 12 3109 85L3099 103L3073 86C3044 67 3022 56 3012 56C3005 56 2999 66 2999 76C2999 82 3000 89 3003 104Z" stroke="rgb(0,0,0)" stroke-opacity="1" stroke-width="8" fill="rgb(0,0,0)" fill-opacity="1"></path></g></g></g><g><g><g transform="matrix(1,0,0,1,2,219.63999557495117)"><path transform="matrix(0.017,0,0,-0.017,0,0)" d="M271 204L242 77C238 60 236 42 236 26C236 4 245 -9 260 -9C283 -9 324 17 406 85L399 106C375 86 346 59 324 59C315 59 309 68 309 82C309 87 309 90 310 93L402 472L392 481L359 463C318 478 301 482 274 482C246 482 226 477 199 464C137 433 104 403 79 354C35 265 4 145 4 67C4 23 19 -11 38 -11C75 -11 155 41 271 204ZM319 414C297 305 278 253 244 201C187 117 126 59 94 59C82 59 76 72 76 99C76 163 104 280 139 360C163 415 186 433 234 433C257 433 275 429 319 414ZM452 1C467 -7 483 -11 495 -11C528 -11 567 18 598 65L674 182L685 113C698 28 721 -11 757 -11C779 -11 811 6 843 35L892 79L883 98C847 68 822 53 806 53C791 53 778 63 768 83C759 102 748 139 743 168L725 269L760 318C807 383 834 406 865 406C881 406 893 398 898 383L912 387L927 472C915 479 906 482 897 482C857 482 817 446 755 354L718 299L712 347C700 446 673 482 614 482C588 482 566 474 557 461L499 378L516 368C546 402 566 416 585 416C618 416 640 375 657 277L668 215L628 153C585 86 551 54 523 54C508 54 497 58 495 63L484 91L464 88C464 53 456 27 452 1Z" stroke="rgb(0,0,0)" stroke-opacity="1" stroke-width="8" fill="rgb(0,0,0)" fill-opacity="1"></path></g></g><g><g transform="matrix(1,0,0,1,21.410003662109375,219.63999557495117)"><path transform="matrix(0.017,0,0,-0.017,0,0)" d="M604 241L604 300L364 300L364 538L305 538L305 300L65 300L65 241L305 241L305 0L364 0L364 241Z" stroke="rgb(0,0,0)" stroke-opacity="1" stroke-width="8" fill="rgb(0,0,0)" fill-opacity="1"></path></g></g><g><g transform="matrix(1,0,0,1,36.155029296875,219.63999557495117)"><path transform="matrix(0.017,0,0,-0.017,0,0)" d="M235 722L223 733C171 707 135 698 63 691L59 670L107 670C131 670 141 663 141 646C141 639 140 628 139 622L38 71C37 68 37 64 37 61C37 22 85 -11 140 -11C177 -11 228 8 271 39C367 107 433 244 433 376C433 414 424 453 412 468C405 477 392 482 377 482C353 482 323 474 295 460C244 433 211 403 149 324ZM322 424C348 424 361 401 361 352C361 288 340 202 310 137C277 68 237 36 183 36C137 36 112 59 112 101C112 135 127 276 208 361C241 395 293 424 322 424ZM455 -180C454 -187 454 -193 454 -198C454 -241 491 -276 536 -276C642 -276 752 -152 811 33L952 473L941 482C912 471 889 465 867 463L832 331C820 284 785 211 752 162C717 111 668 67 646 67C634 67 625 90 626 115L642 322C644 353 646 391 646 419C646 464 639 482 622 482C609 482 595 475 547 442L465 386L476 368L526 398C531 401 542 410 551 410C565 410 573 391 573 358C573 357 573 351 572 343L555 100L554 60C554 18 572 -11 597 -11C634 -11 718 74 793 187L744 16C693 -161 643 -234 573 -234C538 -234 511 -207 511 -172C511 -167 512 -159 513 -150L503 -146Z" stroke="rgb(0,0,0)" stroke-opacity="1" stroke-width="8" fill="rgb(0,0,0)" fill-opacity="1"></path></g></g><g><g transform="matrix(1,0,0,1,55.8800048828125,219.63999557495117)"><path transform="matrix(0.017,0,0,-0.017,0,0)" d="M604 241L604 300L364 300L364 538L305 538L305 300L65 300L65 241L305 241L305 0L364 0L364 241Z" stroke="rgb(0,0,0)" stroke-opacity="1" stroke-width="8" fill="rgb(0,0,0)" fill-opacity="1"></path></g></g><g><g transform="matrix(1,0,0,1,70.625,219.63999557495117)"><path transform="matrix(0.017,0,0,-0.017,0,0)" d="M342 330L365 330C373 395 380 432 389 458C365 473 330 482 293 482C248 483 175 463 118 400C64 352 25 241 25 136C25 40 67 -11 147 -11C201 -11 249 9 304 54L354 95L346 115L331 105C259 57 221 40 186 40C130 40 101 80 101 159C101 267 136 371 185 409C206 425 230 433 261 433C306 433 342 414 342 390Z" stroke="rgb(0,0,0)" stroke-opacity="1" stroke-width="8" fill="rgb(0,0,0)" fill-opacity="1"></path></g></g><g><g transform="matrix(1,0,0,1,82.625,219.63999557495117)"><path transform="matrix(0.017,0,0,-0.017,0,0)" d="M604 347L604 406L65 406L65 347ZM604 134L604 193L65 193L65 134Z" stroke="rgb(0,0,0)" stroke-opacity="1" stroke-width="8" fill="rgb(0,0,0)" fill-opacity="1"></path></g></g><g><g transform="matrix(1,0,0,1,99.08001708984375,219.63999557495117)"><path transform="matrix(0.017,0,0,-0.017,0,0)" d="M263 689C108 689 29 566 29 324C29 207 50 106 85 57C120 8 176 -20 238 -20C389 -20 465 110 465 366C465 585 400 689 263 689ZM245 654C342 654 381 556 381 316C381 103 343 15 251 15C154 15 113 116 113 360C113 571 150 654 245 654Z" stroke="rgb(0,0,0)" stroke-opacity="1" stroke-width="8" fill="rgb(0,0,0)" fill-opacity="1"></path></g></g></g><g></g><g><g><g transform="matrix(1,0,0,1,2,259.9600028991699)"><path transform="matrix(0.017,0,0,-0.017,0,0)" d="M105 664L160 662C184 661 195 653 195 635L112 125C95 34 94 31 54 28L13 25L9 -3L51 -2C92 -1 123 0 141 0C158 0 187 -1 227 -2L280 -3L283 25L218 28C192 29 182 37 182 58C182 67 183 74 186 93L284 648C320 654 336 656 355 656C457 656 506 612 506 519C506 411 434 323 346 323C324 323 304 328 267 342L269 311C306 293 326 288 355 288C484 288 594 405 594 541C594 642 531 695 412 692L108 692ZM881 204L852 77C848 60 846 42 846 26C846 4 855 -9 870 -9C893 -9 934 17 1016 85L1009 106C985 86 956 59 934 59C925 59 919 68 919 82C919 87 919 90 920 93L1012 472L1002 481L969 463C928 478 911 482 884 482C856 482 836 477 809 464C747 433 714 403 689 354C645 265 614 145 614 67C614 23 629 -11 648 -11C685 -11 765 41 881 204ZM929 414C907 305 888 253 854 201C797 117 736 59 704 59C692 59 686 72 686 99C686 163 714 280 749 360C773 415 796 433 844 433C867 433 885 429 929 414ZM1084 148C1079 97 1073 62 1062 16C1100 -2 1134 -11 1169 -11C1218 -11 1264 7 1315 47C1366 87 1387 124 1387 174C1387 228 1355 257 1281 271L1238 279C1178 290 1159 307 1159 348C1159 401 1204 442 1261 442C1302 442 1340 424 1356 397L1356 342L1379 342C1383 377 1387 404 1398 455C1359 474 1331 482 1298 482C1246 482 1185 452 1137 404C1111 377 1100 352 1100 316C1100 260 1131 228 1197 215L1260 203C1304 195 1320 177 1320 138C1320 73 1274 29 1203 29C1168 29 1137 40 1109 64L1109 148ZM1712 204L1683 77C1679 60 1677 42 1677 26C1677 4 1686 -9 1701 -9C1724 -9 1765 17 1847 85L1840 106C1816 86 1787 59 1765 59C1756 59 1750 68 1750 82C1750 87 1750 90 1751 93L1843 472L1833 481L1800 463C1759 478 1742 482 1715 482C1687 482 1667 477 1640 464C1578 433 1545 403 1520 354C1476 265 1445 145 1445 67C1445 23 1460 -11 1479 -11C1516 -11 1596 41 1712 204ZM1760 414C1738 305 1719 253 1685 201C1628 117 1567 59 1535 59C1523 59 1517 72 1517 99C1517 163 1545 280 1580 360C1604 415 1627 433 1675 433C1698 433 1716 429 1760 414ZM2309 -11C2365 -11 2480 62 2523 125C2564 186 2598 296 2598 371C2598 438 2575 482 2539 482C2497 482 2444 456 2392 409C2351 374 2331 348 2295 289L2319 408C2322 425 2324 440 2324 452C2324 471 2316 482 2302 482C2281 482 2243 461 2169 408L2141 388L2148 368L2180 389C2208 407 2219 412 2228 412C2238 412 2245 403 2245 389C2245 381 2243 361 2241 351L2183 8C2173 -52 2154 -143 2134 -233L2126 -270L2133 -276C2154 -269 2174 -264 2206 -259L2248 3C2269 -4 2291 -11 2309 -11ZM2276 165C2298 293 2405 424 2488 424C2514 424 2526 402 2526 356C2526 275 2486 156 2433 80C2413 51 2381 36 2340 36C2309 36 2284 43 2258 59ZM2649 152C2649 46 2694 -11 2777 -11C2832 -11 2892 15 2937 57C2999 116 3043 230 3043 331C3043 425 2993 482 2910 482C2806 482 2649 382 2649 152ZM2873 444C2934 444 2967 399 2967 315C2967 219 2936 113 2892 60C2874 39 2848 27 2817 27C2759 27 2725 72 2725 151C2725 264 2764 387 2813 427C2826 438 2849 444 2873 444ZM3443 365C3446 403 3451 435 3459 476C3448 481 3444 482 3439 482C3408 482 3377 458 3341 407C3302 351 3263 291 3247 256L3279 408C3283 425 3285 438 3285 450C3285 470 3277 482 3262 482C3241 482 3203 461 3129 408L3101 388L3108 368L3140 389C3168 407 3179 412 3188 412C3198 412 3205 403 3205 390C3205 332 3162 126 3122 -2L3132 -9C3147 -4 3163 -1 3186 4L3199 6L3225 126C3243 209 3266 262 3310 319C3344 363 3371 384 3393 384C3408 384 3418 379 3429 365ZM4040 111L4016 94C3963 56 3915 36 3879 36C3832 36 3803 73 3803 133C3803 158 3806 185 3811 214C3828 218 3937 248 3962 259C4047 296 4086 342 4086 404C4086 451 4052 482 4002 482C3934 496 3824 423 3787 349C3757 299 3727 180 3727 113C3727 35 3771 -11 3843 -11C3900 -11 3956 17 4048 92ZM3825 274C3842 343 3862 386 3891 412C3909 428 3940 440 3964 440C3993 440 4012 420 4012 388C4012 344 3977 297 3925 272C3897 258 3861 247 3816 237ZM4351 722L4339 733C4287 707 4251 698 4179 691L4175 670L4223 670C4247 670 4257 663 4257 648C4257 645 4257 640 4254 622C4243 567 4170 182 4155 132C4142 82 4136 52 4136 31C4136 6 4147 -9 4166 -9C4192 -9 4228 12 4326 85L4316 103L4290 86C4261 67 4239 56 4229 56C4222 56 4216 66 4216 76C4216 82 4217 89 4220 104ZM4802 -11C4858 -11 4973 62 5016 125C5057 186 5091 296 5091 371C5091 438 5068 482 5032 482C4990 482 4937 456 4885 409C4844 374 4824 348 4788 289L4812 408C4815 425 4817 440 4817 452C4817 471 4809 482 4795 482C4774 482 4736 461 4662 408L4634 388L4641 368L4673 389C4701 407 4712 412 4721 412C4731 412 4738 403 4738 389C4738 381 4736 361 4734 351L4676 8C4666 -52 4647 -143 4627 -233L4619 -270L4626 -276C4647 -269 4667 -264 4699 -259L4741 3C4762 -4 4784 -11 4802 -11ZM4769 165C4791 293 4898 424 4981 424C5007 424 5019 402 5019 356C5019 275 4979 156 4926 80C4906 51 4874 36 4833 36C4802 36 4777 43 4751 59ZM5617 473L5610 482L5542 465L5532 414C5517 336 5492 268 5461 221C5402 130 5324 59 5284 59C5276 59 5271 68 5271 85C5271 99 5273 112 5278 137L5335 408C5338 424 5340 438 5340 451C5340 470 5331 482 5317 482C5297 482 5259 461 5185 408L5157 388L5164 368L5196 389C5224 407 5235 412 5244 412C5253 412 5261 403 5261 392C5261 388 5260 378 5259 374L5196 77C5194 68 5192 44 5192 30C5192 7 5207 -11 5227 -11C5290 -11 5411 101 5495 239L5458 97C5451 73 5447 46 5447 31C5447 6 5458 -9 5477 -9C5503 -9 5539 12 5637 85L5627 103L5601 86C5577 70 5551 59 5540 59C5532 59 5527 66 5527 76C5527 112 5602 416 5617 473ZM5704 388L5711 368L5743 389C5780 412 5783 414 5790 414C5801 414 5808 404 5808 389C5808 338 5767 145 5726 2L5733 -9C5758 -2 5781 4 5803 8C5822 134 5843 199 5889 268C5943 352 6018 414 6063 414C6074 414 6080 405 6080 390C6080 372 6077 351 6069 319L6017 107C6008 70 6004 47 6004 31C6004 6 6015 -9 6034 -9C6060 -9 6096 12 6194 85L6184 103L6158 86C6129 67 6107 56 6097 56C6090 56 6084 65 6084 76C6084 81 6085 92 6086 96L6152 372C6159 401 6163 429 6163 446C6163 469 6152 482 6132 482C6090 482 6021 444 5962 389C5924 354 5896 320 5844 247L5882 408C5886 426 5888 438 5888 449C5888 470 5880 482 5865 482C5844 482 5805 460 5732 408ZM6360 390L6304 107C6303 99 6291 61 6291 31C6291 6 6302 -9 6321 -9C6356 -9 6391 11 6469 74L6500 99L6490 117L6445 86C6416 66 6396 56 6385 56C6376 56 6371 64 6371 76C6371 102 6385 183 6414 328L6427 390L6534 390L6545 440C6507 436 6473 434 6435 434C6451 528 6462 577 6480 631L6469 646C6449 634 6422 622 6391 610L6366 440C6322 419 6296 408 6278 403L6276 390ZM6584 152C6584 46 6629 -11 6712 -11C6767 -11 6827 15 6872 57C6934 116 6978 230 6978 331C6978 425 6928 482 6845 482C6741 482 6584 382 6584 152ZM6808 444C6869 444 6902 399 6902 315C6902 219 6871 113 6827 60C6809 39 6783 27 6752 27C6694 27 6660 72 6660 151C6660 264 6699 387 6748 427C6761 438 6784 444 6808 444Z" stroke="rgb(0,0,0)" stroke-opacity="1" stroke-width="8" fill="rgb(0,0,0)" fill-opacity="1"></path></g></g></g><g><g><g transform="matrix(1,0,0,1,2,280.1200065612793)"><path transform="matrix(0.017,0,0,-0.017,0,0)" d="M105 664L160 662C184 661 195 653 195 635L112 125C95 34 94 31 54 28L13 25L9 -3L51 -2C92 -1 123 0 141 0C158 0 187 -1 227 -2L280 -3L283 25L218 28C192 29 182 37 182 58C182 67 183 74 186 93L284 648C320 654 336 656 355 656C457 656 506 612 506 519C506 411 434 323 346 323C324 323 304 328 267 342L269 311C306 293 326 288 355 288C484 288 594 405 594 541C594 642 531 695 412 692L108 692Z" stroke="rgb(0,0,0)" stroke-opacity="1" stroke-width="8" fill="rgb(0,0,0)" fill-opacity="1"></path></g></g><g><g transform="matrix(1,0,0,1,12.3800048828125,281.0799980163574)"><path transform="matrix(0.017,0,0,-0.017,0,0)" d="M146 266C146 526 243 632 301 700L282 726C225 675 60 542 60 266C60 159 85 58 133 -32C168 -99 200 -138 282 -215L301 -194C255 -137 146 -15 146 266Z" stroke="rgb(0,0,0)" stroke-opacity="1" stroke-width="8" fill="rgb(0,0,0)" fill-opacity="1"></path></g></g><g><g transform="matrix(1,0,0,1,18.035003662109375,280.1200065612793)"><path transform="matrix(0.017,0,0,-0.017,0,0)" d="M9 1C24 -7 40 -11 52 -11C85 -11 124 18 155 65L231 182L242 113C255 28 278 -11 314 -11C336 -11 368 6 400 35L449 79L440 98C404 68 379 53 363 53C348 53 335 63 325 83C316 102 305 139 300 168L282 269L317 318C364 383 391 406 422 406C438 406 450 398 455 383L469 387L484 472C472 479 463 482 454 482C414 482 374 446 312 354L275 299L269 347C257 446 230 482 171 482C145 482 123 474 114 461L56 378L73 368C103 402 123 416 142 416C175 416 197 375 214 277L225 215L185 153C142 86 108 54 80 54C65 54 54 58 52 63L41 91L21 88C21 53 13 27 9 1Z" stroke="rgb(0,0,0)" stroke-opacity="1" stroke-width="8" fill="rgb(0,0,0)" fill-opacity="1"></path></g></g><g><g><g><g><g transform="matrix(1,0,0,1,27.035003662109375,284.080004119873)"><path transform="matrix(0.0119,0,0,-0.0119,0,0)" d="M418 -3L418 27L366 30C311 33 301 44 301 96L301 700L60 598L67 548L217 614L217 96C217 44 206 33 152 30L96 27L96 -3C250 0 250 0 261 0C292 0 402 -3 418 -3Z" stroke="rgb(0,0,0)" stroke-opacity="1" stroke-width="8" fill="rgb(0,0,0)" fill-opacity="1"></path></g></g></g></g></g><g><g transform="matrix(1,0,0,1,33.995025634765625,280.1200065612793)"><path transform="matrix(0.017,0,0,-0.017,0,0)" d="M204 123C177 114 159 108 106 93C99 17 74 -48 16 -144L30 -155L71 -136C152 -31 190 32 218 109Z" stroke="rgb(0,0,0)" stroke-opacity="1" stroke-width="8" fill="rgb(0,0,0)" fill-opacity="1"></path></g></g><g><g transform="matrix(1,0,0,1,41.6300048828125,280.1200065612793)"><path transform="matrix(0.017,0,0,-0.017,0,0)" d="M-7 -180C-8 -187 -8 -193 -8 -198C-8 -241 29 -276 74 -276C180 -276 290 -152 349 33L490 473L479 482C450 471 427 465 405 463L370 331C358 284 323 211 290 162C255 111 206 67 184 67C172 67 163 90 164 115L180 322C182 353 184 391 184 419C184 464 177 482 160 482C147 482 133 475 85 442L3 386L14 368L64 398C69 401 80 410 89 410C103 410 111 391 111 358C111 357 111 351 110 343L93 100L92 60C92 18 110 -11 135 -11C172 -11 256 74 331 187L282 16C231 -161 181 -234 111 -234C76 -234 49 -207 49 -172C49 -167 50 -159 51 -150L41 -146Z" stroke="rgb(0,0,0)" stroke-opacity="1" stroke-width="8" fill="rgb(0,0,0)" fill-opacity="1"></path></g></g><g><g><g><g><g transform="matrix(1,0,0,1,50.6300048828125,284.080004119873)"><path transform="matrix(0.0119,0,0,-0.0119,0,0)" d="M418 -3L418 27L366 30C311 33 301 44 301 96L301 700L60 598L67 548L217 614L217 96C217 44 206 33 152 30L96 27L96 -3C250 0 250 0 261 0C292 0 402 -3 418 -3Z" stroke="rgb(0,0,0)" stroke-opacity="1" stroke-width="8" fill="rgb(0,0,0)" fill-opacity="1"></path></g></g></g></g></g><g><g transform="matrix(1,0,0,1,57.59002685546875,281.0799980163574)"><path transform="matrix(0.017,0,0,-0.017,0,0)" d="M51 726L32 700C87 636 187 526 187 266C187 -10 83 -131 32 -194L51 -215C104 -165 273 -23 273 265C273 542 108 675 51 726Z" stroke="rgb(0,0,0)" stroke-opacity="1" stroke-width="8" fill="rgb(0,0,0)" fill-opacity="1"></path></g></g></g><g><g><g transform="matrix(1,0,0,1,2,302.6200065612793)"><path transform="matrix(0.017,0,0,-0.017,0,0)" d="M146 266C146 526 243 632 301 700L282 726C225 675 60 542 60 266C60 159 85 58 133 -32C168 -99 200 -138 282 -215L301 -194C255 -137 146 -15 146 266Z" stroke="rgb(0,0,0)" stroke-opacity="1" stroke-width="8" fill="rgb(0,0,0)" fill-opacity="1"></path></g></g><g><g transform="matrix(1,0,0,1,7.654998779296875,301.6600151062012)"><path transform="matrix(0.017,0,0,-0.017,0,0)" d="M-7 -180C-8 -187 -8 -193 -8 -198C-8 -241 29 -276 74 -276C180 -276 290 -152 349 33L490 473L479 482C450 471 427 465 405 463L370 331C358 284 323 211 290 162C255 111 206 67 184 67C172 67 163 90 164 115L180 322C182 353 184 391 184 419C184 464 177 482 160 482C147 482 133 475 85 442L3 386L14 368L64 398C69 401 80 410 89 410C103 410 111 391 111 358C111 357 111 351 110 343L93 100L92 60C92 18 110 -11 135 -11C172 -11 256 74 331 187L282 16C231 -161 181 -234 111 -234C76 -234 49 -207 49 -172C49 -167 50 -159 51 -150L41 -146Z" stroke="rgb(0,0,0)" stroke-opacity="1" stroke-width="8" fill="rgb(0,0,0)" fill-opacity="1"></path></g></g><g><g transform="matrix(1,0,0,1,19.535003662109375,301.6600151062012)"><path transform="matrix(0.017,0,0,-0.017,0,0)" d="M555 243L555 299L51 299L51 243Z" stroke="rgb(0,0,0)" stroke-opacity="1" stroke-width="8" fill="rgb(0,0,0)" fill-opacity="1"></path></g></g><g><g transform="matrix(1,0,0,1,33.21502685546875,301.6600151062012)"><path transform="matrix(0.017,0,0,-0.017,0,0)" d="M-7 -180C-8 -187 -8 -193 -8 -198C-8 -241 29 -276 74 -276C180 -276 290 -152 349 33L490 473L479 482C450 471 427 465 405 463L370 331C358 284 323 211 290 162C255 111 206 67 184 67C172 67 163 90 164 115L180 322C182 353 184 391 184 419C184 464 177 482 160 482C147 482 133 475 85 442L3 386L14 368L64 398C69 401 80 410 89 410C103 410 111 391 111 358C111 357 111 351 110 343L93 100L92 60C92 18 110 -11 135 -11C172 -11 256 74 331 187L282 16C231 -161 181 -234 111 -234C76 -234 49 -207 49 -172C49 -167 50 -159 51 -150L41 -146Z" stroke="rgb(0,0,0)" stroke-opacity="1" stroke-width="8" fill="rgb(0,0,0)" fill-opacity="1"></path></g></g><g><g><g><g><g transform="matrix(1,0,0,1,42.21502685546875,305.6200126647949)"><path transform="matrix(0.0119,0,0,-0.0119,0,0)" d="M418 -3L418 27L366 30C311 33 301 44 301 96L301 700L60 598L67 548L217 614L217 96C217 44 206 33 152 30L96 27L96 -3C250 0 250 0 261 0C292 0 402 -3 418 -3Z" stroke="rgb(0,0,0)" stroke-opacity="1" stroke-width="8" fill="rgb(0,0,0)" fill-opacity="1"></path></g></g></g></g></g><g><g transform="matrix(1,0,0,1,49.175018310546875,302.6200065612793)"><path transform="matrix(0.017,0,0,-0.017,0,0)" d="M51 726L32 700C87 636 187 526 187 266C187 -10 83 -131 32 -194L51 -215C104 -165 273 -23 273 265C273 542 108 675 51 726Z" stroke="rgb(0,0,0)" stroke-opacity="1" stroke-width="8" fill="rgb(0,0,0)" fill-opacity="1"></path></g></g><g><g transform="matrix(1,0,0,1,59.92999267578125,301.6600151062012)"><path transform="matrix(0.017,0,0,-0.017,0,0)" d="M604 347L604 406L65 406L65 347ZM604 134L604 193L65 193L65 134Z" stroke="rgb(0,0,0)" stroke-opacity="1" stroke-width="8" fill="rgb(0,0,0)" fill-opacity="1"></path></g></g><g><g transform="matrix(1,0,0,1,76.385009765625,301.6600151062012)"><path transform="matrix(0.017,0,0,-0.017,0,0)" d="M730 103L704 86C675 67 653 56 643 56C636 56 630 65 630 76C630 86 632 95 637 116L712 413C716 430 719 446 719 454C719 471 709 482 693 482C664 482 626 464 565 421C502 376 467 341 418 272L448 409C452 429 455 444 455 451C455 470 445 482 429 482C399 482 353 460 298 418C254 384 234 363 169 275L202 408C206 424 208 439 208 451C208 470 199 482 185 482C164 482 126 461 52 408L24 388L31 368C68 391 103 414 110 414C121 414 128 404 128 389C128 338 87 145 46 2L49 -9L117 6L139 108C163 219 190 278 245 338C287 384 332 414 360 414C367 414 371 406 371 393C371 358 349 244 308 69L292 2L297 -9L366 6L387 113C403 194 437 269 481 318C536 379 586 414 618 414C626 414 631 405 631 389C631 365 628 351 606 264C566 105 550 84 550 31C550 6 561 -9 580 -9C606 -9 642 12 740 85Z" stroke="rgb(0,0,0)" stroke-opacity="1" stroke-width="8" fill="rgb(0,0,0)" fill-opacity="1"></path></g></g><g><g transform="matrix(1,0,0,1,89.60003662109375,302.6200065612793)"><path transform="matrix(0.017,0,0,-0.017,0,0)" d="M146 266C146 526 243 632 301 700L282 726C225 675 60 542 60 266C60 159 85 58 133 -32C168 -99 200 -138 282 -215L301 -194C255 -137 146 -15 146 266Z" stroke="rgb(0,0,0)" stroke-opacity="1" stroke-width="8" fill="rgb(0,0,0)" fill-opacity="1"></path></g></g><g><g transform="matrix(1,0,0,1,95.2550048828125,301.6600151062012)"><path transform="matrix(0.017,0,0,-0.017,0,0)" d="M9 1C24 -7 40 -11 52 -11C85 -11 124 18 155 65L231 182L242 113C255 28 278 -11 314 -11C336 -11 368 6 400 35L449 79L440 98C404 68 379 53 363 53C348 53 335 63 325 83C316 102 305 139 300 168L282 269L317 318C364 383 391 406 422 406C438 406 450 398 455 383L469 387L484 472C472 479 463 482 454 482C414 482 374 446 312 354L275 299L269 347C257 446 230 482 171 482C145 482 123 474 114 461L56 378L73 368C103 402 123 416 142 416C175 416 197 375 214 277L225 215L185 153C142 86 108 54 80 54C65 54 54 58 52 63L41 91L21 88C21 53 13 27 9 1Z" stroke="rgb(0,0,0)" stroke-opacity="1" stroke-width="8" fill="rgb(0,0,0)" fill-opacity="1"></path></g></g><g><g transform="matrix(1,0,0,1,107.135009765625,301.6600151062012)"><path transform="matrix(0.017,0,0,-0.017,0,0)" d="M555 243L555 299L51 299L51 243Z" stroke="rgb(0,0,0)" stroke-opacity="1" stroke-width="8" fill="rgb(0,0,0)" fill-opacity="1"></path></g></g><g><g transform="matrix(1,0,0,1,120.81500244140625,301.6600151062012)"><path transform="matrix(0.017,0,0,-0.017,0,0)" d="M9 1C24 -7 40 -11 52 -11C85 -11 124 18 155 65L231 182L242 113C255 28 278 -11 314 -11C336 -11 368 6 400 35L449 79L440 98C404 68 379 53 363 53C348 53 335 63 325 83C316 102 305 139 300 168L282 269L317 318C364 383 391 406 422 406C438 406 450 398 455 383L469 387L484 472C472 479 463 482 454 482C414 482 374 446 312 354L275 299L269 347C257 446 230 482 171 482C145 482 123 474 114 461L56 378L73 368C103 402 123 416 142 416C175 416 197 375 214 277L225 215L185 153C142 86 108 54 80 54C65 54 54 58 52 63L41 91L21 88C21 53 13 27 9 1Z" stroke="rgb(0,0,0)" stroke-opacity="1" stroke-width="8" fill="rgb(0,0,0)" fill-opacity="1"></path></g></g><g><g><g><g><g transform="matrix(1,0,0,1,129.81500244140625,305.6200126647949)"><path transform="matrix(0.0119,0,0,-0.0119,0,0)" d="M418 -3L418 27L366 30C311 33 301 44 301 96L301 700L60 598L67 548L217 614L217 96C217 44 206 33 152 30L96 27L96 -3C250 0 250 0 261 0C292 0 402 -3 418 -3Z" stroke="rgb(0,0,0)" stroke-opacity="1" stroke-width="8" fill="rgb(0,0,0)" fill-opacity="1"></path></g></g></g></g></g><g><g transform="matrix(1,0,0,1,136.7750244140625,302.6200065612793)"><path transform="matrix(0.017,0,0,-0.017,0,0)" d="M51 726L32 700C87 636 187 526 187 266C187 -10 83 -131 32 -194L51 -215C104 -165 273 -23 273 265C273 542 108 675 51 726Z" stroke="rgb(0,0,0)" stroke-opacity="1" stroke-width="8" fill="rgb(0,0,0)" fill-opacity="1"></path></g></g></g><g></g><g><g><g transform="matrix(1,0,0,1,2,343.3600273132324)"><path transform="matrix(0.017,0,0,-0.017,0,0)" d="M45 284C45 90 152 -18 343 -18C439 -18 510 5 600 67C600 67 610 103 610 103C610 103 600 110 600 110C506 53 454 35 376 35C219 35 133 131 133 309C133 447 190 653 418 653C489 653 541 639 597 603L597 519L624 519C629 576 637 619 651 665C575 694 518 706 456 706C276 706 45 578 45 284ZM958 204L929 77C925 60 923 42 923 26C923 4 932 -9 947 -9C970 -9 1011 17 1093 85L1086 106C1062 86 1033 59 1011 59C1002 59 996 68 996 82C996 87 996 90 997 93L1089 472L1079 481L1046 463C1005 478 988 482 961 482C933 482 913 477 886 464C824 433 791 403 766 354C722 265 691 145 691 67C691 23 706 -11 725 -11C762 -11 842 41 958 204ZM1006 414C984 305 965 253 931 201C874 117 813 59 781 59C769 59 763 72 763 99C763 163 791 280 826 360C850 415 873 433 921 433C944 433 962 429 1006 414ZM1154 388L1161 368L1193 389C1230 412 1233 414 1240 414C1251 414 1258 404 1258 389C1258 338 1217 145 1176 2L1183 -9C1208 -2 1231 4 1253 8C1272 134 1293 199 1339 268C1393 352 1468 414 1513 414C1524 414 1530 405 1530 390C1530 372 1527 351 1519 319L1467 107C1458 70 1454 47 1454 31C1454 6 1465 -9 1484 -9C1510 -9 1546 12 1644 85L1634 103L1608 86C1579 67 1557 56 1547 56C1540 56 1534 65 1534 76C1534 81 1535 92 1536 96L1602 372C1609 401 1613 429 1613 446C1613 469 1602 482 1582 482C1540 482 1471 444 1412 389C1374 354 1346 320 1294 247L1332 408C1336 426 1338 438 1338 449C1338 470 1330 482 1315 482C1294 482 1255 460 1182 408ZM1964 469C1818 469 1717 366 1717 217C1717 76 1806 -20 1935 -20C2089 -20 2199 87 2199 237C2199 372 2101 469 1964 469ZM1946 436C2038 436 2106 336 2106 200C2106 85 2055 13 1974 13C1876 13 1810 109 1810 251C1810 371 1858 436 1946 436ZM1864 506L1904 506L2048 596C2081 617 2088 625 2088 643C2088 662 2074 677 2057 677C2042 677 2024 666 2002 644ZM2254 388L2261 368L2293 389C2330 412 2333 414 2340 414C2351 414 2358 404 2358 389C2358 338 2317 145 2276 2L2283 -9C2308 -2 2331 4 2353 8C2372 134 2393 199 2439 268C2493 352 2568 414 2613 414C2624 414 2630 405 2630 390C2630 372 2627 351 2619 319L2567 107C2558 70 2554 47 2554 31C2554 6 2565 -9 2584 -9C2610 -9 2646 12 2744 85L2734 103L2708 86C2679 67 2657 56 2647 56C2640 56 2634 65 2634 76C2634 81 2635 92 2636 96L2702 372C2709 401 2713 429 2713 446C2713 469 2702 482 2682 482C2640 482 2571 444 2512 389C2474 354 2446 320 2394 247L2432 408C2436 426 2438 438 2438 449C2438 470 2430 482 2415 482C2394 482 2355 460 2282 408ZM2819 388L2826 368L2858 389C2895 412 2898 414 2905 414C2915 414 2923 404 2923 391C2923 384 2919 361 2915 347L2849 107C2841 76 2836 49 2836 30C2836 6 2847 -9 2866 -9C2892 -9 2928 12 3026 85L3016 103L2990 86C2961 67 2938 56 2929 56C2922 56 2916 66 2916 76C2916 86 2918 95 2923 116L3000 420C3004 437 3006 448 3006 456C3006 473 2997 482 2981 482C2959 482 2922 461 2847 408ZM3013 712C2984 712 2955 679 2955 645C2955 620 2970 604 2994 604C3025 604 3049 633 3049 671C3049 695 3034 712 3013 712ZM3404 330L3427 330C3435 395 3442 432 3451 458C3427 473 3392 482 3355 482C3310 483 3237 463 3180 400C3126 352 3087 241 3087 136C3087 40 3129 -11 3209 -11C3263 -11 3311 9 3366 54L3416 95L3408 115L3393 105C3321 57 3283 40 3248 40C3192 40 3163 80 3163 159C3163 267 3198 371 3247 409C3268 425 3292 433 3323 433C3368 433 3404 414 3404 390ZM3739 204L3710 77C3706 60 3704 42 3704 26C3704 4 3713 -9 3728 -9C3751 -9 3792 17 3874 85L3867 106C3843 86 3814 59 3792 59C3783 59 3777 68 3777 82C3777 87 3777 90 3778 93L3870 472L3860 481L3827 463C3786 478 3769 482 3742 482C3714 482 3694 477 3667 464C3605 433 3572 403 3547 354C3503 265 3472 145 3472 67C3472 23 3487 -11 3506 -11C3543 -11 3623 41 3739 204ZM3787 414C3765 305 3746 253 3712 201C3655 117 3594 59 3562 59C3550 59 3544 72 3544 99C3544 163 3572 280 3607 360C3631 415 3654 433 3702 433C3725 433 3743 429 3787 414Z" stroke="rgb(0,0,0)" stroke-opacity="1" stroke-width="8" fill="rgb(0,0,0)" fill-opacity="1"></path></g></g></g><g><g><g><g><g><g transform="matrix(1,0,0,1,3.69500732421875,359.5300102233887)"><path transform="matrix(0.017,0,0,-0.017,0,0)" d="M9 1C24 -7 40 -11 52 -11C85 -11 124 18 155 65L231 182L242 113C255 28 278 -11 314 -11C336 -11 368 6 400 35L449 79L440 98C404 68 379 53 363 53C348 53 335 63 325 83C316 102 305 139 300 168L282 269L317 318C364 383 391 406 422 406C438 406 450 398 455 383L469 387L484 472C472 479 463 482 454 482C414 482 374 446 312 354L275 299L269 347C257 446 230 482 171 482C145 482 123 474 114 461L56 378L73 368C103 402 123 416 142 416C175 416 197 375 214 277L225 215L185 153C142 86 108 54 80 54C65 54 54 58 52 63L41 91L21 88C21 53 13 27 9 1Z" stroke="rgb(0,0,0)" stroke-opacity="1" stroke-width="8" fill="rgb(0,0,0)" fill-opacity="1"></path></g></g></g></g><g><g><g><g transform="matrix(1,0,0,1,4.175018310546875,384.8650016784668)"><path transform="matrix(0.017,0,0,-0.017,0,0)" d="M271 204L242 77C238 60 236 42 236 26C236 4 245 -9 260 -9C283 -9 324 17 406 85L399 106C375 86 346 59 324 59C315 59 309 68 309 82C309 87 309 90 310 93L402 472L392 481L359 463C318 478 301 482 274 482C246 482 226 477 199 464C137 433 104 403 79 354C35 265 4 145 4 67C4 23 19 -11 38 -11C75 -11 155 41 271 204ZM319 414C297 305 278 253 244 201C187 117 126 59 94 59C82 59 76 72 76 99C76 163 104 280 139 360C163 415 186 433 234 433C257 433 275 429 319 414Z" stroke="rgb(0,0,0)" stroke-opacity="1" stroke-width="8" fill="rgb(0,0,0)" fill-opacity="1"></path></g></g></g></g><line style="fill:none;stroke-width:0.99px;stroke:rgb(0, 0, 0);" x1="3.69500732421875" y1="367.73000168800354" x2="12.18500804901123" y2="367.73000168800354"></line></g><g><g transform="matrix(1,0,0,1,17.27001953125,371.69501876831055)"><path transform="matrix(0.017,0,0,-0.017,0,0)" d="M604 241L604 300L364 300L364 538L305 538L305 300L65 300L65 241L305 241L305 0L364 0L364 241Z" stroke="rgb(0,0,0)" stroke-opacity="1" stroke-width="8" fill="rgb(0,0,0)" fill-opacity="1"></path></g></g><g><g><g><g><g transform="matrix(1,0,0,1,33.71002197265625,359.5300102233887)"><path transform="matrix(0.017,0,0,-0.017,0,0)" d="M-7 -180C-8 -187 -8 -193 -8 -198C-8 -241 29 -276 74 -276C180 -276 290 -152 349 33L490 473L479 482C450 471 427 465 405 463L370 331C358 284 323 211 290 162C255 111 206 67 184 67C172 67 163 90 164 115L180 322C182 353 184 391 184 419C184 464 177 482 160 482C147 482 133 475 85 442L3 386L14 368L64 398C69 401 80 410 89 410C103 410 111 391 111 358C111 357 111 351 110 343L93 100L92 60C92 18 110 -11 135 -11C172 -11 256 74 331 187L282 16C231 -161 181 -234 111 -234C76 -234 49 -207 49 -172C49 -167 50 -159 51 -150L41 -146Z" stroke="rgb(0,0,0)" stroke-opacity="1" stroke-width="8" fill="rgb(0,0,0)" fill-opacity="1"></path></g></g></g></g><g><g><g><g transform="matrix(1,0,0,1,34.0250244140625,384.8650016784668)"><path transform="matrix(0.017,0,0,-0.017,0,0)" d="M235 722L223 733C171 707 135 698 63 691L59 670L107 670C131 670 141 663 141 646C141 639 140 628 139 622L38 71C37 68 37 64 37 61C37 22 85 -11 140 -11C177 -11 228 8 271 39C367 107 433 244 433 376C433 414 424 453 412 468C405 477 392 482 377 482C353 482 323 474 295 460C244 433 211 403 149 324ZM322 424C348 424 361 401 361 352C361 288 340 202 310 137C277 68 237 36 183 36C137 36 112 59 112 101C112 135 127 276 208 361C241 395 293 424 322 424Z" stroke="rgb(0,0,0)" stroke-opacity="1" stroke-width="8" fill="rgb(0,0,0)" fill-opacity="1"></path></g></g></g></g><line style="fill:none;stroke-width:0.99px;stroke:rgb(0, 0, 0);" x1="33.71002197265625" y1="367.73000168800354" x2="42.20002269744873" y2="367.73000168800354"></line></g><g><g transform="matrix(1,0,0,1,48.995025634765625,371.69501876831055)"><path transform="matrix(0.017,0,0,-0.017,0,0)" d="M604 347L604 406L65 406L65 347ZM604 134L604 193L65 193L65 134Z" stroke="rgb(0,0,0)" stroke-opacity="1" stroke-width="8" fill="rgb(0,0,0)" fill-opacity="1"></path></g></g><g><g transform="matrix(1,0,0,1,65.45001220703125,371.69501876831055)"><path transform="matrix(0.017,0,0,-0.017,0,0)" d="M418 -3L418 27L366 30C311 33 301 44 301 96L301 700L60 598L67 548L217 614L217 96C217 44 206 33 152 30L96 27L96 -3C250 0 250 0 261 0C292 0 402 -3 418 -3Z" stroke="rgb(0,0,0)" stroke-opacity="1" stroke-width="8" fill="rgb(0,0,0)" fill-opacity="1"></path></g></g></g><g><g><g transform="matrix(1,0,0,1,2,402.9850273132324)"><path transform="matrix(0.017,0,0,-0.017,0,0)" d="M146 266C146 526 243 632 301 700L282 726C225 675 60 542 60 266C60 159 85 58 133 -32C168 -99 200 -138 282 -215L301 -194C255 -137 146 -15 146 266Z" stroke="rgb(0,0,0)" stroke-opacity="1" stroke-width="8" fill="rgb(0,0,0)" fill-opacity="1"></path></g></g><g><g transform="matrix(1,0,0,1,7.654998779296875,402.0250053405762)"><path transform="matrix(0.017,0,0,-0.017,0,0)" d="M271 204L242 77C238 60 236 42 236 26C236 4 245 -9 260 -9C283 -9 324 17 406 85L399 106C375 86 346 59 324 59C315 59 309 68 309 82C309 87 309 90 310 93L402 472L392 481L359 463C318 478 301 482 274 482C246 482 226 477 199 464C137 433 104 403 79 354C35 265 4 145 4 67C4 23 19 -11 38 -11C75 -11 155 41 271 204ZM319 414C297 305 278 253 244 201C187 117 126 59 94 59C82 59 76 72 76 99C76 163 104 280 139 360C163 415 186 433 234 433C257 433 275 429 319 414Z" stroke="rgb(0,0,0)" stroke-opacity="1" stroke-width="8" fill="rgb(0,0,0)" fill-opacity="1"></path></g></g><g><g transform="matrix(1,0,0,1,15.185028076171875,402.0250053405762)"><path transform="matrix(0.017,0,0,-0.017,0,0)" d="M204 123C177 114 159 108 106 93C99 17 74 -48 16 -144L30 -155L71 -136C152 -31 190 32 218 109Z" stroke="rgb(0,0,0)" stroke-opacity="1" stroke-width="8" fill="rgb(0,0,0)" fill-opacity="1"></path></g></g><g><g transform="matrix(1,0,0,1,22.82000732421875,402.0250053405762)"><path transform="matrix(0.017,0,0,-0.017,0,0)" d="M263 689C108 689 29 566 29 324C29 207 50 106 85 57C120 8 176 -20 238 -20C389 -20 465 110 465 366C465 585 400 689 263 689ZM245 654C342 654 381 556 381 316C381 103 343 15 251 15C154 15 113 116 113 360C113 571 150 654 245 654Z" stroke="rgb(0,0,0)" stroke-opacity="1" stroke-width="8" fill="rgb(0,0,0)" fill-opacity="1"></path></g></g><g><g transform="matrix(1,0,0,1,31.310028076171875,402.9850273132324)"><path transform="matrix(0.017,0,0,-0.017,0,0)" d="M51 726L32 700C87 636 187 526 187 266C187 -10 83 -131 32 -194L51 -215C104 -165 273 -23 273 265C273 542 108 675 51 726Z" stroke="rgb(0,0,0)" stroke-opacity="1" stroke-width="8" fill="rgb(0,0,0)" fill-opacity="1"></path></g></g><g><g transform="matrix(1,0,0,1,40.355010986328125,402.0250053405762)"><path transform="matrix(0.017,0,0,-0.017,0,0)" d="M123 111C93 111 66 83 66 53C66 23 93 -5 122 -5C154 -5 182 22 182 53C182 83 154 111 123 111ZM123 456C93 456 66 428 66 398C66 368 93 340 122 340C154 340 182 367 182 397C182 428 154 456 123 456Z" stroke="rgb(0,0,0)" stroke-opacity="1" stroke-width="8" fill="rgb(0,0,0)" fill-opacity="1"></path></g></g><g><g transform="matrix(1,0,0,1,47.990020751953125,402.0250053405762)"><path transform="matrix(0.017,0,0,-0.017,0,0)" d="M342 330L365 330C373 395 380 432 389 458C365 473 330 482 293 482C248 483 175 463 118 400C64 352 25 241 25 136C25 40 67 -11 147 -11C201 -11 249 9 304 54L354 95L346 115L331 105C259 57 221 40 186 40C130 40 101 80 101 159C101 267 136 371 185 409C206 425 230 433 261 433C306 433 342 414 342 390ZM423 152C423 46 468 -11 551 -11C606 -11 666 15 711 57C773 116 817 230 817 331C817 425 767 482 684 482C580 482 423 382 423 152ZM647 444C708 444 741 399 741 315C741 219 710 113 666 60C648 39 622 27 591 27C533 27 499 72 499 151C499 264 538 387 587 427C600 438 623 444 647 444ZM1217 365C1220 403 1225 435 1233 476C1222 481 1218 482 1213 482C1182 482 1151 458 1115 407C1076 351 1037 291 1021 256L1053 408C1057 425 1059 438 1059 450C1059 470 1051 482 1036 482C1015 482 977 461 903 408L875 388L882 368L914 389C942 407 953 412 962 412C972 412 979 403 979 390C979 332 936 126 896 -2L906 -9C921 -4 937 -1 960 4L973 6L999 126C1017 209 1040 262 1084 319C1118 363 1145 384 1167 384C1182 384 1192 379 1203 365ZM1362 390L1306 107C1305 99 1293 61 1293 31C1293 6 1304 -9 1323 -9C1358 -9 1393 11 1471 74L1502 99L1492 117L1447 86C1418 66 1398 56 1387 56C1378 56 1373 64 1373 76C1373 102 1387 183 1416 328L1429 390L1536 390L1547 440C1509 436 1475 434 1437 434C1453 528 1464 577 1482 631L1471 646C1451 634 1424 622 1393 610L1368 440C1324 419 1298 408 1280 403L1278 390ZM1897 111L1873 94C1820 56 1772 36 1736 36C1689 36 1660 73 1660 133C1660 158 1663 185 1668 214C1685 218 1794 248 1819 259C1904 296 1943 342 1943 404C1943 451 1909 482 1859 482C1791 496 1681 423 1644 349C1614 299 1584 180 1584 113C1584 35 1628 -11 1700 -11C1757 -11 1813 17 1905 92ZM1682 274C1699 343 1719 386 1748 412C1766 428 1797 440 1821 440C1850 440 1869 420 1869 388C1869 344 1834 297 1782 272C1754 258 1718 247 1673 237ZM2534 111L2510 94C2457 56 2409 36 2373 36C2326 36 2297 73 2297 133C2297 158 2300 185 2305 214C2322 218 2431 248 2456 259C2541 296 2580 342 2580 404C2580 451 2546 482 2496 482C2428 496 2318 423 2281 349C2251 299 2221 180 2221 113C2221 35 2265 -11 2337 -11C2394 -11 2450 17 2542 92ZM2319 274C2336 343 2356 386 2385 412C2403 428 2434 440 2458 440C2487 440 2506 420 2506 388C2506 344 2471 297 2419 272C2391 258 2355 247 2310 237ZM2618 388L2625 368L2657 389C2694 412 2697 414 2704 414C2715 414 2722 404 2722 389C2722 338 2681 145 2640 2L2647 -9C2672 -2 2695 4 2717 8C2736 134 2757 199 2803 268C2857 352 2932 414 2977 414C2988 414 2994 405 2994 390C2994 372 2991 351 2983 319L2931 107C2922 70 2918 47 2918 31C2918 6 2929 -9 2948 -9C2974 -9 3010 12 3108 85L3098 103L3072 86C3043 67 3021 56 3011 56C3004 56 2998 65 2998 76C2998 81 2999 92 3000 96L3066 372C3073 401 3077 429 3077 446C3077 469 3066 482 3046 482C3004 482 2935 444 2876 389C2838 354 2810 320 2758 247L2796 408C2800 426 2802 438 2802 449C2802 470 2794 482 2779 482C2758 482 2719 460 2646 408ZM3407 1C3422 -7 3438 -11 3450 -11C3483 -11 3522 18 3553 65L3629 182L3640 113C3653 28 3676 -11 3712 -11C3734 -11 3766 6 3798 35L3847 79L3838 98C3802 68 3777 53 3761 53C3746 53 3733 63 3723 83C3714 102 3703 139 3698 168L3680 269L3715 318C3762 383 3789 406 3820 406C3836 406 3848 398 3853 383L3867 387L3882 472C3870 479 3861 482 3852 482C3812 482 3772 446 3710 354L3673 299L3667 347C3655 446 3628 482 3569 482C3543 482 3521 474 3512 461L3454 378L3471 368C3501 402 3521 416 3540 416C3573 416 3595 375 3612 277L3623 215L3583 153C3540 86 3506 54 3478 54C3463 54 3452 58 3450 63L3439 91L3419 88C3419 53 3411 27 3407 1Z" stroke="rgb(0,0,0)" stroke-opacity="1" stroke-width="8" fill="rgb(0,0,0)" fill-opacity="1"></path></g></g></g><g><g><g transform="matrix(1,0,0,1,2,423.1450309753418)"><path transform="matrix(0.017,0,0,-0.017,0,0)" d="M146 266C146 526 243 632 301 700L282 726C225 675 60 542 60 266C60 159 85 58 133 -32C168 -99 200 -138 282 -215L301 -194C255 -137 146 -15 146 266Z" stroke="rgb(0,0,0)" stroke-opacity="1" stroke-width="8" fill="rgb(0,0,0)" fill-opacity="1"></path></g></g><g><g transform="matrix(1,0,0,1,7.654998779296875,422.18500900268555)"><path transform="matrix(0.017,0,0,-0.017,0,0)" d="M263 689C108 689 29 566 29 324C29 207 50 106 85 57C120 8 176 -20 238 -20C389 -20 465 110 465 366C465 585 400 689 263 689ZM245 654C342 654 381 556 381 316C381 103 343 15 251 15C154 15 113 116 113 360C113 571 150 654 245 654Z" stroke="rgb(0,0,0)" stroke-opacity="1" stroke-width="8" fill="rgb(0,0,0)" fill-opacity="1"></path></g></g><g><g transform="matrix(1,0,0,1,16.14501953125,422.18500900268555)"><path transform="matrix(0.017,0,0,-0.017,0,0)" d="M204 123C177 114 159 108 106 93C99 17 74 -48 16 -144L30 -155L71 -136C152 -31 190 32 218 109Z" stroke="rgb(0,0,0)" stroke-opacity="1" stroke-width="8" fill="rgb(0,0,0)" fill-opacity="1"></path></g></g><g><g transform="matrix(1,0,0,1,23.780029296875,422.18500900268555)"><path transform="matrix(0.017,0,0,-0.017,0,0)" d="M235 722L223 733C171 707 135 698 63 691L59 670L107 670C131 670 141 663 141 646C141 639 140 628 139 622L38 71C37 68 37 64 37 61C37 22 85 -11 140 -11C177 -11 228 8 271 39C367 107 433 244 433 376C433 414 424 453 412 468C405 477 392 482 377 482C353 482 323 474 295 460C244 433 211 403 149 324ZM322 424C348 424 361 401 361 352C361 288 340 202 310 137C277 68 237 36 183 36C137 36 112 59 112 101C112 135 127 276 208 361C241 395 293 424 322 424Z" stroke="rgb(0,0,0)" stroke-opacity="1" stroke-width="8" fill="rgb(0,0,0)" fill-opacity="1"></path></g></g><g><g transform="matrix(1,0,0,1,31.6400146484375,423.1450309753418)"><path transform="matrix(0.017,0,0,-0.017,0,0)" d="M51 726L32 700C87 636 187 526 187 266C187 -10 83 -131 32 -194L51 -215C104 -165 273 -23 273 265C273 542 108 675 51 726Z" stroke="rgb(0,0,0)" stroke-opacity="1" stroke-width="8" fill="rgb(0,0,0)" fill-opacity="1"></path></g></g><g><g transform="matrix(1,0,0,1,40.685028076171875,422.18500900268555)"><path transform="matrix(0.017,0,0,-0.017,0,0)" d="M123 111C93 111 66 83 66 53C66 23 93 -5 122 -5C154 -5 182 22 182 53C182 83 154 111 123 111ZM123 456C93 456 66 428 66 398C66 368 93 340 122 340C154 340 182 367 182 397C182 428 154 456 123 456Z" stroke="rgb(0,0,0)" stroke-opacity="1" stroke-width="8" fill="rgb(0,0,0)" fill-opacity="1"></path></g></g><g><g transform="matrix(1,0,0,1,48.32000732421875,422.18500900268555)"><path transform="matrix(0.017,0,0,-0.017,0,0)" d="M342 330L365 330C373 395 380 432 389 458C365 473 330 482 293 482C248 483 175 463 118 400C64 352 25 241 25 136C25 40 67 -11 147 -11C201 -11 249 9 304 54L354 95L346 115L331 105C259 57 221 40 186 40C130 40 101 80 101 159C101 267 136 371 185 409C206 425 230 433 261 433C306 433 342 414 342 390ZM423 152C423 46 468 -11 551 -11C606 -11 666 15 711 57C773 116 817 230 817 331C817 425 767 482 684 482C580 482 423 382 423 152ZM647 444C708 444 741 399 741 315C741 219 710 113 666 60C648 39 622 27 591 27C533 27 499 72 499 151C499 264 538 387 587 427C600 438 623 444 647 444ZM1217 365C1220 403 1225 435 1233 476C1222 481 1218 482 1213 482C1182 482 1151 458 1115 407C1076 351 1037 291 1021 256L1053 408C1057 425 1059 438 1059 450C1059 470 1051 482 1036 482C1015 482 977 461 903 408L875 388L882 368L914 389C942 407 953 412 962 412C972 412 979 403 979 390C979 332 936 126 896 -2L906 -9C921 -4 937 -1 960 4L973 6L999 126C1017 209 1040 262 1084 319C1118 363 1145 384 1167 384C1182 384 1192 379 1203 365ZM1362 390L1306 107C1305 99 1293 61 1293 31C1293 6 1304 -9 1323 -9C1358 -9 1393 11 1471 74L1502 99L1492 117L1447 86C1418 66 1398 56 1387 56C1378 56 1373 64 1373 76C1373 102 1387 183 1416 328L1429 390L1536 390L1547 440C1509 436 1475 434 1437 434C1453 528 1464 577 1482 631L1471 646C1451 634 1424 622 1393 610L1368 440C1324 419 1298 408 1280 403L1278 390ZM1897 111L1873 94C1820 56 1772 36 1736 36C1689 36 1660 73 1660 133C1660 158 1663 185 1668 214C1685 218 1794 248 1819 259C1904 296 1943 342 1943 404C1943 451 1909 482 1859 482C1791 496 1681 423 1644 349C1614 299 1584 180 1584 113C1584 35 1628 -11 1700 -11C1757 -11 1813 17 1905 92ZM1682 274C1699 343 1719 386 1748 412C1766 428 1797 440 1821 440C1850 440 1869 420 1869 388C1869 344 1834 297 1782 272C1754 258 1718 247 1673 237ZM2534 111L2510 94C2457 56 2409 36 2373 36C2326 36 2297 73 2297 133C2297 158 2300 185 2305 214C2322 218 2431 248 2456 259C2541 296 2580 342 2580 404C2580 451 2546 482 2496 482C2428 496 2318 423 2281 349C2251 299 2221 180 2221 113C2221 35 2265 -11 2337 -11C2394 -11 2450 17 2542 92ZM2319 274C2336 343 2356 386 2385 412C2403 428 2434 440 2458 440C2487 440 2506 420 2506 388C2506 344 2471 297 2419 272C2391 258 2355 247 2310 237ZM2618 388L2625 368L2657 389C2694 412 2697 414 2704 414C2715 414 2722 404 2722 389C2722 338 2681 145 2640 2L2647 -9C2672 -2 2695 4 2717 8C2736 134 2757 199 2803 268C2857 352 2932 414 2977 414C2988 414 2994 405 2994 390C2994 372 2991 351 2983 319L2931 107C2922 70 2918 47 2918 31C2918 6 2929 -9 2948 -9C2974 -9 3010 12 3108 85L3098 103L3072 86C3043 67 3021 56 3011 56C3004 56 2998 65 2998 76C2998 81 2999 92 3000 96L3066 372C3073 401 3077 429 3077 446C3077 469 3066 482 3046 482C3004 482 2935 444 2876 389C2838 354 2810 320 2758 247L2796 408C2800 426 2802 438 2802 449C2802 470 2794 482 2779 482C2758 482 2719 460 2646 408ZM3391 -180C3390 -187 3390 -193 3390 -198C3390 -241 3427 -276 3472 -276C3578 -276 3688 -152 3747 33L3888 473L3877 482C3848 471 3825 465 3803 463L3768 331C3756 284 3721 211 3688 162C3653 111 3604 67 3582 67C3570 67 3561 90 3562 115L3578 322C3580 353 3582 391 3582 419C3582 464 3575 482 3558 482C3545 482 3531 475 3483 442L3401 386L3412 368L3462 398C3467 401 3478 410 3487 410C3501 410 3509 391 3509 358C3509 357 3509 351 3508 343L3491 100L3490 60C3490 18 3508 -11 3533 -11C3570 -11 3654 74 3729 187L3680 16C3629 -161 3579 -234 3509 -234C3474 -234 3447 -207 3447 -172C3447 -167 3448 -159 3449 -150L3439 -146Z" stroke="rgb(0,0,0)" stroke-opacity="1" stroke-width="8" fill="rgb(0,0,0)" fill-opacity="1"></path></g></g></g></g></svg>