<svg xmlns="http://www.w3.org/2000/svg" xmlns:xlink="http://www.w3.org/1999/xlink" width="140.74000549316406" height="170.8000030517578" style="width:140.74000549316406px;height:170.8000030517578px;font-family:Asana-Math, Asana;background:#FFF;"><g><g><g><g transform="matrix(1,0,0,1,2,18.039993286132812)"><path transform="matrix(0.017,0,0,-0.017,0,0)" d="M349 664L352 692L238 689C222 689 204 689 161 690L97 692L94 664L141 662C165 661 176 653 176 635L81 55C77 37 65 30 21 23L16 -3L57 -2C88 -1 150 0 170 0C170 0 467 -1 467 -1C467 -1 500 0 500 0C499 25 510 103 523 165L492 165L475 103C466 71 457 54 448 49C435 44 371 39 304 39C255 39 228 40 162 46C165 64 256 605 256 613C263 651 270 658 307 661Z" stroke="rgb(0,0,0)" stroke-opacity="1" stroke-width="8" fill="rgb(0,0,0)" fill-opacity="1"></path></g></g><g><g transform="matrix(1,0,0,1,16.535003662109375,18.039993286132812)"><path transform="matrix(0.017,0,0,-0.017,0,0)" d="M604 347L604 406L65 406L65 347ZM604 134L604 193L65 193L65 134Z" stroke="rgb(0,0,0)" stroke-opacity="1" stroke-width="8" fill="rgb(0,0,0)" fill-opacity="1"></path></g></g><g><g transform="matrix(1,0,0,1,32.990020751953125,18.039993286132812)"><path transform="matrix(0.017,0,0,-0.017,0,0)" d="M730 103L704 86C675 67 653 56 643 56C636 56 630 65 630 76C630 86 632 95 637 116L712 413C716 430 719 446 719 454C719 471 709 482 693 482C664 482 626 464 565 421C502 376 467 341 418 272L448 409C452 429 455 444 455 451C455 470 445 482 429 482C399 482 353 460 298 418C254 384 234 363 169 275L202 408C206 424 208 439 208 451C208 470 199 482 185 482C164 482 126 461 52 408L24 388L31 368C68 391 103 414 110 414C121 414 128 404 128 389C128 338 87 145 46 2L49 -9L117 6L139 108C163 219 190 278 245 338C287 384 332 414 360 414C367 414 371 406 371 393C371 358 349 244 308 69L292 2L297 -9L366 6L387 113C403 194 437 269 481 318C536 379 586 414 618 414C626 414 631 405 631 389C631 365 628 351 606 264C566 105 550 84 550 31C550 6 561 -9 580 -9C606 -9 642 12 740 85ZM786 1C801 -7 817 -11 829 -11C862 -11 901 18 932 65L1008 182L1019 113C1032 28 1055 -11 1091 -11C1113 -11 1145 6 1177 35L1226 79L1217 98C1181 68 1156 53 1140 53C1125 53 1112 63 1102 83C1093 102 1082 139 1077 168L1059 269L1094 318C1141 383 1168 406 1199 406C1215 406 1227 398 1232 383L1246 387L1261 472C1249 479 1240 482 1231 482C1191 482 1151 446 1089 354L1052 299L1046 347C1034 446 1007 482 948 482C922 482 900 474 891 461L833 378L850 368C880 402 900 416 919 416C952 416 974 375 991 277L1002 215L962 153C919 86 885 54 857 54C842 54 831 58 829 63L818 91L798 88C798 53 790 27 786 1Z" stroke="rgb(0,0,0)" stroke-opacity="1" stroke-width="8" fill="rgb(0,0,0)" fill-opacity="1"></path></g></g><g><g transform="matrix(1,0,0,1,58.070037841796875,18.039993286132812)"><path transform="matrix(0.017,0,0,-0.017,0,0)" d="M604 241L604 300L364 300L364 538L305 538L305 300L65 300L65 241L305 241L305 0L364 0L364 241Z" stroke="rgb(0,0,0)" stroke-opacity="1" stroke-width="8" fill="rgb(0,0,0)" fill-opacity="1"></path></g></g><g><g transform="matrix(1,0,0,1,72.81503295898438,18.039993286132812)"><path transform="matrix(0.017,0,0,-0.017,0,0)" d="M24 388L31 368L63 389C100 412 103 414 110 414C121 414 128 404 128 389C128 338 87 145 46 2L53 -9C78 -2 101 4 123 8C142 134 163 199 209 268C263 352 338 414 383 414C394 414 400 405 400 390C400 372 397 351 389 319L337 107C328 70 324 47 324 31C324 6 335 -9 354 -9C380 -9 416 12 514 85L504 103L478 86C449 67 427 56 417 56C410 56 404 65 404 76C404 81 405 92 406 96L472 372C479 401 483 429 483 446C483 469 472 482 452 482C410 482 341 444 282 389C244 354 216 320 164 247L202 408C206 426 208 438 208 449C208 470 200 482 185 482C164 482 125 460 52 408Z" stroke="rgb(0,0,0)" stroke-opacity="1" stroke-width="8" fill="rgb(0,0,0)" fill-opacity="1"></path></g></g></g><g></g><g><g><g transform="matrix(1,0,0,1,2,58.36000061035156)"><path transform="matrix(0.017,0,0,-0.017,0,0)" d="M105 664L160 662C184 661 195 653 195 635L112 125C95 34 94 31 54 28L13 25L9 -3L51 -2C92 -1 123 0 141 0C158 0 187 -1 227 -2L280 -3L283 25L218 28C192 29 182 37 182 58C182 67 183 74 186 93L284 648C320 654 336 656 355 656C457 656 506 612 506 519C506 411 434 323 346 323C324 323 304 328 267 342L269 311C306 293 326 288 355 288C484 288 594 405 594 541C594 642 531 695 412 692L108 692ZM881 204L852 77C848 60 846 42 846 26C846 4 855 -9 870 -9C893 -9 934 17 1016 85L1009 106C985 86 956 59 934 59C925 59 919 68 919 82C919 87 919 90 920 93L1012 472L1002 481L969 463C928 478 911 482 884 482C856 482 836 477 809 464C747 433 714 403 689 354C645 265 614 145 614 67C614 23 629 -11 648 -11C685 -11 765 41 881 204ZM929 414C907 305 888 253 854 201C797 117 736 59 704 59C692 59 686 72 686 99C686 163 714 280 749 360C773 415 796 433 844 433C867 433 885 429 929 414ZM1421 365C1424 403 1429 435 1437 476C1426 481 1422 482 1417 482C1386 482 1355 458 1319 407C1280 351 1241 291 1225 256L1257 408C1261 425 1263 438 1263 450C1263 470 1255 482 1240 482C1219 482 1181 461 1107 408L1079 388L1086 368L1118 389C1146 407 1157 412 1166 412C1176 412 1183 403 1183 390C1183 332 1140 126 1100 -2L1110 -9C1125 -4 1141 -1 1164 4L1177 6L1203 126C1221 209 1244 262 1288 319C1322 363 1349 384 1371 384C1386 384 1396 379 1407 365ZM1712 204L1683 77C1679 60 1677 42 1677 26C1677 4 1686 -9 1701 -9C1724 -9 1765 17 1847 85L1840 106C1816 86 1787 59 1765 59C1756 59 1750 68 1750 82C1750 87 1750 90 1751 93L1843 472L1833 481L1800 463C1759 478 1742 482 1715 482C1687 482 1667 477 1640 464C1578 433 1545 403 1520 354C1476 265 1445 145 1445 67C1445 23 1460 -11 1479 -11C1516 -11 1596 41 1712 204ZM1760 414C1738 305 1719 253 1685 201C1628 117 1567 59 1535 59C1523 59 1517 72 1517 99C1517 163 1545 280 1580 360C1604 415 1627 433 1675 433C1698 433 1716 429 1760 414ZM2135 722L2123 733C2071 707 2035 698 1963 691L1959 670L2007 670C2031 670 2041 663 2041 648C2041 645 2041 640 2038 622C2027 567 1954 182 1939 132C1926 82 1920 52 1920 31C1920 6 1931 -9 1950 -9C1976 -9 2012 12 2110 85L2100 103L2074 86C2045 67 2023 56 2013 56C2006 56 2000 66 2000 76C2000 82 2001 89 2004 104ZM2489 111L2465 94C2412 56 2364 36 2328 36C2281 36 2252 73 2252 133C2252 158 2255 185 2260 214C2277 218 2386 248 2411 259C2496 296 2535 342 2535 404C2535 451 2501 482 2451 482C2383 496 2273 423 2236 349C2206 299 2176 180 2176 113C2176 35 2220 -11 2292 -11C2349 -11 2405 17 2497 92ZM2274 274C2291 343 2311 386 2340 412C2358 428 2389 440 2413 440C2442 440 2461 420 2461 388C2461 344 2426 297 2374 272C2346 258 2310 247 2265 237ZM2800 722L2788 733C2736 707 2700 698 2628 691L2624 670L2672 670C2696 670 2706 663 2706 648C2706 645 2706 640 2703 622C2692 567 2619 182 2604 132C2591 82 2585 52 2585 31C2585 6 2596 -9 2615 -9C2641 -9 2677 12 2775 85L2765 103L2739 86C2710 67 2688 56 2678 56C2671 56 2665 66 2665 76C2665 82 2666 89 2669 104ZM3097 204L3068 77C3064 60 3062 42 3062 26C3062 4 3071 -9 3086 -9C3109 -9 3150 17 3232 85L3225 106C3201 86 3172 59 3150 59C3141 59 3135 68 3135 82C3135 87 3135 90 3136 93L3228 472L3218 481L3185 463C3144 478 3127 482 3100 482C3072 482 3052 477 3025 464C2963 433 2930 403 2905 354C2861 265 2830 145 2830 67C2830 23 2845 -11 2864 -11C2901 -11 2981 41 3097 204ZM3145 414C3123 305 3104 253 3070 201C3013 117 2952 59 2920 59C2908 59 2902 72 2902 99C2902 163 2930 280 2965 360C2989 415 3012 433 3060 433C3083 433 3101 429 3145 414ZM3300 148C3295 97 3289 62 3278 16C3316 -2 3350 -11 3385 -11C3434 -11 3480 7 3531 47C3582 87 3603 124 3603 174C3603 228 3571 257 3497 271L3454 279C3394 290 3375 307 3375 348C3375 401 3420 442 3477 442C3518 442 3556 424 3572 397L3572 342L3595 342C3599 377 3603 404 3614 455C3575 474 3547 482 3514 482C3462 482 3401 452 3353 404C3327 377 3316 352 3316 316C3316 260 3347 228 3413 215L3476 203C3520 195 3536 177 3536 138C3536 73 3490 29 3419 29C3384 29 3353 40 3325 64L3325 148ZM4255 664L4258 692L4144 689C4128 689 4110 689 4067 690L4003 692L4000 664L4047 662C4071 661 4082 653 4082 635L3987 55C3983 37 3971 30 3927 23L3922 -3L3963 -2C3994 -1 4056 0 4076 0C4076 0 4373 -1 4373 -1C4373 -1 4406 0 4406 0C4405 25 4416 103 4429 165L4398 165L4381 103C4372 71 4363 54 4354 49C4341 44 4277 39 4210 39C4161 39 4134 40 4068 46C4071 64 4162 605 4162 613C4169 651 4176 658 4213 661Z" stroke="rgb(0,0,0)" stroke-opacity="1" stroke-width="8" fill="rgb(0,0,0)" fill-opacity="1"></path></g></g><g><g><g><g><g transform="matrix(1,0,0,1,78.32003784179688,62.31999816894531)"><path transform="matrix(0.0119,0,0,-0.0119,0,0)" d="M418 -3L418 27L366 30C311 33 301 44 301 96L301 700L60 598L67 548L217 614L217 96C217 44 206 33 152 30L96 27L96 -3C250 0 250 0 261 0C292 0 402 -3 418 -3Z" stroke="rgb(0,0,0)" stroke-opacity="1" stroke-width="8" fill="rgb(0,0,0)" fill-opacity="1"></path></g></g></g></g></g><g><g transform="matrix(1,0,0,1,88.67001342773438,58.36000061035156)"><path transform="matrix(0.017,0,0,-0.017,0,0)" d="M297 714L242 714L-37 -169L18 -169ZM583 714L528 714L249 -169L304 -169Z" stroke="rgb(0,0,0)" stroke-opacity="1" stroke-width="8" fill="rgb(0,0,0)" fill-opacity="1"></path></g></g><g><g transform="matrix(1,0,0,1,101.77999877929688,58.36000061035156)"><path transform="matrix(0.017,0,0,-0.017,0,0)" d="M349 664L352 692L238 689C222 689 204 689 161 690L97 692L94 664L141 662C165 661 176 653 176 635L81 55C77 37 65 30 21 23L16 -3L57 -2C88 -1 150 0 170 0C170 0 467 -1 467 -1C467 -1 500 0 500 0C499 25 510 103 523 165L492 165L475 103C466 71 457 54 448 49C435 44 371 39 304 39C255 39 228 40 162 46C165 64 256 605 256 613C263 651 270 658 307 661Z" stroke="rgb(0,0,0)" stroke-opacity="1" stroke-width="8" fill="rgb(0,0,0)" fill-opacity="1"></path></g></g><g><g><g><g><g transform="matrix(1,0,0,1,111.72500610351562,62.31999816894531)"><path transform="matrix(0.0119,0,0,-0.0119,0,0)" d="M16 23L16 -3C203 -3 203 0 239 0C275 0 275 -3 468 -3L468 82C353 77 307 81 122 77L304 270C401 373 431 428 431 503C431 618 353 689 226 689C154 689 105 669 56 619L39 483L68 483L81 529C97 587 133 612 200 612C286 612 341 558 341 473C341 398 299 324 186 204Z" stroke="rgb(0,0,0)" stroke-opacity="1" stroke-width="8" fill="rgb(0,0,0)" fill-opacity="1"></path></g></g></g></g></g></g><g><g><g transform="matrix(1,0,0,1,2,79.89999389648438)"><path transform="matrix(0.017,0,0,-0.017,0,0)" d="M730 103L704 86C675 67 653 56 643 56C636 56 630 65 630 76C630 86 632 95 637 116L712 413C716 430 719 446 719 454C719 471 709 482 693 482C664 482 626 464 565 421C502 376 467 341 418 272L448 409C452 429 455 444 455 451C455 470 445 482 429 482C399 482 353 460 298 418C254 384 234 363 169 275L202 408C206 424 208 439 208 451C208 470 199 482 185 482C164 482 126 461 52 408L24 388L31 368C68 391 103 414 110 414C121 414 128 404 128 389C128 338 87 145 46 2L49 -9L117 6L139 108C163 219 190 278 245 338C287 384 332 414 360 414C367 414 371 406 371 393C371 358 349 244 308 69L292 2L297 -9L366 6L387 113C403 194 437 269 481 318C536 379 586 414 618 414C626 414 631 405 631 389C631 365 628 351 606 264C566 105 550 84 550 31C550 6 561 -9 580 -9C606 -9 642 12 740 85Z" stroke="rgb(0,0,0)" stroke-opacity="1" stroke-width="8" fill="rgb(0,0,0)" fill-opacity="1"></path></g></g><g><g><g><g><g transform="matrix(1,0,0,1,15.725006103515625,83.8600067138672)"><path transform="matrix(0.0119,0,0,-0.0119,0,0)" d="M418 -3L418 27L366 30C311 33 301 44 301 96L301 700L60 598L67 548L217 614L217 96C217 44 206 33 152 30L96 27L96 -3C250 0 250 0 261 0C292 0 402 -3 418 -3Z" stroke="rgb(0,0,0)" stroke-opacity="1" stroke-width="8" fill="rgb(0,0,0)" fill-opacity="1"></path></g></g></g></g></g><g><g transform="matrix(1,0,0,1,27.785003662109375,79.89999389648438)"><path transform="matrix(0.017,0,0,-0.017,0,0)" d="M604 347L604 406L65 406L65 347ZM604 134L604 193L65 193L65 134Z" stroke="rgb(0,0,0)" stroke-opacity="1" stroke-width="8" fill="rgb(0,0,0)" fill-opacity="1"></path></g></g><g><g transform="matrix(1,0,0,1,44.240020751953125,79.89999389648438)"><path transform="matrix(0.017,0,0,-0.017,0,0)" d="M730 103L704 86C675 67 653 56 643 56C636 56 630 65 630 76C630 86 632 95 637 116L712 413C716 430 719 446 719 454C719 471 709 482 693 482C664 482 626 464 565 421C502 376 467 341 418 272L448 409C452 429 455 444 455 451C455 470 445 482 429 482C399 482 353 460 298 418C254 384 234 363 169 275L202 408C206 424 208 439 208 451C208 470 199 482 185 482C164 482 126 461 52 408L24 388L31 368C68 391 103 414 110 414C121 414 128 404 128 389C128 338 87 145 46 2L49 -9L117 6L139 108C163 219 190 278 245 338C287 384 332 414 360 414C367 414 371 406 371 393C371 358 349 244 308 69L292 2L297 -9L366 6L387 113C403 194 437 269 481 318C536 379 586 414 618 414C626 414 631 405 631 389C631 365 628 351 606 264C566 105 550 84 550 31C550 6 561 -9 580 -9C606 -9 642 12 740 85Z" stroke="rgb(0,0,0)" stroke-opacity="1" stroke-width="8" fill="rgb(0,0,0)" fill-opacity="1"></path></g></g><g><g><g><g><g transform="matrix(1,0,0,1,57.964996337890625,83.8600067138672)"><path transform="matrix(0.0119,0,0,-0.0119,0,0)" d="M16 23L16 -3C203 -3 203 0 239 0C275 0 275 -3 468 -3L468 82C353 77 307 81 122 77L304 270C401 373 431 428 431 503C431 618 353 689 226 689C154 689 105 669 56 619L39 483L68 483L81 529C97 587 133 612 200 612C286 612 341 558 341 473C341 398 299 324 186 204Z" stroke="rgb(0,0,0)" stroke-opacity="1" stroke-width="8" fill="rgb(0,0,0)" fill-opacity="1"></path></g></g></g></g></g></g><g><g><g transform="matrix(1,0,0,1,2,101.44000244140625)"><path transform="matrix(0.017,0,0,-0.017,0,0)" d="M24 388L31 368L63 389C100 412 103 414 110 414C121 414 128 404 128 389C128 338 87 145 46 2L53 -9C78 -2 101 4 123 8C142 134 163 199 209 268C263 352 338 414 383 414C394 414 400 405 400 390C400 372 397 351 389 319L337 107C328 70 324 47 324 31C324 6 335 -9 354 -9C380 -9 416 12 514 85L504 103L478 86C449 67 427 56 417 56C410 56 404 65 404 76C404 81 405 92 406 96L472 372C479 401 483 429 483 446C483 469 472 482 452 482C410 482 341 444 282 389C244 354 216 320 164 247L202 408C206 426 208 438 208 449C208 470 200 482 185 482C164 482 125 460 52 408Z" stroke="rgb(0,0,0)" stroke-opacity="1" stroke-width="8" fill="rgb(0,0,0)" fill-opacity="1"></path></g></g><g><g><g><g><g transform="matrix(1,0,0,1,11.94500732421875,105.4)"><path transform="matrix(0.0119,0,0,-0.0119,0,0)" d="M418 -3L418 27L366 30C311 33 301 44 301 96L301 700L60 598L67 548L217 614L217 96C217 44 206 33 152 30L96 27L96 -3C250 0 250 0 261 0C292 0 402 -3 418 -3Z" stroke="rgb(0,0,0)" stroke-opacity="1" stroke-width="8" fill="rgb(0,0,0)" fill-opacity="1"></path></g></g></g></g></g><g><g transform="matrix(1,0,0,1,24.0050048828125,101.44000244140625)"><path transform="matrix(0.017,0,0,-0.017,0,0)" d="M604 135L604 194L333 194L394 348L604 348L604 407L418 407L493 596L436 596L361 406L65 406L65 347L337 347L276 193L65 193L65 134L252 134L177 -55L234 -55L308 135Z" stroke="rgb(0,0,0)" stroke-opacity="1" stroke-width="8" fill="rgb(0,0,0)" fill-opacity="1"></path></g></g><g><g transform="matrix(1,0,0,1,40.46002197265625,101.44000244140625)"><path transform="matrix(0.017,0,0,-0.017,0,0)" d="M24 388L31 368L63 389C100 412 103 414 110 414C121 414 128 404 128 389C128 338 87 145 46 2L53 -9C78 -2 101 4 123 8C142 134 163 199 209 268C263 352 338 414 383 414C394 414 400 405 400 390C400 372 397 351 389 319L337 107C328 70 324 47 324 31C324 6 335 -9 354 -9C380 -9 416 12 514 85L504 103L478 86C449 67 427 56 417 56C410 56 404 65 404 76C404 81 405 92 406 96L472 372C479 401 483 429 483 446C483 469 472 482 452 482C410 482 341 444 282 389C244 354 216 320 164 247L202 408C206 426 208 438 208 449C208 470 200 482 185 482C164 482 125 460 52 408Z" stroke="rgb(0,0,0)" stroke-opacity="1" stroke-width="8" fill="rgb(0,0,0)" fill-opacity="1"></path></g></g><g><g><g><g><g transform="matrix(1,0,0,1,50.405029296875,105.4)"><path transform="matrix(0.0119,0,0,-0.0119,0,0)" d="M16 23L16 -3C203 -3 203 0 239 0C275 0 275 -3 468 -3L468 82C353 77 307 81 122 77L304 270C401 373 431 428 431 503C431 618 353 689 226 689C154 689 105 669 56 619L39 483L68 483L81 529C97 587 133 612 200 612C286 612 341 558 341 473C341 398 299 324 186 204Z" stroke="rgb(0,0,0)" stroke-opacity="1" stroke-width="8" fill="rgb(0,0,0)" fill-opacity="1"></path></g></g></g></g></g></g><g></g><g><g><g transform="matrix(1,0,0,1,2,143.13999938964844)"><path transform="matrix(0.017,0,0,-0.017,0,0)" d="M105 664L160 662C184 661 195 653 195 635L112 125C95 34 94 31 54 28L13 25L9 -3L51 -2C92 -1 123 0 141 0C158 0 187 -1 227 -2L280 -3L283 25L218 28C192 29 182 37 182 58C182 67 183 74 186 93L284 648C320 654 336 656 355 656C457 656 506 612 506 519C506 411 434 323 346 323C324 323 304 328 267 342L269 311C306 293 326 288 355 288C484 288 594 405 594 541C594 642 531 695 412 692L108 692ZM938 111L914 94C861 56 813 36 777 36C730 36 701 73 701 133C701 158 704 185 709 214C726 218 835 248 860 259C945 296 984 342 984 404C984 451 950 482 900 482C832 496 722 423 685 349C655 299 625 180 625 113C625 35 669 -11 741 -11C798 -11 854 17 946 92ZM723 274C740 343 760 386 789 412C807 428 838 440 862 440C891 440 910 420 910 388C910 344 875 297 823 272C795 258 759 247 714 237ZM1366 365C1369 403 1374 435 1382 476C1371 481 1367 482 1362 482C1331 482 1300 458 1264 407C1225 351 1186 291 1170 256L1202 408C1206 425 1208 438 1208 450C1208 470 1200 482 1185 482C1164 482 1126 461 1052 408L1024 388L1031 368L1063 389C1091 407 1102 412 1111 412C1121 412 1128 403 1128 390C1128 332 1085 126 1045 -2L1055 -9C1070 -4 1086 -1 1109 4L1122 6L1148 126C1166 209 1189 262 1233 319C1267 363 1294 384 1316 384C1331 384 1341 379 1352 365ZM1562 -11C1618 -11 1733 62 1776 125C1817 186 1851 296 1851 371C1851 438 1828 482 1792 482C1750 482 1697 456 1645 409C1604 374 1584 348 1548 289L1572 408C1575 425 1577 440 1577 452C1577 471 1569 482 1555 482C1534 482 1496 461 1422 408L1394 388L1401 368L1433 389C1461 407 1472 412 1481 412C1491 412 1498 403 1498 389C1498 381 1496 361 1494 351L1436 8C1426 -52 1407 -143 1387 -233L1379 -270L1386 -276C1407 -269 1427 -264 1459 -259L1501 3C1522 -4 1544 -11 1562 -11ZM1529 165C1551 293 1658 424 1741 424C1767 424 1779 402 1779 356C1779 275 1739 156 1686 80C1666 51 1634 36 1593 36C1562 36 1537 43 1511 59ZM2213 111L2189 94C2136 56 2088 36 2052 36C2005 36 1976 73 1976 133C1976 158 1979 185 1984 214C2001 218 2110 248 2135 259C2220 296 2259 342 2259 404C2259 451 2225 482 2175 482C2107 496 1997 423 1960 349C1930 299 1900 180 1900 113C1900 35 1944 -11 2016 -11C2073 -11 2129 17 2221 92ZM1998 274C2015 343 2035 386 2064 412C2082 428 2113 440 2137 440C2166 440 2185 420 2185 388C2185 344 2150 297 2098 272C2070 258 2034 247 1989 237ZM2297 388L2304 368L2336 389C2373 412 2376 414 2383 414C2394 414 2401 404 2401 389C2401 338 2360 145 2319 2L2326 -9C2351 -2 2374 4 2396 8C2415 134 2436 199 2482 268C2536 352 2611 414 2656 414C2667 414 2673 405 2673 390C2673 372 2670 351 2662 319L2610 107C2601 70 2597 47 2597 31C2597 6 2608 -9 2627 -9C2653 -9 2689 12 2787 85L2777 103L2751 86C2722 67 2700 56 2690 56C2683 56 2677 65 2677 76C2677 81 2678 92 2679 96L2745 372C2752 401 2756 429 2756 446C2756 469 2745 482 2725 482C2683 482 2614 444 2555 389C2517 354 2489 320 2437 247L2475 408C2479 426 2481 438 2481 449C2481 470 2473 482 2458 482C2437 482 2398 460 2325 408ZM3311 722L3299 733C3247 707 3211 698 3139 691L3135 670L3183 670C3207 670 3217 663 3217 646C3217 638 3216 629 3215 622L3187 468C3157 477 3130 482 3105 482C3036 482 2942 410 2896 323C2865 265 2845 170 2845 86C2845 21 2860 -11 2889 -11C2916 -11 2953 6 2987 33C3041 77 3074 116 3141 217L3118 126C3107 82 3102 50 3102 24C3102 3 3111 -9 3128 -9C3145 -9 3169 3 3203 28L3284 88L3274 107L3230 76C3216 66 3200 59 3191 59C3183 59 3177 68 3177 82C3177 90 3178 99 3185 128ZM2942 59C2926 59 2917 73 2917 98C2917 224 2963 380 3012 418C3025 428 3044 433 3071 433C3115 433 3144 427 3177 410L3165 351C3128 171 2987 59 2942 59ZM3361 388L3368 368L3400 389C3437 412 3440 414 3447 414C3457 414 3465 404 3465 391C3465 384 3461 361 3457 347L3391 107C3383 76 3378 49 3378 30C3378 6 3389 -9 3408 -9C3434 -9 3470 12 3568 85L3558 103L3532 86C3503 67 3480 56 3471 56C3464 56 3458 66 3458 76C3458 86 3460 95 3465 116L3542 420C3546 437 3548 448 3548 456C3548 473 3539 482 3523 482C3501 482 3464 461 3389 408ZM3555 712C3526 712 3497 679 3497 645C3497 620 3512 604 3536 604C3567 604 3591 633 3591 671C3591 695 3576 712 3555 712ZM3946 330L3969 330C3977 395 3984 432 3993 458C3969 473 3934 482 3897 482C3852 483 3779 463 3722 400C3668 352 3629 241 3629 136C3629 40 3671 -11 3751 -11C3805 -11 3853 9 3908 54L3958 95L3950 115L3935 105C3863 57 3825 40 3790 40C3734 40 3705 80 3705 159C3705 267 3740 371 3789 409C3810 425 3834 433 3865 433C3910 433 3946 414 3946 390ZM4502 473L4495 482L4427 465L4417 414C4402 336 4377 268 4346 221C4287 130 4209 59 4169 59C4161 59 4156 68 4156 85C4156 99 4158 112 4163 137L4220 408C4223 424 4225 438 4225 451C4225 470 4216 482 4202 482C4182 482 4144 461 4070 408L4042 388L4049 368L4081 389C4109 407 4120 412 4129 412C4138 412 4146 403 4146 392C4146 388 4145 378 4144 374L4081 77C4079 68 4077 44 4077 30C4077 7 4092 -11 4112 -11C4175 -11 4296 101 4380 239L4343 97C4336 73 4332 46 4332 31C4332 6 4343 -9 4362 -9C4388 -9 4424 12 4522 85L4512 103L4486 86C4462 70 4436 59 4425 59C4417 59 4412 66 4412 76C4412 112 4487 416 4502 473ZM4816 722L4804 733C4752 707 4716 698 4644 691L4640 670L4688 670C4712 670 4722 663 4722 648C4722 645 4722 640 4719 622C4708 567 4635 182 4620 132C4607 82 4601 52 4601 31C4601 6 4612 -9 4631 -9C4657 -9 4693 12 4791 85L4781 103L4755 86C4726 67 4704 56 4694 56C4687 56 4681 66 4681 76C4681 82 4682 89 4685 104ZM5113 204L5084 77C5080 60 5078 42 5078 26C5078 4 5087 -9 5102 -9C5125 -9 5166 17 5248 85L5241 106C5217 86 5188 59 5166 59C5157 59 5151 68 5151 82C5151 87 5151 90 5152 93L5244 472L5234 481L5201 463C5160 478 5143 482 5116 482C5088 482 5068 477 5041 464C4979 433 4946 403 4921 354C4877 265 4846 145 4846 67C4846 23 4861 -11 4880 -11C4917 -11 4997 41 5113 204ZM5161 414C5139 305 5120 253 5086 201C5029 117 4968 59 4936 59C4924 59 4918 72 4918 99C4918 163 4946 280 4981 360C5005 415 5028 433 5076 433C5099 433 5117 429 5161 414ZM5653 365C5656 403 5661 435 5669 476C5658 481 5654 482 5649 482C5618 482 5587 458 5551 407C5512 351 5473 291 5457 256L5489 408C5493 425 5495 438 5495 450C5495 470 5487 482 5472 482C5451 482 5413 461 5339 408L5311 388L5318 368L5350 389C5378 407 5389 412 5398 412C5408 412 5415 403 5415 390C5415 332 5372 126 5332 -2L5342 -9C5357 -4 5373 -1 5396 4L5409 6L5435 126C5453 209 5476 262 5520 319C5554 363 5581 384 5603 384C5618 384 5628 379 5639 365ZM6001 111L5977 94C5924 56 5876 36 5840 36C5793 36 5764 73 5764 133C5764 158 5767 185 5772 214C5789 218 5898 248 5923 259C6008 296 6047 342 6047 404C6047 451 6013 482 5963 482C5895 496 5785 423 5748 349C5718 299 5688 180 5688 113C5688 35 5732 -11 5804 -11C5861 -11 5917 17 6009 92ZM5786 274C5803 343 5823 386 5852 412C5870 428 5901 440 5925 440C5954 440 5973 420 5973 388C5973 344 5938 297 5886 272C5858 258 5822 247 5777 237ZM6092 148C6087 97 6081 62 6070 16C6108 -2 6142 -11 6177 -11C6226 -11 6272 7 6323 47C6374 87 6395 124 6395 174C6395 228 6363 257 6289 271L6246 279C6186 290 6167 307 6167 348C6167 401 6212 442 6269 442C6310 442 6348 424 6364 397L6364 342L6387 342C6391 377 6395 404 6406 455C6367 474 6339 482 6306 482C6254 482 6193 452 6145 404C6119 377 6108 352 6108 316C6108 260 6139 228 6205 215L6268 203C6312 195 6328 177 6328 138C6328 73 6282 29 6211 29C6176 29 6145 40 6117 64L6117 148Z" stroke="rgb(0,0,0)" stroke-opacity="1" stroke-width="8" fill="rgb(0,0,0)" fill-opacity="1"></path></g></g><g><g transform="matrix(1,0,0,1,120.92001342773438,143.13999938964844)"><path transform="matrix(0.017,0,0,-0.017,0,0)" d="M684 -79L684 -20L404 -20L404 621L345 621L345 -20L65 -20L65 -79Z" stroke="rgb(0,0,0)" stroke-opacity="1" stroke-width="8" fill="rgb(0,0,0)" fill-opacity="1"></path></g></g></g><g><g><g transform="matrix(1,0,0,1,2,163.3000030517578)"><path transform="matrix(0.017,0,0,-0.017,0,0)" d="M730 103L704 86C675 67 653 56 643 56C636 56 630 65 630 76C630 86 632 95 637 116L712 413C716 430 719 446 719 454C719 471 709 482 693 482C664 482 626 464 565 421C502 376 467 341 418 272L448 409C452 429 455 444 455 451C455 470 445 482 429 482C399 482 353 460 298 418C254 384 234 363 169 275L202 408C206 424 208 439 208 451C208 470 199 482 185 482C164 482 126 461 52 408L24 388L31 368C68 391 103 414 110 414C121 414 128 404 128 389C128 338 87 145 46 2L49 -9L117 6L139 108C163 219 190 278 245 338C287 384 332 414 360 414C367 414 371 406 371 393C371 358 349 244 308 69L292 2L297 -9L366 6L387 113C403 194 437 269 481 318C536 379 586 414 618 414C626 414 631 405 631 389C631 365 628 351 606 264C566 105 550 84 550 31C550 6 561 -9 580 -9C606 -9 642 12 740 85Z" stroke="rgb(0,0,0)" stroke-opacity="1" stroke-width="8" fill="rgb(0,0,0)" fill-opacity="1"></path></g></g><g><g><g><g><g transform="matrix(1,0,0,1,15.725006103515625,167.26000061035157)"><path transform="matrix(0.0119,0,0,-0.0119,0,0)" d="M418 -3L418 27L366 30C311 33 301 44 301 96L301 700L60 598L67 548L217 614L217 96C217 44 206 33 152 30L96 27L96 -3C250 0 250 0 261 0C292 0 402 -3 418 -3Z" stroke="rgb(0,0,0)" stroke-opacity="1" stroke-width="8" fill="rgb(0,0,0)" fill-opacity="1"></path></g></g></g></g></g><g><g transform="matrix(1,0,0,1,22.685028076171875,163.3000030517578)"><path transform="matrix(0.017,0,0,-0.017,0,0)" d="M730 103L704 86C675 67 653 56 643 56C636 56 630 65 630 76C630 86 632 95 637 116L712 413C716 430 719 446 719 454C719 471 709 482 693 482C664 482 626 464 565 421C502 376 467 341 418 272L448 409C452 429 455 444 455 451C455 470 445 482 429 482C399 482 353 460 298 418C254 384 234 363 169 275L202 408C206 424 208 439 208 451C208 470 199 482 185 482C164 482 126 461 52 408L24 388L31 368C68 391 103 414 110 414C121 414 128 404 128 389C128 338 87 145 46 2L49 -9L117 6L139 108C163 219 190 278 245 338C287 384 332 414 360 414C367 414 371 406 371 393C371 358 349 244 308 69L292 2L297 -9L366 6L387 113C403 194 437 269 481 318C536 379 586 414 618 414C626 414 631 405 631 389C631 365 628 351 606 264C566 105 550 84 550 31C550 6 561 -9 580 -9C606 -9 642 12 740 85Z" stroke="rgb(0,0,0)" stroke-opacity="1" stroke-width="8" fill="rgb(0,0,0)" fill-opacity="1"></path></g></g><g><g><g><g><g transform="matrix(1,0,0,1,36.410003662109375,167.26000061035157)"><path transform="matrix(0.0119,0,0,-0.0119,0,0)" d="M16 23L16 -3C203 -3 203 0 239 0C275 0 275 -3 468 -3L468 82C353 77 307 81 122 77L304 270C401 373 431 428 431 503C431 618 353 689 226 689C154 689 105 669 56 619L39 483L68 483L81 529C97 587 133 612 200 612C286 612 341 558 341 473C341 398 299 324 186 204Z" stroke="rgb(0,0,0)" stroke-opacity="1" stroke-width="8" fill="rgb(0,0,0)" fill-opacity="1"></path></g></g></g></g></g><g><g transform="matrix(1,0,0,1,48.470001220703125,163.3000030517578)"><path transform="matrix(0.017,0,0,-0.017,0,0)" d="M604 347L604 406L65 406L65 347ZM604 134L604 193L65 193L65 134Z" stroke="rgb(0,0,0)" stroke-opacity="1" stroke-width="8" fill="rgb(0,0,0)" fill-opacity="1"></path></g></g><g><g transform="matrix(1,0,0,1,68.31503295898438,163.3000030517578)"><path transform="matrix(0.017,0,0,-0.017,0,0)" d="M555 243L555 299L51 299L51 243Z" stroke="rgb(0,0,0)" stroke-opacity="1" stroke-width="8" fill="rgb(0,0,0)" fill-opacity="1"></path></g></g><g><g transform="matrix(1,0,0,1,81.99502563476562,163.3000030517578)"><path transform="matrix(0.017,0,0,-0.017,0,0)" d="M418 -3L418 27L366 30C311 33 301 44 301 96L301 700L60 598L67 548L217 614L217 96C217 44 206 33 152 30L96 27L96 -3C250 0 250 0 261 0C292 0 402 -3 418 -3Z" stroke="rgb(0,0,0)" stroke-opacity="1" stroke-width="8" fill="rgb(0,0,0)" fill-opacity="1"></path></g></g></g></g></svg>