<svg xmlns="http://www.w3.org/2000/svg" xmlns:xlink="http://www.w3.org/1999/xlink" width="79.28500366210938" height="106.97500610351562" style="width:79.28500366210938px;height:106.97500610351562px;font-family:Asana-Math, Asana;background:#FFF;"><g><g><g><g transform="matrix(1,0,0,1,2,30.205001831054688)"><path transform="matrix(0.017,0,0,-0.017,0,0)" d="M603 664L658 662C682 661 693 653 693 635L610 125C593 34 592 31 552 28L511 25L507 -3L549 -2C590 -1 621 0 639 0C656 0 685 -1 725 -2L778 -3L781 25L716 28C690 29 680 37 680 58C680 67 681 74 684 93L782 648C818 654 834 656 853 656C955 656 1004 612 1004 519C1004 411 932 323 844 323C822 323 802 328 765 342L767 311C804 293 824 288 853 288C982 288 1092 405 1092 541C1092 642 1029 695 910 692L606 692Z" stroke="rgb(0,0,0)" stroke-opacity="1" stroke-width="8" fill="rgb(0,0,0)" fill-opacity="1"></path></g></g><g><g transform="matrix(1,0,0,1,25.94000244140625,30.205001831054688)"><path transform="matrix(0.017,0,0,-0.017,0,0)" d="M604 347L604 406L65 406L65 347ZM604 134L604 193L65 193L65 134Z" stroke="rgb(0,0,0)" stroke-opacity="1" stroke-width="8" fill="rgb(0,0,0)" fill-opacity="1"></path></g></g><g><g><g><g><g transform="matrix(1,0,0,1,44.089996337890625,18.040000915527344)"><path transform="matrix(0.017,0,0,-0.017,0,0)" d="M303 692L264 691C226 689 202 689 182 689C170 689 148 690 110 691L71 692L71 664L89 662C130 656 138 645 142 588L174 158C179 92 181 44 182 -8L232 -8C246 27 264 66 282 102L506 546L618 154C633 102 644 53 657 -8L708 -8L715 18C725 58 733 85 746 124L917 631C923 648 938 660 960 662L980 664L980 692L948 691C919 690 897 689 883 689C870 689 848 690 818 691L785 692L780 664L819 662C848 661 860 653 860 639C860 626 857 608 851 590L704 128L546 700L528 700C516 673 494 624 476 588L252 132L221 616C221 646 234 660 266 662L303 664Z" stroke="rgb(0,0,0)" stroke-opacity="1" stroke-width="8" fill="rgb(0,0,0)" fill-opacity="1"></path></g></g></g></g><g><g><g><g transform="matrix(1,0,0,1,49.279998779296875,43.375)"><path transform="matrix(0.017,0,0,-0.017,0,0)" d="M125 390L69 107C68 99 56 61 56 31C56 6 67 -9 86 -9C121 -9 156 11 234 74L265 99L255 117L210 86C181 66 161 56 150 56C141 56 136 64 136 76C136 102 150 183 179 328L192 390L299 390L310 440C272 436 238 434 200 434C216 528 227 577 245 631L234 646C214 634 187 622 156 610L131 440C87 419 61 408 43 403L41 390Z" stroke="rgb(0,0,0)" stroke-opacity="1" stroke-width="8" fill="rgb(0,0,0)" fill-opacity="1"></path></g></g></g></g><line style="fill:none;stroke-width:0.99px;stroke:rgb(0, 0, 0);" x1="44.089996337890625" y1="26.240000009536743" x2="60.124996185302734" y2="26.240000009536743"></line></g></g><g></g><g><g><g transform="matrix(1,0,0,1,2,80.69499969482422)"><path transform="matrix(0.017,0,0,-0.017,0,0)" d="M303 692L264 691C226 689 202 689 182 689C170 689 148 690 110 691L71 692L71 664L89 662C130 656 138 645 142 588L174 158C179 92 181 44 182 -8L232 -8C246 27 264 66 282 102L506 546L618 154C633 102 644 53 657 -8L708 -8L715 18C725 58 733 85 746 124L917 631C923 648 938 660 960 662L980 664L980 692L948 691C919 690 897 689 883 689C870 689 848 690 818 691L785 692L780 664L819 662C848 661 860 653 860 639C860 626 857 608 851 590L704 128L546 700L528 700C516 673 494 624 476 588L252 132L221 616C221 646 234 660 266 662L303 664Z" stroke="rgb(0,0,0)" stroke-opacity="1" stroke-width="8" fill="rgb(0,0,0)" fill-opacity="1"></path></g></g><g><g transform="matrix(1,0,0,1,21.425018310546875,80.69499969482422)"><path transform="matrix(0.017,0,0,-0.017,0,0)" d="M123 111C93 111 66 83 66 53C66 23 93 -5 122 -5C154 -5 182 22 182 53C182 83 154 111 123 111ZM123 456C93 456 66 428 66 398C66 368 93 340 122 340C154 340 182 367 182 397C182 428 154 456 123 456Z" stroke="rgb(0,0,0)" stroke-opacity="1" stroke-width="8" fill="rgb(0,0,0)" fill-opacity="1"></path></g></g><g><g transform="matrix(1,0,0,1,29.05999755859375,80.69499969482422)"><path transform="matrix(0.017,0,0,-0.017,0,0)" d="M125 390L69 107C68 99 56 61 56 31C56 6 67 -9 86 -9C121 -9 156 11 234 74L265 99L255 117L210 86C181 66 161 56 150 56C141 56 136 64 136 76C136 102 150 183 179 328L192 390L299 390L310 440C272 436 238 434 200 434C216 528 227 577 245 631L234 646C214 634 187 622 156 610L131 440C87 419 61 408 43 403L41 390ZM700 365C703 403 708 435 716 476C705 481 701 482 696 482C665 482 634 458 598 407C559 351 520 291 504 256L536 408C540 425 542 438 542 450C542 470 534 482 519 482C498 482 460 461 386 408L358 388L365 368L397 389C425 407 436 412 445 412C455 412 462 403 462 390C462 332 419 126 379 -2L389 -9C404 -4 420 -1 443 4L456 6L482 126C500 209 523 262 567 319C601 363 628 384 650 384C665 384 675 379 686 365ZM991 204L962 77C958 60 956 42 956 26C956 4 965 -9 980 -9C1003 -9 1044 17 1126 85L1119 106C1095 86 1066 59 1044 59C1035 59 1029 68 1029 82C1029 87 1029 90 1030 93L1122 472L1112 481L1079 463C1038 478 1021 482 994 482C966 482 946 477 919 464C857 433 824 403 799 354C755 265 724 145 724 67C724 23 739 -11 758 -11C795 -11 875 41 991 204ZM1039 414C1017 305 998 253 964 201C907 117 846 59 814 59C802 59 796 72 796 99C796 163 824 280 859 360C883 415 906 433 954 433C977 433 995 429 1039 414ZM1398 722L1386 733C1334 707 1298 698 1226 691L1222 670L1270 670C1294 670 1304 663 1304 646C1304 639 1303 628 1302 622L1201 71C1200 68 1200 64 1200 61C1200 22 1248 -11 1303 -11C1340 -11 1391 8 1434 39C1530 107 1596 244 1596 376C1596 414 1587 453 1575 468C1568 477 1555 482 1540 482C1516 482 1486 474 1458 460C1407 433 1374 403 1312 324ZM1485 424C1511 424 1524 401 1524 352C1524 288 1503 202 1473 137C1440 68 1400 36 1346 36C1300 36 1275 59 1275 101C1275 135 1290 276 1371 361C1404 395 1456 424 1485 424ZM1896 204L1867 77C1863 60 1861 42 1861 26C1861 4 1870 -9 1885 -9C1908 -9 1949 17 2031 85L2024 106C2000 86 1971 59 1949 59C1940 59 1934 68 1934 82C1934 87 1934 90 1935 93L2027 472L2017 481L1984 463C1943 478 1926 482 1899 482C1871 482 1851 477 1824 464C1762 433 1729 403 1704 354C1660 265 1629 145 1629 67C1629 23 1644 -11 1663 -11C1700 -11 1780 41 1896 204ZM1944 414C1922 305 1903 253 1869 201C1812 117 1751 59 1719 59C1707 59 1701 72 1701 99C1701 163 1729 280 1764 360C1788 415 1811 433 1859 433C1882 433 1900 429 1944 414ZM2262 351L2162 -144C2151 -196 2133 -231 2115 -231C2101 -231 2083 -225 2062 -212L2054 -269C2064 -274 2077 -276 2092 -276C2132 -276 2172 -233 2208 -152C2228 -107 2242 -57 2270 70L2346 420C2350 438 2352 451 2352 457C2352 473 2343 482 2327 482C2305 482 2268 461 2193 408L2165 388L2172 368L2204 389C2241 412 2244 414 2251 414C2261 414 2269 404 2269 391C2269 382 2262 356 2262 351ZM2353 712C2324 712 2295 679 2295 645C2295 620 2310 604 2334 604C2365 604 2389 633 2389 671C2389 695 2374 712 2353 712ZM2412 152C2412 46 2457 -11 2540 -11C2595 -11 2655 15 2700 57C2762 116 2806 230 2806 331C2806 425 2756 482 2673 482C2569 482 2412 382 2412 152ZM2636 444C2697 444 2730 399 2730 315C2730 219 2699 113 2655 60C2637 39 2611 27 2580 27C2522 27 2488 72 2488 151C2488 264 2527 387 2576 427C2589 438 2612 444 2636 444Z" stroke="rgb(0,0,0)" stroke-opacity="1" stroke-width="8" fill="rgb(0,0,0)" fill-opacity="1"></path></g></g></g><g><g><g transform="matrix(1,0,0,1,2,100.8550033569336)"><path transform="matrix(0.017,0,0,-0.017,0,0)" d="M125 390L69 107C68 99 56 61 56 31C56 6 67 -9 86 -9C121 -9 156 11 234 74L265 99L255 117L210 86C181 66 161 56 150 56C141 56 136 64 136 76C136 102 150 183 179 328L192 390L299 390L310 440C272 436 238 434 200 434C216 528 227 577 245 631L234 646C214 634 187 622 156 610L131 440C87 419 61 408 43 403L41 390Z" stroke="rgb(0,0,0)" stroke-opacity="1" stroke-width="8" fill="rgb(0,0,0)" fill-opacity="1"></path></g></g><g><g transform="matrix(1,0,0,1,11.045013427734375,100.8550033569336)"><path transform="matrix(0.017,0,0,-0.017,0,0)" d="M123 111C93 111 66 83 66 53C66 23 93 -5 122 -5C154 -5 182 22 182 53C182 83 154 111 123 111ZM123 456C93 456 66 428 66 398C66 368 93 340 122 340C154 340 182 367 182 397C182 428 154 456 123 456Z" stroke="rgb(0,0,0)" stroke-opacity="1" stroke-width="8" fill="rgb(0,0,0)" fill-opacity="1"></path></g></g><g><g transform="matrix(1,0,0,1,18.67999267578125,100.8550033569336)"><path transform="matrix(0.017,0,0,-0.017,0,0)" d="M125 390L69 107C68 99 56 61 56 31C56 6 67 -9 86 -9C121 -9 156 11 234 74L265 99L255 117L210 86C181 66 161 56 150 56C141 56 136 64 136 76C136 102 150 183 179 328L192 390L299 390L310 440C272 436 238 434 200 434C216 528 227 577 245 631L234 646C214 634 187 622 156 610L131 440C87 419 61 408 43 403L41 390ZM366 388L373 368L405 389C442 412 445 414 452 414C462 414 470 404 470 391C470 384 466 361 462 347L396 107C388 76 383 49 383 30C383 6 394 -9 413 -9C439 -9 475 12 573 85L563 103L537 86C508 67 485 56 476 56C469 56 463 66 463 76C463 86 465 95 470 116L547 420C551 437 553 448 553 456C553 473 544 482 528 482C506 482 469 461 394 408ZM560 712C531 712 502 679 502 645C502 620 517 604 541 604C572 604 596 633 596 671C596 695 581 712 560 712ZM937 111L913 94C860 56 812 36 776 36C729 36 700 73 700 133C700 158 703 185 708 214C725 218 834 248 859 259C944 296 983 342 983 404C983 451 949 482 899 482C831 496 721 423 684 349C654 299 624 180 624 113C624 35 668 -11 740 -11C797 -11 853 17 945 92ZM722 274C739 343 759 386 788 412C806 428 837 440 861 440C890 440 909 420 909 388C909 344 874 297 822 272C794 258 758 247 713 237ZM1727 103L1701 86C1672 67 1650 56 1640 56C1633 56 1627 65 1627 76C1627 86 1629 95 1634 116L1709 413C1713 430 1716 446 1716 454C1716 471 1706 482 1690 482C1661 482 1623 464 1562 421C1499 376 1464 341 1415 272L1445 409C1449 429 1452 444 1452 451C1452 470 1442 482 1426 482C1396 482 1350 460 1295 418C1251 384 1231 363 1166 275L1199 408C1203 424 1205 439 1205 451C1205 470 1196 482 1182 482C1161 482 1123 461 1049 408L1021 388L1028 368C1065 391 1100 414 1107 414C1118 414 1125 404 1125 389C1125 338 1084 145 1043 2L1046 -9L1114 6L1136 108C1160 219 1187 278 1242 338C1284 384 1329 414 1357 414C1364 414 1368 406 1368 393C1368 358 1346 244 1305 69L1289 2L1294 -9L1363 6L1384 113C1400 194 1434 269 1478 318C1533 379 1583 414 1615 414C1623 414 1628 405 1628 389C1628 365 1625 351 1603 264C1563 105 1547 84 1547 31C1547 6 1558 -9 1577 -9C1603 -9 1639 12 1737 85ZM1950 -11C2006 -11 2121 62 2164 125C2205 186 2239 296 2239 371C2239 438 2216 482 2180 482C2138 482 2085 456 2033 409C1992 374 1972 348 1936 289L1960 408C1963 425 1965 440 1965 452C1965 471 1957 482 1943 482C1922 482 1884 461 1810 408L1782 388L1789 368L1821 389C1849 407 1860 412 1869 412C1879 412 1886 403 1886 389C1886 381 1884 361 1882 351L1824 8C1814 -52 1795 -143 1775 -233L1767 -270L1774 -276C1795 -269 1815 -264 1847 -259L1889 3C1910 -4 1932 -11 1950 -11ZM1917 165C1939 293 2046 424 2129 424C2155 424 2167 402 2167 356C2167 275 2127 156 2074 80C2054 51 2022 36 1981 36C1950 36 1925 43 1899 59ZM2290 152C2290 46 2335 -11 2418 -11C2473 -11 2533 15 2578 57C2640 116 2684 230 2684 331C2684 425 2634 482 2551 482C2447 482 2290 382 2290 152ZM2514 444C2575 444 2608 399 2608 315C2608 219 2577 113 2533 60C2515 39 2489 27 2458 27C2400 27 2366 72 2366 151C2366 264 2405 387 2454 427C2467 438 2490 444 2514 444Z" stroke="rgb(0,0,0)" stroke-opacity="1" stroke-width="8" fill="rgb(0,0,0)" fill-opacity="1"></path></g></g></g></g></svg>