<svg xmlns="http://www.w3.org/2000/svg" xmlns:xlink="http://www.w3.org/1999/xlink" width="85.67500305175781" height="106.18000030517578" style="width:85.67500305175781px;height:106.18000030517578px;font-family:Asana-Math, Asana;background:#FFF;"><g><g><g><g transform="matrix(1,0,0,1,2,18.040000915527344)"><path transform="matrix(0.017,0,0,-0.017,0,0)" d="M470 334L587 334L719 330L738 375L734 382C653 378 593 376 515 376L478 376L525 646C557 647 640 650 662 650C724 650 765 641 766 626L774 537L798 537C801 601 808 651 819 689C798 691 768 692 750 692C747 692 736 692 712 691L592 690C583 689 409 691 399 691L354 692L351 664L405 662C429 661 440 653 440 635C440 621 436 589 431 559L344 55C340 37 328 30 284 23L279 -3L320 -2C351 -1 413 0 433 0L658 -3C672 -3 697 -2 730 -1L763 0L767 36C769 56 774 86 783 135L788 161L761 161L745 101C735 65 726 53 704 48C684 44 611 39 557 39C516 39 489 40 420 46Z" stroke="rgb(0,0,0)" stroke-opacity="1" stroke-width="8" fill="rgb(0,0,0)" fill-opacity="1"></path></g></g><g><g><g><g><g transform="matrix(1,0,0,1,17.1199951171875,22.000006103515624)"><path transform="matrix(0.0119,0,0,-0.0119,0,0)" d="M176 -11C232 -11 347 62 390 125C431 186 465 296 465 371C465 438 442 482 406 482C364 482 311 456 259 409C218 374 198 348 162 289L186 408C189 425 191 440 191 452C191 471 183 482 169 482C148 482 110 461 36 408L8 388L15 368L47 389C75 407 86 412 95 412C105 412 112 403 112 389C112 381 110 361 108 351L50 8C40 -52 21 -143 1 -233L-7 -270L0 -276C21 -269 41 -264 73 -259L115 3C136 -4 158 -11 176 -11ZM143 165C165 293 272 424 355 424C381 424 393 402 393 356C393 275 353 156 300 80C280 51 248 36 207 36C176 36 151 43 125 59ZM774 482C707 482 554 419 554 259C554 182 599 136 676 136C684 136 695 136 706 137L665 99C649 84 638 66 638 52C638 42 645 31 659 19C590 -4 462 -48 462 -159C462 -230 532 -276 641 -276C770 -276 883 -204 883 -121C883 -85 862 -49 819 -14L759 35C725 62 712 81 712 100C712 114 727 128 739 146C837 170 908 253 908 342C908 357 905 376 904 380C921 378 929 378 938 378C955 378 965 379 988 382L997 427L994 433C966 426 946 424 892 424C892 425 868 482 774 482ZM675 1L752 -58C798 -94 817 -121 817 -154C817 -206 748 -248 665 -248C583 -248 526 -206 526 -145C526 -43 636 -11 675 1ZM749 448C807 448 836 412 836 341C836 238 788 168 718 168C657 168 625 209 625 288C625 383 676 448 749 448Z" stroke="rgb(0,0,0)" stroke-opacity="1" stroke-width="8" fill="rgb(0,0,0)" fill-opacity="1"></path></g></g></g></g></g><g><g transform="matrix(1,0,0,1,35.1199951171875,18.040000915527344)"><path transform="matrix(0.017,0,0,-0.017,0,0)" d="M604 347L604 406L65 406L65 347ZM604 134L604 193L65 193L65 134Z" stroke="rgb(0,0,0)" stroke-opacity="1" stroke-width="8" fill="rgb(0,0,0)" fill-opacity="1"></path></g></g><g><g transform="matrix(1,0,0,1,51.57501220703125,18.040000915527344)"><path transform="matrix(0.017,0,0,-0.017,0,0)" d="M730 103L704 86C675 67 653 56 643 56C636 56 630 65 630 76C630 86 632 95 637 116L712 413C716 430 719 446 719 454C719 471 709 482 693 482C664 482 626 464 565 421C502 376 467 341 418 272L448 409C452 429 455 444 455 451C455 470 445 482 429 482C399 482 353 460 298 418C254 384 234 363 169 275L202 408C206 424 208 439 208 451C208 470 199 482 185 482C164 482 126 461 52 408L24 388L31 368C68 391 103 414 110 414C121 414 128 404 128 389C128 338 87 145 46 2L49 -9L117 6L139 108C163 219 190 278 245 338C287 384 332 414 360 414C367 414 371 406 371 393C371 358 349 244 308 69L292 2L297 -9L366 6L387 113C403 194 437 269 481 318C536 379 586 414 618 414C626 414 631 405 631 389C631 365 628 351 606 264C566 105 550 84 550 31C550 6 561 -9 580 -9C606 -9 642 12 740 85ZM1052 482C985 482 832 419 832 259C832 182 877 136 954 136C962 136 973 136 984 137L943 99C927 84 916 66 916 52C916 42 923 31 937 19C868 -4 740 -48 740 -159C740 -230 810 -276 919 -276C1048 -276 1161 -204 1161 -121C1161 -85 1140 -49 1097 -14L1037 35C1003 62 990 81 990 100C990 114 1005 128 1017 146C1115 170 1186 253 1186 342C1186 357 1183 376 1182 380C1199 378 1207 378 1216 378C1233 378 1243 379 1266 382L1275 427L1272 433C1244 426 1224 424 1170 424C1170 425 1146 482 1052 482ZM953 1L1030 -58C1076 -94 1095 -121 1095 -154C1095 -206 1026 -248 943 -248C861 -248 804 -206 804 -145C804 -43 914 -11 953 1ZM1027 448C1085 448 1114 412 1114 341C1114 238 1066 168 996 168C935 168 903 209 903 288C903 383 954 448 1027 448ZM1512 722L1500 733C1455 711 1414 697 1340 691L1336 670L1384 670C1402 670 1418 667 1418 647C1418 641 1418 632 1416 622L1374 388C1354 272 1312 80 1286 2L1293 -9L1362 7C1370 64 1384 164 1424 236C1469 317 1572 414 1614 414C1625 414 1636 407 1636 393C1636 375 1631 342 1621 303L1570 107C1564 85 1557 55 1557 31C1557 6 1567 -9 1588 -9C1620 -9 1688 41 1747 85L1737 103L1711 86C1688 71 1662 56 1650 56C1643 56 1637 65 1637 76C1637 88 1640 101 1644 116L1708 372C1714 398 1719 423 1719 447C1719 464 1713 482 1687 482C1652 482 1575 437 1507 374C1474 343 1448 308 1420 273L1416 275Z" stroke="rgb(0,0,0)" stroke-opacity="1" stroke-width="8" fill="rgb(0,0,0)" fill-opacity="1"></path></g></g></g><g></g><g><g><g transform="matrix(1,0,0,1,2,59.73999786376953)"><path transform="matrix(0.017,0,0,-0.017,0,0)" d="M730 103L704 86C675 67 653 56 643 56C636 56 630 65 630 76C630 86 632 95 637 116L712 413C716 430 719 446 719 454C719 471 709 482 693 482C664 482 626 464 565 421C502 376 467 341 418 272L448 409C452 429 455 444 455 451C455 470 445 482 429 482C399 482 353 460 298 418C254 384 234 363 169 275L202 408C206 424 208 439 208 451C208 470 199 482 185 482C164 482 126 461 52 408L24 388L31 368C68 391 103 414 110 414C121 414 128 404 128 389C128 338 87 145 46 2L49 -9L117 6L139 108C163 219 190 278 245 338C287 384 332 414 360 414C367 414 371 406 371 393C371 358 349 244 308 69L292 2L297 -9L366 6L387 113C403 194 437 269 481 318C536 379 586 414 618 414C626 414 631 405 631 389C631 365 628 351 606 264C566 105 550 84 550 31C550 6 561 -9 580 -9C606 -9 642 12 740 85Z" stroke="rgb(0,0,0)" stroke-opacity="1" stroke-width="8" fill="rgb(0,0,0)" fill-opacity="1"></path></g></g><g><g transform="matrix(1,0,0,1,18.605010986328125,59.73999786376953)"><path transform="matrix(0.017,0,0,-0.017,0,0)" d="M123 111C93 111 66 83 66 53C66 23 93 -5 122 -5C154 -5 182 22 182 53C182 83 154 111 123 111ZM123 456C93 456 66 428 66 398C66 368 93 340 122 340C154 340 182 367 182 397C182 428 154 456 123 456Z" stroke="rgb(0,0,0)" stroke-opacity="1" stroke-width="8" fill="rgb(0,0,0)" fill-opacity="1"></path></g></g><g><g transform="matrix(1,0,0,1,26.240020751953125,59.73999786376953)"><path transform="matrix(0.017,0,0,-0.017,0,0)" d="M730 103L704 86C675 67 653 56 643 56C636 56 630 65 630 76C630 86 632 95 637 116L712 413C716 430 719 446 719 454C719 471 709 482 693 482C664 482 626 464 565 421C502 376 467 341 418 272L448 409C452 429 455 444 455 451C455 470 445 482 429 482C399 482 353 460 298 418C254 384 234 363 169 275L202 408C206 424 208 439 208 451C208 470 199 482 185 482C164 482 126 461 52 408L24 388L31 368C68 391 103 414 110 414C121 414 128 404 128 389C128 338 87 145 46 2L49 -9L117 6L139 108C163 219 190 278 245 338C287 384 332 414 360 414C367 414 371 406 371 393C371 358 349 244 308 69L292 2L297 -9L366 6L387 113C403 194 437 269 481 318C536 379 586 414 618 414C626 414 631 405 631 389C631 365 628 351 606 264C566 105 550 84 550 31C550 6 561 -9 580 -9C606 -9 642 12 740 85ZM1048 204L1019 77C1015 60 1013 42 1013 26C1013 4 1022 -9 1037 -9C1060 -9 1101 17 1183 85L1176 106C1152 86 1123 59 1101 59C1092 59 1086 68 1086 82C1086 87 1086 90 1087 93L1179 472L1169 481L1136 463C1095 478 1078 482 1051 482C1023 482 1003 477 976 464C914 433 881 403 856 354C812 265 781 145 781 67C781 23 796 -11 815 -11C852 -11 932 41 1048 204ZM1096 414C1074 305 1055 253 1021 201C964 117 903 59 871 59C859 59 853 72 853 99C853 163 881 280 916 360C940 415 963 433 1011 433C1034 433 1052 429 1096 414ZM1251 148C1246 97 1240 62 1229 16C1267 -2 1301 -11 1336 -11C1385 -11 1431 7 1482 47C1533 87 1554 124 1554 174C1554 228 1522 257 1448 271L1405 279C1345 290 1326 307 1326 348C1326 401 1371 442 1428 442C1469 442 1507 424 1523 397L1523 342L1546 342C1550 377 1554 404 1565 455C1526 474 1498 482 1465 482C1413 482 1352 452 1304 404C1278 377 1267 352 1267 316C1267 260 1298 228 1364 215L1427 203C1471 195 1487 177 1487 138C1487 73 1441 29 1370 29C1335 29 1304 40 1276 64L1276 148ZM1879 204L1850 77C1846 60 1844 42 1844 26C1844 4 1853 -9 1868 -9C1891 -9 1932 17 2014 85L2007 106C1983 86 1954 59 1932 59C1923 59 1917 68 1917 82C1917 87 1917 90 1918 93L2010 472L2000 481L1967 463C1926 478 1909 482 1882 482C1854 482 1834 477 1807 464C1745 433 1712 403 1687 354C1643 265 1612 145 1612 67C1612 23 1627 -11 1646 -11C1683 -11 1763 41 1879 204ZM1927 414C1905 305 1886 253 1852 201C1795 117 1734 59 1702 59C1690 59 1684 72 1684 99C1684 163 1712 280 1747 360C1771 415 1794 433 1842 433C1865 433 1883 429 1927 414Z" stroke="rgb(0,0,0)" stroke-opacity="1" stroke-width="8" fill="rgb(0,0,0)" fill-opacity="1"></path></g></g></g><g><g><g transform="matrix(1,0,0,1,2,79.9000015258789)"><path transform="matrix(0.017,0,0,-0.017,0,0)" d="M275 482C208 482 55 419 55 259C55 182 100 136 177 136C185 136 196 136 207 137L166 99C150 84 139 66 139 52C139 42 146 31 160 19C91 -4 -37 -48 -37 -159C-37 -230 33 -276 142 -276C271 -276 384 -204 384 -121C384 -85 363 -49 320 -14L260 35C226 62 213 81 213 100C213 114 228 128 240 146C338 170 409 253 409 342C409 357 406 376 405 380C422 378 430 378 439 378C456 378 466 379 489 382L498 427L495 433C467 426 447 424 393 424C393 425 369 482 275 482ZM176 1L253 -58C299 -94 318 -121 318 -154C318 -206 249 -248 166 -248C84 -248 27 -206 27 -145C27 -43 137 -11 176 1ZM250 448C308 448 337 412 337 341C337 238 289 168 219 168C158 168 126 209 126 288C126 383 177 448 250 448Z" stroke="rgb(0,0,0)" stroke-opacity="1" stroke-width="8" fill="rgb(0,0,0)" fill-opacity="1"></path></g></g><g><g transform="matrix(1,0,0,1,13.8800048828125,79.9000015258789)"><path transform="matrix(0.017,0,0,-0.017,0,0)" d="M123 111C93 111 66 83 66 53C66 23 93 -5 122 -5C154 -5 182 22 182 53C182 83 154 111 123 111ZM123 456C93 456 66 428 66 398C66 368 93 340 122 340C154 340 182 367 182 397C182 428 154 456 123 456Z" stroke="rgb(0,0,0)" stroke-opacity="1" stroke-width="8" fill="rgb(0,0,0)" fill-opacity="1"></path></g></g><g><g transform="matrix(1,0,0,1,21.5150146484375,79.9000015258789)"><path transform="matrix(0.017,0,0,-0.017,0,0)" d="M275 482C208 482 55 419 55 259C55 182 100 136 177 136C185 136 196 136 207 137L166 99C150 84 139 66 139 52C139 42 146 31 160 19C91 -4 -37 -48 -37 -159C-37 -230 33 -276 142 -276C271 -276 384 -204 384 -121C384 -85 363 -49 320 -14L260 35C226 62 213 81 213 100C213 114 228 128 240 146C338 170 409 253 409 342C409 357 406 376 405 380C422 378 430 378 439 378C456 378 466 379 489 382L498 427L495 433C467 426 447 424 393 424C393 425 369 482 275 482ZM176 1L253 -58C299 -94 318 -121 318 -154C318 -206 249 -248 166 -248C84 -248 27 -206 27 -145C27 -43 137 -11 176 1ZM250 448C308 448 337 412 337 341C337 238 289 168 219 168C158 168 126 209 126 288C126 383 177 448 250 448ZM867 365C870 403 875 435 883 476C872 481 868 482 863 482C832 482 801 458 765 407C726 351 687 291 671 256L703 408C707 425 709 438 709 450C709 470 701 482 686 482C665 482 627 461 553 408L525 388L532 368L564 389C592 407 603 412 612 412C622 412 629 403 629 390C629 332 586 126 546 -2L556 -9C571 -4 587 -1 610 4L623 6L649 126C667 209 690 262 734 319C768 363 795 384 817 384C832 384 842 379 853 365ZM1158 204L1129 77C1125 60 1123 42 1123 26C1123 4 1132 -9 1147 -9C1170 -9 1211 17 1293 85L1286 106C1262 86 1233 59 1211 59C1202 59 1196 68 1196 82C1196 87 1196 90 1197 93L1289 472L1279 481L1246 463C1205 478 1188 482 1161 482C1133 482 1113 477 1086 464C1024 433 991 403 966 354C922 265 891 145 891 67C891 23 906 -11 925 -11C962 -11 1042 41 1158 204ZM1206 414C1184 305 1165 253 1131 201C1074 117 1013 59 981 59C969 59 963 72 963 99C963 163 991 280 1026 360C1050 415 1073 433 1121 433C1144 433 1162 429 1206 414ZM1496 420C1517 420 1533 421 1559 424C1448 304 1406 221 1406 121C1406 44 1452 -11 1516 -11C1654 -11 1807 236 1807 384C1807 441 1781 482 1745 482C1732 482 1720 478 1712 470L1662 423L1673 404C1682 410 1691 413 1700 413C1727 413 1743 390 1743 350C1743 202 1646 39 1558 39C1509 39 1478 81 1478 146C1478 251 1517 342 1615 464L1605 482C1585 473 1572 470 1544 470C1516 470 1474 472 1445 475L1433 476C1427 477 1422 477 1421 477C1409 477 1400 475 1389 470C1375 443 1364 407 1351 352L1373 352L1390 394C1397 411 1417 422 1441 422C1474 422 1458 420 1496 420ZM2157 111L2133 94C2080 56 2032 36 1996 36C1949 36 1920 73 1920 133C1920 158 1923 185 1928 214C1945 218 2054 248 2079 259C2164 296 2203 342 2203 404C2203 451 2169 482 2119 482C2051 496 1941 423 1904 349C1874 299 1844 180 1844 113C1844 35 1888 -11 1960 -11C2017 -11 2073 17 2165 92ZM1942 274C1959 343 1979 386 2008 412C2026 428 2057 440 2081 440C2110 440 2129 420 2129 388C2129 344 2094 297 2042 272C2014 258 1978 247 1933 237ZM2700 722L2688 733C2636 707 2600 698 2528 691L2524 670L2572 670C2596 670 2606 663 2606 646C2606 638 2605 629 2604 622L2576 468C2546 477 2519 482 2494 482C2425 482 2331 410 2285 323C2254 265 2234 170 2234 86C2234 21 2249 -11 2278 -11C2305 -11 2342 6 2376 33C2430 77 2463 116 2530 217L2507 126C2496 82 2491 50 2491 24C2491 3 2500 -9 2517 -9C2534 -9 2558 3 2592 28L2673 88L2663 107L2619 76C2605 66 2589 59 2580 59C2572 59 2566 68 2566 82C2566 90 2567 99 2574 128ZM2331 59C2315 59 2306 73 2306 98C2306 224 2352 380 2401 418C2414 428 2433 433 2460 433C2504 433 2533 427 2566 410L2554 351C2517 171 2376 59 2331 59ZM2987 204L2958 77C2954 60 2952 42 2952 26C2952 4 2961 -9 2976 -9C2999 -9 3040 17 3122 85L3115 106C3091 86 3062 59 3040 59C3031 59 3025 68 3025 82C3025 87 3025 90 3026 93L3118 472L3108 481L3075 463C3034 478 3017 482 2990 482C2962 482 2942 477 2915 464C2853 433 2820 403 2795 354C2751 265 2720 145 2720 67C2720 23 2735 -11 2754 -11C2791 -11 2871 41 2987 204ZM3035 414C3013 305 2994 253 2960 201C2903 117 2842 59 2810 59C2798 59 2792 72 2792 99C2792 163 2820 280 2855 360C2879 415 2902 433 2950 433C2973 433 2991 429 3035 414ZM3642 722L3630 733C3578 707 3542 698 3470 691L3466 670L3514 670C3538 670 3548 663 3548 646C3548 638 3547 629 3546 622L3518 468C3488 477 3461 482 3436 482C3367 482 3273 410 3227 323C3196 265 3176 170 3176 86C3176 21 3191 -11 3220 -11C3247 -11 3284 6 3318 33C3372 77 3405 116 3472 217L3449 126C3438 82 3433 50 3433 24C3433 3 3442 -9 3459 -9C3476 -9 3500 3 3534 28L3615 88L3605 107L3561 76C3547 66 3531 59 3522 59C3514 59 3508 68 3508 82C3508 90 3509 99 3516 128ZM3273 59C3257 59 3248 73 3248 98C3248 224 3294 380 3343 418C3356 428 3375 433 3402 433C3446 433 3475 427 3508 410L3496 351C3459 171 3318 59 3273 59Z" stroke="rgb(0,0,0)" stroke-opacity="1" stroke-width="8" fill="rgb(0,0,0)" fill-opacity="1"></path></g></g></g><g><g><g transform="matrix(1,0,0,1,2,100.06000518798828)"><path transform="matrix(0.017,0,0,-0.017,0,0)" d="M236 722L224 733C179 711 138 697 64 691L60 670L108 670C126 670 142 667 142 647C142 641 142 632 140 622L98 388C78 272 36 80 10 2L17 -9L86 7C94 64 108 164 148 236C193 317 296 414 338 414C349 414 360 407 360 393C360 375 355 342 345 303L294 107C288 85 281 55 281 31C281 6 291 -9 312 -9C344 -9 412 41 471 85L461 103L435 86C412 71 386 56 374 56C367 56 361 65 361 76C361 88 364 101 368 116L432 372C438 398 443 423 443 447C443 464 437 482 411 482C376 482 299 437 231 374C198 343 172 308 144 273L140 275Z" stroke="rgb(0,0,0)" stroke-opacity="1" stroke-width="8" fill="rgb(0,0,0)" fill-opacity="1"></path></g></g><g><g transform="matrix(1,0,0,1,13.8800048828125,100.06000518798828)"><path transform="matrix(0.017,0,0,-0.017,0,0)" d="M123 111C93 111 66 83 66 53C66 23 93 -5 122 -5C154 -5 182 22 182 53C182 83 154 111 123 111ZM123 456C93 456 66 428 66 398C66 368 93 340 122 340C154 340 182 367 182 397C182 428 154 456 123 456Z" stroke="rgb(0,0,0)" stroke-opacity="1" stroke-width="8" fill="rgb(0,0,0)" fill-opacity="1"></path></g></g><g><g transform="matrix(1,0,0,1,21.5150146484375,100.06000518798828)"><path transform="matrix(0.017,0,0,-0.017,0,0)" d="M271 204L242 77C238 60 236 42 236 26C236 4 245 -9 260 -9C283 -9 324 17 406 85L399 106C375 86 346 59 324 59C315 59 309 68 309 82C309 87 309 90 310 93L402 472L392 481L359 463C318 478 301 482 274 482C246 482 226 477 199 464C137 433 104 403 79 354C35 265 4 145 4 67C4 23 19 -11 38 -11C75 -11 155 41 271 204ZM319 414C297 305 278 253 244 201C187 117 126 59 94 59C82 59 76 72 76 99C76 163 104 280 139 360C163 415 186 433 234 433C257 433 275 429 319 414ZM694 722L682 733C630 707 594 698 522 691L518 670L566 670C590 670 600 663 600 648C600 645 600 640 597 622C586 567 513 182 498 132C485 82 479 52 479 31C479 6 490 -9 509 -9C535 -9 571 12 669 85L659 103L633 86C604 67 582 56 572 56C565 56 559 66 559 76C559 82 560 89 563 104ZM845 390L789 107C788 99 776 61 776 31C776 6 787 -9 806 -9C841 -9 876 11 954 74L985 99L975 117L930 86C901 66 881 56 870 56C861 56 856 64 856 76C856 102 870 183 899 328L912 390L1019 390L1030 440C992 436 958 434 920 434C936 528 947 577 965 631L954 646C934 634 907 622 876 610L851 440C807 419 781 408 763 403L761 390ZM1544 473L1537 482L1469 465L1459 414C1444 336 1419 268 1388 221C1329 130 1251 59 1211 59C1203 59 1198 68 1198 85C1198 99 1200 112 1205 137L1262 408C1265 424 1267 438 1267 451C1267 470 1258 482 1244 482C1224 482 1186 461 1112 408L1084 388L1091 368L1123 389C1151 407 1162 412 1171 412C1180 412 1188 403 1188 392C1188 388 1187 378 1186 374L1123 77C1121 68 1119 44 1119 30C1119 7 1134 -11 1154 -11C1217 -11 1338 101 1422 239L1385 97C1378 73 1374 46 1374 31C1374 6 1385 -9 1404 -9C1430 -9 1466 12 1564 85L1554 103L1528 86C1504 70 1478 59 1467 59C1459 59 1454 66 1454 76C1454 112 1529 416 1544 473ZM1975 365C1978 403 1983 435 1991 476C1980 481 1976 482 1971 482C1940 482 1909 458 1873 407C1834 351 1795 291 1779 256L1811 408C1815 425 1817 438 1817 450C1817 470 1809 482 1794 482C1773 482 1735 461 1661 408L1633 388L1640 368L1672 389C1700 407 1711 412 1720 412C1730 412 1737 403 1737 390C1737 332 1694 126 1654 -2L1664 -9C1679 -4 1695 -1 1718 4L1731 6L1757 126C1775 209 1798 262 1842 319C1876 363 1903 384 1925 384C1940 384 1950 379 1961 365ZM2266 204L2237 77C2233 60 2231 42 2231 26C2231 4 2240 -9 2255 -9C2278 -9 2319 17 2401 85L2394 106C2370 86 2341 59 2319 59C2310 59 2304 68 2304 82C2304 87 2304 90 2305 93L2397 472L2387 481L2354 463C2313 478 2296 482 2269 482C2241 482 2221 477 2194 464C2132 433 2099 403 2074 354C2030 265 1999 145 1999 67C1999 23 2014 -11 2033 -11C2070 -11 2150 41 2266 204ZM2314 414C2292 305 2273 253 2239 201C2182 117 2121 59 2089 59C2077 59 2071 72 2071 99C2071 163 2099 280 2134 360C2158 415 2181 433 2229 433C2252 433 2270 429 2314 414Z" stroke="rgb(0,0,0)" stroke-opacity="1" stroke-width="8" fill="rgb(0,0,0)" fill-opacity="1"></path></g></g></g></g></svg>