<svg xmlns="http://www.w3.org/2000/svg" xmlns:xlink="http://www.w3.org/1999/xlink" width="193.28500366210938" height="127.13500213623047" style="width:193.28500366210938px;height:127.13500213623047px;font-family:Asana-Math, Asana;background:#FFF;"><g><g><g><g transform="matrix(1,0,0,1,2,30.205001831054688)"><path transform="matrix(0.017,0,0,-0.017,0,0)" d="M2960 334L3077 334L3209 330L3228 375L3224 382C3143 378 3083 376 3005 376L2968 376L3015 646C3047 647 3130 650 3152 650C3214 650 3255 641 3256 626L3264 537L3288 537C3291 601 3298 651 3309 689C3288 691 3258 692 3240 692C3237 692 3226 692 3202 691L3082 690C3073 689 2899 691 2889 691L2844 692L2841 664L2895 662C2919 661 2930 653 2930 635C2930 621 2926 589 2921 559L2834 55C2830 37 2818 30 2774 23L2769 -3L2810 -2C2841 -1 2903 0 2923 0L3148 -3C3162 -3 3187 -2 3220 -1L3253 0L3257 36C3259 56 3264 86 3273 135L3278 161L3251 161L3235 101C3225 65 3216 53 3194 48C3174 44 3101 39 3047 39C3006 39 2979 40 2910 46Z" stroke="rgb(0,0,0)" stroke-opacity="1" stroke-width="8" fill="rgb(0,0,0)" fill-opacity="1"></path></g></g><g><g><g><g><g transform="matrix(1,0,0,1,59.420013427734375,34.16500701904297)"><path transform="matrix(0.0119,0,0,-0.0119,0,0)" d="M176 -11C232 -11 347 62 390 125C431 186 465 296 465 371C465 438 442 482 406 482C364 482 311 456 259 409C218 374 198 348 162 289L186 408C189 425 191 440 191 452C191 471 183 482 169 482C148 482 110 461 36 408L8 388L15 368L47 389C75 407 86 412 95 412C105 412 112 403 112 389C112 381 110 361 108 351L50 8C40 -52 21 -143 1 -233L-7 -270L0 -276C21 -269 41 -264 73 -259L115 3C136 -4 158 -11 176 -11ZM143 165C165 293 272 424 355 424C381 424 393 402 393 356C393 275 353 156 300 80C280 51 248 36 207 36C176 36 151 43 125 59ZM827 111L803 94C750 56 702 36 666 36C619 36 590 73 590 133C590 158 593 185 598 214C615 218 724 248 749 259C834 296 873 342 873 404C873 451 839 482 789 482C721 496 611 423 574 349C544 299 514 180 514 113C514 35 558 -11 630 -11C687 -11 743 17 835 92ZM612 274C629 343 649 386 678 412C696 428 727 440 751 440C780 440 799 420 799 388C799 344 764 297 712 272C684 258 648 247 603 237Z" stroke="rgb(0,0,0)" stroke-opacity="1" stroke-width="8" fill="rgb(0,0,0)" fill-opacity="1"></path></g></g></g></g></g><g><g transform="matrix(1,0,0,1,76.10000610351562,30.205001831054688)"><path transform="matrix(0.017,0,0,-0.017,0,0)" d="M604 347L604 406L65 406L65 347ZM604 134L604 193L65 193L65 134Z" stroke="rgb(0,0,0)" stroke-opacity="1" stroke-width="8" fill="rgb(0,0,0)" fill-opacity="1"></path></g></g><g><g><g><g><g transform="matrix(1,0,0,1,94.25,18.040000915527344)"><path transform="matrix(0.017,0,0,-0.017,0,0)" d="M418 -3L418 27L366 30C311 33 301 44 301 96L301 700L60 598L67 548L217 614L217 96C217 44 206 33 152 30L96 27L96 -3C250 0 250 0 261 0C292 0 402 -3 418 -3Z" stroke="rgb(0,0,0)" stroke-opacity="1" stroke-width="8" fill="rgb(0,0,0)" fill-opacity="1"></path></g></g></g></g><g><g><g><g transform="matrix(1,0,0,1,94.25,43.375)"><path transform="matrix(0.017,0,0,-0.017,0,0)" d="M16 23L16 -3C203 -3 203 0 239 0C275 0 275 -3 468 -3L468 82C353 77 307 81 122 77L304 270C401 373 431 428 431 503C431 618 353 689 226 689C154 689 105 669 56 619L39 483L68 483L81 529C97 587 133 612 200 612C286 612 341 558 341 473C341 398 299 324 186 204Z" stroke="rgb(0,0,0)" stroke-opacity="1" stroke-width="8" fill="rgb(0,0,0)" fill-opacity="1"></path></g></g></g></g><line style="fill:none;stroke-width:0.99px;stroke:rgb(0, 0, 0);" x1="94.25" y1="26.240000009536743" x2="102.74000072479248" y2="26.240000009536743"></line></g><g><g transform="matrix(1,0,0,1,104.43499755859375,30.205001831054688)"><path transform="matrix(0.017,0,0,-0.017,0,0)" d="M240 722L228 733C176 707 140 698 68 691L64 670L112 670C136 670 146 663 146 646C146 638 145 629 144 622L96 354C82 279 66 210 14 1L23 -9L90 8L113 132C122 180 146 225 180 259C249 59 281 -9 306 -9C319 -9 343 4 387 35L433 67L425 86L382 62C368 54 361 52 353 52C343 52 336 58 327 75C292 139 270 193 231 316L245 330C306 391 352 416 402 416C410 416 421 414 438 410L455 473C437 479 419 482 407 482C341 482 258 405 133 230ZM477 1C492 -7 508 -11 520 -11C553 -11 592 18 623 65L699 182L710 113C723 28 746 -11 782 -11C804 -11 836 6 868 35L917 79L908 98C872 68 847 53 831 53C816 53 803 63 793 83C784 102 773 139 768 168L750 269L785 318C832 383 859 406 890 406C906 406 918 398 923 383L937 387L952 472C940 479 931 482 922 482C882 482 842 446 780 354L743 299L737 347C725 446 698 482 639 482C613 482 591 474 582 461L524 378L541 368C571 402 591 416 610 416C643 416 665 375 682 277L693 215L653 153C610 86 576 54 548 54C533 54 522 58 520 63L509 91L489 88C489 53 481 27 477 1Z" stroke="rgb(0,0,0)" stroke-opacity="1" stroke-width="8" fill="rgb(0,0,0)" fill-opacity="1"></path></g></g><g><g><g><g><g transform="matrix(1,0,0,1,121.85000610351562,25.300001525878905)"><path transform="matrix(0.0119,0,0,-0.0119,0,0)" d="M16 23L16 -3C203 -3 203 0 239 0C275 0 275 -3 468 -3L468 82C353 77 307 81 122 77L304 270C401 373 431 428 431 503C431 618 353 689 226 689C154 689 105 669 56 619L39 483L68 483L81 529C97 587 133 612 200 612C286 612 341 558 341 473C341 398 299 324 186 204Z" stroke="rgb(0,0,0)" stroke-opacity="1" stroke-width="8" fill="rgb(0,0,0)" fill-opacity="1"></path></g></g></g></g></g></g><g></g><g><g><g transform="matrix(1,0,0,1,2,80.69499969482422)"><path transform="matrix(0.017,0,0,-0.017,0,0)" d="M240 722L228 733C176 707 140 698 68 691L64 670L112 670C136 670 146 663 146 646C146 638 145 629 144 622L96 354C82 279 66 210 14 1L23 -9L90 8L113 132C122 180 146 225 180 259C249 59 281 -9 306 -9C319 -9 343 4 387 35L433 67L425 86L382 62C368 54 361 52 353 52C343 52 336 58 327 75C292 139 270 193 231 316L245 330C306 391 352 416 402 416C410 416 421 414 438 410L455 473C437 479 419 482 407 482C341 482 258 405 133 230Z" stroke="rgb(0,0,0)" stroke-opacity="1" stroke-width="8" fill="rgb(0,0,0)" fill-opacity="1"></path></g></g><g><g transform="matrix(1,0,0,1,13.354995727539062,80.69499969482422)"><path transform="matrix(0.017,0,0,-0.017,0,0)" d="M123 111C93 111 66 83 66 53C66 23 93 -5 122 -5C154 -5 182 22 182 53C182 83 154 111 123 111ZM123 456C93 456 66 428 66 398C66 368 93 340 122 340C154 340 182 367 182 397C182 428 154 456 123 456Z" stroke="rgb(0,0,0)" stroke-opacity="1" stroke-width="8" fill="rgb(0,0,0)" fill-opacity="1"></path></g></g><g><g transform="matrix(1,0,0,1,20.990005493164062,80.69499969482422)"><path transform="matrix(0.017,0,0,-0.017,0,0)" d="M342 330L365 330C373 395 380 432 389 458C365 473 330 482 293 482C248 483 175 463 118 400C64 352 25 241 25 136C25 40 67 -11 147 -11C201 -11 249 9 304 54L354 95L346 115L331 105C259 57 221 40 186 40C130 40 101 80 101 159C101 267 136 371 185 409C206 425 230 433 261 433C306 433 342 414 342 390ZM531 390L475 107C474 99 462 61 462 31C462 6 473 -9 492 -9C527 -9 562 11 640 74L671 99L661 117L616 86C587 66 567 56 556 56C547 56 542 64 542 76C542 102 556 183 585 328L598 390L705 390L716 440C678 436 644 434 606 434C622 528 633 577 651 631L640 646C620 634 593 622 562 610L537 440C493 419 467 408 449 403L447 390ZM1066 111L1042 94C989 56 941 36 905 36C858 36 829 73 829 133C829 158 832 185 837 214C854 218 963 248 988 259C1073 296 1112 342 1112 404C1112 451 1078 482 1028 482C960 496 850 423 813 349C783 299 753 180 753 113C753 35 797 -11 869 -11C926 -11 982 17 1074 92ZM851 274C868 343 888 386 917 412C935 428 966 440 990 440C1019 440 1038 420 1038 388C1038 344 1003 297 951 272C923 258 887 247 842 237ZM1703 111L1679 94C1626 56 1578 36 1542 36C1495 36 1466 73 1466 133C1466 158 1469 185 1474 214C1491 218 1600 248 1625 259C1710 296 1749 342 1749 404C1749 451 1715 482 1665 482C1597 496 1487 423 1450 349C1420 299 1390 180 1390 113C1390 35 1434 -11 1506 -11C1563 -11 1619 17 1711 92ZM1488 274C1505 343 1525 386 1554 412C1572 428 1603 440 1627 440C1656 440 1675 420 1675 388C1675 344 1640 297 1588 272C1560 258 1524 247 1479 237ZM2014 722L2002 733C1950 707 1914 698 1842 691L1838 670L1886 670C1910 670 1920 663 1920 648C1920 645 1920 640 1917 622C1906 567 1833 182 1818 132C1805 82 1799 52 1799 31C1799 6 1810 -9 1829 -9C1855 -9 1891 12 1989 85L1979 103L1953 86C1924 67 1902 56 1892 56C1885 56 1879 66 1879 76C1879 82 1880 89 1883 104ZM2311 204L2282 77C2278 60 2276 42 2276 26C2276 4 2285 -9 2300 -9C2323 -9 2364 17 2446 85L2439 106C2415 86 2386 59 2364 59C2355 59 2349 68 2349 82C2349 87 2349 90 2350 93L2442 472L2432 481L2399 463C2358 478 2341 482 2314 482C2286 482 2266 477 2239 464C2177 433 2144 403 2119 354C2075 265 2044 145 2044 67C2044 23 2059 -11 2078 -11C2115 -11 2195 41 2311 204ZM2359 414C2337 305 2318 253 2284 201C2227 117 2166 59 2134 59C2122 59 2116 72 2116 99C2116 163 2144 280 2179 360C2203 415 2226 433 2274 433C2297 433 2315 429 2359 414ZM2514 148C2509 97 2503 62 2492 16C2530 -2 2564 -11 2599 -11C2648 -11 2694 7 2745 47C2796 87 2817 124 2817 174C2817 228 2785 257 2711 271L2668 279C2608 290 2589 307 2589 348C2589 401 2634 442 2691 442C2732 442 2770 424 2786 397L2786 342L2809 342C2813 377 2817 404 2828 455C2789 474 2761 482 2728 482C2676 482 2615 452 2567 404C2541 377 2530 352 2530 316C2530 260 2561 228 2627 215L2690 203C2734 195 2750 177 2750 138C2750 73 2704 29 2633 29C2598 29 2567 40 2539 64L2539 148ZM2996 390L2940 107C2939 99 2927 61 2927 31C2927 6 2938 -9 2957 -9C2992 -9 3027 11 3105 74L3136 99L3126 117L3081 86C3052 66 3032 56 3021 56C3012 56 3007 64 3007 76C3007 102 3021 183 3050 328L3063 390L3170 390L3181 440C3143 436 3109 434 3071 434C3087 528 3098 577 3116 631L3105 646C3085 634 3058 622 3027 610L3002 440C2958 419 2932 408 2914 403L2912 390ZM3237 388L3244 368L3276 389C3313 412 3316 414 3323 414C3333 414 3341 404 3341 391C3341 384 3337 361 3333 347L3267 107C3259 76 3254 49 3254 30C3254 6 3265 -9 3284 -9C3310 -9 3346 12 3444 85L3434 103L3408 86C3379 67 3356 56 3347 56C3340 56 3334 66 3334 76C3334 86 3336 95 3341 116L3418 420C3422 437 3424 448 3424 456C3424 473 3415 482 3399 482C3377 482 3340 461 3265 408ZM3431 712C3402 712 3373 679 3373 645C3373 620 3388 604 3412 604C3443 604 3467 633 3467 671C3467 695 3452 712 3431 712ZM3822 330L3845 330C3853 395 3860 432 3869 458C3845 473 3810 482 3773 482C3728 483 3655 463 3598 400C3544 352 3505 241 3505 136C3505 40 3547 -11 3627 -11C3681 -11 3729 9 3784 54L3834 95L3826 115L3811 105C3739 57 3701 40 3666 40C3610 40 3581 80 3581 159C3581 267 3616 371 3665 409C3686 425 3710 433 3741 433C3786 433 3822 414 3822 390ZM4157 204L4128 77C4124 60 4122 42 4122 26C4122 4 4131 -9 4146 -9C4169 -9 4210 17 4292 85L4285 106C4261 86 4232 59 4210 59C4201 59 4195 68 4195 82C4195 87 4195 90 4196 93L4288 472L4278 481L4245 463C4204 478 4187 482 4160 482C4132 482 4112 477 4085 464C4023 433 3990 403 3965 354C3921 265 3890 145 3890 67C3890 23 3905 -11 3924 -11C3961 -11 4041 41 4157 204ZM4205 414C4183 305 4164 253 4130 201C4073 117 4012 59 3980 59C3968 59 3962 72 3962 99C3962 163 3990 280 4025 360C4049 415 4072 433 4120 433C4143 433 4161 429 4205 414Z" stroke="rgb(0,0,0)" stroke-opacity="1" stroke-width="8" fill="rgb(0,0,0)" fill-opacity="1"></path></g></g></g><g><g><g transform="matrix(1,0,0,1,2,100.8550033569336)"><path transform="matrix(0.017,0,0,-0.017,0,0)" d="M9 1C24 -7 40 -11 52 -11C85 -11 124 18 155 65L231 182L242 113C255 28 278 -11 314 -11C336 -11 368 6 400 35L449 79L440 98C404 68 379 53 363 53C348 53 335 63 325 83C316 102 305 139 300 168L282 269L317 318C364 383 391 406 422 406C438 406 450 398 455 383L469 387L484 472C472 479 463 482 454 482C414 482 374 446 312 354L275 299L269 347C257 446 230 482 171 482C145 482 123 474 114 461L56 378L73 368C103 402 123 416 142 416C175 416 197 375 214 277L225 215L185 153C142 86 108 54 80 54C65 54 54 58 52 63L41 91L21 88C21 53 13 27 9 1Z" stroke="rgb(0,0,0)" stroke-opacity="1" stroke-width="8" fill="rgb(0,0,0)" fill-opacity="1"></path></g></g><g><g transform="matrix(1,0,0,1,13.8800048828125,100.8550033569336)"><path transform="matrix(0.017,0,0,-0.017,0,0)" d="M123 111C93 111 66 83 66 53C66 23 93 -5 122 -5C154 -5 182 22 182 53C182 83 154 111 123 111ZM123 456C93 456 66 428 66 398C66 368 93 340 122 340C154 340 182 367 182 397C182 428 154 456 123 456Z" stroke="rgb(0,0,0)" stroke-opacity="1" stroke-width="8" fill="rgb(0,0,0)" fill-opacity="1"></path></g></g><g><g transform="matrix(1,0,0,1,21.514999389648438,100.8550033569336)"><path transform="matrix(0.017,0,0,-0.017,0,0)" d="M251 722L239 733C187 707 151 698 79 691L75 670L123 670C147 670 157 663 157 648C157 645 157 640 154 622C143 567 70 182 55 132C42 82 36 52 36 31C36 6 47 -9 66 -9C92 -9 128 12 226 85L216 103L190 86C161 67 139 56 129 56C122 56 116 66 116 76C116 82 117 89 120 104ZM294 152C294 46 339 -11 422 -11C477 -11 537 15 582 57C644 116 688 230 688 331C688 425 638 482 555 482C451 482 294 382 294 152ZM518 444C579 444 612 399 612 315C612 219 581 113 537 60C519 39 493 27 462 27C404 27 370 72 370 151C370 264 409 387 458 427C471 438 494 444 518 444ZM744 388L751 368L783 389C820 412 823 414 830 414C841 414 848 404 848 389C848 338 807 145 766 2L773 -9C798 -2 821 4 843 8C862 134 883 199 929 268C983 352 1058 414 1103 414C1114 414 1120 405 1120 390C1120 372 1117 351 1109 319L1057 107C1048 70 1044 47 1044 31C1044 6 1055 -9 1074 -9C1100 -9 1136 12 1234 85L1224 103L1198 86C1169 67 1147 56 1137 56C1130 56 1124 65 1124 76C1124 81 1125 92 1126 96L1192 372C1199 401 1203 429 1203 446C1203 469 1192 482 1172 482C1130 482 1061 444 1002 389C964 354 936 320 884 247L922 408C926 426 928 438 928 449C928 470 920 482 905 482C884 482 845 460 772 408ZM1550 482C1483 482 1330 419 1330 259C1330 182 1375 136 1452 136C1460 136 1471 136 1482 137L1441 99C1425 84 1414 66 1414 52C1414 42 1421 31 1435 19C1366 -4 1238 -48 1238 -159C1238 -230 1308 -276 1417 -276C1546 -276 1659 -204 1659 -121C1659 -85 1638 -49 1595 -14L1535 35C1501 62 1488 81 1488 100C1488 114 1503 128 1515 146C1613 170 1684 253 1684 342C1684 357 1681 376 1680 380C1697 378 1705 378 1714 378C1731 378 1741 379 1764 382L1773 427L1770 433C1742 426 1722 424 1668 424C1668 425 1644 482 1550 482ZM1451 1L1528 -58C1574 -94 1593 -121 1593 -154C1593 -206 1524 -248 1441 -248C1359 -248 1302 -206 1302 -145C1302 -43 1412 -11 1451 1ZM1525 448C1583 448 1612 412 1612 341C1612 238 1564 168 1494 168C1433 168 1401 209 1401 288C1401 383 1452 448 1525 448ZM1808 388L1815 368L1847 389C1884 412 1887 414 1894 414C1904 414 1912 404 1912 391C1912 384 1908 361 1904 347L1838 107C1830 76 1825 49 1825 30C1825 6 1836 -9 1855 -9C1881 -9 1917 12 2015 85L2005 103L1979 86C1950 67 1927 56 1918 56C1911 56 1905 66 1905 76C1905 86 1907 95 1912 116L1989 420C1993 437 1995 448 1995 456C1995 473 1986 482 1970 482C1948 482 1911 461 1836 408ZM2002 712C1973 712 1944 679 1944 645C1944 620 1959 604 1983 604C2014 604 2038 633 2038 671C2038 695 2023 712 2002 712ZM2176 390L2120 107C2119 99 2107 61 2107 31C2107 6 2118 -9 2137 -9C2172 -9 2207 11 2285 74L2316 99L2306 117L2261 86C2232 66 2212 56 2201 56C2192 56 2187 64 2187 76C2187 102 2201 183 2230 328L2243 390L2350 390L2361 440C2323 436 2289 434 2251 434C2267 528 2278 577 2296 631L2285 646C2265 634 2238 622 2207 610L2182 440C2138 419 2112 408 2094 403L2092 390ZM2875 473L2868 482L2800 465L2790 414C2775 336 2750 268 2719 221C2660 130 2582 59 2542 59C2534 59 2529 68 2529 85C2529 99 2531 112 2536 137L2593 408C2596 424 2598 438 2598 451C2598 470 2589 482 2575 482C2555 482 2517 461 2443 408L2415 388L2422 368L2454 389C2482 407 2493 412 2502 412C2511 412 2519 403 2519 392C2519 388 2518 378 2517 374L2454 77C2452 68 2450 44 2450 30C2450 7 2465 -11 2485 -11C2548 -11 2669 101 2753 239L2716 97C2709 73 2705 46 2705 31C2705 6 2716 -9 2735 -9C2761 -9 2797 12 2895 85L2885 103L2859 86C2835 70 2809 59 2798 59C2790 59 2785 66 2785 76C2785 112 2860 416 2875 473ZM3421 722L3409 733C3357 707 3321 698 3249 691L3245 670L3293 670C3317 670 3327 663 3327 646C3327 638 3326 629 3325 622L3297 468C3267 477 3240 482 3215 482C3146 482 3052 410 3006 323C2975 265 2955 170 2955 86C2955 21 2970 -11 2999 -11C3026 -11 3063 6 3097 33C3151 77 3184 116 3251 217L3228 126C3217 82 3212 50 3212 24C3212 3 3221 -9 3238 -9C3255 -9 3279 3 3313 28L3394 88L3384 107L3340 76C3326 66 3310 59 3301 59C3293 59 3287 68 3287 82C3287 90 3288 99 3295 128ZM3052 59C3036 59 3027 73 3027 98C3027 224 3073 380 3122 418C3135 428 3154 433 3181 433C3225 433 3254 427 3287 410L3275 351C3238 171 3097 59 3052 59ZM4169 722L4157 733C4105 707 4069 698 3997 691L3993 670L4041 670C4065 670 4075 663 4075 646C4075 638 4074 629 4073 622L4045 468C4015 477 3988 482 3963 482C3894 482 3800 410 3754 323C3723 265 3703 170 3703 86C3703 21 3718 -11 3747 -11C3774 -11 3811 6 3845 33C3899 77 3932 116 3999 217L3976 126C3965 82 3960 50 3960 24C3960 3 3969 -9 3986 -9C4003 -9 4027 3 4061 28L4142 88L4132 107L4088 76C4074 66 4058 59 4049 59C4041 59 4035 68 4035 82C4035 90 4036 99 4043 128ZM3800 59C3784 59 3775 73 3775 98C3775 224 3821 380 3870 418C3883 428 3902 433 3929 433C3973 433 4002 427 4035 410L4023 351C3986 171 3845 59 3800 59ZM4513 111L4489 94C4436 56 4388 36 4352 36C4305 36 4276 73 4276 133C4276 158 4279 185 4284 214C4301 218 4410 248 4435 259C4520 296 4559 342 4559 404C4559 451 4525 482 4475 482C4407 496 4297 423 4260 349C4230 299 4200 180 4200 113C4200 35 4244 -11 4316 -11C4373 -11 4429 17 4521 92ZM4298 274C4315 343 4335 386 4364 412C4382 428 4413 440 4437 440C4466 440 4485 420 4485 388C4485 344 4450 297 4398 272C4370 258 4334 247 4289 237ZM5305 722L5293 733C5241 707 5205 698 5133 691L5129 670L5177 670C5201 670 5211 663 5211 646C5211 638 5210 629 5209 622L5181 468C5151 477 5124 482 5099 482C5030 482 4936 410 4890 323C4859 265 4839 170 4839 86C4839 21 4854 -11 4883 -11C4910 -11 4947 6 4981 33C5035 77 5068 116 5135 217L5112 126C5101 82 5096 50 5096 24C5096 3 5105 -9 5122 -9C5139 -9 5163 3 5197 28L5278 88L5268 107L5224 76C5210 66 5194 59 5185 59C5177 59 5171 68 5171 82C5171 90 5172 99 5179 128ZM4936 59C4920 59 4911 73 4911 98C4911 224 4957 380 5006 418C5019 428 5038 433 5065 433C5109 433 5138 427 5171 410L5159 351C5122 171 4981 59 4936 59ZM5649 111L5625 94C5572 56 5524 36 5488 36C5441 36 5412 73 5412 133C5412 158 5415 185 5420 214C5437 218 5546 248 5571 259C5656 296 5695 342 5695 404C5695 451 5661 482 5611 482C5543 496 5433 423 5396 349C5366 299 5336 180 5336 113C5336 35 5380 -11 5452 -11C5509 -11 5565 17 5657 92ZM5434 274C5451 343 5471 386 5500 412C5518 428 5549 440 5573 440C5602 440 5621 420 5621 388C5621 344 5586 297 5534 272C5506 258 5470 247 5425 237ZM6054 437L6038 437L6059 549C6075 635 6103 673 6149 673C6179 673 6206 658 6221 634L6231 638C6236 654 6246 685 6254 705L6259 720C6243 727 6212 733 6189 733C6178 733 6162 730 6154 726C6130 715 6048 654 6025 630C6003 608 5991 578 5980 521L5965 442C5924 422 5904 414 5879 405L5874 383L5955 383L5946 327C5916 132 5879 -54 5857 -123C5839 -182 5809 -213 5773 -213C5750 -213 5739 -206 5721 -184L5707 -188C5703 -211 5689 -259 5684 -268C5693 -273 5708 -276 5719 -276C5760 -276 5814 -245 5853 -198C5924 -114 5944 -18 6028 383L6132 383C6136 402 6143 425 6149 439L6145 446C6116 439 6117 437 6054 437ZM6276 152C6276 46 6321 -11 6404 -11C6459 -11 6519 15 6564 57C6626 116 6670 230 6670 331C6670 425 6620 482 6537 482C6433 482 6276 382 6276 152ZM6500 444C6561 444 6594 399 6594 315C6594 219 6563 113 6519 60C6501 39 6475 27 6444 27C6386 27 6352 72 6352 151C6352 264 6391 387 6440 427C6453 438 6476 444 6500 444ZM7070 365C7073 403 7078 435 7086 476C7075 481 7071 482 7066 482C7035 482 7004 458 6968 407C6929 351 6890 291 6874 256L6906 408C6910 425 6912 438 6912 450C6912 470 6904 482 6889 482C6868 482 6830 461 6756 408L6728 388L6735 368L6767 389C6795 407 6806 412 6815 412C6825 412 6832 403 6832 390C6832 332 6789 126 6749 -2L6759 -9C6774 -4 6790 -1 6813 4L6826 6L6852 126C6870 209 6893 262 6937 319C6971 363 6998 384 7020 384C7035 384 7045 379 7056 365ZM7820 103L7794 86C7765 67 7743 56 7733 56C7726 56 7720 65 7720 76C7720 86 7722 95 7727 116L7802 413C7806 430 7809 446 7809 454C7809 471 7799 482 7783 482C7754 482 7716 464 7655 421C7592 376 7557 341 7508 272L7538 409C7542 429 7545 444 7545 451C7545 470 7535 482 7519 482C7489 482 7443 460 7388 418C7344 384 7324 363 7259 275L7292 408C7296 424 7298 439 7298 451C7298 470 7289 482 7275 482C7254 482 7216 461 7142 408L7114 388L7121 368C7158 391 7193 414 7200 414C7211 414 7218 404 7218 389C7218 338 7177 145 7136 2L7139 -9L7207 6L7229 108C7253 219 7280 278 7335 338C7377 384 7422 414 7450 414C7457 414 7461 406 7461 393C7461 358 7439 244 7398 69L7382 2L7387 -9L7456 6L7477 113C7493 194 7527 269 7571 318C7626 379 7676 414 7708 414C7716 414 7721 405 7721 389C7721 365 7718 351 7696 264C7656 105 7640 84 7640 31C7640 6 7651 -9 7670 -9C7696 -9 7732 12 7830 85ZM8138 204L8109 77C8105 60 8103 42 8103 26C8103 4 8112 -9 8127 -9C8150 -9 8191 17 8273 85L8266 106C8242 86 8213 59 8191 59C8182 59 8176 68 8176 82C8176 87 8176 90 8177 93L8269 472L8259 481L8226 463C8185 478 8168 482 8141 482C8113 482 8093 477 8066 464C8004 433 7971 403 7946 354C7902 265 7871 145 7871 67C7871 23 7886 -11 7905 -11C7942 -11 8022 41 8138 204ZM8186 414C8164 305 8145 253 8111 201C8054 117 7993 59 7961 59C7949 59 7943 72 7943 99C7943 163 7971 280 8006 360C8030 415 8053 433 8101 433C8124 433 8142 429 8186 414ZM8652 330L8675 330C8683 395 8690 432 8699 458C8675 473 8640 482 8603 482C8558 483 8485 463 8428 400C8374 352 8335 241 8335 136C8335 40 8377 -11 8457 -11C8511 -11 8559 9 8614 54L8664 95L8656 115L8641 105C8569 57 8531 40 8496 40C8440 40 8411 80 8411 159C8411 267 8446 371 8495 409C8516 425 8540 433 8571 433C8616 433 8652 414 8652 390ZM8750 388L8757 368L8789 389C8826 412 8829 414 8836 414C8846 414 8854 404 8854 391C8854 384 8850 361 8846 347L8780 107C8772 76 8767 49 8767 30C8767 6 8778 -9 8797 -9C8823 -9 8859 12 8957 85L8947 103L8921 86C8892 67 8869 56 8860 56C8853 56 8847 66 8847 76C8847 86 8849 95 8854 116L8931 420C8935 437 8937 448 8937 456C8937 473 8928 482 8912 482C8890 482 8853 461 8778 408ZM8944 712C8915 712 8886 679 8886 645C8886 620 8901 604 8925 604C8956 604 8980 633 8980 671C8980 695 8965 712 8944 712ZM9010 152C9010 46 9055 -11 9138 -11C9193 -11 9253 15 9298 57C9360 116 9404 230 9404 331C9404 425 9354 482 9271 482C9167 482 9010 382 9010 152ZM9234 444C9295 444 9328 399 9328 315C9328 219 9297 113 9253 60C9235 39 9209 27 9178 27C9120 27 9086 72 9086 151C9086 264 9125 387 9174 427C9187 438 9210 444 9234 444ZM9460 388L9467 368L9499 389C9536 412 9539 414 9546 414C9557 414 9564 404 9564 389C9564 338 9523 145 9482 2L9489 -9C9514 -2 9537 4 9559 8C9578 134 9599 199 9645 268C9699 352 9774 414 9819 414C9830 414 9836 405 9836 390C9836 372 9833 351 9825 319L9773 107C9764 70 9760 47 9760 31C9760 6 9771 -9 9790 -9C9816 -9 9852 12 9950 85L9940 103L9914 86C9885 67 9863 56 9853 56C9846 56 9840 65 9840 76C9840 81 9841 92 9842 96L9908 372C9915 401 9919 429 9919 446C9919 469 9908 482 9888 482C9846 482 9777 444 9718 389C9680 354 9652 320 9600 247L9638 408C9642 426 9644 438 9644 449C9644 470 9636 482 9621 482C9600 482 9561 460 9488 408Z" stroke="rgb(0,0,0)" stroke-opacity="1" stroke-width="8" fill="rgb(0,0,0)" fill-opacity="1"></path></g></g></g><g></g></g></svg>