<svg xmlns="http://www.w3.org/2000/svg" xmlns:xlink="http://www.w3.org/1999/xlink" width="85.0300064086914" height="84.63999938964844" style="width:85.0300064086914px;height:84.63999938964844px;font-family:Asana-Math, Asana;background:#FFF;"><g><g><g><g transform="matrix(1,0,0,1,2,18.040000915527344)"><path transform="matrix(0.017,0,0,-0.017,0,0)" d="M801 692L762 691C724 689 700 689 680 689C668 689 646 690 608 691L569 692L569 664L587 662C628 656 636 645 640 588L672 158C677 92 679 44 680 -8L730 -8C744 27 762 66 780 102L1004 546L1116 154C1131 102 1142 53 1155 -8L1206 -8L1213 18C1223 58 1231 85 1244 124L1415 631C1421 648 1436 660 1458 662L1478 664L1478 692L1446 691C1417 690 1395 689 1381 689C1368 689 1346 690 1316 691L1283 692L1278 664L1317 662C1346 661 1358 653 1358 639C1358 626 1355 608 1349 590L1202 128L1044 700L1026 700C1014 673 992 624 974 588L750 132L719 616C719 646 732 660 764 662L801 664Z" stroke="rgb(0,0,0)" stroke-opacity="1" stroke-width="8" fill="rgb(0,0,0)" fill-opacity="1"></path></g></g><g><g transform="matrix(1,0,0,1,31.595001220703125,18.040000915527344)"><path transform="matrix(0.017,0,0,-0.017,0,0)" d="M604 347L604 406L65 406L65 347ZM604 134L604 193L65 193L65 134Z" stroke="rgb(0,0,0)" stroke-opacity="1" stroke-width="8" fill="rgb(0,0,0)" fill-opacity="1"></path></g></g><g><g transform="matrix(1,0,0,1,48.050018310546875,18.040000915527344)"><path transform="matrix(0.017,0,0,-0.017,0,0)" d="M286 646L392 650C454 650 494 641 495 626L503 537L527 537C530 600 537 651 548 689C526 691 498 692 481 692L440 691L275 689L246 689C221 689 181 690 143 691L94 692L91 664L147 662C171 661 182 652 182 635C182 621 178 589 173 559L98 125C81 33 81 32 40 28L4 25L0 -3L34 -2C74 -1 106 0 127 0C145 0 174 -1 213 -2L265 -3L268 25L204 28C177 29 168 37 168 57C168 63 169 74 170 78L206 301L323 301C350 301 381 300 429 298L455 297L474 342L470 349C389 345 329 343 251 343L214 343L260 614C263 630 264 635 269 646ZM1038 722L1026 733C974 707 938 698 866 691L862 670L910 670C934 670 944 663 944 646C944 638 943 629 942 622L914 468C884 477 857 482 832 482C763 482 669 410 623 323C592 265 572 170 572 86C572 21 587 -11 616 -11C643 -11 680 6 714 33C768 77 801 116 868 217L845 126C834 82 829 50 829 24C829 3 838 -9 855 -9C872 -9 896 3 930 28L1011 88L1001 107L957 76C943 66 927 59 918 59C910 59 904 68 904 82C904 90 905 99 912 128ZM669 59C653 59 644 73 644 98C644 224 690 380 739 418C752 428 771 433 798 433C842 433 871 427 904 410L892 351C855 171 714 59 669 59Z" stroke="rgb(0,0,0)" stroke-opacity="1" stroke-width="8" fill="rgb(0,0,0)" fill-opacity="1"></path></g></g></g><g></g><g><g><g transform="matrix(1,0,0,1,2,58.360008239746094)"><path transform="matrix(0.017,0,0,-0.017,0,0)" d="M286 646L392 650C454 650 494 641 495 626L503 537L527 537C530 600 537 651 548 689C526 691 498 692 481 692L440 691L275 689L246 689C221 689 181 690 143 691L94 692L91 664L147 662C171 661 182 652 182 635C182 621 178 589 173 559L98 125C81 33 81 32 40 28L4 25L0 -3L34 -2C74 -1 106 0 127 0C145 0 174 -1 213 -2L265 -3L268 25L204 28C177 29 168 37 168 57C168 63 169 74 170 78L206 301L323 301C350 301 381 300 429 298L455 297L474 342L470 349C389 345 329 343 251 343L214 343L260 614C263 630 264 635 269 646Z" stroke="rgb(0,0,0)" stroke-opacity="1" stroke-width="8" fill="rgb(0,0,0)" fill-opacity="1"></path></g></g><g><g transform="matrix(1,0,0,1,14.82501220703125,58.360008239746094)"><path transform="matrix(0.017,0,0,-0.017,0,0)" d="M123 111C93 111 66 83 66 53C66 23 93 -5 122 -5C154 -5 182 22 182 53C182 83 154 111 123 111ZM123 456C93 456 66 428 66 398C66 368 93 340 122 340C154 340 182 367 182 397C182 428 154 456 123 456Z" stroke="rgb(0,0,0)" stroke-opacity="1" stroke-width="8" fill="rgb(0,0,0)" fill-opacity="1"></path></g></g><g><g transform="matrix(1,0,0,1,22.46002197265625,58.360008239746094)"><path transform="matrix(0.017,0,0,-0.017,0,0)" d="M345 437L329 437L350 549C366 635 394 673 440 673C470 673 497 658 512 634L522 638C527 654 537 685 545 705L550 720C534 727 503 733 480 733C469 733 453 730 445 726C421 715 339 654 316 630C294 608 282 578 271 521L256 442C215 422 195 414 170 405L165 383L246 383L237 327C207 132 170 -54 148 -123C130 -182 100 -213 64 -213C41 -213 30 -206 12 -184L-2 -188C-6 -211 -20 -259 -25 -268C-16 -273 -1 -276 10 -276C51 -276 105 -245 144 -198C215 -114 235 -18 319 383L423 383C427 402 434 425 440 439L436 446C407 439 408 437 345 437ZM1042 473L1035 482L967 465L957 414C942 336 917 268 886 221C827 130 749 59 709 59C701 59 696 68 696 85C696 99 698 112 703 137L760 408C763 424 765 438 765 451C765 470 756 482 742 482C722 482 684 461 610 408L582 388L589 368L621 389C649 407 660 412 669 412C678 412 686 403 686 392C686 388 685 378 684 374L621 77C619 68 617 44 617 30C617 7 632 -11 652 -11C715 -11 836 101 920 239L883 97C876 73 872 46 872 31C872 6 883 -9 902 -9C928 -9 964 12 1062 85L1052 103L1026 86C1002 70 976 59 965 59C957 59 952 66 952 76C952 112 1027 416 1042 473ZM1433 111L1409 94C1356 56 1308 36 1272 36C1225 36 1196 73 1196 133C1196 158 1199 185 1204 214C1221 218 1330 248 1355 259C1440 296 1479 342 1479 404C1479 451 1445 482 1395 482C1327 496 1217 423 1180 349C1150 299 1120 180 1120 113C1120 35 1164 -11 1236 -11C1293 -11 1349 17 1441 92ZM1218 274C1235 343 1255 386 1284 412C1302 428 1333 440 1357 440C1386 440 1405 420 1405 388C1405 344 1370 297 1318 272C1290 258 1254 247 1209 237ZM1861 365C1864 403 1869 435 1877 476C1866 481 1862 482 1857 482C1826 482 1795 458 1759 407C1720 351 1681 291 1665 256L1697 408C1701 425 1703 438 1703 450C1703 470 1695 482 1680 482C1659 482 1621 461 1547 408L1519 388L1526 368L1558 389C1586 407 1597 412 1606 412C1616 412 1623 403 1623 390C1623 332 1580 126 1540 -2L1550 -9C1565 -4 1581 -1 1604 4L1617 6L1643 126C1661 209 1684 262 1728 319C1762 363 1789 384 1811 384C1826 384 1836 379 1847 365ZM2203 -11C2215 -11 2224 -9 2253 -1C2264 61 2272 95 2283 142L2261 142L2239 82C2233 64 2221 57 2200 57C2188 57 2172 59 2151 64L2133 68C2100 75 2066 80 2047 80C2015 80 1988 74 1952 59L2291 441L2297 473L2288 482L2265 459C2255 449 2245 445 2231 445C2197 445 2145 453 2097 466L2079 471C2051 478 2031 482 2017 482C2000 482 1980 479 1956 472L1924 350L1945 350L1975 408C1992 412 2001 413 2014 413C2055 413 2087 398 2140 398C2176 398 2200 404 2233 421L1880 21L1889 -6C1918 17 1945 26 1980 26C2043 26 2134 -11 2203 -11ZM2595 204L2566 77C2562 60 2560 42 2560 26C2560 4 2569 -9 2584 -9C2607 -9 2648 17 2730 85L2723 106C2699 86 2670 59 2648 59C2639 59 2633 68 2633 82C2633 87 2633 90 2634 93L2726 472L2716 481L2683 463C2642 478 2625 482 2598 482C2570 482 2550 477 2523 464C2461 433 2428 403 2403 354C2359 265 2328 145 2328 67C2328 23 2343 -11 2362 -11C2399 -11 2479 41 2595 204ZM2643 414C2621 305 2602 253 2568 201C2511 117 2450 59 2418 59C2406 59 2400 72 2400 99C2400 163 2428 280 2463 360C2487 415 2510 433 2558 433C2581 433 2599 429 2643 414Z" stroke="rgb(0,0,0)" stroke-opacity="1" stroke-width="8" fill="rgb(0,0,0)" fill-opacity="1"></path></g></g></g><g><g><g transform="matrix(1,0,0,1,2,78.52001190185547)"><path transform="matrix(0.017,0,0,-0.017,0,0)" d="M483 722L471 733C419 707 383 698 311 691L307 670L355 670C379 670 389 663 389 646C389 638 388 629 387 622L359 468C329 477 302 482 277 482C208 482 114 410 68 323C37 265 17 170 17 86C17 21 32 -11 61 -11C88 -11 125 6 159 33C213 77 246 116 313 217L290 126C279 82 274 50 274 24C274 3 283 -9 300 -9C317 -9 341 3 375 28L456 88L446 107L402 76C388 66 372 59 363 59C355 59 349 68 349 82C349 90 350 99 357 128ZM114 59C98 59 89 73 89 98C89 224 135 380 184 418C197 428 216 433 243 433C287 433 316 427 349 410L337 351C300 171 159 59 114 59Z" stroke="rgb(0,0,0)" stroke-opacity="1" stroke-width="8" fill="rgb(0,0,0)" fill-opacity="1"></path></g></g><g><g transform="matrix(1,0,0,1,13.8800048828125,78.52001190185547)"><path transform="matrix(0.017,0,0,-0.017,0,0)" d="M123 111C93 111 66 83 66 53C66 23 93 -5 122 -5C154 -5 182 22 182 53C182 83 154 111 123 111ZM123 456C93 456 66 428 66 398C66 368 93 340 122 340C154 340 182 367 182 397C182 428 154 456 123 456Z" stroke="rgb(0,0,0)" stroke-opacity="1" stroke-width="8" fill="rgb(0,0,0)" fill-opacity="1"></path></g></g><g><g transform="matrix(1,0,0,1,21.5150146484375,78.52001190185547)"><path transform="matrix(0.017,0,0,-0.017,0,0)" d="M483 722L471 733C419 707 383 698 311 691L307 670L355 670C379 670 389 663 389 646C389 638 388 629 387 622L359 468C329 477 302 482 277 482C208 482 114 410 68 323C37 265 17 170 17 86C17 21 32 -11 61 -11C88 -11 125 6 159 33C213 77 246 116 313 217L290 126C279 82 274 50 274 24C274 3 283 -9 300 -9C317 -9 341 3 375 28L456 88L446 107L402 76C388 66 372 59 363 59C355 59 349 68 349 82C349 90 350 99 357 128ZM114 59C98 59 89 73 89 98C89 224 135 380 184 418C197 428 216 433 243 433C287 433 316 427 349 410L337 351C300 171 159 59 114 59ZM533 388L540 368L572 389C609 412 612 414 619 414C629 414 637 404 637 391C637 384 633 361 629 347L563 107C555 76 550 49 550 30C550 6 561 -9 580 -9C606 -9 642 12 740 85L730 103L704 86C675 67 652 56 643 56C636 56 630 66 630 76C630 86 632 95 637 116L714 420C718 437 720 448 720 456C720 473 711 482 695 482C673 482 636 461 561 408ZM727 712C698 712 669 679 669 645C669 620 684 604 708 604C739 604 763 633 763 671C763 695 748 712 727 712ZM807 148C802 97 796 62 785 16C823 -2 857 -11 892 -11C941 -11 987 7 1038 47C1089 87 1110 124 1110 174C1110 228 1078 257 1004 271L961 279C901 290 882 307 882 348C882 401 927 442 984 442C1025 442 1063 424 1079 397L1079 342L1102 342C1106 377 1110 404 1121 455C1082 474 1054 482 1021 482C969 482 908 452 860 404C834 377 823 352 823 316C823 260 854 228 920 215L983 203C1027 195 1043 177 1043 138C1043 73 997 29 926 29C891 29 860 40 832 64L832 148ZM1289 390L1233 107C1232 99 1220 61 1220 31C1220 6 1231 -9 1250 -9C1285 -9 1320 11 1398 74L1429 99L1419 117L1374 86C1345 66 1325 56 1314 56C1305 56 1300 64 1300 76C1300 102 1314 183 1343 328L1356 390L1463 390L1474 440C1436 436 1402 434 1364 434C1380 528 1391 577 1409 631L1398 646C1378 634 1351 622 1320 610L1295 440C1251 419 1225 408 1207 403L1205 390ZM1767 204L1738 77C1734 60 1732 42 1732 26C1732 4 1741 -9 1756 -9C1779 -9 1820 17 1902 85L1895 106C1871 86 1842 59 1820 59C1811 59 1805 68 1805 82C1805 87 1805 90 1806 93L1898 472L1888 481L1855 463C1814 478 1797 482 1770 482C1742 482 1722 477 1695 464C1633 433 1600 403 1575 354C1531 265 1500 145 1500 67C1500 23 1515 -11 1534 -11C1571 -11 1651 41 1767 204ZM1815 414C1793 305 1774 253 1740 201C1683 117 1622 59 1590 59C1578 59 1572 72 1572 99C1572 163 1600 280 1635 360C1659 415 1682 433 1730 433C1753 433 1771 429 1815 414ZM1963 388L1970 368L2002 389C2039 412 2042 414 2049 414C2060 414 2067 404 2067 389C2067 338 2026 145 1985 2L1992 -9C2017 -2 2040 4 2062 8C2081 134 2102 199 2148 268C2202 352 2277 414 2322 414C2333 414 2339 405 2339 390C2339 372 2336 351 2328 319L2276 107C2267 70 2263 47 2263 31C2263 6 2274 -9 2293 -9C2319 -9 2355 12 2453 85L2443 103L2417 86C2388 67 2366 56 2356 56C2349 56 2343 65 2343 76C2343 81 2344 92 2345 96L2411 372C2418 401 2422 429 2422 446C2422 469 2411 482 2391 482C2349 482 2280 444 2221 389C2183 354 2155 320 2103 247L2141 408C2145 426 2147 438 2147 449C2147 470 2139 482 2124 482C2103 482 2064 460 1991 408ZM2836 330L2859 330C2867 395 2874 432 2883 458C2859 473 2824 482 2787 482C2742 483 2669 463 2612 400C2558 352 2519 241 2519 136C2519 40 2561 -11 2641 -11C2695 -11 2743 9 2798 54L2848 95L2840 115L2825 105C2753 57 2715 40 2680 40C2624 40 2595 80 2595 159C2595 267 2630 371 2679 409C2700 425 2724 433 2755 433C2800 433 2836 414 2836 390ZM2934 388L2941 368L2973 389C3010 412 3013 414 3020 414C3030 414 3038 404 3038 391C3038 384 3034 361 3030 347L2964 107C2956 76 2951 49 2951 30C2951 6 2962 -9 2981 -9C3007 -9 3043 12 3141 85L3131 103L3105 86C3076 67 3053 56 3044 56C3037 56 3031 66 3031 76C3031 86 3033 95 3038 116L3115 420C3119 437 3121 448 3121 456C3121 473 3112 482 3096 482C3074 482 3037 461 2962 408ZM3128 712C3099 712 3070 679 3070 645C3070 620 3085 604 3109 604C3140 604 3164 633 3164 671C3164 695 3149 712 3128 712ZM3448 204L3419 77C3415 60 3413 42 3413 26C3413 4 3422 -9 3437 -9C3460 -9 3501 17 3583 85L3576 106C3552 86 3523 59 3501 59C3492 59 3486 68 3486 82C3486 87 3486 90 3487 93L3579 472L3569 481L3536 463C3495 478 3478 482 3451 482C3423 482 3403 477 3376 464C3314 433 3281 403 3256 354C3212 265 3181 145 3181 67C3181 23 3196 -11 3215 -11C3252 -11 3332 41 3448 204ZM3496 414C3474 305 3455 253 3421 201C3364 117 3303 59 3271 59C3259 59 3253 72 3253 99C3253 163 3281 280 3316 360C3340 415 3363 433 3411 433C3434 433 3452 429 3496 414Z" stroke="rgb(0,0,0)" stroke-opacity="1" stroke-width="8" fill="rgb(0,0,0)" fill-opacity="1"></path></g></g></g></g></svg>