<svg xmlns="http://www.w3.org/2000/svg" xmlns:xlink="http://www.w3.org/1999/xlink" width="135.37001037597656" height="94.7800064086914" style="width:135.37001037597656px;height:94.7800064086914px;font-family:Asana-Math, Asana;background:#FFF;"><g><g><g><g transform="matrix(1,0,0,1,2,24.039993286132812)"><path transform="matrix(0.017,0,0,-0.017,0,0)" d="" stroke="rgb(0,0,0)" stroke-opacity="1" stroke-width="8" fill="rgb(0,0,0)" fill-opacity="1"></path></g></g><g><g><g><g><g transform="matrix(1,0,0,1,6.2449951171875,25)"><path transform="matrix(0.017,0,0,-0.017,0,0)" d="M483 722L471 733C419 707 383 698 311 691L307 670L355 670C379 670 389 663 389 646C389 638 388 629 387 622L359 468C329 477 302 482 277 482C208 482 114 410 68 323C37 265 17 170 17 86C17 21 32 -11 61 -11C88 -11 125 6 159 33C213 77 246 116 313 217L290 126C279 82 274 50 274 24C274 3 283 -9 300 -9C317 -9 341 3 375 28L456 88L446 107L402 76C388 66 372 59 363 59C355 59 349 68 349 82C349 90 350 99 357 128ZM114 59C98 59 89 73 89 98C89 224 135 380 184 418C197 428 216 433 243 433C287 433 316 427 349 410L337 351C300 171 159 59 114 59Z" stroke="rgb(0,0,0)" stroke-opacity="1" stroke-width="8" fill="rgb(0,0,0)" fill-opacity="1"></path></g></g></g></g><svg x="6.2449951171875" overflow="visible" y="2" height="9.99000072479248" width="9.329999923706055"><path d=" M 9.33 4.85 l -3.15 -3.32 l -0.49 0.52 l 1.93 2.33 h -0.15 v 0.90 h 0.15 l -1.93 2.33 l 0.49 0.52 z  M 1.68 5.23 h 7.19 v -0.90 h -7.19 z" style="fill:rgb(0,0,0);fill-opacity:1;stroke-width:1px;stroke:none;stroke-opacity:1;"></path></svg></g><g><g transform="matrix(1,0,0,1,19.83502197265625,24.039993286132812)"><path transform="matrix(0.017,0,0,-0.017,0,0)" d="M604 347L604 406L65 406L65 347ZM604 134L604 193L65 193L65 134Z" stroke="rgb(0,0,0)" stroke-opacity="1" stroke-width="8" fill="rgb(0,0,0)" fill-opacity="1"></path></g></g><g><g transform="matrix(1,0,0,1,36.28997802734375,24.039993286132812)"><path transform="matrix(0.017,0,0,-0.017,0,0)" d="M9 1C24 -7 40 -11 52 -11C85 -11 124 18 155 65L231 182L242 113C255 28 278 -11 314 -11C336 -11 368 6 400 35L449 79L440 98C404 68 379 53 363 53C348 53 335 63 325 83C316 102 305 139 300 168L282 269L317 318C364 383 391 406 422 406C438 406 450 398 455 383L469 387L484 472C472 479 463 482 454 482C414 482 374 446 312 354L275 299L269 347C257 446 230 482 171 482C145 482 123 474 114 461L56 378L73 368C103 402 123 416 142 416C175 416 197 375 214 277L225 215L185 153C142 86 108 54 80 54C65 54 54 58 52 63L41 91L21 88C21 53 13 27 9 1Z" stroke="rgb(0,0,0)" stroke-opacity="1" stroke-width="8" fill="rgb(0,0,0)" fill-opacity="1"></path></g></g><g><g><g><g><g transform="matrix(1,0,0,1,45.28997802734375,27.99999084472656)"><path transform="matrix(0.0119,0,0,-0.0119,0,0)" d="M345 437L329 437L350 549C366 635 394 673 440 673C470 673 497 658 512 634L522 638C527 654 537 685 545 705L550 720C534 727 503 733 480 733C469 733 453 730 445 726C421 715 339 654 316 630C294 608 282 578 271 521L256 442C215 422 195 414 170 405L165 383L246 383L237 327C207 132 170 -54 148 -123C130 -182 100 -213 64 -213C41 -213 30 -206 12 -184L-2 -188C-6 -211 -20 -259 -25 -268C-16 -273 -1 -276 10 -276C51 -276 105 -245 144 -198C215 -114 235 -18 319 383L423 383C427 402 434 425 440 439L436 446C407 439 408 437 345 437Z" stroke="rgb(0,0,0)" stroke-opacity="1" stroke-width="8" fill="rgb(0,0,0)" fill-opacity="1"></path></g></g></g></g></g><g><g transform="matrix(1,0,0,1,56.2550048828125,24.039993286132812)"><path transform="matrix(0.017,0,0,-0.017,0,0)" d="M555 243L555 299L51 299L51 243Z" stroke="rgb(0,0,0)" stroke-opacity="1" stroke-width="8" fill="rgb(0,0,0)" fill-opacity="1"></path></g></g><g><g transform="matrix(1,0,0,1,69.93499755859375,24.039993286132812)"><path transform="matrix(0.017,0,0,-0.017,0,0)" d="M9 1C24 -7 40 -11 52 -11C85 -11 124 18 155 65L231 182L242 113C255 28 278 -11 314 -11C336 -11 368 6 400 35L449 79L440 98C404 68 379 53 363 53C348 53 335 63 325 83C316 102 305 139 300 168L282 269L317 318C364 383 391 406 422 406C438 406 450 398 455 383L469 387L484 472C472 479 463 482 454 482C414 482 374 446 312 354L275 299L269 347C257 446 230 482 171 482C145 482 123 474 114 461L56 378L73 368C103 402 123 416 142 416C175 416 197 375 214 277L225 215L185 153C142 86 108 54 80 54C65 54 54 58 52 63L41 91L21 88C21 53 13 27 9 1Z" stroke="rgb(0,0,0)" stroke-opacity="1" stroke-width="8" fill="rgb(0,0,0)" fill-opacity="1"></path></g></g><g><g><g><g><g transform="matrix(1,0,0,1,78.93499755859375,27.99999084472656)"><path transform="matrix(0.0119,0,0,-0.0119,0,0)" d="M34 388L41 368L73 389C110 412 113 414 120 414C130 414 138 404 138 391C138 384 134 361 130 347L64 107C56 76 51 49 51 30C51 6 62 -9 81 -9C107 -9 143 12 241 85L231 103L205 86C176 67 153 56 144 56C137 56 131 66 131 76C131 86 133 95 138 116L215 420C219 437 221 448 221 456C221 473 212 482 196 482C174 482 137 461 62 408ZM228 712C199 712 170 679 170 645C170 620 185 604 209 604C240 604 264 633 264 671C264 695 249 712 228 712Z" stroke="rgb(0,0,0)" stroke-opacity="1" stroke-width="8" fill="rgb(0,0,0)" fill-opacity="1"></path></g></g></g></g></g><g><g transform="matrix(1,0,0,1,88.35504150390625,24.039993286132812)"><path transform="matrix(0.017,0,0,-0.017,0,0)" d="M604 347L604 406L65 406L65 347ZM604 134L604 193L65 193L65 134Z" stroke="rgb(0,0,0)" stroke-opacity="1" stroke-width="8" fill="rgb(0,0,0)" fill-opacity="1"></path></g></g><g><g transform="matrix(1,0,0,1,104.80999755859375,24.039993286132812)"><path transform="matrix(0.017,0,0,-0.017,0,0)" d="M27 6L34 -4C140 0 246 0 353 0C454 0 555 -1 656 -4L662 6L362 697L337 697C294 590 92 128 27 6ZM537 37L105 37C171 215 242 389 318 564L325 564C400 391 472 215 537 37ZM697 1C712 -7 728 -11 740 -11C773 -11 812 18 843 65L919 182L930 113C943 28 966 -11 1002 -11C1024 -11 1056 6 1088 35L1137 79L1128 98C1092 68 1067 53 1051 53C1036 53 1023 63 1013 83C1004 102 993 139 988 168L970 269L1005 318C1052 383 1079 406 1110 406C1126 406 1138 398 1143 383L1157 387L1172 472C1160 479 1151 482 1142 482C1102 482 1062 446 1000 354L963 299L957 347C945 446 918 482 859 482C833 482 811 474 802 461L744 378L761 368C791 402 811 416 830 416C863 416 885 375 902 277L913 215L873 153C830 86 796 54 768 54C753 54 742 58 740 63L729 91L709 88C709 53 701 27 697 1Z" stroke="rgb(0,0,0)" stroke-opacity="1" stroke-width="8" fill="rgb(0,0,0)" fill-opacity="1"></path></g></g></g><g></g><g><g><g transform="matrix(1,0,0,1,2,65.739990234375)"><path transform="matrix(0.017,0,0,-0.017,0,0)" d="M9 1C24 -7 40 -11 52 -11C85 -11 124 18 155 65L231 182L242 113C255 28 278 -11 314 -11C336 -11 368 6 400 35L449 79L440 98C404 68 379 53 363 53C348 53 335 63 325 83C316 102 305 139 300 168L282 269L317 318C364 383 391 406 422 406C438 406 450 398 455 383L469 387L484 472C472 479 463 482 454 482C414 482 374 446 312 354L275 299L269 347C257 446 230 482 171 482C145 482 123 474 114 461L56 378L73 368C103 402 123 416 142 416C175 416 197 375 214 277L225 215L185 153C142 86 108 54 80 54C65 54 54 58 52 63L41 91L21 88C21 53 13 27 9 1Z" stroke="rgb(0,0,0)" stroke-opacity="1" stroke-width="8" fill="rgb(0,0,0)" fill-opacity="1"></path></g></g><g><g><g><g><g transform="matrix(1,0,0,1,11,69.70000305175782)"><path transform="matrix(0.0119,0,0,-0.0119,0,0)" d="M34 388L41 368L73 389C110 412 113 414 120 414C130 414 138 404 138 391C138 384 134 361 130 347L64 107C56 76 51 49 51 30C51 6 62 -9 81 -9C107 -9 143 12 241 85L231 103L205 86C176 67 153 56 144 56C137 56 131 66 131 76C131 86 133 95 138 116L215 420C219 437 221 448 221 456C221 473 212 482 196 482C174 482 137 461 62 408ZM228 712C199 712 170 679 170 645C170 620 185 604 209 604C240 604 264 633 264 671C264 695 249 712 228 712Z" stroke="rgb(0,0,0)" stroke-opacity="1" stroke-width="8" fill="rgb(0,0,0)" fill-opacity="1"></path></g></g></g></g></g><g><g transform="matrix(1,0,0,1,18.71002197265625,65.739990234375)"><path transform="matrix(0.017,0,0,-0.017,0,0)" d="M123 111C93 111 66 83 66 53C66 23 93 -5 122 -5C154 -5 182 22 182 53C182 83 154 111 123 111ZM123 456C93 456 66 428 66 398C66 368 93 340 122 340C154 340 182 367 182 397C182 428 154 456 123 456Z" stroke="rgb(0,0,0)" stroke-opacity="1" stroke-width="8" fill="rgb(0,0,0)" fill-opacity="1"></path></g></g><g><g transform="matrix(1,0,0,1,26.344970703125,65.739990234375)"><path transform="matrix(0.017,0,0,-0.017,0,0)" d="M425 -11C481 -11 596 62 639 125C680 186 714 296 714 371C714 438 691 482 655 482C613 482 560 456 508 409C467 374 447 348 411 289L435 408C438 425 440 440 440 452C440 471 432 482 418 482C397 482 359 461 285 408L257 388L264 368L296 389C324 407 335 412 344 412C354 412 361 403 361 389C361 381 359 361 357 351L299 8C289 -52 270 -143 250 -233L242 -270L249 -276C270 -269 290 -264 322 -259L364 3C385 -4 407 -11 425 -11ZM392 165C414 293 521 424 604 424C630 424 642 402 642 356C642 275 602 156 549 80C529 51 497 36 456 36C425 36 400 43 374 59ZM765 152C765 46 810 -11 893 -11C948 -11 1008 15 1053 57C1115 116 1159 230 1159 331C1159 425 1109 482 1026 482C922 482 765 382 765 152ZM989 444C1050 444 1083 399 1083 315C1083 219 1052 113 1008 60C990 39 964 27 933 27C875 27 841 72 841 151C841 264 880 387 929 427C942 438 965 444 989 444ZM1222 148C1217 97 1211 62 1200 16C1238 -2 1272 -11 1307 -11C1356 -11 1402 7 1453 47C1504 87 1525 124 1525 174C1525 228 1493 257 1419 271L1376 279C1316 290 1297 307 1297 348C1297 401 1342 442 1399 442C1440 442 1478 424 1494 397L1494 342L1517 342C1521 377 1525 404 1536 455C1497 474 1469 482 1436 482C1384 482 1323 452 1275 404C1249 377 1238 352 1238 316C1238 260 1269 228 1335 215L1398 203C1442 195 1458 177 1458 138C1458 73 1412 29 1341 29C1306 29 1275 40 1247 64L1247 148ZM1613 388L1620 368L1652 389C1689 412 1692 414 1699 414C1709 414 1717 404 1717 391C1717 384 1713 361 1709 347L1643 107C1635 76 1630 49 1630 30C1630 6 1641 -9 1660 -9C1686 -9 1722 12 1820 85L1810 103L1784 86C1755 67 1732 56 1723 56C1716 56 1710 66 1710 76C1710 86 1712 95 1717 116L1794 420C1798 437 1800 448 1800 456C1800 473 1791 482 1775 482C1753 482 1716 461 1641 408ZM1807 712C1778 712 1749 679 1749 645C1749 620 1764 604 1788 604C1819 604 1843 633 1843 671C1843 695 1828 712 1807 712ZM2198 330L2221 330C2229 395 2236 432 2245 458C2221 473 2186 482 2149 482C2104 483 2031 463 1974 400C1920 352 1881 241 1881 136C1881 40 1923 -11 2003 -11C2057 -11 2105 9 2160 54L2210 95L2202 115L2187 105C2115 57 2077 40 2042 40C1986 40 1957 80 1957 159C1957 267 1992 371 2041 409C2062 425 2086 433 2117 433C2162 433 2198 414 2198 390ZM2296 388L2303 368L2335 389C2372 412 2375 414 2382 414C2392 414 2400 404 2400 391C2400 384 2396 361 2392 347L2326 107C2318 76 2313 49 2313 30C2313 6 2324 -9 2343 -9C2369 -9 2405 12 2503 85L2493 103L2467 86C2438 67 2415 56 2406 56C2399 56 2393 66 2393 76C2393 86 2395 95 2400 116L2477 420C2481 437 2483 448 2483 456C2483 473 2474 482 2458 482C2436 482 2399 461 2324 408ZM2490 712C2461 712 2432 679 2432 645C2432 620 2447 604 2471 604C2502 604 2526 633 2526 671C2526 695 2511 712 2490 712ZM2556 152C2556 46 2601 -11 2684 -11C2739 -11 2799 15 2844 57C2906 116 2950 230 2950 331C2950 425 2900 482 2817 482C2713 482 2556 382 2556 152ZM2780 444C2841 444 2874 399 2874 315C2874 219 2843 113 2799 60C2781 39 2755 27 2724 27C2666 27 2632 72 2632 151C2632 264 2671 387 2720 427C2733 438 2756 444 2780 444ZM3006 388L3013 368L3045 389C3082 412 3085 414 3092 414C3103 414 3110 404 3110 389C3110 338 3069 145 3028 2L3035 -9C3060 -2 3083 4 3105 8C3124 134 3145 199 3191 268C3245 352 3320 414 3365 414C3376 414 3382 405 3382 390C3382 372 3379 351 3371 319L3319 107C3310 70 3306 47 3306 31C3306 6 3317 -9 3336 -9C3362 -9 3398 12 3496 85L3486 103L3460 86C3431 67 3409 56 3399 56C3392 56 3386 65 3386 76C3386 81 3387 92 3388 96L3454 372C3461 401 3465 429 3465 446C3465 469 3454 482 3434 482C3392 482 3323 444 3264 389C3226 354 3198 320 3146 247L3184 408C3188 426 3190 438 3190 449C3190 470 3182 482 3167 482C3146 482 3107 460 3034 408ZM3820 388L3827 368L3859 389C3896 412 3899 414 3906 414C3916 414 3924 404 3924 391C3924 384 3920 361 3916 347L3850 107C3842 76 3837 49 3837 30C3837 6 3848 -9 3867 -9C3893 -9 3929 12 4027 85L4017 103L3991 86C3962 67 3939 56 3930 56C3923 56 3917 66 3917 76C3917 86 3919 95 3924 116L4001 420C4005 437 4007 448 4007 456C4007 473 3998 482 3982 482C3960 482 3923 461 3848 408ZM4014 712C3985 712 3956 679 3956 645C3956 620 3971 604 3995 604C4026 604 4050 633 4050 671C4050 695 4035 712 4014 712ZM4087 388L4094 368L4126 389C4163 412 4166 414 4173 414C4184 414 4191 404 4191 389C4191 338 4150 145 4109 2L4116 -9C4141 -2 4164 4 4186 8C4205 134 4226 199 4272 268C4326 352 4401 414 4446 414C4457 414 4463 405 4463 390C4463 372 4460 351 4452 319L4400 107C4391 70 4387 47 4387 31C4387 6 4398 -9 4417 -9C4443 -9 4479 12 4577 85L4567 103L4541 86C4512 67 4490 56 4480 56C4473 56 4467 65 4467 76C4467 81 4468 92 4469 96L4535 372C4542 401 4546 429 4546 446C4546 469 4535 482 4515 482C4473 482 4404 444 4345 389C4307 354 4279 320 4227 247L4265 408C4269 426 4271 438 4271 449C4271 470 4263 482 4248 482C4227 482 4188 460 4115 408ZM4652 388L4659 368L4691 389C4728 412 4731 414 4738 414C4748 414 4756 404 4756 391C4756 384 4752 361 4748 347L4682 107C4674 76 4669 49 4669 30C4669 6 4680 -9 4699 -9C4725 -9 4761 12 4859 85L4849 103L4823 86C4794 67 4771 56 4762 56C4755 56 4749 66 4749 76C4749 86 4751 95 4756 116L4833 420C4837 437 4839 448 4839 456C4839 473 4830 482 4814 482C4792 482 4755 461 4680 408ZM4846 712C4817 712 4788 679 4788 645C4788 620 4803 604 4827 604C4858 604 4882 633 4882 671C4882 695 4867 712 4846 712ZM5237 330L5260 330C5268 395 5275 432 5284 458C5260 473 5225 482 5188 482C5143 483 5070 463 5013 400C4959 352 4920 241 4920 136C4920 40 4962 -11 5042 -11C5096 -11 5144 9 5199 54L5249 95L5241 115L5226 105C5154 57 5116 40 5081 40C5025 40 4996 80 4996 159C4996 267 5031 371 5080 409C5101 425 5125 433 5156 433C5201 433 5237 414 5237 390ZM5335 388L5342 368L5374 389C5411 412 5414 414 5421 414C5431 414 5439 404 5439 391C5439 384 5435 361 5431 347L5365 107C5357 76 5352 49 5352 30C5352 6 5363 -9 5382 -9C5408 -9 5444 12 5542 85L5532 103L5506 86C5477 67 5454 56 5445 56C5438 56 5432 66 5432 76C5432 86 5434 95 5439 116L5516 420C5520 437 5522 448 5522 456C5522 473 5513 482 5497 482C5475 482 5438 461 5363 408ZM5529 712C5500 712 5471 679 5471 645C5471 620 5486 604 5510 604C5541 604 5565 633 5565 671C5565 695 5550 712 5529 712ZM5849 204L5820 77C5816 60 5814 42 5814 26C5814 4 5823 -9 5838 -9C5861 -9 5902 17 5984 85L5977 106C5953 86 5924 59 5902 59C5893 59 5887 68 5887 82C5887 87 5887 90 5888 93L5980 472L5970 481L5937 463C5896 478 5879 482 5852 482C5824 482 5804 477 5777 464C5715 433 5682 403 5657 354C5613 265 5582 145 5582 67C5582 23 5597 -11 5616 -11C5653 -11 5733 41 5849 204ZM5897 414C5875 305 5856 253 5822 201C5765 117 5704 59 5672 59C5660 59 5654 72 5654 99C5654 163 5682 280 5717 360C5741 415 5764 433 5812 433C5835 433 5853 429 5897 414ZM6272 722L6260 733C6208 707 6172 698 6100 691L6096 670L6144 670C6168 670 6178 663 6178 648C6178 645 6178 640 6175 622C6164 567 6091 182 6076 132C6063 82 6057 52 6057 31C6057 6 6068 -9 6087 -9C6113 -9 6149 12 6247 85L6237 103L6211 86C6182 67 6160 56 6150 56C6143 56 6137 66 6137 76C6137 82 6138 89 6141 104Z" stroke="rgb(0,0,0)" stroke-opacity="1" stroke-width="8" fill="rgb(0,0,0)" fill-opacity="1"></path></g></g></g><g><g><g transform="matrix(1,0,0,1,2,87.27999877929688)"><path transform="matrix(0.017,0,0,-0.017,0,0)" d="M9 1C24 -7 40 -11 52 -11C85 -11 124 18 155 65L231 182L242 113C255 28 278 -11 314 -11C336 -11 368 6 400 35L449 79L440 98C404 68 379 53 363 53C348 53 335 63 325 83C316 102 305 139 300 168L282 269L317 318C364 383 391 406 422 406C438 406 450 398 455 383L469 387L484 472C472 479 463 482 454 482C414 482 374 446 312 354L275 299L269 347C257 446 230 482 171 482C145 482 123 474 114 461L56 378L73 368C103 402 123 416 142 416C175 416 197 375 214 277L225 215L185 153C142 86 108 54 80 54C65 54 54 58 52 63L41 91L21 88C21 53 13 27 9 1Z" stroke="rgb(0,0,0)" stroke-opacity="1" stroke-width="8" fill="rgb(0,0,0)" fill-opacity="1"></path></g></g><g><g><g><g><g transform="matrix(1,0,0,1,11,91.23999633789063)"><path transform="matrix(0.0119,0,0,-0.0119,0,0)" d="M345 437L329 437L350 549C366 635 394 673 440 673C470 673 497 658 512 634L522 638C527 654 537 685 545 705L550 720C534 727 503 733 480 733C469 733 453 730 445 726C421 715 339 654 316 630C294 608 282 578 271 521L256 442C215 422 195 414 170 405L165 383L246 383L237 327C207 132 170 -54 148 -123C130 -182 100 -213 64 -213C41 -213 30 -206 12 -184L-2 -188C-6 -211 -20 -259 -25 -268C-16 -273 -1 -276 10 -276C51 -276 105 -245 144 -198C215 -114 235 -18 319 383L423 383C427 402 434 425 440 439L436 446C407 439 408 437 345 437Z" stroke="rgb(0,0,0)" stroke-opacity="1" stroke-width="8" fill="rgb(0,0,0)" fill-opacity="1"></path></g></g></g></g></g><g><g transform="matrix(1,0,0,1,21.96502685546875,87.27999877929688)"><path transform="matrix(0.017,0,0,-0.017,0,0)" d="M123 111C93 111 66 83 66 53C66 23 93 -5 122 -5C154 -5 182 22 182 53C182 83 154 111 123 111ZM123 456C93 456 66 428 66 398C66 368 93 340 122 340C154 340 182 367 182 397C182 428 154 456 123 456Z" stroke="rgb(0,0,0)" stroke-opacity="1" stroke-width="8" fill="rgb(0,0,0)" fill-opacity="1"></path></g></g><g><g transform="matrix(1,0,0,1,29.5999755859375,87.27999877929688)"><path transform="matrix(0.017,0,0,-0.017,0,0)" d="M425 -11C481 -11 596 62 639 125C680 186 714 296 714 371C714 438 691 482 655 482C613 482 560 456 508 409C467 374 447 348 411 289L435 408C438 425 440 440 440 452C440 471 432 482 418 482C397 482 359 461 285 408L257 388L264 368L296 389C324 407 335 412 344 412C354 412 361 403 361 389C361 381 359 361 357 351L299 8C289 -52 270 -143 250 -233L242 -270L249 -276C270 -269 290 -264 322 -259L364 3C385 -4 407 -11 425 -11ZM392 165C414 293 521 424 604 424C630 424 642 402 642 356C642 275 602 156 549 80C529 51 497 36 456 36C425 36 400 43 374 59ZM765 152C765 46 810 -11 893 -11C948 -11 1008 15 1053 57C1115 116 1159 230 1159 331C1159 425 1109 482 1026 482C922 482 765 382 765 152ZM989 444C1050 444 1083 399 1083 315C1083 219 1052 113 1008 60C990 39 964 27 933 27C875 27 841 72 841 151C841 264 880 387 929 427C942 438 965 444 989 444ZM1222 148C1217 97 1211 62 1200 16C1238 -2 1272 -11 1307 -11C1356 -11 1402 7 1453 47C1504 87 1525 124 1525 174C1525 228 1493 257 1419 271L1376 279C1316 290 1297 307 1297 348C1297 401 1342 442 1399 442C1440 442 1478 424 1494 397L1494 342L1517 342C1521 377 1525 404 1536 455C1497 474 1469 482 1436 482C1384 482 1323 452 1275 404C1249 377 1238 352 1238 316C1238 260 1269 228 1335 215L1398 203C1442 195 1458 177 1458 138C1458 73 1412 29 1341 29C1306 29 1275 40 1247 64L1247 148ZM1613 388L1620 368L1652 389C1689 412 1692 414 1699 414C1709 414 1717 404 1717 391C1717 384 1713 361 1709 347L1643 107C1635 76 1630 49 1630 30C1630 6 1641 -9 1660 -9C1686 -9 1722 12 1820 85L1810 103L1784 86C1755 67 1732 56 1723 56C1716 56 1710 66 1710 76C1710 86 1712 95 1717 116L1794 420C1798 437 1800 448 1800 456C1800 473 1791 482 1775 482C1753 482 1716 461 1641 408ZM1807 712C1778 712 1749 679 1749 645C1749 620 1764 604 1788 604C1819 604 1843 633 1843 671C1843 695 1828 712 1807 712ZM2198 330L2221 330C2229 395 2236 432 2245 458C2221 473 2186 482 2149 482C2104 483 2031 463 1974 400C1920 352 1881 241 1881 136C1881 40 1923 -11 2003 -11C2057 -11 2105 9 2160 54L2210 95L2202 115L2187 105C2115 57 2077 40 2042 40C1986 40 1957 80 1957 159C1957 267 1992 371 2041 409C2062 425 2086 433 2117 433C2162 433 2198 414 2198 390ZM2296 388L2303 368L2335 389C2372 412 2375 414 2382 414C2392 414 2400 404 2400 391C2400 384 2396 361 2392 347L2326 107C2318 76 2313 49 2313 30C2313 6 2324 -9 2343 -9C2369 -9 2405 12 2503 85L2493 103L2467 86C2438 67 2415 56 2406 56C2399 56 2393 66 2393 76C2393 86 2395 95 2400 116L2477 420C2481 437 2483 448 2483 456C2483 473 2474 482 2458 482C2436 482 2399 461 2324 408ZM2490 712C2461 712 2432 679 2432 645C2432 620 2447 604 2471 604C2502 604 2526 633 2526 671C2526 695 2511 712 2490 712ZM2556 152C2556 46 2601 -11 2684 -11C2739 -11 2799 15 2844 57C2906 116 2950 230 2950 331C2950 425 2900 482 2817 482C2713 482 2556 382 2556 152ZM2780 444C2841 444 2874 399 2874 315C2874 219 2843 113 2799 60C2781 39 2755 27 2724 27C2666 27 2632 72 2632 151C2632 264 2671 387 2720 427C2733 438 2756 444 2780 444ZM3006 388L3013 368L3045 389C3082 412 3085 414 3092 414C3103 414 3110 404 3110 389C3110 338 3069 145 3028 2L3035 -9C3060 -2 3083 4 3105 8C3124 134 3145 199 3191 268C3245 352 3320 414 3365 414C3376 414 3382 405 3382 390C3382 372 3379 351 3371 319L3319 107C3310 70 3306 47 3306 31C3306 6 3317 -9 3336 -9C3362 -9 3398 12 3496 85L3486 103L3460 86C3431 67 3409 56 3399 56C3392 56 3386 65 3386 76C3386 81 3387 92 3388 96L3454 372C3461 401 3465 429 3465 446C3465 469 3454 482 3434 482C3392 482 3323 444 3264 389C3226 354 3198 320 3146 247L3184 408C3188 426 3190 438 3190 449C3190 470 3182 482 3167 482C3146 482 3107 460 3034 408ZM4131 437L4115 437L4136 549C4152 635 4180 673 4226 673C4256 673 4283 658 4298 634L4308 638C4313 654 4323 685 4331 705L4336 720C4320 727 4289 733 4266 733C4255 733 4239 730 4231 726C4207 715 4125 654 4102 630C4080 608 4068 578 4057 521L4042 442C4001 422 3981 414 3956 405L3951 383L4032 383L4023 327C3993 132 3956 -54 3934 -123C3916 -182 3886 -213 3850 -213C3827 -213 3816 -206 3798 -184L3784 -188C3780 -211 3766 -259 3761 -268C3770 -273 3785 -276 3796 -276C3837 -276 3891 -245 3930 -198C4001 -114 4021 -18 4105 383L4209 383C4213 402 4220 425 4226 439L4222 446C4193 439 4194 437 4131 437ZM4370 388L4377 368L4409 389C4446 412 4449 414 4456 414C4466 414 4474 404 4474 391C4474 384 4470 361 4466 347L4400 107C4392 76 4387 49 4387 30C4387 6 4398 -9 4417 -9C4443 -9 4479 12 4577 85L4567 103L4541 86C4512 67 4489 56 4480 56C4473 56 4467 66 4467 76C4467 86 4469 95 4474 116L4551 420C4555 437 4557 448 4557 456C4557 473 4548 482 4532 482C4510 482 4473 461 4398 408ZM4564 712C4535 712 4506 679 4506 645C4506 620 4521 604 4545 604C4576 604 4600 633 4600 671C4600 695 4585 712 4564 712ZM4637 388L4644 368L4676 389C4713 412 4716 414 4723 414C4734 414 4741 404 4741 389C4741 338 4700 145 4659 2L4666 -9C4691 -2 4714 4 4736 8C4755 134 4776 199 4822 268C4876 352 4951 414 4996 414C5007 414 5013 405 5013 390C5013 372 5010 351 5002 319L4950 107C4941 70 4937 47 4937 31C4937 6 4948 -9 4967 -9C4993 -9 5029 12 5127 85L5117 103L5091 86C5062 67 5040 56 5030 56C5023 56 5017 65 5017 76C5017 81 5018 92 5019 96L5085 372C5092 401 5096 429 5096 446C5096 469 5085 482 5065 482C5023 482 4954 444 4895 389C4857 354 4829 320 4777 247L4815 408C4819 426 4821 438 4821 449C4821 470 4813 482 4798 482C4777 482 4738 460 4665 408ZM5439 204L5410 77C5406 60 5404 42 5404 26C5404 4 5413 -9 5428 -9C5451 -9 5492 17 5574 85L5567 106C5543 86 5514 59 5492 59C5483 59 5477 68 5477 82C5477 87 5477 90 5478 93L5570 472L5560 481L5527 463C5486 478 5469 482 5442 482C5414 482 5394 477 5367 464C5305 433 5272 403 5247 354C5203 265 5172 145 5172 67C5172 23 5187 -11 5206 -11C5243 -11 5323 41 5439 204ZM5487 414C5465 305 5446 253 5412 201C5355 117 5294 59 5262 59C5250 59 5244 72 5244 99C5244 163 5272 280 5307 360C5331 415 5354 433 5402 433C5425 433 5443 429 5487 414ZM5862 722L5850 733C5798 707 5762 698 5690 691L5686 670L5734 670C5758 670 5768 663 5768 648C5768 645 5768 640 5765 622C5754 567 5681 182 5666 132C5653 82 5647 52 5647 31C5647 6 5658 -9 5677 -9C5703 -9 5739 12 5837 85L5827 103L5801 86C5772 67 5750 56 5740 56C5733 56 5727 66 5727 76C5727 82 5728 89 5731 104Z" stroke="rgb(0,0,0)" stroke-opacity="1" stroke-width="8" fill="rgb(0,0,0)" fill-opacity="1"></path></g></g></g></g></svg>