<svg xmlns="http://www.w3.org/2000/svg" xmlns:xlink="http://www.w3.org/1999/xlink" width="135.3700052897135" height="107.56000773111978" style="width:135.3700052897135px;height:107.56000773111978px;font-family:Asana-Math, Asana;background:#FFF;"><g><g><g><g transform="matrix(1,0,0,1,2,18.039998372395836)"><path transform="matrix(0.017,0,0,-0.017,0,0)" d="M1503 1C1518 -7 1534 -11 1546 -11C1579 -11 1618 18 1649 65L1725 182L1736 113C1749 28 1772 -11 1808 -11C1830 -11 1862 6 1894 35L1943 79L1934 98C1898 68 1873 53 1857 53C1842 53 1829 63 1819 83C1810 102 1799 139 1794 168L1776 269L1811 318C1858 383 1885 406 1916 406C1932 406 1944 398 1949 383L1963 387L1978 472C1966 479 1957 482 1948 482C1908 482 1868 446 1806 354L1769 299L1763 347C1751 446 1724 482 1665 482C1639 482 1617 474 1608 461L1550 378L1567 368C1597 402 1617 416 1636 416C1669 416 1691 375 1708 277L1719 215L1679 153C1636 86 1602 54 1574 54C1559 54 1548 58 1546 63L1535 91L1515 88C1515 53 1507 27 1503 1Z" stroke="rgb(0,0,0)" stroke-opacity="1" stroke-width="8" fill="rgb(0,0,0)" fill-opacity="1"></path></g></g><g><g transform="matrix(1,0,0,1,40.970052083333314,18.039998372395836)"><path transform="matrix(0.017,0,0,-0.017,0,0)" d="M604 347L604 406L65 406L65 347ZM604 134L604 193L65 193L65 134Z" stroke="rgb(0,0,0)" stroke-opacity="1" stroke-width="8" fill="rgb(0,0,0)" fill-opacity="1"></path></g></g><g><g transform="matrix(1,0,0,1,57.425048828125,18.039998372395836)"><path transform="matrix(0.017,0,0,-0.017,0,0)" d="M9 1C24 -7 40 -11 52 -11C85 -11 124 18 155 65L231 182L242 113C255 28 278 -11 314 -11C336 -11 368 6 400 35L449 79L440 98C404 68 379 53 363 53C348 53 335 63 325 83C316 102 305 139 300 168L282 269L317 318C364 383 391 406 422 406C438 406 450 398 455 383L469 387L484 472C472 479 463 482 454 482C414 482 374 446 312 354L275 299L269 347C257 446 230 482 171 482C145 482 123 474 114 461L56 378L73 368C103 402 123 416 142 416C175 416 197 375 214 277L225 215L185 153C142 86 108 54 80 54C65 54 54 58 52 63L41 91L21 88C21 53 13 27 9 1Z" stroke="rgb(0,0,0)" stroke-opacity="1" stroke-width="8" fill="rgb(0,0,0)" fill-opacity="1"></path></g></g><g><g><g><g><g transform="matrix(1,0,0,1,66.425048828125,22.000006103515627)"><path transform="matrix(0.0119,0,0,-0.0119,0,0)" d="M34 388L41 368L73 389C110 412 113 414 120 414C130 414 138 404 138 391C138 384 134 361 130 347L64 107C56 76 51 49 51 30C51 6 62 -9 81 -9C107 -9 143 12 241 85L231 103L205 86C176 67 153 56 144 56C137 56 131 66 131 76C131 86 133 95 138 116L215 420C219 437 221 448 221 456C221 473 212 482 196 482C174 482 137 461 62 408ZM228 712C199 712 170 679 170 645C170 620 185 604 209 604C240 604 264 633 264 671C264 695 249 712 228 712Z" stroke="rgb(0,0,0)" stroke-opacity="1" stroke-width="8" fill="rgb(0,0,0)" fill-opacity="1"></path></g></g></g></g></g><g><g transform="matrix(1,0,0,1,74.135009765625,18.039998372395836)"><path transform="matrix(0.017,0,0,-0.017,0,0)" d="M604 241L604 300L364 300L364 538L305 538L305 300L65 300L65 241L305 241L305 0L364 0L364 241Z" stroke="rgb(0,0,0)" stroke-opacity="1" stroke-width="8" fill="rgb(0,0,0)" fill-opacity="1"></path></g></g><g><g transform="matrix(1,0,0,1,88.88004557291663,18.039998372395836)"><path transform="matrix(0.017,0,0,-0.017,0,0)" d="M166 420C187 420 203 421 229 424C118 304 76 221 76 121C76 44 122 -11 186 -11C324 -11 477 236 477 384C477 441 451 482 415 482C402 482 390 478 382 470L332 423L343 404C352 410 361 413 370 413C397 413 413 390 413 350C413 202 316 39 228 39C179 39 148 81 148 146C148 251 187 342 285 464L275 482C255 473 242 470 214 470C186 470 144 472 115 475L103 476C97 477 92 477 91 477C79 477 70 475 59 470C45 443 34 407 21 352L43 352L60 394C67 411 87 422 111 422C144 422 128 420 166 420ZM624 390L568 107C567 99 555 61 555 31C555 6 566 -9 585 -9C620 -9 655 11 733 74L764 99L754 117L709 86C680 66 660 56 649 56C640 56 635 64 635 76C635 102 649 183 678 328L691 390L798 390L809 440C771 436 737 434 699 434C715 528 726 577 744 631L733 646C713 634 686 622 655 610L630 440C586 419 560 408 542 403L540 390Z" stroke="rgb(0,0,0)" stroke-opacity="1" stroke-width="8" fill="rgb(0,0,0)" fill-opacity="1"></path></g></g></g><g></g><g><g><g transform="matrix(1,0,0,1,2,59.740000406901046)"><path transform="matrix(0.017,0,0,-0.017,0,0)" d="M9 1C24 -7 40 -11 52 -11C85 -11 124 18 155 65L231 182L242 113C255 28 278 -11 314 -11C336 -11 368 6 400 35L449 79L440 98C404 68 379 53 363 53C348 53 335 63 325 83C316 102 305 139 300 168L282 269L317 318C364 383 391 406 422 406C438 406 450 398 455 383L469 387L484 472C472 479 463 482 454 482C414 482 374 446 312 354L275 299L269 347C257 446 230 482 171 482C145 482 123 474 114 461L56 378L73 368C103 402 123 416 142 416C175 416 197 375 214 277L225 215L185 153C142 86 108 54 80 54C65 54 54 58 52 63L41 91L21 88C21 53 13 27 9 1Z" stroke="rgb(0,0,0)" stroke-opacity="1" stroke-width="8" fill="rgb(0,0,0)" fill-opacity="1"></path></g></g><g><g><g><g><g transform="matrix(1,0,0,1,11,63.69999796549479)"><path transform="matrix(0.0119,0,0,-0.0119,0,0)" d="M34 388L41 368L73 389C110 412 113 414 120 414C130 414 138 404 138 391C138 384 134 361 130 347L64 107C56 76 51 49 51 30C51 6 62 -9 81 -9C107 -9 143 12 241 85L231 103L205 86C176 67 153 56 144 56C137 56 131 66 131 76C131 86 133 95 138 116L215 420C219 437 221 448 221 456C221 473 212 482 196 482C174 482 137 461 62 408ZM228 712C199 712 170 679 170 645C170 620 185 604 209 604C240 604 264 633 264 671C264 695 249 712 228 712Z" stroke="rgb(0,0,0)" stroke-opacity="1" stroke-width="8" fill="rgb(0,0,0)" fill-opacity="1"></path></g></g></g></g></g><g><g transform="matrix(1,0,0,1,18.710042317708314,59.740000406901046)"><path transform="matrix(0.017,0,0,-0.017,0,0)" d="M123 111C93 111 66 83 66 53C66 23 93 -5 122 -5C154 -5 182 22 182 53C182 83 154 111 123 111ZM123 456C93 456 66 428 66 398C66 368 93 340 122 340C154 340 182 367 182 397C182 428 154 456 123 456Z" stroke="rgb(0,0,0)" stroke-opacity="1" stroke-width="8" fill="rgb(0,0,0)" fill-opacity="1"></path></g></g><g><g transform="matrix(1,0,0,1,26.345052083333314,59.740000406901046)"><path transform="matrix(0.017,0,0,-0.017,0,0)" d="M425 -11C481 -11 596 62 639 125C680 186 714 296 714 371C714 438 691 482 655 482C613 482 560 456 508 409C467 374 447 348 411 289L435 408C438 425 440 440 440 452C440 471 432 482 418 482C397 482 359 461 285 408L257 388L264 368L296 389C324 407 335 412 344 412C354 412 361 403 361 389C361 381 359 361 357 351L299 8C289 -52 270 -143 250 -233L242 -270L249 -276C270 -269 290 -264 322 -259L364 3C385 -4 407 -11 425 -11ZM392 165C414 293 521 424 604 424C630 424 642 402 642 356C642 275 602 156 549 80C529 51 497 36 456 36C425 36 400 43 374 59ZM765 152C765 46 810 -11 893 -11C948 -11 1008 15 1053 57C1115 116 1159 230 1159 331C1159 425 1109 482 1026 482C922 482 765 382 765 152ZM989 444C1050 444 1083 399 1083 315C1083 219 1052 113 1008 60C990 39 964 27 933 27C875 27 841 72 841 151C841 264 880 387 929 427C942 438 965 444 989 444ZM1222 148C1217 97 1211 62 1200 16C1238 -2 1272 -11 1307 -11C1356 -11 1402 7 1453 47C1504 87 1525 124 1525 174C1525 228 1493 257 1419 271L1376 279C1316 290 1297 307 1297 348C1297 401 1342 442 1399 442C1440 442 1478 424 1494 397L1494 342L1517 342C1521 377 1525 404 1536 455C1497 474 1469 482 1436 482C1384 482 1323 452 1275 404C1249 377 1238 352 1238 316C1238 260 1269 228 1335 215L1398 203C1442 195 1458 177 1458 138C1458 73 1412 29 1341 29C1306 29 1275 40 1247 64L1247 148ZM1613 388L1620 368L1652 389C1689 412 1692 414 1699 414C1709 414 1717 404 1717 391C1717 384 1713 361 1709 347L1643 107C1635 76 1630 49 1630 30C1630 6 1641 -9 1660 -9C1686 -9 1722 12 1820 85L1810 103L1784 86C1755 67 1732 56 1723 56C1716 56 1710 66 1710 76C1710 86 1712 95 1717 116L1794 420C1798 437 1800 448 1800 456C1800 473 1791 482 1775 482C1753 482 1716 461 1641 408ZM1807 712C1778 712 1749 679 1749 645C1749 620 1764 604 1788 604C1819 604 1843 633 1843 671C1843 695 1828 712 1807 712ZM2198 330L2221 330C2229 395 2236 432 2245 458C2221 473 2186 482 2149 482C2104 483 2031 463 1974 400C1920 352 1881 241 1881 136C1881 40 1923 -11 2003 -11C2057 -11 2105 9 2160 54L2210 95L2202 115L2187 105C2115 57 2077 40 2042 40C1986 40 1957 80 1957 159C1957 267 1992 371 2041 409C2062 425 2086 433 2117 433C2162 433 2198 414 2198 390ZM2296 388L2303 368L2335 389C2372 412 2375 414 2382 414C2392 414 2400 404 2400 391C2400 384 2396 361 2392 347L2326 107C2318 76 2313 49 2313 30C2313 6 2324 -9 2343 -9C2369 -9 2405 12 2503 85L2493 103L2467 86C2438 67 2415 56 2406 56C2399 56 2393 66 2393 76C2393 86 2395 95 2400 116L2477 420C2481 437 2483 448 2483 456C2483 473 2474 482 2458 482C2436 482 2399 461 2324 408ZM2490 712C2461 712 2432 679 2432 645C2432 620 2447 604 2471 604C2502 604 2526 633 2526 671C2526 695 2511 712 2490 712ZM2556 152C2556 46 2601 -11 2684 -11C2739 -11 2799 15 2844 57C2906 116 2950 230 2950 331C2950 425 2900 482 2817 482C2713 482 2556 382 2556 152ZM2780 444C2841 444 2874 399 2874 315C2874 219 2843 113 2799 60C2781 39 2755 27 2724 27C2666 27 2632 72 2632 151C2632 264 2671 387 2720 427C2733 438 2756 444 2780 444ZM3006 388L3013 368L3045 389C3082 412 3085 414 3092 414C3103 414 3110 404 3110 389C3110 338 3069 145 3028 2L3035 -9C3060 -2 3083 4 3105 8C3124 134 3145 199 3191 268C3245 352 3320 414 3365 414C3376 414 3382 405 3382 390C3382 372 3379 351 3371 319L3319 107C3310 70 3306 47 3306 31C3306 6 3317 -9 3336 -9C3362 -9 3398 12 3496 85L3486 103L3460 86C3431 67 3409 56 3399 56C3392 56 3386 65 3386 76C3386 81 3387 92 3388 96L3454 372C3461 401 3465 429 3465 446C3465 469 3454 482 3434 482C3392 482 3323 444 3264 389C3226 354 3198 320 3146 247L3184 408C3188 426 3190 438 3190 449C3190 470 3182 482 3167 482C3146 482 3107 460 3034 408ZM3820 388L3827 368L3859 389C3896 412 3899 414 3906 414C3916 414 3924 404 3924 391C3924 384 3920 361 3916 347L3850 107C3842 76 3837 49 3837 30C3837 6 3848 -9 3867 -9C3893 -9 3929 12 4027 85L4017 103L3991 86C3962 67 3939 56 3930 56C3923 56 3917 66 3917 76C3917 86 3919 95 3924 116L4001 420C4005 437 4007 448 4007 456C4007 473 3998 482 3982 482C3960 482 3923 461 3848 408ZM4014 712C3985 712 3956 679 3956 645C3956 620 3971 604 3995 604C4026 604 4050 633 4050 671C4050 695 4035 712 4014 712ZM4087 388L4094 368L4126 389C4163 412 4166 414 4173 414C4184 414 4191 404 4191 389C4191 338 4150 145 4109 2L4116 -9C4141 -2 4164 4 4186 8C4205 134 4226 199 4272 268C4326 352 4401 414 4446 414C4457 414 4463 405 4463 390C4463 372 4460 351 4452 319L4400 107C4391 70 4387 47 4387 31C4387 6 4398 -9 4417 -9C4443 -9 4479 12 4577 85L4567 103L4541 86C4512 67 4490 56 4480 56C4473 56 4467 65 4467 76C4467 81 4468 92 4469 96L4535 372C4542 401 4546 429 4546 446C4546 469 4535 482 4515 482C4473 482 4404 444 4345 389C4307 354 4279 320 4227 247L4265 408C4269 426 4271 438 4271 449C4271 470 4263 482 4248 482C4227 482 4188 460 4115 408ZM4652 388L4659 368L4691 389C4728 412 4731 414 4738 414C4748 414 4756 404 4756 391C4756 384 4752 361 4748 347L4682 107C4674 76 4669 49 4669 30C4669 6 4680 -9 4699 -9C4725 -9 4761 12 4859 85L4849 103L4823 86C4794 67 4771 56 4762 56C4755 56 4749 66 4749 76C4749 86 4751 95 4756 116L4833 420C4837 437 4839 448 4839 456C4839 473 4830 482 4814 482C4792 482 4755 461 4680 408ZM4846 712C4817 712 4788 679 4788 645C4788 620 4803 604 4827 604C4858 604 4882 633 4882 671C4882 695 4867 712 4846 712ZM5237 330L5260 330C5268 395 5275 432 5284 458C5260 473 5225 482 5188 482C5143 483 5070 463 5013 400C4959 352 4920 241 4920 136C4920 40 4962 -11 5042 -11C5096 -11 5144 9 5199 54L5249 95L5241 115L5226 105C5154 57 5116 40 5081 40C5025 40 4996 80 4996 159C4996 267 5031 371 5080 409C5101 425 5125 433 5156 433C5201 433 5237 414 5237 390ZM5335 388L5342 368L5374 389C5411 412 5414 414 5421 414C5431 414 5439 404 5439 391C5439 384 5435 361 5431 347L5365 107C5357 76 5352 49 5352 30C5352 6 5363 -9 5382 -9C5408 -9 5444 12 5542 85L5532 103L5506 86C5477 67 5454 56 5445 56C5438 56 5432 66 5432 76C5432 86 5434 95 5439 116L5516 420C5520 437 5522 448 5522 456C5522 473 5513 482 5497 482C5475 482 5438 461 5363 408ZM5529 712C5500 712 5471 679 5471 645C5471 620 5486 604 5510 604C5541 604 5565 633 5565 671C5565 695 5550 712 5529 712ZM5849 204L5820 77C5816 60 5814 42 5814 26C5814 4 5823 -9 5838 -9C5861 -9 5902 17 5984 85L5977 106C5953 86 5924 59 5902 59C5893 59 5887 68 5887 82C5887 87 5887 90 5888 93L5980 472L5970 481L5937 463C5896 478 5879 482 5852 482C5824 482 5804 477 5777 464C5715 433 5682 403 5657 354C5613 265 5582 145 5582 67C5582 23 5597 -11 5616 -11C5653 -11 5733 41 5849 204ZM5897 414C5875 305 5856 253 5822 201C5765 117 5704 59 5672 59C5660 59 5654 72 5654 99C5654 163 5682 280 5717 360C5741 415 5764 433 5812 433C5835 433 5853 429 5897 414ZM6272 722L6260 733C6208 707 6172 698 6100 691L6096 670L6144 670C6168 670 6178 663 6178 648C6178 645 6178 640 6175 622C6164 567 6091 182 6076 132C6063 82 6057 52 6057 31C6057 6 6068 -9 6087 -9C6113 -9 6149 12 6247 85L6237 103L6211 86C6182 67 6160 56 6150 56C6143 56 6137 66 6137 76C6137 82 6138 89 6141 104Z" stroke="rgb(0,0,0)" stroke-opacity="1" stroke-width="8" fill="rgb(0,0,0)" fill-opacity="1"></path></g></g></g><g><g><g transform="matrix(1,0,0,1,2,81.27999877929688)"><path transform="matrix(0.017,0,0,-0.017,0,0)" d="M166 420C187 420 203 421 229 424C118 304 76 221 76 121C76 44 122 -11 186 -11C324 -11 477 236 477 384C477 441 451 482 415 482C402 482 390 478 382 470L332 423L343 404C352 410 361 413 370 413C397 413 413 390 413 350C413 202 316 39 228 39C179 39 148 81 148 146C148 251 187 342 285 464L275 482C255 473 242 470 214 470C186 470 144 472 115 475L103 476C97 477 92 477 91 477C79 477 70 475 59 470C45 443 34 407 21 352L43 352L60 394C67 411 87 422 111 422C144 422 128 420 166 420Z" stroke="rgb(0,0,0)" stroke-opacity="1" stroke-width="8" fill="rgb(0,0,0)" fill-opacity="1"></path></g></g><g><g transform="matrix(1,0,0,1,13.880045572916629,81.27999877929688)"><path transform="matrix(0.017,0,0,-0.017,0,0)" d="M123 111C93 111 66 83 66 53C66 23 93 -5 122 -5C154 -5 182 22 182 53C182 83 154 111 123 111ZM123 456C93 456 66 428 66 398C66 368 93 340 122 340C154 340 182 367 182 397C182 428 154 456 123 456Z" stroke="rgb(0,0,0)" stroke-opacity="1" stroke-width="8" fill="rgb(0,0,0)" fill-opacity="1"></path></g></g><g><g transform="matrix(1,0,0,1,21.51505533854163,81.27999877929688)"><path transform="matrix(0.017,0,0,-0.017,0,0)" d="M415 420C436 420 452 421 478 424C367 304 325 221 325 121C325 44 371 -11 435 -11C573 -11 726 236 726 384C726 441 700 482 664 482C651 482 639 478 631 470L581 423L592 404C601 410 610 413 619 413C646 413 662 390 662 350C662 202 565 39 477 39C428 39 397 81 397 146C397 251 436 342 534 464L524 482C504 473 491 470 463 470C435 470 393 472 364 475L352 476C346 477 341 477 340 477C328 477 319 475 308 470C294 443 283 407 270 352L292 352L309 394C316 411 336 422 360 422C393 422 377 420 415 420ZM1076 111L1052 94C999 56 951 36 915 36C868 36 839 73 839 133C839 158 842 185 847 214C864 218 973 248 998 259C1083 296 1122 342 1122 404C1122 451 1088 482 1038 482C970 496 860 423 823 349C793 299 763 180 763 113C763 35 807 -11 879 -11C936 -11 992 17 1084 92ZM861 274C878 343 898 386 927 412C945 428 976 440 1000 440C1029 440 1048 420 1048 388C1048 344 1013 297 961 272C933 258 897 247 852 237ZM1387 722L1375 733C1323 707 1287 698 1215 691L1211 670L1259 670C1283 670 1293 663 1293 648C1293 645 1293 640 1290 622C1279 567 1206 182 1191 132C1178 82 1172 52 1172 31C1172 6 1183 -9 1202 -9C1228 -9 1264 12 1362 85L1352 103L1326 86C1297 67 1275 56 1265 56C1258 56 1252 66 1252 76C1252 82 1253 89 1256 104ZM1430 152C1430 46 1475 -11 1558 -11C1613 -11 1673 15 1718 57C1780 116 1824 230 1824 331C1824 425 1774 482 1691 482C1587 482 1430 382 1430 152ZM1654 444C1715 444 1748 399 1748 315C1748 219 1717 113 1673 60C1655 39 1629 27 1598 27C1540 27 1506 72 1506 151C1506 264 1545 387 1594 427C1607 438 1630 444 1654 444ZM2198 330L2221 330C2229 395 2236 432 2245 458C2221 473 2186 482 2149 482C2104 483 2031 463 1974 400C1920 352 1881 241 1881 136C1881 40 1923 -11 2003 -11C2057 -11 2105 9 2160 54L2210 95L2202 115L2187 105C2115 57 2077 40 2042 40C1986 40 1957 80 1957 159C1957 267 1992 371 2041 409C2062 425 2086 433 2117 433C2162 433 2198 414 2198 390ZM2296 388L2303 368L2335 389C2372 412 2375 414 2382 414C2392 414 2400 404 2400 391C2400 384 2396 361 2392 347L2326 107C2318 76 2313 49 2313 30C2313 6 2324 -9 2343 -9C2369 -9 2405 12 2503 85L2493 103L2467 86C2438 67 2415 56 2406 56C2399 56 2393 66 2393 76C2393 86 2395 95 2400 116L2477 420C2481 437 2483 448 2483 456C2483 473 2474 482 2458 482C2436 482 2399 461 2324 408ZM2490 712C2461 712 2432 679 2432 645C2432 620 2447 604 2471 604C2502 604 2526 633 2526 671C2526 695 2511 712 2490 712ZM3022 722L3010 733C2958 707 2922 698 2850 691L2846 670L2894 670C2918 670 2928 663 2928 646C2928 638 2927 629 2926 622L2898 468C2868 477 2841 482 2816 482C2747 482 2653 410 2607 323C2576 265 2556 170 2556 86C2556 21 2571 -11 2600 -11C2627 -11 2664 6 2698 33C2752 77 2785 116 2852 217L2829 126C2818 82 2813 50 2813 24C2813 3 2822 -9 2839 -9C2856 -9 2880 3 2914 28L2995 88L2985 107L2941 76C2927 66 2911 59 2902 59C2894 59 2888 68 2888 82C2888 90 2889 99 2896 128ZM2653 59C2637 59 2628 73 2628 98C2628 224 2674 380 2723 418C2736 428 2755 433 2782 433C2826 433 2855 427 2888 410L2876 351C2839 171 2698 59 2653 59ZM3309 204L3280 77C3276 60 3274 42 3274 26C3274 4 3283 -9 3298 -9C3321 -9 3362 17 3444 85L3437 106C3413 86 3384 59 3362 59C3353 59 3347 68 3347 82C3347 87 3347 90 3348 93L3440 472L3430 481L3397 463C3356 478 3339 482 3312 482C3284 482 3264 477 3237 464C3175 433 3142 403 3117 354C3073 265 3042 145 3042 67C3042 23 3057 -11 3076 -11C3113 -11 3193 41 3309 204ZM3357 414C3335 305 3316 253 3282 201C3225 117 3164 59 3132 59C3120 59 3114 72 3114 99C3114 163 3142 280 3177 360C3201 415 3224 433 3272 433C3295 433 3313 429 3357 414ZM3964 722L3952 733C3900 707 3864 698 3792 691L3788 670L3836 670C3860 670 3870 663 3870 646C3870 638 3869 629 3868 622L3840 468C3810 477 3783 482 3758 482C3689 482 3595 410 3549 323C3518 265 3498 170 3498 86C3498 21 3513 -11 3542 -11C3569 -11 3606 6 3640 33C3694 77 3727 116 3794 217L3771 126C3760 82 3755 50 3755 24C3755 3 3764 -9 3781 -9C3798 -9 3822 3 3856 28L3937 88L3927 107L3883 76C3869 66 3853 59 3844 59C3836 59 3830 68 3830 82C3830 90 3831 99 3838 128ZM3595 59C3579 59 3570 73 3570 98C3570 224 3616 380 3665 418C3678 428 3697 433 3724 433C3768 433 3797 427 3830 410L3818 351C3781 171 3640 59 3595 59Z" stroke="rgb(0,0,0)" stroke-opacity="1" stroke-width="8" fill="rgb(0,0,0)" fill-opacity="1"></path></g></g></g><g><g><g transform="matrix(1,0,0,1,2,101.44001261393228)"><path transform="matrix(0.017,0,0,-0.017,0,0)" d="M125 390L69 107C68 99 56 61 56 31C56 6 67 -9 86 -9C121 -9 156 11 234 74L265 99L255 117L210 86C181 66 161 56 150 56C141 56 136 64 136 76C136 102 150 183 179 328L192 390L299 390L310 440C272 436 238 434 200 434C216 528 227 577 245 631L234 646C214 634 187 622 156 610L131 440C87 419 61 408 43 403L41 390Z" stroke="rgb(0,0,0)" stroke-opacity="1" stroke-width="8" fill="rgb(0,0,0)" fill-opacity="1"></path></g></g><g><g transform="matrix(1,0,0,1,11.045003255208314,101.44001261393228)"><path transform="matrix(0.017,0,0,-0.017,0,0)" d="M123 111C93 111 66 83 66 53C66 23 93 -5 122 -5C154 -5 182 22 182 53C182 83 154 111 123 111ZM123 456C93 456 66 428 66 398C66 368 93 340 122 340C154 340 182 367 182 397C182 428 154 456 123 456Z" stroke="rgb(0,0,0)" stroke-opacity="1" stroke-width="8" fill="rgb(0,0,0)" fill-opacity="1"></path></g></g><g><g transform="matrix(1,0,0,1,18.680013020833314,101.44001261393228)"><path transform="matrix(0.017,0,0,-0.017,0,0)" d="M374 390L318 107C317 99 305 61 305 31C305 6 316 -9 335 -9C370 -9 405 11 483 74L514 99L504 117L459 86C430 66 410 56 399 56C390 56 385 64 385 76C385 102 399 183 428 328L441 390L548 390L559 440C521 436 487 434 449 434C465 528 476 577 494 631L483 646C463 634 436 622 405 610L380 440C336 419 310 408 292 403L290 390ZM615 388L622 368L654 389C691 412 694 414 701 414C711 414 719 404 719 391C719 384 715 361 711 347L645 107C637 76 632 49 632 30C632 6 643 -9 662 -9C688 -9 724 12 822 85L812 103L786 86C757 67 734 56 725 56C718 56 712 66 712 76C712 86 714 95 719 116L796 420C800 437 802 448 802 456C802 473 793 482 777 482C755 482 718 461 643 408ZM809 712C780 712 751 679 751 645C751 620 766 604 790 604C821 604 845 633 845 671C845 695 830 712 809 712ZM1186 111L1162 94C1109 56 1061 36 1025 36C978 36 949 73 949 133C949 158 952 185 957 214C974 218 1083 248 1108 259C1193 296 1232 342 1232 404C1232 451 1198 482 1148 482C1080 496 970 423 933 349C903 299 873 180 873 113C873 35 917 -11 989 -11C1046 -11 1102 17 1194 92ZM971 274C988 343 1008 386 1037 412C1055 428 1086 440 1110 440C1139 440 1158 420 1158 388C1158 344 1123 297 1071 272C1043 258 1007 247 962 237ZM1976 103L1950 86C1921 67 1899 56 1889 56C1882 56 1876 65 1876 76C1876 86 1878 95 1883 116L1958 413C1962 430 1965 446 1965 454C1965 471 1955 482 1939 482C1910 482 1872 464 1811 421C1748 376 1713 341 1664 272L1694 409C1698 429 1701 444 1701 451C1701 470 1691 482 1675 482C1645 482 1599 460 1544 418C1500 384 1480 363 1415 275L1448 408C1452 424 1454 439 1454 451C1454 470 1445 482 1431 482C1410 482 1372 461 1298 408L1270 388L1277 368C1314 391 1349 414 1356 414C1367 414 1374 404 1374 389C1374 338 1333 145 1292 2L1295 -9L1363 6L1385 108C1409 219 1436 278 1491 338C1533 384 1578 414 1606 414C1613 414 1617 406 1617 393C1617 358 1595 244 1554 69L1538 2L1543 -9L1612 6L1633 113C1649 194 1683 269 1727 318C1782 379 1832 414 1864 414C1872 414 1877 405 1877 389C1877 365 1874 351 1852 264C1812 105 1796 84 1796 31C1796 6 1807 -9 1826 -9C1852 -9 1888 12 1986 85ZM2199 -11C2255 -11 2370 62 2413 125C2454 186 2488 296 2488 371C2488 438 2465 482 2429 482C2387 482 2334 456 2282 409C2241 374 2221 348 2185 289L2209 408C2212 425 2214 440 2214 452C2214 471 2206 482 2192 482C2171 482 2133 461 2059 408L2031 388L2038 368L2070 389C2098 407 2109 412 2118 412C2128 412 2135 403 2135 389C2135 381 2133 361 2131 351L2073 8C2063 -52 2044 -143 2024 -233L2016 -270L2023 -276C2044 -269 2064 -264 2096 -259L2138 3C2159 -4 2181 -11 2199 -11ZM2166 165C2188 293 2295 424 2378 424C2404 424 2416 402 2416 356C2416 275 2376 156 2323 80C2303 51 2271 36 2230 36C2199 36 2174 43 2148 59ZM2539 152C2539 46 2584 -11 2667 -11C2722 -11 2782 15 2827 57C2889 116 2933 230 2933 331C2933 425 2883 482 2800 482C2696 482 2539 382 2539 152ZM2763 444C2824 444 2857 399 2857 315C2857 219 2826 113 2782 60C2764 39 2738 27 2707 27C2649 27 2615 72 2615 151C2615 264 2654 387 2703 427C2716 438 2739 444 2763 444Z" stroke="rgb(0,0,0)" stroke-opacity="1" stroke-width="8" fill="rgb(0,0,0)" fill-opacity="1"></path></g></g></g></g></svg>