<svg xmlns="http://www.w3.org/2000/svg" xmlns:xlink="http://www.w3.org/1999/xlink" width="89.260004679362" height="106.97500610351562" style="width:89.260004679362px;height:106.97500610351562px;font-family:Asana-Math, Asana;background:#FFF;"><g><g><g><g transform="matrix(1,0,0,1,2,30.204996744791664)"><path transform="matrix(0.017,0,0,-0.017,0,0)" d="M1162 420C1183 420 1199 421 1225 424C1114 304 1072 221 1072 121C1072 44 1118 -11 1182 -11C1320 -11 1473 236 1473 384C1473 441 1447 482 1411 482C1398 482 1386 478 1378 470L1328 423L1339 404C1348 410 1357 413 1366 413C1393 413 1409 390 1409 350C1409 202 1312 39 1224 39C1175 39 1144 81 1144 146C1144 251 1183 342 1281 464L1271 482C1251 473 1238 470 1210 470C1182 470 1140 472 1111 475L1099 476C1093 477 1088 477 1087 477C1075 477 1066 475 1055 470C1041 443 1030 407 1017 352L1039 352L1056 394C1063 411 1083 422 1107 422C1140 422 1124 420 1162 420Z" stroke="rgb(0,0,0)" stroke-opacity="1" stroke-width="8" fill="rgb(0,0,0)" fill-opacity="1"></path></g></g><g><g transform="matrix(1,0,0,1,32.510009765625,30.204996744791664)"><path transform="matrix(0.017,0,0,-0.017,0,0)" d="M604 347L604 406L65 406L65 347ZM604 134L604 193L65 193L65 134Z" stroke="rgb(0,0,0)" stroke-opacity="1" stroke-width="8" fill="rgb(0,0,0)" fill-opacity="1"></path></g></g><g><g><g><g><g transform="matrix(1,0,0,1,50.659993489583314,18.039998372395836)"><path transform="matrix(0.017,0,0,-0.017,0,0)" d="M483 722L471 733C419 707 383 698 311 691L307 670L355 670C379 670 389 663 389 646C389 638 388 629 387 622L359 468C329 477 302 482 277 482C208 482 114 410 68 323C37 265 17 170 17 86C17 21 32 -11 61 -11C88 -11 125 6 159 33C213 77 246 116 313 217L290 126C279 82 274 50 274 24C274 3 283 -9 300 -9C317 -9 341 3 375 28L456 88L446 107L402 76C388 66 372 59 363 59C355 59 349 68 349 82C349 90 350 99 357 128ZM114 59C98 59 89 73 89 98C89 224 135 380 184 418C197 428 216 433 243 433C287 433 316 427 349 410L337 351C300 171 159 59 114 59Z" stroke="rgb(0,0,0)" stroke-opacity="1" stroke-width="8" fill="rgb(0,0,0)" fill-opacity="1"></path></g></g></g></g><g><g><g><g transform="matrix(1,0,0,1,52.069986979166686,43.375)"><path transform="matrix(0.017,0,0,-0.017,0,0)" d="M125 390L69 107C68 99 56 61 56 31C56 6 67 -9 86 -9C121 -9 156 11 234 74L265 99L255 117L210 86C181 66 161 56 150 56C141 56 136 64 136 76C136 102 150 183 179 328L192 390L299 390L310 440C272 436 238 434 200 434C216 528 227 577 245 631L234 646C214 634 187 622 156 610L131 440C87 419 61 408 43 403L41 390Z" stroke="rgb(0,0,0)" stroke-opacity="1" stroke-width="8" fill="rgb(0,0,0)" fill-opacity="1"></path></g></g></g></g><line style="fill:none;stroke-width:0.99px;stroke:rgb(0, 0, 0);" x1="50.659993489583314" y1="26.240000009536743" x2="59.149993896484375" y2="26.240000009536743"></line></g></g><g></g><g><g><g transform="matrix(1,0,0,1,2,80.69499715169272)"><path transform="matrix(0.017,0,0,-0.017,0,0)" d="M483 722L471 733C419 707 383 698 311 691L307 670L355 670C379 670 389 663 389 646C389 638 388 629 387 622L359 468C329 477 302 482 277 482C208 482 114 410 68 323C37 265 17 170 17 86C17 21 32 -11 61 -11C88 -11 125 6 159 33C213 77 246 116 313 217L290 126C279 82 274 50 274 24C274 3 283 -9 300 -9C317 -9 341 3 375 28L456 88L446 107L402 76C388 66 372 59 363 59C355 59 349 68 349 82C349 90 350 99 357 128ZM114 59C98 59 89 73 89 98C89 224 135 380 184 418C197 428 216 433 243 433C287 433 316 427 349 410L337 351C300 171 159 59 114 59Z" stroke="rgb(0,0,0)" stroke-opacity="1" stroke-width="8" fill="rgb(0,0,0)" fill-opacity="1"></path></g></g><g><g transform="matrix(1,0,0,1,13.880045572916686,80.69499715169272)"><path transform="matrix(0.017,0,0,-0.017,0,0)" d="M123 111C93 111 66 83 66 53C66 23 93 -5 122 -5C154 -5 182 22 182 53C182 83 154 111 123 111ZM123 456C93 456 66 428 66 398C66 368 93 340 122 340C154 340 182 367 182 397C182 428 154 456 123 456Z" stroke="rgb(0,0,0)" stroke-opacity="1" stroke-width="8" fill="rgb(0,0,0)" fill-opacity="1"></path></g></g><g><g transform="matrix(1,0,0,1,21.514973958333314,80.69499715169272)"><path transform="matrix(0.017,0,0,-0.017,0,0)" d="M732 722L720 733C668 707 632 698 560 691L556 670L604 670C628 670 638 663 638 646C638 638 637 629 636 622L608 468C578 477 551 482 526 482C457 482 363 410 317 323C286 265 266 170 266 86C266 21 281 -11 310 -11C337 -11 374 6 408 33C462 77 495 116 562 217L539 126C528 82 523 50 523 24C523 3 532 -9 549 -9C566 -9 590 3 624 28L705 88L695 107L651 76C637 66 621 59 612 59C604 59 598 68 598 82C598 90 599 99 606 128ZM363 59C347 59 338 73 338 98C338 224 384 380 433 418C446 428 465 433 492 433C536 433 565 427 598 410L586 351C549 171 408 59 363 59ZM782 388L789 368L821 389C858 412 861 414 868 414C878 414 886 404 886 391C886 384 882 361 878 347L812 107C804 76 799 49 799 30C799 6 810 -9 829 -9C855 -9 891 12 989 85L979 103L953 86C924 67 901 56 892 56C885 56 879 66 879 76C879 86 881 95 886 116L963 420C967 437 969 448 969 456C969 473 960 482 944 482C922 482 885 461 810 408ZM976 712C947 712 918 679 918 645C918 620 933 604 957 604C988 604 1012 633 1012 671C1012 695 997 712 976 712ZM1056 148C1051 97 1045 62 1034 16C1072 -2 1106 -11 1141 -11C1190 -11 1236 7 1287 47C1338 87 1359 124 1359 174C1359 228 1327 257 1253 271L1210 279C1150 290 1131 307 1131 348C1131 401 1176 442 1233 442C1274 442 1312 424 1328 397L1328 342L1351 342C1355 377 1359 404 1370 455C1331 474 1303 482 1270 482C1218 482 1157 452 1109 404C1083 377 1072 352 1072 316C1072 260 1103 228 1169 215L1232 203C1276 195 1292 177 1292 138C1292 73 1246 29 1175 29C1140 29 1109 40 1081 64L1081 148ZM1538 390L1482 107C1481 99 1469 61 1469 31C1469 6 1480 -9 1499 -9C1534 -9 1569 11 1647 74L1678 99L1668 117L1623 86C1594 66 1574 56 1563 56C1554 56 1549 64 1549 76C1549 102 1563 183 1592 328L1605 390L1712 390L1723 440C1685 436 1651 434 1613 434C1629 528 1640 577 1658 631L1647 646C1627 634 1600 622 1569 610L1544 440C1500 419 1474 408 1456 403L1454 390ZM2016 204L1987 77C1983 60 1981 42 1981 26C1981 4 1990 -9 2005 -9C2028 -9 2069 17 2151 85L2144 106C2120 86 2091 59 2069 59C2060 59 2054 68 2054 82C2054 87 2054 90 2055 93L2147 472L2137 481L2104 463C2063 478 2046 482 2019 482C1991 482 1971 477 1944 464C1882 433 1849 403 1824 354C1780 265 1749 145 1749 67C1749 23 1764 -11 1783 -11C1820 -11 1900 41 2016 204ZM2064 414C2042 305 2023 253 1989 201C1932 117 1871 59 1839 59C1827 59 1821 72 1821 99C1821 163 1849 280 1884 360C1908 415 1931 433 1979 433C2002 433 2020 429 2064 414ZM2212 388L2219 368L2251 389C2288 412 2291 414 2298 414C2309 414 2316 404 2316 389C2316 338 2275 145 2234 2L2241 -9C2266 -2 2289 4 2311 8C2330 134 2351 199 2397 268C2451 352 2526 414 2571 414C2582 414 2588 405 2588 390C2588 372 2585 351 2577 319L2525 107C2516 70 2512 47 2512 31C2512 6 2523 -9 2542 -9C2568 -9 2604 12 2702 85L2692 103L2666 86C2637 67 2615 56 2605 56C2598 56 2592 65 2592 76C2592 81 2593 92 2594 96L2660 372C2667 401 2671 429 2671 446C2671 469 2660 482 2640 482C2598 482 2529 444 2470 389C2432 354 2404 320 2352 247L2390 408C2394 426 2396 438 2396 449C2396 470 2388 482 2373 482C2352 482 2313 460 2240 408ZM3085 330L3108 330C3116 395 3123 432 3132 458C3108 473 3073 482 3036 482C2991 483 2918 463 2861 400C2807 352 2768 241 2768 136C2768 40 2810 -11 2890 -11C2944 -11 2992 9 3047 54L3097 95L3089 115L3074 105C3002 57 2964 40 2929 40C2873 40 2844 80 2844 159C2844 267 2879 371 2928 409C2949 425 2973 433 3004 433C3049 433 3085 414 3085 390ZM3183 388L3190 368L3222 389C3259 412 3262 414 3269 414C3279 414 3287 404 3287 391C3287 384 3283 361 3279 347L3213 107C3205 76 3200 49 3200 30C3200 6 3211 -9 3230 -9C3256 -9 3292 12 3390 85L3380 103L3354 86C3325 67 3302 56 3293 56C3286 56 3280 66 3280 76C3280 86 3282 95 3287 116L3364 420C3368 437 3370 448 3370 456C3370 473 3361 482 3345 482C3323 482 3286 461 3211 408ZM3377 712C3348 712 3319 679 3319 645C3319 620 3334 604 3358 604C3389 604 3413 633 3413 671C3413 695 3398 712 3377 712ZM3697 204L3668 77C3664 60 3662 42 3662 26C3662 4 3671 -9 3686 -9C3709 -9 3750 17 3832 85L3825 106C3801 86 3772 59 3750 59C3741 59 3735 68 3735 82C3735 87 3735 90 3736 93L3828 472L3818 481L3785 463C3744 478 3727 482 3700 482C3672 482 3652 477 3625 464C3563 433 3530 403 3505 354C3461 265 3430 145 3430 67C3430 23 3445 -11 3464 -11C3501 -11 3581 41 3697 204ZM3745 414C3723 305 3704 253 3670 201C3613 117 3552 59 3520 59C3508 59 3502 72 3502 99C3502 163 3530 280 3565 360C3589 415 3612 433 3660 433C3683 433 3701 429 3745 414Z" stroke="rgb(0,0,0)" stroke-opacity="1" stroke-width="8" fill="rgb(0,0,0)" fill-opacity="1"></path></g></g></g><g><g><g transform="matrix(1,0,0,1,2,100.85501098632812)"><path transform="matrix(0.017,0,0,-0.017,0,0)" d="M125 390L69 107C68 99 56 61 56 31C56 6 67 -9 86 -9C121 -9 156 11 234 74L265 99L255 117L210 86C181 66 161 56 150 56C141 56 136 64 136 76C136 102 150 183 179 328L192 390L299 390L310 440C272 436 238 434 200 434C216 528 227 577 245 631L234 646C214 634 187 622 156 610L131 440C87 419 61 408 43 403L41 390Z" stroke="rgb(0,0,0)" stroke-opacity="1" stroke-width="8" fill="rgb(0,0,0)" fill-opacity="1"></path></g></g><g><g transform="matrix(1,0,0,1,11.045003255208314,100.85501098632812)"><path transform="matrix(0.017,0,0,-0.017,0,0)" d="M123 111C93 111 66 83 66 53C66 23 93 -5 122 -5C154 -5 182 22 182 53C182 83 154 111 123 111ZM123 456C93 456 66 428 66 398C66 368 93 340 122 340C154 340 182 367 182 397C182 428 154 456 123 456Z" stroke="rgb(0,0,0)" stroke-opacity="1" stroke-width="8" fill="rgb(0,0,0)" fill-opacity="1"></path></g></g><g><g transform="matrix(1,0,0,1,18.680013020833314,100.85501098632812)"><path transform="matrix(0.017,0,0,-0.017,0,0)" d="M374 390L318 107C317 99 305 61 305 31C305 6 316 -9 335 -9C370 -9 405 11 483 74L514 99L504 117L459 86C430 66 410 56 399 56C390 56 385 64 385 76C385 102 399 183 428 328L441 390L548 390L559 440C521 436 487 434 449 434C465 528 476 577 494 631L483 646C463 634 436 622 405 610L380 440C336 419 310 408 292 403L290 390ZM615 388L622 368L654 389C691 412 694 414 701 414C711 414 719 404 719 391C719 384 715 361 711 347L645 107C637 76 632 49 632 30C632 6 643 -9 662 -9C688 -9 724 12 822 85L812 103L786 86C757 67 734 56 725 56C718 56 712 66 712 76C712 86 714 95 719 116L796 420C800 437 802 448 802 456C802 473 793 482 777 482C755 482 718 461 643 408ZM809 712C780 712 751 679 751 645C751 620 766 604 790 604C821 604 845 633 845 671C845 695 830 712 809 712ZM1186 111L1162 94C1109 56 1061 36 1025 36C978 36 949 73 949 133C949 158 952 185 957 214C974 218 1083 248 1108 259C1193 296 1232 342 1232 404C1232 451 1198 482 1148 482C1080 496 970 423 933 349C903 299 873 180 873 113C873 35 917 -11 989 -11C1046 -11 1102 17 1194 92ZM971 274C988 343 1008 386 1037 412C1055 428 1086 440 1110 440C1139 440 1158 420 1158 388C1158 344 1123 297 1071 272C1043 258 1007 247 962 237ZM1976 103L1950 86C1921 67 1899 56 1889 56C1882 56 1876 65 1876 76C1876 86 1878 95 1883 116L1958 413C1962 430 1965 446 1965 454C1965 471 1955 482 1939 482C1910 482 1872 464 1811 421C1748 376 1713 341 1664 272L1694 409C1698 429 1701 444 1701 451C1701 470 1691 482 1675 482C1645 482 1599 460 1544 418C1500 384 1480 363 1415 275L1448 408C1452 424 1454 439 1454 451C1454 470 1445 482 1431 482C1410 482 1372 461 1298 408L1270 388L1277 368C1314 391 1349 414 1356 414C1367 414 1374 404 1374 389C1374 338 1333 145 1292 2L1295 -9L1363 6L1385 108C1409 219 1436 278 1491 338C1533 384 1578 414 1606 414C1613 414 1617 406 1617 393C1617 358 1595 244 1554 69L1538 2L1543 -9L1612 6L1633 113C1649 194 1683 269 1727 318C1782 379 1832 414 1864 414C1872 414 1877 405 1877 389C1877 365 1874 351 1852 264C1812 105 1796 84 1796 31C1796 6 1807 -9 1826 -9C1852 -9 1888 12 1986 85ZM2199 -11C2255 -11 2370 62 2413 125C2454 186 2488 296 2488 371C2488 438 2465 482 2429 482C2387 482 2334 456 2282 409C2241 374 2221 348 2185 289L2209 408C2212 425 2214 440 2214 452C2214 471 2206 482 2192 482C2171 482 2133 461 2059 408L2031 388L2038 368L2070 389C2098 407 2109 412 2118 412C2128 412 2135 403 2135 389C2135 381 2133 361 2131 351L2073 8C2063 -52 2044 -143 2024 -233L2016 -270L2023 -276C2044 -269 2064 -264 2096 -259L2138 3C2159 -4 2181 -11 2199 -11ZM2166 165C2188 293 2295 424 2378 424C2404 424 2416 402 2416 356C2416 275 2376 156 2323 80C2303 51 2271 36 2230 36C2199 36 2174 43 2148 59ZM2539 152C2539 46 2584 -11 2667 -11C2722 -11 2782 15 2827 57C2889 116 2933 230 2933 331C2933 425 2883 482 2800 482C2696 482 2539 382 2539 152ZM2763 444C2824 444 2857 399 2857 315C2857 219 2826 113 2782 60C2764 39 2738 27 2707 27C2649 27 2615 72 2615 151C2615 264 2654 387 2703 427C2716 438 2739 444 2763 444Z" stroke="rgb(0,0,0)" stroke-opacity="1" stroke-width="8" fill="rgb(0,0,0)" fill-opacity="1"></path></g></g></g></g></svg>