<svg xmlns="http://www.w3.org/2000/svg" xmlns:xlink="http://www.w3.org/1999/xlink" width="183.55000813802081" height="134.2750040690104" style="width:183.55000813802081px;height:134.2750040690104px;font-family:Asana-Math, Asana;background:#FFF;"><g><g><g><g transform="matrix(1,0,0,1,2,30.204996744791668)"><path transform="matrix(0.017,0,0,-0.017,0,0)" d="M2366 390L2310 107C2309 99 2297 61 2297 31C2297 6 2308 -9 2327 -9C2362 -9 2397 11 2475 74L2506 99L2496 117L2451 86C2422 66 2402 56 2391 56C2382 56 2377 64 2377 76C2377 102 2391 183 2420 328L2433 390L2540 390L2551 440C2513 436 2479 434 2441 434C2457 528 2468 577 2486 631L2475 646C2455 634 2428 622 2397 610L2372 440C2328 419 2302 408 2284 403L2282 390Z" stroke="rgb(0,0,0)" stroke-opacity="1" stroke-width="8" fill="rgb(0,0,0)" fill-opacity="1"></path></g></g><g><g><g><g><g transform="matrix(1,0,0,1,46.235026041666686,34.16500447591146)"><path transform="matrix(0.0119,0,0,-0.0119,0,0)" d="M328 111L304 94C251 56 203 36 167 36C120 36 91 73 91 133C91 158 94 185 99 214C116 218 225 248 250 259C335 296 374 342 374 404C374 451 340 482 290 482C222 496 112 423 75 349C45 299 15 180 15 113C15 35 59 -11 131 -11C188 -11 244 17 336 92ZM113 274C130 343 150 386 179 412C197 428 228 440 252 440C281 440 300 420 300 388C300 344 265 297 213 272C185 258 149 247 104 237Z" stroke="rgb(0,0,0)" stroke-opacity="1" stroke-width="8" fill="rgb(0,0,0)" fill-opacity="1"></path></g></g></g></g></g><g><g transform="matrix(1,0,0,1,56.975016276041686,30.204996744791668)"><path transform="matrix(0.017,0,0,-0.017,0,0)" d="M604 347L604 406L65 406L65 347ZM604 134L604 193L65 193L65 134Z" stroke="rgb(0,0,0)" stroke-opacity="1" stroke-width="8" fill="rgb(0,0,0)" fill-opacity="1"></path></g></g><g><g><g><g><g transform="matrix(1,0,0,1,95.36002604166669,18.039998372395836)"><path transform="matrix(0.017,0,0,-0.017,0,0)" d="M483 722L471 733C419 707 383 698 311 691L307 670L355 670C379 670 389 663 389 646C389 638 388 629 387 622L359 468C329 477 302 482 277 482C208 482 114 410 68 323C37 265 17 170 17 86C17 21 32 -11 61 -11C88 -11 125 6 159 33C213 77 246 116 313 217L290 126C279 82 274 50 274 24C274 3 283 -9 300 -9C317 -9 341 3 375 28L456 88L446 107L402 76C388 66 372 59 363 59C355 59 349 68 349 82C349 90 350 99 357 128ZM114 59C98 59 89 73 89 98C89 224 135 380 184 418C197 428 216 433 243 433C287 433 316 427 349 410L337 351C300 171 159 59 114 59Z" stroke="rgb(0,0,0)" stroke-opacity="1" stroke-width="8" fill="rgb(0,0,0)" fill-opacity="1"></path></g></g></g></g><g><g><g><g transform="matrix(1,0,0,1,75.125,43.375)"><path transform="matrix(0.017,0,0,-0.017,0,0)" d="M166 420C187 420 203 421 229 424C118 304 76 221 76 121C76 44 122 -11 186 -11C324 -11 477 236 477 384C477 441 451 482 415 482C402 482 390 478 382 470L332 423L343 404C352 410 361 413 370 413C397 413 413 390 413 350C413 202 316 39 228 39C179 39 148 81 148 146C148 251 187 342 285 464L275 482C255 473 242 470 214 470C186 470 144 472 115 475L103 476C97 477 92 477 91 477C79 477 70 475 59 470C45 443 34 407 21 352L43 352L60 394C67 411 87 422 111 422C144 422 128 420 166 420Z" stroke="rgb(0,0,0)" stroke-opacity="1" stroke-width="8" fill="rgb(0,0,0)" fill-opacity="1"></path></g></g><g><g><g><g><g transform="matrix(1,0,0,1,84.125,47.33499755859375)"><path transform="matrix(0.0119,0,0,-0.0119,0,0)" d="M271 204L242 77C238 60 236 42 236 26C236 4 245 -9 260 -9C283 -9 324 17 406 85L399 106C375 86 346 59 324 59C315 59 309 68 309 82C309 87 309 90 310 93L402 472L392 481L359 463C318 478 301 482 274 482C246 482 226 477 199 464C137 433 104 403 79 354C35 265 4 145 4 67C4 23 19 -11 38 -11C75 -11 155 41 271 204ZM319 414C297 305 278 253 244 201C187 117 126 59 94 59C82 59 76 72 76 99C76 163 104 280 139 360C163 415 186 433 234 433C257 433 275 429 319 414Z" stroke="rgb(0,0,0)" stroke-opacity="1" stroke-width="8" fill="rgb(0,0,0)" fill-opacity="1"></path></g></g></g></g></g><g><g transform="matrix(1,0,0,1,93.81502278645831,43.375)"><path transform="matrix(0.017,0,0,-0.017,0,0)" d="M604 241L604 300L364 300L364 538L305 538L305 300L65 300L65 241L305 241L305 0L364 0L364 241Z" stroke="rgb(0,0,0)" stroke-opacity="1" stroke-width="8" fill="rgb(0,0,0)" fill-opacity="1"></path></g></g><g><g transform="matrix(1,0,0,1,108.56005859375,43.375)"><path transform="matrix(0.017,0,0,-0.017,0,0)" d="M166 420C187 420 203 421 229 424C118 304 76 221 76 121C76 44 122 -11 186 -11C324 -11 477 236 477 384C477 441 451 482 415 482C402 482 390 478 382 470L332 423L343 404C352 410 361 413 370 413C397 413 413 390 413 350C413 202 316 39 228 39C179 39 148 81 148 146C148 251 187 342 285 464L275 482C255 473 242 470 214 470C186 470 144 472 115 475L103 476C97 477 92 477 91 477C79 477 70 475 59 470C45 443 34 407 21 352L43 352L60 394C67 411 87 422 111 422C144 422 128 420 166 420Z" stroke="rgb(0,0,0)" stroke-opacity="1" stroke-width="8" fill="rgb(0,0,0)" fill-opacity="1"></path></g></g><g><g><g><g><g transform="matrix(1,0,0,1,117.56005859375,47.33499755859375)"><path transform="matrix(0.0119,0,0,-0.0119,0,0)" d="M235 722L223 733C171 707 135 698 63 691L59 670L107 670C131 670 141 663 141 646C141 639 140 628 139 622L38 71C37 68 37 64 37 61C37 22 85 -11 140 -11C177 -11 228 8 271 39C367 107 433 244 433 376C433 414 424 453 412 468C405 477 392 482 377 482C353 482 323 474 295 460C244 433 211 403 149 324ZM322 424C348 424 361 401 361 352C361 288 340 202 310 137C277 68 237 36 183 36C137 36 112 59 112 101C112 135 127 276 208 361C241 395 293 424 322 424Z" stroke="rgb(0,0,0)" stroke-opacity="1" stroke-width="8" fill="rgb(0,0,0)" fill-opacity="1"></path></g></g></g></g></g></g></g><line style="fill:none;stroke-width:0.99px;stroke:rgb(0, 0, 0);" x1="75.125" y1="26.240000009536743" x2="124.08500162760419" y2="26.240000009536743"></line></g></g><g></g><g><g><g transform="matrix(1,0,0,1,2,85.0750020345052)"><path transform="matrix(0.017,0,0,-0.017,0,0)" d="M483 722L471 733C419 707 383 698 311 691L307 670L355 670C379 670 389 663 389 646C389 638 388 629 387 622L359 468C329 477 302 482 277 482C208 482 114 410 68 323C37 265 17 170 17 86C17 21 32 -11 61 -11C88 -11 125 6 159 33C213 77 246 116 313 217L290 126C279 82 274 50 274 24C274 3 283 -9 300 -9C317 -9 341 3 375 28L456 88L446 107L402 76C388 66 372 59 363 59C355 59 349 68 349 82C349 90 350 99 357 128ZM114 59C98 59 89 73 89 98C89 224 135 380 184 418C197 428 216 433 243 433C287 433 316 427 349 410L337 351C300 171 159 59 114 59Z" stroke="rgb(0,0,0)" stroke-opacity="1" stroke-width="8" fill="rgb(0,0,0)" fill-opacity="1"></path></g></g><g><g transform="matrix(1,0,0,1,13.880045572916686,85.0750020345052)"><path transform="matrix(0.017,0,0,-0.017,0,0)" d="M123 111C93 111 66 83 66 53C66 23 93 -5 122 -5C154 -5 182 22 182 53C182 83 154 111 123 111ZM123 456C93 456 66 428 66 398C66 368 93 340 122 340C154 340 182 367 182 397C182 428 154 456 123 456Z" stroke="rgb(0,0,0)" stroke-opacity="1" stroke-width="8" fill="rgb(0,0,0)" fill-opacity="1"></path></g></g><g><g transform="matrix(1,0,0,1,21.515055338541686,85.0750020345052)"><path transform="matrix(0.017,0,0,-0.017,0,0)" d="M732 722L720 733C668 707 632 698 560 691L556 670L604 670C628 670 638 663 638 646C638 638 637 629 636 622L608 468C578 477 551 482 526 482C457 482 363 410 317 323C286 265 266 170 266 86C266 21 281 -11 310 -11C337 -11 374 6 408 33C462 77 495 116 562 217L539 126C528 82 523 50 523 24C523 3 532 -9 549 -9C566 -9 590 3 624 28L705 88L695 107L651 76C637 66 621 59 612 59C604 59 598 68 598 82C598 90 599 99 606 128ZM363 59C347 59 338 73 338 98C338 224 384 380 433 418C446 428 465 433 492 433C536 433 565 427 598 410L586 351C549 171 408 59 363 59ZM782 388L789 368L821 389C858 412 861 414 868 414C878 414 886 404 886 391C886 384 882 361 878 347L812 107C804 76 799 49 799 30C799 6 810 -9 829 -9C855 -9 891 12 989 85L979 103L953 86C924 67 901 56 892 56C885 56 879 66 879 76C879 86 881 95 886 116L963 420C967 437 969 448 969 456C969 473 960 482 944 482C922 482 885 461 810 408ZM976 712C947 712 918 679 918 645C918 620 933 604 957 604C988 604 1012 633 1012 671C1012 695 997 712 976 712ZM1056 148C1051 97 1045 62 1034 16C1072 -2 1106 -11 1141 -11C1190 -11 1236 7 1287 47C1338 87 1359 124 1359 174C1359 228 1327 257 1253 271L1210 279C1150 290 1131 307 1131 348C1131 401 1176 442 1233 442C1274 442 1312 424 1328 397L1328 342L1351 342C1355 377 1359 404 1370 455C1331 474 1303 482 1270 482C1218 482 1157 452 1109 404C1083 377 1072 352 1072 316C1072 260 1103 228 1169 215L1232 203C1276 195 1292 177 1292 138C1292 73 1246 29 1175 29C1140 29 1109 40 1081 64L1081 148ZM1538 390L1482 107C1481 99 1469 61 1469 31C1469 6 1480 -9 1499 -9C1534 -9 1569 11 1647 74L1678 99L1668 117L1623 86C1594 66 1574 56 1563 56C1554 56 1549 64 1549 76C1549 102 1563 183 1592 328L1605 390L1712 390L1723 440C1685 436 1651 434 1613 434C1629 528 1640 577 1658 631L1647 646C1627 634 1600 622 1569 610L1544 440C1500 419 1474 408 1456 403L1454 390ZM2016 204L1987 77C1983 60 1981 42 1981 26C1981 4 1990 -9 2005 -9C2028 -9 2069 17 2151 85L2144 106C2120 86 2091 59 2069 59C2060 59 2054 68 2054 82C2054 87 2054 90 2055 93L2147 472L2137 481L2104 463C2063 478 2046 482 2019 482C1991 482 1971 477 1944 464C1882 433 1849 403 1824 354C1780 265 1749 145 1749 67C1749 23 1764 -11 1783 -11C1820 -11 1900 41 2016 204ZM2064 414C2042 305 2023 253 1989 201C1932 117 1871 59 1839 59C1827 59 1821 72 1821 99C1821 163 1849 280 1884 360C1908 415 1931 433 1979 433C2002 433 2020 429 2064 414ZM2212 388L2219 368L2251 389C2288 412 2291 414 2298 414C2309 414 2316 404 2316 389C2316 338 2275 145 2234 2L2241 -9C2266 -2 2289 4 2311 8C2330 134 2351 199 2397 268C2451 352 2526 414 2571 414C2582 414 2588 405 2588 390C2588 372 2585 351 2577 319L2525 107C2516 70 2512 47 2512 31C2512 6 2523 -9 2542 -9C2568 -9 2604 12 2702 85L2692 103L2666 86C2637 67 2615 56 2605 56C2598 56 2592 65 2592 76C2592 81 2593 92 2594 96L2660 372C2667 401 2671 429 2671 446C2671 469 2660 482 2640 482C2598 482 2529 444 2470 389C2432 354 2404 320 2352 247L2390 408C2394 426 2396 438 2396 449C2396 470 2388 482 2373 482C2352 482 2313 460 2240 408ZM3085 330L3108 330C3116 395 3123 432 3132 458C3108 473 3073 482 3036 482C2991 483 2918 463 2861 400C2807 352 2768 241 2768 136C2768 40 2810 -11 2890 -11C2944 -11 2992 9 3047 54L3097 95L3089 115L3074 105C3002 57 2964 40 2929 40C2873 40 2844 80 2844 159C2844 267 2879 371 2928 409C2949 425 2973 433 3004 433C3049 433 3085 414 3085 390ZM3183 388L3190 368L3222 389C3259 412 3262 414 3269 414C3279 414 3287 404 3287 391C3287 384 3283 361 3279 347L3213 107C3205 76 3200 49 3200 30C3200 6 3211 -9 3230 -9C3256 -9 3292 12 3390 85L3380 103L3354 86C3325 67 3302 56 3293 56C3286 56 3280 66 3280 76C3280 86 3282 95 3287 116L3364 420C3368 437 3370 448 3370 456C3370 473 3361 482 3345 482C3323 482 3286 461 3211 408ZM3377 712C3348 712 3319 679 3319 645C3319 620 3334 604 3358 604C3389 604 3413 633 3413 671C3413 695 3398 712 3377 712ZM3697 204L3668 77C3664 60 3662 42 3662 26C3662 4 3671 -9 3686 -9C3709 -9 3750 17 3832 85L3825 106C3801 86 3772 59 3750 59C3741 59 3735 68 3735 82C3735 87 3735 90 3736 93L3828 472L3818 481L3785 463C3744 478 3727 482 3700 482C3672 482 3652 477 3625 464C3563 433 3530 403 3505 354C3461 265 3430 145 3430 67C3430 23 3445 -11 3464 -11C3501 -11 3581 41 3697 204ZM3745 414C3723 305 3704 253 3670 201C3613 117 3552 59 3520 59C3508 59 3502 72 3502 99C3502 163 3530 280 3565 360C3589 415 3612 433 3660 433C3683 433 3701 429 3745 414Z" stroke="rgb(0,0,0)" stroke-opacity="1" stroke-width="8" fill="rgb(0,0,0)" fill-opacity="1"></path></g></g></g><g><g><g transform="matrix(1,0,0,1,2,105.23500569661458)"><path transform="matrix(0.017,0,0,-0.017,0,0)" d="M166 420C187 420 203 421 229 424C118 304 76 221 76 121C76 44 122 -11 186 -11C324 -11 477 236 477 384C477 441 451 482 415 482C402 482 390 478 382 470L332 423L343 404C352 410 361 413 370 413C397 413 413 390 413 350C413 202 316 39 228 39C179 39 148 81 148 146C148 251 187 342 285 464L275 482C255 473 242 470 214 470C186 470 144 472 115 475L103 476C97 477 92 477 91 477C79 477 70 475 59 470C45 443 34 407 21 352L43 352L60 394C67 411 87 422 111 422C144 422 128 420 166 420Z" stroke="rgb(0,0,0)" stroke-opacity="1" stroke-width="8" fill="rgb(0,0,0)" fill-opacity="1"></path></g></g><g><g><g><g><g transform="matrix(1,0,0,1,11,109.19500325520833)"><path transform="matrix(0.0119,0,0,-0.0119,0,0)" d="M271 204L242 77C238 60 236 42 236 26C236 4 245 -9 260 -9C283 -9 324 17 406 85L399 106C375 86 346 59 324 59C315 59 309 68 309 82C309 87 309 90 310 93L402 472L392 481L359 463C318 478 301 482 274 482C246 482 226 477 199 464C137 433 104 403 79 354C35 265 4 145 4 67C4 23 19 -11 38 -11C75 -11 155 41 271 204ZM319 414C297 305 278 253 244 201C187 117 126 59 94 59C82 59 76 72 76 99C76 163 104 280 139 360C163 415 186 433 234 433C257 433 275 429 319 414Z" stroke="rgb(0,0,0)" stroke-opacity="1" stroke-width="8" fill="rgb(0,0,0)" fill-opacity="1"></path></g></g></g></g></g><g><g transform="matrix(1,0,0,1,20.690022786458314,105.23500569661458)"><path transform="matrix(0.017,0,0,-0.017,0,0)" d="M123 111C93 111 66 83 66 53C66 23 93 -5 122 -5C154 -5 182 22 182 53C182 83 154 111 123 111ZM123 456C93 456 66 428 66 398C66 368 93 340 122 340C154 340 182 367 182 397C182 428 154 456 123 456Z" stroke="rgb(0,0,0)" stroke-opacity="1" stroke-width="8" fill="rgb(0,0,0)" fill-opacity="1"></path></g></g><g><g transform="matrix(1,0,0,1,28.325032552083314,105.23500569661458)"><path transform="matrix(0.017,0,0,-0.017,0,0)" d="M415 420C436 420 452 421 478 424C367 304 325 221 325 121C325 44 371 -11 435 -11C573 -11 726 236 726 384C726 441 700 482 664 482C651 482 639 478 631 470L581 423L592 404C601 410 610 413 619 413C646 413 662 390 662 350C662 202 565 39 477 39C428 39 397 81 397 146C397 251 436 342 534 464L524 482C504 473 491 470 463 470C435 470 393 472 364 475L352 476C346 477 341 477 340 477C328 477 319 475 308 470C294 443 283 407 270 352L292 352L309 394C316 411 336 422 360 422C393 422 377 420 415 420ZM1076 111L1052 94C999 56 951 36 915 36C868 36 839 73 839 133C839 158 842 185 847 214C864 218 973 248 998 259C1083 296 1122 342 1122 404C1122 451 1088 482 1038 482C970 496 860 423 823 349C793 299 763 180 763 113C763 35 807 -11 879 -11C936 -11 992 17 1084 92ZM861 274C878 343 898 386 927 412C945 428 976 440 1000 440C1029 440 1048 420 1048 388C1048 344 1013 297 961 272C933 258 897 247 852 237ZM1387 722L1375 733C1323 707 1287 698 1215 691L1211 670L1259 670C1283 670 1293 663 1293 648C1293 645 1293 640 1290 622C1279 567 1206 182 1191 132C1178 82 1172 52 1172 31C1172 6 1183 -9 1202 -9C1228 -9 1264 12 1362 85L1352 103L1326 86C1297 67 1275 56 1265 56C1258 56 1252 66 1252 76C1252 82 1253 89 1256 104ZM1430 152C1430 46 1475 -11 1558 -11C1613 -11 1673 15 1718 57C1780 116 1824 230 1824 331C1824 425 1774 482 1691 482C1587 482 1430 382 1430 152ZM1654 444C1715 444 1748 399 1748 315C1748 219 1717 113 1673 60C1655 39 1629 27 1598 27C1540 27 1506 72 1506 151C1506 264 1545 387 1594 427C1607 438 1630 444 1654 444ZM2198 330L2221 330C2229 395 2236 432 2245 458C2221 473 2186 482 2149 482C2104 483 2031 463 1974 400C1920 352 1881 241 1881 136C1881 40 1923 -11 2003 -11C2057 -11 2105 9 2160 54L2210 95L2202 115L2187 105C2115 57 2077 40 2042 40C1986 40 1957 80 1957 159C1957 267 1992 371 2041 409C2062 425 2086 433 2117 433C2162 433 2198 414 2198 390ZM2296 388L2303 368L2335 389C2372 412 2375 414 2382 414C2392 414 2400 404 2400 391C2400 384 2396 361 2392 347L2326 107C2318 76 2313 49 2313 30C2313 6 2324 -9 2343 -9C2369 -9 2405 12 2503 85L2493 103L2467 86C2438 67 2415 56 2406 56C2399 56 2393 66 2393 76C2393 86 2395 95 2400 116L2477 420C2481 437 2483 448 2483 456C2483 473 2474 482 2458 482C2436 482 2399 461 2324 408ZM2490 712C2461 712 2432 679 2432 645C2432 620 2447 604 2471 604C2502 604 2526 633 2526 671C2526 695 2511 712 2490 712ZM3022 722L3010 733C2958 707 2922 698 2850 691L2846 670L2894 670C2918 670 2928 663 2928 646C2928 638 2927 629 2926 622L2898 468C2868 477 2841 482 2816 482C2747 482 2653 410 2607 323C2576 265 2556 170 2556 86C2556 21 2571 -11 2600 -11C2627 -11 2664 6 2698 33C2752 77 2785 116 2852 217L2829 126C2818 82 2813 50 2813 24C2813 3 2822 -9 2839 -9C2856 -9 2880 3 2914 28L2995 88L2985 107L2941 76C2927 66 2911 59 2902 59C2894 59 2888 68 2888 82C2888 90 2889 99 2896 128ZM2653 59C2637 59 2628 73 2628 98C2628 224 2674 380 2723 418C2736 428 2755 433 2782 433C2826 433 2855 427 2888 410L2876 351C2839 171 2698 59 2653 59ZM3309 204L3280 77C3276 60 3274 42 3274 26C3274 4 3283 -9 3298 -9C3321 -9 3362 17 3444 85L3437 106C3413 86 3384 59 3362 59C3353 59 3347 68 3347 82C3347 87 3347 90 3348 93L3440 472L3430 481L3397 463C3356 478 3339 482 3312 482C3284 482 3264 477 3237 464C3175 433 3142 403 3117 354C3073 265 3042 145 3042 67C3042 23 3057 -11 3076 -11C3113 -11 3193 41 3309 204ZM3357 414C3335 305 3316 253 3282 201C3225 117 3164 59 3132 59C3120 59 3114 72 3114 99C3114 163 3142 280 3177 360C3201 415 3224 433 3272 433C3295 433 3313 429 3357 414ZM3964 722L3952 733C3900 707 3864 698 3792 691L3788 670L3836 670C3860 670 3870 663 3870 646C3870 638 3869 629 3868 622L3840 468C3810 477 3783 482 3758 482C3689 482 3595 410 3549 323C3518 265 3498 170 3498 86C3498 21 3513 -11 3542 -11C3569 -11 3606 6 3640 33C3694 77 3727 116 3794 217L3771 126C3760 82 3755 50 3755 24C3755 3 3764 -9 3781 -9C3798 -9 3822 3 3856 28L3937 88L3927 107L3883 76C3869 66 3853 59 3844 59C3836 59 3830 68 3830 82C3830 90 3831 99 3838 128ZM3595 59C3579 59 3570 73 3570 98C3570 224 3616 380 3665 418C3678 428 3697 433 3724 433C3768 433 3797 427 3830 410L3818 351C3781 171 3640 59 3595 59ZM4712 722L4700 733C4648 707 4612 698 4540 691L4536 670L4584 670C4608 670 4618 663 4618 646C4618 638 4617 629 4616 622L4588 468C4558 477 4531 482 4506 482C4437 482 4343 410 4297 323C4266 265 4246 170 4246 86C4246 21 4261 -11 4290 -11C4317 -11 4354 6 4388 33C4442 77 4475 116 4542 217L4519 126C4508 82 4503 50 4503 24C4503 3 4512 -9 4529 -9C4546 -9 4570 3 4604 28L4685 88L4675 107L4631 76C4617 66 4601 59 4592 59C4584 59 4578 68 4578 82C4578 90 4579 99 4586 128ZM4343 59C4327 59 4318 73 4318 98C4318 224 4364 380 4413 418C4426 428 4445 433 4472 433C4516 433 4545 427 4578 410L4566 351C4529 171 4388 59 4343 59ZM5056 111L5032 94C4979 56 4931 36 4895 36C4848 36 4819 73 4819 133C4819 158 4822 185 4827 214C4844 218 4953 248 4978 259C5063 296 5102 342 5102 404C5102 451 5068 482 5018 482C4950 496 4840 423 4803 349C4773 299 4743 180 4743 113C4743 35 4787 -11 4859 -11C4916 -11 4972 17 5064 92ZM4841 274C4858 343 4878 386 4907 412C4925 428 4956 440 4980 440C5009 440 5028 420 5028 388C5028 344 4993 297 4941 272C4913 258 4877 247 4832 237ZM5367 722L5355 733C5303 707 5267 698 5195 691L5191 670L5239 670C5263 670 5273 663 5273 648C5273 645 5273 640 5270 622C5259 567 5186 182 5171 132C5158 82 5152 52 5152 31C5152 6 5163 -9 5182 -9C5208 -9 5244 12 5342 85L5332 103L5306 86C5277 67 5255 56 5245 56C5238 56 5232 66 5232 76C5232 82 5233 89 5236 104ZM6372 103L6346 86C6317 67 6295 56 6285 56C6278 56 6272 65 6272 76C6272 86 6274 95 6279 116L6354 413C6358 430 6361 446 6361 454C6361 471 6351 482 6335 482C6306 482 6268 464 6207 421C6144 376 6109 341 6060 272L6090 409C6094 429 6097 444 6097 451C6097 470 6087 482 6071 482C6041 482 5995 460 5940 418C5896 384 5876 363 5811 275L5844 408C5848 424 5850 439 5850 451C5850 470 5841 482 5827 482C5806 482 5768 461 5694 408L5666 388L5673 368C5710 391 5745 414 5752 414C5763 414 5770 404 5770 389C5770 338 5729 145 5688 2L5691 -9L5759 6L5781 108C5805 219 5832 278 5887 338C5929 384 5974 414 6002 414C6009 414 6013 406 6013 393C6013 358 5991 244 5950 69L5934 2L5939 -9L6008 6L6029 113C6045 194 6079 269 6123 318C6178 379 6228 414 6260 414C6268 414 6273 405 6273 389C6273 365 6270 351 6248 264C6208 105 6192 84 6192 31C6192 6 6203 -9 6222 -9C6248 -9 6284 12 6382 85ZM6698 469C6552 469 6451 366 6451 217C6451 76 6540 -20 6669 -20C6823 -20 6933 87 6933 237C6933 372 6835 469 6698 469ZM6680 436C6772 436 6840 336 6840 200C6840 85 6789 13 6708 13C6610 13 6544 109 6544 251C6544 371 6592 436 6680 436ZM6598 506L6638 506L6782 596C6815 617 6822 625 6822 643C6822 662 6808 677 6791 677C6776 677 6758 666 6736 644ZM7130 420C7151 420 7167 421 7193 424C7082 304 7040 221 7040 121C7040 44 7086 -11 7150 -11C7288 -11 7441 236 7441 384C7441 441 7415 482 7379 482C7366 482 7354 478 7346 470L7296 423L7307 404C7316 410 7325 413 7334 413C7361 413 7377 390 7377 350C7377 202 7280 39 7192 39C7143 39 7112 81 7112 146C7112 251 7151 342 7249 464L7239 482C7219 473 7206 470 7178 470C7150 470 7108 472 7079 475L7067 476C7061 477 7056 477 7055 477C7043 477 7034 475 7023 470C7009 443 6998 407 6985 352L7007 352L7024 394C7031 411 7051 422 7075 422C7108 422 7092 420 7130 420ZM7497 388L7504 368L7536 389C7573 412 7576 414 7583 414C7593 414 7601 404 7601 391C7601 384 7597 361 7593 347L7527 107C7519 76 7514 49 7514 30C7514 6 7525 -9 7544 -9C7570 -9 7606 12 7704 85L7694 103L7668 86C7639 67 7616 56 7607 56C7600 56 7594 66 7594 76C7594 86 7596 95 7601 116L7678 420C7682 437 7684 448 7684 456C7684 473 7675 482 7659 482C7637 482 7600 461 7525 408ZM7691 712C7662 712 7633 679 7633 645C7633 620 7648 604 7672 604C7703 604 7727 633 7727 671C7727 695 7712 712 7691 712ZM7991 722L7979 733C7927 707 7891 698 7819 691L7815 670L7863 670C7887 670 7897 663 7897 648C7897 645 7897 640 7894 622C7883 567 7810 182 7795 132C7782 82 7776 52 7776 31C7776 6 7787 -9 7806 -9C7832 -9 7868 12 7966 85L7956 103L7930 86C7901 67 7879 56 7869 56C7862 56 7856 66 7856 76C7856 82 7857 89 7860 104ZM8833 55C8833 39 8818 30 8790 28L8746 25L8746 -3C8848 0 8848 0 8868 0C8888 0 8888 0 8990 -3L8990 25L8964 28C8917 35 8916 35 8908 80L8821 705L8775 705L8402 112C8366 56 8348 40 8314 32L8294 27L8294 -3C8386 0 8386 0 8406 0C8425 0 8427 0 8513 -3L8513 25L8461 28C8445 29 8430 38 8430 47C8430 55 8437 69 8456 102L8558 277L8804 277L8829 89L8829 86C8829 84 8833 69 8833 55ZM8762 601L8799 313L8583 313Z" stroke="rgb(0,0,0)" stroke-opacity="1" stroke-width="8" fill="rgb(0,0,0)" fill-opacity="1"></path></g></g></g><g><g><g transform="matrix(1,0,0,1,2,126.77500406901042)"><path transform="matrix(0.017,0,0,-0.017,0,0)" d="M166 420C187 420 203 421 229 424C118 304 76 221 76 121C76 44 122 -11 186 -11C324 -11 477 236 477 384C477 441 451 482 415 482C402 482 390 478 382 470L332 423L343 404C352 410 361 413 370 413C397 413 413 390 413 350C413 202 316 39 228 39C179 39 148 81 148 146C148 251 187 342 285 464L275 482C255 473 242 470 214 470C186 470 144 472 115 475L103 476C97 477 92 477 91 477C79 477 70 475 59 470C45 443 34 407 21 352L43 352L60 394C67 411 87 422 111 422C144 422 128 420 166 420Z" stroke="rgb(0,0,0)" stroke-opacity="1" stroke-width="8" fill="rgb(0,0,0)" fill-opacity="1"></path></g></g><g><g><g><g><g transform="matrix(1,0,0,1,11,130.73500162760416)"><path transform="matrix(0.0119,0,0,-0.0119,0,0)" d="M235 722L223 733C171 707 135 698 63 691L59 670L107 670C131 670 141 663 141 646C141 639 140 628 139 622L38 71C37 68 37 64 37 61C37 22 85 -11 140 -11C177 -11 228 8 271 39C367 107 433 244 433 376C433 414 424 453 412 468C405 477 392 482 377 482C353 482 323 474 295 460C244 433 211 403 149 324ZM322 424C348 424 361 401 361 352C361 288 340 202 310 137C277 68 237 36 183 36C137 36 112 59 112 101C112 135 127 276 208 361C241 395 293 424 322 424Z" stroke="rgb(0,0,0)" stroke-opacity="1" stroke-width="8" fill="rgb(0,0,0)" fill-opacity="1"></path></g></g></g></g></g><g><g transform="matrix(1,0,0,1,20.9150390625,126.77500406901042)"><path transform="matrix(0.017,0,0,-0.017,0,0)" d="M123 111C93 111 66 83 66 53C66 23 93 -5 122 -5C154 -5 182 22 182 53C182 83 154 111 123 111ZM123 456C93 456 66 428 66 398C66 368 93 340 122 340C154 340 182 367 182 397C182 428 154 456 123 456Z" stroke="rgb(0,0,0)" stroke-opacity="1" stroke-width="8" fill="rgb(0,0,0)" fill-opacity="1"></path></g></g><g><g transform="matrix(1,0,0,1,28.550048828125,126.77500406901042)"><path transform="matrix(0.017,0,0,-0.017,0,0)" d="M415 420C436 420 452 421 478 424C367 304 325 221 325 121C325 44 371 -11 435 -11C573 -11 726 236 726 384C726 441 700 482 664 482C651 482 639 478 631 470L581 423L592 404C601 410 610 413 619 413C646 413 662 390 662 350C662 202 565 39 477 39C428 39 397 81 397 146C397 251 436 342 534 464L524 482C504 473 491 470 463 470C435 470 393 472 364 475L352 476C346 477 341 477 340 477C328 477 319 475 308 470C294 443 283 407 270 352L292 352L309 394C316 411 336 422 360 422C393 422 377 420 415 420ZM1076 111L1052 94C999 56 951 36 915 36C868 36 839 73 839 133C839 158 842 185 847 214C864 218 973 248 998 259C1083 296 1122 342 1122 404C1122 451 1088 482 1038 482C970 496 860 423 823 349C793 299 763 180 763 113C763 35 807 -11 879 -11C936 -11 992 17 1084 92ZM861 274C878 343 898 386 927 412C945 428 976 440 1000 440C1029 440 1048 420 1048 388C1048 344 1013 297 961 272C933 258 897 247 852 237ZM1387 722L1375 733C1323 707 1287 698 1215 691L1211 670L1259 670C1283 670 1293 663 1293 648C1293 645 1293 640 1290 622C1279 567 1206 182 1191 132C1178 82 1172 52 1172 31C1172 6 1183 -9 1202 -9C1228 -9 1264 12 1362 85L1352 103L1326 86C1297 67 1275 56 1265 56C1258 56 1252 66 1252 76C1252 82 1253 89 1256 104ZM1430 152C1430 46 1475 -11 1558 -11C1613 -11 1673 15 1718 57C1780 116 1824 230 1824 331C1824 425 1774 482 1691 482C1587 482 1430 382 1430 152ZM1654 444C1715 444 1748 399 1748 315C1748 219 1717 113 1673 60C1655 39 1629 27 1598 27C1540 27 1506 72 1506 151C1506 264 1545 387 1594 427C1607 438 1630 444 1654 444ZM2198 330L2221 330C2229 395 2236 432 2245 458C2221 473 2186 482 2149 482C2104 483 2031 463 1974 400C1920 352 1881 241 1881 136C1881 40 1923 -11 2003 -11C2057 -11 2105 9 2160 54L2210 95L2202 115L2187 105C2115 57 2077 40 2042 40C1986 40 1957 80 1957 159C1957 267 1992 371 2041 409C2062 425 2086 433 2117 433C2162 433 2198 414 2198 390ZM2296 388L2303 368L2335 389C2372 412 2375 414 2382 414C2392 414 2400 404 2400 391C2400 384 2396 361 2392 347L2326 107C2318 76 2313 49 2313 30C2313 6 2324 -9 2343 -9C2369 -9 2405 12 2503 85L2493 103L2467 86C2438 67 2415 56 2406 56C2399 56 2393 66 2393 76C2393 86 2395 95 2400 116L2477 420C2481 437 2483 448 2483 456C2483 473 2474 482 2458 482C2436 482 2399 461 2324 408ZM2490 712C2461 712 2432 679 2432 645C2432 620 2447 604 2471 604C2502 604 2526 633 2526 671C2526 695 2511 712 2490 712ZM3022 722L3010 733C2958 707 2922 698 2850 691L2846 670L2894 670C2918 670 2928 663 2928 646C2928 638 2927 629 2926 622L2898 468C2868 477 2841 482 2816 482C2747 482 2653 410 2607 323C2576 265 2556 170 2556 86C2556 21 2571 -11 2600 -11C2627 -11 2664 6 2698 33C2752 77 2785 116 2852 217L2829 126C2818 82 2813 50 2813 24C2813 3 2822 -9 2839 -9C2856 -9 2880 3 2914 28L2995 88L2985 107L2941 76C2927 66 2911 59 2902 59C2894 59 2888 68 2888 82C2888 90 2889 99 2896 128ZM2653 59C2637 59 2628 73 2628 98C2628 224 2674 380 2723 418C2736 428 2755 433 2782 433C2826 433 2855 427 2888 410L2876 351C2839 171 2698 59 2653 59ZM3309 204L3280 77C3276 60 3274 42 3274 26C3274 4 3283 -9 3298 -9C3321 -9 3362 17 3444 85L3437 106C3413 86 3384 59 3362 59C3353 59 3347 68 3347 82C3347 87 3347 90 3348 93L3440 472L3430 481L3397 463C3356 478 3339 482 3312 482C3284 482 3264 477 3237 464C3175 433 3142 403 3117 354C3073 265 3042 145 3042 67C3042 23 3057 -11 3076 -11C3113 -11 3193 41 3309 204ZM3357 414C3335 305 3316 253 3282 201C3225 117 3164 59 3132 59C3120 59 3114 72 3114 99C3114 163 3142 280 3177 360C3201 415 3224 433 3272 433C3295 433 3313 429 3357 414ZM3964 722L3952 733C3900 707 3864 698 3792 691L3788 670L3836 670C3860 670 3870 663 3870 646C3870 638 3869 629 3868 622L3840 468C3810 477 3783 482 3758 482C3689 482 3595 410 3549 323C3518 265 3498 170 3498 86C3498 21 3513 -11 3542 -11C3569 -11 3606 6 3640 33C3694 77 3727 116 3794 217L3771 126C3760 82 3755 50 3755 24C3755 3 3764 -9 3781 -9C3798 -9 3822 3 3856 28L3937 88L3927 107L3883 76C3869 66 3853 59 3844 59C3836 59 3830 68 3830 82C3830 90 3831 99 3838 128ZM3595 59C3579 59 3570 73 3570 98C3570 224 3616 380 3665 418C3678 428 3697 433 3724 433C3768 433 3797 427 3830 410L3818 351C3781 171 3640 59 3595 59ZM4712 722L4700 733C4648 707 4612 698 4540 691L4536 670L4584 670C4608 670 4618 663 4618 646C4618 638 4617 629 4616 622L4588 468C4558 477 4531 482 4506 482C4437 482 4343 410 4297 323C4266 265 4246 170 4246 86C4246 21 4261 -11 4290 -11C4317 -11 4354 6 4388 33C4442 77 4475 116 4542 217L4519 126C4508 82 4503 50 4503 24C4503 3 4512 -9 4529 -9C4546 -9 4570 3 4604 28L4685 88L4675 107L4631 76C4617 66 4601 59 4592 59C4584 59 4578 68 4578 82C4578 90 4579 99 4586 128ZM4343 59C4327 59 4318 73 4318 98C4318 224 4364 380 4413 418C4426 428 4445 433 4472 433C4516 433 4545 427 4578 410L4566 351C4529 171 4388 59 4343 59ZM5056 111L5032 94C4979 56 4931 36 4895 36C4848 36 4819 73 4819 133C4819 158 4822 185 4827 214C4844 218 4953 248 4978 259C5063 296 5102 342 5102 404C5102 451 5068 482 5018 482C4950 496 4840 423 4803 349C4773 299 4743 180 4743 113C4743 35 4787 -11 4859 -11C4916 -11 4972 17 5064 92ZM4841 274C4858 343 4878 386 4907 412C4925 428 4956 440 4980 440C5009 440 5028 420 5028 388C5028 344 4993 297 4941 272C4913 258 4877 247 4832 237ZM5367 722L5355 733C5303 707 5267 698 5195 691L5191 670L5239 670C5263 670 5273 663 5273 648C5273 645 5273 640 5270 622C5259 567 5186 182 5171 132C5158 82 5152 52 5152 31C5152 6 5163 -9 5182 -9C5208 -9 5244 12 5342 85L5332 103L5306 86C5277 67 5255 56 5245 56C5238 56 5232 66 5232 76C5232 82 5233 89 5236 104ZM6372 103L6346 86C6317 67 6295 56 6285 56C6278 56 6272 65 6272 76C6272 86 6274 95 6279 116L6354 413C6358 430 6361 446 6361 454C6361 471 6351 482 6335 482C6306 482 6268 464 6207 421C6144 376 6109 341 6060 272L6090 409C6094 429 6097 444 6097 451C6097 470 6087 482 6071 482C6041 482 5995 460 5940 418C5896 384 5876 363 5811 275L5844 408C5848 424 5850 439 5850 451C5850 470 5841 482 5827 482C5806 482 5768 461 5694 408L5666 388L5673 368C5710 391 5745 414 5752 414C5763 414 5770 404 5770 389C5770 338 5729 145 5688 2L5691 -9L5759 6L5781 108C5805 219 5832 278 5887 338C5929 384 5974 414 6002 414C6009 414 6013 406 6013 393C6013 358 5991 244 5950 69L5934 2L5939 -9L6008 6L6029 113C6045 194 6079 269 6123 318C6178 379 6228 414 6260 414C6268 414 6273 405 6273 389C6273 365 6270 351 6248 264C6208 105 6192 84 6192 31C6192 6 6203 -9 6222 -9C6248 -9 6284 12 6382 85ZM6698 469C6552 469 6451 366 6451 217C6451 76 6540 -20 6669 -20C6823 -20 6933 87 6933 237C6933 372 6835 469 6698 469ZM6680 436C6772 436 6840 336 6840 200C6840 85 6789 13 6708 13C6610 13 6544 109 6544 251C6544 371 6592 436 6680 436ZM6598 506L6638 506L6782 596C6815 617 6822 625 6822 643C6822 662 6808 677 6791 677C6776 677 6758 666 6736 644ZM7130 420C7151 420 7167 421 7193 424C7082 304 7040 221 7040 121C7040 44 7086 -11 7150 -11C7288 -11 7441 236 7441 384C7441 441 7415 482 7379 482C7366 482 7354 478 7346 470L7296 423L7307 404C7316 410 7325 413 7334 413C7361 413 7377 390 7377 350C7377 202 7280 39 7192 39C7143 39 7112 81 7112 146C7112 251 7151 342 7249 464L7239 482C7219 473 7206 470 7178 470C7150 470 7108 472 7079 475L7067 476C7061 477 7056 477 7055 477C7043 477 7034 475 7023 470C7009 443 6998 407 6985 352L7007 352L7024 394C7031 411 7051 422 7075 422C7108 422 7092 420 7130 420ZM7497 388L7504 368L7536 389C7573 412 7576 414 7583 414C7593 414 7601 404 7601 391C7601 384 7597 361 7593 347L7527 107C7519 76 7514 49 7514 30C7514 6 7525 -9 7544 -9C7570 -9 7606 12 7704 85L7694 103L7668 86C7639 67 7616 56 7607 56C7600 56 7594 66 7594 76C7594 86 7596 95 7601 116L7678 420C7682 437 7684 448 7684 456C7684 473 7675 482 7659 482C7637 482 7600 461 7525 408ZM7691 712C7662 712 7633 679 7633 645C7633 620 7648 604 7672 604C7703 604 7727 633 7727 671C7727 695 7712 712 7691 712ZM7991 722L7979 733C7927 707 7891 698 7819 691L7815 670L7863 670C7887 670 7897 663 7897 648C7897 645 7897 640 7894 622C7883 567 7810 182 7795 132C7782 82 7776 52 7776 31C7776 6 7787 -9 7806 -9C7832 -9 7868 12 7966 85L7956 103L7930 86C7901 67 7879 56 7869 56C7862 56 7856 66 7856 76C7856 82 7857 89 7860 104ZM8809 227C8809 337 8725 353 8643 365C8700 385 8725 397 8756 425C8802 464 8825 511 8825 562C8825 644 8767 692 8667 692C8665 692 8655 692 8640 691L8577 690C8565 689 8529 689 8517 689C8498 689 8467 690 8418 691L8366 692L8363 664L8416 662C8440 661 8451 653 8451 635C8451 621 8447 589 8442 559L8355 55C8351 37 8339 30 8297 23L8292 -3L8329 -2C8356 0 8371 0 8383 0C8394 0 8420 -1 8446 -2L8483 -3L8503 -4C8522 -5 8535 -6 8543 -6C8658 -6 8809 87 8809 227ZM8432 41L8483 340L8568 340C8671 340 8721 298 8721 211C8721 108 8648 34 8548 34C8494 34 8473 38 8432 41ZM8618 655C8699 655 8739 619 8739 544C8739 439 8665 376 8541 376L8489 376L8538 650C8554 650 8595 655 8618 655Z" stroke="rgb(0,0,0)" stroke-opacity="1" stroke-width="8" fill="rgb(0,0,0)" fill-opacity="1"></path></g></g></g></g></svg>