<svg xmlns="http://www.w3.org/2000/svg" xmlns:xlink="http://www.w3.org/1999/xlink" width="91.15000406901044" height="106.97500610351562" style="width:91.15000406901044px;height:106.97500610351562px;font-family:Asana-Math, Asana;background:#FFF;"><g><g><g><g transform="matrix(1,0,0,1,2,30.204996744791668)"><path transform="matrix(0.017,0,0,-0.017,0,0)" d="M1370 390L1314 107C1313 99 1301 61 1301 31C1301 6 1312 -9 1331 -9C1366 -9 1401 11 1479 74L1510 99L1500 117L1455 86C1426 66 1406 56 1395 56C1386 56 1381 64 1381 76C1381 102 1395 183 1424 328L1437 390L1544 390L1555 440C1517 436 1483 434 1445 434C1461 528 1472 577 1490 631L1479 646C1459 634 1432 622 1401 610L1376 440C1332 419 1306 408 1288 403L1286 390Z" stroke="rgb(0,0,0)" stroke-opacity="1" stroke-width="8" fill="rgb(0,0,0)" fill-opacity="1"></path></g></g><g><g transform="matrix(1,0,0,1,33.905029296875,30.204996744791668)"><path transform="matrix(0.017,0,0,-0.017,0,0)" d="M604 347L604 406L65 406L65 347ZM604 134L604 193L65 193L65 134Z" stroke="rgb(0,0,0)" stroke-opacity="1" stroke-width="8" fill="rgb(0,0,0)" fill-opacity="1"></path></g></g><g><g><g><g><g transform="matrix(1,0,0,1,52.05501302083337,18.039998372395836)"><path transform="matrix(0.017,0,0,-0.017,0,0)" d="M483 722L471 733C419 707 383 698 311 691L307 670L355 670C379 670 389 663 389 646C389 638 388 629 387 622L359 468C329 477 302 482 277 482C208 482 114 410 68 323C37 265 17 170 17 86C17 21 32 -11 61 -11C88 -11 125 6 159 33C213 77 246 116 313 217L290 126C279 82 274 50 274 24C274 3 283 -9 300 -9C317 -9 341 3 375 28L456 88L446 107L402 76C388 66 372 59 363 59C355 59 349 68 349 82C349 90 350 99 357 128ZM114 59C98 59 89 73 89 98C89 224 135 380 184 418C197 428 216 433 243 433C287 433 316 427 349 410L337 351C300 171 159 59 114 59Z" stroke="rgb(0,0,0)" stroke-opacity="1" stroke-width="8" fill="rgb(0,0,0)" fill-opacity="1"></path></g></g></g></g><g><g><g><g transform="matrix(1,0,0,1,52.05501302083337,43.375)"><path transform="matrix(0.017,0,0,-0.017,0,0)" d="M166 420C187 420 203 421 229 424C118 304 76 221 76 121C76 44 122 -11 186 -11C324 -11 477 236 477 384C477 441 451 482 415 482C402 482 390 478 382 470L332 423L343 404C352 410 361 413 370 413C397 413 413 390 413 350C413 202 316 39 228 39C179 39 148 81 148 146C148 251 187 342 285 464L275 482C255 473 242 470 214 470C186 470 144 472 115 475L103 476C97 477 92 477 91 477C79 477 70 475 59 470C45 443 34 407 21 352L43 352L60 394C67 411 87 422 111 422C144 422 128 420 166 420Z" stroke="rgb(0,0,0)" stroke-opacity="1" stroke-width="8" fill="rgb(0,0,0)" fill-opacity="1"></path></g></g></g></g><line style="fill:none;stroke-width:0.99px;stroke:rgb(0, 0, 0);" x1="52.05501302083337" y1="26.240000009536743" x2="60.545013427734375" y2="26.240000009536743"></line></g></g><g></g><g><g><g transform="matrix(1,0,0,1,2,80.6949971516927)"><path transform="matrix(0.017,0,0,-0.017,0,0)" d="M483 722L471 733C419 707 383 698 311 691L307 670L355 670C379 670 389 663 389 646C389 638 388 629 387 622L359 468C329 477 302 482 277 482C208 482 114 410 68 323C37 265 17 170 17 86C17 21 32 -11 61 -11C88 -11 125 6 159 33C213 77 246 116 313 217L290 126C279 82 274 50 274 24C274 3 283 -9 300 -9C317 -9 341 3 375 28L456 88L446 107L402 76C388 66 372 59 363 59C355 59 349 68 349 82C349 90 350 99 357 128ZM114 59C98 59 89 73 89 98C89 224 135 380 184 418C197 428 216 433 243 433C287 433 316 427 349 410L337 351C300 171 159 59 114 59Z" stroke="rgb(0,0,0)" stroke-opacity="1" stroke-width="8" fill="rgb(0,0,0)" fill-opacity="1"></path></g></g><g><g transform="matrix(1,0,0,1,13.879964192708371,80.6949971516927)"><path transform="matrix(0.017,0,0,-0.017,0,0)" d="M123 111C93 111 66 83 66 53C66 23 93 -5 122 -5C154 -5 182 22 182 53C182 83 154 111 123 111ZM123 456C93 456 66 428 66 398C66 368 93 340 122 340C154 340 182 367 182 397C182 428 154 456 123 456Z" stroke="rgb(0,0,0)" stroke-opacity="1" stroke-width="8" fill="rgb(0,0,0)" fill-opacity="1"></path></g></g><g><g transform="matrix(1,0,0,1,21.51497395833337,80.6949971516927)"><path transform="matrix(0.017,0,0,-0.017,0,0)" d="M732 722L720 733C668 707 632 698 560 691L556 670L604 670C628 670 638 663 638 646C638 638 637 629 636 622L608 468C578 477 551 482 526 482C457 482 363 410 317 323C286 265 266 170 266 86C266 21 281 -11 310 -11C337 -11 374 6 408 33C462 77 495 116 562 217L539 126C528 82 523 50 523 24C523 3 532 -9 549 -9C566 -9 590 3 624 28L705 88L695 107L651 76C637 66 621 59 612 59C604 59 598 68 598 82C598 90 599 99 606 128ZM363 59C347 59 338 73 338 98C338 224 384 380 433 418C446 428 465 433 492 433C536 433 565 427 598 410L586 351C549 171 408 59 363 59ZM782 388L789 368L821 389C858 412 861 414 868 414C878 414 886 404 886 391C886 384 882 361 878 347L812 107C804 76 799 49 799 30C799 6 810 -9 829 -9C855 -9 891 12 989 85L979 103L953 86C924 67 901 56 892 56C885 56 879 66 879 76C879 86 881 95 886 116L963 420C967 437 969 448 969 456C969 473 960 482 944 482C922 482 885 461 810 408ZM976 712C947 712 918 679 918 645C918 620 933 604 957 604C988 604 1012 633 1012 671C1012 695 997 712 976 712ZM1056 148C1051 97 1045 62 1034 16C1072 -2 1106 -11 1141 -11C1190 -11 1236 7 1287 47C1338 87 1359 124 1359 174C1359 228 1327 257 1253 271L1210 279C1150 290 1131 307 1131 348C1131 401 1176 442 1233 442C1274 442 1312 424 1328 397L1328 342L1351 342C1355 377 1359 404 1370 455C1331 474 1303 482 1270 482C1218 482 1157 452 1109 404C1083 377 1072 352 1072 316C1072 260 1103 228 1169 215L1232 203C1276 195 1292 177 1292 138C1292 73 1246 29 1175 29C1140 29 1109 40 1081 64L1081 148ZM1538 390L1482 107C1481 99 1469 61 1469 31C1469 6 1480 -9 1499 -9C1534 -9 1569 11 1647 74L1678 99L1668 117L1623 86C1594 66 1574 56 1563 56C1554 56 1549 64 1549 76C1549 102 1563 183 1592 328L1605 390L1712 390L1723 440C1685 436 1651 434 1613 434C1629 528 1640 577 1658 631L1647 646C1627 634 1600 622 1569 610L1544 440C1500 419 1474 408 1456 403L1454 390ZM2016 204L1987 77C1983 60 1981 42 1981 26C1981 4 1990 -9 2005 -9C2028 -9 2069 17 2151 85L2144 106C2120 86 2091 59 2069 59C2060 59 2054 68 2054 82C2054 87 2054 90 2055 93L2147 472L2137 481L2104 463C2063 478 2046 482 2019 482C1991 482 1971 477 1944 464C1882 433 1849 403 1824 354C1780 265 1749 145 1749 67C1749 23 1764 -11 1783 -11C1820 -11 1900 41 2016 204ZM2064 414C2042 305 2023 253 1989 201C1932 117 1871 59 1839 59C1827 59 1821 72 1821 99C1821 163 1849 280 1884 360C1908 415 1931 433 1979 433C2002 433 2020 429 2064 414ZM2212 388L2219 368L2251 389C2288 412 2291 414 2298 414C2309 414 2316 404 2316 389C2316 338 2275 145 2234 2L2241 -9C2266 -2 2289 4 2311 8C2330 134 2351 199 2397 268C2451 352 2526 414 2571 414C2582 414 2588 405 2588 390C2588 372 2585 351 2577 319L2525 107C2516 70 2512 47 2512 31C2512 6 2523 -9 2542 -9C2568 -9 2604 12 2702 85L2692 103L2666 86C2637 67 2615 56 2605 56C2598 56 2592 65 2592 76C2592 81 2593 92 2594 96L2660 372C2667 401 2671 429 2671 446C2671 469 2660 482 2640 482C2598 482 2529 444 2470 389C2432 354 2404 320 2352 247L2390 408C2394 426 2396 438 2396 449C2396 470 2388 482 2373 482C2352 482 2313 460 2240 408ZM3085 330L3108 330C3116 395 3123 432 3132 458C3108 473 3073 482 3036 482C2991 483 2918 463 2861 400C2807 352 2768 241 2768 136C2768 40 2810 -11 2890 -11C2944 -11 2992 9 3047 54L3097 95L3089 115L3074 105C3002 57 2964 40 2929 40C2873 40 2844 80 2844 159C2844 267 2879 371 2928 409C2949 425 2973 433 3004 433C3049 433 3085 414 3085 390ZM3183 388L3190 368L3222 389C3259 412 3262 414 3269 414C3279 414 3287 404 3287 391C3287 384 3283 361 3279 347L3213 107C3205 76 3200 49 3200 30C3200 6 3211 -9 3230 -9C3256 -9 3292 12 3390 85L3380 103L3354 86C3325 67 3302 56 3293 56C3286 56 3280 66 3280 76C3280 86 3282 95 3287 116L3364 420C3368 437 3370 448 3370 456C3370 473 3361 482 3345 482C3323 482 3286 461 3211 408ZM3377 712C3348 712 3319 679 3319 645C3319 620 3334 604 3358 604C3389 604 3413 633 3413 671C3413 695 3398 712 3377 712ZM3697 204L3668 77C3664 60 3662 42 3662 26C3662 4 3671 -9 3686 -9C3709 -9 3750 17 3832 85L3825 106C3801 86 3772 59 3750 59C3741 59 3735 68 3735 82C3735 87 3735 90 3736 93L3828 472L3818 481L3785 463C3744 478 3727 482 3700 482C3672 482 3652 477 3625 464C3563 433 3530 403 3505 354C3461 265 3430 145 3430 67C3430 23 3445 -11 3464 -11C3501 -11 3581 41 3697 204ZM3745 414C3723 305 3704 253 3670 201C3613 117 3552 59 3520 59C3508 59 3502 72 3502 99C3502 163 3530 280 3565 360C3589 415 3612 433 3660 433C3683 433 3701 429 3745 414Z" stroke="rgb(0,0,0)" stroke-opacity="1" stroke-width="8" fill="rgb(0,0,0)" fill-opacity="1"></path></g></g></g><g><g><g transform="matrix(1,0,0,1,2,100.85500081380208)"><path transform="matrix(0.017,0,0,-0.017,0,0)" d="M166 420C187 420 203 421 229 424C118 304 76 221 76 121C76 44 122 -11 186 -11C324 -11 477 236 477 384C477 441 451 482 415 482C402 482 390 478 382 470L332 423L343 404C352 410 361 413 370 413C397 413 413 390 413 350C413 202 316 39 228 39C179 39 148 81 148 146C148 251 187 342 285 464L275 482C255 473 242 470 214 470C186 470 144 472 115 475L103 476C97 477 92 477 91 477C79 477 70 475 59 470C45 443 34 407 21 352L43 352L60 394C67 411 87 422 111 422C144 422 128 420 166 420Z" stroke="rgb(0,0,0)" stroke-opacity="1" stroke-width="8" fill="rgb(0,0,0)" fill-opacity="1"></path></g></g><g><g transform="matrix(1,0,0,1,13.879964192708371,100.85500081380208)"><path transform="matrix(0.017,0,0,-0.017,0,0)" d="M123 111C93 111 66 83 66 53C66 23 93 -5 122 -5C154 -5 182 22 182 53C182 83 154 111 123 111ZM123 456C93 456 66 428 66 398C66 368 93 340 122 340C154 340 182 367 182 397C182 428 154 456 123 456Z" stroke="rgb(0,0,0)" stroke-opacity="1" stroke-width="8" fill="rgb(0,0,0)" fill-opacity="1"></path></g></g><g><g transform="matrix(1,0,0,1,21.51497395833337,100.85500081380208)"><path transform="matrix(0.017,0,0,-0.017,0,0)" d="M415 420C436 420 452 421 478 424C367 304 325 221 325 121C325 44 371 -11 435 -11C573 -11 726 236 726 384C726 441 700 482 664 482C651 482 639 478 631 470L581 423L592 404C601 410 610 413 619 413C646 413 662 390 662 350C662 202 565 39 477 39C428 39 397 81 397 146C397 251 436 342 534 464L524 482C504 473 491 470 463 470C435 470 393 472 364 475L352 476C346 477 341 477 340 477C328 477 319 475 308 470C294 443 283 407 270 352L292 352L309 394C316 411 336 422 360 422C393 422 377 420 415 420ZM1076 111L1052 94C999 56 951 36 915 36C868 36 839 73 839 133C839 158 842 185 847 214C864 218 973 248 998 259C1083 296 1122 342 1122 404C1122 451 1088 482 1038 482C970 496 860 423 823 349C793 299 763 180 763 113C763 35 807 -11 879 -11C936 -11 992 17 1084 92ZM861 274C878 343 898 386 927 412C945 428 976 440 1000 440C1029 440 1048 420 1048 388C1048 344 1013 297 961 272C933 258 897 247 852 237ZM1387 722L1375 733C1323 707 1287 698 1215 691L1211 670L1259 670C1283 670 1293 663 1293 648C1293 645 1293 640 1290 622C1279 567 1206 182 1191 132C1178 82 1172 52 1172 31C1172 6 1183 -9 1202 -9C1228 -9 1264 12 1362 85L1352 103L1326 86C1297 67 1275 56 1265 56C1258 56 1252 66 1252 76C1252 82 1253 89 1256 104ZM1430 152C1430 46 1475 -11 1558 -11C1613 -11 1673 15 1718 57C1780 116 1824 230 1824 331C1824 425 1774 482 1691 482C1587 482 1430 382 1430 152ZM1654 444C1715 444 1748 399 1748 315C1748 219 1717 113 1673 60C1655 39 1629 27 1598 27C1540 27 1506 72 1506 151C1506 264 1545 387 1594 427C1607 438 1630 444 1654 444ZM2198 330L2221 330C2229 395 2236 432 2245 458C2221 473 2186 482 2149 482C2104 483 2031 463 1974 400C1920 352 1881 241 1881 136C1881 40 1923 -11 2003 -11C2057 -11 2105 9 2160 54L2210 95L2202 115L2187 105C2115 57 2077 40 2042 40C1986 40 1957 80 1957 159C1957 267 1992 371 2041 409C2062 425 2086 433 2117 433C2162 433 2198 414 2198 390ZM2296 388L2303 368L2335 389C2372 412 2375 414 2382 414C2392 414 2400 404 2400 391C2400 384 2396 361 2392 347L2326 107C2318 76 2313 49 2313 30C2313 6 2324 -9 2343 -9C2369 -9 2405 12 2503 85L2493 103L2467 86C2438 67 2415 56 2406 56C2399 56 2393 66 2393 76C2393 86 2395 95 2400 116L2477 420C2481 437 2483 448 2483 456C2483 473 2474 482 2458 482C2436 482 2399 461 2324 408ZM2490 712C2461 712 2432 679 2432 645C2432 620 2447 604 2471 604C2502 604 2526 633 2526 671C2526 695 2511 712 2490 712ZM3022 722L3010 733C2958 707 2922 698 2850 691L2846 670L2894 670C2918 670 2928 663 2928 646C2928 638 2927 629 2926 622L2898 468C2868 477 2841 482 2816 482C2747 482 2653 410 2607 323C2576 265 2556 170 2556 86C2556 21 2571 -11 2600 -11C2627 -11 2664 6 2698 33C2752 77 2785 116 2852 217L2829 126C2818 82 2813 50 2813 24C2813 3 2822 -9 2839 -9C2856 -9 2880 3 2914 28L2995 88L2985 107L2941 76C2927 66 2911 59 2902 59C2894 59 2888 68 2888 82C2888 90 2889 99 2896 128ZM2653 59C2637 59 2628 73 2628 98C2628 224 2674 380 2723 418C2736 428 2755 433 2782 433C2826 433 2855 427 2888 410L2876 351C2839 171 2698 59 2653 59ZM3309 204L3280 77C3276 60 3274 42 3274 26C3274 4 3283 -9 3298 -9C3321 -9 3362 17 3444 85L3437 106C3413 86 3384 59 3362 59C3353 59 3347 68 3347 82C3347 87 3347 90 3348 93L3440 472L3430 481L3397 463C3356 478 3339 482 3312 482C3284 482 3264 477 3237 464C3175 433 3142 403 3117 354C3073 265 3042 145 3042 67C3042 23 3057 -11 3076 -11C3113 -11 3193 41 3309 204ZM3357 414C3335 305 3316 253 3282 201C3225 117 3164 59 3132 59C3120 59 3114 72 3114 99C3114 163 3142 280 3177 360C3201 415 3224 433 3272 433C3295 433 3313 429 3357 414ZM3964 722L3952 733C3900 707 3864 698 3792 691L3788 670L3836 670C3860 670 3870 663 3870 646C3870 638 3869 629 3868 622L3840 468C3810 477 3783 482 3758 482C3689 482 3595 410 3549 323C3518 265 3498 170 3498 86C3498 21 3513 -11 3542 -11C3569 -11 3606 6 3640 33C3694 77 3727 116 3794 217L3771 126C3760 82 3755 50 3755 24C3755 3 3764 -9 3781 -9C3798 -9 3822 3 3856 28L3937 88L3927 107L3883 76C3869 66 3853 59 3844 59C3836 59 3830 68 3830 82C3830 90 3831 99 3838 128ZM3595 59C3579 59 3570 73 3570 98C3570 224 3616 380 3665 418C3678 428 3697 433 3724 433C3768 433 3797 427 3830 410L3818 351C3781 171 3640 59 3595 59Z" stroke="rgb(0,0,0)" stroke-opacity="1" stroke-width="8" fill="rgb(0,0,0)" fill-opacity="1"></path></g></g></g></g></svg>