<svg xmlns="http://www.w3.org/2000/svg" xmlns:xlink="http://www.w3.org/1999/xlink" width="132.29500325520831" height="112.97500610351562" style="width:132.29500325520831px;height:112.97500610351562px;font-family:Asana-Math, Asana;background:#FFF;"><g><g><g><g transform="matrix(1,0,0,1,2,36.20499674479167)"><path transform="matrix(0.017,0,0,-0.017,0,0)" d="" stroke="rgb(0,0,0)" stroke-opacity="1" stroke-width="8" fill="rgb(0,0,0)" fill-opacity="1"></path></g></g><g><g><g><g><g transform="matrix(1,0,0,1,40.0849609375,37.164998372395836)"><path transform="matrix(0.017,0,0,-0.017,0,0)" d="M166 420C187 420 203 421 229 424C118 304 76 221 76 121C76 44 122 -11 186 -11C324 -11 477 236 477 384C477 441 451 482 415 482C402 482 390 478 382 470L332 423L343 404C352 410 361 413 370 413C397 413 413 390 413 350C413 202 316 39 228 39C179 39 148 81 148 146C148 251 187 342 285 464L275 482C255 473 242 470 214 470C186 470 144 472 115 475L103 476C97 477 92 477 91 477C79 477 70 475 59 470C45 443 34 407 21 352L43 352L60 394C67 411 87 422 111 422C144 422 128 420 166 420Z" stroke="rgb(0,0,0)" stroke-opacity="1" stroke-width="8" fill="rgb(0,0,0)" fill-opacity="1"></path></g></g></g></g><svg x="40.0849609375" overflow="visible" y="18.170003255208336" height="9.99000040690104" width="9.330000559488894"><path d=" M 9.33 4.85 l -3.15 -3.32 l -0.49 0.52 l 1.93 2.33 h -0.15 v 0.90 h 0.15 l -1.93 2.33 l 0.49 0.52 z  M 1.68 5.23 h 7.19 v -0.90 h -7.19 z" style="fill:rgb(0,0,0);fill-opacity:1;stroke-width:1px;stroke:none;stroke-opacity:1;"></path></svg></g><g><g transform="matrix(1,0,0,1,53.67496744791663,36.20499674479167)"><path transform="matrix(0.017,0,0,-0.017,0,0)" d="M604 347L604 406L65 406L65 347ZM604 134L604 193L65 193L65 134Z" stroke="rgb(0,0,0)" stroke-opacity="1" stroke-width="8" fill="rgb(0,0,0)" fill-opacity="1"></path></g></g><g><g><g><g><g><g><g><g transform="matrix(1,0,0,1,71.824951171875,25)"><path transform="matrix(0.017,0,0,-0.017,0,0)" d="M483 722L471 733C419 707 383 698 311 691L307 670L355 670C379 670 389 663 389 646C389 638 388 629 387 622L359 468C329 477 302 482 277 482C208 482 114 410 68 323C37 265 17 170 17 86C17 21 32 -11 61 -11C88 -11 125 6 159 33C213 77 246 116 313 217L290 126C279 82 274 50 274 24C274 3 283 -9 300 -9C317 -9 341 3 375 28L456 88L446 107L402 76C388 66 372 59 363 59C355 59 349 68 349 82C349 90 350 99 357 128ZM114 59C98 59 89 73 89 98C89 224 135 380 184 418C197 428 216 433 243 433C287 433 316 427 349 410L337 351C300 171 159 59 114 59Z" stroke="rgb(0,0,0)" stroke-opacity="1" stroke-width="8" fill="rgb(0,0,0)" fill-opacity="1"></path></g></g></g></g><svg x="71.824951171875" overflow="visible" y="2" height="9.990000406901041" width="9.330000559488894"><path d=" M 9.33 4.85 l -3.15 -3.32 l -0.49 0.52 l 1.93 2.33 h -0.15 v 0.90 h 0.15 l -1.93 2.33 l 0.49 0.52 z  M 1.68 5.23 h 7.19 v -0.90 h -7.19 z" style="fill:rgb(0,0,0);fill-opacity:1;stroke-width:1px;stroke:none;stroke-opacity:1;"></path></svg></g></g></g><g><g><g><g transform="matrix(1,0,0,1,73.23502604166663,49.375)"><path transform="matrix(0.017,0,0,-0.017,0,0)" d="M125 390L69 107C68 99 56 61 56 31C56 6 67 -9 86 -9C121 -9 156 11 234 74L265 99L255 117L210 86C181 66 161 56 150 56C141 56 136 64 136 76C136 102 150 183 179 328L192 390L299 390L310 440C272 436 238 434 200 434C216 528 227 577 245 631L234 646C214 634 187 622 156 610L131 440C87 419 61 408 43 403L41 390Z" stroke="rgb(0,0,0)" stroke-opacity="1" stroke-width="8" fill="rgb(0,0,0)" fill-opacity="1"></path></g></g></g></g><line style="fill:none;stroke-width:0.99px;stroke:rgb(0, 0, 0);" x1="71.824951171875" y1="32.24000000953674" x2="80.314951578776" y2="32.24000000953674"></line></g></g><g></g><g><g><g transform="matrix(1,0,0,1,2,86.6949971516927)"><path transform="matrix(0.017,0,0,-0.017,0,0)" d="M483 722L471 733C419 707 383 698 311 691L307 670L355 670C379 670 389 663 389 646C389 638 388 629 387 622L359 468C329 477 302 482 277 482C208 482 114 410 68 323C37 265 17 170 17 86C17 21 32 -11 61 -11C88 -11 125 6 159 33C213 77 246 116 313 217L290 126C279 82 274 50 274 24C274 3 283 -9 300 -9C317 -9 341 3 375 28L456 88L446 107L402 76C388 66 372 59 363 59C355 59 349 68 349 82C349 90 350 99 357 128ZM114 59C98 59 89 73 89 98C89 224 135 380 184 418C197 428 216 433 243 433C287 433 316 427 349 410L337 351C300 171 159 59 114 59Z" stroke="rgb(0,0,0)" stroke-opacity="1" stroke-width="8" fill="rgb(0,0,0)" fill-opacity="1"></path></g></g><g><g transform="matrix(1,0,0,1,13.879964192708314,86.6949971516927)"><path transform="matrix(0.017,0,0,-0.017,0,0)" d="M123 111C93 111 66 83 66 53C66 23 93 -5 122 -5C154 -5 182 22 182 53C182 83 154 111 123 111ZM123 456C93 456 66 428 66 398C66 368 93 340 122 340C154 340 182 367 182 397C182 428 154 456 123 456Z" stroke="rgb(0,0,0)" stroke-opacity="1" stroke-width="8" fill="rgb(0,0,0)" fill-opacity="1"></path></g></g><g><g transform="matrix(1,0,0,1,21.514973958333314,86.6949971516927)"><path transform="matrix(0.017,0,0,-0.017,0,0)" d="M732 722L720 733C668 707 632 698 560 691L556 670L604 670C628 670 638 663 638 646C638 638 637 629 636 622L608 468C578 477 551 482 526 482C457 482 363 410 317 323C286 265 266 170 266 86C266 21 281 -11 310 -11C337 -11 374 6 408 33C462 77 495 116 562 217L539 126C528 82 523 50 523 24C523 3 532 -9 549 -9C566 -9 590 3 624 28L705 88L695 107L651 76C637 66 621 59 612 59C604 59 598 68 598 82C598 90 599 99 606 128ZM363 59C347 59 338 73 338 98C338 224 384 380 433 418C446 428 465 433 492 433C536 433 565 427 598 410L586 351C549 171 408 59 363 59ZM1076 111L1052 94C999 56 951 36 915 36C868 36 839 73 839 133C839 158 842 185 847 214C864 218 973 248 998 259C1083 296 1122 342 1122 404C1122 451 1088 482 1038 482C970 496 860 423 823 349C793 299 763 180 763 113C763 35 807 -11 879 -11C936 -11 992 17 1084 92ZM861 274C878 343 898 386 927 412C945 428 976 440 1000 440C1029 440 1048 420 1048 388C1048 344 1013 297 961 272C933 258 897 247 852 237ZM1167 148C1162 97 1156 62 1145 16C1183 -2 1217 -11 1252 -11C1301 -11 1347 7 1398 47C1449 87 1470 124 1470 174C1470 228 1438 257 1364 271L1321 279C1261 290 1242 307 1242 348C1242 401 1287 442 1344 442C1385 442 1423 424 1439 397L1439 342L1462 342C1466 377 1470 404 1481 455C1442 474 1414 482 1381 482C1329 482 1268 452 1220 404C1194 377 1183 352 1183 316C1183 260 1214 228 1280 215L1343 203C1387 195 1403 177 1403 138C1403 73 1357 29 1286 29C1251 29 1220 40 1192 64L1192 148ZM1700 -11C1756 -11 1871 62 1914 125C1955 186 1989 296 1989 371C1989 438 1966 482 1930 482C1888 482 1835 456 1783 409C1742 374 1722 348 1686 289L1710 408C1713 425 1715 440 1715 452C1715 471 1707 482 1693 482C1672 482 1634 461 1560 408L1532 388L1539 368L1571 389C1599 407 1610 412 1619 412C1629 412 1636 403 1636 389C1636 381 1634 361 1632 351L1574 8C1564 -52 1545 -143 1525 -233L1517 -270L1524 -276C1545 -269 1565 -264 1597 -259L1639 3C1660 -4 1682 -11 1700 -11ZM1667 165C1689 293 1796 424 1879 424C1905 424 1917 402 1917 356C1917 275 1877 156 1824 80C1804 51 1772 36 1731 36C1700 36 1675 43 1649 59ZM2274 722L2262 733C2210 707 2174 698 2102 691L2098 670L2146 670C2170 670 2180 663 2180 648C2180 645 2180 640 2177 622C2166 567 2093 182 2078 132C2065 82 2059 52 2059 31C2059 6 2070 -9 2089 -9C2115 -9 2151 12 2249 85L2239 103L2213 86C2184 67 2162 56 2152 56C2145 56 2139 66 2139 76C2139 82 2140 89 2143 104ZM2571 204L2542 77C2538 60 2536 42 2536 26C2536 4 2545 -9 2560 -9C2583 -9 2624 17 2706 85L2699 106C2675 86 2646 59 2624 59C2615 59 2609 68 2609 82C2609 87 2609 90 2610 93L2702 472L2692 481L2659 463C2618 478 2601 482 2574 482C2546 482 2526 477 2499 464C2437 433 2404 403 2379 354C2335 265 2304 145 2304 67C2304 23 2319 -11 2338 -11C2375 -11 2455 41 2571 204ZM2619 414C2597 305 2578 253 2544 201C2487 117 2426 59 2394 59C2382 59 2376 72 2376 99C2376 163 2404 280 2439 360C2463 415 2486 433 2534 433C2557 433 2575 429 2619 414ZM3065 -11C3077 -11 3086 -9 3115 -1C3126 61 3134 95 3145 142L3123 142L3101 82C3095 64 3083 57 3062 57C3050 57 3034 59 3013 64L2995 68C2962 75 2928 80 2909 80C2877 80 2850 74 2814 59L3153 441L3159 473L3150 482L3127 459C3117 449 3107 445 3093 445C3059 445 3007 453 2959 466L2941 471C2913 478 2893 482 2879 482C2862 482 2842 479 2818 472L2786 350L2807 350L2837 408C2854 412 2863 413 2876 413C2917 413 2949 398 3002 398C3038 398 3062 404 3095 421L2742 21L2751 -6C2780 17 2807 26 2842 26C2905 26 2996 -11 3065 -11ZM3457 204L3428 77C3424 60 3422 42 3422 26C3422 4 3431 -9 3446 -9C3469 -9 3510 17 3592 85L3585 106C3561 86 3532 59 3510 59C3501 59 3495 68 3495 82C3495 87 3495 90 3496 93L3588 472L3578 481L3545 463C3504 478 3487 482 3460 482C3432 482 3412 477 3385 464C3323 433 3290 403 3265 354C3221 265 3190 145 3190 67C3190 23 3205 -11 3224 -11C3261 -11 3341 41 3457 204ZM3505 414C3483 305 3464 253 3430 201C3373 117 3312 59 3280 59C3268 59 3262 72 3262 99C3262 163 3290 280 3325 360C3349 415 3372 433 3420 433C3443 433 3461 429 3505 414ZM4359 103L4333 86C4304 67 4282 56 4272 56C4265 56 4259 65 4259 76C4259 86 4261 95 4266 116L4341 413C4345 430 4348 446 4348 454C4348 471 4338 482 4322 482C4293 482 4255 464 4194 421C4131 376 4096 341 4047 272L4077 409C4081 429 4084 444 4084 451C4084 470 4074 482 4058 482C4028 482 3982 460 3927 418C3883 384 3863 363 3798 275L3831 408C3835 424 3837 439 3837 451C3837 470 3828 482 3814 482C3793 482 3755 461 3681 408L3653 388L3660 368C3697 391 3732 414 3739 414C3750 414 3757 404 3757 389C3757 338 3716 145 3675 2L3678 -9L3746 6L3768 108C3792 219 3819 278 3874 338C3916 384 3961 414 3989 414C3996 414 4000 406 4000 393C4000 358 3978 244 3937 69L3921 2L3926 -9L3995 6L4016 113C4032 194 4066 269 4110 318C4165 379 4215 414 4247 414C4255 414 4260 405 4260 389C4260 365 4257 351 4235 264C4195 105 4179 84 4179 31C4179 6 4190 -9 4209 -9C4235 -9 4271 12 4369 85ZM4440 388L4447 368L4479 389C4516 412 4519 414 4526 414C4536 414 4544 404 4544 391C4544 384 4540 361 4536 347L4470 107C4462 76 4457 49 4457 30C4457 6 4468 -9 4487 -9C4513 -9 4549 12 4647 85L4637 103L4611 86C4582 67 4559 56 4550 56C4543 56 4537 66 4537 76C4537 86 4539 95 4544 116L4621 420C4625 437 4627 448 4627 456C4627 473 4618 482 4602 482C4580 482 4543 461 4468 408ZM4634 712C4605 712 4576 679 4576 645C4576 620 4591 604 4615 604C4646 604 4670 633 4670 671C4670 695 4655 712 4634 712ZM5011 111L4987 94C4934 56 4886 36 4850 36C4803 36 4774 73 4774 133C4774 158 4777 185 4782 214C4799 218 4908 248 4933 259C5018 296 5057 342 5057 404C5057 451 5023 482 4973 482C4905 496 4795 423 4758 349C4728 299 4698 180 4698 113C4698 35 4742 -11 4814 -11C4871 -11 4927 17 5019 92ZM4796 274C4813 343 4833 386 4862 412C4880 428 4911 440 4935 440C4964 440 4983 420 4983 388C4983 344 4948 297 4896 272C4868 258 4832 247 4787 237ZM5095 388L5102 368L5134 389C5171 412 5174 414 5181 414C5192 414 5199 404 5199 389C5199 338 5158 145 5117 2L5124 -9C5149 -2 5172 4 5194 8C5213 134 5234 199 5280 268C5334 352 5409 414 5454 414C5465 414 5471 405 5471 390C5471 372 5468 351 5460 319L5408 107C5399 70 5395 47 5395 31C5395 6 5406 -9 5425 -9C5451 -9 5487 12 5585 85L5575 103L5549 86C5520 67 5498 56 5488 56C5481 56 5475 65 5475 76C5475 81 5476 92 5477 96L5543 372C5550 401 5554 429 5554 446C5554 469 5543 482 5523 482C5481 482 5412 444 5353 389C5315 354 5287 320 5235 247L5273 408C5277 426 5279 438 5279 449C5279 470 5271 482 5256 482C5235 482 5196 460 5123 408ZM5751 390L5695 107C5694 99 5682 61 5682 31C5682 6 5693 -9 5712 -9C5747 -9 5782 11 5860 74L5891 99L5881 117L5836 86C5807 66 5787 56 5776 56C5767 56 5762 64 5762 76C5762 102 5776 183 5805 328L5818 390L5925 390L5936 440C5898 436 5864 434 5826 434C5842 528 5853 577 5871 631L5860 646C5840 634 5813 622 5782 610L5757 440C5713 419 5687 408 5669 403L5667 390ZM5975 152C5975 46 6020 -11 6103 -11C6158 -11 6218 15 6263 57C6325 116 6369 230 6369 331C6369 425 6319 482 6236 482C6132 482 5975 382 5975 152ZM6199 444C6260 444 6293 399 6293 315C6293 219 6262 113 6218 60C6200 39 6174 27 6143 27C6085 27 6051 72 6051 151C6051 264 6090 387 6139 427C6152 438 6175 444 6199 444Z" stroke="rgb(0,0,0)" stroke-opacity="1" stroke-width="8" fill="rgb(0,0,0)" fill-opacity="1"></path></g></g></g><g><g><g transform="matrix(1,0,0,1,2,106.85501098632812)"><path transform="matrix(0.017,0,0,-0.017,0,0)" d="M125 390L69 107C68 99 56 61 56 31C56 6 67 -9 86 -9C121 -9 156 11 234 74L265 99L255 117L210 86C181 66 161 56 150 56C141 56 136 64 136 76C136 102 150 183 179 328L192 390L299 390L310 440C272 436 238 434 200 434C216 528 227 577 245 631L234 646C214 634 187 622 156 610L131 440C87 419 61 408 43 403L41 390Z" stroke="rgb(0,0,0)" stroke-opacity="1" stroke-width="8" fill="rgb(0,0,0)" fill-opacity="1"></path></g></g><g><g transform="matrix(1,0,0,1,11.045003255208314,106.85501098632812)"><path transform="matrix(0.017,0,0,-0.017,0,0)" d="M123 111C93 111 66 83 66 53C66 23 93 -5 122 -5C154 -5 182 22 182 53C182 83 154 111 123 111ZM123 456C93 456 66 428 66 398C66 368 93 340 122 340C154 340 182 367 182 397C182 428 154 456 123 456Z" stroke="rgb(0,0,0)" stroke-opacity="1" stroke-width="8" fill="rgb(0,0,0)" fill-opacity="1"></path></g></g><g><g transform="matrix(1,0,0,1,18.680013020833314,106.85501098632812)"><path transform="matrix(0.017,0,0,-0.017,0,0)" d="M374 390L318 107C317 99 305 61 305 31C305 6 316 -9 335 -9C370 -9 405 11 483 74L514 99L504 117L459 86C430 66 410 56 399 56C390 56 385 64 385 76C385 102 399 183 428 328L441 390L548 390L559 440C521 436 487 434 449 434C465 528 476 577 494 631L483 646C463 634 436 622 405 610L380 440C336 419 310 408 292 403L290 390ZM615 388L622 368L654 389C691 412 694 414 701 414C711 414 719 404 719 391C719 384 715 361 711 347L645 107C637 76 632 49 632 30C632 6 643 -9 662 -9C688 -9 724 12 822 85L812 103L786 86C757 67 734 56 725 56C718 56 712 66 712 76C712 86 714 95 719 116L796 420C800 437 802 448 802 456C802 473 793 482 777 482C755 482 718 461 643 408ZM809 712C780 712 751 679 751 645C751 620 766 604 790 604C821 604 845 633 845 671C845 695 830 712 809 712ZM1186 111L1162 94C1109 56 1061 36 1025 36C978 36 949 73 949 133C949 158 952 185 957 214C974 218 1083 248 1108 259C1193 296 1232 342 1232 404C1232 451 1198 482 1148 482C1080 496 970 423 933 349C903 299 873 180 873 113C873 35 917 -11 989 -11C1046 -11 1102 17 1194 92ZM971 274C988 343 1008 386 1037 412C1055 428 1086 440 1110 440C1139 440 1158 420 1158 388C1158 344 1123 297 1071 272C1043 258 1007 247 962 237ZM1976 103L1950 86C1921 67 1899 56 1889 56C1882 56 1876 65 1876 76C1876 86 1878 95 1883 116L1958 413C1962 430 1965 446 1965 454C1965 471 1955 482 1939 482C1910 482 1872 464 1811 421C1748 376 1713 341 1664 272L1694 409C1698 429 1701 444 1701 451C1701 470 1691 482 1675 482C1645 482 1599 460 1544 418C1500 384 1480 363 1415 275L1448 408C1452 424 1454 439 1454 451C1454 470 1445 482 1431 482C1410 482 1372 461 1298 408L1270 388L1277 368C1314 391 1349 414 1356 414C1367 414 1374 404 1374 389C1374 338 1333 145 1292 2L1295 -9L1363 6L1385 108C1409 219 1436 278 1491 338C1533 384 1578 414 1606 414C1613 414 1617 406 1617 393C1617 358 1595 244 1554 69L1538 2L1543 -9L1612 6L1633 113C1649 194 1683 269 1727 318C1782 379 1832 414 1864 414C1872 414 1877 405 1877 389C1877 365 1874 351 1852 264C1812 105 1796 84 1796 31C1796 6 1807 -9 1826 -9C1852 -9 1888 12 1986 85ZM2199 -11C2255 -11 2370 62 2413 125C2454 186 2488 296 2488 371C2488 438 2465 482 2429 482C2387 482 2334 456 2282 409C2241 374 2221 348 2185 289L2209 408C2212 425 2214 440 2214 452C2214 471 2206 482 2192 482C2171 482 2133 461 2059 408L2031 388L2038 368L2070 389C2098 407 2109 412 2118 412C2128 412 2135 403 2135 389C2135 381 2133 361 2131 351L2073 8C2063 -52 2044 -143 2024 -233L2016 -270L2023 -276C2044 -269 2064 -264 2096 -259L2138 3C2159 -4 2181 -11 2199 -11ZM2166 165C2188 293 2295 424 2378 424C2404 424 2416 402 2416 356C2416 275 2376 156 2323 80C2303 51 2271 36 2230 36C2199 36 2174 43 2148 59ZM2539 152C2539 46 2584 -11 2667 -11C2722 -11 2782 15 2827 57C2889 116 2933 230 2933 331C2933 425 2883 482 2800 482C2696 482 2539 382 2539 152ZM2763 444C2824 444 2857 399 2857 315C2857 219 2826 113 2782 60C2764 39 2738 27 2707 27C2649 27 2615 72 2615 151C2615 264 2654 387 2703 427C2716 438 2739 444 2763 444Z" stroke="rgb(0,0,0)" stroke-opacity="1" stroke-width="8" fill="rgb(0,0,0)" fill-opacity="1"></path></g></g></g></g></svg>