<svg xmlns="http://www.w3.org/2000/svg" xmlns:xlink="http://www.w3.org/1999/xlink" width="141.310009765625" height="139.78000488281248" style="width:141.310009765625px;height:139.78000488281248px;font-family:Asana-Math, Asana;background:#FFF;"><g><g><g><g transform="matrix(1,0,0,1,2,34.72000732421875)"><path transform="matrix(0.017,0,0,-0.017,0,0)" d="M734 722L722 733C677 711 636 697 562 691L558 670L606 670C624 670 640 667 640 647C640 641 640 632 638 622L596 388C576 272 534 80 508 2L515 -9L584 7C592 64 606 164 646 236C691 317 794 414 836 414C847 414 858 407 858 393C858 375 853 342 843 303L792 107C786 85 779 55 779 31C779 6 789 -9 810 -9C842 -9 910 41 969 85L959 103L933 86C910 71 884 56 872 56C865 56 859 65 859 76C859 88 862 101 866 116L930 372C936 398 941 423 941 447C941 464 935 482 909 482C874 482 797 437 729 374C696 343 670 308 642 273L638 275Z" stroke="rgb(0,0,0)" stroke-opacity="1" stroke-width="8" fill="rgb(0,0,0)" fill-opacity="1"></path></g></g><g><g transform="matrix(1,0,0,1,24.05000000000001,34.72000732421875)"><path transform="matrix(0.017,0,0,-0.017,0,0)" d="M604 347L604 406L65 406L65 347ZM604 134L604 193L65 193L65 134Z" stroke="rgb(0,0,0)" stroke-opacity="1" stroke-width="8" fill="rgb(0,0,0)" fill-opacity="1"></path></g></g><g><svg x="41.69001464843751" overflow="visible" y="3.69500732421875" height="48.99000244140625" width="8.490000152587925"><path d=" M 6.27 1.70 c 0.00 -0.06 -0.04 -0.08 -0.08 -0.08 c -0.03 0.00 -0.06 0.01 -0.08 0.02 c -2.55 1.34 -4.65 3.73 -4.65 9.40 v 0.60 h 1.53 v -0.60 c 0.00 -3.23 0.64 -7.03 3.31 -9.06 c 0.12 -0.09 0.13 -0.19 0.13 -0.28 z   M 1.44 11.64 v 25.71 h 1.53 v -25.71 z" style="fill:rgb(0,0,0);fill-opacity:1;stroke-width:1px;stroke:none;stroke-opacity:1;"></path><path d=" M 6.27 47.29 c 0.00 0.06 -0.04 0.08 -0.08 0.08 c -0.03 0.00 -0.06 -0.01 -0.08 -0.02 c -2.55 -1.34 -4.65 -3.73 -4.65 -9.40 v -0.60 h 1.53 v 0.60 c 0.00 3.23 0.64 7.03 3.31 9.06 c 0.12 0.09 0.13 0.19 0.13 0.28 z" style="fill:rgb(0,0,0);fill-opacity:1;stroke-width:1px;stroke:none;stroke-opacity:1;"></path></svg></g><g><g><g><g><g transform="matrix(1,0,0,1,50.18000488281251,19.525)"><path transform="matrix(0.017,0,0,-0.017,0,0)" d="M166 420C187 420 203 421 229 424C118 304 76 221 76 121C76 44 122 -11 186 -11C324 -11 477 236 477 384C477 441 451 482 415 482C402 482 390 478 382 470L332 423L343 404C352 410 361 413 370 413C397 413 413 390 413 350C413 202 316 39 228 39C179 39 148 81 148 146C148 251 187 342 285 464L275 482C255 473 242 470 214 470C186 470 144 472 115 475L103 476C97 477 92 477 91 477C79 477 70 475 59 470C45 443 34 407 21 352L43 352L60 394C67 411 87 422 111 422C144 422 128 420 166 420Z" stroke="rgb(0,0,0)" stroke-opacity="1" stroke-width="8" fill="rgb(0,0,0)" fill-opacity="1"></path></g></g><g><g><g></g></g><g><g><g><g transform="matrix(1,0,0,1,59.18000488281251,25.135009765625)"><path transform="matrix(0.0119,0,0,-0.0119,0,0)" d="M263 689C108 689 29 566 29 324C29 207 50 106 85 57C120 8 176 -20 238 -20C389 -20 465 110 465 366C465 585 400 689 263 689ZM245 654C342 654 381 556 381 316C381 103 343 15 251 15C154 15 113 116 113 360C113 571 150 654 245 654Z" stroke="rgb(0,0,0)" stroke-opacity="1" stroke-width="8" fill="rgb(0,0,0)" fill-opacity="1"></path></g></g></g></g></g><g><g transform="matrix(1,0,0,1,69.9949951171875,19.525)"><path transform="matrix(0.017,0,0,-0.017,0,0)" d="M555 243L555 299L51 299L51 243Z" stroke="rgb(0,0,0)" stroke-opacity="1" stroke-width="8" fill="rgb(0,0,0)" fill-opacity="1"></path></g></g><g><g transform="matrix(1,0,0,1,83.67502441406253,19.525)"><path transform="matrix(0.017,0,0,-0.017,0,0)" d="M166 420C187 420 203 421 229 424C118 304 76 221 76 121C76 44 122 -11 186 -11C324 -11 477 236 477 384C477 441 451 482 415 482C402 482 390 478 382 470L332 423L343 404C352 410 361 413 370 413C397 413 413 390 413 350C413 202 316 39 228 39C179 39 148 81 148 146C148 251 187 342 285 464L275 482C255 473 242 470 214 470C186 470 144 472 115 475L103 476C97 477 92 477 91 477C79 477 70 475 59 470C45 443 34 407 21 352L43 352L60 394C67 411 87 422 111 422C144 422 128 420 166 420Z" stroke="rgb(0,0,0)" stroke-opacity="1" stroke-width="8" fill="rgb(0,0,0)" fill-opacity="1"></path></g></g><g><g><g></g></g><g><g><g><g transform="matrix(1,0,0,1,92.67502441406253,25.135009765625)"><path transform="matrix(0.0119,0,0,-0.0119,0,0)" d="M345 437L329 437L350 549C366 635 394 673 440 673C470 673 497 658 512 634L522 638C527 654 537 685 545 705L550 720C534 727 503 733 480 733C469 733 453 730 445 726C421 715 339 654 316 630C294 608 282 578 271 521L256 442C215 422 195 414 170 405L165 383L246 383L237 327C207 132 170 -54 148 -123C130 -182 100 -213 64 -213C41 -213 30 -206 12 -184L-2 -188C-6 -211 -20 -259 -25 -268C-16 -273 -1 -276 10 -276C51 -276 105 -245 144 -198C215 -114 235 -18 319 383L423 383C427 402 434 425 440 439L436 446C407 439 408 437 345 437Z" stroke="rgb(0,0,0)" stroke-opacity="1" stroke-width="8" fill="rgb(0,0,0)" fill-opacity="1"></path></g></g></g></g></g></g></g><g><g><g><g transform="matrix(1,0,0,1,70.96999511718752,47.89000244140625)"><path transform="matrix(0.017,0,0,-0.017,0,0)" d="M16 23L16 -3C203 -3 203 0 239 0C275 0 275 -3 468 -3L468 82C353 77 307 81 122 77L304 270C401 373 431 428 431 503C431 618 353 689 226 689C154 689 105 669 56 619L39 483L68 483L81 529C97 587 133 612 200 612C286 612 341 558 341 473C341 398 299 324 186 204Z" stroke="rgb(0,0,0)" stroke-opacity="1" stroke-width="8" fill="rgb(0,0,0)" fill-opacity="1"></path></g></g></g></g><line style="fill:none;stroke-width:0.99px;stroke:rgb(0, 0, 0);" x1="50.18000488281251" y1="30.755002498626705" x2="100.25000610351566" y2="30.755002498626705"></line></g><g><svg x="100.25002441406252" overflow="visible" y="3.69500732421875" height="48.99000244140625" width="8.490000152587868"><path d=" M 1.75 1.70 c 0.00 -0.06 0.04 -0.08 0.08 -0.08 c 0.03 0.00 0.06 0.01 0.08 0.02 c 2.55 1.34 4.65 3.73 4.65 9.40 v 0.60 h -1.53 v -0.60 c 0.00 -3.23 -0.64 -7.03 -3.31 -9.06 c -0.12 -0.09 -0.13 -0.19 -0.13 -0.28 z  M 6.58 11.64 v 25.71 h -1.53 v -25.71 z" style="fill:rgb(0,0,0);fill-opacity:1;stroke-width:1px;stroke:none;stroke-opacity:1;"></path><path d=" M 1.75 47.29 c 0.00 0.06 0.04 0.08 0.08 0.08 c 0.03 0.00 0.06 -0.01 0.08 -0.02 c 2.55 -1.34 4.65 -3.73 4.65 -9.40 v -0.60 h -1.53 v 0.60 c 0.00 3.23 -0.64 7.03 -3.31 9.06 c -0.12 0.09 -0.13 0.19 -0.13 0.28 z" style="fill:rgb(0,0,0);fill-opacity:1;stroke-width:1px;stroke:none;stroke-opacity:1;"></path></svg></g><g><g transform="matrix(1,0,0,1,109.92502441406253,34.72000732421875)"><path transform="matrix(0.017,0,0,-0.017,0,0)" d="M125 390L69 107C68 99 56 61 56 31C56 6 67 -9 86 -9C121 -9 156 11 234 74L265 99L255 117L210 86C181 66 161 56 150 56C141 56 136 64 136 76C136 102 150 183 179 328L192 390L299 390L310 440C272 436 238 434 200 434C216 528 227 577 245 631L234 646C214 634 187 622 156 610L131 440C87 419 61 408 43 403L41 390Z" stroke="rgb(0,0,0)" stroke-opacity="1" stroke-width="8" fill="rgb(0,0,0)" fill-opacity="1"></path></g></g></g><g></g><g><g><g transform="matrix(1,0,0,1,2,90.5800048828125)"><path transform="matrix(0.017,0,0,-0.017,0,0)" d="M166 420C187 420 203 421 229 424C118 304 76 221 76 121C76 44 122 -11 186 -11C324 -11 477 236 477 384C477 441 451 482 415 482C402 482 390 478 382 470L332 423L343 404C352 410 361 413 370 413C397 413 413 390 413 350C413 202 316 39 228 39C179 39 148 81 148 146C148 251 187 342 285 464L275 482C255 473 242 470 214 470C186 470 144 472 115 475L103 476C97 477 92 477 91 477C79 477 70 475 59 470C45 443 34 407 21 352L43 352L60 394C67 411 87 422 111 422C144 422 128 420 166 420Z" stroke="rgb(0,0,0)" stroke-opacity="1" stroke-width="8" fill="rgb(0,0,0)" fill-opacity="1"></path></g></g><g><g><g><g><g transform="matrix(1,0,0,1,11,94.54000244140626)"><path transform="matrix(0.0119,0,0,-0.0119,0,0)" d="M263 689C108 689 29 566 29 324C29 207 50 106 85 57C120 8 176 -20 238 -20C389 -20 465 110 465 366C465 585 400 689 263 689ZM245 654C342 654 381 556 381 316C381 103 343 15 251 15C154 15 113 116 113 360C113 571 150 654 245 654Z" stroke="rgb(0,0,0)" stroke-opacity="1" stroke-width="8" fill="rgb(0,0,0)" fill-opacity="1"></path></g></g></g></g></g><g><g transform="matrix(1,0,0,1,21.350000000000023,90.5800048828125)"><path transform="matrix(0.017,0,0,-0.017,0,0)" d="M123 111C93 111 66 83 66 53C66 23 93 -5 122 -5C154 -5 182 22 182 53C182 83 154 111 123 111ZM123 456C93 456 66 428 66 398C66 368 93 340 122 340C154 340 182 367 182 397C182 428 154 456 123 456Z" stroke="rgb(0,0,0)" stroke-opacity="1" stroke-width="8" fill="rgb(0,0,0)" fill-opacity="1"></path></g></g><g><g transform="matrix(1,0,0,1,28.985009765625023,90.5800048828125)"><path transform="matrix(0.017,0,0,-0.017,0,0)" d="M166 420C187 420 203 421 229 424C118 304 76 221 76 121C76 44 122 -11 186 -11C324 -11 477 236 477 384C477 441 451 482 415 482C402 482 390 478 382 470L332 423L343 404C352 410 361 413 370 413C397 413 413 390 413 350C413 202 316 39 228 39C179 39 148 81 148 146C148 251 187 342 285 464L275 482C255 473 242 470 214 470C186 470 144 472 115 475L103 476C97 477 92 477 91 477C79 477 70 475 59 470C45 443 34 407 21 352L43 352L60 394C67 411 87 422 111 422C144 422 128 420 166 420ZM827 111L803 94C750 56 702 36 666 36C619 36 590 73 590 133C590 158 593 185 598 214C615 218 724 248 749 259C834 296 873 342 873 404C873 451 839 482 789 482C721 496 611 423 574 349C544 299 514 180 514 113C514 35 558 -11 630 -11C687 -11 743 17 835 92ZM612 274C629 343 649 386 678 412C696 428 727 440 751 440C780 440 799 420 799 388C799 344 764 297 712 272C684 258 648 247 603 237ZM1138 722L1126 733C1074 707 1038 698 966 691L962 670L1010 670C1034 670 1044 663 1044 648C1044 645 1044 640 1041 622C1030 567 957 182 942 132C929 82 923 52 923 31C923 6 934 -9 953 -9C979 -9 1015 12 1113 85L1103 103L1077 86C1048 67 1026 56 1016 56C1009 56 1003 66 1003 76C1003 82 1004 89 1007 104ZM1181 152C1181 46 1226 -11 1309 -11C1364 -11 1424 15 1469 57C1531 116 1575 230 1575 331C1575 425 1525 482 1442 482C1338 482 1181 382 1181 152ZM1405 444C1466 444 1499 399 1499 315C1499 219 1468 113 1424 60C1406 39 1380 27 1349 27C1291 27 1257 72 1257 151C1257 264 1296 387 1345 427C1358 438 1381 444 1405 444ZM1949 330L1972 330C1980 395 1987 432 1996 458C1972 473 1937 482 1900 482C1855 483 1782 463 1725 400C1671 352 1632 241 1632 136C1632 40 1674 -11 1754 -11C1808 -11 1856 9 1911 54L1961 95L1953 115L1938 105C1866 57 1828 40 1793 40C1737 40 1708 80 1708 159C1708 267 1743 371 1792 409C1813 425 1837 433 1868 433C1913 433 1949 414 1949 390ZM2047 388L2054 368L2086 389C2123 412 2126 414 2133 414C2143 414 2151 404 2151 391C2151 384 2147 361 2143 347L2077 107C2069 76 2064 49 2064 30C2064 6 2075 -9 2094 -9C2120 -9 2156 12 2254 85L2244 103L2218 86C2189 67 2166 56 2157 56C2150 56 2144 66 2144 76C2144 86 2146 95 2151 116L2228 420C2232 437 2234 448 2234 456C2234 473 2225 482 2209 482C2187 482 2150 461 2075 408ZM2241 712C2212 712 2183 679 2183 645C2183 620 2198 604 2222 604C2253 604 2277 633 2277 671C2277 695 2262 712 2241 712ZM2773 722L2761 733C2709 707 2673 698 2601 691L2597 670L2645 670C2669 670 2679 663 2679 646C2679 638 2678 629 2677 622L2649 468C2619 477 2592 482 2567 482C2498 482 2404 410 2358 323C2327 265 2307 170 2307 86C2307 21 2322 -11 2351 -11C2378 -11 2415 6 2449 33C2503 77 2536 116 2603 217L2580 126C2569 82 2564 50 2564 24C2564 3 2573 -9 2590 -9C2607 -9 2631 3 2665 28L2746 88L2736 107L2692 76C2678 66 2662 59 2653 59C2645 59 2639 68 2639 82C2639 90 2640 99 2647 128ZM2404 59C2388 59 2379 73 2379 98C2379 224 2425 380 2474 418C2487 428 2506 433 2533 433C2577 433 2606 427 2639 410L2627 351C2590 171 2449 59 2404 59ZM3060 204L3031 77C3027 60 3025 42 3025 26C3025 4 3034 -9 3049 -9C3072 -9 3113 17 3195 85L3188 106C3164 86 3135 59 3113 59C3104 59 3098 68 3098 82C3098 87 3098 90 3099 93L3191 472L3181 481L3148 463C3107 478 3090 482 3063 482C3035 482 3015 477 2988 464C2926 433 2893 403 2868 354C2824 265 2793 145 2793 67C2793 23 2808 -11 2827 -11C2864 -11 2944 41 3060 204ZM3108 414C3086 305 3067 253 3033 201C2976 117 2915 59 2883 59C2871 59 2865 72 2865 99C2865 163 2893 280 2928 360C2952 415 2975 433 3023 433C3046 433 3064 429 3108 414ZM3715 722L3703 733C3651 707 3615 698 3543 691L3539 670L3587 670C3611 670 3621 663 3621 646C3621 638 3620 629 3619 622L3591 468C3561 477 3534 482 3509 482C3440 482 3346 410 3300 323C3269 265 3249 170 3249 86C3249 21 3264 -11 3293 -11C3320 -11 3357 6 3391 33C3445 77 3478 116 3545 217L3522 126C3511 82 3506 50 3506 24C3506 3 3515 -9 3532 -9C3549 -9 3573 3 3607 28L3688 88L3678 107L3634 76C3620 66 3604 59 3595 59C3587 59 3581 68 3581 82C3581 90 3582 99 3589 128ZM3346 59C3330 59 3321 73 3321 98C3321 224 3367 380 3416 418C3429 428 3448 433 3475 433C3519 433 3548 427 3581 410L3569 351C3532 171 3391 59 3346 59ZM4014 388L4021 368L4053 389C4090 412 4093 414 4100 414C4110 414 4118 404 4118 391C4118 384 4114 361 4110 347L4044 107C4036 76 4031 49 4031 30C4031 6 4042 -9 4061 -9C4087 -9 4123 12 4221 85L4211 103L4185 86C4156 67 4133 56 4124 56C4117 56 4111 66 4111 76C4111 86 4113 95 4118 116L4195 420C4199 437 4201 448 4201 456C4201 473 4192 482 4176 482C4154 482 4117 461 4042 408ZM4208 712C4179 712 4150 679 4150 645C4150 620 4165 604 4189 604C4220 604 4244 633 4244 671C4244 695 4229 712 4208 712ZM4281 388L4288 368L4320 389C4357 412 4360 414 4367 414C4378 414 4385 404 4385 389C4385 338 4344 145 4303 2L4310 -9C4335 -2 4358 4 4380 8C4399 134 4420 199 4466 268C4520 352 4595 414 4640 414C4651 414 4657 405 4657 390C4657 372 4654 351 4646 319L4594 107C4585 70 4581 47 4581 31C4581 6 4592 -9 4611 -9C4637 -9 4673 12 4771 85L4761 103L4735 86C4706 67 4684 56 4674 56C4667 56 4661 65 4661 76C4661 81 4662 92 4663 96L4729 372C4736 401 4740 429 4740 446C4740 469 4729 482 4709 482C4667 482 4598 444 4539 389C4501 354 4473 320 4421 247L4459 408C4463 426 4465 438 4465 449C4465 470 4457 482 4442 482C4421 482 4382 460 4309 408ZM4846 388L4853 368L4885 389C4922 412 4925 414 4932 414C4942 414 4950 404 4950 391C4950 384 4946 361 4942 347L4876 107C4868 76 4863 49 4863 30C4863 6 4874 -9 4893 -9C4919 -9 4955 12 5053 85L5043 103L5017 86C4988 67 4965 56 4956 56C4949 56 4943 66 4943 76C4943 86 4945 95 4950 116L5027 420C5031 437 5033 448 5033 456C5033 473 5024 482 5008 482C4986 482 4949 461 4874 408ZM5040 712C5011 712 4982 679 4982 645C4982 620 4997 604 5021 604C5052 604 5076 633 5076 671C5076 695 5061 712 5040 712ZM5431 330L5454 330C5462 395 5469 432 5478 458C5454 473 5419 482 5382 482C5337 483 5264 463 5207 400C5153 352 5114 241 5114 136C5114 40 5156 -11 5236 -11C5290 -11 5338 9 5393 54L5443 95L5435 115L5420 105C5348 57 5310 40 5275 40C5219 40 5190 80 5190 159C5190 267 5225 371 5274 409C5295 425 5319 433 5350 433C5395 433 5431 414 5431 390ZM5529 388L5536 368L5568 389C5605 412 5608 414 5615 414C5625 414 5633 404 5633 391C5633 384 5629 361 5625 347L5559 107C5551 76 5546 49 5546 30C5546 6 5557 -9 5576 -9C5602 -9 5638 12 5736 85L5726 103L5700 86C5671 67 5648 56 5639 56C5632 56 5626 66 5626 76C5626 86 5628 95 5633 116L5710 420C5714 437 5716 448 5716 456C5716 473 5707 482 5691 482C5669 482 5632 461 5557 408ZM5723 712C5694 712 5665 679 5665 645C5665 620 5680 604 5704 604C5735 604 5759 633 5759 671C5759 695 5744 712 5723 712ZM6043 204L6014 77C6010 60 6008 42 6008 26C6008 4 6017 -9 6032 -9C6055 -9 6096 17 6178 85L6171 106C6147 86 6118 59 6096 59C6087 59 6081 68 6081 82C6081 87 6081 90 6082 93L6174 472L6164 481L6131 463C6090 478 6073 482 6046 482C6018 482 5998 477 5971 464C5909 433 5876 403 5851 354C5807 265 5776 145 5776 67C5776 23 5791 -11 5810 -11C5847 -11 5927 41 6043 204ZM6091 414C6069 305 6050 253 6016 201C5959 117 5898 59 5866 59C5854 59 5848 72 5848 99C5848 163 5876 280 5911 360C5935 415 5958 433 6006 433C6029 433 6047 429 6091 414ZM6466 722L6454 733C6402 707 6366 698 6294 691L6290 670L6338 670C6362 670 6372 663 6372 648C6372 645 6372 640 6369 622C6358 567 6285 182 6270 132C6257 82 6251 52 6251 31C6251 6 6262 -9 6281 -9C6307 -9 6343 12 6441 85L6431 103L6405 86C6376 67 6354 56 6344 56C6337 56 6331 66 6331 76C6331 82 6332 89 6335 104Z" stroke="rgb(0,0,0)" stroke-opacity="1" stroke-width="8" fill="rgb(0,0,0)" fill-opacity="1"></path></g></g></g><g><g><g transform="matrix(1,0,0,1,2,112.12000732421875)"><path transform="matrix(0.017,0,0,-0.017,0,0)" d="M166 420C187 420 203 421 229 424C118 304 76 221 76 121C76 44 122 -11 186 -11C324 -11 477 236 477 384C477 441 451 482 415 482C402 482 390 478 382 470L332 423L343 404C352 410 361 413 370 413C397 413 413 390 413 350C413 202 316 39 228 39C179 39 148 81 148 146C148 251 187 342 285 464L275 482C255 473 242 470 214 470C186 470 144 472 115 475L103 476C97 477 92 477 91 477C79 477 70 475 59 470C45 443 34 407 21 352L43 352L60 394C67 411 87 422 111 422C144 422 128 420 166 420Z" stroke="rgb(0,0,0)" stroke-opacity="1" stroke-width="8" fill="rgb(0,0,0)" fill-opacity="1"></path></g></g><g><g><g><g><g transform="matrix(1,0,0,1,11,116.08001708984376)"><path transform="matrix(0.0119,0,0,-0.0119,0,0)" d="M345 437L329 437L350 549C366 635 394 673 440 673C470 673 497 658 512 634L522 638C527 654 537 685 545 705L550 720C534 727 503 733 480 733C469 733 453 730 445 726C421 715 339 654 316 630C294 608 282 578 271 521L256 442C215 422 195 414 170 405L165 383L246 383L237 327C207 132 170 -54 148 -123C130 -182 100 -213 64 -213C41 -213 30 -206 12 -184L-2 -188C-6 -211 -20 -259 -25 -268C-16 -273 -1 -276 10 -276C51 -276 105 -245 144 -198C215 -114 235 -18 319 383L423 383C427 402 434 425 440 439L436 446C407 439 408 437 345 437Z" stroke="rgb(0,0,0)" stroke-opacity="1" stroke-width="8" fill="rgb(0,0,0)" fill-opacity="1"></path></g></g></g></g></g><g><g transform="matrix(1,0,0,1,21.965014648437545,112.12000732421875)"><path transform="matrix(0.017,0,0,-0.017,0,0)" d="M123 111C93 111 66 83 66 53C66 23 93 -5 122 -5C154 -5 182 22 182 53C182 83 154 111 123 111ZM123 456C93 456 66 428 66 398C66 368 93 340 122 340C154 340 182 367 182 397C182 428 154 456 123 456Z" stroke="rgb(0,0,0)" stroke-opacity="1" stroke-width="8" fill="rgb(0,0,0)" fill-opacity="1"></path></g></g><g><g transform="matrix(1,0,0,1,29.600000000000023,112.12000732421875)"><path transform="matrix(0.017,0,0,-0.017,0,0)" d="M166 420C187 420 203 421 229 424C118 304 76 221 76 121C76 44 122 -11 186 -11C324 -11 477 236 477 384C477 441 451 482 415 482C402 482 390 478 382 470L332 423L343 404C352 410 361 413 370 413C397 413 413 390 413 350C413 202 316 39 228 39C179 39 148 81 148 146C148 251 187 342 285 464L275 482C255 473 242 470 214 470C186 470 144 472 115 475L103 476C97 477 92 477 91 477C79 477 70 475 59 470C45 443 34 407 21 352L43 352L60 394C67 411 87 422 111 422C144 422 128 420 166 420ZM827 111L803 94C750 56 702 36 666 36C619 36 590 73 590 133C590 158 593 185 598 214C615 218 724 248 749 259C834 296 873 342 873 404C873 451 839 482 789 482C721 496 611 423 574 349C544 299 514 180 514 113C514 35 558 -11 630 -11C687 -11 743 17 835 92ZM612 274C629 343 649 386 678 412C696 428 727 440 751 440C780 440 799 420 799 388C799 344 764 297 712 272C684 258 648 247 603 237ZM1138 722L1126 733C1074 707 1038 698 966 691L962 670L1010 670C1034 670 1044 663 1044 648C1044 645 1044 640 1041 622C1030 567 957 182 942 132C929 82 923 52 923 31C923 6 934 -9 953 -9C979 -9 1015 12 1113 85L1103 103L1077 86C1048 67 1026 56 1016 56C1009 56 1003 66 1003 76C1003 82 1004 89 1007 104ZM1181 152C1181 46 1226 -11 1309 -11C1364 -11 1424 15 1469 57C1531 116 1575 230 1575 331C1575 425 1525 482 1442 482C1338 482 1181 382 1181 152ZM1405 444C1466 444 1499 399 1499 315C1499 219 1468 113 1424 60C1406 39 1380 27 1349 27C1291 27 1257 72 1257 151C1257 264 1296 387 1345 427C1358 438 1381 444 1405 444ZM1949 330L1972 330C1980 395 1987 432 1996 458C1972 473 1937 482 1900 482C1855 483 1782 463 1725 400C1671 352 1632 241 1632 136C1632 40 1674 -11 1754 -11C1808 -11 1856 9 1911 54L1961 95L1953 115L1938 105C1866 57 1828 40 1793 40C1737 40 1708 80 1708 159C1708 267 1743 371 1792 409C1813 425 1837 433 1868 433C1913 433 1949 414 1949 390ZM2047 388L2054 368L2086 389C2123 412 2126 414 2133 414C2143 414 2151 404 2151 391C2151 384 2147 361 2143 347L2077 107C2069 76 2064 49 2064 30C2064 6 2075 -9 2094 -9C2120 -9 2156 12 2254 85L2244 103L2218 86C2189 67 2166 56 2157 56C2150 56 2144 66 2144 76C2144 86 2146 95 2151 116L2228 420C2232 437 2234 448 2234 456C2234 473 2225 482 2209 482C2187 482 2150 461 2075 408ZM2241 712C2212 712 2183 679 2183 645C2183 620 2198 604 2222 604C2253 604 2277 633 2277 671C2277 695 2262 712 2241 712ZM2773 722L2761 733C2709 707 2673 698 2601 691L2597 670L2645 670C2669 670 2679 663 2679 646C2679 638 2678 629 2677 622L2649 468C2619 477 2592 482 2567 482C2498 482 2404 410 2358 323C2327 265 2307 170 2307 86C2307 21 2322 -11 2351 -11C2378 -11 2415 6 2449 33C2503 77 2536 116 2603 217L2580 126C2569 82 2564 50 2564 24C2564 3 2573 -9 2590 -9C2607 -9 2631 3 2665 28L2746 88L2736 107L2692 76C2678 66 2662 59 2653 59C2645 59 2639 68 2639 82C2639 90 2640 99 2647 128ZM2404 59C2388 59 2379 73 2379 98C2379 224 2425 380 2474 418C2487 428 2506 433 2533 433C2577 433 2606 427 2639 410L2627 351C2590 171 2449 59 2404 59ZM3060 204L3031 77C3027 60 3025 42 3025 26C3025 4 3034 -9 3049 -9C3072 -9 3113 17 3195 85L3188 106C3164 86 3135 59 3113 59C3104 59 3098 68 3098 82C3098 87 3098 90 3099 93L3191 472L3181 481L3148 463C3107 478 3090 482 3063 482C3035 482 3015 477 2988 464C2926 433 2893 403 2868 354C2824 265 2793 145 2793 67C2793 23 2808 -11 2827 -11C2864 -11 2944 41 3060 204ZM3108 414C3086 305 3067 253 3033 201C2976 117 2915 59 2883 59C2871 59 2865 72 2865 99C2865 163 2893 280 2928 360C2952 415 2975 433 3023 433C3046 433 3064 429 3108 414ZM3715 722L3703 733C3651 707 3615 698 3543 691L3539 670L3587 670C3611 670 3621 663 3621 646C3621 638 3620 629 3619 622L3591 468C3561 477 3534 482 3509 482C3440 482 3346 410 3300 323C3269 265 3249 170 3249 86C3249 21 3264 -11 3293 -11C3320 -11 3357 6 3391 33C3445 77 3478 116 3545 217L3522 126C3511 82 3506 50 3506 24C3506 3 3515 -9 3532 -9C3549 -9 3573 3 3607 28L3688 88L3678 107L3634 76C3620 66 3604 59 3595 59C3587 59 3581 68 3581 82C3581 90 3582 99 3589 128ZM3346 59C3330 59 3321 73 3321 98C3321 224 3367 380 3416 418C3429 428 3448 433 3475 433C3519 433 3548 427 3581 410L3569 351C3532 171 3391 59 3346 59ZM4325 437L4309 437L4330 549C4346 635 4374 673 4420 673C4450 673 4477 658 4492 634L4502 638C4507 654 4517 685 4525 705L4530 720C4514 727 4483 733 4460 733C4449 733 4433 730 4425 726C4401 715 4319 654 4296 630C4274 608 4262 578 4251 521L4236 442C4195 422 4175 414 4150 405L4145 383L4226 383L4217 327C4187 132 4150 -54 4128 -123C4110 -182 4080 -213 4044 -213C4021 -213 4010 -206 3992 -184L3978 -188C3974 -211 3960 -259 3955 -268C3964 -273 3979 -276 3990 -276C4031 -276 4085 -245 4124 -198C4195 -114 4215 -18 4299 383L4403 383C4407 402 4414 425 4420 439L4416 446C4387 439 4388 437 4325 437ZM4564 388L4571 368L4603 389C4640 412 4643 414 4650 414C4660 414 4668 404 4668 391C4668 384 4664 361 4660 347L4594 107C4586 76 4581 49 4581 30C4581 6 4592 -9 4611 -9C4637 -9 4673 12 4771 85L4761 103L4735 86C4706 67 4683 56 4674 56C4667 56 4661 66 4661 76C4661 86 4663 95 4668 116L4745 420C4749 437 4751 448 4751 456C4751 473 4742 482 4726 482C4704 482 4667 461 4592 408ZM4758 712C4729 712 4700 679 4700 645C4700 620 4715 604 4739 604C4770 604 4794 633 4794 671C4794 695 4779 712 4758 712ZM4831 388L4838 368L4870 389C4907 412 4910 414 4917 414C4928 414 4935 404 4935 389C4935 338 4894 145 4853 2L4860 -9C4885 -2 4908 4 4930 8C4949 134 4970 199 5016 268C5070 352 5145 414 5190 414C5201 414 5207 405 5207 390C5207 372 5204 351 5196 319L5144 107C5135 70 5131 47 5131 31C5131 6 5142 -9 5161 -9C5187 -9 5223 12 5321 85L5311 103L5285 86C5256 67 5234 56 5224 56C5217 56 5211 65 5211 76C5211 81 5212 92 5213 96L5279 372C5286 401 5290 429 5290 446C5290 469 5279 482 5259 482C5217 482 5148 444 5089 389C5051 354 5023 320 4971 247L5009 408C5013 426 5015 438 5015 449C5015 470 5007 482 4992 482C4971 482 4932 460 4859 408ZM5633 204L5604 77C5600 60 5598 42 5598 26C5598 4 5607 -9 5622 -9C5645 -9 5686 17 5768 85L5761 106C5737 86 5708 59 5686 59C5677 59 5671 68 5671 82C5671 87 5671 90 5672 93L5764 472L5754 481L5721 463C5680 478 5663 482 5636 482C5608 482 5588 477 5561 464C5499 433 5466 403 5441 354C5397 265 5366 145 5366 67C5366 23 5381 -11 5400 -11C5437 -11 5517 41 5633 204ZM5681 414C5659 305 5640 253 5606 201C5549 117 5488 59 5456 59C5444 59 5438 72 5438 99C5438 163 5466 280 5501 360C5525 415 5548 433 5596 433C5619 433 5637 429 5681 414ZM6056 722L6044 733C5992 707 5956 698 5884 691L5880 670L5928 670C5952 670 5962 663 5962 648C5962 645 5962 640 5959 622C5948 567 5875 182 5860 132C5847 82 5841 52 5841 31C5841 6 5852 -9 5871 -9C5897 -9 5933 12 6031 85L6021 103L5995 86C5966 67 5944 56 5934 56C5927 56 5921 66 5921 76C5921 82 5922 89 5925 104Z" stroke="rgb(0,0,0)" stroke-opacity="1" stroke-width="8" fill="rgb(0,0,0)" fill-opacity="1"></path></g></g></g><g><g><g transform="matrix(1,0,0,1,2,133.66002197265624)"><path transform="matrix(0.017,0,0,-0.017,0,0)" d="M125 390L69 107C68 99 56 61 56 31C56 6 67 -9 86 -9C121 -9 156 11 234 74L265 99L255 117L210 86C181 66 161 56 150 56C141 56 136 64 136 76C136 102 150 183 179 328L192 390L299 390L310 440C272 436 238 434 200 434C216 528 227 577 245 631L234 646C214 634 187 622 156 610L131 440C87 419 61 408 43 403L41 390Z" stroke="rgb(0,0,0)" stroke-opacity="1" stroke-width="8" fill="rgb(0,0,0)" fill-opacity="1"></path></g></g><g><g transform="matrix(1,0,0,1,11.045019531250034,133.66002197265624)"><path transform="matrix(0.017,0,0,-0.017,0,0)" d="M123 111C93 111 66 83 66 53C66 23 93 -5 122 -5C154 -5 182 22 182 53C182 83 154 111 123 111ZM123 456C93 456 66 428 66 398C66 368 93 340 122 340C154 340 182 367 182 397C182 428 154 456 123 456Z" stroke="rgb(0,0,0)" stroke-opacity="1" stroke-width="8" fill="rgb(0,0,0)" fill-opacity="1"></path></g></g><g><g transform="matrix(1,0,0,1,18.68000488281251,133.66002197265624)"><path transform="matrix(0.017,0,0,-0.017,0,0)" d="M125 390L69 107C68 99 56 61 56 31C56 6 67 -9 86 -9C121 -9 156 11 234 74L265 99L255 117L210 86C181 66 161 56 150 56C141 56 136 64 136 76C136 102 150 183 179 328L192 390L299 390L310 440C272 436 238 434 200 434C216 528 227 577 245 631L234 646C214 634 187 622 156 610L131 440C87 419 61 408 43 403L41 390ZM366 388L373 368L405 389C442 412 445 414 452 414C462 414 470 404 470 391C470 384 466 361 462 347L396 107C388 76 383 49 383 30C383 6 394 -9 413 -9C439 -9 475 12 573 85L563 103L537 86C508 67 485 56 476 56C469 56 463 66 463 76C463 86 465 95 470 116L547 420C551 437 553 448 553 456C553 473 544 482 528 482C506 482 469 461 394 408ZM560 712C531 712 502 679 502 645C502 620 517 604 541 604C572 604 596 633 596 671C596 695 581 712 560 712ZM937 111L913 94C860 56 812 36 776 36C729 36 700 73 700 133C700 158 703 185 708 214C725 218 834 248 859 259C944 296 983 342 983 404C983 451 949 482 899 482C831 496 721 423 684 349C654 299 624 180 624 113C624 35 668 -11 740 -11C797 -11 853 17 945 92ZM722 274C739 343 759 386 788 412C806 428 837 440 861 440C890 440 909 420 909 388C909 344 874 297 822 272C794 258 758 247 713 237ZM1727 103L1701 86C1672 67 1650 56 1640 56C1633 56 1627 65 1627 76C1627 86 1629 95 1634 116L1709 413C1713 430 1716 446 1716 454C1716 471 1706 482 1690 482C1661 482 1623 464 1562 421C1499 376 1464 341 1415 272L1445 409C1449 429 1452 444 1452 451C1452 470 1442 482 1426 482C1396 482 1350 460 1295 418C1251 384 1231 363 1166 275L1199 408C1203 424 1205 439 1205 451C1205 470 1196 482 1182 482C1161 482 1123 461 1049 408L1021 388L1028 368C1065 391 1100 414 1107 414C1118 414 1125 404 1125 389C1125 338 1084 145 1043 2L1046 -9L1114 6L1136 108C1160 219 1187 278 1242 338C1284 384 1329 414 1357 414C1364 414 1368 406 1368 393C1368 358 1346 244 1305 69L1289 2L1294 -9L1363 6L1384 113C1400 194 1434 269 1478 318C1533 379 1583 414 1615 414C1623 414 1628 405 1628 389C1628 365 1625 351 1603 264C1563 105 1547 84 1547 31C1547 6 1558 -9 1577 -9C1603 -9 1639 12 1737 85ZM1950 -11C2006 -11 2121 62 2164 125C2205 186 2239 296 2239 371C2239 438 2216 482 2180 482C2138 482 2085 456 2033 409C1992 374 1972 348 1936 289L1960 408C1963 425 1965 440 1965 452C1965 471 1957 482 1943 482C1922 482 1884 461 1810 408L1782 388L1789 368L1821 389C1849 407 1860 412 1869 412C1879 412 1886 403 1886 389C1886 381 1884 361 1882 351L1824 8C1814 -52 1795 -143 1775 -233L1767 -270L1774 -276C1795 -269 1815 -264 1847 -259L1889 3C1910 -4 1932 -11 1950 -11ZM1917 165C1939 293 2046 424 2129 424C2155 424 2167 402 2167 356C2167 275 2127 156 2074 80C2054 51 2022 36 1981 36C1950 36 1925 43 1899 59ZM2290 152C2290 46 2335 -11 2418 -11C2473 -11 2533 15 2578 57C2640 116 2684 230 2684 331C2684 425 2634 482 2551 482C2447 482 2290 382 2290 152ZM2514 444C2575 444 2608 399 2608 315C2608 219 2577 113 2533 60C2515 39 2489 27 2458 27C2400 27 2366 72 2366 151C2366 264 2405 387 2454 427C2467 438 2490 444 2514 444Z" stroke="rgb(0,0,0)" stroke-opacity="1" stroke-width="8" fill="rgb(0,0,0)" fill-opacity="1"></path></g></g></g></g></svg>