<svg xmlns="http://www.w3.org/2000/svg" xmlns:xlink="http://www.w3.org/1999/xlink" width="141.310009765625" height="110.125" style="width:141.310009765625px;height:110.125px;font-family:Asana-Math, Asana;background:#FFF;"><g><g><g><g transform="matrix(1,0,0,1,2,18.9550048828125)"><path transform="matrix(0.017,0,0,-0.017,0,0)" d="M1411 420C1432 420 1448 421 1474 424C1363 304 1321 221 1321 121C1321 44 1367 -11 1431 -11C1569 -11 1722 236 1722 384C1722 441 1696 482 1660 482C1647 482 1635 478 1627 470L1577 423L1588 404C1597 410 1606 413 1615 413C1642 413 1658 390 1658 350C1658 202 1561 39 1473 39C1424 39 1393 81 1393 146C1393 251 1432 342 1530 464L1520 482C1500 473 1487 470 1459 470C1431 470 1389 472 1360 475L1348 476C1342 477 1337 477 1336 477C1324 477 1315 475 1304 470C1290 443 1279 407 1266 352L1288 352L1305 394C1312 411 1332 422 1356 422C1389 422 1373 420 1411 420Z" stroke="rgb(0,0,0)" stroke-opacity="1" stroke-width="8" fill="rgb(0,0,0)" fill-opacity="1"></path></g></g><g><g><g><g><g transform="matrix(1,0,0,1,32.61501464843752,13.9)"><path transform="matrix(0.0119,0,0,-0.0119,0,0)" d="M16 23L16 -3C203 -3 203 0 239 0C275 0 275 -3 468 -3L468 82C353 77 307 81 122 77L304 270C401 373 431 428 431 503C431 618 353 689 226 689C154 689 105 669 56 619L39 483L68 483L81 529C97 587 133 612 200 612C286 612 341 558 341 473C341 398 299 324 186 204Z" stroke="rgb(0,0,0)" stroke-opacity="1" stroke-width="8" fill="rgb(0,0,0)" fill-opacity="1"></path></g></g></g></g><g><g><g><g transform="matrix(1,0,0,1,32.150000000000034,24.56500244140625)"><path transform="matrix(0.0119,0,0,-0.0119,0,0)" d="M345 437L329 437L350 549C366 635 394 673 440 673C470 673 497 658 512 634L522 638C527 654 537 685 545 705L550 720C534 727 503 733 480 733C469 733 453 730 445 726C421 715 339 654 316 630C294 608 282 578 271 521L256 442C215 422 195 414 170 405L165 383L246 383L237 327C207 132 170 -54 148 -123C130 -182 100 -213 64 -213C41 -213 30 -206 12 -184L-2 -188C-6 -211 -20 -259 -25 -268C-16 -273 -1 -276 10 -276C51 -276 105 -245 144 -198C215 -114 235 -18 319 383L423 383C427 402 434 425 440 439L436 446C407 439 408 437 345 437Z" stroke="rgb(0,0,0)" stroke-opacity="1" stroke-width="8" fill="rgb(0,0,0)" fill-opacity="1"></path></g></g></g></g></g><g><g transform="matrix(1,0,0,1,44.825000000000045,18.9550048828125)"><path transform="matrix(0.017,0,0,-0.017,0,0)" d="M604 347L604 406L65 406L65 347ZM604 134L604 193L65 193L65 134Z" stroke="rgb(0,0,0)" stroke-opacity="1" stroke-width="8" fill="rgb(0,0,0)" fill-opacity="1"></path></g></g><g><g transform="matrix(1,0,0,1,61.280004882812534,18.9550048828125)"><path transform="matrix(0.017,0,0,-0.017,0,0)" d="M166 420C187 420 203 421 229 424C118 304 76 221 76 121C76 44 122 -11 186 -11C324 -11 477 236 477 384C477 441 451 482 415 482C402 482 390 478 382 470L332 423L343 404C352 410 361 413 370 413C397 413 413 390 413 350C413 202 316 39 228 39C179 39 148 81 148 146C148 251 187 342 285 464L275 482C255 473 242 470 214 470C186 470 144 472 115 475L103 476C97 477 92 477 91 477C79 477 70 475 59 470C45 443 34 407 21 352L43 352L60 394C67 411 87 422 111 422C144 422 128 420 166 420Z" stroke="rgb(0,0,0)" stroke-opacity="1" stroke-width="8" fill="rgb(0,0,0)" fill-opacity="1"></path></g></g><g><g><g><g><g transform="matrix(1,0,0,1,70.7449951171875,13.9)"><path transform="matrix(0.0119,0,0,-0.0119,0,0)" d="M16 23L16 -3C203 -3 203 0 239 0C275 0 275 -3 468 -3L468 82C353 77 307 81 122 77L304 270C401 373 431 428 431 503C431 618 353 689 226 689C154 689 105 669 56 619L39 483L68 483L81 529C97 587 133 612 200 612C286 612 341 558 341 473C341 398 299 324 186 204Z" stroke="rgb(0,0,0)" stroke-opacity="1" stroke-width="8" fill="rgb(0,0,0)" fill-opacity="1"></path></g></g></g></g><g><g><g><g transform="matrix(1,0,0,1,70.28000488281253,24.56500244140625)"><path transform="matrix(0.0119,0,0,-0.0119,0,0)" d="M263 689C108 689 29 566 29 324C29 207 50 106 85 57C120 8 176 -20 238 -20C389 -20 465 110 465 366C465 585 400 689 263 689ZM245 654C342 654 381 556 381 316C381 103 343 15 251 15C154 15 113 116 113 360C113 571 150 654 245 654Z" stroke="rgb(0,0,0)" stroke-opacity="1" stroke-width="8" fill="rgb(0,0,0)" fill-opacity="1"></path></g></g></g></g></g><g><g transform="matrix(1,0,0,1,81.09499511718752,18.9550048828125)"><path transform="matrix(0.017,0,0,-0.017,0,0)" d="M555 243L555 299L51 299L51 243Z" stroke="rgb(0,0,0)" stroke-opacity="1" stroke-width="8" fill="rgb(0,0,0)" fill-opacity="1"></path></g></g><g><g transform="matrix(1,0,0,1,94.7750244140625,18.9550048828125)"><path transform="matrix(0.017,0,0,-0.017,0,0)" d="M16 23L16 -3C203 -3 203 0 239 0C275 0 275 -3 468 -3L468 82C353 77 307 81 122 77L304 270C401 373 431 428 431 503C431 618 353 689 226 689C154 689 105 669 56 619L39 483L68 483L81 529C97 587 133 612 200 612C286 612 341 558 341 473C341 398 299 324 186 204ZM774 482C707 482 554 419 554 259C554 182 599 136 676 136C684 136 695 136 706 137L665 99C649 84 638 66 638 52C638 42 645 31 659 19C590 -4 462 -48 462 -159C462 -230 532 -276 641 -276C770 -276 883 -204 883 -121C883 -85 862 -49 819 -14L759 35C725 62 712 81 712 100C712 114 727 128 739 146C837 170 908 253 908 342C908 357 905 376 904 380C921 378 929 378 938 378C955 378 965 379 988 382L997 427L994 433C966 426 946 424 892 424C892 425 868 482 774 482ZM675 1L752 -58C798 -94 817 -121 817 -154C817 -206 748 -248 665 -248C583 -248 526 -206 526 -145C526 -43 636 -11 675 1ZM749 448C807 448 836 412 836 341C836 238 788 168 718 168C657 168 625 209 625 288C625 383 676 448 749 448ZM1234 722L1222 733C1177 711 1136 697 1062 691L1058 670L1106 670C1124 670 1140 667 1140 647C1140 641 1140 632 1138 622L1096 388C1076 272 1034 80 1008 2L1015 -9L1084 7C1092 64 1106 164 1146 236C1191 317 1294 414 1336 414C1347 414 1358 407 1358 393C1358 375 1353 342 1343 303L1292 107C1286 85 1279 55 1279 31C1279 6 1289 -9 1310 -9C1342 -9 1410 41 1469 85L1459 103L1433 86C1410 71 1384 56 1372 56C1365 56 1359 65 1359 76C1359 88 1362 101 1366 116L1430 372C1436 398 1441 423 1441 447C1441 464 1435 482 1409 482C1374 482 1297 437 1229 374C1196 343 1170 308 1142 273L1138 275Z" stroke="rgb(0,0,0)" stroke-opacity="1" stroke-width="8" fill="rgb(0,0,0)" fill-opacity="1"></path></g></g></g><g></g><g><g><g transform="matrix(1,0,0,1,2,62.3050048828125)"><path transform="matrix(0.017,0,0,-0.017,0,0)" d="M166 420C187 420 203 421 229 424C118 304 76 221 76 121C76 44 122 -11 186 -11C324 -11 477 236 477 384C477 441 451 482 415 482C402 482 390 478 382 470L332 423L343 404C352 410 361 413 370 413C397 413 413 390 413 350C413 202 316 39 228 39C179 39 148 81 148 146C148 251 187 342 285 464L275 482C255 473 242 470 214 470C186 470 144 472 115 475L103 476C97 477 92 477 91 477C79 477 70 475 59 470C45 443 34 407 21 352L43 352L60 394C67 411 87 422 111 422C144 422 128 420 166 420Z" stroke="rgb(0,0,0)" stroke-opacity="1" stroke-width="8" fill="rgb(0,0,0)" fill-opacity="1"></path></g></g><g><g><g><g><g transform="matrix(1,0,0,1,11,66.26500244140625)"><path transform="matrix(0.0119,0,0,-0.0119,0,0)" d="M263 689C108 689 29 566 29 324C29 207 50 106 85 57C120 8 176 -20 238 -20C389 -20 465 110 465 366C465 585 400 689 263 689ZM245 654C342 654 381 556 381 316C381 103 343 15 251 15C154 15 113 116 113 360C113 571 150 654 245 654Z" stroke="rgb(0,0,0)" stroke-opacity="1" stroke-width="8" fill="rgb(0,0,0)" fill-opacity="1"></path></g></g></g></g></g><g><g transform="matrix(1,0,0,1,21.350000000000023,62.3050048828125)"><path transform="matrix(0.017,0,0,-0.017,0,0)" d="M123 111C93 111 66 83 66 53C66 23 93 -5 122 -5C154 -5 182 22 182 53C182 83 154 111 123 111ZM123 456C93 456 66 428 66 398C66 368 93 340 122 340C154 340 182 367 182 397C182 428 154 456 123 456Z" stroke="rgb(0,0,0)" stroke-opacity="1" stroke-width="8" fill="rgb(0,0,0)" fill-opacity="1"></path></g></g><g><g transform="matrix(1,0,0,1,28.985009765625023,62.3050048828125)"><path transform="matrix(0.017,0,0,-0.017,0,0)" d="M166 420C187 420 203 421 229 424C118 304 76 221 76 121C76 44 122 -11 186 -11C324 -11 477 236 477 384C477 441 451 482 415 482C402 482 390 478 382 470L332 423L343 404C352 410 361 413 370 413C397 413 413 390 413 350C413 202 316 39 228 39C179 39 148 81 148 146C148 251 187 342 285 464L275 482C255 473 242 470 214 470C186 470 144 472 115 475L103 476C97 477 92 477 91 477C79 477 70 475 59 470C45 443 34 407 21 352L43 352L60 394C67 411 87 422 111 422C144 422 128 420 166 420ZM827 111L803 94C750 56 702 36 666 36C619 36 590 73 590 133C590 158 593 185 598 214C615 218 724 248 749 259C834 296 873 342 873 404C873 451 839 482 789 482C721 496 611 423 574 349C544 299 514 180 514 113C514 35 558 -11 630 -11C687 -11 743 17 835 92ZM612 274C629 343 649 386 678 412C696 428 727 440 751 440C780 440 799 420 799 388C799 344 764 297 712 272C684 258 648 247 603 237ZM1138 722L1126 733C1074 707 1038 698 966 691L962 670L1010 670C1034 670 1044 663 1044 648C1044 645 1044 640 1041 622C1030 567 957 182 942 132C929 82 923 52 923 31C923 6 934 -9 953 -9C979 -9 1015 12 1113 85L1103 103L1077 86C1048 67 1026 56 1016 56C1009 56 1003 66 1003 76C1003 82 1004 89 1007 104ZM1181 152C1181 46 1226 -11 1309 -11C1364 -11 1424 15 1469 57C1531 116 1575 230 1575 331C1575 425 1525 482 1442 482C1338 482 1181 382 1181 152ZM1405 444C1466 444 1499 399 1499 315C1499 219 1468 113 1424 60C1406 39 1380 27 1349 27C1291 27 1257 72 1257 151C1257 264 1296 387 1345 427C1358 438 1381 444 1405 444ZM1949 330L1972 330C1980 395 1987 432 1996 458C1972 473 1937 482 1900 482C1855 483 1782 463 1725 400C1671 352 1632 241 1632 136C1632 40 1674 -11 1754 -11C1808 -11 1856 9 1911 54L1961 95L1953 115L1938 105C1866 57 1828 40 1793 40C1737 40 1708 80 1708 159C1708 267 1743 371 1792 409C1813 425 1837 433 1868 433C1913 433 1949 414 1949 390ZM2047 388L2054 368L2086 389C2123 412 2126 414 2133 414C2143 414 2151 404 2151 391C2151 384 2147 361 2143 347L2077 107C2069 76 2064 49 2064 30C2064 6 2075 -9 2094 -9C2120 -9 2156 12 2254 85L2244 103L2218 86C2189 67 2166 56 2157 56C2150 56 2144 66 2144 76C2144 86 2146 95 2151 116L2228 420C2232 437 2234 448 2234 456C2234 473 2225 482 2209 482C2187 482 2150 461 2075 408ZM2241 712C2212 712 2183 679 2183 645C2183 620 2198 604 2222 604C2253 604 2277 633 2277 671C2277 695 2262 712 2241 712ZM2773 722L2761 733C2709 707 2673 698 2601 691L2597 670L2645 670C2669 670 2679 663 2679 646C2679 638 2678 629 2677 622L2649 468C2619 477 2592 482 2567 482C2498 482 2404 410 2358 323C2327 265 2307 170 2307 86C2307 21 2322 -11 2351 -11C2378 -11 2415 6 2449 33C2503 77 2536 116 2603 217L2580 126C2569 82 2564 50 2564 24C2564 3 2573 -9 2590 -9C2607 -9 2631 3 2665 28L2746 88L2736 107L2692 76C2678 66 2662 59 2653 59C2645 59 2639 68 2639 82C2639 90 2640 99 2647 128ZM2404 59C2388 59 2379 73 2379 98C2379 224 2425 380 2474 418C2487 428 2506 433 2533 433C2577 433 2606 427 2639 410L2627 351C2590 171 2449 59 2404 59ZM3060 204L3031 77C3027 60 3025 42 3025 26C3025 4 3034 -9 3049 -9C3072 -9 3113 17 3195 85L3188 106C3164 86 3135 59 3113 59C3104 59 3098 68 3098 82C3098 87 3098 90 3099 93L3191 472L3181 481L3148 463C3107 478 3090 482 3063 482C3035 482 3015 477 2988 464C2926 433 2893 403 2868 354C2824 265 2793 145 2793 67C2793 23 2808 -11 2827 -11C2864 -11 2944 41 3060 204ZM3108 414C3086 305 3067 253 3033 201C2976 117 2915 59 2883 59C2871 59 2865 72 2865 99C2865 163 2893 280 2928 360C2952 415 2975 433 3023 433C3046 433 3064 429 3108 414ZM3715 722L3703 733C3651 707 3615 698 3543 691L3539 670L3587 670C3611 670 3621 663 3621 646C3621 638 3620 629 3619 622L3591 468C3561 477 3534 482 3509 482C3440 482 3346 410 3300 323C3269 265 3249 170 3249 86C3249 21 3264 -11 3293 -11C3320 -11 3357 6 3391 33C3445 77 3478 116 3545 217L3522 126C3511 82 3506 50 3506 24C3506 3 3515 -9 3532 -9C3549 -9 3573 3 3607 28L3688 88L3678 107L3634 76C3620 66 3604 59 3595 59C3587 59 3581 68 3581 82C3581 90 3582 99 3589 128ZM3346 59C3330 59 3321 73 3321 98C3321 224 3367 380 3416 418C3429 428 3448 433 3475 433C3519 433 3548 427 3581 410L3569 351C3532 171 3391 59 3346 59ZM4014 388L4021 368L4053 389C4090 412 4093 414 4100 414C4110 414 4118 404 4118 391C4118 384 4114 361 4110 347L4044 107C4036 76 4031 49 4031 30C4031 6 4042 -9 4061 -9C4087 -9 4123 12 4221 85L4211 103L4185 86C4156 67 4133 56 4124 56C4117 56 4111 66 4111 76C4111 86 4113 95 4118 116L4195 420C4199 437 4201 448 4201 456C4201 473 4192 482 4176 482C4154 482 4117 461 4042 408ZM4208 712C4179 712 4150 679 4150 645C4150 620 4165 604 4189 604C4220 604 4244 633 4244 671C4244 695 4229 712 4208 712ZM4281 388L4288 368L4320 389C4357 412 4360 414 4367 414C4378 414 4385 404 4385 389C4385 338 4344 145 4303 2L4310 -9C4335 -2 4358 4 4380 8C4399 134 4420 199 4466 268C4520 352 4595 414 4640 414C4651 414 4657 405 4657 390C4657 372 4654 351 4646 319L4594 107C4585 70 4581 47 4581 31C4581 6 4592 -9 4611 -9C4637 -9 4673 12 4771 85L4761 103L4735 86C4706 67 4684 56 4674 56C4667 56 4661 65 4661 76C4661 81 4662 92 4663 96L4729 372C4736 401 4740 429 4740 446C4740 469 4729 482 4709 482C4667 482 4598 444 4539 389C4501 354 4473 320 4421 247L4459 408C4463 426 4465 438 4465 449C4465 470 4457 482 4442 482C4421 482 4382 460 4309 408ZM4846 388L4853 368L4885 389C4922 412 4925 414 4932 414C4942 414 4950 404 4950 391C4950 384 4946 361 4942 347L4876 107C4868 76 4863 49 4863 30C4863 6 4874 -9 4893 -9C4919 -9 4955 12 5053 85L5043 103L5017 86C4988 67 4965 56 4956 56C4949 56 4943 66 4943 76C4943 86 4945 95 4950 116L5027 420C5031 437 5033 448 5033 456C5033 473 5024 482 5008 482C4986 482 4949 461 4874 408ZM5040 712C5011 712 4982 679 4982 645C4982 620 4997 604 5021 604C5052 604 5076 633 5076 671C5076 695 5061 712 5040 712ZM5431 330L5454 330C5462 395 5469 432 5478 458C5454 473 5419 482 5382 482C5337 483 5264 463 5207 400C5153 352 5114 241 5114 136C5114 40 5156 -11 5236 -11C5290 -11 5338 9 5393 54L5443 95L5435 115L5420 105C5348 57 5310 40 5275 40C5219 40 5190 80 5190 159C5190 267 5225 371 5274 409C5295 425 5319 433 5350 433C5395 433 5431 414 5431 390ZM5529 388L5536 368L5568 389C5605 412 5608 414 5615 414C5625 414 5633 404 5633 391C5633 384 5629 361 5625 347L5559 107C5551 76 5546 49 5546 30C5546 6 5557 -9 5576 -9C5602 -9 5638 12 5736 85L5726 103L5700 86C5671 67 5648 56 5639 56C5632 56 5626 66 5626 76C5626 86 5628 95 5633 116L5710 420C5714 437 5716 448 5716 456C5716 473 5707 482 5691 482C5669 482 5632 461 5557 408ZM5723 712C5694 712 5665 679 5665 645C5665 620 5680 604 5704 604C5735 604 5759 633 5759 671C5759 695 5744 712 5723 712ZM6043 204L6014 77C6010 60 6008 42 6008 26C6008 4 6017 -9 6032 -9C6055 -9 6096 17 6178 85L6171 106C6147 86 6118 59 6096 59C6087 59 6081 68 6081 82C6081 87 6081 90 6082 93L6174 472L6164 481L6131 463C6090 478 6073 482 6046 482C6018 482 5998 477 5971 464C5909 433 5876 403 5851 354C5807 265 5776 145 5776 67C5776 23 5791 -11 5810 -11C5847 -11 5927 41 6043 204ZM6091 414C6069 305 6050 253 6016 201C5959 117 5898 59 5866 59C5854 59 5848 72 5848 99C5848 163 5876 280 5911 360C5935 415 5958 433 6006 433C6029 433 6047 429 6091 414ZM6466 722L6454 733C6402 707 6366 698 6294 691L6290 670L6338 670C6362 670 6372 663 6372 648C6372 645 6372 640 6369 622C6358 567 6285 182 6270 132C6257 82 6251 52 6251 31C6251 6 6262 -9 6281 -9C6307 -9 6343 12 6441 85L6431 103L6405 86C6376 67 6354 56 6344 56C6337 56 6331 66 6331 76C6331 82 6332 89 6335 104Z" stroke="rgb(0,0,0)" stroke-opacity="1" stroke-width="8" fill="rgb(0,0,0)" fill-opacity="1"></path></g></g></g><g><g><g transform="matrix(1,0,0,1,2,83.84500732421876)"><path transform="matrix(0.017,0,0,-0.017,0,0)" d="M275 482C208 482 55 419 55 259C55 182 100 136 177 136C185 136 196 136 207 137L166 99C150 84 139 66 139 52C139 42 146 31 160 19C91 -4 -37 -48 -37 -159C-37 -230 33 -276 142 -276C271 -276 384 -204 384 -121C384 -85 363 -49 320 -14L260 35C226 62 213 81 213 100C213 114 228 128 240 146C338 170 409 253 409 342C409 357 406 376 405 380C422 378 430 378 439 378C456 378 466 379 489 382L498 427L495 433C467 426 447 424 393 424C393 425 369 482 275 482ZM176 1L253 -58C299 -94 318 -121 318 -154C318 -206 249 -248 166 -248C84 -248 27 -206 27 -145C27 -43 137 -11 176 1ZM250 448C308 448 337 412 337 341C337 238 289 168 219 168C158 168 126 209 126 288C126 383 177 448 250 448Z" stroke="rgb(0,0,0)" stroke-opacity="1" stroke-width="8" fill="rgb(0,0,0)" fill-opacity="1"></path></g></g><g><g transform="matrix(1,0,0,1,13.8800048828125,83.84500732421876)"><path transform="matrix(0.017,0,0,-0.017,0,0)" d="M123 111C93 111 66 83 66 53C66 23 93 -5 122 -5C154 -5 182 22 182 53C182 83 154 111 123 111ZM123 456C93 456 66 428 66 398C66 368 93 340 122 340C154 340 182 367 182 397C182 428 154 456 123 456Z" stroke="rgb(0,0,0)" stroke-opacity="1" stroke-width="8" fill="rgb(0,0,0)" fill-opacity="1"></path></g></g><g><g transform="matrix(1,0,0,1,21.5150146484375,83.84500732421876)"><path transform="matrix(0.017,0,0,-0.017,0,0)" d="M275 482C208 482 55 419 55 259C55 182 100 136 177 136C185 136 196 136 207 137L166 99C150 84 139 66 139 52C139 42 146 31 160 19C91 -4 -37 -48 -37 -159C-37 -230 33 -276 142 -276C271 -276 384 -204 384 -121C384 -85 363 -49 320 -14L260 35C226 62 213 81 213 100C213 114 228 128 240 146C338 170 409 253 409 342C409 357 406 376 405 380C422 378 430 378 439 378C456 378 466 379 489 382L498 427L495 433C467 426 447 424 393 424C393 425 369 482 275 482ZM176 1L253 -58C299 -94 318 -121 318 -154C318 -206 249 -248 166 -248C84 -248 27 -206 27 -145C27 -43 137 -11 176 1ZM250 448C308 448 337 412 337 341C337 238 289 168 219 168C158 168 126 209 126 288C126 383 177 448 250 448ZM867 365C870 403 875 435 883 476C872 481 868 482 863 482C832 482 801 458 765 407C726 351 687 291 671 256L703 408C707 425 709 438 709 450C709 470 701 482 686 482C665 482 627 461 553 408L525 388L532 368L564 389C592 407 603 412 612 412C622 412 629 403 629 390C629 332 586 126 546 -2L556 -9C571 -4 587 -1 610 4L623 6L649 126C667 209 690 262 734 319C768 363 795 384 817 384C832 384 842 379 853 365ZM1158 204L1129 77C1125 60 1123 42 1123 26C1123 4 1132 -9 1147 -9C1170 -9 1211 17 1293 85L1286 106C1262 86 1233 59 1211 59C1202 59 1196 68 1196 82C1196 87 1196 90 1197 93L1289 472L1279 481L1246 463C1205 478 1188 482 1161 482C1133 482 1113 477 1086 464C1024 433 991 403 966 354C922 265 891 145 891 67C891 23 906 -11 925 -11C962 -11 1042 41 1158 204ZM1206 414C1184 305 1165 253 1131 201C1074 117 1013 59 981 59C969 59 963 72 963 99C963 163 991 280 1026 360C1050 415 1073 433 1121 433C1144 433 1162 429 1206 414ZM1496 420C1517 420 1533 421 1559 424C1448 304 1406 221 1406 121C1406 44 1452 -11 1516 -11C1654 -11 1807 236 1807 384C1807 441 1781 482 1745 482C1732 482 1720 478 1712 470L1662 423L1673 404C1682 410 1691 413 1700 413C1727 413 1743 390 1743 350C1743 202 1646 39 1558 39C1509 39 1478 81 1478 146C1478 251 1517 342 1615 464L1605 482C1585 473 1572 470 1544 470C1516 470 1474 472 1445 475L1433 476C1427 477 1422 477 1421 477C1409 477 1400 475 1389 470C1375 443 1364 407 1351 352L1373 352L1390 394C1397 411 1417 422 1441 422C1474 422 1458 420 1496 420ZM2157 111L2133 94C2080 56 2032 36 1996 36C1949 36 1920 73 1920 133C1920 158 1923 185 1928 214C1945 218 2054 248 2079 259C2164 296 2203 342 2203 404C2203 451 2169 482 2119 482C2051 496 1941 423 1904 349C1874 299 1844 180 1844 113C1844 35 1888 -11 1960 -11C2017 -11 2073 17 2165 92ZM1942 274C1959 343 1979 386 2008 412C2026 428 2057 440 2081 440C2110 440 2129 420 2129 388C2129 344 2094 297 2042 272C2014 258 1978 247 1933 237ZM2700 722L2688 733C2636 707 2600 698 2528 691L2524 670L2572 670C2596 670 2606 663 2606 646C2606 638 2605 629 2604 622L2576 468C2546 477 2519 482 2494 482C2425 482 2331 410 2285 323C2254 265 2234 170 2234 86C2234 21 2249 -11 2278 -11C2305 -11 2342 6 2376 33C2430 77 2463 116 2530 217L2507 126C2496 82 2491 50 2491 24C2491 3 2500 -9 2517 -9C2534 -9 2558 3 2592 28L2673 88L2663 107L2619 76C2605 66 2589 59 2580 59C2572 59 2566 68 2566 82C2566 90 2567 99 2574 128ZM2331 59C2315 59 2306 73 2306 98C2306 224 2352 380 2401 418C2414 428 2433 433 2460 433C2504 433 2533 427 2566 410L2554 351C2517 171 2376 59 2331 59ZM2987 204L2958 77C2954 60 2952 42 2952 26C2952 4 2961 -9 2976 -9C2999 -9 3040 17 3122 85L3115 106C3091 86 3062 59 3040 59C3031 59 3025 68 3025 82C3025 87 3025 90 3026 93L3118 472L3108 481L3075 463C3034 478 3017 482 2990 482C2962 482 2942 477 2915 464C2853 433 2820 403 2795 354C2751 265 2720 145 2720 67C2720 23 2735 -11 2754 -11C2791 -11 2871 41 2987 204ZM3035 414C3013 305 2994 253 2960 201C2903 117 2842 59 2810 59C2798 59 2792 72 2792 99C2792 163 2820 280 2855 360C2879 415 2902 433 2950 433C2973 433 2991 429 3035 414ZM3642 722L3630 733C3578 707 3542 698 3470 691L3466 670L3514 670C3538 670 3548 663 3548 646C3548 638 3547 629 3546 622L3518 468C3488 477 3461 482 3436 482C3367 482 3273 410 3227 323C3196 265 3176 170 3176 86C3176 21 3191 -11 3220 -11C3247 -11 3284 6 3318 33C3372 77 3405 116 3472 217L3449 126C3438 82 3433 50 3433 24C3433 3 3442 -9 3459 -9C3476 -9 3500 3 3534 28L3615 88L3605 107L3561 76C3547 66 3531 59 3522 59C3514 59 3508 68 3508 82C3508 90 3509 99 3516 128ZM3273 59C3257 59 3248 73 3248 98C3248 224 3294 380 3343 418C3356 428 3375 433 3402 433C3446 433 3475 427 3508 410L3496 351C3459 171 3318 59 3273 59Z" stroke="rgb(0,0,0)" stroke-opacity="1" stroke-width="8" fill="rgb(0,0,0)" fill-opacity="1"></path></g></g></g><g><g><g transform="matrix(1,0,0,1,2,104.00501708984375)"><path transform="matrix(0.017,0,0,-0.017,0,0)" d="M236 722L224 733C179 711 138 697 64 691L60 670L108 670C126 670 142 667 142 647C142 641 142 632 140 622L98 388C78 272 36 80 10 2L17 -9L86 7C94 64 108 164 148 236C193 317 296 414 338 414C349 414 360 407 360 393C360 375 355 342 345 303L294 107C288 85 281 55 281 31C281 6 291 -9 312 -9C344 -9 412 41 471 85L461 103L435 86C412 71 386 56 374 56C367 56 361 65 361 76C361 88 364 101 368 116L432 372C438 398 443 423 443 447C443 464 437 482 411 482C376 482 299 437 231 374C198 343 172 308 144 273L140 275Z" stroke="rgb(0,0,0)" stroke-opacity="1" stroke-width="8" fill="rgb(0,0,0)" fill-opacity="1"></path></g></g><g><g transform="matrix(1,0,0,1,13.8800048828125,104.00501708984375)"><path transform="matrix(0.017,0,0,-0.017,0,0)" d="M123 111C93 111 66 83 66 53C66 23 93 -5 122 -5C154 -5 182 22 182 53C182 83 154 111 123 111ZM123 456C93 456 66 428 66 398C66 368 93 340 122 340C154 340 182 367 182 397C182 428 154 456 123 456Z" stroke="rgb(0,0,0)" stroke-opacity="1" stroke-width="8" fill="rgb(0,0,0)" fill-opacity="1"></path></g></g><g><g transform="matrix(1,0,0,1,21.5150146484375,104.00501708984375)"><path transform="matrix(0.017,0,0,-0.017,0,0)" d="M271 204L242 77C238 60 236 42 236 26C236 4 245 -9 260 -9C283 -9 324 17 406 85L399 106C375 86 346 59 324 59C315 59 309 68 309 82C309 87 309 90 310 93L402 472L392 481L359 463C318 478 301 482 274 482C246 482 226 477 199 464C137 433 104 403 79 354C35 265 4 145 4 67C4 23 19 -11 38 -11C75 -11 155 41 271 204ZM319 414C297 305 278 253 244 201C187 117 126 59 94 59C82 59 76 72 76 99C76 163 104 280 139 360C163 415 186 433 234 433C257 433 275 429 319 414ZM694 722L682 733C630 707 594 698 522 691L518 670L566 670C590 670 600 663 600 648C600 645 600 640 597 622C586 567 513 182 498 132C485 82 479 52 479 31C479 6 490 -9 509 -9C535 -9 571 12 669 85L659 103L633 86C604 67 582 56 572 56C565 56 559 66 559 76C559 82 560 89 563 104ZM845 390L789 107C788 99 776 61 776 31C776 6 787 -9 806 -9C841 -9 876 11 954 74L985 99L975 117L930 86C901 66 881 56 870 56C861 56 856 64 856 76C856 102 870 183 899 328L912 390L1019 390L1030 440C992 436 958 434 920 434C936 528 947 577 965 631L954 646C934 634 907 622 876 610L851 440C807 419 781 408 763 403L761 390ZM1544 473L1537 482L1469 465L1459 414C1444 336 1419 268 1388 221C1329 130 1251 59 1211 59C1203 59 1198 68 1198 85C1198 99 1200 112 1205 137L1262 408C1265 424 1267 438 1267 451C1267 470 1258 482 1244 482C1224 482 1186 461 1112 408L1084 388L1091 368L1123 389C1151 407 1162 412 1171 412C1180 412 1188 403 1188 392C1188 388 1187 378 1186 374L1123 77C1121 68 1119 44 1119 30C1119 7 1134 -11 1154 -11C1217 -11 1338 101 1422 239L1385 97C1378 73 1374 46 1374 31C1374 6 1385 -9 1404 -9C1430 -9 1466 12 1564 85L1554 103L1528 86C1504 70 1478 59 1467 59C1459 59 1454 66 1454 76C1454 112 1529 416 1544 473ZM1975 365C1978 403 1983 435 1991 476C1980 481 1976 482 1971 482C1940 482 1909 458 1873 407C1834 351 1795 291 1779 256L1811 408C1815 425 1817 438 1817 450C1817 470 1809 482 1794 482C1773 482 1735 461 1661 408L1633 388L1640 368L1672 389C1700 407 1711 412 1720 412C1730 412 1737 403 1737 390C1737 332 1694 126 1654 -2L1664 -9C1679 -4 1695 -1 1718 4L1731 6L1757 126C1775 209 1798 262 1842 319C1876 363 1903 384 1925 384C1940 384 1950 379 1961 365ZM2266 204L2237 77C2233 60 2231 42 2231 26C2231 4 2240 -9 2255 -9C2278 -9 2319 17 2401 85L2394 106C2370 86 2341 59 2319 59C2310 59 2304 68 2304 82C2304 87 2304 90 2305 93L2397 472L2387 481L2354 463C2313 478 2296 482 2269 482C2241 482 2221 477 2194 464C2132 433 2099 403 2074 354C2030 265 1999 145 1999 67C1999 23 2014 -11 2033 -11C2070 -11 2150 41 2266 204ZM2314 414C2292 305 2273 253 2239 201C2182 117 2121 59 2089 59C2077 59 2071 72 2071 99C2071 163 2099 280 2134 360C2158 415 2181 433 2229 433C2252 433 2270 429 2314 414Z" stroke="rgb(0,0,0)" stroke-opacity="1" stroke-width="8" fill="rgb(0,0,0)" fill-opacity="1"></path></g></g></g></g></svg>