<svg xmlns="http://www.w3.org/2000/svg" xmlns:xlink="http://www.w3.org/1999/xlink" width="166.8400115966797" height="50.875" style="width:166.8400115966797px;height:50.875px;font-family:Asana-Math, Asana;background:#FFF;"><g><g><g><g transform="matrix(1,0,0,1,2,30.205001831054688)"><path transform="matrix(0.017,0,0,-0.017,0,0)" d="M105 664L160 662C184 661 195 653 195 635L112 125C95 34 94 31 54 28L13 25L9 -3L51 -2C92 -1 123 0 141 0C158 0 187 -1 227 -2L280 -3L283 25L218 28C192 29 182 37 182 58C182 67 183 74 186 93L284 648C320 654 336 656 355 656C457 656 506 612 506 519C506 411 434 323 346 323C324 323 304 328 267 342L269 311C306 293 326 288 355 288C484 288 594 405 594 541C594 642 531 695 412 692L108 692Z" stroke="rgb(0,0,0)" stroke-opacity="1" stroke-width="8" fill="rgb(0,0,0)" fill-opacity="1"></path></g></g><g><g><g><g><g transform="matrix(1,0,0,1,13.355010986328125,25.15)"><path transform="matrix(0.0119,0,0,-0.0119,0,0)" d="M24 388L31 368L63 389C100 412 103 414 110 414C121 414 128 404 128 389C128 338 87 145 46 2L53 -9C78 -2 101 4 123 8C142 134 163 199 209 268C263 352 338 414 383 414C394 414 400 405 400 390C400 372 397 351 389 319L337 107C328 70 324 47 324 31C324 6 335 -9 354 -9C380 -9 416 12 514 85L504 103L478 86C449 67 427 56 417 56C410 56 404 65 404 76C404 81 405 92 406 96L472 372C479 401 483 429 483 446C483 469 472 482 452 482C410 482 341 444 282 389C244 354 216 320 164 247L202 408C206 426 208 438 208 449C208 470 200 482 185 482C164 482 125 460 52 408Z" stroke="rgb(0,0,0)" stroke-opacity="1" stroke-width="8" fill="rgb(0,0,0)" fill-opacity="1"></path></g></g></g></g><g><g><g><g transform="matrix(1,0,0,1,12.8900146484375,35.81500091552734)"><path transform="matrix(0.0119,0,0,-0.0119,0,0)" d="M240 722L228 733C176 707 140 698 68 691L64 670L112 670C136 670 146 663 146 646C146 638 145 629 144 622L96 354C82 279 66 210 14 1L23 -9L90 8L113 132C122 180 146 225 180 259C249 59 281 -9 306 -9C319 -9 343 4 387 35L433 67L425 86L382 62C368 54 361 52 353 52C343 52 336 58 327 75C292 139 270 193 231 316L245 330C306 391 352 416 402 416C410 416 421 414 438 410L455 473C437 479 419 482 407 482C341 482 258 405 133 230ZM592 111C562 111 535 83 535 53C535 23 562 -5 591 -5C623 -5 651 22 651 53C651 83 623 111 592 111ZM841 111C811 111 784 83 784 53C784 23 811 -5 840 -5C872 -5 900 22 900 53C900 83 872 111 841 111ZM1090 111C1060 111 1033 83 1033 53C1033 23 1060 -5 1089 -5C1121 -5 1149 22 1149 53C1149 83 1121 111 1090 111Z" stroke="rgb(0,0,0)" stroke-opacity="1" stroke-width="8" fill="rgb(0,0,0)" fill-opacity="1"></path></g></g></g></g></g><g><g transform="matrix(1,0,0,1,33.470001220703125,30.205001831054688)"><path transform="matrix(0.017,0,0,-0.017,0,0)" d="M604 347L604 406L65 406L65 347ZM604 134L604 193L65 193L65 134Z" stroke="rgb(0,0,0)" stroke-opacity="1" stroke-width="8" fill="rgb(0,0,0)" fill-opacity="1"></path></g></g><g><g><g><g><g transform="matrix(1,0,0,1,100.30999755859375,18.040000915527344)"><path transform="matrix(0.017,0,0,-0.017,0,0)" d="M24 388L31 368L63 389C100 412 103 414 110 414C121 414 128 404 128 389C128 338 87 145 46 2L53 -9C78 -2 101 4 123 8C142 134 163 199 209 268C263 352 338 414 383 414C394 414 400 405 400 390C400 372 397 351 389 319L337 107C328 70 324 47 324 31C324 6 335 -9 354 -9C380 -9 416 12 514 85L504 103L478 86C449 67 427 56 417 56C410 56 404 65 404 76C404 81 405 92 406 96L472 372C479 401 483 429 483 446C483 469 472 482 452 482C410 482 341 444 282 389C244 354 216 320 164 247L202 408C206 426 208 438 208 449C208 470 200 482 185 482C164 482 125 460 52 408ZM693 111C663 111 636 83 636 53C636 23 663 -5 692 -5C724 -5 752 22 752 53C752 83 724 111 693 111ZM715 694L640 656C643 603 645 579 647 550L675 222L675 205L685 200L713 223L713 248L737 526C739 560 749 613 749 669L749 694Z" stroke="rgb(0,0,0)" stroke-opacity="1" stroke-width="8" fill="rgb(0,0,0)" fill-opacity="1"></path></g></g></g></g><g><g><g><g transform="matrix(1,0,0,1,51.6199951171875,43.375)"><path transform="matrix(0.017,0,0,-0.017,0,0)" d="M240 722L228 733C176 707 140 698 68 691L64 670L112 670C136 670 146 663 146 646C146 638 145 629 144 622L96 354C82 279 66 210 14 1L23 -9L90 8L113 132C122 180 146 225 180 259C249 59 281 -9 306 -9C319 -9 343 4 387 35L433 67L425 86L382 62C368 54 361 52 353 52C343 52 336 58 327 75C292 139 270 193 231 316L245 330C306 391 352 416 402 416C410 416 421 414 438 410L455 473C437 479 419 482 407 482C341 482 258 405 133 230Z" stroke="rgb(0,0,0)" stroke-opacity="1" stroke-width="8" fill="rgb(0,0,0)" fill-opacity="1"></path></g></g><g><g><g><g><g transform="matrix(1,0,0,1,60.095001220703125,47.33499755859375)"><path transform="matrix(0.0119,0,0,-0.0119,0,0)" d="M418 -3L418 27L366 30C311 33 301 44 301 96L301 700L60 598L67 548L217 614L217 96C217 44 206 33 152 30L96 27L96 -3C250 0 250 0 261 0C292 0 402 -3 418 -3Z" stroke="rgb(0,0,0)" stroke-opacity="1" stroke-width="8" fill="rgb(0,0,0)" fill-opacity="1"></path></g></g></g></g></g><g><g transform="matrix(1,0,0,1,67.05499267578125,43.375)"><path transform="matrix(0.017,0,0,-0.017,0,0)" d="M138 111C108 111 81 83 81 53C81 23 108 -5 137 -5C169 -5 197 22 197 53C197 83 169 111 138 111ZM160 694L85 656C88 603 90 579 92 550L120 222L120 205L130 200L158 223L158 248L182 526C184 560 194 613 194 669L194 694ZM694 267L563 213L558 204L594 153L604 153L710 241L728 99L738 95L806 121L806 131L738 253L876 233L885 241L885 303L879 307L740 283L809 408L806 423L744 442L735 438L709 295L614 393L604 393L560 341L563 331ZM1403 722L1391 733C1339 707 1303 698 1231 691L1227 670L1275 670C1299 670 1309 663 1309 646C1309 638 1308 629 1307 622L1259 354C1245 279 1229 210 1177 1L1186 -9L1253 8L1276 132C1285 180 1309 225 1343 259C1412 59 1444 -9 1469 -9C1482 -9 1506 4 1550 35L1596 67L1588 86L1545 62C1531 54 1524 52 1516 52C1506 52 1499 58 1490 75C1455 139 1433 193 1394 316L1408 330C1469 391 1515 416 1565 416C1573 416 1584 414 1601 410L1618 473C1600 479 1582 482 1570 482C1504 482 1421 405 1296 230Z" stroke="rgb(0,0,0)" stroke-opacity="1" stroke-width="8" fill="rgb(0,0,0)" fill-opacity="1"></path></g></g><g><g><g><g><g transform="matrix(1,0,0,1,95.2850341796875,47.33499755859375)"><path transform="matrix(0.0119,0,0,-0.0119,0,0)" d="M16 23L16 -3C203 -3 203 0 239 0C275 0 275 -3 468 -3L468 82C353 77 307 81 122 77L304 270C401 373 431 428 431 503C431 618 353 689 226 689C154 689 105 669 56 619L39 483L68 483L81 529C97 587 133 612 200 612C286 612 341 558 341 473C341 398 299 324 186 204Z" stroke="rgb(0,0,0)" stroke-opacity="1" stroke-width="8" fill="rgb(0,0,0)" fill-opacity="1"></path></g></g></g></g></g><g><g transform="matrix(1,0,0,1,102.2449951171875,43.375)"><path transform="matrix(0.017,0,0,-0.017,0,0)" d="M138 111C108 111 81 83 81 53C81 23 108 -5 137 -5C169 -5 197 22 197 53C197 83 169 111 138 111ZM160 694L85 656C88 603 90 579 92 550L120 222L120 205L130 200L158 223L158 248L182 526C184 560 194 613 194 669L194 694Z" stroke="rgb(0,0,0)" stroke-opacity="1" stroke-width="8" fill="rgb(0,0,0)" fill-opacity="1"></path></g></g><g><g transform="matrix(1,0,0,1,111.18499755859375,43.375)"><path transform="matrix(0.017,0,0,-0.017,0,0)" d="M124 111C94 111 67 83 67 53C67 23 94 -5 123 -5C155 -5 183 22 183 53C183 83 155 111 124 111ZM373 111C343 111 316 83 316 53C316 23 343 -5 372 -5C404 -5 432 22 432 53C432 83 404 111 373 111ZM622 111C592 111 565 83 565 53C565 23 592 -5 621 -5C653 -5 681 22 681 53C681 83 653 111 622 111Z" stroke="rgb(0,0,0)" stroke-opacity="1" stroke-width="8" fill="rgb(0,0,0)" fill-opacity="1"></path></g></g><g><g transform="matrix(1,0,0,1,127.280029296875,43.375)"><path transform="matrix(0.017,0,0,-0.017,0,0)" d="M168 267L37 213L32 204L68 153L78 153L184 241L202 99L212 95L280 121L280 131L212 253L350 233L359 241L359 303L353 307L214 283L283 408L280 423L218 442L209 438L183 295L88 393L78 393L34 341L37 331ZM877 722L865 733C813 707 777 698 705 691L701 670L749 670C773 670 783 663 783 646C783 638 782 629 781 622L733 354C719 279 703 210 651 1L660 -9L727 8L750 132C759 180 783 225 817 259C886 59 918 -9 943 -9C956 -9 980 4 1024 35L1070 67L1062 86L1019 62C1005 54 998 52 990 52C980 52 973 58 964 75C929 139 907 193 868 316L882 330C943 391 989 416 1039 416C1047 416 1058 414 1075 410L1092 473C1074 479 1056 482 1044 482C978 482 895 405 770 230Z" stroke="rgb(0,0,0)" stroke-opacity="1" stroke-width="8" fill="rgb(0,0,0)" fill-opacity="1"></path></g></g><g><g><g><g><g transform="matrix(1,0,0,1,146.57000732421875,47.33499755859375)"><path transform="matrix(0.0119,0,0,-0.0119,0,0)" d="M24 388L31 368L63 389C100 412 103 414 110 414C121 414 128 404 128 389C128 338 87 145 46 2L53 -9C78 -2 101 4 123 8C142 134 163 199 209 268C263 352 338 414 383 414C394 414 400 405 400 390C400 372 397 351 389 319L337 107C328 70 324 47 324 31C324 6 335 -9 354 -9C380 -9 416 12 514 85L504 103L478 86C449 67 427 56 417 56C410 56 404 65 404 76C404 81 405 92 406 96L472 372C479 401 483 429 483 446C483 469 472 482 452 482C410 482 341 444 282 389C244 354 216 320 164 247L202 408C206 426 208 438 208 449C208 470 200 482 185 482C164 482 125 460 52 408Z" stroke="rgb(0,0,0)" stroke-opacity="1" stroke-width="8" fill="rgb(0,0,0)" fill-opacity="1"></path></g></g></g></g></g><g><g transform="matrix(1,0,0,1,154.20501708984375,43.375)"><path transform="matrix(0.017,0,0,-0.017,0,0)" d="M138 111C108 111 81 83 81 53C81 23 108 -5 137 -5C169 -5 197 22 197 53C197 83 169 111 138 111ZM160 694L85 656C88 603 90 579 92 550L120 222L120 205L130 200L158 223L158 248L182 526C184 560 194 613 194 669L194 694Z" stroke="rgb(0,0,0)" stroke-opacity="1" stroke-width="8" fill="rgb(0,0,0)" fill-opacity="1"></path></g></g></g></g><line style="fill:none;stroke-width:0.99px;stroke:rgb(0, 0, 0);" x1="51.6199951171875" y1="26.240000009536743" x2="163.1449966430664" y2="26.240000009536743"></line></g></g></g></svg>