<svg xmlns="http://www.w3.org/2000/svg" xmlns:xlink="http://www.w3.org/1999/xlink" width="71.48500061035156" height="109.97500610351562" style="width:71.48500061035156px;height:109.97500610351562px;font-family:Asana-Math, Asana;background:#FFF;"><g><g><g><g transform="matrix(1,0,0,1,2,30.204994201660156)"><path transform="matrix(0.017,0,0,-0.017,0,0)" d="M719 334L836 334L968 330L987 375L983 382C902 378 842 376 764 376L727 376L774 646C806 647 889 650 911 650C973 650 1014 641 1015 626L1023 537L1047 537C1050 601 1057 651 1068 689C1047 691 1017 692 999 692C996 692 985 692 961 691L841 690C832 689 658 691 648 691L603 692L600 664L654 662C678 661 689 653 689 635C689 621 685 589 680 559L593 55C589 37 577 30 533 23L528 -3L569 -2C600 -1 662 0 682 0L907 -3C921 -3 946 -2 979 -1L1012 0L1016 36C1018 56 1023 86 1032 135L1037 161L1010 161L994 101C984 65 975 53 953 48C933 44 860 39 806 39C765 39 738 40 669 46Z" stroke="rgb(0,0,0)" stroke-opacity="1" stroke-width="8" fill="rgb(0,0,0)" fill-opacity="1"></path></g></g><g><g transform="matrix(1,0,0,1,25.94000244140625,30.204994201660156)"><path transform="matrix(0.017,0,0,-0.017,0,0)" d="M604 347L604 406L65 406L65 347ZM604 134L604 193L65 193L65 134Z" stroke="rgb(0,0,0)" stroke-opacity="1" stroke-width="8" fill="rgb(0,0,0)" fill-opacity="1"></path></g></g><g><g><g><g><g transform="matrix(1,0,0,1,44.089996337890625,18.039993286132812)"><path transform="matrix(0.017,0,0,-0.017,0,0)" d="M286 646L392 650C454 650 494 641 495 626L503 537L527 537C530 600 537 651 548 689C526 691 498 692 481 692L440 691L275 689L246 689C221 689 181 690 143 691L94 692L91 664L147 662C171 661 182 652 182 635C182 621 178 589 173 559L98 125C81 33 81 32 40 28L4 25L0 -3L34 -2C74 -1 106 0 127 0C145 0 174 -1 213 -2L265 -3L268 25L204 28C177 29 168 37 168 57C168 63 169 74 170 78L206 301L323 301C350 301 381 300 429 298L455 297L474 342L470 349C389 345 329 343 251 343L214 343L260 614C263 630 264 635 269 646Z" stroke="rgb(0,0,0)" stroke-opacity="1" stroke-width="8" fill="rgb(0,0,0)" fill-opacity="1"></path></g></g></g></g><g><g><g><g transform="matrix(1,0,0,1,44.8699951171875,43.375)"><path transform="matrix(0.017,0,0,-0.017,0,0)" d="M385 458C342 475 313 482 284 482C209 482 121 394 103 374C63 327 24 181 24 78C24 19 36 -11 60 -11C82 -11 101 -3 133 19C180 51 259 121 308 209L232 -205C227 -229 217 -249 205 -262L214 -276C245 -268 276 -262 300 -259C304 -205 310 -150 319 -100L405 356C416 417 422 443 432 474L418 480ZM118 59C104 59 96 80 96 113C96 209 139 359 181 409C193 424 222 433 254 433C282 433 303 427 351 406L330 311C301 174 160 59 118 59Z" stroke="rgb(0,0,0)" stroke-opacity="1" stroke-width="8" fill="rgb(0,0,0)" fill-opacity="1"></path></g></g></g></g><line style="fill:none;stroke-width:0.99px;stroke:rgb(0, 0, 0);" x1="44.089996337890625" y1="26.240000009536743" x2="53.524996757507324" y2="26.240000009536743"></line></g></g><g></g><g><g><g transform="matrix(1,0,0,1,2,83.69499206542969)"><path transform="matrix(0.017,0,0,-0.017,0,0)" d="M286 646L392 650C454 650 494 641 495 626L503 537L527 537C530 600 537 651 548 689C526 691 498 692 481 692L440 691L275 689L246 689C221 689 181 690 143 691L94 692L91 664L147 662C171 661 182 652 182 635C182 621 178 589 173 559L98 125C81 33 81 32 40 28L4 25L0 -3L34 -2C74 -1 106 0 127 0C145 0 174 -1 213 -2L265 -3L268 25L204 28C177 29 168 37 168 57C168 63 169 74 170 78L206 301L323 301C350 301 381 300 429 298L455 297L474 342L470 349C389 345 329 343 251 343L214 343L260 614C263 630 264 635 269 646Z" stroke="rgb(0,0,0)" stroke-opacity="1" stroke-width="8" fill="rgb(0,0,0)" fill-opacity="1"></path></g></g><g><g transform="matrix(1,0,0,1,14.82501220703125,83.69499206542969)"><path transform="matrix(0.017,0,0,-0.017,0,0)" d="M123 111C93 111 66 83 66 53C66 23 93 -5 122 -5C154 -5 182 22 182 53C182 83 154 111 123 111ZM123 456C93 456 66 428 66 398C66 368 93 340 122 340C154 340 182 367 182 397C182 428 154 456 123 456Z" stroke="rgb(0,0,0)" stroke-opacity="1" stroke-width="8" fill="rgb(0,0,0)" fill-opacity="1"></path></g></g><g><g transform="matrix(1,0,0,1,22.46002197265625,83.69499206542969)"><path transform="matrix(0.017,0,0,-0.017,0,0)" d="M345 437L329 437L350 549C366 635 394 673 440 673C470 673 497 658 512 634L522 638C527 654 537 685 545 705L550 720C534 727 503 733 480 733C469 733 453 730 445 726C421 715 339 654 316 630C294 608 282 578 271 521L256 442C215 422 195 414 170 405L165 383L246 383L237 327C207 132 170 -54 148 -123C130 -182 100 -213 64 -213C41 -213 30 -206 12 -184L-2 -188C-6 -211 -20 -259 -25 -268C-16 -273 -1 -276 10 -276C51 -276 105 -245 144 -198C215 -114 235 -18 319 383L423 383C427 402 434 425 440 439L436 446C407 439 408 437 345 437ZM1042 473L1035 482L967 465L957 414C942 336 917 268 886 221C827 130 749 59 709 59C701 59 696 68 696 85C696 99 698 112 703 137L760 408C763 424 765 438 765 451C765 470 756 482 742 482C722 482 684 461 610 408L582 388L589 368L621 389C649 407 660 412 669 412C678 412 686 403 686 392C686 388 685 378 684 374L621 77C619 68 617 44 617 30C617 7 632 -11 652 -11C715 -11 836 101 920 239L883 97C876 73 872 46 872 31C872 6 883 -9 902 -9C928 -9 964 12 1062 85L1052 103L1026 86C1002 70 976 59 965 59C957 59 952 66 952 76C952 112 1027 416 1042 473ZM1433 111L1409 94C1356 56 1308 36 1272 36C1225 36 1196 73 1196 133C1196 158 1199 185 1204 214C1221 218 1330 248 1355 259C1440 296 1479 342 1479 404C1479 451 1445 482 1395 482C1327 496 1217 423 1180 349C1150 299 1120 180 1120 113C1120 35 1164 -11 1236 -11C1293 -11 1349 17 1441 92ZM1218 274C1235 343 1255 386 1284 412C1302 428 1333 440 1357 440C1386 440 1405 420 1405 388C1405 344 1370 297 1318 272C1290 258 1254 247 1209 237ZM1861 365C1864 403 1869 435 1877 476C1866 481 1862 482 1857 482C1826 482 1795 458 1759 407C1720 351 1681 291 1665 256L1697 408C1701 425 1703 438 1703 450C1703 470 1695 482 1680 482C1659 482 1621 461 1547 408L1519 388L1526 368L1558 389C1586 407 1597 412 1606 412C1616 412 1623 403 1623 390C1623 332 1580 126 1540 -2L1550 -9C1565 -4 1581 -1 1604 4L1617 6L1643 126C1661 209 1684 262 1728 319C1762 363 1789 384 1811 384C1826 384 1836 379 1847 365ZM2203 -11C2215 -11 2224 -9 2253 -1C2264 61 2272 95 2283 142L2261 142L2239 82C2233 64 2221 57 2200 57C2188 57 2172 59 2151 64L2133 68C2100 75 2066 80 2047 80C2015 80 1988 74 1952 59L2291 441L2297 473L2288 482L2265 459C2255 449 2245 445 2231 445C2197 445 2145 453 2097 466L2079 471C2051 478 2031 482 2017 482C2000 482 1980 479 1956 472L1924 350L1945 350L1975 408C1992 412 2001 413 2014 413C2055 413 2087 398 2140 398C2176 398 2200 404 2233 421L1880 21L1889 -6C1918 17 1945 26 1980 26C2043 26 2134 -11 2203 -11ZM2595 204L2566 77C2562 60 2560 42 2560 26C2560 4 2569 -9 2584 -9C2607 -9 2648 17 2730 85L2723 106C2699 86 2670 59 2648 59C2639 59 2633 68 2633 82C2633 87 2633 90 2634 93L2726 472L2716 481L2683 463C2642 478 2625 482 2598 482C2570 482 2550 477 2523 464C2461 433 2428 403 2403 354C2359 265 2328 145 2328 67C2328 23 2343 -11 2362 -11C2399 -11 2479 41 2595 204ZM2643 414C2621 305 2602 253 2568 201C2511 117 2450 59 2418 59C2406 59 2400 72 2400 99C2400 163 2428 280 2463 360C2487 415 2510 433 2558 433C2581 433 2599 429 2643 414Z" stroke="rgb(0,0,0)" stroke-opacity="1" stroke-width="8" fill="rgb(0,0,0)" fill-opacity="1"></path></g></g></g><g><g><g transform="matrix(1,0,0,1,2,103.85499572753906)"><path transform="matrix(0.017,0,0,-0.017,0,0)" d="M385 458C342 475 313 482 284 482C209 482 121 394 103 374C63 327 24 181 24 78C24 19 36 -11 60 -11C82 -11 101 -3 133 19C180 51 259 121 308 209L232 -205C227 -229 217 -249 205 -262L214 -276C245 -268 276 -262 300 -259C304 -205 310 -150 319 -100L405 356C416 417 422 443 432 474L418 480ZM118 59C104 59 96 80 96 113C96 209 139 359 181 409C193 424 222 433 254 433C282 433 303 427 351 406L330 311C301 174 160 59 118 59Z" stroke="rgb(0,0,0)" stroke-opacity="1" stroke-width="8" fill="rgb(0,0,0)" fill-opacity="1"></path></g></g><g><g transform="matrix(1,0,0,1,13.25,103.85499572753906)"><path transform="matrix(0.017,0,0,-0.017,0,0)" d="M123 111C93 111 66 83 66 53C66 23 93 -5 122 -5C154 -5 182 22 182 53C182 83 154 111 123 111ZM123 456C93 456 66 428 66 398C66 368 93 340 122 340C154 340 182 367 182 397C182 428 154 456 123 456Z" stroke="rgb(0,0,0)" stroke-opacity="1" stroke-width="8" fill="rgb(0,0,0)" fill-opacity="1"></path></g></g><g><g transform="matrix(1,0,0,1,20.885009765625,103.85499572753906)"><path transform="matrix(0.017,0,0,-0.017,0,0)" d="M342 330L365 330C373 395 380 432 389 458C365 473 330 482 293 482C248 483 175 463 118 400C64 352 25 241 25 136C25 40 67 -11 147 -11C201 -11 249 9 304 54L354 95L346 115L331 105C259 57 221 40 186 40C130 40 101 80 101 159C101 267 136 371 185 409C206 425 230 433 261 433C306 433 342 414 342 390ZM677 204L648 77C644 60 642 42 642 26C642 4 651 -9 666 -9C689 -9 730 17 812 85L805 106C781 86 752 59 730 59C721 59 715 68 715 82C715 87 715 90 716 93L808 472L798 481L765 463C724 478 707 482 680 482C652 482 632 477 605 464C543 433 510 403 485 354C441 265 410 145 410 67C410 23 425 -11 444 -11C481 -11 561 41 677 204ZM725 414C703 305 684 253 650 201C593 117 532 59 500 59C488 59 482 72 482 99C482 163 510 280 545 360C569 415 592 433 640 433C663 433 681 429 725 414ZM1217 365C1220 403 1225 435 1233 476C1222 481 1218 482 1213 482C1182 482 1151 458 1115 407C1076 351 1037 291 1021 256L1053 408C1057 425 1059 438 1059 450C1059 470 1051 482 1036 482C1015 482 977 461 903 408L875 388L882 368L914 389C942 407 953 412 962 412C972 412 979 403 979 390C979 332 936 126 896 -2L906 -9C921 -4 937 -1 960 4L973 6L999 126C1017 209 1040 262 1084 319C1118 363 1145 384 1167 384C1182 384 1192 379 1203 365ZM1512 482C1445 482 1292 419 1292 259C1292 182 1337 136 1414 136C1422 136 1433 136 1444 137L1403 99C1387 84 1376 66 1376 52C1376 42 1383 31 1397 19C1328 -4 1200 -48 1200 -159C1200 -230 1270 -276 1379 -276C1508 -276 1621 -204 1621 -121C1621 -85 1600 -49 1557 -14L1497 35C1463 62 1450 81 1450 100C1450 114 1465 128 1477 146C1575 170 1646 253 1646 342C1646 357 1643 376 1642 380C1659 378 1667 378 1676 378C1693 378 1703 379 1726 382L1735 427L1732 433C1704 426 1684 424 1630 424C1630 425 1606 482 1512 482ZM1413 1L1490 -58C1536 -94 1555 -121 1555 -154C1555 -206 1486 -248 1403 -248C1321 -248 1264 -206 1264 -145C1264 -43 1374 -11 1413 1ZM1487 448C1545 448 1574 412 1574 341C1574 238 1526 168 1456 168C1395 168 1363 209 1363 288C1363 383 1414 448 1487 448ZM2007 204L1978 77C1974 60 1972 42 1972 26C1972 4 1981 -9 1996 -9C2019 -9 2060 17 2142 85L2135 106C2111 86 2082 59 2060 59C2051 59 2045 68 2045 82C2045 87 2045 90 2046 93L2138 472L2128 481L2095 463C2054 478 2037 482 2010 482C1982 482 1962 477 1935 464C1873 433 1840 403 1815 354C1771 265 1740 145 1740 67C1740 23 1755 -11 1774 -11C1811 -11 1891 41 2007 204ZM2055 414C2033 305 2014 253 1980 201C1923 117 1862 59 1830 59C1818 59 1812 72 1812 99C1812 163 1840 280 1875 360C1899 415 1922 433 1970 433C1993 433 2011 429 2055 414Z" stroke="rgb(0,0,0)" stroke-opacity="1" stroke-width="8" fill="rgb(0,0,0)" fill-opacity="1"></path></g></g></g></g></svg>