<svg xmlns="http://www.w3.org/2000/svg" xmlns:xlink="http://www.w3.org/1999/xlink" width="103.66000366210938" height="127.67500305175781" style="width:103.66000366210938px;height:127.67500305175781px;font-family:Asana-Math, Asana;background:#FFF;"><g><g><g><g transform="matrix(1,0,0,1,2,26.214996337890625)"><path transform="matrix(0.017,0,0,-0.017,0,0)" d="M1217 334L1334 334L1466 330L1485 375L1481 382C1400 378 1340 376 1262 376L1225 376L1272 646C1304 647 1387 650 1409 650C1471 650 1512 641 1513 626L1521 537L1545 537C1548 601 1555 651 1566 689C1545 691 1515 692 1497 692C1494 692 1483 692 1459 691L1339 690C1330 689 1156 691 1146 691L1101 692L1098 664L1152 662C1176 661 1187 653 1187 635C1187 621 1183 589 1178 559L1091 55C1087 37 1075 30 1031 23L1026 -3L1067 -2C1098 -1 1160 0 1180 0L1405 -3C1419 -3 1444 -2 1477 -1L1510 0L1514 36C1516 56 1521 86 1530 135L1535 161L1508 161L1492 101C1482 65 1473 53 1451 48C1431 44 1358 39 1304 39C1263 39 1236 40 1167 46Z" stroke="rgb(0,0,0)" stroke-opacity="1" stroke-width="8" fill="rgb(0,0,0)" fill-opacity="1"></path></g></g><g><g transform="matrix(1,0,0,1,34.4000244140625,26.214996337890625)"><path transform="matrix(0.017,0,0,-0.017,0,0)" d="M604 347L604 406L65 406L65 347ZM604 134L604 193L65 193L65 134Z" stroke="rgb(0,0,0)" stroke-opacity="1" stroke-width="8" fill="rgb(0,0,0)" fill-opacity="1"></path></g></g><g><g transform="matrix(1,0,0,1,50.855010986328125,26.214996337890625)"><path transform="matrix(0.017,0,0,-0.017,0,0)" d="M240 722L228 733C176 707 140 698 68 691L64 670L112 670C136 670 146 663 146 646C146 638 145 629 144 622L96 354C82 279 66 210 14 1L23 -9L90 8L113 132C122 180 146 225 180 259C249 59 281 -9 306 -9C319 -9 343 4 387 35L433 67L425 86L382 62C368 54 361 52 353 52C343 52 336 58 327 75C292 139 270 193 231 316L245 330C306 391 352 416 402 416C410 416 421 414 438 410L455 473C437 479 419 482 407 482C341 482 258 405 133 230Z" stroke="rgb(0,0,0)" stroke-opacity="1" stroke-width="8" fill="rgb(0,0,0)" fill-opacity="1"></path></g></g><g><g><g><g><g transform="matrix(1,0,0,1,63.84503173828125,14.049995422363281)"><path transform="matrix(0.017,0,0,-0.017,0,0)" d="M385 458C342 475 313 482 284 482C209 482 121 394 103 374C63 327 24 181 24 78C24 19 36 -11 60 -11C82 -11 101 -3 133 19C180 51 259 121 308 209L232 -205C227 -229 217 -249 205 -262L214 -276C245 -268 276 -262 300 -259C304 -205 310 -150 319 -100L405 356C416 417 422 443 432 474L418 480ZM118 59C104 59 96 80 96 113C96 209 139 359 181 409C193 424 222 433 254 433C282 433 303 427 351 406L330 311C301 174 160 59 118 59Z" stroke="rgb(0,0,0)" stroke-opacity="1" stroke-width="8" fill="rgb(0,0,0)" fill-opacity="1"></path></g></g></g></g><g><g><g><g transform="matrix(1,0,0,1,60.5150146484375,40.150001525878906)"><path transform="matrix(0.017,0,0,-0.017,0,0)" d="M368 365C371 403 376 435 384 476C373 481 369 482 364 482C333 482 302 458 266 407C227 351 188 291 172 256L204 408C208 425 210 438 210 450C210 470 202 482 187 482C166 482 128 461 54 408L26 388L33 368L65 389C93 407 104 412 113 412C123 412 130 403 130 390C130 332 87 126 47 -2L57 -9C72 -4 88 -1 111 4L124 6L150 126C168 209 191 262 235 319C269 363 296 384 318 384C333 384 343 379 354 365Z" stroke="rgb(0,0,0)" stroke-opacity="1" stroke-width="8" fill="rgb(0,0,0)" fill-opacity="1"></path></g></g><g><g><g><g><g transform="matrix(1,0,0,1,68.09002685546875,35.245001220703124)"><path transform="matrix(0.0119,0,0,-0.0119,0,0)" d="M16 23L16 -3C203 -3 203 0 239 0C275 0 275 -3 468 -3L468 82C353 77 307 81 122 77L304 270C401 373 431 428 431 503C431 618 353 689 226 689C154 689 105 669 56 619L39 483L68 483L81 529C97 587 133 612 200 612C286 612 341 558 341 473C341 398 299 324 186 204Z" stroke="rgb(0,0,0)" stroke-opacity="1" stroke-width="8" fill="rgb(0,0,0)" fill-opacity="1"></path></g></g></g></g></g></g></g><line style="fill:none;stroke-width:0.99px;stroke:rgb(0, 0, 0);" x1="60.5150146484375" y1="22.24999451637268" x2="75.05001544952393" y2="22.24999451637268"></line></g></g><g></g><g><g><g transform="matrix(1,0,0,1,2,81.23500061035156)"><path transform="matrix(0.017,0,0,-0.017,0,0)" d="M240 722L228 733C176 707 140 698 68 691L64 670L112 670C136 670 146 663 146 646C146 638 145 629 144 622L96 354C82 279 66 210 14 1L23 -9L90 8L113 132C122 180 146 225 180 259C249 59 281 -9 306 -9C319 -9 343 4 387 35L433 67L425 86L382 62C368 54 361 52 353 52C343 52 336 58 327 75C292 139 270 193 231 316L245 330C306 391 352 416 402 416C410 416 421 414 438 410L455 473C437 479 419 482 407 482C341 482 258 405 133 230Z" stroke="rgb(0,0,0)" stroke-opacity="1" stroke-width="8" fill="rgb(0,0,0)" fill-opacity="1"></path></g></g><g><g transform="matrix(1,0,0,1,13.355010986328125,81.23500061035156)"><path transform="matrix(0.017,0,0,-0.017,0,0)" d="M123 111C93 111 66 83 66 53C66 23 93 -5 122 -5C154 -5 182 22 182 53C182 83 154 111 123 111ZM123 456C93 456 66 428 66 398C66 368 93 340 122 340C154 340 182 367 182 397C182 428 154 456 123 456Z" stroke="rgb(0,0,0)" stroke-opacity="1" stroke-width="8" fill="rgb(0,0,0)" fill-opacity="1"></path></g></g><g><g transform="matrix(1,0,0,1,20.990020751953125,81.23500061035156)"><path transform="matrix(0.017,0,0,-0.017,0,0)" d="M342 330L365 330C373 395 380 432 389 458C365 473 330 482 293 482C248 483 175 463 118 400C64 352 25 241 25 136C25 40 67 -11 147 -11C201 -11 249 9 304 54L354 95L346 115L331 105C259 57 221 40 186 40C130 40 101 80 101 159C101 267 136 371 185 409C206 425 230 433 261 433C306 433 342 414 342 390ZM531 390L475 107C474 99 462 61 462 31C462 6 473 -9 492 -9C527 -9 562 11 640 74L671 99L661 117L616 86C587 66 567 56 556 56C547 56 542 64 542 76C542 102 556 183 585 328L598 390L705 390L716 440C678 436 644 434 606 434C622 528 633 577 651 631L640 646C620 634 593 622 562 610L537 440C493 419 467 408 449 403L447 390ZM1066 111L1042 94C989 56 941 36 905 36C858 36 829 73 829 133C829 158 832 185 837 214C854 218 963 248 988 259C1073 296 1112 342 1112 404C1112 451 1078 482 1028 482C960 496 850 423 813 349C783 299 753 180 753 113C753 35 797 -11 869 -11C926 -11 982 17 1074 92ZM851 274C868 343 888 386 917 412C935 428 966 440 990 440C1019 440 1038 420 1038 388C1038 344 1003 297 951 272C923 258 887 247 842 237Z" stroke="rgb(0,0,0)" stroke-opacity="1" stroke-width="8" fill="rgb(0,0,0)" fill-opacity="1"></path></g></g><g><g transform="matrix(1,0,0,1,45.230010986328125,81.23500061035156)"><path transform="matrix(0.017,0,0,-0.017,0,0)" d="M604 347L604 406L65 406L65 347ZM604 134L604 193L65 193L65 134Z" stroke="rgb(0,0,0)" stroke-opacity="1" stroke-width="8" fill="rgb(0,0,0)" fill-opacity="1"></path></g></g><g><g transform="matrix(1,0,0,1,61.685028076171875,81.23500061035156)"><path transform="matrix(0.017,0,0,-0.017,0,0)" d="M96 -20C207 16 255 39 309 85C406 168 457 283 457 417C457 586 376 689 244 689C116 689 20 589 20 455C20 340 95 256 199 256C233 256 272 267 290 282L360 340C352 172 243 49 62 5L62 -3ZM240 656C285 656 318 637 340 597C358 565 370 516 370 471C370 379 317 317 240 317C160 317 106 388 106 492C106 593 158 656 240 656ZM667 267L536 213L531 204L567 153L577 153L683 241L701 99L711 95L779 121L779 131L711 253L849 233L858 241L858 303L852 307L713 283L782 408L779 423L717 442L708 438L682 295L587 393L577 393L533 341L536 331ZM1305 -3L1305 27L1253 30C1198 33 1188 44 1188 96L1188 700L947 598L954 548L1104 614L1104 96C1104 44 1093 33 1039 30L983 27L983 -3C1137 0 1137 0 1148 0C1179 0 1289 -3 1305 -3ZM1649 689C1494 689 1415 566 1415 324C1415 207 1436 106 1471 57C1506 8 1562 -20 1624 -20C1775 -20 1851 110 1851 366C1851 585 1786 689 1649 689ZM1631 654C1728 654 1767 556 1767 316C1767 103 1729 15 1637 15C1540 15 1499 116 1499 360C1499 571 1536 654 1631 654Z" stroke="rgb(0,0,0)" stroke-opacity="1" stroke-width="8" fill="rgb(0,0,0)" fill-opacity="1"></path></g></g><g><g><g><g><g transform="matrix(1,0,0,1,94.70001220703125,76.32999267578126)"><path transform="matrix(0.0119,0,0,-0.0119,0,0)" d="M96 -20C207 16 255 39 309 85C406 168 457 283 457 417C457 586 376 689 244 689C116 689 20 589 20 455C20 340 95 256 199 256C233 256 272 267 290 282L360 340C352 172 243 49 62 5L62 -3ZM240 656C285 656 318 637 340 597C358 565 370 516 370 471C370 379 317 317 240 317C160 317 106 388 106 492C106 593 158 656 240 656Z" stroke="rgb(0,0,0)" stroke-opacity="1" stroke-width="8" fill="rgb(0,0,0)" fill-opacity="1"></path></g></g></g></g></g></g><g><g><g transform="matrix(1,0,0,1,2,101.39500427246094)"><path transform="matrix(0.017,0,0,-0.017,0,0)" d="M385 458C342 475 313 482 284 482C209 482 121 394 103 374C63 327 24 181 24 78C24 19 36 -11 60 -11C82 -11 101 -3 133 19C180 51 259 121 308 209L232 -205C227 -229 217 -249 205 -262L214 -276C245 -268 276 -262 300 -259C304 -205 310 -150 319 -100L405 356C416 417 422 443 432 474L418 480ZM118 59C104 59 96 80 96 113C96 209 139 359 181 409C193 424 222 433 254 433C282 433 303 427 351 406L330 311C301 174 160 59 118 59Z" stroke="rgb(0,0,0)" stroke-opacity="1" stroke-width="8" fill="rgb(0,0,0)" fill-opacity="1"></path></g></g><g><g transform="matrix(1,0,0,1,13.25,101.39500427246094)"><path transform="matrix(0.017,0,0,-0.017,0,0)" d="M123 111C93 111 66 83 66 53C66 23 93 -5 122 -5C154 -5 182 22 182 53C182 83 154 111 123 111ZM123 456C93 456 66 428 66 398C66 368 93 340 122 340C154 340 182 367 182 397C182 428 154 456 123 456Z" stroke="rgb(0,0,0)" stroke-opacity="1" stroke-width="8" fill="rgb(0,0,0)" fill-opacity="1"></path></g></g><g><g transform="matrix(1,0,0,1,20.885009765625,101.39500427246094)"><path transform="matrix(0.017,0,0,-0.017,0,0)" d="M342 330L365 330C373 395 380 432 389 458C365 473 330 482 293 482C248 483 175 463 118 400C64 352 25 241 25 136C25 40 67 -11 147 -11C201 -11 249 9 304 54L354 95L346 115L331 105C259 57 221 40 186 40C130 40 101 80 101 159C101 267 136 371 185 409C206 425 230 433 261 433C306 433 342 414 342 390ZM677 204L648 77C644 60 642 42 642 26C642 4 651 -9 666 -9C689 -9 730 17 812 85L805 106C781 86 752 59 730 59C721 59 715 68 715 82C715 87 715 90 716 93L808 472L798 481L765 463C724 478 707 482 680 482C652 482 632 477 605 464C543 433 510 403 485 354C441 265 410 145 410 67C410 23 425 -11 444 -11C481 -11 561 41 677 204ZM725 414C703 305 684 253 650 201C593 117 532 59 500 59C488 59 482 72 482 99C482 163 510 280 545 360C569 415 592 433 640 433C663 433 681 429 725 414ZM1217 365C1220 403 1225 435 1233 476C1222 481 1218 482 1213 482C1182 482 1151 458 1115 407C1076 351 1037 291 1021 256L1053 408C1057 425 1059 438 1059 450C1059 470 1051 482 1036 482C1015 482 977 461 903 408L875 388L882 368L914 389C942 407 953 412 962 412C972 412 979 403 979 390C979 332 936 126 896 -2L906 -9C921 -4 937 -1 960 4L973 6L999 126C1017 209 1040 262 1084 319C1118 363 1145 384 1167 384C1182 384 1192 379 1203 365ZM1512 482C1445 482 1292 419 1292 259C1292 182 1337 136 1414 136C1422 136 1433 136 1444 137L1403 99C1387 84 1376 66 1376 52C1376 42 1383 31 1397 19C1328 -4 1200 -48 1200 -159C1200 -230 1270 -276 1379 -276C1508 -276 1621 -204 1621 -121C1621 -85 1600 -49 1557 -14L1497 35C1463 62 1450 81 1450 100C1450 114 1465 128 1477 146C1575 170 1646 253 1646 342C1646 357 1643 376 1642 380C1659 378 1667 378 1676 378C1693 378 1703 379 1726 382L1735 427L1732 433C1704 426 1684 424 1630 424C1630 425 1606 482 1512 482ZM1413 1L1490 -58C1536 -94 1555 -121 1555 -154C1555 -206 1486 -248 1403 -248C1321 -248 1264 -206 1264 -145C1264 -43 1374 -11 1413 1ZM1487 448C1545 448 1574 412 1574 341C1574 238 1526 168 1456 168C1395 168 1363 209 1363 288C1363 383 1414 448 1487 448ZM2007 204L1978 77C1974 60 1972 42 1972 26C1972 4 1981 -9 1996 -9C2019 -9 2060 17 2142 85L2135 106C2111 86 2082 59 2060 59C2051 59 2045 68 2045 82C2045 87 2045 90 2046 93L2138 472L2128 481L2095 463C2054 478 2037 482 2010 482C1982 482 1962 477 1935 464C1873 433 1840 403 1815 354C1771 265 1740 145 1740 67C1740 23 1755 -11 1774 -11C1811 -11 1891 41 2007 204ZM2055 414C2033 305 2014 253 1980 201C1923 117 1862 59 1830 59C1818 59 1812 72 1812 99C1812 163 1840 280 1875 360C1899 415 1922 433 1970 433C1993 433 2011 429 2055 414Z" stroke="rgb(0,0,0)" stroke-opacity="1" stroke-width="8" fill="rgb(0,0,0)" fill-opacity="1"></path></g></g></g><g><g><g transform="matrix(1,0,0,1,2,121.55500793457031)"><path transform="matrix(0.017,0,0,-0.017,0,0)" d="M368 365C371 403 376 435 384 476C373 481 369 482 364 482C333 482 302 458 266 407C227 351 188 291 172 256L204 408C208 425 210 438 210 450C210 470 202 482 187 482C166 482 128 461 54 408L26 388L33 368L65 389C93 407 104 412 113 412C123 412 130 403 130 390C130 332 87 126 47 -2L57 -9C72 -4 88 -1 111 4L124 6L150 126C168 209 191 262 235 319C269 363 296 384 318 384C333 384 343 379 354 365Z" stroke="rgb(0,0,0)" stroke-opacity="1" stroke-width="8" fill="rgb(0,0,0)" fill-opacity="1"></path></g></g><g><g transform="matrix(1,0,0,1,11.990020751953125,121.55500793457031)"><path transform="matrix(0.017,0,0,-0.017,0,0)" d="M123 111C93 111 66 83 66 53C66 23 93 -5 122 -5C154 -5 182 22 182 53C182 83 154 111 123 111ZM123 456C93 456 66 428 66 398C66 368 93 340 122 340C154 340 182 367 182 397C182 428 154 456 123 456Z" stroke="rgb(0,0,0)" stroke-opacity="1" stroke-width="8" fill="rgb(0,0,0)" fill-opacity="1"></path></g></g><g><g transform="matrix(1,0,0,1,19.625,121.55500793457031)"><path transform="matrix(0.017,0,0,-0.017,0,0)" d="M483 722L471 733C419 707 383 698 311 691L307 670L355 670C379 670 389 663 389 646C389 638 388 629 387 622L359 468C329 477 302 482 277 482C208 482 114 410 68 323C37 265 17 170 17 86C17 21 32 -11 61 -11C88 -11 125 6 159 33C213 77 246 116 313 217L290 126C279 82 274 50 274 24C274 3 283 -9 300 -9C317 -9 341 3 375 28L456 88L446 107L402 76C388 66 372 59 363 59C355 59 349 68 349 82C349 90 350 99 357 128ZM114 59C98 59 89 73 89 98C89 224 135 380 184 418C197 428 216 433 243 433C287 433 316 427 349 410L337 351C300 171 159 59 114 59ZM533 388L540 368L572 389C609 412 612 414 619 414C629 414 637 404 637 391C637 384 633 361 629 347L563 107C555 76 550 49 550 30C550 6 561 -9 580 -9C606 -9 642 12 740 85L730 103L704 86C675 67 652 56 643 56C636 56 630 66 630 76C630 86 632 95 637 116L714 420C718 437 720 448 720 456C720 473 711 482 695 482C673 482 636 461 561 408ZM727 712C698 712 669 679 669 645C669 620 684 604 708 604C739 604 763 633 763 671C763 695 748 712 727 712ZM807 148C802 97 796 62 785 16C823 -2 857 -11 892 -11C941 -11 987 7 1038 47C1089 87 1110 124 1110 174C1110 228 1078 257 1004 271L961 279C901 290 882 307 882 348C882 401 927 442 984 442C1025 442 1063 424 1079 397L1079 342L1102 342C1106 377 1110 404 1121 455C1082 474 1054 482 1021 482C969 482 908 452 860 404C834 377 823 352 823 316C823 260 854 228 920 215L983 203C1027 195 1043 177 1043 138C1043 73 997 29 926 29C891 29 860 40 832 64L832 148ZM1289 390L1233 107C1232 99 1220 61 1220 31C1220 6 1231 -9 1250 -9C1285 -9 1320 11 1398 74L1429 99L1419 117L1374 86C1345 66 1325 56 1314 56C1305 56 1300 64 1300 76C1300 102 1314 183 1343 328L1356 390L1463 390L1474 440C1436 436 1402 434 1364 434C1380 528 1391 577 1409 631L1398 646C1378 634 1351 622 1320 610L1295 440C1251 419 1225 408 1207 403L1205 390ZM1767 204L1738 77C1734 60 1732 42 1732 26C1732 4 1741 -9 1756 -9C1779 -9 1820 17 1902 85L1895 106C1871 86 1842 59 1820 59C1811 59 1805 68 1805 82C1805 87 1805 90 1806 93L1898 472L1888 481L1855 463C1814 478 1797 482 1770 482C1742 482 1722 477 1695 464C1633 433 1600 403 1575 354C1531 265 1500 145 1500 67C1500 23 1515 -11 1534 -11C1571 -11 1651 41 1767 204ZM1815 414C1793 305 1774 253 1740 201C1683 117 1622 59 1590 59C1578 59 1572 72 1572 99C1572 163 1600 280 1635 360C1659 415 1682 433 1730 433C1753 433 1771 429 1815 414ZM1963 388L1970 368L2002 389C2039 412 2042 414 2049 414C2060 414 2067 404 2067 389C2067 338 2026 145 1985 2L1992 -9C2017 -2 2040 4 2062 8C2081 134 2102 199 2148 268C2202 352 2277 414 2322 414C2333 414 2339 405 2339 390C2339 372 2336 351 2328 319L2276 107C2267 70 2263 47 2263 31C2263 6 2274 -9 2293 -9C2319 -9 2355 12 2453 85L2443 103L2417 86C2388 67 2366 56 2356 56C2349 56 2343 65 2343 76C2343 81 2344 92 2345 96L2411 372C2418 401 2422 429 2422 446C2422 469 2411 482 2391 482C2349 482 2280 444 2221 389C2183 354 2155 320 2103 247L2141 408C2145 426 2147 438 2147 449C2147 470 2139 482 2124 482C2103 482 2064 460 1991 408ZM2836 330L2859 330C2867 395 2874 432 2883 458C2859 473 2824 482 2787 482C2742 483 2669 463 2612 400C2558 352 2519 241 2519 136C2519 40 2561 -11 2641 -11C2695 -11 2743 9 2798 54L2848 95L2840 115L2825 105C2753 57 2715 40 2680 40C2624 40 2595 80 2595 159C2595 267 2630 371 2679 409C2700 425 2724 433 2755 433C2800 433 2836 414 2836 390ZM2934 388L2941 368L2973 389C3010 412 3013 414 3020 414C3030 414 3038 404 3038 391C3038 384 3034 361 3030 347L2964 107C2956 76 2951 49 2951 30C2951 6 2962 -9 2981 -9C3007 -9 3043 12 3141 85L3131 103L3105 86C3076 67 3053 56 3044 56C3037 56 3031 66 3031 76C3031 86 3033 95 3038 116L3115 420C3119 437 3121 448 3121 456C3121 473 3112 482 3096 482C3074 482 3037 461 2962 408ZM3128 712C3099 712 3070 679 3070 645C3070 620 3085 604 3109 604C3140 604 3164 633 3164 671C3164 695 3149 712 3128 712ZM3448 204L3419 77C3415 60 3413 42 3413 26C3413 4 3422 -9 3437 -9C3460 -9 3501 17 3583 85L3576 106C3552 86 3523 59 3501 59C3492 59 3486 68 3486 82C3486 87 3486 90 3487 93L3579 472L3569 481L3536 463C3495 478 3478 482 3451 482C3423 482 3403 477 3376 464C3314 433 3281 403 3256 354C3212 265 3181 145 3181 67C3181 23 3196 -11 3215 -11C3252 -11 3332 41 3448 204ZM3496 414C3474 305 3455 253 3421 201C3364 117 3303 59 3271 59C3259 59 3253 72 3253 99C3253 163 3281 280 3316 360C3340 415 3363 433 3411 433C3434 433 3452 429 3496 414Z" stroke="rgb(0,0,0)" stroke-opacity="1" stroke-width="8" fill="rgb(0,0,0)" fill-opacity="1"></path></g></g></g></g></svg>