<svg xmlns="http://www.w3.org/2000/svg" xmlns:xlink="http://www.w3.org/1999/xlink" width="129.4300079345703" height="84.63999938964844" style="width:129.4300079345703px;height:84.63999938964844px;font-family:Asana-Math, Asana;background:#FFF;"><g><g><g><g transform="matrix(1,0,0,1,2,18.039993286132812)"><path transform="matrix(0.017,0,0,-0.017,0,0)" d="M2278 646L2384 650C2446 650 2486 641 2487 626L2495 537L2519 537C2522 600 2529 651 2540 689C2518 691 2490 692 2473 692L2432 691L2267 689L2238 689C2213 689 2173 690 2135 691L2086 692L2083 664L2139 662C2163 661 2174 652 2174 635C2174 621 2170 589 2165 559L2090 125C2073 33 2073 32 2032 28L1996 25L1992 -3L2026 -2C2066 -1 2098 0 2119 0C2137 0 2166 -1 2205 -2L2257 -3L2260 25L2196 28C2169 29 2160 37 2160 57C2160 63 2161 74 2162 78L2198 301L2315 301C2342 301 2373 300 2421 298L2447 297L2466 342L2462 349C2381 345 2321 343 2243 343L2206 343L2252 614C2255 630 2256 635 2261 646Z" stroke="rgb(0,0,0)" stroke-opacity="1" stroke-width="8" fill="rgb(0,0,0)" fill-opacity="1"></path></g></g><g><g transform="matrix(1,0,0,1,50.3900146484375,18.039993286132812)"><path transform="matrix(0.017,0,0,-0.017,0,0)" d="M604 347L604 406L65 406L65 347ZM604 134L604 193L65 193L65 134Z" stroke="rgb(0,0,0)" stroke-opacity="1" stroke-width="8" fill="rgb(0,0,0)" fill-opacity="1"></path></g></g><g><g transform="matrix(1,0,0,1,66.84503173828125,18.039993286132812)"><path transform="matrix(0.017,0,0,-0.017,0,0)" d="M221 334L338 334L470 330L489 375L485 382C404 378 344 376 266 376L229 376L276 646C308 647 391 650 413 650C475 650 516 641 517 626L525 537L549 537C552 601 559 651 570 689C549 691 519 692 501 692C498 692 487 692 463 691L343 690C334 689 160 691 150 691L105 692L102 664L156 662C180 661 191 653 191 635C191 621 187 589 182 559L95 55C91 37 79 30 35 23L30 -3L71 -2C102 -1 164 0 184 0L409 -3C423 -3 448 -2 481 -1L514 0L518 36C520 56 525 86 534 135L539 161L512 161L496 101C486 65 477 53 455 48C435 44 362 39 308 39C267 39 240 40 171 46ZM995 458C952 475 923 482 894 482C819 482 731 394 713 374C673 327 634 181 634 78C634 19 646 -11 670 -11C692 -11 711 -3 743 19C790 51 869 121 918 209L842 -205C837 -229 827 -249 815 -262L824 -276C855 -268 886 -262 910 -259C914 -205 920 -150 929 -100L1015 356C1026 417 1032 443 1042 474L1028 480ZM728 59C714 59 706 80 706 113C706 209 749 359 791 409C803 424 832 433 864 433C892 433 913 427 961 406L940 311C911 174 770 59 728 59Z" stroke="rgb(0,0,0)" stroke-opacity="1" stroke-width="8" fill="rgb(0,0,0)" fill-opacity="1"></path></g></g></g><g><g><g transform="matrix(1,0,0,1,2,38.19999694824219)"><path transform="matrix(0.017,0,0,-0.017,0,0)" d="" stroke="rgb(0,0,0)" stroke-opacity="1" stroke-width="8" fill="rgb(0,0,0)" fill-opacity="1"></path></g></g></g><g><g><g transform="matrix(1,0,0,1,2,58.36000061035156)"><path transform="matrix(0.017,0,0,-0.017,0,0)" d="M221 334L338 334L470 330L489 375L485 382C404 378 344 376 266 376L229 376L276 646C308 647 391 650 413 650C475 650 516 641 517 626L525 537L549 537C552 601 559 651 570 689C549 691 519 692 501 692C498 692 487 692 463 691L343 690C334 689 160 691 150 691L105 692L102 664L156 662C180 661 191 653 191 635C191 621 187 589 182 559L95 55C91 37 79 30 35 23L30 -3L71 -2C102 -1 164 0 184 0L409 -3C423 -3 448 -2 481 -1L514 0L518 36C520 56 525 86 534 135L539 161L512 161L496 101C486 65 477 53 455 48C435 44 362 39 308 39C267 39 240 40 171 46Z" stroke="rgb(0,0,0)" stroke-opacity="1" stroke-width="8" fill="rgb(0,0,0)" fill-opacity="1"></path></g></g><g><g transform="matrix(1,0,0,1,15.77001953125,58.36000061035156)"><path transform="matrix(0.017,0,0,-0.017,0,0)" d="M123 111C93 111 66 83 66 53C66 23 93 -5 122 -5C154 -5 182 22 182 53C182 83 154 111 123 111ZM123 456C93 456 66 428 66 398C66 368 93 340 122 340C154 340 182 367 182 397C182 428 154 456 123 456Z" stroke="rgb(0,0,0)" stroke-opacity="1" stroke-width="8" fill="rgb(0,0,0)" fill-opacity="1"></path></g></g><g><g transform="matrix(1,0,0,1,23.405029296875,58.36000061035156)"><path transform="matrix(0.017,0,0,-0.017,0,0)" d="M342 330L365 330C373 395 380 432 389 458C365 473 330 482 293 482C248 483 175 463 118 400C64 352 25 241 25 136C25 40 67 -11 147 -11C201 -11 249 9 304 54L354 95L346 115L331 105C259 57 221 40 186 40C130 40 101 80 101 159C101 267 136 371 185 409C206 425 230 433 261 433C306 433 342 414 342 390ZM677 204L648 77C644 60 642 42 642 26C642 4 651 -9 666 -9C689 -9 730 17 812 85L805 106C781 86 752 59 730 59C721 59 715 68 715 82C715 87 715 90 716 93L808 472L798 481L765 463C724 478 707 482 680 482C652 482 632 477 605 464C543 433 510 403 485 354C441 265 410 145 410 67C410 23 425 -11 444 -11C481 -11 561 41 677 204ZM725 414C703 305 684 253 650 201C593 117 532 59 500 59C488 59 482 72 482 99C482 163 510 280 545 360C569 415 592 433 640 433C663 433 681 429 725 414ZM1579 103L1553 86C1524 67 1502 56 1492 56C1485 56 1479 65 1479 76C1479 86 1481 95 1486 116L1561 413C1565 430 1568 446 1568 454C1568 471 1558 482 1542 482C1513 482 1475 464 1414 421C1351 376 1316 341 1267 272L1297 409C1301 429 1304 444 1304 451C1304 470 1294 482 1278 482C1248 482 1202 460 1147 418C1103 384 1083 363 1018 275L1051 408C1055 424 1057 439 1057 451C1057 470 1048 482 1034 482C1013 482 975 461 901 408L873 388L880 368C917 391 952 414 959 414C970 414 977 404 977 389C977 338 936 145 895 2L898 -9L966 6L988 108C1012 219 1039 278 1094 338C1136 384 1181 414 1209 414C1216 414 1220 406 1220 393C1220 358 1198 244 1157 69L1141 2L1146 -9L1215 6L1236 113C1252 194 1286 269 1330 318C1385 379 1435 414 1467 414C1475 414 1480 405 1480 389C1480 365 1477 351 1455 264C1415 105 1399 84 1399 31C1399 6 1410 -9 1429 -9C1455 -9 1491 12 1589 85ZM1802 -11C1858 -11 1973 62 2016 125C2057 186 2091 296 2091 371C2091 438 2068 482 2032 482C1990 482 1937 456 1885 409C1844 374 1824 348 1788 289L1812 408C1815 425 1817 440 1817 452C1817 471 1809 482 1795 482C1774 482 1736 461 1662 408L1634 388L1641 368L1673 389C1701 407 1712 412 1721 412C1731 412 1738 403 1738 389C1738 381 1736 361 1734 351L1676 8C1666 -52 1647 -143 1627 -233L1619 -270L1626 -276C1647 -269 1667 -264 1699 -259L1741 3C1762 -4 1784 -11 1802 -11ZM1769 165C1791 293 1898 424 1981 424C2007 424 2019 402 2019 356C2019 275 1979 156 1926 80C1906 51 1874 36 1833 36C1802 36 1777 43 1751 59ZM2142 152C2142 46 2187 -11 2270 -11C2325 -11 2385 15 2430 57C2492 116 2536 230 2536 331C2536 425 2486 482 2403 482C2299 482 2142 382 2142 152ZM2366 444C2427 444 2460 399 2460 315C2460 219 2429 113 2385 60C2367 39 2341 27 2310 27C2252 27 2218 72 2218 151C2218 264 2257 387 2306 427C2319 438 2342 444 2366 444ZM3145 111L3121 94C3068 56 3020 36 2984 36C2937 36 2908 73 2908 133C2908 158 2911 185 2916 214C2933 218 3042 248 3067 259C3152 296 3191 342 3191 404C3191 451 3157 482 3107 482C3039 496 2929 423 2892 349C2862 299 2832 180 2832 113C2832 35 2876 -11 2948 -11C3005 -11 3061 17 3153 92ZM2930 274C2947 343 2967 386 2996 412C3014 428 3045 440 3069 440C3098 440 3117 420 3117 388C3117 344 3082 297 3030 272C3002 258 2966 247 2921 237ZM3456 722L3444 733C3392 707 3356 698 3284 691L3280 670L3328 670C3352 670 3362 663 3362 648C3362 645 3362 640 3359 622C3348 567 3275 182 3260 132C3247 82 3241 52 3241 31C3241 6 3252 -9 3271 -9C3297 -9 3333 12 3431 85L3421 103L3395 86C3366 67 3344 56 3334 56C3327 56 3321 66 3321 76C3321 82 3322 89 3325 104ZM3810 111L3786 94C3733 56 3685 36 3649 36C3602 36 3573 73 3573 133C3573 158 3576 185 3581 214C3598 218 3707 248 3732 259C3817 296 3856 342 3856 404C3856 451 3822 482 3772 482C3704 496 3594 423 3557 349C3527 299 3497 180 3497 113C3497 35 3541 -11 3613 -11C3670 -11 3726 17 3818 92ZM3595 274C3612 343 3632 386 3661 412C3679 428 3710 440 3734 440C3763 440 3782 420 3782 388C3782 344 3747 297 3695 272C3667 258 3631 247 3586 237ZM4212 330L4235 330C4243 395 4250 432 4259 458C4235 473 4200 482 4163 482C4118 483 4045 463 3988 400C3934 352 3895 241 3895 136C3895 40 3937 -11 4017 -11C4071 -11 4119 9 4174 54L4224 95L4216 115L4201 105C4129 57 4091 40 4056 40C4000 40 3971 80 3971 159C3971 267 4006 371 4055 409C4076 425 4100 433 4131 433C4176 433 4212 414 4212 390ZM4401 390L4345 107C4344 99 4332 61 4332 31C4332 6 4343 -9 4362 -9C4397 -9 4432 11 4510 74L4541 99L4531 117L4486 86C4457 66 4437 56 4426 56C4417 56 4412 64 4412 76C4412 102 4426 183 4455 328L4468 390L4575 390L4586 440C4548 436 4514 434 4476 434C4492 528 4503 577 4521 631L4510 646C4490 634 4463 622 4432 610L4407 440C4363 419 4337 408 4319 403L4317 390ZM4976 365C4979 403 4984 435 4992 476C4981 481 4977 482 4972 482C4941 482 4910 458 4874 407C4835 351 4796 291 4780 256L4812 408C4816 425 4818 438 4818 450C4818 470 4810 482 4795 482C4774 482 4736 461 4662 408L4634 388L4641 368L4673 389C4701 407 4712 412 4721 412C4731 412 4738 403 4738 390C4738 332 4695 126 4655 -2L4665 -9C4680 -4 4696 -1 4719 4L4732 6L4758 126C4776 209 4799 262 4843 319C4877 363 4904 384 4926 384C4941 384 4951 379 4962 365ZM5030 388L5037 368L5069 389C5106 412 5109 414 5116 414C5126 414 5134 404 5134 391C5134 384 5130 361 5126 347L5060 107C5052 76 5047 49 5047 30C5047 6 5058 -9 5077 -9C5103 -9 5139 12 5237 85L5227 103L5201 86C5172 67 5149 56 5140 56C5133 56 5127 66 5127 76C5127 86 5129 95 5134 116L5211 420C5215 437 5217 448 5217 456C5217 473 5208 482 5192 482C5170 482 5133 461 5058 408ZM5224 712C5195 712 5166 679 5166 645C5166 620 5181 604 5205 604C5236 604 5260 633 5260 671C5260 695 5245 712 5224 712ZM5615 330L5638 330C5646 395 5653 432 5662 458C5638 473 5603 482 5566 482C5521 483 5448 463 5391 400C5337 352 5298 241 5298 136C5298 40 5340 -11 5420 -11C5474 -11 5522 9 5577 54L5627 95L5619 115L5604 105C5532 57 5494 40 5459 40C5403 40 5374 80 5374 159C5374 267 5409 371 5458 409C5479 425 5503 433 5534 433C5579 433 5615 414 5615 390ZM5696 152C5696 46 5741 -11 5824 -11C5879 -11 5939 15 5984 57C6046 116 6090 230 6090 331C6090 425 6040 482 5957 482C5853 482 5696 382 5696 152ZM5920 444C5981 444 6014 399 6014 315C6014 219 5983 113 5939 60C5921 39 5895 27 5864 27C5806 27 5772 72 5772 151C5772 264 5811 387 5860 427C5873 438 5896 444 5920 444Z" stroke="rgb(0,0,0)" stroke-opacity="1" stroke-width="8" fill="rgb(0,0,0)" fill-opacity="1"></path></g></g></g><g><g><g transform="matrix(1,0,0,1,2,78.52000427246094)"><path transform="matrix(0.017,0,0,-0.017,0,0)" d="M385 458C342 475 313 482 284 482C209 482 121 394 103 374C63 327 24 181 24 78C24 19 36 -11 60 -11C82 -11 101 -3 133 19C180 51 259 121 308 209L232 -205C227 -229 217 -249 205 -262L214 -276C245 -268 276 -262 300 -259C304 -205 310 -150 319 -100L405 356C416 417 422 443 432 474L418 480ZM118 59C104 59 96 80 96 113C96 209 139 359 181 409C193 424 222 433 254 433C282 433 303 427 351 406L330 311C301 174 160 59 118 59Z" stroke="rgb(0,0,0)" stroke-opacity="1" stroke-width="8" fill="rgb(0,0,0)" fill-opacity="1"></path></g></g><g><g transform="matrix(1,0,0,1,13.25,78.52000427246094)"><path transform="matrix(0.017,0,0,-0.017,0,0)" d="M123 111C93 111 66 83 66 53C66 23 93 -5 122 -5C154 -5 182 22 182 53C182 83 154 111 123 111ZM123 456C93 456 66 428 66 398C66 368 93 340 122 340C154 340 182 367 182 397C182 428 154 456 123 456Z" stroke="rgb(0,0,0)" stroke-opacity="1" stroke-width="8" fill="rgb(0,0,0)" fill-opacity="1"></path></g></g><g><g transform="matrix(1,0,0,1,20.885009765625,78.52000427246094)"><path transform="matrix(0.017,0,0,-0.017,0,0)" d="M342 330L365 330C373 395 380 432 389 458C365 473 330 482 293 482C248 483 175 463 118 400C64 352 25 241 25 136C25 40 67 -11 147 -11C201 -11 249 9 304 54L354 95L346 115L331 105C259 57 221 40 186 40C130 40 101 80 101 159C101 267 136 371 185 409C206 425 230 433 261 433C306 433 342 414 342 390ZM677 204L648 77C644 60 642 42 642 26C642 4 651 -9 666 -9C689 -9 730 17 812 85L805 106C781 86 752 59 730 59C721 59 715 68 715 82C715 87 715 90 716 93L808 472L798 481L765 463C724 478 707 482 680 482C652 482 632 477 605 464C543 433 510 403 485 354C441 265 410 145 410 67C410 23 425 -11 444 -11C481 -11 561 41 677 204ZM725 414C703 305 684 253 650 201C593 117 532 59 500 59C488 59 482 72 482 99C482 163 510 280 545 360C569 415 592 433 640 433C663 433 681 429 725 414ZM1217 365C1220 403 1225 435 1233 476C1222 481 1218 482 1213 482C1182 482 1151 458 1115 407C1076 351 1037 291 1021 256L1053 408C1057 425 1059 438 1059 450C1059 470 1051 482 1036 482C1015 482 977 461 903 408L875 388L882 368L914 389C942 407 953 412 962 412C972 412 979 403 979 390C979 332 936 126 896 -2L906 -9C921 -4 937 -1 960 4L973 6L999 126C1017 209 1040 262 1084 319C1118 363 1145 384 1167 384C1182 384 1192 379 1203 365ZM1512 482C1445 482 1292 419 1292 259C1292 182 1337 136 1414 136C1422 136 1433 136 1444 137L1403 99C1387 84 1376 66 1376 52C1376 42 1383 31 1397 19C1328 -4 1200 -48 1200 -159C1200 -230 1270 -276 1379 -276C1508 -276 1621 -204 1621 -121C1621 -85 1600 -49 1557 -14L1497 35C1463 62 1450 81 1450 100C1450 114 1465 128 1477 146C1575 170 1646 253 1646 342C1646 357 1643 376 1642 380C1659 378 1667 378 1676 378C1693 378 1703 379 1726 382L1735 427L1732 433C1704 426 1684 424 1630 424C1630 425 1606 482 1512 482ZM1413 1L1490 -58C1536 -94 1555 -121 1555 -154C1555 -206 1486 -248 1403 -248C1321 -248 1264 -206 1264 -145C1264 -43 1374 -11 1413 1ZM1487 448C1545 448 1574 412 1574 341C1574 238 1526 168 1456 168C1395 168 1363 209 1363 288C1363 383 1414 448 1487 448ZM2007 204L1978 77C1974 60 1972 42 1972 26C1972 4 1981 -9 1996 -9C2019 -9 2060 17 2142 85L2135 106C2111 86 2082 59 2060 59C2051 59 2045 68 2045 82C2045 87 2045 90 2046 93L2138 472L2128 481L2095 463C2054 478 2037 482 2010 482C1982 482 1962 477 1935 464C1873 433 1840 403 1815 354C1771 265 1740 145 1740 67C1740 23 1755 -11 1774 -11C1811 -11 1891 41 2007 204ZM2055 414C2033 305 2014 253 1980 201C1923 117 1862 59 1830 59C1818 59 1812 72 1812 99C1812 163 1840 280 1875 360C1899 415 1922 433 1970 433C1993 433 2011 429 2055 414Z" stroke="rgb(0,0,0)" stroke-opacity="1" stroke-width="8" fill="rgb(0,0,0)" fill-opacity="1"></path></g></g></g></g></svg>