<svg xmlns="http://www.w3.org/2000/svg" xmlns:xlink="http://www.w3.org/1999/xlink" width="142.60000610351562" height="84.63999938964844" style="width:142.60000610351562px;height:84.63999938964844px;font-family:Asana-Math, Asana;background:#FFF;"><g><g><g><g transform="matrix(1,0,0,1,2,18.039993286132812)"><path transform="matrix(0.017,0,0,-0.017,0,0)" d="M2462 334L2579 334L2711 330L2730 375L2726 382C2645 378 2585 376 2507 376L2470 376L2517 646C2549 647 2632 650 2654 650C2716 650 2757 641 2758 626L2766 537L2790 537C2793 601 2800 651 2811 689C2790 691 2760 692 2742 692C2739 692 2728 692 2704 691L2584 690C2575 689 2401 691 2391 691L2346 692L2343 664L2397 662C2421 661 2432 653 2432 635C2432 621 2428 589 2423 559L2336 55C2332 37 2320 30 2276 23L2271 -3L2312 -2C2343 -1 2405 0 2425 0L2650 -3C2664 -3 2689 -2 2722 -1L2755 0L2759 36C2761 56 2766 86 2775 135L2780 161L2753 161L2737 101C2727 65 2718 53 2696 48C2676 44 2603 39 2549 39C2508 39 2481 40 2412 46Z" stroke="rgb(0,0,0)" stroke-opacity="1" stroke-width="8" fill="rgb(0,0,0)" fill-opacity="1"></path></g></g><g><g transform="matrix(1,0,0,1,55.55000305175781,18.039993286132812)"><path transform="matrix(0.017,0,0,-0.017,0,0)" d="M604 347L604 406L65 406L65 347ZM604 134L604 193L65 193L65 134Z" stroke="rgb(0,0,0)" stroke-opacity="1" stroke-width="8" fill="rgb(0,0,0)" fill-opacity="1"></path></g></g><g><g transform="matrix(1,0,0,1,72.00502014160156,18.039993286132812)"><path transform="matrix(0.017,0,0,-0.017,0,0)" d="M105 664L160 662C184 661 195 653 195 635L112 125C95 34 94 31 54 28L13 25L9 -3L51 -2C92 -1 123 0 141 0C158 0 187 -1 227 -2L280 -3L283 25L218 28C192 29 182 37 182 58C182 67 183 74 186 93L284 648C320 654 336 656 355 656C457 656 506 612 506 519C506 411 434 323 346 323C324 323 304 328 267 342L269 311C306 293 326 288 355 288C484 288 594 405 594 541C594 642 531 695 412 692L108 692ZM735 390L679 107C678 99 666 61 666 31C666 6 677 -9 696 -9C731 -9 766 11 844 74L875 99L865 117L820 86C791 66 771 56 760 56C751 56 746 64 746 76C746 102 760 183 789 328L802 390L909 390L920 440C882 436 848 434 810 434C826 528 837 577 855 631L844 646C824 634 797 622 766 610L741 440C697 419 671 408 653 403L651 390Z" stroke="rgb(0,0,0)" stroke-opacity="1" stroke-width="8" fill="rgb(0,0,0)" fill-opacity="1"></path></g></g></g><g><g><g transform="matrix(1,0,0,1,2,38.19999694824219)"><path transform="matrix(0.017,0,0,-0.017,0,0)" d="" stroke="rgb(0,0,0)" stroke-opacity="1" stroke-width="8" fill="rgb(0,0,0)" fill-opacity="1"></path></g></g></g><g><g><g transform="matrix(1,0,0,1,2,58.36000061035156)"><path transform="matrix(0.017,0,0,-0.017,0,0)" d="M105 664L160 662C184 661 195 653 195 635L112 125C95 34 94 31 54 28L13 25L9 -3L51 -2C92 -1 123 0 141 0C158 0 187 -1 227 -2L280 -3L283 25L218 28C192 29 182 37 182 58C182 67 183 74 186 93L284 648C320 654 336 656 355 656C457 656 506 612 506 519C506 411 434 323 346 323C324 323 304 328 267 342L269 311C306 293 326 288 355 288C484 288 594 405 594 541C594 642 531 695 412 692L108 692Z" stroke="rgb(0,0,0)" stroke-opacity="1" stroke-width="8" fill="rgb(0,0,0)" fill-opacity="1"></path></g></g><g><g transform="matrix(1,0,0,1,15.770004272460938,58.36000061035156)"><path transform="matrix(0.017,0,0,-0.017,0,0)" d="M123 111C93 111 66 83 66 53C66 23 93 -5 122 -5C154 -5 182 22 182 53C182 83 154 111 123 111ZM123 456C93 456 66 428 66 398C66 368 93 340 122 340C154 340 182 367 182 397C182 428 154 456 123 456Z" stroke="rgb(0,0,0)" stroke-opacity="1" stroke-width="8" fill="rgb(0,0,0)" fill-opacity="1"></path></g></g><g><g transform="matrix(1,0,0,1,23.405014038085938,58.36000061035156)"><path transform="matrix(0.017,0,0,-0.017,0,0)" d="M176 -11C232 -11 347 62 390 125C431 186 465 296 465 371C465 438 442 482 406 482C364 482 311 456 259 409C218 374 198 348 162 289L186 408C189 425 191 440 191 452C191 471 183 482 169 482C148 482 110 461 36 408L8 388L15 368L47 389C75 407 86 412 95 412C105 412 112 403 112 389C112 381 110 361 108 351L50 8C40 -52 21 -143 1 -233L-7 -270L0 -276C21 -269 41 -264 73 -259L115 3C136 -4 158 -11 176 -11ZM143 165C165 293 272 424 355 424C381 424 393 402 393 356C393 275 353 156 300 80C280 51 248 36 207 36C176 36 151 43 125 59ZM516 152C516 46 561 -11 644 -11C699 -11 759 15 804 57C866 116 910 230 910 331C910 425 860 482 777 482C673 482 516 382 516 152ZM740 444C801 444 834 399 834 315C834 219 803 113 759 60C741 39 715 27 684 27C626 27 592 72 592 151C592 264 631 387 680 427C693 438 716 444 740 444ZM1067 390L1011 107C1010 99 998 61 998 31C998 6 1009 -9 1028 -9C1063 -9 1098 11 1176 74L1207 99L1197 117L1152 86C1123 66 1103 56 1092 56C1083 56 1078 64 1078 76C1078 102 1092 183 1121 328L1134 390L1241 390L1252 440C1214 436 1180 434 1142 434C1158 528 1169 577 1187 631L1176 646C1156 634 1129 622 1098 610L1073 440C1029 419 1003 408 985 403L983 390ZM1602 111L1578 94C1525 56 1477 36 1441 36C1394 36 1365 73 1365 133C1365 158 1368 185 1373 214C1390 218 1499 248 1524 259C1609 296 1648 342 1648 404C1648 451 1614 482 1564 482C1496 496 1386 423 1349 349C1319 299 1289 180 1289 113C1289 35 1333 -11 1405 -11C1462 -11 1518 17 1610 92ZM1387 274C1404 343 1424 386 1453 412C1471 428 1502 440 1526 440C1555 440 1574 420 1574 388C1574 344 1539 297 1487 272C1459 258 1423 247 1378 237ZM1686 388L1693 368L1725 389C1762 412 1765 414 1772 414C1783 414 1790 404 1790 389C1790 338 1749 145 1708 2L1715 -9C1740 -2 1763 4 1785 8C1804 134 1825 199 1871 268C1925 352 2000 414 2045 414C2056 414 2062 405 2062 390C2062 372 2059 351 2051 319L1999 107C1990 70 1986 47 1986 31C1986 6 1997 -9 2016 -9C2042 -9 2078 12 2176 85L2166 103L2140 86C2111 67 2089 56 2079 56C2072 56 2066 65 2066 76C2066 81 2067 92 2068 96L2134 372C2141 401 2145 429 2145 446C2145 469 2134 482 2114 482C2072 482 2003 444 1944 389C1906 354 1878 320 1826 247L1864 408C1868 426 1870 438 1870 449C1870 470 1862 482 1847 482C1826 482 1787 460 1714 408ZM2559 330L2582 330C2590 395 2597 432 2606 458C2582 473 2547 482 2510 482C2465 483 2392 463 2335 400C2281 352 2242 241 2242 136C2242 40 2284 -11 2364 -11C2418 -11 2466 9 2521 54L2571 95L2563 115L2548 105C2476 57 2438 40 2403 40C2347 40 2318 80 2318 159C2318 267 2353 371 2402 409C2423 425 2447 433 2478 433C2523 433 2559 414 2559 390ZM2657 388L2664 368L2696 389C2733 412 2736 414 2743 414C2753 414 2761 404 2761 391C2761 384 2757 361 2753 347L2687 107C2679 76 2674 49 2674 30C2674 6 2685 -9 2704 -9C2730 -9 2766 12 2864 85L2854 103L2828 86C2799 67 2776 56 2767 56C2760 56 2754 66 2754 76C2754 86 2756 95 2761 116L2838 420C2842 437 2844 448 2844 456C2844 473 2835 482 2819 482C2797 482 2760 461 2685 408ZM2851 712C2822 712 2793 679 2793 645C2793 620 2808 604 2832 604C2863 604 2887 633 2887 671C2887 695 2872 712 2851 712ZM3171 204L3142 77C3138 60 3136 42 3136 26C3136 4 3145 -9 3160 -9C3183 -9 3224 17 3306 85L3299 106C3275 86 3246 59 3224 59C3215 59 3209 68 3209 82C3209 87 3209 90 3210 93L3302 472L3292 481L3259 463C3218 478 3201 482 3174 482C3146 482 3126 477 3099 464C3037 433 3004 403 2979 354C2935 265 2904 145 2904 67C2904 23 2919 -11 2938 -11C2975 -11 3055 41 3171 204ZM3219 414C3197 305 3178 253 3144 201C3087 117 3026 59 2994 59C2982 59 2976 72 2976 99C2976 163 3004 280 3039 360C3063 415 3086 433 3134 433C3157 433 3175 429 3219 414ZM3920 111L3896 94C3843 56 3795 36 3759 36C3712 36 3683 73 3683 133C3683 158 3686 185 3691 214C3708 218 3817 248 3842 259C3927 296 3966 342 3966 404C3966 451 3932 482 3882 482C3814 496 3704 423 3667 349C3637 299 3607 180 3607 113C3607 35 3651 -11 3723 -11C3780 -11 3836 17 3928 92ZM3705 274C3722 343 3742 386 3771 412C3789 428 3820 440 3844 440C3873 440 3892 420 3892 388C3892 344 3857 297 3805 272C3777 258 3741 247 3696 237ZM4231 722L4219 733C4167 707 4131 698 4059 691L4055 670L4103 670C4127 670 4137 663 4137 648C4137 645 4137 640 4134 622C4123 567 4050 182 4035 132C4022 82 4016 52 4016 31C4016 6 4027 -9 4046 -9C4072 -9 4108 12 4206 85L4196 103L4170 86C4141 67 4119 56 4109 56C4102 56 4096 66 4096 76C4096 82 4097 89 4100 104ZM4585 111L4561 94C4508 56 4460 36 4424 36C4377 36 4348 73 4348 133C4348 158 4351 185 4356 214C4373 218 4482 248 4507 259C4592 296 4631 342 4631 404C4631 451 4597 482 4547 482C4479 496 4369 423 4332 349C4302 299 4272 180 4272 113C4272 35 4316 -11 4388 -11C4445 -11 4501 17 4593 92ZM4370 274C4387 343 4407 386 4436 412C4454 428 4485 440 4509 440C4538 440 4557 420 4557 388C4557 344 4522 297 4470 272C4442 258 4406 247 4361 237ZM4987 330L5010 330C5018 395 5025 432 5034 458C5010 473 4975 482 4938 482C4893 483 4820 463 4763 400C4709 352 4670 241 4670 136C4670 40 4712 -11 4792 -11C4846 -11 4894 9 4949 54L4999 95L4991 115L4976 105C4904 57 4866 40 4831 40C4775 40 4746 80 4746 159C4746 267 4781 371 4830 409C4851 425 4875 433 4906 433C4951 433 4987 414 4987 390ZM5176 390L5120 107C5119 99 5107 61 5107 31C5107 6 5118 -9 5137 -9C5172 -9 5207 11 5285 74L5316 99L5306 117L5261 86C5232 66 5212 56 5201 56C5192 56 5187 64 5187 76C5187 102 5201 183 5230 328L5243 390L5350 390L5361 440C5323 436 5289 434 5251 434C5267 528 5278 577 5296 631L5285 646C5265 634 5238 622 5207 610L5182 440C5138 419 5112 408 5094 403L5092 390ZM5751 365C5754 403 5759 435 5767 476C5756 481 5752 482 5747 482C5716 482 5685 458 5649 407C5610 351 5571 291 5555 256L5587 408C5591 425 5593 438 5593 450C5593 470 5585 482 5570 482C5549 482 5511 461 5437 408L5409 388L5416 368L5448 389C5476 407 5487 412 5496 412C5506 412 5513 403 5513 390C5513 332 5470 126 5430 -2L5440 -9C5455 -4 5471 -1 5494 4L5507 6L5533 126C5551 209 5574 262 5618 319C5652 363 5679 384 5701 384C5716 384 5726 379 5737 365ZM5805 388L5812 368L5844 389C5881 412 5884 414 5891 414C5901 414 5909 404 5909 391C5909 384 5905 361 5901 347L5835 107C5827 76 5822 49 5822 30C5822 6 5833 -9 5852 -9C5878 -9 5914 12 6012 85L6002 103L5976 86C5947 67 5924 56 5915 56C5908 56 5902 66 5902 76C5902 86 5904 95 5909 116L5986 420C5990 437 5992 448 5992 456C5992 473 5983 482 5967 482C5945 482 5908 461 5833 408ZM5999 712C5970 712 5941 679 5941 645C5941 620 5956 604 5980 604C6011 604 6035 633 6035 671C6035 695 6020 712 5999 712ZM6390 330L6413 330C6421 395 6428 432 6437 458C6413 473 6378 482 6341 482C6296 483 6223 463 6166 400C6112 352 6073 241 6073 136C6073 40 6115 -11 6195 -11C6249 -11 6297 9 6352 54L6402 95L6394 115L6379 105C6307 57 6269 40 6234 40C6178 40 6149 80 6149 159C6149 267 6184 371 6233 409C6254 425 6278 433 6309 433C6354 433 6390 414 6390 390ZM6725 204L6696 77C6692 60 6690 42 6690 26C6690 4 6699 -9 6714 -9C6737 -9 6778 17 6860 85L6853 106C6829 86 6800 59 6778 59C6769 59 6763 68 6763 82C6763 87 6763 90 6764 93L6856 472L6846 481L6813 463C6772 478 6755 482 6728 482C6700 482 6680 477 6653 464C6591 433 6558 403 6533 354C6489 265 6458 145 6458 67C6458 23 6473 -11 6492 -11C6529 -11 6609 41 6725 204ZM6773 414C6751 305 6732 253 6698 201C6641 117 6580 59 6548 59C6536 59 6530 72 6530 99C6530 163 6558 280 6593 360C6617 415 6640 433 6688 433C6711 433 6729 429 6773 414Z" stroke="rgb(0,0,0)" stroke-opacity="1" stroke-width="8" fill="rgb(0,0,0)" fill-opacity="1"></path></g></g></g><g><g><g transform="matrix(1,0,0,1,2,78.52000427246094)"><path transform="matrix(0.017,0,0,-0.017,0,0)" d="M125 390L69 107C68 99 56 61 56 31C56 6 67 -9 86 -9C121 -9 156 11 234 74L265 99L255 117L210 86C181 66 161 56 150 56C141 56 136 64 136 76C136 102 150 183 179 328L192 390L299 390L310 440C272 436 238 434 200 434C216 528 227 577 245 631L234 646C214 634 187 622 156 610L131 440C87 419 61 408 43 403L41 390Z" stroke="rgb(0,0,0)" stroke-opacity="1" stroke-width="8" fill="rgb(0,0,0)" fill-opacity="1"></path></g></g><g><g transform="matrix(1,0,0,1,11.044998168945312,78.52000427246094)"><path transform="matrix(0.017,0,0,-0.017,0,0)" d="M123 111C93 111 66 83 66 53C66 23 93 -5 122 -5C154 -5 182 22 182 53C182 83 154 111 123 111ZM123 456C93 456 66 428 66 398C66 368 93 340 122 340C154 340 182 367 182 397C182 428 154 456 123 456Z" stroke="rgb(0,0,0)" stroke-opacity="1" stroke-width="8" fill="rgb(0,0,0)" fill-opacity="1"></path></g></g><g><g transform="matrix(1,0,0,1,18.680007934570312,78.52000427246094)"><path transform="matrix(0.017,0,0,-0.017,0,0)" d="M125 390L69 107C68 99 56 61 56 31C56 6 67 -9 86 -9C121 -9 156 11 234 74L265 99L255 117L210 86C181 66 161 56 150 56C141 56 136 64 136 76C136 102 150 183 179 328L192 390L299 390L310 440C272 436 238 434 200 434C216 528 227 577 245 631L234 646C214 634 187 622 156 610L131 440C87 419 61 408 43 403L41 390ZM366 388L373 368L405 389C442 412 445 414 452 414C462 414 470 404 470 391C470 384 466 361 462 347L396 107C388 76 383 49 383 30C383 6 394 -9 413 -9C439 -9 475 12 573 85L563 103L537 86C508 67 485 56 476 56C469 56 463 66 463 76C463 86 465 95 470 116L547 420C551 437 553 448 553 456C553 473 544 482 528 482C506 482 469 461 394 408ZM560 712C531 712 502 679 502 645C502 620 517 604 541 604C572 604 596 633 596 671C596 695 581 712 560 712ZM937 111L913 94C860 56 812 36 776 36C729 36 700 73 700 133C700 158 703 185 708 214C725 218 834 248 859 259C944 296 983 342 983 404C983 451 949 482 899 482C831 496 721 423 684 349C654 299 624 180 624 113C624 35 668 -11 740 -11C797 -11 853 17 945 92ZM722 274C739 343 759 386 788 412C806 428 837 440 861 440C890 440 909 420 909 388C909 344 874 297 822 272C794 258 758 247 713 237ZM1727 103L1701 86C1672 67 1650 56 1640 56C1633 56 1627 65 1627 76C1627 86 1629 95 1634 116L1709 413C1713 430 1716 446 1716 454C1716 471 1706 482 1690 482C1661 482 1623 464 1562 421C1499 376 1464 341 1415 272L1445 409C1449 429 1452 444 1452 451C1452 470 1442 482 1426 482C1396 482 1350 460 1295 418C1251 384 1231 363 1166 275L1199 408C1203 424 1205 439 1205 451C1205 470 1196 482 1182 482C1161 482 1123 461 1049 408L1021 388L1028 368C1065 391 1100 414 1107 414C1118 414 1125 404 1125 389C1125 338 1084 145 1043 2L1046 -9L1114 6L1136 108C1160 219 1187 278 1242 338C1284 384 1329 414 1357 414C1364 414 1368 406 1368 393C1368 358 1346 244 1305 69L1289 2L1294 -9L1363 6L1384 113C1400 194 1434 269 1478 318C1533 379 1583 414 1615 414C1623 414 1628 405 1628 389C1628 365 1625 351 1603 264C1563 105 1547 84 1547 31C1547 6 1558 -9 1577 -9C1603 -9 1639 12 1737 85ZM1950 -11C2006 -11 2121 62 2164 125C2205 186 2239 296 2239 371C2239 438 2216 482 2180 482C2138 482 2085 456 2033 409C1992 374 1972 348 1936 289L1960 408C1963 425 1965 440 1965 452C1965 471 1957 482 1943 482C1922 482 1884 461 1810 408L1782 388L1789 368L1821 389C1849 407 1860 412 1869 412C1879 412 1886 403 1886 389C1886 381 1884 361 1882 351L1824 8C1814 -52 1795 -143 1775 -233L1767 -270L1774 -276C1795 -269 1815 -264 1847 -259L1889 3C1910 -4 1932 -11 1950 -11ZM1917 165C1939 293 2046 424 2129 424C2155 424 2167 402 2167 356C2167 275 2127 156 2074 80C2054 51 2022 36 1981 36C1950 36 1925 43 1899 59ZM2290 152C2290 46 2335 -11 2418 -11C2473 -11 2533 15 2578 57C2640 116 2684 230 2684 331C2684 425 2634 482 2551 482C2447 482 2290 382 2290 152ZM2514 444C2575 444 2608 399 2608 315C2608 219 2577 113 2533 60C2515 39 2489 27 2458 27C2400 27 2366 72 2366 151C2366 264 2405 387 2454 427C2467 438 2490 444 2514 444ZM3236 204L3207 77C3203 60 3201 42 3201 26C3201 4 3210 -9 3225 -9C3248 -9 3289 17 3371 85L3364 106C3340 86 3311 59 3289 59C3280 59 3274 68 3274 82C3274 87 3274 90 3275 93L3367 472L3357 481L3324 463C3283 478 3266 482 3239 482C3211 482 3191 477 3164 464C3102 433 3069 403 3044 354C3000 265 2969 145 2969 67C2969 23 2984 -11 3003 -11C3040 -11 3120 41 3236 204ZM3284 414C3262 305 3243 253 3209 201C3152 117 3091 59 3059 59C3047 59 3041 72 3041 99C3041 163 3069 280 3104 360C3128 415 3151 433 3199 433C3222 433 3240 429 3284 414ZM3750 330L3773 330C3781 395 3788 432 3797 458C3773 473 3738 482 3701 482C3656 483 3583 463 3526 400C3472 352 3433 241 3433 136C3433 40 3475 -11 3555 -11C3609 -11 3657 9 3712 54L3762 95L3754 115L3739 105C3667 57 3629 40 3594 40C3538 40 3509 80 3509 159C3509 267 3544 371 3593 409C3614 425 3638 433 3669 433C3714 433 3750 414 3750 390ZM3939 390L3883 107C3882 99 3870 61 3870 31C3870 6 3881 -9 3900 -9C3935 -9 3970 11 4048 74L4079 99L4069 117L4024 86C3995 66 3975 56 3964 56C3955 56 3950 64 3950 76C3950 102 3964 183 3993 328L4006 390L4113 390L4124 440C4086 436 4052 434 4014 434C4030 528 4041 577 4059 631L4048 646C4028 634 4001 622 3970 610L3945 440C3901 419 3875 408 3857 403L3855 390ZM4180 388L4187 368L4219 389C4256 412 4259 414 4266 414C4276 414 4284 404 4284 391C4284 384 4280 361 4276 347L4210 107C4202 76 4197 49 4197 30C4197 6 4208 -9 4227 -9C4253 -9 4289 12 4387 85L4377 103L4351 86C4322 67 4299 56 4290 56C4283 56 4277 66 4277 76C4277 86 4279 95 4284 116L4361 420C4365 437 4367 448 4367 456C4367 473 4358 482 4342 482C4320 482 4283 461 4208 408ZM4374 712C4345 712 4316 679 4316 645C4316 620 4331 604 4355 604C4386 604 4410 633 4410 671C4410 695 4395 712 4374 712ZM4589 420C4610 420 4626 421 4652 424C4541 304 4499 221 4499 121C4499 44 4545 -11 4609 -11C4747 -11 4900 236 4900 384C4900 441 4874 482 4838 482C4825 482 4813 478 4805 470L4755 423L4766 404C4775 410 4784 413 4793 413C4820 413 4836 390 4836 350C4836 202 4739 39 4651 39C4602 39 4571 81 4571 146C4571 251 4610 342 4708 464L4698 482C4678 473 4665 470 4637 470C4609 470 4567 472 4538 475L4526 476C4520 477 4515 477 4514 477C4502 477 4493 475 4482 470C4468 443 4457 407 4444 352L4466 352L4483 394C4490 411 4510 422 4534 422C4567 422 4551 420 4589 420ZM4939 152C4939 46 4984 -11 5067 -11C5122 -11 5182 15 5227 57C5289 116 5333 230 5333 331C5333 425 5283 482 5200 482C5096 482 4939 382 4939 152ZM5163 444C5224 444 5257 399 5257 315C5257 219 5226 113 5182 60C5164 39 5138 27 5107 27C5049 27 5015 72 5015 151C5015 264 5054 387 5103 427C5116 438 5139 444 5163 444Z" stroke="rgb(0,0,0)" stroke-opacity="1" stroke-width="8" fill="rgb(0,0,0)" fill-opacity="1"></path></g></g></g></g></svg>