<svg xmlns="http://www.w3.org/2000/svg" xmlns:xlink="http://www.w3.org/1999/xlink" width="175.4350128173828" height="104.80000305175781" style="width:175.4350128173828px;height:104.80000305175781px;font-family:Asana-Math, Asana;background:#FFF;"><g><g><g><g transform="matrix(1,0,0,1,2,18.039993286132812)"><path transform="matrix(0.017,0,0,-0.017,0,0)" d="M3298 96L3227 624C3225 646 3229 661 3269 662L3311 664L3311 692L3270 691C3233 690 3205 689 3187 689C3169 689 3141 690 3104 691L3063 692L3063 664L3088 662C3132 659 3140 651 3147 614L3235 -8L3284 -8L3662 611C3687 651 3695 658 3724 662L3742 664L3742 692L3712 691C3685 690 3662 689 3646 689C3636 689 3609 690 3568 691L3522 692L3522 664L3548 662C3586 659 3605 649 3605 630C3605 619 3601 608 3589 588Z" stroke="rgb(0,0,0)" stroke-opacity="1" stroke-width="8" fill="rgb(0,0,0)" fill-opacity="1"></path></g></g><g><g transform="matrix(1,0,0,1,70.1300048828125,18.039993286132812)"><path transform="matrix(0.017,0,0,-0.017,0,0)" d="M604 347L604 406L65 406L65 347ZM604 134L604 193L65 193L65 134Z" stroke="rgb(0,0,0)" stroke-opacity="1" stroke-width="8" fill="rgb(0,0,0)" fill-opacity="1"></path></g></g><g><g transform="matrix(1,0,0,1,86.58499145507812,18.039993286132812)"><path transform="matrix(0.017,0,0,-0.017,0,0)" d="M103 664L150 662C174 661 185 653 185 636C185 629 179 576 176 559L104 125C89 36 86 31 46 28L10 25L7 -3L39 -3L133 0L227 -3L259 -3L262 25L210 28C184 30 174 37 174 57C174 63 175 74 176 78L265 613C272 652 277 657 316 661L351 664L354 692L248 689C231 689 213 689 170 690L106 692ZM437 664L493 662C517 661 528 653 528 635C528 621 524 589 519 559L444 125C428 34 426 32 386 28L345 25L341 -3L383 -2C430 0 449 0 473 0L570 -3L596 -3L599 25L550 28C523 30 514 38 514 58C514 67 515 76 518 93L619 648C648 654 668 656 695 656C782 656 828 617 828 543C828 448 750 378 646 378L602 378L599 367C733 172 764 124 839 -3C839 -3 924 0 924 0C925 0 939 -1 958 -3L971 -3L971 24C931 29 920 37 891 79L707 354C762 364 791 376 827 402C885 444 916 499 916 560C916 646 852 693 741 691L440 691Z" stroke="rgb(0,0,0)" stroke-opacity="1" stroke-width="8" fill="rgb(0,0,0)" fill-opacity="1"></path></g></g></g><g></g><g><g><g transform="matrix(1,0,0,1,2,58.36000061035156)"><path transform="matrix(0.017,0,0,-0.017,0,0)" d="M166 420C187 420 203 421 229 424C118 304 76 221 76 121C76 44 122 -11 186 -11C324 -11 477 236 477 384C477 441 451 482 415 482C402 482 390 478 382 470L332 423L343 404C352 410 361 413 370 413C397 413 413 390 413 350C413 202 316 39 228 39C179 39 148 81 148 146C148 251 187 342 285 464L275 482C255 473 242 470 214 470C186 470 144 472 115 475L103 476C97 477 92 477 91 477C79 477 70 475 59 470C45 443 34 407 21 352L43 352L60 394C67 411 87 422 111 422C144 422 128 420 166 420Z" stroke="rgb(0,0,0)" stroke-opacity="1" stroke-width="8" fill="rgb(0,0,0)" fill-opacity="1"></path></g></g><g><g transform="matrix(1,0,0,1,13.8800048828125,58.36000061035156)"><path transform="matrix(0.017,0,0,-0.017,0,0)" d="M123 111C93 111 66 83 66 53C66 23 93 -5 122 -5C154 -5 182 22 182 53C182 83 154 111 123 111ZM123 456C93 456 66 428 66 398C66 368 93 340 122 340C154 340 182 367 182 397C182 428 154 456 123 456Z" stroke="rgb(0,0,0)" stroke-opacity="1" stroke-width="8" fill="rgb(0,0,0)" fill-opacity="1"></path></g></g><g><g transform="matrix(1,0,0,1,21.514999389648438,58.36000061035156)"><path transform="matrix(0.017,0,0,-0.017,0,0)" d="M166 420C187 420 203 421 229 424C118 304 76 221 76 121C76 44 122 -11 186 -11C324 -11 477 236 477 384C477 441 451 482 415 482C402 482 390 478 382 470L332 423L343 404C352 410 361 413 370 413C397 413 413 390 413 350C413 202 316 39 228 39C179 39 148 81 148 146C148 251 187 342 285 464L275 482C255 473 242 470 214 470C186 470 144 472 115 475L103 476C97 477 92 477 91 477C79 477 70 475 59 470C45 443 34 407 21 352L43 352L60 394C67 411 87 422 111 422C144 422 128 420 166 420ZM516 152C516 46 561 -11 644 -11C699 -11 759 15 804 57C866 116 910 230 910 331C910 425 860 482 777 482C673 482 516 382 516 152ZM740 444C801 444 834 399 834 315C834 219 803 113 759 60C741 39 715 27 684 27C626 27 592 72 592 151C592 264 631 387 680 427C693 438 716 444 740 444ZM1193 722L1181 733C1129 707 1093 698 1021 691L1017 670L1065 670C1089 670 1099 663 1099 648C1099 645 1099 640 1096 622C1085 567 1012 182 997 132C984 82 978 52 978 31C978 6 989 -9 1008 -9C1034 -9 1070 12 1168 85L1158 103L1132 86C1103 67 1081 56 1071 56C1064 56 1058 66 1058 76C1058 82 1059 89 1062 104ZM1344 390L1288 107C1287 99 1275 61 1275 31C1275 6 1286 -9 1305 -9C1340 -9 1375 11 1453 74L1484 99L1474 117L1429 86C1400 66 1380 56 1369 56C1360 56 1355 64 1355 76C1355 102 1369 183 1398 328L1411 390L1518 390L1529 440C1491 436 1457 434 1419 434C1435 528 1446 577 1464 631L1453 646C1433 634 1406 622 1375 610L1350 440C1306 419 1280 408 1262 403L1260 390ZM1822 204L1793 77C1789 60 1787 42 1787 26C1787 4 1796 -9 1811 -9C1834 -9 1875 17 1957 85L1950 106C1926 86 1897 59 1875 59C1866 59 1860 68 1860 82C1860 87 1860 90 1861 93L1953 472L1943 481L1910 463C1869 478 1852 482 1825 482C1797 482 1777 477 1750 464C1688 433 1655 403 1630 354C1586 265 1555 145 1555 67C1555 23 1570 -11 1589 -11C1626 -11 1706 41 1822 204ZM1870 414C1848 305 1829 253 1795 201C1738 117 1677 59 1645 59C1633 59 1627 72 1627 99C1627 163 1655 280 1690 360C1714 415 1737 433 1785 433C1808 433 1826 429 1870 414ZM2188 351L2088 -144C2077 -196 2059 -231 2041 -231C2027 -231 2009 -225 1988 -212L1980 -269C1990 -274 2003 -276 2018 -276C2058 -276 2098 -233 2134 -152C2154 -107 2168 -57 2196 70L2272 420C2276 438 2278 451 2278 457C2278 473 2269 482 2253 482C2231 482 2194 461 2119 408L2091 388L2098 368L2130 389C2167 412 2170 414 2177 414C2187 414 2195 404 2195 391C2195 382 2188 356 2188 351ZM2279 712C2250 712 2221 679 2221 645C2221 620 2236 604 2260 604C2291 604 2315 633 2315 671C2315 695 2300 712 2279 712ZM2649 111L2625 94C2572 56 2524 36 2488 36C2441 36 2412 73 2412 133C2412 158 2415 185 2420 214C2437 218 2546 248 2571 259C2656 296 2695 342 2695 404C2695 451 2661 482 2611 482C2543 496 2433 423 2396 349C2366 299 2336 180 2336 113C2336 35 2380 -11 2452 -11C2509 -11 2565 17 2657 92ZM2434 274C2451 343 2471 386 2500 412C2518 428 2549 440 2573 440C2602 440 2621 420 2621 388C2621 344 2586 297 2534 272C2506 258 2470 247 2425 237Z" stroke="rgb(0,0,0)" stroke-opacity="1" stroke-width="8" fill="rgb(0,0,0)" fill-opacity="1"></path></g></g></g><g><g><g transform="matrix(1,0,0,1,2,78.52000427246094)"><path transform="matrix(0.017,0,0,-0.017,0,0)" d="M34 388L41 368L73 389C110 412 113 414 120 414C130 414 138 404 138 391C138 384 134 361 130 347L64 107C56 76 51 49 51 30C51 6 62 -9 81 -9C107 -9 143 12 241 85L231 103L205 86C176 67 153 56 144 56C137 56 131 66 131 76C131 86 133 95 138 116L215 420C219 437 221 448 221 456C221 473 212 482 196 482C174 482 137 461 62 408ZM228 712C199 712 170 679 170 645C170 620 185 604 209 604C240 604 264 633 264 671C264 695 249 712 228 712Z" stroke="rgb(0,0,0)" stroke-opacity="1" stroke-width="8" fill="rgb(0,0,0)" fill-opacity="1"></path></g></g><g><g transform="matrix(1,0,0,1,10.100006103515625,78.52000427246094)"><path transform="matrix(0.017,0,0,-0.017,0,0)" d="M123 111C93 111 66 83 66 53C66 23 93 -5 122 -5C154 -5 182 22 182 53C182 83 154 111 123 111ZM123 456C93 456 66 428 66 398C66 368 93 340 122 340C154 340 182 367 182 397C182 428 154 456 123 456Z" stroke="rgb(0,0,0)" stroke-opacity="1" stroke-width="8" fill="rgb(0,0,0)" fill-opacity="1"></path></g></g><g><g transform="matrix(1,0,0,1,17.735000610351562,78.52000427246094)"><path transform="matrix(0.017,0,0,-0.017,0,0)" d="M34 388L41 368L73 389C110 412 113 414 120 414C130 414 138 404 138 391C138 384 134 361 130 347L64 107C56 76 51 49 51 30C51 6 62 -9 81 -9C107 -9 143 12 241 85L231 103L205 86C176 67 153 56 144 56C137 56 131 66 131 76C131 86 133 95 138 116L215 420C219 437 221 448 221 456C221 473 212 482 196 482C174 482 137 461 62 408ZM228 712C199 712 170 679 170 645C170 620 185 604 209 604C240 604 264 633 264 671C264 695 249 712 228 712ZM301 388L308 368L340 389C377 412 380 414 387 414C398 414 405 404 405 389C405 338 364 145 323 2L330 -9C355 -2 378 4 400 8C419 134 440 199 486 268C540 352 615 414 660 414C671 414 677 405 677 390C677 372 674 351 666 319L614 107C605 70 601 47 601 31C601 6 612 -9 631 -9C657 -9 693 12 791 85L781 103L755 86C726 67 704 56 694 56C687 56 681 65 681 76C681 81 682 92 683 96L749 372C756 401 760 429 760 446C760 469 749 482 729 482C687 482 618 444 559 389C521 354 493 320 441 247L479 408C483 426 485 438 485 449C485 470 477 482 462 482C441 482 402 460 329 408ZM957 390L901 107C900 99 888 61 888 31C888 6 899 -9 918 -9C953 -9 988 11 1066 74L1097 99L1087 117L1042 86C1013 66 993 56 982 56C973 56 968 64 968 76C968 102 982 183 1011 328L1024 390L1131 390L1142 440C1104 436 1070 434 1032 434C1048 528 1059 577 1077 631L1066 646C1046 634 1019 622 988 610L963 440C919 419 893 408 875 403L873 390ZM1492 111L1468 94C1415 56 1367 36 1331 36C1284 36 1255 73 1255 133C1255 158 1258 185 1263 214C1280 218 1389 248 1414 259C1499 296 1538 342 1538 404C1538 451 1504 482 1454 482C1386 496 1276 423 1239 349C1209 299 1179 180 1179 113C1179 35 1223 -11 1295 -11C1352 -11 1408 17 1500 92ZM1277 274C1294 343 1314 386 1343 412C1361 428 1392 440 1416 440C1445 440 1464 420 1464 388C1464 344 1429 297 1377 272C1349 258 1313 247 1268 237ZM1576 388L1583 368L1615 389C1652 412 1655 414 1662 414C1673 414 1680 404 1680 389C1680 338 1639 145 1598 2L1605 -9C1630 -2 1653 4 1675 8C1694 134 1715 199 1761 268C1815 352 1890 414 1935 414C1946 414 1952 405 1952 390C1952 372 1949 351 1941 319L1889 107C1880 70 1876 47 1876 31C1876 6 1887 -9 1906 -9C1932 -9 1968 12 2066 85L2056 103L2030 86C2001 67 1979 56 1969 56C1962 56 1956 65 1956 76C1956 81 1957 92 1958 96L2024 372C2031 401 2035 429 2035 446C2035 469 2024 482 2004 482C1962 482 1893 444 1834 389C1796 354 1768 320 1716 247L1754 408C1758 426 1760 438 1760 449C1760 470 1752 482 1737 482C1716 482 1677 460 1604 408ZM2138 148C2133 97 2127 62 2116 16C2154 -2 2188 -11 2223 -11C2272 -11 2318 7 2369 47C2420 87 2441 124 2441 174C2441 228 2409 257 2335 271L2292 279C2232 290 2213 307 2213 348C2213 401 2258 442 2315 442C2356 442 2394 424 2410 397L2410 342L2433 342C2437 377 2441 404 2452 455C2413 474 2385 482 2352 482C2300 482 2239 452 2191 404C2165 377 2154 352 2154 316C2154 260 2185 228 2251 215L2314 203C2358 195 2374 177 2374 138C2374 73 2328 29 2257 29C2222 29 2191 40 2163 64L2163 148ZM2529 388L2536 368L2568 389C2605 412 2608 414 2615 414C2625 414 2633 404 2633 391C2633 384 2629 361 2625 347L2559 107C2551 76 2546 49 2546 30C2546 6 2557 -9 2576 -9C2602 -9 2638 12 2736 85L2726 103L2700 86C2671 67 2648 56 2639 56C2632 56 2626 66 2626 76C2626 86 2628 95 2633 116L2710 420C2714 437 2716 448 2716 456C2716 473 2707 482 2691 482C2669 482 2632 461 2557 408ZM2723 712C2694 712 2665 679 2665 645C2665 620 2680 604 2704 604C2735 604 2759 633 2759 671C2759 695 2744 712 2723 712ZM3255 722L3243 733C3191 707 3155 698 3083 691L3079 670L3127 670C3151 670 3161 663 3161 646C3161 638 3160 629 3159 622L3131 468C3101 477 3074 482 3049 482C2980 482 2886 410 2840 323C2809 265 2789 170 2789 86C2789 21 2804 -11 2833 -11C2860 -11 2897 6 2931 33C2985 77 3018 116 3085 217L3062 126C3051 82 3046 50 3046 24C3046 3 3055 -9 3072 -9C3089 -9 3113 3 3147 28L3228 88L3218 107L3174 76C3160 66 3144 59 3135 59C3127 59 3121 68 3121 82C3121 90 3122 99 3129 128ZM2886 59C2870 59 2861 73 2861 98C2861 224 2907 380 2956 418C2969 428 2988 433 3015 433C3059 433 3088 427 3121 410L3109 351C3072 171 2931 59 2886 59ZM3542 204L3513 77C3509 60 3507 42 3507 26C3507 4 3516 -9 3531 -9C3554 -9 3595 17 3677 85L3670 106C3646 86 3617 59 3595 59C3586 59 3580 68 3580 82C3580 87 3580 90 3581 93L3673 472L3663 481L3630 463C3589 478 3572 482 3545 482C3517 482 3497 477 3470 464C3408 433 3375 403 3350 354C3306 265 3275 145 3275 67C3275 23 3290 -11 3309 -11C3346 -11 3426 41 3542 204ZM3590 414C3568 305 3549 253 3515 201C3458 117 3397 59 3365 59C3353 59 3347 72 3347 99C3347 163 3375 280 3410 360C3434 415 3457 433 3505 433C3528 433 3546 429 3590 414ZM4197 722L4185 733C4133 707 4097 698 4025 691L4021 670L4069 670C4093 670 4103 663 4103 646C4103 638 4102 629 4101 622L4073 468C4043 477 4016 482 3991 482C3922 482 3828 410 3782 323C3751 265 3731 170 3731 86C3731 21 3746 -11 3775 -11C3802 -11 3839 6 3873 33C3927 77 3960 116 4027 217L4004 126C3993 82 3988 50 3988 24C3988 3 3997 -9 4014 -9C4031 -9 4055 3 4089 28L4170 88L4160 107L4116 76C4102 66 4086 59 4077 59C4069 59 4063 68 4063 82C4063 90 4064 99 4071 128ZM3828 59C3812 59 3803 73 3803 98C3803 224 3849 380 3898 418C3911 428 3930 433 3957 433C4001 433 4030 427 4063 410L4051 351C4014 171 3873 59 3828 59ZM4945 722L4933 733C4881 707 4845 698 4773 691L4769 670L4817 670C4841 670 4851 663 4851 646C4851 638 4850 629 4849 622L4821 468C4791 477 4764 482 4739 482C4670 482 4576 410 4530 323C4499 265 4479 170 4479 86C4479 21 4494 -11 4523 -11C4550 -11 4587 6 4621 33C4675 77 4708 116 4775 217L4752 126C4741 82 4736 50 4736 24C4736 3 4745 -9 4762 -9C4779 -9 4803 3 4837 28L4918 88L4908 107L4864 76C4850 66 4834 59 4825 59C4817 59 4811 68 4811 82C4811 90 4812 99 4819 128ZM4576 59C4560 59 4551 73 4551 98C4551 224 4597 380 4646 418C4659 428 4678 433 4705 433C4749 433 4778 427 4811 410L4799 351C4762 171 4621 59 4576 59ZM5289 111L5265 94C5212 56 5164 36 5128 36C5081 36 5052 73 5052 133C5052 158 5055 185 5060 214C5077 218 5186 248 5211 259C5296 296 5335 342 5335 404C5335 451 5301 482 5251 482C5183 496 5073 423 5036 349C5006 299 4976 180 4976 113C4976 35 5020 -11 5092 -11C5149 -11 5205 17 5297 92ZM5074 274C5091 343 5111 386 5140 412C5158 428 5189 440 5213 440C5242 440 5261 420 5261 388C5261 344 5226 297 5174 272C5146 258 5110 247 5065 237ZM5940 330L5963 330C5971 395 5978 432 5987 458C5963 473 5928 482 5891 482C5846 483 5773 463 5716 400C5662 352 5623 241 5623 136C5623 40 5665 -11 5745 -11C5799 -11 5847 9 5902 54L5952 95L5944 115L5929 105C5857 57 5819 40 5784 40C5728 40 5699 80 5699 159C5699 267 5734 371 5783 409C5804 425 5828 433 5859 433C5904 433 5940 414 5940 390ZM6021 152C6021 46 6066 -11 6149 -11C6204 -11 6264 15 6309 57C6371 116 6415 230 6415 331C6415 425 6365 482 6282 482C6178 482 6021 382 6021 152ZM6245 444C6306 444 6339 399 6339 315C6339 219 6308 113 6264 60C6246 39 6220 27 6189 27C6131 27 6097 72 6097 151C6097 264 6136 387 6185 427C6198 438 6221 444 6245 444ZM6815 365C6818 403 6823 435 6831 476C6820 481 6816 482 6811 482C6780 482 6749 458 6713 407C6674 351 6635 291 6619 256L6651 408C6655 425 6657 438 6657 450C6657 470 6649 482 6634 482C6613 482 6575 461 6501 408L6473 388L6480 368L6512 389C6540 407 6551 412 6560 412C6570 412 6577 403 6577 390C6577 332 6534 126 6494 -2L6504 -9C6519 -4 6535 -1 6558 4L6571 6L6597 126C6615 209 6638 262 6682 319C6716 363 6743 384 6765 384C6780 384 6790 379 6801 365ZM7203 365C7206 403 7211 435 7219 476C7208 481 7204 482 7199 482C7168 482 7137 458 7101 407C7062 351 7023 291 7007 256L7039 408C7043 425 7045 438 7045 450C7045 470 7037 482 7022 482C7001 482 6963 461 6889 408L6861 388L6868 368L6900 389C6928 407 6939 412 6948 412C6958 412 6965 403 6965 390C6965 332 6922 126 6882 -2L6892 -9C6907 -4 6923 -1 6946 4L6959 6L6985 126C7003 209 7026 262 7070 319C7104 363 7131 384 7153 384C7168 384 7178 379 7189 365ZM7257 388L7264 368L7296 389C7333 412 7336 414 7343 414C7353 414 7361 404 7361 391C7361 384 7357 361 7353 347L7287 107C7279 76 7274 49 7274 30C7274 6 7285 -9 7304 -9C7330 -9 7366 12 7464 85L7454 103L7428 86C7399 67 7376 56 7367 56C7360 56 7354 66 7354 76C7354 86 7356 95 7361 116L7438 420C7442 437 7444 448 7444 456C7444 473 7435 482 7419 482C7397 482 7360 461 7285 408ZM7451 712C7422 712 7393 679 7393 645C7393 620 7408 604 7432 604C7463 604 7487 633 7487 671C7487 695 7472 712 7451 712ZM7828 111L7804 94C7751 56 7703 36 7667 36C7620 36 7591 73 7591 133C7591 158 7594 185 7599 214C7616 218 7725 248 7750 259C7835 296 7874 342 7874 404C7874 451 7840 482 7790 482C7722 496 7612 423 7575 349C7545 299 7515 180 7515 113C7515 35 7559 -11 7631 -11C7688 -11 7744 17 7836 92ZM7613 274C7630 343 7650 386 7679 412C7697 428 7728 440 7752 440C7781 440 7800 420 7800 388C7800 344 7765 297 7713 272C7685 258 7649 247 7604 237ZM7912 388L7919 368L7951 389C7988 412 7991 414 7998 414C8009 414 8016 404 8016 389C8016 338 7975 145 7934 2L7941 -9C7966 -2 7989 4 8011 8C8030 134 8051 199 8097 268C8151 352 8226 414 8271 414C8282 414 8288 405 8288 390C8288 372 8285 351 8277 319L8225 107C8216 70 8212 47 8212 31C8212 6 8223 -9 8242 -9C8268 -9 8304 12 8402 85L8392 103L8366 86C8337 67 8315 56 8305 56C8298 56 8292 65 8292 76C8292 81 8293 92 8294 96L8360 372C8367 401 8371 429 8371 446C8371 469 8360 482 8340 482C8298 482 8229 444 8170 389C8132 354 8104 320 8052 247L8090 408C8094 426 8096 438 8096 449C8096 470 8088 482 8073 482C8052 482 8013 460 7940 408ZM8568 390L8512 107C8511 99 8499 61 8499 31C8499 6 8510 -9 8529 -9C8564 -9 8599 11 8677 74L8708 99L8698 117L8653 86C8624 66 8604 56 8593 56C8584 56 8579 64 8579 76C8579 102 8593 183 8622 328L8635 390L8742 390L8753 440C8715 436 8681 434 8643 434C8659 528 8670 577 8688 631L8677 646C8657 634 8630 622 8599 610L8574 440C8530 419 8504 408 8486 403L8484 390ZM9103 111L9079 94C9026 56 8978 36 8942 36C8895 36 8866 73 8866 133C8866 158 8869 185 8874 214C8891 218 9000 248 9025 259C9110 296 9149 342 9149 404C9149 451 9115 482 9065 482C8997 496 8887 423 8850 349C8820 299 8790 180 8790 113C8790 35 8834 -11 8906 -11C8963 -11 9019 17 9111 92ZM8888 274C8905 343 8925 386 8954 412C8972 428 9003 440 9027 440C9056 440 9075 420 9075 388C9075 344 9040 297 8988 272C8960 258 8924 247 8879 237Z" stroke="rgb(0,0,0)" stroke-opacity="1" stroke-width="8" fill="rgb(0,0,0)" fill-opacity="1"></path></g></g></g><g><g><g transform="matrix(1,0,0,1,2,98.67999267578125)"><path transform="matrix(0.017,0,0,-0.017,0,0)" d="M368 365C371 403 376 435 384 476C373 481 369 482 364 482C333 482 302 458 266 407C227 351 188 291 172 256L204 408C208 425 210 438 210 450C210 470 202 482 187 482C166 482 128 461 54 408L26 388L33 368L65 389C93 407 104 412 113 412C123 412 130 403 130 390C130 332 87 126 47 -2L57 -9C72 -4 88 -1 111 4L124 6L150 126C168 209 191 262 235 319C269 363 296 384 318 384C333 384 343 379 354 365Z" stroke="rgb(0,0,0)" stroke-opacity="1" stroke-width="8" fill="rgb(0,0,0)" fill-opacity="1"></path></g></g><g><g transform="matrix(1,0,0,1,11.990005493164062,98.67999267578125)"><path transform="matrix(0.017,0,0,-0.017,0,0)" d="M123 111C93 111 66 83 66 53C66 23 93 -5 122 -5C154 -5 182 22 182 53C182 83 154 111 123 111ZM123 456C93 456 66 428 66 398C66 368 93 340 122 340C154 340 182 367 182 397C182 428 154 456 123 456Z" stroke="rgb(0,0,0)" stroke-opacity="1" stroke-width="8" fill="rgb(0,0,0)" fill-opacity="1"></path></g></g><g><g transform="matrix(1,0,0,1,19.625,98.67999267578125)"><path transform="matrix(0.017,0,0,-0.017,0,0)" d="M368 365C371 403 376 435 384 476C373 481 369 482 364 482C333 482 302 458 266 407C227 351 188 291 172 256L204 408C208 425 210 438 210 450C210 470 202 482 187 482C166 482 128 461 54 408L26 388L33 368L65 389C93 407 104 412 113 412C123 412 130 403 130 390C130 332 87 126 47 -2L57 -9C72 -4 88 -1 111 4L124 6L150 126C168 209 191 262 235 319C269 363 296 384 318 384C333 384 343 379 354 365ZM716 111L692 94C639 56 591 36 555 36C508 36 479 73 479 133C479 158 482 185 487 214C504 218 613 248 638 259C723 296 762 342 762 404C762 451 728 482 678 482C610 496 500 423 463 349C433 299 403 180 403 113C403 35 447 -11 519 -11C576 -11 632 17 724 92ZM501 274C518 343 538 386 567 412C585 428 616 440 640 440C669 440 688 420 688 388C688 344 653 297 601 272C573 258 537 247 492 237ZM807 148C802 97 796 62 785 16C823 -2 857 -11 892 -11C941 -11 987 7 1038 47C1089 87 1110 124 1110 174C1110 228 1078 257 1004 271L961 279C901 290 882 307 882 348C882 401 927 442 984 442C1025 442 1063 424 1079 397L1079 342L1102 342C1106 377 1110 404 1121 455C1082 474 1054 482 1021 482C969 482 908 452 860 404C834 377 823 352 823 316C823 260 854 228 920 215L983 203C1027 195 1043 177 1043 138C1043 73 997 29 926 29C891 29 860 40 832 64L832 148ZM1198 388L1205 368L1237 389C1274 412 1277 414 1284 414C1294 414 1302 404 1302 391C1302 384 1298 361 1294 347L1228 107C1220 76 1215 49 1215 30C1215 6 1226 -9 1245 -9C1271 -9 1307 12 1405 85L1395 103L1369 86C1340 67 1317 56 1308 56C1301 56 1295 66 1295 76C1295 86 1297 95 1302 116L1379 420C1383 437 1385 448 1385 456C1385 473 1376 482 1360 482C1338 482 1301 461 1226 408ZM1392 712C1363 712 1334 679 1334 645C1334 620 1349 604 1373 604C1404 604 1428 633 1428 671C1428 695 1413 712 1392 712ZM1472 148C1467 97 1461 62 1450 16C1488 -2 1522 -11 1557 -11C1606 -11 1652 7 1703 47C1754 87 1775 124 1775 174C1775 228 1743 257 1669 271L1626 279C1566 290 1547 307 1547 348C1547 401 1592 442 1649 442C1690 442 1728 424 1744 397L1744 342L1767 342C1771 377 1775 404 1786 455C1747 474 1719 482 1686 482C1634 482 1573 452 1525 404C1499 377 1488 352 1488 316C1488 260 1519 228 1585 215L1648 203C1692 195 1708 177 1708 138C1708 73 1662 29 1591 29C1556 29 1525 40 1497 64L1497 148ZM1954 390L1898 107C1897 99 1885 61 1885 31C1885 6 1896 -9 1915 -9C1950 -9 1985 11 2063 74L2094 99L2084 117L2039 86C2010 66 1990 56 1979 56C1970 56 1965 64 1965 76C1965 102 1979 183 2008 328L2021 390L2128 390L2139 440C2101 436 2067 434 2029 434C2045 528 2056 577 2074 631L2063 646C2043 634 2016 622 1985 610L1960 440C1916 419 1890 408 1872 403L1870 390ZM2489 111L2465 94C2412 56 2364 36 2328 36C2281 36 2252 73 2252 133C2252 158 2255 185 2260 214C2277 218 2386 248 2411 259C2496 296 2535 342 2535 404C2535 451 2501 482 2451 482C2383 496 2273 423 2236 349C2206 299 2176 180 2176 113C2176 35 2220 -11 2292 -11C2349 -11 2405 17 2497 92ZM2274 274C2291 343 2311 386 2340 412C2358 428 2389 440 2413 440C2442 440 2461 420 2461 388C2461 344 2426 297 2374 272C2346 258 2310 247 2265 237ZM2573 388L2580 368L2612 389C2649 412 2652 414 2659 414C2670 414 2677 404 2677 389C2677 338 2636 145 2595 2L2602 -9C2627 -2 2650 4 2672 8C2691 134 2712 199 2758 268C2812 352 2887 414 2932 414C2943 414 2949 405 2949 390C2949 372 2946 351 2938 319L2886 107C2877 70 2873 47 2873 31C2873 6 2884 -9 2903 -9C2929 -9 2965 12 3063 85L3053 103L3027 86C2998 67 2976 56 2966 56C2959 56 2953 65 2953 76C2953 81 2954 92 2955 96L3021 372C3028 401 3032 429 3032 446C3032 469 3021 482 3001 482C2959 482 2890 444 2831 389C2793 354 2765 320 2713 247L2751 408C2755 426 2757 438 2757 449C2757 470 2749 482 2734 482C2713 482 2674 460 2601 408ZM3446 330L3469 330C3477 395 3484 432 3493 458C3469 473 3434 482 3397 482C3352 483 3279 463 3222 400C3168 352 3129 241 3129 136C3129 40 3171 -11 3251 -11C3305 -11 3353 9 3408 54L3458 95L3450 115L3435 105C3363 57 3325 40 3290 40C3234 40 3205 80 3205 159C3205 267 3240 371 3289 409C3310 425 3334 433 3365 433C3410 433 3446 414 3446 390ZM3544 388L3551 368L3583 389C3620 412 3623 414 3630 414C3640 414 3648 404 3648 391C3648 384 3644 361 3640 347L3574 107C3566 76 3561 49 3561 30C3561 6 3572 -9 3591 -9C3617 -9 3653 12 3751 85L3741 103L3715 86C3686 67 3663 56 3654 56C3647 56 3641 66 3641 76C3641 86 3643 95 3648 116L3725 420C3729 437 3731 448 3731 456C3731 473 3722 482 3706 482C3684 482 3647 461 3572 408ZM3738 712C3709 712 3680 679 3680 645C3680 620 3695 604 3719 604C3750 604 3774 633 3774 671C3774 695 3759 712 3738 712ZM4058 204L4029 77C4025 60 4023 42 4023 26C4023 4 4032 -9 4047 -9C4070 -9 4111 17 4193 85L4186 106C4162 86 4133 59 4111 59C4102 59 4096 68 4096 82C4096 87 4096 90 4097 93L4189 472L4179 481L4146 463C4105 478 4088 482 4061 482C4033 482 4013 477 3986 464C3924 433 3891 403 3866 354C3822 265 3791 145 3791 67C3791 23 3806 -11 3825 -11C3862 -11 3942 41 4058 204ZM4106 414C4084 305 4065 253 4031 201C3974 117 3913 59 3881 59C3869 59 3863 72 3863 99C3863 163 3891 280 3926 360C3950 415 3973 433 4021 433C4044 433 4062 429 4106 414Z" stroke="rgb(0,0,0)" stroke-opacity="1" stroke-width="8" fill="rgb(0,0,0)" fill-opacity="1"></path></g></g></g></g></svg>