<svg xmlns="http://www.w3.org/2000/svg" xmlns:xlink="http://www.w3.org/1999/xlink" width="142.60000610351562" height="104.80000305175781" style="width:142.60000610351562px;height:104.80000305175781px;font-family:Asana-Math, Asana;background:#FFF;"><g><g><g><g transform="matrix(1,0,0,1,2,18.039993286132812)"><path transform="matrix(0.017,0,0,-0.017,0,0)" d="M2097 664L2152 662C2176 661 2187 653 2187 635L2104 125C2087 34 2086 31 2046 28L2005 25L2001 -3L2043 -2C2084 -1 2115 0 2133 0C2150 0 2179 -1 2219 -2L2272 -3L2275 25L2210 28C2184 29 2174 37 2174 58C2174 67 2175 74 2178 93L2276 648C2312 654 2328 656 2347 656C2449 656 2498 612 2498 519C2498 411 2426 323 2338 323C2316 323 2296 328 2259 342L2261 311C2298 293 2318 288 2347 288C2476 288 2586 405 2586 541C2586 642 2523 695 2404 692L2100 692Z" stroke="rgb(0,0,0)" stroke-opacity="1" stroke-width="8" fill="rgb(0,0,0)" fill-opacity="1"></path></g></g><g><g transform="matrix(1,0,0,1,51.32002258300781,18.039993286132812)"><path transform="matrix(0.017,0,0,-0.017,0,0)" d="M604 347L604 406L65 406L65 347ZM604 134L604 193L65 193L65 134Z" stroke="rgb(0,0,0)" stroke-opacity="1" stroke-width="8" fill="rgb(0,0,0)" fill-opacity="1"></path></g></g><g><g transform="matrix(1,0,0,1,67.77500915527344,18.039993286132812)"><path transform="matrix(0.017,0,0,-0.017,0,0)" d="M310 96L239 624C237 646 241 661 281 662L323 664L323 692L282 691C245 690 217 689 199 689C181 689 153 690 116 691L75 692L75 664L100 662C144 659 152 651 159 614L247 -8L296 -8L674 611C699 651 707 658 736 662L754 664L754 692L724 691C697 690 674 689 658 689C648 689 621 690 580 691L534 692L534 664L560 662C598 659 617 649 617 630C617 619 613 608 601 588ZM824 664L871 662C895 661 906 653 906 636C906 629 900 576 897 559L825 125C810 36 807 31 767 28L731 25L728 -3L760 -3L854 0L948 -3L980 -3L983 25L931 28C905 30 895 37 895 57C895 63 896 74 897 78L986 613C993 652 998 657 1037 661L1072 664L1075 692L969 689C952 689 934 689 891 690L827 692Z" stroke="rgb(0,0,0)" stroke-opacity="1" stroke-width="8" fill="rgb(0,0,0)" fill-opacity="1"></path></g></g></g><g></g><g><g><g transform="matrix(1,0,0,1,2,58.36000061035156)"><path transform="matrix(0.017,0,0,-0.017,0,0)" d="M105 664L160 662C184 661 195 653 195 635L112 125C95 34 94 31 54 28L13 25L9 -3L51 -2C92 -1 123 0 141 0C158 0 187 -1 227 -2L280 -3L283 25L218 28C192 29 182 37 182 58C182 67 183 74 186 93L284 648C320 654 336 656 355 656C457 656 506 612 506 519C506 411 434 323 346 323C324 323 304 328 267 342L269 311C306 293 326 288 355 288C484 288 594 405 594 541C594 642 531 695 412 692L108 692Z" stroke="rgb(0,0,0)" stroke-opacity="1" stroke-width="8" fill="rgb(0,0,0)" fill-opacity="1"></path></g></g><g><g transform="matrix(1,0,0,1,15.770004272460938,58.36000061035156)"><path transform="matrix(0.017,0,0,-0.017,0,0)" d="M123 111C93 111 66 83 66 53C66 23 93 -5 122 -5C154 -5 182 22 182 53C182 83 154 111 123 111ZM123 456C93 456 66 428 66 398C66 368 93 340 122 340C154 340 182 367 182 397C182 428 154 456 123 456Z" stroke="rgb(0,0,0)" stroke-opacity="1" stroke-width="8" fill="rgb(0,0,0)" fill-opacity="1"></path></g></g><g><g transform="matrix(1,0,0,1,23.405014038085938,58.36000061035156)"><path transform="matrix(0.017,0,0,-0.017,0,0)" d="M176 -11C232 -11 347 62 390 125C431 186 465 296 465 371C465 438 442 482 406 482C364 482 311 456 259 409C218 374 198 348 162 289L186 408C189 425 191 440 191 452C191 471 183 482 169 482C148 482 110 461 36 408L8 388L15 368L47 389C75 407 86 412 95 412C105 412 112 403 112 389C112 381 110 361 108 351L50 8C40 -52 21 -143 1 -233L-7 -270L0 -276C21 -269 41 -264 73 -259L115 3C136 -4 158 -11 176 -11ZM143 165C165 293 272 424 355 424C381 424 393 402 393 356C393 275 353 156 300 80C280 51 248 36 207 36C176 36 151 43 125 59ZM516 152C516 46 561 -11 644 -11C699 -11 759 15 804 57C866 116 910 230 910 331C910 425 860 482 777 482C673 482 516 382 516 152ZM740 444C801 444 834 399 834 315C834 219 803 113 759 60C741 39 715 27 684 27C626 27 592 72 592 151C592 264 631 387 680 427C693 438 716 444 740 444ZM1067 390L1011 107C1010 99 998 61 998 31C998 6 1009 -9 1028 -9C1063 -9 1098 11 1176 74L1207 99L1197 117L1152 86C1123 66 1103 56 1092 56C1083 56 1078 64 1078 76C1078 102 1092 183 1121 328L1134 390L1241 390L1252 440C1214 436 1180 434 1142 434C1158 528 1169 577 1187 631L1176 646C1156 634 1129 622 1098 610L1073 440C1029 419 1003 408 985 403L983 390ZM1602 111L1578 94C1525 56 1477 36 1441 36C1394 36 1365 73 1365 133C1365 158 1368 185 1373 214C1390 218 1499 248 1524 259C1609 296 1648 342 1648 404C1648 451 1614 482 1564 482C1496 496 1386 423 1349 349C1319 299 1289 180 1289 113C1289 35 1333 -11 1405 -11C1462 -11 1518 17 1610 92ZM1387 274C1404 343 1424 386 1453 412C1471 428 1502 440 1526 440C1555 440 1574 420 1574 388C1574 344 1539 297 1487 272C1459 258 1423 247 1378 237ZM1686 388L1693 368L1725 389C1762 412 1765 414 1772 414C1783 414 1790 404 1790 389C1790 338 1749 145 1708 2L1715 -9C1740 -2 1763 4 1785 8C1804 134 1825 199 1871 268C1925 352 2000 414 2045 414C2056 414 2062 405 2062 390C2062 372 2059 351 2051 319L1999 107C1990 70 1986 47 1986 31C1986 6 1997 -9 2016 -9C2042 -9 2078 12 2176 85L2166 103L2140 86C2111 67 2089 56 2079 56C2072 56 2066 65 2066 76C2066 81 2067 92 2068 96L2134 372C2141 401 2145 429 2145 446C2145 469 2134 482 2114 482C2072 482 2003 444 1944 389C1906 354 1878 320 1826 247L1864 408C1868 426 1870 438 1870 449C1870 470 1862 482 1847 482C1826 482 1787 460 1714 408ZM2559 330L2582 330C2590 395 2597 432 2606 458C2582 473 2547 482 2510 482C2465 483 2392 463 2335 400C2281 352 2242 241 2242 136C2242 40 2284 -11 2364 -11C2418 -11 2466 9 2521 54L2571 95L2563 115L2548 105C2476 57 2438 40 2403 40C2347 40 2318 80 2318 159C2318 267 2353 371 2402 409C2423 425 2447 433 2478 433C2523 433 2559 414 2559 390ZM2657 388L2664 368L2696 389C2733 412 2736 414 2743 414C2753 414 2761 404 2761 391C2761 384 2757 361 2753 347L2687 107C2679 76 2674 49 2674 30C2674 6 2685 -9 2704 -9C2730 -9 2766 12 2864 85L2854 103L2828 86C2799 67 2776 56 2767 56C2760 56 2754 66 2754 76C2754 86 2756 95 2761 116L2838 420C2842 437 2844 448 2844 456C2844 473 2835 482 2819 482C2797 482 2760 461 2685 408ZM2851 712C2822 712 2793 679 2793 645C2793 620 2808 604 2832 604C2863 604 2887 633 2887 671C2887 695 2872 712 2851 712ZM3171 204L3142 77C3138 60 3136 42 3136 26C3136 4 3145 -9 3160 -9C3183 -9 3224 17 3306 85L3299 106C3275 86 3246 59 3224 59C3215 59 3209 68 3209 82C3209 87 3209 90 3210 93L3302 472L3292 481L3259 463C3218 478 3201 482 3174 482C3146 482 3126 477 3099 464C3037 433 3004 403 2979 354C2935 265 2904 145 2904 67C2904 23 2919 -11 2938 -11C2975 -11 3055 41 3171 204ZM3219 414C3197 305 3178 253 3144 201C3087 117 3026 59 2994 59C2982 59 2976 72 2976 99C2976 163 3004 280 3039 360C3063 415 3086 433 3134 433C3157 433 3175 429 3219 414ZM3920 111L3896 94C3843 56 3795 36 3759 36C3712 36 3683 73 3683 133C3683 158 3686 185 3691 214C3708 218 3817 248 3842 259C3927 296 3966 342 3966 404C3966 451 3932 482 3882 482C3814 496 3704 423 3667 349C3637 299 3607 180 3607 113C3607 35 3651 -11 3723 -11C3780 -11 3836 17 3928 92ZM3705 274C3722 343 3742 386 3771 412C3789 428 3820 440 3844 440C3873 440 3892 420 3892 388C3892 344 3857 297 3805 272C3777 258 3741 247 3696 237ZM4231 722L4219 733C4167 707 4131 698 4059 691L4055 670L4103 670C4127 670 4137 663 4137 648C4137 645 4137 640 4134 622C4123 567 4050 182 4035 132C4022 82 4016 52 4016 31C4016 6 4027 -9 4046 -9C4072 -9 4108 12 4206 85L4196 103L4170 86C4141 67 4119 56 4109 56C4102 56 4096 66 4096 76C4096 82 4097 89 4100 104ZM4585 111L4561 94C4508 56 4460 36 4424 36C4377 36 4348 73 4348 133C4348 158 4351 185 4356 214C4373 218 4482 248 4507 259C4592 296 4631 342 4631 404C4631 451 4597 482 4547 482C4479 496 4369 423 4332 349C4302 299 4272 180 4272 113C4272 35 4316 -11 4388 -11C4445 -11 4501 17 4593 92ZM4370 274C4387 343 4407 386 4436 412C4454 428 4485 440 4509 440C4538 440 4557 420 4557 388C4557 344 4522 297 4470 272C4442 258 4406 247 4361 237ZM4987 330L5010 330C5018 395 5025 432 5034 458C5010 473 4975 482 4938 482C4893 483 4820 463 4763 400C4709 352 4670 241 4670 136C4670 40 4712 -11 4792 -11C4846 -11 4894 9 4949 54L4999 95L4991 115L4976 105C4904 57 4866 40 4831 40C4775 40 4746 80 4746 159C4746 267 4781 371 4830 409C4851 425 4875 433 4906 433C4951 433 4987 414 4987 390ZM5176 390L5120 107C5119 99 5107 61 5107 31C5107 6 5118 -9 5137 -9C5172 -9 5207 11 5285 74L5316 99L5306 117L5261 86C5232 66 5212 56 5201 56C5192 56 5187 64 5187 76C5187 102 5201 183 5230 328L5243 390L5350 390L5361 440C5323 436 5289 434 5251 434C5267 528 5278 577 5296 631L5285 646C5265 634 5238 622 5207 610L5182 440C5138 419 5112 408 5094 403L5092 390ZM5751 365C5754 403 5759 435 5767 476C5756 481 5752 482 5747 482C5716 482 5685 458 5649 407C5610 351 5571 291 5555 256L5587 408C5591 425 5593 438 5593 450C5593 470 5585 482 5570 482C5549 482 5511 461 5437 408L5409 388L5416 368L5448 389C5476 407 5487 412 5496 412C5506 412 5513 403 5513 390C5513 332 5470 126 5430 -2L5440 -9C5455 -4 5471 -1 5494 4L5507 6L5533 126C5551 209 5574 262 5618 319C5652 363 5679 384 5701 384C5716 384 5726 379 5737 365ZM5805 388L5812 368L5844 389C5881 412 5884 414 5891 414C5901 414 5909 404 5909 391C5909 384 5905 361 5901 347L5835 107C5827 76 5822 49 5822 30C5822 6 5833 -9 5852 -9C5878 -9 5914 12 6012 85L6002 103L5976 86C5947 67 5924 56 5915 56C5908 56 5902 66 5902 76C5902 86 5904 95 5909 116L5986 420C5990 437 5992 448 5992 456C5992 473 5983 482 5967 482C5945 482 5908 461 5833 408ZM5999 712C5970 712 5941 679 5941 645C5941 620 5956 604 5980 604C6011 604 6035 633 6035 671C6035 695 6020 712 5999 712ZM6390 330L6413 330C6421 395 6428 432 6437 458C6413 473 6378 482 6341 482C6296 483 6223 463 6166 400C6112 352 6073 241 6073 136C6073 40 6115 -11 6195 -11C6249 -11 6297 9 6352 54L6402 95L6394 115L6379 105C6307 57 6269 40 6234 40C6178 40 6149 80 6149 159C6149 267 6184 371 6233 409C6254 425 6278 433 6309 433C6354 433 6390 414 6390 390ZM6725 204L6696 77C6692 60 6690 42 6690 26C6690 4 6699 -9 6714 -9C6737 -9 6778 17 6860 85L6853 106C6829 86 6800 59 6778 59C6769 59 6763 68 6763 82C6763 87 6763 90 6764 93L6856 472L6846 481L6813 463C6772 478 6755 482 6728 482C6700 482 6680 477 6653 464C6591 433 6558 403 6533 354C6489 265 6458 145 6458 67C6458 23 6473 -11 6492 -11C6529 -11 6609 41 6725 204ZM6773 414C6751 305 6732 253 6698 201C6641 117 6580 59 6548 59C6536 59 6530 72 6530 99C6530 163 6558 280 6593 360C6617 415 6640 433 6688 433C6711 433 6729 429 6773 414Z" stroke="rgb(0,0,0)" stroke-opacity="1" stroke-width="8" fill="rgb(0,0,0)" fill-opacity="1"></path></g></g></g><g><g><g transform="matrix(1,0,0,1,2,78.52000427246094)"><path transform="matrix(0.017,0,0,-0.017,0,0)" d="M310 96L239 624C237 646 241 661 281 662L323 664L323 692L282 691C245 690 217 689 199 689C181 689 153 690 116 691L75 692L75 664L100 662C144 659 152 651 159 614L247 -8L296 -8L674 611C699 651 707 658 736 662L754 664L754 692L724 691C697 690 674 689 658 689C648 689 621 690 580 691L534 692L534 664L560 662C598 659 617 649 617 630C617 619 613 608 601 588Z" stroke="rgb(0,0,0)" stroke-opacity="1" stroke-width="8" fill="rgb(0,0,0)" fill-opacity="1"></path></g></g><g><g transform="matrix(1,0,0,1,17.645004272460938,78.52000427246094)"><path transform="matrix(0.017,0,0,-0.017,0,0)" d="M123 111C93 111 66 83 66 53C66 23 93 -5 122 -5C154 -5 182 22 182 53C182 83 154 111 123 111ZM123 456C93 456 66 428 66 398C66 368 93 340 122 340C154 340 182 367 182 397C182 428 154 456 123 456Z" stroke="rgb(0,0,0)" stroke-opacity="1" stroke-width="8" fill="rgb(0,0,0)" fill-opacity="1"></path></g></g><g><g transform="matrix(1,0,0,1,25.280014038085938,78.52000427246094)"><path transform="matrix(0.017,0,0,-0.017,0,0)" d="M166 420C187 420 203 421 229 424C118 304 76 221 76 121C76 44 122 -11 186 -11C324 -11 477 236 477 384C477 441 451 482 415 482C402 482 390 478 382 470L332 423L343 404C352 410 361 413 370 413C397 413 413 390 413 350C413 202 316 39 228 39C179 39 148 81 148 146C148 251 187 342 285 464L275 482C255 473 242 470 214 470C186 470 144 472 115 475L103 476C97 477 92 477 91 477C79 477 70 475 59 470C45 443 34 407 21 352L43 352L60 394C67 411 87 422 111 422C144 422 128 420 166 420ZM516 152C516 46 561 -11 644 -11C699 -11 759 15 804 57C866 116 910 230 910 331C910 425 860 482 777 482C673 482 516 382 516 152ZM740 444C801 444 834 399 834 315C834 219 803 113 759 60C741 39 715 27 684 27C626 27 592 72 592 151C592 264 631 387 680 427C693 438 716 444 740 444ZM1193 722L1181 733C1129 707 1093 698 1021 691L1017 670L1065 670C1089 670 1099 663 1099 648C1099 645 1099 640 1096 622C1085 567 1012 182 997 132C984 82 978 52 978 31C978 6 989 -9 1008 -9C1034 -9 1070 12 1168 85L1158 103L1132 86C1103 67 1081 56 1071 56C1064 56 1058 66 1058 76C1058 82 1059 89 1062 104ZM1344 390L1288 107C1287 99 1275 61 1275 31C1275 6 1286 -9 1305 -9C1340 -9 1375 11 1453 74L1484 99L1474 117L1429 86C1400 66 1380 56 1369 56C1360 56 1355 64 1355 76C1355 102 1369 183 1398 328L1411 390L1518 390L1529 440C1491 436 1457 434 1419 434C1435 528 1446 577 1464 631L1453 646C1433 634 1406 622 1375 610L1350 440C1306 419 1280 408 1262 403L1260 390ZM1822 204L1793 77C1789 60 1787 42 1787 26C1787 4 1796 -9 1811 -9C1834 -9 1875 17 1957 85L1950 106C1926 86 1897 59 1875 59C1866 59 1860 68 1860 82C1860 87 1860 90 1861 93L1953 472L1943 481L1910 463C1869 478 1852 482 1825 482C1797 482 1777 477 1750 464C1688 433 1655 403 1630 354C1586 265 1555 145 1555 67C1555 23 1570 -11 1589 -11C1626 -11 1706 41 1822 204ZM1870 414C1848 305 1829 253 1795 201C1738 117 1677 59 1645 59C1633 59 1627 72 1627 99C1627 163 1655 280 1690 360C1714 415 1737 433 1785 433C1808 433 1826 429 1870 414ZM2188 351L2088 -144C2077 -196 2059 -231 2041 -231C2027 -231 2009 -225 1988 -212L1980 -269C1990 -274 2003 -276 2018 -276C2058 -276 2098 -233 2134 -152C2154 -107 2168 -57 2196 70L2272 420C2276 438 2278 451 2278 457C2278 473 2269 482 2253 482C2231 482 2194 461 2119 408L2091 388L2098 368L2130 389C2167 412 2170 414 2177 414C2187 414 2195 404 2195 391C2195 382 2188 356 2188 351ZM2279 712C2250 712 2221 679 2221 645C2221 620 2236 604 2260 604C2291 604 2315 633 2315 671C2315 695 2300 712 2279 712ZM2649 111L2625 94C2572 56 2524 36 2488 36C2441 36 2412 73 2412 133C2412 158 2415 185 2420 214C2437 218 2546 248 2571 259C2656 296 2695 342 2695 404C2695 451 2661 482 2611 482C2543 496 2433 423 2396 349C2366 299 2336 180 2336 113C2336 35 2380 -11 2452 -11C2509 -11 2565 17 2657 92ZM2434 274C2451 343 2471 386 2500 412C2518 428 2549 440 2573 440C2602 440 2621 420 2621 388C2621 344 2586 297 2534 272C2506 258 2470 247 2425 237Z" stroke="rgb(0,0,0)" stroke-opacity="1" stroke-width="8" fill="rgb(0,0,0)" fill-opacity="1"></path></g></g></g><g><g><g transform="matrix(1,0,0,1,2,98.67999267578125)"><path transform="matrix(0.017,0,0,-0.017,0,0)" d="M103 664L150 662C174 661 185 653 185 636C185 629 179 576 176 559L104 125C89 36 86 31 46 28L10 25L7 -3L39 -3L133 0L227 -3L259 -3L262 25L210 28C184 30 174 37 174 57C174 63 175 74 176 78L265 613C272 652 277 657 316 661L351 664L354 692L248 689C231 689 213 689 170 690L106 692Z" stroke="rgb(0,0,0)" stroke-opacity="1" stroke-width="8" fill="rgb(0,0,0)" fill-opacity="1"></path></g></g><g><g transform="matrix(1,0,0,1,11.044998168945312,98.67999267578125)"><path transform="matrix(0.017,0,0,-0.017,0,0)" d="M123 111C93 111 66 83 66 53C66 23 93 -5 122 -5C154 -5 182 22 182 53C182 83 154 111 123 111ZM123 456C93 456 66 428 66 398C66 368 93 340 122 340C154 340 182 367 182 397C182 428 154 456 123 456Z" stroke="rgb(0,0,0)" stroke-opacity="1" stroke-width="8" fill="rgb(0,0,0)" fill-opacity="1"></path></g></g><g><g transform="matrix(1,0,0,1,18.680007934570312,98.67999267578125)"><path transform="matrix(0.017,0,0,-0.017,0,0)" d="M34 388L41 368L73 389C110 412 113 414 120 414C130 414 138 404 138 391C138 384 134 361 130 347L64 107C56 76 51 49 51 30C51 6 62 -9 81 -9C107 -9 143 12 241 85L231 103L205 86C176 67 153 56 144 56C137 56 131 66 131 76C131 86 133 95 138 116L215 420C219 437 221 448 221 456C221 473 212 482 196 482C174 482 137 461 62 408ZM228 712C199 712 170 679 170 645C170 620 185 604 209 604C240 604 264 633 264 671C264 695 249 712 228 712ZM301 388L308 368L340 389C377 412 380 414 387 414C398 414 405 404 405 389C405 338 364 145 323 2L330 -9C355 -2 378 4 400 8C419 134 440 199 486 268C540 352 615 414 660 414C671 414 677 405 677 390C677 372 674 351 666 319L614 107C605 70 601 47 601 31C601 6 612 -9 631 -9C657 -9 693 12 791 85L781 103L755 86C726 67 704 56 694 56C687 56 681 65 681 76C681 81 682 92 683 96L749 372C756 401 760 429 760 446C760 469 749 482 729 482C687 482 618 444 559 389C521 354 493 320 441 247L479 408C483 426 485 438 485 449C485 470 477 482 462 482C441 482 402 460 329 408ZM957 390L901 107C900 99 888 61 888 31C888 6 899 -9 918 -9C953 -9 988 11 1066 74L1097 99L1087 117L1042 86C1013 66 993 56 982 56C973 56 968 64 968 76C968 102 982 183 1011 328L1024 390L1131 390L1142 440C1104 436 1070 434 1032 434C1048 528 1059 577 1077 631L1066 646C1046 634 1019 622 988 610L963 440C919 419 893 408 875 403L873 390Z" stroke="rgb(0,0,0)" stroke-opacity="1" stroke-width="8" fill="rgb(0,0,0)" fill-opacity="1"></path></g></g><g><g transform="matrix(1,0,0,1,38.46501159667969,98.67999267578125)"><path transform="matrix(0.017,0,0,-0.017,0,0)" d="M124 111C94 111 67 83 67 53C67 23 94 -5 123 -5C155 -5 183 22 183 53C183 83 155 111 124 111Z" stroke="rgb(0,0,0)" stroke-opacity="1" stroke-width="8" fill="rgb(0,0,0)" fill-opacity="1"></path></g></g><g><g transform="matrix(1,0,0,1,46.10002136230469,98.67999267578125)"><path transform="matrix(0.017,0,0,-0.017,0,0)" d="M483 722L471 733C419 707 383 698 311 691L307 670L355 670C379 670 389 663 389 646C389 638 388 629 387 622L359 468C329 477 302 482 277 482C208 482 114 410 68 323C37 265 17 170 17 86C17 21 32 -11 61 -11C88 -11 125 6 159 33C213 77 246 116 313 217L290 126C279 82 274 50 274 24C274 3 283 -9 300 -9C317 -9 341 3 375 28L456 88L446 107L402 76C388 66 372 59 363 59C355 59 349 68 349 82C349 90 350 99 357 128ZM114 59C98 59 89 73 89 98C89 224 135 380 184 418C197 428 216 433 243 433C287 433 316 427 349 410L337 351C300 171 159 59 114 59ZM827 111L803 94C750 56 702 36 666 36C619 36 590 73 590 133C590 158 593 185 598 214C615 218 724 248 749 259C834 296 873 342 873 404C873 451 839 482 789 482C721 496 611 423 574 349C544 299 514 180 514 113C514 35 558 -11 630 -11C687 -11 743 17 835 92ZM612 274C629 343 649 386 678 412C696 428 727 440 751 440C780 440 799 420 799 388C799 344 764 297 712 272C684 258 648 247 603 237ZM1478 330L1501 330C1509 395 1516 432 1525 458C1501 473 1466 482 1429 482C1384 483 1311 463 1254 400C1200 352 1161 241 1161 136C1161 40 1203 -11 1283 -11C1337 -11 1385 9 1440 54L1490 95L1482 115L1467 105C1395 57 1357 40 1322 40C1266 40 1237 80 1237 159C1237 267 1272 371 1321 409C1342 425 1366 433 1397 433C1442 433 1478 414 1478 390ZM1559 152C1559 46 1604 -11 1687 -11C1742 -11 1802 15 1847 57C1909 116 1953 230 1953 331C1953 425 1903 482 1820 482C1716 482 1559 382 1559 152ZM1783 444C1844 444 1877 399 1877 315C1877 219 1846 113 1802 60C1784 39 1758 27 1727 27C1669 27 1635 72 1635 151C1635 264 1674 387 1723 427C1736 438 1759 444 1783 444ZM2353 365C2356 403 2361 435 2369 476C2358 481 2354 482 2349 482C2318 482 2287 458 2251 407C2212 351 2173 291 2157 256L2189 408C2193 425 2195 438 2195 450C2195 470 2187 482 2172 482C2151 482 2113 461 2039 408L2011 388L2018 368L2050 389C2078 407 2089 412 2098 412C2108 412 2115 403 2115 390C2115 332 2072 126 2032 -2L2042 -9C2057 -4 2073 -1 2096 4L2109 6L2135 126C2153 209 2176 262 2220 319C2254 363 2281 384 2303 384C2318 384 2328 379 2339 365ZM2741 365C2744 403 2749 435 2757 476C2746 481 2742 482 2737 482C2706 482 2675 458 2639 407C2600 351 2561 291 2545 256L2577 408C2581 425 2583 438 2583 450C2583 470 2575 482 2560 482C2539 482 2501 461 2427 408L2399 388L2406 368L2438 389C2466 407 2477 412 2486 412C2496 412 2503 403 2503 390C2503 332 2460 126 2420 -2L2430 -9C2445 -4 2461 -1 2484 4L2497 6L2523 126C2541 209 2564 262 2608 319C2642 363 2669 384 2691 384C2706 384 2716 379 2727 365ZM2795 388L2802 368L2834 389C2871 412 2874 414 2881 414C2891 414 2899 404 2899 391C2899 384 2895 361 2891 347L2825 107C2817 76 2812 49 2812 30C2812 6 2823 -9 2842 -9C2868 -9 2904 12 3002 85L2992 103L2966 86C2937 67 2914 56 2905 56C2898 56 2892 66 2892 76C2892 86 2894 95 2899 116L2976 420C2980 437 2982 448 2982 456C2982 473 2973 482 2957 482C2935 482 2898 461 2823 408ZM2989 712C2960 712 2931 679 2931 645C2931 620 2946 604 2970 604C3001 604 3025 633 3025 671C3025 695 3010 712 2989 712ZM3366 111L3342 94C3289 56 3241 36 3205 36C3158 36 3129 73 3129 133C3129 158 3132 185 3137 214C3154 218 3263 248 3288 259C3373 296 3412 342 3412 404C3412 451 3378 482 3328 482C3260 496 3150 423 3113 349C3083 299 3053 180 3053 113C3053 35 3097 -11 3169 -11C3226 -11 3282 17 3374 92ZM3151 274C3168 343 3188 386 3217 412C3235 428 3266 440 3290 440C3319 440 3338 420 3338 388C3338 344 3303 297 3251 272C3223 258 3187 247 3142 237ZM3450 388L3457 368L3489 389C3526 412 3529 414 3536 414C3547 414 3554 404 3554 389C3554 338 3513 145 3472 2L3479 -9C3504 -2 3527 4 3549 8C3568 134 3589 199 3635 268C3689 352 3764 414 3809 414C3820 414 3826 405 3826 390C3826 372 3823 351 3815 319L3763 107C3754 70 3750 47 3750 31C3750 6 3761 -9 3780 -9C3806 -9 3842 12 3940 85L3930 103L3904 86C3875 67 3853 56 3843 56C3836 56 3830 65 3830 76C3830 81 3831 92 3832 96L3898 372C3905 401 3909 429 3909 446C3909 469 3898 482 3878 482C3836 482 3767 444 3708 389C3670 354 3642 320 3590 247L3628 408C3632 426 3634 438 3634 449C3634 470 3626 482 3611 482C3590 482 3551 460 3478 408ZM4106 390L4050 107C4049 99 4037 61 4037 31C4037 6 4048 -9 4067 -9C4102 -9 4137 11 4215 74L4246 99L4236 117L4191 86C4162 66 4142 56 4131 56C4122 56 4117 64 4117 76C4117 102 4131 183 4160 328L4173 390L4280 390L4291 440C4253 436 4219 434 4181 434C4197 528 4208 577 4226 631L4215 646C4195 634 4168 622 4137 610L4112 440C4068 419 4042 408 4024 403L4022 390ZM4641 111L4617 94C4564 56 4516 36 4480 36C4433 36 4404 73 4404 133C4404 158 4407 185 4412 214C4429 218 4538 248 4563 259C4648 296 4687 342 4687 404C4687 451 4653 482 4603 482C4535 496 4425 423 4388 349C4358 299 4328 180 4328 113C4328 35 4372 -11 4444 -11C4501 -11 4557 17 4649 92ZM4426 274C4443 343 4463 386 4492 412C4510 428 4541 440 4565 440C4594 440 4613 420 4613 388C4613 344 4578 297 4526 272C4498 258 4462 247 4417 237Z" stroke="rgb(0,0,0)" stroke-opacity="1" stroke-width="8" fill="rgb(0,0,0)" fill-opacity="1"></path></g></g></g></g></svg>