<svg xmlns="http://www.w3.org/2000/svg" xmlns:xlink="http://www.w3.org/1999/xlink" width="144.6850128173828" height="127.13500213623047" style="width:144.6850128173828px;height:127.13500213623047px;font-family:Asana-Math, Asana;background:#FFF;"><g><g><g><g transform="matrix(1,0,0,1,2,30.204994201660156)"><path transform="matrix(0.017,0,0,-0.017,0,0)" d="M1848 664L1904 662C1928 661 1939 653 1939 635C1939 621 1935 589 1930 559L1855 125C1839 34 1837 32 1797 28L1756 25L1752 -3L1794 -2C1841 0 1860 0 1884 0L1981 -3L2007 -3L2010 25L1961 28C1934 30 1925 38 1925 58C1925 67 1926 76 1929 93L2030 648C2059 654 2079 656 2106 656C2193 656 2239 617 2239 543C2239 448 2161 378 2057 378L2013 378L2010 367C2144 172 2175 124 2250 -3C2250 -3 2335 0 2335 0C2336 0 2350 -1 2369 -3L2382 -3L2382 24C2342 29 2331 37 2302 79L2118 354C2173 364 2202 376 2238 402C2296 444 2327 499 2327 560C2327 646 2263 693 2152 691L1851 691Z" stroke="rgb(0,0,0)" stroke-opacity="1" stroke-width="8" fill="rgb(0,0,0)" fill-opacity="1"></path></g></g><g><g transform="matrix(1,0,0,1,48.03501892089844,30.204994201660156)"><path transform="matrix(0.017,0,0,-0.017,0,0)" d="M604 347L604 406L65 406L65 347ZM604 134L604 193L65 193L65 134Z" stroke="rgb(0,0,0)" stroke-opacity="1" stroke-width="8" fill="rgb(0,0,0)" fill-opacity="1"></path></g></g><g><g transform="matrix(1,0,0,1,64.49000549316406,30.204994201660156)"><path transform="matrix(0.017,0,0,-0.017,0,0)" d="M386 473C267 473 146 396 119 277C79 98 60 -97 34 -284C62 -283 92 -277 118 -266C116 -222 115 -145 145 29C169 -5 206 -15 247 -15C424 -15 522 168 525 325C527 420 482 473 386 473ZM347 441C426 441 446 380 445 311C444 203 398 11 260 11C182 11 164 72 166 138C168 243 210 441 347 441Z" stroke="rgb(0,0,0)" stroke-opacity="1" stroke-width="8" fill="rgb(0,0,0)" fill-opacity="1"></path></g></g><g><g><g><g><g transform="matrix(1,0,0,1,77.47999572753906,18.039993286132812)"><path transform="matrix(0.017,0,0,-0.017,0,0)" d="M349 664L352 692L238 689C222 689 204 689 161 690L97 692L94 664L141 662C165 661 176 653 176 635L81 55C77 37 65 30 21 23L16 -3L57 -2C88 -1 150 0 170 0C170 0 467 -1 467 -1C467 -1 500 0 500 0C499 25 510 103 523 165L492 165L475 103C466 71 457 54 448 49C435 44 371 39 304 39C255 39 228 40 162 46C165 64 256 605 256 613C263 651 270 658 307 661Z" stroke="rgb(0,0,0)" stroke-opacity="1" stroke-width="8" fill="rgb(0,0,0)" fill-opacity="1"></path></g></g></g></g><g><g><g><g transform="matrix(1,0,0,1,75.81501770019531,43.375)"><path transform="matrix(0.017,0,0,-0.017,0,0)" d="M567 55C567 39 552 30 524 28L480 25L480 -3C582 0 582 0 602 0C622 0 622 0 724 -3L724 25L698 28C651 35 650 35 642 80L555 705L509 705L136 112C100 56 82 40 48 32L28 27L28 -3C120 0 120 0 140 0C159 0 161 0 247 -3L247 25L195 28C179 29 164 38 164 47C164 55 171 69 190 102L292 277L538 277L563 89L563 86C563 84 567 69 567 55ZM496 601L533 313L317 313Z" stroke="rgb(0,0,0)" stroke-opacity="1" stroke-width="8" fill="rgb(0,0,0)" fill-opacity="1"></path></g></g></g></g><line style="fill:none;stroke-width:0.99px;stroke:rgb(0, 0, 0);" x1="75.81501770019531" y1="26.240000009536743" x2="88.58001804351807" y2="26.240000009536743"></line></g></g><g></g><g><g><g transform="matrix(1,0,0,1,2,80.69499206542969)"><path transform="matrix(0.017,0,0,-0.017,0,0)" d="M386 473C267 473 146 396 119 277C79 98 60 -97 34 -284C62 -283 92 -277 118 -266C116 -222 115 -145 145 29C169 -5 206 -15 247 -15C424 -15 522 168 525 325C527 420 482 473 386 473ZM347 441C426 441 446 380 445 311C444 203 398 11 260 11C182 11 164 72 166 138C168 243 210 441 347 441Z" stroke="rgb(0,0,0)" stroke-opacity="1" stroke-width="8" fill="rgb(0,0,0)" fill-opacity="1"></path></g></g><g><g transform="matrix(1,0,0,1,15.020004272460938,80.69499206542969)"><path transform="matrix(0.017,0,0,-0.017,0,0)" d="M123 111C93 111 66 83 66 53C66 23 93 -5 122 -5C154 -5 182 22 182 53C182 83 154 111 123 111ZM123 456C93 456 66 428 66 398C66 368 93 340 122 340C154 340 182 367 182 397C182 428 154 456 123 456Z" stroke="rgb(0,0,0)" stroke-opacity="1" stroke-width="8" fill="rgb(0,0,0)" fill-opacity="1"></path></g></g><g><g transform="matrix(1,0,0,1,22.655014038085938,80.69499206542969)"><path transform="matrix(0.017,0,0,-0.017,0,0)" d="M368 365C371 403 376 435 384 476C373 481 369 482 364 482C333 482 302 458 266 407C227 351 188 291 172 256L204 408C208 425 210 438 210 450C210 470 202 482 187 482C166 482 128 461 54 408L26 388L33 368L65 389C93 407 104 412 113 412C123 412 130 403 130 390C130 332 87 126 47 -2L57 -9C72 -4 88 -1 111 4L124 6L150 126C168 209 191 262 235 319C269 363 296 384 318 384C333 384 343 379 354 365ZM716 111L692 94C639 56 591 36 555 36C508 36 479 73 479 133C479 158 482 185 487 214C504 218 613 248 638 259C723 296 762 342 762 404C762 451 728 482 678 482C610 496 500 423 463 349C433 299 403 180 403 113C403 35 447 -11 519 -11C576 -11 632 17 724 92ZM501 274C518 343 538 386 567 412C585 428 616 440 640 440C669 440 688 420 688 388C688 344 653 297 601 272C573 258 537 247 492 237ZM807 148C802 97 796 62 785 16C823 -2 857 -11 892 -11C941 -11 987 7 1038 47C1089 87 1110 124 1110 174C1110 228 1078 257 1004 271L961 279C901 290 882 307 882 348C882 401 927 442 984 442C1025 442 1063 424 1079 397L1079 342L1102 342C1106 377 1110 404 1121 455C1082 474 1054 482 1021 482C969 482 908 452 860 404C834 377 823 352 823 316C823 260 854 228 920 215L983 203C1027 195 1043 177 1043 138C1043 73 997 29 926 29C891 29 860 40 832 64L832 148ZM1198 388L1205 368L1237 389C1274 412 1277 414 1284 414C1294 414 1302 404 1302 391C1302 384 1298 361 1294 347L1228 107C1220 76 1215 49 1215 30C1215 6 1226 -9 1245 -9C1271 -9 1307 12 1405 85L1395 103L1369 86C1340 67 1317 56 1308 56C1301 56 1295 66 1295 76C1295 86 1297 95 1302 116L1379 420C1383 437 1385 448 1385 456C1385 473 1376 482 1360 482C1338 482 1301 461 1226 408ZM1392 712C1363 712 1334 679 1334 645C1334 620 1349 604 1373 604C1404 604 1428 633 1428 671C1428 695 1413 712 1392 712ZM1472 148C1467 97 1461 62 1450 16C1488 -2 1522 -11 1557 -11C1606 -11 1652 7 1703 47C1754 87 1775 124 1775 174C1775 228 1743 257 1669 271L1626 279C1566 290 1547 307 1547 348C1547 401 1592 442 1649 442C1690 442 1728 424 1744 397L1744 342L1767 342C1771 377 1775 404 1786 455C1747 474 1719 482 1686 482C1634 482 1573 452 1525 404C1499 377 1488 352 1488 316C1488 260 1519 228 1585 215L1648 203C1692 195 1708 177 1708 138C1708 73 1662 29 1591 29C1556 29 1525 40 1497 64L1497 148ZM1954 390L1898 107C1897 99 1885 61 1885 31C1885 6 1896 -9 1915 -9C1950 -9 1985 11 2063 74L2094 99L2084 117L2039 86C2010 66 1990 56 1979 56C1970 56 1965 64 1965 76C1965 102 1979 183 2008 328L2021 390L2128 390L2139 440C2101 436 2067 434 2029 434C2045 528 2056 577 2074 631L2063 646C2043 634 2016 622 1985 610L1960 440C1916 419 1890 408 1872 403L1870 390ZM2195 388L2202 368L2234 389C2271 412 2274 414 2281 414C2291 414 2299 404 2299 391C2299 384 2295 361 2291 347L2225 107C2217 76 2212 49 2212 30C2212 6 2223 -9 2242 -9C2268 -9 2304 12 2402 85L2392 103L2366 86C2337 67 2314 56 2305 56C2298 56 2292 66 2292 76C2292 86 2294 95 2299 116L2376 420C2380 437 2382 448 2382 456C2382 473 2373 482 2357 482C2335 482 2298 461 2223 408ZM2389 712C2360 712 2331 679 2331 645C2331 620 2346 604 2370 604C2401 604 2425 633 2425 671C2425 695 2410 712 2389 712ZM2604 420C2625 420 2641 421 2667 424C2556 304 2514 221 2514 121C2514 44 2560 -11 2624 -11C2762 -11 2915 236 2915 384C2915 441 2889 482 2853 482C2840 482 2828 478 2820 470L2770 423L2781 404C2790 410 2799 413 2808 413C2835 413 2851 390 2851 350C2851 202 2754 39 2666 39C2617 39 2586 81 2586 146C2586 251 2625 342 2723 464L2713 482C2693 473 2680 470 2652 470C2624 470 2582 472 2553 475L2541 476C2535 477 2530 477 2529 477C2517 477 2508 475 2497 470C2483 443 2472 407 2459 352L2481 352L2498 394C2505 411 2525 422 2549 422C2582 422 2566 420 2604 420ZM2971 388L2978 368L3010 389C3047 412 3050 414 3057 414C3067 414 3075 404 3075 391C3075 384 3071 361 3067 347L3001 107C2993 76 2988 49 2988 30C2988 6 2999 -9 3018 -9C3044 -9 3080 12 3178 85L3168 103L3142 86C3113 67 3090 56 3081 56C3074 56 3068 66 3068 76C3068 86 3070 95 3075 116L3152 420C3156 437 3158 448 3158 456C3158 473 3149 482 3133 482C3111 482 3074 461 2999 408ZM3165 712C3136 712 3107 679 3107 645C3107 620 3122 604 3146 604C3177 604 3201 633 3201 671C3201 695 3186 712 3165 712ZM3697 722L3685 733C3633 707 3597 698 3525 691L3521 670L3569 670C3593 670 3603 663 3603 646C3603 638 3602 629 3601 622L3573 468C3543 477 3516 482 3491 482C3422 482 3328 410 3282 323C3251 265 3231 170 3231 86C3231 21 3246 -11 3275 -11C3302 -11 3339 6 3373 33C3427 77 3460 116 3527 217L3504 126C3493 82 3488 50 3488 24C3488 3 3497 -9 3514 -9C3531 -9 3555 3 3589 28L3670 88L3660 107L3616 76C3602 66 3586 59 3577 59C3569 59 3563 68 3563 82C3563 90 3564 99 3571 128ZM3328 59C3312 59 3303 73 3303 98C3303 224 3349 380 3398 418C3411 428 3430 433 3457 433C3501 433 3530 427 3563 410L3551 351C3514 171 3373 59 3328 59ZM3984 204L3955 77C3951 60 3949 42 3949 26C3949 4 3958 -9 3973 -9C3996 -9 4037 17 4119 85L4112 106C4088 86 4059 59 4037 59C4028 59 4022 68 4022 82C4022 87 4022 90 4023 93L4115 472L4105 481L4072 463C4031 478 4014 482 3987 482C3959 482 3939 477 3912 464C3850 433 3817 403 3792 354C3748 265 3717 145 3717 67C3717 23 3732 -11 3751 -11C3788 -11 3868 41 3984 204ZM4032 414C4010 305 3991 253 3957 201C3900 117 3839 59 3807 59C3795 59 3789 72 3789 99C3789 163 3817 280 3852 360C3876 415 3899 433 3947 433C3970 433 3988 429 4032 414ZM4639 722L4627 733C4575 707 4539 698 4467 691L4463 670L4511 670C4535 670 4545 663 4545 646C4545 638 4544 629 4543 622L4515 468C4485 477 4458 482 4433 482C4364 482 4270 410 4224 323C4193 265 4173 170 4173 86C4173 21 4188 -11 4217 -11C4244 -11 4281 6 4315 33C4369 77 4402 116 4469 217L4446 126C4435 82 4430 50 4430 24C4430 3 4439 -9 4456 -9C4473 -9 4497 3 4531 28L4612 88L4602 107L4558 76C4544 66 4528 59 4519 59C4511 59 4505 68 4505 82C4505 90 4506 99 4513 128ZM4270 59C4254 59 4245 73 4245 98C4245 224 4291 380 4340 418C4353 428 4372 433 4399 433C4443 433 4472 427 4505 410L4493 351C4456 171 4315 59 4270 59Z" stroke="rgb(0,0,0)" stroke-opacity="1" stroke-width="8" fill="rgb(0,0,0)" fill-opacity="1"></path></g></g></g><g><g><g transform="matrix(1,0,0,1,2,100.85499572753906)"><path transform="matrix(0.017,0,0,-0.017,0,0)" d="M349 664L352 692L238 689C222 689 204 689 161 690L97 692L94 664L141 662C165 661 176 653 176 635L81 55C77 37 65 30 21 23L16 -3L57 -2C88 -1 150 0 170 0C170 0 467 -1 467 -1C467 -1 500 0 500 0C499 25 510 103 523 165L492 165L475 103C466 71 457 54 448 49C435 44 371 39 304 39C255 39 228 40 162 46C165 64 256 605 256 613C263 651 270 658 307 661Z" stroke="rgb(0,0,0)" stroke-opacity="1" stroke-width="8" fill="rgb(0,0,0)" fill-opacity="1"></path></g></g><g><g transform="matrix(1,0,0,1,14.824996948242188,100.85499572753906)"><path transform="matrix(0.017,0,0,-0.017,0,0)" d="M123 111C93 111 66 83 66 53C66 23 93 -5 122 -5C154 -5 182 22 182 53C182 83 154 111 123 111ZM123 456C93 456 66 428 66 398C66 368 93 340 122 340C154 340 182 367 182 397C182 428 154 456 123 456Z" stroke="rgb(0,0,0)" stroke-opacity="1" stroke-width="8" fill="rgb(0,0,0)" fill-opacity="1"></path></g></g><g><g transform="matrix(1,0,0,1,22.460006713867188,100.85499572753906)"><path transform="matrix(0.017,0,0,-0.017,0,0)" d="M251 722L239 733C187 707 151 698 79 691L75 670L123 670C147 670 157 663 157 648C157 645 157 640 154 622C143 567 70 182 55 132C42 82 36 52 36 31C36 6 47 -9 66 -9C92 -9 128 12 226 85L216 103L190 86C161 67 139 56 129 56C122 56 116 66 116 76C116 82 117 89 120 104ZM294 152C294 46 339 -11 422 -11C477 -11 537 15 582 57C644 116 688 230 688 331C688 425 638 482 555 482C451 482 294 382 294 152ZM518 444C579 444 612 399 612 315C612 219 581 113 537 60C519 39 493 27 462 27C404 27 370 72 370 151C370 264 409 387 458 427C471 438 494 444 518 444ZM744 388L751 368L783 389C820 412 823 414 830 414C841 414 848 404 848 389C848 338 807 145 766 2L773 -9C798 -2 821 4 843 8C862 134 883 199 929 268C983 352 1058 414 1103 414C1114 414 1120 405 1120 390C1120 372 1117 351 1109 319L1057 107C1048 70 1044 47 1044 31C1044 6 1055 -9 1074 -9C1100 -9 1136 12 1234 85L1224 103L1198 86C1169 67 1147 56 1137 56C1130 56 1124 65 1124 76C1124 81 1125 92 1126 96L1192 372C1199 401 1203 429 1203 446C1203 469 1192 482 1172 482C1130 482 1061 444 1002 389C964 354 936 320 884 247L922 408C926 426 928 438 928 449C928 470 920 482 905 482C884 482 845 460 772 408ZM1550 482C1483 482 1330 419 1330 259C1330 182 1375 136 1452 136C1460 136 1471 136 1482 137L1441 99C1425 84 1414 66 1414 52C1414 42 1421 31 1435 19C1366 -4 1238 -48 1238 -159C1238 -230 1308 -276 1417 -276C1546 -276 1659 -204 1659 -121C1659 -85 1638 -49 1595 -14L1535 35C1501 62 1488 81 1488 100C1488 114 1503 128 1515 146C1613 170 1684 253 1684 342C1684 357 1681 376 1680 380C1697 378 1705 378 1714 378C1731 378 1741 379 1764 382L1773 427L1770 433C1742 426 1722 424 1668 424C1668 425 1644 482 1550 482ZM1451 1L1528 -58C1574 -94 1593 -121 1593 -154C1593 -206 1524 -248 1441 -248C1359 -248 1302 -206 1302 -145C1302 -43 1412 -11 1451 1ZM1525 448C1583 448 1612 412 1612 341C1612 238 1564 168 1494 168C1433 168 1401 209 1401 288C1401 383 1452 448 1525 448ZM1808 388L1815 368L1847 389C1884 412 1887 414 1894 414C1904 414 1912 404 1912 391C1912 384 1908 361 1904 347L1838 107C1830 76 1825 49 1825 30C1825 6 1836 -9 1855 -9C1881 -9 1917 12 2015 85L2005 103L1979 86C1950 67 1927 56 1918 56C1911 56 1905 66 1905 76C1905 86 1907 95 1912 116L1989 420C1993 437 1995 448 1995 456C1995 473 1986 482 1970 482C1948 482 1911 461 1836 408ZM2002 712C1973 712 1944 679 1944 645C1944 620 1959 604 1983 604C2014 604 2038 633 2038 671C2038 695 2023 712 2002 712ZM2176 390L2120 107C2119 99 2107 61 2107 31C2107 6 2118 -9 2137 -9C2172 -9 2207 11 2285 74L2316 99L2306 117L2261 86C2232 66 2212 56 2201 56C2192 56 2187 64 2187 76C2187 102 2201 183 2230 328L2243 390L2350 390L2361 440C2323 436 2289 434 2251 434C2267 528 2278 577 2296 631L2285 646C2265 634 2238 622 2207 610L2182 440C2138 419 2112 408 2094 403L2092 390ZM2875 473L2868 482L2800 465L2790 414C2775 336 2750 268 2719 221C2660 130 2582 59 2542 59C2534 59 2529 68 2529 85C2529 99 2531 112 2536 137L2593 408C2596 424 2598 438 2598 451C2598 470 2589 482 2575 482C2555 482 2517 461 2443 408L2415 388L2422 368L2454 389C2482 407 2493 412 2502 412C2511 412 2519 403 2519 392C2519 388 2518 378 2517 374L2454 77C2452 68 2450 44 2450 30C2450 7 2465 -11 2485 -11C2548 -11 2669 101 2753 239L2716 97C2709 73 2705 46 2705 31C2705 6 2716 -9 2735 -9C2761 -9 2797 12 2895 85L2885 103L2859 86C2835 70 2809 59 2798 59C2790 59 2785 66 2785 76C2785 112 2860 416 2875 473ZM3421 722L3409 733C3357 707 3321 698 3249 691L3245 670L3293 670C3317 670 3327 663 3327 646C3327 638 3326 629 3325 622L3297 468C3267 477 3240 482 3215 482C3146 482 3052 410 3006 323C2975 265 2955 170 2955 86C2955 21 2970 -11 2999 -11C3026 -11 3063 6 3097 33C3151 77 3184 116 3251 217L3228 126C3217 82 3212 50 3212 24C3212 3 3221 -9 3238 -9C3255 -9 3279 3 3313 28L3394 88L3384 107L3340 76C3326 66 3310 59 3301 59C3293 59 3287 68 3287 82C3287 90 3288 99 3295 128ZM3052 59C3036 59 3027 73 3027 98C3027 224 3073 380 3122 418C3135 428 3154 433 3181 433C3225 433 3254 427 3287 410L3275 351C3238 171 3097 59 3052 59ZM4169 722L4157 733C4105 707 4069 698 3997 691L3993 670L4041 670C4065 670 4075 663 4075 646C4075 638 4074 629 4073 622L4045 468C4015 477 3988 482 3963 482C3894 482 3800 410 3754 323C3723 265 3703 170 3703 86C3703 21 3718 -11 3747 -11C3774 -11 3811 6 3845 33C3899 77 3932 116 3999 217L3976 126C3965 82 3960 50 3960 24C3960 3 3969 -9 3986 -9C4003 -9 4027 3 4061 28L4142 88L4132 107L4088 76C4074 66 4058 59 4049 59C4041 59 4035 68 4035 82C4035 90 4036 99 4043 128ZM3800 59C3784 59 3775 73 3775 98C3775 224 3821 380 3870 418C3883 428 3902 433 3929 433C3973 433 4002 427 4035 410L4023 351C3986 171 3845 59 3800 59ZM4513 111L4489 94C4436 56 4388 36 4352 36C4305 36 4276 73 4276 133C4276 158 4279 185 4284 214C4301 218 4410 248 4435 259C4520 296 4559 342 4559 404C4559 451 4525 482 4475 482C4407 496 4297 423 4260 349C4230 299 4200 180 4200 113C4200 35 4244 -11 4316 -11C4373 -11 4429 17 4521 92ZM4298 274C4315 343 4335 386 4364 412C4382 428 4413 440 4437 440C4466 440 4485 420 4485 388C4485 344 4450 297 4398 272C4370 258 4334 247 4289 237ZM4824 722L4812 733C4760 707 4724 698 4652 691L4648 670L4696 670C4720 670 4730 663 4730 648C4730 645 4730 640 4727 622C4716 567 4643 182 4628 132C4615 82 4609 52 4609 31C4609 6 4620 -9 4639 -9C4665 -9 4701 12 4799 85L4789 103L4763 86C4734 67 4712 56 4702 56C4695 56 4689 66 4689 76C4689 82 4690 89 4693 104ZM5441 330L5464 330C5472 395 5479 432 5488 458C5464 473 5429 482 5392 482C5347 483 5274 463 5217 400C5163 352 5124 241 5124 136C5124 40 5166 -11 5246 -11C5300 -11 5348 9 5403 54L5453 95L5445 115L5430 105C5358 57 5320 40 5285 40C5229 40 5200 80 5200 159C5200 267 5235 371 5284 409C5305 425 5329 433 5360 433C5405 433 5441 414 5441 390ZM5776 204L5747 77C5743 60 5741 42 5741 26C5741 4 5750 -9 5765 -9C5788 -9 5829 17 5911 85L5904 106C5880 86 5851 59 5829 59C5820 59 5814 68 5814 82C5814 87 5814 90 5815 93L5907 472L5897 481L5864 463C5823 478 5806 482 5779 482C5751 482 5731 477 5704 464C5642 433 5609 403 5584 354C5540 265 5509 145 5509 67C5509 23 5524 -11 5543 -11C5580 -11 5660 41 5776 204ZM5824 414C5802 305 5783 253 5749 201C5692 117 5631 59 5599 59C5587 59 5581 72 5581 99C5581 163 5609 280 5644 360C5668 415 5691 433 5739 433C5762 433 5780 429 5824 414ZM6183 722L6171 733C6119 707 6083 698 6011 691L6007 670L6055 670C6079 670 6089 663 6089 646C6089 639 6088 628 6087 622L5986 71C5985 68 5985 64 5985 61C5985 22 6033 -11 6088 -11C6125 -11 6176 8 6219 39C6315 107 6381 244 6381 376C6381 414 6372 453 6360 468C6353 477 6340 482 6325 482C6301 482 6271 474 6243 460C6192 433 6159 403 6097 324ZM6270 424C6296 424 6309 401 6309 352C6309 288 6288 202 6258 137C6225 68 6185 36 6131 36C6085 36 6060 59 6060 101C6060 135 6075 276 6156 361C6189 395 6241 424 6270 424ZM6661 722L6649 733C6597 707 6561 698 6489 691L6485 670L6533 670C6557 670 6567 663 6567 648C6567 645 6567 640 6564 622C6553 567 6480 182 6465 132C6452 82 6446 52 6446 31C6446 6 6457 -9 6476 -9C6502 -9 6538 12 6636 85L6626 103L6600 86C6571 67 6549 56 6539 56C6532 56 6526 66 6526 76C6526 82 6527 89 6530 104ZM7015 111L6991 94C6938 56 6890 36 6854 36C6807 36 6778 73 6778 133C6778 158 6781 185 6786 214C6803 218 6912 248 6937 259C7022 296 7061 342 7061 404C7061 451 7027 482 6977 482C6909 496 6799 423 6762 349C6732 299 6702 180 6702 113C6702 35 6746 -11 6818 -11C6875 -11 6931 17 7023 92ZM6800 274C6817 343 6837 386 6866 412C6884 428 6915 440 6939 440C6968 440 6987 420 6987 388C6987 344 6952 297 6900 272C6872 258 6836 247 6791 237Z" stroke="rgb(0,0,0)" stroke-opacity="1" stroke-width="8" fill="rgb(0,0,0)" fill-opacity="1"></path></g></g></g><g><g><g transform="matrix(1,0,0,1,2,121.01499938964844)"><path transform="matrix(0.017,0,0,-0.017,0,0)" d="M567 55C567 39 552 30 524 28L480 25L480 -3C582 0 582 0 602 0C622 0 622 0 724 -3L724 25L698 28C651 35 650 35 642 80L555 705L509 705L136 112C100 56 82 40 48 32L28 27L28 -3C120 0 120 0 140 0C159 0 161 0 247 -3L247 25L195 28C179 29 164 38 164 47C164 55 171 69 190 102L292 277L538 277L563 89L563 86C563 84 567 69 567 55ZM496 601L533 313L317 313Z" stroke="rgb(0,0,0)" stroke-opacity="1" stroke-width="8" fill="rgb(0,0,0)" fill-opacity="1"></path></g></g><g><g transform="matrix(1,0,0,1,18.155014038085938,121.01499938964844)"><path transform="matrix(0.017,0,0,-0.017,0,0)" d="M123 111C93 111 66 83 66 53C66 23 93 -5 122 -5C154 -5 182 22 182 53C182 83 154 111 123 111ZM123 456C93 456 66 428 66 398C66 368 93 340 122 340C154 340 182 367 182 397C182 428 154 456 123 456Z" stroke="rgb(0,0,0)" stroke-opacity="1" stroke-width="8" fill="rgb(0,0,0)" fill-opacity="1"></path></g></g><g><g transform="matrix(1,0,0,1,25.789993286132812,121.01499938964844)"><path transform="matrix(0.017,0,0,-0.017,0,0)" d="M271 204L242 77C238 60 236 42 236 26C236 4 245 -9 260 -9C283 -9 324 17 406 85L399 106C375 86 346 59 324 59C315 59 309 68 309 82C309 87 309 90 310 93L402 472L392 481L359 463C318 478 301 482 274 482C246 482 226 477 199 464C137 433 104 403 79 354C35 265 4 145 4 67C4 23 19 -11 38 -11C75 -11 155 41 271 204ZM319 414C297 305 278 253 244 201C187 117 126 59 94 59C82 59 76 72 76 99C76 163 104 280 139 360C163 415 186 433 234 433C257 433 275 429 319 414ZM811 365C814 403 819 435 827 476C816 481 812 482 807 482C776 482 745 458 709 407C670 351 631 291 615 256L647 408C651 425 653 438 653 450C653 470 645 482 630 482C609 482 571 461 497 408L469 388L476 368L508 389C536 407 547 412 556 412C566 412 573 403 573 390C573 332 530 126 490 -2L500 -9C515 -4 531 -1 554 4L567 6L593 126C611 209 634 262 678 319C712 363 739 384 761 384C776 384 786 379 797 365ZM1159 111L1135 94C1082 56 1034 36 998 36C951 36 922 73 922 133C922 158 925 185 930 214C947 218 1056 248 1081 259C1166 296 1205 342 1205 404C1205 451 1171 482 1121 482C1053 496 943 423 906 349C876 299 846 180 846 113C846 35 890 -11 962 -11C1019 -11 1075 17 1167 92ZM944 274C961 343 981 386 1010 412C1028 428 1059 440 1083 440C1112 440 1131 420 1131 388C1131 344 1096 297 1044 272C1016 258 980 247 935 237ZM1490 204L1461 77C1457 60 1455 42 1455 26C1455 4 1464 -9 1479 -9C1502 -9 1543 17 1625 85L1618 106C1594 86 1565 59 1543 59C1534 59 1528 68 1528 82C1528 87 1528 90 1529 93L1621 472L1611 481L1578 463C1537 478 1520 482 1493 482C1465 482 1445 477 1418 464C1356 433 1323 403 1298 354C1254 265 1223 145 1223 67C1223 23 1238 -11 1257 -11C1294 -11 1374 41 1490 204ZM1538 414C1516 305 1497 253 1463 201C1406 117 1345 59 1313 59C1301 59 1295 72 1295 99C1295 163 1323 280 1358 360C1382 415 1405 433 1453 433C1476 433 1494 429 1538 414ZM2394 722L2382 733C2330 707 2294 698 2222 691L2218 670L2266 670C2290 670 2300 663 2300 646C2300 638 2299 629 2298 622L2270 468C2240 477 2213 482 2188 482C2119 482 2025 410 1979 323C1948 265 1928 170 1928 86C1928 21 1943 -11 1972 -11C1999 -11 2036 6 2070 33C2124 77 2157 116 2224 217L2201 126C2190 82 2185 50 2185 24C2185 3 2194 -9 2211 -9C2228 -9 2252 3 2286 28L2367 88L2357 107L2313 76C2299 66 2283 59 2274 59C2266 59 2260 68 2260 82C2260 90 2261 99 2268 128ZM2025 59C2009 59 2000 73 2000 98C2000 224 2046 380 2095 418C2108 428 2127 433 2154 433C2198 433 2227 427 2260 410L2248 351C2211 171 2070 59 2025 59ZM2738 111L2714 94C2661 56 2613 36 2577 36C2530 36 2501 73 2501 133C2501 158 2504 185 2509 214C2526 218 2635 248 2660 259C2745 296 2784 342 2784 404C2784 451 2750 482 2700 482C2632 496 2522 423 2485 349C2455 299 2425 180 2425 113C2425 35 2469 -11 2541 -11C2598 -11 2654 17 2746 92ZM2523 274C2540 343 2560 386 2589 412C2607 428 2638 440 2662 440C2691 440 2710 420 2710 388C2710 344 2675 297 2623 272C2595 258 2559 247 2514 237ZM3049 722L3037 733C2985 707 2949 698 2877 691L2873 670L2921 670C2945 670 2955 663 2955 648C2955 645 2955 640 2952 622C2941 567 2868 182 2853 132C2840 82 2834 52 2834 31C2834 6 2845 -9 2864 -9C2890 -9 2926 12 3024 85L3014 103L2988 86C2959 67 2937 56 2927 56C2920 56 2914 66 2914 76C2914 82 2915 89 2918 104ZM3666 330L3689 330C3697 395 3704 432 3713 458C3689 473 3654 482 3617 482C3572 483 3499 463 3442 400C3388 352 3349 241 3349 136C3349 40 3391 -11 3471 -11C3525 -11 3573 9 3628 54L3678 95L3670 115L3655 105C3583 57 3545 40 3510 40C3454 40 3425 80 3425 159C3425 267 3460 371 3509 409C3530 425 3554 433 3585 433C3630 433 3666 414 3666 390ZM3764 388L3771 368L3803 389C3840 412 3843 414 3850 414C3860 414 3868 404 3868 391C3868 384 3864 361 3860 347L3794 107C3786 76 3781 49 3781 30C3781 6 3792 -9 3811 -9C3837 -9 3873 12 3971 85L3961 103L3935 86C3906 67 3883 56 3874 56C3867 56 3861 66 3861 76C3861 86 3863 95 3868 116L3945 420C3949 437 3951 448 3951 456C3951 473 3942 482 3926 482C3904 482 3867 461 3792 408ZM3958 712C3929 712 3900 679 3900 645C3900 620 3915 604 3939 604C3970 604 3994 633 3994 671C3994 695 3979 712 3958 712ZM4375 365C4378 403 4383 435 4391 476C4380 481 4376 482 4371 482C4340 482 4309 458 4273 407C4234 351 4195 291 4179 256L4211 408C4215 425 4217 438 4217 450C4217 470 4209 482 4194 482C4173 482 4135 461 4061 408L4033 388L4040 368L4072 389C4100 407 4111 412 4120 412C4130 412 4137 403 4137 390C4137 332 4094 126 4054 -2L4064 -9C4079 -4 4095 -1 4118 4L4131 6L4157 126C4175 209 4198 262 4242 319C4276 363 4303 384 4325 384C4340 384 4350 379 4361 365ZM4737 330L4760 330C4768 395 4775 432 4784 458C4760 473 4725 482 4688 482C4643 483 4570 463 4513 400C4459 352 4420 241 4420 136C4420 40 4462 -11 4542 -11C4596 -11 4644 9 4699 54L4749 95L4741 115L4726 105C4654 57 4616 40 4581 40C4525 40 4496 80 4496 159C4496 267 4531 371 4580 409C4601 425 4625 433 4656 433C4701 433 4737 414 4737 390ZM5293 473L5286 482L5218 465L5208 414C5193 336 5168 268 5137 221C5078 130 5000 59 4960 59C4952 59 4947 68 4947 85C4947 99 4949 112 4954 137L5011 408C5014 424 5016 438 5016 451C5016 470 5007 482 4993 482C4973 482 4935 461 4861 408L4833 388L4840 368L4872 389C4900 407 4911 412 4920 412C4929 412 4937 403 4937 392C4937 388 4936 378 4935 374L4872 77C4870 68 4868 44 4868 30C4868 7 4883 -11 4903 -11C4966 -11 5087 101 5171 239L5134 97C5127 73 5123 46 5123 31C5123 6 5134 -9 5153 -9C5179 -9 5215 12 5313 85L5303 103L5277 86C5253 70 5227 59 5216 59C5208 59 5203 66 5203 76C5203 112 5278 416 5293 473ZM5607 722L5595 733C5543 707 5507 698 5435 691L5431 670L5479 670C5503 670 5513 663 5513 648C5513 645 5513 640 5510 622C5499 567 5426 182 5411 132C5398 82 5392 52 5392 31C5392 6 5403 -9 5422 -9C5448 -9 5484 12 5582 85L5572 103L5546 86C5517 67 5495 56 5485 56C5478 56 5472 66 5472 76C5472 82 5473 89 5476 104ZM5650 152C5650 46 5695 -11 5778 -11C5833 -11 5893 15 5938 57C6000 116 6044 230 6044 331C6044 425 5994 482 5911 482C5807 482 5650 382 5650 152ZM5874 444C5935 444 5968 399 5968 315C5968 219 5937 113 5893 60C5875 39 5849 27 5818 27C5760 27 5726 72 5726 151C5726 264 5765 387 5814 427C5827 438 5850 444 5874 444Z" stroke="rgb(0,0,0)" stroke-opacity="1" stroke-width="8" fill="rgb(0,0,0)" fill-opacity="1"></path></g></g></g></g></svg>