<svg xmlns="http://www.w3.org/2000/svg" xmlns:xlink="http://www.w3.org/1999/xlink" width="55.45000076293945" height="45.70000076293945" style="width:55.45000076293945px;height:45.70000076293945px;font-family:Asana-Math, Asana;background:#FFF;"><g><g><g><g transform="matrix(1,0,0,1,2,18.040000915527344)"><path transform="matrix(0.017,0,0,-0.017,0,0)" d="M662 6L655 -4C549 0 443 0 336 0C235 0 134 -1 33 -4L27 6C88 116 136 238 186 354C235 466 288 580 327 697L352 697C395 590 597 128 662 6ZM584 37C518 215 447 389 371 564L364 564C289 391 217 215 152 37Z" stroke="rgb(0,0,0)" stroke-opacity="1" stroke-width="8" fill="rgb(0,0,0)" fill-opacity="1"></path></g></g><g><g transform="matrix(1,0,0,1,13.70001220703125,18.040000915527344)"><path transform="matrix(0.017,0,0,-0.017,0,0)" d="M176 -11C232 -11 347 62 390 125C431 186 465 296 465 371C465 438 442 482 406 482C364 482 311 456 259 409C218 374 198 348 162 289L186 408C189 425 191 440 191 452C191 471 183 482 169 482C148 482 110 461 36 408L8 388L15 368L47 389C75 407 86 412 95 412C105 412 112 403 112 389C112 381 110 361 108 351L50 8C40 -52 21 -143 1 -233L-7 -270L0 -276C21 -269 41 -264 73 -259L115 3C136 -4 158 -11 176 -11ZM143 165C165 293 272 424 355 424C381 424 393 402 393 356C393 275 353 156 300 80C280 51 248 36 207 36C176 36 151 43 125 59Z" stroke="rgb(0,0,0)" stroke-opacity="1" stroke-width="8" fill="rgb(0,0,0)" fill-opacity="1"></path></g></g><g><g transform="matrix(1,0,0,1,27.290008544921875,18.040000915527344)"><path transform="matrix(0.017,0,0,-0.017,0,0)" d="M604 347L604 406L65 406L65 347ZM604 134L604 193L65 193L65 134Z" stroke="rgb(0,0,0)" stroke-opacity="1" stroke-width="8" fill="rgb(0,0,0)" fill-opacity="1"></path></g></g><g><g transform="matrix(1,0,0,1,43.745025634765625,18.040000915527344)"><path transform="matrix(0.017,0,0,-0.017,0,0)" d="M263 689C108 689 29 566 29 324C29 207 50 106 85 57C120 8 176 -20 238 -20C389 -20 465 110 465 366C465 585 400 689 263 689ZM245 654C342 654 381 556 381 316C381 103 343 15 251 15C154 15 113 116 113 360C113 571 150 654 245 654Z" stroke="rgb(0,0,0)" stroke-opacity="1" stroke-width="8" fill="rgb(0,0,0)" fill-opacity="1"></path></g></g></g><g><g><g transform="matrix(1,0,0,1,2,38.20000457763672)"><path transform="matrix(0.017,0,0,-0.017,0,0)" d="M176 -11C232 -11 347 62 390 125C431 186 465 296 465 371C465 438 442 482 406 482C364 482 311 456 259 409C218 374 198 348 162 289L186 408C189 425 191 440 191 452C191 471 183 482 169 482C148 482 110 461 36 408L8 388L15 368L47 389C75 407 86 412 95 412C105 412 112 403 112 389C112 381 110 361 108 351L50 8C40 -52 21 -143 1 -233L-7 -270L0 -276C21 -269 41 -264 73 -259L115 3C136 -4 158 -11 176 -11ZM143 165C165 293 272 424 355 424C381 424 393 402 393 356C393 275 353 156 300 80C280 51 248 36 207 36C176 36 151 43 125 59Z" stroke="rgb(0,0,0)" stroke-opacity="1" stroke-width="8" fill="rgb(0,0,0)" fill-opacity="1"></path></g></g><g><g><g><g><g transform="matrix(1,0,0,1,11,42.16000213623047)"><path transform="matrix(0.0119,0,0,-0.0119,0,0)" d="M345 437L329 437L350 549C366 635 394 673 440 673C470 673 497 658 512 634L522 638C527 654 537 685 545 705L550 720C534 727 503 733 480 733C469 733 453 730 445 726C421 715 339 654 316 630C294 608 282 578 271 521L256 442C215 422 195 414 170 405L165 383L246 383L237 327C207 132 170 -54 148 -123C130 -182 100 -213 64 -213C41 -213 30 -206 12 -184L-2 -188C-6 -211 -20 -259 -25 -268C-16 -273 -1 -276 10 -276C51 -276 105 -245 144 -198C215 -114 235 -18 319 383L423 383C427 402 434 425 440 439L436 446C407 439 408 437 345 437Z" stroke="rgb(0,0,0)" stroke-opacity="1" stroke-width="8" fill="rgb(0,0,0)" fill-opacity="1"></path></g></g></g></g></g><g><g transform="matrix(1,0,0,1,23.675018310546875,38.20000457763672)"><path transform="matrix(0.017,0,0,-0.017,0,0)" d="M604 347L604 406L65 406L65 347ZM604 134L604 193L65 193L65 134Z" stroke="rgb(0,0,0)" stroke-opacity="1" stroke-width="8" fill="rgb(0,0,0)" fill-opacity="1"></path></g></g><g><g transform="matrix(1,0,0,1,40.1300048828125,38.20000457763672)"><path transform="matrix(0.017,0,0,-0.017,0,0)" d="M176 -11C232 -11 347 62 390 125C431 186 465 296 465 371C465 438 442 482 406 482C364 482 311 456 259 409C218 374 198 348 162 289L186 408C189 425 191 440 191 452C191 471 183 482 169 482C148 482 110 461 36 408L8 388L15 368L47 389C75 407 86 412 95 412C105 412 112 403 112 389C112 381 110 361 108 351L50 8C40 -52 21 -143 1 -233L-7 -270L0 -276C21 -269 41 -264 73 -259L115 3C136 -4 158 -11 176 -11ZM143 165C165 293 272 424 355 424C381 424 393 402 393 356C393 275 353 156 300 80C280 51 248 36 207 36C176 36 151 43 125 59Z" stroke="rgb(0,0,0)" stroke-opacity="1" stroke-width="8" fill="rgb(0,0,0)" fill-opacity="1"></path></g></g><g><g><g><g><g transform="matrix(1,0,0,1,49.1300048828125,42.16000213623047)"><path transform="matrix(0.0119,0,0,-0.0119,0,0)" d="M34 388L41 368L73 389C110 412 113 414 120 414C130 414 138 404 138 391C138 384 134 361 130 347L64 107C56 76 51 49 51 30C51 6 62 -9 81 -9C107 -9 143 12 241 85L231 103L205 86C176 67 153 56 144 56C137 56 131 66 131 76C131 86 133 95 138 116L215 420C219 437 221 448 221 456C221 473 212 482 196 482C174 482 137 461 62 408ZM228 712C199 712 170 679 170 645C170 620 185 604 209 604C240 604 264 633 264 671C264 695 249 712 228 712Z" stroke="rgb(0,0,0)" stroke-opacity="1" stroke-width="8" fill="rgb(0,0,0)" fill-opacity="1"></path></g></g></g></g></g></g></g></svg>