<svg xmlns="http://www.w3.org/2000/svg" xmlns:xlink="http://www.w3.org/1999/xlink" width="233.74000549316406" height="188.20001220703125" style="width:233.74000549316406px;height:188.20001220703125px;font-family:Asana-Math, Asana;background:#FFF;"><g><g><g><g transform="matrix(1,0,0,1,2,18.040000915527344)"><path transform="matrix(0.017,0,0,-0.017,0,0)" d="M108 471C108 386 146 339 230 319L325 296C379 283 406 248 406 191C406 96 335 30 232 30C178 30 140 42 96 73L96 172L66 172C60 117 53 72 42 20C91 -5 144 -18 197 -18C352 -18 485 99 485 234C485 313 442 355 341 377L276 391C210 405 180 442 180 508C180 595 247 658 339 658C388 658 421 645 451 613L451 537L481 537C485 591 492 629 506 672C461 696 421 706 374 706C250 706 108 614 108 471ZM589 388L596 368L628 389C665 412 668 414 675 414C685 414 693 404 693 391C693 384 689 361 685 347L619 107C611 76 606 49 606 30C606 6 617 -9 636 -9C662 -9 698 12 796 85L786 103L760 86C731 67 708 56 699 56C692 56 686 66 686 76C686 86 688 95 693 116L770 420C774 437 776 448 776 456C776 473 767 482 751 482C729 482 692 461 617 408ZM783 712C754 712 725 679 725 645C725 620 740 604 764 604C795 604 819 633 819 671C819 695 804 712 783 712ZM856 388L863 368L895 389C932 412 935 414 942 414C953 414 960 404 960 389C960 338 919 145 878 2L885 -9C910 -2 933 4 955 8C974 134 995 199 1041 268C1095 352 1170 414 1215 414C1226 414 1232 405 1232 390C1232 372 1229 351 1221 319L1169 107C1160 70 1156 47 1156 31C1156 6 1167 -9 1186 -9C1212 -9 1248 12 1346 85L1336 103L1310 86C1281 67 1259 56 1249 56C1242 56 1236 65 1236 76C1236 81 1237 92 1238 96L1304 372C1311 401 1315 429 1315 446C1315 469 1304 482 1284 482C1242 482 1173 444 1114 389C1076 354 1048 320 996 247L1034 408C1038 426 1040 438 1040 449C1040 470 1032 482 1017 482C996 482 957 460 884 408ZM1981 437L1965 437L1986 549C2002 635 2030 673 2076 673C2106 673 2133 658 2148 634L2158 638C2163 654 2173 685 2181 705L2186 720C2170 727 2139 733 2116 733C2105 733 2089 730 2081 726C2057 715 1975 654 1952 630C1930 608 1918 578 1907 521L1892 442C1851 422 1831 414 1806 405L1801 383L1882 383L1873 327C1843 132 1806 -54 1784 -123C1766 -182 1736 -213 1700 -213C1677 -213 1666 -206 1648 -184L1634 -188C1630 -211 1616 -259 1611 -268C1620 -273 1635 -276 1646 -276C1687 -276 1741 -245 1780 -198C1851 -114 1871 -18 1955 383L2059 383C2063 402 2070 425 2076 439L2072 446C2043 439 2044 437 1981 437ZM2678 473L2671 482L2603 465L2593 414C2578 336 2553 268 2522 221C2463 130 2385 59 2345 59C2337 59 2332 68 2332 85C2332 99 2334 112 2339 137L2396 408C2399 424 2401 438 2401 451C2401 470 2392 482 2378 482C2358 482 2320 461 2246 408L2218 388L2225 368L2257 389C2285 407 2296 412 2305 412C2314 412 2322 403 2322 392C2322 388 2321 378 2320 374L2257 77C2255 68 2253 44 2253 30C2253 7 2268 -11 2288 -11C2351 -11 2472 101 2556 239L2519 97C2512 73 2508 46 2508 31C2508 6 2519 -9 2538 -9C2564 -9 2600 12 2698 85L2688 103L2662 86C2638 70 2612 59 2601 59C2593 59 2588 66 2588 76C2588 112 2663 416 2678 473ZM3069 111L3045 94C2992 56 2944 36 2908 36C2861 36 2832 73 2832 133C2832 158 2835 185 2840 214C2857 218 2966 248 2991 259C3076 296 3115 342 3115 404C3115 451 3081 482 3031 482C2963 496 2853 423 2816 349C2786 299 2756 180 2756 113C2756 35 2800 -11 2872 -11C2929 -11 2985 17 3077 92ZM2854 274C2871 343 2891 386 2920 412C2938 428 2969 440 2993 440C3022 440 3041 420 3041 388C3041 344 3006 297 2954 272C2926 258 2890 247 2845 237ZM3497 365C3500 403 3505 435 3513 476C3502 481 3498 482 3493 482C3462 482 3431 458 3395 407C3356 351 3317 291 3301 256L3333 408C3337 425 3339 438 3339 450C3339 470 3331 482 3316 482C3295 482 3257 461 3183 408L3155 388L3162 368L3194 389C3222 407 3233 412 3242 412C3252 412 3259 403 3259 390C3259 332 3216 126 3176 -2L3186 -9C3201 -4 3217 -1 3240 4L3253 6L3279 126C3297 209 3320 262 3364 319C3398 363 3425 384 3447 384C3462 384 3472 379 3483 365ZM3839 -11C3851 -11 3860 -9 3889 -1C3900 61 3908 95 3919 142L3897 142L3875 82C3869 64 3857 57 3836 57C3824 57 3808 59 3787 64L3769 68C3736 75 3702 80 3683 80C3651 80 3624 74 3588 59L3927 441L3933 473L3924 482L3901 459C3891 449 3881 445 3867 445C3833 445 3781 453 3733 466L3715 471C3687 478 3667 482 3653 482C3636 482 3616 479 3592 472L3560 350L3581 350L3611 408C3628 412 3637 413 3650 413C3691 413 3723 398 3776 398C3812 398 3836 404 3869 421L3516 21L3525 -6C3554 17 3581 26 3616 26C3679 26 3770 -11 3839 -11ZM4231 204L4202 77C4198 60 4196 42 4196 26C4196 4 4205 -9 4220 -9C4243 -9 4284 17 4366 85L4359 106C4335 86 4306 59 4284 59C4275 59 4269 68 4269 82C4269 87 4269 90 4270 93L4362 472L4352 481L4319 463C4278 478 4261 482 4234 482C4206 482 4186 477 4159 464C4097 433 4064 403 4039 354C3995 265 3964 145 3964 67C3964 23 3979 -11 3998 -11C4035 -11 4115 41 4231 204ZM4279 414C4257 305 4238 253 4204 201C4147 117 4086 59 4054 59C4042 59 4036 72 4036 99C4036 163 4064 280 4099 360C4123 415 4146 433 4194 433C4217 433 4235 429 4279 414ZM4434 148C4429 97 4423 62 4412 16C4450 -2 4484 -11 4519 -11C4568 -11 4614 7 4665 47C4716 87 4737 124 4737 174C4737 228 4705 257 4631 271L4588 279C4528 290 4509 307 4509 348C4509 401 4554 442 4611 442C4652 442 4690 424 4706 397L4706 342L4729 342C4733 377 4737 404 4748 455C4709 474 4681 482 4648 482C4596 482 4535 452 4487 404C4461 377 4450 352 4450 316C4450 260 4481 228 4547 215L4610 203C4654 195 4670 177 4670 138C4670 73 4624 29 4553 29C4518 29 4487 40 4459 64L4459 148ZM5368 111L5344 94C5291 56 5243 36 5207 36C5160 36 5131 73 5131 133C5131 158 5134 185 5139 214C5156 218 5265 248 5290 259C5375 296 5414 342 5414 404C5414 451 5380 482 5330 482C5262 496 5152 423 5115 349C5085 299 5055 180 5055 113C5055 35 5099 -11 5171 -11C5228 -11 5284 17 5376 92ZM5153 274C5170 343 5190 386 5219 412C5237 428 5268 440 5292 440C5321 440 5340 420 5340 388C5340 344 5305 297 5253 272C5225 258 5189 247 5144 237ZM5437 1C5452 -7 5468 -11 5480 -11C5513 -11 5552 18 5583 65L5659 182L5670 113C5683 28 5706 -11 5742 -11C5764 -11 5796 6 5828 35L5877 79L5868 98C5832 68 5807 53 5791 53C5776 53 5763 63 5753 83C5744 102 5733 139 5728 168L5710 269L5745 318C5792 383 5819 406 5850 406C5866 406 5878 398 5883 383L5897 387L5912 472C5900 479 5891 482 5882 482C5842 482 5802 446 5740 354L5703 299L5697 347C5685 446 5658 482 5599 482C5573 482 5551 474 5542 461L5484 378L5501 368C5531 402 5551 416 5570 416C5603 416 5625 375 5642 277L5653 215L5613 153C5570 86 5536 54 5508 54C5493 54 5482 58 5480 63L5469 91L5449 88C5449 53 5441 27 5437 1ZM6052 390L5996 107C5995 99 5983 61 5983 31C5983 6 5994 -9 6013 -9C6048 -9 6083 11 6161 74L6192 99L6182 117L6137 86C6108 66 6088 56 6077 56C6068 56 6063 64 6063 76C6063 102 6077 183 6106 328L6119 390L6226 390L6237 440C6199 436 6165 434 6127 434C6143 528 6154 577 6172 631L6161 646C6141 634 6114 622 6083 610L6058 440C6014 419 5988 408 5970 403L5968 390ZM6587 111L6563 94C6510 56 6462 36 6426 36C6379 36 6350 73 6350 133C6350 158 6353 185 6358 214C6375 218 6484 248 6509 259C6594 296 6633 342 6633 404C6633 451 6599 482 6549 482C6481 496 6371 423 6334 349C6304 299 6274 180 6274 113C6274 35 6318 -11 6390 -11C6447 -11 6503 17 6595 92ZM6372 274C6389 343 6409 386 6438 412C6456 428 6487 440 6511 440C6540 440 6559 420 6559 388C6559 344 6524 297 6472 272C6444 258 6408 247 6363 237ZM7015 365C7018 403 7023 435 7031 476C7020 481 7016 482 7011 482C6980 482 6949 458 6913 407C6874 351 6835 291 6819 256L6851 408C6855 425 6857 438 6857 450C6857 470 6849 482 6834 482C6813 482 6775 461 6701 408L6673 388L6680 368L6712 389C6740 407 6751 412 6760 412C6770 412 6777 403 6777 390C6777 332 6734 126 6694 -2L6704 -9C6719 -4 6735 -1 6758 4L6771 6L6797 126C6815 209 6838 262 6882 319C6916 363 6943 384 6965 384C6980 384 6990 379 7001 365ZM7059 388L7066 368L7098 389C7135 412 7138 414 7145 414C7156 414 7163 404 7163 389C7163 338 7122 145 7081 2L7088 -9C7113 -2 7136 4 7158 8C7177 134 7198 199 7244 268C7298 352 7373 414 7418 414C7429 414 7435 405 7435 390C7435 372 7432 351 7424 319L7372 107C7363 70 7359 47 7359 31C7359 6 7370 -9 7389 -9C7415 -9 7451 12 7549 85L7539 103L7513 86C7484 67 7462 56 7452 56C7445 56 7439 65 7439 76C7439 81 7440 92 7441 96L7507 372C7514 401 7518 429 7518 446C7518 469 7507 482 7487 482C7445 482 7376 444 7317 389C7279 354 7251 320 7199 247L7237 408C7241 426 7243 438 7243 449C7243 470 7235 482 7220 482C7199 482 7160 460 7087 408ZM7861 204L7832 77C7828 60 7826 42 7826 26C7826 4 7835 -9 7850 -9C7873 -9 7914 17 7996 85L7989 106C7965 86 7936 59 7914 59C7905 59 7899 68 7899 82C7899 87 7899 90 7900 93L7992 472L7982 481L7949 463C7908 478 7891 482 7864 482C7836 482 7816 477 7789 464C7727 433 7694 403 7669 354C7625 265 7594 145 7594 67C7594 23 7609 -11 7628 -11C7665 -11 7745 41 7861 204ZM7909 414C7887 305 7868 253 7834 201C7777 117 7716 59 7684 59C7672 59 7666 72 7666 99C7666 163 7694 280 7729 360C7753 415 7776 433 7824 433C7847 433 7865 429 7909 414ZM8064 148C8059 97 8053 62 8042 16C8080 -2 8114 -11 8149 -11C8198 -11 8244 7 8295 47C8346 87 8367 124 8367 174C8367 228 8335 257 8261 271L8218 279C8158 290 8139 307 8139 348C8139 401 8184 442 8241 442C8282 442 8320 424 8336 397L8336 342L8359 342C8363 377 8367 404 8378 455C8339 474 8311 482 8278 482C8226 482 8165 452 8117 404C8091 377 8080 352 8080 316C8080 260 8111 228 8177 215L8240 203C8284 195 8300 177 8300 138C8300 73 8254 29 8183 29C8148 29 8117 40 8089 64L8089 148Z" stroke="rgb(0,0,0)" stroke-opacity="1" stroke-width="8" fill="rgb(0,0,0)" fill-opacity="1"></path></g></g></g><g><g><g transform="matrix(1,0,0,1,2,38.20000457763672)"><path transform="matrix(0.017,0,0,-0.017,0,0)" d="M730 103L704 86C675 67 653 56 643 56C636 56 630 65 630 76C630 86 632 95 637 116L712 413C716 430 719 446 719 454C719 471 709 482 693 482C664 482 626 464 565 421C502 376 467 341 418 272L448 409C452 429 455 444 455 451C455 470 445 482 429 482C399 482 353 460 298 418C254 384 234 363 169 275L202 408C206 424 208 439 208 451C208 470 199 482 185 482C164 482 126 461 52 408L24 388L31 368C68 391 103 414 110 414C121 414 128 404 128 389C128 338 87 145 46 2L49 -9L117 6L139 108C163 219 190 278 245 338C287 384 332 414 360 414C367 414 371 406 371 393C371 358 349 244 308 69L292 2L297 -9L366 6L387 113C403 194 437 269 481 318C536 379 586 414 618 414C626 414 631 405 631 389C631 365 628 351 606 264C566 105 550 84 550 31C550 6 561 -9 580 -9C606 -9 642 12 740 85Z" stroke="rgb(0,0,0)" stroke-opacity="1" stroke-width="8" fill="rgb(0,0,0)" fill-opacity="1"></path></g></g><g><g><g><g><g transform="matrix(1,0,0,1,15.724990844726562,42.16000213623047)"><path transform="matrix(0.0119,0,0,-0.0119,0,0)" d="M418 -3L418 27L366 30C311 33 301 44 301 96L301 700L60 598L67 548L217 614L217 96C217 44 206 33 152 30L96 27L96 -3C250 0 250 0 261 0C292 0 402 -3 418 -3Z" stroke="rgb(0,0,0)" stroke-opacity="1" stroke-width="8" fill="rgb(0,0,0)" fill-opacity="1"></path></g></g></g></g></g><g><g transform="matrix(1,0,0,1,22.68499755859375,38.20000457763672)"><path transform="matrix(0.017,0,0,-0.017,0,0)" d="M166 420C187 420 203 421 229 424C118 304 76 221 76 121C76 44 122 -11 186 -11C324 -11 477 236 477 384C477 441 451 482 415 482C402 482 390 478 382 470L332 423L343 404C352 410 361 413 370 413C397 413 413 390 413 350C413 202 316 39 228 39C179 39 148 81 148 146C148 251 187 342 285 464L275 482C255 473 242 470 214 470C186 470 144 472 115 475L103 476C97 477 92 477 91 477C79 477 70 475 59 470C45 443 34 407 21 352L43 352L60 394C67 411 87 422 111 422C144 422 128 420 166 420Z" stroke="rgb(0,0,0)" stroke-opacity="1" stroke-width="8" fill="rgb(0,0,0)" fill-opacity="1"></path></g></g><g><g><g><g><g transform="matrix(1,0,0,1,31.68499755859375,42.16000213623047)"><path transform="matrix(0.0119,0,0,-0.0119,0,0)" d="M418 -3L418 27L366 30C311 33 301 44 301 96L301 700L60 598L67 548L217 614L217 96C217 44 206 33 152 30L96 27L96 -3C250 0 250 0 261 0C292 0 402 -3 418 -3ZM533 388L540 368L572 389C609 412 612 414 619 414C629 414 637 404 637 391C637 384 633 361 629 347L563 107C555 76 550 49 550 30C550 6 561 -9 580 -9C606 -9 642 12 740 85L730 103L704 86C675 67 652 56 643 56C636 56 630 66 630 76C630 86 632 95 637 116L714 420C718 437 720 448 720 456C720 473 711 482 695 482C673 482 636 461 561 408ZM727 712C698 712 669 679 669 645C669 620 684 604 708 604C739 604 763 633 763 671C763 695 748 712 727 712Z" stroke="rgb(0,0,0)" stroke-opacity="1" stroke-width="8" fill="rgb(0,0,0)" fill-opacity="1"></path></g></g></g></g></g><g><g transform="matrix(1,0,0,1,47.04499816894531,38.20000457763672)"><path transform="matrix(0.017,0,0,-0.017,0,0)" d="M604 347L604 406L65 406L65 347ZM604 134L604 193L65 193L65 134Z" stroke="rgb(0,0,0)" stroke-opacity="1" stroke-width="8" fill="rgb(0,0,0)" fill-opacity="1"></path></g></g><g><g transform="matrix(1,0,0,1,63.5,38.20000457763672)"><path transform="matrix(0.017,0,0,-0.017,0,0)" d="M730 103L704 86C675 67 653 56 643 56C636 56 630 65 630 76C630 86 632 95 637 116L712 413C716 430 719 446 719 454C719 471 709 482 693 482C664 482 626 464 565 421C502 376 467 341 418 272L448 409C452 429 455 444 455 451C455 470 445 482 429 482C399 482 353 460 298 418C254 384 234 363 169 275L202 408C206 424 208 439 208 451C208 470 199 482 185 482C164 482 126 461 52 408L24 388L31 368C68 391 103 414 110 414C121 414 128 404 128 389C128 338 87 145 46 2L49 -9L117 6L139 108C163 219 190 278 245 338C287 384 332 414 360 414C367 414 371 406 371 393C371 358 349 244 308 69L292 2L297 -9L366 6L387 113C403 194 437 269 481 318C536 379 586 414 618 414C626 414 631 405 631 389C631 365 628 351 606 264C566 105 550 84 550 31C550 6 561 -9 580 -9C606 -9 642 12 740 85Z" stroke="rgb(0,0,0)" stroke-opacity="1" stroke-width="8" fill="rgb(0,0,0)" fill-opacity="1"></path></g></g><g><g><g><g><g transform="matrix(1,0,0,1,77.22500610351562,42.16000213623047)"><path transform="matrix(0.0119,0,0,-0.0119,0,0)" d="M418 -3L418 27L366 30C311 33 301 44 301 96L301 700L60 598L67 548L217 614L217 96C217 44 206 33 152 30L96 27L96 -3C250 0 250 0 261 0C292 0 402 -3 418 -3Z" stroke="rgb(0,0,0)" stroke-opacity="1" stroke-width="8" fill="rgb(0,0,0)" fill-opacity="1"></path></g></g></g></g></g><g><g transform="matrix(1,0,0,1,84.18499755859375,38.20000457763672)"><path transform="matrix(0.017,0,0,-0.017,0,0)" d="M166 420C187 420 203 421 229 424C118 304 76 221 76 121C76 44 122 -11 186 -11C324 -11 477 236 477 384C477 441 451 482 415 482C402 482 390 478 382 470L332 423L343 404C352 410 361 413 370 413C397 413 413 390 413 350C413 202 316 39 228 39C179 39 148 81 148 146C148 251 187 342 285 464L275 482C255 473 242 470 214 470C186 470 144 472 115 475L103 476C97 477 92 477 91 477C79 477 70 475 59 470C45 443 34 407 21 352L43 352L60 394C67 411 87 422 111 422C144 422 128 420 166 420Z" stroke="rgb(0,0,0)" stroke-opacity="1" stroke-width="8" fill="rgb(0,0,0)" fill-opacity="1"></path></g></g><g><g><g><g><g transform="matrix(1,0,0,1,93.18499755859375,42.16000213623047)"><path transform="matrix(0.0119,0,0,-0.0119,0,0)" d="M418 -3L418 27L366 30C311 33 301 44 301 96L301 700L60 598L67 548L217 614L217 96C217 44 206 33 152 30L96 27L96 -3C250 0 250 0 261 0C292 0 402 -3 418 -3ZM844 437L828 437L849 549C865 635 893 673 939 673C969 673 996 658 1011 634L1021 638C1026 654 1036 685 1044 705L1049 720C1033 727 1002 733 979 733C968 733 952 730 944 726C920 715 838 654 815 630C793 608 781 578 770 521L755 442C714 422 694 414 669 405L664 383L745 383L736 327C706 132 669 -54 647 -123C629 -182 599 -213 563 -213C540 -213 529 -206 511 -184L497 -188C493 -211 479 -259 474 -268C483 -273 498 -276 509 -276C550 -276 604 -245 643 -198C714 -114 734 -18 818 383L922 383C926 402 933 425 939 439L935 446C906 439 907 437 844 437Z" stroke="rgb(0,0,0)" stroke-opacity="1" stroke-width="8" fill="rgb(0,0,0)" fill-opacity="1"></path></g></g></g></g></g></g><g></g><g><g><g transform="matrix(1,0,0,1,2,79.9000015258789)"><path transform="matrix(0.017,0,0,-0.017,0,0)" d="M105 664L160 662C184 661 195 653 195 635L112 125C95 34 94 31 54 28L13 25L9 -3L51 -2C92 -1 123 0 141 0C158 0 187 -1 227 -2L280 -3L283 25L218 28C192 29 182 37 182 58C182 67 183 74 186 93L284 648C320 654 336 656 355 656C457 656 506 612 506 519C506 411 434 323 346 323C324 323 304 328 267 342L269 311C306 293 326 288 355 288C484 288 594 405 594 541C594 642 531 695 412 692L108 692ZM627 152C627 46 672 -11 755 -11C810 -11 870 15 915 57C977 116 1021 230 1021 331C1021 425 971 482 888 482C784 482 627 382 627 152ZM851 444C912 444 945 399 945 315C945 219 914 113 870 60C852 39 826 27 795 27C737 27 703 72 703 151C703 264 742 387 791 427C804 438 827 444 851 444ZM1421 365C1424 403 1429 435 1437 476C1426 481 1422 482 1417 482C1386 482 1355 458 1319 407C1280 351 1241 291 1225 256L1257 408C1261 425 1263 438 1263 450C1263 470 1255 482 1240 482C1219 482 1181 461 1107 408L1079 388L1086 368L1118 389C1146 407 1157 412 1166 412C1176 412 1183 403 1183 390C1183 332 1140 126 1100 -2L1110 -9C1125 -4 1141 -1 1164 4L1177 6L1203 126C1221 209 1244 262 1288 319C1322 363 1349 384 1371 384C1386 384 1396 379 1407 365ZM1941 722L1929 733C1877 707 1841 698 1769 691L1765 670L1813 670C1837 670 1847 663 1847 648C1847 645 1847 640 1844 622C1833 567 1760 182 1745 132C1732 82 1726 52 1726 31C1726 6 1737 -9 1756 -9C1782 -9 1818 12 1916 85L1906 103L1880 86C1851 67 1829 56 1819 56C1812 56 1806 66 1806 76C1806 82 1807 89 1810 104ZM1984 152C1984 46 2029 -11 2112 -11C2167 -11 2227 15 2272 57C2334 116 2378 230 2378 331C2378 425 2328 482 2245 482C2141 482 1984 382 1984 152ZM2208 444C2269 444 2302 399 2302 315C2302 219 2271 113 2227 60C2209 39 2183 27 2152 27C2094 27 2060 72 2060 151C2060 264 2099 387 2148 427C2161 438 2184 444 2208 444ZM2784 390L2728 107C2727 99 2715 61 2715 31C2715 6 2726 -9 2745 -9C2780 -9 2815 11 2893 74L2924 99L2914 117L2869 86C2840 66 2820 56 2809 56C2800 56 2795 64 2795 76C2795 102 2809 183 2838 328L2851 390L2958 390L2969 440C2931 436 2897 434 2859 434C2875 528 2886 577 2904 631L2893 646C2873 634 2846 622 2815 610L2790 440C2746 419 2720 408 2702 403L2700 390ZM3262 204L3233 77C3229 60 3227 42 3227 26C3227 4 3236 -9 3251 -9C3274 -9 3315 17 3397 85L3390 106C3366 86 3337 59 3315 59C3306 59 3300 68 3300 82C3300 87 3300 90 3301 93L3393 472L3383 481L3350 463C3309 478 3292 482 3265 482C3237 482 3217 477 3190 464C3128 433 3095 403 3070 354C3026 265 2995 145 2995 67C2995 23 3010 -11 3029 -11C3066 -11 3146 41 3262 204ZM3310 414C3288 305 3269 253 3235 201C3178 117 3117 59 3085 59C3073 59 3067 72 3067 99C3067 163 3095 280 3130 360C3154 415 3177 433 3225 433C3248 433 3266 429 3310 414ZM3458 388L3465 368L3497 389C3534 412 3537 414 3544 414C3555 414 3562 404 3562 389C3562 338 3521 145 3480 2L3487 -9C3512 -2 3535 4 3557 8C3576 134 3597 199 3643 268C3697 352 3772 414 3817 414C3828 414 3834 405 3834 390C3834 372 3831 351 3823 319L3771 107C3762 70 3758 47 3758 31C3758 6 3769 -9 3788 -9C3814 -9 3850 12 3948 85L3938 103L3912 86C3883 67 3861 56 3851 56C3844 56 3838 65 3838 76C3838 81 3839 92 3840 96L3906 372C3913 401 3917 429 3917 446C3917 469 3906 482 3886 482C3844 482 3775 444 3716 389C3678 354 3650 320 3598 247L3636 408C3640 426 3642 438 3642 449C3642 470 3634 482 3619 482C3598 482 3559 460 3486 408ZM4114 390L4058 107C4057 99 4045 61 4045 31C4045 6 4056 -9 4075 -9C4110 -9 4145 11 4223 74L4254 99L4244 117L4199 86C4170 66 4150 56 4139 56C4130 56 4125 64 4125 76C4125 102 4139 183 4168 328L4181 390L4288 390L4299 440C4261 436 4227 434 4189 434C4205 528 4216 577 4234 631L4223 646C4203 634 4176 622 4145 610L4120 440C4076 419 4050 408 4032 403L4030 390ZM4338 152C4338 46 4383 -11 4466 -11C4521 -11 4581 15 4626 57C4688 116 4732 230 4732 331C4732 425 4682 482 4599 482C4495 482 4338 382 4338 152ZM4562 444C4623 444 4656 399 4656 315C4656 219 4625 113 4581 60C4563 39 4537 27 4506 27C4448 27 4414 72 4414 151C4414 264 4453 387 4502 427C4515 438 4538 444 4562 444ZM5341 111L5317 94C5264 56 5216 36 5180 36C5133 36 5104 73 5104 133C5104 158 5107 185 5112 214C5129 218 5238 248 5263 259C5348 296 5387 342 5387 404C5387 451 5353 482 5303 482C5235 496 5125 423 5088 349C5058 299 5028 180 5028 113C5028 35 5072 -11 5144 -11C5201 -11 5257 17 5349 92ZM5126 274C5143 343 5163 386 5192 412C5210 428 5241 440 5265 440C5294 440 5313 420 5313 388C5313 344 5278 297 5226 272C5198 258 5162 247 5117 237ZM5425 388L5432 368L5464 389C5501 412 5504 414 5511 414C5522 414 5529 404 5529 389C5529 338 5488 145 5447 2L5454 -9C5479 -2 5502 4 5524 8C5543 134 5564 199 5610 268C5664 352 5739 414 5784 414C5795 414 5801 405 5801 390C5801 372 5798 351 5790 319L5738 107C5729 70 5725 47 5725 31C5725 6 5736 -9 5755 -9C5781 -9 5817 12 5915 85L5905 103L5879 86C5850 67 5828 56 5818 56C5811 56 5805 65 5805 76C5805 81 5806 92 5807 96L5873 372C5880 401 5884 429 5884 446C5884 469 5873 482 5853 482C5811 482 5742 444 5683 389C5645 354 5617 320 5565 247L5603 408C5607 426 5609 438 5609 449C5609 470 5601 482 5586 482C5565 482 5526 460 5453 408ZM6697 473L6690 482L6622 465L6612 414C6597 336 6572 268 6541 221C6482 130 6404 59 6364 59C6356 59 6351 68 6351 85C6351 99 6353 112 6358 137L6415 408C6418 424 6420 438 6420 451C6420 470 6411 482 6397 482C6377 482 6339 461 6265 408L6237 388L6244 368L6276 389C6304 407 6315 412 6324 412C6333 412 6341 403 6341 392C6341 388 6340 378 6339 374L6276 77C6274 68 6272 44 6272 30C6272 7 6287 -11 6307 -11C6370 -11 6491 101 6575 239L6538 97C6531 73 6527 46 6527 31C6527 6 6538 -9 6557 -9C6583 -9 6619 12 6717 85L6707 103L6681 86C6657 70 6631 59 6620 59C6612 59 6607 66 6607 76C6607 112 6682 416 6697 473ZM6784 388L6791 368L6823 389C6860 412 6863 414 6870 414C6881 414 6888 404 6888 389C6888 338 6847 145 6806 2L6813 -9C6838 -2 6861 4 6883 8C6902 134 6923 199 6969 268C7023 352 7098 414 7143 414C7154 414 7160 405 7160 390C7160 372 7157 351 7149 319L7097 107C7088 70 7084 47 7084 31C7084 6 7095 -9 7114 -9C7140 -9 7176 12 7274 85L7264 103L7238 86C7209 67 7187 56 7177 56C7170 56 7164 65 7164 76C7164 81 7165 92 7166 96L7232 372C7239 401 7243 429 7243 446C7243 469 7232 482 7212 482C7170 482 7101 444 7042 389C7004 354 6976 320 6924 247L6962 408C6966 426 6968 438 6968 449C6968 470 6960 482 6945 482C6924 482 6885 460 6812 408ZM7906 330L7929 330C7937 395 7944 432 7953 458C7929 473 7894 482 7857 482C7812 483 7739 463 7682 400C7628 352 7589 241 7589 136C7589 40 7631 -11 7711 -11C7765 -11 7813 9 7868 54L7918 95L7910 115L7895 105C7823 57 7785 40 7750 40C7694 40 7665 80 7665 159C7665 267 7700 371 7749 409C7770 425 7794 433 7825 433C7870 433 7906 414 7906 390ZM8206 722L8194 733C8149 711 8108 697 8034 691L8030 670L8078 670C8096 670 8112 667 8112 647C8112 641 8112 632 8110 622L8068 388C8048 272 8006 80 7980 2L7987 -9L8056 7C8064 64 8078 164 8118 236C8163 317 8266 414 8308 414C8319 414 8330 407 8330 393C8330 375 8325 342 8315 303L8264 107C8258 85 8251 55 8251 31C8251 6 8261 -9 8282 -9C8314 -9 8382 41 8441 85L8431 103L8405 86C8382 71 8356 56 8344 56C8337 56 8331 65 8331 76C8331 88 8334 101 8338 116L8402 372C8408 398 8413 423 8413 447C8413 464 8407 482 8381 482C8346 482 8269 437 8201 374C8168 343 8142 308 8114 273L8110 275ZM8486 152C8486 46 8531 -11 8614 -11C8669 -11 8729 15 8774 57C8836 116 8880 230 8880 331C8880 425 8830 482 8747 482C8643 482 8486 382 8486 152ZM8710 444C8771 444 8804 399 8804 315C8804 219 8773 113 8729 60C8711 39 8685 27 8654 27C8596 27 8562 72 8562 151C8562 264 8601 387 8650 427C8663 438 8686 444 8710 444ZM9297 458C9254 475 9225 482 9196 482C9121 482 9033 394 9015 374C8975 327 8936 181 8936 78C8936 19 8948 -11 8972 -11C8994 -11 9013 -3 9045 19C9092 51 9171 121 9220 209L9144 -205C9139 -229 9129 -249 9117 -262L9126 -276C9157 -268 9188 -262 9212 -259C9216 -205 9222 -150 9231 -100L9317 356C9328 417 9334 443 9344 474L9330 480ZM9030 59C9016 59 9008 80 9008 113C9008 209 9051 359 9093 409C9105 424 9134 433 9166 433C9194 433 9215 427 9263 406L9242 311C9213 174 9072 59 9030 59ZM9866 473L9859 482L9791 465L9781 414C9766 336 9741 268 9710 221C9651 130 9573 59 9533 59C9525 59 9520 68 9520 85C9520 99 9522 112 9527 137L9584 408C9587 424 9589 438 9589 451C9589 470 9580 482 9566 482C9546 482 9508 461 9434 408L9406 388L9413 368L9445 389C9473 407 9484 412 9493 412C9502 412 9510 403 9510 392C9510 388 9509 378 9508 374L9445 77C9443 68 9441 44 9441 30C9441 7 9456 -11 9476 -11C9539 -11 9660 101 9744 239L9707 97C9700 73 9696 46 9696 31C9696 6 9707 -9 9726 -9C9752 -9 9788 12 9886 85L9876 103L9850 86C9826 70 9800 59 9789 59C9781 59 9776 66 9776 76C9776 112 9851 416 9866 473ZM10257 111L10233 94C10180 56 10132 36 10096 36C10049 36 10020 73 10020 133C10020 158 10023 185 10028 214C10045 218 10154 248 10179 259C10264 296 10303 342 10303 404C10303 451 10269 482 10219 482C10151 496 10041 423 10004 349C9974 299 9944 180 9944 113C9944 35 9988 -11 10060 -11C10117 -11 10173 17 10265 92ZM10042 274C10059 343 10079 386 10108 412C10126 428 10157 440 10181 440C10210 440 10229 420 10229 388C10229 344 10194 297 10142 272C10114 258 10078 247 10033 237ZM10894 111L10870 94C10817 56 10769 36 10733 36C10686 36 10657 73 10657 133C10657 158 10660 185 10665 214C10682 218 10791 248 10816 259C10901 296 10940 342 10940 404C10940 451 10906 482 10856 482C10788 496 10678 423 10641 349C10611 299 10581 180 10581 113C10581 35 10625 -11 10697 -11C10754 -11 10810 17 10902 92ZM10679 274C10696 343 10716 386 10745 412C10763 428 10794 440 10818 440C10847 440 10866 420 10866 388C10866 344 10831 297 10779 272C10751 258 10715 247 10670 237ZM11205 722L11193 733C11141 707 11105 698 11033 691L11029 670L11077 670C11101 670 11111 663 11111 648C11111 645 11111 640 11108 622C11097 567 11024 182 11009 132C10996 82 10990 52 10990 31C10990 6 11001 -9 11020 -9C11046 -9 11082 12 11180 85L11170 103L11144 86C11115 67 11093 56 11083 56C11076 56 11070 66 11070 76C11070 82 11071 89 11074 104ZM11502 204L11473 77C11469 60 11467 42 11467 26C11467 4 11476 -9 11491 -9C11514 -9 11555 17 11637 85L11630 106C11606 86 11577 59 11555 59C11546 59 11540 68 11540 82C11540 87 11540 90 11541 93L11633 472L11623 481L11590 463C11549 478 11532 482 11505 482C11477 482 11457 477 11430 464C11368 433 11335 403 11310 354C11266 265 11235 145 11235 67C11235 23 11250 -11 11269 -11C11306 -11 11386 41 11502 204ZM11550 414C11528 305 11509 253 11475 201C11418 117 11357 59 11325 59C11313 59 11307 72 11307 99C11307 163 11335 280 11370 360C11394 415 11417 433 11465 433C11488 433 11506 429 11550 414ZM11705 148C11700 97 11694 62 11683 16C11721 -2 11755 -11 11790 -11C11839 -11 11885 7 11936 47C11987 87 12008 124 12008 174C12008 228 11976 257 11902 271L11859 279C11799 290 11780 307 11780 348C11780 401 11825 442 11882 442C11923 442 11961 424 11977 397L11977 342L12000 342C12004 377 12008 404 12019 455C11980 474 11952 482 11919 482C11867 482 11806 452 11758 404C11732 377 11721 352 11721 316C11721 260 11752 228 11818 215L11881 203C11925 195 11941 177 11941 138C11941 73 11895 29 11824 29C11789 29 11758 40 11730 64L11730 148ZM12187 390L12131 107C12130 99 12118 61 12118 31C12118 6 12129 -9 12148 -9C12183 -9 12218 11 12296 74L12327 99L12317 117L12272 86C12243 66 12223 56 12212 56C12203 56 12198 64 12198 76C12198 102 12212 183 12241 328L12254 390L12361 390L12372 440C12334 436 12300 434 12262 434C12278 528 12289 577 12307 631L12296 646C12276 634 12249 622 12218 610L12193 440C12149 419 12123 408 12105 403L12103 390ZM12428 388L12435 368L12467 389C12504 412 12507 414 12514 414C12524 414 12532 404 12532 391C12532 384 12528 361 12524 347L12458 107C12450 76 12445 49 12445 30C12445 6 12456 -9 12475 -9C12501 -9 12537 12 12635 85L12625 103L12599 86C12570 67 12547 56 12538 56C12531 56 12525 66 12525 76C12525 86 12527 95 12532 116L12609 420C12613 437 12615 448 12615 456C12615 473 12606 482 12590 482C12568 482 12531 461 12456 408ZM12622 712C12593 712 12564 679 12564 645C12564 620 12579 604 12603 604C12634 604 12658 633 12658 671C12658 695 12643 712 12622 712ZM13013 330L13036 330C13044 395 13051 432 13060 458C13036 473 13001 482 12964 482C12919 483 12846 463 12789 400C12735 352 12696 241 12696 136C12696 40 12738 -11 12818 -11C12872 -11 12920 9 12975 54L13025 95L13017 115L13002 105C12930 57 12892 40 12857 40C12801 40 12772 80 12772 159C12772 267 12807 371 12856 409C12877 425 12901 433 12932 433C12977 433 13013 414 13013 390ZM13094 152C13094 46 13139 -11 13222 -11C13277 -11 13337 15 13382 57C13444 116 13488 230 13488 331C13488 425 13438 482 13355 482C13251 482 13094 382 13094 152ZM13318 444C13379 444 13412 399 13412 315C13412 219 13381 113 13337 60C13319 39 13293 27 13262 27C13204 27 13170 72 13170 151C13170 264 13209 387 13258 427C13271 438 13294 444 13318 444Z" stroke="rgb(0,0,0)" stroke-opacity="1" stroke-width="8" fill="rgb(0,0,0)" fill-opacity="1"></path></g></g></g><g><g><g transform="matrix(1,0,0,1,2,100.06000518798828)"><path transform="matrix(0.017,0,0,-0.017,0,0)" d="M730 103L704 86C675 67 653 56 643 56C636 56 630 65 630 76C630 86 632 95 637 116L712 413C716 430 719 446 719 454C719 471 709 482 693 482C664 482 626 464 565 421C502 376 467 341 418 272L448 409C452 429 455 444 455 451C455 470 445 482 429 482C399 482 353 460 298 418C254 384 234 363 169 275L202 408C206 424 208 439 208 451C208 470 199 482 185 482C164 482 126 461 52 408L24 388L31 368C68 391 103 414 110 414C121 414 128 404 128 389C128 338 87 145 46 2L49 -9L117 6L139 108C163 219 190 278 245 338C287 384 332 414 360 414C367 414 371 406 371 393C371 358 349 244 308 69L292 2L297 -9L366 6L387 113C403 194 437 269 481 318C536 379 586 414 618 414C626 414 631 405 631 389C631 365 628 351 606 264C566 105 550 84 550 31C550 6 561 -9 580 -9C606 -9 642 12 740 85Z" stroke="rgb(0,0,0)" stroke-opacity="1" stroke-width="8" fill="rgb(0,0,0)" fill-opacity="1"></path></g></g><g><g><g><g><g transform="matrix(1,0,0,1,15.724990844726562,104.02000274658204)"><path transform="matrix(0.0119,0,0,-0.0119,0,0)" d="M418 -3L418 27L366 30C311 33 301 44 301 96L301 700L60 598L67 548L217 614L217 96C217 44 206 33 152 30L96 27L96 -3C250 0 250 0 261 0C292 0 402 -3 418 -3Z" stroke="rgb(0,0,0)" stroke-opacity="1" stroke-width="8" fill="rgb(0,0,0)" fill-opacity="1"></path></g></g></g></g></g><g><g transform="matrix(1,0,0,1,22.68499755859375,100.06000518798828)"><path transform="matrix(0.017,0,0,-0.017,0,0)" d="M166 420C187 420 203 421 229 424C118 304 76 221 76 121C76 44 122 -11 186 -11C324 -11 477 236 477 384C477 441 451 482 415 482C402 482 390 478 382 470L332 423L343 404C352 410 361 413 370 413C397 413 413 390 413 350C413 202 316 39 228 39C179 39 148 81 148 146C148 251 187 342 285 464L275 482C255 473 242 470 214 470C186 470 144 472 115 475L103 476C97 477 92 477 91 477C79 477 70 475 59 470C45 443 34 407 21 352L43 352L60 394C67 411 87 422 111 422C144 422 128 420 166 420Z" stroke="rgb(0,0,0)" stroke-opacity="1" stroke-width="8" fill="rgb(0,0,0)" fill-opacity="1"></path></g></g><g><g><g><g><g transform="matrix(1,0,0,1,31.68499755859375,104.02000274658204)"><path transform="matrix(0.0119,0,0,-0.0119,0,0)" d="M418 -3L418 27L366 30C311 33 301 44 301 96L301 700L60 598L67 548L217 614L217 96C217 44 206 33 152 30L96 27L96 -3C250 0 250 0 261 0C292 0 402 -3 418 -3ZM533 388L540 368L572 389C609 412 612 414 619 414C629 414 637 404 637 391C637 384 633 361 629 347L563 107C555 76 550 49 550 30C550 6 561 -9 580 -9C606 -9 642 12 740 85L730 103L704 86C675 67 652 56 643 56C636 56 630 66 630 76C630 86 632 95 637 116L714 420C718 437 720 448 720 456C720 473 711 482 695 482C673 482 636 461 561 408ZM727 712C698 712 669 679 669 645C669 620 684 604 708 604C739 604 763 633 763 671C763 695 748 712 727 712Z" stroke="rgb(0,0,0)" stroke-opacity="1" stroke-width="8" fill="rgb(0,0,0)" fill-opacity="1"></path></g></g></g></g></g><g><g transform="matrix(1,0,0,1,45.33500671386719,100.06000518798828)"><path transform="matrix(0.017,0,0,-0.017,0,0)" d="M604 241L604 300L364 300L364 538L305 538L305 300L65 300L65 241L305 241L305 0L364 0L364 241Z" stroke="rgb(0,0,0)" stroke-opacity="1" stroke-width="8" fill="rgb(0,0,0)" fill-opacity="1"></path></g></g><g><g transform="matrix(1,0,0,1,60.08000183105469,100.06000518798828)"><path transform="matrix(0.017,0,0,-0.017,0,0)" d="M730 103L704 86C675 67 653 56 643 56C636 56 630 65 630 76C630 86 632 95 637 116L712 413C716 430 719 446 719 454C719 471 709 482 693 482C664 482 626 464 565 421C502 376 467 341 418 272L448 409C452 429 455 444 455 451C455 470 445 482 429 482C399 482 353 460 298 418C254 384 234 363 169 275L202 408C206 424 208 439 208 451C208 470 199 482 185 482C164 482 126 461 52 408L24 388L31 368C68 391 103 414 110 414C121 414 128 404 128 389C128 338 87 145 46 2L49 -9L117 6L139 108C163 219 190 278 245 338C287 384 332 414 360 414C367 414 371 406 371 393C371 358 349 244 308 69L292 2L297 -9L366 6L387 113C403 194 437 269 481 318C536 379 586 414 618 414C626 414 631 405 631 389C631 365 628 351 606 264C566 105 550 84 550 31C550 6 561 -9 580 -9C606 -9 642 12 740 85Z" stroke="rgb(0,0,0)" stroke-opacity="1" stroke-width="8" fill="rgb(0,0,0)" fill-opacity="1"></path></g></g><g><g><g><g><g transform="matrix(1,0,0,1,73.80499267578125,104.02000274658204)"><path transform="matrix(0.0119,0,0,-0.0119,0,0)" d="M16 23L16 -3C203 -3 203 0 239 0C275 0 275 -3 468 -3L468 82C353 77 307 81 122 77L304 270C401 373 431 428 431 503C431 618 353 689 226 689C154 689 105 669 56 619L39 483L68 483L81 529C97 587 133 612 200 612C286 612 341 558 341 473C341 398 299 324 186 204Z" stroke="rgb(0,0,0)" stroke-opacity="1" stroke-width="8" fill="rgb(0,0,0)" fill-opacity="1"></path></g></g></g></g></g><g><g transform="matrix(1,0,0,1,80.7650146484375,100.06000518798828)"><path transform="matrix(0.017,0,0,-0.017,0,0)" d="M166 420C187 420 203 421 229 424C118 304 76 221 76 121C76 44 122 -11 186 -11C324 -11 477 236 477 384C477 441 451 482 415 482C402 482 390 478 382 470L332 423L343 404C352 410 361 413 370 413C397 413 413 390 413 350C413 202 316 39 228 39C179 39 148 81 148 146C148 251 187 342 285 464L275 482C255 473 242 470 214 470C186 470 144 472 115 475L103 476C97 477 92 477 91 477C79 477 70 475 59 470C45 443 34 407 21 352L43 352L60 394C67 411 87 422 111 422C144 422 128 420 166 420Z" stroke="rgb(0,0,0)" stroke-opacity="1" stroke-width="8" fill="rgb(0,0,0)" fill-opacity="1"></path></g></g><g><g><g><g><g transform="matrix(1,0,0,1,89.7650146484375,104.02000274658204)"><path transform="matrix(0.0119,0,0,-0.0119,0,0)" d="M16 23L16 -3C203 -3 203 0 239 0C275 0 275 -3 468 -3L468 82C353 77 307 81 122 77L304 270C401 373 431 428 431 503C431 618 353 689 226 689C154 689 105 669 56 619L39 483L68 483L81 529C97 587 133 612 200 612C286 612 341 558 341 473C341 398 299 324 186 204ZM533 388L540 368L572 389C609 412 612 414 619 414C629 414 637 404 637 391C637 384 633 361 629 347L563 107C555 76 550 49 550 30C550 6 561 -9 580 -9C606 -9 642 12 740 85L730 103L704 86C675 67 652 56 643 56C636 56 630 66 630 76C630 86 632 95 637 116L714 420C718 437 720 448 720 456C720 473 711 482 695 482C673 482 636 461 561 408ZM727 712C698 712 669 679 669 645C669 620 684 604 708 604C739 604 763 633 763 671C763 695 748 712 727 712Z" stroke="rgb(0,0,0)" stroke-opacity="1" stroke-width="8" fill="rgb(0,0,0)" fill-opacity="1"></path></g></g></g></g></g><g><g transform="matrix(1,0,0,1,105.125,100.06000518798828)"><path transform="matrix(0.017,0,0,-0.017,0,0)" d="M604 347L604 406L65 406L65 347ZM604 134L604 193L65 193L65 134Z" stroke="rgb(0,0,0)" stroke-opacity="1" stroke-width="8" fill="rgb(0,0,0)" fill-opacity="1"></path></g></g><g><g transform="matrix(1,0,0,1,121.58001708984375,100.06000518798828)"><path transform="matrix(0.017,0,0,-0.017,0,0)" d="M730 103L704 86C675 67 653 56 643 56C636 56 630 65 630 76C630 86 632 95 637 116L712 413C716 430 719 446 719 454C719 471 709 482 693 482C664 482 626 464 565 421C502 376 467 341 418 272L448 409C452 429 455 444 455 451C455 470 445 482 429 482C399 482 353 460 298 418C254 384 234 363 169 275L202 408C206 424 208 439 208 451C208 470 199 482 185 482C164 482 126 461 52 408L24 388L31 368C68 391 103 414 110 414C121 414 128 404 128 389C128 338 87 145 46 2L49 -9L117 6L139 108C163 219 190 278 245 338C287 384 332 414 360 414C367 414 371 406 371 393C371 358 349 244 308 69L292 2L297 -9L366 6L387 113C403 194 437 269 481 318C536 379 586 414 618 414C626 414 631 405 631 389C631 365 628 351 606 264C566 105 550 84 550 31C550 6 561 -9 580 -9C606 -9 642 12 740 85Z" stroke="rgb(0,0,0)" stroke-opacity="1" stroke-width="8" fill="rgb(0,0,0)" fill-opacity="1"></path></g></g><g><g><g><g><g transform="matrix(1,0,0,1,135.30499267578125,104.02000274658204)"><path transform="matrix(0.0119,0,0,-0.0119,0,0)" d="M418 -3L418 27L366 30C311 33 301 44 301 96L301 700L60 598L67 548L217 614L217 96C217 44 206 33 152 30L96 27L96 -3C250 0 250 0 261 0C292 0 402 -3 418 -3Z" stroke="rgb(0,0,0)" stroke-opacity="1" stroke-width="8" fill="rgb(0,0,0)" fill-opacity="1"></path></g></g></g></g></g><g><g transform="matrix(1,0,0,1,142.2650146484375,100.06000518798828)"><path transform="matrix(0.017,0,0,-0.017,0,0)" d="M166 420C187 420 203 421 229 424C118 304 76 221 76 121C76 44 122 -11 186 -11C324 -11 477 236 477 384C477 441 451 482 415 482C402 482 390 478 382 470L332 423L343 404C352 410 361 413 370 413C397 413 413 390 413 350C413 202 316 39 228 39C179 39 148 81 148 146C148 251 187 342 285 464L275 482C255 473 242 470 214 470C186 470 144 472 115 475L103 476C97 477 92 477 91 477C79 477 70 475 59 470C45 443 34 407 21 352L43 352L60 394C67 411 87 422 111 422C144 422 128 420 166 420Z" stroke="rgb(0,0,0)" stroke-opacity="1" stroke-width="8" fill="rgb(0,0,0)" fill-opacity="1"></path></g></g><g><g><g><g><g transform="matrix(1,0,0,1,151.2650146484375,104.02000274658204)"><path transform="matrix(0.0119,0,0,-0.0119,0,0)" d="M418 -3L418 27L366 30C311 33 301 44 301 96L301 700L60 598L67 548L217 614L217 96C217 44 206 33 152 30L96 27L96 -3C250 0 250 0 261 0C292 0 402 -3 418 -3ZM844 437L828 437L849 549C865 635 893 673 939 673C969 673 996 658 1011 634L1021 638C1026 654 1036 685 1044 705L1049 720C1033 727 1002 733 979 733C968 733 952 730 944 726C920 715 838 654 815 630C793 608 781 578 770 521L755 442C714 422 694 414 669 405L664 383L745 383L736 327C706 132 669 -54 647 -123C629 -182 599 -213 563 -213C540 -213 529 -206 511 -184L497 -188C493 -211 479 -259 474 -268C483 -273 498 -276 509 -276C550 -276 604 -245 643 -198C714 -114 734 -18 818 383L922 383C926 402 933 425 939 439L935 446C906 439 907 437 844 437Z" stroke="rgb(0,0,0)" stroke-opacity="1" stroke-width="8" fill="rgb(0,0,0)" fill-opacity="1"></path></g></g></g></g></g><g><g transform="matrix(1,0,0,1,168.15499877929688,100.06000518798828)"><path transform="matrix(0.017,0,0,-0.017,0,0)" d="M604 241L604 300L364 300L364 538L305 538L305 300L65 300L65 241L305 241L305 0L364 0L364 241Z" stroke="rgb(0,0,0)" stroke-opacity="1" stroke-width="8" fill="rgb(0,0,0)" fill-opacity="1"></path></g></g><g><g transform="matrix(1,0,0,1,182.89999389648438,100.06000518798828)"><path transform="matrix(0.017,0,0,-0.017,0,0)" d="M730 103L704 86C675 67 653 56 643 56C636 56 630 65 630 76C630 86 632 95 637 116L712 413C716 430 719 446 719 454C719 471 709 482 693 482C664 482 626 464 565 421C502 376 467 341 418 272L448 409C452 429 455 444 455 451C455 470 445 482 429 482C399 482 353 460 298 418C254 384 234 363 169 275L202 408C206 424 208 439 208 451C208 470 199 482 185 482C164 482 126 461 52 408L24 388L31 368C68 391 103 414 110 414C121 414 128 404 128 389C128 338 87 145 46 2L49 -9L117 6L139 108C163 219 190 278 245 338C287 384 332 414 360 414C367 414 371 406 371 393C371 358 349 244 308 69L292 2L297 -9L366 6L387 113C403 194 437 269 481 318C536 379 586 414 618 414C626 414 631 405 631 389C631 365 628 351 606 264C566 105 550 84 550 31C550 6 561 -9 580 -9C606 -9 642 12 740 85Z" stroke="rgb(0,0,0)" stroke-opacity="1" stroke-width="8" fill="rgb(0,0,0)" fill-opacity="1"></path></g></g><g><g><g><g><g transform="matrix(1,0,0,1,196.625,104.02000274658204)"><path transform="matrix(0.0119,0,0,-0.0119,0,0)" d="M16 23L16 -3C203 -3 203 0 239 0C275 0 275 -3 468 -3L468 82C353 77 307 81 122 77L304 270C401 373 431 428 431 503C431 618 353 689 226 689C154 689 105 669 56 619L39 483L68 483L81 529C97 587 133 612 200 612C286 612 341 558 341 473C341 398 299 324 186 204Z" stroke="rgb(0,0,0)" stroke-opacity="1" stroke-width="8" fill="rgb(0,0,0)" fill-opacity="1"></path></g></g></g></g></g><g><g transform="matrix(1,0,0,1,203.58499145507812,100.06000518798828)"><path transform="matrix(0.017,0,0,-0.017,0,0)" d="M166 420C187 420 203 421 229 424C118 304 76 221 76 121C76 44 122 -11 186 -11C324 -11 477 236 477 384C477 441 451 482 415 482C402 482 390 478 382 470L332 423L343 404C352 410 361 413 370 413C397 413 413 390 413 350C413 202 316 39 228 39C179 39 148 81 148 146C148 251 187 342 285 464L275 482C255 473 242 470 214 470C186 470 144 472 115 475L103 476C97 477 92 477 91 477C79 477 70 475 59 470C45 443 34 407 21 352L43 352L60 394C67 411 87 422 111 422C144 422 128 420 166 420Z" stroke="rgb(0,0,0)" stroke-opacity="1" stroke-width="8" fill="rgb(0,0,0)" fill-opacity="1"></path></g></g><g><g><g><g><g transform="matrix(1,0,0,1,212.58499145507812,104.02000274658204)"><path transform="matrix(0.0119,0,0,-0.0119,0,0)" d="M16 23L16 -3C203 -3 203 0 239 0C275 0 275 -3 468 -3L468 82C353 77 307 81 122 77L304 270C401 373 431 428 431 503C431 618 353 689 226 689C154 689 105 669 56 619L39 483L68 483L81 529C97 587 133 612 200 612C286 612 341 558 341 473C341 398 299 324 186 204ZM844 437L828 437L849 549C865 635 893 673 939 673C969 673 996 658 1011 634L1021 638C1026 654 1036 685 1044 705L1049 720C1033 727 1002 733 979 733C968 733 952 730 944 726C920 715 838 654 815 630C793 608 781 578 770 521L755 442C714 422 694 414 669 405L664 383L745 383L736 327C706 132 669 -54 647 -123C629 -182 599 -213 563 -213C540 -213 529 -206 511 -184L497 -188C493 -211 479 -259 474 -268C483 -273 498 -276 509 -276C550 -276 604 -245 643 -198C714 -114 734 -18 818 383L922 383C926 402 933 425 939 439L935 446C906 439 907 437 844 437Z" stroke="rgb(0,0,0)" stroke-opacity="1" stroke-width="8" fill="rgb(0,0,0)" fill-opacity="1"></path></g></g></g></g></g></g><g></g><g><g><g transform="matrix(1,0,0,1,2,141.76000213623047)"><path transform="matrix(0.017,0,0,-0.017,0,0)" d="M390 646L463 646C541 646 577 641 580 629C583 621 585 602 584 592L580 528L608 528L635 692L544 691C456 690 388 689 353 689C316 689 252 690 166 691L71 692L53 528L82 528L97 588C102 610 109 626 115 633C121 640 159 646 196 646L308 646L222 125C206 34 204 31 164 28L113 25L109 -3L166 -2C206 -1 235 0 251 0C270 0 301 -1 340 -2L384 -3L387 25L328 28C302 29 292 37 292 58C292 67 293 74 296 93ZM627 152C627 46 672 -11 755 -11C810 -11 870 15 915 57C977 116 1021 230 1021 331C1021 425 971 482 888 482C784 482 627 382 627 152ZM851 444C912 444 945 399 945 315C945 219 914 113 870 60C852 39 826 27 795 27C737 27 703 72 703 151C703 264 742 387 791 427C804 438 827 444 851 444ZM1783 103L1757 86C1728 67 1706 56 1696 56C1689 56 1683 65 1683 76C1683 86 1685 95 1690 116L1765 413C1769 430 1772 446 1772 454C1772 471 1762 482 1746 482C1717 482 1679 464 1618 421C1555 376 1520 341 1471 272L1501 409C1505 429 1508 444 1508 451C1508 470 1498 482 1482 482C1452 482 1406 460 1351 418C1307 384 1287 363 1222 275L1255 408C1259 424 1261 439 1261 451C1261 470 1252 482 1238 482C1217 482 1179 461 1105 408L1077 388L1084 368C1121 391 1156 414 1163 414C1174 414 1181 404 1181 389C1181 338 1140 145 1099 2L1102 -9L1170 6L1192 108C1216 219 1243 278 1298 338C1340 384 1385 414 1413 414C1420 414 1424 406 1424 393C1424 358 1402 244 1361 69L1345 2L1350 -9L1419 6L1440 113C1456 194 1490 269 1534 318C1589 379 1639 414 1671 414C1679 414 1684 405 1684 389C1684 365 1681 351 1659 264C1619 105 1603 84 1603 31C1603 6 1614 -9 1633 -9C1659 -9 1695 12 1793 85ZM2101 204L2072 77C2068 60 2066 42 2066 26C2066 4 2075 -9 2090 -9C2113 -9 2154 17 2236 85L2229 106C2205 86 2176 59 2154 59C2145 59 2139 68 2139 82C2139 87 2139 90 2140 93L2232 472L2222 481L2189 463C2148 478 2131 482 2104 482C2076 482 2056 477 2029 464C1967 433 1934 403 1909 354C1865 265 1834 145 1834 67C1834 23 1849 -11 1868 -11C1905 -11 1985 41 2101 204ZM2149 414C2127 305 2108 253 2074 201C2017 117 1956 59 1924 59C1912 59 1906 72 1906 99C1906 163 1934 280 1969 360C1993 415 2016 433 2064 433C2087 433 2105 429 2149 414ZM2641 365C2644 403 2649 435 2657 476C2646 481 2642 482 2637 482C2606 482 2575 458 2539 407C2500 351 2461 291 2445 256L2477 408C2481 425 2483 438 2483 450C2483 470 2475 482 2460 482C2439 482 2401 461 2327 408L2299 388L2306 368L2338 389C2366 407 2377 412 2386 412C2396 412 2403 403 2403 390C2403 332 2360 126 2320 -2L2330 -9C2345 -4 2361 -1 2384 4L2397 6L2423 126C2441 209 2464 262 2508 319C2542 363 2569 384 2591 384C2606 384 2616 379 2627 365ZM3238 111L3214 94C3161 56 3113 36 3077 36C3030 36 3001 73 3001 133C3001 158 3004 185 3009 214C3026 218 3135 248 3160 259C3245 296 3284 342 3284 404C3284 451 3250 482 3200 482C3132 496 3022 423 2985 349C2955 299 2925 180 2925 113C2925 35 2969 -11 3041 -11C3098 -11 3154 17 3246 92ZM3023 274C3040 343 3060 386 3089 412C3107 428 3138 440 3162 440C3191 440 3210 420 3210 388C3210 344 3175 297 3123 272C3095 258 3059 247 3014 237ZM3322 388L3329 368L3361 389C3398 412 3401 414 3408 414C3419 414 3426 404 3426 389C3426 338 3385 145 3344 2L3351 -9C3376 -2 3399 4 3421 8C3440 134 3461 199 3507 268C3561 352 3636 414 3681 414C3692 414 3698 405 3698 390C3698 372 3695 351 3687 319L3635 107C3626 70 3622 47 3622 31C3622 6 3633 -9 3652 -9C3678 -9 3714 12 3812 85L3802 103L3776 86C3747 67 3725 56 3715 56C3708 56 3702 65 3702 76C3702 81 3703 92 3704 96L3770 372C3777 401 3781 429 3781 446C3781 469 3770 482 3750 482C3708 482 3639 444 3580 389C3542 354 3514 320 3462 247L3500 408C3504 426 3506 438 3506 449C3506 470 3498 482 3483 482C3462 482 3423 460 3350 408ZM4444 330L4467 330C4475 395 4482 432 4491 458C4467 473 4432 482 4395 482C4350 483 4277 463 4220 400C4166 352 4127 241 4127 136C4127 40 4169 -11 4249 -11C4303 -11 4351 9 4406 54L4456 95L4448 115L4433 105C4361 57 4323 40 4288 40C4232 40 4203 80 4203 159C4203 267 4238 371 4287 409C4308 425 4332 433 4363 433C4408 433 4444 414 4444 390ZM5000 473L4993 482L4925 465L4915 414C4900 336 4875 268 4844 221C4785 130 4707 59 4667 59C4659 59 4654 68 4654 85C4654 99 4656 112 4661 137L4718 408C4721 424 4723 438 4723 451C4723 470 4714 482 4700 482C4680 482 4642 461 4568 408L4540 388L4547 368L4579 389C4607 407 4618 412 4627 412C4636 412 4644 403 4644 392C4644 388 4643 378 4642 374L4579 77C4577 68 4575 44 4575 30C4575 7 4590 -11 4610 -11C4673 -11 4794 101 4878 239L4841 97C4834 73 4830 46 4830 31C4830 6 4841 -9 4860 -9C4886 -9 4922 12 5020 85L5010 103L4984 86C4960 70 4934 59 4923 59C4915 59 4910 66 4910 76C4910 112 4985 416 5000 473ZM5391 111L5367 94C5314 56 5266 36 5230 36C5183 36 5154 73 5154 133C5154 158 5157 185 5162 214C5179 218 5288 248 5313 259C5398 296 5437 342 5437 404C5437 451 5403 482 5353 482C5285 496 5175 423 5138 349C5108 299 5078 180 5078 113C5078 35 5122 -11 5194 -11C5251 -11 5307 17 5399 92ZM5176 274C5193 343 5213 386 5242 412C5260 428 5291 440 5315 440C5344 440 5363 420 5363 388C5363 344 5328 297 5276 272C5248 258 5212 247 5167 237ZM5475 388L5482 368L5514 389C5551 412 5554 414 5561 414C5572 414 5579 404 5579 389C5579 338 5538 145 5497 2L5504 -9C5529 -2 5552 4 5574 8C5593 134 5614 199 5660 268C5714 352 5789 414 5834 414C5845 414 5851 405 5851 390C5851 372 5848 351 5840 319L5788 107C5779 70 5775 47 5775 31C5775 6 5786 -9 5805 -9C5831 -9 5867 12 5965 85L5955 103L5929 86C5900 67 5878 56 5868 56C5861 56 5855 65 5855 76C5855 81 5856 92 5857 96L5923 372C5930 401 5934 429 5934 446C5934 469 5923 482 5903 482C5861 482 5792 444 5733 389C5695 354 5667 320 5615 247L5653 408C5657 426 5659 438 5659 449C5659 470 5651 482 5636 482C5615 482 5576 460 5503 408ZM6131 390L6075 107C6074 99 6062 61 6062 31C6062 6 6073 -9 6092 -9C6127 -9 6162 11 6240 74L6271 99L6261 117L6216 86C6187 66 6167 56 6156 56C6147 56 6142 64 6142 76C6142 102 6156 183 6185 328L6198 390L6305 390L6316 440C6278 436 6244 434 6206 434C6222 528 6233 577 6251 631L6240 646C6220 634 6193 622 6162 610L6137 440C6093 419 6067 408 6049 403L6047 390ZM6609 204L6580 77C6576 60 6574 42 6574 26C6574 4 6583 -9 6598 -9C6621 -9 6662 17 6744 85L6737 106C6713 86 6684 59 6662 59C6653 59 6647 68 6647 82C6647 87 6647 90 6648 93L6740 472L6730 481L6697 463C6656 478 6639 482 6612 482C6584 482 6564 477 6537 464C6475 433 6442 403 6417 354C6373 265 6342 145 6342 67C6342 23 6357 -11 6376 -11C6413 -11 6493 41 6609 204ZM6657 414C6635 305 6616 253 6582 201C6525 117 6464 59 6432 59C6420 59 6414 72 6414 99C6414 163 6442 280 6477 360C6501 415 6524 433 6572 433C6595 433 6613 429 6657 414ZM7415 458C7372 475 7343 482 7314 482C7239 482 7151 394 7133 374C7093 327 7054 181 7054 78C7054 19 7066 -11 7090 -11C7112 -11 7131 -3 7163 19C7210 51 7289 121 7338 209L7262 -205C7257 -229 7247 -249 7235 -262L7244 -276C7275 -268 7306 -262 7330 -259C7334 -205 7340 -150 7349 -100L7435 356C7446 417 7452 443 7462 474L7448 480ZM7148 59C7134 59 7126 80 7126 113C7126 209 7169 359 7211 409C7223 424 7252 433 7284 433C7312 433 7333 427 7381 406L7360 311C7331 174 7190 59 7148 59ZM7984 473L7977 482L7909 465L7899 414C7884 336 7859 268 7828 221C7769 130 7691 59 7651 59C7643 59 7638 68 7638 85C7638 99 7640 112 7645 137L7702 408C7705 424 7707 438 7707 451C7707 470 7698 482 7684 482C7664 482 7626 461 7552 408L7524 388L7531 368L7563 389C7591 407 7602 412 7611 412C7620 412 7628 403 7628 392C7628 388 7627 378 7626 374L7563 77C7561 68 7559 44 7559 30C7559 7 7574 -11 7594 -11C7657 -11 7778 101 7862 239L7825 97C7818 73 7814 46 7814 31C7814 6 7825 -9 7844 -9C7870 -9 7906 12 8004 85L7994 103L7968 86C7944 70 7918 59 7907 59C7899 59 7894 66 7894 76C7894 112 7969 416 7984 473ZM8375 111L8351 94C8298 56 8250 36 8214 36C8167 36 8138 73 8138 133C8138 158 8141 185 8146 214C8163 218 8272 248 8297 259C8382 296 8421 342 8421 404C8421 451 8387 482 8337 482C8269 496 8159 423 8122 349C8092 299 8062 180 8062 113C8062 35 8106 -11 8178 -11C8235 -11 8291 17 8383 92ZM8160 274C8177 343 8197 386 8226 412C8244 428 8275 440 8299 440C8328 440 8347 420 8347 388C8347 344 8312 297 8260 272C8232 258 8196 247 8151 237ZM8715 148C8710 97 8704 62 8693 16C8731 -2 8765 -11 8800 -11C8849 -11 8895 7 8946 47C8997 87 9018 124 9018 174C9018 228 8986 257 8912 271L8869 279C8809 290 8790 307 8790 348C8790 401 8835 442 8892 442C8933 442 8971 424 8987 397L8987 342L9010 342C9014 377 9018 404 9029 455C8990 474 8962 482 8929 482C8877 482 8816 452 8768 404C8742 377 8731 352 8731 316C8731 260 8762 228 8828 215L8891 203C8935 195 8951 177 8951 138C8951 73 8905 29 8834 29C8799 29 8768 40 8740 64L8740 148ZM9106 388L9113 368L9145 389C9182 412 9185 414 9192 414C9202 414 9210 404 9210 391C9210 384 9206 361 9202 347L9136 107C9128 76 9123 49 9123 30C9123 6 9134 -9 9153 -9C9179 -9 9215 12 9313 85L9303 103L9277 86C9248 67 9225 56 9216 56C9209 56 9203 66 9203 76C9203 86 9205 95 9210 116L9287 420C9291 437 9293 448 9293 456C9293 473 9284 482 9268 482C9246 482 9209 461 9134 408ZM9300 712C9271 712 9242 679 9242 645C9242 620 9257 604 9281 604C9312 604 9336 633 9336 671C9336 695 9321 712 9300 712ZM9764 420C9785 420 9801 421 9827 424C9716 304 9674 221 9674 121C9674 44 9720 -11 9784 -11C9922 -11 10075 236 10075 384C10075 441 10049 482 10013 482C10000 482 9988 478 9980 470L9930 423L9941 404C9950 410 9959 413 9968 413C9995 413 10011 390 10011 350C10011 202 9914 39 9826 39C9777 39 9746 81 9746 146C9746 251 9785 342 9883 464L9873 482C9853 473 9840 470 9812 470C9784 470 9742 472 9713 475L9701 476C9695 477 9690 477 9689 477C9677 477 9668 475 9657 470C9643 443 9632 407 9619 352L9641 352L9658 394C9665 411 9685 422 9709 422C9742 422 9726 420 9764 420ZM10368 204L10339 77C10335 60 10333 42 10333 26C10333 4 10342 -9 10357 -9C10380 -9 10421 17 10503 85L10496 106C10472 86 10443 59 10421 59C10412 59 10406 68 10406 82C10406 87 10406 90 10407 93L10499 472L10489 481L10456 463C10415 478 10398 482 10371 482C10343 482 10323 477 10296 464C10234 433 10201 403 10176 354C10132 265 10101 145 10101 67C10101 23 10116 -11 10135 -11C10172 -11 10252 41 10368 204ZM10416 414C10394 305 10375 253 10341 201C10284 117 10223 59 10191 59C10179 59 10173 72 10173 99C10173 163 10201 280 10236 360C10260 415 10283 433 10331 433C10354 433 10372 429 10416 414ZM10564 388L10571 368L10603 389C10640 412 10643 414 10650 414C10661 414 10668 404 10668 389C10668 338 10627 145 10586 2L10593 -9C10618 -2 10641 4 10663 8C10682 134 10703 199 10749 268C10803 352 10878 414 10923 414C10934 414 10940 405 10940 390C10940 372 10937 351 10929 319L10877 107C10868 70 10864 47 10864 31C10864 6 10875 -9 10894 -9C10920 -9 10956 12 11054 85L11044 103L11018 86C10989 67 10967 56 10957 56C10950 56 10944 65 10944 76C10944 81 10945 92 10946 96L11012 372C11019 401 11023 429 11023 446C11023 469 11012 482 10992 482C10950 482 10881 444 10822 389C10784 354 10756 320 10704 247L10742 408C10746 426 10748 438 10748 449C10748 470 10740 482 10725 482C10704 482 10665 460 10592 408ZM11672 111L11648 94C11595 56 11547 36 11511 36C11464 36 11435 73 11435 133C11435 158 11438 185 11443 214C11460 218 11569 248 11594 259C11679 296 11718 342 11718 404C11718 451 11684 482 11634 482C11566 496 11456 423 11419 349C11389 299 11359 180 11359 113C11359 35 11403 -11 11475 -11C11532 -11 11588 17 11680 92ZM11457 274C11474 343 11494 386 11523 412C11541 428 11572 440 11596 440C11625 440 11644 420 11644 388C11644 344 11609 297 11557 272C11529 258 11493 247 11448 237ZM11756 388L11763 368L11795 389C11832 412 11835 414 11842 414C11853 414 11860 404 11860 389C11860 338 11819 145 11778 2L11785 -9C11810 -2 11833 4 11855 8C11874 134 11895 199 11941 268C11995 352 12070 414 12115 414C12126 414 12132 405 12132 390C12132 372 12129 351 12121 319L12069 107C12060 70 12056 47 12056 31C12056 6 12067 -9 12086 -9C12112 -9 12148 12 12246 85L12236 103L12210 86C12181 67 12159 56 12149 56C12142 56 12136 65 12136 76C12136 81 12137 92 12138 96L12204 372C12211 401 12215 429 12215 446C12215 469 12204 482 12184 482C12142 482 12073 444 12014 389C11976 354 11948 320 11896 247L11934 408C11938 426 11940 438 11940 449C11940 470 11932 482 11917 482C11896 482 11857 460 11784 408Z" stroke="rgb(0,0,0)" stroke-opacity="1" stroke-width="8" fill="rgb(0,0,0)" fill-opacity="1"></path></g></g></g><g><g><g transform="matrix(1,0,0,1,2,161.92000579833984)"><path transform="matrix(0.017,0,0,-0.017,0,0)" d="M31 148C26 97 20 62 9 16C47 -2 81 -11 116 -11C165 -11 211 7 262 47C313 87 334 124 334 174C334 228 302 257 228 271L185 279C125 290 106 307 106 348C106 401 151 442 208 442C249 442 287 424 303 397L303 342L326 342C330 377 334 404 345 455C306 474 278 482 245 482C193 482 132 452 84 404C58 377 47 352 47 316C47 260 78 228 144 215L207 203C251 195 267 177 267 138C267 73 221 29 150 29C115 29 84 40 56 64L56 148ZM716 111L692 94C639 56 591 36 555 36C508 36 479 73 479 133C479 158 482 185 487 214C504 218 613 248 638 259C723 296 762 342 762 404C762 451 728 482 678 482C610 496 500 423 463 349C433 299 403 180 403 113C403 35 447 -11 519 -11C576 -11 632 17 724 92ZM501 274C518 343 538 386 567 412C585 428 616 440 640 440C669 440 688 420 688 388C688 344 653 297 601 272C573 258 537 247 492 237ZM800 388L807 368L839 389C876 412 879 414 886 414C897 414 904 404 904 389C904 338 863 145 822 2L829 -9C854 -2 877 4 899 8C918 134 939 199 985 268C1039 352 1114 414 1159 414C1170 414 1176 405 1176 390C1176 372 1173 351 1165 319L1113 107C1104 70 1100 47 1100 31C1100 6 1111 -9 1130 -9C1156 -9 1192 12 1290 85L1280 103L1254 86C1225 67 1203 56 1193 56C1186 56 1180 65 1180 76C1180 81 1181 92 1182 96L1248 372C1255 401 1259 429 1259 446C1259 469 1248 482 1228 482C1186 482 1117 444 1058 389C1020 354 992 320 940 247L978 408C982 426 984 438 984 449C984 470 976 482 961 482C940 482 901 460 828 408ZM1456 390L1400 107C1399 99 1387 61 1387 31C1387 6 1398 -9 1417 -9C1452 -9 1487 11 1565 74L1596 99L1586 117L1541 86C1512 66 1492 56 1481 56C1472 56 1467 64 1467 76C1467 102 1481 183 1510 328L1523 390L1630 390L1641 440C1603 436 1569 434 1531 434C1547 528 1558 577 1576 631L1565 646C1545 634 1518 622 1487 610L1462 440C1418 419 1392 408 1374 403L1372 390ZM1697 388L1704 368L1736 389C1773 412 1776 414 1783 414C1793 414 1801 404 1801 391C1801 384 1797 361 1793 347L1727 107C1719 76 1714 49 1714 30C1714 6 1725 -9 1744 -9C1770 -9 1806 12 1904 85L1894 103L1868 86C1839 67 1816 56 1807 56C1800 56 1794 66 1794 76C1794 86 1796 95 1801 116L1878 420C1882 437 1884 448 1884 456C1884 473 1875 482 1859 482C1837 482 1800 461 1725 408ZM1891 712C1862 712 1833 679 1833 645C1833 620 1848 604 1872 604C1903 604 1927 633 1927 671C1927 695 1912 712 1891 712ZM2423 722L2411 733C2359 707 2323 698 2251 691L2247 670L2295 670C2319 670 2329 663 2329 646C2329 638 2328 629 2327 622L2299 468C2269 477 2242 482 2217 482C2148 482 2054 410 2008 323C1977 265 1957 170 1957 86C1957 21 1972 -11 2001 -11C2028 -11 2065 6 2099 33C2153 77 2186 116 2253 217L2230 126C2219 82 2214 50 2214 24C2214 3 2223 -9 2240 -9C2257 -9 2281 3 2315 28L2396 88L2386 107L2342 76C2328 66 2312 59 2303 59C2295 59 2289 68 2289 82C2289 90 2290 99 2297 128ZM2054 59C2038 59 2029 73 2029 98C2029 224 2075 380 2124 418C2137 428 2156 433 2183 433C2227 433 2256 427 2289 410L2277 351C2240 171 2099 59 2054 59ZM2456 152C2456 46 2501 -11 2584 -11C2639 -11 2699 15 2744 57C2806 116 2850 230 2850 331C2850 425 2800 482 2717 482C2613 482 2456 382 2456 152ZM2680 444C2741 444 2774 399 2774 315C2774 219 2743 113 2699 60C2681 39 2655 27 2624 27C2566 27 2532 72 2532 151C2532 264 2571 387 2620 427C2633 438 2656 444 2680 444ZM3473 330L3496 330C3504 395 3511 432 3520 458C3496 473 3461 482 3424 482C3379 483 3306 463 3249 400C3195 352 3156 241 3156 136C3156 40 3198 -11 3278 -11C3332 -11 3380 9 3435 54L3485 95L3477 115L3462 105C3390 57 3352 40 3317 40C3261 40 3232 80 3232 159C3232 267 3267 371 3316 409C3337 425 3361 433 3392 433C3437 433 3473 414 3473 390ZM3554 152C3554 46 3599 -11 3682 -11C3737 -11 3797 15 3842 57C3904 116 3948 230 3948 331C3948 425 3898 482 3815 482C3711 482 3554 382 3554 152ZM3778 444C3839 444 3872 399 3872 315C3872 219 3841 113 3797 60C3779 39 3753 27 3722 27C3664 27 3630 72 3630 151C3630 264 3669 387 3718 427C3731 438 3754 444 3778 444ZM4004 388L4011 368L4043 389C4080 412 4083 414 4090 414C4101 414 4108 404 4108 389C4108 338 4067 145 4026 2L4033 -9C4058 -2 4081 4 4103 8C4122 134 4143 199 4189 268C4243 352 4318 414 4363 414C4374 414 4380 405 4380 390C4380 372 4377 351 4369 319L4317 107C4308 70 4304 47 4304 31C4304 6 4315 -9 4334 -9C4360 -9 4396 12 4494 85L4484 103L4458 86C4429 67 4407 56 4397 56C4390 56 4384 65 4384 76C4384 81 4385 92 4386 96L4452 372C4459 401 4463 429 4463 446C4463 469 4452 482 4432 482C4390 482 4321 444 4262 389C4224 354 4196 320 4144 247L4182 408C4186 426 4188 438 4188 449C4188 470 4180 482 4165 482C4144 482 4105 460 4032 408ZM4660 390L4604 107C4603 99 4591 61 4591 31C4591 6 4602 -9 4621 -9C4656 -9 4691 11 4769 74L4800 99L4790 117L4745 86C4716 66 4696 56 4685 56C4676 56 4671 64 4671 76C4671 102 4685 183 4714 328L4727 390L4834 390L4845 440C4807 436 4773 434 4735 434C4751 528 4762 577 4780 631L4769 646C4749 634 4722 622 4691 610L4666 440C4622 419 4596 408 4578 403L4576 390ZM5235 365C5238 403 5243 435 5251 476C5240 481 5236 482 5231 482C5200 482 5169 458 5133 407C5094 351 5055 291 5039 256L5071 408C5075 425 5077 438 5077 450C5077 470 5069 482 5054 482C5033 482 4995 461 4921 408L4893 388L4900 368L4932 389C4960 407 4971 412 4980 412C4990 412 4997 403 4997 390C4997 332 4954 126 4914 -2L4924 -9C4939 -4 4955 -1 4978 4L4991 6L5017 126C5035 209 5058 262 5102 319C5136 363 5163 384 5185 384C5200 384 5210 379 5221 365ZM5526 204L5497 77C5493 60 5491 42 5491 26C5491 4 5500 -9 5515 -9C5538 -9 5579 17 5661 85L5654 106C5630 86 5601 59 5579 59C5570 59 5564 68 5564 82C5564 87 5564 90 5565 93L5657 472L5647 481L5614 463C5573 478 5556 482 5529 482C5501 482 5481 477 5454 464C5392 433 5359 403 5334 354C5290 265 5259 145 5259 67C5259 23 5274 -11 5293 -11C5330 -11 5410 41 5526 204ZM5574 414C5552 305 5533 253 5499 201C5442 117 5381 59 5349 59C5337 59 5331 72 5331 99C5331 163 5359 280 5394 360C5418 415 5441 433 5489 433C5512 433 5530 429 5574 414ZM6066 365C6069 403 6074 435 6082 476C6071 481 6067 482 6062 482C6031 482 6000 458 5964 407C5925 351 5886 291 5870 256L5902 408C5906 425 5908 438 5908 450C5908 470 5900 482 5885 482C5864 482 5826 461 5752 408L5724 388L5731 368L5763 389C5791 407 5802 412 5811 412C5821 412 5828 403 5828 390C5828 332 5785 126 5745 -2L5755 -9C5770 -4 5786 -1 5809 4L5822 6L5848 126C5866 209 5889 262 5933 319C5967 363 5994 384 6016 384C6031 384 6041 379 6052 365ZM6120 388L6127 368L6159 389C6196 412 6199 414 6206 414C6216 414 6224 404 6224 391C6224 384 6220 361 6216 347L6150 107C6142 76 6137 49 6137 30C6137 6 6148 -9 6167 -9C6193 -9 6229 12 6327 85L6317 103L6291 86C6262 67 6239 56 6230 56C6223 56 6217 66 6217 76C6217 86 6219 95 6224 116L6301 420C6305 437 6307 448 6307 456C6307 473 6298 482 6282 482C6260 482 6223 461 6148 408ZM6314 712C6285 712 6256 679 6256 645C6256 620 6271 604 6295 604C6326 604 6350 633 6350 671C6350 695 6335 712 6314 712ZM6380 152C6380 46 6425 -11 6508 -11C6563 -11 6623 15 6668 57C6730 116 6774 230 6774 331C6774 425 6724 482 6641 482C6537 482 6380 382 6380 152ZM6604 444C6665 444 6698 399 6698 315C6698 219 6667 113 6623 60C6605 39 6579 27 6548 27C6490 27 6456 72 6456 151C6456 264 6495 387 6544 427C6557 438 6580 444 6604 444ZM7086 148C7081 97 7075 62 7064 16C7102 -2 7136 -11 7171 -11C7220 -11 7266 7 7317 47C7368 87 7389 124 7389 174C7389 228 7357 257 7283 271L7240 279C7180 290 7161 307 7161 348C7161 401 7206 442 7263 442C7304 442 7342 424 7358 397L7358 342L7381 342C7385 377 7389 404 7400 455C7361 474 7333 482 7300 482C7248 482 7187 452 7139 404C7113 377 7102 352 7102 316C7102 260 7133 228 7199 215L7262 203C7306 195 7322 177 7322 138C7322 73 7276 29 7205 29C7170 29 7139 40 7111 64L7111 148ZM7771 111L7747 94C7694 56 7646 36 7610 36C7563 36 7534 73 7534 133C7534 158 7537 185 7542 214C7559 218 7668 248 7693 259C7778 296 7817 342 7817 404C7817 451 7783 482 7733 482C7665 496 7555 423 7518 349C7488 299 7458 180 7458 113C7458 35 7502 -11 7574 -11C7631 -11 7687 17 7779 92ZM7556 274C7573 343 7593 386 7622 412C7640 428 7671 440 7695 440C7724 440 7743 420 7743 388C7743 344 7708 297 7656 272C7628 258 7592 247 7547 237ZM8205 390L8149 107C8148 99 8136 61 8136 31C8136 6 8147 -9 8166 -9C8201 -9 8236 11 8314 74L8345 99L8335 117L8290 86C8261 66 8241 56 8230 56C8221 56 8216 64 8216 76C8216 102 8230 183 8259 328L8272 390L8379 390L8390 440C8352 436 8318 434 8280 434C8296 528 8307 577 8325 631L8314 646C8294 634 8267 622 8236 610L8211 440C8167 419 8141 408 8123 403L8121 390ZM8429 152C8429 46 8474 -11 8557 -11C8612 -11 8672 15 8717 57C8779 116 8823 230 8823 331C8823 425 8773 482 8690 482C8586 482 8429 382 8429 152ZM8653 444C8714 444 8747 399 8747 315C8747 219 8716 113 8672 60C8654 39 8628 27 8597 27C8539 27 8505 72 8505 151C8505 264 8544 387 8593 427C8606 438 8629 444 8653 444ZM9585 103L9559 86C9530 67 9508 56 9498 56C9491 56 9485 65 9485 76C9485 86 9487 95 9492 116L9567 413C9571 430 9574 446 9574 454C9574 471 9564 482 9548 482C9519 482 9481 464 9420 421C9357 376 9322 341 9273 272L9303 409C9307 429 9310 444 9310 451C9310 470 9300 482 9284 482C9254 482 9208 460 9153 418C9109 384 9089 363 9024 275L9057 408C9061 424 9063 439 9063 451C9063 470 9054 482 9040 482C9019 482 8981 461 8907 408L8879 388L8886 368C8923 391 8958 414 8965 414C8976 414 8983 404 8983 389C8983 338 8942 145 8901 2L8904 -9L8972 6L8994 108C9018 219 9045 278 9100 338C9142 384 9187 414 9215 414C9222 414 9226 406 9226 393C9226 358 9204 244 9163 69L9147 2L9152 -9L9221 6L9242 113C9258 194 9292 269 9336 318C9391 379 9441 414 9473 414C9481 414 9486 405 9486 389C9486 365 9483 351 9461 264C9421 105 9405 84 9405 31C9405 6 9416 -9 9435 -9C9461 -9 9497 12 9595 85ZM9903 204L9874 77C9870 60 9868 42 9868 26C9868 4 9877 -9 9892 -9C9915 -9 9956 17 10038 85L10031 106C10007 86 9978 59 9956 59C9947 59 9941 68 9941 82C9941 87 9941 90 9942 93L10034 472L10024 481L9991 463C9950 478 9933 482 9906 482C9878 482 9858 477 9831 464C9769 433 9736 403 9711 354C9667 265 9636 145 9636 67C9636 23 9651 -11 9670 -11C9707 -11 9787 41 9903 204ZM9951 414C9929 305 9910 253 9876 201C9819 117 9758 59 9726 59C9714 59 9708 72 9708 99C9708 163 9736 280 9771 360C9795 415 9818 433 9866 433C9889 433 9907 429 9951 414ZM10816 473L10809 482L10741 465L10731 414C10716 336 10691 268 10660 221C10601 130 10523 59 10483 59C10475 59 10470 68 10470 85C10470 99 10472 112 10477 137L10534 408C10537 424 10539 438 10539 451C10539 470 10530 482 10516 482C10496 482 10458 461 10384 408L10356 388L10363 368L10395 389C10423 407 10434 412 10443 412C10452 412 10460 403 10460 392C10460 388 10459 378 10458 374L10395 77C10393 68 10391 44 10391 30C10391 7 10406 -11 10426 -11C10489 -11 10610 101 10694 239L10657 97C10650 73 10646 46 10646 31C10646 6 10657 -9 10676 -9C10702 -9 10738 12 10836 85L10826 103L10800 86C10776 70 10750 59 10739 59C10731 59 10726 66 10726 76C10726 112 10801 416 10816 473ZM10903 388L10910 368L10942 389C10979 412 10982 414 10989 414C11000 414 11007 404 11007 389C11007 338 10966 145 10925 2L10932 -9C10957 -2 10980 4 11002 8C11021 134 11042 199 11088 268C11142 352 11217 414 11262 414C11273 414 11279 405 11279 390C11279 372 11276 351 11268 319L11216 107C11207 70 11203 47 11203 31C11203 6 11214 -9 11233 -9C11259 -9 11295 12 11393 85L11383 103L11357 86C11328 67 11306 56 11296 56C11289 56 11283 65 11283 76C11283 81 11284 92 11285 96L11351 372C11358 401 11362 429 11362 446C11362 469 11351 482 11331 482C11289 482 11220 444 11161 389C11123 354 11095 320 11043 247L11081 408C11085 426 11087 438 11087 449C11087 470 11079 482 11064 482C11043 482 11004 460 10931 408ZM11705 204L11676 77C11672 60 11670 42 11670 26C11670 4 11679 -9 11694 -9C11717 -9 11758 17 11840 85L11833 106C11809 86 11780 59 11758 59C11749 59 11743 68 11743 82C11743 87 11743 90 11744 93L11836 472L11826 481L11793 463C11752 478 11735 482 11708 482C11680 482 11660 477 11633 464C11571 433 11538 403 11513 354C11469 265 11438 145 11438 67C11438 23 11453 -11 11472 -11C11509 -11 11589 41 11705 204ZM11753 414C11731 305 11712 253 11678 201C11621 117 11560 59 11528 59C11516 59 11510 72 11510 99C11510 163 11538 280 11573 360C11597 415 11620 433 11668 433C11691 433 11709 429 11753 414Z" stroke="rgb(0,0,0)" stroke-opacity="1" stroke-width="8" fill="rgb(0,0,0)" fill-opacity="1"></path></g></g></g><g><g><g transform="matrix(1,0,0,1,2,182.08000946044922)"><path transform="matrix(0.017,0,0,-0.017,0,0)" d="M483 722L471 733C419 707 383 698 311 691L307 670L355 670C379 670 389 663 389 646C389 638 388 629 387 622L359 468C329 477 302 482 277 482C208 482 114 410 68 323C37 265 17 170 17 86C17 21 32 -11 61 -11C88 -11 125 6 159 33C213 77 246 116 313 217L290 126C279 82 274 50 274 24C274 3 283 -9 300 -9C317 -9 341 3 375 28L456 88L446 107L402 76C388 66 372 59 363 59C355 59 349 68 349 82C349 90 350 99 357 128ZM114 59C98 59 89 73 89 98C89 224 135 380 184 418C197 428 216 433 243 433C287 433 316 427 349 410L337 351C300 171 159 59 114 59ZM827 111L803 94C750 56 702 36 666 36C619 36 590 73 590 133C590 158 593 185 598 214C615 218 724 248 749 259C834 296 873 342 873 404C873 451 839 482 789 482C721 496 611 423 574 349C544 299 514 180 514 113C514 35 558 -11 630 -11C687 -11 743 17 835 92ZM612 274C629 343 649 386 678 412C696 428 727 440 751 440C780 440 799 420 799 388C799 344 764 297 712 272C684 258 648 247 603 237ZM1387 722L1375 733C1323 707 1287 698 1215 691L1211 670L1259 670C1283 670 1293 663 1293 648C1293 645 1293 640 1290 622C1279 567 1206 182 1191 132C1178 82 1172 52 1172 31C1172 6 1183 -9 1202 -9C1228 -9 1264 12 1362 85L1352 103L1326 86C1297 67 1275 56 1265 56C1258 56 1252 66 1252 76C1252 82 1253 89 1256 104ZM1684 204L1655 77C1651 60 1649 42 1649 26C1649 4 1658 -9 1673 -9C1696 -9 1737 17 1819 85L1812 106C1788 86 1759 59 1737 59C1728 59 1722 68 1722 82C1722 87 1722 90 1723 93L1815 472L1805 481L1772 463C1731 478 1714 482 1687 482C1659 482 1639 477 1612 464C1550 433 1517 403 1492 354C1448 265 1417 145 1417 67C1417 23 1432 -11 1451 -11C1488 -11 1568 41 1684 204ZM1732 414C1710 305 1691 253 1657 201C1600 117 1539 59 1507 59C1495 59 1489 72 1489 99C1489 163 1517 280 1552 360C1576 415 1599 433 1647 433C1670 433 1688 429 1732 414ZM1887 148C1882 97 1876 62 1865 16C1903 -2 1937 -11 1972 -11C2021 -11 2067 7 2118 47C2169 87 2190 124 2190 174C2190 228 2158 257 2084 271L2041 279C1981 290 1962 307 1962 348C1962 401 2007 442 2064 442C2105 442 2143 424 2159 397L2159 342L2182 342C2186 377 2190 404 2201 455C2162 474 2134 482 2101 482C2049 482 1988 452 1940 404C1914 377 1903 352 1903 316C1903 260 1934 228 2000 215L2063 203C2107 195 2123 177 2123 138C2123 73 2077 29 2006 29C1971 29 1940 40 1912 64L1912 148ZM2659 420C2680 420 2696 421 2722 424C2611 304 2569 221 2569 121C2569 44 2615 -11 2679 -11C2817 -11 2970 236 2970 384C2970 441 2944 482 2908 482C2895 482 2883 478 2875 470L2825 423L2836 404C2845 410 2854 413 2863 413C2890 413 2906 390 2906 350C2906 202 2809 39 2721 39C2672 39 2641 81 2641 146C2641 251 2680 342 2778 464L2768 482C2748 473 2735 470 2707 470C2679 470 2637 472 2608 475L2596 476C2590 477 2585 477 2584 477C2572 477 2563 475 2552 470C2538 443 2527 407 2514 352L2536 352L2553 394C2560 411 2580 422 2604 422C2637 422 2621 420 2659 420ZM3320 111L3296 94C3243 56 3195 36 3159 36C3112 36 3083 73 3083 133C3083 158 3086 185 3091 214C3108 218 3217 248 3242 259C3327 296 3366 342 3366 404C3366 451 3332 482 3282 482C3214 496 3104 423 3067 349C3037 299 3007 180 3007 113C3007 35 3051 -11 3123 -11C3180 -11 3236 17 3328 92ZM3105 274C3122 343 3142 386 3171 412C3189 428 3220 440 3244 440C3273 440 3292 420 3292 388C3292 344 3257 297 3205 272C3177 258 3141 247 3096 237ZM3631 722L3619 733C3567 707 3531 698 3459 691L3455 670L3503 670C3527 670 3537 663 3537 648C3537 645 3537 640 3534 622C3523 567 3450 182 3435 132C3422 82 3416 52 3416 31C3416 6 3427 -9 3446 -9C3472 -9 3508 12 3606 85L3596 103L3570 86C3541 67 3519 56 3509 56C3502 56 3496 66 3496 76C3496 82 3497 89 3500 104ZM3674 152C3674 46 3719 -11 3802 -11C3857 -11 3917 15 3962 57C4024 116 4068 230 4068 331C4068 425 4018 482 3935 482C3831 482 3674 382 3674 152ZM3898 444C3959 444 3992 399 3992 315C3992 219 3961 113 3917 60C3899 39 3873 27 3842 27C3784 27 3750 72 3750 151C3750 264 3789 387 3838 427C3851 438 3874 444 3898 444ZM4442 330L4465 330C4473 395 4480 432 4489 458C4465 473 4430 482 4393 482C4348 483 4275 463 4218 400C4164 352 4125 241 4125 136C4125 40 4167 -11 4247 -11C4301 -11 4349 9 4404 54L4454 95L4446 115L4431 105C4359 57 4321 40 4286 40C4230 40 4201 80 4201 159C4201 267 4236 371 4285 409C4306 425 4330 433 4361 433C4406 433 4442 414 4442 390ZM4540 388L4547 368L4579 389C4616 412 4619 414 4626 414C4636 414 4644 404 4644 391C4644 384 4640 361 4636 347L4570 107C4562 76 4557 49 4557 30C4557 6 4568 -9 4587 -9C4613 -9 4649 12 4747 85L4737 103L4711 86C4682 67 4659 56 4650 56C4643 56 4637 66 4637 76C4637 86 4639 95 4644 116L4721 420C4725 437 4727 448 4727 456C4727 473 4718 482 4702 482C4680 482 4643 461 4568 408ZM4734 712C4705 712 4676 679 4676 645C4676 620 4691 604 4715 604C4746 604 4770 633 4770 671C4770 695 4755 712 4734 712ZM5266 722L5254 733C5202 707 5166 698 5094 691L5090 670L5138 670C5162 670 5172 663 5172 646C5172 638 5171 629 5170 622L5142 468C5112 477 5085 482 5060 482C4991 482 4897 410 4851 323C4820 265 4800 170 4800 86C4800 21 4815 -11 4844 -11C4871 -11 4908 6 4942 33C4996 77 5029 116 5096 217L5073 126C5062 82 5057 50 5057 24C5057 3 5066 -9 5083 -9C5100 -9 5124 3 5158 28L5239 88L5229 107L5185 76C5171 66 5155 59 5146 59C5138 59 5132 68 5132 82C5132 90 5133 99 5140 128ZM4897 59C4881 59 4872 73 4872 98C4872 224 4918 380 4967 418C4980 428 4999 433 5026 433C5070 433 5099 427 5132 410L5120 351C5083 171 4942 59 4897 59ZM5553 204L5524 77C5520 60 5518 42 5518 26C5518 4 5527 -9 5542 -9C5565 -9 5606 17 5688 85L5681 106C5657 86 5628 59 5606 59C5597 59 5591 68 5591 82C5591 87 5591 90 5592 93L5684 472L5674 481L5641 463C5600 478 5583 482 5556 482C5528 482 5508 477 5481 464C5419 433 5386 403 5361 354C5317 265 5286 145 5286 67C5286 23 5301 -11 5320 -11C5357 -11 5437 41 5553 204ZM5601 414C5579 305 5560 253 5526 201C5469 117 5408 59 5376 59C5364 59 5358 72 5358 99C5358 163 5386 280 5421 360C5445 415 5468 433 5516 433C5539 433 5557 429 5601 414ZM6208 722L6196 733C6144 707 6108 698 6036 691L6032 670L6080 670C6104 670 6114 663 6114 646C6114 638 6113 629 6112 622L6084 468C6054 477 6027 482 6002 482C5933 482 5839 410 5793 323C5762 265 5742 170 5742 86C5742 21 5757 -11 5786 -11C5813 -11 5850 6 5884 33C5938 77 5971 116 6038 217L6015 126C6004 82 5999 50 5999 24C5999 3 6008 -9 6025 -9C6042 -9 6066 3 6100 28L6181 88L6171 107L6127 76C6113 66 6097 59 6088 59C6080 59 6074 68 6074 82C6074 90 6075 99 6082 128ZM5839 59C5823 59 5814 73 5814 98C5814 224 5860 380 5909 418C5922 428 5941 433 5968 433C6012 433 6041 427 6074 410L6062 351C6025 171 5884 59 5839 59ZM6552 111L6528 94C6475 56 6427 36 6391 36C6344 36 6315 73 6315 133C6315 158 6318 185 6323 214C6340 218 6449 248 6474 259C6559 296 6598 342 6598 404C6598 451 6564 482 6514 482C6446 496 6336 423 6299 349C6269 299 6239 180 6239 113C6239 35 6283 -11 6355 -11C6412 -11 6468 17 6560 92ZM6337 274C6354 343 6374 386 6403 412C6421 428 6452 440 6476 440C6505 440 6524 420 6524 388C6524 344 6489 297 6437 272C6409 258 6373 247 6328 237ZM6643 148C6638 97 6632 62 6621 16C6659 -2 6693 -11 6728 -11C6777 -11 6823 7 6874 47C6925 87 6946 124 6946 174C6946 228 6914 257 6840 271L6797 279C6737 290 6718 307 6718 348C6718 401 6763 442 6820 442C6861 442 6899 424 6915 397L6915 342L6938 342C6942 377 6946 404 6957 455C6918 474 6890 482 6857 482C6805 482 6744 452 6696 404C6670 377 6659 352 6659 316C6659 260 6690 228 6756 215L6819 203C6863 195 6879 177 6879 138C6879 73 6833 29 6762 29C6727 29 6696 40 6668 64L6668 148ZM7591 330L7614 330C7622 395 7629 432 7638 458C7614 473 7579 482 7542 482C7497 483 7424 463 7367 400C7313 352 7274 241 7274 136C7274 40 7316 -11 7396 -11C7450 -11 7498 9 7553 54L7603 95L7595 115L7580 105C7508 57 7470 40 7435 40C7379 40 7350 80 7350 159C7350 267 7385 371 7434 409C7455 425 7479 433 7510 433C7555 433 7591 414 7591 390ZM7672 152C7672 46 7717 -11 7800 -11C7855 -11 7915 15 7960 57C8022 116 8066 230 8066 331C8066 425 8016 482 7933 482C7829 482 7672 382 7672 152ZM7896 444C7957 444 7990 399 7990 315C7990 219 7959 113 7915 60C7897 39 7871 27 7840 27C7782 27 7748 72 7748 151C7748 264 7787 387 7836 427C7849 438 7872 444 7896 444ZM8828 103L8802 86C8773 67 8751 56 8741 56C8734 56 8728 65 8728 76C8728 86 8730 95 8735 116L8810 413C8814 430 8817 446 8817 454C8817 471 8807 482 8791 482C8762 482 8724 464 8663 421C8600 376 8565 341 8516 272L8546 409C8550 429 8553 444 8553 451C8553 470 8543 482 8527 482C8497 482 8451 460 8396 418C8352 384 8332 363 8267 275L8300 408C8304 424 8306 439 8306 451C8306 470 8297 482 8283 482C8262 482 8224 461 8150 408L8122 388L8129 368C8166 391 8201 414 8208 414C8219 414 8226 404 8226 389C8226 338 8185 145 8144 2L8147 -9L8215 6L8237 108C8261 219 8288 278 8343 338C8385 384 8430 414 8458 414C8465 414 8469 406 8469 393C8469 358 8447 244 8406 69L8390 2L8395 -9L8464 6L8485 113C8501 194 8535 269 8579 318C8634 379 8684 414 8716 414C8724 414 8729 405 8729 389C8729 365 8726 351 8704 264C8664 105 8648 84 8648 31C8648 6 8659 -9 8678 -9C8704 -9 8740 12 8838 85ZM8892 152C8892 46 8937 -11 9020 -11C9075 -11 9135 15 9180 57C9242 116 9286 230 9286 331C9286 425 9236 482 9153 482C9049 482 8892 382 8892 152ZM9116 444C9177 444 9210 399 9210 315C9210 219 9179 113 9135 60C9117 39 9091 27 9060 27C9002 27 8968 72 8968 151C8968 264 9007 387 9056 427C9069 438 9092 444 9116 444ZM9591 388L9598 368L9630 389C9667 412 9670 414 9677 414C9688 414 9695 404 9695 389C9695 338 9654 145 9613 2L9620 -9C9645 -2 9668 4 9690 8C9709 134 9730 199 9776 268C9830 352 9905 414 9950 414C9961 414 9967 405 9967 390C9967 372 9964 351 9956 319L9904 107C9895 70 9891 47 9891 31C9891 6 9902 -9 9921 -9C9947 -9 9983 12 10081 85L10071 103L10045 86C10016 67 9994 56 9984 56C9977 56 9971 65 9971 76C9971 81 9972 92 9973 96L10039 372C10046 401 10050 429 10050 446C10050 469 10039 482 10019 482C9977 482 9908 444 9849 389C9811 354 9783 320 9731 247L9769 408C9773 426 9775 438 9775 449C9775 470 9767 482 9752 482C9731 482 9692 460 9619 408ZM10450 111L10426 94C10373 56 10325 36 10289 36C10242 36 10213 73 10213 133C10213 158 10216 185 10221 214C10238 218 10347 248 10372 259C10457 296 10496 342 10496 404C10496 451 10462 482 10412 482C10344 496 10234 423 10197 349C10167 299 10137 180 10137 113C10137 35 10181 -11 10253 -11C10310 -11 10366 17 10458 92ZM10235 274C10252 343 10272 386 10301 412C10319 428 10350 440 10374 440C10403 440 10422 420 10422 388C10422 344 10387 297 10335 272C10307 258 10271 247 10226 237ZM10785 482C10718 482 10565 419 10565 259C10565 182 10610 136 10687 136C10695 136 10706 136 10717 137L10676 99C10660 84 10649 66 10649 52C10649 42 10656 31 10670 19C10601 -4 10473 -48 10473 -159C10473 -230 10543 -276 10652 -276C10781 -276 10894 -204 10894 -121C10894 -85 10873 -49 10830 -14L10770 35C10736 62 10723 81 10723 100C10723 114 10738 128 10750 146C10848 170 10919 253 10919 342C10919 357 10916 376 10915 380C10932 378 10940 378 10949 378C10966 378 10976 379 10999 382L11008 427L11005 433C10977 426 10957 424 10903 424C10903 425 10879 482 10785 482ZM10686 1L10763 -58C10809 -94 10828 -121 10828 -154C10828 -206 10759 -248 10676 -248C10594 -248 10537 -206 10537 -145C10537 -43 10647 -11 10686 1ZM10760 448C10818 448 10847 412 10847 341C10847 238 10799 168 10729 168C10668 168 10636 209 10636 288C10636 383 10687 448 10760 448ZM11280 204L11251 77C11247 60 11245 42 11245 26C11245 4 11254 -9 11269 -9C11292 -9 11333 17 11415 85L11408 106C11384 86 11355 59 11333 59C11324 59 11318 68 11318 82C11318 87 11318 90 11319 93L11411 472L11401 481L11368 463C11327 478 11310 482 11283 482C11255 482 11235 477 11208 464C11146 433 11113 403 11088 354C11044 265 11013 145 11013 67C11013 23 11028 -11 11047 -11C11084 -11 11164 41 11280 204ZM11328 414C11306 305 11287 253 11253 201C11196 117 11135 59 11103 59C11091 59 11085 72 11085 99C11085 163 11113 280 11148 360C11172 415 11195 433 11243 433C11266 433 11284 429 11328 414ZM11577 390L11521 107C11520 99 11508 61 11508 31C11508 6 11519 -9 11538 -9C11573 -9 11608 11 11686 74L11717 99L11707 117L11662 86C11633 66 11613 56 11602 56C11593 56 11588 64 11588 76C11588 102 11602 183 11631 328L11644 390L11751 390L11762 440C11724 436 11690 434 11652 434C11668 528 11679 577 11697 631L11686 646C11666 634 11639 622 11608 610L11583 440C11539 419 11513 408 11495 403L11493 390ZM11818 388L11825 368L11857 389C11894 412 11897 414 11904 414C11914 414 11922 404 11922 391C11922 384 11918 361 11914 347L11848 107C11840 76 11835 49 11835 30C11835 6 11846 -9 11865 -9C11891 -9 11927 12 12025 85L12015 103L11989 86C11960 67 11937 56 11928 56C11921 56 11915 66 11915 76C11915 86 11917 95 11922 116L11999 420C12003 437 12005 448 12005 456C12005 473 11996 482 11980 482C11958 482 11921 461 11846 408ZM12012 712C11983 712 11954 679 11954 645C11954 620 11969 604 11993 604C12024 604 12048 633 12048 671C12048 695 12033 712 12012 712ZM12227 420C12248 420 12264 421 12290 424C12179 304 12137 221 12137 121C12137 44 12183 -11 12247 -11C12385 -11 12538 236 12538 384C12538 441 12512 482 12476 482C12463 482 12451 478 12443 470L12393 423L12404 404C12413 410 12422 413 12431 413C12458 413 12474 390 12474 350C12474 202 12377 39 12289 39C12240 39 12209 81 12209 146C12209 251 12248 342 12346 464L12336 482C12316 473 12303 470 12275 470C12247 470 12205 472 12176 475L12164 476C12158 477 12153 477 12152 477C12140 477 12131 475 12120 470C12106 443 12095 407 12082 352L12104 352L12121 394C12128 411 12148 422 12172 422C12205 422 12189 420 12227 420ZM12831 204L12802 77C12798 60 12796 42 12796 26C12796 4 12805 -9 12820 -9C12843 -9 12884 17 12966 85L12959 106C12935 86 12906 59 12884 59C12875 59 12869 68 12869 82C12869 87 12869 90 12870 93L12962 472L12952 481L12919 463C12878 478 12861 482 12834 482C12806 482 12786 477 12759 464C12697 433 12664 403 12639 354C12595 265 12564 145 12564 67C12564 23 12579 -11 12598 -11C12635 -11 12715 41 12831 204ZM12879 414C12857 305 12838 253 12804 201C12747 117 12686 59 12654 59C12642 59 12636 72 12636 99C12636 163 12664 280 12699 360C12723 415 12746 433 12794 433C12817 433 12835 429 12879 414Z" stroke="rgb(0,0,0)" stroke-opacity="1" stroke-width="8" fill="rgb(0,0,0)" fill-opacity="1"></path></g></g></g></g></svg>