<svg xmlns="http://www.w3.org/2000/svg" xmlns:xlink="http://www.w3.org/1999/xlink" width="170.48500061035156" height="84.63999938964844" style="width:170.48500061035156px;height:84.63999938964844px;font-family:Asana-Math, Asana;background:#FFF;"><g><g><g><g transform="matrix(1,0,0,1,2,18.040000915527344)"><path transform="matrix(0.017,0,0,-0.017,0,0)" d="M2842 664L2889 662C2913 661 2924 653 2924 636C2924 629 2918 576 2915 559L2843 125C2828 36 2825 31 2785 28L2749 25L2746 -3L2778 -3L2872 0L2966 -3L2998 -3L3001 25L2949 28C2923 30 2913 37 2913 57C2913 63 2914 74 2915 78L3004 613C3011 652 3016 657 3055 661L3090 664L3093 692L2987 689C2970 689 2952 689 2909 690L2845 692Z" stroke="rgb(0,0,0)" stroke-opacity="1" stroke-width="8" fill="rgb(0,0,0)" fill-opacity="1"></path></g></g><g><g transform="matrix(1,0,0,1,59.285003662109375,18.040000915527344)"><path transform="matrix(0.017,0,0,-0.017,0,0)" d="M604 347L604 406L65 406L65 347ZM604 134L604 193L65 193L65 134Z" stroke="rgb(0,0,0)" stroke-opacity="1" stroke-width="8" fill="rgb(0,0,0)" fill-opacity="1"></path></g></g><g><g transform="matrix(1,0,0,1,75.74000549316406,18.040000915527344)"><path transform="matrix(0.017,0,0,-0.017,0,0)" d="M286 646L392 650C454 650 494 641 495 626L503 537L527 537C530 600 537 651 548 689C526 691 498 692 481 692L440 691L275 689L246 689C221 689 181 690 143 691L94 692L91 664L147 662C171 661 182 652 182 635C182 621 178 589 173 559L98 125C81 33 81 32 40 28L4 25L0 -3L34 -2C74 -1 106 0 127 0C145 0 174 -1 213 -2L265 -3L268 25L204 28C177 29 168 37 168 57C168 63 169 74 170 78L206 301L323 301C350 301 381 300 429 298L455 297L474 342L470 349C389 345 329 343 251 343L214 343L260 614C263 630 264 635 269 646Z" stroke="rgb(0,0,0)" stroke-opacity="1" stroke-width="8" fill="rgb(0,0,0)" fill-opacity="1"></path></g></g><g><g transform="matrix(1,0,0,1,85.17501831054688,18.040000915527344)"><path transform="matrix(0.017,0,0,-0.017,0,0)" d="M662 6L655 -4C549 0 443 0 336 0C235 0 134 -1 33 -4L27 6C88 116 136 238 186 354C235 466 288 580 327 697L352 697C395 590 597 128 662 6ZM584 37C518 215 447 389 371 564L364 564C289 391 217 215 152 37Z" stroke="rgb(0,0,0)" stroke-opacity="1" stroke-width="8" fill="rgb(0,0,0)" fill-opacity="1"></path></g></g><g><g transform="matrix(1,0,0,1,96.87501525878906,18.040000915527344)"><path transform="matrix(0.017,0,0,-0.017,0,0)" d="M125 390L69 107C68 99 56 61 56 31C56 6 67 -9 86 -9C121 -9 156 11 234 74L265 99L255 117L210 86C181 66 161 56 150 56C141 56 136 64 136 76C136 102 150 183 179 328L192 390L299 390L310 440C272 436 238 434 200 434C216 528 227 577 245 631L234 646C214 634 187 622 156 610L131 440C87 419 61 408 43 403L41 390Z" stroke="rgb(0,0,0)" stroke-opacity="1" stroke-width="8" fill="rgb(0,0,0)" fill-opacity="1"></path></g></g></g><g></g><g><g><g transform="matrix(1,0,0,1,2,58.360008239746094)"><path transform="matrix(0.017,0,0,-0.017,0,0)" d="M286 646L392 650C454 650 494 641 495 626L503 537L527 537C530 600 537 651 548 689C526 691 498 692 481 692L440 691L275 689L246 689C221 689 181 690 143 691L94 692L91 664L147 662C171 661 182 652 182 635C182 621 178 589 173 559L98 125C81 33 81 32 40 28L4 25L0 -3L34 -2C74 -1 106 0 127 0C145 0 174 -1 213 -2L265 -3L268 25L204 28C177 29 168 37 168 57C168 63 169 74 170 78L206 301L323 301C350 301 381 300 429 298L455 297L474 342L470 349C389 345 329 343 251 343L214 343L260 614C263 630 264 635 269 646Z" stroke="rgb(0,0,0)" stroke-opacity="1" stroke-width="8" fill="rgb(0,0,0)" fill-opacity="1"></path></g></g><g><g transform="matrix(1,0,0,1,14.82501220703125,58.360008239746094)"><path transform="matrix(0.017,0,0,-0.017,0,0)" d="M123 111C93 111 66 83 66 53C66 23 93 -5 122 -5C154 -5 182 22 182 53C182 83 154 111 123 111ZM123 456C93 456 66 428 66 398C66 368 93 340 122 340C154 340 182 367 182 397C182 428 154 456 123 456Z" stroke="rgb(0,0,0)" stroke-opacity="1" stroke-width="8" fill="rgb(0,0,0)" fill-opacity="1"></path></g></g><g><g transform="matrix(1,0,0,1,22.460006713867188,58.360008239746094)"><path transform="matrix(0.017,0,0,-0.017,0,0)" d="M345 437L329 437L350 549C366 635 394 673 440 673C470 673 497 658 512 634L522 638C527 654 537 685 545 705L550 720C534 727 503 733 480 733C469 733 453 730 445 726C421 715 339 654 316 630C294 608 282 578 271 521L256 442C215 422 195 414 170 405L165 383L246 383L237 327C207 132 170 -54 148 -123C130 -182 100 -213 64 -213C41 -213 30 -206 12 -184L-2 -188C-6 -211 -20 -259 -25 -268C-16 -273 -1 -276 10 -276C51 -276 105 -245 144 -198C215 -114 235 -18 319 383L423 383C427 402 434 425 440 439L436 446C407 439 408 437 345 437ZM1042 473L1035 482L967 465L957 414C942 336 917 268 886 221C827 130 749 59 709 59C701 59 696 68 696 85C696 99 698 112 703 137L760 408C763 424 765 438 765 451C765 470 756 482 742 482C722 482 684 461 610 408L582 388L589 368L621 389C649 407 660 412 669 412C678 412 686 403 686 392C686 388 685 378 684 374L621 77C619 68 617 44 617 30C617 7 632 -11 652 -11C715 -11 836 101 920 239L883 97C876 73 872 46 872 31C872 6 883 -9 902 -9C928 -9 964 12 1062 85L1052 103L1026 86C1002 70 976 59 965 59C957 59 952 66 952 76C952 112 1027 416 1042 473ZM1433 111L1409 94C1356 56 1308 36 1272 36C1225 36 1196 73 1196 133C1196 158 1199 185 1204 214C1221 218 1330 248 1355 259C1440 296 1479 342 1479 404C1479 451 1445 482 1395 482C1327 496 1217 423 1180 349C1150 299 1120 180 1120 113C1120 35 1164 -11 1236 -11C1293 -11 1349 17 1441 92ZM1218 274C1235 343 1255 386 1284 412C1302 428 1333 440 1357 440C1386 440 1405 420 1405 388C1405 344 1370 297 1318 272C1290 258 1254 247 1209 237ZM1861 365C1864 403 1869 435 1877 476C1866 481 1862 482 1857 482C1826 482 1795 458 1759 407C1720 351 1681 291 1665 256L1697 408C1701 425 1703 438 1703 450C1703 470 1695 482 1680 482C1659 482 1621 461 1547 408L1519 388L1526 368L1558 389C1586 407 1597 412 1606 412C1616 412 1623 403 1623 390C1623 332 1580 126 1540 -2L1550 -9C1565 -4 1581 -1 1604 4L1617 6L1643 126C1661 209 1684 262 1728 319C1762 363 1789 384 1811 384C1826 384 1836 379 1847 365ZM2203 -11C2215 -11 2224 -9 2253 -1C2264 61 2272 95 2283 142L2261 142L2239 82C2233 64 2221 57 2200 57C2188 57 2172 59 2151 64L2133 68C2100 75 2066 80 2047 80C2015 80 1988 74 1952 59L2291 441L2297 473L2288 482L2265 459C2255 449 2245 445 2231 445C2197 445 2145 453 2097 466L2079 471C2051 478 2031 482 2017 482C2000 482 1980 479 1956 472L1924 350L1945 350L1975 408C1992 412 2001 413 2014 413C2055 413 2087 398 2140 398C2176 398 2200 404 2233 421L1880 21L1889 -6C1918 17 1945 26 1980 26C2043 26 2134 -11 2203 -11ZM2595 204L2566 77C2562 60 2560 42 2560 26C2560 4 2569 -9 2584 -9C2607 -9 2648 17 2730 85L2723 106C2699 86 2670 59 2648 59C2639 59 2633 68 2633 82C2633 87 2633 90 2634 93L2726 472L2716 481L2683 463C2642 478 2625 482 2598 482C2570 482 2550 477 2523 464C2461 433 2428 403 2403 354C2359 265 2328 145 2328 67C2328 23 2343 -11 2362 -11C2399 -11 2479 41 2595 204ZM2643 414C2621 305 2602 253 2568 201C2511 117 2450 59 2418 59C2406 59 2400 72 2400 99C2400 163 2428 280 2463 360C2487 415 2510 433 2558 433C2581 433 2599 429 2643 414ZM3287 204L3258 77C3254 60 3252 42 3252 26C3252 4 3261 -9 3276 -9C3299 -9 3340 17 3422 85L3415 106C3391 86 3362 59 3340 59C3331 59 3325 68 3325 82C3325 87 3325 90 3326 93L3418 472L3408 481L3375 463C3334 478 3317 482 3290 482C3262 482 3242 477 3215 464C3153 433 3120 403 3095 354C3051 265 3020 145 3020 67C3020 23 3035 -11 3054 -11C3091 -11 3171 41 3287 204ZM3335 414C3313 305 3294 253 3260 201C3203 117 3142 59 3110 59C3098 59 3092 72 3092 99C3092 163 3120 280 3155 360C3179 415 3202 433 3250 433C3273 433 3291 429 3335 414ZM3635 -11C3691 -11 3806 62 3849 125C3890 186 3924 296 3924 371C3924 438 3901 482 3865 482C3823 482 3770 456 3718 409C3677 374 3657 348 3621 289L3645 408C3648 425 3650 440 3650 452C3650 471 3642 482 3628 482C3607 482 3569 461 3495 408L3467 388L3474 368L3506 389C3534 407 3545 412 3554 412C3564 412 3571 403 3571 389C3571 381 3569 361 3567 351L3509 8C3499 -52 3480 -143 3460 -233L3452 -270L3459 -276C3480 -269 3500 -264 3532 -259L3574 3C3595 -4 3617 -11 3635 -11ZM3602 165C3624 293 3731 424 3814 424C3840 424 3852 402 3852 356C3852 275 3812 156 3759 80C3739 51 3707 36 3666 36C3635 36 3610 43 3584 59ZM4209 722L4197 733C4145 707 4109 698 4037 691L4033 670L4081 670C4105 670 4115 663 4115 648C4115 645 4115 640 4112 622C4101 567 4028 182 4013 132C4000 82 3994 52 3994 31C3994 6 4005 -9 4024 -9C4050 -9 4086 12 4184 85L4174 103L4148 86C4119 67 4097 56 4087 56C4080 56 4074 66 4074 76C4074 82 4075 89 4078 104ZM4269 388L4276 368L4308 389C4345 412 4348 414 4355 414C4365 414 4373 404 4373 391C4373 384 4369 361 4365 347L4299 107C4291 76 4286 49 4286 30C4286 6 4297 -9 4316 -9C4342 -9 4378 12 4476 85L4466 103L4440 86C4411 67 4388 56 4379 56C4372 56 4366 66 4366 76C4366 86 4368 95 4373 116L4450 420C4454 437 4456 448 4456 456C4456 473 4447 482 4431 482C4409 482 4372 461 4297 408ZM4463 712C4434 712 4405 679 4405 645C4405 620 4420 604 4444 604C4475 604 4499 633 4499 671C4499 695 4484 712 4463 712ZM4854 330L4877 330C4885 395 4892 432 4901 458C4877 473 4842 482 4805 482C4760 483 4687 463 4630 400C4576 352 4537 241 4537 136C4537 40 4579 -11 4659 -11C4713 -11 4761 9 4816 54L4866 95L4858 115L4843 105C4771 57 4733 40 4698 40C4642 40 4613 80 4613 159C4613 267 4648 371 4697 409C4718 425 4742 433 4773 433C4818 433 4854 414 4854 390ZM5189 204L5160 77C5156 60 5154 42 5154 26C5154 4 5163 -9 5178 -9C5201 -9 5242 17 5324 85L5317 106C5293 86 5264 59 5242 59C5233 59 5227 68 5227 82C5227 87 5227 90 5228 93L5320 472L5310 481L5277 463C5236 478 5219 482 5192 482C5164 482 5144 477 5117 464C5055 433 5022 403 4997 354C4953 265 4922 145 4922 67C4922 23 4937 -11 4956 -11C4993 -11 5073 41 5189 204ZM5237 414C5215 305 5196 253 5162 201C5105 117 5044 59 5012 59C5000 59 4994 72 4994 99C4994 163 5022 280 5057 360C5081 415 5104 433 5152 433C5175 433 5193 429 5237 414ZM5844 722L5832 733C5780 707 5744 698 5672 691L5668 670L5716 670C5740 670 5750 663 5750 646C5750 638 5749 629 5748 622L5720 468C5690 477 5663 482 5638 482C5569 482 5475 410 5429 323C5398 265 5378 170 5378 86C5378 21 5393 -11 5422 -11C5449 -11 5486 6 5520 33C5574 77 5607 116 5674 217L5651 126C5640 82 5635 50 5635 24C5635 3 5644 -9 5661 -9C5678 -9 5702 3 5736 28L5817 88L5807 107L5763 76C5749 66 5733 59 5724 59C5716 59 5710 68 5710 82C5710 90 5711 99 5718 128ZM5475 59C5459 59 5450 73 5450 98C5450 224 5496 380 5545 418C5558 428 5577 433 5604 433C5648 433 5677 427 5710 410L5698 351C5661 171 5520 59 5475 59ZM6131 204L6102 77C6098 60 6096 42 6096 26C6096 4 6105 -9 6120 -9C6143 -9 6184 17 6266 85L6259 106C6235 86 6206 59 6184 59C6175 59 6169 68 6169 82C6169 87 6169 90 6170 93L6262 472L6252 481L6219 463C6178 478 6161 482 6134 482C6106 482 6086 477 6059 464C5997 433 5964 403 5939 354C5895 265 5864 145 5864 67C5864 23 5879 -11 5898 -11C5935 -11 6015 41 6131 204ZM6179 414C6157 305 6138 253 6104 201C6047 117 5986 59 5954 59C5942 59 5936 72 5936 99C5936 163 5964 280 5999 360C6023 415 6046 433 6094 433C6117 433 6135 429 6179 414Z" stroke="rgb(0,0,0)" stroke-opacity="1" stroke-width="8" fill="rgb(0,0,0)" fill-opacity="1"></path></g></g></g><g><g><g transform="matrix(1,0,0,1,2,78.52001190185547)"><path transform="matrix(0.017,0,0,-0.017,0,0)" d="M662 6L655 -4C549 0 443 0 336 0C235 0 134 -1 33 -4L27 6C88 116 136 238 186 354C235 466 288 580 327 697L352 697C395 590 597 128 662 6ZM584 37C518 215 447 389 371 564L364 564C289 391 217 215 152 37Z" stroke="rgb(0,0,0)" stroke-opacity="1" stroke-width="8" fill="rgb(0,0,0)" fill-opacity="1"></path></g></g><g><g transform="matrix(1,0,0,1,13.70001220703125,78.52001190185547)"><path transform="matrix(0.017,0,0,-0.017,0,0)" d="M125 390L69 107C68 99 56 61 56 31C56 6 67 -9 86 -9C121 -9 156 11 234 74L265 99L255 117L210 86C181 66 161 56 150 56C141 56 136 64 136 76C136 102 150 183 179 328L192 390L299 390L310 440C272 436 238 434 200 434C216 528 227 577 245 631L234 646C214 634 187 622 156 610L131 440C87 419 61 408 43 403L41 390Z" stroke="rgb(0,0,0)" stroke-opacity="1" stroke-width="8" fill="rgb(0,0,0)" fill-opacity="1"></path></g></g><g><g transform="matrix(1,0,0,1,22.745010375976562,78.52001190185547)"><path transform="matrix(0.017,0,0,-0.017,0,0)" d="M123 111C93 111 66 83 66 53C66 23 93 -5 122 -5C154 -5 182 22 182 53C182 83 154 111 123 111ZM123 456C93 456 66 428 66 398C66 368 93 340 122 340C154 340 182 367 182 397C182 428 154 456 123 456Z" stroke="rgb(0,0,0)" stroke-opacity="1" stroke-width="8" fill="rgb(0,0,0)" fill-opacity="1"></path></g></g><g><g transform="matrix(1,0,0,1,30.3800048828125,78.52001190185547)"><path transform="matrix(0.017,0,0,-0.017,0,0)" d="M125 390L69 107C68 99 56 61 56 31C56 6 67 -9 86 -9C121 -9 156 11 234 74L265 99L255 117L210 86C181 66 161 56 150 56C141 56 136 64 136 76C136 102 150 183 179 328L192 390L299 390L310 440C272 436 238 434 200 434C216 528 227 577 245 631L234 646C214 634 187 622 156 610L131 440C87 419 61 408 43 403L41 390ZM366 388L373 368L405 389C442 412 445 414 452 414C462 414 470 404 470 391C470 384 466 361 462 347L396 107C388 76 383 49 383 30C383 6 394 -9 413 -9C439 -9 475 12 573 85L563 103L537 86C508 67 485 56 476 56C469 56 463 66 463 76C463 86 465 95 470 116L547 420C551 437 553 448 553 456C553 473 544 482 528 482C506 482 469 461 394 408ZM560 712C531 712 502 679 502 645C502 620 517 604 541 604C572 604 596 633 596 671C596 695 581 712 560 712ZM937 111L913 94C860 56 812 36 776 36C729 36 700 73 700 133C700 158 703 185 708 214C725 218 834 248 859 259C944 296 983 342 983 404C983 451 949 482 899 482C831 496 721 423 684 349C654 299 624 180 624 113C624 35 668 -11 740 -11C797 -11 853 17 945 92ZM722 274C739 343 759 386 788 412C806 428 837 440 861 440C890 440 909 420 909 388C909 344 874 297 822 272C794 258 758 247 713 237ZM1727 103L1701 86C1672 67 1650 56 1640 56C1633 56 1627 65 1627 76C1627 86 1629 95 1634 116L1709 413C1713 430 1716 446 1716 454C1716 471 1706 482 1690 482C1661 482 1623 464 1562 421C1499 376 1464 341 1415 272L1445 409C1449 429 1452 444 1452 451C1452 470 1442 482 1426 482C1396 482 1350 460 1295 418C1251 384 1231 363 1166 275L1199 408C1203 424 1205 439 1205 451C1205 470 1196 482 1182 482C1161 482 1123 461 1049 408L1021 388L1028 368C1065 391 1100 414 1107 414C1118 414 1125 404 1125 389C1125 338 1084 145 1043 2L1046 -9L1114 6L1136 108C1160 219 1187 278 1242 338C1284 384 1329 414 1357 414C1364 414 1368 406 1368 393C1368 358 1346 244 1305 69L1289 2L1294 -9L1363 6L1384 113C1400 194 1434 269 1478 318C1533 379 1583 414 1615 414C1623 414 1628 405 1628 389C1628 365 1625 351 1603 264C1563 105 1547 84 1547 31C1547 6 1558 -9 1577 -9C1603 -9 1639 12 1737 85ZM1950 -11C2006 -11 2121 62 2164 125C2205 186 2239 296 2239 371C2239 438 2216 482 2180 482C2138 482 2085 456 2033 409C1992 374 1972 348 1936 289L1960 408C1963 425 1965 440 1965 452C1965 471 1957 482 1943 482C1922 482 1884 461 1810 408L1782 388L1789 368L1821 389C1849 407 1860 412 1869 412C1879 412 1886 403 1886 389C1886 381 1884 361 1882 351L1824 8C1814 -52 1795 -143 1775 -233L1767 -270L1774 -276C1795 -269 1815 -264 1847 -259L1889 3C1910 -4 1932 -11 1950 -11ZM1917 165C1939 293 2046 424 2129 424C2155 424 2167 402 2167 356C2167 275 2127 156 2074 80C2054 51 2022 36 1981 36C1950 36 1925 43 1899 59ZM2290 152C2290 46 2335 -11 2418 -11C2473 -11 2533 15 2578 57C2640 116 2684 230 2684 331C2684 425 2634 482 2551 482C2447 482 2290 382 2290 152ZM2514 444C2575 444 2608 399 2608 315C2608 219 2577 113 2533 60C2515 39 2489 27 2458 27C2400 27 2366 72 2366 151C2366 264 2405 387 2454 427C2467 438 2490 444 2514 444ZM3448 722L3436 733C3384 707 3348 698 3276 691L3272 670L3320 670C3344 670 3354 663 3354 646C3354 638 3353 629 3352 622L3324 468C3294 477 3267 482 3242 482C3173 482 3079 410 3033 323C3002 265 2982 170 2982 86C2982 21 2997 -11 3026 -11C3053 -11 3090 6 3124 33C3178 77 3211 116 3278 217L3255 126C3244 82 3239 50 3239 24C3239 3 3248 -9 3265 -9C3282 -9 3306 3 3340 28L3421 88L3411 107L3367 76C3353 66 3337 59 3328 59C3320 59 3314 68 3314 82C3314 90 3315 99 3322 128ZM3079 59C3063 59 3054 73 3054 98C3054 224 3100 380 3149 418C3162 428 3181 433 3208 433C3252 433 3281 427 3314 410L3302 351C3265 171 3124 59 3079 59ZM3792 111L3768 94C3715 56 3667 36 3631 36C3584 36 3555 73 3555 133C3555 158 3558 185 3563 214C3580 218 3689 248 3714 259C3799 296 3838 342 3838 404C3838 451 3804 482 3754 482C3686 496 3576 423 3539 349C3509 299 3479 180 3479 113C3479 35 3523 -11 3595 -11C3652 -11 3708 17 3800 92ZM3577 274C3594 343 3614 386 3643 412C3661 428 3692 440 3716 440C3745 440 3764 420 3764 388C3764 344 3729 297 3677 272C3649 258 3613 247 3568 237ZM4372 204L4343 77C4339 60 4337 42 4337 26C4337 4 4346 -9 4361 -9C4384 -9 4425 17 4507 85L4500 106C4476 86 4447 59 4425 59C4416 59 4410 68 4410 82C4410 87 4410 90 4411 93L4503 472L4493 481L4460 463C4419 478 4402 482 4375 482C4347 482 4327 477 4300 464C4238 433 4205 403 4180 354C4136 265 4105 145 4105 67C4105 23 4120 -11 4139 -11C4176 -11 4256 41 4372 204ZM4420 414C4398 305 4379 253 4345 201C4288 117 4227 59 4195 59C4183 59 4177 72 4177 99C4177 163 4205 280 4240 360C4264 415 4287 433 4335 433C4358 433 4376 429 4420 414ZM4720 -11C4776 -11 4891 62 4934 125C4975 186 5009 296 5009 371C5009 438 4986 482 4950 482C4908 482 4855 456 4803 409C4762 374 4742 348 4706 289L4730 408C4733 425 4735 440 4735 452C4735 471 4727 482 4713 482C4692 482 4654 461 4580 408L4552 388L4559 368L4591 389C4619 407 4630 412 4639 412C4649 412 4656 403 4656 389C4656 381 4654 361 4652 351L4594 8C4584 -52 4565 -143 4545 -233L4537 -270L4544 -276C4565 -269 4585 -264 4617 -259L4659 3C4680 -4 4702 -11 4720 -11ZM4687 165C4709 293 4816 424 4899 424C4925 424 4937 402 4937 356C4937 275 4897 156 4844 80C4824 51 4792 36 4751 36C4720 36 4695 43 4669 59ZM5294 722L5282 733C5230 707 5194 698 5122 691L5118 670L5166 670C5190 670 5200 663 5200 648C5200 645 5200 640 5197 622C5186 567 5113 182 5098 132C5085 82 5079 52 5079 31C5079 6 5090 -9 5109 -9C5135 -9 5171 12 5269 85L5259 103L5233 86C5204 67 5182 56 5172 56C5165 56 5159 66 5159 76C5159 82 5160 89 5163 104ZM5354 388L5361 368L5393 389C5430 412 5433 414 5440 414C5450 414 5458 404 5458 391C5458 384 5454 361 5450 347L5384 107C5376 76 5371 49 5371 30C5371 6 5382 -9 5401 -9C5427 -9 5463 12 5561 85L5551 103L5525 86C5496 67 5473 56 5464 56C5457 56 5451 66 5451 76C5451 86 5453 95 5458 116L5535 420C5539 437 5541 448 5541 456C5541 473 5532 482 5516 482C5494 482 5457 461 5382 408ZM5548 712C5519 712 5490 679 5490 645C5490 620 5505 604 5529 604C5560 604 5584 633 5584 671C5584 695 5569 712 5548 712ZM5939 330L5962 330C5970 395 5977 432 5986 458C5962 473 5927 482 5890 482C5845 483 5772 463 5715 400C5661 352 5622 241 5622 136C5622 40 5664 -11 5744 -11C5798 -11 5846 9 5901 54L5951 95L5943 115L5928 105C5856 57 5818 40 5783 40C5727 40 5698 80 5698 159C5698 267 5733 371 5782 409C5803 425 5827 433 5858 433C5903 433 5939 414 5939 390ZM6274 204L6245 77C6241 60 6239 42 6239 26C6239 4 6248 -9 6263 -9C6286 -9 6327 17 6409 85L6402 106C6378 86 6349 59 6327 59C6318 59 6312 68 6312 82C6312 87 6312 90 6313 93L6405 472L6395 481L6362 463C6321 478 6304 482 6277 482C6249 482 6229 477 6202 464C6140 433 6107 403 6082 354C6038 265 6007 145 6007 67C6007 23 6022 -11 6041 -11C6078 -11 6158 41 6274 204ZM6322 414C6300 305 6281 253 6247 201C6190 117 6129 59 6097 59C6085 59 6079 72 6079 99C6079 163 6107 280 6142 360C6166 415 6189 433 6237 433C6260 433 6278 429 6322 414ZM6788 330L6811 330C6819 395 6826 432 6835 458C6811 473 6776 482 6739 482C6694 483 6621 463 6564 400C6510 352 6471 241 6471 136C6471 40 6513 -11 6593 -11C6647 -11 6695 9 6750 54L6800 95L6792 115L6777 105C6705 57 6667 40 6632 40C6576 40 6547 80 6547 159C6547 267 6582 371 6631 409C6652 425 6676 433 6707 433C6752 433 6788 414 6788 390ZM6886 388L6893 368L6925 389C6962 412 6965 414 6972 414C6982 414 6990 404 6990 391C6990 384 6986 361 6982 347L6916 107C6908 76 6903 49 6903 30C6903 6 6914 -9 6933 -9C6959 -9 6995 12 7093 85L7083 103L7057 86C7028 67 7005 56 6996 56C6989 56 6983 66 6983 76C6983 86 6985 95 6990 116L7067 420C7071 437 7073 448 7073 456C7073 473 7064 482 7048 482C7026 482 6989 461 6914 408ZM7080 712C7051 712 7022 679 7022 645C7022 620 7037 604 7061 604C7092 604 7116 633 7116 671C7116 695 7101 712 7080 712ZM7146 152C7146 46 7191 -11 7274 -11C7329 -11 7389 15 7434 57C7496 116 7540 230 7540 331C7540 425 7490 482 7407 482C7303 482 7146 382 7146 152ZM7370 444C7431 444 7464 399 7464 315C7464 219 7433 113 7389 60C7371 39 7345 27 7314 27C7256 27 7222 72 7222 151C7222 264 7261 387 7310 427C7323 438 7346 444 7370 444ZM7596 388L7603 368L7635 389C7672 412 7675 414 7682 414C7693 414 7700 404 7700 389C7700 338 7659 145 7618 2L7625 -9C7650 -2 7673 4 7695 8C7714 134 7735 199 7781 268C7835 352 7910 414 7955 414C7966 414 7972 405 7972 390C7972 372 7969 351 7961 319L7909 107C7900 70 7896 47 7896 31C7896 6 7907 -9 7926 -9C7952 -9 7988 12 8086 85L8076 103L8050 86C8021 67 7999 56 7989 56C7982 56 7976 65 7976 76C7976 81 7977 92 7978 96L8044 372C8051 401 8055 429 8055 446C8055 469 8044 482 8024 482C7982 482 7913 444 7854 389C7816 354 7788 320 7736 247L7774 408C7778 426 7780 438 7780 449C7780 470 7772 482 7757 482C7736 482 7697 460 7624 408Z" stroke="rgb(0,0,0)" stroke-opacity="1" stroke-width="8" fill="rgb(0,0,0)" fill-opacity="1"></path></g></g></g></g></svg>