<svg xmlns="http://www.w3.org/2000/svg" xmlns:xlink="http://www.w3.org/1999/xlink" width="224.95001220703125" height="166.66000366210938" style="width:224.95001220703125px;height:166.66000366210938px;font-family:Asana-Math, Asana;background:#FFF;"><g><g><g><g transform="matrix(1,0,0,1,2,18.040000915527344)"><path transform="matrix(0.017,0,0,-0.017,0,0)" d="M349 664L352 692L238 689C222 689 204 689 161 690L97 692L94 664L141 662C165 661 176 653 176 635L81 55C77 37 65 30 21 23L16 -3L57 -2C88 -1 150 0 170 0C170 0 467 -1 467 -1C467 -1 500 0 500 0C499 25 510 103 523 165L492 165L475 103C466 71 457 54 448 49C435 44 371 39 304 39C255 39 228 40 162 46C165 64 256 605 256 613C263 651 270 658 307 661ZM572 152C572 46 617 -11 700 -11C755 -11 815 15 860 57C922 116 966 230 966 331C966 425 916 482 833 482C729 482 572 382 572 152ZM796 444C857 444 890 399 890 315C890 219 859 113 815 60C797 39 771 27 740 27C682 27 648 72 648 151C648 264 687 387 736 427C749 438 772 444 796 444ZM1029 148C1024 97 1018 62 1007 16C1045 -2 1079 -11 1114 -11C1163 -11 1209 7 1260 47C1311 87 1332 124 1332 174C1332 228 1300 257 1226 271L1183 279C1123 290 1104 307 1104 348C1104 401 1149 442 1206 442C1247 442 1285 424 1301 397L1301 342L1324 342C1328 377 1332 404 1343 455C1304 474 1276 482 1243 482C1191 482 1130 452 1082 404C1056 377 1045 352 1045 316C1045 260 1076 228 1142 215L1205 203C1249 195 1265 177 1265 138C1265 73 1219 29 1148 29C1113 29 1082 40 1054 64L1054 148ZM1652 152C1652 46 1697 -11 1780 -11C1835 -11 1895 15 1940 57C2002 116 2046 230 2046 331C2046 425 1996 482 1913 482C1809 482 1652 382 1652 152ZM1876 444C1937 444 1970 399 1970 315C1970 219 1939 113 1895 60C1877 39 1851 27 1820 27C1762 27 1728 72 1728 151C1728 264 1767 387 1816 427C1829 438 1852 444 1876 444ZM2313 722L2301 733C2249 707 2213 698 2141 691L2137 670L2185 670C2209 670 2219 663 2219 646C2219 639 2218 628 2217 622L2116 71C2115 68 2115 64 2115 61C2115 22 2163 -11 2218 -11C2255 -11 2306 8 2349 39C2445 107 2511 244 2511 376C2511 414 2502 453 2490 468C2483 477 2470 482 2455 482C2431 482 2401 474 2373 460C2322 433 2289 403 2227 324ZM2400 424C2426 424 2439 401 2439 352C2439 288 2418 202 2388 137C2355 68 2315 36 2261 36C2215 36 2190 59 2190 101C2190 135 2205 276 2286 361C2319 395 2371 424 2400 424ZM2734 351L2634 -144C2623 -196 2605 -231 2587 -231C2573 -231 2555 -225 2534 -212L2526 -269C2536 -274 2549 -276 2564 -276C2604 -276 2644 -233 2680 -152C2700 -107 2714 -57 2742 70L2818 420C2822 438 2824 451 2824 457C2824 473 2815 482 2799 482C2777 482 2740 461 2665 408L2637 388L2644 368L2676 389C2713 412 2716 414 2723 414C2733 414 2741 404 2741 391C2741 382 2734 356 2734 351ZM2825 712C2796 712 2767 679 2767 645C2767 620 2782 604 2806 604C2837 604 2861 633 2861 671C2861 695 2846 712 2825 712ZM3195 111L3171 94C3118 56 3070 36 3034 36C2987 36 2958 73 2958 133C2958 158 2961 185 2966 214C2983 218 3092 248 3117 259C3202 296 3241 342 3241 404C3241 451 3207 482 3157 482C3089 496 2979 423 2942 349C2912 299 2882 180 2882 113C2882 35 2926 -11 2998 -11C3055 -11 3111 17 3203 92ZM2980 274C2997 343 3017 386 3046 412C3064 428 3095 440 3119 440C3148 440 3167 420 3167 388C3167 344 3132 297 3080 272C3052 258 3016 247 2971 237ZM3380 390L3324 107C3323 99 3311 61 3311 31C3311 6 3322 -9 3341 -9C3376 -9 3411 11 3489 74L3520 99L3510 117L3465 86C3436 66 3416 56 3405 56C3396 56 3391 64 3391 76C3391 102 3405 183 3434 328L3447 390L3554 390L3565 440C3527 436 3493 434 3455 434C3471 528 3482 577 3500 631L3489 646C3469 634 3442 622 3411 610L3386 440C3342 419 3316 408 3298 403L3296 390ZM3604 152C3604 46 3649 -11 3732 -11C3787 -11 3847 15 3892 57C3954 116 3998 230 3998 331C3998 425 3948 482 3865 482C3761 482 3604 382 3604 152ZM3828 444C3889 444 3922 399 3922 315C3922 219 3891 113 3847 60C3829 39 3803 27 3772 27C3714 27 3680 72 3680 151C3680 264 3719 387 3768 427C3781 438 3804 444 3828 444ZM4061 148C4056 97 4050 62 4039 16C4077 -2 4111 -11 4146 -11C4195 -11 4241 7 4292 47C4343 87 4364 124 4364 174C4364 228 4332 257 4258 271L4215 279C4155 290 4136 307 4136 348C4136 401 4181 442 4238 442C4279 442 4317 424 4333 397L4333 342L4356 342C4360 377 4364 404 4375 455C4336 474 4308 482 4275 482C4223 482 4162 452 4114 404C4088 377 4077 352 4077 316C4077 260 4108 228 4174 215L4237 203C4281 195 4297 177 4297 138C4297 73 4251 29 4180 29C4145 29 4114 40 4086 64L4086 148ZM4698 148C4693 97 4687 62 4676 16C4714 -2 4748 -11 4783 -11C4832 -11 4878 7 4929 47C4980 87 5001 124 5001 174C5001 228 4969 257 4895 271L4852 279C4792 290 4773 307 4773 348C4773 401 4818 442 4875 442C4916 442 4954 424 4970 397L4970 342L4993 342C4997 377 5001 404 5012 455C4973 474 4945 482 4912 482C4860 482 4799 452 4751 404C4725 377 4714 352 4714 316C4714 260 4745 228 4811 215L4874 203C4918 195 4934 177 4934 138C4934 73 4888 29 4817 29C4782 29 4751 40 4723 64L4723 148ZM5383 111L5359 94C5306 56 5258 36 5222 36C5175 36 5146 73 5146 133C5146 158 5149 185 5154 214C5171 218 5280 248 5305 259C5390 296 5429 342 5429 404C5429 451 5395 482 5345 482C5277 496 5167 423 5130 349C5100 299 5070 180 5070 113C5070 35 5114 -11 5186 -11C5243 -11 5299 17 5391 92ZM5168 274C5185 343 5205 386 5234 412C5252 428 5283 440 5307 440C5336 440 5355 420 5355 388C5355 344 5320 297 5268 272C5240 258 5204 247 5159 237ZM5718 482C5651 482 5498 419 5498 259C5498 182 5543 136 5620 136C5628 136 5639 136 5650 137L5609 99C5593 84 5582 66 5582 52C5582 42 5589 31 5603 19C5534 -4 5406 -48 5406 -159C5406 -230 5476 -276 5585 -276C5714 -276 5827 -204 5827 -121C5827 -85 5806 -49 5763 -14L5703 35C5669 62 5656 81 5656 100C5656 114 5671 128 5683 146C5781 170 5852 253 5852 342C5852 357 5849 376 5848 380C5865 378 5873 378 5882 378C5899 378 5909 379 5932 382L5941 427L5938 433C5910 426 5890 424 5836 424C5836 425 5812 482 5718 482ZM5619 1L5696 -58C5742 -94 5761 -121 5761 -154C5761 -206 5692 -248 5609 -248C5527 -248 5470 -206 5470 -145C5470 -43 5580 -11 5619 1ZM5693 448C5751 448 5780 412 5780 341C5780 238 5732 168 5662 168C5601 168 5569 209 5569 288C5569 383 5620 448 5693 448ZM6434 473L6427 482L6359 465L6349 414C6334 336 6309 268 6278 221C6219 130 6141 59 6101 59C6093 59 6088 68 6088 85C6088 99 6090 112 6095 137L6152 408C6155 424 6157 438 6157 451C6157 470 6148 482 6134 482C6114 482 6076 461 6002 408L5974 388L5981 368L6013 389C6041 407 6052 412 6061 412C6070 412 6078 403 6078 392C6078 388 6077 378 6076 374L6013 77C6011 68 6009 44 6009 30C6009 7 6024 -11 6044 -11C6107 -11 6228 101 6312 239L6275 97C6268 73 6264 46 6264 31C6264 6 6275 -9 6294 -9C6320 -9 6356 12 6454 85L6444 103L6418 86C6394 70 6368 59 6357 59C6349 59 6344 66 6344 76C6344 112 6419 416 6434 473ZM6531 388L6538 368L6570 389C6607 412 6610 414 6617 414C6627 414 6635 404 6635 391C6635 384 6631 361 6627 347L6561 107C6553 76 6548 49 6548 30C6548 6 6559 -9 6578 -9C6604 -9 6640 12 6738 85L6728 103L6702 86C6673 67 6650 56 6641 56C6634 56 6628 66 6628 76C6628 86 6630 95 6635 116L6712 420C6716 437 6718 448 6718 456C6718 473 6709 482 6693 482C6671 482 6634 461 6559 408ZM6725 712C6696 712 6667 679 6667 645C6667 620 6682 604 6706 604C6737 604 6761 633 6761 671C6761 695 6746 712 6725 712ZM7142 365C7145 403 7150 435 7158 476C7147 481 7143 482 7138 482C7107 482 7076 458 7040 407C7001 351 6962 291 6946 256L6978 408C6982 425 6984 438 6984 450C6984 470 6976 482 6961 482C6940 482 6902 461 6828 408L6800 388L6807 368L6839 389C6867 407 6878 412 6887 412C6897 412 6904 403 6904 390C6904 332 6861 126 6821 -2L6831 -9C6846 -4 6862 -1 6885 4L6898 6L6924 126C6942 209 6965 262 7009 319C7043 363 7070 384 7092 384C7107 384 7117 379 7128 365ZM7433 204L7404 77C7400 60 7398 42 7398 26C7398 4 7407 -9 7422 -9C7445 -9 7486 17 7568 85L7561 106C7537 86 7508 59 7486 59C7477 59 7471 68 7471 82C7471 87 7471 90 7472 93L7564 472L7554 481L7521 463C7480 478 7463 482 7436 482C7408 482 7388 477 7361 464C7299 433 7266 403 7241 354C7197 265 7166 145 7166 67C7166 23 7181 -11 7200 -11C7237 -11 7317 41 7433 204ZM7481 414C7459 305 7440 253 7406 201C7349 117 7288 59 7256 59C7244 59 7238 72 7238 99C7238 163 7266 280 7301 360C7325 415 7348 433 7396 433C7419 433 7437 429 7481 414ZM7629 388L7636 368L7668 389C7705 412 7708 414 7715 414C7726 414 7733 404 7733 389C7733 338 7692 145 7651 2L7658 -9C7683 -2 7706 4 7728 8C7747 134 7768 199 7814 268C7868 352 7943 414 7988 414C7999 414 8005 405 8005 390C8005 372 8002 351 7994 319L7942 107C7933 70 7929 47 7929 31C7929 6 7940 -9 7959 -9C7985 -9 8021 12 8119 85L8109 103L8083 86C8054 67 8032 56 8022 56C8015 56 8009 65 8009 76C8009 81 8010 92 8011 96L8077 372C8084 401 8088 429 8088 446C8088 469 8077 482 8057 482C8015 482 7946 444 7887 389C7849 354 7821 320 7769 247L7807 408C7811 426 7813 438 7813 449C7813 470 7805 482 7790 482C7769 482 7730 460 7657 408ZM8603 351L8503 -144C8492 -196 8474 -231 8456 -231C8442 -231 8424 -225 8403 -212L8395 -269C8405 -274 8418 -276 8433 -276C8473 -276 8513 -233 8549 -152C8569 -107 8583 -57 8611 70L8687 420C8691 438 8693 451 8693 457C8693 473 8684 482 8668 482C8646 482 8609 461 8534 408L8506 388L8513 368L8545 389C8582 412 8585 414 8592 414C8602 414 8610 404 8610 391C8610 382 8603 356 8603 351ZM8694 712C8665 712 8636 679 8636 645C8636 620 8651 604 8675 604C8706 604 8730 633 8730 671C8730 695 8715 712 8694 712ZM9228 473L9221 482L9153 465L9143 414C9128 336 9103 268 9072 221C9013 130 8935 59 8895 59C8887 59 8882 68 8882 85C8882 99 8884 112 8889 137L8946 408C8949 424 8951 438 8951 451C8951 470 8942 482 8928 482C8908 482 8870 461 8796 408L8768 388L8775 368L8807 389C8835 407 8846 412 8855 412C8864 412 8872 403 8872 392C8872 388 8871 378 8870 374L8807 77C8805 68 8803 44 8803 30C8803 7 8818 -11 8838 -11C8901 -11 9022 101 9106 239L9069 97C9062 73 9058 46 9058 31C9058 6 9069 -9 9088 -9C9114 -9 9150 12 9248 85L9238 103L9212 86C9188 70 9162 59 9151 59C9143 59 9138 66 9138 76C9138 112 9213 416 9228 473ZM9315 388L9322 368L9354 389C9391 412 9394 414 9401 414C9412 414 9419 404 9419 389C9419 338 9378 145 9337 2L9344 -9C9369 -2 9392 4 9414 8C9433 134 9454 199 9500 268C9554 352 9629 414 9674 414C9685 414 9691 405 9691 390C9691 372 9688 351 9680 319L9628 107C9619 70 9615 47 9615 31C9615 6 9626 -9 9645 -9C9671 -9 9707 12 9805 85L9795 103L9769 86C9740 67 9718 56 9708 56C9701 56 9695 65 9695 76C9695 81 9696 92 9697 96L9763 372C9770 401 9774 429 9774 446C9774 469 9763 482 9743 482C9701 482 9632 444 9573 389C9535 354 9507 320 9455 247L9493 408C9497 426 9499 438 9499 449C9499 470 9491 482 9476 482C9455 482 9416 460 9343 408ZM9971 390L9915 107C9914 99 9902 61 9902 31C9902 6 9913 -9 9932 -9C9967 -9 10002 11 10080 74L10111 99L10101 117L10056 86C10027 66 10007 56 9996 56C9987 56 9982 64 9982 76C9982 102 9996 183 10025 328L10038 390L10145 390L10156 440C10118 436 10084 434 10046 434C10062 528 10073 577 10091 631L10080 646C10060 634 10033 622 10002 610L9977 440C9933 419 9907 408 9889 403L9887 390ZM10195 152C10195 46 10240 -11 10323 -11C10378 -11 10438 15 10483 57C10545 116 10589 230 10589 331C10589 425 10539 482 10456 482C10352 482 10195 382 10195 152ZM10419 444C10480 444 10513 399 10513 315C10513 219 10482 113 10438 60C10420 39 10394 27 10363 27C10305 27 10271 72 10271 151C10271 264 10310 387 10359 427C10372 438 10395 444 10419 444ZM10652 148C10647 97 10641 62 10630 16C10668 -2 10702 -11 10737 -11C10786 -11 10832 7 10883 47C10934 87 10955 124 10955 174C10955 228 10923 257 10849 271L10806 279C10746 290 10727 307 10727 348C10727 401 10772 442 10829 442C10870 442 10908 424 10924 397L10924 342L10947 342C10951 377 10955 404 10966 455C10927 474 10899 482 10866 482C10814 482 10753 452 10705 404C10679 377 10668 352 10668 316C10668 260 10699 228 10765 215L10828 203C10872 195 10888 177 10888 138C10888 73 10842 29 10771 29C10736 29 10705 40 10677 64L10677 148ZM11434 -11C11490 -11 11605 62 11648 125C11689 186 11723 296 11723 371C11723 438 11700 482 11664 482C11622 482 11569 456 11517 409C11476 374 11456 348 11420 289L11444 408C11447 425 11449 440 11449 452C11449 471 11441 482 11427 482C11406 482 11368 461 11294 408L11266 388L11273 368L11305 389C11333 407 11344 412 11353 412C11363 412 11370 403 11370 389C11370 381 11368 361 11366 351L11308 8C11298 -52 11279 -143 11259 -233L11251 -270L11258 -276C11279 -269 11299 -264 11331 -259L11373 3C11394 -4 11416 -11 11434 -11ZM11401 165C11423 293 11530 424 11613 424C11639 424 11651 402 11651 356C11651 275 11611 156 11558 80C11538 51 11506 36 11465 36C11434 36 11409 43 11383 59ZM11774 152C11774 46 11819 -11 11902 -11C11957 -11 12017 15 12062 57C12124 116 12168 230 12168 331C12168 425 12118 482 12035 482C11931 482 11774 382 11774 152ZM11998 444C12059 444 12092 399 12092 315C12092 219 12061 113 12017 60C11999 39 11973 27 11942 27C11884 27 11850 72 11850 151C11850 264 11889 387 11938 427C11951 438 11974 444 11998 444ZM12568 365C12571 403 12576 435 12584 476C12573 481 12569 482 12564 482C12533 482 12502 458 12466 407C12427 351 12388 291 12372 256L12404 408C12408 425 12410 438 12410 450C12410 470 12402 482 12387 482C12366 482 12328 461 12254 408L12226 388L12233 368L12265 389C12293 407 12304 412 12313 412C12323 412 12330 403 12330 390C12330 332 12287 126 12247 -2L12257 -9C12272 -4 12288 -1 12311 4L12324 6L12350 126C12368 209 12391 262 12435 319C12469 363 12496 384 12518 384C12533 384 12543 379 12554 365Z" stroke="rgb(0,0,0)" stroke-opacity="1" stroke-width="8" fill="rgb(0,0,0)" fill-opacity="1"></path></g></g></g><g><g><g transform="matrix(1,0,0,1,2,38.20000457763672)"><path transform="matrix(0.017,0,0,-0.017,0,0)" d="M251 722L239 733C187 707 151 698 79 691L75 670L123 670C147 670 157 663 157 648C157 645 157 640 154 622C143 567 70 182 55 132C42 82 36 52 36 31C36 6 47 -9 66 -9C92 -9 128 12 226 85L216 103L190 86C161 67 139 56 129 56C122 56 116 66 116 76C116 82 117 89 120 104ZM294 152C294 46 339 -11 422 -11C477 -11 537 15 582 57C644 116 688 230 688 331C688 425 638 482 555 482C451 482 294 382 294 152ZM518 444C579 444 612 399 612 315C612 219 581 113 537 60C519 39 493 27 462 27C404 27 370 72 370 151C370 264 409 387 458 427C471 438 494 444 518 444ZM1354 458C1311 475 1282 482 1253 482C1178 482 1090 394 1072 374C1032 327 993 181 993 78C993 19 1005 -11 1029 -11C1051 -11 1070 -3 1102 19C1149 51 1228 121 1277 209L1201 -205C1196 -229 1186 -249 1174 -262L1183 -276C1214 -268 1245 -262 1269 -259C1273 -205 1279 -150 1288 -100L1374 356C1385 417 1391 443 1401 474L1387 480ZM1087 59C1073 59 1065 80 1065 113C1065 209 1108 359 1150 409C1162 424 1191 433 1223 433C1251 433 1272 427 1320 406L1299 311C1270 174 1129 59 1087 59ZM1923 473L1916 482L1848 465L1838 414C1823 336 1798 268 1767 221C1708 130 1630 59 1590 59C1582 59 1577 68 1577 85C1577 99 1579 112 1584 137L1641 408C1644 424 1646 438 1646 451C1646 470 1637 482 1623 482C1603 482 1565 461 1491 408L1463 388L1470 368L1502 389C1530 407 1541 412 1550 412C1559 412 1567 403 1567 392C1567 388 1566 378 1565 374L1502 77C1500 68 1498 44 1498 30C1498 7 1513 -11 1533 -11C1596 -11 1717 101 1801 239L1764 97C1757 73 1753 46 1753 31C1753 6 1764 -9 1783 -9C1809 -9 1845 12 1943 85L1933 103L1907 86C1883 70 1857 59 1846 59C1838 59 1833 66 1833 76C1833 112 1908 416 1923 473ZM2314 111L2290 94C2237 56 2189 36 2153 36C2106 36 2077 73 2077 133C2077 158 2080 185 2085 214C2102 218 2211 248 2236 259C2321 296 2360 342 2360 404C2360 451 2326 482 2276 482C2208 496 2098 423 2061 349C2031 299 2001 180 2001 113C2001 35 2045 -11 2117 -11C2174 -11 2230 17 2322 92ZM2099 274C2116 343 2136 386 2165 412C2183 428 2214 440 2238 440C2267 440 2286 420 2286 388C2286 344 2251 297 2199 272C2171 258 2135 247 2090 237ZM2654 148C2649 97 2643 62 2632 16C2670 -2 2704 -11 2739 -11C2788 -11 2834 7 2885 47C2936 87 2957 124 2957 174C2957 228 2925 257 2851 271L2808 279C2748 290 2729 307 2729 348C2729 401 2774 442 2831 442C2872 442 2910 424 2926 397L2926 342L2949 342C2953 377 2957 404 2968 455C2929 474 2901 482 2868 482C2816 482 2755 452 2707 404C2681 377 2670 352 2670 316C2670 260 2701 228 2767 215L2830 203C2874 195 2890 177 2890 138C2890 73 2844 29 2773 29C2738 29 2707 40 2679 64L2679 148ZM3503 473L3496 482L3428 465L3418 414C3403 336 3378 268 3347 221C3288 130 3210 59 3170 59C3162 59 3157 68 3157 85C3157 99 3159 112 3164 137L3221 408C3224 424 3226 438 3226 451C3226 470 3217 482 3203 482C3183 482 3145 461 3071 408L3043 388L3050 368L3082 389C3110 407 3121 412 3130 412C3139 412 3147 403 3147 392C3147 388 3146 378 3145 374L3082 77C3080 68 3078 44 3078 30C3078 7 3093 -11 3113 -11C3176 -11 3297 101 3381 239L3344 97C3337 73 3333 46 3333 31C3333 6 3344 -9 3363 -9C3389 -9 3425 12 3523 85L3513 103L3487 86C3463 70 3437 59 3426 59C3418 59 3413 66 3413 76C3413 112 3488 416 3503 473ZM3597 148C3592 97 3586 62 3575 16C3613 -2 3647 -11 3682 -11C3731 -11 3777 7 3828 47C3879 87 3900 124 3900 174C3900 228 3868 257 3794 271L3751 279C3691 290 3672 307 3672 348C3672 401 3717 442 3774 442C3815 442 3853 424 3869 397L3869 342L3892 342C3896 377 3900 404 3911 455C3872 474 3844 482 3811 482C3759 482 3698 452 3650 404C3624 377 3613 352 3613 316C3613 260 3644 228 3710 215L3773 203C3817 195 3833 177 3833 138C3833 73 3787 29 3716 29C3681 29 3650 40 3622 64L3622 148ZM4933 103L4907 86C4878 67 4856 56 4846 56C4839 56 4833 65 4833 76C4833 86 4835 95 4840 116L4915 413C4919 430 4922 446 4922 454C4922 471 4912 482 4896 482C4867 482 4829 464 4768 421C4705 376 4670 341 4621 272L4651 409C4655 429 4658 444 4658 451C4658 470 4648 482 4632 482C4602 482 4556 460 4501 418C4457 384 4437 363 4372 275L4405 408C4409 424 4411 439 4411 451C4411 470 4402 482 4388 482C4367 482 4329 461 4255 408L4227 388L4234 368C4271 391 4306 414 4313 414C4324 414 4331 404 4331 389C4331 338 4290 145 4249 2L4252 -9L4320 6L4342 108C4366 219 4393 278 4448 338C4490 384 4535 414 4563 414C4570 414 4574 406 4574 393C4574 358 4552 244 4511 69L4495 2L4500 -9L4569 6L4590 113C4606 194 4640 269 4684 318C4739 379 4789 414 4821 414C4829 414 4834 405 4834 389C4834 365 4831 351 4809 264C4769 105 4753 84 4753 31C4753 6 4764 -9 4783 -9C4809 -9 4845 12 4943 85ZM5251 204L5222 77C5218 60 5216 42 5216 26C5216 4 5225 -9 5240 -9C5263 -9 5304 17 5386 85L5379 106C5355 86 5326 59 5304 59C5295 59 5289 68 5289 82C5289 87 5289 90 5290 93L5382 472L5372 481L5339 463C5298 478 5281 482 5254 482C5226 482 5206 477 5179 464C5117 433 5084 403 5059 354C5015 265 4984 145 4984 67C4984 23 4999 -11 5018 -11C5055 -11 5135 41 5251 204ZM5299 414C5277 305 5258 253 5224 201C5167 117 5106 59 5074 59C5062 59 5056 72 5056 99C5056 163 5084 280 5119 360C5143 415 5166 433 5214 433C5237 433 5255 429 5299 414ZM5454 148C5449 97 5443 62 5432 16C5470 -2 5504 -11 5539 -11C5588 -11 5634 7 5685 47C5736 87 5757 124 5757 174C5757 228 5725 257 5651 271L5608 279C5548 290 5529 307 5529 348C5529 401 5574 442 5631 442C5672 442 5710 424 5726 397L5726 342L5749 342C5753 377 5757 404 5768 455C5729 474 5701 482 5668 482C5616 482 5555 452 5507 404C5481 377 5470 352 5470 316C5470 260 5501 228 5567 215L5630 203C5674 195 5690 177 5690 138C5690 73 5644 29 5573 29C5538 29 5507 40 5479 64L5479 148ZM6082 204L6053 77C6049 60 6047 42 6047 26C6047 4 6056 -9 6071 -9C6094 -9 6135 17 6217 85L6210 106C6186 86 6157 59 6135 59C6126 59 6120 68 6120 82C6120 87 6120 90 6121 93L6213 472L6203 481L6170 463C6129 478 6112 482 6085 482C6057 482 6037 477 6010 464C5948 433 5915 403 5890 354C5846 265 5815 145 5815 67C5815 23 5830 -11 5849 -11C5886 -11 5966 41 6082 204ZM6130 414C6108 305 6089 253 6055 201C5998 117 5937 59 5905 59C5893 59 5887 72 5887 99C5887 163 5915 280 5950 360C5974 415 5997 433 6045 433C6068 433 6086 429 6130 414ZM6285 148C6280 97 6274 62 6263 16C6301 -2 6335 -11 6370 -11C6419 -11 6465 7 6516 47C6567 87 6588 124 6588 174C6588 228 6556 257 6482 271L6439 279C6379 290 6360 307 6360 348C6360 401 6405 442 6462 442C6503 442 6541 424 6557 397L6557 342L6580 342C6584 377 6588 404 6599 455C6560 474 6532 482 6499 482C6447 482 6386 452 6338 404C6312 377 6301 352 6301 316C6301 260 6332 228 6398 215L6461 203C6505 195 6521 177 6521 138C6521 73 6475 29 6404 29C6369 29 6338 40 6310 64L6310 148ZM6922 148C6917 97 6911 62 6900 16C6938 -2 6972 -11 7007 -11C7056 -11 7102 7 7153 47C7204 87 7225 124 7225 174C7225 228 7193 257 7119 271L7076 279C7016 290 6997 307 6997 348C6997 401 7042 442 7099 442C7140 442 7178 424 7194 397L7194 342L7217 342C7221 377 7225 404 7236 455C7197 474 7169 482 7136 482C7084 482 7023 452 6975 404C6949 377 6938 352 6938 316C6938 260 6969 228 7035 215L7098 203C7142 195 7158 177 7158 138C7158 73 7112 29 7041 29C7006 29 6975 40 6947 64L6947 148ZM7607 111L7583 94C7530 56 7482 36 7446 36C7399 36 7370 73 7370 133C7370 158 7373 185 7378 214C7395 218 7504 248 7529 259C7614 296 7653 342 7653 404C7653 451 7619 482 7569 482C7501 496 7391 423 7354 349C7324 299 7294 180 7294 113C7294 35 7338 -11 7410 -11C7467 -11 7523 17 7615 92ZM7392 274C7409 343 7429 386 7458 412C7476 428 7507 440 7531 440C7560 440 7579 420 7579 388C7579 344 7544 297 7492 272C7464 258 7428 247 7383 237ZM7947 148C7942 97 7936 62 7925 16C7963 -2 7997 -11 8032 -11C8081 -11 8127 7 8178 47C8229 87 8250 124 8250 174C8250 228 8218 257 8144 271L8101 279C8041 290 8022 307 8022 348C8022 401 8067 442 8124 442C8165 442 8203 424 8219 397L8219 342L8242 342C8246 377 8250 404 8261 455C8222 474 8194 482 8161 482C8109 482 8048 452 8000 404C7974 377 7963 352 7963 316C7963 260 7994 228 8060 215L8123 203C8167 195 8183 177 8183 138C8183 73 8137 29 8066 29C8031 29 8000 40 7972 64L7972 148ZM8796 473L8789 482L8721 465L8711 414C8696 336 8671 268 8640 221C8581 130 8503 59 8463 59C8455 59 8450 68 8450 85C8450 99 8452 112 8457 137L8514 408C8517 424 8519 438 8519 451C8519 470 8510 482 8496 482C8476 482 8438 461 8364 408L8336 388L8343 368L8375 389C8403 407 8414 412 8423 412C8432 412 8440 403 8440 392C8440 388 8439 378 8438 374L8375 77C8373 68 8371 44 8371 30C8371 7 8386 -11 8406 -11C8469 -11 8590 101 8674 239L8637 97C8630 73 8626 46 8626 31C8626 6 8637 -9 8656 -9C8682 -9 8718 12 8816 85L8806 103L8780 86C8756 70 8730 59 8719 59C8711 59 8706 66 8706 76C8706 112 8781 416 8796 473ZM9589 103L9563 86C9534 67 9512 56 9502 56C9495 56 9489 65 9489 76C9489 86 9491 95 9496 116L9571 413C9575 430 9578 446 9578 454C9578 471 9568 482 9552 482C9523 482 9485 464 9424 421C9361 376 9326 341 9277 272L9307 409C9311 429 9314 444 9314 451C9314 470 9304 482 9288 482C9258 482 9212 460 9157 418C9113 384 9093 363 9028 275L9061 408C9065 424 9067 439 9067 451C9067 470 9058 482 9044 482C9023 482 8985 461 8911 408L8883 388L8890 368C8927 391 8962 414 8969 414C8980 414 8987 404 8987 389C8987 338 8946 145 8905 2L8908 -9L8976 6L8998 108C9022 219 9049 278 9104 338C9146 384 9191 414 9219 414C9226 414 9230 406 9230 393C9230 358 9208 244 9167 69L9151 2L9156 -9L9225 6L9246 113C9262 194 9296 269 9340 318C9395 379 9445 414 9477 414C9485 414 9490 405 9490 389C9490 365 9487 351 9465 264C9425 105 9409 84 9409 31C9409 6 9420 -9 9439 -9C9465 -9 9501 12 9599 85ZM9907 204L9878 77C9874 60 9872 42 9872 26C9872 4 9881 -9 9896 -9C9919 -9 9960 17 10042 85L10035 106C10011 86 9982 59 9960 59C9951 59 9945 68 9945 82C9945 87 9945 90 9946 93L10038 472L10028 481L9995 463C9954 478 9937 482 9910 482C9882 482 9862 477 9835 464C9773 433 9740 403 9715 354C9671 265 9640 145 9640 67C9640 23 9655 -11 9674 -11C9711 -11 9791 41 9907 204ZM9955 414C9933 305 9914 253 9880 201C9823 117 9762 59 9730 59C9718 59 9712 72 9712 99C9712 163 9740 280 9775 360C9799 415 9822 433 9870 433C9893 433 9911 429 9955 414ZM10103 388L10110 368L10142 389C10179 412 10182 414 10189 414C10200 414 10207 404 10207 389C10207 338 10166 145 10125 2L10132 -9C10157 -2 10180 4 10202 8C10221 134 10242 199 10288 268C10342 352 10417 414 10462 414C10473 414 10479 405 10479 390C10479 372 10476 351 10468 319L10416 107C10407 70 10403 47 10403 31C10403 6 10414 -9 10433 -9C10459 -9 10495 12 10593 85L10583 103L10557 86C10528 67 10506 56 10496 56C10489 56 10483 65 10483 76C10483 81 10484 92 10485 96L10551 372C10558 401 10562 429 10562 446C10562 469 10551 482 10531 482C10489 482 10420 444 10361 389C10323 354 10295 320 10243 247L10281 408C10285 426 10287 438 10287 449C10287 470 10279 482 10264 482C10243 482 10204 460 10131 408ZM10876 -180C10875 -187 10875 -193 10875 -198C10875 -241 10912 -276 10957 -276C11063 -276 11173 -152 11232 33L11373 473L11362 482C11333 471 11310 465 11288 463L11253 331C11241 284 11206 211 11173 162C11138 111 11089 67 11067 67C11055 67 11046 90 11047 115L11063 322C11065 353 11067 391 11067 419C11067 464 11060 482 11043 482C11030 482 11016 475 10968 442L10886 386L10897 368L10947 398C10952 401 10963 410 10972 410C10986 410 10994 391 10994 358C10994 357 10994 351 10993 343L10976 100L10975 60C10975 18 10993 -11 11018 -11C11055 -11 11139 74 11214 187L11165 16C11114 -161 11064 -234 10994 -234C10959 -234 10932 -207 10932 -172C10932 -167 10933 -159 10934 -150L10924 -146ZM11662 148C11657 97 11651 62 11640 16C11678 -2 11712 -11 11747 -11C11796 -11 11842 7 11893 47C11944 87 11965 124 11965 174C11965 228 11933 257 11859 271L11816 279C11756 290 11737 307 11737 348C11737 401 11782 442 11839 442C11880 442 11918 424 11934 397L11934 342L11957 342C11961 377 11965 404 11976 455C11937 474 11909 482 11876 482C11824 482 11763 452 11715 404C11689 377 11678 352 11678 316C11678 260 11709 228 11775 215L11838 203C11882 195 11898 177 11898 138C11898 73 11852 29 11781 29C11746 29 11715 40 11687 64L11687 148ZM12511 473L12504 482L12436 465L12426 414C12411 336 12386 268 12355 221C12296 130 12218 59 12178 59C12170 59 12165 68 12165 85C12165 99 12167 112 12172 137L12229 408C12232 424 12234 438 12234 451C12234 470 12225 482 12211 482C12191 482 12153 461 12079 408L12051 388L12058 368L12090 389C12118 407 12129 412 12138 412C12147 412 12155 403 12155 392C12155 388 12154 378 12153 374L12090 77C12088 68 12086 44 12086 30C12086 7 12101 -11 12121 -11C12184 -11 12305 101 12389 239L12352 97C12345 73 12341 46 12341 31C12341 6 12352 -9 12371 -9C12397 -9 12433 12 12531 85L12521 103L12495 86C12471 70 12445 59 12434 59C12426 59 12421 66 12421 76C12421 112 12496 416 12511 473Z" stroke="rgb(0,0,0)" stroke-opacity="1" stroke-width="8" fill="rgb(0,0,0)" fill-opacity="1"></path></g></g></g><g><g><g transform="matrix(1,0,0,1,2,58.360008239746094)"><path transform="matrix(0.017,0,0,-0.017,0,0)" d="M166 420C187 420 203 421 229 424C118 304 76 221 76 121C76 44 122 -11 186 -11C324 -11 477 236 477 384C477 441 451 482 415 482C402 482 390 478 382 470L332 423L343 404C352 410 361 413 370 413C397 413 413 390 413 350C413 202 316 39 228 39C179 39 148 81 148 146C148 251 187 342 285 464L275 482C255 473 242 470 214 470C186 470 144 472 115 475L103 476C97 477 92 477 91 477C79 477 70 475 59 470C45 443 34 407 21 352L43 352L60 394C67 411 87 422 111 422C144 422 128 420 166 420ZM827 111L803 94C750 56 702 36 666 36C619 36 590 73 590 133C590 158 593 185 598 214C615 218 724 248 749 259C834 296 873 342 873 404C873 451 839 482 789 482C721 496 611 423 574 349C544 299 514 180 514 113C514 35 558 -11 630 -11C687 -11 743 17 835 92ZM612 274C629 343 649 386 678 412C696 428 727 440 751 440C780 440 799 420 799 388C799 344 764 297 712 272C684 258 648 247 603 237ZM1138 722L1126 733C1074 707 1038 698 966 691L962 670L1010 670C1034 670 1044 663 1044 648C1044 645 1044 640 1041 622C1030 567 957 182 942 132C929 82 923 52 923 31C923 6 934 -9 953 -9C979 -9 1015 12 1113 85L1103 103L1077 86C1048 67 1026 56 1016 56C1009 56 1003 66 1003 76C1003 82 1004 89 1007 104ZM1181 152C1181 46 1226 -11 1309 -11C1364 -11 1424 15 1469 57C1531 116 1575 230 1575 331C1575 425 1525 482 1442 482C1338 482 1181 382 1181 152ZM1405 444C1466 444 1499 399 1499 315C1499 219 1468 113 1424 60C1406 39 1380 27 1349 27C1291 27 1257 72 1257 151C1257 264 1296 387 1345 427C1358 438 1381 444 1405 444ZM1949 330L1972 330C1980 395 1987 432 1996 458C1972 473 1937 482 1900 482C1855 483 1782 463 1725 400C1671 352 1632 241 1632 136C1632 40 1674 -11 1754 -11C1808 -11 1856 9 1911 54L1961 95L1953 115L1938 105C1866 57 1828 40 1793 40C1737 40 1708 80 1708 159C1708 267 1743 371 1792 409C1813 425 1837 433 1868 433C1913 433 1949 414 1949 390ZM2047 388L2054 368L2086 389C2123 412 2126 414 2133 414C2143 414 2151 404 2151 391C2151 384 2147 361 2143 347L2077 107C2069 76 2064 49 2064 30C2064 6 2075 -9 2094 -9C2120 -9 2156 12 2254 85L2244 103L2218 86C2189 67 2166 56 2157 56C2150 56 2144 66 2144 76C2144 86 2146 95 2151 116L2228 420C2232 437 2234 448 2234 456C2234 473 2225 482 2209 482C2187 482 2150 461 2075 408ZM2241 712C2212 712 2183 679 2183 645C2183 620 2198 604 2222 604C2253 604 2277 633 2277 671C2277 695 2262 712 2241 712ZM2773 722L2761 733C2709 707 2673 698 2601 691L2597 670L2645 670C2669 670 2679 663 2679 646C2679 638 2678 629 2677 622L2649 468C2619 477 2592 482 2567 482C2498 482 2404 410 2358 323C2327 265 2307 170 2307 86C2307 21 2322 -11 2351 -11C2378 -11 2415 6 2449 33C2503 77 2536 116 2603 217L2580 126C2569 82 2564 50 2564 24C2564 3 2573 -9 2590 -9C2607 -9 2631 3 2665 28L2746 88L2736 107L2692 76C2678 66 2662 59 2653 59C2645 59 2639 68 2639 82C2639 90 2640 99 2647 128ZM2404 59C2388 59 2379 73 2379 98C2379 224 2425 380 2474 418C2487 428 2506 433 2533 433C2577 433 2606 427 2639 410L2627 351C2590 171 2449 59 2404 59ZM3060 204L3031 77C3027 60 3025 42 3025 26C3025 4 3034 -9 3049 -9C3072 -9 3113 17 3195 85L3188 106C3164 86 3135 59 3113 59C3104 59 3098 68 3098 82C3098 87 3098 90 3099 93L3191 472L3181 481L3148 463C3107 478 3090 482 3063 482C3035 482 3015 477 2988 464C2926 433 2893 403 2868 354C2824 265 2793 145 2793 67C2793 23 2808 -11 2827 -11C2864 -11 2944 41 3060 204ZM3108 414C3086 305 3067 253 3033 201C2976 117 2915 59 2883 59C2871 59 2865 72 2865 99C2865 163 2893 280 2928 360C2952 415 2975 433 3023 433C3046 433 3064 429 3108 414ZM3715 722L3703 733C3651 707 3615 698 3543 691L3539 670L3587 670C3611 670 3621 663 3621 646C3621 638 3620 629 3619 622L3591 468C3561 477 3534 482 3509 482C3440 482 3346 410 3300 323C3269 265 3249 170 3249 86C3249 21 3264 -11 3293 -11C3320 -11 3357 6 3391 33C3445 77 3478 116 3545 217L3522 126C3511 82 3506 50 3506 24C3506 3 3515 -9 3532 -9C3549 -9 3573 3 3607 28L3688 88L3678 107L3634 76C3620 66 3604 59 3595 59C3587 59 3581 68 3581 82C3581 90 3582 99 3589 128ZM3346 59C3330 59 3321 73 3321 98C3321 224 3367 380 3416 418C3429 428 3448 433 3475 433C3519 433 3548 427 3581 410L3569 351C3532 171 3391 59 3346 59ZM4325 437L4309 437L4330 549C4346 635 4374 673 4420 673C4450 673 4477 658 4492 634L4502 638C4507 654 4517 685 4525 705L4530 720C4514 727 4483 733 4460 733C4449 733 4433 730 4425 726C4401 715 4319 654 4296 630C4274 608 4262 578 4251 521L4236 442C4195 422 4175 414 4150 405L4145 383L4226 383L4217 327C4187 132 4150 -54 4128 -123C4110 -182 4080 -213 4044 -213C4021 -213 4010 -206 3992 -184L3978 -188C3974 -211 3960 -259 3955 -268C3964 -273 3979 -276 3990 -276C4031 -276 4085 -245 4124 -198C4195 -114 4215 -18 4299 383L4403 383C4407 402 4414 425 4420 439L4416 446C4387 439 4388 437 4325 437ZM4564 388L4571 368L4603 389C4640 412 4643 414 4650 414C4660 414 4668 404 4668 391C4668 384 4664 361 4660 347L4594 107C4586 76 4581 49 4581 30C4581 6 4592 -9 4611 -9C4637 -9 4673 12 4771 85L4761 103L4735 86C4706 67 4683 56 4674 56C4667 56 4661 66 4661 76C4661 86 4663 95 4668 116L4745 420C4749 437 4751 448 4751 456C4751 473 4742 482 4726 482C4704 482 4667 461 4592 408ZM4758 712C4729 712 4700 679 4700 645C4700 620 4715 604 4739 604C4770 604 4794 633 4794 671C4794 695 4779 712 4758 712ZM4831 388L4838 368L4870 389C4907 412 4910 414 4917 414C4928 414 4935 404 4935 389C4935 338 4894 145 4853 2L4860 -9C4885 -2 4908 4 4930 8C4949 134 4970 199 5016 268C5070 352 5145 414 5190 414C5201 414 5207 405 5207 390C5207 372 5204 351 5196 319L5144 107C5135 70 5131 47 5131 31C5131 6 5142 -9 5161 -9C5187 -9 5223 12 5321 85L5311 103L5285 86C5256 67 5234 56 5224 56C5217 56 5211 65 5211 76C5211 81 5212 92 5213 96L5279 372C5286 401 5290 429 5290 446C5290 469 5279 482 5259 482C5217 482 5148 444 5089 389C5051 354 5023 320 4971 247L5009 408C5013 426 5015 438 5015 449C5015 470 5007 482 4992 482C4971 482 4932 460 4859 408ZM5633 204L5604 77C5600 60 5598 42 5598 26C5598 4 5607 -9 5622 -9C5645 -9 5686 17 5768 85L5761 106C5737 86 5708 59 5686 59C5677 59 5671 68 5671 82C5671 87 5671 90 5672 93L5764 472L5754 481L5721 463C5680 478 5663 482 5636 482C5608 482 5588 477 5561 464C5499 433 5466 403 5441 354C5397 265 5366 145 5366 67C5366 23 5381 -11 5400 -11C5437 -11 5517 41 5633 204ZM5681 414C5659 305 5640 253 5606 201C5549 117 5488 59 5456 59C5444 59 5438 72 5438 99C5438 163 5466 280 5501 360C5525 415 5548 433 5596 433C5619 433 5637 429 5681 414ZM6056 722L6044 733C5992 707 5956 698 5884 691L5880 670L5928 670C5952 670 5962 663 5962 648C5962 645 5962 640 5959 622C5948 567 5875 182 5860 132C5847 82 5841 52 5841 31C5841 6 5852 -9 5871 -9C5897 -9 5933 12 6031 85L6021 103L5995 86C5966 67 5944 56 5934 56C5927 56 5921 66 5921 76C5921 82 5922 89 5925 104ZM6823 473L6816 482L6748 465L6738 414C6723 336 6698 268 6667 221C6608 130 6530 59 6490 59C6482 59 6477 68 6477 85C6477 99 6479 112 6484 137L6541 408C6544 424 6546 438 6546 451C6546 470 6537 482 6523 482C6503 482 6465 461 6391 408L6363 388L6370 368L6402 389C6430 407 6441 412 6450 412C6459 412 6467 403 6467 392C6467 388 6466 378 6465 374L6402 77C6400 68 6398 44 6398 30C6398 7 6413 -11 6433 -11C6496 -11 6617 101 6701 239L6664 97C6657 73 6653 46 6653 31C6653 6 6664 -9 6683 -9C6709 -9 6745 12 6843 85L6833 103L6807 86C6783 70 6757 59 6746 59C6738 59 6733 66 6733 76C6733 112 6808 416 6823 473ZM6910 388L6917 368L6949 389C6986 412 6989 414 6996 414C7007 414 7014 404 7014 389C7014 338 6973 145 6932 2L6939 -9C6964 -2 6987 4 7009 8C7028 134 7049 199 7095 268C7149 352 7224 414 7269 414C7280 414 7286 405 7286 390C7286 372 7283 351 7275 319L7223 107C7214 70 7210 47 7210 31C7210 6 7221 -9 7240 -9C7266 -9 7302 12 7400 85L7390 103L7364 86C7335 67 7313 56 7303 56C7296 56 7290 65 7290 76C7290 81 7291 92 7292 96L7358 372C7365 401 7369 429 7369 446C7369 469 7358 482 7338 482C7296 482 7227 444 7168 389C7130 354 7102 320 7050 247L7088 408C7092 426 7094 438 7094 449C7094 470 7086 482 7071 482C7050 482 7011 460 6938 408ZM7475 388L7482 368L7514 389C7551 412 7554 414 7561 414C7571 414 7579 404 7579 391C7579 384 7575 361 7571 347L7505 107C7497 76 7492 49 7492 30C7492 6 7503 -9 7522 -9C7548 -9 7584 12 7682 85L7672 103L7646 86C7617 67 7594 56 7585 56C7578 56 7572 66 7572 76C7572 86 7574 95 7579 116L7656 420C7660 437 7662 448 7662 456C7662 473 7653 482 7637 482C7615 482 7578 461 7503 408ZM7669 712C7640 712 7611 679 7611 645C7611 620 7626 604 7650 604C7681 604 7705 633 7705 671C7705 695 7690 712 7669 712ZM8063 437L8047 437L8068 549C8084 635 8112 673 8158 673C8188 673 8215 658 8230 634L8240 638C8245 654 8255 685 8263 705L8268 720C8252 727 8221 733 8198 733C8187 733 8171 730 8163 726C8139 715 8057 654 8034 630C8012 608 8000 578 7989 521L7974 442C7933 422 7913 414 7888 405L7883 383L7964 383L7955 327C7925 132 7888 -54 7866 -123C7848 -182 7818 -213 7782 -213C7759 -213 7748 -206 7730 -184L7716 -188C7712 -211 7698 -259 7693 -268C7702 -273 7717 -276 7728 -276C7769 -276 7823 -245 7862 -198C7933 -114 7953 -18 8037 383L8141 383C8145 402 8152 425 8158 439L8154 446C8125 439 8126 437 8063 437ZM8285 152C8285 46 8330 -11 8413 -11C8468 -11 8528 15 8573 57C8635 116 8679 230 8679 331C8679 425 8629 482 8546 482C8442 482 8285 382 8285 152ZM8509 444C8570 444 8603 399 8603 315C8603 219 8572 113 8528 60C8510 39 8484 27 8453 27C8395 27 8361 72 8361 151C8361 264 8400 387 8449 427C8462 438 8485 444 8509 444ZM9079 365C9082 403 9087 435 9095 476C9084 481 9080 482 9075 482C9044 482 9013 458 8977 407C8938 351 8899 291 8883 256L8915 408C8919 425 8921 438 8921 450C8921 470 8913 482 8898 482C8877 482 8839 461 8765 408L8737 388L8744 368L8776 389C8804 407 8815 412 8824 412C8834 412 8841 403 8841 390C8841 332 8798 126 8758 -2L8768 -9C8783 -4 8799 -1 8822 4L8835 6L8861 126C8879 209 8902 262 8946 319C8980 363 9007 384 9029 384C9044 384 9054 379 9065 365ZM9829 103L9803 86C9774 67 9752 56 9742 56C9735 56 9729 65 9729 76C9729 86 9731 95 9736 116L9811 413C9815 430 9818 446 9818 454C9818 471 9808 482 9792 482C9763 482 9725 464 9664 421C9601 376 9566 341 9517 272L9547 409C9551 429 9554 444 9554 451C9554 470 9544 482 9528 482C9498 482 9452 460 9397 418C9353 384 9333 363 9268 275L9301 408C9305 424 9307 439 9307 451C9307 470 9298 482 9284 482C9263 482 9225 461 9151 408L9123 388L9130 368C9167 391 9202 414 9209 414C9220 414 9227 404 9227 389C9227 338 9186 145 9145 2L9148 -9L9216 6L9238 108C9262 219 9289 278 9344 338C9386 384 9431 414 9459 414C9466 414 9470 406 9470 393C9470 358 9448 244 9407 69L9391 2L9396 -9L9465 6L9486 113C9502 194 9536 269 9580 318C9635 379 9685 414 9717 414C9725 414 9730 405 9730 389C9730 365 9727 351 9705 264C9665 105 9649 84 9649 31C9649 6 9660 -9 9679 -9C9705 -9 9741 12 9839 85ZM10204 111L10180 94C10127 56 10079 36 10043 36C9996 36 9967 73 9967 133C9967 158 9970 185 9975 214C9992 218 10101 248 10126 259C10211 296 10250 342 10250 404C10250 451 10216 482 10166 482C10098 496 9988 423 9951 349C9921 299 9891 180 9891 113C9891 35 9935 -11 10007 -11C10064 -11 10120 17 10212 92ZM9989 274C10006 343 10026 386 10055 412C10073 428 10104 440 10128 440C10157 440 10176 420 10176 388C10176 344 10141 297 10089 272C10061 258 10025 247 9980 237Z" stroke="rgb(0,0,0)" stroke-opacity="1" stroke-width="8" fill="rgb(0,0,0)" fill-opacity="1"></path></g></g></g><g><g><g transform="matrix(1,0,0,1,2,78.52001190185547)"><path transform="matrix(0.017,0,0,-0.017,0,0)" d="M730 103L704 86C675 67 653 56 643 56C636 56 630 65 630 76C630 86 632 95 637 116L712 413C716 430 719 446 719 454C719 471 709 482 693 482C664 482 626 464 565 421C502 376 467 341 418 272L448 409C452 429 455 444 455 451C455 470 445 482 429 482C399 482 353 460 298 418C254 384 234 363 169 275L202 408C206 424 208 439 208 451C208 470 199 482 185 482C164 482 126 461 52 408L24 388L31 368C68 391 103 414 110 414C121 414 128 404 128 389C128 338 87 145 46 2L49 -9L117 6L139 108C163 219 190 278 245 338C287 384 332 414 360 414C367 414 371 406 371 393C371 358 349 244 308 69L292 2L297 -9L366 6L387 113C403 194 437 269 481 318C536 379 586 414 618 414C626 414 631 405 631 389C631 365 628 351 606 264C566 105 550 84 550 31C550 6 561 -9 580 -9C606 -9 642 12 740 85Z" stroke="rgb(0,0,0)" stroke-opacity="1" stroke-width="8" fill="rgb(0,0,0)" fill-opacity="1"></path></g></g><g><g><g><g><g transform="matrix(1,0,0,1,15.724990844726562,82.48000946044922)"><path transform="matrix(0.0119,0,0,-0.0119,0,0)" d="M418 -3L418 27L366 30C311 33 301 44 301 96L301 700L60 598L67 548L217 614L217 96C217 44 206 33 152 30L96 27L96 -3C250 0 250 0 261 0C292 0 402 -3 418 -3Z" stroke="rgb(0,0,0)" stroke-opacity="1" stroke-width="8" fill="rgb(0,0,0)" fill-opacity="1"></path></g></g></g></g></g><g><g transform="matrix(1,0,0,1,22.68499755859375,78.52001190185547)"><path transform="matrix(0.017,0,0,-0.017,0,0)" d="M166 420C187 420 203 421 229 424C118 304 76 221 76 121C76 44 122 -11 186 -11C324 -11 477 236 477 384C477 441 451 482 415 482C402 482 390 478 382 470L332 423L343 404C352 410 361 413 370 413C397 413 413 390 413 350C413 202 316 39 228 39C179 39 148 81 148 146C148 251 187 342 285 464L275 482C255 473 242 470 214 470C186 470 144 472 115 475L103 476C97 477 92 477 91 477C79 477 70 475 59 470C45 443 34 407 21 352L43 352L60 394C67 411 87 422 111 422C144 422 128 420 166 420Z" stroke="rgb(0,0,0)" stroke-opacity="1" stroke-width="8" fill="rgb(0,0,0)" fill-opacity="1"></path></g></g><g><g><g><g><g transform="matrix(1,0,0,1,31.68499755859375,82.48000946044922)"><path transform="matrix(0.0119,0,0,-0.0119,0,0)" d="M418 -3L418 27L366 30C311 33 301 44 301 96L301 700L60 598L67 548L217 614L217 96C217 44 206 33 152 30L96 27L96 -3C250 0 250 0 261 0C292 0 402 -3 418 -3ZM533 388L540 368L572 389C609 412 612 414 619 414C629 414 637 404 637 391C637 384 633 361 629 347L563 107C555 76 550 49 550 30C550 6 561 -9 580 -9C606 -9 642 12 740 85L730 103L704 86C675 67 652 56 643 56C636 56 630 66 630 76C630 86 632 95 637 116L714 420C718 437 720 448 720 456C720 473 711 482 695 482C673 482 636 461 561 408ZM727 712C698 712 669 679 669 645C669 620 684 604 708 604C739 604 763 633 763 671C763 695 748 712 727 712Z" stroke="rgb(0,0,0)" stroke-opacity="1" stroke-width="8" fill="rgb(0,0,0)" fill-opacity="1"></path></g></g></g></g></g><g><g transform="matrix(1,0,0,1,45.334991455078125,78.52001190185547)"><path transform="matrix(0.017,0,0,-0.017,0,0)" d="M604 241L604 300L364 300L364 538L305 538L305 300L65 300L65 241L305 241L305 0L364 0L364 241Z" stroke="rgb(0,0,0)" stroke-opacity="1" stroke-width="8" fill="rgb(0,0,0)" fill-opacity="1"></path></g></g><g><g transform="matrix(1,0,0,1,60.08000183105469,78.52001190185547)"><path transform="matrix(0.017,0,0,-0.017,0,0)" d="M730 103L704 86C675 67 653 56 643 56C636 56 630 65 630 76C630 86 632 95 637 116L712 413C716 430 719 446 719 454C719 471 709 482 693 482C664 482 626 464 565 421C502 376 467 341 418 272L448 409C452 429 455 444 455 451C455 470 445 482 429 482C399 482 353 460 298 418C254 384 234 363 169 275L202 408C206 424 208 439 208 451C208 470 199 482 185 482C164 482 126 461 52 408L24 388L31 368C68 391 103 414 110 414C121 414 128 404 128 389C128 338 87 145 46 2L49 -9L117 6L139 108C163 219 190 278 245 338C287 384 332 414 360 414C367 414 371 406 371 393C371 358 349 244 308 69L292 2L297 -9L366 6L387 113C403 194 437 269 481 318C536 379 586 414 618 414C626 414 631 405 631 389C631 365 628 351 606 264C566 105 550 84 550 31C550 6 561 -9 580 -9C606 -9 642 12 740 85Z" stroke="rgb(0,0,0)" stroke-opacity="1" stroke-width="8" fill="rgb(0,0,0)" fill-opacity="1"></path></g></g><g><g><g><g><g transform="matrix(1,0,0,1,73.80500793457031,82.48000946044922)"><path transform="matrix(0.0119,0,0,-0.0119,0,0)" d="M16 23L16 -3C203 -3 203 0 239 0C275 0 275 -3 468 -3L468 82C353 77 307 81 122 77L304 270C401 373 431 428 431 503C431 618 353 689 226 689C154 689 105 669 56 619L39 483L68 483L81 529C97 587 133 612 200 612C286 612 341 558 341 473C341 398 299 324 186 204Z" stroke="rgb(0,0,0)" stroke-opacity="1" stroke-width="8" fill="rgb(0,0,0)" fill-opacity="1"></path></g></g></g></g></g><g><g transform="matrix(1,0,0,1,80.76499938964844,78.52001190185547)"><path transform="matrix(0.017,0,0,-0.017,0,0)" d="M166 420C187 420 203 421 229 424C118 304 76 221 76 121C76 44 122 -11 186 -11C324 -11 477 236 477 384C477 441 451 482 415 482C402 482 390 478 382 470L332 423L343 404C352 410 361 413 370 413C397 413 413 390 413 350C413 202 316 39 228 39C179 39 148 81 148 146C148 251 187 342 285 464L275 482C255 473 242 470 214 470C186 470 144 472 115 475L103 476C97 477 92 477 91 477C79 477 70 475 59 470C45 443 34 407 21 352L43 352L60 394C67 411 87 422 111 422C144 422 128 420 166 420Z" stroke="rgb(0,0,0)" stroke-opacity="1" stroke-width="8" fill="rgb(0,0,0)" fill-opacity="1"></path></g></g><g><g><g><g><g transform="matrix(1,0,0,1,89.76499938964844,82.48000946044922)"><path transform="matrix(0.0119,0,0,-0.0119,0,0)" d="M16 23L16 -3C203 -3 203 0 239 0C275 0 275 -3 468 -3L468 82C353 77 307 81 122 77L304 270C401 373 431 428 431 503C431 618 353 689 226 689C154 689 105 669 56 619L39 483L68 483L81 529C97 587 133 612 200 612C286 612 341 558 341 473C341 398 299 324 186 204ZM533 388L540 368L572 389C609 412 612 414 619 414C629 414 637 404 637 391C637 384 633 361 629 347L563 107C555 76 550 49 550 30C550 6 561 -9 580 -9C606 -9 642 12 740 85L730 103L704 86C675 67 652 56 643 56C636 56 630 66 630 76C630 86 632 95 637 116L714 420C718 437 720 448 720 456C720 473 711 482 695 482C673 482 636 461 561 408ZM727 712C698 712 669 679 669 645C669 620 684 604 708 604C739 604 763 633 763 671C763 695 748 712 727 712Z" stroke="rgb(0,0,0)" stroke-opacity="1" stroke-width="8" fill="rgb(0,0,0)" fill-opacity="1"></path></g></g></g></g></g><g><g transform="matrix(1,0,0,1,105.12498474121094,78.52001190185547)"><path transform="matrix(0.017,0,0,-0.017,0,0)" d="M604 347L604 406L65 406L65 347ZM604 134L604 193L65 193L65 134Z" stroke="rgb(0,0,0)" stroke-opacity="1" stroke-width="8" fill="rgb(0,0,0)" fill-opacity="1"></path></g></g><g><g transform="matrix(1,0,0,1,121.58000183105469,79.4800033569336)"><path transform="matrix(0.017,0,0,-0.017,0,0)" d="M146 266C146 526 243 632 301 700L282 726C225 675 60 542 60 266C60 159 85 58 133 -32C168 -99 200 -138 282 -215L301 -194C255 -137 146 -15 146 266Z" stroke="rgb(0,0,0)" stroke-opacity="1" stroke-width="8" fill="rgb(0,0,0)" fill-opacity="1"></path></g></g><g><g transform="matrix(1,0,0,1,127.23500061035156,78.52001190185547)"><path transform="matrix(0.017,0,0,-0.017,0,0)" d="M730 103L704 86C675 67 653 56 643 56C636 56 630 65 630 76C630 86 632 95 637 116L712 413C716 430 719 446 719 454C719 471 709 482 693 482C664 482 626 464 565 421C502 376 467 341 418 272L448 409C452 429 455 444 455 451C455 470 445 482 429 482C399 482 353 460 298 418C254 384 234 363 169 275L202 408C206 424 208 439 208 451C208 470 199 482 185 482C164 482 126 461 52 408L24 388L31 368C68 391 103 414 110 414C121 414 128 404 128 389C128 338 87 145 46 2L49 -9L117 6L139 108C163 219 190 278 245 338C287 384 332 414 360 414C367 414 371 406 371 393C371 358 349 244 308 69L292 2L297 -9L366 6L387 113C403 194 437 269 481 318C536 379 586 414 618 414C626 414 631 405 631 389C631 365 628 351 606 264C566 105 550 84 550 31C550 6 561 -9 580 -9C606 -9 642 12 740 85Z" stroke="rgb(0,0,0)" stroke-opacity="1" stroke-width="8" fill="rgb(0,0,0)" fill-opacity="1"></path></g></g><g><g><g><g><g transform="matrix(1,0,0,1,140.9600067138672,82.48000946044922)"><path transform="matrix(0.0119,0,0,-0.0119,0,0)" d="M418 -3L418 27L366 30C311 33 301 44 301 96L301 700L60 598L67 548L217 614L217 96C217 44 206 33 152 30L96 27L96 -3C250 0 250 0 261 0C292 0 402 -3 418 -3Z" stroke="rgb(0,0,0)" stroke-opacity="1" stroke-width="8" fill="rgb(0,0,0)" fill-opacity="1"></path></g></g></g></g></g><g><g transform="matrix(1,0,0,1,151.3100128173828,78.52001190185547)"><path transform="matrix(0.017,0,0,-0.017,0,0)" d="M604 241L604 300L364 300L364 538L305 538L305 300L65 300L65 241L305 241L305 0L364 0L364 241Z" stroke="rgb(0,0,0)" stroke-opacity="1" stroke-width="8" fill="rgb(0,0,0)" fill-opacity="1"></path></g></g><g><g transform="matrix(1,0,0,1,166.0550079345703,78.52001190185547)"><path transform="matrix(0.017,0,0,-0.017,0,0)" d="M730 103L704 86C675 67 653 56 643 56C636 56 630 65 630 76C630 86 632 95 637 116L712 413C716 430 719 446 719 454C719 471 709 482 693 482C664 482 626 464 565 421C502 376 467 341 418 272L448 409C452 429 455 444 455 451C455 470 445 482 429 482C399 482 353 460 298 418C254 384 234 363 169 275L202 408C206 424 208 439 208 451C208 470 199 482 185 482C164 482 126 461 52 408L24 388L31 368C68 391 103 414 110 414C121 414 128 404 128 389C128 338 87 145 46 2L49 -9L117 6L139 108C163 219 190 278 245 338C287 384 332 414 360 414C367 414 371 406 371 393C371 358 349 244 308 69L292 2L297 -9L366 6L387 113C403 194 437 269 481 318C536 379 586 414 618 414C626 414 631 405 631 389C631 365 628 351 606 264C566 105 550 84 550 31C550 6 561 -9 580 -9C606 -9 642 12 740 85Z" stroke="rgb(0,0,0)" stroke-opacity="1" stroke-width="8" fill="rgb(0,0,0)" fill-opacity="1"></path></g></g><g><g><g><g><g transform="matrix(1,0,0,1,179.78001403808594,82.48000946044922)"><path transform="matrix(0.0119,0,0,-0.0119,0,0)" d="M16 23L16 -3C203 -3 203 0 239 0C275 0 275 -3 468 -3L468 82C353 77 307 81 122 77L304 270C401 373 431 428 431 503C431 618 353 689 226 689C154 689 105 669 56 619L39 483L68 483L81 529C97 587 133 612 200 612C286 612 341 558 341 473C341 398 299 324 186 204Z" stroke="rgb(0,0,0)" stroke-opacity="1" stroke-width="8" fill="rgb(0,0,0)" fill-opacity="1"></path></g></g></g></g></g><g><g transform="matrix(1,0,0,1,186.74000549316406,79.4800033569336)"><path transform="matrix(0.017,0,0,-0.017,0,0)" d="M51 726L32 700C87 636 187 526 187 266C187 -10 83 -131 32 -194L51 -215C104 -165 273 -23 273 265C273 542 108 675 51 726Z" stroke="rgb(0,0,0)" stroke-opacity="1" stroke-width="8" fill="rgb(0,0,0)" fill-opacity="1"></path></g></g><g><g transform="matrix(1,0,0,1,192.39500427246094,78.52001190185547)"><path transform="matrix(0.017,0,0,-0.017,0,0)" d="M166 420C187 420 203 421 229 424C118 304 76 221 76 121C76 44 122 -11 186 -11C324 -11 477 236 477 384C477 441 451 482 415 482C402 482 390 478 382 470L332 423L343 404C352 410 361 413 370 413C397 413 413 390 413 350C413 202 316 39 228 39C179 39 148 81 148 146C148 251 187 342 285 464L275 482C255 473 242 470 214 470C186 470 144 472 115 475L103 476C97 477 92 477 91 477C79 477 70 475 59 470C45 443 34 407 21 352L43 352L60 394C67 411 87 422 111 422C144 422 128 420 166 420Z" stroke="rgb(0,0,0)" stroke-opacity="1" stroke-width="8" fill="rgb(0,0,0)" fill-opacity="1"></path></g></g><g><g><g><g><g transform="matrix(1,0,0,1,201.39500427246094,82.48000946044922)"><path transform="matrix(0.0119,0,0,-0.0119,0,0)" d="M345 437L329 437L350 549C366 635 394 673 440 673C470 673 497 658 512 634L522 638C527 654 537 685 545 705L550 720C534 727 503 733 480 733C469 733 453 730 445 726C421 715 339 654 316 630C294 608 282 578 271 521L256 442C215 422 195 414 170 405L165 383L246 383L237 327C207 132 170 -54 148 -123C130 -182 100 -213 64 -213C41 -213 30 -206 12 -184L-2 -188C-6 -211 -20 -259 -25 -268C-16 -273 -1 -276 10 -276C51 -276 105 -245 144 -198C215 -114 235 -18 319 383L423 383C427 402 434 425 440 439L436 446C407 439 408 437 345 437Z" stroke="rgb(0,0,0)" stroke-opacity="1" stroke-width="8" fill="rgb(0,0,0)" fill-opacity="1"></path></g></g></g></g></g></g><g></g><g><g><g transform="matrix(1,0,0,1,2,120.22000885009766)"><path transform="matrix(0.017,0,0,-0.017,0,0)" d="M390 646L463 646C541 646 577 641 580 629C583 621 585 602 584 592L580 528L608 528L635 692L544 691C456 690 388 689 353 689C316 689 252 690 166 691L71 692L53 528L82 528L97 588C102 610 109 626 115 633C121 640 159 646 196 646L308 646L222 125C206 34 204 31 164 28L113 25L109 -3L166 -2C206 -1 235 0 251 0C270 0 301 -1 340 -2L384 -3L387 25L328 28C302 29 292 37 292 58C292 67 293 74 296 93ZM627 152C627 46 672 -11 755 -11C810 -11 870 15 915 57C977 116 1021 230 1021 331C1021 425 971 482 888 482C784 482 627 382 627 152ZM851 444C912 444 945 399 945 315C945 219 914 113 870 60C852 39 826 27 795 27C737 27 703 72 703 151C703 264 742 387 791 427C804 438 827 444 851 444ZM1783 103L1757 86C1728 67 1706 56 1696 56C1689 56 1683 65 1683 76C1683 86 1685 95 1690 116L1765 413C1769 430 1772 446 1772 454C1772 471 1762 482 1746 482C1717 482 1679 464 1618 421C1555 376 1520 341 1471 272L1501 409C1505 429 1508 444 1508 451C1508 470 1498 482 1482 482C1452 482 1406 460 1351 418C1307 384 1287 363 1222 275L1255 408C1259 424 1261 439 1261 451C1261 470 1252 482 1238 482C1217 482 1179 461 1105 408L1077 388L1084 368C1121 391 1156 414 1163 414C1174 414 1181 404 1181 389C1181 338 1140 145 1099 2L1102 -9L1170 6L1192 108C1216 219 1243 278 1298 338C1340 384 1385 414 1413 414C1420 414 1424 406 1424 393C1424 358 1402 244 1361 69L1345 2L1350 -9L1419 6L1440 113C1456 194 1490 269 1534 318C1589 379 1639 414 1671 414C1679 414 1684 405 1684 389C1684 365 1681 351 1659 264C1619 105 1603 84 1603 31C1603 6 1614 -9 1633 -9C1659 -9 1695 12 1793 85ZM2101 204L2072 77C2068 60 2066 42 2066 26C2066 4 2075 -9 2090 -9C2113 -9 2154 17 2236 85L2229 106C2205 86 2176 59 2154 59C2145 59 2139 68 2139 82C2139 87 2139 90 2140 93L2232 472L2222 481L2189 463C2148 478 2131 482 2104 482C2076 482 2056 477 2029 464C1967 433 1934 403 1909 354C1865 265 1834 145 1834 67C1834 23 1849 -11 1868 -11C1905 -11 1985 41 2101 204ZM2149 414C2127 305 2108 253 2074 201C2017 117 1956 59 1924 59C1912 59 1906 72 1906 99C1906 163 1934 280 1969 360C1993 415 2016 433 2064 433C2087 433 2105 429 2149 414ZM2641 365C2644 403 2649 435 2657 476C2646 481 2642 482 2637 482C2606 482 2575 458 2539 407C2500 351 2461 291 2445 256L2477 408C2481 425 2483 438 2483 450C2483 470 2475 482 2460 482C2439 482 2401 461 2327 408L2299 388L2306 368L2338 389C2366 407 2377 412 2386 412C2396 412 2403 403 2403 390C2403 332 2360 126 2320 -2L2330 -9C2345 -4 2361 -1 2384 4L2397 6L2423 126C2441 209 2464 262 2508 319C2542 363 2569 384 2591 384C2606 384 2616 379 2627 365ZM3238 111L3214 94C3161 56 3113 36 3077 36C3030 36 3001 73 3001 133C3001 158 3004 185 3009 214C3026 218 3135 248 3160 259C3245 296 3284 342 3284 404C3284 451 3250 482 3200 482C3132 496 3022 423 2985 349C2955 299 2925 180 2925 113C2925 35 2969 -11 3041 -11C3098 -11 3154 17 3246 92ZM3023 274C3040 343 3060 386 3089 412C3107 428 3138 440 3162 440C3191 440 3210 420 3210 388C3210 344 3175 297 3123 272C3095 258 3059 247 3014 237ZM3322 388L3329 368L3361 389C3398 412 3401 414 3408 414C3419 414 3426 404 3426 389C3426 338 3385 145 3344 2L3351 -9C3376 -2 3399 4 3421 8C3440 134 3461 199 3507 268C3561 352 3636 414 3681 414C3692 414 3698 405 3698 390C3698 372 3695 351 3687 319L3635 107C3626 70 3622 47 3622 31C3622 6 3633 -9 3652 -9C3678 -9 3714 12 3812 85L3802 103L3776 86C3747 67 3725 56 3715 56C3708 56 3702 65 3702 76C3702 81 3703 92 3704 96L3770 372C3777 401 3781 429 3781 446C3781 469 3770 482 3750 482C3708 482 3639 444 3580 389C3542 354 3514 320 3462 247L3500 408C3504 426 3506 438 3506 449C3506 470 3498 482 3483 482C3462 482 3423 460 3350 408ZM4444 330L4467 330C4475 395 4482 432 4491 458C4467 473 4432 482 4395 482C4350 483 4277 463 4220 400C4166 352 4127 241 4127 136C4127 40 4169 -11 4249 -11C4303 -11 4351 9 4406 54L4456 95L4448 115L4433 105C4361 57 4323 40 4288 40C4232 40 4203 80 4203 159C4203 267 4238 371 4287 409C4308 425 4332 433 4363 433C4408 433 4444 414 4444 390ZM5000 473L4993 482L4925 465L4915 414C4900 336 4875 268 4844 221C4785 130 4707 59 4667 59C4659 59 4654 68 4654 85C4654 99 4656 112 4661 137L4718 408C4721 424 4723 438 4723 451C4723 470 4714 482 4700 482C4680 482 4642 461 4568 408L4540 388L4547 368L4579 389C4607 407 4618 412 4627 412C4636 412 4644 403 4644 392C4644 388 4643 378 4642 374L4579 77C4577 68 4575 44 4575 30C4575 7 4590 -11 4610 -11C4673 -11 4794 101 4878 239L4841 97C4834 73 4830 46 4830 31C4830 6 4841 -9 4860 -9C4886 -9 4922 12 5020 85L5010 103L4984 86C4960 70 4934 59 4923 59C4915 59 4910 66 4910 76C4910 112 4985 416 5000 473ZM5391 111L5367 94C5314 56 5266 36 5230 36C5183 36 5154 73 5154 133C5154 158 5157 185 5162 214C5179 218 5288 248 5313 259C5398 296 5437 342 5437 404C5437 451 5403 482 5353 482C5285 496 5175 423 5138 349C5108 299 5078 180 5078 113C5078 35 5122 -11 5194 -11C5251 -11 5307 17 5399 92ZM5176 274C5193 343 5213 386 5242 412C5260 428 5291 440 5315 440C5344 440 5363 420 5363 388C5363 344 5328 297 5276 272C5248 258 5212 247 5167 237ZM5475 388L5482 368L5514 389C5551 412 5554 414 5561 414C5572 414 5579 404 5579 389C5579 338 5538 145 5497 2L5504 -9C5529 -2 5552 4 5574 8C5593 134 5614 199 5660 268C5714 352 5789 414 5834 414C5845 414 5851 405 5851 390C5851 372 5848 351 5840 319L5788 107C5779 70 5775 47 5775 31C5775 6 5786 -9 5805 -9C5831 -9 5867 12 5965 85L5955 103L5929 86C5900 67 5878 56 5868 56C5861 56 5855 65 5855 76C5855 81 5856 92 5857 96L5923 372C5930 401 5934 429 5934 446C5934 469 5923 482 5903 482C5861 482 5792 444 5733 389C5695 354 5667 320 5615 247L5653 408C5657 426 5659 438 5659 449C5659 470 5651 482 5636 482C5615 482 5576 460 5503 408ZM6131 390L6075 107C6074 99 6062 61 6062 31C6062 6 6073 -9 6092 -9C6127 -9 6162 11 6240 74L6271 99L6261 117L6216 86C6187 66 6167 56 6156 56C6147 56 6142 64 6142 76C6142 102 6156 183 6185 328L6198 390L6305 390L6316 440C6278 436 6244 434 6206 434C6222 528 6233 577 6251 631L6240 646C6220 634 6193 622 6162 610L6137 440C6093 419 6067 408 6049 403L6047 390ZM6609 204L6580 77C6576 60 6574 42 6574 26C6574 4 6583 -9 6598 -9C6621 -9 6662 17 6744 85L6737 106C6713 86 6684 59 6662 59C6653 59 6647 68 6647 82C6647 87 6647 90 6648 93L6740 472L6730 481L6697 463C6656 478 6639 482 6612 482C6584 482 6564 477 6537 464C6475 433 6442 403 6417 354C6373 265 6342 145 6342 67C6342 23 6357 -11 6376 -11C6413 -11 6493 41 6609 204ZM6657 414C6635 305 6616 253 6582 201C6525 117 6464 59 6432 59C6420 59 6414 72 6414 99C6414 163 6442 280 6477 360C6501 415 6524 433 6572 433C6595 433 6613 429 6657 414ZM7415 458C7372 475 7343 482 7314 482C7239 482 7151 394 7133 374C7093 327 7054 181 7054 78C7054 19 7066 -11 7090 -11C7112 -11 7131 -3 7163 19C7210 51 7289 121 7338 209L7262 -205C7257 -229 7247 -249 7235 -262L7244 -276C7275 -268 7306 -262 7330 -259C7334 -205 7340 -150 7349 -100L7435 356C7446 417 7452 443 7462 474L7448 480ZM7148 59C7134 59 7126 80 7126 113C7126 209 7169 359 7211 409C7223 424 7252 433 7284 433C7312 433 7333 427 7381 406L7360 311C7331 174 7190 59 7148 59ZM7984 473L7977 482L7909 465L7899 414C7884 336 7859 268 7828 221C7769 130 7691 59 7651 59C7643 59 7638 68 7638 85C7638 99 7640 112 7645 137L7702 408C7705 424 7707 438 7707 451C7707 470 7698 482 7684 482C7664 482 7626 461 7552 408L7524 388L7531 368L7563 389C7591 407 7602 412 7611 412C7620 412 7628 403 7628 392C7628 388 7627 378 7626 374L7563 77C7561 68 7559 44 7559 30C7559 7 7574 -11 7594 -11C7657 -11 7778 101 7862 239L7825 97C7818 73 7814 46 7814 31C7814 6 7825 -9 7844 -9C7870 -9 7906 12 8004 85L7994 103L7968 86C7944 70 7918 59 7907 59C7899 59 7894 66 7894 76C7894 112 7969 416 7984 473ZM8375 111L8351 94C8298 56 8250 36 8214 36C8167 36 8138 73 8138 133C8138 158 8141 185 8146 214C8163 218 8272 248 8297 259C8382 296 8421 342 8421 404C8421 451 8387 482 8337 482C8269 496 8159 423 8122 349C8092 299 8062 180 8062 113C8062 35 8106 -11 8178 -11C8235 -11 8291 17 8383 92ZM8160 274C8177 343 8197 386 8226 412C8244 428 8275 440 8299 440C8328 440 8347 420 8347 388C8347 344 8312 297 8260 272C8232 258 8196 247 8151 237ZM8715 148C8710 97 8704 62 8693 16C8731 -2 8765 -11 8800 -11C8849 -11 8895 7 8946 47C8997 87 9018 124 9018 174C9018 228 8986 257 8912 271L8869 279C8809 290 8790 307 8790 348C8790 401 8835 442 8892 442C8933 442 8971 424 8987 397L8987 342L9010 342C9014 377 9018 404 9029 455C8990 474 8962 482 8929 482C8877 482 8816 452 8768 404C8742 377 8731 352 8731 316C8731 260 8762 228 8828 215L8891 203C8935 195 8951 177 8951 138C8951 73 8905 29 8834 29C8799 29 8768 40 8740 64L8740 148ZM9106 388L9113 368L9145 389C9182 412 9185 414 9192 414C9202 414 9210 404 9210 391C9210 384 9206 361 9202 347L9136 107C9128 76 9123 49 9123 30C9123 6 9134 -9 9153 -9C9179 -9 9215 12 9313 85L9303 103L9277 86C9248 67 9225 56 9216 56C9209 56 9203 66 9203 76C9203 86 9205 95 9210 116L9287 420C9291 437 9293 448 9293 456C9293 473 9284 482 9268 482C9246 482 9209 461 9134 408ZM9300 712C9271 712 9242 679 9242 645C9242 620 9257 604 9281 604C9312 604 9336 633 9336 671C9336 695 9321 712 9300 712ZM9764 420C9785 420 9801 421 9827 424C9716 304 9674 221 9674 121C9674 44 9720 -11 9784 -11C9922 -11 10075 236 10075 384C10075 441 10049 482 10013 482C10000 482 9988 478 9980 470L9930 423L9941 404C9950 410 9959 413 9968 413C9995 413 10011 390 10011 350C10011 202 9914 39 9826 39C9777 39 9746 81 9746 146C9746 251 9785 342 9883 464L9873 482C9853 473 9840 470 9812 470C9784 470 9742 472 9713 475L9701 476C9695 477 9690 477 9689 477C9677 477 9668 475 9657 470C9643 443 9632 407 9619 352L9641 352L9658 394C9665 411 9685 422 9709 422C9742 422 9726 420 9764 420ZM10368 204L10339 77C10335 60 10333 42 10333 26C10333 4 10342 -9 10357 -9C10380 -9 10421 17 10503 85L10496 106C10472 86 10443 59 10421 59C10412 59 10406 68 10406 82C10406 87 10406 90 10407 93L10499 472L10489 481L10456 463C10415 478 10398 482 10371 482C10343 482 10323 477 10296 464C10234 433 10201 403 10176 354C10132 265 10101 145 10101 67C10101 23 10116 -11 10135 -11C10172 -11 10252 41 10368 204ZM10416 414C10394 305 10375 253 10341 201C10284 117 10223 59 10191 59C10179 59 10173 72 10173 99C10173 163 10201 280 10236 360C10260 415 10283 433 10331 433C10354 433 10372 429 10416 414ZM10564 388L10571 368L10603 389C10640 412 10643 414 10650 414C10661 414 10668 404 10668 389C10668 338 10627 145 10586 2L10593 -9C10618 -2 10641 4 10663 8C10682 134 10703 199 10749 268C10803 352 10878 414 10923 414C10934 414 10940 405 10940 390C10940 372 10937 351 10929 319L10877 107C10868 70 10864 47 10864 31C10864 6 10875 -9 10894 -9C10920 -9 10956 12 11054 85L11044 103L11018 86C10989 67 10967 56 10957 56C10950 56 10944 65 10944 76C10944 81 10945 92 10946 96L11012 372C11019 401 11023 429 11023 446C11023 469 11012 482 10992 482C10950 482 10881 444 10822 389C10784 354 10756 320 10704 247L10742 408C10746 426 10748 438 10748 449C10748 470 10740 482 10725 482C10704 482 10665 460 10592 408ZM11672 111L11648 94C11595 56 11547 36 11511 36C11464 36 11435 73 11435 133C11435 158 11438 185 11443 214C11460 218 11569 248 11594 259C11679 296 11718 342 11718 404C11718 451 11684 482 11634 482C11566 496 11456 423 11419 349C11389 299 11359 180 11359 113C11359 35 11403 -11 11475 -11C11532 -11 11588 17 11680 92ZM11457 274C11474 343 11494 386 11523 412C11541 428 11572 440 11596 440C11625 440 11644 420 11644 388C11644 344 11609 297 11557 272C11529 258 11493 247 11448 237ZM11756 388L11763 368L11795 389C11832 412 11835 414 11842 414C11853 414 11860 404 11860 389C11860 338 11819 145 11778 2L11785 -9C11810 -2 11833 4 11855 8C11874 134 11895 199 11941 268C11995 352 12070 414 12115 414C12126 414 12132 405 12132 390C12132 372 12129 351 12121 319L12069 107C12060 70 12056 47 12056 31C12056 6 12067 -9 12086 -9C12112 -9 12148 12 12246 85L12236 103L12210 86C12181 67 12159 56 12149 56C12142 56 12136 65 12136 76C12136 81 12137 92 12138 96L12204 372C12211 401 12215 429 12215 446C12215 469 12204 482 12184 482C12142 482 12073 444 12014 389C11976 354 11948 320 11896 247L11934 408C11938 426 11940 438 11940 449C11940 470 11932 482 11917 482C11896 482 11857 460 11784 408Z" stroke="rgb(0,0,0)" stroke-opacity="1" stroke-width="8" fill="rgb(0,0,0)" fill-opacity="1"></path></g></g></g><g><g><g transform="matrix(1,0,0,1,2,140.38001251220703)"><path transform="matrix(0.017,0,0,-0.017,0,0)" d="M31 148C26 97 20 62 9 16C47 -2 81 -11 116 -11C165 -11 211 7 262 47C313 87 334 124 334 174C334 228 302 257 228 271L185 279C125 290 106 307 106 348C106 401 151 442 208 442C249 442 287 424 303 397L303 342L326 342C330 377 334 404 345 455C306 474 278 482 245 482C193 482 132 452 84 404C58 377 47 352 47 316C47 260 78 228 144 215L207 203C251 195 267 177 267 138C267 73 221 29 150 29C115 29 84 40 56 64L56 148ZM716 111L692 94C639 56 591 36 555 36C508 36 479 73 479 133C479 158 482 185 487 214C504 218 613 248 638 259C723 296 762 342 762 404C762 451 728 482 678 482C610 496 500 423 463 349C433 299 403 180 403 113C403 35 447 -11 519 -11C576 -11 632 17 724 92ZM501 274C518 343 538 386 567 412C585 428 616 440 640 440C669 440 688 420 688 388C688 344 653 297 601 272C573 258 537 247 492 237ZM800 388L807 368L839 389C876 412 879 414 886 414C897 414 904 404 904 389C904 338 863 145 822 2L829 -9C854 -2 877 4 899 8C918 134 939 199 985 268C1039 352 1114 414 1159 414C1170 414 1176 405 1176 390C1176 372 1173 351 1165 319L1113 107C1104 70 1100 47 1100 31C1100 6 1111 -9 1130 -9C1156 -9 1192 12 1290 85L1280 103L1254 86C1225 67 1203 56 1193 56C1186 56 1180 65 1180 76C1180 81 1181 92 1182 96L1248 372C1255 401 1259 429 1259 446C1259 469 1248 482 1228 482C1186 482 1117 444 1058 389C1020 354 992 320 940 247L978 408C982 426 984 438 984 449C984 470 976 482 961 482C940 482 901 460 828 408ZM1456 390L1400 107C1399 99 1387 61 1387 31C1387 6 1398 -9 1417 -9C1452 -9 1487 11 1565 74L1596 99L1586 117L1541 86C1512 66 1492 56 1481 56C1472 56 1467 64 1467 76C1467 102 1481 183 1510 328L1523 390L1630 390L1641 440C1603 436 1569 434 1531 434C1547 528 1558 577 1576 631L1565 646C1545 634 1518 622 1487 610L1462 440C1418 419 1392 408 1374 403L1372 390ZM1697 388L1704 368L1736 389C1773 412 1776 414 1783 414C1793 414 1801 404 1801 391C1801 384 1797 361 1793 347L1727 107C1719 76 1714 49 1714 30C1714 6 1725 -9 1744 -9C1770 -9 1806 12 1904 85L1894 103L1868 86C1839 67 1816 56 1807 56C1800 56 1794 66 1794 76C1794 86 1796 95 1801 116L1878 420C1882 437 1884 448 1884 456C1884 473 1875 482 1859 482C1837 482 1800 461 1725 408ZM1891 712C1862 712 1833 679 1833 645C1833 620 1848 604 1872 604C1903 604 1927 633 1927 671C1927 695 1912 712 1891 712ZM2423 722L2411 733C2359 707 2323 698 2251 691L2247 670L2295 670C2319 670 2329 663 2329 646C2329 638 2328 629 2327 622L2299 468C2269 477 2242 482 2217 482C2148 482 2054 410 2008 323C1977 265 1957 170 1957 86C1957 21 1972 -11 2001 -11C2028 -11 2065 6 2099 33C2153 77 2186 116 2253 217L2230 126C2219 82 2214 50 2214 24C2214 3 2223 -9 2240 -9C2257 -9 2281 3 2315 28L2396 88L2386 107L2342 76C2328 66 2312 59 2303 59C2295 59 2289 68 2289 82C2289 90 2290 99 2297 128ZM2054 59C2038 59 2029 73 2029 98C2029 224 2075 380 2124 418C2137 428 2156 433 2183 433C2227 433 2256 427 2289 410L2277 351C2240 171 2099 59 2054 59ZM2456 152C2456 46 2501 -11 2584 -11C2639 -11 2699 15 2744 57C2806 116 2850 230 2850 331C2850 425 2800 482 2717 482C2613 482 2456 382 2456 152ZM2680 444C2741 444 2774 399 2774 315C2774 219 2743 113 2699 60C2681 39 2655 27 2624 27C2566 27 2532 72 2532 151C2532 264 2571 387 2620 427C2633 438 2656 444 2680 444ZM3473 330L3496 330C3504 395 3511 432 3520 458C3496 473 3461 482 3424 482C3379 483 3306 463 3249 400C3195 352 3156 241 3156 136C3156 40 3198 -11 3278 -11C3332 -11 3380 9 3435 54L3485 95L3477 115L3462 105C3390 57 3352 40 3317 40C3261 40 3232 80 3232 159C3232 267 3267 371 3316 409C3337 425 3361 433 3392 433C3437 433 3473 414 3473 390ZM3554 152C3554 46 3599 -11 3682 -11C3737 -11 3797 15 3842 57C3904 116 3948 230 3948 331C3948 425 3898 482 3815 482C3711 482 3554 382 3554 152ZM3778 444C3839 444 3872 399 3872 315C3872 219 3841 113 3797 60C3779 39 3753 27 3722 27C3664 27 3630 72 3630 151C3630 264 3669 387 3718 427C3731 438 3754 444 3778 444ZM4004 388L4011 368L4043 389C4080 412 4083 414 4090 414C4101 414 4108 404 4108 389C4108 338 4067 145 4026 2L4033 -9C4058 -2 4081 4 4103 8C4122 134 4143 199 4189 268C4243 352 4318 414 4363 414C4374 414 4380 405 4380 390C4380 372 4377 351 4369 319L4317 107C4308 70 4304 47 4304 31C4304 6 4315 -9 4334 -9C4360 -9 4396 12 4494 85L4484 103L4458 86C4429 67 4407 56 4397 56C4390 56 4384 65 4384 76C4384 81 4385 92 4386 96L4452 372C4459 401 4463 429 4463 446C4463 469 4452 482 4432 482C4390 482 4321 444 4262 389C4224 354 4196 320 4144 247L4182 408C4186 426 4188 438 4188 449C4188 470 4180 482 4165 482C4144 482 4105 460 4032 408ZM4660 390L4604 107C4603 99 4591 61 4591 31C4591 6 4602 -9 4621 -9C4656 -9 4691 11 4769 74L4800 99L4790 117L4745 86C4716 66 4696 56 4685 56C4676 56 4671 64 4671 76C4671 102 4685 183 4714 328L4727 390L4834 390L4845 440C4807 436 4773 434 4735 434C4751 528 4762 577 4780 631L4769 646C4749 634 4722 622 4691 610L4666 440C4622 419 4596 408 4578 403L4576 390ZM5235 365C5238 403 5243 435 5251 476C5240 481 5236 482 5231 482C5200 482 5169 458 5133 407C5094 351 5055 291 5039 256L5071 408C5075 425 5077 438 5077 450C5077 470 5069 482 5054 482C5033 482 4995 461 4921 408L4893 388L4900 368L4932 389C4960 407 4971 412 4980 412C4990 412 4997 403 4997 390C4997 332 4954 126 4914 -2L4924 -9C4939 -4 4955 -1 4978 4L4991 6L5017 126C5035 209 5058 262 5102 319C5136 363 5163 384 5185 384C5200 384 5210 379 5221 365ZM5526 204L5497 77C5493 60 5491 42 5491 26C5491 4 5500 -9 5515 -9C5538 -9 5579 17 5661 85L5654 106C5630 86 5601 59 5579 59C5570 59 5564 68 5564 82C5564 87 5564 90 5565 93L5657 472L5647 481L5614 463C5573 478 5556 482 5529 482C5501 482 5481 477 5454 464C5392 433 5359 403 5334 354C5290 265 5259 145 5259 67C5259 23 5274 -11 5293 -11C5330 -11 5410 41 5526 204ZM5574 414C5552 305 5533 253 5499 201C5442 117 5381 59 5349 59C5337 59 5331 72 5331 99C5331 163 5359 280 5394 360C5418 415 5441 433 5489 433C5512 433 5530 429 5574 414ZM6066 365C6069 403 6074 435 6082 476C6071 481 6067 482 6062 482C6031 482 6000 458 5964 407C5925 351 5886 291 5870 256L5902 408C5906 425 5908 438 5908 450C5908 470 5900 482 5885 482C5864 482 5826 461 5752 408L5724 388L5731 368L5763 389C5791 407 5802 412 5811 412C5821 412 5828 403 5828 390C5828 332 5785 126 5745 -2L5755 -9C5770 -4 5786 -1 5809 4L5822 6L5848 126C5866 209 5889 262 5933 319C5967 363 5994 384 6016 384C6031 384 6041 379 6052 365ZM6120 388L6127 368L6159 389C6196 412 6199 414 6206 414C6216 414 6224 404 6224 391C6224 384 6220 361 6216 347L6150 107C6142 76 6137 49 6137 30C6137 6 6148 -9 6167 -9C6193 -9 6229 12 6327 85L6317 103L6291 86C6262 67 6239 56 6230 56C6223 56 6217 66 6217 76C6217 86 6219 95 6224 116L6301 420C6305 437 6307 448 6307 456C6307 473 6298 482 6282 482C6260 482 6223 461 6148 408ZM6314 712C6285 712 6256 679 6256 645C6256 620 6271 604 6295 604C6326 604 6350 633 6350 671C6350 695 6335 712 6314 712ZM6380 152C6380 46 6425 -11 6508 -11C6563 -11 6623 15 6668 57C6730 116 6774 230 6774 331C6774 425 6724 482 6641 482C6537 482 6380 382 6380 152ZM6604 444C6665 444 6698 399 6698 315C6698 219 6667 113 6623 60C6605 39 6579 27 6548 27C6490 27 6456 72 6456 151C6456 264 6495 387 6544 427C6557 438 6580 444 6604 444ZM7086 148C7081 97 7075 62 7064 16C7102 -2 7136 -11 7171 -11C7220 -11 7266 7 7317 47C7368 87 7389 124 7389 174C7389 228 7357 257 7283 271L7240 279C7180 290 7161 307 7161 348C7161 401 7206 442 7263 442C7304 442 7342 424 7358 397L7358 342L7381 342C7385 377 7389 404 7400 455C7361 474 7333 482 7300 482C7248 482 7187 452 7139 404C7113 377 7102 352 7102 316C7102 260 7133 228 7199 215L7262 203C7306 195 7322 177 7322 138C7322 73 7276 29 7205 29C7170 29 7139 40 7111 64L7111 148ZM7771 111L7747 94C7694 56 7646 36 7610 36C7563 36 7534 73 7534 133C7534 158 7537 185 7542 214C7559 218 7668 248 7693 259C7778 296 7817 342 7817 404C7817 451 7783 482 7733 482C7665 496 7555 423 7518 349C7488 299 7458 180 7458 113C7458 35 7502 -11 7574 -11C7631 -11 7687 17 7779 92ZM7556 274C7573 343 7593 386 7622 412C7640 428 7671 440 7695 440C7724 440 7743 420 7743 388C7743 344 7708 297 7656 272C7628 258 7592 247 7547 237ZM8205 390L8149 107C8148 99 8136 61 8136 31C8136 6 8147 -9 8166 -9C8201 -9 8236 11 8314 74L8345 99L8335 117L8290 86C8261 66 8241 56 8230 56C8221 56 8216 64 8216 76C8216 102 8230 183 8259 328L8272 390L8379 390L8390 440C8352 436 8318 434 8280 434C8296 528 8307 577 8325 631L8314 646C8294 634 8267 622 8236 610L8211 440C8167 419 8141 408 8123 403L8121 390ZM8429 152C8429 46 8474 -11 8557 -11C8612 -11 8672 15 8717 57C8779 116 8823 230 8823 331C8823 425 8773 482 8690 482C8586 482 8429 382 8429 152ZM8653 444C8714 444 8747 399 8747 315C8747 219 8716 113 8672 60C8654 39 8628 27 8597 27C8539 27 8505 72 8505 151C8505 264 8544 387 8593 427C8606 438 8629 444 8653 444ZM9585 103L9559 86C9530 67 9508 56 9498 56C9491 56 9485 65 9485 76C9485 86 9487 95 9492 116L9567 413C9571 430 9574 446 9574 454C9574 471 9564 482 9548 482C9519 482 9481 464 9420 421C9357 376 9322 341 9273 272L9303 409C9307 429 9310 444 9310 451C9310 470 9300 482 9284 482C9254 482 9208 460 9153 418C9109 384 9089 363 9024 275L9057 408C9061 424 9063 439 9063 451C9063 470 9054 482 9040 482C9019 482 8981 461 8907 408L8879 388L8886 368C8923 391 8958 414 8965 414C8976 414 8983 404 8983 389C8983 338 8942 145 8901 2L8904 -9L8972 6L8994 108C9018 219 9045 278 9100 338C9142 384 9187 414 9215 414C9222 414 9226 406 9226 393C9226 358 9204 244 9163 69L9147 2L9152 -9L9221 6L9242 113C9258 194 9292 269 9336 318C9391 379 9441 414 9473 414C9481 414 9486 405 9486 389C9486 365 9483 351 9461 264C9421 105 9405 84 9405 31C9405 6 9416 -9 9435 -9C9461 -9 9497 12 9595 85ZM9903 204L9874 77C9870 60 9868 42 9868 26C9868 4 9877 -9 9892 -9C9915 -9 9956 17 10038 85L10031 106C10007 86 9978 59 9956 59C9947 59 9941 68 9941 82C9941 87 9941 90 9942 93L10034 472L10024 481L9991 463C9950 478 9933 482 9906 482C9878 482 9858 477 9831 464C9769 433 9736 403 9711 354C9667 265 9636 145 9636 67C9636 23 9651 -11 9670 -11C9707 -11 9787 41 9903 204ZM9951 414C9929 305 9910 253 9876 201C9819 117 9758 59 9726 59C9714 59 9708 72 9708 99C9708 163 9736 280 9771 360C9795 415 9818 433 9866 433C9889 433 9907 429 9951 414ZM10816 473L10809 482L10741 465L10731 414C10716 336 10691 268 10660 221C10601 130 10523 59 10483 59C10475 59 10470 68 10470 85C10470 99 10472 112 10477 137L10534 408C10537 424 10539 438 10539 451C10539 470 10530 482 10516 482C10496 482 10458 461 10384 408L10356 388L10363 368L10395 389C10423 407 10434 412 10443 412C10452 412 10460 403 10460 392C10460 388 10459 378 10458 374L10395 77C10393 68 10391 44 10391 30C10391 7 10406 -11 10426 -11C10489 -11 10610 101 10694 239L10657 97C10650 73 10646 46 10646 31C10646 6 10657 -9 10676 -9C10702 -9 10738 12 10836 85L10826 103L10800 86C10776 70 10750 59 10739 59C10731 59 10726 66 10726 76C10726 112 10801 416 10816 473ZM10903 388L10910 368L10942 389C10979 412 10982 414 10989 414C11000 414 11007 404 11007 389C11007 338 10966 145 10925 2L10932 -9C10957 -2 10980 4 11002 8C11021 134 11042 199 11088 268C11142 352 11217 414 11262 414C11273 414 11279 405 11279 390C11279 372 11276 351 11268 319L11216 107C11207 70 11203 47 11203 31C11203 6 11214 -9 11233 -9C11259 -9 11295 12 11393 85L11383 103L11357 86C11328 67 11306 56 11296 56C11289 56 11283 65 11283 76C11283 81 11284 92 11285 96L11351 372C11358 401 11362 429 11362 446C11362 469 11351 482 11331 482C11289 482 11220 444 11161 389C11123 354 11095 320 11043 247L11081 408C11085 426 11087 438 11087 449C11087 470 11079 482 11064 482C11043 482 11004 460 10931 408ZM11705 204L11676 77C11672 60 11670 42 11670 26C11670 4 11679 -9 11694 -9C11717 -9 11758 17 11840 85L11833 106C11809 86 11780 59 11758 59C11749 59 11743 68 11743 82C11743 87 11743 90 11744 93L11836 472L11826 481L11793 463C11752 478 11735 482 11708 482C11680 482 11660 477 11633 464C11571 433 11538 403 11513 354C11469 265 11438 145 11438 67C11438 23 11453 -11 11472 -11C11509 -11 11589 41 11705 204ZM11753 414C11731 305 11712 253 11678 201C11621 117 11560 59 11528 59C11516 59 11510 72 11510 99C11510 163 11538 280 11573 360C11597 415 11620 433 11668 433C11691 433 11709 429 11753 414Z" stroke="rgb(0,0,0)" stroke-opacity="1" stroke-width="8" fill="rgb(0,0,0)" fill-opacity="1"></path></g></g></g><g><g><g transform="matrix(1,0,0,1,2,160.54000091552734)"><path transform="matrix(0.017,0,0,-0.017,0,0)" d="M483 722L471 733C419 707 383 698 311 691L307 670L355 670C379 670 389 663 389 646C389 638 388 629 387 622L359 468C329 477 302 482 277 482C208 482 114 410 68 323C37 265 17 170 17 86C17 21 32 -11 61 -11C88 -11 125 6 159 33C213 77 246 116 313 217L290 126C279 82 274 50 274 24C274 3 283 -9 300 -9C317 -9 341 3 375 28L456 88L446 107L402 76C388 66 372 59 363 59C355 59 349 68 349 82C349 90 350 99 357 128ZM114 59C98 59 89 73 89 98C89 224 135 380 184 418C197 428 216 433 243 433C287 433 316 427 349 410L337 351C300 171 159 59 114 59ZM827 111L803 94C750 56 702 36 666 36C619 36 590 73 590 133C590 158 593 185 598 214C615 218 724 248 749 259C834 296 873 342 873 404C873 451 839 482 789 482C721 496 611 423 574 349C544 299 514 180 514 113C514 35 558 -11 630 -11C687 -11 743 17 835 92ZM612 274C629 343 649 386 678 412C696 428 727 440 751 440C780 440 799 420 799 388C799 344 764 297 712 272C684 258 648 247 603 237ZM1387 722L1375 733C1323 707 1287 698 1215 691L1211 670L1259 670C1283 670 1293 663 1293 648C1293 645 1293 640 1290 622C1279 567 1206 182 1191 132C1178 82 1172 52 1172 31C1172 6 1183 -9 1202 -9C1228 -9 1264 12 1362 85L1352 103L1326 86C1297 67 1275 56 1265 56C1258 56 1252 66 1252 76C1252 82 1253 89 1256 104ZM1684 204L1655 77C1651 60 1649 42 1649 26C1649 4 1658 -9 1673 -9C1696 -9 1737 17 1819 85L1812 106C1788 86 1759 59 1737 59C1728 59 1722 68 1722 82C1722 87 1722 90 1723 93L1815 472L1805 481L1772 463C1731 478 1714 482 1687 482C1659 482 1639 477 1612 464C1550 433 1517 403 1492 354C1448 265 1417 145 1417 67C1417 23 1432 -11 1451 -11C1488 -11 1568 41 1684 204ZM1732 414C1710 305 1691 253 1657 201C1600 117 1539 59 1507 59C1495 59 1489 72 1489 99C1489 163 1517 280 1552 360C1576 415 1599 433 1647 433C1670 433 1688 429 1732 414ZM1887 148C1882 97 1876 62 1865 16C1903 -2 1937 -11 1972 -11C2021 -11 2067 7 2118 47C2169 87 2190 124 2190 174C2190 228 2158 257 2084 271L2041 279C1981 290 1962 307 1962 348C1962 401 2007 442 2064 442C2105 442 2143 424 2159 397L2159 342L2182 342C2186 377 2190 404 2201 455C2162 474 2134 482 2101 482C2049 482 1988 452 1940 404C1914 377 1903 352 1903 316C1903 260 1934 228 2000 215L2063 203C2107 195 2123 177 2123 138C2123 73 2077 29 2006 29C1971 29 1940 40 1912 64L1912 148ZM2659 420C2680 420 2696 421 2722 424C2611 304 2569 221 2569 121C2569 44 2615 -11 2679 -11C2817 -11 2970 236 2970 384C2970 441 2944 482 2908 482C2895 482 2883 478 2875 470L2825 423L2836 404C2845 410 2854 413 2863 413C2890 413 2906 390 2906 350C2906 202 2809 39 2721 39C2672 39 2641 81 2641 146C2641 251 2680 342 2778 464L2768 482C2748 473 2735 470 2707 470C2679 470 2637 472 2608 475L2596 476C2590 477 2585 477 2584 477C2572 477 2563 475 2552 470C2538 443 2527 407 2514 352L2536 352L2553 394C2560 411 2580 422 2604 422C2637 422 2621 420 2659 420ZM3320 111L3296 94C3243 56 3195 36 3159 36C3112 36 3083 73 3083 133C3083 158 3086 185 3091 214C3108 218 3217 248 3242 259C3327 296 3366 342 3366 404C3366 451 3332 482 3282 482C3214 496 3104 423 3067 349C3037 299 3007 180 3007 113C3007 35 3051 -11 3123 -11C3180 -11 3236 17 3328 92ZM3105 274C3122 343 3142 386 3171 412C3189 428 3220 440 3244 440C3273 440 3292 420 3292 388C3292 344 3257 297 3205 272C3177 258 3141 247 3096 237ZM3631 722L3619 733C3567 707 3531 698 3459 691L3455 670L3503 670C3527 670 3537 663 3537 648C3537 645 3537 640 3534 622C3523 567 3450 182 3435 132C3422 82 3416 52 3416 31C3416 6 3427 -9 3446 -9C3472 -9 3508 12 3606 85L3596 103L3570 86C3541 67 3519 56 3509 56C3502 56 3496 66 3496 76C3496 82 3497 89 3500 104ZM3674 152C3674 46 3719 -11 3802 -11C3857 -11 3917 15 3962 57C4024 116 4068 230 4068 331C4068 425 4018 482 3935 482C3831 482 3674 382 3674 152ZM3898 444C3959 444 3992 399 3992 315C3992 219 3961 113 3917 60C3899 39 3873 27 3842 27C3784 27 3750 72 3750 151C3750 264 3789 387 3838 427C3851 438 3874 444 3898 444ZM4442 330L4465 330C4473 395 4480 432 4489 458C4465 473 4430 482 4393 482C4348 483 4275 463 4218 400C4164 352 4125 241 4125 136C4125 40 4167 -11 4247 -11C4301 -11 4349 9 4404 54L4454 95L4446 115L4431 105C4359 57 4321 40 4286 40C4230 40 4201 80 4201 159C4201 267 4236 371 4285 409C4306 425 4330 433 4361 433C4406 433 4442 414 4442 390ZM4540 388L4547 368L4579 389C4616 412 4619 414 4626 414C4636 414 4644 404 4644 391C4644 384 4640 361 4636 347L4570 107C4562 76 4557 49 4557 30C4557 6 4568 -9 4587 -9C4613 -9 4649 12 4747 85L4737 103L4711 86C4682 67 4659 56 4650 56C4643 56 4637 66 4637 76C4637 86 4639 95 4644 116L4721 420C4725 437 4727 448 4727 456C4727 473 4718 482 4702 482C4680 482 4643 461 4568 408ZM4734 712C4705 712 4676 679 4676 645C4676 620 4691 604 4715 604C4746 604 4770 633 4770 671C4770 695 4755 712 4734 712ZM5266 722L5254 733C5202 707 5166 698 5094 691L5090 670L5138 670C5162 670 5172 663 5172 646C5172 638 5171 629 5170 622L5142 468C5112 477 5085 482 5060 482C4991 482 4897 410 4851 323C4820 265 4800 170 4800 86C4800 21 4815 -11 4844 -11C4871 -11 4908 6 4942 33C4996 77 5029 116 5096 217L5073 126C5062 82 5057 50 5057 24C5057 3 5066 -9 5083 -9C5100 -9 5124 3 5158 28L5239 88L5229 107L5185 76C5171 66 5155 59 5146 59C5138 59 5132 68 5132 82C5132 90 5133 99 5140 128ZM4897 59C4881 59 4872 73 4872 98C4872 224 4918 380 4967 418C4980 428 4999 433 5026 433C5070 433 5099 427 5132 410L5120 351C5083 171 4942 59 4897 59ZM5553 204L5524 77C5520 60 5518 42 5518 26C5518 4 5527 -9 5542 -9C5565 -9 5606 17 5688 85L5681 106C5657 86 5628 59 5606 59C5597 59 5591 68 5591 82C5591 87 5591 90 5592 93L5684 472L5674 481L5641 463C5600 478 5583 482 5556 482C5528 482 5508 477 5481 464C5419 433 5386 403 5361 354C5317 265 5286 145 5286 67C5286 23 5301 -11 5320 -11C5357 -11 5437 41 5553 204ZM5601 414C5579 305 5560 253 5526 201C5469 117 5408 59 5376 59C5364 59 5358 72 5358 99C5358 163 5386 280 5421 360C5445 415 5468 433 5516 433C5539 433 5557 429 5601 414ZM6208 722L6196 733C6144 707 6108 698 6036 691L6032 670L6080 670C6104 670 6114 663 6114 646C6114 638 6113 629 6112 622L6084 468C6054 477 6027 482 6002 482C5933 482 5839 410 5793 323C5762 265 5742 170 5742 86C5742 21 5757 -11 5786 -11C5813 -11 5850 6 5884 33C5938 77 5971 116 6038 217L6015 126C6004 82 5999 50 5999 24C5999 3 6008 -9 6025 -9C6042 -9 6066 3 6100 28L6181 88L6171 107L6127 76C6113 66 6097 59 6088 59C6080 59 6074 68 6074 82C6074 90 6075 99 6082 128ZM5839 59C5823 59 5814 73 5814 98C5814 224 5860 380 5909 418C5922 428 5941 433 5968 433C6012 433 6041 427 6074 410L6062 351C6025 171 5884 59 5839 59ZM6552 111L6528 94C6475 56 6427 36 6391 36C6344 36 6315 73 6315 133C6315 158 6318 185 6323 214C6340 218 6449 248 6474 259C6559 296 6598 342 6598 404C6598 451 6564 482 6514 482C6446 496 6336 423 6299 349C6269 299 6239 180 6239 113C6239 35 6283 -11 6355 -11C6412 -11 6468 17 6560 92ZM6337 274C6354 343 6374 386 6403 412C6421 428 6452 440 6476 440C6505 440 6524 420 6524 388C6524 344 6489 297 6437 272C6409 258 6373 247 6328 237ZM6643 148C6638 97 6632 62 6621 16C6659 -2 6693 -11 6728 -11C6777 -11 6823 7 6874 47C6925 87 6946 124 6946 174C6946 228 6914 257 6840 271L6797 279C6737 290 6718 307 6718 348C6718 401 6763 442 6820 442C6861 442 6899 424 6915 397L6915 342L6938 342C6942 377 6946 404 6957 455C6918 474 6890 482 6857 482C6805 482 6744 452 6696 404C6670 377 6659 352 6659 316C6659 260 6690 228 6756 215L6819 203C6863 195 6879 177 6879 138C6879 73 6833 29 6762 29C6727 29 6696 40 6668 64L6668 148ZM7591 330L7614 330C7622 395 7629 432 7638 458C7614 473 7579 482 7542 482C7497 483 7424 463 7367 400C7313 352 7274 241 7274 136C7274 40 7316 -11 7396 -11C7450 -11 7498 9 7553 54L7603 95L7595 115L7580 105C7508 57 7470 40 7435 40C7379 40 7350 80 7350 159C7350 267 7385 371 7434 409C7455 425 7479 433 7510 433C7555 433 7591 414 7591 390ZM7672 152C7672 46 7717 -11 7800 -11C7855 -11 7915 15 7960 57C8022 116 8066 230 8066 331C8066 425 8016 482 7933 482C7829 482 7672 382 7672 152ZM7896 444C7957 444 7990 399 7990 315C7990 219 7959 113 7915 60C7897 39 7871 27 7840 27C7782 27 7748 72 7748 151C7748 264 7787 387 7836 427C7849 438 7872 444 7896 444ZM8828 103L8802 86C8773 67 8751 56 8741 56C8734 56 8728 65 8728 76C8728 86 8730 95 8735 116L8810 413C8814 430 8817 446 8817 454C8817 471 8807 482 8791 482C8762 482 8724 464 8663 421C8600 376 8565 341 8516 272L8546 409C8550 429 8553 444 8553 451C8553 470 8543 482 8527 482C8497 482 8451 460 8396 418C8352 384 8332 363 8267 275L8300 408C8304 424 8306 439 8306 451C8306 470 8297 482 8283 482C8262 482 8224 461 8150 408L8122 388L8129 368C8166 391 8201 414 8208 414C8219 414 8226 404 8226 389C8226 338 8185 145 8144 2L8147 -9L8215 6L8237 108C8261 219 8288 278 8343 338C8385 384 8430 414 8458 414C8465 414 8469 406 8469 393C8469 358 8447 244 8406 69L8390 2L8395 -9L8464 6L8485 113C8501 194 8535 269 8579 318C8634 379 8684 414 8716 414C8724 414 8729 405 8729 389C8729 365 8726 351 8704 264C8664 105 8648 84 8648 31C8648 6 8659 -9 8678 -9C8704 -9 8740 12 8838 85ZM8892 152C8892 46 8937 -11 9020 -11C9075 -11 9135 15 9180 57C9242 116 9286 230 9286 331C9286 425 9236 482 9153 482C9049 482 8892 382 8892 152ZM9116 444C9177 444 9210 399 9210 315C9210 219 9179 113 9135 60C9117 39 9091 27 9060 27C9002 27 8968 72 8968 151C8968 264 9007 387 9056 427C9069 438 9092 444 9116 444ZM9591 388L9598 368L9630 389C9667 412 9670 414 9677 414C9688 414 9695 404 9695 389C9695 338 9654 145 9613 2L9620 -9C9645 -2 9668 4 9690 8C9709 134 9730 199 9776 268C9830 352 9905 414 9950 414C9961 414 9967 405 9967 390C9967 372 9964 351 9956 319L9904 107C9895 70 9891 47 9891 31C9891 6 9902 -9 9921 -9C9947 -9 9983 12 10081 85L10071 103L10045 86C10016 67 9994 56 9984 56C9977 56 9971 65 9971 76C9971 81 9972 92 9973 96L10039 372C10046 401 10050 429 10050 446C10050 469 10039 482 10019 482C9977 482 9908 444 9849 389C9811 354 9783 320 9731 247L9769 408C9773 426 9775 438 9775 449C9775 470 9767 482 9752 482C9731 482 9692 460 9619 408ZM10450 111L10426 94C10373 56 10325 36 10289 36C10242 36 10213 73 10213 133C10213 158 10216 185 10221 214C10238 218 10347 248 10372 259C10457 296 10496 342 10496 404C10496 451 10462 482 10412 482C10344 496 10234 423 10197 349C10167 299 10137 180 10137 113C10137 35 10181 -11 10253 -11C10310 -11 10366 17 10458 92ZM10235 274C10252 343 10272 386 10301 412C10319 428 10350 440 10374 440C10403 440 10422 420 10422 388C10422 344 10387 297 10335 272C10307 258 10271 247 10226 237ZM10785 482C10718 482 10565 419 10565 259C10565 182 10610 136 10687 136C10695 136 10706 136 10717 137L10676 99C10660 84 10649 66 10649 52C10649 42 10656 31 10670 19C10601 -4 10473 -48 10473 -159C10473 -230 10543 -276 10652 -276C10781 -276 10894 -204 10894 -121C10894 -85 10873 -49 10830 -14L10770 35C10736 62 10723 81 10723 100C10723 114 10738 128 10750 146C10848 170 10919 253 10919 342C10919 357 10916 376 10915 380C10932 378 10940 378 10949 378C10966 378 10976 379 10999 382L11008 427L11005 433C10977 426 10957 424 10903 424C10903 425 10879 482 10785 482ZM10686 1L10763 -58C10809 -94 10828 -121 10828 -154C10828 -206 10759 -248 10676 -248C10594 -248 10537 -206 10537 -145C10537 -43 10647 -11 10686 1ZM10760 448C10818 448 10847 412 10847 341C10847 238 10799 168 10729 168C10668 168 10636 209 10636 288C10636 383 10687 448 10760 448ZM11280 204L11251 77C11247 60 11245 42 11245 26C11245 4 11254 -9 11269 -9C11292 -9 11333 17 11415 85L11408 106C11384 86 11355 59 11333 59C11324 59 11318 68 11318 82C11318 87 11318 90 11319 93L11411 472L11401 481L11368 463C11327 478 11310 482 11283 482C11255 482 11235 477 11208 464C11146 433 11113 403 11088 354C11044 265 11013 145 11013 67C11013 23 11028 -11 11047 -11C11084 -11 11164 41 11280 204ZM11328 414C11306 305 11287 253 11253 201C11196 117 11135 59 11103 59C11091 59 11085 72 11085 99C11085 163 11113 280 11148 360C11172 415 11195 433 11243 433C11266 433 11284 429 11328 414ZM11577 390L11521 107C11520 99 11508 61 11508 31C11508 6 11519 -9 11538 -9C11573 -9 11608 11 11686 74L11717 99L11707 117L11662 86C11633 66 11613 56 11602 56C11593 56 11588 64 11588 76C11588 102 11602 183 11631 328L11644 390L11751 390L11762 440C11724 436 11690 434 11652 434C11668 528 11679 577 11697 631L11686 646C11666 634 11639 622 11608 610L11583 440C11539 419 11513 408 11495 403L11493 390ZM11818 388L11825 368L11857 389C11894 412 11897 414 11904 414C11914 414 11922 404 11922 391C11922 384 11918 361 11914 347L11848 107C11840 76 11835 49 11835 30C11835 6 11846 -9 11865 -9C11891 -9 11927 12 12025 85L12015 103L11989 86C11960 67 11937 56 11928 56C11921 56 11915 66 11915 76C11915 86 11917 95 11922 116L11999 420C12003 437 12005 448 12005 456C12005 473 11996 482 11980 482C11958 482 11921 461 11846 408ZM12012 712C11983 712 11954 679 11954 645C11954 620 11969 604 11993 604C12024 604 12048 633 12048 671C12048 695 12033 712 12012 712ZM12227 420C12248 420 12264 421 12290 424C12179 304 12137 221 12137 121C12137 44 12183 -11 12247 -11C12385 -11 12538 236 12538 384C12538 441 12512 482 12476 482C12463 482 12451 478 12443 470L12393 423L12404 404C12413 410 12422 413 12431 413C12458 413 12474 390 12474 350C12474 202 12377 39 12289 39C12240 39 12209 81 12209 146C12209 251 12248 342 12346 464L12336 482C12316 473 12303 470 12275 470C12247 470 12205 472 12176 475L12164 476C12158 477 12153 477 12152 477C12140 477 12131 475 12120 470C12106 443 12095 407 12082 352L12104 352L12121 394C12128 411 12148 422 12172 422C12205 422 12189 420 12227 420ZM12831 204L12802 77C12798 60 12796 42 12796 26C12796 4 12805 -9 12820 -9C12843 -9 12884 17 12966 85L12959 106C12935 86 12906 59 12884 59C12875 59 12869 68 12869 82C12869 87 12869 90 12870 93L12962 472L12952 481L12919 463C12878 478 12861 482 12834 482C12806 482 12786 477 12759 464C12697 433 12664 403 12639 354C12595 265 12564 145 12564 67C12564 23 12579 -11 12598 -11C12635 -11 12715 41 12831 204ZM12879 414C12857 305 12838 253 12804 201C12747 117 12686 59 12654 59C12642 59 12636 72 12636 99C12636 163 12664 280 12699 360C12723 415 12746 433 12794 433C12817 433 12835 429 12879 414Z" stroke="rgb(0,0,0)" stroke-opacity="1" stroke-width="8" fill="rgb(0,0,0)" fill-opacity="1"></path></g></g></g></g></svg>