<svg xmlns="http://www.w3.org/2000/svg" xmlns:xlink="http://www.w3.org/1999/xlink" width="86.92000579833984" height="86.63500213623047" style="width:86.92000579833984px;height:86.63500213623047px;font-family:Asana-Math, Asana;background:#FFF;"><g><g><g><g transform="matrix(1,0,0,1,2,20.034988403320312)"><path transform="matrix(0.017,0,0,-0.017,0,0)" d="" stroke="rgb(0,0,0)" stroke-opacity="1" stroke-width="8" fill="rgb(0,0,0)" fill-opacity="1"></path></g></g><g><g><g><g><g transform="matrix(1,0,0,1,10.47503662109375,20.9949951171875)"><path transform="matrix(0.017,0,0,-0.017,0,0)" d="M176 -11C232 -11 347 62 390 125C431 186 465 296 465 371C465 438 442 482 406 482C364 482 311 456 259 409C218 374 198 348 162 289L186 408C189 425 191 440 191 452C191 471 183 482 169 482C148 482 110 461 36 408L8 388L15 368L47 389C75 407 86 412 95 412C105 412 112 403 112 389C112 381 110 361 108 351L50 8C40 -52 21 -143 1 -233L-7 -270L0 -276C21 -269 41 -264 73 -259L115 3C136 -4 158 -11 176 -11ZM143 165C165 293 272 424 355 424C381 424 393 402 393 356C393 275 353 156 300 80C280 51 248 36 207 36C176 36 151 43 125 59Z" stroke="rgb(0,0,0)" stroke-opacity="1" stroke-width="8" fill="rgb(0,0,0)" fill-opacity="1"></path></g></g></g></g><svg x="10.47503662109375" overflow="visible" y="2" height="9.99000072479248" width="9.329999923706055"><path d=" M 9.33 4.85 l -3.15 -3.32 l -0.49 0.52 l 1.93 2.33 h -0.15 v 0.90 h 0.15 l -1.93 2.33 l 0.49 0.52 z  M 1.68 5.23 h 7.19 v -0.90 h -7.19 z" style="fill:rgb(0,0,0);fill-opacity:1;stroke-width:1px;stroke:none;stroke-opacity:1;"></path></svg></g><g><g transform="matrix(1,0,0,1,24.06500244140625,20.034988403320312)"><path transform="matrix(0.017,0,0,-0.017,0,0)" d="M604 347L604 406L65 406L65 347ZM604 134L604 193L65 193L65 134Z" stroke="rgb(0,0,0)" stroke-opacity="1" stroke-width="8" fill="rgb(0,0,0)" fill-opacity="1"></path></g></g><g><g transform="matrix(1,0,0,1,40.52001953125,20.034988403320312)"><path transform="matrix(0.017,0,0,-0.017,0,0)" d="M730 103L704 86C675 67 653 56 643 56C636 56 630 65 630 76C630 86 632 95 637 116L712 413C716 430 719 446 719 454C719 471 709 482 693 482C664 482 626 464 565 421C502 376 467 341 418 272L448 409C452 429 455 444 455 451C455 470 445 482 429 482C399 482 353 460 298 418C254 384 234 363 169 275L202 408C206 424 208 439 208 451C208 470 199 482 185 482C164 482 126 461 52 408L24 388L31 368C68 391 103 414 110 414C121 414 128 404 128 389C128 338 87 145 46 2L49 -9L117 6L139 108C163 219 190 278 245 338C287 384 332 414 360 414C367 414 371 406 371 393C371 358 349 244 308 69L292 2L297 -9L366 6L387 113C403 194 437 269 481 318C536 379 586 414 618 414C626 414 631 405 631 389C631 365 628 351 606 264C566 105 550 84 550 31C550 6 561 -9 580 -9C606 -9 642 12 740 85Z" stroke="rgb(0,0,0)" stroke-opacity="1" stroke-width="8" fill="rgb(0,0,0)" fill-opacity="1"></path></g></g><g><g><g><g><g transform="matrix(1,0,0,1,53.73504638671875,20.9949951171875)"><path transform="matrix(0.017,0,0,-0.017,0,0)" d="M166 420C187 420 203 421 229 424C118 304 76 221 76 121C76 44 122 -11 186 -11C324 -11 477 236 477 384C477 441 451 482 415 482C402 482 390 478 382 470L332 423L343 404C352 410 361 413 370 413C397 413 413 390 413 350C413 202 316 39 228 39C179 39 148 81 148 146C148 251 187 342 285 464L275 482C255 473 242 470 214 470C186 470 144 472 115 475L103 476C97 477 92 477 91 477C79 477 70 475 59 470C45 443 34 407 21 352L43 352L60 394C67 411 87 422 111 422C144 422 128 420 166 420Z" stroke="rgb(0,0,0)" stroke-opacity="1" stroke-width="8" fill="rgb(0,0,0)" fill-opacity="1"></path></g></g></g></g><svg x="53.73504638671875" overflow="visible" y="2" height="9.99000072479248" width="9.329999923706055"><path d=" M 9.33 4.85 l -3.15 -3.32 l -0.49 0.52 l 1.93 2.33 h -0.15 v 0.90 h 0.15 l -1.93 2.33 l 0.49 0.52 z  M 1.68 5.23 h 7.19 v -0.90 h -7.19 z" style="fill:rgb(0,0,0);fill-opacity:1;stroke-width:1px;stroke:none;stroke-opacity:1;"></path></svg></g></g><g></g><g><g><g transform="matrix(1,0,0,1,2,60.35499572753906)"><path transform="matrix(0.017,0,0,-0.017,0,0)" d="M730 103L704 86C675 67 653 56 643 56C636 56 630 65 630 76C630 86 632 95 637 116L712 413C716 430 719 446 719 454C719 471 709 482 693 482C664 482 626 464 565 421C502 376 467 341 418 272L448 409C452 429 455 444 455 451C455 470 445 482 429 482C399 482 353 460 298 418C254 384 234 363 169 275L202 408C206 424 208 439 208 451C208 470 199 482 185 482C164 482 126 461 52 408L24 388L31 368C68 391 103 414 110 414C121 414 128 404 128 389C128 338 87 145 46 2L49 -9L117 6L139 108C163 219 190 278 245 338C287 384 332 414 360 414C367 414 371 406 371 393C371 358 349 244 308 69L292 2L297 -9L366 6L387 113C403 194 437 269 481 318C536 379 586 414 618 414C626 414 631 405 631 389C631 365 628 351 606 264C566 105 550 84 550 31C550 6 561 -9 580 -9C606 -9 642 12 740 85Z" stroke="rgb(0,0,0)" stroke-opacity="1" stroke-width="8" fill="rgb(0,0,0)" fill-opacity="1"></path></g></g><g><g transform="matrix(1,0,0,1,18.60504150390625,60.35499572753906)"><path transform="matrix(0.017,0,0,-0.017,0,0)" d="M123 111C93 111 66 83 66 53C66 23 93 -5 122 -5C154 -5 182 22 182 53C182 83 154 111 123 111ZM123 456C93 456 66 428 66 398C66 368 93 340 122 340C154 340 182 367 182 397C182 428 154 456 123 456Z" stroke="rgb(0,0,0)" stroke-opacity="1" stroke-width="8" fill="rgb(0,0,0)" fill-opacity="1"></path></g></g><g><g transform="matrix(1,0,0,1,26.24005126953125,60.35499572753906)"><path transform="matrix(0.017,0,0,-0.017,0,0)" d="M730 103L704 86C675 67 653 56 643 56C636 56 630 65 630 76C630 86 632 95 637 116L712 413C716 430 719 446 719 454C719 471 709 482 693 482C664 482 626 464 565 421C502 376 467 341 418 272L448 409C452 429 455 444 455 451C455 470 445 482 429 482C399 482 353 460 298 418C254 384 234 363 169 275L202 408C206 424 208 439 208 451C208 470 199 482 185 482C164 482 126 461 52 408L24 388L31 368C68 391 103 414 110 414C121 414 128 404 128 389C128 338 87 145 46 2L49 -9L117 6L139 108C163 219 190 278 245 338C287 384 332 414 360 414C367 414 371 406 371 393C371 358 349 244 308 69L292 2L297 -9L366 6L387 113C403 194 437 269 481 318C536 379 586 414 618 414C626 414 631 405 631 389C631 365 628 351 606 264C566 105 550 84 550 31C550 6 561 -9 580 -9C606 -9 642 12 740 85ZM1048 204L1019 77C1015 60 1013 42 1013 26C1013 4 1022 -9 1037 -9C1060 -9 1101 17 1183 85L1176 106C1152 86 1123 59 1101 59C1092 59 1086 68 1086 82C1086 87 1086 90 1087 93L1179 472L1169 481L1136 463C1095 478 1078 482 1051 482C1023 482 1003 477 976 464C914 433 881 403 856 354C812 265 781 145 781 67C781 23 796 -11 815 -11C852 -11 932 41 1048 204ZM1096 414C1074 305 1055 253 1021 201C964 117 903 59 871 59C859 59 853 72 853 99C853 163 881 280 916 360C940 415 963 433 1011 433C1034 433 1052 429 1096 414ZM1251 148C1246 97 1240 62 1229 16C1267 -2 1301 -11 1336 -11C1385 -11 1431 7 1482 47C1533 87 1554 124 1554 174C1554 228 1522 257 1448 271L1405 279C1345 290 1326 307 1326 348C1326 401 1371 442 1428 442C1469 442 1507 424 1523 397L1523 342L1546 342C1550 377 1554 404 1565 455C1526 474 1498 482 1465 482C1413 482 1352 452 1304 404C1278 377 1267 352 1267 316C1267 260 1298 228 1364 215L1427 203C1471 195 1487 177 1487 138C1487 73 1441 29 1370 29C1335 29 1304 40 1276 64L1276 148ZM1879 204L1850 77C1846 60 1844 42 1844 26C1844 4 1853 -9 1868 -9C1891 -9 1932 17 2014 85L2007 106C1983 86 1954 59 1932 59C1923 59 1917 68 1917 82C1917 87 1917 90 1918 93L2010 472L2000 481L1967 463C1926 478 1909 482 1882 482C1854 482 1834 477 1807 464C1745 433 1712 403 1687 354C1643 265 1612 145 1612 67C1612 23 1627 -11 1646 -11C1683 -11 1763 41 1879 204ZM1927 414C1905 305 1886 253 1852 201C1795 117 1734 59 1702 59C1690 59 1684 72 1684 99C1684 163 1712 280 1747 360C1771 415 1794 433 1842 433C1865 433 1883 429 1927 414Z" stroke="rgb(0,0,0)" stroke-opacity="1" stroke-width="8" fill="rgb(0,0,0)" fill-opacity="1"></path></g></g></g><g><g><g transform="matrix(1,0,0,1,2,80.51499938964844)"><path transform="matrix(0.017,0,0,-0.017,0,0)" d="M166 420C187 420 203 421 229 424C118 304 76 221 76 121C76 44 122 -11 186 -11C324 -11 477 236 477 384C477 441 451 482 415 482C402 482 390 478 382 470L332 423L343 404C352 410 361 413 370 413C397 413 413 390 413 350C413 202 316 39 228 39C179 39 148 81 148 146C148 251 187 342 285 464L275 482C255 473 242 470 214 470C186 470 144 472 115 475L103 476C97 477 92 477 91 477C79 477 70 475 59 470C45 443 34 407 21 352L43 352L60 394C67 411 87 422 111 422C144 422 128 420 166 420Z" stroke="rgb(0,0,0)" stroke-opacity="1" stroke-width="8" fill="rgb(0,0,0)" fill-opacity="1"></path></g></g><g><g transform="matrix(1,0,0,1,13.8800048828125,80.51499938964844)"><path transform="matrix(0.017,0,0,-0.017,0,0)" d="M123 111C93 111 66 83 66 53C66 23 93 -5 122 -5C154 -5 182 22 182 53C182 83 154 111 123 111ZM123 456C93 456 66 428 66 398C66 368 93 340 122 340C154 340 182 367 182 397C182 428 154 456 123 456Z" stroke="rgb(0,0,0)" stroke-opacity="1" stroke-width="8" fill="rgb(0,0,0)" fill-opacity="1"></path></g></g><g><g transform="matrix(1,0,0,1,21.5150146484375,80.51499938964844)"><path transform="matrix(0.017,0,0,-0.017,0,0)" d="M166 420C187 420 203 421 229 424C118 304 76 221 76 121C76 44 122 -11 186 -11C324 -11 477 236 477 384C477 441 451 482 415 482C402 482 390 478 382 470L332 423L343 404C352 410 361 413 370 413C397 413 413 390 413 350C413 202 316 39 228 39C179 39 148 81 148 146C148 251 187 342 285 464L275 482C255 473 242 470 214 470C186 470 144 472 115 475L103 476C97 477 92 477 91 477C79 477 70 475 59 470C45 443 34 407 21 352L43 352L60 394C67 411 87 422 111 422C144 422 128 420 166 420ZM827 111L803 94C750 56 702 36 666 36C619 36 590 73 590 133C590 158 593 185 598 214C615 218 724 248 749 259C834 296 873 342 873 404C873 451 839 482 789 482C721 496 611 423 574 349C544 299 514 180 514 113C514 35 558 -11 630 -11C687 -11 743 17 835 92ZM612 274C629 343 649 386 678 412C696 428 727 440 751 440C780 440 799 420 799 388C799 344 764 297 712 272C684 258 648 247 603 237ZM1138 722L1126 733C1074 707 1038 698 966 691L962 670L1010 670C1034 670 1044 663 1044 648C1044 645 1044 640 1041 622C1030 567 957 182 942 132C929 82 923 52 923 31C923 6 934 -9 953 -9C979 -9 1015 12 1113 85L1103 103L1077 86C1048 67 1026 56 1016 56C1009 56 1003 66 1003 76C1003 82 1004 89 1007 104ZM1181 152C1181 46 1226 -11 1309 -11C1364 -11 1424 15 1469 57C1531 116 1575 230 1575 331C1575 425 1525 482 1442 482C1338 482 1181 382 1181 152ZM1405 444C1466 444 1499 399 1499 315C1499 219 1468 113 1424 60C1406 39 1380 27 1349 27C1291 27 1257 72 1257 151C1257 264 1296 387 1345 427C1358 438 1381 444 1405 444ZM1949 330L1972 330C1980 395 1987 432 1996 458C1972 473 1937 482 1900 482C1855 483 1782 463 1725 400C1671 352 1632 241 1632 136C1632 40 1674 -11 1754 -11C1808 -11 1856 9 1911 54L1961 95L1953 115L1938 105C1866 57 1828 40 1793 40C1737 40 1708 80 1708 159C1708 267 1743 371 1792 409C1813 425 1837 433 1868 433C1913 433 1949 414 1949 390ZM2047 388L2054 368L2086 389C2123 412 2126 414 2133 414C2143 414 2151 404 2151 391C2151 384 2147 361 2143 347L2077 107C2069 76 2064 49 2064 30C2064 6 2075 -9 2094 -9C2120 -9 2156 12 2254 85L2244 103L2218 86C2189 67 2166 56 2157 56C2150 56 2144 66 2144 76C2144 86 2146 95 2151 116L2228 420C2232 437 2234 448 2234 456C2234 473 2225 482 2209 482C2187 482 2150 461 2075 408ZM2241 712C2212 712 2183 679 2183 645C2183 620 2198 604 2222 604C2253 604 2277 633 2277 671C2277 695 2262 712 2241 712ZM2773 722L2761 733C2709 707 2673 698 2601 691L2597 670L2645 670C2669 670 2679 663 2679 646C2679 638 2678 629 2677 622L2649 468C2619 477 2592 482 2567 482C2498 482 2404 410 2358 323C2327 265 2307 170 2307 86C2307 21 2322 -11 2351 -11C2378 -11 2415 6 2449 33C2503 77 2536 116 2603 217L2580 126C2569 82 2564 50 2564 24C2564 3 2573 -9 2590 -9C2607 -9 2631 3 2665 28L2746 88L2736 107L2692 76C2678 66 2662 59 2653 59C2645 59 2639 68 2639 82C2639 90 2640 99 2647 128ZM2404 59C2388 59 2379 73 2379 98C2379 224 2425 380 2474 418C2487 428 2506 433 2533 433C2577 433 2606 427 2639 410L2627 351C2590 171 2449 59 2404 59ZM3060 204L3031 77C3027 60 3025 42 3025 26C3025 4 3034 -9 3049 -9C3072 -9 3113 17 3195 85L3188 106C3164 86 3135 59 3113 59C3104 59 3098 68 3098 82C3098 87 3098 90 3099 93L3191 472L3181 481L3148 463C3107 478 3090 482 3063 482C3035 482 3015 477 2988 464C2926 433 2893 403 2868 354C2824 265 2793 145 2793 67C2793 23 2808 -11 2827 -11C2864 -11 2944 41 3060 204ZM3108 414C3086 305 3067 253 3033 201C2976 117 2915 59 2883 59C2871 59 2865 72 2865 99C2865 163 2893 280 2928 360C2952 415 2975 433 3023 433C3046 433 3064 429 3108 414ZM3715 722L3703 733C3651 707 3615 698 3543 691L3539 670L3587 670C3611 670 3621 663 3621 646C3621 638 3620 629 3619 622L3591 468C3561 477 3534 482 3509 482C3440 482 3346 410 3300 323C3269 265 3249 170 3249 86C3249 21 3264 -11 3293 -11C3320 -11 3357 6 3391 33C3445 77 3478 116 3545 217L3522 126C3511 82 3506 50 3506 24C3506 3 3515 -9 3532 -9C3549 -9 3573 3 3607 28L3688 88L3678 107L3634 76C3620 66 3604 59 3595 59C3587 59 3581 68 3581 82C3581 90 3582 99 3589 128ZM3346 59C3330 59 3321 73 3321 98C3321 224 3367 380 3416 418C3429 428 3448 433 3475 433C3519 433 3548 427 3581 410L3569 351C3532 171 3391 59 3346 59Z" stroke="rgb(0,0,0)" stroke-opacity="1" stroke-width="8" fill="rgb(0,0,0)" fill-opacity="1"></path></g></g></g></g></svg>