<svg xmlns="http://www.w3.org/2000/svg" xmlns:xlink="http://www.w3.org/1999/xlink" width="122.36500549316406" height="24.92500114440918" style="width:122.36500549316406px;height:24.92500114440918px;font-family:Asana-Math, Asana;background:#FFF;"><g><g><g><g transform="matrix(1,0,0,1,2,18.80500030517578)"><path transform="matrix(0.017,0,0,-0.017,0,0)" d="M567 55C567 39 552 30 524 28L480 25L480 -3C582 0 582 0 602 0C622 0 622 0 724 -3L724 25L698 28C651 35 650 35 642 80L555 705L509 705L136 112C100 56 82 40 48 32L28 27L28 -3C120 0 120 0 140 0C159 0 161 0 247 -3L247 25L195 28C179 29 164 38 164 47C164 55 171 69 190 102L292 277L538 277L563 89L563 86C563 84 567 69 567 55ZM496 601L533 313L317 313Z" stroke="rgb(0,0,0)" stroke-opacity="1" stroke-width="8" fill="rgb(0,0,0)" fill-opacity="1"></path></g></g><g><g transform="matrix(1,0,0,1,19.864990234375,18.80500030517578)"><path transform="matrix(0.017,0,0,-0.017,0,0)" d="M604 347L604 406L65 406L65 347ZM604 134L604 193L65 193L65 134Z" stroke="rgb(0,0,0)" stroke-opacity="1" stroke-width="8" fill="rgb(0,0,0)" fill-opacity="1"></path></g></g><g><g transform="matrix(1,0,0,1,36.31999206542969,18.80500030517578)"><path transform="matrix(0.017,0,0,-0.017,0,0)" d="M131 331C152 512 241 611 421 665L379 689C283 657 242 637 191 593C88 506 32 384 32 247C32 82 112 -20 241 -20C371 -20 468 83 468 219C468 334 399 409 293 409C216 409 184 370 131 331ZM255 349C331 349 382 283 382 184C382 80 331 13 254 13C169 13 123 86 123 220C123 255 127 274 138 291C160 325 207 349 255 349ZM623 111C593 111 566 83 566 53C566 23 593 -5 622 -5C654 -5 682 22 682 53C682 83 654 111 623 111ZM1011 689C856 689 777 566 777 324C777 207 798 106 833 57C868 8 924 -20 986 -20C1137 -20 1213 110 1213 366C1213 585 1148 689 1011 689ZM993 654C1090 654 1129 556 1129 316C1129 103 1091 15 999 15C902 15 861 116 861 360C861 571 898 654 993 654ZM1263 23L1263 -3C1450 -3 1450 0 1486 0C1522 0 1522 -3 1715 -3L1715 82C1600 77 1554 81 1369 77L1551 270C1648 373 1678 428 1678 503C1678 618 1600 689 1473 689C1401 689 1352 669 1303 619L1286 483L1315 483L1328 529C1344 587 1380 612 1447 612C1533 612 1588 558 1588 473C1588 398 1546 324 1433 204ZM1762 23L1762 -3C1949 -3 1949 0 1985 0C2021 0 2021 -3 2214 -3L2214 82C2099 77 2053 81 1868 77L2050 270C2147 373 2177 428 2177 503C2177 618 2099 689 1972 689C1900 689 1851 669 1802 619L1785 483L1814 483L1827 529C1843 587 1879 612 1946 612C2032 612 2087 558 2087 473C2087 398 2045 324 1932 204ZM2662 267L2531 213L2526 204L2562 153L2572 153L2678 241L2696 99L2706 95L2774 121L2774 131L2706 253L2844 233L2853 241L2853 303L2847 307L2708 283L2777 408L2774 423L2712 442L2703 438L2677 295L2582 393L2572 393L2528 341L2531 331ZM3549 -3L3549 27L3497 30C3442 33 3432 44 3432 96L3432 700L3191 598L3198 548L3348 614L3348 96C3348 44 3337 33 3283 30L3227 27L3227 -3C3381 0 3381 0 3392 0C3423 0 3533 -3 3549 -3ZM3893 689C3738 689 3659 566 3659 324C3659 207 3680 106 3715 57C3750 8 3806 -20 3868 -20C4019 -20 4095 110 4095 366C4095 585 4030 689 3893 689ZM3875 654C3972 654 4011 556 4011 316C4011 103 3973 15 3881 15C3784 15 3743 116 3743 360C3743 571 3780 654 3875 654Z" stroke="rgb(0,0,0)" stroke-opacity="1" stroke-width="8" fill="rgb(0,0,0)" fill-opacity="1"></path></g></g><g><g><g><g><g transform="matrix(1,0,0,1,107.46501159667969,13.9)"><path transform="matrix(0.0119,0,0,-0.0119,0,0)" d="M16 23L16 -3C203 -3 203 0 239 0C275 0 275 -3 468 -3L468 82C353 77 307 81 122 77L304 270C401 373 431 428 431 503C431 618 353 689 226 689C154 689 105 669 56 619L39 483L68 483L81 529C97 587 133 612 200 612C286 612 341 558 341 473C341 398 299 324 186 204ZM961 224C961 345 854 366 807 374C887 436 917 482 917 541C917 630 843 689 732 689C664 689 619 670 571 622L542 498L573 498L591 554C602 588 665 622 717 622C782 622 835 569 835 506C835 431 776 368 705 368C697 368 686 369 673 370L658 371L646 318L653 312C691 329 710 334 737 334C820 334 868 281 868 190C868 88 807 21 714 21C668 21 627 36 597 64C573 86 560 109 541 163L514 153C535 92 543 56 549 6C602 -12 646 -20 683 -20C806 -20 961 87 961 224Z" stroke="rgb(0,0,0)" stroke-opacity="1" stroke-width="8" fill="rgb(0,0,0)" fill-opacity="1"></path></g></g></g></g></g></g></g></svg>