<svg xmlns="http://www.w3.org/2000/svg" xmlns:xlink="http://www.w3.org/1999/xlink" width="145.3300018310547" height="46.49500274658203" style="width:145.3300018310547px;height:46.49500274658203px;font-family:Asana-Math, Asana;background:#FFF;"><g><g><g><g transform="matrix(1,0,0,1,2,30.205001831054688)"><path transform="matrix(0.017,0,0,-0.017,0,0)" d="M24 388L31 368L63 389C100 412 103 414 110 414C121 414 128 404 128 389C128 338 87 145 46 2L53 -9C78 -2 101 4 123 8C142 134 163 199 209 268C263 352 338 414 383 414C394 414 400 405 400 390C400 372 397 351 389 319L337 107C328 70 324 47 324 31C324 6 335 -9 354 -9C380 -9 416 12 514 85L504 103L478 86C449 67 427 56 417 56C410 56 404 65 404 76C404 81 405 92 406 96L472 372C479 401 483 429 483 446C483 469 472 482 452 482C410 482 341 444 282 389C244 354 216 320 164 247L202 408C206 426 208 438 208 449C208 470 200 482 185 482C164 482 125 460 52 408Z" stroke="rgb(0,0,0)" stroke-opacity="1" stroke-width="8" fill="rgb(0,0,0)" fill-opacity="1"></path></g></g><g><g transform="matrix(1,0,0,1,16.535003662109375,30.205001831054688)"><path transform="matrix(0.017,0,0,-0.017,0,0)" d="M604 347L604 406L65 406L65 347ZM604 134L604 193L65 193L65 134Z" stroke="rgb(0,0,0)" stroke-opacity="1" stroke-width="8" fill="rgb(0,0,0)" fill-opacity="1"></path></g></g><g><g><g><g><g transform="matrix(1,0,0,1,34.68499755859375,18.040000915527344)"><path transform="matrix(0.017,0,0,-0.017,0,0)" d="M24 388L31 368L63 389C100 412 103 414 110 414C121 414 128 404 128 389C128 338 87 145 46 2L53 -9C78 -2 101 4 123 8C142 134 163 199 209 268C263 352 338 414 383 414C394 414 400 405 400 390C400 372 397 351 389 319L337 107C328 70 324 47 324 31C324 6 335 -9 354 -9C380 -9 416 12 514 85L504 103L478 86C449 67 427 56 417 56C410 56 404 65 404 76C404 81 405 92 406 96L472 372C479 401 483 429 483 446C483 469 472 482 452 482C410 482 341 444 282 389C244 354 216 320 164 247L202 408C206 426 208 438 208 449C208 470 200 482 185 482C164 482 125 460 52 408ZM754 689C672 689 605 622 605 539C605 456 672 389 755 389C836 389 905 457 905 537C905 621 838 689 754 689ZM754 649C815 649 865 599 865 537C865 479 815 429 755 429C694 429 645 478 645 539C645 600 694 649 754 649ZM1687 722L1675 733C1623 707 1587 698 1515 691L1511 670L1559 670C1583 670 1593 663 1593 646C1593 638 1592 629 1591 622L1563 468C1533 477 1506 482 1481 482C1412 482 1318 410 1272 323C1241 265 1221 170 1221 86C1221 21 1236 -11 1265 -11C1292 -11 1329 6 1363 33C1417 77 1450 116 1517 217L1494 126C1483 82 1478 50 1478 24C1478 3 1487 -9 1504 -9C1521 -9 1545 3 1579 28L1660 88L1650 107L1606 76C1592 66 1576 59 1567 59C1559 59 1553 68 1553 82C1553 90 1554 99 1561 128ZM1318 59C1302 59 1293 73 1293 98C1293 224 1339 380 1388 418C1401 428 1420 433 1447 433C1491 433 1520 427 1553 410L1541 351C1504 171 1363 59 1318 59ZM2031 111L2007 94C1954 56 1906 36 1870 36C1823 36 1794 73 1794 133C1794 158 1797 185 1802 214C1819 218 1928 248 1953 259C2038 296 2077 342 2077 404C2077 451 2043 482 1993 482C1925 496 1815 423 1778 349C1748 299 1718 180 1718 113C1718 35 1762 -11 1834 -11C1891 -11 1947 17 2039 92ZM1816 274C1833 343 1853 386 1882 412C1900 428 1931 440 1955 440C1984 440 2003 420 2003 388C2003 344 1968 297 1916 272C1888 258 1852 247 1807 237ZM3070 103L3044 86C3015 67 2993 56 2983 56C2976 56 2970 65 2970 76C2970 86 2972 95 2977 116L3052 413C3056 430 3059 446 3059 454C3059 471 3049 482 3033 482C3004 482 2966 464 2905 421C2842 376 2807 341 2758 272L2788 409C2792 429 2795 444 2795 451C2795 470 2785 482 2769 482C2739 482 2693 460 2638 418C2594 384 2574 363 2509 275L2542 408C2546 424 2548 439 2548 451C2548 470 2539 482 2525 482C2504 482 2466 461 2392 408L2364 388L2371 368C2408 391 2443 414 2450 414C2461 414 2468 404 2468 389C2468 338 2427 145 2386 2L2389 -9L2457 6L2479 108C2503 219 2530 278 2585 338C2627 384 2672 414 2700 414C2707 414 2711 406 2711 393C2711 358 2689 244 2648 69L2632 2L2637 -9L2706 6L2727 113C2743 194 2777 269 2821 318C2876 379 2926 414 2958 414C2966 414 2971 405 2971 389C2971 365 2968 351 2946 264C2906 105 2890 84 2890 31C2890 6 2901 -9 2920 -9C2946 -9 2982 12 3080 85ZM3134 152C3134 46 3179 -11 3262 -11C3317 -11 3377 15 3422 57C3484 116 3528 230 3528 331C3528 425 3478 482 3395 482C3291 482 3134 382 3134 152ZM3358 444C3419 444 3452 399 3452 315C3452 219 3421 113 3377 60C3359 39 3333 27 3302 27C3244 27 3210 72 3210 151C3210 264 3249 387 3298 427C3311 438 3334 444 3358 444ZM3811 722L3799 733C3747 707 3711 698 3639 691L3635 670L3683 670C3707 670 3717 663 3717 648C3717 645 3717 640 3714 622C3703 567 3630 182 3615 132C3602 82 3596 52 3596 31C3596 6 3607 -9 3626 -9C3652 -9 3688 12 3786 85L3776 103L3750 86C3721 67 3699 56 3689 56C3682 56 3676 66 3676 76C3676 82 3677 89 3680 104ZM4165 111L4141 94C4088 56 4040 36 4004 36C3957 36 3928 73 3928 133C3928 158 3931 185 3936 214C3953 218 4062 248 4087 259C4172 296 4211 342 4211 404C4211 451 4177 482 4127 482C4059 496 3949 423 3912 349C3882 299 3852 180 3852 113C3852 35 3896 -11 3968 -11C4025 -11 4081 17 4173 92ZM3950 274C3967 343 3987 386 4016 412C4034 428 4065 440 4089 440C4118 440 4137 420 4137 388C4137 344 4102 297 4050 272C4022 258 3986 247 3941 237ZM4567 330L4590 330C4598 395 4605 432 4614 458C4590 473 4555 482 4518 482C4473 483 4400 463 4343 400C4289 352 4250 241 4250 136C4250 40 4292 -11 4372 -11C4426 -11 4474 9 4529 54L4579 95L4571 115L4556 105C4484 57 4446 40 4411 40C4355 40 4326 80 4326 159C4326 267 4361 371 4410 409C4431 425 4455 433 4486 433C4531 433 4567 414 4567 390ZM5123 473L5116 482L5048 465L5038 414C5023 336 4998 268 4967 221C4908 130 4830 59 4790 59C4782 59 4777 68 4777 85C4777 99 4779 112 4784 137L4841 408C4844 424 4846 438 4846 451C4846 470 4837 482 4823 482C4803 482 4765 461 4691 408L4663 388L4670 368L4702 389C4730 407 4741 412 4750 412C4759 412 4767 403 4767 392C4767 388 4766 378 4765 374L4702 77C4700 68 4698 44 4698 30C4698 7 4713 -11 4733 -11C4796 -11 4917 101 5001 239L4964 97C4957 73 4953 46 4953 31C4953 6 4964 -9 4983 -9C5009 -9 5045 12 5143 85L5133 103L5107 86C5083 70 5057 59 5046 59C5038 59 5033 66 5033 76C5033 112 5108 416 5123 473ZM5437 722L5425 733C5373 707 5337 698 5265 691L5261 670L5309 670C5333 670 5343 663 5343 648C5343 645 5343 640 5340 622C5329 567 5256 182 5241 132C5228 82 5222 52 5222 31C5222 6 5233 -9 5252 -9C5278 -9 5314 12 5412 85L5402 103L5376 86C5347 67 5325 56 5315 56C5308 56 5302 66 5302 76C5302 82 5303 89 5306 104ZM5734 204L5705 77C5701 60 5699 42 5699 26C5699 4 5708 -9 5723 -9C5746 -9 5787 17 5869 85L5862 106C5838 86 5809 59 5787 59C5778 59 5772 68 5772 82C5772 87 5772 90 5773 93L5865 472L5855 481L5822 463C5781 478 5764 482 5737 482C5709 482 5689 477 5662 464C5600 433 5567 403 5542 354C5498 265 5467 145 5467 67C5467 23 5482 -11 5501 -11C5538 -11 5618 41 5734 204ZM5782 414C5760 305 5741 253 5707 201C5650 117 5589 59 5557 59C5545 59 5539 72 5539 99C5539 163 5567 280 5602 360C5626 415 5649 433 5697 433C5720 433 5738 429 5782 414ZM5937 148C5932 97 5926 62 5915 16C5953 -2 5987 -11 6022 -11C6071 -11 6117 7 6168 47C6219 87 6240 124 6240 174C6240 228 6208 257 6134 271L6091 279C6031 290 6012 307 6012 348C6012 401 6057 442 6114 442C6155 442 6193 424 6209 397L6209 342L6232 342C6236 377 6240 404 6251 455C6212 474 6184 482 6151 482C6099 482 6038 452 5990 404C5964 377 5953 352 5953 316C5953 260 5984 228 6050 215L6113 203C6157 195 6173 177 6173 138C6173 73 6127 29 6056 29C6021 29 5990 40 5962 64L5962 148Z" stroke="rgb(0,0,0)" stroke-opacity="1" stroke-width="8" fill="rgb(0,0,0)" fill-opacity="1"></path></g></g></g></g><g><g><g><g transform="matrix(1,0,0,1,81.77000427246094,43.375)"><path transform="matrix(0.017,0,0,-0.017,0,0)" d="M567 55C567 39 552 30 524 28L480 25L480 -3C582 0 582 0 602 0C622 0 622 0 724 -3L724 25L698 28C651 35 650 35 642 80L555 705L509 705L136 112C100 56 82 40 48 32L28 27L28 -3C120 0 120 0 140 0C159 0 161 0 247 -3L247 25L195 28C179 29 164 38 164 47C164 55 171 69 190 102L292 277L538 277L563 89L563 86C563 84 567 69 567 55ZM496 601L533 313L317 313Z" stroke="rgb(0,0,0)" stroke-opacity="1" stroke-width="8" fill="rgb(0,0,0)" fill-opacity="1"></path></g></g></g></g><line style="fill:none;stroke-width:0.99px;stroke:rgb(0, 0, 0);" x1="34.68499755859375" y1="26.240000009536743" x2="141.63500213623047" y2="26.240000009536743"></line></g></g></g></svg>