<svg xmlns="http://www.w3.org/2000/svg" xmlns:xlink="http://www.w3.org/1999/xlink" width="144.65499877929688" height="42.505001068115234" style="width:144.65499877929688px;height:42.505001068115234px;font-family:Asana-Math, Asana;background:#FFF;"><g><g><g><g transform="matrix(1,0,0,1,2,26.215003967285156)"><path transform="matrix(0.017,0,0,-0.017,0,0)" d="M24 388L31 368L63 389C100 412 103 414 110 414C121 414 128 404 128 389C128 338 87 145 46 2L53 -9C78 -2 101 4 123 8C142 134 163 199 209 268C263 352 338 414 383 414C394 414 400 405 400 390C400 372 397 351 389 319L337 107C328 70 324 47 324 31C324 6 335 -9 354 -9C380 -9 416 12 514 85L504 103L478 86C449 67 427 56 417 56C410 56 404 65 404 76C404 81 405 92 406 96L472 372C479 401 483 429 483 446C483 469 472 482 452 482C410 482 341 444 282 389C244 354 216 320 164 247L202 408C206 426 208 438 208 449C208 470 200 482 185 482C164 482 125 460 52 408Z" stroke="rgb(0,0,0)" stroke-opacity="1" stroke-width="8" fill="rgb(0,0,0)" fill-opacity="1"></path></g></g><g><g transform="matrix(1,0,0,1,16.535003662109375,26.215003967285156)"><path transform="matrix(0.017,0,0,-0.017,0,0)" d="M604 347L604 406L65 406L65 347ZM604 134L604 193L65 193L65 134Z" stroke="rgb(0,0,0)" stroke-opacity="1" stroke-width="8" fill="rgb(0,0,0)" fill-opacity="1"></path></g></g><g><g><g><g><g transform="matrix(1,0,0,1,70.38499450683594,14.050003051757812)"><path transform="matrix(0.017,0,0,-0.017,0,0)" d="M730 103L704 86C675 67 653 56 643 56C636 56 630 65 630 76C630 86 632 95 637 116L712 413C716 430 719 446 719 454C719 471 709 482 693 482C664 482 626 464 565 421C502 376 467 341 418 272L448 409C452 429 455 444 455 451C455 470 445 482 429 482C399 482 353 460 298 418C254 384 234 363 169 275L202 408C206 424 208 439 208 451C208 470 199 482 185 482C164 482 126 461 52 408L24 388L31 368C68 391 103 414 110 414C121 414 128 404 128 389C128 338 87 145 46 2L49 -9L117 6L139 108C163 219 190 278 245 338C287 384 332 414 360 414C367 414 371 406 371 393C371 358 349 244 308 69L292 2L297 -9L366 6L387 113C403 194 437 269 481 318C536 379 586 414 618 414C626 414 631 405 631 389C631 365 628 351 606 264C566 105 550 84 550 31C550 6 561 -9 580 -9C606 -9 642 12 740 85ZM1048 204L1019 77C1015 60 1013 42 1013 26C1013 4 1022 -9 1037 -9C1060 -9 1101 17 1183 85L1176 106C1152 86 1123 59 1101 59C1092 59 1086 68 1086 82C1086 87 1086 90 1087 93L1179 472L1169 481L1136 463C1095 478 1078 482 1051 482C1023 482 1003 477 976 464C914 433 881 403 856 354C812 265 781 145 781 67C781 23 796 -11 815 -11C852 -11 932 41 1048 204ZM1096 414C1074 305 1055 253 1021 201C964 117 903 59 871 59C859 59 853 72 853 99C853 163 881 280 916 360C940 415 963 433 1011 433C1034 433 1052 429 1096 414ZM1251 148C1246 97 1240 62 1229 16C1267 -2 1301 -11 1336 -11C1385 -11 1431 7 1482 47C1533 87 1554 124 1554 174C1554 228 1522 257 1448 271L1405 279C1345 290 1326 307 1326 348C1326 401 1371 442 1428 442C1469 442 1507 424 1523 397L1523 342L1546 342C1550 377 1554 404 1565 455C1526 474 1498 482 1465 482C1413 482 1352 452 1304 404C1278 377 1267 352 1267 316C1267 260 1298 228 1364 215L1427 203C1471 195 1487 177 1487 138C1487 73 1441 29 1370 29C1335 29 1304 40 1276 64L1276 148ZM1879 204L1850 77C1846 60 1844 42 1844 26C1844 4 1853 -9 1868 -9C1891 -9 1932 17 2014 85L2007 106C1983 86 1954 59 1932 59C1923 59 1917 68 1917 82C1917 87 1917 90 1918 93L2010 472L2000 481L1967 463C1926 478 1909 482 1882 482C1854 482 1834 477 1807 464C1745 433 1712 403 1687 354C1643 265 1612 145 1612 67C1612 23 1627 -11 1646 -11C1683 -11 1763 41 1879 204ZM1927 414C1905 305 1886 253 1852 201C1795 117 1734 59 1702 59C1690 59 1684 72 1684 99C1684 163 1712 280 1747 360C1771 415 1794 433 1842 433C1865 433 1883 429 1927 414Z" stroke="rgb(0,0,0)" stroke-opacity="1" stroke-width="8" fill="rgb(0,0,0)" fill-opacity="1"></path></g></g></g></g><g><g><g><g transform="matrix(1,0,0,1,34.68499755859375,39.38500213623047)"><path transform="matrix(0.017,0,0,-0.017,0,0)" d="M730 103L704 86C675 67 653 56 643 56C636 56 630 65 630 76C630 86 632 95 637 116L712 413C716 430 719 446 719 454C719 471 709 482 693 482C664 482 626 464 565 421C502 376 467 341 418 272L448 409C452 429 455 444 455 451C455 470 445 482 429 482C399 482 353 460 298 418C254 384 234 363 169 275L202 408C206 424 208 439 208 451C208 470 199 482 185 482C164 482 126 461 52 408L24 388L31 368C68 391 103 414 110 414C121 414 128 404 128 389C128 338 87 145 46 2L49 -9L117 6L139 108C163 219 190 278 245 338C287 384 332 414 360 414C367 414 371 406 371 393C371 358 349 244 308 69L292 2L297 -9L366 6L387 113C403 194 437 269 481 318C536 379 586 414 618 414C626 414 631 405 631 389C631 365 628 351 606 264C566 105 550 84 550 31C550 6 561 -9 580 -9C606 -9 642 12 740 85ZM1048 204L1019 77C1015 60 1013 42 1013 26C1013 4 1022 -9 1037 -9C1060 -9 1101 17 1183 85L1176 106C1152 86 1123 59 1101 59C1092 59 1086 68 1086 82C1086 87 1086 90 1087 93L1179 472L1169 481L1136 463C1095 478 1078 482 1051 482C1023 482 1003 477 976 464C914 433 881 403 856 354C812 265 781 145 781 67C781 23 796 -11 815 -11C852 -11 932 41 1048 204ZM1096 414C1074 305 1055 253 1021 201C964 117 903 59 871 59C859 59 853 72 853 99C853 163 881 280 916 360C940 415 963 433 1011 433C1034 433 1052 429 1096 414ZM1251 148C1246 97 1240 62 1229 16C1267 -2 1301 -11 1336 -11C1385 -11 1431 7 1482 47C1533 87 1554 124 1554 174C1554 228 1522 257 1448 271L1405 279C1345 290 1326 307 1326 348C1326 401 1371 442 1428 442C1469 442 1507 424 1523 397L1523 342L1546 342C1550 377 1554 404 1565 455C1526 474 1498 482 1465 482C1413 482 1352 452 1304 404C1278 377 1267 352 1267 316C1267 260 1298 228 1364 215L1427 203C1471 195 1487 177 1487 138C1487 73 1441 29 1370 29C1335 29 1304 40 1276 64L1276 148ZM1879 204L1850 77C1846 60 1844 42 1844 26C1844 4 1853 -9 1868 -9C1891 -9 1932 17 2014 85L2007 106C1983 86 1954 59 1932 59C1923 59 1917 68 1917 82C1917 87 1917 90 1918 93L2010 472L2000 481L1967 463C1926 478 1909 482 1882 482C1854 482 1834 477 1807 464C1745 433 1712 403 1687 354C1643 265 1612 145 1612 67C1612 23 1627 -11 1646 -11C1683 -11 1763 41 1879 204ZM1927 414C1905 305 1886 253 1852 201C1795 117 1734 59 1702 59C1690 59 1684 72 1684 99C1684 163 1712 280 1747 360C1771 415 1794 433 1842 433C1865 433 1883 429 1927 414ZM3030 103L3004 86C2975 67 2953 56 2943 56C2936 56 2930 65 2930 76C2930 86 2932 95 2937 116L3012 413C3016 430 3019 446 3019 454C3019 471 3009 482 2993 482C2964 482 2926 464 2865 421C2802 376 2767 341 2718 272L2748 409C2752 429 2755 444 2755 451C2755 470 2745 482 2729 482C2699 482 2653 460 2598 418C2554 384 2534 363 2469 275L2502 408C2506 424 2508 439 2508 451C2508 470 2499 482 2485 482C2464 482 2426 461 2352 408L2324 388L2331 368C2368 391 2403 414 2410 414C2421 414 2428 404 2428 389C2428 338 2387 145 2346 2L2349 -9L2417 6L2439 108C2463 219 2490 278 2545 338C2587 384 2632 414 2660 414C2667 414 2671 406 2671 393C2671 358 2649 244 2608 69L2592 2L2597 -9L2666 6L2687 113C2703 194 2737 269 2781 318C2836 379 2886 414 2918 414C2926 414 2931 405 2931 389C2931 365 2928 351 2906 264C2866 105 2850 84 2850 31C2850 6 2861 -9 2880 -9C2906 -9 2942 12 3040 85ZM3094 152C3094 46 3139 -11 3222 -11C3277 -11 3337 15 3382 57C3444 116 3488 230 3488 331C3488 425 3438 482 3355 482C3251 482 3094 382 3094 152ZM3318 444C3379 444 3412 399 3412 315C3412 219 3381 113 3337 60C3319 39 3293 27 3262 27C3204 27 3170 72 3170 151C3170 264 3209 387 3258 427C3271 438 3294 444 3318 444ZM3771 722L3759 733C3707 707 3671 698 3599 691L3595 670L3643 670C3667 670 3677 663 3677 648C3677 645 3677 640 3674 622C3663 567 3590 182 3575 132C3562 82 3556 52 3556 31C3556 6 3567 -9 3586 -9C3612 -9 3648 12 3746 85L3736 103L3710 86C3681 67 3659 56 3649 56C3642 56 3636 66 3636 76C3636 82 3637 89 3640 104ZM4125 111L4101 94C4048 56 4000 36 3964 36C3917 36 3888 73 3888 133C3888 158 3891 185 3896 214C3913 218 4022 248 4047 259C4132 296 4171 342 4171 404C4171 451 4137 482 4087 482C4019 496 3909 423 3872 349C3842 299 3812 180 3812 113C3812 35 3856 -11 3928 -11C3985 -11 4041 17 4133 92ZM3910 274C3927 343 3947 386 3976 412C3994 428 4025 440 4049 440C4078 440 4097 420 4097 388C4097 344 4062 297 4010 272C3982 258 3946 247 3901 237ZM4527 330L4550 330C4558 395 4565 432 4574 458C4550 473 4515 482 4478 482C4433 483 4360 463 4303 400C4249 352 4210 241 4210 136C4210 40 4252 -11 4332 -11C4386 -11 4434 9 4489 54L4539 95L4531 115L4516 105C4444 57 4406 40 4371 40C4315 40 4286 80 4286 159C4286 267 4321 371 4370 409C4391 425 4415 433 4446 433C4491 433 4527 414 4527 390ZM5083 473L5076 482L5008 465L4998 414C4983 336 4958 268 4927 221C4868 130 4790 59 4750 59C4742 59 4737 68 4737 85C4737 99 4739 112 4744 137L4801 408C4804 424 4806 438 4806 451C4806 470 4797 482 4783 482C4763 482 4725 461 4651 408L4623 388L4630 368L4662 389C4690 407 4701 412 4710 412C4719 412 4727 403 4727 392C4727 388 4726 378 4725 374L4662 77C4660 68 4658 44 4658 30C4658 7 4673 -11 4693 -11C4756 -11 4877 101 4961 239L4924 97C4917 73 4913 46 4913 31C4913 6 4924 -9 4943 -9C4969 -9 5005 12 5103 85L5093 103L5067 86C5043 70 5017 59 5006 59C4998 59 4993 66 4993 76C4993 112 5068 416 5083 473ZM5397 722L5385 733C5333 707 5297 698 5225 691L5221 670L5269 670C5293 670 5303 663 5303 648C5303 645 5303 640 5300 622C5289 567 5216 182 5201 132C5188 82 5182 52 5182 31C5182 6 5193 -9 5212 -9C5238 -9 5274 12 5372 85L5362 103L5336 86C5307 67 5285 56 5275 56C5268 56 5262 66 5262 76C5262 82 5263 89 5266 104ZM5694 204L5665 77C5661 60 5659 42 5659 26C5659 4 5668 -9 5683 -9C5706 -9 5747 17 5829 85L5822 106C5798 86 5769 59 5747 59C5738 59 5732 68 5732 82C5732 87 5732 90 5733 93L5825 472L5815 481L5782 463C5741 478 5724 482 5697 482C5669 482 5649 477 5622 464C5560 433 5527 403 5502 354C5458 265 5427 145 5427 67C5427 23 5442 -11 5461 -11C5498 -11 5578 41 5694 204ZM5742 414C5720 305 5701 253 5667 201C5610 117 5549 59 5517 59C5505 59 5499 72 5499 99C5499 163 5527 280 5562 360C5586 415 5609 433 5657 433C5680 433 5698 429 5742 414ZM6234 365C6237 403 6242 435 6250 476C6239 481 6235 482 6230 482C6199 482 6168 458 6132 407C6093 351 6054 291 6038 256L6070 408C6074 425 6076 438 6076 450C6076 470 6068 482 6053 482C6032 482 5994 461 5920 408L5892 388L5899 368L5931 389C5959 407 5970 412 5979 412C5989 412 5996 403 5996 390C5996 332 5953 126 5913 -2L5923 -9C5938 -4 5954 -1 5977 4L5990 6L6016 126C6034 209 6057 262 6101 319C6135 363 6162 384 6184 384C6199 384 6209 379 6220 365Z" stroke="rgb(0,0,0)" stroke-opacity="1" stroke-width="8" fill="rgb(0,0,0)" fill-opacity="1"></path></g></g></g></g><line style="fill:none;stroke-width:0.99px;stroke:rgb(0, 0, 0);" x1="34.68499755859375" y1="22.250002145767212" x2="140.95999908447266" y2="22.250002145767212"></line></g></g></g></svg>